<svg xmlns="http://www.w3.org/2000/svg" xmlns:xlink="http://www.w3.org/1999/xlink" width="16" height="16" viewBox="0 0 16 16">
  <defs>
    <path id="camera-enhance-a" d="M5.99999999,1.99999996 L4.77999998,3.3333333 L2.66666663,3.3333333 C1.9333333,3.3333333 1.33333329,3.93333331 1.33333329,4.66666665 L1.33333329,12.6666667 C1.33333329,13.4 1.9333333,14 2.66666663,14 L13.3333333,14 C14.0666667,14 14.6666667,13.4 14.6666667,12.6666667 L14.6666667,4.66666665 C14.6666667,3.93333331 14.0666667,3.3333333 13.3333333,3.3333333 L11.22,3.3333333 L10,1.99999996 L5.99999999,1.99999996 Z M8,12 C6.15999999,12 4.66666665,10.5066667 4.66666665,8.66666667 C4.66666665,6.82666666 6.15999999,5.33333332 8,5.33333332 C9.84000001,5.33333332 11.3333334,6.82666666 11.3333334,8.66666667 C11.3333334,10.5066667 9.84000001,12 8,12 Z M8,11.3333334 L8.83333332,9.49999999 L10.6666667,8.66666667 L8.83333332,7.83333333 L8,5.99999999 L7.16666666,7.83333333 L5.33333332,8.66666667 L7.16666666,9.49999999 L8,11.3333334 Z"/>
  </defs>
  <g fill="none" fill-rule="evenodd">
    <mask id="camera-enhance-b" fill="#fff">
      <use xlink:href="#camera-enhance-a"/>
    </mask>
    <g fill="CurrentColor" mask="url(#camera-enhance-b)">
      <rect width="16" height="16"/>
    </g>
  </g>
</svg>
