<svg xmlns="http://www.w3.org/2000/svg" xmlns:xlink="http://www.w3.org/1999/xlink" width="16" height="16" viewBox="0 0 16 16">
  <defs>
    <path id="description-a" d="M9.33333334,1.33333329 L3.99999997,1.33333329 C3.26666664,1.33333329 2.6733333,1.9333333 2.6733333,2.66666663 L2.66666663,13.3333333 C2.66666663,14.0666667 3.25999997,14.6666667 3.99333331,14.6666667 L12,14.6666667 C12.7333334,14.6666667 13.3333334,14.0666667 13.3333334,13.3333333 L13.3333334,5.33333329 L9.33333334,1.33333329 Z M10.6666667,12 L5.33333332,12 L5.33333332,10.6666667 L10.6666667,10.6666667 L10.6666667,12 Z M10.6666667,9.33333334 L5.33333332,9.33333334 L5.33333332,8 L10.6666667,8 L10.6666667,9.33333334 Z M8.66666667,5.99999999 L8.66666667,2.3333333 L12.3333334,5.99999999 L8.66666667,5.99999999 Z"/>
  </defs>
  <g fill="none" fill-rule="evenodd">
    <mask id="description-b" fill="#fff">
      <use xlink:href="#description-a"/>
    </mask>
    <g fill="CurrentColor" mask="url(#description-b)">
      <rect width="16" height="16"/>
    </g>
  </g>
</svg>
