<svg xmlns="http://www.w3.org/2000/svg" xmlns:xlink="http://www.w3.org/1999/xlink" width="16" height="16" viewBox="0 0 16 16">
  <defs>
    <path id="euro-symbol-a" d="M9.99999996,12.3333334 C8.32666667,12.3333334 6.87999999,11.3866667 6.15999999,9.99999996 L9.99999996,9.99999996 L9.99999996,8.66666667 L5.71999999,8.66666667 C5.68666665,8.44666667 5.66666665,8.22666667 5.66666665,7.99999996 C5.66666665,7.77333333 5.68666665,7.55333333 5.71999999,7.33333333 L9.99999996,7.33333333 L9.99999996,5.99999996 L6.15999999,5.99999996 C6.87999999,4.61333331 8.33333334,3.66666664 9.99999996,3.66666664 C11.0733334,3.66666664 12.06,4.05999998 12.82,4.71333331 L14,3.53333331 C12.94,2.57999997 11.5333334,1.99999996 9.99999996,1.99999996 C7.38666666,1.99999996 5.17333332,3.67333331 4.34666664,5.99999996 L1.99999996,5.99999996 L1.99999996,7.33333333 L4.03999998,7.33333333 C4.01333331,7.55333333 3.99999996,7.77333333 3.99999996,7.99999996 C3.99999996,8.22666667 4.01333331,8.44666667 4.03999998,8.66666667 L1.99999996,8.66666667 L1.99999996,9.99999996 L4.34666664,9.99999996 C5.17333332,12.3266667 7.38666666,14 9.99999996,14 C11.54,14 12.94,13.42 14,12.4666667 L12.8133334,11.2866667 C12.06,11.94 11.08,12.3333334 9.99999996,12.3333334 Z"/>
  </defs>
  <g fill="none" fill-rule="evenodd">
    <mask id="euro-symbol-b" fill="#fff">
      <use xlink:href="#euro-symbol-a"/>
    </mask>
    <g fill="CurrentColor" mask="url(#euro-symbol-b)">
      <rect width="16" height="16"/>
    </g>
  </g>
</svg>
