<svg xmlns="http://www.w3.org/2000/svg" xmlns:xlink="http://www.w3.org/1999/xlink" width="16" height="16" viewBox="0 0 16 16">
  <defs>
    <path id="event-seat-a" d="M2.66666663,12 L2.66666663,14 L4.66666663,14 L4.66666663,12 L11.3333334,12 L11.3333334,14 L13.3333334,14 L13.3333334,10 L2.66666663,10 L2.66666663,12 Z M12.6666667,6.66666666 L14.6666667,6.66666666 L14.6666667,8.66666666 L12.6666667,8.66666666 L12.6666667,6.66666666 Z M1.33333329,6.66666666 L3.33333329,6.66666666 L3.33333329,8.66666666 L1.33333329,8.66666666 L1.33333329,6.66666666 Z M11.3333334,8.66666667 L4.66666665,8.66666667 L4.66666665,3.3333333 C4.66666665,2.59999997 5.26666665,1.99999996 5.99999999,1.99999996 L10,1.99999996 C10.7333334,1.99999996 11.3333334,2.59999997 11.3333334,3.3333333 L11.3333334,8.66666667 Z"/>
  </defs>
  <g fill="none" fill-rule="evenodd">
    <mask id="event-seat-b" fill="#fff">
      <use xlink:href="#event-seat-a"/>
    </mask>
    <g fill="CurrentColor" mask="url(#event-seat-b)">
      <rect width="16" height="16"/>
    </g>
  </g>
</svg>
