<svg xmlns="http://www.w3.org/2000/svg" xmlns:xlink="http://www.w3.org/1999/xlink" width="16" height="16" viewBox="0 0 16 16">
  <defs>
    <path id="flip-to-front-a" d="M1.99999996,8.66666667 L3.3333333,8.66666667 L3.3333333,7.33333333 L1.99999996,7.33333333 L1.99999996,8.66666667 Z M1.99999996,11.3333334 L3.3333333,11.3333334 L3.3333333,10 L1.99999996,10 L1.99999996,11.3333334 Z M3.3333333,14 L3.3333333,12.6666667 L1.99999996,12.6666667 C1.99999996,13.4 2.5933333,14 3.3333333,14 Z M1.99999996,5.99999999 L3.3333333,5.99999999 L3.3333333,4.66666665 L1.99999996,4.66666665 L1.99999996,5.99999999 Z M10,14 L11.3333334,14 L11.3333334,12.6666667 L10,12.6666667 L10,14 Z M12.6666666,1.99999996 L5.99999999,1.99999996 C5.25999998,1.99999996 4.66666665,2.59999997 4.66666665,3.3333333 L4.66666665,9.99999996 C4.66666665,10.7333334 5.25999998,11.3333334 5.99999999,11.3333334 L12.6666666,11.3333334 C13.4,11.3333334 14,10.7333334 14,9.99999996 L14,3.3333333 C14,2.59999997 13.4,1.99999996 12.6666666,1.99999996 Z M12.6666667,10 L5.99999999,10 L5.99999999,3.3333333 L12.6666667,3.3333333 L12.6666667,10 Z M7.33333333,14 L8.66666667,14 L8.66666667,12.6666667 L7.33333333,12.6666667 L7.33333333,14 Z M4.66666665,14 L5.99999999,14 L5.99999999,12.6666667 L4.66666665,12.6666667 L4.66666665,14 Z"/>
  </defs>
  <g fill="none" fill-rule="evenodd">
    <mask id="flip-to-front-b" fill="#fff">
      <use xlink:href="#flip-to-front-a"/>
    </mask>
    <g fill="CurrentColor" mask="url(#flip-to-front-b)">
      <rect width="16" height="16"/>
    </g>
  </g>
</svg>
