<svg xmlns="http://www.w3.org/2000/svg" xmlns:xlink="http://www.w3.org/1999/xlink" width="16" height="16" viewBox="0 0 16 16">
  <defs>
    <path id="group-work-a" d="M8,1.33333329 C4.31999998,1.33333329 1.33333329,4.31999998 1.33333329,8 C1.33333329,11.68 4.31999998,14.6666667 8,14.6666667 C11.68,14.6666667 14.6666667,11.68 14.6666667,8 C14.6666667,4.31999998 11.68,1.33333329 8,1.33333329 Z M5.33333332,11.6666667 C4.41333331,11.6666667 3.66666664,10.92 3.66666664,10 C3.66666664,9.08000001 4.41333331,8.33333334 5.33333332,8.33333334 C6.25333332,8.33333334 6.99999999,9.08000001 6.99999999,10 C6.99999999,10.92 6.25333332,11.6666667 5.33333332,11.6666667 Z M6.33333332,5.33333332 C6.33333332,4.41333331 7.07999999,3.66666664 8,3.66666664 C8.92000001,3.66666664 9.66666668,4.41333331 9.66666668,5.33333332 C9.66666668,6.25333332 8.92000001,6.99999999 8,6.99999999 C7.07999999,6.99999999 6.33333332,6.25333332 6.33333332,5.33333332 Z M10.6666667,11.6666667 C9.74666668,11.6666667 9.00000001,10.92 9.00000001,10 C9.00000001,9.08000001 9.74666668,8.33333334 10.6666667,8.33333334 C11.5866667,8.33333334 12.3333334,9.08000001 12.3333334,10 C12.3333334,10.92 11.5866667,11.6666667 10.6666667,11.6666667 Z"/>
  </defs>
  <g fill="none" fill-rule="evenodd">
    <mask id="group-work-b" fill="#fff">
      <use xlink:href="#group-work-a"/>
    </mask>
    <g fill="CurrentColor" mask="url(#group-work-b)">
      <rect width="16" height="16"/>
    </g>
  </g>
</svg>
