<svg xmlns="http://www.w3.org/2000/svg" xmlns:xlink="http://www.w3.org/1999/xlink" width="16" height="16" viewBox="0 0 16 16">
  <defs>
    <path id="hourglass-empty-a" d="M3.99999997,1.33333329 L3.99999997,5.33333329 L4.00666664,5.33333329 L3.99999997,5.33999998 L6.66666666,8 L3.99999997,10.6666667 L4.00666664,10.6733334 L3.99999997,10.6733334 L3.99999997,14.6666667 L12,14.6666667 L12,10.6733334 L11.9933334,10.6733334 L12,10.6666667 L9.33333334,8 L12,5.33999998 L11.9933334,5.33333329 L12,5.33333329 L12,1.33333329 L3.99999997,1.33333329 Z M10.6666667,11 L10.6666667,13.3333333 L5.33333332,13.3333333 L5.33333332,11 L8,8.33333334 L10.6666667,11 Z M8,7.66666663 L5.33333332,4.99999998 L5.33333332,2.66666663 L10.6666667,2.66666663 L10.6666667,4.99999998 L8,7.66666663 Z"/>
  </defs>
  <g fill="none" fill-rule="evenodd">
    <mask id="hourglass-empty-b" fill="#fff">
      <use xlink:href="#hourglass-empty-a"/>
    </mask>
    <g fill="CurrentColor" mask="url(#hourglass-empty-b)">
      <rect width="16" height="16"/>
    </g>
  </g>
</svg>
