<svg xmlns="http://www.w3.org/2000/svg" xmlns:xlink="http://www.w3.org/1999/xlink" width="16" height="16" viewBox="0 0 16 16">
  <defs>
    <path id="http-a" d="M2.99999997,7.33333333 L1.66666662,7.33333333 L1.66666662,5.99999999 L0.666666621,5.99999999 L0.666666621,9.99999999 L1.66666662,9.99999999 L1.66666662,8.33333334 L2.99999997,8.33333334 L2.99999997,9.99999999 L3.99999997,9.99999999 L3.99999997,5.99999999 L2.99999997,5.99999999 L2.99999997,7.33333333 Z M4.66666665,6.99999999 L5.66666665,6.99999999 L5.66666665,9.99999999 L6.66666665,9.99999999 L6.66666665,6.99999999 L7.66666665,6.99999999 L7.66666665,5.99999999 L4.66666665,5.99999999 L4.66666665,6.99999999 Z M8.33333334,6.99999999 L9.33333334,6.99999999 L9.33333334,9.99999999 L10.3333333,9.99999999 L10.3333333,6.99999999 L11.3333333,6.99999999 L11.3333333,5.99999999 L8.33333334,5.99999999 L8.33333334,6.99999999 Z M14.3333334,5.99999999 L12,5.99999999 L12,9.99999999 L13,9.99999999 L13,8.66666667 L14.3333334,8.66666667 C14.8666667,8.66666667 15.3333334,8.2 15.3333334,7.66666666 L15.3333334,6.99999999 C15.3333334,6.46666666 14.8666667,5.99999999 14.3333334,5.99999999 Z M14.3333334,7.66666666 L13,7.66666666 L13,6.99999999 L14.3333334,6.99999999 L14.3333334,7.66666666 Z"/>
  </defs>
  <g fill="none" fill-rule="evenodd">
    <mask id="http-b" fill="#fff">
      <use xlink:href="#http-a"/>
    </mask>
    <g fill="CurrentColor" mask="url(#http-b)">
      <rect width="16" height="16"/>
    </g>
  </g>
</svg>
