<svg xmlns="http://www.w3.org/2000/svg" xmlns:xlink="http://www.w3.org/1999/xlink" width="16" height="16" viewBox="0 0 16 16">
  <defs>
    <path id="language-a" d="M7.99333333,1.33333329 C4.31333331,1.33333329 1.33333329,4.31999998 1.33333329,8 C1.33333329,11.68 4.31333331,14.6666667 7.99333333,14.6666667 C11.68,14.6666667 14.6666667,11.68 14.6666667,8 C14.6666667,4.31999998 11.68,1.33333329 7.99333333,1.33333329 Z M12.6133334,5.33333332 L10.6466667,5.33333332 C10.4333333,4.49999998 10.1266667,3.69999997 9.72666668,2.95999997 C10.9533334,3.37999997 11.9733334,4.23333331 12.6133334,5.33333332 Z M8,2.6933333 C8.55333334,3.49333331 8.98666667,4.37999998 9.27333334,5.33333332 L6.72666666,5.33333332 C7.01333333,4.37999998 7.44666666,3.49333331 8,2.6933333 Z M2.83999997,9.33333334 C2.7333333,8.90666667 2.66666663,8.46 2.66666663,8 C2.66666663,7.54 2.7333333,7.09333333 2.83999997,6.66666666 L5.09333332,6.66666666 C5.03999998,7.10666666 4.99999998,7.54666666 4.99999998,8 C4.99999998,8.45333334 5.03999998,8.89333334 5.09333332,9.33333334 L2.83999997,9.33333334 Z M3.38666664,10.6666667 L5.35333332,10.6666667 C5.56666665,11.5 5.87333332,12.3 6.27333332,13.04 C5.04666665,12.62 4.02666664,11.7733334 3.38666664,10.6666667 L3.38666664,10.6666667 Z M5.35333332,5.33333332 L3.38666664,5.33333332 C4.02666664,4.22666664 5.04666665,3.37999997 6.27333332,2.95999997 C5.87333332,3.69999997 5.56666665,4.49999998 5.35333332,5.33333332 L5.35333332,5.33333332 Z M8,13.3066667 C7.44666666,12.5066667 7.01333333,11.62 6.72666666,10.6666667 L9.27333334,10.6666667 C8.98666667,11.62 8.55333334,12.5066667 8,13.3066667 Z M9.56000001,9.33333334 L6.43999999,9.33333334 C6.37999999,8.89333334 6.33333332,8.45333334 6.33333332,8 C6.33333332,7.54666666 6.37999999,7.09999999 6.43999999,6.66666666 L9.56000001,6.66666666 C9.62000001,7.09999999 9.66666668,7.54666666 9.66666668,8 C9.66666668,8.45333334 9.62000001,8.89333334 9.56000001,9.33333334 Z M9.72666668,13.04 C10.1266667,12.3 10.4333333,11.5 10.6466667,10.6666667 L12.6133334,10.6666667 C11.9733334,11.7666667 10.9533334,12.62 9.72666668,13.04 L9.72666668,13.04 Z M10.9066667,9.33333334 C10.96,8.89333334 11,8.45333334 11,8 C11,7.54666666 10.96,7.10666666 10.9066667,6.66666666 L13.16,6.66666666 C13.2666667,7.09333333 13.3333334,7.54 13.3333334,8 C13.3333334,8.46 13.2666667,8.90666667 13.16,9.33333334 L10.9066667,9.33333334 Z"/>
  </defs>
  <g fill="none" fill-rule="evenodd">
    <mask id="language-b" fill="#fff">
      <use xlink:href="#language-a"/>
    </mask>
    <g fill="CurrentColor" mask="url(#language-b)">
      <rect width="16" height="16"/>
    </g>
  </g>
</svg>
