<svg xmlns="http://www.w3.org/2000/svg" xmlns:xlink="http://www.w3.org/1999/xlink" width="16" height="16" viewBox="0 0 16 16">
  <defs>
    <path id="lightbulb-outline-a" d="M5.99999999,14 C5.99999999,14.3666667 6.29999999,14.6666667 6.66666666,14.6666667 L9.33333334,14.6666667 C9.70000001,14.6666667 9.99999999,14.3666667 9.99999999,14 L9.99999999,13.3333334 L5.99999999,13.3333334 L5.99999999,14 Z M8,1.33333329 C5.42666665,1.33333329 3.3333333,3.42666664 3.3333333,5.99999999 C3.3333333,7.58666666 4.12666664,8.98000001 5.3333333,9.82666668 L5.3333333,11.3333333 C5.3333333,11.7 5.63333332,12 5.99999999,12 L10,12 C10.3666667,12 10.6666667,11.7 10.6666667,11.3333333 L10.6666667,9.82666668 C11.8733334,8.98000001 12.6666667,7.58666666 12.6666667,5.99999999 C12.6666667,3.42666664 10.5733333,1.33333329 8,1.33333329 Z M9.90000001,8.73333334 L9.33333334,9.13333334 L9.33333334,10.6666666 L6.66666665,10.6666666 L6.66666665,9.13333334 L6.09999999,8.73333334 C5.19999998,8.10666667 4.66666665,7.08666666 4.66666665,5.99999999 C4.66666665,4.15999998 6.15999999,2.66666663 8,2.66666663 C9.84000001,2.66666663 11.3333334,4.15999998 11.3333334,5.99999999 C11.3333334,7.08666666 10.8,8.10666667 9.90000001,8.73333334 Z"/>
  </defs>
  <g fill="none" fill-rule="evenodd">
    <mask id="lightbulb-outline-b" fill="#fff">
      <use xlink:href="#lightbulb-outline-a"/>
    </mask>
    <g fill="CurrentColor" mask="url(#lightbulb-outline-b)">
      <rect width="16" height="16"/>
    </g>
  </g>
</svg>
