<svg xmlns="http://www.w3.org/2000/svg" xmlns:xlink="http://www.w3.org/1999/xlink" width="16" height="16" viewBox="0 0 16 16">
  <defs>
    <path id="line-style-a" d="M1.99999996,10.6666667 L5.33333332,10.6666667 L5.33333332,9.33333334 L1.99999996,9.33333334 L1.99999996,10.6666667 Z M6.33333332,10.6666667 L9.66666668,10.6666667 L9.66666668,9.33333334 L6.33333332,9.33333334 L6.33333332,10.6666667 Z M10.6666667,10.6666667 L14,10.6666667 L14,9.33333334 L10.6666667,9.33333334 L10.6666667,10.6666667 Z M1.99999996,13.3333334 L3.3333333,13.3333334 L3.3333333,12 L1.99999996,12 L1.99999996,13.3333334 Z M4.66666665,13.3333334 L5.99999999,13.3333334 L5.99999999,12 L4.66666665,12 L4.66666665,13.3333334 Z M7.33333333,13.3333334 L8.66666667,13.3333334 L8.66666667,12 L7.33333333,12 L7.33333333,13.3333334 Z M10,13.3333334 L11.3333334,13.3333334 L11.3333334,12 L10,12 L10,13.3333334 Z M12.6666667,13.3333334 L14,13.3333334 L14,12 L12.6666667,12 L12.6666667,13.3333334 Z M1.99999996,8 L7.33333333,8 L7.33333333,6.66666666 L1.99999996,6.66666666 L1.99999996,8 Z M8.66666667,8 L14,8 L14,6.66666666 L8.66666667,6.66666666 L8.66666667,8 Z M1.99999996,2.66666663 L1.99999996,5.33333332 L14,5.33333332 L14,2.66666663 L1.99999996,2.66666663 Z"/>
  </defs>
  <g fill="none" fill-rule="evenodd">
    <mask id="line-style-b" fill="#fff">
      <use xlink:href="#line-style-a"/>
    </mask>
    <g fill="CurrentColor" mask="url(#line-style-b)">
      <rect width="16" height="16"/>
    </g>
  </g>
</svg>
