<svg xmlns="http://www.w3.org/2000/svg" xmlns:xlink="http://www.w3.org/1999/xlink" width="16" height="16" viewBox="0 0 16 16">
  <defs>
    <path id="list-a" d="M1.99999996,8.66666667 L3.3333333,8.66666667 L3.3333333,7.33333333 L1.99999996,7.33333333 L1.99999996,8.66666667 Z M1.99999996,11.3333334 L3.3333333,11.3333334 L3.3333333,10 L1.99999996,10 L1.99999996,11.3333334 Z M1.99999996,5.99999999 L3.3333333,5.99999999 L3.3333333,4.66666665 L1.99999996,4.66666665 L1.99999996,5.99999999 Z M4.66666665,8.66666667 L14,8.66666667 L14,7.33333333 L4.66666665,7.33333333 L4.66666665,8.66666667 Z M4.66666665,11.3333334 L14,11.3333334 L14,10 L4.66666665,10 L4.66666665,11.3333334 Z M4.66666665,4.66666665 L4.66666665,5.99999999 L14,5.99999999 L14,4.66666665 L4.66666665,4.66666665 Z"/>
  </defs>
  <g fill="none" fill-rule="evenodd">
    <mask id="list-b" fill="#fff">
      <use xlink:href="#list-a"/>
    </mask>
    <g fill="CurrentColor" mask="url(#list-b)">
      <rect width="16" height="16"/>
    </g>
  </g>
</svg>
