<svg xmlns="http://www.w3.org/2000/svg" xmlns:xlink="http://www.w3.org/1999/xlink" width="16" height="16" viewBox="0 0 16 16">
  <defs>
    <path id="opacity-a" d="M11.7733334,5.33333332 L8,1.56666663 L4.22666664,5.33333332 C3.18666664,6.37333332 2.66666663,7.76 2.66666663,9.09333334 C2.66666663,10.4266667 3.18666664,11.8333334 4.22666664,12.8733334 C5.26666665,13.9133334 6.63333332,14.44 8,14.44 C9.36666668,14.44 10.7333334,13.9133334 11.7733334,12.8733334 C12.8133334,11.8333334 13.3333334,10.4266667 13.3333334,9.09333334 C13.3333334,7.76 12.8133334,6.37333332 11.7733334,5.33333332 Z M3.99999997,9.33333334 C4.00666664,8 4.41333331,7.15333333 5.17333332,6.39999999 L7.99999997,3.51333331 L10.8266667,6.43333332 C11.5866667,7.17999999 11.9933334,8 12,9.33333334 L3.99999997,9.33333334 Z"/>
  </defs>
  <g fill="none" fill-rule="evenodd">
    <mask id="opacity-b" fill="#fff">
      <use xlink:href="#opacity-a"/>
    </mask>
    <g fill="CurrentColor" mask="url(#opacity-b)">
      <rect width="16" height="16"/>
    </g>
  </g>
</svg>
