<svg xmlns="http://www.w3.org/2000/svg" xmlns:xlink="http://www.w3.org/1999/xlink" width="16" height="16" viewBox="0 0 16 16">
  <defs>
    <path id="open-in-new-a" d="M12.6666667,12.6666667 L3.3333333,12.6666667 L3.3333333,3.3333333 L7.99999996,3.3333333 L7.99999996,1.99999996 L3.3333333,1.99999996 C2.5933333,1.99999996 1.99999996,2.59999997 1.99999996,3.3333333 L1.99999996,12.6666667 C1.99999996,13.4 2.5933333,14 3.3333333,14 L12.6666667,14 C13.4,14 14,13.4 14,12.6666667 L14,7.99999996 L12.6666667,7.99999996 L12.6666667,12.6666667 Z M9.33333334,1.99999996 L9.33333334,3.3333333 L11.7266667,3.3333333 L5.17333332,9.88666668 L6.11333332,10.8266667 L12.6666667,4.27333331 L12.6666667,6.66666666 L14,6.66666666 L14,1.99999996 L9.33333334,1.99999996 Z"/>
  </defs>
  <g fill="none" fill-rule="evenodd">
    <mask id="open-in-new-b" fill="#fff">
      <use xlink:href="#open-in-new-a"/>
    </mask>
    <g fill="CurrentColor" mask="url(#open-in-new-b)">
      <rect width="16" height="16"/>
    </g>
  </g>
</svg>
