<svg xmlns="http://www.w3.org/2000/svg" xmlns:xlink="http://www.w3.org/1999/xlink" width="16" height="16" viewBox="0 0 16 16">
  <defs>
    <path id="perm-device-information-a" d="M8.66666667,4.66666665 L7.33333333,4.66666665 L7.33333333,5.99999999 L8.66666667,5.99999999 L8.66666667,4.66666665 Z M8.66666667,7.33333333 L7.33333333,7.33333333 L7.33333333,11.3333333 L8.66666667,11.3333333 L8.66666667,7.33333333 Z M11.3333333,0.673333288 L4.66666665,0.666666621 C3.93333331,0.666666621 3.3333333,1.26666662 3.3333333,1.99999996 L3.3333333,14 C3.3333333,14.7333334 3.93333331,15.3333334 4.66666665,15.3333334 L11.3333333,15.3333334 C12.0666667,15.3333334 12.6666667,14.7333334 12.6666667,14 L12.6666667,1.99999996 C12.6666667,1.26666662 12.0666667,0.673333288 11.3333333,0.673333288 Z M11.3333334,12.6666667 L4.66666665,12.6666667 L4.66666665,3.3333333 L11.3333334,3.3333333 L11.3333334,12.6666667 Z"/>
  </defs>
  <g fill="none" fill-rule="evenodd">
    <mask id="perm-device-information-b" fill="#fff">
      <use xlink:href="#perm-device-information-a"/>
    </mask>
    <g fill="CurrentColor" mask="url(#perm-device-information-b)">
      <rect width="16" height="16"/>
    </g>
  </g>
</svg>
