<svg xmlns="http://www.w3.org/2000/svg" xmlns:xlink="http://www.w3.org/1999/xlink" width="16" height="16" viewBox="0 0 16 16">
  <defs>
    <path id="perm-media-a" d="M1.33333329,3.99999997 L-5.00000006e-08,3.99999997 L-5.00000006e-08,7.33333333 L0.00666661671,7.33333333 L-5.00000006e-08,13.3333334 C-5.00000006e-08,14.0666667 0.599999954,14.6666667 1.33333329,14.6666667 L13.3333334,14.6666667 L13.3333334,13.3333334 L1.33333329,13.3333334 L1.33333329,3.99999997 Z M14.6666666,2.66666663 L9.33333334,2.66666663 L8,1.33333329 L3.99999997,1.33333329 C3.26666664,1.33333329 2.6733333,1.9333333 2.6733333,2.66666663 L2.66666663,10.6666667 C2.66666663,11.4 3.26666664,12 3.99999997,12 L14.6666666,12 C15.4,12 16.0000001,11.4 16.0000001,10.6666667 L16.0000001,3.99999997 C16.0000001,3.26666664 15.4,2.66666663 14.6666666,2.66666663 Z M4.66666665,9.99999999 L7.66666665,5.99999999 L10,9.00666667 L11.6666666,6.99999999 L14,9.99999999 L4.66666665,9.99999999 Z"/>
  </defs>
  <g fill="none" fill-rule="evenodd">
    <mask id="perm-media-b" fill="#fff">
      <use xlink:href="#perm-media-a"/>
    </mask>
    <g fill="CurrentColor" mask="url(#perm-media-b)">
      <rect width="16" height="16"/>
    </g>
  </g>
</svg>
