<svg xmlns="http://www.w3.org/2000/svg" xmlns:xlink="http://www.w3.org/1999/xlink" width="16" height="16" viewBox="0 0 16 16">
  <defs>
    <path id="perm-data-setting-a" d="M12.66,7.66666666 C12.8866667,7.66666666 13.1066667,7.68666666 13.3266667,7.71333333 L13.3333334,-5.00000006e-08 L-5.00000006e-08,13.3333334 L7.70666666,13.3333334 C7.68,13.1133334 7.66,12.8933334 7.66,12.6666667 C7.66,9.90666668 9.90000001,7.66666666 12.66,7.66666666 L12.66,7.66666666 Z M15.1333334,12.9933334 C15.1466667,12.8866667 15.16,12.78 15.16,12.6666667 C15.16,12.5533334 15.1533334,12.4466667 15.1333334,12.34 L15.84,11.7866667 C15.9,11.7333334 15.92,11.6466667 15.88,11.5733334 L15.2133334,10.42 C15.1733334,10.3466667 15.0866667,10.32 15.0066667,10.3466667 L14.18,10.68 C14.0066667,10.5466667 13.82,10.4333333 13.6133334,10.3533333 L13.4866667,9.47333334 C13.48,9.39333334 13.4066667,9.33333334 13.3266667,9.33333334 L11.9933334,9.33333334 C11.9133334,9.33333334 11.84,9.39333334 11.8266667,9.47333334 L11.7,10.3533333 C11.5,10.44 11.3066667,10.5466667 11.1333334,10.68 L10.3066667,10.3466667 C10.2333333,10.32 10.1466667,10.3466667 10.1,10.42 L9.43333334,11.5733334 C9.39333334,11.6466667 9.40666668,11.7333334 9.47333334,11.7866667 L10.18,12.34 C10.1666667,12.4466667 10.16,12.5533334 10.16,12.6666667 C10.16,12.78 10.1666667,12.8866667 10.18,12.9933334 L9.47333334,13.5466667 C9.41333334,13.6 9.39333334,13.6866667 9.43333334,13.76 L10.1,14.9133334 C10.14,14.9866667 10.2266667,15.0133334 10.3066667,14.9866667 L11.1333334,14.6533334 C11.3066667,14.7866667 11.4933334,14.9 11.7,14.98 L11.8266667,15.86 C11.84,15.94 11.9066667,16.0000001 11.9933334,16.0000001 L13.3266667,16.0000001 C13.4066667,16.0000001 13.48,15.94 13.4933334,15.86 L13.62,14.98 C13.82,14.8933334 14.0133334,14.7866667 14.18,14.6533334 L15.0133334,14.9866667 C15.0866667,15.0133334 15.1733334,14.9866667 15.22,14.9133334 L15.8866667,13.76 C15.9266667,13.6866667 15.9066667,13.6 15.8466667,13.5466667 L15.1333334,12.9933334 Z M12.66,13.6666667 C12.1066667,13.6666667 11.66,13.22 11.66,12.6666667 C11.66,12.1133334 12.1066667,11.6666667 12.66,11.6666667 C13.2133334,11.6666667 13.66,12.1133334 13.66,12.6666667 C13.66,13.22 13.2133334,13.6666667 12.66,13.6666667 Z"/>
  </defs>
  <g fill="none" fill-rule="evenodd">
    <mask id="perm-data-setting-b" fill="#fff">
      <use xlink:href="#perm-data-setting-a"/>
    </mask>
    <g fill="CurrentColor" mask="url(#perm-data-setting-b)">
      <rect width="16" height="16"/>
    </g>
  </g>
</svg>
