<svg xmlns="http://www.w3.org/2000/svg" xmlns:xlink="http://www.w3.org/1999/xlink" width="16" height="16" viewBox="0 0 16 16">
  <defs>
    <path id="pregnant-woman-a" d="M5.99999999,2.66666663 C5.99999999,1.92666663 6.59333332,1.33333329 7.33333333,1.33333329 C8.07333333,1.33333329 8.66666667,1.92666663 8.66666667,2.66666663 C8.66666667,3.40666664 8.07333333,3.99999997 7.33333333,3.99999997 C6.59333332,3.99999997 5.99999999,3.40666664 5.99999999,2.66666663 Z M10.6666667,8.66666665 C10.66,7.77333333 10.1133333,6.99333333 9.33333332,6.66666665 C9.33333332,5.55999998 8.44,4.66666665 7.33333332,4.66666665 C6.22666666,4.66666665 5.33333332,5.55999998 5.33333332,6.66666665 L5.33333332,11.3333334 L6.66666666,11.3333334 L6.66666666,14.6666666 L8.66666667,14.6666666 L8.66666667,11.3333334 L10.6666667,11.3333334 L10.6666667,8.66666665 Z"/>
  </defs>
  <g fill="none" fill-rule="evenodd">
    <mask id="pregnant-woman-b" fill="#fff">
      <use xlink:href="#pregnant-woman-a"/>
    </mask>
    <g fill="CurrentColor" mask="url(#pregnant-woman-b)">
      <rect width="16" height="16"/>
    </g>
  </g>
</svg>
