<svg xmlns="http://www.w3.org/2000/svg" xmlns:xlink="http://www.w3.org/1999/xlink" width="16" height="16" viewBox="0 0 16 16">
  <defs>
    <path id="receipt-a" d="M12,11.3333334 L3.99999997,11.3333334 L3.99999997,10 L12,10 L12,11.3333334 Z M12,8.66666667 L3.99999997,8.66666667 L3.99999997,7.33333333 L12,7.33333333 L12,8.66666667 Z M12,5.99999999 L3.99999997,5.99999999 L3.99999997,4.66666665 L12,4.66666665 L12,5.99999999 Z M1.99999996,14.6666667 L2.99999996,13.6666667 L3.99999996,14.6666667 L4.99999996,13.6666667 L5.99999996,14.6666667 L6.99999996,13.6666667 L7.99999996,14.6666667 L8.99999996,13.6666667 L9.99999996,14.6666667 L11,13.6666667 L12,14.6666667 L13,13.6666667 L14,14.6666667 L14,1.33333329 L13,2.33333329 L12,1.33333329 L11,2.33333329 L9.99999996,1.33333329 L8.99999996,2.33333329 L7.99999996,1.33333329 L6.99999996,2.33333329 L5.99999996,1.33333329 L4.99999996,2.33333329 L3.99999996,1.33333329 L2.99999996,2.33333329 L1.99999996,1.33333329 L1.99999996,14.6666667 Z"/>
  </defs>
  <g fill="none" fill-rule="evenodd">
    <mask id="receipt-b" fill="#fff">
      <use xlink:href="#receipt-a"/>
    </mask>
    <g fill="CurrentColor" mask="url(#receipt-b)">
      <rect width="16" height="16"/>
    </g>
  </g>
</svg>
