<svg xmlns="http://www.w3.org/2000/svg" xmlns:xlink="http://www.w3.org/1999/xlink" width="16" height="16" viewBox="0 0 16 16">
  <defs>
    <path id="remove-shopping-cart-a" d="M15.1533334,15.1533334 L1.84666663,1.84666662 L1.33333329,1.33333329 L0.846666622,0.846666622 L-5.00000006e-08,1.69333329 L2.92666663,4.61999998 L4.39999998,7.72666666 L3.49999995,9.36000001 C3.3933333,9.54666668 3.3333333,9.76666668 3.3333333,10 C3.3333333,10.7333334 3.93333331,11.3333334 4.66666665,11.3333334 L9.64000001,11.3333334 L10.56,12.2533334 C10.2266667,12.4933334 10.0066667,12.8866667 10.0066667,13.3333334 C10.0066667,14.0666667 10.6,14.6666667 11.3333334,14.6666667 C11.78,14.6666667 12.1733334,14.4466667 12.4133334,14.1066667 L14.3066667,16.0000001 L15.1533334,15.1533334 Z M4.94666665,10 C4.85333331,10 4.77999998,9.92666668 4.77999998,9.83333334 L4.79999998,9.75333334 L5.39999998,8.66666667 L6.97333333,8.66666667 L8.30666667,10 L4.94666665,10 Z M10.3666667,8.66666663 C10.8666667,8.66666663 11.3066667,8.39333334 11.5333334,7.98 L13.92,3.65333331 C13.9733334,3.55999997 14,3.44666664 14,3.3333333 C14,2.96666664 13.7,2.66666663 13.3333334,2.66666663 L4.35999998,2.66666663 L10.3666667,8.66666663 Z M4.66666665,12 C3.93333331,12 3.33999997,12.6 3.33999997,13.3333334 C3.33999997,14.0666667 3.93333331,14.6666667 4.66666665,14.6666667 C5.39999998,14.6666667 5.99999999,14.0666667 5.99999999,13.3333334 C5.99999999,12.6 5.39999998,12 4.66666665,12 Z"/>
  </defs>
  <g fill="none" fill-rule="evenodd">
    <mask id="remove-shopping-cart-b" fill="#fff">
      <use xlink:href="#remove-shopping-cart-a"/>
    </mask>
    <g fill="CurrentColor" mask="url(#remove-shopping-cart-b)">
      <rect width="16" height="16"/>
    </g>
  </g>
</svg>
