<svg xmlns="http://www.w3.org/2000/svg" xmlns:xlink="http://www.w3.org/1999/xlink" width="16" height="16" viewBox="0 0 16 16">
  <defs>
    <path id="settings-brightness-a" d="M14,1.99999996 L1.99999996,1.99999996 C1.26666662,1.99999996 0.666666621,2.59999997 0.666666621,3.3333333 L0.666666621,12.6666667 C0.666666621,13.4 1.26666662,14 1.99999996,14 L14,14 C14.7333334,14 15.3333334,13.4 15.3333334,12.6666667 L15.3333334,3.3333333 C15.3333334,2.59999997 14.7333334,1.99999996 14,1.99999996 Z M14,12.6733334 L1.99999996,12.6733334 L1.99999996,3.32666664 L14,3.32666664 L14,12.6733334 L14,12.6733334 Z M5.33333331,10.6666667 L6.99999999,10.6666667 L8,11.6666667 L9.00000001,10.6666667 L10.6666667,10.6666667 L10.6666667,9.00000001 L11.6666667,8 L10.6666667,6.99999999 L10.6666667,5.33333331 L9.00000001,5.33333331 L8,4.33333331 L6.99999999,5.33333331 L5.33333331,5.33333331 L5.33333331,6.99999999 L4.33333331,8 L5.33333331,9.00000001 L5.33333331,10.6666667 Z M8,5.99999999 C9.10666667,5.99999999 10,6.89333333 10,7.99999999 C10,9.10666667 9.10666667,9.99999999 8,9.99999999 L8,5.99999999 Z"/>
  </defs>
  <g fill="none" fill-rule="evenodd">
    <mask id="settings-brightness-b" fill="#fff">
      <use xlink:href="#settings-brightness-a"/>
    </mask>
    <g fill="CurrentColor" mask="url(#settings-brightness-b)">
      <rect width="16" height="16"/>
    </g>
  </g>
</svg>
