<svg xmlns="http://www.w3.org/2000/svg" xmlns:xlink="http://www.w3.org/1999/xlink" width="16" height="16" viewBox="0 0 16 16">
  <defs>
    <path id="settings-a" d="M12.9533334,8.65333334 C12.98,8.44 13,8.22666667 13,8 C13,7.77333333 12.98,7.56 12.9533334,7.34666666 L14.36,6.24666666 C14.4866667,6.14666666 14.52,5.96666665 14.44,5.81999999 L13.1066667,3.51333331 C13.0266667,3.36666664 12.8466667,3.3133333 12.7,3.36666664 L11.04,4.03333331 C10.6933334,3.76666664 10.32,3.54666664 9.91333335,3.37999997 L9.66000001,1.61333329 C9.64000001,1.45333329 9.50000001,1.33333329 9.33333334,1.33333329 L6.66666666,1.33333329 C6.49999999,1.33333329 6.35999999,1.45333329 6.33999999,1.61333329 L6.08666665,3.37999997 C5.67999999,3.54666664 5.30666665,3.77333331 4.95999998,4.03333331 L3.29999997,3.36666664 C3.14666664,3.30666664 2.9733333,3.36666664 2.8933333,3.51333331 L1.55999996,5.81999999 C1.47333329,5.96666665 1.51333329,6.14666666 1.63999996,6.24666666 L3.04666664,7.34666666 C3.01999997,7.56 2.99999997,7.78 2.99999997,8 C2.99999997,8.22 3.01999997,8.44 3.04666664,8.65333334 L1.63999996,9.75333334 C1.51333329,9.85333334 1.47999996,10.0333333 1.55999996,10.18 L2.8933333,12.4866667 C2.9733333,12.6333334 3.1533333,12.6866667 3.29999997,12.6333334 L4.95999998,11.9666667 C5.30666665,12.2333334 5.67999999,12.4533334 6.08666665,12.62 L6.33999999,14.3866667 C6.35999999,14.5466667 6.49999999,14.6666667 6.66666666,14.6666667 L9.33333334,14.6666667 C9.50000001,14.6666667 9.64000001,14.5466667 9.66000001,14.3866667 L9.91333335,12.62 C10.32,12.4533334 10.6933334,12.2266667 11.04,11.9666667 L12.7,12.6333334 C12.8533334,12.6933334 13.0266667,12.6333334 13.1066667,12.4866667 L14.44,10.18 C14.52,10.0333333 14.4866667,9.85333334 14.36,9.75333334 L12.9533334,8.65333334 Z M8,10.3333333 C6.71333333,10.3333333 5.66666665,9.28666667 5.66666665,8 C5.66666665,6.71333333 6.71333333,5.66666665 8,5.66666665 C9.28666667,5.66666665 10.3333333,6.71333333 10.3333333,8 C10.3333333,9.28666667 9.28666667,10.3333333 8,10.3333333 Z"/>
  </defs>
  <g fill="none" fill-rule="evenodd">
    <mask id="settings-b" fill="#fff">
      <use xlink:href="#settings-a"/>
    </mask>
    <g fill="CurrentColor" mask="url(#settings-b)">
      <rect width="16" height="16"/>
    </g>
  </g>
</svg>
