<svg xmlns="http://www.w3.org/2000/svg" xmlns:xlink="http://www.w3.org/1999/xlink" width="16" height="16" viewBox="0 0 16 16">
  <defs>
    <path id="settings-input-antenna-a" d="M8,3.3333333 C5.41999998,3.3333333 3.3333333,5.41999998 3.3333333,8 L4.66666665,8 C4.66666665,6.15999999 6.15999999,4.66666665 8,4.66666665 C9.84000001,4.66666665 11.3333333,6.15999999 11.3333333,8 L12.6666667,8 C12.6666667,5.41999998 10.58,3.3333333 8,3.3333333 Z M8.66666667,9.52666668 C9.25333334,9.26666667 9.66666668,8.68666667 9.66666668,8 C9.66666668,7.07999999 8.92000001,6.33333332 8,6.33333332 C7.07999999,6.33333332 6.33333332,7.07999999 6.33333332,8 C6.33333332,8.68 6.74666666,9.26666667 7.33333333,9.52666668 L7.33333333,11.7266667 L5.05999998,14 L5.99999999,14.94 L8,12.94 L10,14.94 L10.94,14 L8.66666667,11.7266667 L8.66666667,9.52666668 Z M8,0.666666621 C3.95333331,0.666666621 0.666666621,3.95333331 0.666666621,8 L1.99999996,8 C1.99999996,4.68666665 4.68666665,1.99999996 8,1.99999996 C11.3133334,1.99999996 14,4.68666665 14,8 L15.3333334,8 C15.3333334,3.95333331 12.0466667,0.666666621 8,0.666666621 Z"/>
  </defs>
  <g fill="none" fill-rule="evenodd">
    <mask id="settings-input-antenna-b" fill="#fff">
      <use xlink:href="#settings-input-antenna-a"/>
    </mask>
    <g fill="CurrentColor" mask="url(#settings-input-antenna-b)">
      <rect width="16" height="16"/>
    </g>
  </g>
</svg>
