<svg xmlns="http://www.w3.org/2000/svg" xmlns:xlink="http://www.w3.org/1999/xlink" width="16" height="16" viewBox="0 0 16 16">
  <defs>
    <path id="settings-bluetooth-a" d="M7.33333333,16.0000001 L8.66666667,16.0000001 L8.66666667,14.6666667 L7.33333333,14.6666667 L7.33333333,16.0000001 Z M4.66666665,16.0000001 L5.99999999,16.0000001 L5.99999999,14.6666667 L4.66666665,14.6666667 L4.66666665,16.0000001 Z M10,16.0000001 L11.3333334,16.0000001 L11.3333334,14.6666667 L10,14.6666667 L10,16.0000001 Z M11.8066667,3.80666664 L8,-5.00000006e-08 L7.3333333,-5.00000006e-08 L7.3333333,5.05999998 L4.27333331,1.99999995 L3.3333333,2.93999997 L7.05999999,6.66666666 L3.3333333,10.3933333 L4.27333331,11.3333334 L7.3333333,8.27333334 L7.3333333,13.3333334 L8,13.3333334 L11.8066667,9.52666668 L8.94000001,6.66666666 L11.8066667,3.80666664 Z M8.66666667,2.5533333 L9.92000001,3.80666664 L8.66666667,5.05999998 L8.66666667,2.5533333 Z M9.92000001,9.52666668 L8.66666667,10.78 L8.66666667,8.27333334 L9.92000001,9.52666668 L9.92000001,9.52666668 Z"/>
  </defs>
  <g fill="none" fill-rule="evenodd">
    <mask id="settings-bluetooth-b" fill="#fff">
      <use xlink:href="#settings-bluetooth-a"/>
    </mask>
    <g fill="CurrentColor" mask="url(#settings-bluetooth-b)">
      <rect width="16" height="16"/>
    </g>
  </g>
</svg>
