<svg xmlns="http://www.w3.org/2000/svg" xmlns:xlink="http://www.w3.org/1999/xlink" width="16" height="16" viewBox="0 0 16 16">
  <defs>
    <path id="settings-power-a" d="M4.66666665,16.0000001 L5.99999999,16.0000001 L5.99999999,14.6666667 L4.66666665,14.6666667 L4.66666665,16.0000001 Z M7.33333333,16.0000001 L8.66666667,16.0000001 L8.66666667,14.6666667 L7.33333333,14.6666667 L7.33333333,16.0000001 Z M8.66666667,1.33333329 L7.33333333,1.33333329 L7.33333333,8 L8.66666667,8 L8.66666667,1.33333329 Z M11.04,2.95999997 L10.0733333,3.92666664 C11.2266667,4.62666665 12,5.88666665 12,7.33333333 C12,9.54000001 10.2066667,11.3333334 8,11.3333334 C5.79333332,11.3333334 3.99999997,9.54000001 3.99999997,7.33333333 C3.99999997,5.88666665 4.77333331,4.62666665 5.91999999,3.91999997 L4.95999998,2.95999997 C3.57333331,3.91999997 2.66666663,5.51999998 2.66666663,7.33333333 C2.66666663,10.28 5.05333331,12.6666667 8,12.6666667 C10.9466667,12.6666667 13.3333334,10.28 13.3333334,7.33333333 C13.3333334,5.51999998 12.4266667,3.91999997 11.04,2.95999997 Z M10,16.0000001 L11.3333334,16.0000001 L11.3333334,14.6666667 L10,14.6666667 L10,16.0000001 Z"/>
  </defs>
  <g fill="none" fill-rule="evenodd">
    <mask id="settings-power-b" fill="#fff">
      <use xlink:href="#settings-power-a"/>
    </mask>
    <g fill="CurrentColor" mask="url(#settings-power-b)">
      <rect width="16" height="16"/>
    </g>
  </g>
</svg>
