<svg xmlns="http://www.w3.org/2000/svg" xmlns:xlink="http://www.w3.org/1999/xlink" width="16" height="16" viewBox="0 0 16 16">
  <defs>
    <path id="settings-remote-a" d="M10,5.99999999 L5.99999999,5.99999999 C5.63333332,5.99999999 5.33333332,6.29999999 5.33333332,6.66666666 L5.33333332,14.6666667 C5.33333332,15.0333334 5.63333332,15.3333334 5.99999999,15.3333334 L10,15.3333334 C10.3666667,15.3333334 10.6666667,15.0333334 10.6666667,14.6666667 L10.6666667,6.66666666 C10.6666667,6.29999999 10.3666667,5.99999999 10,5.99999999 Z M8,10 C7.26666666,10 6.66666666,9.40000001 6.66666666,8.66666667 C6.66666666,7.93333333 7.26666666,7.33333333 8,7.33333333 C8.73333334,7.33333333 9.33333334,7.93333333 9.33333334,8.66666667 C9.33333334,9.40000001 8.73333334,10 8,10 Z M4.69999998,4.03333331 L5.63999999,4.97333331 C6.24666666,4.37333331 7.07999999,3.99999997 8,3.99999997 C8.92000001,3.99999997 9.75333334,4.37333331 10.36,4.97333331 L11.3,4.03333331 C10.4533333,3.18666664 9.28666667,2.66666663 8,2.66666663 C6.71333333,2.66666663 5.54666665,3.18666664 4.69999998,4.03333331 Z M8,-5.00000006e-08 C5.97333332,-5.00000006e-08 4.13999998,0.819999955 2.8133333,2.14666663 L3.75333331,3.08666664 C4.83999998,2.00666663 6.33999999,1.33333329 8,1.33333329 C9.66000001,1.33333329 11.16,2.00666663 12.24,3.0933333 L13.18,2.1533333 C11.86,0.819999955 10.0266667,-5.00000006e-08 8,-5.00000006e-08 Z"/>
  </defs>
  <g fill="none" fill-rule="evenodd">
    <mask id="settings-remote-b" fill="#fff">
      <use xlink:href="#settings-remote-a"/>
    </mask>
    <g fill="CurrentColor" mask="url(#settings-remote-b)">
      <rect width="16" height="16"/>
    </g>
  </g>
</svg>
