<svg xmlns="http://www.w3.org/2000/svg" xmlns:xlink="http://www.w3.org/1999/xlink" width="16" height="16" viewBox="0 0 16 16">
  <defs>
    <path id="shop-a" d="M10.6666667,3.99999998 L10.6666667,2.66666663 C10.6666667,1.92666663 10.0733333,1.33333329 9.33333329,1.33333329 L6.66666666,1.33333329 C5.92666665,1.33333329 5.33333329,1.92666663 5.33333329,2.66666663 L5.33333329,3.99999998 L1.33333329,3.99999998 L1.33333329,12.6666667 C1.33333329,13.4066667 1.92666663,14 2.66666663,14 L13.3333333,14 C14.0733334,14 14.6666667,13.4066667 14.6666667,12.6666667 L14.6666667,3.99999998 L10.6666667,3.99999998 Z M6.66666666,2.66666663 L9.33333334,2.66666663 L9.33333334,3.99999997 L6.66666666,3.99999997 L6.66666666,2.66666663 Z M5.99999999,12 L5.99999999,5.99999999 L11,8.66666667 L5.99999999,12 Z"/>
  </defs>
  <g fill="none" fill-rule="evenodd">
    <mask id="shop-b" fill="#fff">
      <use xlink:href="#shop-a"/>
    </mask>
    <g fill="CurrentColor" mask="url(#shop-b)">
      <rect width="16" height="16"/>
    </g>
  </g>
</svg>
