<svg xmlns="http://www.w3.org/2000/svg" xmlns:xlink="http://www.w3.org/1999/xlink" width="16" height="16" viewBox="0 0 16 16">
  <defs>
    <path id="supervisor-account-a" d="M11,8 C11.92,8 12.66,7.25333333 12.66,6.33333332 C12.66,5.41333332 11.92,4.66666665 11,4.66666665 C10.08,4.66666665 9.33333334,5.41333332 9.33333334,6.33333332 C9.33333334,7.25333333 10.08,8 11,8 Z M5.99999997,7.3333333 C7.10666666,7.3333333 7.99333333,6.43999999 7.99333333,5.3333333 C7.99333333,4.22666664 7.10666666,3.3333333 5.99999997,3.3333333 C4.89333331,3.3333333 3.99999997,4.22666664 3.99999997,5.3333333 C3.99999997,6.43999999 4.89333331,7.3333333 5.99999997,7.3333333 Z M11,9.33333334 C9.78000001,9.33333334 7.33333333,9.94666668 7.33333333,11.1666667 L7.33333333,12.6666667 L14.6666667,12.6666667 L14.6666667,11.1666667 C14.6666667,9.94666668 12.22,9.33333334 11,9.33333334 Z M5.99999999,8.66666667 C4.44666664,8.66666667 1.33333329,9.44666668 1.33333329,11 L1.33333329,12.6666667 L5.99999999,12.6666667 L5.99999999,11.1666667 C5.99999999,10.6 6.21999999,9.60666668 7.58,8.85333334 C6.99999999,8.73333334 6.43999999,8.66666667 5.99999999,8.66666667 Z"/>
  </defs>
  <g fill="none" fill-rule="evenodd">
    <mask id="supervisor-account-b" fill="#fff">
      <use xlink:href="#supervisor-account-a"/>
    </mask>
    <g fill="CurrentColor" mask="url(#supervisor-account-b)">
      <rect width="16" height="16"/>
    </g>
  </g>
</svg>
