<svg xmlns="http://www.w3.org/2000/svg" xmlns:xlink="http://www.w3.org/1999/xlink" width="16" height="16" viewBox="0 0 16 16">
  <defs>
    <path id="toc-a" d="M1.99999996,5.99999999 L11.3333334,5.99999999 L11.3333334,4.66666665 L1.99999996,4.66666665 L1.99999996,5.99999999 Z M1.99999996,8.66666667 L11.3333334,8.66666667 L11.3333334,7.33333333 L1.99999996,7.33333333 L1.99999996,8.66666667 Z M1.99999996,11.3333334 L11.3333334,11.3333334 L11.3333334,10 L1.99999996,10 L1.99999996,11.3333334 Z M12.6666667,11.3333334 L14,11.3333334 L14,10 L12.6666667,10 L12.6666667,11.3333334 Z M12.6666667,4.66666665 L12.6666667,5.99999999 L14,5.99999999 L14,4.66666665 L12.6666667,4.66666665 Z M12.6666667,8.66666667 L14,8.66666667 L14,7.33333333 L12.6666667,7.33333333 L12.6666667,8.66666667 Z"/>
  </defs>
  <g fill="none" fill-rule="evenodd">
    <mask id="toc-b" fill="#fff">
      <use xlink:href="#toc-a"/>
    </mask>
    <g fill="CurrentColor" mask="url(#toc-b)">
      <rect width="16" height="16"/>
    </g>
  </g>
</svg>
