<svg xmlns="http://www.w3.org/2000/svg" xmlns:xlink="http://www.w3.org/1999/xlink" width="16" height="16" viewBox="0 0 16 16">
  <defs>
    <path id="today-a" d="M12.6666667,1.99999996 L12,1.99999996 L12,0.666666621 L10.6666667,0.666666621 L10.6666667,1.99999996 L5.33333332,1.99999996 L5.33333332,0.666666621 L3.99999996,0.666666621 L3.99999996,1.99999996 L3.3333333,1.99999996 C2.5933333,1.99999996 2.00666663,2.59999997 2.00666663,3.3333333 L1.99999996,12.6666666 C1.99999996,13.4 2.5933333,14 3.3333333,14 L12.6666667,14 C13.4,14 14,13.4 14,12.6666666 L14,3.3333333 C14,2.59999997 13.4,1.99999996 12.6666667,1.99999996 Z M12.6666667,12.6666667 L3.3333333,12.6666667 L3.3333333,5.33333332 L12.6666667,5.33333332 L12.6666667,12.6666667 Z M4.66666665,6.66666666 L8,6.66666666 L8,10 L4.66666665,10 L4.66666665,6.66666666 Z"/>
  </defs>
  <g fill="none" fill-rule="evenodd">
    <mask id="today-b" fill="#fff">
      <use xlink:href="#today-a"/>
    </mask>
    <g fill="CurrentColor" mask="url(#today-b)">
      <rect width="16" height="16"/>
    </g>
  </g>
</svg>
