<svg xmlns="http://www.w3.org/2000/svg" xmlns:xlink="http://www.w3.org/1999/xlink" width="16" height="16" viewBox="0 0 16 16">
  <defs>
    <path id="view-list-a" d="M2.66666663,9.33333334 L5.33333332,9.33333334 L5.33333332,6.66666666 L2.66666663,6.66666666 L2.66666663,9.33333334 Z M2.66666663,12.6666667 L5.33333332,12.6666667 L5.33333332,10 L2.66666663,10 L2.66666663,12.6666667 Z M2.66666663,5.99999999 L5.33333332,5.99999999 L5.33333332,3.3333333 L2.66666663,3.3333333 L2.66666663,5.99999999 Z M5.99999999,9.33333334 L14,9.33333334 L14,6.66666666 L5.99999999,6.66666666 L5.99999999,9.33333334 Z M5.99999999,12.6666667 L14,12.6666667 L14,10 L5.99999999,10 L5.99999999,12.6666667 Z M5.99999999,3.3333333 L5.99999999,5.99999999 L14,5.99999999 L14,3.3333333 L5.99999999,3.3333333 Z"/>
  </defs>
  <g fill="none" fill-rule="evenodd">
    <mask id="view-list-b" fill="#fff">
      <use xlink:href="#view-list-a"/>
    </mask>
    <g fill="CurrentColor" mask="url(#view-list-b)">
      <rect width="16" height="16"/>
    </g>
  </g>
</svg>
