<svg xmlns="http://www.w3.org/2000/svg" xmlns:xlink="http://www.w3.org/1999/xlink" width="16" height="16" viewBox="0 0 16 16">
  <defs>
    <path id="visibility-a" d="M8,2.99999997 C4.66666662,2.99999997 1.81999996,5.07333332 0.666666621,7.99999997 C1.81999996,10.9266667 4.66666662,13 8,13 C11.3333334,13 14.18,10.9266667 15.3333334,7.99999997 C14.18,5.07333332 11.3333334,2.99999997 8,2.99999997 Z M8,11.3333334 C6.15999999,11.3333334 4.66666665,9.84000001 4.66666665,8 C4.66666665,6.15999999 6.15999999,4.66666665 8,4.66666665 C9.84000001,4.66666665 11.3333334,6.15999999 11.3333334,8 C11.3333334,9.84000001 9.84000001,11.3333334 8,11.3333334 Z M7.99999999,5.99999999 C6.89333333,5.99999999 5.99999999,6.89333333 5.99999999,7.99999999 C5.99999999,9.10666667 6.89333333,9.99999999 7.99999999,9.99999999 C9.10666667,9.99999999 9.99999999,9.10666667 9.99999999,7.99999999 C9.99999999,6.89333333 9.10666667,5.99999999 7.99999999,5.99999999 Z"/>
  </defs>
  <g fill="none" fill-rule="evenodd">
    <mask id="visibility-b" fill="#fff">
      <use xlink:href="#visibility-a"/>
    </mask>
    <g fill="CurrentColor" mask="url(#visibility-b)">
      <rect width="16" height="16"/>
    </g>
  </g>
</svg>
