<svg xmlns="http://www.w3.org/2000/svg" xmlns:xlink="http://www.w3.org/1999/xlink" width="16" height="16" viewBox="0 0 16 16">
  <defs>
    <path id="visibility-off-a" d="M8,4.66666665 C9.83999998,4.66666665 11.3333334,6.15999999 11.3333334,7.99999997 C11.3333334,8.43333334 11.2466667,8.84000001 11.0933334,9.22000001 L13.04,11.1666667 C14.0466667,10.3266667 14.84,9.24000001 15.3266667,7.99999997 C14.1733334,5.07333332 11.3266667,2.99999997 7.99333333,2.99999997 C7.05999999,2.99999997 6.16666666,3.16666664 5.33999998,3.46666664 L6.77999999,4.90666665 C7.15999999,4.75333331 7.56666666,4.66666665 8,4.66666665 Z M1.33333329,2.84666663 L2.8533333,4.36666664 L3.15999997,4.67333331 C2.0533333,5.53333332 1.18666662,6.67999999 0.666666621,7.99999996 C1.81999996,10.9266667 4.66666662,13 8,13 C9.03333334,13 10.02,12.8 10.92,12.44 L11.2,12.72 L13.1533334,14.6666667 L14,13.82 L2.17999996,1.99999996 L1.33333329,2.84666663 Z M5.01999998,6.53333332 L6.05333332,7.56666666 C6.01999999,7.70666666 5.99999999,7.85333333 5.99999999,8 C5.99999999,9.10666667 6.89333333,10 8,10 C8.14666667,10 8.29333334,9.98000001 8.43333334,9.94666668 L9.46666668,10.98 C9.02000001,11.2 8.52666667,11.3333334 8,11.3333334 C6.15999999,11.3333334 4.66666665,9.84000001 4.66666665,8 C4.66666665,7.47333333 4.79999998,6.97999999 5.01999998,6.53333332 L5.01999998,6.53333332 Z M7.89333333,6.01333332 L9.99333335,8.11333333 L10.0066667,8.00666665 C10.0066667,6.89999999 9.11333334,6.00666665 8.00666667,6.00666665 L7.89333333,6.01333332 Z"/>
  </defs>
  <g fill="none" fill-rule="evenodd">
    <mask id="visibility-off-b" fill="#fff">
      <use xlink:href="#visibility-off-a"/>
    </mask>
    <g fill="CurrentColor" mask="url(#visibility-off-b)">
      <rect width="16" height="16"/>
    </g>
  </g>
</svg>
