<svg xmlns="http://www.w3.org/2000/svg" xmlns:xlink="http://www.w3.org/1999/xlink" width="16" height="16" viewBox="0 0 16 16">
  <defs>
    <path id="work-a" d="M13.3333333,3.99999998 L10.6666667,3.99999998 L10.6666667,2.66666663 C10.6666667,1.92666663 10.0733333,1.33333329 9.33333329,1.33333329 L6.66666666,1.33333329 C5.92666665,1.33333329 5.33333329,1.92666663 5.33333329,2.66666663 L5.33333329,3.99999998 L2.66666663,3.99999998 C1.92666663,3.99999998 1.33999996,4.59333331 1.33999996,5.33333329 L1.33333329,12.6666667 C1.33333329,13.4066667 1.92666663,14 2.66666663,14 L13.3333333,14 C14.0733334,14 14.6666667,13.4066667 14.6666667,12.6666667 L14.6666667,5.33333329 C14.6666667,4.59333331 14.0733334,3.99999998 13.3333333,3.99999998 Z M9.33333334,3.99999997 L6.66666666,3.99999997 L6.66666666,2.66666663 L9.33333334,2.66666663 L9.33333334,3.99999997 Z"/>
  </defs>
  <g fill="none" fill-rule="evenodd">
    <mask id="work-b" fill="#fff">
      <use xlink:href="#work-a"/>
    </mask>
    <g fill="CurrentColor" mask="url(#work-b)">
      <rect width="16" height="16"/>
    </g>
  </g>
</svg>
