<svg xmlns="http://www.w3.org/2000/svg" xmlns:xlink="http://www.w3.org/1999/xlink" width="16" height="16" viewBox="0 0 16 16">
  <defs>
    <path id="youtube-searched-for-a" d="M11.34,9.33333334 L10.8066667,9.33333334 L10.6266667,9.15333334 C11.28,8.39333334 11.6733334,7.41333333 11.6733334,6.33333332 C11.6733334,3.93999997 9.73333334,1.99999996 7.34,1.99999996 C4.94666665,1.99999996 3.00666664,3.99999996 3.00666664,6.33333332 L1.33333329,6.33333332 L3.89333331,8.99999996 L6.66666666,6.33333332 L4.33999998,6.33333332 C4.33999998,4.66666665 5.68666665,3.3333333 7.34,3.3333333 C8.99333334,3.3333333 10.34,4.67333331 10.34,6.33333332 C10.34,7.98666667 8.99333334,9.33333334 7.34,9.33333334 C6.90666666,9.33333334 6.49999999,9.24000001 6.12666665,9.08000001 L5.13999998,10.0666667 C5.78666665,10.4466667 6.53333332,10.6666667 7.34,10.6666667 C8.41333334,10.6666667 9.39333334,10.2733333 10.1533333,9.62000001 L10.3333333,9.80000001 L10.3333333,10.3266667 L13.6733334,13.6533334 L14.6666667,12.6666667 L11.34,9.33333334 Z"/>
  </defs>
  <g fill="none" fill-rule="evenodd">
    <mask id="youtube-searched-for-b" fill="#fff">
      <use xlink:href="#youtube-searched-for-a"/>
    </mask>
    <g fill="CurrentColor" mask="url(#youtube-searched-for-b)">
      <rect width="16" height="16"/>
    </g>
  </g>
</svg>
