<svg xmlns="http://www.w3.org/2000/svg" xmlns:xlink="http://www.w3.org/1999/xlink" width="16" height="16" viewBox="0 0 16 16">
  <defs>
    <path id="add-alert-a" d="M6.67333333,14.0066667 C6.67333333,14.74 7.26666666,15.3333334 8,15.3333334 C8.73333334,15.3333334 9.32666667,14.74 9.32666667,14.0066667 L6.67333333,14.0066667 Z M12.5866667,11.2133334 L12.5866667,7.33333329 C12.5866667,5.16666665 11.0866667,3.3533333 9.06000001,2.8733333 L9.06000001,2.3933333 C9.06000001,1.80666663 8.58666667,1.33333329 7.99999996,1.33333329 C7.41333333,1.33333329 6.93999999,1.80666663 6.93999999,2.3933333 L6.93999999,2.8733333 C4.91333331,3.3533333 3.4133333,5.16666665 3.4133333,7.33333329 L3.4133333,11.2133334 L1.99999996,12.6266667 L1.99999996,13.3333333 L14,13.3333333 L14,12.6266667 L12.5866667,11.2133334 Z M10.6666667,8.67333334 L8.66666667,8.67333334 L8.66666667,10.6733334 L7.33333332,10.6733334 L7.33333332,8.67333334 L5.33333332,8.67333334 L5.33333332,7.33333332 L7.33333332,7.33333332 L7.33333332,5.33333332 L8.66666667,5.33333332 L8.66666667,7.33333332 L10.6666667,7.33333332 L10.6666667,8.67333334 Z"/>
  </defs>
  <g fill="none" fill-rule="evenodd">
    <mask id="add-alert-b" fill="#fff">
      <use xlink:href="#add-alert-a"/>
    </mask>
    <g fill="CurrentColor" mask="url(#add-alert-b)">
      <rect width="16" height="16"/>
    </g>
  </g>
</svg>
