<svg xmlns="http://www.w3.org/2000/svg" xmlns:xlink="http://www.w3.org/1999/xlink" width="16" height="16" viewBox="0 0 16 16">
  <defs>
    <path id="beach-access-a" d="M8.75133334,9.70666668 L9.70466668,8.75333334 L13.998,13.0486667 L13.0466667,14 L8.75133334,9.70666668 Z M11.6133334,5.88666665 L13.52,3.97999997 C10.8866667,1.34666663 6.61999999,1.33999996 3.98666664,3.96666664 C6.60666666,3.09999997 9.52666668,3.79999997 11.6133334,5.88666665 L11.6133334,5.88666665 Z M3.96666664,3.98666664 C1.33999996,6.61999999 1.34666663,10.8866667 3.97999997,13.52 L5.88666665,11.6133334 C3.79999997,9.52666668 3.09999997,6.60666666 3.96666664,3.98666664 Z M3.97999997,3.97333331 L3.97333331,3.97999997 C3.71999997,5.98666665 4.75333331,8.56666667 6.83999999,10.66 L10.66,6.83999999 C8.57333334,4.75333331 5.98666665,3.71999997 3.97999997,3.97333331 Z"/>
  </defs>
  <g fill="none" fill-rule="evenodd">
    <mask id="beach-access-b" fill="#fff">
      <use xlink:href="#beach-access-a"/>
    </mask>
    <g fill="CurrentColor" mask="url(#beach-access-b)">
      <rect width="16" height="16"/>
    </g>
  </g>
</svg>
