<svg xmlns="http://www.w3.org/2000/svg" xmlns:xlink="http://www.w3.org/1999/xlink" width="16" height="16" viewBox="0 0 16 16">
  <defs>
    <path id="more-vert-a" d="M8,4.88888887 C8.73777778,4.88888887 9.33333334,4.29333331 9.33333334,3.55555553 C9.33333334,2.81777775 8.73777778,2.22222219 8,2.22222219 C7.26222222,2.22222219 6.66666666,2.81777775 6.66666666,3.55555553 C6.66666666,4.29333331 7.26222222,4.88888887 8,4.88888887 Z M8,6.66666666 C7.26222222,6.66666666 6.66666666,7.26222222 6.66666666,8 C6.66666666,8.73777778 7.26222222,9.33333334 8,9.33333334 C8.73777778,9.33333334 9.33333334,8.73777778 9.33333334,8 C9.33333334,7.26222222 8.73777778,6.66666666 8,6.66666666 Z M8,11.1111111 C7.26222222,11.1111111 6.66666666,11.7066667 6.66666666,12.4444445 C6.66666666,13.1822223 7.26222222,13.7777778 8,13.7777778 C8.73777778,13.7777778 9.33333334,13.1822223 9.33333334,12.4444445 C9.33333334,11.7066667 8.73777778,11.1111111 8,11.1111111 Z"/>
  </defs>
  <g fill="none" fill-rule="evenodd">
    <mask id="more-vert-b" fill="#fff">
      <use xlink:href="#more-vert-a"/>
    </mask>
    <g fill="CurrentColor" mask="url(#more-vert-b)">
      <rect width="16" height="16"/>
    </g>
  </g>
</svg>
