<svg xmlns="http://www.w3.org/2000/svg" xmlns:xlink="http://www.w3.org/1999/xlink" width="16" height="16" viewBox="0 0 16 16">
  <defs>
    <path id="refresh-a" d="M8,12 C5.78666665,12 3.99999997,10.2133333 3.99999997,8 C3.99999997,5.78666665 5.78666665,3.99999998 8,3.99999998 C9.10222223,3.99999998 10.0977778,4.4622222 10.8177778,5.1822222 L8.88888889,7.11111111 L13.3333334,7.11111111 L13.3333334,2.66666663 L11.7688889,4.23111109 C10.8,3.27111108 9.47555556,2.66666663 8,2.66666663 C5.05777776,2.66666663 2.67555552,5.05777776 2.67555552,8 C2.67555552,10.9422222 5.05777776,13.3333334 8,13.3333334 C10.64,13.3333334 12.8266667,11.4133334 13.2444445,8.88888889 L11.8933334,8.88888889 C11.4844445,10.6666666 9.90222223,12 8,12 Z"/>
  </defs>
  <g fill="none" fill-rule="evenodd">
    <mask id="refresh-b" fill="#fff">
      <use xlink:href="#refresh-a"/>
    </mask>
    <g fill="CurrentColor" mask="url(#refresh-b)">
      <rect width="16" height="16"/>
    </g>
  </g>
</svg>
