<svg xmlns="http://www.w3.org/2000/svg" xmlns:xlink="http://www.w3.org/1999/xlink" width="16" height="16" viewBox="0 0 16 16">
  <defs>
    <path id="filter-frames-a" d="M13.3333333,2.66666663 L10.6666667,2.66666663 L8,-5.00000006e-08 L5.33333329,2.66666663 L2.66666663,2.66666663 C1.9333333,2.66666663 1.33333329,3.26666664 1.33333329,3.99999995 L1.33333329,13.3333334 C1.33333329,14.0666667 1.9333333,14.6666667 2.66666663,14.6666667 L13.3333333,14.6666667 C14.0666667,14.6666667 14.6666667,14.0666667 14.6666667,13.3333334 L14.6666667,3.99999995 C14.6666667,3.26666664 14.0666667,2.66666663 13.3333333,2.66666663 Z M13.3333334,13.3333334 L2.66666663,13.3333334 L2.66666663,3.99999997 L5.67999999,3.99999997 L8.02666667,1.66666663 L10.3466667,3.99999997 L13.3333334,3.99999997 L13.3333334,13.3333334 Z M12,5.33333332 L3.99999997,5.33333332 L3.99999997,12 L12,12 L12,5.33333332 Z"/>
  </defs>
  <g fill="none" fill-rule="evenodd">
    <mask id="filter-frames-b" fill="#fff">
      <use xlink:href="#filter-frames-a"/>
    </mask>
    <g fill="CurrentColor" mask="url(#filter-frames-b)">
      <rect width="16" height="16"/>
    </g>
  </g>
</svg>
