<svg xmlns="http://www.w3.org/2000/svg" xmlns:xlink="http://www.w3.org/1999/xlink" width="16" height="16" viewBox="0 0 16 16">
  <defs>
    <path id="healing-a" d="M11.82,8.01333333 L14.4733334,5.35999998 C14.7333334,5.09999998 14.7333334,4.67999998 14.4733334,4.41999998 L11.58,1.52666663 C11.32,1.26666662 10.9,1.26666662 10.64,1.52666663 L7.98666667,4.17999998 L5.33333332,1.52666663 C5.19999998,1.39999996 5.03333331,1.33333329 4.85999998,1.33333329 C4.69333331,1.33333329 4.51999998,1.39999996 4.39333331,1.52666663 L1.49999996,4.41999998 C1.23999996,4.67999998 1.23999996,5.09999998 1.49999996,5.35999998 L4.15333331,8.01333333 L1.49999996,10.6666667 C1.23999996,10.9266667 1.23999996,11.3466667 1.49999996,11.6066667 L4.39333331,14.5 C4.65333331,14.76 5.07333332,14.76 5.33333332,14.5 L7.98666667,11.8466667 L10.64,14.5 C10.7733334,14.6333334 10.94,14.6933334 11.1133334,14.6933334 C11.2866667,14.6933334 11.4533334,14.6266667 11.5866667,14.5 L14.48,11.6066667 C14.74,11.3466667 14.74,10.9266667 14.48,10.6666667 L11.82,8.01333333 Z M8,5.99999999 C8.36666667,5.99999999 8.66666667,6.29999999 8.66666667,6.66666666 C8.66666667,7.03333333 8.36666667,7.33333333 8,7.33333333 C7.63333333,7.33333333 7.33333333,7.03333333 7.33333333,6.66666666 C7.33333333,6.29999999 7.63333333,5.99999999 8,5.99999999 Z M4.85999998,7.30666666 L2.43999997,4.89333331 L4.85999998,2.4733333 L7.27333333,4.88666665 L4.85999998,7.30666666 Z M6.66666666,8.66666667 C6.29999999,8.66666667 5.99999999,8.36666667 5.99999999,8 C5.99999999,7.63333333 6.29999999,7.33333333 6.66666666,7.33333333 C7.03333333,7.33333333 7.33333333,7.63333333 7.33333333,8 C7.33333333,8.36666667 7.03333333,8.66666667 6.66666666,8.66666667 Z M8,10 C7.63333333,10 7.33333333,9.70000001 7.33333333,9.33333334 C7.33333333,8.96666667 7.63333333,8.66666667 8,8.66666667 C8.36666667,8.66666667 8.66666667,8.96666667 8.66666667,9.33333334 C8.66666667,9.70000001 8.36666667,10 8,10 Z M9.33333334,7.33333333 C9.70000001,7.33333333 10,7.63333333 10,8 C10,8.36666667 9.70000001,8.66666667 9.33333334,8.66666667 C8.96666667,8.66666667 8.66666667,8.36666667 8.66666667,8 C8.66666667,7.63333333 8.96666667,7.33333333 9.33333334,7.33333333 Z M11.1066667,13.56 L8.68666667,11.1466667 L11.1066667,8.72666667 L13.52,11.14 L11.1066667,13.56 Z"/>
  </defs>
  <g fill="none" fill-rule="evenodd">
    <mask id="healing-b" fill="#fff">
      <use xlink:href="#healing-a"/>
    </mask>
    <g fill="CurrentColor" mask="url(#healing-b)">
      <rect width="16" height="16"/>
    </g>
  </g>
</svg>
