<svg xmlns="http://www.w3.org/2000/svg" xmlns:xlink="http://www.w3.org/1999/xlink" width="16" height="16" viewBox="0 0 16 16">
  <defs>
    <path id="vignette-a" d="M14,1.99999996 L1.99999996,1.99999996 C1.26666662,1.99999996 0.666666621,2.59999997 0.666666621,3.3333333 L0.666666621,12.6666667 C0.666666621,13.4 1.26666662,14 1.99999996,14 L14,14 C14.7333334,14 15.3333334,13.4 15.3333334,12.6666667 L15.3333334,3.3333333 C15.3333334,2.59999997 14.7333334,1.99999996 14,1.99999996 Z M8,12 C5.05333331,12 2.66666663,10.2066667 2.66666663,7.99999997 C2.66666663,5.79333332 5.05333331,3.99999997 8,3.99999997 C10.9466667,3.99999997 13.3333334,5.79333332 13.3333334,7.99999997 C13.3333334,10.2066667 10.9466667,12 8,12 Z"/>
  </defs>
  <g fill="none" fill-rule="evenodd">
    <mask id="vignette-b" fill="#fff">
      <use xlink:href="#vignette-a"/>
    </mask>
    <g fill="CurrentColor" mask="url(#vignette-b)">
      <rect width="16" height="16"/>
    </g>
  </g>
</svg>
