<svg viewBox="0 0 740 424" xmlns="http://www.w3.org/2000/svg"><g fill="none" fill-rule="evenodd"><path stroke="#B8C7D2" fill="#FFF" d="M.5.5h739v395H.5z"/><path d="M5.72 421c.864 0 1.65-.14 2.356-.42a5.258 5.258 0 001.816-1.18 5.281 5.281 0 001.172-1.82c.277-.707.416-1.487.416-2.34 0-.853-.139-1.633-.416-2.34a5.281 5.281 0 00-1.172-1.82 5.258 5.258 0 00-1.816-1.18c-.707-.28-1.492-.42-2.356-.42H1.368V421H5.72zm0-1.512H3.248v-8.496H5.72c.592 0 1.125.097 1.6.292.475.195.879.473 1.212.836.333.363.59.808.768 1.336.179.528.268 1.123.268 1.784 0 .667-.09 1.263-.268 1.788-.179.525-.435.97-.768 1.336a3.283 3.283 0 01-1.212.836 4.234 4.234 0 01-1.6.288zm8.862 1.64c.299 0 .572-.025.82-.076.248-.05.48-.127.696-.228.216-.101.426-.225.628-.372.203-.147.408-.313.616-.5l.168.664c.059.155.13.257.216.308.086.05.21.076.376.076h.768v-5.184c0-.464-.065-.887-.196-1.268-.13-.381-.32-.71-.568-.988a2.505 2.505 0 00-.92-.644 3.235 3.235 0 00-1.252-.228c-1.274 0-2.373.43-3.296 1.288l.312.56c.054.09.122.167.204.228a.49.49 0 00.3.092.74.74 0 00.408-.124c.128-.083.275-.172.44-.268.166-.096.36-.185.584-.268.224-.083.502-.124.832-.124.486 0 .854.144 1.104.432.25.288.376.725.376 1.312v.544c-.928.021-1.708.11-2.34.264-.632.155-1.141.35-1.528.588-.386.237-.664.505-.832.804a1.855 1.855 0 00-.252.92c0 .368.06.688.18.96s.284.5.492.684c.208.184.455.321.74.412.286.09.594.136.924.136zm.52-1.2c-.176 0-.337-.02-.484-.06a1.041 1.041 0 01-.384-.192.897.897 0 01-.256-.336 1.191 1.191 0 01-.092-.492c0-.197.058-.379.172-.544.115-.165.303-.308.564-.428.262-.12.603-.219 1.024-.296a10.88 10.88 0 011.552-.148v1.512c-.304.32-.617.564-.94.732-.322.168-.708.252-1.156.252zm8.102 1.2c.384 0 .758-.063 1.12-.188a2.79 2.79 0 00.944-.54l-.512-.84c-.058-.107-.136-.16-.232-.16a.263.263 0 00-.148.052c-.05.035-.11.072-.18.112-.069.04-.152.077-.248.112s-.21.052-.344.052a.75.75 0 01-.576-.232c-.144-.155-.216-.379-.216-.672v-4.632h2.264v-1.24h-2.264v-2.68h-.88a.375.375 0 00-.256.084.455.455 0 00-.136.22l-.376 2.36-1.32.192v.696c0 .123.035.215.104.276.07.061.152.092.248.092h.896v4.752c0 .693.183 1.23.548 1.612.366.381.887.572 1.564.572zm4.799 0c.298 0 .572-.025.82-.076.248-.05.48-.127.696-.228.216-.101.425-.225.628-.372.202-.147.408-.313.616-.5l.168.664c.058.155.13.257.216.308.085.05.21.076.376.076h.768v-5.184c0-.464-.066-.887-.196-1.268-.131-.381-.32-.71-.568-.988a2.505 2.505 0 00-.92-.644 3.235 3.235 0 00-1.252-.228c-1.275 0-2.374.43-3.296 1.288l.312.56c.053.09.121.167.204.228a.49.49 0 00.3.092.74.74 0 00.408-.124c.128-.083.274-.172.44-.268.165-.096.36-.185.584-.268.224-.083.501-.124.832-.124.485 0 .853.144 1.104.432.25.288.376.725.376 1.312v.544c-.928.021-1.708.11-2.34.264-.632.155-1.142.35-1.528.588-.387.237-.664.505-.832.804a1.855 1.855 0 00-.252.92c0 .368.06.688.18.96s.284.5.492.684c.208.184.454.321.74.412.285.09.593.136.924.136zm.52-1.2c-.176 0-.338-.02-.484-.06a1.041 1.041 0 01-.384-.192.897.897 0 01-.256-.336 1.191 1.191 0 01-.092-.492c0-.197.057-.379.172-.544.114-.165.302-.308.564-.428.261-.12.602-.219 1.024-.296a10.88 10.88 0 011.552-.148v1.512c-.304.32-.618.564-.94.732-.323.168-.708.252-1.156.252zM44.903 421v-1.568H40.12v-9.952h-1.872V421h6.656zm2.022-9.48c.16 0 .311-.03.452-.092.142-.061.266-.144.372-.248.107-.104.191-.225.252-.364.062-.139.092-.285.092-.44 0-.16-.03-.31-.092-.448a1.157 1.157 0 00-.252-.364 1.228 1.228 0 00-.372-.248 1.123 1.123 0 00-.888 0 1.155 1.155 0 00-.356.248 1.228 1.228 0 00-.244.364 1.095 1.095 0 00-.092.448c0 .155.031.301.092.44.062.139.143.26.244.364.102.104.22.187.356.248.136.061.282.092.436.092zm.88 9.48v-8.16h-1.72V421h1.72zm4.183.128c.512 0 .966-.067 1.364-.2.397-.133.729-.32.996-.56.266-.24.469-.523.608-.848.138-.325.208-.68.208-1.064 0-.33-.06-.612-.176-.844a1.876 1.876 0 00-.464-.592c-.192-.163-.411-.3-.656-.412a7.586 7.586 0 00-.752-.296 30.02 30.02 0 00-.752-.24 4.501 4.501 0 01-.656-.252 1.524 1.524 0 01-.464-.332.683.683 0 01-.176-.48c0-.144.032-.279.096-.404a.977.977 0 01.276-.328c.12-.093.266-.165.44-.216.173-.05.366-.076.58-.076.26 0 .489.028.684.084.194.056.364.119.508.188.144.07.269.132.376.188a.643.643 0 00.296.084c.08 0 .146-.016.2-.048a.427.427 0 00.144-.16l.384-.624a3.252 3.252 0 00-1.128-.72 4.06 4.06 0 00-1.496-.264c-.486 0-.914.065-1.284.196a2.8 2.8 0 00-.936.532 2.252 2.252 0 00-.772 1.704c0 .357.058.66.176.908.117.248.273.459.468.632a2.6 2.6 0 00.664.428c.248.112.5.21.756.296.256.085.508.165.756.24.248.075.469.16.664.256.194.096.35.21.468.344a.746.746 0 01.176.512 1.012 1.012 0 01-.36.8 1.33 1.33 0 01-.464.252 2.135 2.135 0 01-.664.092c-.31 0-.568-.036-.776-.108a3.04 3.04 0 01-.532-.236 8.237 8.237 0 01-.384-.236.598.598 0 00-.332-.108.494.494 0 00-.268.068.554.554 0 00-.18.188l-.4.656c.16.144.342.277.548.4.205.123.426.228.664.316.237.088.488.157.752.208.264.05.537.076.82.076zm7.23 0c.384 0 .757-.063 1.12-.188a2.79 2.79 0 00.944-.54l-.512-.84c-.059-.107-.136-.16-.232-.16a.263.263 0 00-.148.052c-.05.035-.11.072-.18.112-.07.04-.152.077-.248.112s-.21.052-.344.052a.75.75 0 01-.576-.232c-.144-.155-.216-.379-.216-.672v-4.632h2.264v-1.24h-2.264v-2.68h-.88a.375.375 0 00-.256.084.455.455 0 00-.136.22l-.376 2.36-1.32.192v.696c0 .123.034.215.104.276.07.061.152.092.248.092h.896v4.752c0 .693.182 1.23.548 1.612.365.381.886.572 1.564.572zm6.7-.128c.16 0 .294-.045.4-.136a.766.766 0 00.224-.296l.96-2.544h4.96l.96 2.544c.054.123.13.225.232.308a.613.613 0 00.4.124h1.448l-4.568-11.52h-1.896L64.47 421h1.448zm6.04-4.32h-3.944l1.584-4.2c.059-.16.123-.345.192-.556.07-.21.134-.441.192-.692.134.501.264.915.392 1.24l1.584 4.208zm6.086 4.32v-5.944c.288-.304.596-.544.924-.72a2.224 2.224 0 011.068-.264c.518 0 .903.152 1.156.456.254.304.38.73.38 1.28V421h1.712v-5.192a4.27 4.27 0 00-.176-1.26 2.723 2.723 0 00-.524-.98 2.36 2.36 0 00-.856-.632 2.902 2.902 0 00-1.18-.224c-.282 0-.544.03-.784.088a3.23 3.23 0 00-.68.248 3.648 3.648 0 00-.604.38c-.189.147-.372.31-.548.492l-.12-.752c-.064-.219-.213-.328-.448-.328h-1.04V421h1.72zm8.823.128c.298 0 .572-.025.82-.076.248-.05.48-.127.696-.228.216-.101.425-.225.628-.372.202-.147.408-.313.616-.5l.168.664c.058.155.13.257.216.308.085.05.21.076.376.076h.768v-5.184c0-.464-.066-.887-.196-1.268-.131-.381-.32-.71-.568-.988a2.505 2.505 0 00-.92-.644 3.235 3.235 0 00-1.252-.228c-1.275 0-2.374.43-3.296 1.288l.312.56c.053.09.121.167.204.228a.49.49 0 00.3.092.74.74 0 00.408-.124c.128-.083.274-.172.44-.268.165-.096.36-.185.584-.268.224-.083.501-.124.832-.124.485 0 .853.144 1.104.432.25.288.376.725.376 1.312v.544c-.928.021-1.708.11-2.34.264-.632.155-1.142.35-1.528.588-.387.237-.664.505-.832.804a1.855 1.855 0 00-.252.92c0 .368.06.688.18.96s.284.5.492.684c.208.184.454.321.74.412.285.09.593.136.924.136zm.52-1.2c-.176 0-.338-.02-.484-.06a1.041 1.041 0 01-.384-.192.897.897 0 01-.256-.336 1.191 1.191 0 01-.092-.492c0-.197.057-.379.172-.544.114-.165.302-.308.564-.428.261-.12.602-.219 1.024-.296a10.88 10.88 0 011.552-.148v1.512c-.304.32-.618.564-.94.732-.323.168-.708.252-1.156.252zm8.102 1.2c.384 0 .757-.063 1.12-.188a2.79 2.79 0 00.944-.54l-.512-.84c-.059-.107-.136-.16-.232-.16a.263.263 0 00-.148.052c-.05.035-.11.072-.18.112-.07.04-.152.077-.248.112s-.21.052-.344.052a.75.75 0 01-.576-.232c-.144-.155-.216-.379-.216-.672v-4.632h2.264v-1.24h-2.264v-2.68h-.88a.375.375 0 00-.256.084.455.455 0 00-.136.22l-.376 2.36-1.32.192v.696c0 .123.035.215.104.276.07.061.152.092.248.092h.896v4.752c0 .693.183 1.23.548 1.612.365.381.887.572 1.564.572zm6.526-.008c.603 0 1.148-.099 1.636-.296a3.482 3.482 0 001.248-.844 3.77 3.77 0 00.796-1.324c.187-.517.28-1.099.28-1.744s-.093-1.227-.28-1.744a3.729 3.729 0 00-.796-1.32 3.507 3.507 0 00-1.248-.84 4.329 4.329 0 00-1.636-.296c-.608 0-1.156.099-1.644.296a3.547 3.547 0 00-1.252.84 3.698 3.698 0 00-.8 1.32 5.113 5.113 0 00-.28 1.744c0 .645.093 1.227.28 1.744.187.517.453.959.8 1.324.347.365.764.647 1.252.844a4.351 4.351 0 001.644.296zm0-1.344c-.747 0-1.301-.247-1.664-.74s-.544-1.199-.544-2.116.181-1.625.544-2.124c.363-.499.917-.748 1.664-.748.736 0 1.284.25 1.644.748.36.499.54 1.207.54 2.124s-.18 1.623-.54 2.116c-.36.493-.908.74-1.644.74zm7.15 1.224v-6.016c.23-.283.48-.505.752-.668.272-.163.568-.244.888-.244.464 0 .816.14 1.056.42.24.28.36.719.36 1.316V421h1.72v-5.192c0-.288.042-.54.124-.756a1.446 1.446 0 01.844-.868c.192-.075.398-.112.616-.112.486 0 .852.145 1.1.436.248.29.372.724.372 1.3V421h1.72v-5.192c0-.49-.061-.928-.184-1.312a2.627 2.627 0 00-.54-.972 2.32 2.32 0 00-.872-.604 3.113 3.113 0 00-1.172-.208c-.266 0-.529.03-.788.092a2.838 2.838 0 00-.732.284 2.507 2.507 0 00-1.088 1.224 3.033 3.033 0 00-.304-.664 2.05 2.05 0 00-.436-.504 1.831 1.831 0 00-.58-.32 2.216 2.216 0 00-.72-.112 2.542 2.542 0 00-1.276.332 3.029 3.029 0 00-.516.368c-.16.141-.314.297-.464.468l-.112-.712c-.064-.219-.213-.328-.448-.328h-1.04V421h1.72zm13.335 2.712c.17 0 .297-.035.38-.104a.843.843 0 00.212-.288l4.496-10.48h-1.376a.53.53 0 00-.48.336l-1.864 4.624a6.004 6.004 0 00-.144.4c-.043.133-.086.27-.128.408a12.344 12.344 0 00-.116-.404 8.61 8.61 0 00-.132-.396l-1.944-4.632a.62.62 0 00-.172-.236.494.494 0 00-.332-.1h-1.496l3.328 7.608-1.504 3.264h1.272z" fill="#233744" fill-rule="nonzero"/><path fill="#E3E9ED" d="M162 175h415v1H162z"/><path fill="#EFEFEF" d="M162 113h415v31H162z"/><path fill="#E3E9ED" d="M162 208h415v1H162zM162 241h415v1H162zM162 274h415v1H162zM162 307h415v1H162z"/><path d="M173.584 134v-1.72h-5.136v-3.272h4.048v-1.656h-4.048v-3.208h5.136v-1.712h-7.296V134h7.296zm2.432 0a.459.459 0 00.32-.116c.085-.077.157-.161.216-.252l1.536-2.376c.043-.07.081-.144.116-.224.035-.08.065-.165.092-.256l1.736 2.856c.059.096.132.181.22.256a.52.52 0 00.348.112h1.904l-2.808-4.32 2.696-3.888h-1.816c-.187 0-.339.099-.456.296l-1.384 2.16c-.107.176-.19.355-.248.536l-1.72-2.736a.526.526 0 00-.184-.196.66.66 0 00-.32-.06h-1.904l2.704 3.976-2.816 4.232h1.768zm9.32.128c.293 0 .561-.025.804-.076.243-.05.47-.124.684-.22a3.58 3.58 0 00.616-.356c.197-.141.4-.305.608-.492l.176.592c.059.17.139.284.24.34.101.056.245.084.432.084h.896v-5.184c0-.464-.068-.89-.204-1.28a2.807 2.807 0 00-.596-1.004 2.721 2.721 0 00-.96-.656 3.33 3.33 0 00-1.288-.236c-1.328 0-2.464.432-3.408 1.296l.352.632c.059.096.136.18.232.252a.57.57 0 00.352.108c.16 0 .305-.037.436-.112l.436-.252c.16-.093.345-.177.556-.252.21-.075.476-.112.796-.112.443 0 .781.132 1.016.396s.352.67.352 1.22v.48c-.624.016-1.179.063-1.664.14-.485.077-.91.177-1.276.3a3.977 3.977 0 00-.924.432 2.83 2.83 0 00-.612.528c-.157.187-.27.383-.34.588-.07.205-.104.412-.104.62 0 .368.059.69.176.968.117.277.283.51.496.696.213.187.467.327.76.42.293.093.613.14.96.14zm.608-1.36c-.33 0-.599-.075-.804-.224-.205-.15-.308-.397-.308-.744 0-.176.05-.339.152-.488.101-.15.27-.28.504-.392.235-.112.547-.204.936-.276.39-.072.87-.121 1.44-.148v1.384a3.124 3.124 0 01-.868.668c-.296.147-.647.22-1.052.22zm7.68 1.232v-6.008c.213-.245.444-.439.692-.58.248-.141.516-.212.804-.212.427 0 .75.125.972.376.221.25.332.65.332 1.2V134h1.984v-5.224c0-.256.037-.483.112-.68a1.37 1.37 0 01.308-.492c.13-.13.283-.23.456-.3.173-.07.361-.104.564-.104.443 0 .779.132 1.008.396.23.264.344.657.344 1.18V134h1.976v-5.224c0-.496-.063-.936-.188-1.32a2.68 2.68 0 00-.548-.976 2.317 2.317 0 00-.888-.608 3.277 3.277 0 00-1.208-.208c-.261 0-.521.03-.78.088-.259.059-.503.15-.732.272-.23.123-.44.281-.632.476a2.505 2.505 0 00-.48.7c-.165-.464-.415-.836-.748-1.116-.333-.28-.759-.42-1.276-.42a2.564 2.564 0 00-1.252.312c-.179.096-.347.21-.504.344-.157.133-.308.28-.452.44l-.128-.608c-.08-.24-.248-.36-.504-.36h-1.208V134h1.976zm13.4 2.68v-3.36c.256.25.547.447.872.588.325.141.717.212 1.176.212.539 0 1.025-.108 1.46-.324a3.27 3.27 0 001.112-.9 4.17 4.17 0 00.708-1.36c.165-.523.248-1.09.248-1.704 0-.672-.073-1.268-.22-1.788-.147-.52-.355-.957-.624-1.312a2.756 2.756 0 00-.96-.812c-.37-.187-.78-.28-1.228-.28-.576 0-1.077.117-1.504.352a4.281 4.281 0 00-1.144.92l-.16-.76c-.08-.24-.248-.36-.504-.36h-1.208v10.888h1.976zm1.592-4.064a2.18 2.18 0 01-.86-.168 1.945 1.945 0 01-.732-.576v-3.68c.256-.315.528-.559.816-.732.288-.173.637-.26 1.048-.26.261 0 .495.048.7.144.205.096.38.248.524.456.144.208.255.479.332.812.077.333.116.74.116 1.22 0 .475-.045.887-.136 1.236-.09.35-.22.639-.388.868-.168.23-.372.4-.612.512-.24.112-.51.168-.808.168zm7.52 1.384v-11.888h-1.976V134h1.976zm5.568.12c.288 0 .585-.021.892-.064.307-.043.608-.116.904-.22.296-.104.58-.243.852-.416s.517-.388.736-.644l-.568-.72c-.08-.123-.203-.184-.368-.184a.765.765 0 00-.38.112c-.13.075-.283.157-.456.248-.173.09-.376.173-.608.248a2.716 2.716 0 01-.828.112c-.32 0-.612-.05-.876-.148a1.817 1.817 0 01-.684-.448 2.233 2.233 0 01-.464-.76 3.889 3.889 0 01-.224-1.092h5.08c.181 0 .304-.052.368-.156.064-.104.096-.305.096-.604 0-.592-.09-1.119-.268-1.58a3.354 3.354 0 00-.74-1.168 3.12 3.12 0 00-1.128-.724 4.018 4.018 0 00-1.432-.248c-.613 0-1.164.107-1.652.32a3.672 3.672 0 00-1.24.868 3.8 3.8 0 00-.78 1.288 4.544 4.544 0 00-.272 1.58c0 .72.104 1.353.312 1.9.208.547.493 1.005.856 1.376.363.37.79.65 1.28.84.49.19 1.021.284 1.592.284zm1.696-5.168h-3.728c.09-.597.3-1.059.628-1.384.328-.325.777-.488 1.348-.488.293 0 .55.05.772.148.221.099.404.233.548.404.144.17.252.37.324.596.072.227.108.468.108.724zM234.96 134v-9.8h3.488v-1.768h-9.128v1.768h3.488v9.8h2.152zm5.664-9.36c.176 0 .341-.033.496-.1a1.32 1.32 0 00.68-.66 1.199 1.199 0 000-.976 1.29 1.29 0 00-.68-.668 1.24 1.24 0 00-.98 0 1.27 1.27 0 00-.764 1.164c0 .17.033.33.1.48a1.282 1.282 0 00.664.66c.152.067.313.1.484.1zm1.008 9.36v-8.208h-1.984V134h1.984zm4.752.128c.4 0 .787-.061 1.16-.184.373-.123.704-.304.992-.544l-.592-.96a.667.667 0 00-.12-.132.226.226 0 00-.144-.044.274.274 0 00-.144.044c-.048.03-.103.06-.164.092a1.695 1.695 0 01-.216.092.93.93 0 01-.308.044.648.648 0 01-.516-.216c-.125-.144-.188-.344-.188-.6v-4.448h2.192v-1.408h-2.192v-2.584h-1.024a.452.452 0 00-.288.088.439.439 0 00-.152.248l-.416 2.24-1.32.216v.784c0 .139.037.243.112.312.075.07.165.104.272.104h.84v4.584c0 .71.19 1.265.572 1.668.381.403.93.604 1.644.604zM251.6 134v-11.888h-1.976V134h1.976zm5.568.12c.288 0 .585-.021.892-.064.307-.043.608-.116.904-.22.296-.104.58-.243.852-.416s.517-.388.736-.644l-.568-.72c-.08-.123-.203-.184-.368-.184a.765.765 0 00-.38.112c-.13.075-.283.157-.456.248-.173.09-.376.173-.608.248a2.716 2.716 0 01-.828.112c-.32 0-.612-.05-.876-.148a1.817 1.817 0 01-.684-.448 2.233 2.233 0 01-.464-.76 3.889 3.889 0 01-.224-1.092h5.08c.181 0 .304-.052.368-.156.064-.104.096-.305.096-.604 0-.592-.09-1.119-.268-1.58a3.354 3.354 0 00-.74-1.168 3.12 3.12 0 00-1.128-.724 4.018 4.018 0 00-1.432-.248c-.613 0-1.164.107-1.652.32a3.672 3.672 0 00-1.24.868 3.8 3.8 0 00-.78 1.288 4.544 4.544 0 00-.272 1.58c0 .72.104 1.353.312 1.9.208.547.493 1.005.856 1.376.363.37.79.65 1.28.84.49.19 1.021.284 1.592.284zm1.696-5.168h-3.728c.09-.597.3-1.059.628-1.384.328-.325.777-.488 1.348-.488.293 0 .55.05.772.148.221.099.404.233.548.404.144.17.252.37.324.596.072.227.108.468.108.724z" fill="#233645" fill-rule="nonzero"/><path d="M167.388 164v-5.328c0-.224-.012-.468-.036-.732l4.53 5.784c.08.1.163.171.249.213a.729.729 0 00.321.063h.828v-8.676h-1.422v5.274c0 .116.004.242.012.378s.018.274.03.414l-4.548-5.808a1.25 1.25 0 00-.12-.135.433.433 0 00-.111-.078.425.425 0 00-.132-.036 1.509 1.509 0 00-.177-.009h-.846V164h1.422zm8.79.096c.22 0 .421-.019.603-.057a2.482 2.482 0 00.975-.432c.148-.106.3-.229.456-.369l.132.444c.044.128.104.213.18.255a.68.68 0 00.324.063h.672v-3.888c0-.348-.051-.668-.153-.96a2.106 2.106 0 00-.447-.753 2.041 2.041 0 00-.72-.492 2.498 2.498 0 00-.966-.177c-.996 0-1.848.324-2.556.972l.264.474a.677.677 0 00.174.189c.072.054.16.081.264.081.12 0 .229-.028.327-.084l.327-.189c.12-.07.259-.133.417-.189a1.81 1.81 0 01.597-.084c.332 0 .586.099.762.297.176.198.264.503.264.915v.36a9.56 9.56 0 00-1.248.105 5.988 5.988 0 00-.957.225c-.274.092-.505.2-.693.324a2.123 2.123 0 00-.459.396 1.36 1.36 0 00-.333.906c0 .276.044.518.132.726.088.208.212.382.372.522s.35.245.57.315c.22.07.46.105.72.105zm.456-1.02c-.248 0-.449-.056-.603-.168-.154-.112-.231-.298-.231-.558 0-.132.038-.254.114-.366a.923.923 0 01.378-.294c.176-.084.41-.153.702-.207a8.173 8.173 0 011.08-.111v1.038a2.343 2.343 0 01-.651.501c-.222.11-.485.165-.789.165zm5.76.924v-4.506a2.01 2.01 0 01.519-.435c.186-.106.387-.159.603-.159.32 0 .563.094.729.282.166.188.249.488.249.9V164h1.488v-3.918c0-.192.028-.362.084-.51.056-.148.133-.271.231-.369.098-.098.212-.173.342-.225.13-.052.271-.078.423-.078.332 0 .584.099.756.297.172.198.258.493.258.885V164h1.482v-3.918c0-.372-.047-.702-.141-.99a2.01 2.01 0 00-.411-.732c-.18-.2-.402-.352-.666-.456a2.458 2.458 0 00-.906-.156c-.196 0-.391.022-.585.066a2.181 2.181 0 00-.549.204c-.172.092-.33.211-.474.357a1.878 1.878 0 00-.36.525 1.897 1.897 0 00-.561-.837c-.25-.21-.569-.315-.957-.315a1.923 1.923 0 00-.939.234c-.134.072-.26.158-.378.258s-.231.21-.339.33l-.096-.456c-.06-.18-.186-.27-.378-.27h-.906V164h1.482zm11.262.09c.216 0 .439-.016.669-.048.23-.032.456-.087.678-.165.222-.078.435-.182.639-.312a2.47 2.47 0 00.552-.483l-.426-.54c-.06-.092-.152-.138-.276-.138a.574.574 0 00-.285.084c-.098.056-.212.118-.342.186-.13.068-.282.13-.456.186a2.037 2.037 0 01-.621.084c-.24 0-.459-.037-.657-.111a1.363 1.363 0 01-.513-.336c-.144-.15-.26-.34-.348-.57a2.916 2.916 0 01-.168-.819h3.81c.136 0 .228-.039.276-.117.048-.078.072-.229.072-.453 0-.444-.067-.839-.201-1.185a2.515 2.515 0 00-.555-.876 2.34 2.34 0 00-.846-.543 3.013 3.013 0 00-1.074-.186c-.46 0-.873.08-1.239.24-.366.16-.676.377-.93.651a2.85 2.85 0 00-.585.966c-.136.37-.204.765-.204 1.185 0 .54.078 1.015.234 1.425.156.41.37.754.642 1.032s.592.488.96.63c.368.142.766.213 1.194.213zm1.272-3.876h-2.796c.068-.448.225-.794.471-1.038.246-.244.583-.366 1.011-.366.22 0 .413.037.579.111.166.074.303.175.411.303.108.128.189.277.243.447.054.17.081.351.081.543zM166.194 197a.52.52 0 00.342-.114.575.575 0 00.186-.252l.648-1.77h3.594l.648 1.77c.044.104.11.191.198.261.088.07.202.105.342.105h1.248l-3.408-8.676h-1.644L164.934 197h1.26zm4.356-3.276h-2.76l1.05-2.874c.052-.132.106-.287.162-.465.056-.178.11-.369.162-.573.056.204.112.394.168.57.056.176.11.328.162.456l1.056 2.886zm5.826 5.442c.472 0 .893-.061 1.263-.183.37-.122.682-.283.936-.483s.448-.428.582-.684c.134-.256.201-.52.201-.792 0-.292-.057-.531-.171-.717a1.26 1.26 0 00-.453-.441 2.167 2.167 0 00-.642-.237 5.906 5.906 0 00-.738-.105 13.64 13.64 0 00-.738-.039 6.376 6.376 0 01-.642-.045 1.403 1.403 0 01-.453-.123.287.287 0 01-.171-.273c0-.144.096-.274.288-.39.108.02.218.036.33.048.112.012.228.018.348.018.34 0 .657-.047.951-.141.294-.094.549-.227.765-.399.216-.172.385-.381.507-.627s.183-.521.183-.825c0-.252-.042-.484-.126-.696l.552-.102c.212-.04.318-.148.318-.324v-.552h-1.77a2.535 2.535 0 00-.636-.237 3.276 3.276 0 00-.744-.081c-.352 0-.677.046-.975.138a2.326 2.326 0 00-.774.399 1.849 1.849 0 00-.51.63 1.831 1.831 0 00-.183.825c0 .376.089.704.267.984.178.28.423.504.735.672a1.718 1.718 0 00-.354.231c-.1.086-.183.177-.249.273a1.221 1.221 0 00-.15.291.867.867 0 00-.051.285c0 .228.048.412.144.552.096.14.226.252.39.336a1.807 1.807 0 00-.717.465 1.043 1.043 0 00-.261.723c0 .212.056.416.168.612.112.196.282.369.51.519.228.15.514.27.858.36.344.09.748.135 1.212.135zm-.06-5.394c-.18 0-.339-.025-.477-.075a.917.917 0 01-.342-.21.881.881 0 01-.204-.321 1.147 1.147 0 01-.069-.402c0-.304.091-.545.273-.723.182-.178.455-.267.819-.267.364 0 .637.089.819.267.182.178.273.419.273.723 0 .148-.023.284-.069.408a.853.853 0 01-.543.525 1.39 1.39 0 01-.48.075zm.09 4.338c-.272 0-.502-.019-.69-.057a1.533 1.533 0 01-.459-.159.676.676 0 01-.258-.243.66.66 0 01.072-.735c.102-.124.235-.232.399-.324.188.024.381.04.579.048.198.008.39.017.576.027.186.01.362.025.528.045.166.02.311.051.435.093a.71.71 0 01.294.177.41.41 0 01.108.294c0 .12-.03.231-.09.333a.749.749 0 01-.285.264c-.13.074-.295.132-.495.174-.2.042-.438.063-.714.063zm6.582-1.02c.216 0 .439-.016.669-.048.23-.032.456-.087.678-.165.222-.078.435-.182.639-.312a2.47 2.47 0 00.552-.483l-.426-.54c-.06-.092-.152-.138-.276-.138a.574.574 0 00-.285.084c-.098.056-.212.118-.342.186-.13.068-.282.13-.456.186a2.037 2.037 0 01-.621.084c-.24 0-.459-.037-.657-.111a1.363 1.363 0 01-.513-.336c-.144-.15-.26-.34-.348-.57a2.916 2.916 0 01-.168-.819h3.81c.136 0 .228-.039.276-.117.048-.078.072-.229.072-.453 0-.444-.067-.839-.201-1.185a2.515 2.515 0 00-.555-.876 2.34 2.34 0 00-.846-.543 3.013 3.013 0 00-1.074-.186c-.46 0-.873.08-1.239.24-.366.16-.676.377-.93.651a2.85 2.85 0 00-.585.966c-.136.37-.204.765-.204 1.185 0 .54.078 1.015.234 1.425.156.41.37.754.642 1.032s.592.488.96.63c.368.142.766.213 1.194.213zm1.272-3.876h-2.796c.068-.448.225-.794.471-1.038.246-.244.583-.366 1.011-.366.22 0 .413.037.579.111.166.074.303.175.411.303.108.128.189.277.243.447.054.17.081.351.081.543zM171.048 230v-1.332h-3.468v-7.344h-1.614V230h5.082zm3.33.09c.456 0 .871-.074 1.245-.222.374-.148.694-.36.96-.636s.471-.61.615-1.002c.144-.392.216-.832.216-1.32 0-.484-.072-.922-.216-1.314a2.767 2.767 0 00-.615-.996 2.728 2.728 0 00-.96-.63 3.356 3.356 0 00-1.245-.222c-.46 0-.878.074-1.254.222a2.722 2.722 0 00-.963.63 2.801 2.801 0 00-.618.996c-.146.392-.219.83-.219 1.314 0 .488.073.928.219 1.32.146.392.352.726.618 1.002s.587.488.963.636c.376.148.794.222 1.254.222zm0-1.14c-.52 0-.905-.173-1.155-.519-.25-.346-.375-.849-.375-1.509 0-.66.125-1.165.375-1.515.25-.35.635-.525 1.155-.525.512 0 .891.174 1.137.522.246.348.369.854.369 1.518s-.123 1.168-.369 1.512c-.246.344-.625.516-1.137.516zm6.612 1.14c.216 0 .433-.016.651-.048a2.886 2.886 0 001.233-.477c.192-.13.37-.291.534-.483l-.426-.54a.3.3 0 00-.27-.138.393.393 0 00-.249.087 6.072 6.072 0 01-.261.192c-.1.07-.223.134-.369.192a1.577 1.577 0 01-.573.087c-.236 0-.448-.045-.636-.135a1.304 1.304 0 01-.48-.396 1.873 1.873 0 01-.303-.645 3.329 3.329 0 01-.105-.876c0-.316.032-.599.096-.849s.161-.463.291-.639c.13-.176.293-.311.489-.405.196-.094.424-.141.684-.141a1.64 1.64 0 01.87.225c.1.058.186.11.258.156a.407.407 0 00.222.069c.08 0 .141-.016.183-.048a.739.739 0 00.129-.132l.39-.54a2.954 2.954 0 00-.933-.636c-.346-.148-.749-.222-1.209-.222-.484 0-.912.08-1.284.24-.372.16-.684.381-.936.663a2.848 2.848 0 00-.573 1.002c-.13.386-.195.805-.195 1.257 0 .504.073.953.219 1.347.146.394.345.727.597.999s.546.479.882.621a2.73 2.73 0 001.074.213zm4.698.006c.22 0 .421-.019.603-.057a2.482 2.482 0 00.975-.432c.148-.106.3-.229.456-.369l.132.444c.044.128.104.213.18.255a.68.68 0 00.324.063h.672v-3.888c0-.348-.051-.668-.153-.96a2.106 2.106 0 00-.447-.753 2.041 2.041 0 00-.72-.492 2.498 2.498 0 00-.966-.177c-.996 0-1.848.324-2.556.972l.264.474a.677.677 0 00.174.189c.072.054.16.081.264.081.12 0 .229-.028.327-.084l.327-.189c.12-.07.259-.133.417-.189a1.81 1.81 0 01.597-.084c.332 0 .586.099.762.297.176.198.264.503.264.915v.36a9.56 9.56 0 00-1.248.105 5.988 5.988 0 00-.957.225c-.274.092-.505.2-.693.324a2.123 2.123 0 00-.459.396 1.36 1.36 0 00-.333.906c0 .276.044.518.132.726.088.208.212.382.372.522s.35.245.57.315c.22.07.46.105.72.105zm.456-1.02c-.248 0-.449-.056-.603-.168-.154-.112-.231-.298-.231-.558 0-.132.038-.254.114-.366a.923.923 0 01.378-.294c.176-.084.41-.153.702-.207a8.173 8.173 0 011.08-.111v1.038a2.343 2.343 0 01-.651.501c-.222.11-.485.165-.789.165zm9.696-6.114a.98.98 0 00.681-.276.978.978 0 00.207-.297.864.864 0 00.078-.363.879.879 0 00-.078-.369 1.017 1.017 0 00-.207-.3.954.954 0 00-.681-.279.873.873 0 00-.36.075.946.946 0 00-.294.204 1 1 0 00-.201.3.908.908 0 00-.075.369c0 .128.025.249.075.363a.962.962 0 00.495.498c.112.05.232.075.36.075zm-3.45 7.134c.3 0 .59-.046.87-.138.28-.092.528-.228.744-.408l-.444-.72a.5.5 0 00-.09-.099.17.17 0 00-.108-.033.206.206 0 00-.108.033 1.271 1.271 0 01-.285.138.697.697 0 01-.231.033.486.486 0 01-.387-.162c-.094-.108-.141-.258-.141-.45v-3.336h2.856V230h1.482v-6.102h-4.338v-1.938h-.768a.34.34 0 00-.216.066.33.33 0 00-.114.186l-.312 1.674-.99.168v.588c0 .104.028.182.084.234a.289.289 0 00.204.078h.63v3.438c0 .532.143.949.429 1.251.286.302.697.453 1.233.453zm8.394-.006c.456 0 .871-.074 1.245-.222.374-.148.694-.36.96-.636s.471-.61.615-1.002c.144-.392.216-.832.216-1.32 0-.484-.072-.922-.216-1.314a2.767 2.767 0 00-.615-.996 2.728 2.728 0 00-.96-.63 3.356 3.356 0 00-1.245-.222c-.46 0-.878.074-1.254.222a2.722 2.722 0 00-.963.63 2.801 2.801 0 00-.618.996c-.146.392-.219.83-.219 1.314 0 .488.073.928.219 1.32.146.392.352.726.618 1.002s.587.488.963.636c.376.148.794.222 1.254.222zm0-1.14c-.52 0-.905-.173-1.155-.519-.25-.346-.375-.849-.375-1.509 0-.66.125-1.165.375-1.515.25-.35.635-.525 1.155-.525.512 0 .891.174 1.137.522.246.348.369.854.369 1.518s-.123 1.168-.369 1.512c-.246.344-.625.516-1.137.516zm5.652 1.05v-4.452c.2-.2.412-.358.636-.474.224-.116.464-.174.72-.174.352 0 .614.103.786.309.172.206.258.497.258.873V230h1.482v-3.918c0-.344-.045-.659-.135-.945a2.11 2.11 0 00-.396-.738 1.766 1.766 0 00-.651-.48 2.207 2.207 0 00-.894-.171 2.455 2.455 0 00-1.509.507 4.009 4.009 0 00-.393.345l-.102-.486c-.06-.18-.186-.27-.378-.27h-.906V230h1.482zM169.272 263c.66 0 1.26-.106 1.8-.318a4 4 0 001.386-.894c.384-.384.682-.842.894-1.374a4.692 4.692 0 00.318-1.752c0-.636-.106-1.22-.318-1.752a3.993 3.993 0 00-.894-1.371 4.058 4.058 0 00-1.386-.894 4.847 4.847 0 00-1.8-.321h-3.306V263h3.306zm0-1.284h-1.686v-6.108h1.686c.424 0 .805.07 1.143.21.338.14.626.341.864.603.238.262.42.582.546.96.126.378.189.805.189 1.281 0 .476-.063.903-.189 1.281a2.655 2.655 0 01-.546.96 2.382 2.382 0 01-.864.603c-.338.14-.719.21-1.143.21zm8.202 1.374c.216 0 .439-.016.669-.048.23-.032.456-.087.678-.165.222-.078.435-.182.639-.312a2.47 2.47 0 00.552-.483l-.426-.54c-.06-.092-.152-.138-.276-.138a.574.574 0 00-.285.084c-.098.056-.212.118-.342.186-.13.068-.282.13-.456.186a2.037 2.037 0 01-.621.084c-.24 0-.459-.037-.657-.111a1.363 1.363 0 01-.513-.336c-.144-.15-.26-.34-.348-.57a2.916 2.916 0 01-.168-.819h3.81c.136 0 .228-.039.276-.117.048-.078.072-.229.072-.453 0-.444-.067-.839-.201-1.185a2.515 2.515 0 00-.555-.876 2.34 2.34 0 00-.846-.543 3.013 3.013 0 00-1.074-.186c-.46 0-.873.08-1.239.24-.366.16-.676.377-.93.651a2.85 2.85 0 00-.585.966c-.136.37-.204.765-.204 1.185 0 .54.078 1.015.234 1.425.156.41.37.754.642 1.032s.592.488.96.63c.368.142.766.213 1.194.213zm1.272-3.876h-2.796c.068-.448.225-.794.471-1.038.246-.244.583-.366 1.011-.366.22 0 .413.037.579.111.166.074.303.175.411.303.108.128.189.277.243.447.054.17.081.351.081.543zm3.924 5.796v-2.52c.192.188.41.335.654.441.244.106.538.159.882.159.404 0 .769-.081 1.095-.243.326-.162.604-.387.834-.675.23-.288.407-.628.531-1.02.124-.392.186-.818.186-1.278 0-.504-.055-.951-.165-1.341a2.921 2.921 0 00-.468-.984 2.067 2.067 0 00-.72-.609 2.018 2.018 0 00-.921-.21c-.432 0-.808.088-1.128.264a3.21 3.21 0 00-.858.69l-.12-.57c-.06-.18-.186-.27-.378-.27h-.906v8.166h1.482zm1.194-3.048c-.232 0-.447-.042-.645-.126a1.458 1.458 0 01-.549-.432v-2.76c.192-.236.396-.419.612-.549.216-.13.478-.195.786-.195.196 0 .371.036.525.108a.984.984 0 01.393.342c.108.156.191.359.249.609.058.25.087.555.087.915 0 .356-.034.665-.102.927a1.9 1.9 0 01-.291.651c-.126.172-.279.3-.459.384-.18.084-.382.126-.606.126zm5.496 1.134c.22 0 .421-.019.603-.057a2.482 2.482 0 00.975-.432c.148-.106.3-.229.456-.369l.132.444c.044.128.104.213.18.255a.68.68 0 00.324.063h.672v-3.888c0-.348-.051-.668-.153-.96a2.106 2.106 0 00-.447-.753 2.041 2.041 0 00-.72-.492 2.498 2.498 0 00-.966-.177c-.996 0-1.848.324-2.556.972l.264.474a.677.677 0 00.174.189c.072.054.16.081.264.081.12 0 .229-.028.327-.084l.327-.189c.12-.07.259-.133.417-.189a1.81 1.81 0 01.597-.084c.332 0 .586.099.762.297.176.198.264.503.264.915v.36a9.56 9.56 0 00-1.248.105 5.988 5.988 0 00-.957.225c-.274.092-.505.2-.693.324a2.123 2.123 0 00-.459.396 1.36 1.36 0 00-.333.906c0 .276.044.518.132.726.088.208.212.382.372.522s.35.245.57.315c.22.07.46.105.72.105zm.456-1.02c-.248 0-.449-.056-.603-.168-.154-.112-.231-.298-.231-.558 0-.132.038-.254.114-.366a.923.923 0 01.378-.294c.176-.084.41-.153.702-.207a8.173 8.173 0 011.08-.111v1.038a2.343 2.343 0 01-.651.501c-.222.11-.485.165-.789.165zm5.76.924v-3.792a3.19 3.19 0 01.219-.438 1.41 1.41 0 01.27-.327c.102-.09.217-.159.345-.207.128-.048.274-.072.438-.072.112 0 .227.01.345.03.118.02.207.03.267.03a.24.24 0 00.153-.045.287.287 0 00.087-.153l.096-1.11c-.172-.124-.4-.186-.684-.186-.36 0-.672.105-.936.315-.264.21-.492.499-.684.867l-.09-.696c-.02-.14-.06-.237-.12-.291-.06-.054-.166-.081-.318-.081h-.87V263h1.482zm5.046.096c.3 0 .59-.046.87-.138.28-.092.528-.228.744-.408l-.444-.72a.5.5 0 00-.09-.099.17.17 0 00-.108-.033.206.206 0 00-.108.033 1.271 1.271 0 01-.285.138.697.697 0 01-.231.033.486.486 0 01-.387-.162c-.094-.108-.141-.258-.141-.45v-3.336h1.644v-1.056h-1.644v-1.938h-.768a.34.34 0 00-.216.066.33.33 0 00-.114.186l-.312 1.68-.99.162v.588c0 .104.028.182.084.234a.289.289 0 00.204.078h.63v3.438c0 .532.143.949.429 1.251.286.302.697.453 1.233.453zm4.428 0c.412 0 .77-.079 1.074-.237.304-.158.582-.365.834-.621l.102.492c.052.18.176.27.372.27h.906v-6.156h-1.482v4.452c-.2.2-.412.357-.636.471a1.565 1.565 0 01-.72.171c-.348 0-.609-.103-.783-.309-.174-.206-.261-.497-.261-.873v-3.912h-1.482v3.912c0 .344.045.659.135.945.09.286.223.533.399.741.176.208.393.369.651.483.258.114.555.171.891.171zm6.234-.096v-3.792a3.19 3.19 0 01.219-.438 1.41 1.41 0 01.27-.327c.102-.09.217-.159.345-.207.128-.048.274-.072.438-.072.112 0 .227.01.345.03.118.02.207.03.267.03a.24.24 0 00.153-.045.287.287 0 00.087-.153l.096-1.11c-.172-.124-.4-.186-.684-.186-.36 0-.672.105-.936.315-.264.21-.492.499-.684.867l-.09-.696c-.02-.14-.06-.237-.12-.291-.06-.054-.166-.081-.318-.081h-.87V263h1.482zm5.514.09c.216 0 .439-.016.669-.048.23-.032.456-.087.678-.165.222-.078.435-.182.639-.312a2.47 2.47 0 00.552-.483l-.426-.54c-.06-.092-.152-.138-.276-.138a.574.574 0 00-.285.084c-.098.056-.212.118-.342.186-.13.068-.282.13-.456.186a2.037 2.037 0 01-.621.084c-.24 0-.459-.037-.657-.111a1.363 1.363 0 01-.513-.336c-.144-.15-.26-.34-.348-.57a2.916 2.916 0 01-.168-.819h3.81c.136 0 .228-.039.276-.117.048-.078.072-.229.072-.453 0-.444-.067-.839-.201-1.185a2.515 2.515 0 00-.555-.876 2.34 2.34 0 00-.846-.543 3.013 3.013 0 00-1.074-.186c-.46 0-.873.08-1.239.24-.366.16-.676.377-.93.651a2.85 2.85 0 00-.585.966c-.136.37-.204.765-.204 1.185 0 .54.078 1.015.234 1.425.156.41.37.754.642 1.032s.592.488.96.63c.368.142.766.213 1.194.213zm1.272-3.876h-2.796c.068-.448.225-.794.471-1.038.246-.244.583-.366 1.011-.366.22 0 .413.037.579.111.166.074.303.175.411.303.108.128.189.277.243.447.054.17.081.351.081.543zM169.254 296l1.914-5.928c.028-.076.054-.158.078-.246s.048-.182.072-.282c.044.208.092.384.144.528l1.896 5.928h1.458l2.694-8.676h-1.266a.576.576 0 00-.351.108.45.45 0 00-.183.258l-1.476 5.19c-.064.256-.122.542-.174.858a7.49 7.49 0 00-.228-.858l-1.698-5.19a.624.624 0 00-.198-.264.543.543 0 00-.342-.102h-.474a.568.568 0 00-.534.366l-1.704 5.19a5.428 5.428 0 00-.123.414 7.71 7.71 0 00-.105.474 102.41 102.41 0 00-.093-.471 9.015 9.015 0 00-.093-.417l-1.476-5.19a.477.477 0 00-.189-.267.596.596 0 00-.351-.099h-1.35L167.79 296h1.464zm9.708.096c.22 0 .421-.019.603-.057a2.482 2.482 0 00.975-.432c.148-.106.3-.229.456-.369l.132.444c.044.128.104.213.18.255a.68.68 0 00.324.063h.672v-3.888c0-.348-.051-.668-.153-.96a2.106 2.106 0 00-.447-.753 2.041 2.041 0 00-.72-.492 2.498 2.498 0 00-.966-.177c-.996 0-1.848.324-2.556.972l.264.474a.677.677 0 00.174.189c.072.054.16.081.264.081.12 0 .229-.028.327-.084l.327-.189c.12-.07.259-.133.417-.189a1.81 1.81 0 01.597-.084c.332 0 .586.099.762.297.176.198.264.503.264.915v.36a9.56 9.56 0 00-1.248.105 5.988 5.988 0 00-.957.225c-.274.092-.505.2-.693.324a2.123 2.123 0 00-.459.396 1.36 1.36 0 00-.333.906c0 .276.044.518.132.726.088.208.212.382.372.522s.35.245.57.315c.22.07.46.105.72.105zm.456-1.02c-.248 0-.449-.056-.603-.168-.154-.112-.231-.298-.231-.558 0-.132.038-.254.114-.366a.923.923 0 01.378-.294c.176-.084.41-.153.702-.207a8.173 8.173 0 011.08-.111v1.038a2.343 2.343 0 01-.651.501c-.222.11-.485.165-.789.165zm6.246 1.02c.3 0 .59-.046.87-.138.28-.092.528-.228.744-.408l-.444-.72a.5.5 0 00-.09-.099.17.17 0 00-.108-.033.206.206 0 00-.108.033 1.271 1.271 0 01-.285.138.697.697 0 01-.231.033.486.486 0 01-.387-.162c-.094-.108-.141-.258-.141-.45v-3.336h1.644v-1.056h-1.644v-1.938h-.768a.34.34 0 00-.216.066.33.33 0 00-.114.186l-.312 1.68-.99.162v.588c0 .104.028.182.084.234a.289.289 0 00.204.078h.63v3.438c0 .532.143.949.429 1.251.286.302.697.453 1.233.453zm5.058-.006c.216 0 .439-.016.669-.048.23-.032.456-.087.678-.165.222-.078.435-.182.639-.312a2.47 2.47 0 00.552-.483l-.426-.54c-.06-.092-.152-.138-.276-.138a.574.574 0 00-.285.084c-.098.056-.212.118-.342.186-.13.068-.282.13-.456.186a2.037 2.037 0 01-.621.084c-.24 0-.459-.037-.657-.111a1.363 1.363 0 01-.513-.336c-.144-.15-.26-.34-.348-.57a2.916 2.916 0 01-.168-.819h3.81c.136 0 .228-.039.276-.117.048-.078.072-.229.072-.453 0-.444-.067-.839-.201-1.185a2.515 2.515 0 00-.555-.876 2.34 2.34 0 00-.846-.543 3.013 3.013 0 00-1.074-.186c-.46 0-.873.08-1.239.24-.366.16-.676.377-.93.651a2.85 2.85 0 00-.585.966c-.136.37-.204.765-.204 1.185 0 .54.078 1.015.234 1.425.156.41.37.754.642 1.032s.592.488.96.63c.368.142.766.213 1.194.213zm1.272-3.876h-2.796c.068-.448.225-.794.471-1.038.246-.244.583-.366 1.011-.366.22 0 .413.037.579.111.166.074.303.175.411.303.108.128.189.277.243.447.054.17.081.351.081.543zm3.924 3.786v-3.792a3.19 3.19 0 01.219-.438 1.41 1.41 0 01.27-.327c.102-.09.217-.159.345-.207.128-.048.274-.072.438-.072.112 0 .227.01.345.03.118.02.207.03.267.03a.24.24 0 00.153-.045.287.287 0 00.087-.153l.096-1.11c-.172-.124-.4-.186-.684-.186-.36 0-.672.105-.936.315-.264.21-.492.499-.684.867l-.09-.696c-.02-.14-.06-.237-.12-.291-.06-.054-.166-.081-.318-.081h-.87V296h1.482zm8.97 0v-7.35h2.616v-1.326h-6.846v1.326h2.616V296h1.614zm4.77.09c.216 0 .439-.016.669-.048.23-.032.456-.087.678-.165.222-.078.435-.182.639-.312a2.47 2.47 0 00.552-.483l-.426-.54c-.06-.092-.152-.138-.276-.138a.574.574 0 00-.285.084c-.098.056-.212.118-.342.186-.13.068-.282.13-.456.186a2.037 2.037 0 01-.621.084c-.24 0-.459-.037-.657-.111a1.363 1.363 0 01-.513-.336c-.144-.15-.26-.34-.348-.57a2.916 2.916 0 01-.168-.819h3.81c.136 0 .228-.039.276-.117.048-.078.072-.229.072-.453 0-.444-.067-.839-.201-1.185a2.515 2.515 0 00-.555-.876 2.34 2.34 0 00-.846-.543 3.013 3.013 0 00-1.074-.186c-.46 0-.873.08-1.239.24-.366.16-.676.377-.93.651a2.85 2.85 0 00-.585.966c-.136.37-.204.765-.204 1.185 0 .54.078 1.015.234 1.425.156.41.37.754.642 1.032s.592.488.96.63c.368.142.766.213 1.194.213zm1.272-3.876h-2.796c.068-.448.225-.794.471-1.038.246-.244.583-.366 1.011-.366.22 0 .413.037.579.111.166.074.303.175.411.303.108.128.189.277.243.447.054.17.081.351.081.543zm3.924 3.786v-4.506a2.01 2.01 0 01.519-.435c.186-.106.387-.159.603-.159.32 0 .563.094.729.282.166.188.249.488.249.9V296h1.488v-3.918c0-.192.028-.362.084-.51.056-.148.133-.271.231-.369.098-.098.212-.173.342-.225.13-.052.271-.078.423-.078.332 0 .584.099.756.297.172.198.258.493.258.885V296h1.482v-3.918c0-.372-.047-.702-.141-.99a2.01 2.01 0 00-.411-.732c-.18-.2-.402-.352-.666-.456a2.458 2.458 0 00-.906-.156c-.196 0-.391.022-.585.066a2.181 2.181 0 00-.549.204c-.172.092-.33.211-.474.357a1.878 1.878 0 00-.36.525 1.897 1.897 0 00-.561-.837c-.25-.21-.569-.315-.957-.315a1.923 1.923 0 00-.939.234c-.134.072-.26.158-.378.258s-.231.21-.339.33l-.096-.456c-.06-.18-.186-.27-.378-.27h-.906V296h1.482zm10.05 2.01v-2.52c.192.188.41.335.654.441.244.106.538.159.882.159.404 0 .769-.081 1.095-.243.326-.162.604-.387.834-.675.23-.288.407-.628.531-1.02.124-.392.186-.818.186-1.278 0-.504-.055-.951-.165-1.341a2.921 2.921 0 00-.468-.984 2.067 2.067 0 00-.72-.609 2.018 2.018 0 00-.921-.21c-.432 0-.808.088-1.128.264a3.21 3.21 0 00-.858.69l-.12-.57c-.06-.18-.186-.27-.378-.27h-.906v8.166h1.482zm1.194-3.048c-.232 0-.447-.042-.645-.126a1.458 1.458 0 01-.549-.432v-2.76c.192-.236.396-.419.612-.549.216-.13.478-.195.786-.195.196 0 .371.036.525.108a.984.984 0 01.393.342c.108.156.191.359.249.609.058.25.087.555.087.915 0 .356-.034.665-.102.927a1.9 1.9 0 01-.291.651c-.126.172-.279.3-.459.384-.18.084-.382.126-.606.126zm6.834 1.128c.216 0 .439-.016.669-.048.23-.032.456-.087.678-.165.222-.078.435-.182.639-.312a2.47 2.47 0 00.552-.483l-.426-.54c-.06-.092-.152-.138-.276-.138a.574.574 0 00-.285.084c-.098.056-.212.118-.342.186-.13.068-.282.13-.456.186a2.037 2.037 0 01-.621.084c-.24 0-.459-.037-.657-.111a1.363 1.363 0 01-.513-.336c-.144-.15-.26-.34-.348-.57a2.916 2.916 0 01-.168-.819h3.81c.136 0 .228-.039.276-.117.048-.078.072-.229.072-.453 0-.444-.067-.839-.201-1.185a2.515 2.515 0 00-.555-.876 2.34 2.34 0 00-.846-.543 3.013 3.013 0 00-1.074-.186c-.46 0-.873.08-1.239.24-.366.16-.676.377-.93.651a2.85 2.85 0 00-.585.966c-.136.37-.204.765-.204 1.185 0 .54.078 1.015.234 1.425.156.41.37.754.642 1.032s.592.488.96.63c.368.142.766.213 1.194.213zm1.272-3.876h-2.796c.068-.448.225-.794.471-1.038.246-.244.583-.366 1.011-.366.22 0 .413.037.579.111.166.074.303.175.411.303.108.128.189.277.243.447.054.17.081.351.081.543zm3.924 3.786v-3.792a3.19 3.19 0 01.219-.438 1.41 1.41 0 01.27-.327c.102-.09.217-.159.345-.207.128-.048.274-.072.438-.072.112 0 .227.01.345.03.118.02.207.03.267.03a.24.24 0 00.153-.045.287.287 0 00.087-.153l.096-1.11c-.172-.124-.4-.186-.684-.186-.36 0-.672.105-.936.315-.264.21-.492.499-.684.867l-.09-.696c-.02-.14-.06-.237-.12-.291-.06-.054-.166-.081-.318-.081h-.87V296h1.482zm4.272.096c.22 0 .421-.019.603-.057a2.482 2.482 0 00.975-.432c.148-.106.3-.229.456-.369l.132.444c.044.128.104.213.18.255a.68.68 0 00.324.063h.672v-3.888c0-.348-.051-.668-.153-.96a2.106 2.106 0 00-.447-.753 2.041 2.041 0 00-.72-.492 2.498 2.498 0 00-.966-.177c-.996 0-1.848.324-2.556.972l.264.474a.677.677 0 00.174.189c.072.054.16.081.264.081.12 0 .229-.028.327-.084l.327-.189c.12-.07.259-.133.417-.189a1.81 1.81 0 01.597-.084c.332 0 .586.099.762.297.176.198.264.503.264.915v.36a9.56 9.56 0 00-1.248.105 5.988 5.988 0 00-.957.225c-.274.092-.505.2-.693.324a2.123 2.123 0 00-.459.396 1.36 1.36 0 00-.333.906c0 .276.044.518.132.726.088.208.212.382.372.522s.35.245.57.315c.22.07.46.105.72.105zm.456-1.02c-.248 0-.449-.056-.603-.168-.154-.112-.231-.298-.231-.558 0-.132.038-.254.114-.366a.923.923 0 01.378-.294c.176-.084.41-.153.702-.207a8.173 8.173 0 011.08-.111v1.038a2.343 2.343 0 01-.651.501c-.222.11-.485.165-.789.165zm6.246 1.02c.3 0 .59-.046.87-.138.28-.092.528-.228.744-.408l-.444-.72a.5.5 0 00-.09-.099.17.17 0 00-.108-.033.206.206 0 00-.108.033 1.271 1.271 0 01-.285.138.697.697 0 01-.231.033.486.486 0 01-.387-.162c-.094-.108-.141-.258-.141-.45v-3.336h1.644v-1.056h-1.644v-1.938h-.768a.34.34 0 00-.216.066.33.33 0 00-.114.186l-.312 1.68-.99.162v.588c0 .104.028.182.084.234a.289.289 0 00.204.078h.63v3.438c0 .532.143.949.429 1.251.286.302.697.453 1.233.453zm4.428 0c.412 0 .77-.079 1.074-.237.304-.158.582-.365.834-.621l.102.492c.052.18.176.27.372.27h.906v-6.156h-1.482v4.452c-.2.2-.412.357-.636.471a1.565 1.565 0 01-.72.171c-.348 0-.609-.103-.783-.309-.174-.206-.261-.497-.261-.873v-3.912h-1.482v3.912c0 .344.045.659.135.945.09.286.223.533.399.741.176.208.393.369.651.483.258.114.555.171.891.171zm6.234-.096v-3.792a3.19 3.19 0 01.219-.438 1.41 1.41 0 01.27-.327c.102-.09.217-.159.345-.207.128-.048.274-.072.438-.072.112 0 .227.01.345.03.118.02.207.03.267.03a.24.24 0 00.153-.045.287.287 0 00.087-.153l.096-1.11c-.172-.124-.4-.186-.684-.186-.36 0-.672.105-.936.315-.264.21-.492.499-.684.867l-.09-.696c-.02-.14-.06-.237-.12-.291-.06-.054-.166-.081-.318-.081h-.87V296h1.482zm5.514.09c.216 0 .439-.016.669-.048.23-.032.456-.087.678-.165.222-.078.435-.182.639-.312a2.47 2.47 0 00.552-.483l-.426-.54c-.06-.092-.152-.138-.276-.138a.574.574 0 00-.285.084c-.098.056-.212.118-.342.186-.13.068-.282.13-.456.186a2.037 2.037 0 01-.621.084c-.24 0-.459-.037-.657-.111a1.363 1.363 0 01-.513-.336c-.144-.15-.26-.34-.348-.57a2.916 2.916 0 01-.168-.819h3.81c.136 0 .228-.039.276-.117.048-.078.072-.229.072-.453 0-.444-.067-.839-.201-1.185a2.515 2.515 0 00-.555-.876 2.34 2.34 0 00-.846-.543 3.013 3.013 0 00-1.074-.186c-.46 0-.873.08-1.239.24-.366.16-.676.377-.93.651a2.85 2.85 0 00-.585.966c-.136.37-.204.765-.204 1.185 0 .54.078 1.015.234 1.425.156.41.37.754.642 1.032s.592.488.96.63c.368.142.766.213 1.194.213zm1.272-3.876h-2.796c.068-.448.225-.794.471-1.038.246-.244.583-.366 1.011-.366.22 0 .413.037.579.111.166.074.303.175.411.303.108.128.189.277.243.447.054.17.081.351.081.543zM169.254 329l1.914-5.928c.028-.076.054-.158.078-.246s.048-.182.072-.282c.044.208.092.384.144.528l1.896 5.928h1.458l2.694-8.676h-1.266a.576.576 0 00-.351.108.45.45 0 00-.183.258l-1.476 5.19c-.064.256-.122.542-.174.858a7.49 7.49 0 00-.228-.858l-1.698-5.19a.624.624 0 00-.198-.264.543.543 0 00-.342-.102h-.474a.568.568 0 00-.534.366l-1.704 5.19a5.428 5.428 0 00-.123.414 7.71 7.71 0 00-.105.474 102.41 102.41 0 00-.093-.471 9.015 9.015 0 00-.093-.417l-1.476-5.19a.477.477 0 00-.189-.267.596.596 0 00-.351-.099h-1.35L167.79 329h1.464zm9.81-7.02a.93.93 0 00.372-.075.99.99 0 00.51-.495.899.899 0 000-.732.968.968 0 00-.882-.576.894.894 0 00-.363.075.952.952 0 00-.573.873c0 .128.025.248.075.36a.972.972 0 00.498.495c.114.05.235.075.363.075zm.756 7.02v-6.156h-1.488V329h1.488zm2.994 0v-4.452c.2-.2.412-.358.636-.474.224-.116.464-.174.72-.174.352 0 .614.103.786.309.172.206.258.497.258.873V329h1.482v-3.918c0-.344-.045-.659-.135-.945a2.11 2.11 0 00-.396-.738 1.766 1.766 0 00-.651-.48 2.207 2.207 0 00-.894-.171 2.455 2.455 0 00-1.509.507 4.009 4.009 0 00-.393.345l-.102-.486c-.06-.18-.186-.27-.378-.27h-.906V329h1.482zm7.248.09c.428 0 .803-.088 1.125-.264.322-.176.607-.406.855-.69l.126.594c.052.18.176.27.372.27h.906v-8.916h-1.482v3.246a2.26 2.26 0 00-.654-.438 2.17 2.17 0 00-.882-.162c-.404 0-.768.081-1.092.243a2.492 2.492 0 00-.834.675c-.232.288-.41.628-.534 1.02a4.196 4.196 0 00-.186 1.272c0 .504.055.952.165 1.344.11.392.266.721.468.987s.443.469.723.609c.28.14.588.21.924.21zm.504-1.176c-.192 0-.366-.035-.522-.105a.949.949 0 01-.396-.342 1.802 1.802 0 01-.249-.612 4.115 4.115 0 01-.087-.915c0-.356.034-.665.102-.927.068-.262.166-.478.294-.648a1.22 1.22 0 01.462-.381c.18-.084.382-.126.606-.126.228 0 .441.042.639.126.198.084.381.228.549.432v2.76a2.334 2.334 0 01-.612.546 1.516 1.516 0 01-.786.192zm9.66 1.182c.48 0 .906-.073 1.278-.219a2.77 2.77 0 00.945-.6 2.54 2.54 0 00.588-.894c.134-.342.201-.709.201-1.101 0-.36-.057-.666-.171-.918a1.958 1.958 0 00-.453-.639 2.547 2.547 0 00-.642-.432 6.951 6.951 0 00-.738-.3 35.02 35.02 0 00-.738-.243 4.204 4.204 0 01-.642-.258 1.428 1.428 0 01-.453-.348.767.767 0 01-.171-.51c0-.16.028-.307.084-.441a.9.9 0 01.255-.345c.114-.096.255-.171.423-.225.168-.054.364-.081.588-.081.248 0 .463.031.645.093s.341.131.477.207a7.6 7.6 0 01.351.207.518.518 0 00.273.093.34.34 0 00.201-.057.557.557 0 00.153-.183l.402-.762a3.197 3.197 0 00-1.104-.672 4.047 4.047 0 00-1.416-.24c-.456 0-.86.07-1.212.21a2.69 2.69 0 00-.888.558 2.386 2.386 0 00-.738 1.722c0 .396.057.729.171.999.114.27.265.495.453.675.188.18.402.326.642.438.24.112.484.208.732.288.248.08.492.154.732.222s.454.151.642.249.339.219.453.363c.114.144.171.33.171.558 0 .408-.126.721-.378.939-.252.218-.608.327-1.068.327-.3 0-.557-.041-.771-.123a3.259 3.259 0 01-.561-.273c-.16-.1-.298-.191-.414-.273a.572.572 0 00-.324-.123.393.393 0 00-.204.057.506.506 0 00-.156.141l-.474.774c.168.172.36.328.576.468a4.295 4.295 0 002.28.672zm5.55 1.914v-2.52c.192.188.41.335.654.441.244.106.538.159.882.159.404 0 .769-.081 1.095-.243.326-.162.604-.387.834-.675.23-.288.407-.628.531-1.02.124-.392.186-.818.186-1.278 0-.504-.055-.951-.165-1.341a2.921 2.921 0 00-.468-.984 2.067 2.067 0 00-.72-.609 2.018 2.018 0 00-.921-.21c-.432 0-.808.088-1.128.264a3.21 3.21 0 00-.858.69l-.12-.57c-.06-.18-.186-.27-.378-.27h-.906v8.166h1.482zm1.194-3.048c-.232 0-.447-.042-.645-.126a1.458 1.458 0 01-.549-.432v-2.76c.192-.236.396-.419.612-.549.216-.13.478-.195.786-.195.196 0 .371.036.525.108a.984.984 0 01.393.342c.108.156.191.359.249.609.058.25.087.555.087.915 0 .356-.034.665-.102.927a1.9 1.9 0 01-.291.651c-.126.172-.279.3-.459.384-.18.084-.382.126-.606.126zm6.834 1.128c.216 0 .439-.016.669-.048.23-.032.456-.087.678-.165.222-.078.435-.182.639-.312a2.47 2.47 0 00.552-.483l-.426-.54c-.06-.092-.152-.138-.276-.138a.574.574 0 00-.285.084c-.098.056-.212.118-.342.186-.13.068-.282.13-.456.186a2.037 2.037 0 01-.621.084c-.24 0-.459-.037-.657-.111a1.363 1.363 0 01-.513-.336c-.144-.15-.26-.34-.348-.57a2.916 2.916 0 01-.168-.819h3.81c.136 0 .228-.039.276-.117.048-.078.072-.229.072-.453 0-.444-.067-.839-.201-1.185a2.515 2.515 0 00-.555-.876 2.34 2.34 0 00-.846-.543 3.013 3.013 0 00-1.074-.186c-.46 0-.873.08-1.239.24-.366.16-.676.377-.93.651a2.85 2.85 0 00-.585.966c-.136.37-.204.765-.204 1.185 0 .54.078 1.015.234 1.425.156.41.37.754.642 1.032s.592.488.96.63c.368.142.766.213 1.194.213zm1.272-3.876h-2.796c.068-.448.225-.794.471-1.038.246-.244.583-.366 1.011-.366.22 0 .413.037.579.111.166.074.303.175.411.303.108.128.189.277.243.447.054.17.081.351.081.543zm5.136 3.876c.216 0 .439-.016.669-.048.23-.032.456-.087.678-.165.222-.078.435-.182.639-.312a2.47 2.47 0 00.552-.483l-.426-.54c-.06-.092-.152-.138-.276-.138a.574.574 0 00-.285.084c-.098.056-.212.118-.342.186-.13.068-.282.13-.456.186a2.037 2.037 0 01-.621.084c-.24 0-.459-.037-.657-.111a1.363 1.363 0 01-.513-.336c-.144-.15-.26-.34-.348-.57a2.916 2.916 0 01-.168-.819h3.81c.136 0 .228-.039.276-.117.048-.078.072-.229.072-.453 0-.444-.067-.839-.201-1.185a2.515 2.515 0 00-.555-.876 2.34 2.34 0 00-.846-.543 3.013 3.013 0 00-1.074-.186c-.46 0-.873.08-1.239.24-.366.16-.676.377-.93.651a2.85 2.85 0 00-.585.966c-.136.37-.204.765-.204 1.185 0 .54.078 1.015.234 1.425.156.41.37.754.642 1.032s.592.488.96.63c.368.142.766.213 1.194.213zm1.272-3.876h-2.796c.068-.448.225-.794.471-1.038.246-.244.583-.366 1.011-.366.22 0 .413.037.579.111.166.074.303.175.411.303.108.128.189.277.243.447.054.17.081.351.081.543zm4.404 3.876c.428 0 .803-.088 1.125-.264.322-.176.607-.406.855-.69l.126.594c.052.18.176.27.372.27h.906v-8.916h-1.482v3.246a2.26 2.26 0 00-.654-.438 2.17 2.17 0 00-.882-.162c-.404 0-.768.081-1.092.243a2.492 2.492 0 00-.834.675c-.232.288-.41.628-.534 1.02a4.196 4.196 0 00-.186 1.272c0 .504.055.952.165 1.344.11.392.266.721.468.987s.443.469.723.609c.28.14.588.21.924.21zm.504-1.176c-.192 0-.366-.035-.522-.105a.949.949 0 01-.396-.342 1.802 1.802 0 01-.249-.612 4.115 4.115 0 01-.087-.915c0-.356.034-.665.102-.927.068-.262.166-.478.294-.648a1.22 1.22 0 01.462-.381c.18-.084.382-.126.606-.126.228 0 .441.042.639.126.198.084.381.228.549.432v2.76a2.334 2.334 0 01-.612.546 1.516 1.516 0 01-.786.192z" fill="#435665" fill-rule="nonzero"/><path d="M482.195 164v-4.424h4.753V164h1.89v-10.122h-1.89v4.354h-4.753v-4.354h-1.89V164h1.89zm11.585.105c.532 0 1.016-.086 1.453-.259.436-.173.81-.42 1.12-.742.31-.322.549-.712.717-1.169.168-.457.252-.97.252-1.54a4.42 4.42 0 00-.252-1.533 3.228 3.228 0 00-.717-1.162 3.182 3.182 0 00-1.12-.735 3.916 3.916 0 00-1.453-.259c-.537 0-1.024.086-1.463.259a3.176 3.176 0 00-1.124.735c-.31.317-.55.705-.72 1.162-.17.457-.256.968-.256 1.533 0 .57.085 1.083.256 1.54.17.457.41.847.72 1.169.31.322.685.57 1.124.742.439.173.926.259 1.463.259zm0-1.33c-.607 0-1.056-.202-1.347-.606-.292-.403-.438-.99-.438-1.76s.146-1.36.438-1.768c.291-.408.74-.612 1.347-.612.597 0 1.04.203 1.327.609.286.406.43.996.43 1.771 0 .775-.143 1.363-.43 1.764-.288.401-.73.602-1.327.602zm6.594 1.225v-4.424c.08-.191.164-.362.255-.511.091-.15.196-.277.315-.382.12-.105.254-.185.403-.241.15-.056.32-.084.511-.084.13 0 .265.012.402.035.138.023.242.035.312.035a.28.28 0 00.178-.053.334.334 0 00.102-.178l.112-1.295c-.2-.145-.467-.217-.798-.217-.42 0-.784.122-1.092.367-.308.246-.574.583-.798 1.012l-.105-.812c-.023-.163-.07-.277-.14-.34-.07-.062-.194-.094-.371-.094h-1.015V164h1.729zm4.984.112c.257 0 .491-.022.704-.067a2.896 2.896 0 001.137-.504 6.25 6.25 0 00.532-.43l.154.518c.051.15.121.248.21.297a.793.793 0 00.378.074h.784v-4.536c0-.406-.06-.78-.178-1.12a2.457 2.457 0 00-.522-.879 2.381 2.381 0 00-.84-.574 2.914 2.914 0 00-1.127-.206c-1.162 0-2.156.378-2.982 1.134l.308.553a.79.79 0 00.203.22.499.499 0 00.308.095c.14 0 .267-.033.381-.098.115-.065.242-.139.382-.22.14-.082.302-.156.486-.221a2.11 2.11 0 01.697-.098c.387 0 .684.115.889.346.205.231.308.587.308 1.068v.42c-.546.014-1.031.055-1.456.122a6.986 6.986 0 00-1.116.263 3.48 3.48 0 00-.809.378c-.22.145-.398.299-.536.462a1.586 1.586 0 00-.297.514c-.06.18-.091.361-.091.543 0 .322.051.604.154.847.103.243.247.446.434.609.187.163.408.286.665.367.257.082.537.123.84.123zm.532-1.19c-.29 0-.524-.065-.703-.196-.18-.13-.27-.348-.27-.651 0-.154.044-.296.133-.427.089-.13.236-.245.441-.343.205-.098.478-.178.819-.242.34-.062.76-.106 1.26-.129v1.211c-.247.261-.5.456-.76.584a2.052 2.052 0 01-.92.193zm11.312-7.133a1.143 1.143 0 00.794-.322c.1-.098.181-.213.242-.346.06-.134.091-.275.091-.424 0-.154-.03-.297-.091-.43a1.187 1.187 0 00-.242-.35 1.113 1.113 0 00-.794-.326c-.15 0-.29.03-.42.087-.13.059-.245.138-.343.239-.098.1-.176.217-.235.35a1.06 1.06 0 00-.087.43c0 .15.03.29.087.423a1.122 1.122 0 00.578.581c.13.059.27.088.42.088zm-4.025 8.323c.35 0 .688-.054 1.015-.161.327-.107.616-.266.868-.476l-.518-.84a.584.584 0 00-.105-.115.198.198 0 00-.126-.039.24.24 0 00-.126.038c-.042.026-.09.053-.144.081a1.483 1.483 0 01-.189.08.814.814 0 01-.269.039.567.567 0 01-.452-.189c-.11-.126-.164-.301-.164-.525v-3.892h3.332V164h1.729v-7.119h-5.061v-2.261h-.896a.396.396 0 00-.252.077.384.384 0 00-.133.217l-.364 1.953-1.155.196v.686c0 .121.033.212.098.273.065.06.145.091.238.091h.735v4.011c0 .62.167 1.107.5 1.46.334.352.814.528 1.439.528zm9.793-.007c.532 0 1.016-.086 1.452-.259.437-.173.81-.42 1.12-.742.31-.322.55-.712.718-1.169.168-.457.252-.97.252-1.54a4.42 4.42 0 00-.252-1.533 3.228 3.228 0 00-.717-1.162 3.182 3.182 0 00-1.12-.735 3.916 3.916 0 00-1.453-.259c-.537 0-1.024.086-1.463.259a3.176 3.176 0 00-1.123.735c-.31.317-.551.705-.721 1.162-.17.457-.256.968-.256 1.533 0 .57.085 1.083.256 1.54.17.457.41.847.72 1.169.31.322.685.57 1.124.742.439.173.926.259 1.463.259zm0-1.33c-.607 0-1.056-.202-1.348-.606-.291-.403-.437-.99-.437-1.76s.146-1.36.438-1.768c.291-.408.74-.612 1.347-.612.597 0 1.04.203 1.326.609.287.406.431.996.431 1.771 0 .775-.144 1.363-.43 1.764-.288.401-.73.602-1.327.602zM533.169 164v-6.216a9.48 9.48 0 00-.042-.854l5.285 6.748c.093.117.19.2.29.248a.85.85 0 00.375.074h.966v-10.122h-1.659v6.153c0 .135.005.282.014.441.01.159.021.32.035.483l-5.306-6.776a1.459 1.459 0 00-.14-.158.505.505 0 00-.13-.09.496.496 0 00-.154-.043 1.76 1.76 0 00-.206-.01h-.987V164h1.659zm11.781.105c.252 0 .512-.019.78-.056.269-.037.533-.102.792-.193.259-.09.507-.212.745-.364.238-.151.453-.339.644-.563l-.497-.63c-.07-.107-.177-.161-.322-.161a.67.67 0 00-.332.098c-.115.065-.248.138-.4.217-.151.08-.329.152-.531.217a2.376 2.376 0 01-.725.098c-.28 0-.536-.043-.767-.13a1.59 1.59 0 01-.598-.391 1.954 1.954 0 01-.406-.665 3.403 3.403 0 01-.196-.956h4.445c.159 0 .266-.045.322-.136.056-.091.084-.268.084-.529 0-.518-.078-.979-.235-1.383a2.934 2.934 0 00-.647-1.021 2.73 2.73 0 00-.987-.634 3.516 3.516 0 00-1.253-.217c-.537 0-1.018.093-1.445.28-.428.187-.79.44-1.086.76-.296.32-.523.695-.682 1.127a3.976 3.976 0 00-.238 1.382c0 .63.091 1.184.273 1.663.182.478.432.88.749 1.204.317.324.69.569 1.12.735.43.165.894.248 1.393.248zm1.484-4.522h-3.262c.08-.523.262-.926.55-1.211.287-.285.68-.427 1.179-.427.257 0 .482.043.676.13.193.086.353.204.479.353.126.15.22.323.284.521.063.199.094.41.094.634zm4.599 4.417v-10.402h-1.729V164h1.729zm3.71.112c.467 0 .879-.06 1.236-.179s.656-.284.899-.497c.243-.212.426-.464.55-.756.123-.291.185-.61.185-.955 0-.29-.05-.537-.15-.742a1.69 1.69 0 00-.4-.529 2.245 2.245 0 00-.563-.364 7.177 7.177 0 00-.64-.255c-.217-.075-.431-.144-.641-.207a3.905 3.905 0 01-.563-.213 1.353 1.353 0 01-.4-.277.54.54 0 01-.15-.388c0-.233.097-.422.29-.567.194-.145.461-.217.802-.217.22 0 .41.023.57.07.162.047.305.1.431.157.126.059.237.111.333.158.095.047.185.07.269.07a.38.38 0 00.196-.046c.051-.03.1-.082.147-.157l.392-.623a3.051 3.051 0 00-1.015-.644 3.59 3.59 0 00-1.351-.245c-.443 0-.834.06-1.172.178-.339.12-.621.278-.847.476a1.97 1.97 0 00-.515.697 2.069 2.069 0 00-.175.84c0 .317.05.588.15.812.1.224.234.413.4.567.165.154.354.281.567.381.212.1.429.188.65.263.222.075.44.143.652.206.212.063.4.135.567.214.165.08.298.173.399.28.1.107.15.245.15.413 0 .112-.022.22-.066.325a.723.723 0 01-.21.277c-.096.08-.217.143-.364.192a1.68 1.68 0 01-.529.074c-.261 0-.477-.03-.647-.091a2.972 2.972 0 01-.445-.196 6.721 6.721 0 01-.332-.196.56.56 0 00-.305-.091.51.51 0 00-.266.063.564.564 0 00-.182.182l-.399.658c.14.126.302.243.487.35.184.107.385.2.602.28.217.08.443.141.679.185.235.045.477.067.724.067zm7.35-.007c.532 0 1.016-.086 1.453-.259.436-.173.81-.42 1.12-.742.31-.322.549-.712.717-1.169.168-.457.252-.97.252-1.54a4.42 4.42 0 00-.252-1.533 3.228 3.228 0 00-.717-1.162 3.182 3.182 0 00-1.12-.735 3.916 3.916 0 00-1.453-.259c-.537 0-1.024.086-1.463.259a3.176 3.176 0 00-1.123.735c-.31.317-.551.705-.721 1.162-.17.457-.256.968-.256 1.533 0 .57.085 1.083.256 1.54.17.457.41.847.72 1.169.31.322.685.57 1.124.742.439.173.926.259 1.463.259zm0-1.33c-.607 0-1.056-.202-1.347-.606-.292-.403-.438-.99-.438-1.76s.146-1.36.438-1.768c.291-.408.74-.612 1.347-.612.597 0 1.04.203 1.327.609.287.406.43.996.43 1.771 0 .775-.143 1.363-.43 1.764-.287.401-.73.602-1.327.602zm6.594 1.225v-5.194a3.01 3.01 0 01.742-.553 1.8 1.8 0 01.84-.203c.41 0 .716.12.917.36.2.24.301.58.301 1.019V164h1.729v-4.571c0-.401-.052-.769-.157-1.103a2.462 2.462 0 00-.462-.86 2.06 2.06 0 00-.76-.56 2.575 2.575 0 00-1.043-.2c-.243 0-.467.024-.672.073a2.864 2.864 0 00-1.088.518 4.677 4.677 0 00-.459.403l-.119-.567c-.07-.21-.217-.315-.441-.315h-1.057V164h1.729zM563.249 197v-2.471h.924c.112 0 .198-.034.259-.102a.35.35 0 00.091-.241v-1.001h-1.274v-6.314h-1.638l-4.795 6.405.182.875c.023.107.08.197.168.27a.473.473 0 00.308.108h4.27V197h1.505zm-1.505-3.815h-3.08l3.143-4.347a9.445 9.445 0 00-.063 1.036v3.311zm9.625 3.815v-2.471h.924c.112 0 .198-.034.259-.102a.35.35 0 00.091-.241v-1.001h-1.274v-6.314h-1.638l-4.795 6.405.182.875c.023.107.08.197.168.27a.473.473 0 00.308.108h4.27V197h1.505zm-1.505-3.815h-3.08l3.143-4.347a9.445 9.445 0 00-.063 1.036v3.311zM502.279 230v-3.563h1.407c.658 0 1.233-.082 1.726-.245.492-.163.901-.392 1.228-.686.327-.294.572-.645.735-1.053.163-.409.245-.858.245-1.348a3.52 3.52 0 00-.235-1.302 2.637 2.637 0 00-.717-1.022c-.322-.285-.73-.506-1.225-.665-.495-.159-1.08-.238-1.757-.238h-3.29V230h1.883zm1.407-5.033h-1.407v-3.633h1.407c.35 0 .653.04.91.123.257.081.469.199.637.353.168.154.294.34.378.56.084.22.126.464.126.735 0 .285-.042.543-.126.774a1.502 1.502 0 01-.382.588 1.71 1.71 0 01-.64.37c-.257.087-.558.13-.903.13zm7.952 5.138c.532 0 1.016-.086 1.453-.259.436-.173.81-.42 1.12-.742.31-.322.549-.712.717-1.169.168-.457.252-.97.252-1.54a4.42 4.42 0 00-.252-1.533 3.228 3.228 0 00-.717-1.162 3.182 3.182 0 00-1.12-.735 3.916 3.916 0 00-1.453-.259c-.537 0-1.024.086-1.463.259a3.176 3.176 0 00-1.123.735c-.31.317-.551.705-.721 1.162-.17.457-.256.968-.256 1.533 0 .57.085 1.083.256 1.54.17.457.41.847.72 1.169.31.322.685.57 1.124.742.439.173.926.259 1.463.259zm0-1.33c-.607 0-1.056-.202-1.347-.606-.292-.403-.438-.99-.438-1.76s.146-1.36.438-1.768c.291-.408.74-.612 1.347-.612.597 0 1.04.203 1.327.609.287.406.43.996.43 1.771 0 .775-.143 1.363-.43 1.764-.287.401-.73.602-1.327.602zm6.594 1.225v-4.424c.08-.191.164-.362.255-.511.091-.15.196-.277.315-.382.12-.105.254-.185.403-.241.15-.056.32-.084.511-.084.13 0 .265.012.402.035.138.023.242.035.312.035a.28.28 0 00.178-.052.334.334 0 00.102-.179l.112-1.295c-.2-.145-.467-.217-.798-.217-.42 0-.784.123-1.092.367-.308.246-.574.583-.798 1.012l-.105-.812c-.023-.163-.07-.276-.14-.34-.07-.062-.194-.094-.371-.094h-1.015V230h1.729zm5.887.112c.35 0 .688-.054 1.015-.161.327-.107.616-.266.868-.476l-.518-.84a.584.584 0 00-.105-.116.198.198 0 00-.126-.038.24.24 0 00-.126.038 2.45 2.45 0 01-.144.081 1.483 1.483 0 01-.188.08.814.814 0 01-.27.039.567.567 0 01-.452-.189c-.11-.126-.164-.301-.164-.525v-3.892h1.918v-1.232h-1.918v-2.261h-.896a.396.396 0 00-.252.077.384.384 0 00-.133.217l-.364 1.96-1.155.189v.686c0 .121.033.212.098.273.065.06.145.091.238.091h.735v4.011c0 .62.167 1.107.5 1.46.334.352.814.528 1.439.528zm4.795 0c.467 0 .878-.06 1.235-.179.357-.119.657-.284.9-.497.243-.212.426-.464.55-.756.123-.291.185-.61.185-.955 0-.29-.05-.537-.15-.742a1.69 1.69 0 00-.4-.529 2.245 2.245 0 00-.563-.364 7.177 7.177 0 00-.64-.255c-.218-.075-.431-.144-.641-.207a3.905 3.905 0 01-.564-.213 1.353 1.353 0 01-.399-.277.54.54 0 01-.15-.388c0-.233.097-.422.29-.567.194-.145.461-.217.802-.217.22 0 .41.023.57.07.161.047.305.1.431.157.126.059.237.111.332.158.096.047.186.07.27.07a.38.38 0 00.196-.046c.051-.03.1-.082.147-.157l.392-.623a3.051 3.051 0 00-1.015-.644 3.59 3.59 0 00-1.351-.245c-.443 0-.834.06-1.173.178-.338.12-.62.278-.847.476a1.97 1.97 0 00-.514.697 2.069 2.069 0 00-.175.84c0 .317.05.588.15.812.1.224.234.413.4.567.165.154.354.281.566.381.213.1.43.188.651.263.222.075.44.143.651.206.213.063.402.135.567.214.166.08.3.173.4.28.1.107.15.245.15.413 0 .112-.022.22-.067.325a.723.723 0 01-.21.277c-.095.08-.217.143-.364.192a1.68 1.68 0 01-.528.074c-.261 0-.477-.03-.648-.091a2.972 2.972 0 01-.444-.196 6.72 6.72 0 01-.333-.196.56.56 0 00-.304-.091.51.51 0 00-.266.063.564.564 0 00-.182.182l-.399.658c.14.126.302.243.486.35.185.107.385.2.602.28.217.08.444.141.68.185.235.045.477.067.724.067zm5.901-.112v-5.257c.187-.215.388-.384.605-.508.217-.123.452-.185.704-.185.373 0 .657.11.85.329.194.22.291.57.291 1.05V230h1.736v-4.571c0-.224.033-.422.098-.595s.155-.316.27-.43c.114-.115.247-.202.398-.263.152-.06.317-.091.494-.091.387 0 .681.115.882.346.2.231.301.576.301 1.033V230h1.729v-4.571a3.72 3.72 0 00-.164-1.155c-.11-.336-.27-.62-.48-.854a2.028 2.028 0 00-.777-.532 2.868 2.868 0 00-1.057-.182c-.229 0-.456.026-.683.077-.226.051-.44.13-.64.238-.2.107-.385.246-.553.416-.168.17-.308.375-.42.613a2.213 2.213 0 00-.655-.977c-.291-.245-.663-.367-1.116-.367a2.244 2.244 0 00-1.096.273 2.54 2.54 0 00-.44.301 4.09 4.09 0 00-.396.385l-.112-.532c-.07-.21-.217-.315-.441-.315h-1.057V230h1.729zm13.174.105c.532 0 1.016-.086 1.452-.259.437-.173.81-.42 1.12-.742.31-.322.55-.712.718-1.169.168-.457.252-.97.252-1.54a4.42 4.42 0 00-.252-1.533 3.228 3.228 0 00-.717-1.162 3.182 3.182 0 00-1.12-.735 3.916 3.916 0 00-1.453-.259c-.537 0-1.024.086-1.463.259a3.176 3.176 0 00-1.123.735c-.31.317-.551.705-.721 1.162-.17.457-.256.968-.256 1.533 0 .57.085 1.083.256 1.54.17.457.41.847.72 1.169.31.322.685.57 1.124.742.439.173.926.259 1.463.259zm0-1.33c-.607 0-1.056-.202-1.348-.606-.291-.403-.437-.99-.437-1.76s.146-1.36.437-1.768c.292-.408.741-.612 1.348-.612.597 0 1.04.203 1.326.609.287.406.431.996.431 1.771 0 .775-.144 1.363-.43 1.764-.288.401-.73.602-1.327.602zm7.217 1.337c.48 0 .898-.092 1.253-.277.355-.184.679-.425.973-.724l.119.574c.06.21.205.315.434.315h1.057v-7.182h-1.729v5.194c-.233.233-.48.416-.742.55-.261.132-.541.199-.84.199-.406 0-.71-.12-.914-.36-.203-.24-.304-.58-.304-1.019v-4.564h-1.729v4.564c0 .401.052.769.157 1.102.105.334.26.622.466.865.205.243.458.43.76.563.3.133.647.2 1.039.2zm7.938 0c.35 0 .688-.054 1.015-.161.327-.107.616-.266.868-.476l-.518-.84a.584.584 0 00-.105-.116.198.198 0 00-.126-.038.24.24 0 00-.126.038 2.45 2.45 0 01-.144.081 1.483 1.483 0 01-.189.08.814.814 0 01-.269.039.567.567 0 01-.452-.189c-.11-.126-.164-.301-.164-.525v-3.892h1.918v-1.232h-1.918v-2.261h-.896a.396.396 0 00-.252.077.384.384 0 00-.133.217l-.364 1.96-1.155.189v.686c0 .121.033.212.098.273.065.06.145.091.238.091h.735v4.011c0 .62.167 1.107.5 1.46.334.352.814.528 1.439.528zm4.543-.112v-5.194a3.01 3.01 0 01.742-.553 1.8 1.8 0 01.84-.203c.41 0 .716.12.917.36.2.24.301.58.301 1.019V230h1.729v-4.571c0-.401-.053-.769-.158-1.103a2.462 2.462 0 00-.462-.86 2.06 2.06 0 00-.759-.56 2.575 2.575 0 00-1.043-.2c-.453 0-.847.082-1.183.245a3.754 3.754 0 00-.924.637v-3.99h-1.729V230h1.729zM547.996 263v-1.036a.55.55 0 00-.164-.416.616.616 0 00-.445-.158h-2.597c-.196 0-.403.018-.62.053a5.182 5.182 0 00-.654.15l2.282-2.331c.27-.28.53-.555.777-.826.247-.27.463-.55.648-.84.184-.29.33-.593.44-.91.11-.317.165-.663.165-1.036a2.94 2.94 0 00-.231-1.183 2.646 2.646 0 00-.644-.91 2.88 2.88 0 00-.994-.585 3.802 3.802 0 00-1.281-.206c-.448 0-.867.062-1.256.185-.39.124-.735.308-1.036.553-.301.245-.552.551-.753.917-.2.367-.336.793-.406 1.278l.91.161c.238.037.42.021.546-.049.126-.07.229-.212.308-.427a1.553 1.553 0 011.019-1.074c.175-.059.365-.088.57-.088.224 0 .426.031.606.094s.333.158.462.284c.128.126.227.281.297.465.07.185.105.398.105.641 0 .266-.036.52-.108.76-.073.24-.177.477-.312.71a4.835 4.835 0 01-.507.707 14.57 14.57 0 01-.69.749l-3.073 3.08a.942.942 0 00-.234.346 1.03 1.03 0 00-.074.368V263h6.944zm8.12 0v-1.036a.55.55 0 00-.164-.416.616.616 0 00-.445-.158h-2.597c-.196 0-.402.018-.62.053a5.182 5.182 0 00-.654.15l2.282-2.331c.27-.28.53-.555.777-.826.247-.27.463-.55.648-.84.184-.29.33-.593.44-.91.11-.317.165-.663.165-1.036a2.94 2.94 0 00-.231-1.183 2.646 2.646 0 00-.644-.91 2.88 2.88 0 00-.994-.585 3.802 3.802 0 00-1.281-.206c-.448 0-.867.062-1.256.185-.39.124-.735.308-1.036.553-.301.245-.552.551-.753.917-.2.367-.336.793-.406 1.278l.91.161c.238.037.42.021.546-.049.126-.07.229-.212.308-.427a1.553 1.553 0 011.019-1.074c.175-.059.365-.088.57-.088.224 0 .426.031.606.094s.333.158.462.284c.128.126.227.281.297.465.07.185.105.398.105.641 0 .266-.036.52-.108.76-.073.24-.177.477-.312.71a4.835 4.835 0 01-.507.707 14.57 14.57 0 01-.69.749l-3.073 3.08a.942.942 0 00-.234.346 1.03 1.03 0 00-.074.368V263h6.944zm4.641.112c.467 0 .909-.068 1.327-.203a3.294 3.294 0 001.102-.599c.317-.263.57-.589.756-.976.187-.387.28-.833.28-1.337 0-.593-.15-1.085-.448-1.477-.299-.392-.751-.684-1.358-.875.252-.084.478-.189.679-.315.2-.126.369-.28.504-.462s.24-.396.311-.64c.073-.246.109-.529.109-.851a2.422 2.422 0 00-.826-1.859 2.884 2.884 0 00-.962-.553 3.768 3.768 0 00-1.264-.199c-.448 0-.867.062-1.256.185-.39.124-.736.308-1.036.553-.301.245-.552.551-.753.917-.2.367-.336.793-.406 1.278l.91.161c.233.037.414.021.543-.049.128-.07.232-.212.311-.427a1.522 1.522 0 01.557-.83c.137-.105.292-.186.465-.245.173-.058.362-.087.567-.087.443 0 .798.124 1.064.371s.399.609.399 1.085c0 .224-.033.43-.098.616-.065.187-.18.346-.347.48a1.8 1.8 0 01-.668.311c-.28.075-.632.114-1.057.119v1.232c.513 0 .923.04 1.228.119.306.08.54.189.704.329.163.14.27.31.322.508.051.198.077.418.077.661a1.585 1.585 0 01-.437 1.085c-.147.154-.33.279-.55.375-.22.095-.476.143-.77.143-.261 0-.486-.038-.675-.115a1.716 1.716 0 01-.494-.301 1.96 1.96 0 01-.36-.424c-.1-.159-.193-.32-.277-.483a.546.546 0 00-.381-.284.916.916 0 00-.564.067l-.763.315c.14.434.308.817.504 1.148.196.331.434.611.714.84.28.229.609.401.987.518.378.117.821.175 1.33.175zm8.169 0c.527 0 1.019-.104 1.474-.312a3.17 3.17 0 001.183-.948c.333-.425.595-.963.784-1.614.189-.65.283-1.417.283-2.299 0-.887-.094-1.654-.284-2.303-.188-.649-.45-1.185-.784-1.61a3.17 3.17 0 00-1.183-.949 3.506 3.506 0 00-1.473-.311 3.46 3.46 0 00-1.467.311c-.45.208-.84.524-1.172.949-.331.425-.59.961-.777 1.61-.187.649-.28 1.416-.28 2.303 0 .882.093 1.648.28 2.3.187.65.446 1.188.777 1.613.331.425.722.74 1.173.948.45.208.939.312 1.466.312zm0-1.435c-.247 0-.486-.057-.717-.172-.231-.114-.436-.313-.613-.598s-.319-.667-.423-1.148c-.106-.48-.158-1.087-.158-1.82 0-.733.053-1.34.158-1.82.104-.48.246-.863.423-1.148.177-.285.382-.484.613-.599a1.599 1.599 0 011.445 0c.233.115.44.314.62.599s.323.667.43 1.148c.107.48.161 1.087.161 1.82 0 .733-.054 1.34-.161 1.82-.107.48-.25.863-.43 1.148-.18.285-.387.484-.62.599a1.635 1.635 0 01-.728.171zM554.975 296v-1.036a.55.55 0 00-.165-.416.616.616 0 00-.444-.158h-2.597c-.196 0-.403.018-.62.053a5.182 5.182 0 00-.654.15l2.282-2.331c.27-.28.53-.555.777-.826.247-.27.463-.55.648-.84.184-.29.33-.593.44-.91.11-.317.165-.663.165-1.036a2.94 2.94 0 00-.231-1.183 2.646 2.646 0 00-.644-.91 2.88 2.88 0 00-.994-.585 3.802 3.802 0 00-1.281-.206c-.448 0-.867.062-1.256.185-.39.124-.735.308-1.036.553-.301.245-.552.551-.753.917-.2.367-.336.793-.406 1.278l.91.161c.238.037.42.021.546-.049.126-.07.229-.212.308-.427a1.553 1.553 0 011.019-1.074c.175-.059.365-.088.57-.088.224 0 .426.031.606.094.18.064.333.158.462.284.128.126.227.281.297.465.07.185.105.398.105.641 0 .266-.036.52-.108.76-.073.24-.177.477-.312.71a4.835 4.835 0 01-.508.707 14.57 14.57 0 01-.689.749l-3.073 3.08a.942.942 0 00-.235.346 1.03 1.03 0 00-.073.368V296h6.944zm4.221.112c.541 0 1.042-.086 1.501-.259.46-.173.858-.417 1.194-.732.336-.315.599-.694.788-1.137a3.71 3.71 0 00.283-1.47c0-.434-.07-.839-.21-1.215a2.76 2.76 0 00-.623-.983c-.275-.28-.616-.5-1.022-.658-.406-.159-.875-.238-1.407-.238a5.851 5.851 0 00-1.239.133l.357-2.107h2.779c.369 0 .63-.077.784-.231a.814.814 0 00.231-.602v-.735h-4.998l-.84 4.914 1.078.308a4.435 4.435 0 011.477-.266c.625 0 1.098.155 1.418.466.32.31.479.74.479 1.291a2.7 2.7 0 01-.122.83 1.843 1.843 0 01-.364.658 1.636 1.636 0 01-.606.43 2.14 2.14 0 01-.84.154 2.32 2.32 0 01-.766-.112 3.432 3.432 0 01-.553-.245c-.157-.089-.296-.17-.417-.245a.68.68 0 00-.357-.112.516.516 0 00-.441.238l-.532.735a4.47 4.47 0 002.065 1.092c.285.065.586.098.903.098zm9.961 0c.84 0 1.56-.135 2.16-.406.6-.27 1.104-.66 1.515-1.169l-.742-.805a.375.375 0 00-.273-.119.356.356 0 00-.161.038.664.664 0 00-.147.102c-.154.14-.31.258-.466.353a2.548 2.548 0 01-.497.235c-.175.06-.366.105-.574.133-.207.028-.44.042-.696.042-.43 0-.83-.08-1.204-.242a2.795 2.795 0 01-.973-.696 3.34 3.34 0 01-.655-1.12c-.16-.443-.241-.95-.241-1.519 0-.565.075-1.068.224-1.509.15-.44.36-.814.63-1.12a2.7 2.7 0 01.97-.7c.375-.16.79-.241 1.242-.241.266 0 .5.02.704.06.203.04.381.088.535.146.154.059.29.123.406.193.117.07.22.134.308.192.089.059.17.108.245.147.075.04.147.06.217.06a.407.407 0 00.241-.063.572.572 0 00.144-.147l.63-.875a4.678 4.678 0 00-1.46-.952c-.571-.243-1.226-.364-1.963-.364-.742 0-1.419.127-2.03.381a4.641 4.641 0 00-1.579 1.068 4.803 4.803 0 00-1.025 1.634 5.787 5.787 0 00-.364 2.09c0 .751.113 1.444.34 2.079.226.635.551 1.18.976 1.638.425.457.937.814 1.536 1.071.6.257 1.276.385 2.027.385zM548.556 329.112c.523 0 1-.07 1.432-.21.431-.14.801-.338 1.109-.595a2.67 2.67 0 00.718-.931c.17-.364.255-.77.255-1.218 0-.597-.147-1.103-.441-1.516-.294-.413-.749-.72-1.365-.92.49-.205.857-.497 1.102-.875.245-.378.368-.833.368-1.365 0-.383-.078-.74-.235-1.071a2.629 2.629 0 00-.654-.865 3.048 3.048 0 00-1.005-.574 3.833 3.833 0 00-1.284-.206c-.467 0-.895.069-1.285.206-.39.138-.724.33-1.004.574-.28.245-.498.534-.655.865a2.478 2.478 0 00-.234 1.071c0 .532.122.987.367 1.365s.613.67 1.103.875c-.616.2-1.071.507-1.365.92-.294.413-.441.919-.441 1.516 0 .448.085.854.255 1.218.17.364.41.674.718.931s.678.455 1.11.595c.431.14.908.21 1.431.21zm0-6.027c-.28 0-.516-.044-.707-.133a1.246 1.246 0 01-.71-.857 2.32 2.32 0 01-.074-.585c0-.191.03-.373.087-.546.059-.173.15-.326.274-.458.123-.133.278-.24.465-.319.187-.08.408-.119.665-.119.257 0 .478.04.665.119.187.08.34.185.462.319.121.132.212.285.273.458.06.173.091.355.091.546 0 .2-.025.395-.074.584a1.246 1.246 0 01-.71.858 1.677 1.677 0 01-.707.133zm0 4.676a2.1 2.1 0 01-.749-.123 1.544 1.544 0 01-.543-.339 1.403 1.403 0 01-.332-.518 1.852 1.852 0 01-.112-.651c0-.555.154-.975.462-1.26.308-.285.733-.427 1.274-.427s.966.142 1.274.427c.308.285.462.705.462 1.26 0 .233-.037.45-.112.651-.075.2-.185.373-.332.518a1.544 1.544 0 01-.543.34 2.1 2.1 0 01-.749.122zm7.07 1.239v-4.452h.595c.22 0 .387.026.504.077a.75.75 0 01.308.266l2.863 3.738a.784.784 0 00.276.276c.11.064.277.095.501.095h1.659l-3.514-4.739a1.854 1.854 0 00-.354-.396 1.433 1.433 0 00-.416-.234c.215-.107.422-.29.623-.546l3.409-4.207h-1.624c-.196 0-.358.03-.487.087-.128.059-.25.163-.367.312l-2.793 3.535a.746.746 0 01-.301.234 1.145 1.145 0 01-.441.074h-.441v-4.242h-1.883V329h1.883zm9.261.112c.35 0 .688-.054 1.015-.161.327-.107.616-.266.868-.476l-.518-.84a.584.584 0 00-.105-.115.198.198 0 00-.126-.039.24.24 0 00-.126.038 2.45 2.45 0 01-.143.081 1.483 1.483 0 01-.19.08.814.814 0 01-.269.039.567.567 0 01-.452-.189c-.11-.126-.164-.301-.164-.525v-3.892h1.918v-1.232h-1.918v-2.261h-.896a.396.396 0 00-.252.077.384.384 0 00-.133.217l-.364 1.96-1.155.189v.686c0 .121.033.212.098.273.065.06.145.091.238.091h.735v4.011c0 .62.167 1.107.5 1.46.334.352.814.528 1.439.528zm4.795 0c.467 0 .878-.06 1.236-.179.356-.119.656-.284.899-.497.243-.212.426-.464.55-.756.123-.291.185-.61.185-.955 0-.29-.05-.537-.15-.742a1.69 1.69 0 00-.4-.529 2.245 2.245 0 00-.563-.364 7.177 7.177 0 00-.64-.255c-.218-.075-.431-.144-.641-.207a3.905 3.905 0 01-.564-.213 1.353 1.353 0 01-.399-.277.54.54 0 01-.15-.388c0-.233.097-.422.29-.567.194-.145.461-.217.802-.217.22 0 .41.023.57.07.161.047.305.1.431.157.126.059.237.111.332.158.096.047.186.07.27.07a.38.38 0 00.196-.046c.051-.03.1-.082.147-.157l.392-.623a3.051 3.051 0 00-1.015-.644 3.59 3.59 0 00-1.351-.245c-.443 0-.834.06-1.173.178-.338.12-.62.278-.847.476a1.97 1.97 0 00-.514.697 2.069 2.069 0 00-.175.84c0 .317.05.588.15.812.1.224.234.413.4.567.165.154.354.281.566.381.213.1.43.188.651.263.222.075.44.143.651.206.213.063.402.135.567.214.166.08.3.173.4.28.1.107.15.245.15.413 0 .112-.022.22-.067.325a.723.723 0 01-.21.277c-.095.08-.217.143-.364.192a1.68 1.68 0 01-.528.074c-.261 0-.477-.03-.648-.091a2.972 2.972 0 01-.444-.196 6.72 6.72 0 01-.333-.196.56.56 0 00-.304-.091.51.51 0 00-.266.063.564.564 0 00-.182.182l-.399.658c.14.126.302.243.486.35.185.107.385.2.602.28.217.08.444.141.68.185.235.045.477.067.724.067z" fill="#233645" fill-rule="nonzero"/><g transform="translate(136 54)"><path d="M5.704 16V6.04h3.592V4.48H.24v1.56h3.6V16h1.864zm5.55-9.48c.16 0 .31-.03.452-.092.142-.061.266-.144.372-.248.107-.104.19-.225.252-.364.062-.139.092-.285.092-.44 0-.16-.03-.31-.092-.448a1.157 1.157 0 00-.252-.364 1.228 1.228 0 00-.372-.248 1.123 1.123 0 00-.888 0 1.155 1.155 0 00-.356.248 1.228 1.228 0 00-.244.364 1.095 1.095 0 00-.092.448c0 .155.03.301.092.44s.143.26.244.364c.102.104.22.187.356.248.136.061.282.092.436.092zm.88 9.48V7.84h-1.72V16h1.72zm4.606.128c.384 0 .758-.063 1.12-.188a2.79 2.79 0 00.944-.54l-.512-.84c-.058-.107-.136-.16-.232-.16a.263.263 0 00-.148.052c-.05.035-.11.072-.18.112-.069.04-.152.077-.248.112s-.21.052-.344.052a.75.75 0 01-.576-.232c-.144-.155-.216-.379-.216-.672V9.192h2.264v-1.24h-2.264v-2.68h-.88a.375.375 0 00-.256.084.455.455 0 00-.136.22l-.376 2.36-1.32.192v.696c0 .123.035.215.104.276.07.061.152.092.248.092h.896v4.752c0 .693.183 1.23.548 1.612.366.381.887.572 1.564.572zM21.547 16V4.16h-1.72V16h1.72zm5.454.12c.288 0 .584-.023.888-.068.304-.045.6-.12.888-.224.288-.104.56-.239.816-.404.256-.165.485-.368.688-.608l-.488-.632a.367.367 0 00-.32-.16.693.693 0 00-.352.116 7.919 7.919 0 01-.464.256 4.094 4.094 0 01-.64.256 2.914 2.914 0 01-.872.116c-.352 0-.67-.055-.956-.164a1.914 1.914 0 01-.736-.5 2.483 2.483 0 01-.492-.844 4.098 4.098 0 01-.216-1.204h5.24c.155 0 .261-.045.32-.136.059-.09.088-.27.088-.536 0-.581-.087-1.1-.26-1.556a3.293 3.293 0 00-.724-1.156 3.052 3.052 0 00-1.104-.716 3.876 3.876 0 00-1.392-.244c-.603 0-1.143.105-1.62.316a3.606 3.606 0 00-1.984 2.14 4.594 4.594 0 00-.268 1.584c0 .71.1 1.336.3 1.88.2.544.477 1 .832 1.368.355.368.773.647 1.256.836.483.19 1.007.284 1.572.284zM28.849 11h-4.056c.096-.645.323-1.147.68-1.504.357-.357.848-.536 1.472-.536.31 0 .583.052.82.156.237.104.436.248.596.432.16.184.281.4.364.648.083.248.124.516.124.804z" fill="#233744" fill-rule="nonzero"/><circle fill="#233744" cx="44.5" cy="10.5" r="9.5"/><path d="M47.064 14v-1.018h-1.43V6.037h-1.117l-2.425 2.063.429.588a.32.32 0 00.099.09.467.467 0 00.333.055.473.473 0 00.195-.096l1.144-.957a10.03 10.03 0 00-.017.567v4.636h-1.611V14h4.4z" fill="#FFF" fill-rule="nonzero"/><path stroke="#979797" d="M45 19.5V68"/><circle fill="#233744" cx="45" cy="66" r="3"/></g><g transform="translate(31.368 149)"><path d="M6.656 15v-1.568H1.872V3.48H0V15h6.656zm2.022-9.48c.16 0 .31-.03.452-.092.142-.061.266-.144.372-.248.107-.104.19-.225.252-.364.062-.139.092-.285.092-.44 0-.16-.03-.31-.092-.448a1.157 1.157 0 00-.252-.364 1.228 1.228 0 00-.372-.248 1.123 1.123 0 00-.888 0 1.155 1.155 0 00-.356.248 1.228 1.228 0 00-.244.364 1.095 1.095 0 00-.092.448c0 .155.03.301.092.44s.143.26.244.364c.102.104.22.187.356.248.136.061.282.092.436.092zm.88 9.48V6.84h-1.72V15h1.72zm4.182.128c.512 0 .967-.067 1.364-.2.398-.133.73-.32.996-.56.267-.24.47-.523.608-.848.14-.325.208-.68.208-1.064 0-.33-.058-.612-.176-.844a1.876 1.876 0 00-.464-.592c-.192-.163-.41-.3-.656-.412a7.586 7.586 0 00-.752-.296 30.017 30.017 0 00-.752-.24 4.501 4.501 0 01-.656-.252 1.524 1.524 0 01-.464-.332.683.683 0 01-.176-.48c0-.144.032-.279.096-.404a.977.977 0 01.276-.328c.12-.093.267-.165.44-.216.174-.05.367-.076.58-.076.262 0 .49.028.684.084.195.056.364.119.508.188.144.07.27.132.376.188a.643.643 0 00.296.084c.08 0 .147-.016.2-.048a.427.427 0 00.144-.16l.384-.624a3.252 3.252 0 00-1.128-.72 4.06 4.06 0 00-1.496-.264c-.485 0-.913.065-1.284.196a2.8 2.8 0 00-.936.532 2.252 2.252 0 00-.772 1.704c0 .357.06.66.176.908.118.248.274.459.468.632a2.6 2.6 0 00.664.428c.248.112.5.21.756.296.256.085.508.165.756.24.248.075.47.16.664.256.195.096.351.21.468.344a.746.746 0 01.176.512 1.012 1.012 0 01-.36.8 1.33 1.33 0 01-.464.252 2.135 2.135 0 01-.664.092c-.309 0-.568-.036-.776-.108a3.04 3.04 0 01-.532-.236 8.237 8.237 0 01-.384-.236.598.598 0 00-.332-.108.494.494 0 00-.268.068.554.554 0 00-.18.188l-.4.656c.16.144.343.277.548.4.206.123.427.228.664.316.238.088.488.157.752.208.264.05.538.076.82.076zm7.23 0c.385 0 .758-.063 1.12-.188a2.79 2.79 0 00.945-.54l-.512-.84c-.059-.107-.136-.16-.232-.16a.263.263 0 00-.148.052c-.051.035-.111.072-.18.112-.07.04-.152.077-.248.112s-.211.052-.344.052a.75.75 0 01-.576-.232c-.144-.155-.216-.379-.216-.672V8.192h2.264v-1.24h-2.264v-2.68h-.88a.375.375 0 00-.256.084.455.455 0 00-.136.22l-.376 2.36-1.32.192v.696c0 .123.034.215.104.276.069.061.152.092.248.092h.896v4.752c0 .693.182 1.23.548 1.612.365.381.886.572 1.564.572zM30.032 15V3.48h-1.88V15h1.88zm4.63.128c.384 0 .758-.063 1.12-.188a2.79 2.79 0 00.944-.54l-.512-.84c-.058-.107-.136-.16-.232-.16a.263.263 0 00-.148.052c-.05.035-.11.072-.18.112-.069.04-.152.077-.248.112s-.21.052-.344.052a.75.75 0 01-.576-.232c-.144-.155-.216-.379-.216-.672V8.192h2.264v-1.24H34.27v-2.68h-.88a.375.375 0 00-.256.084.455.455 0 00-.136.22l-.376 2.36-1.32.192v.696c0 .123.035.215.104.276.07.061.152.092.248.092h.896v4.752c0 .693.183 1.23.548 1.612.366.381.887.572 1.564.572zm6.503-.008c.288 0 .584-.023.888-.068.304-.045.6-.12.888-.224.288-.104.56-.239.816-.404.256-.165.485-.368.688-.608l-.488-.632a.367.367 0 00-.32-.16.693.693 0 00-.352.116 7.919 7.919 0 01-.464.256 4.094 4.094 0 01-.64.256 2.914 2.914 0 01-.872.116c-.352 0-.671-.055-.956-.164a1.914 1.914 0 01-.736-.5 2.483 2.483 0 01-.492-.844 4.098 4.098 0 01-.216-1.204h5.24c.154 0 .26-.045.32-.136.058-.09.088-.27.088-.536 0-.581-.087-1.1-.26-1.556a3.293 3.293 0 00-.724-1.156 3.052 3.052 0 00-1.104-.716 3.876 3.876 0 00-1.392-.244c-.603 0-1.143.105-1.62.316a3.606 3.606 0 00-1.984 2.14 4.594 4.594 0 00-.268 1.584c0 .71.1 1.336.3 1.88.2.544.477 1 .832 1.368.354.368.773.647 1.256.836.482.19 1.006.284 1.572.284zM43.012 10h-4.056c.096-.645.322-1.147.68-1.504.357-.357.848-.536 1.472-.536.309 0 .582.052.82.156.237.104.436.248.596.432.16.184.28.4.364.648.082.248.124.516.124.804zm4.686 5V8.984c.23-.283.48-.505.752-.668.272-.163.568-.244.888-.244.464 0 .816.14 1.056.42.24.28.36.719.36 1.316V15h1.72V9.808c0-.288.041-.54.124-.756a1.446 1.446 0 01.844-.868c.192-.075.397-.112.616-.112.485 0 .852.145 1.1.436.248.29.372.724.372 1.3V15h1.72V9.808c0-.49-.062-.928-.184-1.312a2.627 2.627 0 00-.54-.972 2.32 2.32 0 00-.872-.604 3.113 3.113 0 00-1.172-.208c-.267 0-.53.03-.788.092a2.838 2.838 0 00-.732.284 2.507 2.507 0 00-1.088 1.224 3.033 3.033 0 00-.304-.664 2.05 2.05 0 00-.436-.504 1.831 1.831 0 00-.58-.32 2.216 2.216 0 00-.72-.112 2.542 2.542 0 00-1.276.332 3.029 3.029 0 00-.516.368c-.16.141-.315.297-.464.468l-.112-.712c-.064-.219-.214-.328-.448-.328h-1.04V15h1.72z" fill="#233744" fill-rule="nonzero"/><path stroke="#979797" d="M73.632 10h51.748"/><circle fill="#233744" cx="73.132" cy="9.5" r="9.5"/><path d="M75.877 13v-.814a.432.432 0 00-.13-.327.484.484 0 00-.348-.124h-2.04a3.06 3.06 0 00-.488.041c-.17.028-.342.067-.514.119l1.793-1.832c.213-.22.416-.436.61-.649.195-.213.365-.433.51-.66.144-.227.26-.466.346-.715.086-.25.13-.52.13-.814 0-.341-.061-.65-.182-.93a2.079 2.079 0 00-.506-.715 2.264 2.264 0 00-.781-.459 2.987 2.987 0 00-1.007-.162c-.352 0-.681.049-.987.146a2.449 2.449 0 00-.814.434 2.407 2.407 0 00-.591.72 2.95 2.95 0 00-.32 1.004l.716.127c.187.03.33.017.429-.038.099-.056.18-.167.242-.336a1.22 1.22 0 01.8-.844 1.41 1.41 0 01.448-.069c.176 0 .335.025.476.074a.967.967 0 01.597.589c.055.145.082.312.082.503 0 .209-.028.408-.085.597a2.613 2.613 0 01-.245.558c-.106.183-.24.369-.399.556-.16.186-.34.383-.541.588l-2.415 2.42a.74.74 0 00-.184.272.81.81 0 00-.058.289V13h5.456z" fill="#FFF" fill-rule="nonzero"/><circle fill="#233744" cx="127.632" cy="10" r="3"/><path d="M35.872 49v-5.16h.688c.123 0 .23.007.32.02.09.013.172.036.244.068a.709.709 0 01.188.12c.053.048.107.107.16.176l3.6 4.4c.037.059.079.112.124.16a.6.6 0 00.16.12.79.79 0 00.216.072c.083.016.183.024.3.024h1.632l-4.272-5.424a2.123 2.123 0 00-.376-.412 1.496 1.496 0 00-.432-.244c.123-.059.236-.135.34-.228.104-.093.212-.21.324-.348l4.12-4.864h-1.6c-.197 0-.361.03-.492.092-.13.061-.257.17-.38.324l-3.488 4.16a.93.93 0 01-.344.268 1.248 1.248 0 01-.496.084h-.536V37.48H34V49h1.872zm11.326.12c.288 0 .584-.023.888-.068.304-.045.6-.12.888-.224.288-.104.56-.239.816-.404.256-.165.486-.368.688-.608l-.488-.632a.367.367 0 00-.32-.16.693.693 0 00-.352.116 7.919 7.919 0 01-.464.256 4.094 4.094 0 01-.64.256 2.914 2.914 0 01-.872.116c-.352 0-.67-.055-.956-.164a1.914 1.914 0 01-.736-.5 2.483 2.483 0 01-.492-.844 4.098 4.098 0 01-.216-1.204h5.24c.155 0 .262-.045.32-.136.059-.09.088-.27.088-.536 0-.581-.086-1.1-.26-1.556a3.293 3.293 0 00-.724-1.156 3.052 3.052 0 00-1.104-.716 3.876 3.876 0 00-1.392-.244c-.602 0-1.142.105-1.62.316a3.606 3.606 0 00-1.984 2.14 4.594 4.594 0 00-.268 1.584c0 .71.1 1.336.3 1.88.2.544.478 1 .832 1.368.355.368.774.647 1.256.836.483.19 1.007.284 1.572.284zM49.046 44H44.99c.096-.645.323-1.147.68-1.504.358-.357.848-.536 1.472-.536.31 0 .583.052.82.156.238.104.436.248.596.432.16.184.282.4.364.648.083.248.124.516.124.804zm4.894 7.712c.171 0 .298-.035.38-.104a.843.843 0 00.212-.288l4.496-10.48h-1.376a.53.53 0 00-.48.336L55.308 45.8a6.005 6.005 0 00-.144.4l-.128.408a12.343 12.343 0 00-.116-.404 8.61 8.61 0 00-.132-.396l-1.944-4.632a.62.62 0 00-.172-.236.494.494 0 00-.332-.1h-1.496l3.328 7.608-1.504 3.264h1.272z" fill="#233744" fill-rule="nonzero"/><path stroke="#979797" d="M73.632 44h61.748"/><circle fill="#233744" cx="73.132" cy="43.5" r="9.5"/><path d="M73.144 47.088a3.36 3.36 0 001.042-.16c.328-.106.617-.263.866-.47.25-.207.447-.463.594-.767.147-.304.22-.655.22-1.05 0-.466-.117-.853-.352-1.161-.235-.308-.59-.537-1.067-.688.198-.066.376-.148.534-.247.157-.099.29-.22.396-.363.106-.143.188-.31.244-.503.057-.193.086-.416.086-.669a1.903 1.903 0 00-.649-1.46 2.266 2.266 0 00-.757-.434 2.96 2.96 0 00-.992-.157c-.352 0-.681.049-.988.146a2.449 2.449 0 00-.814.434 2.407 2.407 0 00-.59.72 2.95 2.95 0 00-.32 1.005l.715.126c.183.03.326.017.426-.038.101-.055.183-.167.245-.336a1.196 1.196 0 01.437-.652c.109-.082.23-.146.366-.192.136-.046.284-.069.446-.069.348 0 .627.097.836.291.209.195.313.479.313.853 0 .176-.026.337-.077.484a.83.83 0 01-.272.377c-.13.104-.305.186-.525.245-.22.058-.497.09-.83.093v.968c.402 0 .724.031.964.093.24.063.425.149.553.259a.77.77 0 01.253.399c.04.156.06.329.06.52a1.246 1.246 0 01-.343.852c-.116.121-.26.22-.432.294a1.503 1.503 0 01-.605.113c-.205 0-.382-.03-.53-.09a1.348 1.348 0 01-.388-.237 1.54 1.54 0 01-.284-.333 4.92 4.92 0 01-.217-.38.43.43 0 00-.3-.222.72.72 0 00-.442.052l-.6.247c.11.341.242.642.396.902.154.26.341.48.561.66.22.18.479.316.776.407.297.092.645.138 1.045.138z" fill="#FFF" fill-rule="nonzero"/><circle fill="#233744" cx="135.632" cy="44" r="3"/><path d="M608.968 49l4.672-11.52h-1.504a.596.596 0 00-.4.136.766.766 0 00-.224.296l-2.96 7.512a7.04 7.04 0 00-.22.68c-.067.245-.13.504-.188.776a12.3 12.3 0 00-.44-1.456l-2.968-7.512a.806.806 0 00-.232-.308.613.613 0 00-.4-.124h-1.496L607.28 49h1.688zm6.062.128c.299 0 .572-.025.82-.076.248-.05.48-.127.696-.228.216-.101.426-.225.628-.372.203-.147.408-.313.616-.5l.168.664c.059.155.13.257.216.308.086.05.21.076.376.076h.768v-5.184c0-.464-.065-.887-.196-1.268-.13-.381-.32-.71-.568-.988a2.505 2.505 0 00-.92-.644 3.235 3.235 0 00-1.252-.228c-1.274 0-2.373.43-3.296 1.288l.312.56c.054.09.122.167.204.228a.49.49 0 00.3.092.74.74 0 00.408-.124c.128-.083.275-.172.44-.268.166-.096.36-.185.584-.268.224-.083.502-.124.832-.124.486 0 .854.144 1.104.432.25.288.376.725.376 1.312v.544c-.928.021-1.708.11-2.34.264-.632.155-1.141.35-1.528.588-.386.237-.664.505-.832.804a1.855 1.855 0 00-.252.92c0 .368.06.688.18.96s.284.5.492.684c.208.184.455.321.74.412.286.09.594.136.924.136zm.52-1.2c-.176 0-.337-.02-.484-.06a1.041 1.041 0 01-.384-.192.897.897 0 01-.256-.336 1.191 1.191 0 01-.092-.492c0-.197.058-.379.172-.544.115-.165.303-.308.564-.428.262-.12.603-.219 1.024-.296a10.88 10.88 0 011.552-.148v1.512c-.304.32-.617.564-.94.732-.322.168-.708.252-1.156.252zM622.9 49V37.16h-1.72V49h1.72zm4.615.128a3.211 3.211 0 001.464-.336c.213-.107.414-.235.604-.384.189-.15.369-.315.54-.496l.128.76c.064.219.21.328.44.328h1.04v-8.16h-1.72v5.952a3.585 3.585 0 01-.924.716c-.328.173-.682.26-1.06.26-.518 0-.903-.152-1.156-.456-.254-.304-.38-.73-.38-1.28V40.84h-1.72v5.192c0 .459.058.879.176 1.26.117.381.292.708.524.98.232.272.518.483.86.632.341.15.736.224 1.184.224zm9.638-.008c.288 0 .584-.023.888-.068.304-.045.6-.12.888-.224.288-.104.56-.239.816-.404.256-.165.485-.368.688-.608l-.488-.632a.367.367 0 00-.32-.16.693.693 0 00-.352.116 7.919 7.919 0 01-.464.256 4.094 4.094 0 01-.64.256 2.914 2.914 0 01-.872.116c-.352 0-.67-.055-.956-.164a1.914 1.914 0 01-.736-.5 2.483 2.483 0 01-.492-.844 4.098 4.098 0 01-.216-1.204h5.24c.155 0 .261-.045.32-.136.059-.09.088-.27.088-.536 0-.581-.087-1.1-.26-1.556a3.293 3.293 0 00-.724-1.156 3.052 3.052 0 00-1.104-.716 3.876 3.876 0 00-1.392-.244c-.603 0-1.143.105-1.62.316a3.606 3.606 0 00-1.984 2.14 4.594 4.594 0 00-.268 1.584c0 .71.1 1.336.3 1.88.2.544.477 1 .832 1.368.355.368.773.647 1.256.836.483.19 1.007.284 1.572.284zM639 44h-4.056c.096-.645.323-1.147.68-1.504.357-.357.848-.536 1.472-.536.31 0 .583.052.82.156.237.104.436.248.596.432.16.184.281.4.364.648.083.248.124.516.124.804z" fill="#233744" fill-rule="nonzero"/><path stroke="#979797" d="M543.632 44h31.748"/><circle fill="#233744" cx="583.132" cy="43.5" r="9.5"/><path d="M585.102 47v-1.941h.726c.088 0 .155-.027.203-.08a.275.275 0 00.072-.19v-.787h-1.001v-4.96h-1.287l-3.768 5.032.143.688a.368.368 0 00.132.211c.07.057.15.086.242.086h3.355V47h1.183zm-1.183-2.998h-2.42l2.47-3.415c-.033.297-.05.568-.05.814v2.601z" fill="#FFF" fill-rule="nonzero"/><circle fill="#233744" cx="544.632" cy="44" r="3"/></g></g></svg>
