<svg xmlns="http://www.w3.org/2000/svg" xmlns:xlink="http://www.w3.org/1999/xlink" viewBox="0 0 726 403">
  <defs>
    <path id="b" d="M221.57.29l3.78 3.74H237a3 3 0 0 1 3 3v181.75a3 3 0 0 1-3 3H3a3 3 0 0 1-3-3V7.03a3 3 0 0 1 3-3h213.38l3.78-3.74a1 1 0 0 1 1.4 0z"/>
    <filter id="a" width="123.3%" height="129.2%" x="-11.7%" y="-12.5%" filterUnits="objectBoundingBox">
      <feMorphology in="SourceAlpha" operator="dilate" radius="2" result="shadowSpreadOuter1"/>
      <feOffset dy="4" in="shadowSpreadOuter1" result="shadowOffsetOuter1"/>
      <feGaussianBlur in="shadowOffsetOuter1" result="shadowBlurOuter1" stdDeviation="8"/>
      <feComposite in="shadowBlurOuter1" in2="SourceAlpha" operator="out" result="shadowBlurOuter1"/>
      <feColorMatrix in="shadowBlurOuter1" result="shadowMatrixOuter1" values="0 0 0 0 0 0 0 0 0 0 0 0 0 0 0 0 0 0 0.103583916 0"/>
      <feMorphology in="SourceAlpha" operator="dilate" radius="2" result="shadowSpreadOuter2"/>
      <feOffset dy="1" in="shadowSpreadOuter2" result="shadowOffsetOuter2"/>
      <feGaussianBlur in="shadowOffsetOuter2" result="shadowBlurOuter2" stdDeviation="1"/>
      <feComposite in="shadowBlurOuter2" in2="SourceAlpha" operator="out" result="shadowBlurOuter2"/>
      <feColorMatrix in="shadowBlurOuter2" result="shadowMatrixOuter2" values="0 0 0 0 0 0 0 0 0 0 0 0 0 0 0 0 0 0 0.102573208 0"/>
      <feMerge>
        <feMergeNode in="shadowMatrixOuter1"/>
        <feMergeNode in="shadowMatrixOuter2"/>
      </feMerge>
    </filter>
    <path id="c" d="M8 4.67a3.33 3.33 0 0 1 3.1 4.55l1.94 1.95c1-.84 1.8-1.93 2.29-3.17a7.88 7.88 0 0 0-9.99-4.53L6.78 4.9c.38-.16.79-.24 1.22-.24zM1.33 2.85l1.52 1.52.31.3C2.06 5.53 1.19 6.68.66 8a7.88 7.88 0 0 0 10.26 4.44l.28.28 1.95 1.95.85-.85L2.18 2l-.85.85zm3.69 3.68l1.03 1.04a2 2 0 0 0 2.38 2.38l1.04 1.03a3.3 3.3 0 0 1-4.45-4.45zm2.87-.52l2.1 2.1.02-.1a2 2 0 0 0-2-2h-.12z"/>
    <path id="e" d="M14.67 7.33h-2.78l2.16-2.16-.94-.94L10 7.33H8.67V6l3.1-3.11-.94-.94-2.16 2.16V1.33H7.33v2.78L5.17 1.95l-.94.94L7.33 6v1.33H6l-3.11-3.1-.94.94 2.16 2.16H1.33v1.34h2.78l-2.16 2.16.94.94L6 8.67h1.33V10l-3.1 3.11.94.94 2.16-2.16v2.78h1.34v-2.78l2.16 2.16.94-.94L8.67 10V8.67H10l3.11 3.1.94-.94-2.16-2.16h2.78z"/>
    <path id="g" d="M14.67 7.33h-2.78l2.16-2.16-.94-.94L10 7.33H8.67V6l3.1-3.11-.94-.94-2.16 2.16V1.33H7.33v2.78L5.17 1.95l-.94.94L7.33 6v1.33H6l-3.11-3.1-.94.94 2.16 2.16H1.33v1.34h2.78l-2.16 2.16.94.94L6 8.67h1.33V10l-3.1 3.11.94.94 2.16-2.16v2.78h1.34v-2.78l2.16 2.16.94-.94L8.67 10V8.67H10l3.11 3.1.94-.94-2.16-2.16h2.78z"/>
    <path id="i" d="M10.67 2.67H9.33V1.33H6.67v1.34H5.33a.9.9 0 0 0-.89.89v9.77c0 .5.4.9.9.9h5.33a.9.9 0 0 0 .89-.9V3.56a.9.9 0 0 0-.9-.9zm-1.96 9.6H7.3v-1.43H8.7v1.43zm1-4.35l-.5.52c-.36.36-.61 1-.61 1.34H7.29c0-.62.46-1.28.8-1.63l.7-.7a1.1 1.1 0 0 0-.78-1.9c-.61 0-1.11.5-1.11 1.12H5.78a2.22 2.22 0 0 1 4.44 0c0 .49-.2.93-.51 1.25z"/>
    <path id="k" d="M10.67 2.67H9.33V1.33H6.67v1.34H5.33a.9.9 0 0 0-.89.89v9.77c0 .5.4.9.9.9h5.33a.9.9 0 0 0 .89-.9V3.56a.9.9 0 0 0-.9-.9zm-1.96 9.6H7.3v-1.43H8.7v1.43zm1-4.35l-.5.52c-.36.36-.61 1-.61 1.34H7.29c0-.62.46-1.28.8-1.63l.7-.7a1.1 1.1 0 0 0-.78-1.9c-.61 0-1.11.5-1.11 1.12H5.78a2.22 2.22 0 0 1 4.44 0c0 .49-.2.93-.51 1.25z"/>
    <path id="m" d="M10.67 2.67H9.33V1.33H6.67v1.34H5.33a.9.9 0 0 0-.89.89v9.77c0 .5.4.9.9.9h5.33a.9.9 0 0 0 .89-.9V3.56a.9.9 0 0 0-.9-.9zm-1.96 9.6H7.3v-1.43H8.7v1.43zm1-4.35l-.5.52c-.36.36-.61 1-.61 1.34H7.29c0-.62.46-1.28.8-1.63l.7-.7a1.1 1.1 0 0 0-.78-1.9c-.61 0-1.11.5-1.11 1.12H5.78a2.22 2.22 0 0 1 4.44 0c0 .49-.2.93-.51 1.25z"/>
    <path id="o" d="M8 12.36L3.07 8.54 2 9.38l6 4.67 6-4.67-1.09-.85L8 12.36zm0-1.7l4.9-3.81L14 6 8 1.33 2 6l1.09.85L8 10.67z"/>
    <filter id="q" width="168.4%" height="161.9%" x="-34.2%" y="-31%" filterUnits="objectBoundingBox">
      <feOffset dy="1" in="SourceAlpha" result="shadowOffsetOuter1"/>
      <feGaussianBlur in="shadowOffsetOuter1" result="shadowBlurOuter1" stdDeviation="1"/>
      <feColorMatrix in="shadowBlurOuter1" result="shadowMatrixOuter1" values="0 0 0 0 0 0 0 0 0 0 0 0 0 0 0 0 0 0 0.5 0"/>
      <feMerge>
        <feMergeNode in="shadowMatrixOuter1"/>
        <feMergeNode in="SourceGraphic"/>
      </feMerge>
    </filter>
  </defs>
  <g fill="none" fill-rule="evenodd">
    <path fill="#FFF" stroke="#B8C7D2" d="M.5.5h725v367H.5z"/>
    <g transform="translate(231 137)">
      <use fill="#000" filter="url(#a)" xlink:href="#b"/>
      <path fill="#FFF" stroke="#2A77C7" stroke-width="2" d="M225.76 3.03H237a4 4 0 0 1 4 4v181.75a4 4 0 0 1-4 4H3a4 4 0 0 1-4-4V7.03a4 4 0 0 1 4-4h212.97l3.49-3.45a2 2 0 0 1 2.8 0l3.5 3.45z"/>
    </g>
    <path fill="#FFF" d="M231 146h240v34H231z"/>
    <g transform="translate(441 155)">
      <mask id="d" fill="#fff">
        <use xlink:href="#c"/>
      </mask>
      <g fill="#233745" mask="url(#d)">
        <path d="M0 0h16v16H0z"/>
      </g>
    </g>
    <text fill="#3E5667" font-family="Lato-Semibold, Lato" font-size="14" font-weight="500" transform="translate(231 146)">
      <tspan x="36" y="22">Dropdown Item</tspan>
    </text>
    <g transform="translate(243 155)">
      <mask id="f" fill="#fff">
        <use xlink:href="#e"/>
      </mask>
      <g fill="#233745" mask="url(#f)">
        <path d="M0 0h16v16H0z"/>
      </g>
    </g>
    <rect width="230" height="39" x="236" y="177" fill="#E2E9EE" rx="4"/>
    <text fill="#3E5667" font-family="Lato-Semibold, Lato" font-size="14" font-weight="500" transform="translate(243 188)">
      <tspan x="24" y="14">Dropdown Item</tspan>
    </text>
    <g transform="translate(243 189)">
      <mask id="h" fill="#fff">
        <use xlink:href="#g"/>
      </mask>
      <g fill="#233745" mask="url(#h)">
        <path d="M0 0h16v16H0z"/>
      </g>
    </g>
    <path fill="#FFF" d="M231 217h240v34H231z"/>
    <text fill="#3E5667" font-family="Lato-Semibold, Lato" font-size="14" font-weight="500" transform="translate(231 217)">
      <tspan x="36" y="22">Dropdown Item</tspan>
    </text>
    <text fill="#3E5667" font-family="LucidaGrande-Bold, Lucida Grande" font-size="14" font-weight="bold" transform="translate(231 217)">
      <tspan x="206" y="22">⌘</tspan> <tspan x="218.99" y="22" font-family="Lato-Semibold, Lato" font-weight="500">5</tspan>
    </text>
    <g transform="translate(243 226)">
      <mask id="j" fill="#fff">
        <use xlink:href="#i"/>
      </mask>
      <g fill="#233745" mask="url(#j)">
        <path d="M0 0h16v16H0z"/>
      </g>
    </g>
    <path fill="#FFF" d="M231 254h240v34H231z"/>
    <text fill="#3E5667" font-family="Lato-Semibold, Lato" font-size="14" font-weight="500" transform="translate(231 254)">
      <tspan x="36" y="22">Dropdown Item</tspan>
    </text>
    <text fill="#3E5667" font-family="LucidaGrande-Bold, Lucida Grande" font-size="14" font-weight="bold" transform="translate(231 254)">
      <tspan x="206" y="22">⌘</tspan> <tspan x="218.99" y="22" font-family="Lato-Semibold, Lato" font-weight="500">5</tspan>
    </text>
    <g transform="translate(243 263)">
      <mask id="l" fill="#fff">
        <use xlink:href="#k"/>
      </mask>
      <g fill="#233745" mask="url(#l)">
        <path d="M0 0h16v16H0z"/>
      </g>
    </g>
    <path fill="#FFF" d="M231 291h240v34H231z"/>
    <text fill="#3E5667" font-family="Lato-Semibold, Lato" font-size="14" font-weight="500" transform="translate(231 291)">
      <tspan x="36" y="22">Dropdown Item</tspan>
    </text>
    <text fill="#3E5667" font-family="LucidaGrande-Bold, Lucida Grande" font-size="14" font-weight="bold" transform="translate(231 291)">
      <tspan x="206" y="22">⌘</tspan> <tspan x="218.99" y="22" font-family="Lato-Semibold, Lato" font-weight="500">5</tspan>
    </text>
    <g transform="translate(243 300)">
      <mask id="n" fill="#fff">
        <use xlink:href="#m"/>
      </mask>
      <g fill="#233745" mask="url(#n)">
        <path d="M0 0h16v16H0z"/>
      </g>
    </g>
    <g transform="translate(192 76)">
      <rect width="282" height="46" x="-1" y="-1" fill="#FFF" stroke="#2A77C7" stroke-width="2" rx="3"/>
      <text fill="#253B53" font-family="Lato-Medium, Lato" font-size="15" font-weight="400">
        <tspan x="36" y="28">Dropdown Label</tspan>
      </text>
      <g transform="translate(12 14)">
        <mask id="p" fill="#fff">
          <use xlink:href="#o"/>
        </mask>
        <g fill="#233745" mask="url(#p)">
          <path d="M0 0h16v16H0z"/>
        </g>
      </g>
      <path fill="#2A77C7" d="M261.32 19.43l4.14 6.02a.5.5 0 0 1-.41.78h-9.1a.5.5 0 0 1-.41-.78l4.14-6.02a1 1 0 0 1 1.64 0z"/>
    </g>
    <g filter="url(#q)" transform="translate(322 198)">
      <path fill="#FFF" d="M5.07 1.27h5.06v3.8h5.07v1.26h2.53V7.6H19v6.33h-1.27v2.54h-1.26v3.8h-2.54V19h-1.26v1.27H6.33v-2.54H5.07v-1.26H3.8V15.2H2.53v-2.53H1.27V11.4H0V8.87h1.27V7.6H3.8v1.27h1.27z"/>
      <path fill="#000" d="M17.73 12.67H19v1.26h-1.27zM17.73 10.13H19v1.27h-1.27zM17.73 11.4H19v1.27h-1.27zM17.73 8.87H19v1.26h-1.27zM17.73 7.6H19v1.27h-1.27zM16.47 13.93h1.26v1.27h-1.26zM16.47 15.2h1.26v1.27h-1.26zM16.47 6.33h1.26V7.6h-1.26zM15.2 17.73h1.27V19H15.2zM15.2 19h1.27v1.27H15.2zM15.2 16.47h1.27v1.26H15.2zM15.2 6.33h1.27V7.6H15.2zM15.2 7.6h1.27v1.27H15.2zM13.93 19h1.27v1.27h-1.27zM13.93 13.93h1.27v1.27h-1.27zM13.93 15.2h1.27v1.27h-1.27zM13.93 12.67h1.27v1.26h-1.27zM13.93 11.4h1.27v1.27h-1.27zM13.93 5.07h1.27v1.26h-1.27zM12.67 17.73h1.26V19h-1.26zM12.67 6.33h1.26V7.6h-1.26zM12.67 5.07h1.26v1.26h-1.26zM12.67 7.6h1.26v1.27h-1.26zM11.4 19h1.27v1.27H11.4zM11.4 13.93h1.27v1.27H11.4zM11.4 15.2h1.27v1.27H11.4zM11.4 12.67h1.27v1.26H11.4zM11.4 11.4h1.27v1.27H11.4zM11.4 5.07h1.27v1.26H11.4zM10.13 19h1.27v1.27h-1.27zM10.13 5.07h1.27v1.26h-1.27zM8.87 19h1.26v1.27H8.87zM8.87 13.93h1.26v1.27H8.87zM8.87 15.2h1.26v1.27H8.87zM8.87 12.67h1.26v1.26H8.87zM8.87 11.4h1.26v1.27H8.87zM8.87 6.33h1.26V7.6H8.87zM8.87 3.8h1.26v1.27H8.87zM8.87 5.07h1.26v1.26H8.87zM8.87 7.6h1.26v1.27H8.87zM8.87 2.53h1.26V3.8H8.87z"/>
      <path fill="#000" d="M8.87 1.27h1.26v1.26H8.87zM7.6 19h1.27v1.27H7.6zM7.6 0h1.27v1.27H7.6zM6.33 17.73H7.6V19H6.33zM6.33 19H7.6v1.27H6.33zM6.33 0H7.6v1.27H6.33zM5.07 16.47h1.26v1.26H5.07zM5.07 10.13h1.26v1.27H5.07zM5.07 6.33h1.26V7.6H5.07zM5.07 3.8h1.26v1.27H5.07zM5.07 5.07h1.26v1.26H5.07zM5.07 8.87h1.26v1.26H5.07zM5.07 7.6h1.26v1.27H5.07zM5.07 2.53h1.26V3.8H5.07z"/>
      <path fill="#000" d="M5.07 1.27h1.26v1.26H5.07zM3.8 15.2h1.27v1.27H3.8zM3.8 8.87h1.27v1.26H3.8zM2.53 13.93H3.8v1.27H2.53zM2.53 12.67H3.8v1.26H2.53zM2.53 7.6H3.8v1.27H2.53zM1.27 11.4h1.26v1.27H1.27z"/>
      <path fill="#000" d="M1.27 7.6h1.26v1.27H1.27zM0 10.13h1.27v1.27H0zM0 8.87h1.27v1.26H0z"/>
    </g>
    <text fill="#3E5667" font-family="Lato-Medium, Lato" font-size="15" font-weight="400">
      <tspan x="0" y="397">Anatomy of the Dropdown component.</tspan>
    </text>
    <path fill="#B8C7D2" d="M481 232h40v1h-40zM481 96h40v1h-40zM476 75h10v1h-10z"/>
    <path fill="#B8C7D2" d="M481 75h1v43h-1zM481 136h1v195h-1z"/>
    <path fill="#B8C7D2" d="M476 117h10v1h-10zM476 136h10v1h-10zM476 330h10v1h-10zM127 78h1v20h-1z"/>
    <text fill="#233745" font-family="Lato-Semibold, Lato" font-size="14" font-weight="500">
      <tspan x="17.52" y="86">Icon (Optional)</tspan>
    </text>
    <text fill="#233745" font-family="Lato-Semibold, Lato" font-size="14" font-weight="500">
      <tspan x="120.78" y="165">Item</tspan>
    </text>
    <path fill="#B8C7D2" d="M127 98h71v1h-71zM169 160h50v1h-50z"/>
    <rect width="19.2" height="18.4" x="118" y="72" fill="#3E5667" rx="9.2"/>
    <rect width="19.2" height="18.4" x="159" y="151" fill="#3E5667" rx="9.2"/>
    <text fill="#FFF" font-family="Lato-Heavy, Lato" font-size="9.6" font-weight="600">
      <tspan x="124.82" y="84.2">3</tspan>
    </text>
    <path fill="#B8C7D2" d="M235 48h1v39h-1z"/>
    <text fill="#233745" font-family="Lato-Semibold, Lato" font-size="14" font-weight="500">
      <tspan x="182" y="56">Label</tspan>
    </text>
    <rect width="19.2" height="18.4" x="226" y="42" fill="#3E5667" rx="9.2"/>
    <text fill="#FFF" font-family="Lato-Heavy, Lato" font-size="9.6" font-weight="600">
      <tspan x="232.82" y="54.2">2</tspan>
    </text>
    <text fill="#233745" font-family="Lato-Semibold, Lato" font-size="14" font-weight="500">
      <tspan x="549.39" y="103">Container</tspan>
    </text>
    <rect width="19.2" height="18.4" x="520" y="88" fill="#3E5667" rx="9.2"/>
    <text fill="#FFF" font-family="Lato-Heavy, Lato" font-size="9.6" font-weight="600">
      <tspan x="526.82" y="100.2">1</tspan>
    </text>
    <text fill="#233745" font-family="Lato-Semibold, Lato" font-size="14" font-weight="500">
      <tspan x="549.26" y="238">Sheet</tspan>
    </text>
    <rect width="19.2" height="18.4" x="520" y="224" fill="#3E5667" rx="9.2"/>
    <text fill="#FFF" font-family="Lato-Heavy, Lato" font-size="9.6" font-weight="600">
      <tspan x="526.82" y="236.2">4</tspan>
    </text>
    <path fill="#B8C7D2" d="M461 163h60v1h-60z"/>
    <circle cx="462" cy="163.5" r="3" fill="#3E5667"/>
    <text fill="#233745" font-family="Lato-Semibold, Lato" font-size="14" font-weight="500">
      <tspan x="548.23" y="169">Item Toggle</tspan>
    </text>
    <rect width="19.2" height="18.4" x="520" y="155" fill="#3E5667" rx="9.2"/>
    <text fill="#FFF" font-family="Lato-Heavy, Lato" font-size="9.6" font-weight="600">
      <tspan x="526.82" y="167.2">7</tspan>
    </text>
    <path fill="#B8C7D2" d="M461 270h60v1h-60z"/>
    <circle cx="462" cy="270.5" r="3" fill="#3E5667"/>
    <text fill="#233745" font-family="Lato-Semibold, Lato" font-size="14" font-weight="500">
      <tspan x="546.74" y="276">Context Label (optional)</tspan>
    </text>
    <rect width="19.2" height="18.4" x="520" y="262" fill="#3E5667" rx="9.2"/>
    <text fill="#FFF" font-family="Lato-Heavy, Lato" font-size="9.6" font-weight="600">
      <tspan x="526.82" y="274.2">8</tspan>
    </text>
    <text fill="#FFF" font-family="Lato-Heavy, Lato" font-size="9.6" font-weight="600">
      <tspan x="165.82" y="163.2">5</tspan>
    </text>
    <circle cx="199" cy="98.5" r="3" fill="#3E5667"/>
    <circle cx="235" cy="88.5" r="3" fill="#3E5667"/>
    <circle cx="220" cy="160.5" r="3" fill="#3E5667"/>
    <text fill="#233745" font-family="Lato-Semibold, Lato" font-size="14" font-weight="500">
      <tspan x="70.03" y="200">Item (Hover)</tspan>
    </text>
    <path fill="#B8C7D2" d="M169 195h50v1h-50z"/>
    <rect width="19.2" height="18.4" x="159" y="186" fill="#3E5667" rx="9.2"/>
    <text fill="#FFF" font-family="Lato-Heavy, Lato" font-size="9.6" font-weight="600">
      <tspan x="165.82" y="198.2">6</tspan>
    </text>
    <circle cx="220" cy="195.5" r="3" fill="#3E5667"/>
  </g>
</svg>