<svg viewBox="0 0 740 254" xmlns="http://www.w3.org/2000/svg" xmlns:xlink="http://www.w3.org/1999/xlink"><g fill="none" fill-rule="evenodd"><path stroke="#B8C7D2" fill="#FFF" d="M.5.5h739v225H.5z"/><path d="M5.704 251v-9.96h3.592v-1.56H.24v1.56h3.6V251h1.864zm6.286.12c.603 0 1.148-.099 1.636-.296a3.482 3.482 0 001.248-.844 3.77 3.77 0 00.796-1.324c.187-.517.28-1.099.28-1.744s-.093-1.227-.28-1.744a3.729 3.729 0 00-.796-1.32 3.507 3.507 0 00-1.248-.84 4.329 4.329 0 00-1.636-.296c-.608 0-1.156.099-1.644.296a3.547 3.547 0 00-1.252.84 3.698 3.698 0 00-.8 1.32 5.113 5.113 0 00-.28 1.744c0 .645.094 1.227.28 1.744.187.517.454.959.8 1.324.347.365.764.647 1.252.844a4.351 4.351 0 001.644.296zm0-1.344c-.746 0-1.301-.247-1.664-.74-.362-.493-.544-1.199-.544-2.116s.182-1.625.544-2.124c.363-.499.918-.748 1.664-.748.736 0 1.284.25 1.644.748.36.499.54 1.207.54 2.124s-.18 1.623-.54 2.116c-.36.493-.908.74-1.644.74zm7.174 1.352c.3 0 .572-.025.82-.076.248-.05.48-.127.696-.228.216-.101.426-.225.628-.372.203-.147.408-.313.616-.5l.168.664c.06.155.131.257.216.308.086.05.211.076.376.076h.768v-5.184c0-.464-.065-.887-.196-1.268-.13-.381-.32-.71-.568-.988a2.505 2.505 0 00-.92-.644 3.235 3.235 0 00-1.252-.228c-1.274 0-2.373.43-3.296 1.288l.312.56c.054.09.122.167.204.228a.49.49 0 00.3.092.74.74 0 00.408-.124c.128-.083.275-.172.44-.268.166-.096.36-.185.584-.268.224-.083.502-.124.832-.124.486 0 .854.144 1.104.432.251.288.376.725.376 1.312v.544c-.928.021-1.708.11-2.34.264-.632.155-1.14.35-1.528.588-.386.237-.664.505-.832.804a1.855 1.855 0 00-.252.92c0 .368.06.688.18.96s.284.5.492.684c.208.184.455.321.74.412.286.09.594.136.924.136zm.52-1.2c-.176 0-.337-.02-.484-.06a1.041 1.041 0 01-.384-.192.897.897 0 01-.256-.336 1.191 1.191 0 01-.092-.492c0-.197.058-.379.172-.544.115-.165.303-.308.564-.428.262-.12.603-.219 1.024-.296a10.88 10.88 0 011.552-.148v1.512c-.304.32-.617.564-.94.732-.322.168-.708.252-1.156.252zm7.79 1.2c.513 0 .967-.067 1.365-.2.397-.133.729-.32.996-.56.266-.24.469-.523.608-.848.138-.325.208-.68.208-1.064 0-.33-.059-.612-.176-.844a1.876 1.876 0 00-.464-.592c-.192-.163-.411-.3-.656-.412a7.586 7.586 0 00-.752-.296 30.02 30.02 0 00-.752-.24 4.501 4.501 0 01-.656-.252 1.524 1.524 0 01-.464-.332.683.683 0 01-.176-.48c0-.144.032-.279.096-.404a.977.977 0 01.276-.328c.12-.093.266-.165.44-.216.173-.05.366-.076.58-.076.261 0 .489.028.684.084.194.056.364.119.508.188.144.07.269.132.376.188a.643.643 0 00.296.084c.08 0 .146-.016.2-.048a.427.427 0 00.144-.16l.384-.624a3.252 3.252 0 00-1.128-.72 4.06 4.06 0 00-1.496-.264c-.486 0-.914.065-1.284.196a2.8 2.8 0 00-.936.532 2.252 2.252 0 00-.772 1.704c0 .357.058.66.176.908.117.248.273.459.468.632a2.6 2.6 0 00.664.428c.248.112.5.21.756.296.256.085.508.165.756.24.248.075.469.16.664.256.194.096.35.21.468.344a.746.746 0 01.176.512 1.012 1.012 0 01-.36.8 1.33 1.33 0 01-.464.252 2.135 2.135 0 01-.664.092c-.31 0-.568-.036-.776-.108a3.04 3.04 0 01-.532-.236 8.237 8.237 0 01-.384-.236.598.598 0 00-.332-.108.494.494 0 00-.268.068.554.554 0 00-.18.188l-.4.656c.16.144.342.277.548.4.205.123.426.228.664.316.237.088.488.157.752.208.264.05.537.076.82.076zm7.23 0c.385 0 .758-.063 1.12-.188a2.79 2.79 0 00.945-.54l-.512-.84c-.059-.107-.136-.16-.232-.16a.263.263 0 00-.148.052c-.05.035-.11.072-.18.112-.07.04-.152.077-.248.112s-.21.052-.344.052a.75.75 0 01-.576-.232c-.144-.155-.216-.379-.216-.672v-4.632h2.264v-1.24h-2.264v-2.68h-.88a.375.375 0 00-.256.084.455.455 0 00-.136.22l-.376 2.36-1.32.192v.696c0 .123.035.215.104.276.07.061.152.092.248.092h.896v4.752c0 .693.183 1.23.548 1.612.365.381.887.572 1.564.572zm6.701-.128c.16 0 .294-.045.4-.136a.766.766 0 00.224-.296l.96-2.544h4.96l.96 2.544c.054.123.131.225.232.308a.613.613 0 00.4.124h1.448l-4.568-11.52h-1.896L39.957 251h1.448zm6.04-4.32h-3.944l1.584-4.2c.059-.16.123-.345.192-.556.07-.21.134-.441.192-.692.134.501.264.915.392 1.24l1.584 4.208zm6.087 4.32v-5.944c.288-.304.596-.544.924-.72a2.224 2.224 0 011.068-.264c.517 0 .902.152 1.156.456.253.304.38.73.38 1.28V251h1.712v-5.192a4.27 4.27 0 00-.176-1.26 2.723 2.723 0 00-.524-.98 2.36 2.36 0 00-.856-.632 2.902 2.902 0 00-1.18-.224c-.283 0-.544.03-.784.088a3.23 3.23 0 00-.68.248 3.648 3.648 0 00-.604.38c-.19.147-.372.31-.548.492l-.12-.752c-.064-.219-.214-.328-.448-.328h-1.04V251h1.72zm8.822.128c.298 0 .572-.025.82-.076.248-.05.48-.127.696-.228.216-.101.425-.225.628-.372.202-.147.408-.313.616-.5l.168.664c.058.155.13.257.216.308.085.05.21.076.376.076h.768v-5.184c0-.464-.066-.887-.196-1.268s-.32-.71-.568-.988a2.505 2.505 0 00-.92-.644 3.235 3.235 0 00-1.252-.228c-1.275 0-2.374.43-3.296 1.288l.312.56c.053.09.121.167.204.228a.49.49 0 00.3.092.74.74 0 00.408-.124c.128-.083.274-.172.44-.268.165-.096.36-.185.584-.268.224-.083.501-.124.832-.124.485 0 .853.144 1.104.432.25.288.376.725.376 1.312v.544c-.928.021-1.708.11-2.34.264-.632.155-1.142.35-1.528.588-.387.237-.664.505-.832.804a1.855 1.855 0 00-.252.92c0 .368.06.688.18.96s.284.5.492.684c.208.184.454.321.74.412.285.09.593.136.924.136zm.52-1.2c-.176 0-.338-.02-.484-.06a1.041 1.041 0 01-.384-.192.897.897 0 01-.256-.336 1.191 1.191 0 01-.092-.492c0-.197.057-.379.172-.544.114-.165.302-.308.564-.428.261-.12.602-.219 1.024-.296a10.88 10.88 0 011.552-.148v1.512c-.304.32-.618.564-.94.732-.323.168-.708.252-1.156.252zm8.102 1.2c.384 0 .757-.063 1.12-.188a2.79 2.79 0 00.944-.54l-.512-.84c-.059-.107-.136-.16-.232-.16a.263.263 0 00-.148.052c-.05.035-.11.072-.18.112-.07.04-.152.077-.248.112s-.21.052-.344.052a.75.75 0 01-.576-.232c-.144-.155-.216-.379-.216-.672v-4.632h2.264v-1.24h-2.264v-2.68h-.88a.375.375 0 00-.256.084.455.455 0 00-.136.22l-.376 2.36-1.32.192v.696c0 .123.035.215.104.276.07.061.152.092.248.092h.896v4.752c0 .693.183 1.23.548 1.612.365.381.887.572 1.564.572zm6.526-.008c.603 0 1.148-.099 1.636-.296a3.482 3.482 0 001.248-.844 3.77 3.77 0 00.796-1.324c.187-.517.28-1.099.28-1.744s-.093-1.227-.28-1.744a3.729 3.729 0 00-.796-1.32 3.507 3.507 0 00-1.248-.84 4.329 4.329 0 00-1.636-.296c-.608 0-1.156.099-1.644.296a3.547 3.547 0 00-1.252.84 3.698 3.698 0 00-.8 1.32 5.113 5.113 0 00-.28 1.744c0 .645.094 1.227.28 1.744.187.517.454.959.8 1.324.347.365.764.647 1.252.844a4.351 4.351 0 001.644.296zm0-1.344c-.746 0-1.301-.247-1.664-.74-.362-.493-.544-1.199-.544-2.116s.182-1.625.544-2.124c.363-.499.918-.748 1.664-.748.736 0 1.284.25 1.644.748.36.499.54 1.207.54 2.124s-.18 1.623-.54 2.116c-.36.493-.908.74-1.644.74zm7.15 1.224v-6.016c.23-.283.48-.505.752-.668.272-.163.568-.244.888-.244.464 0 .816.14 1.056.42.24.28.36.719.36 1.316V251h1.72v-5.192c0-.288.042-.54.124-.756a1.446 1.446 0 01.844-.868c.192-.075.398-.112.616-.112.486 0 .852.145 1.1.436.248.29.372.724.372 1.3V251h1.72v-5.192c0-.49-.06-.928-.184-1.312a2.627 2.627 0 00-.54-.972 2.32 2.32 0 00-.872-.604 3.113 3.113 0 00-1.172-.208c-.266 0-.529.03-.788.092a2.838 2.838 0 00-.732.284 2.507 2.507 0 00-1.088 1.224 3.033 3.033 0 00-.304-.664 2.05 2.05 0 00-.436-.504 1.831 1.831 0 00-.58-.32 2.216 2.216 0 00-.72-.112 2.542 2.542 0 00-1.276.332 3.029 3.029 0 00-.516.368c-.16.141-.314.297-.464.468l-.112-.712c-.064-.219-.213-.328-.448-.328h-1.04V251h1.72zm13.335 2.712c.17 0 .297-.035.38-.104a.843.843 0 00.212-.288l4.496-10.48h-1.376a.53.53 0 00-.48.336l-1.864 4.624a6.004 6.004 0 00-.144.4c-.043.133-.086.27-.128.408a12.343 12.343 0 00-.116-.404 8.61 8.61 0 00-.132-.396l-1.944-4.632a.62.62 0 00-.172-.236.494.494 0 00-.332-.1H94.89l3.328 7.608-1.504 3.264h1.272z" fill="#233744" fill-rule="nonzero"/><g transform="translate(200 60)"><use filter="url(#filter-2)" xlink:href="#path-1" fill="#000"/><rect fill="#FFF" width="340" height="101" rx="4"/><rect stroke="#E2E9EE" fill="none" x=".5" y=".5" width="339" height="100" rx="4"/></g><path d="M477.005 99c.756 0 1.443-.123 2.061-.367a4.6 4.6 0 001.59-1.033 4.621 4.621 0 001.025-1.592 5.56 5.56 0 00.364-2.048 5.56 5.56 0 00-.364-2.048 4.621 4.621 0 00-1.025-1.592 4.6 4.6 0 00-1.59-1.033c-.618-.245-1.305-.367-2.061-.367h-3.808V99h3.808zm0-1.323h-2.163v-7.434h2.163c.518 0 .985.085 1.4.255.415.17.769.415 1.06.732.292.317.516.707.672 1.169.157.462.235.982.235 1.561 0 .583-.078 1.105-.235 1.564-.156.46-.38.85-.672 1.17-.291.32-.645.563-1.06.731a3.704 3.704 0 01-1.4.252zm7.231-6.972c.14 0 .272-.027.396-.08.123-.054.232-.127.325-.218.093-.09.167-.197.22-.318a.941.941 0 00.081-.385c0-.14-.027-.27-.08-.392a1.012 1.012 0 00-.221-.319 1.074 1.074 0 00-.325-.216.983.983 0 00-.778 0 1.01 1.01 0 00-.311.216c-.089.092-.16.198-.214.319a.958.958 0 00-.08.392c0 .135.027.264.08.385.054.121.125.227.214.318.089.092.192.164.311.218.12.053.247.08.382.08zm.77 8.295v-7.14h-1.505V99h1.505zm3.815.112c.448 0 .846-.058 1.193-.175.348-.117.639-.28.872-.49.233-.21.41-.457.532-.742a2.35 2.35 0 00.182-.931c0-.29-.051-.535-.154-.738a1.642 1.642 0 00-.406-.519 2.467 2.467 0 00-.574-.36 6.637 6.637 0 00-.658-.259 26.265 26.265 0 00-.658-.21 3.938 3.938 0 01-.574-.22 1.333 1.333 0 01-.406-.291.598.598 0 01-.154-.42c0-.126.028-.244.084-.354a.855.855 0 01.241-.286c.105-.082.234-.145.385-.19.152-.044.321-.066.508-.066.229 0 .428.024.598.073.17.05.319.104.445.165.126.06.236.115.329.165.093.049.18.073.259.073.07 0 .128-.014.175-.042a.374.374 0 00.126-.14l.336-.546a2.846 2.846 0 00-.987-.63 3.553 3.553 0 00-1.309-.231c-.425 0-.8.057-1.124.172a2.45 2.45 0 00-.819.465 1.97 1.97 0 00-.675 1.491c0 .313.051.578.154.795.103.217.24.4.41.553.17.151.363.276.58.374.217.098.438.184.662.259.224.075.444.145.661.21.217.065.411.14.581.224.17.084.307.184.41.301a.653.653 0 01.154.448.886.886 0 01-.315.7 1.164 1.164 0 01-.406.22c-.163.054-.357.081-.581.081-.27 0-.497-.031-.679-.094a2.66 2.66 0 01-.466-.207 7.208 7.208 0 01-.336-.206.524.524 0 00-.29-.095.432.432 0 00-.235.06.485.485 0 00-.157.164l-.35.574c.14.126.3.243.48.35.18.107.373.2.58.277.208.076.427.137.658.181a3.8 3.8 0 00.718.067zm5.698-.112v-5.264c.2-.247.42-.442.658-.585.238-.142.497-.213.777-.213.406 0 .714.122.924.367.21.245.315.63.315 1.152V99h1.505v-4.543c0-.252.036-.473.108-.662a1.265 1.265 0 01.739-.76c.168-.064.348-.097.539-.097.425 0 .745.127.962.381.217.255.326.634.326 1.138V99h1.505v-4.543c0-.43-.054-.812-.161-1.148a2.299 2.299 0 00-.473-.85 2.03 2.03 0 00-.763-.529 2.724 2.724 0 00-1.025-.182c-.233 0-.463.027-.69.08-.226.054-.44.137-.64.249a2.194 2.194 0 00-.952 1.071 2.654 2.654 0 00-.266-.581 1.794 1.794 0 00-.382-.441 1.602 1.602 0 00-.507-.28 1.939 1.939 0 00-.63-.098 2.224 2.224 0 00-1.117.29 2.65 2.65 0 00-.451.322c-.14.124-.275.26-.406.41l-.098-.623c-.056-.191-.187-.287-.392-.287h-.91V99h1.505zm10.92-8.295c.14 0 .272-.027.395-.08.124-.054.233-.127.326-.218.093-.09.167-.197.22-.318a.941.941 0 00.081-.385c0-.14-.027-.27-.08-.392a1.012 1.012 0 00-.221-.319 1.074 1.074 0 00-.326-.216.983.983 0 00-.777 0 1.01 1.01 0 00-.311.216c-.089.092-.16.198-.214.319a.958.958 0 00-.08.392c0 .135.027.264.08.385.054.121.125.227.214.318.089.092.192.164.311.218.12.053.247.08.382.08zm.77 8.295v-7.14h-1.505V99h1.505zm3.815.112c.448 0 .846-.058 1.193-.175.348-.117.639-.28.872-.49.233-.21.41-.457.532-.742a2.35 2.35 0 00.182-.931c0-.29-.051-.535-.154-.738a1.642 1.642 0 00-.406-.519 2.467 2.467 0 00-.574-.36 6.637 6.637 0 00-.658-.259 26.265 26.265 0 00-.658-.21 3.938 3.938 0 01-.574-.22 1.333 1.333 0 01-.406-.291.598.598 0 01-.154-.42c0-.126.028-.244.084-.354a.855.855 0 01.242-.286c.104-.082.233-.145.384-.19.152-.044.321-.066.508-.066.229 0 .428.024.598.073.17.05.319.104.445.165.126.06.236.115.329.165.093.049.18.073.259.073.07 0 .128-.014.175-.042a.374.374 0 00.126-.14l.336-.546a2.846 2.846 0 00-.987-.63 3.553 3.553 0 00-1.309-.231c-.425 0-.8.057-1.124.172a2.45 2.45 0 00-.819.465 1.97 1.97 0 00-.675 1.491c0 .313.051.578.154.795.103.217.24.4.41.553.17.151.363.276.58.374.217.098.438.184.662.259.224.075.444.145.661.21.217.065.411.14.581.224.17.084.307.184.41.301a.653.653 0 01.154.448.886.886 0 01-.315.7 1.164 1.164 0 01-.406.22c-.163.054-.357.081-.581.081-.27 0-.497-.031-.679-.094a2.66 2.66 0 01-.466-.207 7.208 7.208 0 01-.336-.206.524.524 0 00-.29-.095.432.432 0 00-.235.06.485.485 0 00-.157.164l-.35.574c.14.126.3.243.48.35.18.107.373.2.58.277.208.076.427.137.658.181a3.8 3.8 0 00.718.067zm6.111 0c.448 0 .846-.058 1.194-.175.347-.117.638-.28.871-.49.233-.21.41-.457.532-.742a2.35 2.35 0 00.182-.931c0-.29-.051-.535-.154-.738a1.642 1.642 0 00-.406-.519 2.467 2.467 0 00-.574-.36 6.637 6.637 0 00-.658-.259 26.265 26.265 0 00-.658-.21 3.938 3.938 0 01-.574-.22 1.333 1.333 0 01-.406-.291.598.598 0 01-.154-.42c0-.126.028-.244.084-.354a.855.855 0 01.242-.286c.105-.082.233-.145.385-.19.151-.044.32-.066.507-.066.229 0 .428.024.599.073.17.05.318.104.444.165.126.06.236.115.329.165.093.049.18.073.259.073.07 0 .128-.014.175-.042a.374.374 0 00.126-.14l.336-.546a2.846 2.846 0 00-.987-.63 3.553 3.553 0 00-1.309-.231c-.425 0-.8.057-1.123.172a2.45 2.45 0 00-.82.465 1.97 1.97 0 00-.675 1.491c0 .313.051.578.154.795.103.217.24.4.41.553.17.151.364.276.58.374.218.098.438.184.662.259.224.075.445.145.662.21.217.065.41.14.58.224.17.084.307.184.41.301a.653.653 0 01.154.448.886.886 0 01-.315.7 1.164 1.164 0 01-.406.22c-.163.054-.357.081-.581.081-.27 0-.497-.031-.679-.094a2.66 2.66 0 01-.465-.207 7.208 7.208 0 01-.336-.206.524.524 0 00-.291-.095.432.432 0 00-.234.06.485.485 0 00-.158.164l-.35.574c.14.126.3.243.48.35.18.107.373.2.58.277.208.076.428.137.659.181a3.8 3.8 0 00.717.067z" fill="#3E5667" fill-rule="nonzero"/><path d="M245.552 90l.008-1.512h-5.312v-3.56h4.24v-1.464h-4.24v-3.472h5.304V78.48h-7.184V90h7.184zm2.312 0a.392.392 0 00.284-.104c.072-.07.137-.147.196-.232l1.704-2.544c.08-.133.144-.29.192-.472l1.88 3.016a.91.91 0 00.188.232c.077.07.183.104.316.104h1.648l-2.824-4.28 2.712-3.88h-1.576c-.165 0-.301.09-.408.272l-1.56 2.344c-.101.16-.176.328-.224.504l-1.848-2.88a.542.542 0 00-.164-.18c-.061-.04-.159-.06-.292-.06h-1.648l2.712 3.952L246.328 90h1.536zm9.312.128c.299 0 .572-.025.82-.076.248-.05.48-.127.696-.228.216-.101.425-.225.628-.372s.408-.313.616-.5l.168.664c.059.155.13.257.216.308.085.05.21.076.376.076h.768v-5.184c0-.464-.065-.887-.196-1.268-.13-.381-.32-.71-.568-.988a2.505 2.505 0 00-.92-.644 3.235 3.235 0 00-1.252-.228c-1.275 0-2.373.43-3.296 1.288l.312.56c.053.09.121.167.204.228a.49.49 0 00.3.092.74.74 0 00.408-.124c.128-.083.275-.172.44-.268.165-.096.36-.185.584-.268.224-.083.501-.124.832-.124.485 0 .853.144 1.104.432.25.288.376.725.376 1.312v.544c-.928.021-1.708.11-2.34.264-.632.155-1.141.35-1.528.588-.387.237-.664.505-.832.804a1.855 1.855 0 00-.252.92c0 .368.06.688.18.96s.284.5.492.684c.208.184.455.321.74.412.285.09.593.136.924.136zm.52-1.2c-.176 0-.337-.02-.484-.06a1.041 1.041 0 01-.384-.192.897.897 0 01-.256-.336 1.191 1.191 0 01-.092-.492c0-.197.057-.379.172-.544.115-.165.303-.308.564-.428.261-.12.603-.219 1.024-.296a10.88 10.88 0 011.552-.148v1.512c-.304.32-.617.564-.94.732-.323.168-.708.252-1.156.252zM265.192 90v-6.016c.23-.283.48-.505.752-.668.272-.163.568-.244.888-.244.464 0 .816.14 1.056.42.24.28.36.719.36 1.316V90h1.72v-5.192c0-.288.041-.54.124-.756a1.446 1.446 0 01.844-.868c.192-.075.397-.112.616-.112.485 0 .852.145 1.1.436.248.29.372.724.372 1.3V90h1.72v-5.192c0-.49-.061-.928-.184-1.312a2.627 2.627 0 00-.54-.972 2.32 2.32 0 00-.872-.604 3.113 3.113 0 00-1.172-.208c-.267 0-.53.03-.788.092a2.838 2.838 0 00-.732.284 2.507 2.507 0 00-1.088 1.224 3.033 3.033 0 00-.304-.664 2.05 2.05 0 00-.436-.504 1.831 1.831 0 00-.58-.32 2.216 2.216 0 00-.72-.112 2.542 2.542 0 00-1.276.332 3.029 3.029 0 00-.516.368c-.16.141-.315.297-.464.468l-.112-.712c-.064-.219-.213-.328-.448-.328h-1.04V90h1.72zm13.288 2.712v-3.464c.272.272.575.485.908.64.333.155.74.232 1.22.232.544 0 1.032-.108 1.464-.324.432-.216.8-.515 1.104-.896.304-.381.537-.832.7-1.352.163-.52.244-1.081.244-1.684 0-.672-.073-1.268-.22-1.788-.147-.52-.353-.956-.62-1.308a2.686 2.686 0 00-.96-.804 2.785 2.785 0 00-1.248-.276c-.576 0-1.081.123-1.516.368a4.31 4.31 0 00-1.164.968l-.144-.856c-.064-.219-.213-.328-.448-.328h-1.04v10.872h1.72zm1.736-3.92c-.347 0-.663-.063-.948-.188-.285-.125-.548-.343-.788-.652v-3.784c.272-.352.567-.623.884-.812.317-.19.695-.284 1.132-.284.288 0 .547.05.776.152.23.101.424.264.584.488.16.224.283.513.368.868.085.355.128.783.128 1.284 0 .97-.188 1.701-.564 2.192-.376.49-.9.736-1.572.736zM287.544 90V78.16h-1.72V90h1.72zm5.632.12c.288 0 .584-.023.888-.068.304-.045.6-.12.888-.224.288-.104.56-.239.816-.404.256-.165.485-.368.688-.608l-.488-.632a.367.367 0 00-.32-.16.693.693 0 00-.352.116 7.919 7.919 0 01-.464.256 4.094 4.094 0 01-.64.256 2.914 2.914 0 01-.872.116c-.352 0-.67-.055-.956-.164a1.914 1.914 0 01-.736-.5 2.483 2.483 0 01-.492-.844 4.098 4.098 0 01-.216-1.204h5.24c.155 0 .261-.045.32-.136.059-.09.088-.27.088-.536 0-.581-.087-1.1-.26-1.556a3.293 3.293 0 00-.724-1.156 3.052 3.052 0 00-1.104-.716 3.876 3.876 0 00-1.392-.244c-.603 0-1.143.105-1.62.316a3.606 3.606 0 00-1.984 2.14 4.594 4.594 0 00-.268 1.584c0 .71.1 1.336.3 1.88.2.544.477 1 .832 1.368.355.368.773.647 1.256.836.483.19 1.007.284 1.572.284zm1.848-5.12h-4.056c.096-.645.323-1.147.68-1.504.357-.357.848-.536 1.472-.536.31 0 .583.052.82.156.237.104.436.248.596.432.16.184.281.4.364.648.083.248.124.516.124.804zm8.88 5V78.16h-1.72V90h1.72zm3.872.128c.299 0 .572-.025.82-.076.248-.05.48-.127.696-.228.216-.101.425-.225.628-.372s.408-.313.616-.5l.168.664c.059.155.13.257.216.308.085.05.21.076.376.076h.768v-5.184c0-.464-.065-.887-.196-1.268-.13-.381-.32-.71-.568-.988a2.505 2.505 0 00-.92-.644 3.235 3.235 0 00-1.252-.228c-1.275 0-2.373.43-3.296 1.288l.312.56c.053.09.121.167.204.228a.49.49 0 00.3.092.74.74 0 00.408-.124c.128-.083.275-.172.44-.268.165-.096.36-.185.584-.268.224-.083.501-.124.832-.124.485 0 .853.144 1.104.432.25.288.376.725.376 1.312v.544c-.928.021-1.708.11-2.34.264-.632.155-1.141.35-1.528.588-.387.237-.664.505-.832.804a1.855 1.855 0 00-.252.92c0 .368.06.688.18.96s.284.5.492.684c.208.184.455.321.74.412.285.09.593.136.924.136zm.52-1.2c-.176 0-.337-.02-.484-.06a1.041 1.041 0 01-.384-.192.897.897 0 01-.256-.336 1.191 1.191 0 01-.092-.492c0-.197.057-.379.172-.544.115-.165.303-.308.564-.428.261-.12.603-.219 1.024-.296a10.88 10.88 0 011.552-.148v1.512c-.304.32-.617.564-.94.732-.323.168-.708.252-1.156.252zm9.64 1.192a3.26 3.26 0 001.448-.316c.432-.21.8-.51 1.104-.896.304-.387.537-.85.7-1.392a6.254 6.254 0 00.244-1.804 5.95 5.95 0 00-.216-1.668 3.781 3.781 0 00-.616-1.26 2.688 2.688 0 00-.972-.796 2.917 2.917 0 00-1.284-.276c-.533 0-1.008.11-1.424.328a4.117 4.117 0 00-1.128.88v-4.76h-1.72V90h1.12a.462.462 0 00.288-.08.436.436 0 00.144-.264l.072-.632c.139.17.284.323.436.456a2.488 2.488 0 001.092.564c.213.05.45.076.712.076zm-.424-1.328c-.336 0-.647-.063-.932-.188-.285-.125-.548-.343-.788-.652v-3.784c.272-.352.564-.623.876-.812.312-.19.679-.284 1.1-.284.608 0 1.076.216 1.404.648.328.432.492 1.117.492 2.056 0 1.03-.19 1.79-.568 2.28-.379.49-.907.736-1.584.736zm9.088 1.328c.288 0 .584-.023.888-.068.304-.045.6-.12.888-.224.288-.104.56-.239.816-.404.256-.165.485-.368.688-.608l-.488-.632a.367.367 0 00-.32-.16.693.693 0 00-.352.116 7.919 7.919 0 01-.464.256 4.094 4.094 0 01-.64.256 2.914 2.914 0 01-.872.116c-.352 0-.67-.055-.956-.164a1.914 1.914 0 01-.736-.5 2.483 2.483 0 01-.492-.844 4.098 4.098 0 01-.216-1.204h5.24c.155 0 .261-.045.32-.136.059-.09.088-.27.088-.536 0-.581-.087-1.1-.26-1.556a3.293 3.293 0 00-.724-1.156 3.052 3.052 0 00-1.104-.716 3.876 3.876 0 00-1.392-.244c-.603 0-1.143.105-1.62.316a3.606 3.606 0 00-1.984 2.14 4.594 4.594 0 00-.268 1.584c0 .71.1 1.336.3 1.88.2.544.477 1 .832 1.368.355.368.773.647 1.256.836.483.19 1.007.284 1.572.284zm1.848-5.12h-4.056c.096-.645.323-1.147.68-1.504.357-.357.848-.536 1.472-.536.31 0 .583.052.82.156.237.104.436.248.596.432.16.184.281.4.364.648.083.248.124.516.124.804zm4.896 5V78.16h-1.72V90h1.72z" fill="#1C2D39" fill-rule="nonzero"/><path d="M221 77.333A6.67 6.67 0 00214.333 84 6.67 6.67 0 00221 90.667 6.67 6.67 0 00227.667 84 6.67 6.67 0 00221 77.333zm.667 10h-1.334v-4h1.334v4zm0-5.333h-1.334v-1.333h1.334V82z" fill="#3A8FDD" fill-rule="nonzero"/><path d="M220.9 140v-8.806h3.192v-1.246h-7.882v1.246h3.206V140h1.484zm5.607 0v-5.215c.261-.285.545-.51.85-.675.306-.166.634-.249.984-.249.48 0 .838.141 1.071.423.233.283.35.678.35 1.187V140h1.372v-4.529c0-.401-.051-.768-.154-1.099a2.38 2.38 0 00-.455-.85 2.05 2.05 0 00-.745-.55 2.54 2.54 0 00-1.033-.196c-.471 0-.888.093-1.25.28a3.888 3.888 0 00-.99.735v-4.123h-1.365V140h1.365zm7.203-8.372a.941.941 0 00.669-.276c.086-.087.155-.187.206-.302a.887.887 0 000-.728 1.002 1.002 0 00-.206-.3.941.941 0 00-.669-.277.88.88 0 00-.357.073.963.963 0 00-.5.504.923.923 0 000 .728.951.951 0 00.857.578zm.693 8.372v-7.112h-1.365V140h1.365zm3.857.112a3.6 3.6 0 001.169-.175c.34-.117.627-.278.858-.483.23-.205.406-.45.525-.731.119-.283.178-.59.178-.921 0-.29-.053-.534-.157-.735a1.675 1.675 0 00-.413-.514 2.426 2.426 0 00-.581-.357 7.375 7.375 0 00-.665-.256 42.651 42.651 0 00-.666-.213 4.025 4.025 0 01-.58-.228 1.35 1.35 0 01-.413-.301.634.634 0 01-.158-.441c0-.135.03-.263.091-.382a.906.906 0 01.259-.308 1.27 1.27 0 01.41-.203c.16-.048.339-.073.535-.073.238 0 .443.026.616.077.173.051.323.107.451.168.129.06.238.117.33.168a.515.515 0 00.248.077.305.305 0 00.161-.038.382.382 0 00.119-.13l.301-.497a2.927 2.927 0 00-.977-.616 3.47 3.47 0 00-1.277-.224c-.41 0-.776.057-1.096.172-.32.114-.587.267-.804.458a1.96 1.96 0 00-.497.665 1.893 1.893 0 00-.172.791c0 .308.052.57.157.784.105.215.243.397.413.546.17.15.366.273.585.371.22.098.443.184.672.259.229.075.453.145.672.21.22.065.414.142.584.231.17.089.308.195.413.318a.694.694 0 01.158.466c0 .145-.028.282-.084.413a.963.963 0 01-.256.346c-.114.1-.257.18-.43.238a1.906 1.906 0 01-.609.088c-.28 0-.513-.032-.7-.095a2.544 2.544 0 01-.476-.21 5.167 5.167 0 01-.336-.213.477.477 0 00-.273-.098.419.419 0 00-.224.052.416.416 0 00-.14.151l-.322.525c.28.252.628.46 1.043.623.415.163.868.245 1.358.245zm8.477-8.484a.941.941 0 00.668-.276c.087-.087.156-.187.207-.302a.887.887 0 000-.728 1.002 1.002 0 00-.206-.3.941.941 0 00-.669-.277.88.88 0 00-.357.073.963.963 0 00-.5.504.923.923 0 000 .728.951.951 0 00.857.578zm.693 8.372v-7.112h-1.365V140h1.365zm3.857.112a3.6 3.6 0 001.169-.175c.34-.117.627-.278.858-.483.23-.205.406-.45.525-.731.119-.283.178-.59.178-.921 0-.29-.053-.534-.158-.735a1.675 1.675 0 00-.413-.514 2.426 2.426 0 00-.58-.357 7.375 7.375 0 00-.666-.256 42.651 42.651 0 00-.664-.213 4.025 4.025 0 01-.581-.228 1.35 1.35 0 01-.413-.301.634.634 0 01-.158-.441c0-.135.03-.263.091-.382a.906.906 0 01.259-.308 1.27 1.27 0 01.41-.203c.16-.048.339-.073.535-.073.238 0 .443.026.616.077.173.051.323.107.452.168.128.06.238.117.329.168a.515.515 0 00.248.077.305.305 0 00.161-.038.382.382 0 00.119-.13l.301-.497a2.927 2.927 0 00-.976-.616 3.47 3.47 0 00-1.278-.224c-.41 0-.776.057-1.095.172-.32.114-.588.267-.805.458a1.96 1.96 0 00-.497.665 1.893 1.893 0 00-.172.791c0 .308.053.57.158.784.105.215.242.397.413.546.17.15.365.273.584.371.22.098.443.184.672.259.229.075.453.145.672.21.22.065.414.142.585.231.17.089.308.195.413.318a.694.694 0 01.157.466c0 .145-.028.282-.084.413a.963.963 0 01-.255.346c-.115.1-.258.18-.431.238a1.906 1.906 0 01-.609.088c-.28 0-.513-.032-.7-.095a2.544 2.544 0 01-.476-.21 5.167 5.167 0 01-.336-.213.477.477 0 00-.273-.098.419.419 0 00-.224.052.416.416 0 00-.14.151l-.322.525c.28.252.628.46 1.043.623.415.163.868.245 1.358.245zm9.226 0c.266 0 .509-.023.728-.07.22-.047.426-.115.62-.207.193-.09.379-.2.556-.329.177-.128.357-.276.539-.444l.147.623c.042.121.098.204.168.248a.58.58 0 00.308.067h.609v-4.536c0-.401-.055-.768-.165-1.099a2.368 2.368 0 00-.486-.854 2.218 2.218 0 00-.791-.556 2.733 2.733 0 00-1.078-.2c-.555 0-1.065.093-1.53.28a4.069 4.069 0 00-1.291.847l.245.441c.042.07.097.13.165.182a.388.388 0 00.241.077c.117 0 .23-.037.34-.112.11-.075.238-.157.385-.248.147-.091.322-.174.525-.249.203-.075.453-.112.752-.112.443 0 .78.133 1.008.399.229.266.343.667.343 1.204v.518c-.807.019-1.487.093-2.04.224-.553.13-1.001.299-1.344.504-.343.205-.59.438-.742.697a1.578 1.578 0 00-.228.808c0 .317.053.595.157.833a1.67 1.67 0 001.071.949c.245.077.508.115.788.115zm.413-.959c-.159 0-.306-.019-.441-.056a.954.954 0 01-.353-.178.854.854 0 01-.238-.316 1.101 1.101 0 01-.088-.458c0-.187.054-.356.161-.508.107-.151.282-.283.525-.395a3.89 3.89 0 01.945-.27c.387-.067.859-.11 1.414-.129v1.4a3.927 3.927 0 01-.413.385c-.14.112-.287.206-.441.283a2.3 2.3 0 01-1.071.242zm6.461.847v-5.215c.261-.285.545-.51.85-.675.306-.166.634-.249.984-.249.48 0 .838.141 1.071.423.233.283.35.678.35 1.187V140h1.372v-4.529c0-.401-.051-.768-.154-1.099a2.38 2.38 0 00-.455-.85 2.05 2.05 0 00-.745-.55 2.54 2.54 0 00-1.033-.196 2.894 2.894 0 00-1.305.304 3.041 3.041 0 00-.536.347 4.82 4.82 0 00-.483.448l-.105-.714c-.047-.182-.166-.273-.357-.273h-.819V140h1.365zm13.013.098c.257 0 .517-.021.78-.063.264-.042.52-.107.767-.196.247-.089.48-.204.7-.346.22-.143.413-.312.581-.508l-.392-.504a.3.3 0 00-.259-.126.56.56 0 00-.29.105c-.11.07-.245.146-.406.228a3.819 3.819 0 01-.574.227c-.222.07-.485.105-.788.105-.322 0-.614-.051-.875-.154a1.766 1.766 0 01-.675-.469 2.24 2.24 0 01-.445-.787 3.842 3.842 0 01-.182-1.11h4.662c.126 0 .212-.036.259-.108.047-.073.07-.214.07-.424 0-.509-.076-.961-.227-1.358a2.867 2.867 0 00-.627-1.001 2.666 2.666 0 00-.948-.62 3.287 3.287 0 00-1.201-.213c-.518 0-.985.091-1.4.273a3.05 3.05 0 00-1.054.749c-.287.317-.507.69-.661 1.117a4.045 4.045 0 00-.231 1.382c0 .616.085 1.16.256 1.635.17.473.408.87.714 1.19.305.32.667.562 1.085.728a3.66 3.66 0 001.361.248zm1.701-4.445h-3.724c.089-.588.298-1.048.627-1.379.329-.331.78-.497 1.354-.497.28 0 .527.047.742.14.215.093.397.224.546.392a1.7 1.7 0 01.34.595c.077.229.115.478.115.749zm2.996 4.347c.098 0 .177-.03.238-.088.06-.058.114-.12.161-.185l1.575-2.324a.83.83 0 00.091-.182 10.1 10.1 0 00.07-.203l1.715 2.709a.785.785 0 00.15.185.361.361 0 00.256.088h1.316l-2.478-3.724 2.38-3.388h-1.253c-.14 0-.252.075-.336.224l-1.449 2.149a1.459 1.459 0 00-.112.214 3.122 3.122 0 00-.077.206l-1.687-2.597a.426.426 0 00-.13-.147.433.433 0 00-.234-.049h-1.316l2.38 3.451-2.478 3.661h1.218zm8.148.112c.266 0 .509-.023.728-.07.22-.047.426-.115.62-.207.193-.09.379-.2.556-.329.177-.128.357-.276.539-.444l.147.623c.042.121.098.204.168.248a.58.58 0 00.308.067h.609v-4.536c0-.401-.055-.768-.164-1.099a2.368 2.368 0 00-.487-.854 2.218 2.218 0 00-.791-.556 2.733 2.733 0 00-1.078-.2c-.555 0-1.065.093-1.53.28a4.069 4.069 0 00-1.291.847l.245.441c.042.07.097.13.165.182a.388.388 0 00.241.077c.117 0 .23-.037.34-.112.11-.075.238-.157.385-.248.147-.091.322-.174.525-.249.203-.075.453-.112.752-.112.443 0 .78.133 1.008.399.229.266.343.667.343 1.204v.518c-.807.019-1.487.093-2.04.224-.553.13-1.001.299-1.344.504-.343.205-.59.438-.742.697a1.578 1.578 0 00-.228.808c0 .317.053.595.158.833a1.67 1.67 0 001.07.949c.246.077.508.115.788.115zm.413-.959c-.159 0-.306-.019-.441-.056a.954.954 0 01-.353-.178.854.854 0 01-.238-.316 1.101 1.101 0 01-.088-.458c0-.187.054-.356.161-.508.107-.151.282-.283.525-.395a3.89 3.89 0 01.945-.27c.387-.067.859-.11 1.414-.129v1.4a3.927 3.927 0 01-.413.385c-.14.112-.287.206-.441.283a2.3 2.3 0 01-1.071.242zm6.461.847v-5.278c.21-.266.441-.476.693-.63.252-.154.525-.231.819-.231.425 0 .747.13.966.392.22.261.329.667.329 1.218V140h1.372v-4.529c0-.266.039-.5.116-.7.077-.2.182-.369.315-.504a1.29 1.29 0 01.465-.304c.177-.068.364-.102.56-.102.443 0 .78.135 1.012.406.23.27.346.672.346 1.204V140h1.372v-4.529c0-.43-.054-.812-.161-1.148a2.292 2.292 0 00-.469-.847 1.994 1.994 0 00-.752-.522 2.696 2.696 0 00-1.012-.178 2.86 2.86 0 00-.69.084c-.226.056-.44.142-.64.259a2.216 2.216 0 00-.945 1.099c-.135-.443-.35-.794-.644-1.053-.294-.26-.677-.389-1.148-.389-.43 0-.804.1-1.123.297-.32.199-.61.454-.872.767l-.098-.679c-.047-.182-.166-.273-.357-.273h-.819V140h1.365zm11.571 2.387V139.3c.238.252.509.448.812.588.303.14.667.21 1.092.21.476 0 .904-.094 1.285-.284.38-.188.702-.449.966-.78.263-.331.466-.722.609-1.172.142-.45.213-.94.213-1.467 0-.588-.064-1.108-.192-1.561a3.41 3.41 0 00-.543-1.141 2.308 2.308 0 00-.843-.7 2.505 2.505 0 00-1.103-.238 2.783 2.783 0 00-1.337.333c-.196.105-.38.23-.55.378-.17.147-.33.309-.479.486l-.119-.791c-.047-.182-.166-.273-.357-.273h-.819v9.499h1.365zm1.596-3.346c-.322 0-.612-.058-.871-.175-.26-.117-.501-.322-.725-.616v-3.367a2.95 2.95 0 01.809-.756 1.949 1.949 0 011.032-.266c.27 0 .513.048.728.143.215.096.396.245.543.448.147.203.259.465.336.784.077.32.115.706.115 1.159 0 .863-.171 1.52-.514 1.97-.343.45-.828.676-1.453.676zm6.314.959v-10.332h-1.372V140h1.372zm4.956.098c.257 0 .517-.021.78-.063.264-.042.52-.107.767-.196.247-.089.48-.204.7-.346.22-.143.413-.312.581-.508l-.392-.504a.3.3 0 00-.259-.126.56.56 0 00-.29.105c-.11.07-.245.146-.406.228a3.819 3.819 0 01-.574.227c-.222.07-.485.105-.788.105-.322 0-.614-.051-.875-.154a1.766 1.766 0 01-.675-.469 2.24 2.24 0 01-.445-.787 3.842 3.842 0 01-.182-1.11h4.662c.126 0 .212-.036.259-.108.047-.073.07-.214.07-.424 0-.509-.076-.961-.227-1.358a2.867 2.867 0 00-.627-1.001 2.666 2.666 0 00-.948-.62 3.287 3.287 0 00-1.201-.213c-.518 0-.985.091-1.4.273a3.05 3.05 0 00-1.053.749c-.287.317-.508.69-.662 1.117a4.045 4.045 0 00-.231 1.382c0 .616.085 1.16.256 1.635.17.473.408.87.714 1.19.305.32.667.562 1.085.728a3.66 3.66 0 001.361.248zm1.701-4.445h-3.724c.089-.588.298-1.048.627-1.379.329-.331.78-.497 1.354-.497.28 0 .527.047.742.14.215.093.397.224.546.392a1.7 1.7 0 01.34.595c.077.229.115.478.115.749zm9.758 4.347v-8.806h3.192v-1.246h-7.882v1.246h3.206V140h1.484zm5.691.098a3.76 3.76 0 001.418-.255c.422-.17.781-.415 1.078-.732.296-.317.523-.702.682-1.155a4.57 4.57 0 00.238-1.519c0-.56-.08-1.065-.238-1.515a3.276 3.276 0 00-.682-1.155 2.956 2.956 0 00-1.078-.735 3.76 3.76 0 00-1.418-.256 3.78 3.78 0 00-1.424.256c-.423.17-.783.415-1.082.735a3.29 3.29 0 00-.69 1.155 4.48 4.48 0 00-.241 1.515c0 .56.08 1.066.242 1.519.16.453.39.838.689 1.155.299.317.66.561 1.082.732.422.17.897.255 1.424.255zm0-1.064c-.681 0-1.189-.226-1.522-.679-.334-.453-.501-1.09-.501-1.911s.167-1.46.5-1.914c.334-.455.842-.683 1.523-.683.672 0 1.174.228 1.505.683.331.455.497 1.093.497 1.914s-.166 1.458-.497 1.911c-.331.453-.833.679-1.505.679zm6.419 1.078c.266 0 .509-.023.728-.07.22-.047.426-.115.62-.206.193-.091.379-.201.556-.33.177-.128.357-.276.539-.444l.147.623c.042.121.098.204.168.248a.58.58 0 00.308.067h.609v-4.536c0-.401-.055-.768-.164-1.099a2.368 2.368 0 00-.487-.854 2.218 2.218 0 00-.791-.556 2.733 2.733 0 00-1.078-.2c-.555 0-1.065.093-1.53.28a4.069 4.069 0 00-1.291.847l.245.441c.042.07.097.13.165.182a.388.388 0 00.241.077c.117 0 .23-.037.34-.112.11-.075.238-.157.385-.248.147-.091.322-.174.525-.249.203-.075.453-.112.752-.112.443 0 .78.133 1.008.399.229.266.343.667.343 1.204v.518c-.807.019-1.487.093-2.04.224-.553.13-1.001.299-1.344.504-.343.205-.59.438-.742.697a1.578 1.578 0 00-.228.808c0 .317.053.595.158.833a1.67 1.67 0 001.07.949c.246.077.508.115.788.115zm.413-.959c-.159 0-.306-.019-.441-.056a.954.954 0 01-.353-.178.854.854 0 01-.238-.316 1.101 1.101 0 01-.088-.458c0-.187.054-.356.161-.508.107-.151.282-.283.525-.395a3.89 3.89 0 01.945-.27c.387-.067.859-.11 1.414-.129v1.4a3.927 3.927 0 01-.413.385c-.14.112-.287.206-.441.283a2.3 2.3 0 01-1.071.242zm6.972.959a3.6 3.6 0 001.169-.175c.34-.117.627-.278.858-.483.23-.205.406-.45.525-.731.119-.283.178-.59.178-.921 0-.29-.053-.534-.157-.735a1.675 1.675 0 00-.414-.514 2.426 2.426 0 00-.58-.357 7.375 7.375 0 00-.666-.256 42.65 42.65 0 00-.665-.213 4.025 4.025 0 01-.58-.228 1.35 1.35 0 01-.414-.301.634.634 0 01-.157-.441c0-.135.03-.263.091-.382a.906.906 0 01.259-.308 1.27 1.27 0 01.41-.203c.16-.048.339-.073.535-.073.238 0 .443.026.616.077.173.051.323.107.451.168.129.06.238.117.33.168a.515.515 0 00.248.077.305.305 0 00.161-.038.382.382 0 00.119-.13l.301-.497a2.927 2.927 0 00-.977-.616 3.47 3.47 0 00-1.277-.224c-.41 0-.776.057-1.096.172-.32.114-.588.267-.805.458a1.96 1.96 0 00-.497.665 1.893 1.893 0 00-.171.791c0 .308.052.57.157.784.105.215.243.397.413.546.17.15.366.273.585.371.22.098.443.184.672.259.229.075.453.145.672.21.22.065.414.142.584.231.17.089.308.195.413.318a.694.694 0 01.158.466c0 .145-.028.282-.084.413a.963.963 0 01-.256.346c-.114.1-.257.18-.43.238a1.906 1.906 0 01-.609.088c-.28 0-.513-.032-.7-.095a2.544 2.544 0 01-.476-.21 5.167 5.167 0 01-.336-.213.477.477 0 00-.273-.098.419.419 0 00-.224.052.416.416 0 00-.14.151l-.322.525c.28.252.628.46 1.043.623.415.163.868.245 1.358.245zm6.433 0c.331 0 .651-.056.959-.168.308-.112.574-.27.798-.476l-.406-.658a.393.393 0 00-.08-.102.167.167 0 00-.109-.031.227.227 0 00-.126.049 3.124 3.124 0 01-.168.109c-.065.04-.143.075-.234.108a.965.965 0 01-.326.049.716.716 0 01-.529-.207c-.137-.137-.206-.346-.206-.626v-4.165h2.016V133h-2.016v-2.387h-.693a.313.313 0 00-.207.066.33.33 0 00-.108.186l-.308 2.121-1.155.161v.553c0 .098.027.171.08.22.054.05.12.074.2.074h.826v4.256c0 .597.155 1.057.465 1.379.31.322.753.483 1.327.483zm8.666-.014c.504 0 .949-.108 1.334-.326a3.77 3.77 0 001.032-.864l.119.819c.047.182.166.273.357.273h.826v-10.332h-1.372v3.892a2.582 2.582 0 00-.808-.595c-.301-.14-.667-.21-1.096-.21-.476 0-.903.095-1.281.284-.378.189-.7.449-.966.78a3.515 3.515 0 00-.609 1.176c-.14.453-.21.943-.21 1.47 0 .588.063 1.108.189 1.561.126.453.306.832.539 1.138.233.305.515.537.844.696.329.159.696.238 1.102.238zm.455-1.099a1.77 1.77 0 01-.728-.143 1.334 1.334 0 01-.542-.448 2.209 2.209 0 01-.336-.784 5.015 5.015 0 01-.116-1.159c0-.863.172-1.52.515-1.97.343-.45.827-.676 1.452-.676.322 0 .613.058.872.175.259.117.5.322.724.616v3.374a3.108 3.108 0 01-.812.749c-.29.177-.632.266-1.029.266zm8.134 1.099c.257 0 .517-.021.78-.063.264-.042.52-.107.767-.196.247-.089.48-.204.7-.346.22-.143.413-.312.581-.508l-.392-.504a.3.3 0 00-.259-.126.56.56 0 00-.29.105c-.11.07-.245.146-.406.228a3.819 3.819 0 01-.575.227c-.221.07-.484.105-.787.105-.322 0-.614-.051-.875-.154a1.766 1.766 0 01-.675-.469 2.24 2.24 0 01-.445-.787 3.842 3.842 0 01-.182-1.11h4.662c.126 0 .212-.036.259-.108.047-.073.07-.214.07-.424 0-.509-.076-.961-.227-1.358a2.867 2.867 0 00-.627-1.001 2.666 2.666 0 00-.948-.62 3.287 3.287 0 00-1.201-.213c-.518 0-.985.091-1.4.273a3.05 3.05 0 00-1.054.749c-.287.317-.507.69-.661 1.117a4.045 4.045 0 00-.231 1.382c0 .616.085 1.16.255 1.635.17.473.409.87.714 1.19.306.32.668.562 1.085.728a3.66 3.66 0 001.362.248zm1.701-4.445h-3.724c.089-.588.298-1.048.627-1.379.329-.331.78-.497 1.354-.497.28 0 .527.047.742.14.215.093.397.224.546.392a1.7 1.7 0 01.34.595c.077.229.115.478.115.749zm4.578 4.459a3.6 3.6 0 001.169-.175c.34-.117.627-.278.858-.483.23-.205.406-.45.525-.731.119-.283.178-.59.178-.921 0-.29-.052-.534-.157-.735a1.675 1.675 0 00-.413-.514 2.426 2.426 0 00-.581-.357 7.375 7.375 0 00-.665-.256 42.65 42.65 0 00-.665-.213 4.025 4.025 0 01-.581-.228 1.35 1.35 0 01-.413-.301.634.634 0 01-.158-.441c0-.135.03-.263.091-.382a.906.906 0 01.259-.308 1.27 1.27 0 01.41-.203c.16-.048.339-.073.535-.073.238 0 .443.026.616.077.173.051.323.107.452.168.128.06.238.117.329.168a.515.515 0 00.248.077.305.305 0 00.161-.038.382.382 0 00.119-.13l.301-.497a2.927 2.927 0 00-.976-.616 3.47 3.47 0 00-1.278-.224c-.41 0-.776.057-1.095.172-.32.114-.588.267-.805.458a1.96 1.96 0 00-.497.665 1.893 1.893 0 00-.172.791c0 .308.053.57.158.784.105.215.242.397.413.546.17.15.365.273.584.371.22.098.443.184.672.259.229.075.453.145.672.21.22.065.414.142.585.231.17.089.308.195.413.318a.694.694 0 01.157.466c0 .145-.028.282-.084.413a.963.963 0 01-.255.346c-.115.1-.258.18-.431.238a1.906 1.906 0 01-.609.088c-.28 0-.513-.032-.7-.095a2.544 2.544 0 01-.476-.21 5.167 5.167 0 01-.336-.213.477.477 0 00-.273-.098.419.419 0 00-.224.052.416.416 0 00-.14.151l-.322.525c.28.252.628.46 1.043.623.415.163.868.245 1.358.245zm6.958-.014c.257 0 .51-.021.76-.063.25-.042.488-.107.717-.196a3.13 3.13 0 00.648-.343c.203-.14.386-.31.549-.511l-.392-.504a.3.3 0 00-.259-.126.395.395 0 00-.259.109c-.084.072-.189.15-.315.234a2.38 2.38 0 01-.476.235 2.082 2.082 0 01-.728.108c-.303 0-.579-.057-.826-.171a1.688 1.688 0 01-.63-.504 2.396 2.396 0 01-.399-.82 4.017 4.017 0 01-.14-1.109c0-.401.044-.763.133-1.085.089-.322.218-.595.389-.819.17-.224.383-.397.64-.518s.553-.182.889-.182c.257 0 .473.03.648.088a2.753 2.753 0 01.756.378c.081.058.16.087.234.087a.278.278 0 00.172-.045c.04-.03.08-.072.122-.123l.364-.504a3.283 3.283 0 00-1.036-.693c-.387-.163-.835-.245-1.344-.245-.541 0-1.022.092-1.442.276-.42.185-.773.44-1.06.764-.287.324-.504.71-.651 1.158-.147.448-.221.936-.221 1.463 0 .579.082 1.096.245 1.55.163.456.386.84.669 1.152.282.313.616.55 1 .714.386.163.8.245 1.243.245zm5.313-.098v-4.452c.089-.229.184-.433.287-.612.103-.18.22-.332.354-.456.133-.123.283-.216.451-.28.168-.062.362-.094.581-.094.15 0 .29.013.42.038.13.026.229.039.294.039.121 0 .198-.063.231-.189l.091-1.029a1.127 1.127 0 00-.36-.158 1.77 1.77 0 00-.438-.052c-.453 0-.84.133-1.162.399-.322.266-.597.632-.826 1.099l-.084-1.001c-.023-.135-.062-.23-.115-.284-.054-.053-.156-.08-.305-.08h-.784V140h1.365zm4.501-8.372a.941.941 0 00.668-.276c.087-.087.156-.187.207-.302a.887.887 0 000-.728 1.002 1.002 0 00-.207-.3.941.941 0 00-.668-.277.88.88 0 00-.357.073.963.963 0 00-.5.504.923.923 0 000 .728.951.951 0 00.857.578zm.693 8.372v-7.112h-1.365V140h1.365zm3.346 2.387V139.3c.238.252.509.448.812.588.303.14.667.21 1.092.21.476 0 .904-.094 1.284-.284.38-.188.703-.449.966-.78.264-.331.467-.722.61-1.172.142-.45.213-.94.213-1.467 0-.588-.064-1.108-.192-1.561a3.41 3.41 0 00-.543-1.141 2.308 2.308 0 00-.844-.7 2.505 2.505 0 00-1.102-.238 2.783 2.783 0 00-1.337.333c-.196.105-.38.23-.55.378-.17.147-.33.309-.479.486l-.119-.791c-.047-.182-.166-.273-.357-.273h-.819v9.499h1.365zm1.596-3.346c-.322 0-.612-.058-.871-.175-.26-.117-.501-.322-.725-.616v-3.367a2.95 2.95 0 01.809-.756 1.949 1.949 0 011.032-.266c.27 0 .513.048.728.143.215.096.395.245.542.448.148.203.26.465.337.784.077.32.115.706.115 1.159 0 .863-.172 1.52-.514 1.97-.343.45-.828.676-1.453.676zm10.92-7.455a.941.941 0 00.668-.276c.087-.087.156-.187.207-.301a.911.911 0 000-.731.941.941 0 00-.875-.581.88.88 0 00-.357.073.963.963 0 00-.5.507.948.948 0 00.5 1.236.88.88 0 00.357.073zm-3.871 8.526c.331 0 .651-.056.959-.168.308-.112.574-.27.798-.476l-.406-.658a.393.393 0 00-.08-.102.167.167 0 00-.109-.031.227.227 0 00-.126.049 3.124 3.124 0 01-.168.109c-.065.04-.144.075-.235.108a.965.965 0 01-.325.049.716.716 0 01-.529-.207c-.137-.137-.206-.346-.206-.626v-4.165h3.57V140h1.372v-7h-4.942v-2.387h-.693a.313.313 0 00-.207.066.33.33 0 00-.108.186l-.301 2.121-1.162.161v.553c0 .098.027.171.08.22.054.05.12.074.2.074h.826v4.256c0 .597.155 1.057.465 1.379.31.322.753.483 1.327.483zm9.527-.014a3.76 3.76 0 001.418-.255c.422-.17.781-.415 1.078-.732.296-.317.523-.702.682-1.155a4.57 4.57 0 00.238-1.519c0-.56-.08-1.065-.238-1.515a3.276 3.276 0 00-.682-1.155 2.956 2.956 0 00-1.078-.735 3.76 3.76 0 00-1.418-.256 3.78 3.78 0 00-1.424.256c-.423.17-.783.415-1.082.735a3.29 3.29 0 00-.69 1.155 4.48 4.48 0 00-.241 1.515c0 .56.08 1.066.242 1.519.16.453.39.838.689 1.155.299.317.66.561 1.082.732.422.17.897.255 1.424.255zm0-1.064c-.681 0-1.189-.226-1.522-.679-.334-.453-.501-1.09-.501-1.911s.167-1.46.5-1.914c.334-.455.842-.683 1.523-.683.672 0 1.174.228 1.505.683.331.455.497 1.093.497 1.914s-.166 1.458-.497 1.911c-.331.453-.833.679-1.505.679zm6.3.966v-5.215c.261-.285.545-.51.85-.675.306-.166.634-.249.984-.249.48 0 .838.141 1.071.423.233.283.35.678.35 1.187V140h1.372v-4.529c0-.401-.051-.768-.154-1.099a2.38 2.38 0 00-.455-.85 2.05 2.05 0 00-.745-.55 2.54 2.54 0 00-1.033-.196 2.894 2.894 0 00-1.306.304 3.041 3.041 0 00-.535.347 4.82 4.82 0 00-.483.448l-.105-.714c-.047-.182-.166-.273-.357-.273h-.819V140h1.365zM222.433 110l.126-1.008h-1.757l1.106-9.065h-1.078l-3.101 2.597.343.574a.28.28 0 00.091.091.37.37 0 00.143.056c.054.01.114.007.179-.007a.54.54 0 00.203-.098l1.708-1.463a4.076 4.076 0 00-.056.315l-.042.308-.819 6.692h-1.953L217.4 110h5.033zm8.309 0l.098-.798c.019-.135-.01-.244-.084-.325-.075-.082-.182-.123-.322-.123h-2.821c-.177 0-.37.017-.578.052-.207.036-.414.081-.619.137l2.716-2.667c.322-.313.626-.617.913-.913.287-.297.54-.602.756-.917.217-.315.389-.65.515-1.001.126-.353.189-.744.189-1.173 0-.378-.06-.718-.182-1.018a2.144 2.144 0 00-1.309-1.25 2.95 2.95 0 00-1.015-.168c-.401 0-.784.062-1.148.185a3.188 3.188 0 00-.99.546c-.297.24-.556.538-.778.893-.221.355-.39.763-.507 1.225l.679.119c.177.028.319.013.424-.046.104-.058.197-.173.276-.346.07-.21.164-.402.283-.578.12-.174.257-.326.413-.454.157-.129.33-.23.522-.301.191-.073.397-.109.616-.109.196 0 .377.03.543.091a1.159 1.159 0 01.707.714c.067.177.101.383.101.616 0 .322-.044.622-.133.9-.089.277-.218.55-.389.819a6.02 6.02 0 01-.623.808c-.245.27-.523.56-.836.868l-3.297 3.199a.864.864 0 00-.217.273.85.85 0 00-.091.294l-.056.448h6.244zm3.444-5.075a.919.919 0 00.651-1.575.95.95 0 00-.294-.2.88.88 0 00-.357-.073.898.898 0 00-.655.273.93.93 0 00-.262.651.937.937 0 00.262.658c.082.084.179.15.291.196.112.047.233.07.364.07zm-.581 5.18a.919.919 0 00.651-1.575.95.95 0 00-.294-.2.88.88 0 00-.357-.073.898.898 0 00-.655.273.93.93 0 00-.262.651.937.937 0 00.262.658c.082.084.179.15.291.196.112.047.233.07.364.07zm7.763-.105l.322-2.611h1.029a.31.31 0 00.224-.08.32.32 0 00.098-.2l.091-.763h-1.316l.791-6.398h-1.239l-5.257 6.468.056.679a.325.325 0 00.336.294h4.039L240.22 110h1.148zm-.7-3.654h-3.157l3.787-4.767a8.341 8.341 0 00-.14.763l-.49 4.004zm6.272 3.766c.523 0 1.017-.094 1.484-.283a3.733 3.733 0 001.225-.798c.35-.343.626-.756.83-1.24.202-.482.304-1.02.304-1.613 0-.369-.055-.713-.165-1.032a2.303 2.303 0 00-.493-.833 2.3 2.3 0 00-.823-.557 2.992 2.992 0 00-1.144-.203c-.397 0-.824.051-1.281.154l.714-2.534h2.751c.28 0 .486-.06.62-.182a.732.732 0 00.234-.469l.07-.574h-4.459l-1.337 4.732.798.238c.532-.177 1.024-.266 1.477-.266.285 0 .533.04.745.123.213.081.389.196.529.343.14.147.245.324.315.532.07.207.105.437.105.689 0 .378-.053.728-.158 1.05-.105.322-.255.6-.451.837-.196.235-.435.42-.718.553-.282.133-.6.199-.955.199-.285 0-.524-.036-.718-.108a2.705 2.705 0 01-.5-.242 7.34 7.34 0 01-.36-.241.5.5 0 00-.291-.109.464.464 0 00-.371.189l-.476.567c.13.14.282.275.455.406a3.318 3.318 0 001.256.585c.245.058.508.087.788.087zm6.468 2.275l.371-3.045c.2.238.441.424.721.556.28.134.59.2.931.2.327 0 .638-.062.934-.185.297-.124.573-.296.83-.515.257-.22.49-.478.7-.777.21-.299.388-.623.535-.973.147-.35.262-.718.343-1.103.082-.385.123-.77.123-1.158 0-.859-.172-1.507-.514-1.946-.343-.439-.814-.658-1.411-.658-.257 0-.509.045-.756.136a2.83 2.83 0 00-.71.389c-.227.168-.443.37-.648.605a5.64 5.64 0 00-.574.795l.098-1.372c0-.159-.04-.275-.119-.35-.08-.075-.194-.112-.343-.112h-.686l-1.155 9.513h1.33zm1.82-3.346c-.238 0-.476-.048-.714-.143a1.444 1.444 0 01-.616-.487l.224-1.82c.13-.392.285-.754.462-1.085a4.93 4.93 0 01.57-.858c.203-.24.416-.429.637-.566.222-.138.44-.207.655-.207.35 0 .62.139.812.416.191.278.287.688.287 1.229 0 .275-.025.553-.074.833-.049.28-.12.55-.213.809a4.283 4.283 0 01-.343.731 3.005 3.005 0 01-.459.599c-.17.17-.359.304-.567.402a1.53 1.53 0 01-.661.147zm5.915.959l.448-3.71c.121-.369.258-.699.41-.99.151-.292.314-.54.49-.746.174-.205.361-.363.56-.473.198-.11.404-.164.619-.164.163 0 .295.032.395.094.1.064.175.158.224.284.05.126.075.287.077.483.003.196-.012.427-.045.693l-.532 4.529h1.344l.455-3.822c.117-.364.252-.686.406-.966.154-.28.32-.517.497-.71a1.99 1.99 0 01.553-.438c.191-.098.385-.147.581-.147.327 0 .539.126.637.378.098.252.114.644.049 1.176l-.532 4.529h1.344l.532-4.529c.107-.868.03-1.533-.231-1.995-.261-.462-.698-.693-1.309-.693-.49 0-.95.15-1.383.451-.431.302-.822.77-1.172 1.404-.01-.602-.132-1.062-.368-1.379-.235-.317-.586-.476-1.053-.476-.453 0-.882.142-1.288.427-.406.285-.78.707-1.12 1.267l.084-1.141c0-.159-.04-.275-.119-.35-.08-.075-.194-.112-.343-.112h-.686l-.861 7.126h1.337z" fill="#3E5667" fill-rule="nonzero"/><path d="M113.704 89v-9.96h3.592v-1.56h-9.056v1.56h3.6V89h1.864zm5.55-9.48c.16 0 .31-.03.452-.092.142-.061.266-.144.372-.248.107-.104.19-.225.252-.364.062-.139.092-.285.092-.44 0-.16-.03-.31-.092-.448a1.157 1.157 0 00-.252-.364 1.228 1.228 0 00-.372-.248 1.123 1.123 0 00-.888 0 1.155 1.155 0 00-.356.248 1.228 1.228 0 00-.244.364 1.095 1.095 0 00-.092.448c0 .155.03.301.092.44s.143.26.244.364c.102.104.22.187.356.248.136.061.282.092.436.092zm.88 9.48v-8.16h-1.72V89h1.72zm4.606.128c.384 0 .758-.063 1.12-.188a2.79 2.79 0 00.944-.54l-.512-.84c-.058-.107-.136-.16-.232-.16a.263.263 0 00-.148.052c-.05.035-.11.072-.18.112-.069.04-.152.077-.248.112s-.21.052-.344.052a.75.75 0 01-.576-.232c-.144-.155-.216-.379-.216-.672v-4.632h2.264v-1.24h-2.264v-2.68h-.88a.375.375 0 00-.256.084.455.455 0 00-.136.22l-.376 2.36-1.32.192v.696c0 .123.035.215.104.276.07.061.152.092.248.092h.896v4.752c0 .693.183 1.23.548 1.612.366.381.887.572 1.564.572zm4.807-.128V77.16h-1.72V89h1.72zm5.454.12c.288 0 .584-.023.888-.068.304-.045.6-.12.888-.224.288-.104.56-.239.816-.404.256-.165.485-.368.688-.608l-.488-.632a.367.367 0 00-.32-.16.693.693 0 00-.352.116 7.919 7.919 0 01-.464.256 4.094 4.094 0 01-.64.256 2.914 2.914 0 01-.872.116c-.352 0-.67-.055-.956-.164a1.914 1.914 0 01-.736-.5 2.483 2.483 0 01-.492-.844 4.098 4.098 0 01-.216-1.204h5.24c.155 0 .261-.045.32-.136.059-.09.088-.27.088-.536 0-.581-.087-1.1-.26-1.556a3.293 3.293 0 00-.724-1.156 3.052 3.052 0 00-1.104-.716 3.876 3.876 0 00-1.392-.244c-.603 0-1.143.105-1.62.316a3.606 3.606 0 00-1.984 2.14 4.594 4.594 0 00-.268 1.584c0 .71.1 1.336.3 1.88.2.544.477 1 .832 1.368.355.368.773.647 1.256.836.483.19 1.007.284 1.572.284zm1.848-5.12h-4.056c.096-.645.323-1.147.68-1.504.357-.357.848-.536 1.472-.536.31 0 .583.052.82.156.237.104.436.248.596.432.16.184.281.4.364.648.083.248.124.516.124.804z" fill="#233744" fill-rule="nonzero"/><circle fill="#233744" cx="155.5" cy="83.5" r="9.5"/><path d="M158.064 87v-1.017h-1.43v-6.947h-1.117l-2.425 2.063.429.588a.32.32 0 00.099.09.467.467 0 00.333.055.473.473 0 00.195-.095l1.144-.957a10.03 10.03 0 00-.017.566v4.636h-1.611V87h4.4z" fill="#FFF" fill-rule="nonzero"/><path d="M110.704 141v-9.96h3.592v-1.56h-9.056v1.56h3.6V141h1.864zm5.55-9.48c.16 0 .31-.03.452-.092.142-.061.266-.144.372-.248.107-.104.19-.225.252-.364.062-.139.092-.285.092-.44 0-.16-.03-.31-.092-.448a1.157 1.157 0 00-.252-.364 1.228 1.228 0 00-.372-.248 1.123 1.123 0 00-.888 0 1.155 1.155 0 00-.356.248 1.228 1.228 0 00-.244.364 1.095 1.095 0 00-.092.448c0 .155.03.301.092.44s.143.26.244.364c.102.104.22.187.356.248.136.061.282.092.436.092zm.88 9.48v-8.16h-1.72V141h1.72zm3.71 0v-6.016c.23-.283.48-.505.752-.668.272-.163.568-.244.888-.244.464 0 .816.14 1.056.42.24.28.36.719.36 1.316V141h1.72v-5.192c0-.288.042-.54.124-.756a1.446 1.446 0 01.844-.868c.192-.075.398-.112.616-.112.486 0 .852.145 1.1.436.248.29.372.724.372 1.3V141h1.72v-5.192c0-.49-.06-.928-.184-1.312a2.627 2.627 0 00-.54-.972 2.32 2.32 0 00-.872-.604 3.113 3.113 0 00-1.172-.208c-.266 0-.529.03-.788.092a2.838 2.838 0 00-.732.284 2.507 2.507 0 00-1.088 1.224 3.033 3.033 0 00-.304-.664 2.05 2.05 0 00-.436-.504 1.831 1.831 0 00-.58-.32 2.216 2.216 0 00-.72-.112 2.542 2.542 0 00-1.276.332 3.029 3.029 0 00-.516.368c-.16.141-.314.297-.464.468l-.112-.712c-.064-.219-.213-.328-.448-.328h-1.04V141h1.72zm14.895.12c.288 0 .584-.023.888-.068.304-.045.6-.12.888-.224.288-.104.56-.239.816-.404.256-.165.485-.368.688-.608l-.488-.632a.367.367 0 00-.32-.16.693.693 0 00-.352.116 7.919 7.919 0 01-.464.256 4.094 4.094 0 01-.64.256 2.914 2.914 0 01-.872.116c-.352 0-.671-.055-.956-.164a1.914 1.914 0 01-.736-.5 2.482 2.482 0 01-.492-.844 4.098 4.098 0 01-.216-1.204h5.24c.154 0 .261-.045.32-.136.058-.09.088-.27.088-.536 0-.581-.087-1.1-.26-1.556a3.293 3.293 0 00-.724-1.156 3.052 3.052 0 00-1.104-.716 3.876 3.876 0 00-1.392-.244c-.603 0-1.143.105-1.62.316a3.606 3.606 0 00-1.984 2.14 4.594 4.594 0 00-.268 1.584c0 .71.1 1.336.3 1.88.2.544.477 1 .832 1.368.354.368.773.647 1.256.836.482.19 1.006.284 1.572.284zm1.848-5.12h-4.056c.096-.645.322-1.147.68-1.504.357-.357.848-.536 1.472-.536.309 0 .582.052.82.156.237.104.436.248.596.432.16.184.281.4.364.648.082.248.124.516.124.804z" fill="#233744" fill-rule="nonzero"/><circle fill="#233744" cx="155.5" cy="135.5" r="9.5"/><path d="M155.512 139.088a3.36 3.36 0 001.042-.16c.328-.106.617-.263.866-.47.25-.207.447-.463.594-.767.147-.304.22-.655.22-1.05 0-.466-.117-.853-.352-1.161-.235-.308-.59-.537-1.067-.688.198-.066.376-.148.534-.247.157-.099.29-.22.396-.363.106-.143.188-.31.244-.503.057-.193.086-.416.086-.668a1.903 1.903 0 00-.649-1.46 2.266 2.266 0 00-.757-.435 2.96 2.96 0 00-.992-.157c-.352 0-.681.049-.988.146a2.449 2.449 0 00-.814.434 2.407 2.407 0 00-.59.72 2.95 2.95 0 00-.32 1.005l.715.126c.183.03.326.017.426-.038.101-.055.183-.167.245-.336a1.196 1.196 0 01.437-.652c.109-.082.23-.146.366-.192.136-.046.284-.069.446-.069.348 0 .627.097.836.291.209.195.313.479.313.853 0 .176-.026.337-.077.484a.83.83 0 01-.272.377c-.13.104-.305.186-.525.244-.22.06-.497.09-.83.094v.968c.402 0 .724.031.964.094.24.062.425.148.553.258a.77.77 0 01.253.399c.04.156.06.329.06.52a1.246 1.246 0 01-.343.852c-.116.121-.26.22-.432.294a1.503 1.503 0 01-.605.113c-.205 0-.382-.03-.53-.09a1.348 1.348 0 01-.388-.237 1.54 1.54 0 01-.284-.333 4.921 4.921 0 01-.217-.38.43.43 0 00-.3-.222.72.72 0 00-.442.052l-.6.248c.11.34.242.641.396.901.154.26.341.48.561.66.22.18.479.316.776.407.297.092.645.138 1.045.138z" fill="#FFF" fill-rule="nonzero"/><path stroke="#979797" d="M165 83.5h66"/><circle fill="#233744" cx="232" cy="84" r="3"/><path stroke="#979797" d="M156 126v-20.5h53"/><circle fill="#233744" cx="211" cy="106" r="3"/><path d="M585.72 140c.864 0 1.65-.14 2.356-.42a5.258 5.258 0 001.816-1.18 5.281 5.281 0 001.172-1.82c.277-.707.416-1.487.416-2.34 0-.853-.139-1.633-.416-2.34a5.281 5.281 0 00-1.172-1.82 5.258 5.258 0 00-1.816-1.18c-.707-.28-1.492-.42-2.356-.42h-4.352V140h4.352zm0-1.512h-2.472v-8.496h2.472c.592 0 1.125.097 1.6.292.475.195.879.473 1.212.836.333.363.59.808.768 1.336.179.528.268 1.123.268 1.784 0 .667-.09 1.263-.268 1.788-.179.525-.435.97-.768 1.336a3.283 3.283 0 01-1.212.836 4.234 4.234 0 01-1.6.288zm10.718 1.632c.288 0 .584-.023.888-.068.304-.045.6-.12.888-.224.288-.104.56-.239.816-.404.256-.165.486-.368.688-.608l-.488-.632a.367.367 0 00-.32-.16.693.693 0 00-.352.116 7.918 7.918 0 01-.464.256 4.094 4.094 0 01-.64.256 2.914 2.914 0 01-.872.116c-.352 0-.67-.055-.956-.164a1.914 1.914 0 01-.736-.5 2.483 2.483 0 01-.492-.844 4.098 4.098 0 01-.216-1.204h5.24c.155 0 .262-.045.32-.136.059-.09.088-.27.088-.536 0-.581-.086-1.1-.26-1.556a3.293 3.293 0 00-.724-1.156 3.052 3.052 0 00-1.104-.716 3.876 3.876 0 00-1.392-.244c-.602 0-1.142.105-1.62.316a3.606 3.606 0 00-1.984 2.14 4.595 4.595 0 00-.268 1.584c0 .71.1 1.336.3 1.88.2.544.478 1 .832 1.368.355.368.774.647 1.256.836.483.19 1.007.284 1.572.284zm1.848-5.12h-4.056c.096-.645.323-1.147.68-1.504.358-.357.848-.536 1.472-.536.31 0 .583.052.82.156.238.104.436.248.596.432.16.184.282.4.364.648.083.248.124.516.124.804zm5.158 5.128c.512 0 .967-.067 1.364-.2.398-.133.73-.32.996-.56.267-.24.47-.523.608-.848.14-.325.208-.68.208-1.064 0-.33-.058-.612-.176-.844a1.876 1.876 0 00-.464-.592c-.192-.163-.41-.3-.656-.412a7.585 7.585 0 00-.752-.296 30.019 30.019 0 00-.752-.24 4.501 4.501 0 01-.656-.252 1.524 1.524 0 01-.464-.332.683.683 0 01-.176-.48c0-.144.032-.279.096-.404a.977.977 0 01.276-.328c.12-.093.267-.165.44-.216.174-.05.367-.076.58-.076.262 0 .49.028.684.084.195.056.364.119.508.188.144.07.27.132.376.188a.643.643 0 00.296.084c.08 0 .147-.016.2-.048a.427.427 0 00.144-.16l.384-.624a3.252 3.252 0 00-1.128-.72 4.06 4.06 0 00-1.496-.264c-.485 0-.913.065-1.284.196a2.8 2.8 0 00-.936.532 2.252 2.252 0 00-.772 1.704c0 .357.06.66.176.908.118.248.274.459.468.632a2.6 2.6 0 00.664.428c.248.112.5.21.756.296.256.085.508.165.756.24.248.075.47.16.664.256.195.096.351.21.468.344a.746.746 0 01.176.512 1.012 1.012 0 01-.36.8 1.33 1.33 0 01-.464.252 2.135 2.135 0 01-.664.092c-.309 0-.568-.036-.776-.108a3.04 3.04 0 01-.532-.236 8.238 8.238 0 01-.384-.236.598.598 0 00-.332-.108.494.494 0 00-.268.068.554.554 0 00-.18.188l-.4.656c.16.144.343.277.548.4.206.123.427.228.664.316.238.088.488.157.752.208.264.05.538.076.82.076zm7.799-.008a5.6 5.6 0 00.872-.068 3.99 3.99 0 00.832-.224c.266-.104.52-.239.76-.404.24-.165.458-.368.656-.608l-.488-.632a.367.367 0 00-.32-.16.493.493 0 00-.316.12c-.099.08-.218.168-.356.264a2.48 2.48 0 01-.52.264c-.208.08-.478.12-.808.12a2.09 2.09 0 01-.908-.192 1.88 1.88 0 01-.688-.56 2.643 2.643 0 01-.436-.904 4.494 4.494 0 01-.152-1.224c0-.443.046-.841.14-1.196.093-.355.234-.656.424-.904.189-.248.424-.439.704-.572.28-.133.606-.2.98-.2.288 0 .528.032.72.096.192.064.356.135.492.212.136.077.253.148.352.212a.524.524 0 00.284.096c.09 0 .16-.019.208-.056a.89.89 0 00.152-.16l.456-.624a3.79 3.79 0 00-1.204-.816c-.451-.192-.972-.288-1.564-.288-.635 0-1.195.105-1.68.316a3.4 3.4 0 00-1.22.876 3.806 3.806 0 00-.748 1.332 5.295 5.295 0 00-.256 1.676c0 .667.094 1.26.284 1.78.189.52.448.96.776 1.32.328.36.712.635 1.152.824.44.19.913.284 1.42.284zm6.038-.12v-5.072c.096-.245.2-.464.312-.656.112-.192.241-.355.388-.488.147-.133.312-.235.496-.304.184-.07.396-.104.636-.104.165 0 .323.015.472.044.15.03.264.044.344.044a.289.289 0 00.18-.052c.045-.035.079-.097.1-.188l.12-1.296a1.394 1.394 0 00-.416-.18c-.155-.04-.32-.06-.496-.06-.507 0-.941.148-1.304.444-.363.296-.672.703-.928 1.22l-.104-1.064c-.027-.165-.075-.281-.144-.348-.07-.067-.195-.1-.376-.1h-1V140h1.72zm4.918-9.48c.16 0 .31-.03.452-.092.141-.061.265-.144.372-.248.107-.104.19-.225.252-.364.061-.139.092-.285.092-.44 0-.16-.03-.31-.092-.448a1.157 1.157 0 00-.252-.364 1.228 1.228 0 00-.372-.248 1.123 1.123 0 00-.888 0 1.155 1.155 0 00-.356.248 1.228 1.228 0 00-.244.364 1.095 1.095 0 00-.092.448c0 .155.03.301.092.44.061.139.143.26.244.364.101.104.22.187.356.248.136.061.281.092.436.092zm.88 9.48v-8.16h-1.72V140h1.72zm3.71 2.712v-3.464c.272.272.575.485.908.64.334.155.74.232 1.22.232.544 0 1.032-.108 1.464-.324.432-.216.8-.515 1.104-.896.304-.381.538-.832.7-1.352.163-.52.244-1.081.244-1.684 0-.672-.073-1.268-.22-1.788-.146-.52-.353-.956-.62-1.308a2.686 2.686 0 00-.96-.804 2.785 2.785 0 00-1.248-.276c-.576 0-1.081.123-1.516.368a4.31 4.31 0 00-1.164.968l-.144-.856c-.064-.219-.213-.328-.448-.328h-1.04v10.872h1.72zm1.736-3.92c-.346 0-.662-.063-.948-.188-.285-.125-.548-.343-.788-.652v-3.784c.272-.352.567-.623.884-.812.318-.19.695-.284 1.132-.284.288 0 .547.05.776.152.23.101.424.264.584.488.16.224.283.513.368.868.086.355.128.783.128 1.284 0 .97-.188 1.701-.564 2.192-.376.49-.9.736-1.572.736zm12.399-8.32c.154 0 .302-.03.444-.092.14-.061.265-.144.372-.248a1.17 1.17 0 00.252-.36 1.123 1.123 0 000-.888 1.144 1.144 0 00-.252-.368 1.228 1.228 0 00-.372-.248 1.104 1.104 0 00-1.24.248 1.177 1.177 0 00-.34.82c0 .155.03.3.092.436a1.205 1.205 0 00.608.608c.136.061.28.092.436.092zm-4.496 9.656c.384 0 .757-.063 1.12-.188a2.79 2.79 0 00.944-.54l-.512-.84c-.06-.107-.136-.16-.232-.16a.263.263 0 00-.148.052c-.051.035-.111.072-.18.112-.07.04-.152.077-.248.112s-.211.052-.344.052a.75.75 0 01-.576-.232c-.144-.155-.216-.379-.216-.672v-4.632h3.976V140h1.72v-8.048h-5.696v-2.68h-.88a.375.375 0 00-.256.084.455.455 0 00-.136.22l-.376 2.36-1.32.192v.696c0 .123.034.215.104.276.069.061.152.092.248.092h.896v4.752c0 .693.182 1.23.548 1.612.365.381.886.572 1.564.572zm10.822-.008c.602 0 1.148-.099 1.636-.296a3.482 3.482 0 001.248-.844 3.77 3.77 0 00.796-1.324c.186-.517.28-1.099.28-1.744s-.094-1.227-.28-1.744a3.729 3.729 0 00-.796-1.32 3.507 3.507 0 00-1.248-.84 4.329 4.329 0 00-1.636-.296c-.608 0-1.156.099-1.644.296a3.547 3.547 0 00-1.252.84 3.698 3.698 0 00-.8 1.32 5.113 5.113 0 00-.28 1.744c0 .645.093 1.227.28 1.744.186.517.453.959.8 1.324.346.365.764.647 1.252.844a4.351 4.351 0 001.644.296zm0-1.344c-.747 0-1.302-.247-1.664-.74-.363-.493-.544-1.199-.544-2.116s.181-1.625.544-2.124c.362-.499.917-.748 1.664-.748.736 0 1.284.25 1.644.748.36.499.54 1.207.54 2.124s-.18 1.623-.54 2.116c-.36.493-.908.74-1.644.74zM654.4 140v-5.944c.288-.304.596-.544.924-.72a2.224 2.224 0 011.068-.264c.517 0 .903.152 1.156.456.253.304.38.73.38 1.28V140h1.712v-5.192a4.27 4.27 0 00-.176-1.26 2.723 2.723 0 00-.524-.98 2.36 2.36 0 00-.856-.632 2.902 2.902 0 00-1.18-.224c-.283 0-.544.03-.784.088a3.23 3.23 0 00-.68.248 3.648 3.648 0 00-.604.38c-.19.147-.372.31-.548.492l-.12-.752c-.064-.219-.213-.328-.448-.328h-1.04V140h1.72z" fill="#233744" fill-rule="nonzero"/><circle fill="#233744" cx="565.5" cy="134.5" r="9.5"/><path d="M567.47 138v-1.941h.726c.088 0 .155-.027.203-.08a.275.275 0 00.072-.19v-.786h-1.001v-4.961h-1.287l-3.768 5.032.143.688a.368.368 0 00.132.211c.07.057.15.085.242.085h3.355V138h1.183zm-1.183-2.998h-2.42l2.47-3.415c-.033.297-.05.568-.05.814v2.601z" fill="#FFF" fill-rule="nonzero"/><path d="M586.2 100.128c.95 0 1.765-.153 2.448-.46a4.736 4.736 0 001.728-1.308l-.744-.808a.35.35 0 00-.264-.12.482.482 0 00-.32.144c-.187.17-.375.315-.564.432a3.238 3.238 0 01-1.304.46c-.253.035-.54.052-.86.052-.523 0-1.01-.096-1.464-.288a3.385 3.385 0 01-1.184-.836 3.935 3.935 0 01-.792-1.344c-.192-.53-.288-1.135-.288-1.812 0-.672.092-1.272.276-1.8.184-.528.441-.976.772-1.344.33-.368.725-.648 1.184-.84a3.877 3.877 0 011.512-.288c.475 0 .87.05 1.188.148.317.099.581.208.792.328.21.12.384.23.52.328.136.099.257.148.364.148a.4.4 0 00.24-.064.685.685 0 00.152-.152l.616-.872a5.45 5.45 0 00-1.66-1.076c-.637-.27-1.372-.404-2.204-.404-.837 0-1.604.144-2.3.432a5.21 5.21 0 00-1.792 1.212 5.459 5.459 0 00-1.16 1.864c-.275.723-.412 1.516-.412 2.38 0 .864.13 1.656.388 2.376.259.72.628 1.34 1.108 1.86.48.52 1.06.925 1.74 1.216.68.29 1.441.436 2.284.436zm7.054-.128V88.16h-1.72V100h1.72zm5.478.12c.603 0 1.148-.099 1.636-.296a3.482 3.482 0 001.248-.844 3.77 3.77 0 00.796-1.324c.187-.517.28-1.099.28-1.744s-.093-1.227-.28-1.744a3.729 3.729 0 00-.796-1.32 3.507 3.507 0 00-1.248-.84 4.329 4.329 0 00-1.636-.296c-.608 0-1.156.099-1.644.296a3.547 3.547 0 00-1.252.84 3.698 3.698 0 00-.8 1.32 5.113 5.113 0 00-.28 1.744c0 .645.094 1.227.28 1.744.187.517.454.959.8 1.324.347.365.764.647 1.252.844a4.351 4.351 0 001.644.296zm0-1.344c-.746 0-1.3-.247-1.664-.74-.362-.493-.544-1.199-.544-2.116s.182-1.625.544-2.124c.363-.499.918-.748 1.664-.748.736 0 1.284.25 1.644.748.36.499.54 1.207.54 2.124s-.18 1.623-.54 2.116c-.36.493-.908.74-1.644.74zm7.623 1.352c.512 0 .966-.067 1.364-.2.397-.133.729-.32.996-.56.266-.24.469-.523.608-.848.138-.325.208-.68.208-1.064 0-.33-.059-.612-.176-.844a1.876 1.876 0 00-.464-.592c-.192-.163-.411-.3-.656-.412a7.586 7.586 0 00-.752-.296 30.018 30.018 0 00-.752-.24 4.501 4.501 0 01-.656-.252 1.524 1.524 0 01-.464-.332.683.683 0 01-.176-.48c0-.144.032-.279.096-.404a.977.977 0 01.276-.328c.12-.093.266-.165.44-.216.173-.05.366-.076.58-.076.261 0 .489.028.684.084.194.056.364.119.508.188.144.07.269.132.376.188a.643.643 0 00.296.084c.08 0 .146-.016.2-.048a.427.427 0 00.144-.16l.384-.624a3.252 3.252 0 00-1.128-.72 4.06 4.06 0 00-1.496-.264c-.486 0-.914.065-1.284.196a2.8 2.8 0 00-.936.532 2.252 2.252 0 00-.772 1.704c0 .357.058.66.176.908.117.248.273.459.468.632a2.6 2.6 0 00.664.428c.248.112.5.21.756.296.256.085.508.165.756.24.248.075.469.16.664.256.194.096.35.21.468.344a.747.747 0 01.176.512 1.012 1.012 0 01-.36.8 1.33 1.33 0 01-.464.252 2.135 2.135 0 01-.664.092c-.31 0-.568-.036-.776-.108a3.04 3.04 0 01-.532-.236 8.237 8.237 0 01-.384-.236.598.598 0 00-.332-.108.494.494 0 00-.268.068.554.554 0 00-.18.188l-.4.656c.16.144.342.277.548.4.205.123.426.228.664.316.237.088.488.157.752.208.264.05.537.076.82.076zm8.118-.008c.288 0 .584-.023.888-.068.304-.045.6-.12.888-.224.288-.104.56-.239.816-.404.256-.165.485-.368.688-.608l-.488-.632a.367.367 0 00-.32-.16.693.693 0 00-.352.116 7.919 7.919 0 01-.464.256 4.094 4.094 0 01-.64.256 2.914 2.914 0 01-.872.116c-.352 0-.67-.055-.956-.164a1.914 1.914 0 01-.736-.5 2.483 2.483 0 01-.492-.844 4.098 4.098 0 01-.216-1.204h5.24c.155 0 .261-.045.32-.136.059-.09.088-.27.088-.536 0-.581-.087-1.1-.26-1.556a3.293 3.293 0 00-.724-1.156 3.052 3.052 0 00-1.104-.716 3.876 3.876 0 00-1.392-.244c-.603 0-1.143.105-1.62.316a3.606 3.606 0 00-1.984 2.14 4.594 4.594 0 00-.268 1.584c0 .71.1 1.336.3 1.88.2.544.477 1 .832 1.368.355.368.773.647 1.256.836.483.19 1.007.284 1.572.284zM616.32 95h-4.056c.096-.645.323-1.147.68-1.504.357-.357.848-.536 1.472-.536.31 0 .583.052.82.156.237.104.436.248.596.432.16.184.281.4.364.648.083.248.124.516.124.804zm11.316 5c.656 0 1.24-.083 1.752-.248a3.76 3.76 0 001.292-.692c.35-.296.616-.648.8-1.056.184-.408.276-.857.276-1.348 0-1.387-.816-2.253-2.448-2.6.358-.117.667-.264.928-.44.262-.176.479-.375.652-.596.174-.221.302-.459.384-.712.083-.253.124-.516.124-.788 0-.47-.078-.892-.236-1.268a2.343 2.343 0 00-.74-.956c-.336-.261-.765-.463-1.288-.604-.522-.141-1.152-.212-1.888-.212h-3.832V100h4.224zm-.48-6.456h-1.872v-3.6h1.96c.79 0 1.37.141 1.74.424.371.283.556.741.556 1.376 0 .581-.197 1.027-.592 1.336-.394.31-.992.464-1.792.464zm.448 4.976h-2.32v-3.656h2.312c.8 0 1.386.156 1.756.468.371.312.556.74.556 1.284 0 .267-.041.516-.124.748a1.5 1.5 0 01-.4.604c-.184.17-.421.305-.712.404-.29.099-.646.148-1.068.148zm8.263 1.608a3.211 3.211 0 001.464-.336c.213-.107.414-.235.604-.384.189-.15.369-.315.54-.496l.128.76c.064.219.21.328.44.328h1.04v-8.16h-1.72v5.952a3.585 3.585 0 01-.924.716c-.328.173-.682.26-1.06.26-.518 0-.903-.152-1.156-.456-.254-.304-.38-.73-.38-1.28V91.84h-1.72v5.192c0 .459.058.879.176 1.26.117.381.292.708.524.98.232.272.518.483.86.632.34.15.736.224 1.184.224zm14.006 0a3.37 3.37 0 001.116-.188c.36-.125.676-.305.948-.54l-.512-.84a.474.474 0 00-.104-.124.223.223 0 00-.136-.036.253.253 0 00-.14.052c-.05.035-.11.072-.18.112-.07.04-.154.077-.252.112a1.05 1.05 0 01-.348.052.75.75 0 01-.576-.232c-.144-.155-.216-.379-.216-.672v-4.632h2.264v-1.24h-2.264v-2.68h-.88a.375.375 0 00-.256.084.408.408 0 00-.128.22l-.384 2.376h-3.6v-2.68h-.88a.375.375 0 00-.256.084.455.455 0 00-.136.22l-.376 2.36-1.32.192v.696c0 .123.034.215.104.276.07.061.152.092.248.092h.896v4.752c0 .693.182 1.23.548 1.612.365.381.886.572 1.564.572.384 0 .757-.063 1.12-.188a2.79 2.79 0 00.944-.54l-.512-.84c-.059-.107-.136-.16-.232-.16a.263.263 0 00-.148.052c-.05.035-.11.072-.18.112-.07.04-.152.077-.248.112s-.21.052-.344.052a.75.75 0 01-.576-.232c-.144-.155-.216-.379-.216-.672v-4.632h3.536v4.752c0 .693.181 1.23.544 1.612.362.381.885.572 1.568.572zm6.518-.008c.603 0 1.148-.099 1.636-.296a3.482 3.482 0 001.248-.844 3.77 3.77 0 00.796-1.324c.187-.517.28-1.099.28-1.744s-.093-1.227-.28-1.744a3.729 3.729 0 00-.796-1.32 3.507 3.507 0 00-1.248-.84 4.329 4.329 0 00-1.636-.296c-.608 0-1.156.099-1.644.296a3.547 3.547 0 00-1.252.84 3.698 3.698 0 00-.8 1.32 5.113 5.113 0 00-.28 1.744c0 .645.093 1.227.28 1.744.187.517.453.959.8 1.324.347.365.764.647 1.252.844a4.351 4.351 0 001.644.296zm0-1.344c-.747 0-1.301-.247-1.664-.74s-.544-1.199-.544-2.116.181-1.625.544-2.124c.363-.499.917-.748 1.664-.748.736 0 1.284.25 1.644.748.36.499.54 1.207.54 2.124s-.18 1.623-.54 2.116c-.36.493-.908.74-1.644.74zm7.15 1.224v-5.944c.288-.304.596-.544.924-.72a2.224 2.224 0 011.068-.264c.518 0 .903.152 1.156.456.254.304.38.73.38 1.28V100h1.712v-5.192a4.27 4.27 0 00-.176-1.26 2.723 2.723 0 00-.524-.98 2.36 2.36 0 00-.856-.632 2.902 2.902 0 00-1.18-.224c-.282 0-.544.03-.784.088a3.23 3.23 0 00-.68.248 3.648 3.648 0 00-.604.38c-.19.147-.372.31-.548.492l-.12-.752c-.064-.219-.213-.328-.448-.328h-1.04V100h1.72z" fill="#233744" fill-rule="nonzero"/><circle fill="#233744" cx="565.5" cy="94.5" r="9.5"/><path d="M568.245 98v-.814a.432.432 0 00-.13-.327.484.484 0 00-.348-.124h-2.04a3.06 3.06 0 00-.488.041c-.17.028-.342.067-.514.118l1.793-1.831c.213-.22.416-.436.61-.649.195-.213.365-.433.51-.66.144-.227.26-.466.346-.715.086-.25.13-.52.13-.814 0-.341-.061-.65-.182-.93a2.079 2.079 0 00-.506-.715 2.264 2.264 0 00-.781-.459 2.987 2.987 0 00-1.007-.162c-.352 0-.681.049-.987.146a2.449 2.449 0 00-.814.434 2.407 2.407 0 00-.591.72 2.95 2.95 0 00-.32 1.004l.716.127c.187.03.33.016.429-.038.099-.056.18-.167.242-.336a1.22 1.22 0 01.8-.844 1.41 1.41 0 01.448-.069c.176 0 .335.025.476.074a.967.967 0 01.597.589c.055.145.082.312.082.503 0 .209-.028.408-.085.597a2.613 2.613 0 01-.245.558c-.106.183-.24.368-.399.555-.16.188-.34.384-.541.589l-2.415 2.42a.74.74 0 00-.184.272.81.81 0 00-.058.289V98h5.456z" fill="#FFF" fill-rule="nonzero"/><path stroke="#979797" d="M444 135h112"/><circle fill="#233744" cx="445" cy="135" r="3"/><path stroke="#979797" d="M528 95h28"/><circle fill="#233744" cx="529" cy="95" r="3"/></g></svg>
