<svg xmlns="http://www.w3.org/2000/svg" xmlns:xlink="http://www.w3.org/1999/xlink" width="16" height="16" viewBox="0 0 16 16">
  <defs>
    <path id="blur-circular-a" d="M6.66666666,5.99999999 C6.29999999,5.99999999 5.99999999,6.29999999 5.99999999,6.66666666 C5.99999999,7.03333333 6.29999999,7.33333333 6.66666666,7.33333333 C7.03333333,7.33333333 7.33333333,7.03333333 7.33333333,6.66666666 C7.33333333,6.29999999 7.03333333,5.99999999 6.66666666,5.99999999 Z M6.66666666,8.66666667 C6.29999999,8.66666667 5.99999999,8.96666667 5.99999999,9.33333334 C5.99999999,9.70000001 6.29999999,10 6.66666666,10 C7.03333333,10 7.33333333,9.70000001 7.33333333,9.33333334 C7.33333333,8.96666667 7.03333333,8.66666667 6.66666666,8.66666667 Z M4.66666665,6.33333332 C4.47999998,6.33333332 4.33333331,6.47999999 4.33333331,6.66666666 C4.33333331,6.85333333 4.47999998,6.99999999 4.66666665,6.99999999 C4.85333331,6.99999999 4.99999998,6.85333333 4.99999998,6.66666666 C4.99999998,6.47999999 4.85333331,6.33333332 4.66666665,6.33333332 Z M6.66666666,11 C6.47999999,11 6.33333332,11.1466667 6.33333332,11.3333334 C6.33333332,11.52 6.47999999,11.6666667 6.66666666,11.6666667 C6.85333333,11.6666667 6.99999999,11.52 6.99999999,11.3333334 C6.99999999,11.1466667 6.85333333,11 6.66666666,11 Z M4.66666665,9.00000001 C4.47999998,9.00000001 4.33333331,9.14666667 4.33333331,9.33333334 C4.33333331,9.52000001 4.47999998,9.66666668 4.66666665,9.66666668 C4.85333331,9.66666668 4.99999998,9.52000001 4.99999998,9.33333334 C4.99999998,9.14666667 4.85333331,9.00000001 4.66666665,9.00000001 Z M6.66666666,4.99999998 C6.85333333,4.99999998 6.99999999,4.85333331 6.99999999,4.66666665 C6.99999999,4.47999998 6.85333333,4.33333331 6.66666666,4.33333331 C6.47999999,4.33333331 6.33333332,4.47999998 6.33333332,4.66666665 C6.33333332,4.85333331 6.47999999,4.99999998 6.66666666,4.99999998 Z M9.33333334,5.99999999 C8.96666667,5.99999999 8.66666667,6.29999999 8.66666667,6.66666666 C8.66666667,7.03333333 8.96666667,7.33333333 9.33333334,7.33333333 C9.70000001,7.33333333 10,7.03333333 10,6.66666666 C10,6.29999999 9.70000001,5.99999999 9.33333334,5.99999999 Z M9.33333334,4.99999998 C9.52000001,4.99999998 9.66666668,4.85333331 9.66666668,4.66666665 C9.66666668,4.47999998 9.52000001,4.33333331 9.33333334,4.33333331 C9.14666667,4.33333331 9.00000001,4.47999998 9.00000001,4.66666665 C9.00000001,4.85333331 9.14666667,4.99999998 9.33333334,4.99999998 Z M11.3333334,9.00000001 C11.1466667,9.00000001 11,9.14666667 11,9.33333334 C11,9.52000001 11.1466667,9.66666668 11.3333334,9.66666668 C11.52,9.66666668 11.6666667,9.52000001 11.6666667,9.33333334 C11.6666667,9.14666667 11.52,9.00000001 11.3333334,9.00000001 Z M11.3333334,6.33333332 C11.1466667,6.33333332 11,6.47999999 11,6.66666666 C11,6.85333333 11.1466667,6.99999999 11.3333334,6.99999999 C11.52,6.99999999 11.6666667,6.85333333 11.6666667,6.66666666 C11.6666667,6.47999999 11.52,6.33333332 11.3333334,6.33333332 Z M8,1.33333329 C4.31999998,1.33333329 1.33333329,4.31999998 1.33333329,8 C1.33333329,11.68 4.31999998,14.6666667 8,14.6666667 C11.68,14.6666667 14.6666667,11.68 14.6666667,8 C14.6666667,4.31999998 11.68,1.33333329 8,1.33333329 Z M8,13.3333334 C5.05333331,13.3333334 2.66666663,10.9466667 2.66666663,8 C2.66666663,5.05333331 5.05333331,2.66666663 8,2.66666663 C10.9466667,2.66666663 13.3333334,5.05333331 13.3333334,8 C13.3333334,10.9466667 10.9466667,13.3333334 8,13.3333334 Z M9.33333334,11 C9.14666667,11 9.00000001,11.1466667 9.00000001,11.3333334 C9.00000001,11.52 9.14666667,11.6666667 9.33333334,11.6666667 C9.52000001,11.6666667 9.66666668,11.52 9.66666668,11.3333334 C9.66666668,11.1466667 9.52000001,11 9.33333334,11 Z M9.33333334,8.66666667 C8.96666667,8.66666667 8.66666667,8.96666667 8.66666667,9.33333334 C8.66666667,9.70000001 8.96666667,10 9.33333334,10 C9.70000001,10 10,9.70000001 10,9.33333334 C10,8.96666667 9.70000001,8.66666667 9.33333334,8.66666667 Z"/>
  </defs>
  <g fill="none" fill-rule="evenodd">
    <mask id="blur-circular-b" fill="#fff">
      <use xlink:href="#blur-circular-a"/>
    </mask>
    <g fill="CurrentColor" mask="url(#blur-circular-b)">
      <rect width="16" height="16"/>
    </g>
  </g>
</svg>
