<svg xmlns="http://www.w3.org/2000/svg" xmlns:xlink="http://www.w3.org/1999/xlink" width="16" height="16" viewBox="0 0 16 16">
  <defs>
    <path id="blur-linear-a" d="M3.3333333,11.6666667 C3.88666664,11.6666667 4.3333333,11.22 4.3333333,10.6666667 C4.3333333,10.1133333 3.88666664,9.66666668 3.3333333,9.66666668 C2.77999997,9.66666668 2.3333333,10.1133333 2.3333333,10.6666667 C2.3333333,11.22 2.77999997,11.6666667 3.3333333,11.6666667 Z M5.99999999,8.66666667 C6.36666666,8.66666667 6.66666666,8.36666667 6.66666666,8 C6.66666666,7.63333333 6.36666666,7.33333333 5.99999999,7.33333333 C5.63333332,7.33333333 5.33333332,7.63333333 5.33333332,8 C5.33333332,8.36666667 5.63333332,8.66666667 5.99999999,8.66666667 Z M5.99999999,5.99999999 C6.36666666,5.99999999 6.66666666,5.69999999 6.66666666,5.33333332 C6.66666666,4.96666665 6.36666666,4.66666665 5.99999999,4.66666665 C5.63333332,4.66666665 5.33333332,4.96666665 5.33333332,5.33333332 C5.33333332,5.69999999 5.63333332,5.99999999 5.99999999,5.99999999 Z M1.99999996,14 L14,14 L14,12.6666667 L1.99999996,12.6666667 L1.99999996,14 Z M3.3333333,6.33333331 C3.88666664,6.33333331 4.3333333,5.88666665 4.3333333,5.33333331 C4.3333333,4.77999998 3.88666664,4.33333331 3.3333333,4.33333331 C2.77999997,4.33333331 2.3333333,4.77999998 2.3333333,5.33333331 C2.3333333,5.88666665 2.77999997,6.33333331 3.3333333,6.33333331 Z M3.3333333,8.99999999 C3.88666664,8.99999999 4.3333333,8.55333334 4.3333333,7.99999999 C4.3333333,7.44666666 3.88666664,6.99999999 3.3333333,6.99999999 C2.77999997,6.99999999 2.3333333,7.44666666 2.3333333,7.99999999 C2.3333333,8.55333334 2.77999997,8.99999999 3.3333333,8.99999999 Z M5.99999999,11.3333334 C6.36666666,11.3333334 6.66666666,11.0333334 6.66666666,10.6666667 C6.66666666,10.3 6.36666666,10 5.99999999,10 C5.63333332,10 5.33333332,10.3 5.33333332,10.6666667 C5.33333332,11.0333334 5.63333332,11.3333334 5.99999999,11.3333334 Z M11.3333334,11 C11.52,11 11.6666667,10.8533334 11.6666667,10.6666667 C11.6666667,10.48 11.52,10.3333333 11.3333334,10.3333333 C11.1466667,10.3333333 11,10.48 11,10.6666667 C11,10.8533334 11.1466667,11 11.3333334,11 Z M1.99999996,1.99999996 L1.99999996,3.3333333 L14,3.3333333 L14,1.99999996 L1.99999996,1.99999996 Z M11.3333334,5.66666665 C11.52,5.66666665 11.6666667,5.51999998 11.6666667,5.33333332 C11.6666667,5.14666665 11.52,4.99999998 11.3333334,4.99999998 C11.1466667,4.99999998 11,5.14666665 11,5.33333332 C11,5.51999998 11.1466667,5.66666665 11.3333334,5.66666665 Z M11.3333334,8.33333334 C11.52,8.33333334 11.6666667,8.18666667 11.6666667,8 C11.6666667,7.81333333 11.52,7.66666666 11.3333334,7.66666666 C11.1466667,7.66666666 11,7.81333333 11,8 C11,8.18666667 11.1466667,8.33333334 11.3333334,8.33333334 Z M8.66666667,5.99999999 C9.03333334,5.99999999 9.33333334,5.69999999 9.33333334,5.33333332 C9.33333334,4.96666665 9.03333334,4.66666665 8.66666667,4.66666665 C8.3,4.66666665 8,4.96666665 8,5.33333332 C8,5.69999999 8.3,5.99999999 8.66666667,5.99999999 Z M8.66666667,8.66666667 C9.03333334,8.66666667 9.33333334,8.36666667 9.33333334,8 C9.33333334,7.63333333 9.03333334,7.33333333 8.66666667,7.33333333 C8.3,7.33333333 8,7.63333333 8,8 C8,8.36666667 8.3,8.66666667 8.66666667,8.66666667 Z M8.66666667,11.3333334 C9.03333334,11.3333334 9.33333334,11.0333334 9.33333334,10.6666667 C9.33333334,10.3 9.03333334,10 8.66666667,10 C8.3,10 8,10.3 8,10.6666667 C8,11.0333334 8.3,11.3333334 8.66666667,11.3333334 Z"/>
  </defs>
  <g fill="none" fill-rule="evenodd">
    <mask id="blur-linear-b" fill="#fff">
      <use xlink:href="#blur-linear-a"/>
    </mask>
    <g fill="CurrentColor" mask="url(#blur-linear-b)">
      <rect width="16" height="16"/>
    </g>
  </g>
</svg>
