<svg xmlns="http://www.w3.org/2000/svg" xmlns:xlink="http://www.w3.org/1999/xlink" width="16" height="16" viewBox="0 0 16 16">
  <defs>
    <path id="broken-image-a" d="M14,3.3333333 L14,7.72666666 L12,5.71999999 L9.33333334,8.39333334 L6.66666666,5.72666665 L3.99999996,8.39333334 L1.99999996,6.38666666 L1.99999996,3.3333333 C1.99999996,2.59999997 2.59999997,1.99999996 3.3333333,1.99999996 L12.6666667,1.99999996 C13.4,1.99999996 14,2.59999997 14,3.3333333 Z M12,7.61333333 L14,9.62000001 L14,12.6666667 C14,13.4 13.4,14 12.6666667,14 L3.3333333,14 C2.59999997,14 1.99999996,13.4 1.99999996,12.6666667 L1.99999996,8.28 L3.99999996,10.2733333 L6.66666666,7.60666666 L9.33333334,10.2733333 L12,7.61333333 Z"/>
  </defs>
  <g fill="none" fill-rule="evenodd">
    <mask id="broken-image-b" fill="#fff">
      <use xlink:href="#broken-image-a"/>
    </mask>
    <g fill="CurrentColor" mask="url(#broken-image-b)">
      <rect width="16" height="16"/>
    </g>
  </g>
</svg>
