<svg xmlns="http://www.w3.org/2000/svg" xmlns:xlink="http://www.w3.org/1999/xlink" width="16" height="16" viewBox="0 0 16 16">
  <defs>
    <path id="camera-alt-a" d="M8,10.1333333 C6.82179253,10.1333333 5.86666665,9.17820747 5.86666665,8 C5.86666665,6.82179253 6.82179253,5.86666665 8,5.86666665 C9.17820747,5.86666665 10.1333333,6.82179253 10.1333333,8 C10.1333333,9.17820747 9.17820747,10.1333333 8,10.1333333 Z M5.99999999,1.33333329 L10,1.33333329 L11.22,2.66666663 L13.3333333,2.66666663 C14.0666667,2.66666663 14.6666667,3.26666664 14.6666667,3.99999997 L14.6666667,12 C14.6666667,12.7333334 14.0666667,13.3333333 13.3333333,13.3333333 L2.66666663,13.3333333 C1.9333333,13.3333333 1.33333329,12.7333334 1.33333329,12 L1.33333329,3.99999997 C1.33333329,3.26666664 1.9333333,2.66666663 2.66666663,2.66666663 L4.77999998,2.66666663 L5.99999999,1.33333329 Z M8,11.3333334 C9.84000001,11.3333334 11.3333334,9.84000001 11.3333334,8 C11.3333334,6.15999999 9.84000001,4.66666665 8,4.66666665 C6.15999999,4.66666665 4.66666665,6.15999999 4.66666665,8 C4.66666665,9.84000001 6.15999999,11.3333334 8,11.3333334 Z"/>
  </defs>
  <g fill="none" fill-rule="evenodd">
    <mask id="camera-alt-b" fill="#fff">
      <use xlink:href="#camera-alt-a"/>
    </mask>
    <g fill="CurrentColor" mask="url(#camera-alt-b)">
      <rect width="16" height="16"/>
    </g>
  </g>
</svg>
