<svg xmlns="http://www.w3.org/2000/svg" xmlns:xlink="http://www.w3.org/1999/xlink" width="16" height="16" viewBox="0 0 16 16">
  <defs>
    <path id="center-focus-strong-a" d="M8,5.33333332 C6.52666666,5.33333332 5.33333332,6.52666666 5.33333332,8 C5.33333332,9.47333334 6.52666666,10.6666667 8,10.6666667 C9.47333334,10.6666667 10.6666667,9.47333334 10.6666667,8 C10.6666667,6.52666666 9.47333334,5.33333332 8,5.33333332 Z M3.3333333,10 L1.99999996,10 L1.99999996,12.6666667 C1.99999996,13.4 2.59999997,14 3.3333333,14 L5.99999996,14 L5.99999996,12.6666667 L3.3333333,12.6666667 L3.3333333,10 Z M3.3333333,3.3333333 L5.99999996,3.3333333 L5.99999996,1.99999996 L3.3333333,1.99999996 C2.59999997,1.99999996 1.99999996,2.59999997 1.99999996,3.3333333 L1.99999996,5.99999996 L3.3333333,5.99999996 L3.3333333,3.3333333 Z M12.6666667,1.99999996 L10,1.99999996 L10,3.3333333 L12.6666667,3.3333333 L12.6666667,5.99999996 L14,5.99999996 L14,3.3333333 C14,2.59999997 13.4,1.99999996 12.6666667,1.99999996 Z M12.6666667,12.6666667 L10,12.6666667 L10,14 L12.6666667,14 C13.4,14 14,13.4 14,12.6666667 L14,10 L12.6666667,10 L12.6666667,12.6666667 Z"/>
  </defs>
  <g fill="none" fill-rule="evenodd">
    <mask id="center-focus-strong-b" fill="#fff">
      <use xlink:href="#center-focus-strong-a"/>
    </mask>
    <g fill="CurrentColor" mask="url(#center-focus-strong-b)">
      <rect width="16" height="16"/>
    </g>
  </g>
</svg>
