<svg xmlns="http://www.w3.org/2000/svg" xmlns:xlink="http://www.w3.org/1999/xlink" width="16" height="16" viewBox="0 0 16 16">
  <defs>
    <path id="crop-a" d="M11.3333334,10 L12.6666667,10 L12.6666667,4.66666665 C12.6666667,3.93333331 12.0666667,3.3333333 11.3333334,3.3333333 L5.99999999,3.3333333 L5.99999999,4.66666665 L11.3333334,4.66666665 L11.3333334,10 Z M4.66666662,11.3333334 L4.66666662,0.666666621 L3.3333333,0.666666621 L3.3333333,3.3333333 L0.666666621,3.3333333 L0.666666621,4.66666662 L3.3333333,4.66666662 L3.3333333,11.3333334 C3.3333333,12.0666667 3.93333331,12.6666666 4.66666662,12.6666666 L11.3333334,12.6666666 L11.3333334,15.3333334 L12.6666666,15.3333334 L12.6666666,12.6666666 L15.3333334,12.6666666 L15.3333334,11.3333334 L4.66666662,11.3333334 Z"/>
  </defs>
  <g fill="none" fill-rule="evenodd">
    <mask id="crop-b" fill="#fff">
      <use xlink:href="#crop-a"/>
    </mask>
    <g fill="CurrentColor" mask="url(#crop-b)">
      <rect width="16" height="16"/>
    </g>
  </g>
</svg>
