<svg xmlns="http://www.w3.org/2000/svg" xmlns:xlink="http://www.w3.org/1999/xlink" width="16" height="16" viewBox="0 0 16 16">
  <defs>
    <path id="crop-free-a" d="M1.99999996,3.3333333 L1.99999996,5.99999996 L3.3333333,5.99999996 L3.3333333,3.3333333 L5.99999996,3.3333333 L5.99999996,1.99999996 L3.3333333,1.99999996 C2.59999997,1.99999996 1.99999996,2.59999997 1.99999996,3.3333333 Z M3.3333333,10 L1.99999996,10 L1.99999996,12.6666667 C1.99999996,13.4 2.59999997,14 3.3333333,14 L5.99999996,14 L5.99999996,12.6666667 L3.3333333,12.6666667 L3.3333333,10 Z M12.6666667,12.6666667 L10,12.6666667 L10,14 L12.6666667,14 C13.4,14 14,13.4 14,12.6666667 L14,10 L12.6666667,10 L12.6666667,12.6666667 Z M12.6666667,1.99999996 L10,1.99999996 L10,3.3333333 L12.6666667,3.3333333 L12.6666667,5.99999996 L14,5.99999996 L14,3.3333333 C14,2.59999997 13.4,1.99999996 12.6666667,1.99999996 Z"/>
  </defs>
  <g fill="none" fill-rule="evenodd">
    <mask id="crop-free-b" fill="#fff">
      <use xlink:href="#crop-free-a"/>
    </mask>
    <g fill="CurrentColor" mask="url(#crop-free-b)">
      <rect width="16" height="16"/>
    </g>
  </g>
</svg>
