<svg xmlns="http://www.w3.org/2000/svg" xmlns:xlink="http://www.w3.org/1999/xlink" width="16" height="16" viewBox="0 0 16 16">
  <defs>
    <path id="exposure-plus-2-a" d="M10.7,10.86 L12.6066667,8.81333334 C12.86,8.55333334 13.0866667,8.28666667 13.3,8.02666667 C13.5133334,7.76666667 13.6933334,7.50666666 13.8466667,7.24666666 C14,6.98666666 14.12,6.72666666 14.2066667,6.46666666 C14.2933334,6.20666666 14.3333334,5.93999999 14.3333334,5.67999999 C14.3333334,5.32666665 14.2733334,4.99999998 14.1533334,4.70666665 C14.0333334,4.41333331 13.86,4.16666664 13.6333334,3.96666664 C13.4066667,3.75999997 13.12,3.60666664 12.7933334,3.49333331 C12.4533334,3.38666664 12.0733334,3.3333333 11.6466667,3.3333333 C11.1866667,3.3333333 10.7733334,3.40666664 10.4133333,3.54666664 C10.0533333,3.68666664 9.74666668,3.88666664 9.50666668,4.13333331 C9.26,4.37999998 9.07333334,4.66666665 8.94666667,4.99999998 C8.82666667,5.31333332 8.76666667,5.64666665 8.76,5.99999999 L10.1866667,5.99999999 C10.1933333,5.79333332 10.22,5.59999999 10.2733333,5.41999998 C10.3333333,5.22666665 10.4266667,5.05999998 10.54,4.91999998 C10.66,4.77999998 10.8133334,4.67333331 10.9933334,4.59333331 C11.1733334,4.51333331 11.3933334,4.47333331 11.6333334,4.47333331 C11.84,4.47333331 12.02,4.50666664 12.1733334,4.57333331 C12.3266667,4.63999998 12.46,4.73999998 12.5666667,4.85999998 C12.6733334,4.97999998 12.7533334,5.12666665 12.8133334,5.29333332 C12.8666667,5.45999998 12.9,5.63999999 12.9,5.8333333 C12.9,5.97999999 12.88,6.11999999 12.8466667,6.26666666 C12.8066667,6.41333332 12.7466667,6.56666666 12.6533334,6.73333333 C12.56,6.89999999 12.44,7.08666666 12.28,7.28666666 C12.1266667,7.48666666 11.9333334,7.72 11.6933334,7.97333333 L8.91333334,11.0066667 L8.91333334,12 L14.6666667,12 L14.6666667,10.86 L10.7,10.86 Z M5.33333329,4.66666665 L3.99999997,4.66666665 L3.99999997,7.33333333 L1.33333329,7.33333333 L1.33333329,8.66666665 L3.99999997,8.66666665 L3.99999997,11.3333334 L5.33333329,11.3333334 L5.33333329,8.66666665 L8,8.66666665 L8,7.33333333 L5.33333329,7.33333333 L5.33333329,4.66666665 Z"/>
  </defs>
  <g fill="none" fill-rule="evenodd">
    <mask id="exposure-plus-2-b" fill="#fff">
      <use xlink:href="#exposure-plus-2-a"/>
    </mask>
    <g fill="CurrentColor" mask="url(#exposure-plus-2-b)">
      <rect width="16" height="16"/>
    </g>
  </g>
</svg>
