<svg xmlns="http://www.w3.org/2000/svg" xmlns:xlink="http://www.w3.org/1999/xlink" width="16" height="16" viewBox="0 0 16 16">
  <defs>
    <path id="filter-2-a" d="M1.99999996,3.3333333 L0.666666621,3.3333333 L0.666666621,14 C0.666666621,14.7333334 1.26666662,15.3333333 1.99999996,15.3333333 L12.6666666,15.3333333 L12.6666666,14 L1.99999996,14 L1.99999996,3.3333333 Z M14,0.666666621 L4.66666665,0.666666621 C3.93333331,0.666666621 3.3333333,1.26666662 3.3333333,1.99999996 L3.3333333,11.3333334 C3.3333333,12.0666667 3.93333331,12.6666666 4.66666665,12.6666666 L14,12.6666666 C14.7333334,12.6666666 15.3333333,12.0666667 15.3333333,11.3333334 L15.3333333,1.99999996 C15.3333333,1.26666662 14.7333334,0.666666621 14,0.666666621 Z M14,11.3333334 L4.66666665,11.3333334 L4.66666665,1.99999996 L14,1.99999996 L14,11.3333334 Z M11.3333333,8.66666667 L8.66666667,8.66666667 L8.66666667,7.3333333 L10,7.3333333 C10.7333334,7.3333333 11.3333333,6.73999999 11.3333333,5.99999999 L11.3333333,4.66666665 C11.3333333,3.92666664 10.7333334,3.3333333 10,3.3333333 L7.33333333,3.3333333 L7.33333333,4.66666665 L10,4.66666665 L10,5.99999999 L8.66666667,5.99999999 C7.93333333,5.99999999 7.33333333,6.59333332 7.33333333,7.3333333 L7.33333333,10 L11.3333333,10 L11.3333333,8.66666667 Z"/>
  </defs>
  <g fill="none" fill-rule="evenodd">
    <mask id="filter-2-b" fill="#fff">
      <use xlink:href="#filter-2-a"/>
    </mask>
    <g fill="CurrentColor" mask="url(#filter-2-b)">
      <rect width="16" height="16"/>
    </g>
  </g>
</svg>
