<svg xmlns="http://www.w3.org/2000/svg" xmlns:xlink="http://www.w3.org/1999/xlink" width="16" height="16" viewBox="0 0 16 16">
  <defs>
    <path id="flare-a" d="M4.66666662,7.33333333 L0.666666621,7.33333333 L0.666666621,8.66666667 L4.66666662,8.66666667 L4.66666662,7.33333333 Z M6.11333332,5.17333332 L4.69999998,3.75999997 L3.75999997,4.69999998 L5.17333332,6.11333332 L6.11333332,5.17333332 Z M8.66666667,0.666666621 L7.33333333,0.666666621 L7.33333333,4.66666662 L8.66666667,4.66666662 L8.66666667,0.666666621 Z M12.24,4.69999998 L11.3,3.75999997 L9.88666668,5.17333332 L10.8266667,6.11333332 L12.24,4.69999998 Z M11.3333334,7.33333333 L11.3333334,8.66666667 L15.3333334,8.66666667 L15.3333334,7.33333333 L11.3333334,7.33333333 Z M7.99999999,5.99999999 C6.89333333,5.99999999 5.99999999,6.89333333 5.99999999,7.99999999 C5.99999999,9.10666667 6.89333333,9.99999999 7.99999999,9.99999999 C9.10666667,9.99999999 9.99999999,9.10666667 9.99999999,7.99999999 C9.99999999,6.89333333 9.10666667,5.99999999 7.99999999,5.99999999 Z M9.88666668,10.8266667 L11.3,12.24 L12.24,11.3 L10.8266667,9.88666668 L9.88666668,10.8266667 L9.88666668,10.8266667 Z M3.75999997,11.3 L4.69999998,12.24 L6.11333332,10.8266667 L5.17333332,9.88666668 L3.75999997,11.3 L3.75999997,11.3 Z M7.33333333,15.3333334 L8.66666667,15.3333334 L8.66666667,11.3333334 L7.33333333,11.3333334 L7.33333333,15.3333334 Z"/>
  </defs>
  <g fill="none" fill-rule="evenodd">
    <mask id="flare-b" fill="#fff">
      <use xlink:href="#flare-a"/>
    </mask>
    <g fill="CurrentColor" mask="url(#flare-b)">
      <rect width="16" height="16"/>
    </g>
  </g>
</svg>
