<svg xmlns="http://www.w3.org/2000/svg" xmlns:xlink="http://www.w3.org/1999/xlink" width="16" height="16" viewBox="0 0 16 16">
  <defs>
    <path id="flip-a" d="M10,14 L11.3333334,14 L11.3333334,12.6666667 L10,12.6666667 L10,14 Z M12.6666667,5.99999999 L14,5.99999999 L14,4.66666665 L12.6666667,4.66666665 L12.6666667,5.99999999 Z M1.99999996,3.3333333 L1.99999996,12.6666667 C1.99999996,13.4 2.59999997,14 3.3333333,14 L5.99999996,14 L5.99999996,12.6666667 L3.3333333,12.6666667 L3.3333333,3.3333333 L5.99999996,3.3333333 L5.99999996,1.99999996 L3.3333333,1.99999996 C2.59999997,1.99999996 1.99999996,2.59999997 1.99999996,3.3333333 Z M12.6666667,1.99999996 L12.6666667,3.3333333 L14,3.3333333 C14,2.59999997 13.4,1.99999996 12.6666667,1.99999996 Z M7.33333333,15.3333334 L8.66666667,15.3333334 L8.66666667,0.666666621 L7.33333333,0.666666621 L7.33333333,15.3333334 Z M12.6666667,11.3333334 L14,11.3333334 L14,10 L12.6666667,10 L12.6666667,11.3333334 Z M10,3.3333333 L11.3333334,3.3333333 L11.3333334,1.99999996 L10,1.99999996 L10,3.3333333 Z M12.6666667,8.66666667 L14,8.66666667 L14,7.33333333 L12.6666667,7.33333333 L12.6666667,8.66666667 Z M12.6666667,14 C13.4,14 14,13.4 14,12.6666667 L12.6666667,12.6666667 L12.6666667,14 Z"/>
  </defs>
  <g fill="none" fill-rule="evenodd">
    <mask id="flip-b" fill="#fff">
      <use xlink:href="#flip-a"/>
    </mask>
    <g fill="CurrentColor" mask="url(#flip-b)">
      <rect width="16" height="16"/>
    </g>
  </g>
</svg>
