<svg xmlns="http://www.w3.org/2000/svg" xmlns:xlink="http://www.w3.org/1999/xlink" width="16" height="16" viewBox="0 0 16 16">
  <defs>
    <path id="image-aspect-ratio-a" d="M10.6666667,6.66666666 L9.33333334,6.66666666 L9.33333334,8 L10.6666667,8 L10.6666667,6.66666666 Z M10.6666667,9.33333334 L9.33333334,9.33333334 L9.33333334,10.6666667 L10.6666667,10.6666667 L10.6666667,9.33333334 Z M5.33333332,6.66666666 L3.99999997,6.66666666 L3.99999997,8 L5.33333332,8 L5.33333332,6.66666666 Z M8,6.66666666 L6.66666666,6.66666666 L6.66666666,8 L8,8 L8,6.66666666 Z M13.3333333,2.66666663 L2.66666663,2.66666663 C1.9333333,2.66666663 1.33333329,3.26666664 1.33333329,3.99999997 L1.33333329,12 C1.33333329,12.7333334 1.9333333,13.3333334 2.66666663,13.3333334 L13.3333333,13.3333334 C14.0666667,13.3333334 14.6666667,12.7333334 14.6666667,12 L14.6666667,3.99999997 C14.6666667,3.26666664 14.0666667,2.66666663 13.3333333,2.66666663 Z M13.3333334,12 L2.66666663,12 L2.66666663,3.99999997 L13.3333334,3.99999997 L13.3333334,12 Z"/>
  </defs>
  <g fill="none" fill-rule="evenodd">
    <mask id="image-aspect-ratio-b" fill="#fff">
      <use xlink:href="#image-aspect-ratio-a"/>
    </mask>
    <g fill="CurrentColor" mask="url(#image-aspect-ratio-b)">
      <rect width="16" height="16"/>
    </g>
  </g>
</svg>
