<svg xmlns="http://www.w3.org/2000/svg" xmlns:xlink="http://www.w3.org/1999/xlink" width="16" height="16" viewBox="0 0 16 16">
  <defs>
    <path id="looks-6-a" d="M7.33333333,10 L8.66666667,10 L8.66666667,8.66666667 L7.33333333,8.66666667 L7.33333333,10 Z M12.6666667,1.99999996 L3.3333333,1.99999996 C2.59999997,1.99999996 1.99999996,2.59999997 1.99999996,3.3333333 L1.99999996,12.6666667 C1.99999996,13.4 2.59999997,14 3.3333333,14 L12.6666667,14 C13.4,14 14,13.4 14,12.6666667 L14,3.3333333 C14,2.59999997 13.4,1.99999996 12.6666667,1.99999996 Z M9.99999999,5.99999999 L7.33333333,5.99999999 L7.33333333,7.33333333 L8.66666667,7.33333333 C9.40000001,7.33333333 9.99999999,7.92666667 9.99999999,8.66666665 L9.99999999,10 C9.99999999,10.74 9.40000001,11.3333334 8.66666667,11.3333334 L7.33333333,11.3333334 C6.59999999,11.3333334 5.99999999,10.74 5.99999999,10 L5.99999999,5.99999999 C5.99999999,5.25999998 6.59999999,4.66666665 7.33333333,4.66666665 L9.99999999,4.66666665 L9.99999999,5.99999999 Z"/>
  </defs>
  <g fill="none" fill-rule="evenodd">
    <mask id="looks-6-b" fill="#fff">
      <use xlink:href="#looks-6-a"/>
    </mask>
    <g fill="CurrentColor" mask="url(#looks-6-b)">
      <rect width="16" height="16"/>
    </g>
  </g>
</svg>
