<svg xmlns="http://www.w3.org/2000/svg" xmlns:xlink="http://www.w3.org/1999/xlink" width="16" height="16" viewBox="0 0 16 16">
  <defs>
    <path id="nature-people-a" d="M14.78,6.11333332 C14.78,3.53333331 12.6933334,1.44666663 10.1133333,1.44666663 C7.53333333,1.44666663 5.44666665,3.53333331 5.44666665,6.11333332 C5.44666665,8.42666667 7.12666666,10.34 9.33333329,10.7066667 L9.33333329,13.3333334 L3.99999998,13.3333334 L3.99999998,11.3333334 L4.66666665,11.3333334 L4.66666665,8.66666667 C4.66666665,8.3 4.36666664,8 3.99999998,8 L1.99999996,8 C1.63333329,8 1.33333329,8.3 1.33333329,8.66666667 L1.33333329,11.3333334 L1.99999996,11.3333334 L1.99999996,14.6666667 L12.6666667,14.6666667 L12.6666667,13.3333334 L10.6666667,13.3333334 L10.6666667,10.7466667 C12.98,10.4733333 14.78,8.50666667 14.78,6.11333332 Z M2.99999996,7.33333332 C3.55333331,7.33333332 3.99999996,6.88666666 3.99999996,6.33333332 C3.99999996,5.77999999 3.55333331,5.33333332 2.99999996,5.33333332 C2.44666663,5.33333332 1.99999996,5.77999999 1.99999996,6.33333332 C1.99999996,6.88666666 2.44666663,7.33333332 2.99999996,7.33333332 Z"/>
  </defs>
  <g fill="none" fill-rule="evenodd">
    <mask id="nature-people-b" fill="#fff">
      <use xlink:href="#nature-people-a"/>
    </mask>
    <g fill="CurrentColor" mask="url(#nature-people-b)">
      <rect width="16" height="16"/>
    </g>
  </g>
</svg>
