<svg xmlns="http://www.w3.org/2000/svg" xmlns:xlink="http://www.w3.org/1999/xlink" width="16" height="16" viewBox="0 0 16 16">
  <defs>
    <path id="photo-size-select-small-a" d="M15.3333334,10 L14,10 L14,11.3333334 L15.3333334,11.3333334 L15.3333334,10 Z M15.3333334,7.33333333 L14,7.33333333 L14,8.66666667 L15.3333334,8.66666667 L15.3333334,7.33333333 Z M15.3333334,12.6666667 L14,12.6666667 L14,14 C14.6666667,14 15.3333334,13.3333334 15.3333334,12.6666667 Z M10,1.99999996 L8.66666667,1.99999996 L8.66666667,3.3333333 L10,3.3333333 L10,1.99999996 Z M15.3333334,4.66666665 L14,4.66666665 L14,5.99999999 L15.3333334,5.99999999 L15.3333334,4.66666665 Z M14,1.99999996 L14,3.3333333 L15.3333334,3.3333333 C15.3333334,2.66666663 14.6666667,1.99999996 14,1.99999996 Z M1.99999996,14 L7.33333333,14 L7.33333333,10 L0.666666621,10 L0.666666621,12.6666667 C0.666666621,13.4 1.26666662,14 1.99999996,14 Z M1.99999996,4.66666665 L0.666666621,4.66666665 L0.666666621,5.99999999 L1.99999996,5.99999999 L1.99999996,4.66666665 Z M10,12.6666667 L8.66666667,12.6666667 L8.66666667,14 L10,14 L10,12.6666667 Z M12.6666667,1.99999996 L11.3333334,1.99999996 L11.3333334,3.3333333 L12.6666667,3.3333333 L12.6666667,1.99999996 Z M12.6666667,12.6666667 L11.3333334,12.6666667 L11.3333334,14 L12.6666667,14 L12.6666667,12.6666667 Z M1.99999996,1.99999996 C1.33333329,1.99999996 0.666666621,2.66666663 0.666666621,3.3333333 L1.99999996,3.3333333 L1.99999996,1.99999996 Z M1.99999996,7.33333333 L0.666666621,7.33333333 L0.666666621,8.66666667 L1.99999996,8.66666667 L1.99999996,7.33333333 Z M7.33333333,1.99999996 L5.99999999,1.99999996 L5.99999999,3.3333333 L7.33333333,3.3333333 L7.33333333,1.99999996 Z M4.66666665,1.99999996 L3.3333333,1.99999996 L3.3333333,3.3333333 L4.66666665,3.3333333 L4.66666665,1.99999996 Z"/>
  </defs>
  <g fill="none" fill-rule="evenodd">
    <mask id="photo-size-select-small-b" fill="#fff">
      <use xlink:href="#photo-size-select-small-a"/>
    </mask>
    <g fill="CurrentColor" mask="url(#photo-size-select-small-b)">
      <rect width="16" height="16"/>
    </g>
  </g>
</svg>
