<svg xmlns="http://www.w3.org/2000/svg" xmlns:xlink="http://www.w3.org/1999/xlink" width="16" height="16" viewBox="0 0 16 16">
  <defs>
    <path id="photo-album-a" d="M12,1.33333329 L3.99999997,1.33333329 C3.26666664,1.33333329 2.66666663,1.9333333 2.66666663,2.66666663 L2.66666663,13.3333333 C2.66666663,14.0666667 3.26666664,14.6666667 3.99999997,14.6666667 L12,14.6666667 C12.7333334,14.6666667 13.3333334,14.0666667 13.3333334,13.3333333 L13.3333334,2.66666663 C13.3333334,1.9333333 12.7333334,1.33333329 12,1.33333329 Z M3.99999997,2.66666663 L7.33333333,2.66666663 L7.33333333,8 L5.66666665,6.99999999 L3.99999997,8 L3.99999997,2.66666663 Z M3.99999997,12.6666667 L5.99999997,10.0933333 L7.42666666,11.8133334 L9.42666668,9.24000001 L12,12.6666667 L3.99999997,12.6666667 Z"/>
  </defs>
  <g fill="none" fill-rule="evenodd">
    <mask id="photo-album-b" fill="#fff">
      <use xlink:href="#photo-album-a"/>
    </mask>
    <g fill="CurrentColor" mask="url(#photo-album-b)">
      <rect width="16" height="16"/>
    </g>
  </g>
</svg>
