<svg xmlns="http://www.w3.org/2000/svg" xmlns:xlink="http://www.w3.org/1999/xlink" width="16" height="16" viewBox="0 0 16 16">
  <defs>
    <path id="portrait-a" d="M7.99999999,8.16666665 C8.82666667,8.16666665 9.49999999,7.49333333 9.49999999,6.66666665 C9.49999999,5.83999999 8.82666667,5.16666665 7.99999999,5.16666665 C7.17333333,5.16666665 6.49999999,5.83999999 6.49999999,6.66666665 C6.49999999,7.49333333 7.17333333,8.16666665 7.99999999,8.16666665 Z M11,10.8333333 C11,9.83333334 8.99999998,9.33333334 7.99999998,9.33333334 C6.99999998,9.33333334 4.99999998,9.83333334 4.99999998,10.8333333 L4.99999998,11.3333333 L11,11.3333333 L11,10.8333333 Z M12.6666667,1.99999996 L3.3333333,1.99999996 C2.59999997,1.99999996 1.99999996,2.59999997 1.99999996,3.3333333 L1.99999996,12.6666667 C1.99999996,13.4 2.59999997,14 3.3333333,14 L12.6666667,14 C13.4,14 14,13.4 14,12.6666667 L14,3.3333333 C14,2.59999997 13.4,1.99999996 12.6666667,1.99999996 Z M12.6666667,12.6666667 L3.3333333,12.6666667 L3.3333333,3.3333333 L12.6666667,3.3333333 L12.6666667,12.6666667 Z"/>
  </defs>
  <g fill="none" fill-rule="evenodd">
    <mask id="portrait-b" fill="#fff">
      <use xlink:href="#portrait-a"/>
    </mask>
    <g fill="CurrentColor" mask="url(#portrait-b)">
      <rect width="16" height="16"/>
    </g>
  </g>
</svg>
