<svg xmlns="http://www.w3.org/2000/svg" xmlns:xlink="http://www.w3.org/1999/xlink" width="16" height="16" viewBox="0 0 16 16">
  <defs>
    <path id="switch-video-a" d="M12,6.3333333 L12,3.99999997 C12,3.63333331 11.7,3.3333333 11.3333333,3.3333333 L1.99999996,3.3333333 C1.63333329,3.3333333 1.33333329,3.63333331 1.33333329,3.99999997 L1.33333329,12 C1.33333329,12.3666667 1.63333329,12.6666667 1.99999996,12.6666667 L11.3333333,12.6666667 C11.7,12.6666667 12,12.3666667 12,12 L12,9.66666668 L14.6666667,12.3333333 L14.6666667,3.66666664 L12,6.3333333 Z M8.66666667,10.3333333 L8.66666667,8.66666665 L4.66666665,8.66666665 L4.66666665,10.3333333 L2.3333333,8 L4.66666665,5.66666665 L4.66666665,7.33333333 L8.66666667,7.33333333 L8.66666667,5.66666665 L11,8 L8.66666667,10.3333333 Z"/>
  </defs>
  <g fill="none" fill-rule="evenodd">
    <mask id="switch-video-b" fill="#fff">
      <use xlink:href="#switch-video-a"/>
    </mask>
    <g fill="CurrentColor" mask="url(#switch-video-b)">
      <rect width="16" height="16"/>
    </g>
  </g>
</svg>
