<svg xmlns="http://www.w3.org/2000/svg" xmlns:xlink="http://www.w3.org/1999/xlink" width="16" height="16" viewBox="0 0 16 16">
  <defs>
    <path id="texture-a" d="M13.0066667,2.0533333 L2.0533333,13.0066667 C2.1133333,13.2333334 2.2333333,13.44 2.3933333,13.6066667 C2.55999997,13.7666667 2.76666663,13.8866667 2.9933333,13.9466667 L13.9533334,2.9933333 C13.8266667,2.5333333 13.4666667,2.1733333 13.0066667,2.0533333 Z M7.92,1.99999996 L1.99999996,7.92 L1.99999996,9.80666668 L9.80666668,1.99999996 L7.92,1.99999996 Z M3.3333333,1.99999996 C2.59999997,1.99999996 1.99999996,2.59999997 1.99999996,3.3333333 L1.99999996,4.66666665 L4.66666665,1.99999996 L3.3333333,1.99999996 Z M12.6666667,14 C13.0333334,14 13.3666667,13.8533334 13.6066667,13.6066667 C13.8533334,13.3666667 14,13.0333334 14,12.6666667 L14,11.3333334 L11.3333334,14 L12.6666667,14 Z M6.19333332,14 L8.08,14 L14,8.08 L14,6.19333332 L6.19333332,14 Z"/>
  </defs>
  <g fill="none" fill-rule="evenodd">
    <mask id="texture-b" fill="#fff">
      <use xlink:href="#texture-a"/>
    </mask>
    <g fill="CurrentColor" mask="url(#texture-b)">
      <rect width="16" height="16"/>
    </g>
  </g>
</svg>
