<svg xmlns="http://www.w3.org/2000/svg" xmlns:xlink="http://www.w3.org/1999/xlink" width="16" height="16" viewBox="0 0 16 16">
  <defs>
    <path id="timer-3-a" d="M7.74,8.64666667 C7.63333333,8.48666667 7.5,8.34 7.32666666,8.21333333 C7.15999999,8.08666667 6.95333333,7.98 6.70666666,7.89333333 C6.90666666,7.8 7.08666666,7.69333333 7.24,7.56 C7.39333333,7.42666666 7.52,7.28666666 7.62,7.13333333 C7.72,6.97999999 7.8,6.82666666 7.84666667,6.65999999 C7.9,6.49999999 7.92,6.33333332 7.92,6.17333332 C7.92,5.80666665 7.86,5.47999998 7.73333333,5.19999998 C7.61333333,4.91999998 7.44,4.68666665 7.21333333,4.49333331 C6.99333333,4.30666664 6.72666666,4.15999998 6.41333332,4.06666664 C6.11333332,3.97999997 5.76666665,3.93333331 5.39333332,3.93333331 C5.02666665,3.93333331 4.68666665,3.98666664 4.37999998,4.09333331 C4.06666664,4.20666664 3.79999997,4.35999998 3.57999997,4.55333331 C3.35999997,4.74666665 3.17999997,4.97333331 3.05999997,5.23999998 C2.92666663,5.49999998 2.86666663,5.79333332 2.86666663,6.09999999 L4.18666664,6.09999999 C4.18666664,5.92666665 4.21999998,5.77333332 4.27999998,5.63999999 C4.33999998,5.50666665 4.42666664,5.38666665 4.53333331,5.29333332 C4.64666665,5.19999998 4.77333331,5.12666665 4.91999998,5.07333332 C5.06666665,5.01999998 5.22666665,4.99333331 5.40666665,4.99333331 C5.81333332,4.99333331 6.11333332,5.09999998 6.31333332,5.30666665 C6.51333332,5.51333332 6.60666666,5.80666665 6.60666666,6.18666666 C6.60666666,6.36666666 6.57999999,6.53333332 6.52666666,6.67999999 C6.47333332,6.82666666 6.38666666,6.95333333 6.27333332,7.05999999 C6.15999999,7.16666666 6.01999999,7.24666666 5.85333332,7.30666666 C5.68666665,7.36666666 5.48666665,7.39333333 5.25999998,7.39333333 L4.47999998,7.39333333 L4.47999998,8.44 L5.26666665,8.44 C5.49333332,8.44 5.69333332,8.46666667 5.87333332,8.51333334 C6.05333332,8.56666667 6.20666666,8.64 6.33333332,8.74666667 C6.45999999,8.85333334 6.55999999,8.98666667 6.62666666,9.15333334 C6.69333333,9.31333334 6.73333333,9.51333334 6.73333333,9.73333334 C6.73333333,10.1466667 6.61333332,10.46 6.37999999,10.68 C6.14666666,10.9 5.81999999,11.0066667 5.41333332,11.0066667 C5.21999998,11.0066667 5.03999998,10.98 4.87999998,10.92 C4.71999998,10.8666667 4.58666665,10.7866667 4.47333331,10.68 C4.35999998,10.5733333 4.27333331,10.4533333 4.21333331,10.3066667 C4.15333331,10.16 4.11999998,10 4.11999998,9.82666668 L2.7933333,9.82666668 C2.7933333,10.1933333 2.86666663,10.5133333 3.00666664,10.7933334 C3.14666664,11.0733334 3.33999997,11.3066667 3.57999997,11.4933334 C3.81999997,11.68 4.09333331,11.82 4.40666664,11.9133334 C4.71999998,12.0066667 5.04666665,12.0533334 5.39333332,12.0533334 C5.77333332,12.0533334 6.11999999,12 6.44666666,11.9 C6.77333333,11.8 7.05333333,11.6466667 7.28666666,11.4466667 C7.52666666,11.2466667 7.71333333,11.0066667 7.84666667,10.7133334 C7.98,10.4266667 8.04666667,10.0933333 8.04666667,9.72666668 C8.04666667,9.53333334 8.02,9.34000001 7.97333333,9.15333334 C7.92,8.98666667 7.84666667,8.81333334 7.74,8.64666667 L7.74,8.64666667 Z M13.9133334,9.58000001 C13.82,9.39333334 13.68,9.22666667 13.4933334,9.08666667 C13.3066667,8.94666667 13.0866667,8.82666667 12.82,8.73333334 C12.5533334,8.64 12.2533334,8.55333334 11.92,8.48 C11.6866667,8.43333334 11.4933334,8.38 11.34,8.32666667 C11.1866667,8.27333334 11.0666667,8.22 10.9733334,8.16 C10.88,8.1 10.82,8.03333333 10.7866667,7.96 C10.7533334,7.88666667 10.7333334,7.8 10.7333334,7.7 C10.7333334,7.6 10.7533334,7.51333333 10.7933334,7.42666666 C10.8333334,7.34 10.8933334,7.26 10.9733334,7.19999999 C11.0533334,7.13333333 11.1533334,7.07999999 11.2733334,7.03999999 C11.3933334,6.99999999 11.54,6.97999999 11.7,6.97999999 C11.8666667,6.97999999 12.0133334,7.00666666 12.14,7.05333333 C12.2666667,7.09999999 12.3733334,7.16666666 12.46,7.24666666 C12.5466667,7.32666666 12.6066667,7.42 12.6533334,7.52666666 C12.6933334,7.63333333 12.72,7.74 12.72,7.85333333 L14.02,7.85333333 C14.02,7.59333333 13.9666667,7.35333333 13.86,7.12666666 C13.7533334,6.89999999 13.6,6.70666666 13.4,6.53999999 C13.2,6.37333332 12.96,6.24666666 12.6733334,6.14666666 C12.3866667,6.04666665 12.06,5.99999999 11.7,5.99999999 C11.36,5.99999999 11.0466667,6.04666665 10.7733334,6.13999999 C10.5,6.23333332 10.26,6.35999999 10.0666667,6.51999999 C9.87333335,6.67999999 9.72666668,6.86666666 9.62000001,7.07999999 C9.51333334,7.29333333 9.46666668,7.51333333 9.46666668,7.75333333 C9.46666668,7.99333333 9.52000001,8.20666667 9.62000001,8.39333334 C9.72000001,8.58 9.86666668,8.74 10.0466667,8.88000001 C10.2266667,9.02000001 10.4466667,9.13333334 10.7,9.23333334 C10.9533334,9.32666667 11.24,9.40666668 11.5466667,9.47333334 C11.8066667,9.52666668 12.02,9.58666668 12.18,9.64666668 C12.34,9.70666668 12.4666667,9.77333334 12.56,9.84000001 C12.6466667,9.90666668 12.7066667,9.98666668 12.74,10.0666667 C12.7733334,10.1466667 12.7866667,10.2333333 12.7866667,10.3266667 C12.7866667,10.54 12.7,10.7066667 12.52,10.84 C12.34,10.9733334 12.08,11.0333334 11.74,11.0333334 C11.5933334,11.0333334 11.4533334,11.02 11.3133334,10.98 C11.1733334,10.9466667 11.0466667,10.8933334 10.94,10.82 C10.8266667,10.7466667 10.74,10.6466667 10.6666667,10.5266667 C10.5933333,10.4066667 10.5533333,10.2533333 10.5466667,10.08 L9.28666667,10.08 C9.28666667,10.32 9.34000001,10.5533333 9.44666668,10.78 C9.55333334,11.0066667 9.70666668,11.2133334 9.91333335,11.4 C10.12,11.58 10.3733333,11.7266667 10.68,11.84 C10.9866667,11.9533334 11.3333334,12.0066667 11.7333334,12.0066667 C12.0866667,12.0066667 12.4066667,11.9666667 12.6933334,11.88 C12.98,11.7933334 13.2266667,11.6733334 13.4333334,11.52 C13.64,11.3666667 13.7933334,11.18 13.9066667,10.9666667 C14.02,10.7533334 14.0733334,10.52 14.0733334,10.26 C14.06,9.99333335 14.0133334,9.76666668 13.9133334,9.58000001 L13.9133334,9.58000001 Z"/>
  </defs>
  <g fill="none" fill-rule="evenodd">
    <mask id="timer-3-b" fill="#fff">
      <use xlink:href="#timer-3-a"/>
    </mask>
    <g fill="CurrentColor" mask="url(#timer-3-b)">
      <rect width="16" height="16"/>
    </g>
  </g>
</svg>
