<svg xmlns="http://www.w3.org/2000/svg" xmlns:xlink="http://www.w3.org/1999/xlink" width="16" height="16" viewBox="0 0 16 16">
  <defs>
    <path id="transform-a" d="M14.6666667,12 L14.6666667,10.6666666 L5.33333329,10.6666666 L5.33333329,2.66666662 L6.66666666,2.66666662 L4.66666665,0.666666621 L2.66666663,2.66666662 L3.99999997,2.66666662 L3.99999997,3.99999997 L1.33333329,3.99999997 L1.33333329,5.33333332 L3.99999997,5.33333332 L3.99999997,10.6666666 C3.99999997,11.4 4.59999998,12 5.33333329,12 L10.6666667,12 L10.6666667,13.3333334 L9.33333329,13.3333334 L11.3333333,15.3333334 L13.3333333,13.3333334 L12,13.3333334 L12,12 L14.6666667,12 Z M6.66666666,5.33333332 L10.6666667,5.33333332 L10.6666667,9.33333334 L12,9.33333334 L12,5.33333332 C12,4.59999998 11.4,3.99999997 10.6666667,3.99999997 L6.66666666,3.99999997 L6.66666666,5.33333332 Z"/>
  </defs>
  <g fill="none" fill-rule="evenodd">
    <mask id="transform-b" fill="#fff">
      <use xlink:href="#transform-a"/>
    </mask>
    <g fill="CurrentColor" mask="url(#transform-b)">
      <rect width="16" height="16"/>
    </g>
  </g>
</svg>
