<svg xmlns="http://www.w3.org/2000/svg" xmlns:xlink="http://www.w3.org/1999/xlink" width="16" height="16" viewBox="0 0 16 16">
  <defs>
    <path id="wb-auto-a" d="M4.56666665,8.43333334 L6.09999999,8.43333334 L5.33333332,5.99999999 L4.56666665,8.43333334 Z M14.6666667,4.66666663 L13.8666667,8.86000001 L12.8666667,4.66666663 L11.8,4.66666663 L10.8066667,8.86000001 L9.99999995,4.66666663 L9.49333334,4.66666663 C8.51333334,3.44666664 7.01999999,2.66666663 5.33333332,2.66666663 C2.38666663,2.66666663 -5.00000006e-08,5.05333331 -5.00000006e-08,8 C-5.00000006e-08,10.9466667 2.38666663,13.3333334 5.33333332,13.3333334 C7.42,13.3333334 9.22666667,12.1266667 10.1,10.38 L10.1666667,10.6666666 L11.3333334,10.6666666 L12.3333334,6.59999999 L13.3333334,10.6666666 L14.4999999,10.6666666 L15.8666667,4.66666663 L14.6666667,4.66666663 Z M6.86666666,10.6666666 L6.39999999,9.33333334 L4.26666664,9.33333334 L3.79999997,10.6666666 L2.5333333,10.6666666 L4.66666665,4.66666665 L5.99999999,4.66666665 L8.13333333,10.6666666 L6.86666666,10.6666666 L6.86666666,10.6666666 Z"/>
  </defs>
  <g fill="none" fill-rule="evenodd">
    <mask id="wb-auto-b" fill="#fff">
      <use xlink:href="#wb-auto-a"/>
    </mask>
    <g fill="CurrentColor" mask="url(#wb-auto-b)">
      <rect width="16" height="16"/>
    </g>
  </g>
</svg>
