<svg xmlns="http://www.w3.org/2000/svg" width="727" height="258">
  <g fill="none" fill-rule="evenodd">
    <path fill="#FFF" stroke="#B8C7D2" d="M1.5.5h725v222H1.5z"/>
    <g transform="translate(241 40)">
      <path fill="#B8C7D2" d="M9 18h1v45H9z"/>
      <path fill="#B8C7D2" d="M9 62h44v1H9z"/>
      <g transform="translate(55 50)">
        <rect width="142" height="45" x="-.5" y="-.5" fill="#FFF" stroke="#B8C7D2" rx="3"/>
        <path fill="#3E5667" d="M43.83 21.81c-.09-.06-.78-.47-1.06-.6l-.34-.82c.1-.27.3-1.04.33-1.17a.37.37 0 0 0-.1-.34l-.54-.54a.36.36 0 0 0-.34-.1c-.1.03-.88.22-1.17.33l-.82-.34c-.12-.26-.53-.94-.6-1.06a.36.36 0 0 0-.31-.17h-.76a.37.37 0 0 0-.31.17c-.06.09-.47.78-.6 1.06l-.82.34c-.27-.1-1.04-.3-1.17-.33a.37.37 0 0 0-.34.1l-.54.54a.36.36 0 0 0-.1.34c.03.1.22.88.33 1.17l-.34.82c-.26.12-.94.53-1.06.6a.36.36 0 0 0-.17.31v.76c0 .12.06.24.17.3.09.07.78.48 1.06.6l.34.83c-.1.27-.3 1.04-.33 1.17-.03.12.01.25.1.34l.53.54c.1.09.22.12.34.1.1-.03.88-.22 1.17-.33l.83.34c.12.26.52.94.6 1.05.06.11.18.18.31.18h.76c.12 0 .24-.06.3-.17.07-.09.48-.78.6-1.06l.83-.34c.27.1 1.04.3 1.17.33.12.03.25-.01.34-.1l.54-.53a.37.37 0 0 0 .1-.34c-.03-.1-.22-.88-.33-1.17l.34-.83c.26-.12.94-.52 1.05-.6a.37.37 0 0 0 .18-.31v-.76a.36.36 0 0 0-.17-.31zm-5.33 3.08a2.4 2.4 0 1 1 0-4.79 2.4 2.4 0 0 1 0 4.8z"/>
        <text fill="#233745" font-family="Lato-Medium, Lato" font-size="15" font-weight="400">
          <tspan x="50.23" y="28">Default</tspan>
        </text>
      </g>
      <path fill="#B8C7D2" d="M93.5 88h1v45h-1zM93.5 133h44v1h-44zM142.5 10h1v50h-1zM142.5 9h44v1h-44z"/>
      <g transform="translate(0 1)">
        <rect width="19.2" height="18.4" fill="#3E5667" rx="9.2"/>
        <text fill="#FFF" font-family="Lato-Heavy, Lato" font-size="9.6" font-weight="600">
          <tspan x="6.82" y="12.2">1</tspan>
        </text>
      </g>
      <text fill="#233745" font-family="Lato-Medium, Lato" font-size="15" font-weight="400">
        <tspan x="29.5" y="15">Container</tspan>
      </text>
      <g transform="translate(183 1)">
        <rect width="19.2" height="18.4" fill="#3E5667" rx="9.2"/>
        <text fill="#FFF" font-family="Lato-Heavy, Lato" font-size="9.6" font-weight="600">
          <tspan x="6.82" y="12.2">2</tspan>
        </text>
      </g>
      <text fill="#233745" font-family="Lato-Medium, Lato" font-size="15" font-weight="400" transform="translate(183)">
        <tspan x="26.5" y="15">Label</tspan>
      </text>
      <g transform="translate(124 124)">
        <rect width="19.2" height="18.4" fill="#3E5667" rx="9.2"/>
        <text fill="#FFF" font-family="Lato-Heavy, Lato" font-size="9.6" font-weight="600">
          <tspan x="6.82" y="12.2">3</tspan>
        </text>
      </g>
      <text fill="#233745" font-family="Lato-Medium, Lato" font-size="15" font-weight="400" transform="translate(124 124)">
        <tspan x="27.5" y="15">Icon</tspan>
      </text>
      <circle cx="55" cy="62.5" r="3" fill="#3E5667"/>
      <circle cx="143" cy="62" r="3" fill="#3E5667"/>
      <circle cx="94" cy="85" r="3" fill="#3E5667"/>
    </g>
    <text fill="#3E5667" font-family="Lato-Medium, Lato" font-size="15" font-weight="400">
      <tspan x="0" y="252">Anatomy of the Button component.</tspan>
    </text>
  </g>
</svg>