<svg viewBox="0 0 726 261" xmlns="http://www.w3.org/2000/svg"><g fill="none" fill-rule="evenodd"><path stroke="#B8C7D2" fill="#FFF" d="M.5.5h357v153H.5z"/><g transform="translate(184 60)"><rect stroke="#B8C7D2" fill="#FFF" x="-.5" y="-.5" width="135" height="45" rx="3"/><text font-family="Lato-Medium, Lato" font-size="15" font-weight="400" fill="#233745"><tspan x="32.2975" y="28">Secondary</tspan></text></g><path stroke="#B8C7D2" fill="#FFF" d="M368.5.5h357v153h-357z"/><g transform="translate(696 10)"><circle fill="#E13637" cx="10" cy="10" r="10"/><path d="M13.5355339 6.4644661c.27894592.27894591.27894592.7312066 0 1.01015253l-2.52507831 2.52467426 2.52507832 2.52608848c.27894592.27894592.27894592.73120661 0 1.01015254-.27894592.27894591-.73120661.27894591-1.01015253 0L10 11.00974848l-2.52538138 2.52578543c-.27894592.27894591-.7312066.27894591-1.01015253 0-.27894592-.27894593-.27894592-.73120662 0-1.01015254L8.9895444 9.9992929l-2.5250783-2.52467426c-.27894593-.27894592-.27894593-.73120662-2e-8-1.01015254.27894593-.27894592.73120662-.27894591 1.01015254 0L10 8.9888373l2.52538137-2.5243712c.27894592-.27894592.73120661-.27894593 1.01015254 0z" fill="#FFF"/></g><path fill="#76C767" d="M0 144h358v10H0z"/><path fill="#E13637" d="M368 144h358v10H368z"/><g transform="translate(40 60)"><rect fill="#FFF" width="134" height="44" rx="3"/><text font-family="Lato-Medium, Lato" font-size="15" font-weight="400" fill="#2A77C7"><tspan x="40.77625" y="28">Tertiary</tspan></text></g><g transform="translate(408 60)"><rect fill="#FFF" width="134" height="44" rx="3"/><text font-family="Lato-Medium, Lato" font-size="15" font-weight="400" fill="#3A8FDD"><tspan x="40.77625" y="28">Tertiary</tspan></text></g><g transform="translate(552 60)"><rect fill="#FFF" width="134" height="44" rx="3"/><text font-family="Lato-Medium, Lato" font-size="15" font-weight="400" fill="#3A8FDD"><tspan x="40.77625" y="28">Tertiary</tspan></text></g><path d="M338 30c-5.5226 0-10-4.4774-10-10s4.4774-10 10-10 10 4.4774 10 10-4.4774 10-10 10zm-1.28204-8.4664l-2.2422-2.2422c-.3375-.3375-.88516-.3375-1.22266 0-.3375.3375-.3375.88516 0 1.22266l2.854 2.854c.3375.3375.88516.3375 1.22266 0l4.8914-4.8922c.3375-.3375.3375-.88516 0-1.22266-.3375-.3375-.88516-.3375-1.22266 0l-4.28054 4.2804z" fill="#76C767"/><text font-family="Lato-Bold, Lato" font-size="15" font-weight="bold"><tspan x="0" y="183" fill="#60B255">Do.</tspan> <tspan x="0" y="207" font-family="Lato-Medium, Lato" font-weight="400" fill="#3E5667">Use Tertiary Buttons sparingly. They are most suited </tspan> <tspan x="0" y="231" font-family="Lato-Medium, Lato" font-weight="400" fill="#3E5667">for items such as Cancel buttons. They shouldn’t be </tspan> <tspan x="0" y="255" font-family="Lato-Medium, Lato" font-weight="400" fill="#3E5667">the main focus action of a piece of UI.</tspan></text><text font-family="Lato-Bold, Lato" font-size="15" font-weight="bold"><tspan x="368" y="183" fill="#BE2B2B">Don’t.</tspan>  <tspan x="368" y="207" font-family="Lato-Medium, Lato" font-weight="400" fill="#3E5667">Don’t use multiple Tertiary Buttons side-by-side </tspan> <tspan x="368" y="231" font-family="Lato-Medium, Lato" font-weight="400" fill="#3E5667">within the same piece of UI.</tspan></text></g></svg>