<svg xmlns="http://www.w3.org/2000/svg" width="726" height="261">
  <g fill="none" fill-rule="evenodd">
    <path fill="#FFF" stroke="#B8C7D2" d="M.5.5h357v153H.5z"/>
    <g transform="translate(184 60)">
      <rect width="135" height="45" x="-.5" y="-.5" fill="#FFF" stroke="#B8C7D2" rx="3"/>
      <text fill="#233745" font-family="Lato-Medium, Lato" font-size="15" font-weight="400">
        <tspan x="32.3" y="28">Secondary</tspan>
      </text>
    </g>
    <path fill="#FFF" stroke="#B8C7D2" d="M368.5.5h357v153h-357z"/>
    <g transform="translate(696 10)">
      <circle cx="10" cy="10" r="10" fill="#E13637"/>
      <path fill="#FFF" d="M11.01 10l2.53 2.53a.71.71 0 0 1-1.01 1L10 11.02l-2.53 2.53a.71.71 0 1 1-1-1.01L8.98 10 6.46 7.47a.71.71 0 1 1 1.01-1L10 8.98l2.53-2.53a.71.71 0 1 1 1 1.01L11.02 10z"/>
    </g>
    <path fill="#76C767" d="M0 144h358v10H0z"/>
    <path fill="#E13637" d="M368 144h358v10H368z"/>
    <g transform="translate(40 60)">
      <rect width="134" height="44" fill="#FFF" rx="3"/>
      <text fill="#2A77C7" font-family="Lato-Medium, Lato" font-size="15" font-weight="400">
        <tspan x="40.78" y="28">Tertiary</tspan>
      </text>
    </g>
    <g transform="translate(408 60)">
      <rect width="134" height="44" fill="#FFF" rx="3"/>
      <text fill="#3A8FDD" font-family="Lato-Medium, Lato" font-size="15" font-weight="400">
        <tspan x="40.78" y="28">Tertiary</tspan>
      </text>
    </g>
    <g transform="translate(552 60)">
      <rect width="134" height="44" fill="#FFF" rx="3"/>
      <text fill="#3A8FDD" font-family="Lato-Medium, Lato" font-size="15" font-weight="400">
        <tspan x="40.78" y="28">Tertiary</tspan>
      </text>
    </g>
    <path fill="#76C767" d="M338 30a10 10 0 1 1 0-20 10 10 0 0 1 0 20zm-1.28-8.47l-2.24-2.24a.86.86 0 0 0-1.23 1.22l2.86 2.86c.33.34.88.34 1.22 0l4.9-4.9a.86.86 0 0 0-1.23-1.22l-4.28 4.28z"/>
    <text font-family="Lato-Bold, Lato" font-size="15" font-weight="bold">
      <tspan x="0" y="183" fill="#60B255">Do.</tspan> <tspan x="0" y="207" fill="#3E5667" font-family="Lato-Medium, Lato" font-weight="400">Use Tertiary Buttons sparingly. They are most suited </tspan> <tspan x="0" y="231" fill="#3E5667" font-family="Lato-Medium, Lato" font-weight="400">for items such as cancel buttons. They shouldn’t be </tspan> <tspan x="0" y="255" fill="#3E5667" font-family="Lato-Medium, Lato" font-weight="400">the main focus action of a piece of UI.</tspan>
    </text>
    <text font-family="Lato-Bold, Lato" font-size="15" font-weight="bold">
      <tspan x="368" y="183" fill="#BE2B2B">Don’t.</tspan>  <tspan x="368" y="207" fill="#3E5667" font-family="Lato-Medium, Lato" font-weight="400">Don’t use multiple Tertiary Buttons side by side </tspan> <tspan x="368" y="231" fill="#3E5667" font-family="Lato-Medium, Lato" font-weight="400">within the same piece of UI.</tspan>
    </text>
  </g>
</svg>