<svg xmlns="http://www.w3.org/2000/svg" xmlns:xlink="http://www.w3.org/1999/xlink" viewBox="0 0 726 213">
  <defs>
    <rect id="b" width="71" height="28" rx="2"/>
    <filter id="a" width="114.1%" height="135.7%" x="-7%" y="-14.3%" filterUnits="objectBoundingBox">
      <feOffset dy="1" in="SourceAlpha" result="shadowOffsetOuter1"/>
      <feGaussianBlur in="shadowOffsetOuter1" result="shadowBlurOuter1" stdDeviation="1.5"/>
      <feComposite in="shadowBlurOuter1" in2="SourceAlpha" operator="out" result="shadowBlurOuter1"/>
      <feColorMatrix in="shadowBlurOuter1" values="0 0 0 0 0 0 0 0 0 0 0 0 0 0 0 0 0 0 0.0747104458 0"/>
    </filter>
    <path id="d" d="M276.15 0h68.7c1.19 0 2.15.9 2.15 2v24c0 1.1-.96 2-2.15 2h-68.7c-1.19 0-2.15-.9-2.15-2V2c0-1.1.96-2 2.15-2z"/>
    <filter id="c" width="113.7%" height="135.7%" x="-6.8%" y="-14.3%" filterUnits="objectBoundingBox">
      <feOffset dy="1" in="SourceAlpha" result="shadowOffsetOuter1"/>
      <feGaussianBlur in="shadowOffsetOuter1" result="shadowBlurOuter1" stdDeviation="1.5"/>
      <feComposite in="shadowBlurOuter1" in2="SourceAlpha" operator="out" result="shadowBlurOuter1"/>
      <feColorMatrix in="shadowBlurOuter1" values="0 0 0 0 0 0 0 0 0 0 0 0 0 0 0 0 0 0 0.0747104458 0"/>
    </filter>
  </defs>
  <g fill="none" fill-rule="evenodd">
    <path fill="#FFF" stroke="#B8C7D2" d="M.5.5h725v177H.5z"/>
    <g transform="translate(190 75)">
      <use fill="#000" filter="url(#a)" xlink:href="#b"/>
      <rect width="70" height="27" x=".5" y=".5" fill="#FFF" stroke="#B8C7D2" stroke-linejoin="square" rx="2"/>
      <path fill="#748999" d="M16.62 13.41l4.51-3.1a.5.5 0 0 1 .79.4v7.04a.5.5 0 0 1-.79.41l-4.51-3.1a1 1 0 0 1 0-1.65z"/>
      <path fill="#748999" fill-rule="nonzero" d="M30.5 14.2c.5 0 .89-.13 1.13-.38.24-.25.36-.6.36-1.03 0-.2-.03-.38-.1-.54-.05-.16-.14-.3-.27-.42-.12-.11-.28-.2-.46-.26-.19-.07-.41-.1-.67-.1h-1.04v2.72h1.04zm0-3.98c.54 0 1.01.06 1.4.2.4.12.73.3.99.53.26.23.45.5.57.82.12.31.18.65.18 1.02 0 .4-.06.76-.19 1.08-.13.33-.32.6-.58.84-.26.24-.59.42-.99.55-.4.13-.86.2-1.39.2h-1.04v2.74H27.8v-7.98h2.7zM37.2 14c.26 0 .49-.04.68-.1.2-.07.36-.17.48-.28.13-.12.22-.26.28-.42.06-.17.09-.34.09-.53 0-.38-.13-.67-.38-.88-.25-.21-.63-.32-1.15-.32h-.86V14h.85zm3.86 4.2h-1.5c-.27 0-.47-.1-.6-.32l-1.52-2.45a.64.64 0 0 0-.2-.2.67.67 0 0 0-.33-.07h-.57v3.04H34.7v-7.98h2.51c.56 0 1.04.06 1.43.17.4.12.72.28.98.48.25.2.43.45.55.74a2.46 2.46 0 0 1 .06 1.69 2.21 2.21 0 0 1-.85 1.16c-.21.15-.45.27-.72.36a1.6 1.6 0 0 1 .55.5l1.86 2.88zm2.44-6.69v2.05h2.66v1.25H43.5v2.1h3.42v1.29h-5.08v-7.98h5.08v1.3H43.5zm11.64-1.29l-3.21 7.98h-1.5l-3.21-7.98h1.33c.14 0 .26.03.35.1.09.07.15.16.2.26l1.73 4.6a9.93 9.93 0 0 1 .37 1.2 10.59 10.59 0 0 1 .34-1.2l1.72-4.6c.03-.09.1-.17.2-.25.09-.07.2-.11.34-.11h1.34z"/>
      <use fill="#000" filter="url(#c)" xlink:href="#d"/>
      <path fill="#FFF" stroke="#B8C7D2" stroke-linejoin="square" d="M276.15.5c-.92 0-1.65.68-1.65 1.5v24c0 .82.73 1.5 1.65 1.5h68.7c.92 0 1.65-.68 1.65-1.5V2c0-.82-.73-1.5-1.65-1.5h-68.7z"/>
      <path fill="#748999" d="M329.64 15.16l-4.52 3.1a.5.5 0 0 1-.78-.41v-7.03a.5.5 0 0 1 .78-.41l4.52 3.1a1 1 0 0 1 0 1.65z"/>
      <path fill="#748999" fill-rule="nonzero" d="M298.2 10.52v7.98h-.85a.75.75 0 0 1-.33-.06.79.79 0 0 1-.25-.22l-3.98-5.06a9.18 9.18 0 0 1 .03.73v4.61h-1.45v-7.98h1.04l.14.05c.04.02.08.04.11.08.04.03.08.07.12.13l4 5.08a8.35 8.35 0 0 1-.04-.78v-4.56h1.46zm3.34 1.3v2.04h2.66v1.25h-2.66v2.1h3.42v1.29h-5.09v-7.98h5.09v1.3h-3.42zm11.3 6.68h-1.65a.41.41 0 0 1-.27-.08.65.65 0 0 1-.16-.2l-1.73-2.93a5.95 5.95 0 0 0-.1.22l-1.65 2.72c-.05.06-.1.13-.17.18a.36.36 0 0 1-.24.09h-1.54l2.61-4.1-2.51-3.88h1.65c.1 0 .19.01.24.04.05.03.1.08.14.15l1.71 2.82a2.8 2.8 0 0 1 .14-.28l1.54-2.52c.05-.07.1-.12.15-.16a.35.35 0 0 1 .2-.05h1.57l-2.53 3.8 2.6 4.18zm6.47-6.65h-2.33v6.65h-1.66v-6.65H313v-1.33h6.32v1.33z"/>
      <path fill="#3E5667" fill-rule="nonzero" d="M96.19 17.7V19h-5.6v-1.3h2.05v-5.9c0-.23 0-.47.02-.72L91.2 12.3a.6.6 0 0 1-.25.12.6.6 0 0 1-.42-.07.4.4 0 0 1-.13-.11l-.54-.75 3.08-2.63h1.42v8.84h1.83z"/>
      <path fill="#233745" fill-rule="nonzero" d="M127.8 17.39c.2 0 .34.05.45.16.11.1.17.24.17.41V19h-6.95v-.57a1.03 1.03 0 0 1 .31-.72l3.07-3.08c.26-.26.49-.5.7-.75.2-.24.36-.47.5-.7.14-.24.24-.47.31-.71s.11-.5.11-.76c0-.25-.03-.46-.1-.64a1.23 1.23 0 0 0-.76-.75c-.18-.07-.39-.1-.61-.1-.2 0-.4.03-.57.09a1.55 1.55 0 0 0-1.02 1.07c-.08.22-.18.36-.3.43-.13.07-.31.09-.55.05l-.91-.16c.07-.49.2-.91.4-1.28a3.06 3.06 0 0 1 1.8-1.47 4.13 4.13 0 0 1 2.53.02 2.65 2.65 0 0 1 1.64 1.5 3.15 3.15 0 0 1 .07 2.22 4.3 4.3 0 0 1-.45.9c-.18.3-.4.58-.64.85l-.78.82-2.28 2.33a5.18 5.18 0 0 1 1.27-.2h2.6z"/>
      <rect width="28" height="28" x="143" fill="#233745" rx="3"/>
      <path fill="#FFF" fill-rule="nonzero" d="M153.7 11.7c.07-.49.2-.91.4-1.28a3.06 3.06 0 0 1 1.8-1.47 4.13 4.13 0 0 1 2.51.02c.38.13.7.31.96.55a2.42 2.42 0 0 1 .83 1.86c0 .32-.04.6-.1.85-.08.24-.19.46-.32.64-.14.18-.3.33-.5.46s-.43.23-.68.31c.6.2 1.06.49 1.35.88.3.4.45.88.45 1.48a2.87 2.87 0 0 1-1.04 2.31 3.3 3.3 0 0 1-1.1.6 4.53 4.53 0 0 1-2.66.03 2.89 2.89 0 0 1-1.7-1.36c-.19-.33-.36-.71-.5-1.15l.76-.31c.2-.09.4-.11.57-.07.17.04.3.13.38.28.08.17.18.33.28.49.1.15.22.3.36.42a1.72 1.72 0 0 0 1.17.42c.29 0 .55-.05.77-.15a1.54 1.54 0 0 0 .99-1.46c0-.24-.03-.46-.08-.66a.98.98 0 0 0-.33-.5c-.16-.15-.4-.26-.7-.34-.3-.07-.71-.11-1.23-.11V13.2c.43 0 .78-.04 1.06-.11.28-.08.5-.18.67-.32.16-.13.28-.29.34-.48.07-.18.1-.39.1-.61 0-.48-.13-.84-.4-1.09a1.5 1.5 0 0 0-1.06-.37c-.2 0-.4.03-.57.09a1.61 1.61 0 0 0-.81.61c-.1.14-.16.3-.21.46-.08.22-.18.36-.31.43s-.31.09-.54.05l-.91-.16z"/>
      <path fill="#3E5667" fill-rule="nonzero" d="M188.92 15.19v-3.32c0-.3.03-.65.07-1.03l-3.15 4.35h3.08zm2.78 0v1c0 .09-.03.17-.09.24-.06.07-.14.1-.26.1h-.92V19h-1.5v-2.47h-4.28a.47.47 0 0 1-.3-.11.47.47 0 0 1-.17-.27l-.18-.87 4.8-6.4h1.63v6.3h1.27zM215.2 18.05a1.08 1.08 0 0 1 .3-.75 1.06 1.06 0 0 1 .76-.3c.15 0 .29.02.42.07.12.06.24.14.33.23a1.03 1.03 0 0 1 .31.75 1.03 1.03 0 0 1-.64.97c-.13.05-.27.08-.42.08a1.1 1.1 0 0 1-.76-.3 1.02 1.02 0 0 1-.3-.75zm7.48 0a1.08 1.08 0 0 1 .3-.75 1.06 1.06 0 0 1 .75-.3c.15 0 .3.02.42.07.13.06.24.14.34.23a1.03 1.03 0 0 1 .3.75 1.03 1.03 0 0 1-.64.97c-.13.05-.27.08-.42.08a1.1 1.1 0 0 1-.75-.3 1.02 1.02 0 0 1-.3-.75zm-3.74 0a1.08 1.08 0 0 1 .3-.75 1.06 1.06 0 0 1 .76-.3c.15 0 .28.02.41.07.13.06.24.14.34.23a1.03 1.03 0 0 1 .31.75 1.03 1.03 0 0 1-.65.97 1.1 1.1 0 0 1-1.17-.22 1.02 1.02 0 0 1-.3-.75zM250.75 17.39c.18 0 .33.05.44.16.11.1.17.24.17.41V19h-6.95v-.57a1.03 1.03 0 0 1 .31-.72l3.07-3.08c.26-.26.49-.5.7-.75.2-.24.36-.47.5-.7.14-.24.24-.47.31-.71s.11-.5.11-.76c0-.25-.03-.46-.1-.64a1.23 1.23 0 0 0-.76-.75c-.18-.07-.39-.1-.61-.1-.2 0-.4.03-.57.09a1.55 1.55 0 0 0-1.02 1.07c-.08.22-.18.36-.3.43-.13.07-.31.09-.55.05l-.91-.16c.07-.49.2-.91.4-1.28a3.06 3.06 0 0 1 1.8-1.47 4.13 4.13 0 0 1 2.53.02 2.65 2.65 0 0 1 1.64 1.5 3.15 3.15 0 0 1 .07 2.22 4.3 4.3 0 0 1-.45.9c-.18.3-.4.58-.65.85l-.77.82-2.28 2.33a5.18 5.18 0 0 1 1.27-.2h2.6zm9.02-3.45c0 .88-.1 1.65-.28 2.3a4.71 4.71 0 0 1-.79 1.61c-.33.43-.73.74-1.18.95-.46.2-.95.31-1.47.31a3.16 3.16 0 0 1-2.64-1.26 4.7 4.7 0 0 1-.78-1.61 8.4 8.4 0 0 1-.28-2.3c0-.89.1-1.66.28-2.3a4.7 4.7 0 0 1 .78-1.61 3.16 3.16 0 0 1 2.64-1.26 3.17 3.17 0 0 1 2.66 1.26c.33.42.59.96.78 1.6.19.65.28 1.42.28 2.3zm-1.78 0c0-.73-.06-1.34-.17-1.82-.1-.48-.25-.86-.43-1.15a1.57 1.57 0 0 0-.62-.6 1.64 1.64 0 0 0-1.44 0c-.23.12-.44.32-.61.6-.18.29-.32.67-.43 1.15-.1.48-.16 1.09-.16 1.82s.06 1.34.16 1.82.25.86.43 1.15c.17.28.38.48.6.6a1.6 1.6 0 0 0 1.45 0c.24-.12.44-.32.62-.6.18-.29.33-.67.43-1.15.11-.48.17-1.09.17-1.82z"/>
    </g>
    <text fill="#3E5667" font-family="Lato-Medium, Lato" font-size="15" font-weight="400">
      <tspan x="0" y="207">Anatomy of the Pagination component.</tspan>
    </text>
    <text fill="#233745" font-family="Lato-Semibold, Lato" font-size="14" font-weight="500" transform="translate(254 102)">
      <tspan x=".57" y="39">Page Action</tspan>
    </text>
    <path fill="#B8C7D2" d="M346 102h1v39h-1z"/>
    <g transform="translate(337 127)">
      <rect width="19.2" height="18.4" fill="#3E5667" rx="9.2"/>
      <text fill="#FFF" font-family="Lato-Heavy, Lato" font-size="9.6" font-weight="600">
        <tspan x="6.82" y="12.2">1</tspan>
      </text>
    </g>
    <text fill="#233745" font-family="Lato-Semibold, Lato" font-size="14" font-weight="500" transform="translate(225 39)">
      <tspan x="344.33" y="14">Prev/Next</tspan>
    </text>
    <path fill="#B8C7D2" d="M552 48h1v40h-1zM225.5 48h1v30h-1zM536 88h17v1h-17z"/>
    <path fill="#B8C7D2" d="M226 48h317v1H226z"/>
    <g transform="translate(543 39)">
      <rect width="19.2" height="18.4" fill="#3E5667" rx="9.2"/>
      <text fill="#FFF" font-family="Lato-Heavy, Lato" font-size="9.6" font-weight="600">
        <tspan x="6.82" y="12.2">2</tspan>
      </text>
    </g>
    <circle cx="346.5" cy="104" r="3" fill="#3E5667"/>
    <circle cx="536" cy="88.5" r="3" fill="#3E5667"/>
    <circle cx="226" cy="75.5" r="3" fill="#3E5667"/>
  </g>
</svg>