<svg xmlns="http://www.w3.org/2000/svg" xmlns:xlink="http://www.w3.org/1999/xlink" width="16" height="16" viewBox="0 0 16 16">
  <defs>
    <path id="cake-a" d="M8,3.99999995 C8.74,3.99999995 9.33333334,3.39999997 9.33333334,2.66666663 C9.33333334,2.4133333 9.26666667,2.17999996 9.14000001,1.97999996 L8,-5.00000006e-08 L6.85999999,1.97999996 C6.73333333,2.17999996 6.66666666,2.4133333 6.66666666,2.66666663 C6.66666666,3.39999997 7.26666666,3.99999995 8,3.99999995 Z M11.0666667,10.66 L10.3533333,9.94666668 L9.63333334,10.66 C8.76666667,11.5266667 7.24666666,11.5333334 6.37333332,10.66 L5.65999999,9.94666668 L4.93333331,10.66 C4.49999996,11.0933334 3.91999997,11.3333334 3.30666664,11.3333334 C2.81999997,11.3333334 2.3733333,11.18 1.99999996,10.9266667 L1.99999996,14 C1.99999996,14.3666667 2.29999996,14.6666667 2.66666663,14.6666667 L13.3333334,14.6666667 C13.7,14.6666667 14,14.3666667 14,14 L14,10.9266667 C13.6266667,11.18 13.18,11.3333334 12.6933334,11.3333334 C12.08,11.3333334 11.5,11.0933334 11.0666667,10.66 L11.0666667,10.66 Z M12,5.99999999 L8.66666667,5.99999999 L8.66666667,4.66666665 L7.33333333,4.66666665 L7.33333333,5.99999999 L3.99999996,5.99999999 C2.8933333,5.99999999 1.99999996,6.89333333 1.99999996,8 L1.99999996,9.02666667 C1.99999996,9.74666668 2.58666663,10.3333333 3.30666664,10.3333333 C3.65333331,10.3333333 3.98666664,10.2 4.22666664,9.95333335 L5.65333332,8.53333334 L7.07333333,9.95333335 C7.56666666,10.4466667 8.42666667,10.4466667 8.92000001,9.95333335 L10.3466667,8.53333334 L11.7666667,9.95333335 C12.0133334,10.2 12.34,10.3333333 12.6866667,10.3333333 C13.4066667,10.3333333 13.9933704,9.74666668 13.9933704,9.02666667 L13.9933704,8 C14,6.89333333 13.1066667,5.99999999 12,5.99999999 Z"/>
  </defs>
  <g fill="none" fill-rule="evenodd">
    <mask id="cake-b" fill="#fff">
      <use xlink:href="#cake-a"/>
    </mask>
    <g fill="CurrentColor" mask="url(#cake-b)">
      <rect width="16" height="16"/>
    </g>
  </g>
</svg>
