<svg xmlns="http://www.w3.org/2000/svg" xmlns:xlink="http://www.w3.org/1999/xlink" width="16" height="16" viewBox="0 0 16 16">
  <defs>
    <path id="notifications-none-a" d="M8,14.6666667 C8.73333334,14.6666667 9.33333334,14.0666667 9.33333334,13.3333334 L6.66666666,13.3333334 C6.66666666,14.0666667 7.26666666,14.6666667 8,14.6666667 Z M12,10.6666666 L12,7.33333333 C12,5.28666665 10.9133334,3.57333331 9.00000001,3.11999997 L9.00000001,2.66666663 C9.00000001,2.1133333 8.55333334,1.66666663 8,1.66666663 C7.44666666,1.66666663 6.99999999,2.1133333 6.99999999,2.66666663 L6.99999999,3.11999997 C5.09333332,3.57333331 3.99999997,5.27999998 3.99999997,7.33333333 L3.99999997,10.6666666 L2.66666663,12 L2.66666663,12.6666666 L13.3333334,12.6666666 L13.3333334,12 L12,10.6666666 Z M10.6666667,11.3333333 L5.33333332,11.3333333 L5.33333332,7.33333331 C5.33333332,5.67999999 6.33999999,4.33333331 8,4.33333331 C9.66000001,4.33333331 10.6666667,5.67999999 10.6666667,7.33333331 L10.6666667,11.3333333 Z"/>
  </defs>
  <g fill="none" fill-rule="evenodd">
    <mask id="notifications-none-b" fill="#fff">
      <use xlink:href="#notifications-none-a"/>
    </mask>
    <g fill="CurrentColor" mask="url(#notifications-none-b)">
      <rect width="16" height="16"/>
    </g>
  </g>
</svg>
