<svg xmlns="http://www.w3.org/2000/svg" xmlns:xlink="http://www.w3.org/1999/xlink" width="16" height="16" viewBox="0 0 16 16">
  <defs>
    <path id="party-mode-a" d="M13.3333333,2.66666663 L11.22,2.66666663 L10,1.33333329 L5.99999999,1.33333329 L4.77999998,2.66666663 L2.66666663,2.66666663 C1.9333333,2.66666663 1.33333329,3.26666664 1.33333329,3.99999998 L1.33333329,12 C1.33333329,12.7333334 1.9333333,13.3333333 2.66666663,13.3333333 L13.3333333,13.3333333 C14.0666667,13.3333333 14.6666667,12.7333334 14.6666667,12 L14.6666667,3.99999998 C14.6666667,3.26666664 14.0666667,2.66666663 13.3333333,2.66666663 Z M8,4.66666665 C9.08666667,4.66666665 10.04,5.19333332 10.6533333,5.99999999 L8,5.99999999 C6.89333333,5.99999999 5.99999999,6.89333333 5.99999999,8 C5.99999999,8.23333333 6.04666665,8.46 6.11999999,8.66666665 L4.73333331,8.66666665 C4.69333331,8.45333334 4.66666665,8.22666667 4.66666665,8 C4.66666665,6.15999999 6.15999999,4.66666665 8,4.66666665 Z M8,11.3333333 C6.91333333,11.3333333 5.95999999,10.8066667 5.34666665,10 L8,10 C9.10666667,10 10,9.10666667 10,8 C10,7.76666667 9.95333335,7.54 9.88000001,7.33333333 L11.2666667,7.33333333 C11.3133334,7.54666666 11.3333334,7.77333333 11.3333334,8 C11.3333334,9.84000001 9.84000001,11.3333333 8,11.3333333 Z"/>
  </defs>
  <g fill="none" fill-rule="evenodd">
    <mask id="party-mode-b" fill="#fff">
      <use xlink:href="#party-mode-a"/>
    </mask>
    <g fill="CurrentColor" mask="url(#party-mode-b)">
      <rect width="16" height="16"/>
    </g>
  </g>
</svg>
