<?xml version="1.0" encoding="UTF-8"?>
<svg width="16px" height="16px" viewBox="0 0 16 16" version="1.1" xmlns="http://www.w3.org/2000/svg" xmlns:xlink="http://www.w3.org/1999/xlink">
    <title>Icons/Device/access-alarm</title>
    <defs>
        <path d="M14.6666667,3.81333331 L11.6,1.23999996 L10.74,2.25999996 L13.8066667,4.83333331 L14.6666667,3.81333331 Z M5.25333332,2.25999996 L4.39999998,1.23999996 L1.33333329,3.80666664 L2.1933333,4.82666665 L5.25333332,2.25999996 Z M8.33333333,5.33333332 L7.33333333,5.33333332 L7.33333333,9.33333332 L10.5,11.2333334 L11,10.4133333 L8.33333333,8.83333332 L8.33333333,5.33333332 Z M7.99999996,2.66666663 C4.68666665,2.66666663 1.99999996,5.35333332 1.99999996,8.66666663 C1.99999996,11.98 4.67999998,14.6666666 7.99999996,14.6666666 C11.3133334,14.6666666 14,11.98 14,8.66666663 C14,5.35333332 11.3133334,2.66666663 7.99999996,2.66666663 Z M8,13.3333334 C5.41999998,13.3333334 3.3333333,11.2466667 3.3333333,8.66666667 C3.3333333,6.08666665 5.41999998,3.99999998 8,3.99999998 C10.58,3.99999998 12.6666667,6.08666665 12.6666667,8.66666667 C12.6666667,11.2466667 10.58,13.3333334 8,13.3333334 Z" id="path-1"></path>
    </defs>
    <g id="Icons/Device/access-alarm" stroke="none" stroke-width="1" fill="none" fill-rule="evenodd">
        <mask id="mask-2" fill="white">
            <use xlink:href="#path-1"></use>
        </mask>
        <use id="Icons/Device/ic_access_alarm_24px" fill="#233745" fill-rule="nonzero" xlink:href="#path-1"></use>
    </g>
</svg>