<?xml version="1.0" encoding="UTF-8"?>
<svg width="16px" height="16px" viewBox="0 0 16 16" version="1.1" xmlns="http://www.w3.org/2000/svg" xmlns:xlink="http://www.w3.org/1999/xlink">
    <title>Icons/Device/airplanemode-inactive</title>
    <defs>
        <path d="M8.66666666,5.99999999 L8.66666666,2.33333329 C8.66666666,1.77999996 8.22,1.33333329 7.66666666,1.33333329 C7.11333333,1.33333329 6.66666666,1.77999996 6.66666666,2.33333329 L6.66666666,4.78666665 L11.8866667,10.0066667 L14,10.6666667 L14,9.33333329 L8.66666666,5.99999999 Z M1.99999996,3.51333331 L5.32666665,6.83999999 L1.33333329,9.33333334 L1.33333329,10.6666666 L6.66666666,9.00000001 L6.66666666,12.6666666 L5.33333329,13.6666666 L5.33333329,14.6666666 L7.66666666,14 L10,14.6666666 L10,13.6666666 L8.66666667,12.6666666 L8.66666667,10.18 L12.4866667,14 L13.3333333,13.1533334 L2.84666663,2.66666663 L1.99999996,3.51333331 Z" id="path-1"></path>
    </defs>
    <g id="Icons/Device/airplanemode-inactive" stroke="none" stroke-width="1" fill="none" fill-rule="evenodd">
        <mask id="mask-2" fill="white">
            <use xlink:href="#path-1"></use>
        </mask>
        <use id="Icons/Device/ic_airplanemode_inactive_24px" fill="#233745" fill-rule="nonzero" xlink:href="#path-1"></use>
    </g>
</svg>