<svg xmlns="http://www.w3.org/2000/svg" xmlns:xlink="http://www.w3.org/1999/xlink" width="16" height="16" viewBox="0 0 16 16">
  <defs>
    <path id="airplanemode-inactive-a" d="M8.66666666,5.99999999 L8.66666666,2.33333329 C8.66666666,1.77999996 8.22,1.33333329 7.66666666,1.33333329 C7.11333333,1.33333329 6.66666666,1.77999996 6.66666666,2.33333329 L6.66666666,4.78666665 L11.8866667,10.0066667 L14,10.6666667 L14,9.33333329 L8.66666666,5.99999999 Z M1.99999996,3.51333331 L5.32666665,6.83999999 L1.33333329,9.33333334 L1.33333329,10.6666666 L6.66666666,9.00000001 L6.66666666,12.6666666 L5.33333329,13.6666666 L5.33333329,14.6666666 L7.66666666,14 L10,14.6666666 L10,13.6666666 L8.66666667,12.6666666 L8.66666667,10.18 L12.4866667,14 L13.3333333,13.1533334 L2.84666663,2.66666663 L1.99999996,3.51333331 Z"/>
  </defs>
  <g fill="none" fill-rule="evenodd">
    <mask id="airplanemode-inactive-b" fill="#fff">
      <use xlink:href="#airplanemode-inactive-a"/>
    </mask>
    <g fill="CurrentColor" mask="url(#airplanemode-inactive-b)">
      <rect width="16" height="16"/>
    </g>
  </g>
</svg>
