<?xml version="1.0" encoding="UTF-8"?>
<svg width="16px" height="16px" viewBox="0 0 16 16" version="1.1" xmlns="http://www.w3.org/2000/svg" xmlns:xlink="http://www.w3.org/1999/xlink">
    <title>Icons/Device/battery-alert</title>
    <defs>
        <path d="M10.6666667,2.66666663 L9.33333334,2.66666663 L9.33333334,1.33333329 L6.66666666,1.33333329 L6.66666666,2.66666663 L5.33333332,2.66666663 C4.84444442,2.66666663 4.44444442,3.06666664 4.44444442,3.55555553 L4.44444442,13.3333333 C4.44444442,13.8222223 4.84444442,14.2222223 5.33333332,14.2222223 L10.6666667,14.2222223 C11.1555556,14.2222223 11.5555556,13.8222223 11.5555556,13.3333333 L11.5555556,3.55555553 C11.5555556,3.06666664 11.1555556,2.66666663 10.6666667,2.66666663 Z M8.88888889,11.5555556 L7.11111111,11.5555556 L7.11111111,9.77777779 L8.88888889,9.77777779 L8.88888889,11.5555556 Z M8.88888889,8.88888889 L7.11111111,8.88888889 L7.11111111,5.33333332 L8.88888889,5.33333332 L8.88888889,8.88888889 Z" id="path-1"></path>
    </defs>
    <g id="Icons/Device/battery-alert" stroke="none" stroke-width="1" fill="none" fill-rule="evenodd">
        <mask id="mask-2" fill="white">
            <use xlink:href="#path-1"></use>
        </mask>
        <use id="Icons/Device/ic_battery_alert_18px" fill="#233745" fill-rule="nonzero" xlink:href="#path-1"></use>
    </g>
</svg>