<?xml version="1.0" encoding="UTF-8"?>
<svg width="16px" height="16px" viewBox="0 0 16 16" version="1.1" xmlns="http://www.w3.org/2000/svg" xmlns:xlink="http://www.w3.org/1999/xlink">
    <title>Icons/Device/battery-charging-30</title>
    <defs>
        <path d="M7.55555555,9.33333334 L7.55555555,12.8888889 L9.33333334,9.33333334 L11.5555556,9.33333334 L11.5555556,13.3333333 C11.5555556,13.8222223 11.1555556,14.2222223 10.6666667,14.2222223 L10.6666667,14.2222223 L5.33333332,14.2222223 C4.84444442,14.2222223 4.44444442,13.8222223 4.44444442,13.3333333 L4.44444442,13.3333333 L4.44444442,9.33333334 L7.55555555,9.33333334 Z M9.33333334,1.33333329 L9.33333334,2.66666663 L10.6666667,2.66666663 C11.1555556,2.66666663 11.5555556,3.06666664 11.5555556,3.55555553 L11.5555556,3.55555553 L11.5555556,9.33333329 L9.33333334,9.33333329 L10.2222222,7.55555555 L8.44444442,7.55555555 L8.44444442,3.99999997 L5.77777776,9.33333329 L4.44444442,9.33333329 L4.44444442,3.55555553 C4.44444442,3.06666664 4.84444442,2.66666663 5.33333332,2.66666663 L5.33333332,2.66666663 L6.66666666,2.66666663 L6.66666666,1.33333329 L9.33333334,1.33333329 Z" id="path-1"></path>
    </defs>
    <g id="Icons/Device/battery-charging-30" stroke="none" stroke-width="1" fill="none" fill-rule="evenodd">
        <mask id="mask-2" fill="white">
            <use xlink:href="#path-1"></use>
        </mask>
        <use id="Combined-Shape" fill="#233745" fill-rule="nonzero" xlink:href="#path-1"></use>
    </g>
</svg>