<?xml version="1.0" encoding="UTF-8"?>
<svg width="16px" height="16px" viewBox="0 0 16 16" version="1.1" xmlns="http://www.w3.org/2000/svg" xmlns:xlink="http://www.w3.org/1999/xlink">
    <title>Icons/Device/battery-charging-full</title>
    <g id="Icons/Device/battery-charging-full" stroke="none" stroke-width="1" fill="none" fill-rule="evenodd">
        <rect id="Spacer" fill-opacity="0" fill="#D8D8D8" x="0" y="0" width="16" height="16"></rect>
        <path d="M10.6666667,2.66666663 L9.33333334,2.66666663 L9.33333334,1.33333329 L6.66666666,1.33333329 L6.66666666,2.66666663 L5.33333332,2.66666663 C4.84444442,2.66666663 4.44444442,3.06666664 4.44444442,3.55555553 L4.44444442,13.3333333 C4.44444442,13.8222223 4.84444442,14.2222223 5.33333332,14.2222223 L10.6666667,14.2222223 C11.1555556,14.2222223 11.5555556,13.8222223 11.5555556,13.3333333 L11.5555556,3.55555553 C11.5555556,3.06666664 11.1555556,2.66666663 10.6666667,2.66666663 Z M7.55555555,12.8888889 L7.55555555,9.33333334 L5.77777776,9.33333334 L8.44444445,3.99999998 L8.44444445,7.55555555 L10.2222222,7.55555555 L7.55555555,12.8888889 Z" id="Icons/Device/ic_battery_charging_full_18px" fill="#233745" fill-rule="nonzero"></path>
    </g>
</svg>