<?xml version="1.0" encoding="UTF-8"?>
<svg width="16px" height="16px" viewBox="0 0 16 16" version="1.1" xmlns="http://www.w3.org/2000/svg" xmlns:xlink="http://www.w3.org/1999/xlink">
    <title>Icons/Device/battery-unknown</title>
    <defs>
        <path d="M10.6666667,2.66666663 L9.33333334,2.66666663 L9.33333334,1.33333329 L6.66666666,1.33333329 L6.66666666,2.66666663 L5.33333332,2.66666663 C4.84444442,2.66666663 4.44444442,3.06666664 4.44444442,3.55555553 L4.44444442,13.3333333 C4.44444442,13.8222223 4.84444442,14.2222223 5.33333332,14.2222223 L10.6666667,14.2222223 C11.1555556,14.2222223 11.5555556,13.8222223 11.5555556,13.3333333 L11.5555556,3.55555553 C11.5555556,3.06666664 11.1555556,2.66666663 10.6666667,2.66666663 Z M8.71111112,12.2666667 L7.28888888,12.2666667 L7.28888888,10.8444445 L8.71111112,10.8444445 L8.71111112,12.2666667 L8.71111112,12.2666667 Z M9.70666668,7.92 C9.70666668,7.92 9.42222223,8.23111111 9.2088889,8.44444442 C8.85333334,8.8 8.59555556,9.44000001 8.59555556,9.77777779 L7.28888888,9.77777779 C7.28888888,9.16444445 7.75111111,8.49777778 8.09777778,8.15111111 L8.79111112,7.44888889 C8.99555556,7.24444444 9.12000001,6.96888888 9.12000001,6.66666666 C9.12000001,6.05333332 8.62222223,5.55555554 8.00888889,5.55555554 C7.39555555,5.55555554 6.89777777,6.05333332 6.89777777,6.66666666 L5.77777776,6.66666666 C5.77777776,5.43999998 6.77333333,4.44444442 8,4.44444442 C9.22666667,4.44444442 10.2222222,5.43999998 10.2222222,6.66666666 C10.2222222,7.15555555 10.0266667,7.6 9.70666668,7.92 L9.70666668,7.92 Z" id="path-1"></path>
    </defs>
    <g id="Icons/Device/battery-unknown" stroke="none" stroke-width="1" fill="none" fill-rule="evenodd">
        <mask id="mask-2" fill="white">
            <use xlink:href="#path-1"></use>
        </mask>
        <use id="Icons/Device/ic_battery_unknown_18px" fill="#233745" fill-rule="nonzero" xlink:href="#path-1"></use>
    </g>
</svg>