<?xml version="1.0" encoding="UTF-8"?>
<svg width="16px" height="16px" viewBox="0 0 16 16" version="1.1" xmlns="http://www.w3.org/2000/svg" xmlns:xlink="http://www.w3.org/1999/xlink">
    <title>Icons/Device/bluetooth-connected</title>
    <defs>
        <path d="M4.66666665,8 L3.3333333,6.66666666 L1.99999996,8 L3.3333333,9.33333334 L4.66666665,8 Z M11.8066667,5.13999998 L8,1.33333329 L7.3333333,1.33333329 L7.3333333,6.39333332 L4.27333331,3.33333329 L3.3333333,4.27333331 L7.05999999,8 L3.3333333,11.7266667 L4.27333331,12.6666667 L7.3333333,9.60666668 L7.3333333,14.6666667 L8,14.6666667 L11.8066667,10.86 L8.94000001,8 L11.8066667,5.13999998 Z M8.66666667,3.88666664 L9.92000001,5.13999998 L8.66666667,6.39333332 L8.66666667,3.88666664 Z M9.92000001,10.86 L8.66666667,12.1133334 L8.66666667,9.60666668 L9.92000001,10.86 L9.92000001,10.86 Z M12.6666667,6.66666666 L11.3333334,8 L12.6666667,9.33333334 L14,8 L12.6666667,6.66666666 Z" id="path-1"></path>
    </defs>
    <g id="Icons/Device/bluetooth-connected" stroke="none" stroke-width="1" fill="none" fill-rule="evenodd">
        <mask id="mask-2" fill="white">
            <use xlink:href="#path-1"></use>
        </mask>
        <use id="Icons/Device/ic_bluetooth_connected_24px" fill="#233745" fill-rule="nonzero" xlink:href="#path-1"></use>
    </g>
</svg>