<?xml version="1.0" encoding="UTF-8"?>
<svg width="16px" height="16px" viewBox="0 0 16 16" version="1.1" xmlns="http://www.w3.org/2000/svg" xmlns:xlink="http://www.w3.org/1999/xlink">
    <title>Icons/Device/developer-mode</title>
    <defs>
        <path d="M4.66666665,3.3333333 L11.3333333,3.3333333 L11.3333333,4.66666662 L12.6666667,4.66666662 L12.6666667,1.99999996 C12.6666667,1.26666662 12.0666667,0.673333288 11.3333333,0.673333288 L4.66666665,0.666666621 C3.93333331,0.666666621 3.3333333,1.26666662 3.3333333,1.99999996 L3.3333333,4.66666662 L4.66666665,4.66666662 L4.66666665,3.3333333 Z M10.2733333,11.06 L13.3333333,8 L10.2733333,4.93999998 L9.33333334,5.88666665 L11.4466667,8 L9.33333334,10.1133333 L10.2733333,11.06 Z M6.66666663,10.1133333 L4.55333331,8 L6.66666663,5.88666665 L5.72666665,4.93999998 L2.66666663,8 L5.72666665,11.06 L6.66666663,10.1133333 Z M11.3333333,12.6666667 L4.66666665,12.6666667 L4.66666665,11.3333334 L3.3333333,11.3333334 L3.3333333,14 C3.3333333,14.7333334 3.93333331,15.3333334 4.66666665,15.3333334 L11.3333333,15.3333334 C12.0666667,15.3333334 12.6666667,14.7333334 12.6666667,14 L12.6666667,11.3333334 L11.3333333,11.3333334 L11.3333333,12.6666667 Z" id="path-1"></path>
    </defs>
    <g id="Icons/Device/developer-mode" stroke="none" stroke-width="1" fill="none" fill-rule="evenodd">
        <mask id="mask-2" fill="white">
            <use xlink:href="#path-1"></use>
        </mask>
        <use id="Icons/Device/ic_developer_mode_24px" fill="#233745" fill-rule="nonzero" xlink:href="#path-1"></use>
    </g>
</svg>