<?xml version="1.0" encoding="UTF-8"?>
<svg width="16px" height="16px" viewBox="0 0 16 16" version="1.1" xmlns="http://www.w3.org/2000/svg" xmlns:xlink="http://www.w3.org/1999/xlink">
    <title>Icons/Device/dvr</title>
    <g id="Icons/Device/dvr" stroke="none" stroke-width="1" fill="none" fill-rule="evenodd">
        <rect id="Spacer" fill-opacity="0" fill="#D8D8D8" x="0" y="0" width="16" height="16"></rect>
        <path d="M14,1.99999996 L1.99999996,1.99999996 C1.26666662,1.99999996 0.666666621,2.59999997 0.666666621,3.3333333 L0.666666621,11.3333334 C0.666666621,12.0666667 1.26666662,12.6666667 1.99999996,12.6666667 L5.33333332,12.6666667 L5.33333332,14 L10.6666666,14 L10.6666666,12.6666667 L14,12.6666667 C14.7333334,12.6666667 15.3266667,12.0666667 15.3266667,11.3333334 L15.3333334,3.3333333 C15.3333334,2.59999997 14.7333334,1.99999996 14,1.99999996 Z M14,11.3333333 L1.99999996,11.3333333 L1.99999996,3.3333333 L14,3.3333333 L14,11.3333333 Z M12.6666667,5.33333332 L5.33333332,5.33333332 L5.33333332,6.66666666 L12.6666667,6.66666666 L12.6666667,5.33333332 Z M12.6666667,8 L5.33333332,8 L5.33333332,9.33333334 L12.6666667,9.33333334 L12.6666667,8 Z M4.66666665,5.33333332 L3.3333333,5.33333332 L3.3333333,6.66666666 L4.66666665,6.66666666 L4.66666665,5.33333332 Z M4.66666665,8 L3.3333333,8 L3.3333333,9.33333334 L4.66666665,9.33333334 L4.66666665,8 Z" id="Icons/Device/ic_dvr_24px" fill="#233745" fill-rule="nonzero"></path>
    </g>
</svg>