<svg xmlns="http://www.w3.org/2000/svg" xmlns:xlink="http://www.w3.org/1999/xlink" width="16" height="16" viewBox="0 0 16 16">
  <defs>
    <path id="gps-off-a" d="M13.96,7.33333333 C13.6533334,4.55333331 11.4466667,2.34666663 8.66666667,2.03999996 L8.66666667,0.666666621 L7.33333333,0.666666621 L7.33333333,2.03999996 C6.57999999,2.11999996 5.87333332,2.34666663 5.22666665,2.68666663 L6.22666665,3.68666664 C6.77333333,3.45999997 7.37333333,3.3333333 8,3.3333333 C10.58,3.3333333 12.6666667,5.41999998 12.6666667,8 C12.6666667,8.62666667 12.54,9.22666667 12.32,9.76666668 L13.32,10.7666667 C13.6533334,10.1266667 13.88,9.42000001 13.9666667,8.66666662 L15.3333334,8.66666662 L15.3333334,7.33333333 L13.96,7.33333333 Z M1.99999996,2.84666663 L3.35999997,4.20666664 C2.64666663,5.07999998 2.16666662,6.15333332 2.03999996,7.33333333 L0.666666621,7.33333333 L0.666666621,8.66666667 L2.03999996,8.66666667 C2.34666663,11.4466667 4.55333331,13.6533334 7.33333333,13.96 L7.33333333,15.3333334 L8.66666662,15.3333334 L8.66666662,13.96 C9.84666668,13.8266667 10.92,13.3533334 11.7933334,12.64 L13.1533334,14 L14,13.1533334 L2.84666663,1.99999996 L1.99999996,2.84666663 Z M10.8466667,11.6933334 C10.06,12.3 9.07333334,12.6666667 8,12.6666667 C5.41999998,12.6666667 3.3333333,10.58 3.3333333,8 C3.3333333,6.92666666 3.69999997,5.93999999 4.30666664,5.15333332 L10.8466667,11.6933334 Z"/>
  </defs>
  <g fill="none" fill-rule="evenodd">
    <mask id="gps-off-b" fill="#fff">
      <use xlink:href="#gps-off-a"/>
    </mask>
    <g fill="CurrentColor" mask="url(#gps-off-b)">
      <rect width="16" height="16"/>
    </g>
  </g>
</svg>
