<?xml version="1.0" encoding="UTF-8"?>
<svg width="16px" height="16px" viewBox="0 0 16 16" version="1.1" xmlns="http://www.w3.org/2000/svg" xmlns:xlink="http://www.w3.org/1999/xlink">
    <title>Icons/Device/gps-fixed</title>
    <defs>
        <path d="M8,5.33333332 C6.52666666,5.33333332 5.33333332,6.52666666 5.33333332,8 C5.33333332,9.47333334 6.52666666,10.6666667 8,10.6666667 C9.47333334,10.6666667 10.6666667,9.47333334 10.6666667,8 C10.6666667,6.52666666 9.47333334,5.33333332 8,5.33333332 Z M13.96,7.33333333 C13.6533334,4.55333331 11.4466667,2.34666663 8.66666662,2.03999996 L8.66666662,0.666666621 L7.33333333,0.666666621 L7.33333333,2.03999996 C4.55333331,2.34666663 2.34666663,4.55333331 2.03999996,7.33333333 L0.666666621,7.33333333 L0.666666621,8.66666662 L2.03999996,8.66666662 C2.34666663,11.4466667 4.55333331,13.6533334 7.33333333,13.96 L7.33333333,15.3333334 L8.66666662,15.3333334 L8.66666662,13.96 C11.4466667,13.6533334 13.6533334,11.4466667 13.96,8.66666662 L15.3333334,8.66666662 L15.3333334,7.33333333 L13.96,7.33333333 Z M8,12.6666667 C5.41999998,12.6666667 3.3333333,10.58 3.3333333,8 C3.3333333,5.41999998 5.41999998,3.3333333 8,3.3333333 C10.58,3.3333333 12.6666667,5.41999998 12.6666667,8 C12.6666667,10.58 10.58,12.6666667 8,12.6666667 Z" id="path-1"></path>
    </defs>
    <g id="Icons/Device/gps-fixed" stroke="none" stroke-width="1" fill="none" fill-rule="evenodd">
        <mask id="mask-2" fill="white">
            <use xlink:href="#path-1"></use>
        </mask>
        <use id="Icons/Device/ic_gps_fixed_24px" fill="#233745" fill-rule="nonzero" xlink:href="#path-1"></use>
    </g>
</svg>