<?xml version="1.0" encoding="UTF-8"?>
<svg width="16px" height="16px" viewBox="0 0 16 16" version="1.1" xmlns="http://www.w3.org/2000/svg" xmlns:xlink="http://www.w3.org/1999/xlink">
    <title>Icons/Device/nfc</title>
    <defs>
        <path d="M13.3333333,1.33333329 L2.66666663,1.33333329 C1.9333333,1.33333329 1.33333329,1.9333333 1.33333329,2.66666663 L1.33333329,13.3333333 C1.33333329,14.0666667 1.9333333,14.6666667 2.66666663,14.6666667 L13.3333333,14.6666667 C14.0666667,14.6666667 14.6666667,14.0666667 14.6666667,13.3333333 L14.6666667,2.66666663 C14.6666667,1.9333333 14.0666667,1.33333329 13.3333333,1.33333329 Z M13.3333334,13.3333334 L2.66666663,13.3333334 L2.66666663,2.66666663 L13.3333334,2.66666663 L13.3333334,13.3333334 Z M12,3.99999998 L8.66666667,3.99999998 C7.93333333,3.99999998 7.33333333,4.59999998 7.33333333,5.33333332 L7.33333333,6.85333333 C6.93333333,7.08666666 6.66666666,7.50666666 6.66666666,7.99999997 C6.66666666,8.73333334 7.26666666,9.33333334 7.99999997,9.33333334 C8.73333334,9.33333334 9.33333334,8.73333334 9.33333334,7.99999997 C9.33333334,7.50666666 9.06666667,7.07999999 8.66666667,6.85333333 L8.66666667,5.33333332 L10.6666667,5.33333332 L10.6666667,10.6666667 L5.33333332,10.6666667 L5.33333332,5.33333332 L6.66666666,5.33333332 L6.66666666,3.99999998 L3.99999998,3.99999998 L3.99999998,12 L12,12 L12,3.99999998 Z" id="path-1"></path>
    </defs>
    <g id="Icons/Device/nfc" stroke="none" stroke-width="1" fill="none" fill-rule="evenodd">
        <mask id="mask-2" fill="white">
            <use xlink:href="#path-1"></use>
        </mask>
        <use id="Icons/Device/ic_nfc_24px" fill="#233745" fill-rule="nonzero" xlink:href="#path-1"></use>
    </g>
</svg>