<?xml version="1.0" encoding="UTF-8"?>
<svg width="16px" height="16px" viewBox="0 0 16 16" version="1.1" xmlns="http://www.w3.org/2000/svg" xmlns:xlink="http://www.w3.org/1999/xlink">
    <title>Icons/Device/screen-rotation</title>
    <g id="Icons/Device/screen-rotation" stroke="none" stroke-width="1" fill="none" fill-rule="evenodd">
        <rect id="Spacer" fill-opacity="0" fill="#D8D8D8" x="0" y="0" width="16" height="16"></rect>
        <path d="M10.9866667,1.67999996 C13.1666667,2.7133333 14.7266667,4.82666665 14.9666667,7.33333333 L15.9666667,7.33333333 C15.6266667,3.22666664 12.1933334,-5.00000006e-08 8,-5.00000006e-08 L7.56,0.0199999501 L10.1,2.55999997 L10.9866667,1.67999996 Z M6.81999999,1.16666662 C6.42666666,0.773333288 5.79333332,0.773333288 5.40666665,1.16666662 L1.16666662,5.40666665 C0.773333288,5.79999999 0.773333288,6.43333332 1.16666662,6.81999999 L9.18000001,14.8333334 C9.57333334,15.2266667 10.2066667,15.2266667 10.5933333,14.8333334 L14.8333334,10.5933333 C15.2266667,10.2 15.2266667,9.56666668 14.8333334,9.18000001 L6.81999999,1.16666662 Z M9.88666668,14.1266667 L1.8733333,6.11333332 L6.11333332,1.8733333 L14.1266667,9.88666668 L9.88666668,14.1266667 L9.88666668,14.1266667 Z M5.01333331,14.32 C2.8333333,13.2933334 1.27333329,11.1733334 1.03333328,8.66666667 L0.0333332835,8.66666667 C0.373333286,12.7733334 3.80666664,16.0000001 8,16.0000001 L8.44,15.98 L5.89999999,13.44 L5.01333331,14.32 Z" id="Icons/Device/ic_screen_rotation_24px" fill="#233745" fill-rule="nonzero"></path>
    </g>
</svg>