<?xml version="1.0" encoding="UTF-8"?>
<svg width="16px" height="16px" viewBox="0 0 16 16" version="1.1" xmlns="http://www.w3.org/2000/svg" xmlns:xlink="http://www.w3.org/1999/xlink">
    <title>Icons/Device/screen-lock-portrait</title>
    <defs>
        <path d="M6.66666666,10.6666667 L9.33333334,10.6666667 C9.70000001,10.6666667 9.99999999,10.3666667 9.99999999,10 L9.99999999,8 C9.99999999,7.63333333 9.70000001,7.33333332 9.33333334,7.33333332 L9.33333334,6.66666666 C9.33333334,5.92666665 8.73333334,5.33333332 7.99999999,5.33333332 C7.26,5.33333332 6.66666666,5.93333332 6.66666666,6.66666666 L6.66666666,7.33333332 C6.29999999,7.33333332 5.99999999,7.63333333 5.99999999,8 L5.99999999,10 C5.99999999,10.3666667 6.29999999,10.6666667 6.66666666,10.6666667 Z M7.19999999,6.66666666 C7.19999999,6.22666666 7.56,5.86666665 8,5.86666665 C8.44,5.86666665 8.8,6.22666666 8.8,6.66666666 L8.8,7.33333333 L7.19999999,7.33333333 L7.19999999,6.66666666 L7.19999999,6.66666666 Z M11.3333333,0.666666621 L4.66666665,0.666666621 C3.93333331,0.666666621 3.3333333,1.26666662 3.3333333,1.99999996 L3.3333333,14 C3.3333333,14.7333334 3.93333331,15.3333334 4.66666665,15.3333334 L11.3333333,15.3333334 C12.0666667,15.3333334 12.6666667,14.7333334 12.6666667,14 L12.6666667,1.99999996 C12.6666667,1.26666662 12.0666667,0.666666621 11.3333333,0.666666621 Z M11.3333334,12.6666667 L4.66666665,12.6666667 L4.66666665,3.3333333 L11.3333334,3.3333333 L11.3333334,12.6666667 Z" id="path-1"></path>
    </defs>
    <g id="Icons/Device/screen-lock-portrait" stroke="none" stroke-width="1" fill="none" fill-rule="evenodd">
        <mask id="mask-2" fill="white">
            <use xlink:href="#path-1"></use>
        </mask>
        <use id="Icons/Device/ic_screen_lock_portrait_24px" fill="#233745" fill-rule="nonzero" xlink:href="#path-1"></use>
    </g>
</svg>