<?xml version="1.0" encoding="UTF-8"?>
<svg width="16px" height="16px" viewBox="0 0 16 16" version="1.1" xmlns="http://www.w3.org/2000/svg" xmlns:xlink="http://www.w3.org/1999/xlink">
    <title>Icons/Device/sd-storage</title>
    <defs>
        <path d="M12,1.33333329 L6.66666663,1.33333329 L2.67999997,5.33333329 L2.66666663,13.3333333 C2.66666663,14.0666667 3.26666664,14.6666667 3.99999997,14.6666667 L12,14.6666667 C12.7333334,14.6666667 13.3333334,14.0666667 13.3333334,13.3333333 L13.3333334,2.66666663 C13.3333334,1.9333333 12.7333334,1.33333329 12,1.33333329 Z M8,5.33333332 L6.66666666,5.33333332 L6.66666666,2.66666663 L8,2.66666663 L8,5.33333332 Z M10,5.33333332 L8.66666667,5.33333332 L8.66666667,2.66666663 L10,2.66666663 L10,5.33333332 Z M12,5.33333332 L10.6666667,5.33333332 L10.6666667,2.66666663 L12,2.66666663 L12,5.33333332 Z" id="path-1"></path>
    </defs>
    <g id="Icons/Device/sd-storage" stroke="none" stroke-width="1" fill="none" fill-rule="evenodd">
        <mask id="mask-2" fill="white">
            <use xlink:href="#path-1"></use>
        </mask>
        <use id="Icons/Device/ic_sd_storage_24px" fill="#233745" fill-rule="nonzero" xlink:href="#path-1"></use>
    </g>
</svg>