<?xml version="1.0" encoding="UTF-8"?>
<svg width="16px" height="16px" viewBox="0 0 16 16" version="1.1" xmlns="http://www.w3.org/2000/svg" xmlns:xlink="http://www.w3.org/1999/xlink">
    <title>Icons/Device/settings-system-daydream</title>
    <g id="Icons/Device/settings-system-daydream" stroke="none" stroke-width="1" fill="none" fill-rule="evenodd">
        <rect id="Spacer" fill-opacity="0" fill="#D8D8D8" x="0" y="0" width="16" height="16"></rect>
        <path d="M5.99999997,10.6666667 L10.3333333,10.6666667 C11.2533334,10.6666667 12,9.92000001 12,9.00000001 C12,8.08 11.2533334,7.33333332 10.3333333,7.33333332 L10.3,7.33333332 C10.14,6.20666666 9.17333334,5.33333332 7.99999997,5.33333332 C7.06666666,5.33333332 6.26666666,5.88666665 5.89333332,6.67999999 L5.78666665,6.67999999 C4.77999998,6.78666666 3.99999997,7.63333333 3.99999997,8.66666667 C3.99999997,9.77333334 4.89333331,10.6666667 5.99999997,10.6666667 Z M14,1.99999996 L1.99999996,1.99999996 C1.26666662,1.99999996 0.666666621,2.59999997 0.666666621,3.3333333 L0.666666621,12.6666667 C0.666666621,13.4 1.26666662,14 1.99999996,14 L14,14 C14.7333334,14 15.3333334,13.4 15.3333334,12.6666667 L15.3333334,3.3333333 C15.3333334,2.59999997 14.7333334,1.99999996 14,1.99999996 Z M14,12.6733334 L1.99999996,12.6733334 L1.99999996,3.32666664 L14,3.32666664 L14,12.6733334 L14,12.6733334 Z" id="Icons/Device/ic_settings_system_daydream_24px" fill="#233745" fill-rule="nonzero"></path>
    </g>
</svg>