<svg xmlns="http://www.w3.org/2000/svg" xmlns:xlink="http://www.w3.org/1999/xlink" width="16" height="16" viewBox="0 0 16 16">
  <defs>
    <path id="signal-wifi-2-bar-lock-a" d="M10.3333333,10.5333333 L10.3333333,11.4666667 L8,14.3333334 L10.3333333,11.4 L10.3333333,10.5333333 Z M11.2227841,7.37988272 C11.2374684,7.38656879 11.2520958,7.39327497 11.2666667,7.4 C10.6666667,8 10.3333333,8.8 10.3333333,9.66666666 C10.3333333,8.77406836 10.6686924,7.9729316 11.2227841,7.37988272 Z M15.3333334,10.6666667 C15.6666667,10.6666667 16.0000001,11 16.0000001,11.3333334 L16.0000001,14 C16.0000001,14.3333334 15.6666667,14.6666667 15.3333334,14.6666667 L12,14.6666667 C11.6666667,14.6666667 11.3333334,14.3333334 11.3333334,14 L11.3333334,11.3333334 C11.3333334,11 11.6666667,10.6666667 12,10.6666667 L12,9.66666668 C12,8.73333334 12.7333334,8 13.6666667,8 C14.6,8 15.3333334,8.73333334 15.3333334,9.66666668 L15.3333334,10.6666667 Z M14.6666667,10.6666667 L14.6666667,9.66666667 C14.6666667,9.13333334 14.2,8.66666667 13.6666667,8.66666667 C13.1333334,8.66666667 12.6666667,9.13333334 12.6666667,9.66666667 L12.6666667,10.6666667 L14.6666667,10.6666667 Z"/>
  </defs>
  <g fill="none" fill-rule="evenodd">
    <mask id="signal-wifi-2-bar-lock-b" fill="#fff">
      <use xlink:href="#signal-wifi-2-bar-lock-a"/>
    </mask>
    <g fill="CurrentColor" mask="url(#signal-wifi-2-bar-lock-b)">
      <rect width="16" height="16"/>
    </g>
  </g>
</svg>
