<?xml version="1.0" encoding="UTF-8"?>
<svg width="16px" height="16px" viewBox="0 0 16 16" version="1.1" xmlns="http://www.w3.org/2000/svg" xmlns:xlink="http://www.w3.org/1999/xlink">
    <title>Icons/Device/signal-wifi-1-bar-lock</title>
    <g id="Icons/Device/signal-wifi-1-bar-lock" stroke="none" stroke-width="1" fill="none" fill-rule="evenodd">
        <rect id="Spacer" fill-opacity="0" fill="#D8D8D8" x="0" y="0" width="16" height="16"></rect>
        <path d="M13.6666667,8 C14.6,8 15.3333334,8.73333334 15.3333334,9.66666668 L15.3333334,9.66666668 L15.3333334,10.6666667 C15.6666667,10.6666667 16,11 16,11.3333334 L16,11.3333334 L16,14 C16,14.3333334 15.6666667,14.6666667 15.3333334,14.6666667 L15.3333334,14.6666667 L12,14.6666667 C11.6666667,14.6666667 11.3333334,14.3333334 11.3333334,14 L11.3333334,14 L11.3333334,11.3333334 C11.3333334,11 11.6666667,10.6666667 12,10.6666667 L12,10.6666667 L12,9.66666668 C12,8.73333334 12.7333334,8 13.6666667,8 Z M4.46666664,9.93333335 C4.46859901,9.93140098 4.47079743,9.92925857 4.47325987,9.92691262 L0.266666618,4.66666665 C0.533333287,4.46666664 3.53333331,1.99999996 8,1.99999996 C12.4666667,1.99999996 15.4666667,4.46666664 15.7333334,4.66666665 L15.7333334,4.66666665 L14.3333334,6.39999999 C14.1333334,6.33333332 13.9333334,6.33333332 13.6666667,6.33333332 C11.9428678,6.33333332 10.560183,7.58408493 10.3586295,9.24557092 L10.4,9.26666667 C10.3333333,9.40000001 10.3333333,9.60000001 10.3333333,9.73333334 L10.3333333,9.73333334 L10.3333333,11.4666667 L8,14.3333334 Z M13.6666667,8.66666667 C13.1333334,8.66666667 12.6666667,9.13333334 12.6666667,9.66666667 L12.6666667,9.66666667 L12.6666667,10.6666667 L14.6666667,10.6666667 L14.6666667,9.66666667 C14.6666667,9.13333334 14.2,8.66666667 13.6666667,8.66666667 Z" id="Combined-Shape" fill="#233745" fill-rule="nonzero"></path>
    </g>
</svg>