<?xml version="1.0" encoding="UTF-8"?>
<svg width="16px" height="16px" viewBox="0 0 16 16" version="1.1" xmlns="http://www.w3.org/2000/svg" xmlns:xlink="http://www.w3.org/1999/xlink">
    <title>Icons/Device/signal-wifi-3-bar-lock</title>
    <g id="Icons/Device/signal-wifi-3-bar-lock" stroke="none" stroke-width="1" fill="none" fill-rule="evenodd">
        <rect id="Spacer" fill-opacity="0" fill="#D8D8D8" x="0" y="0" width="16" height="16"></rect>
        <path d="M13.6666667,8 C14.6,8 15.3333334,8.73333334 15.3333334,9.66666668 L15.3333334,9.66666668 L15.3333334,10.6666667 C15.6666667,10.6666667 16.0000001,11 16.0000001,11.3333334 L16.0000001,11.3333334 L16.0000001,14 C16.0000001,14.3333334 15.6666667,14.6666667 15.3333334,14.6666667 L15.3333334,14.6666667 L12,14.6666667 C11.6666667,14.6666667 11.3333334,14.3333334 11.3333334,14 L11.3333334,14 L11.3333334,11.3333334 C11.3333334,11 11.6666667,10.6666667 12,10.6666667 L12,10.6666667 L12,9.66666668 C12,8.73333334 12.7333334,8 13.6666667,8 Z M2.3333333,7.26666666 C2.34540264,7.25942506 2.35983182,7.25017322 2.37658604,7.23906621 L0.266666618,4.66666665 C0.533333287,4.46666664 3.53333331,1.99999996 8,1.99999996 C12.4666667,1.99999996 15.4666667,4.46666664 15.7333334,4.66666665 L15.7333334,4.66666665 L14.3333334,6.46666666 C14.1333334,6.39999999 13.9333334,6.39999999 13.6666667,6.39999999 C13.4666667,6.39999999 13.2666666,6.39999999 13.0666667,6.46666666 C12.8666667,6.46666666 12.7333334,6.53333332 12.5333334,6.59999999 C11.2666667,7.06666666 10.3333333,8.26666667 10.3333333,9.73333334 L10.3333333,9.73333334 L10.3333333,11.4666667 L8,14.3333334 Z M13.6666667,8.66666667 C13.1333334,8.66666667 12.6666667,9.13333334 12.6666667,9.66666667 L12.6666667,9.66666667 L12.6666667,10.6666667 L14.6666667,10.6666667 L14.6666667,9.66666667 C14.6666667,9.13333334 14.2,8.66666667 13.6666667,8.66666667 Z" id="Combined-Shape" fill="#233745" fill-rule="nonzero" opacity="0.3"></path>
    </g>
</svg>