<?xml version="1.0" encoding="UTF-8"?>
<svg width="16px" height="16px" viewBox="0 0 16 16" version="1.1" xmlns="http://www.w3.org/2000/svg" xmlns:xlink="http://www.w3.org/1999/xlink">
    <title>Icons/Device/signal-wifi-4-bar-lock</title>
    <defs>
        <path d="M15.3333334,10.6666667 L15.3333334,9.66666668 C15.3333334,8.73333334 14.6,8 13.6666667,8 C12.7333334,8 12,8.73333334 12,9.66666668 L12,10.6666667 C11.6666667,10.6666667 11.3333334,11 11.3333334,11.3333334 L11.3333334,14 C11.3333334,14.3333334 11.6666667,14.6666667 12,14.6666667 L15.3333334,14.6666667 C15.6666667,14.6666667 16,14.3333334 16,14 L16,11.3333334 C16,11 15.6666667,10.6666667 15.3333334,10.6666667 Z M14.6666667,10.6666667 L12.6666667,10.6666667 L12.6666667,9.66666667 C12.6666667,9.13333334 13.1333334,8.66666667 13.6666667,8.66666667 C14.2,8.66666667 14.6666667,9.13333334 14.6666667,9.66666667 L14.6666667,10.6666667 Z M10.3333333,9.66666668 C10.3333333,7.8 11.8,6.33333332 13.6666667,6.33333332 C13.9333334,6.33333332 14.1333334,6.33333332 14.3333334,6.39999999 L15.7333334,4.66666665 C15.4666667,4.46666664 12.4666667,1.99999996 8,1.99999996 C3.53333331,1.99999996 0.533333287,4.46666664 0.266666618,4.66666665 L8,14.3333334 L10.3333333,11.4 L10.3333333,9.66666668 Z" id="path-1"></path>
    </defs>
    <g id="Icons/Device/signal-wifi-4-bar-lock" stroke="none" stroke-width="1" fill="none" fill-rule="evenodd">
        <mask id="mask-2" fill="white">
            <use xlink:href="#path-1"></use>
        </mask>
        <use id="Icons/Device/ic_signal_wifi_4_bar_lock_24px" fill="#233745" fill-rule="nonzero" xlink:href="#path-1"></use>
    </g>
</svg>