<?xml version="1.0" encoding="UTF-8"?>
<svg width="16px" height="16px" viewBox="0 0 16 16" version="1.1" xmlns="http://www.w3.org/2000/svg" xmlns:xlink="http://www.w3.org/1999/xlink">
    <title>Icons/Device/storage</title>
    <defs>
        <path d="M1.33333329,13.3333334 L14.6666667,13.3333334 L14.6666667,10.6666667 L1.33333329,10.6666667 L1.33333329,13.3333334 Z M2.66666663,11.3333334 L3.99999998,11.3333334 L3.99999998,12.6666667 L2.66666663,12.6666667 L2.66666663,11.3333334 Z M1.33333329,2.66666663 L1.33333329,5.33333332 L14.6666667,5.33333332 L14.6666667,2.66666663 L1.33333329,2.66666663 Z M3.99999998,4.66666665 L2.66666663,4.66666665 L2.66666663,3.3333333 L3.99999998,3.3333333 L3.99999998,4.66666665 Z M1.33333329,9.33333334 L14.6666667,9.33333334 L14.6666667,6.66666666 L1.33333329,6.66666666 L1.33333329,9.33333334 Z M2.66666663,7.33333333 L3.99999998,7.33333333 L3.99999998,8.66666667 L2.66666663,8.66666667 L2.66666663,7.33333333 Z" id="path-1"></path>
    </defs>
    <g id="Icons/Device/storage" stroke="none" stroke-width="1" fill="none" fill-rule="evenodd">
        <mask id="mask-2" fill="white">
            <use xlink:href="#path-1"></use>
        </mask>
        <use id="Icons/Device/ic_storage_24px" fill="#233745" fill-rule="nonzero" xlink:href="#path-1"></use>
    </g>
</svg>