<?xml version="1.0" encoding="UTF-8"?>
<svg width="16px" height="16px" viewBox="0 0 16 16" version="1.1" xmlns="http://www.w3.org/2000/svg" xmlns:xlink="http://www.w3.org/1999/xlink">
    <title>Icons/Device/wallpaper</title>
    <defs>
        <path d="M11.5555556,5.33333332 C11.5555556,4.84444442 11.1555556,4.44444442 10.6666667,4.44444442 C10.1777778,4.44444442 9.77777779,4.84444442 9.77777779,5.33333332 C9.77777779,5.82222221 10.1777778,6.22222221 10.6666667,6.22222221 C11.1555556,6.22222221 11.5555556,5.82222221 11.5555556,5.33333332 Z M7.36888888,11.4933334 L5.77777776,9.59111112 L3.55555553,12.4444445 L12.4444445,12.4444445 L9.59111112,8.63111112 L7.36888888,11.4933334 L7.36888888,11.4933334 Z M2.66666663,2.66666663 L7.11111111,2.66666663 L7.11111111,0.888888844 L2.66666663,0.888888844 C1.68888885,0.888888844 0.888888844,1.68888885 0.888888844,2.66666663 L0.888888844,7.11111111 L2.66666663,7.11111111 L2.66666663,2.66666663 Z M13.3333334,13.3333334 L8.88888889,13.3333334 L8.88888889,15.1111112 L13.3333334,15.1111112 C14.3111112,15.1111112 15.1111112,14.3111112 15.1111112,13.3333334 L15.1111112,8.88888889 L13.3333334,8.88888889 L13.3333334,13.3333334 Z M2.66666663,8.88888889 L0.888888844,8.88888889 L0.888888844,13.3333334 C0.888888844,14.3111112 1.68888885,15.1111112 2.66666663,15.1111112 L7.11111111,15.1111112 L7.11111111,13.3333334 L2.66666663,13.3333334 L2.66666663,8.88888889 Z M13.3333334,0.888888844 L8.88888889,0.888888844 L8.88888889,2.66666663 L13.3333334,2.66666663 L13.3333334,7.11111111 L15.1111112,7.11111111 L15.1111112,2.66666663 C15.1111112,1.68888885 14.3111112,0.888888844 13.3333334,0.888888844 Z" id="path-1"></path>
    </defs>
    <g id="Icons/Device/wallpaper" stroke="none" stroke-width="1" fill="none" fill-rule="evenodd">
        <mask id="mask-2" fill="white">
            <use xlink:href="#path-1"></use>
        </mask>
        <use id="Icons/Device/ic_wallpaper_18px" fill="#233745" fill-rule="nonzero" xlink:href="#path-1"></use>
    </g>
</svg>