<?xml version="1.0" encoding="UTF-8"?>
<svg width="16px" height="16px" viewBox="0 0 16 16" version="1.1" xmlns="http://www.w3.org/2000/svg" xmlns:xlink="http://www.w3.org/1999/xlink">
    <title>Icons/Device/wifi-lock</title>
    <defs>
        <path d="M13.6666667,6.33333329 C13.8533334,6.33333329 14.0333334,6.35999999 14.2066667,6.38666666 L15.9999999,3.99999998 C13.7733334,2.32666663 10.9999999,1.33333329 7.99999995,1.33333329 C4.99999995,1.33333329 2.22666663,2.32666663 -5.00000006e-08,3.99999998 L7.99999995,14.6666667 L10.3333333,11.5533334 L10.3333333,9.66666668 C10.3333333,7.82666667 11.8266667,6.33333329 13.6666667,6.33333329 Z M15.3333334,10.6666667 L15.3333334,9.66666668 C15.3333334,8.74666667 14.5866667,8 13.6666667,8 C12.7466667,8 12,8.74666667 12,9.66666668 L12,10.6666667 C11.6333334,10.6666667 11.3333334,10.9666667 11.3333334,11.3333334 L11.3333334,14 C11.3333334,14.3666667 11.6333334,14.6666667 12,14.6666667 L15.3333334,14.6666667 C15.7,14.6666667 16.0000001,14.3666667 16.0000001,14 L16.0000001,11.3333334 C16.0000001,10.9666667 15.7,10.6666667 15.3333334,10.6666667 Z M14.6666667,10.6666667 L12.6666667,10.6666667 L12.6666667,9.66666667 C12.6666667,9.11333334 13.1133334,8.66666667 13.6666667,8.66666667 C14.22,8.66666667 14.6666667,9.11333334 14.6666667,9.66666667 L14.6666667,10.6666667 Z" id="path-1"></path>
    </defs>
    <g id="Icons/Device/wifi-lock" stroke="none" stroke-width="1" fill="none" fill-rule="evenodd">
        <mask id="mask-2" fill="white">
            <use xlink:href="#path-1"></use>
        </mask>
        <use id="Icons/Device/ic_wifi_lock_24px" fill="#233745" fill-rule="nonzero" xlink:href="#path-1"></use>
    </g>
</svg>