<svg xmlns="http://www.w3.org/2000/svg" xmlns:xlink="http://www.w3.org/1999/xlink" width="16" height="16" viewBox="0 0 16 16">
  <defs>
    <path id="adb-a" d="M3.55555553,10.6666667 C3.55555553,13.12 5.54666665,15.1111112 8,15.1111112 C10.4533333,15.1111112 12.4444445,13.12 12.4444445,10.6666667 L12.4444445,8 L3.55555553,8 L3.55555553,10.6666667 Z M10.6222222,2.74666663 L11.9555556,1.41333329 L11.4311111,0.888888844 L9.96444446,2.35555552 C9.3688889,2.0533333 8.71111112,1.87555552 8,1.87555552 C7.28888888,1.87555552 6.6311111,2.0533333 6.03555554,2.35555552 L4.56888887,0.888888844 L4.05333331,1.41333329 L5.38666665,2.74666663 C4.27555553,3.55555553 3.55555553,4.84444442 3.55555553,6.31999999 L3.55555553,7.11111111 L12.4444445,7.11111111 L12.4444445,6.31999999 C12.4444445,4.84444442 11.7244445,3.55555553 10.6222222,2.74666663 Z M6.22222221,5.33333332 L5.33333332,5.33333332 L5.33333332,4.44444442 L6.22222221,4.44444442 L6.22222221,5.33333332 Z M10.6666667,5.33333332 L9.77777779,5.33333332 L9.77777779,4.44444442 L10.6666667,4.44444442 L10.6666667,5.33333332 Z"/>
  </defs>
  <g fill="none" fill-rule="evenodd">
    <mask id="adb-b" fill="#fff">
      <use xlink:href="#adb-a"/>
    </mask>
    <g fill="CurrentColor" mask="url(#adb-b)">
      <rect width="16" height="16"/>
    </g>
  </g>
</svg>
