<svg xmlns="http://www.w3.org/2000/svg" xmlns:xlink="http://www.w3.org/1999/xlink" width="16" height="16" viewBox="0 0 16 16">
  <defs>
    <path id="airline-seat-legroom-normal-a" d="M3.3333333,7.99999996 L3.3333333,1.99999996 L1.99999996,1.99999996 L1.99999996,7.99999996 C1.99999996,9.84000001 3.49333331,11.3333334 5.33333332,11.3333334 L9.33333334,11.3333334 L9.33333334,9.99999996 L5.33333332,9.99999996 C4.22666664,9.99999996 3.3333333,9.10666667 3.3333333,7.99999996 Z M13.6666667,12 L12.6666667,12 L12.6666667,7.33333333 C12.6666667,6.59999999 12.0666667,5.99999996 11.3333334,5.99999996 L7.99999998,5.99999996 L7.99999998,1.99999996 L3.99999998,1.99999996 L3.99999998,7.33333333 C3.99999998,8.43333334 4.89999998,9.33333334 5.99999998,9.33333334 L10.6666667,9.33333334 L10.6666667,14 L13.6666667,14 C14.22,14 14.6666667,13.5533334 14.6666667,13 C14.6666667,12.4466667 14.22,12 13.6666667,12 Z"/>
  </defs>
  <g fill="none" fill-rule="evenodd">
    <mask id="airline-seat-legroom-normal-b" fill="#fff">
      <use xlink:href="#airline-seat-legroom-normal-a"/>
    </mask>
    <g fill="CurrentColor" mask="url(#airline-seat-legroom-normal-b)">
      <rect width="16" height="16"/>
    </g>
  </g>
</svg>
