<svg xmlns="http://www.w3.org/2000/svg" xmlns:xlink="http://www.w3.org/1999/xlink" width="16" height="16" viewBox="0 0 16 16">
  <defs>
    <path id="airline-seat-flat-a" d="M14.6666667,7.33333333 L14.6666667,8.66666665 L5.99999999,8.66666665 L5.99999999,4.66666665 L12,4.66666665 C13.4733334,4.66666665 14.6666667,5.85999999 14.6666667,7.33333333 Z M1.33333329,9.33333334 L1.33333329,10.6666667 L5.33333329,10.6666667 L5.33333329,12 L10.6666667,12 L10.6666667,10.6666667 L14.6666667,10.6666667 L14.6666667,9.33333334 L1.33333329,9.33333334 Z M4.75999998,8.06666667 C5.53333332,7.27333333 5.51999998,6.01333332 4.73333331,5.23999998 C3.93999997,4.46666664 2.67999997,4.47999998 1.90666663,5.26666665 C1.13333329,6.05999999 1.14666662,7.32 1.9333333,8.09333333 C2.72666663,8.86666667 3.98666664,8.85333334 4.75999998,8.06666667 L4.75999998,8.06666667 Z"/>
  </defs>
  <g fill="none" fill-rule="evenodd">
    <mask id="airline-seat-flat-b" fill="#fff">
      <use xlink:href="#airline-seat-flat-a"/>
    </mask>
    <g fill="CurrentColor" mask="url(#airline-seat-flat-b)">
      <rect width="16" height="16"/>
    </g>
  </g>
</svg>
