<svg xmlns="http://www.w3.org/2000/svg" xmlns:xlink="http://www.w3.org/1999/xlink" width="16" height="16" viewBox="0 0 16 16">
  <defs>
    <path id="airline-seat-legroom-reduced-a" d="M13.3133334,12.8 C13.4333334,13.44 12.9466667,14 12.3333334,14 L9.33333334,14 L9.33333334,12 L9.99999997,9.33333334 L5.99999997,9.33333334 C4.89999998,9.33333334 3.99999997,8.43333334 3.99999997,7.33333333 L3.99999997,1.99999996 L7.99999997,1.99999996 L7.99999997,5.99999996 L11.3333334,5.99999996 C12.0666667,5.99999996 12.6666667,6.59999999 12.6666667,7.33333333 L11.3333334,12 L12.2933334,12 C12.78,12 13.22,12.3266667 13.3133334,12.8 L13.3133334,12.8 Z M3.3333333,7.99999996 L3.3333333,1.99999996 L1.99999996,1.99999996 L1.99999996,7.99999996 C1.99999996,9.84000001 3.49333331,11.3333334 5.33333332,11.3333334 L7.99999996,11.3333334 L7.99999996,9.99999996 L5.33333332,9.99999996 C4.22666664,9.99999996 3.3333333,9.10666667 3.3333333,7.99999996 Z"/>
  </defs>
  <g fill="none" fill-rule="evenodd">
    <mask id="airline-seat-legroom-reduced-b" fill="#fff">
      <use xlink:href="#airline-seat-legroom-reduced-a"/>
    </mask>
    <g fill="CurrentColor" mask="url(#airline-seat-legroom-reduced-b)">
      <rect width="16" height="16"/>
    </g>
  </g>
</svg>
