<svg xmlns="http://www.w3.org/2000/svg" xmlns:xlink="http://www.w3.org/1999/xlink" width="16" height="16" viewBox="0 0 16 16">
  <defs>
    <path id="confirmation-number-a" d="M14.6666667,6.66666663 L14.6666667,3.99999997 C14.6666667,3.25999997 14.0666667,2.66666663 13.3333333,2.66666663 L2.66666663,2.66666663 C1.9333333,2.66666663 1.33999996,3.25999997 1.33999996,3.99999997 L1.33999996,6.66666663 C2.0733333,6.66666663 2.66666663,7.26666666 2.66666663,8 C2.66666663,8.73333334 2.0733333,9.33333334 1.33333329,9.33333334 L1.33333329,12 C1.33333329,12.7333334 1.9333333,13.3333334 2.66666663,13.3333334 L13.3333333,13.3333334 C14.0666667,13.3333334 14.6666667,12.7333334 14.6666667,12 L14.6666667,9.33333334 C13.9333334,9.33333334 13.3333333,8.73333334 13.3333333,8 C13.3333333,7.26666666 13.9333334,6.66666663 14.6666667,6.66666663 Z M8.66666667,11.6666667 L7.33333333,11.6666667 L7.33333333,10.3333333 L8.66666667,10.3333333 L8.66666667,11.6666667 Z M8.66666667,8.66666667 L7.33333333,8.66666667 L7.33333333,7.33333333 L8.66666667,7.33333333 L8.66666667,8.66666667 Z M8.66666667,5.66666665 L7.33333333,5.66666665 L7.33333333,4.33333331 L8.66666667,4.33333331 L8.66666667,5.66666665 Z"/>
  </defs>
  <g fill="none" fill-rule="evenodd">
    <mask id="confirmation-number-b" fill="#fff">
      <use xlink:href="#confirmation-number-a"/>
    </mask>
    <g fill="CurrentColor" mask="url(#confirmation-number-b)">
      <rect width="16" height="16"/>
    </g>
  </g>
</svg>
