<svg xmlns="http://www.w3.org/2000/svg" xmlns:xlink="http://www.w3.org/1999/xlink" width="16" height="16" viewBox="0 0 16 16">
  <defs>
    <path id="disc-full-a" d="M13.3333334,10.6666667 L14.6666667,10.6666667 L14.6666667,9.33333334 L13.3333334,9.33333334 L13.3333334,10.6666667 Z M13.3333334,4.66666665 L13.3333334,8 L14.6666667,8 L14.6666667,4.66666665 L13.3333334,4.66666665 Z M6.66666666,2.66666663 C3.71999997,2.66666663 1.33333329,5.05333331 1.33333329,8 C1.33333329,10.9466667 3.71999997,13.3333334 6.66666666,13.3333334 C9.61333334,13.3333334 12,10.9466667 12,8 C12,5.05333331 9.61333334,2.66666663 6.66666666,2.66666663 Z M6.66666666,9.33333334 C5.93333332,9.33333334 5.33333332,8.73333334 5.33333332,8 C5.33333332,7.26666666 5.93333332,6.66666666 6.66666666,6.66666666 C7.4,6.66666666 8,7.26666666 8,8 C8,8.73333334 7.4,9.33333334 6.66666666,9.33333334 Z"/>
  </defs>
  <g fill="none" fill-rule="evenodd">
    <mask id="disc-full-b" fill="#fff">
      <use xlink:href="#disc-full-a"/>
    </mask>
    <g fill="CurrentColor" mask="url(#disc-full-b)">
      <rect width="16" height="16"/>
    </g>
  </g>
</svg>
