<svg xmlns="http://www.w3.org/2000/svg" xmlns:xlink="http://www.w3.org/1999/xlink" width="16" height="16" viewBox="0 0 16 16">
  <defs>
    <path id="do-not-disturb-a" d="M8,1.33333329 C4.31999998,1.33333329 1.33333329,4.31999998 1.33333329,8 C1.33333329,11.68 4.31999998,14.6666667 8,14.6666667 C11.68,14.6666667 14.6666667,11.68 14.6666667,8 C14.6666667,4.31999998 11.68,1.33333329 8,1.33333329 Z M8,13.3333334 C5.05333331,13.3333334 2.66666663,10.9466667 2.66666663,8 C2.66666663,6.76666666 3.08666664,5.63333332 3.79333331,4.73333331 L11.2666667,12.2066667 C10.3666667,12.9133334 9.23333334,13.3333334 8,13.3333334 Z M12.2066667,11.2666667 L4.73333331,3.79333331 C5.63333332,3.08666664 6.76666666,2.66666663 8,2.66666663 C10.9466667,2.66666663 13.3333334,5.05333331 13.3333334,8 C13.3333334,9.23333334 12.9133334,10.3666667 12.2066667,11.2666667 Z"/>
  </defs>
  <g fill="none" fill-rule="evenodd">
    <mask id="do-not-disturb-b" fill="#fff">
      <use xlink:href="#do-not-disturb-a"/>
    </mask>
    <g fill="CurrentColor" mask="url(#do-not-disturb-b)">
      <rect width="16" height="16"/>
    </g>
  </g>
</svg>
