<svg xmlns="http://www.w3.org/2000/svg" xmlns:xlink="http://www.w3.org/1999/xlink" width="16" height="16" viewBox="0 0 16 16">
  <defs>
    <path id="enhanced-encryption-a" d="M12,5.33333332 L11.3333334,5.33333332 L11.3333334,3.99999997 C11.3333334,2.15999996 9.84000001,0.666666621 8,0.666666621 C6.15999999,0.666666621 4.66666663,2.15999996 4.66666663,3.99999997 L4.66666663,5.33333332 L3.99999997,5.33333332 C3.26666664,5.33333332 2.66666663,5.93333332 2.66666663,6.66666662 L2.66666663,13.3333334 C2.66666663,14.0666667 3.26666664,14.6666666 3.99999997,14.6666666 L12,14.6666666 C12.7333334,14.6666666 13.3333334,14.0666667 13.3333334,13.3333334 L13.3333334,6.66666662 C13.3333334,5.93333332 12.7333334,5.33333332 12,5.33333332 Z M5.93333332,3.99999997 C5.93333332,2.85999997 6.85999999,1.9333333 8,1.9333333 C9.14000001,1.9333333 10.0666667,2.85999997 10.0666667,3.99999997 L10.0666667,5.33333332 L5.93333332,5.33333332 L5.93333332,3.99999997 Z M10.6666667,10.6666667 L8.66666667,10.6666667 L8.66666667,12.6666667 L7.33333332,12.6666667 L7.33333332,10.6666667 L5.33333332,10.6666667 L5.33333332,9.33333333 L7.33333332,9.33333333 L7.33333332,7.33333333 L8.66666667,7.33333333 L8.66666667,9.33333333 L10.6666667,9.33333333 L10.6666667,10.6666667 Z"/>
  </defs>
  <g fill="none" fill-rule="evenodd">
    <mask id="enhanced-encryption-b" fill="#fff">
      <use xlink:href="#enhanced-encryption-a"/>
    </mask>
    <g fill="CurrentColor" mask="url(#enhanced-encryption-b)">
      <rect width="16" height="16"/>
    </g>
  </g>
</svg>
