<svg xmlns="http://www.w3.org/2000/svg" xmlns:xlink="http://www.w3.org/1999/xlink" width="16" height="16" viewBox="0 0 16 16">
  <defs>
    <path id="system-update-a" d="M11.3333333,0.673333288 L4.66666665,0.666666621 C3.93333331,0.666666621 3.3333333,1.26666662 3.3333333,1.99999996 L3.3333333,14 C3.3333333,14.7333334 3.93333331,15.3333334 4.66666665,15.3333334 L11.3333333,15.3333334 C12.0666667,15.3333334 12.6666667,14.7333334 12.6666667,14 L12.6666667,1.99999996 C12.6666667,1.26666662 12.0666667,0.673333288 11.3333333,0.673333288 Z M11.3333334,12.6666667 L4.66666665,12.6666667 L4.66666665,3.3333333 L11.3333334,3.3333333 L11.3333334,12.6666667 Z M10.6666667,8.66666667 L8.66666667,8.66666667 L8.66666667,5.33333332 L7.33333332,5.33333332 L7.33333332,8.66666667 L5.33333332,8.66666667 L8,11.3333333 L10.6666667,8.66666667 Z"/>
  </defs>
  <g fill="none" fill-rule="evenodd">
    <mask id="system-update-b" fill="#fff">
      <use xlink:href="#system-update-a"/>
    </mask>
    <g fill="CurrentColor" mask="url(#system-update-b)">
      <rect width="16" height="16"/>
    </g>
  </g>
</svg>
