<svg xmlns="http://www.w3.org/2000/svg" width="132" height="30" viewBox="0 0 132 30">
  <g fill="none">
    <path fill="#FFF" d="M44.7169368,19.8354135 L44.6915932,19.4964448 L44.3516783,19.4964448 L42.2419181,19.4964448 L41.8603215,19.4964448 L41.8759476,19.8777214 C42.0500419,24.125626 44.9138687,26.9392099 50.0070078,26.9392099 C54.8646291,26.9392099 58.1676774,24.4154331 58.1676774,20.5952782 C58.1676774,18.5296291 57.4510357,17.0678401 56.085447,16.0695363 C55.0349912,15.3016085 53.7789887,14.8687539 51.6962448,14.4171637 C51.5570857,14.3869905 51.4120372,14.3561062 51.2382206,14.3195304 C51.1350063,14.2978112 50.7646733,14.220289 50.7843271,14.2244093 C47.001923,13.4314468 45.8021385,12.7426041 45.8021385,10.6911261 C45.8021385,8.56974674 47.536945,7.21881245 50.4465411,7.21881245 C53.2773538,7.21881245 55.0664063,8.94772863 55.1497199,11.6693069 L55.1605893,12.0243774 L55.5158261,12.0243774 L57.5962841,12.0243774 L57.9711122,12.0243774 L57.9624645,11.6496492 C57.8645655,7.40736368 55.0181634,4.55230997 50.4172389,4.55230997 C45.9079376,4.55230997 42.9305204,7.26567476 42.9305204,10.7790328 C42.9305204,12.8388418 43.6464031,14.2732794 45.0141455,15.2316735 C46.0560998,15.9617841 47.2631464,16.3488419 49.3924278,16.7787443 C49.4921488,16.798878 49.596192,16.8196618 49.720057,16.8442335 C49.7967291,16.8594433 49.8833231,16.8765663 50.0458346,16.9086934 C52.0604948,17.3073061 52.949427,17.5533369 53.760388,18.0249069 C54.7671155,18.6103138 55.2667572,19.4465143 55.2667572,20.7417893 C55.2667572,22.990666 53.375925,24.2727074 50.0656122,24.2727074 C46.8965532,24.2727074 44.9298698,22.6833952 44.7169368,19.8354135 Z M64.101378,4.18603215 L64.101378,3.81975434 L63.7351002,3.81975434 L61.6546422,3.81975434 L61.2883644,3.81975434 L61.2883644,4.18603215 L61.2883644,26.162701 L61.2883644,26.5289788 L61.6546422,26.5289788 L63.7351002,26.5289788 L64.101378,26.5289788 L64.101378,26.162701 L64.101378,22.2442522 L67.0624443,19.3604313 L72.3503747,26.3830268 L72.4602748,26.5289788 L72.6429766,26.5289788 L75.2215724,26.5289788 L75.959526,26.5289788 L75.5133019,25.9412209 L69.0553891,17.4349835 L75.0111186,11.5074804 L75.6399887,10.8815906 L74.7527368,10.8815906 L71.9690255,10.8815906 L71.8165468,10.8815906 L71.7091112,10.9897909 L64.101378,18.6516716 L64.101378,4.18603215 Z M90.3854739,19.6722581 L90.7295741,19.6722581 L90.7510384,19.3288281 C90.7548138,19.2684254 90.7604123,19.1685811 90.7660073,19.0482897 C90.7704361,18.9530707 90.7740887,18.8602845 90.7766994,18.7725595 C90.7795288,18.6774944 90.7810539,18.5910182 90.7810539,18.5148202 C90.7810539,13.9174069 87.735959,10.5299639 83.235731,10.5299639 C78.743958,10.5299639 75.5438969,14.1357962 75.5438969,18.6906336 C75.5438969,23.3776408 78.598912,26.8806055 83.2650332,26.8806055 C86.7932241,26.8806055 89.5189189,24.7872035 90.5009805,21.6118712 L90.6477337,21.1373694 L90.1510561,21.1373694 L87.9826915,21.1373694 L87.7240076,21.1373694 L87.6375011,21.3811603 C87.0208037,23.119126 85.3511462,24.2727074 83.2943354,24.2727074 C80.6053669,24.2727074 78.7308903,22.4260703 78.3932118,19.6722581 L90.3854739,19.6722581 Z M78.4784481,17.2401734 C78.9532572,14.7744741 80.766677,13.1378619 83.235731,13.1378619 C85.7805511,13.1378619 87.5367848,14.7207685 87.9209307,17.2401734 L78.4784481,17.2401734 Z M100.011255,13.3722797 L100.377533,13.3722797 L100.377533,13.0060019 L100.377533,11.2478684 L100.377533,10.8815906 L100.011255,10.8815906 L96.9491723,10.8815906 L96.9491723,6.99904576 L96.9491723,6.63276795 L96.5828945,6.63276795 L94.5024365,6.63276795 L94.1361587,6.63276795 L94.1361587,6.99904576 L94.1361587,10.8815906 L91.6601207,10.8815906 L91.2938429,10.8815906 L91.2938429,11.2478684 L91.2938429,13.0060019 L91.2938429,13.3722797 L91.6601207,13.3722797 L94.1361587,13.3722797 L94.1361587,22.1482961 C94.1361587,25.027237 95.6293931,26.5875832 98.3703302,26.5875832 C98.8487372,26.5875832 99.2611524,26.5589433 99.6074587,26.5108452 C99.8214441,26.481125 99.9692145,26.4503395 100.050682,26.4277095 L100.318928,26.3531968 L100.318928,26.0747943 L100.318928,24.1994519 L100.318928,23.7449934 L99.8748422,23.8415338 C99.857092,23.8453926 99.8211343,23.8527095 99.7697721,23.86234 C99.6827424,23.8786581 99.5858026,23.895033 99.4818024,23.9103271 C99.2154661,23.9494943 98.9513023,23.9745975 98.7080987,23.9790034 C98.6830823,23.9794566 98.6583941,23.9796852 98.6340503,23.9796852 C97.4333421,23.9796852 96.9491723,23.4157072 96.9491723,22.001785 L96.9491723,13.3722797 L100.011255,13.3722797 Z M108.757969,26.8806055 C112.65161,26.8806055 115.400789,24.4167185 116.0912,20.9301469 L116.177819,20.4927204 L115.731899,20.4927204 L113.622138,20.4927204 L113.340506,20.4927204 L113.268154,20.764901 C112.676704,22.9898799 111.071378,24.2727074 108.757969,24.2727074 C105.870907,24.2727074 103.879149,21.9952782 103.879149,18.7199358 C103.879149,15.419257 105.867448,13.1378619 108.757969,13.1378619 C111.071378,13.1378619 112.676704,14.4206895 113.268154,16.6456683 L113.340506,16.9178489 L113.622138,16.9178489 L115.731899,16.9178489 L116.177819,16.9178489 L116.0912,16.4804224 C115.400789,12.9938509 112.65161,10.5299639 108.757969,10.5299639 C104.234972,10.5299639 101.036833,14.1612808 101.036833,18.7199358 C101.036833,23.2535178 104.239376,26.8806055 108.757969,26.8806055 Z M121.357926,4.18603215 L121.357926,3.81975434 L120.991648,3.81975434 L118.91119,3.81975434 L118.544912,3.81975434 L118.544912,4.18603215 L118.544912,26.162701 L118.544912,26.5289788 L118.91119,26.5289788 L120.991648,26.5289788 L121.357926,26.5289788 L121.357926,26.162701 L121.357926,17.3427312 C121.357926,14.6554563 122.993604,13.0792575 125.474888,13.0792575 C127.844758,13.0792575 129.035109,14.4511874 129.035109,17.049709 L129.035109,26.162701 L129.035109,26.5289788 L129.401387,26.5289788 L131.481845,26.5289788 L131.848122,26.5289788 L131.848122,26.162701 L131.848122,16.6394778 C131.848122,12.9689003 129.575279,10.5299639 125.826515,10.5299639 C123.897899,10.5299639 122.347665,11.2365491 121.357926,12.2506784 L121.357926,4.18603215 Z"/>
    <polygon fill="#FDB300" points="7.292 .988 16.71 0 26.129 .988 33.421 10.698 16.71 30 0 10.698"/>
    <g transform="translate(0 10.698)">
      <polygon fill="#EA6C00" points="6.768 0 16.71 19.302 0 0"/>
      <polygon fill="#EA6C00" points="23.479 0 33.421 19.302 16.711 0" transform="matrix(-1 0 0 1 50.131 0)"/>
      <polygon fill="#FDAD00" points="6.768 0 26.652 0 16.71 19.302"/>
    </g>
    <polygon fill="#FDD231" points="16.71 0 7.292 .988 6.768 10.697"/>
    <polygon fill="#FDD231" points="26.652 0 17.234 .988 16.71 10.697" transform="matrix(-1 0 0 1 43.363 0)"/>
    <polygon fill="#FDAD00" points="26.129 10.697 33.421 .988 32.898 10.697" transform="matrix(-1 0 0 1 59.55 0)"/>
    <polygon fill="#FDAD00" points="0 10.697 7.292 .988 6.768 10.697"/>
    <polygon fill="#FEEEB7" points="16.71 0 6.768 10.697 26.652 10.697"/>
  </g>
</svg>
