<svg xmlns="http://www.w3.org/2000/svg" xmlns:xlink="http://www.w3.org/1999/xlink" width="180" height="36" viewBox="0 0 180 36">
  <defs>
    <path id="storybooklogo-a" d="M1.11650265,33.172808 L0.00129617078,3.45760643 C-0.0355347247,2.47622988 0.716949674,1.64452469 1.69710461,1.58326501 L26.9719651,0.00358622996 C27.9696458,-0.0587688154 28.8289746,0.699462462 28.8913297,1.69714319 C28.8936789,1.73473195 28.8948544,1.77238488 28.8948544,1.81004699 L28.8948544,34.1900144 C28.8948544,35.1896419 28.0844963,36 27.0848688,36 C27.0577885,36 27.0307116,35.9993922 27.0036585,35.9981772 L2.84400454,34.9130902 C1.90308155,34.8708303 1.15182607,34.114017 1.11650265,33.172808 Z"/>
    <path id="storybooklogo-c" d="M1.11650265,33.172808 L0.00129617078,3.45760643 C-0.0355347247,2.47622988 0.716949674,1.64452469 1.69710461,1.58326501 L26.9719651,0.00358622996 C27.9696458,-0.0587688154 28.8289746,0.699462462 28.8913297,1.69714319 C28.8936789,1.73473195 28.8948544,1.77238488 28.8948544,1.81004699 L28.8948544,34.1900144 C28.8948544,35.1896419 28.0844963,36 27.0848688,36 C27.0577885,36 27.0307116,35.9993922 27.0036585,35.9981772 L2.84400454,34.9130902 C1.90308155,34.8708303 1.15182607,34.114017 1.11650265,33.172808 Z"/>
  </defs>
  <g fill="none" fill-rule="evenodd">
    <path fill="#FFF" fill-rule="nonzero" d="M47.952,28.4967 C46.4159923,28.4967 44.9376071,28.2903021 43.5168,27.8775 C42.0959929,27.4646979 40.9152047,26.8935036 39.9744,26.1639 L41.4144,22.9671 C43.3728098,24.3303068 45.5711878,25.0119 48.0096,25.0119 C49.2768063,25.0119 50.2511966,24.8055021 50.9328,24.3927 C51.6144034,23.9798979 51.9552,23.4087036 51.9552,22.6791 C51.9552,22.0262967 51.6432031,21.5175019 51.0192,21.1527 C50.3951969,20.7878981 49.286408,20.4327017 47.6928,20.0871 C45.9071911,19.7222981 44.4816053,19.2807026 43.416,18.7623 C42.3503947,18.2438974 41.5728024,17.6055038 41.0832,16.8471 C40.5935976,16.0886962 40.3488,15.1527056 40.3488,14.0391 C40.3488,12.8102938 40.6895966,11.7159048 41.3712,10.7559 C42.0528034,9.7958952 43.0079938,9.0423027 44.2368,8.4951 C45.4656062,7.94789726 46.8863919,7.6743 48.4992,7.6743 C49.9392072,7.6743 51.3263933,7.88549789 52.6608,8.3079 C53.9952067,8.73030211 55.0559961,9.29669643 55.8432,10.0071 L54.4032,13.2039 C52.5407907,11.8406932 50.5824103,11.1591 48.528,11.1591 C47.3567942,11.1591 46.4352034,11.3846978 45.7632,11.8359 C45.0911966,12.2871022 44.7552,12.9062961 44.7552,13.6935 C44.7552,14.1543023 44.8847987,14.5334985 45.144,14.8311 C45.4032013,15.1287015 45.8351969,15.3926988 46.44,15.6231 C47.0448031,15.8535012 47.9039945,16.0934988 49.0176,16.3431 C51.628813,16.9191029 53.5055943,17.6582955 54.648,18.5607 C55.7904057,19.4631045 56.3616,20.7110921 56.3616,22.3047 C56.3616,24.2247096 55.6224074,25.7366945 54.144,26.8407 C52.6655926,27.9447055 50.6016132,28.4967 47.952,28.4967 Z M66.7872,25.2711 C67.2288022,25.2711 67.6895976,25.2423003 68.1696,25.1847 L67.9392,28.3527 C67.3823972,28.4295004 66.8256028,28.4679 66.2688,28.4679 C64.1183892,28.4679 62.548805,27.9975047 61.56,27.0567 C60.571195,26.1158953 60.0768,24.6855096 60.0768,22.7655 L60.0768,17.3511 L57.3984,17.3511 L57.3984,14.0967 L60.0768,14.0967 L60.0768,9.9495 L64.4256,9.9495 L64.4256,14.0967 L67.968,14.0967 L67.968,17.3511 L64.4256,17.3511 L64.4256,22.7367 C64.4256,24.4263084 65.2127921,25.2711 66.7872,25.2711 Z M76.896,28.4679 C75.3983925,28.4679 74.0832057,28.1655031 72.9504,27.5607 C71.8175943,26.9558969 70.9440031,26.1015055 70.3296,24.9975 C69.7151969,23.8934945 69.408,22.5927075 69.408,21.0951 C69.408,19.5974925 69.7151969,18.2967055 70.3296,17.1927 C70.9440031,16.0886945 71.8175943,15.2391029 72.9504,14.6439 C74.0832057,14.0486971 75.3983925,13.7511 76.896,13.7511 C78.3936075,13.7511 79.7087943,14.0486971 80.8416,14.6439 C81.9744057,15.2391029 82.8479969,16.0886945 83.4624,17.1927 C84.0768031,18.2967055 84.384,19.5974925 84.384,21.0951 C84.384,22.5927075 84.0768031,23.8934945 83.4624,24.9975 C82.8479969,26.1015055 81.9744057,26.9558969 80.8416,27.5607 C79.7087943,28.1655031 78.3936075,28.4679 76.896,28.4679 Z M76.896,25.1559 C79.0080106,25.1559 80.064,23.8023135 80.064,21.0951 C80.064,19.7318932 79.7904027,18.7143034 79.2432,18.0423 C78.6959973,17.3702966 77.9136051,17.0343 76.896,17.0343 C74.7839894,17.0343 73.728,18.3878865 73.728,21.0951 C73.728,23.8023135 74.7839894,25.1559 76.896,25.1559 Z M96.4224,17.3223 L93.9744,17.5815 C92.7647937,17.6967005 91.9104021,18.0374972 91.4112,18.6039 C90.9119979,19.1703029 90.6624,19.9238953 90.6624,20.8647 L90.6624,28.2375 L86.3136,28.2375 L86.3136,14.0967 L90.4896,14.0967 L90.4896,16.4871 C91.2000033,14.8550918 92.6687889,13.9623008 94.896,13.8087 L96.1632,13.7223 L96.4224,17.3223 Z M109.0584,14.1255 L113.3208,14.1255 L104.796,33.4215 L100.3896,33.4215 L103.0968,27.4599 L97.2792,14.1255 L101.8008,14.1255 L105.372,23.1111 L109.0584,14.1255 Z M123.4008,13.7511 C124.629606,13.7511 125.714395,14.0486971 126.6552,14.6439 C127.596005,15.2391029 128.330397,16.0886945 128.8584,17.1927 C129.386403,18.2967055 129.6504,19.5782927 129.6504,21.0375 C129.6504,22.4967073 129.386403,23.7878944 128.8584,24.9111 C128.330397,26.0343056 127.591205,26.9078969 126.6408,27.5319 C125.690396,28.1559031 124.610406,28.4679 123.4008,28.4679 C122.421596,28.4679 121.538404,28.2615021 120.7512,27.8487 C119.963996,27.4358979 119.359202,26.8647036 118.9368,26.1351 L118.9368,28.2375 L114.6456,28.2375 L114.6456,7.9335 L118.9944,7.9335 L118.9944,15.9975 C119.416802,15.2870964 120.016796,14.735102 120.7944,14.3415 C121.572004,13.9478981 122.440795,13.7511 123.4008,13.7511 Z M122.1336,25.1559 C123.151205,25.1559 123.938397,24.7959036 124.4952,24.0759 C125.052003,23.3558964 125.3304,22.3431065 125.3304,21.0375 C125.3304,19.7510936 125.052003,18.7671034 124.4952,18.0855 C123.938397,17.4038966 123.151205,17.0631 122.1336,17.0631 C121.115995,17.0631 120.328803,17.4134965 119.772,18.1143 C119.215197,18.8151035 118.9368,19.8086936 118.9368,21.0951 C118.9368,22.4007065 119.215197,23.4038965 119.772,24.1047 C120.328803,24.8055035 121.115995,25.1559 122.1336,25.1559 Z M139.0968,28.4679 C137.599193,28.4679 136.284006,28.1655031 135.1512,27.5607 C134.018394,26.9558969 133.144803,26.1015055 132.5304,24.9975 C131.915997,23.8934945 131.6088,22.5927075 131.6088,21.0951 C131.6088,19.5974925 131.915997,18.2967055 132.5304,17.1927 C133.144803,16.0886945 134.018394,15.2391029 135.1512,14.6439 C136.284006,14.0486971 137.599193,13.7511 139.0968,13.7511 C140.594407,13.7511 141.909594,14.0486971 143.0424,14.6439 C144.175206,15.2391029 145.048797,16.0886945 145.6632,17.1927 C146.277603,18.2967055 146.5848,19.5974925 146.5848,21.0951 C146.5848,22.5927075 146.277603,23.8934945 145.6632,24.9975 C145.048797,26.1015055 144.175206,26.9558969 143.0424,27.5607 C141.909594,28.1655031 140.594407,28.4679 139.0968,28.4679 Z M139.0968,25.1559 C141.20881,25.1559 142.2648,23.8023135 142.2648,21.0951 C142.2648,19.7318932 141.991203,18.7143034 141.444,18.0423 C140.896797,17.3702966 140.114405,17.0343 139.0968,17.0343 C136.98479,17.0343 135.9288,18.3878865 135.9288,21.0951 C135.9288,23.8023135 136.98479,25.1559 139.0968,25.1559 Z M155.3112,28.4679 C153.813593,28.4679 152.498406,28.1655031 151.3656,27.5607 C150.232794,26.9558969 149.359203,26.1015055 148.7448,24.9975 C148.130397,23.8934945 147.8232,22.5927075 147.8232,21.0951 C147.8232,19.5974925 148.130397,18.2967055 148.7448,17.1927 C149.359203,16.0886945 150.232794,15.2391029 151.3656,14.6439 C152.498406,14.0486971 153.813593,13.7511 155.3112,13.7511 C156.808807,13.7511 158.123994,14.0486971 159.2568,14.6439 C160.389606,15.2391029 161.263197,16.0886945 161.8776,17.1927 C162.492003,18.2967055 162.7992,19.5974925 162.7992,21.0951 C162.7992,22.5927075 162.492003,23.8934945 161.8776,24.9975 C161.263197,26.1015055 160.389606,26.9558969 159.2568,27.5607 C158.123994,28.1655031 156.808807,28.4679 155.3112,28.4679 Z M155.3112,25.1559 C157.42321,25.1559 158.4792,23.8023135 158.4792,21.0951 C158.4792,19.7318932 158.205603,18.7143034 157.6584,18.0423 C157.111197,17.3702966 156.328805,17.0343 155.3112,17.0343 C153.19919,17.0343 152.1432,18.3878865 152.1432,21.0951 C152.1432,23.8023135 153.19919,25.1559 155.3112,25.1559 Z M180,28.2375 L174.672,28.2375 L169.2576,21.9303 L169.2576,28.2375 L164.9088,28.2375 L164.9088,7.9335 L169.2576,7.9335 L169.2576,20.1447 L174.4704,14.1255 L179.6544,14.1255 L173.7216,20.8647 L180,28.2375 Z"/>
    <path fill="#FF4785" fill-rule="nonzero" d="M1.11650265,33.172808 L0.00129617078,3.45760643 C-0.0355347247,2.47622988 0.716949674,1.64452469 1.69710461,1.58326501 L26.9719651,0.00358622996 C27.9696458,-0.0587688154 28.8289746,0.699462462 28.8913297,1.69714319 C28.8936789,1.73473195 28.8948544,1.77238488 28.8948544,1.81004699 L28.8948544,34.1900144 C28.8948544,35.1896419 28.0844963,36 27.0848688,36 C27.0577885,36 27.0307116,35.9993922 27.0036585,35.9981772 L2.84400454,34.9130902 C1.90308155,34.8708303 1.15182607,34.114017 1.11650265,33.172808 Z"/>
    <mask id="storybooklogo-b" fill="#fff">
      <use xlink:href="#storybooklogo-a"/>
    </mask>
    <path fill="#FFF" fill-rule="nonzero" d="M21.3366674,4.42497349 L21.5093083,0.272721295 L24.9803067,0 L25.12984,4.28207408 C25.1350441,4.43110013 25.0184534,4.55612837 24.8694274,4.56133247 C24.8056163,4.5635608 24.7430803,4.54310291 24.692924,4.5035915 L23.3543955,3.44914652 L21.7696105,4.6513026 C21.650807,4.74142232 21.4814412,4.7181695 21.3913215,4.59936597 C21.3533855,4.54935558 21.3340597,4.48769011 21.3366674,4.42497349 Z" mask="url(#storybooklogo-b)"/>
    <mask id="storybooklogo-d" fill="#fff">
      <use xlink:href="#storybooklogo-c"/>
    </mask>
    <path fill="#FFF" fill-rule="nonzero" d="M16.8975932,13.5688924 C16.8975932,14.2730826 21.6409228,13.9355826 22.2776731,13.4409375 C22.2776731,8.64557006 19.7045914,6.12567994 14.9928445,6.12567994 C10.2810975,6.12567994 7.64118259,8.68477607 7.64118259,12.5234222 C7.64118259,19.2090644 16.6636767,19.3370193 16.6636767,22.9837332 C16.6636767,24.0073722 16.1624271,24.6151579 15.0596778,24.6151579 C13.6227621,24.6151579 13.0546791,23.8813151 13.1215124,21.3861951 C13.1215124,20.8449114 7.64118259,20.6761614 7.47409936,21.3861951 C7.04863745,27.432759 10.8157639,29.1768201 15.126511,29.1768201 C19.3035917,29.1768201 22.5784228,26.9503343 22.5784228,22.9197558 C22.5784228,15.7542828 13.4222621,15.9462151 13.4222621,12.3954674 C13.4222621,10.955975 14.4915948,10.7640428 15.126511,10.7640428 C15.7948439,10.7640428 16.9978432,10.8818401 16.8975932,13.5688924 Z" mask="url(#storybooklogo-d)"/>
  </g>
</svg>
