<svg xmlns="http://www.w3.org/2000/svg" xmlns:xlink="http://www.w3.org/1999/xlink" width="16" height="16" viewBox="0 0 16 16">
  <defs>
    <path id="directions-railway-a" d="M2.66666663,10.3333333 C2.66666663,11.62 3.71333331,12.6666666 4.99999998,12.6666666 L3.99999997,13.6666666 L3.99999997,14 L12,14 L12,13.6666666 L11,12.6666666 C12.2866667,12.6666666 13.3333334,11.62 13.3333334,10.3333333 L13.3333334,3.3333333 C13.3333334,0.999999956 10.9466667,0.666666621 8,0.666666621 C5.05333331,0.666666621 2.66666663,0.999999956 2.66666663,3.3333333 L2.66666663,10.3333333 Z M8,11.3333334 C7.26666666,11.3333334 6.66666666,10.7333334 6.66666666,10 C6.66666666,9.26666667 7.26666666,8.66666667 8,8.66666667 C8.73333334,8.66666667 9.33333334,9.26666667 9.33333334,10 C9.33333334,10.7333334 8.73333334,11.3333334 8,11.3333334 Z M12,6.66666666 L3.99999997,6.66666666 L3.99999997,3.3333333 L12,3.3333333 L12,6.66666666 Z"/>
  </defs>
  <g fill="none" fill-rule="evenodd">
    <mask id="directions-railway-b" fill="#fff">
      <use xlink:href="#directions-railway-a"/>
    </mask>
    <g fill="CurrentColor" mask="url(#directions-railway-b)">
      <rect width="16" height="16"/>
    </g>
  </g>
</svg>
