<svg xmlns="http://www.w3.org/2000/svg" xmlns:xlink="http://www.w3.org/1999/xlink" width="16" height="16" viewBox="0 0 16 16">
  <defs>
    <path id="directions-bus-a" d="M2.66666663,10.6666667 C2.66666663,11.2533334 2.92666663,11.78 3.3333333,12.1466667 L3.3333333,13.3333333 C3.3333333,13.7 3.63333331,14 3.99999997,14 L4.66666663,14 C5.03333331,14 5.33333332,13.7 5.33333332,13.3333333 L5.33333332,12.6666667 L10.6666666,12.6666667 L10.6666666,13.3333333 C10.6666666,13.7 10.9666667,14 11.3333334,14 L12,14 C12.3666667,14 12.6666666,13.7 12.6666666,13.3333333 L12.6666666,12.1466667 C13.0733334,11.78 13.3333334,11.2533334 13.3333334,10.6666667 L13.3333334,3.99999998 C13.3333334,1.66666663 10.9466667,1.33333329 8,1.33333329 C5.05333331,1.33333329 2.66666663,1.66666663 2.66666663,3.99999998 L2.66666663,10.6666667 Z M4.99999997,11.3333333 C4.44666664,11.3333333 3.99999997,10.8866667 3.99999997,10.3333333 C3.99999997,9.78000001 4.44666664,9.33333334 4.99999997,9.33333334 C5.55333332,9.33333334 5.99999997,9.78000001 5.99999997,10.3333333 C5.99999997,10.8866667 5.55333332,11.3333333 4.99999997,11.3333333 Z M11,11.3333333 C10.4466667,11.3333333 10,10.8866667 10,10.3333333 C10,9.78000001 10.4466667,9.33333334 11,9.33333334 C11.5533334,9.33333334 12,9.78000001 12,10.3333333 C12,10.8866667 11.5533334,11.3333333 11,11.3333333 Z M12,7.33333333 L3.99999997,7.33333333 L3.99999997,3.99999997 L12,3.99999997 L12,7.33333333 Z"/>
  </defs>
  <g fill="none" fill-rule="evenodd">
    <mask id="directions-bus-b" fill="#fff">
      <use xlink:href="#directions-bus-a"/>
    </mask>
    <g fill="CurrentColor" mask="url(#directions-bus-b)">
      <rect width="16" height="16"/>
    </g>
  </g>
</svg>
