<svg xmlns="http://www.w3.org/2000/svg" xmlns:xlink="http://www.w3.org/1999/xlink" width="16" height="16" viewBox="0 0 16 16">
  <defs>
    <path id="directions-bike-a" d="M10.3333333,3.66666664 C11.0666667,3.66666664 11.6666667,3.06666664 11.6666667,2.3333333 C11.6666667,1.59999996 11.0666667,0.999999956 10.3333333,0.999999956 C9.60000001,0.999999956 9.00000001,1.59999996 9.00000001,2.3333333 C9.00000001,3.06666664 9.60000001,3.66666664 10.3333333,3.66666664 Z M3.3333333,8 C1.46666663,8 -5.00000006e-08,9.46666668 -5.00000006e-08,11.3333334 C-5.00000006e-08,13.2 1.46666663,14.6666667 3.3333333,14.6666667 C5.19999998,14.6666667 6.66666666,13.2 6.66666666,11.3333334 C6.66666666,9.46666668 5.19999998,8 3.3333333,8 Z M3.3333333,13.6666667 C2.06666663,13.6666667 0.999999956,12.6 0.999999956,11.3333334 C0.999999956,10.0666667 2.06666663,9.00000001 3.3333333,9.00000001 C4.59999998,9.00000001 5.66666665,10.0666667 5.66666665,11.3333334 C5.66666665,12.6 4.59999998,13.6666667 3.3333333,13.6666667 Z M7.2,6.99999999 L8.79999998,5.39999998 L9.33333334,5.93333332 C10.2,6.79999999 11.3333334,7.3333333 12.7333334,7.3333333 L12.7333334,5.99999999 C11.7333334,5.99999999 10.9333334,5.59999999 10.3333333,4.99999998 L9.06666667,3.73333331 C8.73333334,3.46666664 8.4,3.3333333 8,3.3333333 C7.6,3.3333333 7.26666666,3.46666664 7.06666666,3.73333331 L5.19999998,5.59999999 C4.93333331,5.86666665 4.79999998,6.19999999 4.79999998,6.53333332 C4.79999998,6.93333333 4.93333331,7.26666666 5.19999998,7.46666666 L7.33333333,9.3333333 L7.33333333,12.6666667 L8.66666667,12.6666667 L8.66666667,8.53333334 L7.2,6.99999999 Z M12.6666667,8 C10.8,8 9.33333334,9.46666668 9.33333334,11.3333334 C9.33333334,13.2 10.8,14.6666667 12.6666667,14.6666667 C14.5333334,14.6666667 16.0000001,13.2 16.0000001,11.3333334 C16.0000001,9.46666668 14.5333334,8 12.6666667,8 Z M12.6666667,13.6666667 C11.4,13.6666667 10.3333333,12.6 10.3333333,11.3333334 C10.3333333,10.0666667 11.4,9.00000001 12.6666667,9.00000001 C13.9333334,9.00000001 15,10.0666667 15,11.3333334 C15,12.6 13.9333334,13.6666667 12.6666667,13.6666667 Z"/>
  </defs>
  <g fill="none" fill-rule="evenodd">
    <mask id="directions-bike-b" fill="#fff">
      <use xlink:href="#directions-bike-a"/>
    </mask>
    <g fill="CurrentColor" mask="url(#directions-bike-b)">
      <rect width="16" height="16"/>
    </g>
  </g>
</svg>
