<svg xmlns="http://www.w3.org/2000/svg" xmlns:xlink="http://www.w3.org/1999/xlink" width="16" height="16" viewBox="0 0 16 16">
  <defs>
    <path id="directions-boat-a" d="M13.3333333,14 C12.4066667,14 11.48,13.6866667 10.6666667,13.12 C9.04000001,14.26 6.95999999,14.26 5.33333329,13.12 C4.51999998,13.6866667 3.59333331,14 2.66666663,14 L1.33333329,14 L1.33333329,15.3333334 L2.66666663,15.3333334 C3.58666664,15.3333334 4.49333331,15.1 5.33333329,14.6733334 C7.01333333,15.5333334 8.98666667,15.5333334 10.6666667,14.6733334 C11.5066667,15.1066667 12.4133334,15.3333334 13.3333333,15.3333334 L14.6666667,15.3333334 L14.6666667,14 L13.3333333,14 Z M2.6333333,12.6666666 L2.66666663,12.6666666 C3.73333331,12.6666666 4.67999998,12.08 5.33333332,11.3333334 C5.98666665,12.08 6.93333333,12.6666666 8,12.6666666 C9.06666667,12.6666666 10.0133333,12.08 10.6666667,11.3333334 C11.32,12.08 12.2666667,12.6666666 13.3333334,12.6666666 L13.3666667,12.6666666 L14.6266667,8.21333333 C14.68,8.04 14.6666667,7.85333333 14.5866667,7.69333333 C14.5066667,7.53333333 14.36,7.41333333 14.1866667,7.36 L13.3333334,7.07999999 L13.3333334,3.99999997 C13.3333334,3.26666664 12.7333334,2.66666662 12,2.66666662 L10,2.66666662 L10,0.666666621 L5.99999999,0.666666621 L5.99999999,2.66666662 L3.99999997,2.66666662 C3.26666664,2.66666662 2.66666663,3.26666664 2.66666663,3.99999997 L2.66666663,7.07999999 L1.80666663,7.36 C1.63333329,7.41333333 1.48666663,7.53333333 1.40666663,7.69333333 C1.32666662,7.85333333 1.30666662,8.04 1.36666663,8.21333333 L2.6333333,12.6666666 Z M3.99999997,3.99999997 L12,3.99999997 L12,6.64666666 L7.99999997,5.33333332 L3.99999997,6.64666666 L3.99999997,3.99999997 Z"/>
  </defs>
  <g fill="none" fill-rule="evenodd">
    <mask id="directions-boat-b" fill="#fff">
      <use xlink:href="#directions-boat-a"/>
    </mask>
    <g fill="CurrentColor" mask="url(#directions-boat-b)">
      <rect width="16" height="16"/>
    </g>
  </g>
</svg>
