<svg xmlns="http://www.w3.org/2000/svg" xmlns:xlink="http://www.w3.org/1999/xlink" width="16" height="16" viewBox="0 0 16 16">
  <defs>
    <path id="local-shipping-a" d="M13.3333334,5.33333332 L11.3333334,5.33333332 L11.3333334,2.66666663 L1.99999996,2.66666663 C1.26666662,2.66666663 0.666666621,3.26666664 0.666666621,3.99999997 L0.666666621,11.3333334 L1.99999996,11.3333334 C1.99999996,12.44 2.8933333,13.3333334 3.99999997,13.3333334 C5.10666665,13.3333334 5.99999999,12.44 5.99999999,11.3333334 L10,11.3333334 C10,12.44 10.8933334,13.3333334 12,13.3333334 C13.1066667,13.3333334 14,12.44 14,11.3333334 L15.3333334,11.3333334 L15.3333334,8 L13.3333334,5.33333332 Z M3.99999997,12.3333333 C3.44666664,12.3333333 2.99999997,11.8866667 2.99999997,11.3333333 C2.99999997,10.78 3.44666664,10.3333333 3.99999997,10.3333333 C4.55333331,10.3333333 4.99999997,10.78 4.99999997,11.3333333 C4.99999997,11.8866667 4.55333331,12.3333333 3.99999997,12.3333333 Z M13,6.33333332 L14.3066667,8 L11.3333334,8 L11.3333334,6.33333332 L13,6.33333332 Z M12,12.3333333 C11.4466667,12.3333333 11,11.8866667 11,11.3333333 C11,10.78 11.4466667,10.3333333 12,10.3333333 C12.5533334,10.3333333 13,10.78 13,11.3333333 C13,11.8866667 12.5533334,12.3333333 12,12.3333333 Z"/>
  </defs>
  <g fill="none" fill-rule="evenodd">
    <mask id="local-shipping-b" fill="#fff">
      <use xlink:href="#local-shipping-a"/>
    </mask>
    <g fill="CurrentColor" mask="url(#local-shipping-b)">
      <rect width="16" height="16"/>
    </g>
  </g>
</svg>
