<svg xmlns="http://www.w3.org/2000/svg" xmlns:xlink="http://www.w3.org/1999/xlink" width="16" height="16" viewBox="0 0 16 16">
  <defs>
    <path id="local-atm-a" d="M7.33333333,11.3333334 L8.66666667,11.3333334 L8.66666667,10.6666666 L9.33333334,10.6666666 C9.70000001,10.6666666 9.99999999,10.3666667 9.99999999,10 L9.99999999,8 C9.99999999,7.63333333 9.70000001,7.33333333 9.33333334,7.33333333 L7.33333333,7.33333333 L7.33333333,6.66666665 L9.99999999,6.66666665 L9.99999999,5.33333332 L8.66666667,5.33333332 L8.66666667,4.66666665 L7.33333333,4.66666665 L7.33333333,5.33333332 L6.66666666,5.33333332 C6.29999999,5.33333332 5.99999999,5.63333332 5.99999999,5.99999999 L5.99999999,8 C5.99999999,8.36666667 6.29999999,8.66666665 6.66666666,8.66666665 L8.66666667,8.66666665 L8.66666667,9.33333334 L5.99999999,9.33333334 L5.99999999,10.6666666 L7.33333333,10.6666666 L7.33333333,11.3333334 Z M13.3333333,2.66666663 L2.66666663,2.66666663 C1.92666663,2.66666663 1.33999996,3.25999997 1.33999996,3.99999997 L1.33333329,12 C1.33333329,12.74 1.92666663,13.3333334 2.66666663,13.3333334 L13.3333333,13.3333334 C14.0733334,13.3333334 14.6666667,12.74 14.6666667,12 L14.6666667,3.99999997 C14.6666667,3.25999997 14.0733334,2.66666663 13.3333333,2.66666663 Z M13.3333334,12 L2.66666663,12 L2.66666663,3.99999997 L13.3333334,3.99999997 L13.3333334,12 Z"/>
  </defs>
  <g fill="none" fill-rule="evenodd">
    <mask id="local-atm-b" fill="#fff">
      <use xlink:href="#local-atm-a"/>
    </mask>
    <g fill="CurrentColor" mask="url(#local-atm-b)">
      <rect width="16" height="16"/>
    </g>
  </g>
</svg>
