<svg xmlns="http://www.w3.org/2000/svg" xmlns:xlink="http://www.w3.org/1999/xlink" width="16" height="16" viewBox="0 0 16 16">
  <defs>
    <path id="local-cafe-a" d="M13.3333334,1.99999996 L2.66666663,1.99999996 L2.66666663,8.66666667 C2.66666663,10.14 3.85999997,11.3333334 5.33333332,11.3333334 L9.33333334,11.3333334 C10.8066667,11.3333334 12,10.14 12,8.66666667 L12,6.66666666 L13.3333334,6.66666666 C14.0733334,6.66666666 14.6666666,6.07333332 14.6666666,5.33333332 L14.6666666,3.3333333 C14.6666666,2.5933333 14.0733334,1.99999996 13.3333334,1.99999996 Z M13.3333334,5.3333333 L12,5.3333333 L12,3.3333333 L13.3333334,3.3333333 L13.3333334,5.3333333 Z M1.33333329,14 L13.3333333,14 L13.3333333,12.6666667 L1.33333329,12.6666667 L1.33333329,14 Z"/>
  </defs>
  <g fill="none" fill-rule="evenodd">
    <mask id="local-cafe-b" fill="#fff">
      <use xlink:href="#local-cafe-a"/>
    </mask>
    <g fill="CurrentColor" mask="url(#local-cafe-b)">
      <rect width="16" height="16"/>
    </g>
  </g>
</svg>
