<svg xmlns="http://www.w3.org/2000/svg" xmlns:xlink="http://www.w3.org/1999/xlink" width="16" height="16" viewBox="0 0 16 16">
  <defs>
    <path id="local-laundry-service-a" d="M6.11333332,11.22 C7.15333333,12.26 8.84666667,12.26 9.88666668,11.22 C10.9266667,10.18 10.9266667,8.48666667 9.88666668,7.44666666 L6.11333332,11.22 Z M12,1.33999996 L3.99999997,1.33333329 C3.25999997,1.33333329 2.66666663,1.92666663 2.66666663,2.66666663 L2.66666663,13.3333333 C2.66666663,14.0733334 3.25999997,14.6666667 3.99999997,14.6666667 L12,14.6666667 C12.74,14.6666667 13.3333334,14.0733334 13.3333334,13.3333333 L13.3333334,2.66666663 C13.3333334,1.92666663 12.74,1.33999996 12,1.33999996 Z M6.66666666,2.66666663 C7.03333333,2.66666663 7.33333333,2.96666664 7.33333333,3.3333333 C7.33333333,3.69999997 7.03333333,3.99999997 6.66666666,3.99999997 C6.29999999,3.99999997 5.99999999,3.69999997 5.99999999,3.3333333 C5.99999999,2.96666664 6.29999999,2.66666663 6.66666666,2.66666663 Z M4.66666665,2.66666663 C5.03333331,2.66666663 5.33333332,2.96666664 5.33333332,3.3333333 C5.33333332,3.69999997 5.03333331,3.99999997 4.66666665,3.99999997 C4.29999998,3.99999997 3.99999997,3.69999997 3.99999997,3.3333333 C3.99999997,2.96666664 4.29999998,2.66666663 4.66666665,2.66666663 Z M7.99999997,13.3333333 C5.79333332,13.3333333 3.99999997,11.54 3.99999997,9.33333332 C3.99999997,7.12666666 5.79333332,5.33333332 7.99999997,5.33333332 C10.2066667,5.33333332 12,7.12666666 12,9.33333332 C12,11.54 10.2066667,13.3333333 7.99999997,13.3333333 Z"/>
  </defs>
  <g fill="none" fill-rule="evenodd">
    <mask id="local-laundry-service-b" fill="#fff">
      <use xlink:href="#local-laundry-service-a"/>
    </mask>
    <g fill="CurrentColor" mask="url(#local-laundry-service-b)">
      <rect width="16" height="16"/>
    </g>
  </g>
</svg>
