<svg xmlns="http://www.w3.org/2000/svg" xmlns:xlink="http://www.w3.org/1999/xlink" width="16" height="16" viewBox="0 0 16 16">
  <defs>
    <path id="local-offer-a" d="M14.2733334,7.72 L8.27333334,1.71999996 C8.03333333,1.47999996 7.7,1.33333329 7.33333329,1.33333329 L2.66666663,1.33333329 C1.9333333,1.33333329 1.33333329,1.9333333 1.33333329,2.66666663 L1.33333329,7.33333329 C1.33333329,7.7 1.47999996,8.03333333 1.72666663,8.28 L7.72666666,14.28 C7.96666667,14.52 8.3,14.6666667 8.66666667,14.6666667 C9.03333334,14.6666667 9.36666668,14.52 9.60666668,14.2733334 L14.2733334,9.60666668 C14.52,9.36666668 14.6666667,9.03333334 14.6666667,8.66666667 C14.6666667,8.3 14.5133334,7.96 14.2733334,7.72 Z M3.66666663,4.66666663 C3.1133333,4.66666663 2.66666663,4.21999998 2.66666663,3.66666663 C2.66666663,3.1133333 3.1133333,2.66666663 3.66666663,2.66666663 C4.21999998,2.66666663 4.66666663,3.1133333 4.66666663,3.66666663 C4.66666663,4.21999998 4.21999998,4.66666663 3.66666663,4.66666663 Z"/>
  </defs>
  <g fill="none" fill-rule="evenodd">
    <mask id="local-offer-b" fill="#fff">
      <use xlink:href="#local-offer-a"/>
    </mask>
    <g fill="CurrentColor" mask="url(#local-offer-b)">
      <rect width="16" height="16"/>
    </g>
  </g>
</svg>
