<svg xmlns="http://www.w3.org/2000/svg" xmlns:xlink="http://www.w3.org/1999/xlink" width="16" height="16" viewBox="0 0 16 16">
  <defs>
    <path id="local-phone-a" d="M4.41333331,7.19333333 C5.37333332,9.08000001 6.91999999,10.62 8.80666667,11.5866667 L10.2733333,10.12 C10.4533333,9.94000001 10.72,9.88000001 10.9533334,9.96000001 C11.7,10.2066667 12.5066667,10.34 13.3333334,10.34 C13.7,10.34 14,10.64 14,11.0066667 L14,13.3333334 C14,13.7 13.7,14 13.3333334,14 C7.07333333,14 1.99999996,8.92666667 1.99999996,2.66666663 C1.99999996,2.29999996 2.29999996,1.99999996 2.66666663,1.99999996 L4.99999996,1.99999996 C5.36666665,1.99999996 5.66666665,2.29999996 5.66666665,2.66666663 C5.66666665,3.49999996 5.79999999,4.29999998 6.04666665,5.04666665 C6.11999999,5.27999998 6.06666665,5.53999998 5.87999999,5.72666665 L4.41333331,7.19333333 Z"/>
  </defs>
  <g fill="none" fill-rule="evenodd">
    <mask id="local-phone-b" fill="#fff">
      <use xlink:href="#local-phone-a"/>
    </mask>
    <g fill="CurrentColor" mask="url(#local-phone-b)">
      <rect width="16" height="16"/>
    </g>
  </g>
</svg>
