<svg xmlns="http://www.w3.org/2000/svg" xmlns:xlink="http://www.w3.org/1999/xlink" width="16" height="16" viewBox="0 0 16 16">
  <defs>
    <path id="local-convenience-store-a" d="M12.6666667,4.66666663 L12.6666667,2.66666663 L3.33333329,2.66666663 L3.33333329,4.66666663 L1.33333329,4.66666663 L1.33333329,13.3333334 L6.66666666,13.3333334 L6.66666666,10.6666666 L9.33333329,10.6666666 L9.33333329,13.3333334 L14.6666667,13.3333334 L14.6666667,4.66666663 L12.6666667,4.66666663 Z M7.33333332,6.66666665 L5.99999999,6.66666665 L5.99999999,7.33333333 L7.33333332,7.33333333 L7.33333332,8 L5.33333332,8 L5.33333332,5.99999999 L6.66666666,5.99999999 L6.66666666,5.33333332 L5.33333332,5.33333332 L5.33333332,4.66666665 L7.33333332,4.66666665 L7.33333332,6.66666665 Z M10.6666667,8 L10,8 L10,6.66666665 L8.66666667,6.66666665 L8.66666667,4.66666665 L9.33333334,4.66666665 L9.33333334,5.99999999 L10,5.99999999 L10,4.66666665 L10.6666667,4.66666665 L10.6666667,8 Z"/>
  </defs>
  <g fill="none" fill-rule="evenodd">
    <mask id="local-convenience-store-b" fill="#fff">
      <use xlink:href="#local-convenience-store-a"/>
    </mask>
    <g fill="CurrentColor" mask="url(#local-convenience-store-b)">
      <rect width="16" height="16"/>
    </g>
  </g>
</svg>
