<svg xmlns="http://www.w3.org/2000/svg" xmlns:xlink="http://www.w3.org/1999/xlink" width="16" height="16" viewBox="0 0 16 16">
  <defs>
    <path id="map-a" d="M13.6666667,1.99999996 L13.56,2.01999996 L9.99999996,3.39999997 L5.99999996,1.99999996 L2.23999996,3.26666664 C2.09999996,3.3133333 1.99999996,3.4333333 1.99999996,3.58666664 L1.99999996,13.6666667 C1.99999996,13.8533334 2.14666663,14 2.3333333,14 L2.43999997,13.98 L5.99999996,12.6 L9.99999996,14 L13.76,12.7333334 C13.9,12.6866667 14,12.5666667 14,12.4133334 L14,2.3333333 C14,2.14666663 13.8533334,1.99999996 13.6666667,1.99999996 Z M9.99999999,12.6666667 L5.99999999,11.26 L5.99999999,3.3333333 L9.99999999,4.73999998 L9.99999999,12.6666667 Z"/>
  </defs>
  <g fill="none" fill-rule="evenodd">
    <mask id="map-b" fill="#fff">
      <use xlink:href="#map-a"/>
    </mask>
    <g fill="CurrentColor" mask="url(#map-b)">
      <rect width="16" height="16"/>
    </g>
  </g>
</svg>
