<svg xmlns="http://www.w3.org/2000/svg" xmlns:xlink="http://www.w3.org/1999/xlink" width="16" height="16" viewBox="0 0 16 16">
  <defs>
    <path id="person-pin-circle-a" d="M8,1.33333329 C5.42666665,1.33333329 3.3333333,3.42666664 3.3333333,5.99999999 C3.3333333,9.50000001 8,14.6666667 8,14.6666667 C8,14.6666667 12.6666667,9.50000001 12.6666667,5.99999999 C12.6666667,3.42666664 10.5733333,1.33333329 8,1.33333329 Z M8,2.66666663 C8.73333334,2.66666663 9.33333334,3.26666664 9.33333334,3.99999997 C9.33333334,4.73999998 8.73333334,5.33333332 8,5.33333332 C7.26666666,5.33333332 6.66666666,4.73999998 6.66666666,3.99999997 C6.66666666,3.26666664 7.26666666,2.66666663 8,2.66666663 Z M8,9.33333334 C6.88666666,9.33333334 5.90666665,8.76666667 5.33333332,7.9 C5.34666665,7.01999999 7.11333333,6.53333332 8,6.53333332 C8.88666667,6.53333332 10.6533333,7.01999999 10.6666667,7.9 C10.0933333,8.76666667 9.11333334,9.33333334 8,9.33333334 L8,9.33333334 Z"/>
  </defs>
  <g fill="none" fill-rule="evenodd">
    <mask id="person-pin-circle-b" fill="#fff">
      <use xlink:href="#person-pin-circle-a"/>
    </mask>
    <g fill="CurrentColor" mask="url(#person-pin-circle-b)">
      <rect width="16" height="16"/>
    </g>
  </g>
</svg>
