<svg xmlns="http://www.w3.org/2000/svg" xmlns:xlink="http://www.w3.org/1999/xlink" width="16" height="16" viewBox="0 0 16 16">
  <defs>
    <path id="transfer-within-a-station-a" d="M10.9933334,10.3333333 L10.9933334,9.16666667 L9.33333334,10.8333334 L10.9933334,12.5 L10.9933334,11.3333334 L14.6666667,11.3333334 L14.6666667,10.3333333 L10.9933334,10.3333333 Z M13.0066667,13.1666667 L9.33333334,13.1666667 L9.33333334,14.1666667 L13.0066667,14.1666667 L13.0066667,15.3333334 L14.6666667,13.6666667 L13.0066667,12 L13.0066667,13.1666667 Z M6.33333332,3.66666664 C7.06666666,3.66666664 7.66666666,3.06666664 7.66666666,2.3333333 C7.66666666,1.59999996 7.06666666,0.999999956 6.33333332,0.999999956 C5.59999999,0.999999956 4.99999998,1.59999996 4.99999998,2.3333333 C4.99999998,3.06666664 5.59999999,3.66666664 6.33333332,3.66666664 Z M3.83333329,5.93333332 L1.99999996,15.3333334 L3.39999997,15.3333334 L4.56666665,9.99999998 L5.99999999,11.3333334 L5.99999999,15.3333334 L7.33333329,15.3333334 L7.33333329,10.3 L5.96666665,8.93333334 L6.36666666,6.93333333 C7.23333333,7.99999997 8.53333334,8.66666667 10,8.66666667 L10,7.33333333 C8.76666667,7.33333333 7.7,6.66666666 7.09999999,5.69999999 L6.46666666,4.63333331 C6.23333332,4.23333331 5.79999999,3.99999997 5.33333329,3.99999997 C5.16666665,3.99999997 4.99999998,4.03333331 4.83333329,4.09999998 L1.33333329,5.53333332 L1.33333329,8.66666667 L2.66666663,8.66666667 L2.66666663,6.43333332 L3.83333329,5.93333332 L3.83333329,5.93333332 Z"/>
  </defs>
  <g fill="none" fill-rule="evenodd">
    <mask id="transfer-within-a-station-b" fill="#fff">
      <use xlink:href="#transfer-within-a-station-a"/>
    </mask>
    <g fill="CurrentColor" mask="url(#transfer-within-a-station-b)">
      <rect width="16" height="16"/>
    </g>
  </g>
</svg>
