<svg xmlns="http://www.w3.org/2000/svg" xmlns:xlink="http://www.w3.org/1999/xlink" width="16" height="16" viewBox="0 0 16 16">
  <defs>
    <path id="zoom-out-map-a" d="M10,1.99999996 L11.5333334,3.53333331 L9.60666668,5.44666665 L10.5533333,6.39333332 L12.4666667,4.46666664 L14,5.99999996 L14,1.99999996 L10,1.99999996 Z M1.99999996,5.99999996 L3.53333331,4.46666664 L5.44666665,6.39333332 L6.39333332,5.44666665 L4.46666664,3.53333331 L5.99999996,1.99999996 L1.99999996,1.99999996 L1.99999996,5.99999996 Z M5.99999996,14 L4.46666664,12.4666667 L6.39333332,10.5533333 L5.44666665,9.60666668 L3.53333331,11.5333334 L1.99999996,10 L1.99999996,14 L5.99999996,14 Z M14,10 L12.4666667,11.5333334 L10.5533333,9.60666668 L9.60666668,10.5533333 L11.5333334,12.4666667 L10,14 L14,14 L14,10 Z"/>
  </defs>
  <g fill="none" fill-rule="evenodd">
    <mask id="zoom-out-map-b" fill="#fff">
      <use xlink:href="#zoom-out-map-a"/>
    </mask>
    <g fill="CurrentColor" mask="url(#zoom-out-map-b)">
      <rect width="16" height="16"/>
    </g>
  </g>
</svg>
