<?xml version="1.0" encoding="UTF-8"?>
<svg width="16px" height="16px" viewBox="0 0 16 16" version="1.1" xmlns="http://www.w3.org/2000/svg" xmlns:xlink="http://www.w3.org/1999/xlink">
    <title>Icons/Editor/attach-file</title>
    <g id="Icons/Editor/attach-file" stroke="none" stroke-width="1" fill="none" fill-rule="evenodd">
        <rect id="Spacer" fill-opacity="0" fill="#D8D8D8" x="0" y="0" width="16" height="16"></rect>
        <path d="M11.5555556,12.4444445 C11.5555556,14.4088889 9.96444446,15.9999999 8,15.9999999 C6.03555554,15.9999999 4.44444442,14.4088889 4.44444442,12.4444445 L4.44444442,2.66666663 C4.44444442,1.19111107 5.63555554,-5.00000006e-08 7.11111111,-5.00000006e-08 C8.58666667,-5.00000006e-08 9.77777779,1.19111107 9.77777779,2.66666663 L9.77777779,10.6666667 C9.77777779,11.6444445 8.97777778,12.4444445 8,12.4444445 C7.02222222,12.4444445 6.22222221,11.6444445 6.22222221,10.6666667 L6.22222221,3.55555553 L7.11111111,3.55555553 L7.11111111,10.6666667 C7.11111111,11.1555556 7.51111111,11.5555556 8,11.5555556 C8.48888889,11.5555556 8.88888889,11.1555556 8.88888889,10.6666667 L8.88888889,2.66666663 C8.88888889,1.68888885 8.08888889,0.888888844 7.11111111,0.888888844 C6.13333332,0.888888844 5.33333332,1.68888885 5.33333332,2.66666663 L5.33333332,12.4444445 C5.33333332,13.92 6.52444444,15.1111112 8,15.1111112 C9.47555556,15.1111112 10.6666667,13.92 10.6666667,12.4444445 L10.6666667,3.55555553 L11.5555556,3.55555553 L11.5555556,12.4444445 Z" id="Icons/Editor/ic_attach_file_18px" fill="#233745" fill-rule="nonzero"></path>
    </g>
</svg>