<?xml version="1.0" encoding="UTF-8"?>
<svg width="16px" height="16px" viewBox="0 0 16 16" version="1.1" xmlns="http://www.w3.org/2000/svg" xmlns:xlink="http://www.w3.org/1999/xlink">
    <title>Icons/Editor/border-horizontal</title>
    <defs>
        <path d="M7.11111111,14.2222223 L8.88888889,14.2222223 L8.88888889,12.4444445 L7.11111111,12.4444445 L7.11111111,14.2222223 Z M4.44444442,3.55555553 L6.22222221,3.55555553 L6.22222221,1.77777774 L4.44444442,1.77777774 L4.44444442,3.55555553 Z M7.11111111,11.5555556 L8.88888889,11.5555556 L8.88888889,9.77777779 L7.11111111,9.77777779 L7.11111111,11.5555556 Z M4.44444442,14.2222223 L6.22222221,14.2222223 L6.22222221,12.4444445 L4.44444442,12.4444445 L4.44444442,14.2222223 Z M1.77777774,6.22222221 L3.55555553,6.22222221 L3.55555553,4.44444442 L1.77777774,4.44444442 L1.77777774,6.22222221 Z M1.77777774,14.2222223 L3.55555553,14.2222223 L3.55555553,12.4444445 L1.77777774,12.4444445 L1.77777774,14.2222223 Z M1.77777774,3.55555553 L3.55555553,3.55555553 L3.55555553,1.77777774 L1.77777774,1.77777774 L1.77777774,3.55555553 Z M1.77777774,8.88888889 L14.2222223,8.88888889 L14.2222223,7.11111111 L1.77777774,7.11111111 L1.77777774,8.88888889 Z M1.77777774,11.5555556 L3.55555553,11.5555556 L3.55555553,9.77777779 L1.77777774,9.77777779 L1.77777774,11.5555556 Z M12.4444445,11.5555556 L14.2222223,11.5555556 L14.2222223,9.77777779 L12.4444445,9.77777779 L12.4444445,11.5555556 Z M12.4444445,14.2222223 L14.2222223,14.2222223 L14.2222223,12.4444445 L12.4444445,12.4444445 L12.4444445,14.2222223 Z M12.4444445,6.22222221 L14.2222223,6.22222221 L14.2222223,4.44444442 L12.4444445,4.44444442 L12.4444445,6.22222221 Z M12.4444445,1.77777774 L12.4444445,3.55555553 L14.2222223,3.55555553 L14.2222223,1.77777774 L12.4444445,1.77777774 Z M7.11111111,3.55555553 L8.88888889,3.55555553 L8.88888889,1.77777774 L7.11111111,1.77777774 L7.11111111,3.55555553 Z M9.77777779,3.55555553 L11.5555556,3.55555553 L11.5555556,1.77777774 L9.77777779,1.77777774 L9.77777779,3.55555553 Z M7.11111111,6.22222221 L8.88888889,6.22222221 L8.88888889,4.44444442 L7.11111111,4.44444442 L7.11111111,6.22222221 Z M9.77777779,14.2222223 L11.5555556,14.2222223 L11.5555556,12.4444445 L9.77777779,12.4444445 L9.77777779,14.2222223 Z" id="path-1"></path>
    </defs>
    <g id="Icons/Editor/border-horizontal" stroke="none" stroke-width="1" fill="none" fill-rule="evenodd">
        <mask id="mask-2" fill="white">
            <use xlink:href="#path-1"></use>
        </mask>
        <use id="Icons/Editor/ic_border_horizontal_18px" fill="#233745" fill-rule="nonzero" xlink:href="#path-1"></use>
    </g>
</svg>