<svg xmlns="http://www.w3.org/2000/svg" xmlns:xlink="http://www.w3.org/1999/xlink" width="16" height="16" viewBox="0 0 16 16">
  <defs>
    <path id="border-outer-a" d="M8.88888889,4.44444442 L7.11111111,4.44444442 L7.11111111,6.22222221 L8.88888889,6.22222221 L8.88888889,4.44444442 Z M11.5555556,7.11111111 L9.77777779,7.11111111 L9.77777779,8.88888889 L11.5555556,8.88888889 L11.5555556,7.11111111 Z M8.88888889,7.11111111 L7.11111111,7.11111111 L7.11111111,8.88888889 L8.88888889,8.88888889 L8.88888889,7.11111111 Z M8.88888889,9.77777779 L7.11111111,9.77777779 L7.11111111,11.5555556 L8.88888889,11.5555556 L8.88888889,9.77777779 Z M6.22222221,7.11111111 L4.44444442,7.11111111 L4.44444442,8.88888889 L6.22222221,8.88888889 L6.22222221,7.11111111 Z M1.77777774,1.77777774 L1.77777774,14.2222223 L14.2222223,14.2222223 L14.2222223,1.77777774 L1.77777774,1.77777774 Z M12.4444445,12.4444445 L3.55555553,12.4444445 L3.55555553,3.55555553 L12.4444445,3.55555553 L12.4444445,12.4444445 Z"/>
  </defs>
  <g fill="none" fill-rule="evenodd">
    <mask id="border-outer-b" fill="#fff">
      <use xlink:href="#border-outer-a"/>
    </mask>
    <g fill="CurrentColor" mask="url(#border-outer-b)">
      <rect width="16" height="16"/>
    </g>
  </g>
</svg>
