<?xml version="1.0" encoding="UTF-8"?>
<svg width="16px" height="16px" viewBox="0 0 16 16" version="1.1" xmlns="http://www.w3.org/2000/svg" xmlns:xlink="http://www.w3.org/1999/xlink">
    <title>Icons/Editor/border-style</title>
    <g id="Icons/Editor/border-style" stroke="none" stroke-width="1" fill="none" fill-rule="evenodd">
        <rect id="Spacer" fill-opacity="0" fill="#D8D8D8" x="0" y="0" width="16" height="16"></rect>
        <path d="M9.77777779,14.2222223 L11.5555556,14.2222223 L11.5555556,12.4444445 L9.77777779,12.4444445 L9.77777779,14.2222223 Z M12.4444445,14.2222223 L14.2222223,14.2222223 L14.2222223,12.4444445 L12.4444445,12.4444445 L12.4444445,14.2222223 Z M4.44444442,14.2222223 L6.22222221,14.2222223 L6.22222221,12.4444445 L4.44444442,12.4444445 L4.44444442,14.2222223 Z M7.11111111,14.2222223 L8.88888889,14.2222223 L8.88888889,12.4444445 L7.11111111,12.4444445 L7.11111111,14.2222223 Z M12.4444445,11.5555556 L14.2222223,11.5555556 L14.2222223,9.77777779 L12.4444445,9.77777779 L12.4444445,11.5555556 Z M12.4444445,8.88888889 L14.2222223,8.88888889 L14.2222223,7.11111111 L12.4444445,7.11111111 L12.4444445,8.88888889 Z M1.77777774,1.77777774 L1.77777774,14.2222223 L3.55555553,14.2222223 L3.55555553,3.55555553 L14.2222223,3.55555553 L14.2222223,1.77777774 L1.77777774,1.77777774 Z M12.4444445,6.22222221 L14.2222223,6.22222221 L14.2222223,4.44444442 L12.4444445,4.44444442 L12.4444445,6.22222221 Z" id="Icons/Editor/ic_border_style_18px" fill="#233745" fill-rule="nonzero"></path>
    </g>
</svg>