<svg xmlns="http://www.w3.org/2000/svg" xmlns:xlink="http://www.w3.org/1999/xlink" width="16" height="16" viewBox="0 0 16 16">
  <defs>
    <path id="bubble-chart-a" d="M4.79999998,11.7333334 C3.62179251,11.7333334 2.66666663,10.7782075 2.66666663,9.60000001 C2.66666663,8.42179254 3.62179251,7.46666666 4.79999998,7.46666666 C5.97820745,7.46666666 6.93333333,8.42179254 6.93333333,9.60000001 C6.93333333,10.7782075 5.97820745,11.7333334 4.79999998,11.7333334 Z M9.86666668,13.3333334 C9.13028701,13.3333334 8.53333334,12.7363797 8.53333334,12 C8.53333334,11.2636204 9.13028701,10.6666667 9.86666668,10.6666667 C10.6030463,10.6666667 11.2,11.2636204 11.2,12 C11.2,12.7363797 10.6030463,13.3333334 9.86666668,13.3333334 Z M10.1333333,9.06666667 C8.36602214,9.06666667 6.93333333,7.63397786 6.93333333,5.86666665 C6.93333333,4.09935544 8.36602214,2.66666663 10.1333333,2.66666663 C11.9006446,2.66666663 13.3333334,4.09935544 13.3333334,5.86666665 C13.3333334,7.63397786 11.9006446,9.06666667 10.1333333,9.06666667 Z"/>
  </defs>
  <g fill="none" fill-rule="evenodd">
    <mask id="bubble-chart-b" fill="#fff">
      <use xlink:href="#bubble-chart-a"/>
    </mask>
    <g fill="CurrentColor" mask="url(#bubble-chart-b)">
      <rect width="16" height="16"/>
    </g>
  </g>
</svg>
