<?xml version="1.0" encoding="UTF-8"?>
<svg width="16px" height="16px" viewBox="0 0 16 16" version="1.1" xmlns="http://www.w3.org/2000/svg" xmlns:xlink="http://www.w3.org/1999/xlink">
    <title>Icons/Editor/format-paint</title>
    <g id="Icons/Editor/format-paint" stroke="none" stroke-width="1" fill="none" fill-rule="evenodd">
        <rect id="Spacer" fill-opacity="0" fill="#D8D8D8" x="0" y="0" width="16" height="16"></rect>
        <path d="M11.5555556,2.66666663 C11.5555556,2.17777774 11.1555556,1.77777774 10.6666666,1.77777774 L3.55555553,1.77777774 C3.06666664,1.77777774 2.66666663,2.17777774 2.66666663,2.66666663 L2.66666663,5.33333332 C2.66666663,5.82222221 3.06666664,6.22222221 3.55555553,6.22222221 L10.6666666,6.22222221 C11.1555556,6.22222221 11.5555556,5.82222221 11.5555556,5.33333332 L11.5555556,4.44444442 L12.8888889,4.44444442 L12.8888889,7.11111111 L6.22222221,7.11111111 L6.22222221,14.2222223 L8,14.2222223 L8,8.44444445 L14.2222223,8.44444445 L14.2222223,3.55555553 L11.5555556,3.55555553 L11.5555556,2.66666663 Z" id="Icons/Editor/ic_format_paint_18px" fill="#233745" fill-rule="nonzero"></path>
    </g>
</svg>