<svg xmlns="http://www.w3.org/2000/svg" xmlns:xlink="http://www.w3.org/1999/xlink" width="16" height="16" viewBox="0 0 16 16">
  <defs>
    <path id="format-shapes-a" d="M15.3333334,4.66666662 L15.3333334,0.666666621 L11.3333334,0.666666621 L11.3333334,1.99999996 L4.66666662,1.99999996 L4.66666662,0.666666621 L0.666666621,0.666666621 L0.666666621,4.66666662 L1.99999996,4.66666662 L1.99999996,11.3333334 L0.666666621,11.3333334 L0.666666621,15.3333334 L4.66666662,15.3333334 L4.66666662,14 L11.3333334,14 L11.3333334,15.3333334 L15.3333334,15.3333334 L15.3333334,11.3333334 L14,11.3333334 L14,4.66666662 L15.3333334,4.66666662 Z M1.99999996,1.99999996 L3.3333333,1.99999996 L3.3333333,3.3333333 L1.99999996,3.3333333 L1.99999996,1.99999996 Z M3.3333333,14 L1.99999996,14 L1.99999996,12.6666667 L3.3333333,12.6666667 L3.3333333,14 Z M11.3333333,12.6666667 L4.66666665,12.6666667 L4.66666665,11.3333333 L3.3333333,11.3333333 L3.3333333,4.66666665 L4.66666665,4.66666665 L4.66666665,3.3333333 L11.3333333,3.3333333 L11.3333333,4.66666665 L12.6666667,4.66666665 L12.6666667,11.3333333 L11.3333333,11.3333333 L11.3333333,12.6666667 Z M14,14 L12.6666667,14 L12.6666667,12.6666667 L14,12.6666667 L14,14 Z M12.6666667,3.3333333 L12.6666667,1.99999996 L14,1.99999996 L14,3.3333333 L12.6666667,3.3333333 Z M9.15333334,9.33333334 L6.82666666,9.33333334 L6.33999999,10.6666666 L5.25999998,10.6666666 L7.52666666,4.66666665 L8.46,4.66666665 L10.7333334,10.6666666 L9.64666668,10.6666666 L9.15333334,9.33333334 L9.15333334,9.33333334 Z M7.12666666,8.49333334 L8.86666667,8.49333334 L8,5.93999999 L7.12666666,8.49333334 L7.12666666,8.49333334 Z"/>
  </defs>
  <g fill="none" fill-rule="evenodd">
    <mask id="format-shapes-b" fill="#fff">
      <use xlink:href="#format-shapes-a"/>
    </mask>
    <g fill="CurrentColor" mask="url(#format-shapes-b)">
      <rect width="16" height="16"/>
    </g>
  </g>
</svg>
