<?xml version="1.0" encoding="UTF-8"?>
<svg width="16px" height="16px" viewBox="0 0 16 16" version="1.1" xmlns="http://www.w3.org/2000/svg" xmlns:xlink="http://www.w3.org/1999/xlink">
    <title>Icons/Editor/format-list-bulleted</title>
    <g id="Icons/Editor/format-list-bulleted" stroke="none" stroke-width="1" fill="none" fill-rule="evenodd">
        <rect id="Spacer" fill-opacity="0" fill="#D8D8D8" x="0" y="0" width="16" height="16"></rect>
        <path d="M6.22222221,8.88888889 L14.2222222,8.88888889 L14.2222222,7.11111111 L6.22222221,7.11111111 L6.22222221,8.88888889 Z M6.22222221,2.66666663 L6.22222221,4.44444442 L14.2222222,4.44444442 L14.2222222,2.66666663 L6.22222221,2.66666663 Z M6.22222221,13.3333334 L14.2222222,13.3333334 L14.2222222,11.5555556 L6.22222221,11.5555556 L6.22222221,13.3333334 Z M2.66666663,8.88888889 L4.44444442,8.88888889 L4.44444442,7.11111111 L2.66666663,7.11111111 L2.66666663,8.88888889 Z M2.66666663,2.66666663 L2.66666663,4.44444442 L4.44444442,4.44444442 L4.44444442,2.66666663 L2.66666663,2.66666663 Z M2.66666663,13.3333334 L4.44444442,13.3333334 L4.44444442,11.5555556 L2.66666663,11.5555556 L2.66666663,13.3333334 Z" id="Icons/Editor/ic_format_list_bulleted_18px" fill="#233745" fill-rule="nonzero"></path>
    </g>
</svg>