<?xml version="1.0" encoding="UTF-8"?>
<svg width="16px" height="16px" viewBox="0 0 16 16" version="1.1" xmlns="http://www.w3.org/2000/svg" xmlns:xlink="http://www.w3.org/1999/xlink">
    <title>Icons/Editor/format-bold</title>
    <defs>
        <path d="M10.3377778,6.9511111 C11.0755556,6.43555555 11.5555555,5.6711111 11.5555555,4.88888887 C11.5555555,3.1733333 10.16,1.77777774 8.44444445,1.77777774 L3.55555553,1.77777774 L3.55555553,12.4444445 L9.11111112,12.4444445 C10.7022222,12.4444445 12,11.1466667 12,9.55555557 C12,8.4 11.3155556,7.41333333 10.3377778,6.9511111 L10.3377778,6.9511111 Z M5.77777776,3.55555553 L8.22222222,3.55555553 C8.96000001,3.55555553 9.55555557,4.15111109 9.55555557,4.88888887 C9.55555557,5.62666665 8.96000001,6.22222221 8.22222222,6.22222221 L5.77777776,6.22222221 L5.77777776,3.55555553 Z M8.66666667,10.6666667 L5.77777776,10.6666667 L5.77777776,8 L8.66666667,8 C9.40444445,8 10,8.59555556 10,9.33333334 C10,10.0711111 9.40444445,10.6666667 8.66666667,10.6666667 Z" id="path-1"></path>
    </defs>
    <g id="Icons/Editor/format-bold" stroke="none" stroke-width="1" fill="none" fill-rule="evenodd">
        <mask id="mask-2" fill="white">
            <use xlink:href="#path-1"></use>
        </mask>
        <use id="Icons/Editor/ic_format_bold_18px" fill="#233745" fill-rule="nonzero" xlink:href="#path-1"></use>
    </g>
</svg>