<?xml version="1.0" encoding="UTF-8"?>
<svg width="16px" height="16px" viewBox="0 0 16 16" version="1.1" xmlns="http://www.w3.org/2000/svg" xmlns:xlink="http://www.w3.org/1999/xlink">
    <title>Icons/Editor/insert-link</title>
    <g id="Icons/Editor/insert-link" stroke="none" stroke-width="1" fill="none" fill-rule="evenodd">
        <rect id="Spacer" fill-opacity="0" fill="#D8D8D8" x="0" y="0" width="16" height="16"></rect>
        <path d="M1.68888885,8 C1.68888885,6.96888888 2.52444441,6.13333332 3.55555553,6.13333332 L7.11111111,6.13333332 L7.11111111,4.44444442 L3.55555553,4.44444442 C1.59111107,4.44444442 -5.00000006e-08,6.03555554 -5.00000006e-08,8 C-5.00000006e-08,9.96444446 1.59111107,11.5555556 3.55555553,11.5555556 L7.11111111,11.5555556 L7.11111111,9.86666668 L3.55555553,9.86666668 C2.52444441,9.86666668 1.68888885,9.03111112 1.68888885,8 Z M12.4444445,4.44444442 L8.88888889,4.44444442 L8.88888889,6.13333332 L12.4444445,6.13333332 C13.4755556,6.13333332 14.3111112,6.96888888 14.3111112,8 C14.3111112,9.03111112 13.4755556,9.86666668 12.4444445,9.86666668 L8.88888889,9.86666668 L8.88888889,11.5555556 L12.4444445,11.5555556 C14.4088889,11.5555556 16.0000001,9.96444446 16.0000001,8 C16.0000001,6.03555554 14.4088889,4.44444442 12.4444445,4.44444442 Z M5.33333332,8.88888889 L10.6666667,8.88888889 L10.6666667,7.11111111 L5.33333332,7.11111111 L5.33333332,8.88888889 Z" id="Icons/Editor/ic_insert_link_18px" fill="#233745" fill-rule="nonzero"></path>
    </g>
</svg>