<?xml version="1.0" encoding="UTF-8"?>
<svg width="16px" height="16px" viewBox="0 0 16 16" version="1.1" xmlns="http://www.w3.org/2000/svg" xmlns:xlink="http://www.w3.org/1999/xlink">
    <title>Icons/Editor/insert-invitation</title>
    <g id="Icons/Editor/insert-invitation" stroke="none" stroke-width="1" fill="none" fill-rule="evenodd">
        <rect id="Spacer" fill-opacity="0" fill="#D8D8D8" x="0" y="0" width="16" height="16"></rect>
        <path d="M11.5555556,8 L8,8 L8,11.5555556 L11.5555556,11.5555556 L11.5555556,8 Z M14.2222223,1.77777774 L13.3333334,1.77777774 L13.3333334,-5.00000006e-08 L11.5555556,-5.00000006e-08 L11.5555556,1.77777774 L4.44444442,1.77777774 L4.44444442,-5.00000006e-08 L2.66666663,-5.00000006e-08 L2.66666663,1.77777774 L1.77777774,1.77777774 C1.28888885,1.77777774 0.888888844,2.17777774 0.888888844,2.66666663 L0.888888844,14.2222223 C0.888888844,14.7111112 1.28888885,15.1111112 1.77777774,15.1111112 L14.2222223,15.1111112 C14.7111112,15.1111112 15.1111112,14.7111112 15.1111112,14.2222223 L15.1111112,2.66666663 C15.1111112,2.17777774 14.7111112,1.77777774 14.2222223,1.77777774 Z M13.3333334,13.3333333 L2.66666663,13.3333333 L2.66666663,5.33333332 L13.3333334,5.33333332 L13.3333334,13.3333333 Z" id="Icons/Editor/ic_insert_invitation_18px" fill="#233745" fill-rule="nonzero"></path>
    </g>
</svg>