<?xml version="1.0" encoding="UTF-8"?>
<svg width="16px" height="16px" viewBox="0 0 16 16" version="1.1" xmlns="http://www.w3.org/2000/svg" xmlns:xlink="http://www.w3.org/1999/xlink">
    <title>Icons/Editor/linear-scale</title>
    <defs>
        <path d="M13,6.33333332 C12.3133334,6.33333332 11.7333334,6.74666666 11.4733334,7.33333332 L9.52666668,7.33333332 C9.26666667,6.74666666 8.68666667,6.33333332 8,6.33333332 C7.31333333,6.33333332 6.73333333,6.74666666 6.47333332,7.33333332 L4.52666664,7.33333332 C4.26666664,6.74666666 3.68666664,6.33333332 2.99999997,6.33333332 C2.07999996,6.33333332 1.33333329,7.07999999 1.33333329,8 C1.33333329,8.92000001 2.07999996,9.66666668 2.99999997,9.66666668 C3.68666664,9.66666668 4.26666664,9.25333334 4.52666664,8.66666667 L6.47333332,8.66666667 C6.73333333,9.25333334 7.31333333,9.66666668 8,9.66666668 C8.68666667,9.66666668 9.26666667,9.25333334 9.52666668,8.66666667 L11.4733334,8.66666667 C11.7333334,9.25333334 12.3133334,9.66666668 13,9.66666668 C13.92,9.66666668 14.6666667,8.92000001 14.6666667,8 C14.6666667,7.07999999 13.92,6.33333332 13,6.33333332 Z" id="path-1"></path>
    </defs>
    <g id="Icons/Editor/linear-scale" stroke="none" stroke-width="1" fill="none" fill-rule="evenodd">
        <mask id="mask-2" fill="white">
            <use xlink:href="#path-1"></use>
        </mask>
        <use id="Icons/Editor/ic_linear_scale_24px" fill="#233745" fill-rule="nonzero" xlink:href="#path-1"></use>
    </g>
</svg>