<?xml version="1.0" encoding="UTF-8"?>
<svg width="16px" height="16px" viewBox="0 0 16 16" version="1.1" xmlns="http://www.w3.org/2000/svg" xmlns:xlink="http://www.w3.org/1999/xlink">
    <title>Icons/Editor/money-off</title>
    <defs>
        <path d="M8.33333334,4.59999998 C9.52000001,4.59999998 9.96000001,5.16666665 10,5.99999996 L11.4733334,5.99999996 C11.4266667,4.85333331 10.7266667,3.79999997 9.33333334,3.45999997 L9.33333334,1.99999996 L7.33333333,1.99999996 L7.33333333,3.43999997 C6.97999999,3.51999997 6.64666666,3.63999997 6.34666666,3.79999997 L7.32666666,4.77999998 C7.6,4.66666665 7.93333333,4.59999998 8.33333334,4.59999998 Z M3.55333331,2.70666663 L2.70666663,3.55333331 L4.99999998,5.84666665 C4.99999998,7.23333333 6.03999999,7.98666667 7.60666666,8.45333334 L9.94666668,10.7933334 C9.72000001,11.1133334 9.24666667,11.4 8.33333334,11.4 C6.95999999,11.4 6.41999999,10.7866667 6.34666666,10 L4.87999998,10 C4.95999998,11.46 6.05333332,12.28 7.33333333,12.5533334 L7.33333333,14 L9.33333334,14 L9.33333334,12.5666667 C9.97333335,12.4466667 10.5466667,12.2 10.9666667,11.82 L12.4466667,13.3 L13.2933334,12.4533334 L3.55333331,2.70666663 Z" id="path-1"></path>
    </defs>
    <g id="Icons/Editor/money-off" stroke="none" stroke-width="1" fill="none" fill-rule="evenodd">
        <mask id="mask-2" fill="white">
            <use xlink:href="#path-1"></use>
        </mask>
        <use id="Icons/Editor/ic_money_off_24px" fill="#233745" fill-rule="nonzero" xlink:href="#path-1"></use>
    </g>
</svg>