<?xml version="1.0" encoding="UTF-8"?>
<svg width="16px" height="16px" viewBox="0 0 16 16" version="1.1" xmlns="http://www.w3.org/2000/svg" xmlns:xlink="http://www.w3.org/1999/xlink">
    <title>Icons/Editor/monetization-on</title>
    <g id="Icons/Editor/monetization-on" stroke="none" stroke-width="1" fill="none" fill-rule="evenodd">
        <rect id="Spacer" fill-opacity="0" fill="#D8D8D8" x="0" y="0" width="16" height="16"></rect>
        <path d="M8,1.33333329 C4.31999998,1.33333329 1.33333329,4.31999998 1.33333329,8 C1.33333329,11.68 4.31999998,14.6666667 8,14.6666667 C11.68,14.6666667 14.6666667,11.68 14.6666667,8 C14.6666667,4.31999998 11.68,1.33333329 8,1.33333329 Z M8.94000001,12.06 L8.94000001,13.3333334 L7.15999999,13.3333334 L7.15999999,12.0466667 C6.01999999,11.8066667 5.05333331,11.0733334 4.97999998,9.78000001 L6.28666666,9.78000001 C6.35333332,10.48 6.83333333,11.0266667 8.05333333,11.0266667 C9.36000001,11.0266667 9.65333334,10.3733333 9.65333334,9.96666668 C9.65333334,9.41333334 9.36000001,8.89333334 7.87333333,8.54 C6.21999999,8.14 5.08666665,7.46 5.08666665,6.09333332 C5.08666665,4.94666665 6.01333332,4.19999998 7.15999999,3.95333331 L7.15999999,2.66666663 L8.94000001,2.66666663 L8.94000001,3.96666664 C10.18,4.26666664 10.8,5.20666665 10.84,6.22666666 L9.53333334,6.22666666 C9.50000001,5.48666665 9.10666667,4.97999998 8.05333333,4.97999998 C7.05333333,4.97999998 6.45333332,5.43333332 6.45333332,6.07333332 C6.45333332,6.63333332 6.88666666,6.99999999 8.23333333,7.34666666 C9.58000001,7.69333333 11.02,8.27333334 11.02,9.95333335 C11.0133334,11.1733334 10.1,11.84 8.94000001,12.06 Z" id="Icons/Editor/ic_monetization_on_24px" fill="#233745" fill-rule="nonzero"></path>
    </g>
</svg>