<?xml version="1.0" encoding="UTF-8"?>
<svg width="16px" height="16px" viewBox="0 0 16 16" version="1.1" xmlns="http://www.w3.org/2000/svg" xmlns:xlink="http://www.w3.org/1999/xlink">
    <title>Icons/Editor/multiline-chart</title>
    <g id="Icons/Editor/multiline-chart" stroke="none" stroke-width="1" fill="none" fill-rule="evenodd">
        <rect id="Spacer" fill-opacity="0" fill="#D8D8D8" x="0" y="0" width="16" height="16"></rect>
        <path d="M14.6666667,4.61333331 L13.7266667,3.67333331 L11.8266667,5.81333332 C10.4533333,4.26666664 8.55333334,3.3333333 6.40666666,3.3333333 C4.47999998,3.3333333 2.7133333,4.10666664 1.33333329,5.3333333 L2.27999996,6.27999999 C3.4133333,5.28666665 4.84666665,4.66666665 6.40666666,4.66666665 C8.23333333,4.66666665 9.80000001,5.50666665 10.92,6.82666666 L9.00000001,8.98666667 L6.33333329,6.31999999 L1.33333329,11.3266667 L2.33333329,12.3266667 L6.33333329,8.32 L9.00000001,10.9866667 L11.7,7.95333333 C12.2,8.85333334 12.5333334,9.88666668 12.66,10.9866667 L14,10.9866667 C13.8533334,9.45333334 13.3666667,8.06 12.64,6.89333333 L14.6666667,4.61333331 Z" id="Icons/Editor/ic_multiline_chart_24px" fill="#233745" fill-rule="nonzero"></path>
    </g>
</svg>