<?xml version="1.0" encoding="UTF-8"?>
<svg width="16px" height="16px" viewBox="0 0 16 16" version="1.1" xmlns="http://www.w3.org/2000/svg" xmlns:xlink="http://www.w3.org/1999/xlink">
    <title>Icons/Editor/pie-chart-outlined</title>
    <defs>
        <path d="M8,1.33333329 C4.33333329,1.33333329 1.33333329,4.33333329 1.33333329,8 C1.33333329,11.6666667 4.33333329,14.6666667 8,14.6666667 C11.6666667,14.6666667 14.6666667,11.6666667 14.6666667,8 C14.6666667,4.33333329 11.6666667,1.33333329 8,1.33333329 Z M8.66666667,2.7133333 C11.0733334,3.0133333 12.9866667,4.93333331 13.2866667,7.33333333 L8.66666667,7.33333333 L8.66666667,2.7133333 Z M2.66666663,8 C2.66666663,5.29333332 4.71333331,3.03999997 7.33333333,2.7133333 L7.33333333,13.2933334 C4.71333331,12.96 2.66666663,10.7066667 2.66666663,8 L2.66666663,8 Z M8.66666667,13.2866667 L8.66666667,8.66666667 L13.2866667,8.66666667 C12.9866667,11.0733334 11.0733334,12.9866667 8.66666667,13.2866667 Z" id="path-1"></path>
    </defs>
    <g id="Icons/Editor/pie-chart-outlined" stroke="none" stroke-width="1" fill="none" fill-rule="evenodd">
        <mask id="mask-2" fill="white">
            <use xlink:href="#path-1"></use>
        </mask>
        <use id="Icons/Editor/ic_pie_chart_outlined_24px" fill="#233745" fill-rule="nonzero" xlink:href="#path-1"></use>
    </g>
</svg>