<?xml version="1.0" encoding="UTF-8"?>
<svg width="16px" height="16px" viewBox="0 0 16 16" version="1.1" xmlns="http://www.w3.org/2000/svg" xmlns:xlink="http://www.w3.org/1999/xlink">
    <title>Icons/Editor/strikethrough-s</title>
    <g id="Icons/Editor/strikethrough-s" stroke="none" stroke-width="1" fill="none" fill-rule="evenodd">
        <rect id="Spacer" fill-opacity="0" fill="#D8D8D8" x="0" y="0" width="16" height="16"></rect>
        <path d="M4.82666665,5.83333332 C4.65333331,5.51333332 4.56666665,5.14666665 4.56666665,4.71999998 C4.56666665,4.31333331 4.65333331,3.94666664 4.83333331,3.60666664 C5.00666665,3.2733333 5.25333332,2.98666664 5.57333332,2.74666663 C5.89333332,2.5133333 6.27333332,2.32666663 6.70666666,2.1933333 C7.14666666,2.06666663 7.63333333,1.99999996 8.16,1.99999996 C8.7,1.99999996 9.18666667,2.0733333 9.63333334,2.22666663 C10.0733333,2.3733333 10.4533333,2.58666663 10.76,2.8533333 C11.0733334,3.11999997 11.3133334,3.43999997 11.48,3.80666664 C11.6466667,4.17333331 11.7333334,4.57333331 11.7333334,5.01333331 L9.72666668,5.01333331 C9.72666668,4.80666665 9.69333334,4.61999998 9.62666668,4.44666664 C9.56666665,4.26666664 9.46666668,4.11999998 9.33333334,3.99333331 C9.20000001,3.86666664 9.03333334,3.77333331 8.83333334,3.69999997 C8.63333334,3.63333331 8.39333334,3.59333331 8.12666667,3.59333331 C7.86666667,3.59333331 7.63333333,3.61999997 7.44,3.67999997 C7.24666666,3.73999997 7.08666666,3.81999997 6.95999999,3.91999997 C6.83333333,4.02666664 6.73333333,4.14666664 6.66666666,4.28666664 C6.59999999,4.42666664 6.56666665,4.57333331 6.56666665,4.72666665 C6.56666665,5.04666665 6.73333333,5.31333332 7.05999999,5.53333332 C7.31333333,5.69999999 7.57333333,5.85333332 8,5.99999996 L4.92666665,5.99999996 C4.89333331,5.94666665 4.85333331,5.88666665 4.82666665,5.83333332 Z M14,8 L14,6.66666666 L1.99999996,6.66666666 L1.99999996,8 L8.41333334,8 C8.53333334,8.04666667 8.68,8.09333333 8.78,8.13333333 C9.02666667,8.24666667 9.22000001,8.36 9.36000001,8.47333334 C9.49999996,8.58666667 9.59333334,8.71333334 9.64666668,8.85333334 C9.69333334,8.98666667 9.72000001,9.14000001 9.72000001,9.31333334 C9.72000001,9.46666668 9.68666668,9.61333334 9.62666668,9.75333334 C9.56666668,9.88666668 9.47333334,10.0066667 9.34666668,10.1066667 C9.22000001,10.2066667 9.06666667,10.28 8.87333334,10.34 C8.68,10.3933333 8.45333334,10.4266667 8.2,10.4266667 C7.91333333,10.4266667 7.64666666,10.4 7.41333333,10.34 C7.17999999,10.28 6.97333333,10.1866667 6.80666666,10.06 C6.63999999,9.93333335 6.50666666,9.76666668 6.41333332,9.56000001 C6.31999999,9.35333334 6.24666666,9.05333334 6.24666666,8.75333334 L4.26666664,8.75333334 C4.26666664,9.12000001 4.31999998,9.50666668 4.42666664,9.80666668 C4.53333331,10.1066667 4.67333331,10.3733333 4.85999998,10.6133333 C5.04666665,10.8466667 5.25999998,11.0533334 5.51333332,11.2266667 C5.75999999,11.4 6.03333332,11.5466667 6.32666666,11.66 C6.61999999,11.7733334 6.92666666,11.86 7.24666666,11.92 C7.56666666,11.9733334 7.88666667,12.0066667 8.20666667,12.0066667 C8.74,12.0066667 9.22666667,11.9466667 9.66000001,11.82 C10.0933333,11.6933334 10.4666667,11.52 10.7733334,11.2933334 C11.08,11.0666667 11.32,10.78 11.4866667,10.4466667 C11.6533334,10.1133333 11.74,9.73333334 11.74,9.30666667 C11.74,8.90666667 11.6733334,8.54666667 11.5333334,8.23333333 C11.5,8.16 11.46,8.08 11.42,8.01333333 L14,8.01333333 L14,8 Z" id="Icons/Editor/ic_strikethrough_s_24px" fill="#233745" fill-rule="nonzero"></path>
    </g>
</svg>