<?xml version="1.0" encoding="UTF-8"?>
<svg width="16px" height="16px" viewBox="0 0 16 16" version="1.1" xmlns="http://www.w3.org/2000/svg" xmlns:xlink="http://www.w3.org/1999/xlink">
    <title>Icons/Editor/wrap-text</title>
    <defs>
        <path d="M14.2222223,2.66666663 L1.77777774,2.66666663 L1.77777774,4.44444442 L14.2222223,4.44444442 L14.2222223,2.66666663 Z M1.77777774,13.3333334 L5.33333332,13.3333334 L5.33333332,11.5555556 L1.77777774,11.5555556 L1.77777774,13.3333334 Z M12,7.11111111 L1.77777774,7.11111111 L1.77777774,8.88888889 L12.2222222,8.88888889 C12.96,8.88888889 13.5555556,9.48444445 13.5555556,10.2222222 C13.5555556,10.96 12.96,11.5555556 12.2222222,11.5555556 L9.77777774,11.5555556 L9.77777774,9.77777779 L7.11111111,12.4444445 L9.77777774,15.1111111 L9.77777774,13.3333334 L12,13.3333334 C13.7155556,13.3333334 15.1111112,11.9377778 15.1111112,10.2222222 C15.1111112,8.50666667 13.7155556,7.11111111 12,7.11111111 Z" id="path-1"></path>
    </defs>
    <g id="Icons/Editor/wrap-text" stroke="none" stroke-width="1" fill="none" fill-rule="evenodd">
        <mask id="mask-2" fill="white">
            <use xlink:href="#path-1"></use>
        </mask>
        <use id="Icons/Editor/ic_wrap_text_18px" fill="#233745" fill-rule="nonzero" xlink:href="#path-1"></use>
    </g>
</svg>