<svg xmlns="http://www.w3.org/2000/svg" xmlns:xlink="http://www.w3.org/1999/xlink" width="16" height="16" viewBox="0 0 16 16">
  <defs>
    <path id="chrome-reader-mode-a" d="M8.66666667,8 L13.3333334,8 L13.3333334,9 L8.66666667,9 L8.66666667,8 Z M8.66666667,6.33333332 L13.3333334,6.33333332 L13.3333334,7.33333332 L8.66666667,7.33333332 L8.66666667,6.33333332 Z M8.66666667,9.66666668 L13.3333334,9.66666668 L13.3333334,10.6666667 L8.66666667,10.6666667 L8.66666667,9.66666668 Z M14,2.66666663 L1.99999996,2.66666663 C1.26666662,2.66666663 0.666666621,3.26666664 0.666666621,3.99999997 L0.666666621,12.6666666 C0.666666621,13.4 1.26666662,14 1.99999996,14 L14,14 C14.7333334,14 15.3333334,13.4 15.3333334,12.6666666 L15.3333334,3.99999997 C15.3333334,3.26666664 14.7333334,2.66666663 14,2.66666663 Z M14,12.6666667 L8,12.6666667 L8,3.99999997 L14,3.99999997 L14,12.6666667 Z"/>
  </defs>
  <g fill="none" fill-rule="evenodd">
    <mask id="chrome-reader-mode-b" fill="#fff">
      <use xlink:href="#chrome-reader-mode-a"/>
    </mask>
    <g fill="CurrentColor" mask="url(#chrome-reader-mode-b)">
      <rect width="16" height="16"/>
    </g>
  </g>
</svg>
