<svg xmlns="http://www.w3.org/2000/svg" xmlns:xlink="http://www.w3.org/1999/xlink" width="16" height="16" viewBox="0 0 16 16">
  <defs>
    <path id="view-agenda-a" d="M13.3333333,8.66666667 L1.99999996,8.66666667 C1.63333329,8.66666667 1.33333329,8.96666667 1.33333329,9.33333334 L1.33333329,13.3333334 C1.33333329,13.7 1.63333329,14 1.99999996,14 L13.3333333,14 C13.7,14 14,13.7 14,13.3333334 L14,9.33333334 C14,8.96666667 13.7,8.66666667 13.3333333,8.66666667 Z M13.3333333,1.99999996 L1.99999996,1.99999996 C1.63333329,1.99999996 1.33333329,2.29999996 1.33333329,2.66666663 L1.33333329,6.66666666 C1.33333329,7.03333333 1.63333329,7.33333333 1.99999996,7.33333333 L13.3333333,7.33333333 C13.7,7.33333333 14,7.03333333 14,6.66666666 L14,2.66666663 C14,2.29999996 13.7,1.99999996 13.3333333,1.99999996 Z"/>
  </defs>
  <g fill="none" fill-rule="evenodd">
    <mask id="view-agenda-b" fill="#fff">
      <use xlink:href="#view-agenda-a"/>
    </mask>
    <g fill="CurrentColor" mask="url(#view-agenda-b)">
      <rect width="16" height="16"/>
    </g>
  </g>
</svg>
