<svg xmlns="http://www.w3.org/2000/svg" xmlns:xlink="http://www.w3.org/1999/xlink" viewBox="0 0 727 455"><defs><filter x="-2.1%" y="-1.2%" width="103.6%" height="102.4%" filterUnits="objectBoundingBox" id="a"><feOffset dx="-1" in="SourceAlpha" result="shadowOffsetOuter1"/><feGaussianBlur stdDeviation="1.5" in="shadowOffsetOuter1" result="shadowBlurOuter1"/><feColorMatrix values="0 0 0 0 0 0 0 0 0 0 0 0 0 0 0 0 0 0 0.0440340909 0" in="shadowBlurOuter1"/></filter><filter x="-1.6%" y="-.8%" width="102.5%" height="101.7%" filterUnits="objectBoundingBox" id="c"><feOffset dx="1" in="SourceAlpha" result="shadowOffsetInner1"/><feComposite in="shadowOffsetInner1" in2="SourceAlpha" operator="arithmetic" k2="-1" k3="1" result="shadowInnerInner1"/><feColorMatrix values="0 0 0 0 0.884579282 0 0 0 0 0.912031732 0 0 0 0 0.931640625 0 0 0 1 0" in="shadowInnerInner1"/></filter><path id="b" d="M10 0h280v416H10z"/><path id="d" d="M12.6666667 4.27333331l-.94-.94000001L8 7.05999999 4.27333331 3.3333333l-.94000001.94000001L7.05999999 8 3.3333333 11.7266667l.94000001.94L8 8.94000001l3.7266667 3.72666669.94-.94L8.94000001 8z"/></defs><g fill="none" fill-rule="evenodd"><path stroke="#B8C7D2" fill="#F8FAFC" d="M.5 2.5h725v417H.5z"/><g transform="translate(435 3)"><use fill="#000" filter="url(#a)" xlink:href="#b"/><use fill="#FFF" xlink:href="#b"/><use fill="#000" filter="url(#c)" xlink:href="#b"/></g><g transform="translate(697 15)"><mask id="e" fill="#fff"><use xlink:href="#d"/></mask><g mask="url(#e)" fill="#3E5667"><path d="M0 0h16v16H0z"/></g></g><g transform="translate(321 21)"><text font-family="Lato-Semibold, Lato" font-size="15" font-weight="500" fill="#3E5667"><tspan x="0" y="58">Close Button</tspan></text><path fill="#B8C7D2" d="M100 2.5h270v1H100z"/><path fill="#B8C7D2" d="M100 3h1v50h-1z"/><rect fill="#3E5667" x="91" y="44" width="19.2" height="18.4" rx="9.2"/><text font-family="Lato-Heavy, Lato" font-size="9.6" font-weight="600" fill="#FFF"><tspan x="97.816" y="56.2">2</tspan></text><circle fill="#3E5667" cx="370.5" cy="3" r="3"/></g><g transform="translate(353 173)"><text font-family="Lato-Semibold, Lato" font-size="15" font-weight="500" fill="#3E5667"><tspan x="0" y="15">Sheet</tspan></text><path fill="#B8C7D2" d="M58 9.5h40v1H58z"/><rect fill="#3E5667" x="48" y="1" width="19.2" height="18.4" rx="9.2"/><text font-family="Lato-Heavy, Lato" font-size="9.6" font-weight="600" fill="#FFF"><tspan x="54.816" y="13.2">1</tspan></text><circle fill="#3E5667" cx="98.5" cy="10" r="3"/></g><text font-family="Lato-Medium, Lato" font-size="15" font-weight="400" fill="#3E5667" transform="translate(0 2)"><tspan x="0" y="447">The Drawer anatomy.</tspan></text></g></svg>