<?xml version="1.0" encoding="UTF-8"?>
<svg width="16px" height="16px" viewBox="0 0 16 16" version="1.1" xmlns="http://www.w3.org/2000/svg" xmlns:xlink="http://www.w3.org/1999/xlink">
    <title>Icons/Standards/anchor</title>
    <g id="Icons/Standards/anchor" stroke="none" stroke-width="1" fill="none" fill-rule="evenodd">
        <rect id="Spacer" fill-opacity="0" fill="#D8D8D8" x="0" y="0" width="16" height="16"></rect>
        <path d="M8,2 C9.35560802,2 10.4545455,3.09893743 10.4545455,4.45454545 C10.4545455,5.42335332 9.89326487,6.26106708 9.07814364,6.6602468 C9.08666651,6.71164826 9.09090909,6.76441959 9.09090909,6.81818182 L9.09090909,13 L9.08898392,13.0303602 C10.5579048,12.7785162 11.7277776,12.0272076 12.1712933,10.9185772 L12.2153828,10.7980009 C12.2248786,10.7646549 12.2509921,10.6729536 12.2937234,10.522897 C11.8483332,10.3479212 11.6098072,10.1850831 11.5781454,10.0343827 L11.5647195,9.96144093 C11.5196,9.68369569 11.4829324,9.09016189 11.8181818,9.09073668 L12.560745,9.09016189 L12.7781863,9.09272513 L12.9796918,9.09854724 C13.6242198,9.12464 13.9941899,9.22386153 14,9.5843559 L14,9.92992392 C14,12.438549 11.3983108,14.4797283 8.15731317,14.5438956 L8,14.5454512 L7.86243911,14.5438986 C4.6731177,14.4807836 2.08470452,12.5044362 2.002037,10.0515122 L2,9.93049871 L2,9.58493069 C2.00610057,9.2064116 2.41368761,9.11594582 3.11903533,9.09573307 L3.22181367,9.09329992 L3.43925505,9.09073668 L4.18181818,9.09131147 C4.5505926,9.09073668 4.46934729,9.80890683 4.4218546,10.0349575 C4.3901928,10.1856579 4.15166681,10.348496 3.70627663,10.5234718 L3.78868687,10.8128668 C4.19661371,11.9676975 5.39879807,12.76188 6.91059073,13.0266199 L6.90909091,13 L6.90909091,13 L6.90909091,6.81818182 C6.90909091,6.76441959 6.91333349,6.71164826 6.92150212,6.66018438 C6.10673513,6.26106708 5.54545455,5.42335332 5.54545455,4.45454545 C5.54545455,3.09893743 6.64439198,2 8,2 Z M8,3.36363636 C7.39750755,3.36363636 6.90909091,3.852053 6.90909091,4.45454545 C6.90909091,5.05703791 7.39750755,5.54545455 8,5.54545455 C8.60249245,5.54545455 9.09090909,5.05703791 9.09090909,4.45454545 C9.09090909,3.852053 8.60249245,3.36363636 8,3.36363636 Z" id="Combined-Shape" fill="#233745"></path>
    </g>
</svg>