<?xml version="1.0" encoding="UTF-8"?>
<svg width="16px" height="16px" viewBox="0 0 16 16" version="1.1" xmlns="http://www.w3.org/2000/svg" xmlns:xlink="http://www.w3.org/1999/xlink">
    <title>Icons/Standards/barrels</title>
    <g id="Icons/Standards/barrels" stroke="none" stroke-width="1" fill="none" fill-rule="evenodd">
        <rect id="Spacer" fill-opacity="0" fill="#D8D8D8" x="0" y="0" width="16" height="16"></rect>
        <path d="M12.8904762,6.41858198 L12.8901971,8.27238952 C12.8958572,8.2741349 12.9015174,8.27588479 12.9071775,8.27763921 C13.2002406,8.36840676 13.4,8.63945945 13.4,8.94625697 L13.4,9.28613462 C13.4000701,9.59293136 13.2003125,9.86398386 12.9072708,9.95481762 L12.889932,9.95945327 L12.8901971,10.9700504 C12.8958572,10.9717958 12.9015174,10.9735457 12.9071775,10.9753001 C13.2002406,11.0660676 13.4,11.3371203 13.4,11.6439179 L13.4,11.9837955 C13.4000701,12.2905922 13.2003125,12.5616447 12.9072708,12.6524785 L12.889932,12.6574533 L12.8904762,13.8371494 C11.7986395,14.2867596 10.7068027,14.5115646 9.614966,14.5115646 C8.52312926,14.5115646 7.43129253,14.2867596 6.33945579,13.8371494 L6.33973491,12.6577571 C6.33407475,12.6560117 6.3284146,12.6542618 6.32275445,12.6525074 C6.02969135,12.5617399 5.82993198,12.2906872 5.82993198,11.9838896 L5.82993198,11.644012 C5.82986193,11.3372153 6.02961949,11.0661628 6.32266124,10.975329 L6.33893197,10.9694533 L6.33973491,9.9600962 C6.33407475,9.95835083 6.3284146,9.95660094 6.32275445,9.95484652 C6.02969135,9.86407897 5.82993198,9.59302628 5.82993198,9.28622876 L5.82993198,8.94635111 C5.82986193,8.63955437 6.02961949,8.36850187 6.32266124,8.2776681 L6.33893197,8.27245327 L6.33945579,6.41858198 C7.39348566,6.86819213 8.47262221,7.0929972 9.57686544,7.0929972 C10.6811087,7.0929972 11.7856456,6.86819213 12.8904762,6.41858198 Z M3.20952382,3.85580414 C4.10876094,4.23938543 4.807905,4.45934207 5.74368998,4.51567406 C5.80226599,4.51920019 5.90315767,4.51990875 6.00028055,4.52017404 L6.13737773,4.52053634 C6.23966895,4.52105587 6.30006793,4.52273776 6.22856594,4.53021936 C5.497556,4.60670852 5.84830837,5.90566579 5.74368998,7.97038736 C5.17664957,8.09453509 4.92693679,9.86433992 5.74368998,10.214802 C5.88423883,10.2751104 5.85896974,10.3919915 5.85896974,10.7295458 C5.85896974,10.8248322 5.83245736,10.8647636 5.61156463,10.9641751 C5.23221624,11.1348988 5.51448311,11.8885865 5.28804613,11.8885865 C4.52113606,11.8885865 3.97515362,11.5896522 3.20952382,11.2743716 L3.210185,10.0950971 L3.04127326,10.0416742 C2.83686402,9.97544199 2.7,9.79671771 2.7,9.59607871 L2.7,8.9062199 C2.7,8.70558599 2.83682676,8.52686603 3.04121598,8.46059618 L3.20952382,8.40810688 L3.210185,7.39743617 L3.04127326,7.34401332 C2.83686402,7.2777811 2.7,7.09905682 2.7,6.89841783 L2.7,6.20855901 C2.7,6.0079251 2.83682676,5.82920515 3.04121598,5.7629353 L3.20952382,5.710446 L3.20952382,3.85580414 Z M9.6230517,4.26045327 C10.5334314,4.26045327 11.4428719,4.41713148 12.3513732,4.7304879 C12.6739763,4.84180623 12.8904762,5.1454967 12.8904762,5.48676569 L12.8904762,5.60928372 C11.892928,5.98197895 10.6032289,6.28369894 9.61016788,6.28369894 C8.6083606,6.28369894 7.34043278,5.98857283 6.33945579,5.60928372 L6.33945579,5.48839244 C6.33949142,5.14647961 6.55679358,4.8423645 6.88026183,4.73158241 C7.79734935,4.41749632 8.71161264,4.26045327 9.6230517,4.26045327 Z M6.49311973,1.9 C7.40349947,1.9 8.31293998,2.05667821 9.22144126,2.37003463 C9.54404435,2.48135296 9.76054423,2.78504342 9.76054423,3.12631241 L9.76054423,3.24883044 C8.76299604,3.62152568 7.47329691,3.92324566 6.48023592,3.92324566 C5.47842863,3.92324566 4.21050082,3.62811955 3.20952382,3.24883044 L3.20952382,3.12793917 C3.20955946,2.78602634 3.42686161,2.48191123 3.75032986,2.37112913 C4.66741738,2.05704304 5.58168067,1.9 6.49311973,1.9 Z" id="Combined-Shape" fill="#233745"></path>
    </g>
</svg>