<?xml version="1.0" encoding="UTF-8"?>
<svg width="16px" height="16px" viewBox="0 0 16 16" version="1.1" xmlns="http://www.w3.org/2000/svg" xmlns:xlink="http://www.w3.org/1999/xlink">
    <title>Icons/Standards/chain-break</title>
    <g id="Icons/Standards/chain-break" stroke="none" stroke-width="1" fill="none" fill-rule="evenodd">
        <rect id="Spacer" fill-opacity="0" fill="#D8D8D8" x="0" y="0" width="16" height="16"></rect>
        <g id="Group" transform="translate(8.385768, 9.224876) rotate(9.000000) translate(-8.385768, -9.224876) translate(0.385768, 3.724876)" fill="#233745" fill-rule="nonzero">
            <path d="M3.51439213,3.85999178 L3.77791253,4.94522215 C3.82477215,5.13819952 3.72295802,5.33633638 3.53877844,5.41059252 L2.79388526,5.71091293 C2.10063872,6.00517863 1.77720084,6.80571546 2.07146654,7.498962 C2.34842249,8.15142932 3.07384007,8.47631528 3.73618913,8.26694826 L3.85951561,8.22138071 L7.20680598,6.80054024 C7.85927331,6.5235843 8.18415927,5.79816671 7.97479225,5.13581766 L7.9292247,5.01249118 L7.73030703,4.54387053 C7.6439891,4.34051821 7.73886421,4.10569407 7.94221652,4.01937613 L8.87945783,3.6215408 C9.08281015,3.53522286 9.31763428,3.63009797 9.40395222,3.83345029 L9.60286989,4.30207094 C10.2666025,5.86572702 9.58351257,7.66331568 8.07608603,8.4016388 L7.91722622,8.47418543 L4.56993584,9.8950259 C2.95236059,10.5816459 1.08444131,9.82695748 0.397821353,8.20938223 C-0.265911272,6.64572616 0.544853518,4.75438041 1.92460521,4.10981438 C2.69049515,3.75202055 3.18353358,3.62396756 3.40372049,3.7256554 C3.45925106,3.75110362 3.49997837,3.80063298 3.51439213,3.85999178 Z" id="Path"></path>
            <path d="M8.31709035,2.88659692 L8.3681957,2.86661814 L8.3681957,2.86661814 C8.69096579,2.75404197 9.05416675,2.76274131 9.38282125,2.91280625 L9.49967518,2.97306386 L12.6488585,4.79124568 C13.3010757,5.16780346 13.5245418,6.00179038 13.147984,6.65400759 C12.7935767,7.26785909 12.0339726,7.50191723 11.402076,7.21339075 L10.5871942,6.78450207 C10.4406837,6.70709892 10.2591749,6.76315096 10.1817955,6.90967404 L10.1734749,6.92671292 C10.1098448,7.06818435 10.0299777,7.22914889 9.9338735,7.40960654 L9.87229591,7.52001728 L9.87229591,7.52001728 L9.69446604,7.80570348 C9.62871644,7.92416131 9.63787745,7.99270464 9.7662471,8.19205054 C9.88361364,8.37430966 10.0371956,8.52503865 10.2269928,8.64423753 L10.3761312,8.72772479 C11.8979714,9.60635961 13.8439408,9.08493867 14.7225757,7.5630985 C15.5719227,6.09198634 15.1129953,4.22454891 13.7067839,3.30802006 L13.5579494,3.21665403 L10.4087661,1.39847222 C9.58557903,0.923204945 8.63829612,0.857579529 7.80296585,1.13834696 L7.58622247,1.22018218 L7.58622247,1.22018218 C7.45569642,1.27611273 7.38519789,1.41365481 7.4087969,1.54771387 L7.43018001,1.61769176 L7.43018001,1.61769176 L7.92518703,2.73244387 C7.99175638,2.88228067 8.16628458,2.95094102 8.31709035,2.88659692 Z" id="Path"></path>
        </g>
        <g id="Group-2" transform="translate(5.500000, 3.500000) rotate(-12.000000) translate(-5.500000, -3.500000) translate(2.000000, 1.000000)" fill="#233745">
            <rect id="Rectangle" transform="translate(1.550000, 2.500000) rotate(-38.000000) translate(-1.550000, -2.500000) " x="1" y="1" width="1.1" height="3" rx="0.55"></rect>
            <rect id="Rectangle" x="3" y="0" width="1" height="3" rx="0.5"></rect>
            <path d="M5.55,1 C5.85375661,1 6.1,1.24624339 6.1,1.55 L6.1,3.45 C6.1,3.75375661 5.85375661,4 5.55,4 C5.24624339,4 5,3.75375661 5,3.45 L5,1.55 C5,1.24624339 5.24624339,1 5.55,1 Z" id="Rectangle" transform="translate(5.550000, 2.500000) scale(-1, 1) rotate(-36.000000) translate(-5.550000, -2.500000) "></path>
        </g>
    </g>
</svg>