<?xml version="1.0" encoding="UTF-8"?>
<svg width="16px" height="16px" viewBox="0 0 16 16" version="1.1" xmlns="http://www.w3.org/2000/svg" xmlns:xlink="http://www.w3.org/1999/xlink">
    <title>Icons/Standards/chain</title>
    <g id="Icons/Standards/chain" stroke="none" stroke-width="1" fill="none" fill-rule="evenodd">
        <rect id="Spacer" fill-opacity="0" fill="#D8D8D8" x="0" y="0" width="16" height="16"></rect>
        <path d="M5.61813962,4.84472347 C5.36544456,5.08576743 5.15939802,5.31255475 5,5.52508545 C4.76664504,5.8362254 4.59997837,6.16119692 4.5,6.5 L3.5,6.5 C2.67157288,6.5 2,7.17157288 2,8 C2,8.77969612 2.59488808,9.42044868 3.35553999,9.49313342 L3.5,9.5 L7.5,9.5 C8.27969612,9.5 8.92044868,8.90511192 8.99313342,8.14446001 L9,8 L9,7.4 C9,7.1790861 9.1790861,7 9.4,7 L10.6,7 C10.8209139,7 11,7.1790861 11,7.4 L11,8 L11,8 C11,9.8685634 9.5357224,11.3951264 7.6920352,11.4948211 L7.5,11.5 L3.5,11.5 C1.56700338,11.5 0,9.93299662 0,8 C0,6.1314366 1.4642776,4.60487355 3.3079648,4.50517886 L3.5,4.5 L5.48008896,4.5 C5.59054987,4.49999284 5.68009612,4.58953909 5.68009612,4.7 C5.68009612,4.75468232 5.65770727,4.80698017 5.61813962,4.84472347 Z" id="Rectangle" fill="#233745" fill-rule="nonzero"></path>
        <path d="M7,7.31772543 L7,8 L7,8 C7,8.77969612 7.59488808,9.42044868 8.35553999,9.49313342 L8.5,9.5 L12.5,9.5 C13.3284271,9.5 14,8.82842712 14,8 C14,7.22030388 13.4051119,6.57955132 12.64446,6.50686658 L12.5,6.5 L11.5,6.5 C11.4277848,6.16757487 11.2611182,5.82728353 11,5.47912598 C10.8357132,5.26007685 10.6428399,5.04965024 10.4213802,4.84784613 C10.3397182,4.77345464 10.3338434,4.64694738 10.4082473,4.56529663 C10.4461487,4.52370361 10.4998174,4.5 10.556089,4.5 L12.5,4.5 L12.5,4.5 C14.4329966,4.5 16,6.06700338 16,8 C16,9.8685634 14.5357224,11.3951264 12.6920352,11.4948211 L12.5,11.5 L8.5,11.5 C6.6314366,11.5 5.10487355,10.0357224 5.00517886,8.1920352 L5,8 L5,7.31785953 C5.00002682,7.0969561 5.17909657,6.91787434 5.4,6.91783271 L6.6,6.91775225 C6.8209139,6.91771062 7.00001201,7.09678472 7.00002682,7.31769862 C7.00002682,7.31770755 7.00002682,7.31771649 7,7.31772543 Z" id="Rectangle" fill="#233745" fill-rule="nonzero" transform="translate(10.500000, 8.000000) scale(1, -1) translate(-10.500000, -8.000000) "></path>
    </g>
</svg>