<svg xmlns="http://www.w3.org/2000/svg" viewBox="0 0 15 12">
  <path d="M7.29984282 0c4.03159188 0 7.29984278 3.26825095 7.29984278 7.29984282 0 1.56775718-.2586368 2.73240478-.7759105 3.49394288-.1861548.2740326-.4959339.4380998-.8272154.4380998H1.63142422c-.33907458 0-.65505115-.1718055-.83936643-.4564095C.26401926 9.96012373 0 8.80157933 0 7.29984282 0 3.26825095 3.26825095 0 7.29984282 0zM7.3 2.9c-.2954834 0-1.5 4.67157288-1.5 5.5 0 .82842712.67157288 1.5 1.5 1.5s1.5-.67157288 1.5-1.5-1.2045166-5.5-1.5-5.5zM2.45 8c-.41421356 0-.75.33578644-.75.75s.33578644.75.75.75.75-.33578644.75-.75S2.86421356 8 2.45 8zm9.7 0c-.4142136 0-.75.33578644-.75.75s.3357864.75.75.75.75-.33578644.75-.75-.3357864-.75-.75-.75zm-9.1-4.1c-.41421356 0-.75.33578644-.75.75s.33578644.75.75.75.75-.33578644.75-.75-.33578644-.75-.75-.75zm8.5 0c-.4142136 0-.75.33578644-.75.75s.3357864.75.75.75.75-.33578644.75-.75-.3357864-.75-.75-.75z" fill="CurrentColor" fill-rule="evenodd"/>
</svg>
