<?xml version="1.0" encoding="UTF-8"?>
<svg width="16px" height="16px" viewBox="0 0 16 16" version="1.1" xmlns="http://www.w3.org/2000/svg" xmlns:xlink="http://www.w3.org/1999/xlink">
    <title>Icons/Standards/speed-fast</title>
    <g id="Icons/Standards/speed-fast" stroke="none" stroke-width="1" fill="none" fill-rule="evenodd">
        <rect id="Spacer" fill-opacity="0" fill="#D8D8D8" x="0" y="0" width="16" height="16"></rect>
        <path d="M7.99984282,3.15 C9.80853197,3.15 11.4459927,3.88311613 12.6312811,5.06840455 C13.8165695,6.25369296 14.5496856,7.89115367 14.5496856,9.69984282 C14.5496856,10.9711785 14.3846191,11.9533007 13.9968482,12.6232833 L13.903383,12.7723433 L10.7646255,12.8025115 C11.0088099,12.7588596 11.2536565,12.7127523 11.4928044,12.6651606 C12.32645,12.4992608 13.0716855,12.2831351 13.6640239,11.3533097 C13.8337283,11.0869156 13.9450363,10.8339074 14.0127292,10.5890648 C13.7614593,10.4621646 13.531286,10.351579 13.3355793,10.2647681 C12.9259652,10.083073 12.3378077,9.85935518 11.7044755,9.6381222 C10.3195247,9.15433687 8.72283002,8.69505093 8.25670847,8.66245653 L8.25670847,8.66245653 L8.07210271,8.65702454 L7.89058157,8.66637506 C7.4111874,8.71054223 6.97128823,8.90665883 6.62362359,9.20887909 C6.18904278,9.58665442 5.89857841,10.1302167 5.85523729,10.7500236 C5.81189618,11.3698304 6.02388452,11.9485277 6.40165985,12.3831085 C6.55696749,12.5617695 6.74029517,12.716073 6.94542124,12.8388619 L2.33139468,12.8818855 C1.65547395,12.0480761 1.45,11.0187035 1.45,9.69984282 C1.45,7.89115367 2.18311613,6.25369296 3.36840455,5.06840455 C4.55369296,3.88311613 6.19115367,3.15 7.99984282,3.15 Z M3.15,9.65 C2.73578644,9.65 2.36078644,9.81789322 2.08933983,10.0893398 C1.81789322,10.3607864 1.65,10.7357864 1.65,11.15 C1.65,11.5642136 1.81789322,11.9392136 2.08933983,12.2106602 C2.36078644,12.4821068 2.73578644,12.65 3.15,12.65 C3.56421356,12.65 3.93921356,12.4821068 4.21066017,12.2106602 C4.48210678,11.9392136 4.65,11.5642136 4.65,11.15 C4.65,10.7357864 4.48210678,10.3607864 4.21066017,10.0893398 C3.93921356,9.81789322 3.56421356,9.65 3.15,9.65 Z M3.75,5.55 C3.33578644,5.55 2.96078644,5.71789322 2.68933983,5.98933983 C2.41789322,6.26078644 2.25,6.63578644 2.25,7.05 C2.25,7.46421356 2.41789322,7.83921356 2.68933983,8.11066017 C2.96078644,8.38210678 3.33578644,8.55 3.75,8.55 C4.16421356,8.55 4.53921356,8.38210678 4.81066017,8.11066017 C5.08210678,7.83921356 5.25,7.46421356 5.25,7.05 C5.25,6.63578644 5.08210678,6.26078644 4.81066017,5.98933983 C4.53921356,5.71789322 4.16421356,5.55 3.75,5.55 Z M12.25,5.55 C11.8357864,5.55 11.4607864,5.71789322 11.1893398,5.98933983 C10.9178932,6.26078644 10.75,6.63578644 10.75,7.05 C10.75,7.46421356 10.9178932,7.83921356 11.1893398,8.11066017 C11.4607864,8.38210678 11.8357864,8.55 12.25,8.55 C12.6642136,8.55 13.0392136,8.38210678 13.3106602,8.11066017 C13.5821068,7.83921356 13.75,7.46421356 13.75,7.05 C13.75,6.63578644 13.5821068,6.26078644 13.3106602,5.98933983 C13.0392136,5.71789322 12.6642136,5.55 12.25,5.55 Z M8,3.25 C7.58578644,3.25 7.21078644,3.41789322 6.93933983,3.68933983 C6.66789322,3.96078644 6.5,4.33578644 6.5,4.75 C6.5,5.16421356 6.66789322,5.53921356 6.93933983,5.81066017 C7.21078644,6.08210678 7.58578644,6.25 8,6.25 C8.41421356,6.25 8.78921356,6.08210678 9.06066017,5.81066017 C9.33210678,5.53921356 9.5,5.16421356 9.5,4.75 C9.5,4.33578644 9.33210678,3.96078644 9.06066017,3.68933983 C8.78921356,3.41789322 8.41421356,3.25 8,3.25 Z" id="Combined-Shape" stroke="#233745" stroke-width="1.5" fill="#233745"></path>
    </g>
</svg>