<svg xmlns="http://www.w3.org/2000/svg" xmlns:xlink="http://www.w3.org/1999/xlink" viewBox="0 0 15 12">
  <defs>
    <path d="M7.29984282 0c4.03159188 0 7.29984278 3.26825095 7.29984278 7.29984282 0 1.56775718-.2586368 2.73240478-.7759105 3.49394288-.1861548.2740326-.4959339.4380998-.8272154.4380998H1.63142422c-.33907458.0000133-.65505115-.1718055-.83936643-.4564095C.26401926 9.96012373 0 8.80157933 0 7.29984282 0 3.26825095 3.26825095 0 7.29984282 0zm-.10696433 7.00791104c-.82729179.04335653-5.42942291 1.49071362-5.41395851 1.78579206.01546441.29507845 4.74367459 1.2534531 5.57096638 1.2100965.82729179-.04335648 1.46279689-.7491564 1.41944037-1.57644819-.04335653-.82729179-.74915644-1.46279689-1.57644824-1.41944037zM12.15 8c-.4142136 0-.75.33578644-.75.75s.3357864.75.75.75.75-.33578644.75-.75-.3357864-.75-.75-.75zm-9.1-4.1c-.41421356 0-.75.33578644-.75.75s.33578644.75.75.75.75-.33578644.75-.75-.33578644-.75-.75-.75zm8.5 0c-.4142136 0-.75.33578644-.75.75s.3357864.75.75.75.75-.33578644.75-.75-.3357864-.75-.75-.75zM7.3 1.6c-.41421356 0-.75.33578644-.75.75s.33578644.75.75.75.75-.33578644.75-.75-.33578644-.75-.75-.75z" id="a"/>
  </defs>
  <use fill="CurrentColor" xlink:href="#a" fill-rule="evenodd"/>
</svg>
