<?xml version="1.0" encoding="UTF-8"?>
<svg width="16px" height="16px" viewBox="0 0 16 16" version="1.1" xmlns="http://www.w3.org/2000/svg" xmlns:xlink="http://www.w3.org/1999/xlink">
    <title>Icons/Standards/speed-slow</title>
    <g id="Icons/Standards/speed-slow" stroke="none" stroke-width="1" fill="none" fill-rule="evenodd">
        <rect id="Spacer" fill-opacity="0" fill="#D8D8D8" x="0" y="0" width="16" height="16"></rect>
        <path d="M7.99984282,2.4 C12.0314347,2.4 15.2996856,5.66825095 15.2996856,9.69984282 C15.2996856,11.2676 15.0410488,12.4322476 14.5237751,13.1937857 C14.3376203,13.4678183 14.0278412,13.6318855 13.6965597,13.6318855 L2.33142422,13.6318855 C1.99234964,13.6318988 1.67637307,13.46008 1.49205779,13.175476 C0.964019263,12.3601237 0.7,11.2015793 0.7,9.69984282 C0.7,5.66825095 3.96825095,2.4 7.99984282,2.4 Z M7.89287849,9.40791104 C7.0655867,9.45126757 2.46345558,10.8986247 2.47891998,11.1937031 C2.49438439,11.4887816 7.22259457,12.4471562 8.04988636,12.4037996 C8.87717815,12.3604431 9.51268325,11.6546432 9.46932673,10.8273514 C9.4259702,10.0000596 8.72017029,9.36455452 7.89287849,9.40791104 Z M12.85,10.4 C12.4357864,10.4 12.1,10.7357864 12.1,11.15 C12.1,11.5642136 12.4357864,11.9 12.85,11.9 C13.2642136,11.9 13.6,11.5642136 13.6,11.15 C13.6,10.7357864 13.2642136,10.4 12.85,10.4 Z M3.75,6.3 C3.33578644,6.3 3,6.63578644 3,7.05 C3,7.46421356 3.33578644,7.8 3.75,7.8 C4.16421356,7.8 4.5,7.46421356 4.5,7.05 C4.5,6.63578644 4.16421356,6.3 3.75,6.3 Z M12.25,6.3 C11.8357864,6.3 11.5,6.63578644 11.5,7.05 C11.5,7.46421356 11.8357864,7.8 12.25,7.8 C12.6642136,7.8 13,7.46421356 13,7.05 C13,6.63578644 12.6642136,6.3 12.25,6.3 Z M8,4 C7.58578644,4 7.25,4.33578644 7.25,4.75 C7.25,5.16421356 7.58578644,5.5 8,5.5 C8.41421356,5.5 8.75,5.16421356 8.75,4.75 C8.75,4.33578644 8.41421356,4 8,4 Z" id="Combined-Shape" fill="#233745"></path>
    </g>
</svg>