<?xml version="1.0" encoding="UTF-8"?>
<svg width="16px" height="16px" viewBox="0 0 16 16" version="1.1" xmlns="http://www.w3.org/2000/svg" xmlns:xlink="http://www.w3.org/1999/xlink">
    <title>Icons/Standards/speed-med</title>
    <g id="Icons/Standards/speed-med" stroke="none" stroke-width="1" fill="none" fill-rule="evenodd">
        <rect id="Spacer" fill-opacity="0" fill="#D8D8D8" x="0" y="0" width="16" height="16"></rect>
        <path d="M7.99984282,3.15 C9.80853197,3.15 11.4459927,3.88311613 12.6312811,5.06840455 C13.8165695,6.25369296 14.5496856,7.89115367 14.5496856,9.69984282 C14.5496856,10.9711785 14.3846191,11.9533007 13.9968482,12.6232833 L13.903383,12.7723433 L8.9918868,12.8201316 C9.21490428,12.7104222 9.41711078,12.5648697 9.59099026,12.3909903 C9.99816017,11.9838203 10.25,11.4213203 10.25,10.8 C10.25,10.3327402 9.90321264,8.7078969 9.51721508,7.29257253 C9.34070003,6.64535067 9.15855502,6.04302012 9.0058757,5.62172946 C8.92516434,5.39902123 8.84956386,5.22043532 8.78631683,5.09903756 C8.7305317,4.99196236 8.67545812,4.91196513 8.6293999,4.85663384 C8.4530829,4.64481827 8.402051,4.24332393 7.59379734,4.67484723 C7.55852504,4.69367896 7.52537332,4.71219505 7.49423074,4.73040915 C7.44210477,4.77688797 7.40132057,4.8197283 7.21368317,5.09903756 C7.15043614,5.22043532 7.07483566,5.39902123 6.9941243,5.62172946 C6.84144498,6.04302012 6.65929997,6.64535067 6.48278492,7.29257253 C6.09678736,8.7078969 5.75,10.3327402 5.75,10.8 C5.75,11.4213203 6.00183983,11.9838203 6.40900974,12.3909903 C6.59287641,12.5748569 6.80841761,12.7270491 7.04674638,12.8386797 L2.33139468,12.8818855 C1.65547395,12.0480761 1.45,11.0187035 1.45,9.69984282 C1.45,7.89115367 2.18311613,6.25369296 3.36840455,5.06840455 C4.55369296,3.88311613 6.19115367,3.15 7.99984282,3.15 Z M3.15,9.65 C2.73578644,9.65 2.36078644,9.81789322 2.08933983,10.0893398 C1.81789322,10.3607864 1.65,10.7357864 1.65,11.15 C1.65,11.5642136 1.81789322,11.9392136 2.08933983,12.2106602 C2.36078644,12.4821068 2.73578644,12.65 3.15,12.65 C3.56421356,12.65 3.93921356,12.4821068 4.21066017,12.2106602 C4.48210678,11.9392136 4.65,11.5642136 4.65,11.15 C4.65,10.7357864 4.48210678,10.3607864 4.21066017,10.0893398 C3.93921356,9.81789322 3.56421356,9.65 3.15,9.65 Z M12.85,9.65 C12.4357864,9.65 12.0607864,9.81789322 11.7893398,10.0893398 C11.5178932,10.3607864 11.35,10.7357864 11.35,11.15 C11.35,11.5642136 11.5178932,11.9392136 11.7893398,12.2106602 C12.0607864,12.4821068 12.4357864,12.65 12.85,12.65 C13.2642136,12.65 13.6392136,12.4821068 13.9106602,12.2106602 C14.1821068,11.9392136 14.35,11.5642136 14.35,11.15 C14.35,10.7357864 14.1821068,10.3607864 13.9106602,10.0893398 C13.6392136,9.81789322 13.2642136,9.65 12.85,9.65 Z M3.75,5.55 C3.33578644,5.55 2.96078644,5.71789322 2.68933983,5.98933983 C2.41789322,6.26078644 2.25,6.63578644 2.25,7.05 C2.25,7.46421356 2.41789322,7.83921356 2.68933983,8.11066017 C2.96078644,8.38210678 3.33578644,8.55 3.75,8.55 C4.16421356,8.55 4.53921356,8.38210678 4.81066017,8.11066017 C5.08210678,7.83921356 5.25,7.46421356 5.25,7.05 C5.25,6.63578644 5.08210678,6.26078644 4.81066017,5.98933983 C4.57314439,5.75182405 4.25634554,5.59359133 3.90336629,5.55774433 L3.90336629,5.55774433 Z M12.25,5.55 C11.8357864,5.55 11.4607864,5.71789322 11.1893398,5.98933983 C10.9178932,6.26078644 10.75,6.63578644 10.75,7.05 C10.75,7.46421356 10.9178932,7.83921356 11.1893398,8.11066017 C11.4607864,8.38210678 11.8357864,8.55 12.25,8.55 C12.6642136,8.55 13.0392136,8.38210678 13.3106602,8.11066017 C13.5821068,7.83921356 13.75,7.46421356 13.75,7.05 C13.75,6.63578644 13.5821068,6.26078644 13.3106602,5.98933983 C13.0392136,5.71789322 12.6642136,5.55 12.25,5.55 Z" id="Combined-Shape" stroke="#233745" stroke-width="1.5" fill="#233745"></path>
    </g>
</svg>