<svg xmlns="http://www.w3.org/2000/svg" viewBox="0 0 15 12">
  <path d="M7.29984282 0c4.03159188 0 7.29984278 3.26825095 7.29984278 7.29984282 0 1.56775718-.2586368 2.73240478-.7759105 3.49394288-.1861548.2740326-.4959339.4380998-.8272154.4380998H1.63142422c-.33907458 0-.65505115-.1718055-.83936643-.4564095C.26401926 9.96012373 0 8.80157933 0 7.29984282 0 3.26825095 3.26825095 0 7.29984282 0zM5.90341033 8.40234094c-.05778816.82640911.56530225 1.54319263 1.39171136 1.60098076.82640912.0577882 5.57062511-.81792183 5.59137531-1.11268545.0204736-.29476361-4.55569677-1.82221852-5.38210588-1.88000668-.82640912-.05778815-1.54319264.56530225-1.60098079 1.39171137zM2.45 8c-.41421356 0-.75.33578644-.75.75s.33578644.75.75.75.75-.33578644.75-.75S2.86421356 8 2.45 8zm.6-4.1c-.41421356 0-.75.33578644-.75.75s.33578644.75.75.75.75-.33578644.75-.75-.33578644-.75-.75-.75zm8.5 0c-.4142136 0-.75.33578644-.75.75s.3357864.75.75.75.75-.33578644.75-.75-.3357864-.75-.75-.75zM7.3 1.6c-.41421356 0-.75.33578644-.75.75s.33578644.75.75.75.75-.33578644.75-.75-.33578644-.75-.75-.75z" fill="CurrentColor" fill-rule="evenodd"/>
</svg>
