<?xml version="1.0" encoding="UTF-8"?>
<svg width="16px" height="16px" viewBox="0 0 16 16" version="1.1" xmlns="http://www.w3.org/2000/svg" xmlns:xlink="http://www.w3.org/1999/xlink">
    <title>Icons/Social/domain</title>
    <defs>
        <path d="M12.4444445,7.11111111 L11.5555556,7.11111111 L11.5555556,8 L12.4444445,8 L12.4444445,7.11111111 Z M8,4.44444442 L8,1.77777774 L0.888888844,1.77777774 L0.888888844,14.2222223 L15.1111112,14.2222223 L15.1111112,4.44444442 L8,4.44444442 Z M3.55555553,12.4444445 L2.66666663,12.4444445 L2.66666663,11.5555556 L3.55555553,11.5555556 L3.55555553,12.4444445 Z M3.55555553,9.77777779 L2.66666663,9.77777779 L2.66666663,8.88888889 L3.55555553,8.88888889 L3.55555553,9.77777779 Z M3.55555553,7.11111111 L2.66666663,7.11111111 L2.66666663,6.22222221 L3.55555553,6.22222221 L3.55555553,7.11111111 Z M3.55555553,4.44444442 L2.66666663,4.44444442 L2.66666663,3.55555553 L3.55555553,3.55555553 L3.55555553,4.44444442 Z M6.22222221,12.4444445 L5.33333332,12.4444445 L5.33333332,11.5555556 L6.22222221,11.5555556 L6.22222221,12.4444445 Z M6.22222221,9.77777779 L5.33333332,9.77777779 L5.33333332,8.88888889 L6.22222221,8.88888889 L6.22222221,9.77777779 Z M6.22222221,7.11111111 L5.33333332,7.11111111 L5.33333332,6.22222221 L6.22222221,6.22222221 L6.22222221,7.11111111 Z M6.22222221,4.44444442 L5.33333332,4.44444442 L5.33333332,3.55555553 L6.22222221,3.55555553 L6.22222221,4.44444442 Z M13.3333334,12.4444445 L8,12.4444445 L8,6.22222221 L13.3333334,6.22222221 L13.3333334,12.4444445 Z M9.77777779,7.11111111 L8.88888889,7.11111111 L8.88888889,8 L9.77777779,8 L9.77777779,7.11111111 Z M12.4444445,10.6666667 L11.5555556,10.6666667 L11.5555556,11.5555556 L12.4444445,11.5555556 L12.4444445,10.6666667 Z M9.77777779,10.6666667 L8.88888889,10.6666667 L8.88888889,11.5555556 L9.77777779,11.5555556 L9.77777779,10.6666667 Z" id="path-1"></path>
    </defs>
    <g id="Icons/Social/domain" stroke="none" stroke-width="1" fill="none" fill-rule="evenodd">
        <mask id="mask-2" fill="white">
            <use xlink:href="#path-1"></use>
        </mask>
        <use id="Icons/Social/ic_domain_18px" fill="#233745" fill-rule="nonzero" xlink:href="#path-1"></use>
    </g>
</svg>