<?xml version="1.0" encoding="UTF-8"?>
<svg width="16px" height="16px" viewBox="0 0 16 16" version="1.1" xmlns="http://www.w3.org/2000/svg" xmlns:xlink="http://www.w3.org/1999/xlink">
    <title>Icons/Social/group-add</title>
    <defs>
        <path d="M8,7.11111111 C8.98666667,7.11111111 9.77777779,6.3111111 9.77777779,5.33333332 C9.77777779,4.35555553 8.98666667,3.55555553 8,3.55555553 C7.02222222,3.55555553 6.22222221,4.35555553 6.22222221,5.33333332 C6.22222221,6.3111111 7.02222222,7.11111111 8,7.11111111 Z M11.5555556,7.11111111 C12.5422223,7.11111111 13.3333334,6.3111111 13.3333334,5.33333332 C13.3333334,4.35555553 12.5422223,3.55555553 11.5555556,3.55555553 C11.2355556,3.55555553 10.9422222,3.64444442 10.6844445,3.79555553 C10.9511111,4.24888887 11.1111111,4.77333331 11.1111111,5.33333332 C11.1111111,5.89333332 10.9511111,6.41777777 10.6844445,6.8711111 C10.9422222,7.02222222 11.2444445,7.11111111 11.5555556,7.11111111 Z M8,8.17777778 C6.51555555,8.17777778 3.55555553,8.91555556 3.55555553,10.4 L3.55555553,11.5555556 L12.4444445,11.5555556 L12.4444445,10.4 C12.4444445,8.91555556 9.48444445,8.17777778 8,8.17777778 Z M4.44444442,6.22222221 L2.66666663,6.22222221 L2.66666663,4.44444442 L1.77777774,4.44444442 L1.77777774,6.22222221 L-5.00000006e-08,6.22222221 L-5.00000006e-08,7.11111111 L1.77777774,7.11111111 L1.77777774,8.88888889 L2.66666663,8.88888889 L2.66666663,7.11111111 L4.44444442,7.11111111 L4.44444442,6.22222221 Z M12.6488889,8.27555556 C13.3155556,8.80888889 13.7777778,9.50222223 13.7777778,10.4 L13.7777778,11.5555556 L16.0000001,11.5555556 L16.0000001,10.4 C16.0000001,9.23555556 14.16,8.52444445 12.6488889,8.27555556 L12.6488889,8.27555556 Z" id="path-1"></path>
    </defs>
    <g id="Icons/Social/group-add" stroke="none" stroke-width="1" fill="none" fill-rule="evenodd">
        <mask id="mask-2" fill="white">
            <use xlink:href="#path-1"></use>
        </mask>
        <use id="Icons/Social/ic_group_add_18px" fill="#233745" fill-rule="nonzero" xlink:href="#path-1"></use>
    </g>
</svg>