<svg xmlns="http://www.w3.org/2000/svg" xmlns:xlink="http://www.w3.org/1999/xlink" width="16" height="16" viewBox="0 0 16 16">
  <defs>
    <path id="location-city-a" d="M10.6666667,7.11111111 L10.6666667,3.11111108 L8.44444445,0.888888844 L6.22222221,3.11111108 L6.22222221,4.44444442 L1.77777774,4.44444442 L1.77777774,14.2222223 L15.1111112,14.2222223 L15.1111112,7.11111111 L10.6666667,7.11111111 Z M4.44444442,12.4444445 L3.55555553,12.4444445 L3.55555553,11.5555556 L4.44444442,11.5555556 L4.44444442,12.4444445 Z M4.44444442,9.77777779 L3.55555553,9.77777779 L3.55555553,8.88888889 L4.44444442,8.88888889 L4.44444442,9.77777779 Z M4.44444442,7.11111111 L3.55555553,7.11111111 L3.55555553,6.22222221 L4.44444442,6.22222221 L4.44444442,7.11111111 Z M8.88888889,12.4444445 L8,12.4444445 L8,11.5555556 L8.88888889,11.5555556 L8.88888889,12.4444445 Z M8.88888889,9.77777779 L8,9.77777779 L8,8.88888889 L8.88888889,8.88888889 L8.88888889,9.77777779 Z M8.88888889,7.11111111 L8,7.11111111 L8,6.22222221 L8.88888889,6.22222221 L8.88888889,7.11111111 Z M8.88888889,4.44444442 L8,4.44444442 L8,3.55555553 L8.88888889,3.55555553 L8.88888889,4.44444442 Z M13.3333334,12.4444445 L12.4444445,12.4444445 L12.4444445,11.5555556 L13.3333334,11.5555556 L13.3333334,12.4444445 Z M13.3333334,9.77777779 L12.4444445,9.77777779 L12.4444445,8.88888889 L13.3333334,8.88888889 L13.3333334,9.77777779 Z"/>
  </defs>
  <g fill="none" fill-rule="evenodd">
    <mask id="location-city-b" fill="#fff">
      <use xlink:href="#location-city-a"/>
    </mask>
    <g fill="CurrentColor" mask="url(#location-city-b)">
      <rect width="16" height="16"/>
    </g>
  </g>
</svg>
