<?xml version="1.0" encoding="UTF-8"?>
<svg width="16px" height="16px" viewBox="0 0 16 16" version="1.1" xmlns="http://www.w3.org/2000/svg" xmlns:xlink="http://www.w3.org/1999/xlink">
    <title>Icons/Social/mood-bad</title>
    <defs>
        <path d="M7.99333333,1.33333329 C4.31333331,1.33333329 1.33333329,4.31999998 1.33333329,8 C1.33333329,11.68 4.31333331,14.6666667 7.99333333,14.6666667 C11.68,14.6666667 14.6666667,11.68 14.6666667,8 C14.6666667,4.31999998 11.68,1.33333329 7.99333333,1.33333329 Z M8,13.3333334 C5.05333331,13.3333334 2.66666663,10.9466667 2.66666663,8 C2.66666663,5.05333331 5.05333331,2.66666663 8,2.66666663 C10.9466667,2.66666663 13.3333334,5.05333331 13.3333334,8 C13.3333334,10.9466667 10.9466667,13.3333334 8,13.3333334 Z M10.3333333,7.33333332 C10.8866667,7.33333332 11.3333333,6.88666666 11.3333333,6.33333332 C11.3333333,5.77999999 10.8866667,5.33333332 10.3333333,5.33333332 C9.78000001,5.33333332 9.33333334,5.77999999 9.33333334,6.33333332 C9.33333334,6.88666666 9.78000001,7.33333332 10.3333333,7.33333332 Z M5.66666665,7.33333332 C6.21999999,7.33333332 6.66666665,6.88666666 6.66666665,6.33333332 C6.66666665,5.77999999 6.21999999,5.33333332 5.66666665,5.33333332 C5.11333332,5.33333332 4.66666665,5.77999999 4.66666665,6.33333332 C4.66666665,6.88666666 5.11333332,7.33333332 5.66666665,7.33333332 Z M8,9.33333334 C6.44666666,9.33333334 5.12666665,10.3066667 4.59333331,11.6666667 L11.4066667,11.6666667 C10.8733334,10.3066667 9.55333334,9.33333334 8,9.33333334 Z" id="path-1"></path>
    </defs>
    <g id="Icons/Social/mood-bad" stroke="none" stroke-width="1" fill="none" fill-rule="evenodd">
        <mask id="mask-2" fill="white">
            <use xlink:href="#path-1"></use>
        </mask>
        <use id="Icons/Social/ic_mood_bad_24px" fill="#233745" fill-rule="nonzero" xlink:href="#path-1"></use>
    </g>
</svg>