<?xml version="1.0" encoding="UTF-8"?>
<svg width="16px" height="16px" viewBox="0 0 16 16" version="1.1" xmlns="http://www.w3.org/2000/svg" xmlns:xlink="http://www.w3.org/1999/xlink">
    <title>Icons/Social/mood</title>
    <defs>
        <path d="M5.33333332,7.11111111 C5.82222221,7.11111111 6.22222221,6.7111111 6.22222221,6.22222221 C6.22222221,5.73333332 5.82222221,5.33333332 5.33333332,5.33333332 C4.84444442,5.33333332 4.44444442,5.73333332 4.44444442,6.22222221 C4.44444442,6.7111111 4.84444442,7.11111111 5.33333332,7.11111111 Z M10.6666667,7.11111111 C11.1555556,7.11111111 11.5555556,6.7111111 11.5555556,6.22222221 C11.5555556,5.73333332 11.1555556,5.33333332 10.6666667,5.33333332 C10.1777778,5.33333332 9.77777779,5.73333332 9.77777779,6.22222221 C9.77777779,6.7111111 10.1777778,7.11111111 10.6666667,7.11111111 Z M8,12 C9.90222223,12 11.4844445,10.6666667 11.8933334,8.88888889 L4.10666664,8.88888889 C4.51555553,10.6666667 6.09777777,12 8,12 Z M8,0.888888844 C4.0622222,0.888888844 0.888888844,4.07111109 0.888888844,8 C0.888888844,11.9288889 4.0622222,15.1111112 8,15.1111112 C11.9377778,15.1111112 15.1111112,11.9288889 15.1111112,8 C15.1111112,4.07111109 11.9288889,0.888888844 8,0.888888844 Z M8,13.7777778 C4.80888887,13.7777778 2.22222219,11.1911111 2.22222219,8 C2.22222219,4.80888887 4.80888887,2.22222219 8,2.22222219 C11.1911111,2.22222219 13.7777778,4.80888887 13.7777778,8 C13.7777778,11.1911111 11.1911111,13.7777778 8,13.7777778 Z" id="path-1"></path>
    </defs>
    <g id="Icons/Social/mood" stroke="none" stroke-width="1" fill="none" fill-rule="evenodd">
        <mask id="mask-2" fill="white">
            <use xlink:href="#path-1"></use>
        </mask>
        <use id="Icons/Social/ic_mood_18px" fill="#233745" fill-rule="nonzero" xlink:href="#path-1"></use>
    </g>
</svg>