<?xml version="1.0" encoding="UTF-8"?>
<svg width="16px" height="16px" viewBox="0 0 16 16" version="1.1" xmlns="http://www.w3.org/2000/svg" xmlns:xlink="http://www.w3.org/1999/xlink">
    <title>Icons/Social/notifications-active</title>
    <g id="Icons/Social/notifications-active" stroke="none" stroke-width="1" fill="none" fill-rule="evenodd">
        <rect id="Spacer" fill-opacity="0" fill="#D8D8D8" x="0" y="0" width="16" height="16"></rect>
        <path d="M5.05333331,2.71999997 L4.09999998,1.76666663 C2.49999997,2.98666664 1.44666663,4.86666665 1.35333329,6.99999999 L2.68666663,6.99999999 C2.78666663,5.23333332 3.69333331,3.68666664 5.05333331,2.71999997 L5.05333331,2.71999997 Z M13.3133334,6.99999999 L14.6466667,6.99999999 C14.5466667,4.86666665 13.4933334,2.98666664 11.9,1.76666663 L10.9533334,2.71999997 C12.3,3.68666664 13.2133334,5.23333332 13.3133334,6.99999999 Z M12,7.33333333 C12,5.28666665 10.9066667,3.57333331 9.00000001,3.11999997 L9.00000001,2.66666663 C9.00000001,2.1133333 8.55333334,1.66666663 8,1.66666663 C7.44666666,1.66666663 6.99999999,2.1133333 6.99999999,2.66666663 L6.99999999,3.11999997 C5.08666665,3.57333331 3.99999997,5.27999998 3.99999997,7.33333333 L3.99999997,10.6666666 L2.66666663,12 L2.66666663,12.6666666 L13.3333334,12.6666666 L13.3333334,12 L12,10.6666666 L12,7.33333333 Z M8,14.6666667 C8.09333333,14.6666667 8.18,14.66 8.26666667,14.64 C8.7,14.5466667 9.05333334,14.2533334 9.22666667,13.8533334 C9.29333334,13.6933334 9.32666667,13.52 9.32666667,13.3333334 L6.65999999,13.3333334 C6.66666666,14.0666667 7.26,14.6666667 8,14.6666667 Z" id="Icons/Social/ic_notifications_active_24px" fill="#233745" fill-rule="nonzero"></path>
    </g>
</svg>