<?xml version="1.0" encoding="UTF-8"?>
<svg width="16px" height="16px" viewBox="0 0 16 16" version="1.1" xmlns="http://www.w3.org/2000/svg" xmlns:xlink="http://www.w3.org/1999/xlink">
    <title>Icons/Social/notifications</title>
    <g id="Icons/Social/notifications" stroke="none" stroke-width="1" fill="none" fill-rule="evenodd">
        <rect id="Spacer" fill-opacity="0" fill="#D8D8D8" x="0" y="0" width="16" height="16"></rect>
        <path d="M8,14.6666667 C8.73333334,14.6666667 9.33333334,14.0666667 9.33333334,13.3333334 L6.66666666,13.3333334 C6.66666666,14.0666667 7.26,14.6666667 8,14.6666667 Z M12,10.6666666 L12,7.33333333 C12,5.28666665 10.9066667,3.57333331 9.00000001,3.11999997 L9.00000001,2.66666663 C9.00000001,2.1133333 8.55333334,1.66666663 8,1.66666663 C7.44666666,1.66666663 6.99999999,2.1133333 6.99999999,2.66666663 L6.99999999,3.11999997 C5.08666665,3.57333331 3.99999997,5.27999998 3.99999997,7.33333333 L3.99999997,10.6666666 L2.66666663,12 L2.66666663,12.6666666 L13.3333334,12.6666666 L13.3333334,12 L12,10.6666666 Z" id="Icons/Social/ic_notifications_24px" fill="#233745" fill-rule="nonzero"></path>
    </g>
</svg>