<?xml version="1.0" encoding="UTF-8"?>
<svg width="16px" height="16px" viewBox="0 0 16 16" version="1.1" xmlns="http://www.w3.org/2000/svg" xmlns:xlink="http://www.w3.org/1999/xlink">
    <title>Icons/Social/notifications-off</title>
    <g id="Icons/Social/notifications-off" stroke="none" stroke-width="1" fill="none" fill-rule="evenodd">
        <rect id="Spacer" fill-opacity="0" fill="#D8D8D8" x="0" y="0" width="16" height="16"></rect>
        <path d="M13.3333334,12.46 L5.22666665,4.09333331 L3.51333331,2.32666663 L2.66666663,3.1733333 L4.53333331,5.03999998 L4.53333331,5.04666665 C4.18666664,5.70666665 3.99999998,6.48666666 3.99999998,7.32666663 L3.99999998,10.66 L2.66666663,11.9933334 L2.66666663,12.66 L11.82,12.66 L13.1533334,13.9933334 L14,13.1466667 L13.3333334,12.46 L13.3333334,12.46 Z M8,14.6666667 C8.74,14.6666667 9.33333334,14.0733334 9.33333334,13.3333334 L6.66666666,13.3333334 C6.66666666,14.0733334 7.26,14.6666667 8,14.6666667 Z M12,9.78666668 L12,7.33333333 C12,5.27999998 10.9066667,3.57333331 9.00000001,3.11999997 L9.00000001,2.66666663 C9.00000001,2.1133333 8.55333334,1.66666663 8,1.66666663 C7.44666666,1.66666663 6.99999999,2.1133333 6.99999999,2.66666663 L6.99999999,3.11999997 C6.89999999,3.13999997 6.80666666,3.1733333 6.71999999,3.19999997 C6.65333332,3.21999997 6.58666666,3.24666664 6.51999999,3.2733333 L6.51333332,3.2733333 C6.50666666,3.2733333 6.50666666,3.2733333 6.49999999,3.27999997 C6.34666666,3.33999997 6.19333332,3.4133333 6.04666665,3.48666664 C6.04666665,3.48666664 6.03999999,3.48666664 6.03999999,3.49333331 L12,9.78666668 Z" id="Icons/Social/ic_notifications_off_24px" fill="#233745" fill-rule="nonzero"></path>
    </g>
</svg>