<?xml version="1.0" encoding="UTF-8"?>
<svg width="16px" height="16px" viewBox="0 0 16 16" version="1.1" xmlns="http://www.w3.org/2000/svg" xmlns:xlink="http://www.w3.org/1999/xlink">
    <title>Icons/Social/people-outline</title>
    <g id="Icons/Social/people-outline" stroke="none" stroke-width="1" fill="none" fill-rule="evenodd">
        <rect id="Spacer" fill-opacity="0" fill="#D8D8D8" x="0" y="0" width="16" height="16"></rect>
        <path d="M11,8.66666667 C10.2,8.66666667 8.95333334,8.89333334 8,9.33333334 C7.04666666,8.88666667 5.79999999,8.66666667 4.99999998,8.66666667 C3.55333331,8.66666667 0.666666621,9.38666668 0.666666621,10.8333334 L0.666666621,12.6666667 L15.3333334,12.6666667 L15.3333334,10.8333334 C15.3333334,9.38666668 12.4466667,8.66666667 11,8.66666667 Z M8.33333334,11.6666667 L1.66666663,11.6666667 L1.66666663,10.8333334 C1.66666663,10.4733333 3.3733333,9.66666668 4.99999998,9.66666668 C6.62666666,9.66666668 8.33333334,10.4733333 8.33333334,10.8333334 L8.33333334,11.6666667 Z M14.3333334,11.6666667 L9.33333334,11.6666667 L9.33333334,10.8333334 C9.33333334,10.5266667 9.20000001,10.26 8.98666667,10.02 C9.57333334,9.82000001 10.2933333,9.66666668 11,9.66666668 C12.6266667,9.66666668 14.3333334,10.4733333 14.3333334,10.8333334 L14.3333334,11.6666667 Z M4.99999998,8 C6.28666666,8 7.33333333,6.95333333 7.33333333,5.66666665 C7.33333333,4.37999998 6.28666666,3.3333333 4.99999998,3.3333333 C3.71333331,3.3333333 2.66666663,4.37999998 2.66666663,5.66666665 C2.66666663,6.95333333 3.71333331,8 4.99999998,8 Z M4.99999998,4.33333331 C5.73333332,4.33333331 6.33333332,4.93333331 6.33333332,5.66666665 C6.33333332,6.39999999 5.73333332,6.99999999 4.99999998,6.99999999 C4.26666664,6.99999999 3.66666664,6.39999999 3.66666664,5.66666665 C3.66666664,4.93333331 4.26666664,4.33333331 4.99999998,4.33333331 Z M11,8 C12.2866667,8 13.3333334,6.95333333 13.3333334,5.66666665 C13.3333334,4.37999998 12.2866667,3.3333333 11,3.3333333 C9.71333334,3.3333333 8.66666667,4.37999998 8.66666667,5.66666665 C8.66666667,6.95333333 9.71333334,8 11,8 Z M11,4.33333331 C11.7333334,4.33333331 12.3333334,4.93333331 12.3333334,5.66666665 C12.3333334,6.39999999 11.7333334,6.99999999 11,6.99999999 C10.2666667,6.99999999 9.66666668,6.39999999 9.66666668,5.66666665 C9.66666668,4.93333331 10.2666667,4.33333331 11,4.33333331 Z" id="Icons/Social/ic_people_outline_24px" fill="#233745" fill-rule="nonzero"></path>
    </g>
</svg>