<?xml version="1.0" encoding="UTF-8"?>
<svg width="16px" height="16px" viewBox="0 0 16 16" version="1.1" xmlns="http://www.w3.org/2000/svg" xmlns:xlink="http://www.w3.org/1999/xlink">
    <title>Icons/Social/people</title>
    <g id="Icons/Social/people" stroke="none" stroke-width="1" fill="none" fill-rule="evenodd">
        <rect id="Spacer" fill-opacity="0" fill="#D8D8D8" x="0" y="0" width="16" height="16"></rect>
        <path d="M5.33333332,7.11111111 C6.31999999,7.11111111 7.11111111,6.3111111 7.11111111,5.33333332 C7.11111111,4.35555553 6.31999999,3.55555553 5.33333332,3.55555553 C4.35555553,3.55555553 3.55555553,4.35555553 3.55555553,5.33333332 C3.55555553,6.3111111 4.35555553,7.11111111 5.33333332,7.11111111 Z M10.6666667,7.11111111 C11.6533334,7.11111111 12.4444445,6.3111111 12.4444445,5.33333332 C12.4444445,4.35555553 11.6533334,3.55555553 10.6666667,3.55555553 C9.68000001,3.55555553 8.88888889,4.35555553 8.88888889,5.33333332 C8.88888889,6.3111111 9.6888889,7.11111111 10.6666667,7.11111111 Z M5.33333332,8.17777778 C3.84888886,8.17777778 0.888888844,8.91555556 0.888888844,10.4 L0.888888844,11.5555556 L9.77777779,11.5555556 L9.77777779,10.4 C9.77777779,8.91555556 6.81777777,8.17777778 5.33333332,8.17777778 Z M10.6666667,8.17777778 C10.4444445,8.17777778 10.1866667,8.19555556 9.92000001,8.23111111 C10.6222222,8.76444445 11.1111111,9.47555556 11.1111111,10.4 L11.1111111,11.5555556 L15.1111112,11.5555556 L15.1111112,10.4 C15.1111112,8.91555556 12.1511111,8.17777778 10.6666667,8.17777778 Z" id="Icons/Social/ic_people_18px" fill="#233745" fill-rule="nonzero"></path>
    </g>
</svg>