<?xml version="1.0" encoding="UTF-8"?>
<svg width="16px" height="16px" viewBox="0 0 16 16" version="1.1" xmlns="http://www.w3.org/2000/svg" xmlns:xlink="http://www.w3.org/1999/xlink">
    <title>Icons/Social/person-outline</title>
    <defs>
        <path d="M8,8.88888889 C5.92888888,8.88888889 1.77777774,9.9288889 1.77777774,12 L1.77777774,14.2222223 L14.2222223,14.2222223 L14.2222223,12 C14.2222223,9.9288889 10.0711111,8.88888889 8,8.88888889 Z M12.7022223,12.7022223 L3.29777775,12.7022223 L3.29777775,12 C3.38666664,11.5644445 5.59999999,10.4088889 8,10.4088889 C10.4,10.4088889 12.6133334,11.5644445 12.7022223,12 L12.7022223,12.7022223 Z M8,8 C9.97333335,8 11.5555556,6.40888888 11.5555556,4.44444442 C11.5555556,2.47999997 9.97333335,0.888888844 8,0.888888844 C6.03555554,0.888888844 4.45333331,2.47999997 4.45333331,4.44444442 C4.45333331,6.40888888 6.03555554,8 8,8 Z M8,2.40888885 C9.12000001,2.40888885 10.0266667,3.32444442 10.0266667,4.44444442 C10.0266667,5.56444443 9.12000001,6.47999999 8,6.47999999 C6.88888888,6.47999999 5.97333332,5.56444443 5.97333332,4.44444442 C5.97333332,3.32444442 6.88888888,2.40888885 8,2.40888885 Z" id="path-1"></path>
    </defs>
    <g id="Icons/Social/person-outline" stroke="none" stroke-width="1" fill="none" fill-rule="evenodd">
        <mask id="mask-2" fill="white">
            <use xlink:href="#path-1"></use>
        </mask>
        <use id="Icons/Social/ic_person_outline_18px" fill="#233745" fill-rule="nonzero" xlink:href="#path-1"></use>
    </g>
</svg>