<?xml version="1.0" encoding="UTF-8"?>
<svg width="16px" height="16px" viewBox="0 0 16 16" version="1.1" xmlns="http://www.w3.org/2000/svg" xmlns:xlink="http://www.w3.org/1999/xlink">
    <title>Icons/Social/person-add</title>
    <defs>
        <path d="M8.88888889,7.11111111 C10.3644445,7.11111111 11.5466667,5.91999999 11.5466667,4.44444442 C11.5466667,2.96888886 10.3644445,1.77777774 8.88888889,1.77777774 C7.41333333,1.77777774 6.22222221,2.96888886 6.22222221,4.44444442 C6.22222221,5.91999999 7.41333333,7.11111111 8.88888889,7.11111111 Z M3.55555553,8.88888889 L3.55555553,7.11111111 L5.33333332,7.11111111 L5.33333332,5.33333332 L3.55555553,5.33333332 L3.55555553,3.55555553 L1.77777774,3.55555553 L1.77777774,5.33333332 L-5.00000006e-08,5.33333332 L-5.00000006e-08,7.11111111 L1.77777774,7.11111111 L1.77777774,8.88888889 L3.55555553,8.88888889 Z M8.88888889,8.88888889 C6.81777777,8.88888889 2.66666663,9.9288889 2.66666663,12 L2.66666663,14.2222223 L15.1111112,14.2222223 L15.1111112,12 C15.1111112,9.9288889 10.96,8.88888889 8.88888889,8.88888889 Z" id="path-1"></path>
    </defs>
    <g id="Icons/Social/person-add" stroke="none" stroke-width="1" fill="none" fill-rule="evenodd">
        <mask id="mask-2" fill="white">
            <use xlink:href="#path-1"></use>
        </mask>
        <use id="Icons/Social/ic_person_add_18px" fill="#233745" fill-rule="nonzero" xlink:href="#path-1"></use>
    </g>
</svg>