<?xml version="1.0" encoding="UTF-8"?>
<svg width="16px" height="16px" viewBox="0 0 16 16" version="1.1" xmlns="http://www.w3.org/2000/svg" xmlns:xlink="http://www.w3.org/1999/xlink">
    <title>Icons/Social/poll</title>
    <g id="Icons/Social/poll" stroke="none" stroke-width="1" fill="none" fill-rule="evenodd">
        <rect id="Spacer" fill-opacity="0" fill="#D8D8D8" x="0" y="0" width="16" height="16"></rect>
        <path d="M14.2222223,0.888888844 L1.77777774,0.888888844 C1.28888885,0.888888844 0.888888844,1.28888885 0.888888844,1.77777774 L0.888888844,14.2222223 C0.888888844,14.7111112 1.28888885,15.1111112 1.77777774,15.1111112 L14.2222223,15.1111112 C14.7111112,15.1111112 15.1111112,14.7111112 15.1111112,14.2222223 L15.1111112,1.77777774 C15.1111112,1.28888885 14.7111112,0.888888844 14.2222223,0.888888844 Z M6.22222221,11.5555556 L4.44444442,11.5555556 L4.44444442,7.11111111 L6.22222221,7.11111111 L6.22222221,11.5555556 Z M8.88888889,11.5555556 L7.11111111,11.5555556 L7.11111111,4.44444442 L8.88888889,4.44444442 L8.88888889,11.5555556 Z M11.5555556,11.5555556 L9.77777779,11.5555556 L9.77777779,8 L11.5555556,8 L11.5555556,11.5555556 Z" id="Icons/Social/ic_poll_18px" fill="#233745" fill-rule="nonzero"></path>
    </g>
</svg>