<?xml version="1.0" encoding="UTF-8"?>
<svg width="16px" height="16px" viewBox="0 0 16 16" version="1.1" xmlns="http://www.w3.org/2000/svg" xmlns:xlink="http://www.w3.org/1999/xlink">
    <title>Icons/Social/public</title>
    <g id="Icons/Social/public" stroke="none" stroke-width="1" fill="none" fill-rule="evenodd">
        <rect id="Spacer" fill-opacity="0" fill="#D8D8D8" x="0" y="0" width="16" height="16"></rect>
        <path d="M8,1.33333329 C4.31999998,1.33333329 1.33333329,4.31999998 1.33333329,8 C1.33333329,11.68 4.31999998,14.6666667 8,14.6666667 C11.68,14.6666667 14.6666667,11.68 14.6666667,8 C14.6666667,4.31999998 11.68,1.33333329 8,1.33333329 Z M7.33333333,13.2866667 C4.69999998,12.96 2.66666663,10.72 2.66666663,8 C2.66666663,7.58666666 2.71999997,7.19333333 2.80666663,6.80666666 L5.99999999,10 L5.99999999,10.6666667 C5.99999999,11.4 6.59999999,12 7.33333333,12 L7.33333333,13.2866667 Z M11.9333334,11.5933334 C11.76,11.0533334 11.2666667,10.6666667 10.6666667,10.6666667 L10,10.6666667 L10,8.66666667 C10,8.3 9.70000001,8 9.33333332,8 L5.33333332,8 L5.33333332,6.66666666 L6.66666666,6.66666666 C7.03333333,6.66666666 7.33333332,6.36666666 7.33333332,5.99999999 L7.33333332,4.66666665 L8.66666667,4.66666665 C9.40000001,4.66666665 10,4.06666664 10,3.3333333 L10,3.05999997 C11.9533334,3.85333331 13.3333333,5.76666665 13.3333333,8 C13.3333333,9.38666668 12.8,10.6466667 11.9333334,11.5933334 Z" id="Icons/Social/ic_public_24px" fill="#233745" fill-rule="nonzero"></path>
    </g>
</svg>