<?xml version="1.0" encoding="UTF-8"?>
<svg width="16px" height="16px" viewBox="0 0 16 16" version="1.1" xmlns="http://www.w3.org/2000/svg" xmlns:xlink="http://www.w3.org/1999/xlink">
    <title>Icons/Social/sentiment-satisfied</title>
    <defs>
        <path d="M7.99333333,1.33333329 C11.68,1.33333329 14.6666667,4.31999998 14.6666667,8 C14.6666667,11.68 11.68,14.6666667 7.99333333,14.6666667 C4.31333331,14.6666667 1.33333329,11.68 1.33333329,8 C1.33333329,4.31999998 4.31333331,1.33333329 7.99333333,1.33333329 Z M8,2.66666663 C5.05333331,2.66666663 2.66666663,5.05333331 2.66666663,8 C2.66666663,10.9466667 5.05333331,13.3333334 8,13.3333334 C10.9466667,13.3333334 13.3333334,10.9466667 13.3333334,8 C13.3333334,5.05333331 10.9466667,2.66666663 8,2.66666663 Z M5.69999999,9.33333334 C6.16666666,10.1266667 7.01333333,10.6666667 8,10.6666667 C8.98666667,10.6666667 9.83333334,10.1266667 10.3,9.33333334 L10.3,9.33333334 L11.4133334,9.33333334 C10.88,10.7 9.55333334,11.6666667 8,11.6666667 C6.44666666,11.6666667 5.11999998,10.7 4.58666665,9.33333334 L4.58666665,9.33333334 Z M10.3333333,5.33333332 C10.8856181,5.33333332 11.3333333,5.78104857 11.3333333,6.33333332 C11.3333333,6.88561808 10.8856181,7.33333332 10.3333333,7.33333332 C9.78104859,7.33333332 9.33333334,6.88561808 9.33333334,6.33333332 C9.33333334,5.78104857 9.78104859,5.33333332 10.3333333,5.33333332 Z M5.66666665,5.33333332 C6.21895141,5.33333332 6.66666665,5.78104857 6.66666665,6.33333332 C6.66666665,6.88561808 6.21895141,7.33333332 5.66666665,7.33333332 C5.1143819,7.33333332 4.66666665,6.88561808 4.66666665,6.33333332 C4.66666665,5.78104857 5.1143819,5.33333332 5.66666665,5.33333332 Z" id="path-1"></path>
    </defs>
    <g id="Icons/Social/sentiment-satisfied" stroke="none" stroke-width="1" fill="none" fill-rule="evenodd">
        <mask id="mask-2" fill="white">
            <use xlink:href="#path-1"></use>
        </mask>
        <use id="Combined-Shape" fill="#233745" fill-rule="nonzero" xlink:href="#path-1"></use>
    </g>
</svg>