<?xml version="1.0" encoding="UTF-8"?>
<svg width="16px" height="16px" viewBox="0 0 16 16" version="1.1" xmlns="http://www.w3.org/2000/svg" xmlns:xlink="http://www.w3.org/1999/xlink">
    <title>Icons/Social/sentiment-very-satisfied</title>
    <g id="Icons/Social/sentiment-very-satisfied" stroke="none" stroke-width="1" fill="none" fill-rule="evenodd">
        <rect id="Spacer" fill-opacity="0" fill="#D8D8D8" x="0" y="0" width="16" height="16"></rect>
        <path d="M7.99333333,1.33333329 C4.31333331,1.33333329 1.33333329,4.31333331 1.33333329,8 C1.33333329,11.6866667 4.31333331,14.6666667 7.99333333,14.6666667 C11.6733334,14.6666667 14.6666667,11.6866667 14.6666667,8 C14.6666667,4.31333331 11.68,1.33333329 7.99333333,1.33333329 Z M8,13.3333334 C5.05333331,13.3333334 2.66666663,10.9466667 2.66666663,8 C2.66666663,5.05333331 5.05333331,2.66666663 8,2.66666663 C10.9466667,2.66666663 13.3333334,5.05333331 13.3333334,8 C13.3333334,10.9466667 10.9466667,13.3333334 8,13.3333334 Z M8.66666667,6.62666666 L9.37333334,7.33333333 L10.08,6.62666666 L10.7866667,7.33333333 L11.4933334,6.62666666 L10.08,5.21333332 L8.66666667,6.62666666 Z M5.91999999,6.62666666 L6.62666666,7.33333333 L7.33333333,6.62666666 L5.91999999,5.21333332 L4.50666664,6.62666666 L5.21333332,7.33333333 L5.91999999,6.62666666 Z M8,11.6666667 C9.55333334,11.6666667 10.8733334,10.6933334 11.4066667,9.33333334 L4.59333331,9.33333334 C5.12666665,10.6933334 6.44666666,11.6666667 8,11.6666667 Z" id="Icons/Social/ic_sentiment_very_satisfied_24px" fill="#233745" fill-rule="nonzero"></path>
    </g>
</svg>