<?xml version="1.0" encoding="UTF-8"?>
<svg width="16px" height="16px" viewBox="0 0 16 16" version="1.1" xmlns="http://www.w3.org/2000/svg" xmlns:xlink="http://www.w3.org/1999/xlink">
    <title>Icons/Social/sentiment-very-dissatisfied</title>
    <g id="Icons/Social/sentiment-very-dissatisfied" stroke="none" stroke-width="1" fill="none" fill-rule="evenodd">
        <rect id="Spacer" fill-opacity="0" fill="#D8D8D8" x="0" y="0" width="16" height="16"></rect>
        <path d="M7.99333333,1.33333329 C4.31333331,1.33333329 1.33333329,4.31333331 1.33333329,8 C1.33333329,11.6866667 4.31333331,14.6666667 7.99333333,14.6666667 C11.6733334,14.6666667 14.6666667,11.6866667 14.6666667,8 C14.6666667,4.31333331 11.68,1.33333329 7.99333333,1.33333329 Z M8,13.3333334 C5.05333331,13.3333334 2.66666663,10.9466667 2.66666663,8 C2.66666663,5.05333331 5.05333331,2.66666663 8,2.66666663 C10.9466667,2.66666663 13.3333334,5.05333331 13.3333334,8 C13.3333334,10.9466667 10.9466667,13.3333334 8,13.3333334 Z M10.7866667,5.17333332 L10.08,5.87999999 L9.37333334,5.17333332 L8.66666667,5.87999999 L9.37333334,6.58666666 L8.66666667,7.29333333 L9.37333334,8 L10.08,7.29333333 L10.7866667,8 L11.4933334,7.29333333 L10.7866667,6.58666666 L11.4933334,5.87999999 L10.7866667,5.17333332 Z M5.21333332,8 L5.91999999,7.29333333 L6.62666666,8 L7.33333333,7.29333333 L6.62666666,6.58666666 L7.33333333,5.87999999 L6.62666666,5.17333332 L5.91999999,5.87999999 L5.21333332,5.17333332 L4.50666664,5.87999999 L5.21333332,6.58666666 L4.50666664,7.29333333 L5.21333332,8 Z M8,9.33333334 C6.44666666,9.33333334 5.12666665,10.3066667 4.59333331,11.6666667 L11.4066667,11.6666667 C10.8733334,10.3066667 9.55333334,9.33333334 8,9.33333334 Z" id="Icons/Social/ic_sentiment_very_dissatisfied_24px" fill="#233745" fill-rule="nonzero"></path>
    </g>
</svg>