<?xml version="1.0" encoding="UTF-8"?>
<svg width="16px" height="16px" viewBox="0 0 16 16" version="1.1" xmlns="http://www.w3.org/2000/svg" xmlns:xlink="http://www.w3.org/1999/xlink">
    <title>Icons/Social/share</title>
    <defs>
        <path d="M12,10.72 C11.4933334,10.72 11.04,10.92 10.6933334,11.2333334 L5.93999999,8.46666667 C5.97333332,8.31333334 5.99999996,8.16 5.99999996,8 C5.99999996,7.84 5.97333332,7.68666666 5.93999999,7.53333333 L10.64,4.79333331 C11,5.12666665 11.4733334,5.33333329 12,5.33333329 C13.1066667,5.33333329 14,4.43999998 14,3.33333329 C14,2.22666663 13.1066667,1.33333329 12,1.33333329 C10.8933334,1.33333329 9.99999996,2.22666663 9.99999996,3.33333329 C9.99999996,3.49333331 10.0266667,3.64666664 10.06,3.79999997 L5.35999998,6.53999999 C4.99999996,6.20666666 4.52666664,5.99999999 3.99999996,5.99999999 C2.8933333,5.99999999 1.99999996,6.89333333 1.99999996,8 C1.99999996,9.10666667 2.8933333,10 3.99999996,10 C4.52666664,10 4.99999996,9.79333334 5.35999998,9.46000001 L10.1066667,12.2333334 C10.0733333,12.3733334 10.0533333,12.52 10.0533333,12.6666667 C10.0533333,13.74 10.9266667,14.6133334 12,14.6133334 C13.0733334,14.6133334 13.9466667,13.74 13.9466667,12.6666667 C13.9466667,11.5933334 13.0733334,10.72 12,10.72 Z" id="path-1"></path>
    </defs>
    <g id="Icons/Social/share" stroke="none" stroke-width="1" fill="none" fill-rule="evenodd">
        <mask id="mask-2" fill="white">
            <use xlink:href="#path-1"></use>
        </mask>
        <use id="Icons/Social/ic_share_24px" fill="#233745" fill-rule="nonzero" xlink:href="#path-1"></use>
    </g>
</svg>