<svg xmlns="http://www.w3.org/2000/svg" xmlns:xlink="http://www.w3.org/1999/xlink" width="16" height="16" viewBox="0 0 16 16">
  <defs>
    <path id="whatshot-a" d="M9.05777778,1.33333329 C9.05777778,1.33333329 9.49333334,3.10222219 9.49333334,4.53333331 C9.49333334,5.9111111 8.59555556,7.02222222 7.21777777,7.02222222 C5.83999999,7.02222222 4.79999998,5.9111111 4.79999998,4.53333331 L4.81777776,4.29333331 C3.47555553,5.90222221 2.66666663,7.96444444 2.66666663,10.2222222 C2.66666663,13.1644445 5.05777776,15.5555556 8,15.5555556 C10.9422222,15.5555556 13.3333334,13.1644445 13.3333334,10.2222222 C13.3333334,6.62222221 11.6622222,3.42222219 9.05777778,1.33333329 Z M7.92,13.3333334 C6.72888888,13.3333334 5.76888887,12.4 5.76888887,11.2444445 C5.76888887,10.16 6.46222221,9.40444445 7.64444444,9.16444445 C8.82666667,8.92444445 10.0444445,8.35555556 10.72,7.44888889 C10.9777778,8.31111111 11.12,9.21777779 11.12,10.1422222 C11.12,11.9022222 9.68000001,13.3333334 7.92,13.3333334 L7.92,13.3333334 Z"/>
  </defs>
  <g fill="none" fill-rule="evenodd">
    <mask id="whatshot-b" fill="#fff">
      <use xlink:href="#whatshot-a"/>
    </mask>
    <g fill="CurrentColor" mask="url(#whatshot-b)">
      <rect width="16" height="16"/>
    </g>
  </g>
</svg>
