<svg xmlns="http://www.w3.org/2000/svg" xmlns:xlink="http://www.w3.org/1999/xlink" width="16" height="16" viewBox="0 0 16 16">
  <defs>
    <path id="add-box-a" d="M12.6666667,1.99999996 L3.3333333,1.99999996 C2.5933333,1.99999996 1.99999996,2.59999997 1.99999996,3.3333333 L1.99999996,12.6666667 C1.99999996,13.4 2.5933333,14 3.3333333,14 L12.6666667,14 C13.4,14 14,13.4 14,12.6666667 L14,3.3333333 C14,2.59999997 13.4,1.99999996 12.6666667,1.99999996 Z M11.3333334,8.66666665 L8.66666665,8.66666665 L8.66666665,11.3333334 L7.33333333,11.3333334 L7.33333333,8.66666665 L4.66666665,8.66666665 L4.66666665,7.33333333 L7.33333333,7.33333333 L7.33333333,4.66666665 L8.66666665,4.66666665 L8.66666665,7.33333333 L11.3333334,7.33333333 L11.3333334,8.66666665 Z"/>
  </defs>
  <g fill="none" fill-rule="evenodd">
    <mask id="add-box-b" fill="#fff">
      <use xlink:href="#add-box-a"/>
    </mask>
    <g fill="CurrentColor" mask="url(#add-box-b)">
      <rect width="16" height="16"/>
    </g>
  </g>
</svg>
