<svg xmlns="http://www.w3.org/2000/svg" xmlns:xlink="http://www.w3.org/1999/xlink" width="16" height="16" viewBox="0 0 16 16">
  <defs>
    <path id="block-a" d="M8,1.33333329 C4.31999998,1.33333329 1.33333329,4.31999998 1.33333329,8 C1.33333329,11.68 4.31999998,14.6666667 8,14.6666667 C11.68,14.6666667 14.6666667,11.68 14.6666667,8 C14.6666667,4.31999998 11.68,1.33333329 8,1.33333329 Z M2.66666663,8 C2.66666663,5.05333331 5.05333331,2.66666663 8,2.66666663 C9.23333334,2.66666663 10.3666667,3.08666664 11.2666667,3.79333331 L3.79333331,11.2666667 C3.08666664,10.3666667 2.66666663,9.23333334 2.66666663,8 Z M8,13.3333334 C6.76666666,13.3333334 5.63333332,12.9133334 4.73333331,12.2066667 L12.2066667,4.73333331 C12.9133334,5.63333332 13.3333334,6.76666666 13.3333334,8 C13.3333334,10.9466667 10.9466667,13.3333334 8,13.3333334 Z"/>
  </defs>
  <g fill="none" fill-rule="evenodd">
    <mask id="block-b" fill="#fff">
      <use xlink:href="#block-a"/>
    </mask>
    <g fill="CurrentColor" mask="url(#block-b)">
      <rect width="16" height="16"/>
    </g>
  </g>
</svg>
