<svg xmlns="http://www.w3.org/2000/svg" xmlns:xlink="http://www.w3.org/1999/xlink" width="16" height="16" viewBox="0 0 16 16">
  <defs>
    <path id="content-copy-a" d="M10.6666667,0.666666621 L2.66666663,0.666666621 C1.9333333,0.666666621 1.33333329,1.26666662 1.33333329,1.99999996 L1.33333329,11.3333334 L2.66666663,11.3333334 L2.66666663,1.99999996 L10.6666667,1.99999996 L10.6666667,0.666666621 Z M12.6666667,3.3333333 L5.33333332,3.3333333 C4.59999998,3.3333333 3.99999997,3.93333331 3.99999997,4.66666665 L3.99999997,14 C3.99999997,14.7333334 4.59999998,15.3333333 5.33333332,15.3333333 L12.6666667,15.3333333 C13.4,15.3333333 14,14.7333334 14,14 L14,4.66666665 C14,3.93333331 13.4,3.3333333 12.6666667,3.3333333 Z M12.6666667,14 L5.33333332,14 L5.33333332,4.66666665 L12.6666667,4.66666665 L12.6666667,14 Z"/>
  </defs>
  <g fill="none" fill-rule="evenodd">
    <mask id="content-copy-b" fill="#fff">
      <use xlink:href="#content-copy-a"/>
    </mask>
    <g fill="CurrentColor" mask="url(#content-copy-b)">
      <rect width="16" height="16"/>
    </g>
  </g>
</svg>
