<svg xmlns="http://www.w3.org/2000/svg" xmlns:xlink="http://www.w3.org/1999/xlink" width="16" height="16" viewBox="0 0 16 16">
  <defs>
    <path id="delete-sweep-a" d="M10,10.6666667 L12.6666667,10.6666667 L12.6666667,12 L10,12 L10,10.6666667 Z M10,5.33333332 L14.6666667,5.33333332 L14.6666667,6.66666666 L10,6.66666666 L10,5.33333332 Z M10,8 L14,8 L14,9.33333334 L10,9.33333334 L10,8 Z M1.99999996,12 C1.99999996,12.7333334 2.59999997,13.3333333 3.3333333,13.3333333 L7.33333333,13.3333333 C8.06666667,13.3333333 8.66666667,12.7333334 8.66666667,12 L8.66666667,5.33333332 L1.99999996,5.33333332 L1.99999996,12 Z M9.33333329,3.3333333 L7.33333329,3.3333333 L6.66666666,2.66666663 L3.99999997,2.66666663 L3.33333329,3.3333333 L1.33333329,3.3333333 L1.33333329,4.66666663 L9.33333329,4.66666663 L9.33333329,3.3333333 Z"/>
  </defs>
  <g fill="none" fill-rule="evenodd">
    <mask id="delete-sweep-b" fill="#fff">
      <use xlink:href="#delete-sweep-a"/>
    </mask>
    <g fill="CurrentColor" mask="url(#delete-sweep-b)">
      <rect width="16" height="16"/>
    </g>
  </g>
</svg>
