<svg xmlns="http://www.w3.org/2000/svg" xmlns:xlink="http://www.w3.org/1999/xlink" width="16" height="16" viewBox="0 0 16 16">
  <defs>
    <path id="remove-circle-outline-a" d="M4.66666665,7.33333333 L4.66666665,8.66666667 L11.3333334,8.66666667 L11.3333334,7.33333333 L4.66666665,7.33333333 Z M8,1.33333329 C4.31999998,1.33333329 1.33333329,4.31999998 1.33333329,8 C1.33333329,11.68 4.31999998,14.6666667 8,14.6666667 C11.68,14.6666667 14.6666667,11.68 14.6666667,8 C14.6666667,4.31999998 11.68,1.33333329 8,1.33333329 Z M8,13.3333334 C5.05999998,13.3333334 2.66666663,10.94 2.66666663,8 C2.66666663,5.05999998 5.05999998,2.66666663 8,2.66666663 C10.94,2.66666663 13.3333334,5.05999998 13.3333334,8 C13.3333334,10.94 10.94,13.3333334 8,13.3333334 Z"/>
  </defs>
  <g fill="none" fill-rule="evenodd">
    <mask id="remove-circle-outline-b" fill="#fff">
      <use xlink:href="#remove-circle-outline-a"/>
    </mask>
    <g fill="CurrentColor" mask="url(#remove-circle-outline-b)">
      <rect width="16" height="16"/>
    </g>
  </g>
</svg>
