<svg xmlns="http://www.w3.org/2000/svg" xmlns:xlink="http://www.w3.org/1999/xlink" width="16" height="16" viewBox="0 0 16 16">
  <defs>
    <path id="unarchive-a" d="M13.7,3.47999997 L12.7733334,2.35999996 C12.5866667,2.13999996 12.3133334,1.99999996 12,1.99999996 L3.99999996,1.99999996 C3.68666664,1.99999996 3.4133333,2.13999996 3.2333333,2.36666663 L2.30666663,3.47999997 C2.1133333,3.71333331 1.99999996,4.00666664 1.99999996,4.33333331 L1.99999996,12.6666667 C1.99999996,13.4 2.5933333,14 3.3333333,14 L12.6666667,14 C13.4,14 14,13.4 14,12.6666667 L14,4.33333331 C14,4.00666664 13.8866667,3.71333331 13.7,3.47999997 Z M8,6.33333332 L11.6666667,10 L9.33333331,10 L9.33333331,11.3333333 L6.66666666,11.3333333 L6.66666666,10 L4.33333331,10 L8,6.33333332 Z M3.4133333,3.3333333 L3.95999997,2.66666663 L11.96,2.66666663 L12.58,3.3333333 L3.4133333,3.3333333 Z"/>
  </defs>
  <g fill="none" fill-rule="evenodd">
    <mask id="unarchive-b" fill="#fff">
      <use xlink:href="#unarchive-a"/>
    </mask>
    <g fill="CurrentColor" mask="url(#unarchive-b)">
      <rect width="16" height="16"/>
    </g>
  </g>
</svg>
