<svg xmlns="http://www.w3.org/2000/svg" xmlns:xlink="http://www.w3.org/1999/xlink" width="16" height="16" viewBox="0 0 16 16">
  <defs>
    <path id="weekend-a" d="M14,6.66666666 C13.2666667,6.66666666 12.6666666,7.26666666 12.6666666,8 L12.6666666,10 L3.3333333,10 L3.3333333,8 C3.3333333,7.26666666 2.7333333,6.66666666 1.99999996,6.66666666 C1.26666662,6.66666666 0.666666621,7.26666666 0.666666621,8 L0.666666621,11.3333334 C0.666666621,12.0666667 1.26666662,12.6666667 1.99999996,12.6666667 L14,12.6666667 C14.7333334,12.6666667 15.3333334,12.0666667 15.3333334,11.3333334 L15.3333334,8 C15.3333334,7.26666666 14.7333334,6.66666666 14,6.66666666 Z M12,3.3333333 L3.99999997,3.3333333 C3.26666664,3.3333333 2.66666663,3.93333331 2.66666663,4.66666665 L2.66666663,6.09999999 C3.43999997,6.37333332 3.99999997,7.10666666 3.99999997,7.98 L3.99999997,9.3333333 L12,9.3333333 L12,7.98 C12,7.11333333 12.56,6.37999999 13.3333334,6.09999999 L13.3333334,4.66666665 C13.3333334,3.93333331 12.7333334,3.3333333 12,3.3333333 Z"/>
  </defs>
  <g fill="none" fill-rule="evenodd">
    <mask id="weekend-b" fill="#fff">
      <use xlink:href="#weekend-a"/>
    </mask>
    <g fill="CurrentColor" mask="url(#weekend-b)">
      <rect width="16" height="16"/>
    </g>
  </g>
</svg>
