<svg xmlns="http://www.w3.org/2000/svg" xmlns:xlink="http://www.w3.org/1999/xlink" width="16" height="16" viewBox="0 0 16 16">
  <defs>
    <path id="attach-money-a" d="M8.49777778,7.19999999 C7.07555555,6.74666666 6.13333332,6.56888888 6.13333332,5.52888887 C6.13333332,4.79111109 6.77333333,4.08888886 8,4.08888886 C9.41333334,4.08888886 9.86666668,4.87111109 9.86666668,5.81333332 L11.5555556,5.81333332 C11.5555556,4.2222222 10.5155556,3.06666664 8.88888889,2.75555552 L8.88888889,0.888888844 L7.11111111,0.888888844 L7.11111111,2.76444441 C5.70666665,3.04888886 4.44444442,3.9822222 4.44444442,5.53777776 C4.44444442,7.53777777 6.02666665,8.02666667 8,8.66666667 C9.67111112,9.2088889 10,9.59111112 10,10.5244445 C10,11.3244445 9.40444445,11.9111111 8,11.9111111 C6.93333333,11.9111111 5.99999999,11.1644445 5.99999999,10.08 L4.2222222,10.08 C4.2222222,11.7511111 5.44888887,12.9244445 7.11111111,13.2444445 L7.11111111,15.1111112 L8.88888889,15.1111112 L8.88888889,13.2711111 C10.7022222,13.0133334 11.7333334,11.9466667 11.7333334,10.5155556 C11.7333334,8.85333334 10.8977778,7.96444444 8.49777778,7.19999999 L8.49777778,7.19999999 Z"/>
  </defs>
  <g fill="none" fill-rule="evenodd">
    <mask id="attach-money-b" fill="#fff">
      <use xlink:href="#attach-money-a"/>
    </mask>
    <g fill="CurrentColor" mask="url(#attach-money-b)">
      <rect width="16" height="16"/>
    </g>
  </g>
</svg>
