<svg xmlns="http://www.w3.org/2000/svg" xmlns:xlink="http://www.w3.org/1999/xlink" width="16" height="16" viewBox="0 0 16 16">
  <defs>
    <path id="border-bottom-a" d="M6.22222221,1.77777774 L4.44444442,1.77777774 L4.44444442,3.55555553 L6.22222221,3.55555553 L6.22222221,1.77777774 Z M8.88888889,7.11111111 L7.11111111,7.11111111 L7.11111111,8.88888889 L8.88888889,8.88888889 L8.88888889,7.11111111 Z M8.88888889,9.77777779 L7.11111111,9.77777779 L7.11111111,11.5555556 L8.88888889,11.5555556 L8.88888889,9.77777779 Z M11.5555556,7.11111111 L9.77777779,7.11111111 L9.77777779,8.88888889 L11.5555556,8.88888889 L11.5555556,7.11111111 Z M6.22222221,7.11111111 L4.44444442,7.11111111 L4.44444442,8.88888889 L6.22222221,8.88888889 L6.22222221,7.11111111 Z M11.5555556,1.77777774 L9.77777779,1.77777774 L9.77777779,3.55555553 L11.5555556,3.55555553 L11.5555556,1.77777774 Z M8.88888889,4.44444442 L7.11111111,4.44444442 L7.11111111,6.22222221 L8.88888889,6.22222221 L8.88888889,4.44444442 Z M8.88888889,1.77777774 L7.11111111,1.77777774 L7.11111111,3.55555553 L8.88888889,3.55555553 L8.88888889,1.77777774 Z M3.55555553,9.77777779 L1.77777774,9.77777779 L1.77777774,11.5555556 L3.55555553,11.5555556 L3.55555553,9.77777779 Z M12.4444445,11.5555556 L14.2222223,11.5555556 L14.2222223,9.77777779 L12.4444445,9.77777779 L12.4444445,11.5555556 Z M12.4444445,6.22222221 L14.2222223,6.22222221 L14.2222223,4.44444442 L12.4444445,4.44444442 L12.4444445,6.22222221 Z M12.4444445,8.88888889 L14.2222223,8.88888889 L14.2222223,7.11111111 L12.4444445,7.11111111 L12.4444445,8.88888889 Z M12.4444445,1.77777774 L12.4444445,3.55555553 L14.2222223,3.55555553 L14.2222223,1.77777774 L12.4444445,1.77777774 Z M3.55555553,1.77777774 L1.77777774,1.77777774 L1.77777774,3.55555553 L3.55555553,3.55555553 L3.55555553,1.77777774 Z M1.77777774,14.2222223 L14.2222223,14.2222223 L14.2222223,12.4444445 L1.77777774,12.4444445 L1.77777774,14.2222223 Z M3.55555553,4.44444442 L1.77777774,4.44444442 L1.77777774,6.22222221 L3.55555553,6.22222221 L3.55555553,4.44444442 Z M3.55555553,7.11111111 L1.77777774,7.11111111 L1.77777774,8.88888889 L3.55555553,8.88888889 L3.55555553,7.11111111 Z"/>
  </defs>
  <g fill="none" fill-rule="evenodd">
    <mask id="border-bottom-b" fill="#fff">
      <use xlink:href="#border-bottom-a"/>
    </mask>
    <g fill="CurrentColor" mask="url(#border-bottom-b)">
      <rect width="16" height="16"/>
    </g>
  </g>
</svg>
