<svg xmlns="http://www.w3.org/2000/svg" xmlns:xlink="http://www.w3.org/1999/xlink" width="16" height="16" viewBox="0 0 16 16">
  <defs>
    <path id="format-list-numbered-a" d="M1.77777774,11.5555556 L3.55555553,11.5555556 L3.55555553,12 L2.66666663,12 L2.66666663,12.8888889 L3.55555553,12.8888889 L3.55555553,13.3333334 L1.77777774,13.3333334 L1.77777774,14.2222223 L4.44444442,14.2222223 L4.44444442,10.6666667 L1.77777774,10.6666667 L1.77777774,11.5555556 Z M1.77777774,7.11111111 L3.37777775,7.11111111 L1.77777774,8.97777778 L1.77777774,9.77777779 L4.44444442,9.77777779 L4.44444442,8.88888889 L2.84444441,8.88888889 L4.44444442,7.02222222 L4.44444442,6.22222221 L1.77777774,6.22222221 L1.77777774,7.11111111 Z M2.66666663,5.33333332 L3.55555553,5.33333332 L3.55555553,1.77777774 L1.77777774,1.77777774 L1.77777774,2.66666663 L2.66666663,2.66666663 L2.66666663,5.33333332 Z M6.22222221,2.66666663 L6.22222221,4.44444442 L14.2222222,4.44444442 L14.2222222,2.66666663 L6.22222221,2.66666663 Z M6.22222221,13.3333334 L14.2222222,13.3333334 L14.2222222,11.5555556 L6.22222221,11.5555556 L6.22222221,13.3333334 Z M6.22222221,8.88888889 L14.2222222,8.88888889 L14.2222222,7.11111111 L6.22222221,7.11111111 L6.22222221,8.88888889 Z"/>
  </defs>
  <g fill="none" fill-rule="evenodd">
    <mask id="format-list-numbered-b" fill="#fff">
      <use xlink:href="#format-list-numbered-a"/>
    </mask>
    <g fill="CurrentColor" mask="url(#format-list-numbered-b)">
      <rect width="16" height="16"/>
    </g>
  </g>
</svg>
