<svg xmlns="http://www.w3.org/2000/svg" xmlns:xlink="http://www.w3.org/1999/xlink" width="16" height="16" viewBox="0 0 16 16">
  <defs>
    <path id="format-color-fill-a" d="M-5.00000183e-08,13.3333334 L15.9999999,13.3333334 L15.9999999,16 L-5.00000183e-08,16 L-5.00000183e-08,13.3333334 Z M12.8888889,7.88444444 C12.8888889,7.88444444 14.2222223,9.33333334 14.2222223,10.2133333 C14.2222223,10.9511111 13.6266667,11.5466667 12.8888889,11.5466667 C12.1511111,11.5466667 11.5555556,10.9511111 11.5555556,10.2133333 C11.5555556,9.32444445 12.8888889,7.88444444 12.8888889,7.88444444 Z M11.2977778,6.03555554 C11.6444445,6.38222221 11.6444445,6.9511111 11.2977778,7.29777777 L7.29777777,11.2977778 C7.11999999,11.4666667 6.89777777,11.5555556 6.66666666,11.5555556 C6.43555555,11.5555556 6.21333332,11.4666667 6.03555554,11.2888889 L2.03555552,7.28888888 C1.68888885,6.94222222 1.68888885,6.38222221 2.03555552,6.03555554 L5.72444443,2.35555552 L4.31111109,0.942222178 L5.25333332,-5.0000029e-08 L11.2977778,6.03555554 Z M3.7422222,6.22222221 L9.59111112,6.22222221 L6.66666666,3.29777775 L3.7422222,6.22222221 Z"/>
  </defs>
  <g fill="none" fill-rule="evenodd">
    <mask id="format-color-fill-b" fill="#fff">
      <use xlink:href="#format-color-fill-a"/>
    </mask>
    <g fill="CurrentColor" mask="url(#format-color-fill-b)">
      <rect width="16" height="16"/>
    </g>
  </g>
</svg>
