<svg xmlns="http://www.w3.org/2000/svg" xmlns:xlink="http://www.w3.org/1999/xlink" width="16" height="16" viewBox="0 0 16 16">
  <defs>
    <path id="location-off-a" d="M8,4.33333329 C8.92000001,4.33333329 9.66666668,5.07999998 9.66666668,5.99999999 C9.66666668,6.49333332 9.44666668,6.92666666 9.11333334,7.23333333 L11.5333334,9.65333334 C12.1866667,8.41333334 12.6666667,7.11999999 12.6666667,5.99999999 C12.6666667,3.41999997 10.58,1.33333329 8,1.33333329 C6.67999999,1.33333329 5.49333332,1.88666663 4.63999998,2.76666663 L6.76666666,4.89333331 C7.07333333,4.54666665 7.50666666,4.33333329 8,4.33333329 Z M10.9133334,10.7333334 L7.82666667,7.64666666 L7.75333333,7.57333333 L2.17999996,1.99999996 L1.33333329,2.84666663 L3.4533333,4.96666665 C3.37999997,5.29999998 3.33333329,5.64666665 3.33333329,5.99999996 C3.33333329,9.49999996 8,14.6666667 8,14.6666667 C8,14.6666667 9.11333334,13.4333334 10.2533333,11.7666667 L12.4866667,14 L13.3333333,13.1533334 L10.9133334,10.7333334 Z"/>
  </defs>
  <g fill="none" fill-rule="evenodd">
    <mask id="location-off-b" fill="#fff">
      <use xlink:href="#location-off-a"/>
    </mask>
    <g fill="CurrentColor" mask="url(#location-off-b)">
      <rect width="16" height="16"/>
    </g>
  </g>
</svg>
