<svg xmlns="http://www.w3.org/2000/svg" xmlns:xlink="http://www.w3.org/1999/xlink" width="16" height="16" viewBox="0 0 16 16">
  <defs>
    <path id="airline-seat-legroom-extra-a" d="M2.66666663,7.99999996 L2.66666663,1.99999996 L1.33333329,1.99999996 L1.33333329,7.99999996 C1.33333329,9.84000001 2.82666663,11.3333334 4.66666665,11.3333334 L8.66666667,11.3333334 L8.66666667,9.99999996 L4.66666665,9.99999996 C3.55999997,9.99999996 2.66666663,9.10666667 2.66666663,7.99999996 Z M15.22,11.4933334 C14.9666667,11.0133334 14.36,10.8466667 13.8666667,11.0733334 L13.14,11.4066667 L10.8666667,6.75333333 C10.64,6.29999999 10.18,6.00666665 9.67333334,6.00666665 L7.3333333,5.99999996 L7.3333333,1.99999996 L3.3333333,1.99999996 L3.3333333,7.33333333 C3.3333333,8.44 4.22666664,9.33333334 5.3333333,9.33333334 L10,9.33333334 L12.2733334,14 L14.7533334,12.8666667 C15.2666667,12.6266667 15.4866667,12 15.22,11.4933334 Z"/>
  </defs>
  <g fill="none" fill-rule="evenodd">
    <mask id="airline-seat-legroom-extra-b" fill="#fff">
      <use xlink:href="#airline-seat-legroom-extra-a"/>
    </mask>
    <g fill="CurrentColor" mask="url(#airline-seat-legroom-extra-b)">
      <rect width="16" height="16"/>
    </g>
  </g>
</svg>
