<svg xmlns="http://www.w3.org/2000/svg" xmlns:xlink="http://www.w3.org/1999/xlink" width="16" height="16" viewBox="0 0 16 16">
  <defs>
    <path id="live-tv-a" d="M14,3.99999997 L8.94000001,3.99999997 L11.1333334,1.80666663 L10.6666666,1.33333329 L8,3.99999997 L5.33333332,1.33333329 L4.85999998,1.80666663 L7.05999999,3.99999997 L1.99999996,3.99999997 C1.26666662,3.99999997 0.666666621,4.59333331 0.666666621,5.33333329 L0.666666621,13.3333333 C0.666666621,14.0666667 1.26666662,14.6666667 1.99999996,14.6666667 L14,14.6666667 C14.7333334,14.6666667 15.3333334,14.0666667 15.3333334,13.3333333 L15.3333334,5.33333329 C15.3333334,4.59333331 14.7333334,3.99999997 14,3.99999997 Z M14,13.3333333 L1.99999996,13.3333333 L1.99999996,5.33333332 L14,5.33333332 L14,13.3333333 Z M5.99999999,6.66666666 L5.99999999,12 L10.6666667,9.33333334 L5.99999999,6.66666666 Z"/>
  </defs>
  <g fill="none" fill-rule="evenodd">
    <mask id="live-tv-b" fill="#fff">
      <use xlink:href="#live-tv-a"/>
    </mask>
    <g fill="CurrentColor" mask="url(#live-tv-b)">
      <rect width="16" height="16"/>
    </g>
  </g>
</svg>
