<svg xmlns="http://www.w3.org/2000/svg" xmlns:xlink="http://www.w3.org/1999/xlink" width="16" height="16" viewBox="0 0 16 16">
  <defs>
    <path id="phone-paused-a" d="M11.3333334,1.99999996 L10,1.99999996 L10,6.66666666 L11.3333334,6.66666666 L11.3333334,1.99999996 Z M13.3333334,10.3333333 C12.5,10.3333333 11.7,10.2 10.9533334,9.95333335 C10.72,9.88000001 10.46,9.93333335 10.2733333,10.1133333 L8.80666667,11.58 C6.91999999,10.62 5.37333332,9.08000001 4.41333331,7.18666666 L5.87999999,5.71333332 C6.06666665,5.53999998 6.11999999,5.27999998 6.04666665,5.04666665 C5.79999999,4.29999998 5.66666665,3.49999996 5.66666665,2.66666663 C5.66666665,2.29999996 5.36666665,1.99999996 4.99999996,1.99999996 L2.66666663,1.99999996 C2.29999996,1.99999996 1.99999996,2.29999996 1.99999996,2.66666663 C1.99999996,8.92666667 7.07333333,14 13.3333334,14 C13.7,14 14,13.7 14,13.3333334 L14,11 C14,10.6333333 13.7,10.3333333 13.3333334,10.3333333 Z M12.6666667,1.99999996 L12.6666667,6.66666666 L14,6.66666666 L14,1.99999996 L12.6666667,1.99999996 Z"/>
  </defs>
  <g fill="none" fill-rule="evenodd">
    <mask id="phone-paused-b" fill="#fff">
      <use xlink:href="#phone-paused-a"/>
    </mask>
    <g fill="CurrentColor" mask="url(#phone-paused-b)">
      <rect width="16" height="16"/>
    </g>
  </g>
</svg>
