<svg viewBox="0 0 726 406" xmlns="http://www.w3.org/2000/svg" xmlns:xlink="http://www.w3.org/1999/xlink"><defs><filter x="-2.6%" y="-13.4%" width="105.1%" height="128.4%" filterUnits="objectBoundingBox" id="a"><feOffset dy="1" in="SourceAlpha" result="shadowOffsetOuter1"/><feGaussianBlur stdDeviation="3" in="shadowOffsetOuter1" result="shadowBlurOuter1"/><feColorMatrix values="0 0 0 0 0 0 0 0 0 0 0 0 0 0 0 0 0 0 0.0408380682 0" in="shadowBlurOuter1" result="shadowMatrixOuter1"/><feMerge><feMergeNode in="shadowMatrixOuter1"/><feMergeNode in="SourceGraphic"/></feMerge></filter><path id="c" d="M0 0h646v116H0z"/><filter x="-.8%" y="-3.4%" width="101.5%" height="108.6%" filterUnits="objectBoundingBox" id="b"><feOffset dy="1" in="SourceAlpha" result="shadowOffsetOuter1"/><feGaussianBlur stdDeviation="1.5" in="shadowOffsetOuter1" result="shadowBlurOuter1"/><feColorMatrix values="0 0 0 0 0 0 0 0 0 0 0 0 0 0 0 0 0 0 0.0620902535 0" in="shadowBlurOuter1"/></filter><filter x="-.5%" y="-2.2%" width="101.1%" height="106%" filterUnits="objectBoundingBox" id="d"><feOffset dy="-1" in="SourceAlpha" result="shadowOffsetInner1"/><feComposite in="shadowOffsetInner1" in2="SourceAlpha" operator="arithmetic" k2="-1" k3="1" result="shadowInnerInner1"/><feColorMatrix values="0 0 0 0 0.88627451 0 0 0 0 0.91372549 0 0 0 0 0.933333333 0 0 0 1 0" in="shadowInnerInner1"/></filter><path id="e" d="M0 0h646v58H0z"/><filter x="-.1%" y="-.9%" width="100.2%" height="101.7%" filterUnits="objectBoundingBox" id="f"><feOffset dy="-1" in="SourceAlpha" result="shadowOffsetInner1"/><feComposite in="shadowOffsetInner1" in2="SourceAlpha" operator="arithmetic" k2="-1" k3="1" result="shadowInnerInner1"/><feColorMatrix values="0 0 0 0 0.88627451 0 0 0 0 0.91372549 0 0 0 0 0.933333333 0 0 0 1 0" in="shadowInnerInner1"/></filter></defs><g fill="none" fill-rule="evenodd"><g><path stroke="#B8C7D2" fill="#F8FAFC" d="M.5.5h725v369H.5z"/><path d="M491.545 117.642a.618.618 0 0 1-.161.186.354.354 0 0 1-.21.059.545.545 0 0 1-.297-.112 5.832 5.832 0 0 0-.406-.249 3.56 3.56 0 0 0-.571-.251 2.373 2.373 0 0 0-.784-.116c-.28 0-.526.035-.738.105-.213.07-.391.168-.536.294a1.212 1.212 0 0 0-.325.444c-.073.17-.109.356-.109.557 0 .257.068.47.203.64.135.17.314.317.536.438.221.121.474.228.759.319.285.09.575.187.871.29.297.103.587.22.872.35.285.13.538.296.76.497.221.2.4.446.535.735.135.29.203.642.203 1.057 0 .448-.077.868-.231 1.26a2.968 2.968 0 0 1-.668 1.026 3.113 3.113 0 0 1-1.078.689 3.963 3.963 0 0 1-1.46.252c-.322 0-.636-.031-.941-.094a4.88 4.88 0 0 1-.875-.267 4.38 4.38 0 0 1-.781-.416 3.918 3.918 0 0 1-.651-.546l.476-.784a.462.462 0 0 1 .161-.154.43.43 0 0 1 .217-.056c.107 0 .226.05.357.15.13.1.288.21.473.33.184.119.407.228.668.328.261.1.574.151.938.151.593 0 1.051-.145 1.375-.434.325-.29.487-.688.487-1.197 0-.285-.068-.517-.203-.697a1.649 1.649 0 0 0-.536-.451 3.847 3.847 0 0 0-.759-.308 32.876 32.876 0 0 1-.868-.27 8.541 8.541 0 0 1-.868-.336 2.763 2.763 0 0 1-.76-.504 2.334 2.334 0 0 1-.535-.77c-.135-.305-.203-.687-.203-1.144a2.716 2.716 0 0 1 .837-1.963c.273-.264.61-.475 1.011-.634a3.709 3.709 0 0 1 1.372-.238c.579 0 1.11.091 1.593.273.483.182.899.441 1.249.777l-.399.784zm6.769 3.983c0-.252-.036-.486-.109-.704a1.647 1.647 0 0 0-.318-.567 1.452 1.452 0 0 0-.522-.377 1.773 1.773 0 0 0-.717-.137c-.546 0-.975.156-1.288.469-.313.313-.511.751-.595 1.316h3.549zm-3.591.924c.019.406.082.757.189 1.053.107.297.25.543.43.739.18.196.395.342.644.438.25.095.529.143.837.143.294 0 .548-.034.763-.102.215-.067.401-.142.56-.223.159-.082.294-.157.406-.224a.606.606 0 0 1 .308-.102c.121 0 .215.047.28.14l.427.553c-.177.21-.378.387-.602.532a3.508 3.508 0 0 1-.714.354 4.034 4.034 0 0 1-.777.196c-.266.04-.525.059-.777.059-.495 0-.953-.083-1.375-.249a3.059 3.059 0 0 1-1.1-.731 3.377 3.377 0 0 1-.727-1.197c-.176-.476-.263-1.024-.263-1.645 0-.495.078-.957.234-1.386.157-.43.38-.803.673-1.12a3.155 3.155 0 0 1 1.063-.752c.418-.185.89-.277 1.418-.277.439 0 .845.071 1.218.213.373.143.695.352.966.627.27.275.482.612.634 1.012.151.399.227.852.227 1.361 0 .233-.026.39-.077.469-.051.08-.145.119-.28.119h-4.585zm10.157.329a9.52 9.52 0 0 0-1.358.13 3.855 3.855 0 0 0-.896.258c-.229.106-.393.23-.493.375a.817.817 0 0 0-.151.476c0 .168.027.311.08.43a.784.784 0 0 0 .224.294.911.911 0 0 0 .337.169c.128.034.269.052.423.052.392 0 .73-.073 1.012-.22.282-.148.556-.361.822-.641v-1.323zm-3.99-3.024c.807-.751 1.769-1.127 2.884-1.127.41 0 .776.066 1.096.2.32.133.587.32.805.563.217.243.382.53.496.865.115.333.172.703.172 1.109V126h-.672a.655.655 0 0 1-.329-.067c-.075-.044-.138-.134-.189-.269l-.147-.581c-.182.163-.362.31-.539.438a3.4 3.4 0 0 1-.55.325 2.701 2.701 0 0 1-.608.2 3.59 3.59 0 0 1-.718.066c-.29 0-.559-.04-.808-.119-.25-.08-.466-.2-.648-.36a1.705 1.705 0 0 1-.43-.599 2.067 2.067 0 0 1-.158-.84c0-.275.073-.544.22-.805.148-.261.39-.496.728-.703.339-.208.784-.38 1.337-.515.554-.135 1.236-.212 2.048-.231v-.476c0-.513-.11-.896-.329-1.148-.22-.252-.541-.378-.966-.378-.29 0-.532.036-.728.108-.196.073-.366.151-.511.235a9.607 9.607 0 0 0-.385.234.647.647 0 0 1-.357.109.428.428 0 0 1-.262-.08.666.666 0 0 1-.179-.2l-.273-.49zm8.631.329c.224-.453.495-.808.812-1.068a1.747 1.747 0 0 1 1.141-.388c.154 0 .299.017.434.052.135.035.257.088.364.158l-.105 1.134c-.019.08-.048.134-.087.165a.253.253 0 0 1-.158.045c-.07 0-.17-.013-.301-.038a2.14 2.14 0 0 0-.413-.039c-.21 0-.395.03-.557.091-.16.06-.305.15-.434.266a1.79 1.79 0 0 0-.339.427c-.098.168-.189.36-.273.574V126H508.1v-7.14h.875c.159 0 .268.03.329.088.06.058.103.16.126.304l.091.931zm8.792.077a.778.778 0 0 1-.133.14.292.292 0 0 1-.182.049.459.459 0 0 1-.249-.084 6.252 6.252 0 0 0-.308-.185 2.018 2.018 0 0 0-1.06-.27c-.327 0-.612.058-.857.175-.246.117-.45.283-.616.5-.166.218-.29.481-.371.791-.082.31-.123.66-.123 1.047 0 .401.044.758.133 1.071.089.313.216.576.381.791.166.215.367.378.602.49.236.112.501.168.795.168.29 0 .525-.035.707-.105a2.17 2.17 0 0 0 .455-.231c.121-.084.225-.161.312-.231a.432.432 0 0 1 .276-.105c.121 0 .215.047.28.14l.427.553c-.173.21-.364.387-.574.532-.21.145-.432.263-.665.354a3.492 3.492 0 0 1-.728.196 4.9 4.9 0 0 1-.763.059 3.11 3.11 0 0 1-1.243-.249 2.902 2.902 0 0 1-1.007-.72 3.438 3.438 0 0 1-.68-1.155c-.165-.456-.248-.975-.248-1.558 0-.527.075-1.016.224-1.466.15-.45.367-.84.655-1.166a2.974 2.974 0 0 1 1.067-.766c.425-.185.915-.277 1.47-.277.518 0 .974.084 1.369.252.394.168.745.406 1.053.714l-.399.546zm3.178-.553a3.79 3.79 0 0 1 .966-.697c.35-.175.758-.262 1.225-.262.392 0 .736.065 1.033.196.296.13.545.315.748.553.204.238.356.524.459.858.103.333.154.7.154 1.102V126h-1.498v-4.543c0-.48-.11-.854-.332-1.12-.222-.266-.56-.399-1.012-.399-.336 0-.647.077-.935.231a3.205 3.205 0 0 0-.808.63V126h-1.505v-10.36h1.505v4.067zM514.375 84.92V95h-.833a.714.714 0 0 1-.322-.067.753.753 0 0 1-.252-.22l-5.537-7.112a7.995 7.995 0 0 1 .042.77V95h-1.442V84.92h.854c.07 0 .13.004.178.01.05.007.095.02.137.039a.397.397 0 0 1 .119.084c.037.037.077.084.119.14l5.544 7.119a9.207 9.207 0 0 1-.042-.819V84.92h1.435zm5.208 2.828c.527 0 1.004.086 1.432.259a3.07 3.07 0 0 1 1.091.735c.302.317.534.702.697 1.155.163.453.245.961.245 1.526 0 .565-.082 1.073-.245 1.526a3.299 3.299 0 0 1-.697 1.159c-.3.32-.664.565-1.091.738a3.787 3.787 0 0 1-1.432.259 3.807 3.807 0 0 1-1.438-.259 3.081 3.081 0 0 1-1.096-.739 3.272 3.272 0 0 1-.7-1.158 4.474 4.474 0 0 1-.245-1.526c0-.565.082-1.073.245-1.526.163-.453.397-.838.7-1.155a3.104 3.104 0 0 1 1.096-.735 3.807 3.807 0 0 1 1.438-.259zm0 6.181c.644 0 1.123-.216 1.438-.648.316-.431.473-1.048.473-1.851 0-.803-.157-1.422-.473-1.859-.315-.436-.794-.654-1.438-.654-.653 0-1.139.218-1.456.654-.317.437-.476 1.056-.476 1.859 0 .803.159 1.42.476 1.851.317.432.803.648 1.456.648zM531.42 95h-1.505v-5.957h-3.479v4.053c0 .257.063.453.189.588a.656.656 0 0 0 .504.203.888.888 0 0 0 .301-.046c.084-.03.156-.062.217-.097.06-.036.113-.068.157-.099a.23.23 0 0 1 .13-.045c.084 0 .152.047.203.14l.448.735a2.442 2.442 0 0 1-.826.473 2.98 2.98 0 0 1-.98.164c-.593 0-1.049-.167-1.369-.5-.32-.334-.479-.804-.479-1.411v-4.158h-.784a.317.317 0 0 1-.217-.08c-.06-.054-.091-.135-.091-.242v-.609l1.155-.168.329-2.065a.398.398 0 0 1 .119-.193.328.328 0 0 1 .224-.073h.77v2.345h4.984V95zm.308-9.331a.917.917 0 0 1-.08.382 1.024 1.024 0 0 1-.221.314 1.074 1.074 0 0 1-.326.218.966.966 0 0 1-1.085-.218 1.055 1.055 0 0 1-.216-.314.983.983 0 0 1 0-.777 1.03 1.03 0 0 1 .531-.54.966.966 0 0 1 .77 0c.124.054.233.126.326.218a1.001 1.001 0 0 1 .301.717zM533.807 95v-5.943l-.7-.098a.623.623 0 0 1-.284-.126.32.32 0 0 1-.108-.259v-.616h1.092v-.301c0-.439.07-.842.21-1.211.14-.369.352-.688.637-.959.285-.27.64-.482 1.067-.633.428-.152.928-.228 1.502-.228.187 0 .38.012.578.035.198.023.367.058.507.105l-.049.784c-.01.098-.068.153-.175.165-.107.011-.25.017-.427.017-.434 0-.803.04-1.106.123a1.85 1.85 0 0 0-.742.37c-.191.166-.33.371-.416.617a2.58 2.58 0 0 0-.13.857v.259h4.375V95h-1.505v-5.957h-2.821V95h-1.505zm12.782-5.74a.778.778 0 0 1-.133.14.292.292 0 0 1-.182.049.459.459 0 0 1-.249-.084 6.252 6.252 0 0 0-.308-.185 2.018 2.018 0 0 0-1.06-.27c-.327 0-.612.058-.858.175-.245.117-.45.283-.615.5-.166.218-.29.481-.371.791-.082.31-.123.66-.123 1.047 0 .401.044.758.133 1.071.089.313.216.576.382.791.165.215.366.378.601.49.236.112.501.168.795.168.29 0 .525-.035.707-.105a2.17 2.17 0 0 0 .455-.231c.121-.084.225-.161.311-.231a.432.432 0 0 1 .277-.105c.121 0 .215.047.28.14l.427.553c-.173.21-.364.387-.574.532-.21.145-.432.262-.665.354a3.492 3.492 0 0 1-.728.196 4.9 4.9 0 0 1-.763.059 3.11 3.11 0 0 1-1.242-.249 2.902 2.902 0 0 1-1.009-.72 3.438 3.438 0 0 1-.678-1.155c-.166-.456-.249-.975-.249-1.558 0-.527.075-1.016.224-1.466.15-.45.367-.84.654-1.166a2.974 2.974 0 0 1 1.068-.766c.425-.185.915-.277 1.47-.277.518 0 .974.084 1.368.252.395.168.746.406 1.054.714l-.399.546zm5.488 2.618a9.52 9.52 0 0 0-1.358.13 3.855 3.855 0 0 0-.896.258c-.229.106-.393.23-.493.375a.817.817 0 0 0-.151.476c0 .168.027.311.08.43a.784.784 0 0 0 .225.294.911.911 0 0 0 .335.169c.129.035.27.052.424.052.392 0 .73-.073 1.011-.22.283-.148.557-.361.823-.641v-1.323zm-3.99-3.024c.807-.751 1.769-1.127 2.884-1.127.41 0 .776.066 1.096.2.32.133.587.32.804.563.218.243.383.53.498.865.114.333.171.703.171 1.109V95h-.672a.655.655 0 0 1-.329-.067c-.075-.044-.138-.134-.189-.269l-.147-.581c-.182.163-.362.31-.539.438a3.4 3.4 0 0 1-.55.325 2.701 2.701 0 0 1-.609.2 3.591 3.591 0 0 1-.717.066c-.29 0-.559-.04-.808-.119-.25-.08-.466-.2-.648-.36a1.705 1.705 0 0 1-.43-.599 2.067 2.067 0 0 1-.158-.84c0-.275.073-.544.22-.805.148-.261.39-.496.728-.703.339-.208.784-.38 1.337-.515.554-.135 1.236-.212 2.048-.231v-.476c0-.513-.11-.896-.329-1.148-.22-.252-.541-.378-.966-.378-.29 0-.532.036-.728.108-.196.073-.366.151-.511.235a9.608 9.608 0 0 0-.385.234.647.647 0 0 1-.357.109.428.428 0 0 1-.263-.08.666.666 0 0 1-.178-.2l-.273-.49zM562.227 95h-1.505v-5.957h-3.479v4.053c0 .257.063.453.189.588a.656.656 0 0 0 .504.203.888.888 0 0 0 .301-.046c.084-.03.156-.062.217-.097.06-.036.113-.068.158-.099a.23.23 0 0 1 .129-.045c.084 0 .152.047.203.14l.448.735a2.442 2.442 0 0 1-.826.473 2.98 2.98 0 0 1-.98.164c-.593 0-1.049-.167-1.369-.5-.32-.334-.479-.804-.479-1.411v-4.158h-.784a.317.317 0 0 1-.217-.08c-.06-.054-.091-.135-.091-.242v-.609l1.155-.168.329-2.065a.398.398 0 0 1 .119-.193.328.328 0 0 1 .224-.073h.77v2.345h4.984V95zm.308-9.331a.917.917 0 0 1-.08.382 1.024 1.024 0 0 1-.221.314 1.074 1.074 0 0 1-.326.218.966.966 0 0 1-1.085-.218 1.055 1.055 0 0 1-.216-.314.983.983 0 0 1 0-.777 1.03 1.03 0 0 1 .532-.54.966.966 0 0 1 .77 0c.123.054.232.126.325.218a1.001 1.001 0 0 1 .301.717zm4.676 2.079c.527 0 1.004.086 1.432.259a3.07 3.07 0 0 1 1.091.735c.302.317.534.702.697 1.155.163.453.245.961.245 1.526 0 .565-.082 1.073-.245 1.526a3.299 3.299 0 0 1-.697 1.159c-.3.32-.664.565-1.091.738a3.787 3.787 0 0 1-1.432.259 3.807 3.807 0 0 1-1.438-.259 3.081 3.081 0 0 1-1.096-.739 3.272 3.272 0 0 1-.7-1.158 4.474 4.474 0 0 1-.245-1.526c0-.565.082-1.073.245-1.526.163-.453.397-.838.7-1.155a3.104 3.104 0 0 1 1.096-.735 3.807 3.807 0 0 1 1.438-.259zm0 6.181c.644 0 1.123-.216 1.438-.648.316-.431.473-1.048.473-1.851 0-.803-.157-1.422-.472-1.859-.316-.436-.795-.654-1.439-.654-.653 0-1.139.218-1.456.654-.317.437-.476 1.056-.476 1.859 0 .803.159 1.42.476 1.851.317.432.803.648 1.456.648zm6.314-5.124c.154-.159.314-.302.48-.43.165-.129.341-.24.528-.333.187-.093.385-.166.595-.217.21-.051.439-.077.686-.077.392 0 .736.065 1.033.196.296.13.545.315.749.553.203.238.355.524.458.858.103.333.154.7.154 1.102V95h-1.498v-4.543c0-.48-.11-.854-.332-1.12-.222-.266-.56-.399-1.012-.399-.336 0-.647.077-.934.231a3.205 3.205 0 0 0-.809.63V95h-1.505v-7.14h.91c.205 0 .336.096.392.287l.105.658zm10.71.35a.374.374 0 0 1-.126.14.335.335 0 0 1-.175.042.563.563 0 0 1-.259-.074 10.753 10.753 0 0 0-.329-.164 2.839 2.839 0 0 0-.444-.165 2.176 2.176 0 0 0-.599-.073c-.187 0-.356.022-.508.066-.151.045-.28.108-.385.19a.855.855 0 0 0-.241.286.766.766 0 0 0-.084.354c0 .168.051.308.154.42.103.112.238.209.406.29.168.082.36.156.574.221.215.065.434.135.658.21.224.075.443.161.658.259.215.098.406.218.574.36.168.143.303.315.406.519.103.203.154.449.154.738 0 .336-.06.646-.182.931a2.09 2.09 0 0 1-.532.742c-.233.21-.524.373-.872.49a3.746 3.746 0 0 1-1.193.175 3.8 3.8 0 0 1-.717-.066 4.127 4.127 0 0 1-.659-.183 3.507 3.507 0 0 1-.58-.276 3.06 3.06 0 0 1-.48-.35l.35-.574a.485.485 0 0 1 .158-.164.432.432 0 0 1 .234-.06c.098 0 .195.031.29.095.096.063.208.131.337.206.128.075.283.143.465.207.182.063.408.094.679.094.224 0 .418-.027.581-.08.163-.054.299-.128.406-.221a.886.886 0 0 0 .315-.7.653.653 0 0 0-.154-.448 1.306 1.306 0 0 0-.41-.301 3.778 3.778 0 0 0-.58-.224 23.688 23.688 0 0 1-.662-.21 6.933 6.933 0 0 1-.661-.259 2.276 2.276 0 0 1-.582-.374 1.71 1.71 0 0 1-.409-.553 1.848 1.848 0 0 1-.154-.795 1.973 1.973 0 0 1 .675-1.491 2.45 2.45 0 0 1 .82-.466 3.374 3.374 0 0 1 1.123-.171c.48 0 .917.077 1.309.231.392.154.721.364.987.63l-.336.546zM597.952 51.058c.365 0 .685-.047.963-.14.278-.093.509-.225.693-.395.184-.17.323-.377.417-.62.093-.243.14-.513.14-.812 0-.294-.046-.558-.137-.791a1.538 1.538 0 0 0-.41-.595 1.829 1.829 0 0 0-.689-.374 3.3 3.3 0 0 0-.976-.13h-1.498v3.857h1.497zm0-5.138c.659 0 1.229.077 1.712.231.483.154.882.37 1.197.647.315.278.55.612.703 1.002.155.39.231.82.231 1.291 0 .48-.081.92-.244 1.32a2.763 2.763 0 0 1-.729 1.029 3.416 3.416 0 0 1-1.2.672c-.478.16-1.035.241-1.67.241h-1.497V56h-1.639V45.92h3.136zm6.553 4.263c.224-.453.494-.808.812-1.068a1.747 1.747 0 0 1 1.14-.388c.155 0 .3.017.434.053.136.035.257.087.365.157l-.106 1.134c-.018.08-.047.134-.087.165a.253.253 0 0 1-.158.045c-.07 0-.17-.013-.3-.038a2.14 2.14 0 0 0-.413-.039c-.21 0-.396.03-.557.091-.161.06-.306.15-.434.266a1.79 1.79 0 0 0-.34.427c-.097.168-.188.36-.273.574V56h-1.505v-7.14h.875c.16 0 .269.03.33.087.06.059.102.16.125.305l.091.931zm6.832-1.435c.527 0 1.004.086 1.431.259a3.07 3.07 0 0 1 1.092.735c.301.317.533.702.697 1.155.163.453.245.961.245 1.526 0 .565-.082 1.073-.245 1.526a3.299 3.299 0 0 1-.697 1.159c-.301.32-.665.565-1.092.738a3.787 3.787 0 0 1-1.432.259 3.807 3.807 0 0 1-1.438-.259 3.081 3.081 0 0 1-1.096-.738 3.272 3.272 0 0 1-.7-1.159 4.474 4.474 0 0 1-.245-1.526c0-.565.082-1.073.245-1.526.164-.453.397-.838.7-1.155a3.104 3.104 0 0 1 1.096-.735 3.807 3.807 0 0 1 1.438-.259zm0 6.181c.644 0 1.123-.216 1.438-.648.315-.431.472-1.048.472-1.851 0-.803-.157-1.422-.472-1.858-.315-.437-.794-.655-1.438-.655-.654 0-1.14.218-1.457.654-.317.437-.476 1.056-.476 1.859 0 .803.16 1.42.476 1.852.318.431.803.647 1.457.647zM616.734 56v-5.943l-.7-.098a.623.623 0 0 1-.284-.126.32.32 0 0 1-.109-.259v-.616h1.093v-.301c0-.439.07-.842.21-1.211.14-.369.352-.688.637-.959.284-.27.64-.482 1.067-.634.427-.151.927-.227 1.501-.227.187 0 .38.012.578.035.198.023.367.058.508.105l-.05.784c-.009.098-.067.153-.174.165-.108.011-.25.017-.428.017-.434 0-.802.04-1.106.123a1.85 1.85 0 0 0-.741.37c-.192.166-.33.371-.417.617a2.58 2.58 0 0 0-.13.857v.259h4.375V56h-1.505v-5.957h-2.82V56h-1.505zM626 45.64V56h-1.505V45.64h1.505zm6.546 5.985c0-.252-.037-.486-.109-.703a1.647 1.647 0 0 0-.318-.567 1.452 1.452 0 0 0-.522-.378 1.773 1.773 0 0 0-.717-.137c-.547 0-.976.156-1.288.469-.313.313-.511.751-.596 1.316h3.55zm-3.591.924c.018.406.081.757.188 1.053.108.297.251.543.431.739.18.196.394.342.644.438.25.095.528.143.837.143.294 0 .548-.034.762-.101.215-.068.402-.143.56-.224.16-.082.294-.157.406-.224a.606.606 0 0 1 .308-.102c.122 0 .215.047.28.14l.428.553c-.178.21-.378.387-.602.532a3.508 3.508 0 0 1-.714.353 4.034 4.034 0 0 1-.778.197c-.266.04-.524.059-.777.059-.494 0-.953-.083-1.375-.248a3.059 3.059 0 0 1-1.099-.732 3.377 3.377 0 0 1-.728-1.197c-.175-.476-.262-1.024-.262-1.645 0-.495.078-.957.234-1.386a3.155 3.155 0 0 1 1.736-1.872c.418-.185.89-.277 1.418-.277.438 0 .844.071 1.218.214.373.142.695.35.966.626.27.275.481.612.633 1.011.152.4.228.853.228 1.362 0 .233-.026.39-.077.469-.052.08-.145.119-.28.119h-4.586z" fill="#233745" fill-rule="nonzero"/><g filter="url(#a)" transform="translate(40 137)"><use fill="#000" filter="url(#b)" xlink:href="#c"/><use fill="#FFF" xlink:href="#c"/><use fill="#000" filter="url(#d)" xlink:href="#c"/><text font-family="Lato-Bold, Lato" font-size="14" font-weight="bold" fill="#233745"><tspan x="38" y="91">Home</tspan></text><text font-family="Lato-Semibold, Lato" font-size="14" font-weight="500" fill="#748999"><tspan x="110" y="91">Ships</tspan></text><text font-family="Lato-Semibold, Lato" font-size="14" font-weight="500" fill="#748999"><tspan x="176" y="91">Reports</tspan></text><use fill="#FFF" xlink:href="#e"/><use fill="#000" filter="url(#f)" xlink:href="#e"/><path d="M512.603 34.318l-3.278-3.327c.477-.89.724-1.887.717-2.9a6.13 6.13 0 0 0-1.763-4.307A5.987 5.987 0 0 0 504.02 22a5.985 5.985 0 0 0-4.257 1.784A6.127 6.127 0 0 0 498 28.092c0 1.615.634 3.164 1.764 4.306a5.984 5.984 0 0 0 4.257 1.784c1.088.001 2.156-.3 3.087-.87l3.24 3.277a1.322 1.322 0 0 0 1.911 0l.383-.387-.001.001a1.365 1.365 0 0 0-.038-1.886zm-8.601-2.176a3.952 3.952 0 0 1-2.81-1.177 4.045 4.045 0 0 1-1.166-2.841c0-1.066.417-2.09 1.161-2.844a3.953 3.953 0 0 1 2.809-1.182 3.952 3.952 0 0 1 2.811 1.172 4.045 4.045 0 0 1 1.17 2.84 4.046 4.046 0 0 1-1.154 2.844 3.955 3.955 0 0 1-2.802 1.188H504z" fill="#3E5667"/><path fill="#E2E9EE" d="M533 14h1v30h-1z"/><path d="M559.082 37.792h5.082a2.541 2.541 0 0 1-5.082 0zm2.643-17.79a1.904 1.904 0 0 0-2.008 1.907v.953a5.718 5.718 0 0 0-3.812 5.4v1.588c0 1.01-.4 1.98-1.115 2.694l-.264.263a1.805 1.805 0 0 0-.356 2.04 1.853 1.853 0 0 0 1.697 1.039h11.582c.992 0 1.798-.806 1.798-1.798v-.08c0-.428-.154-.843-.432-1.169l-.556-.635a3.813 3.813 0 0 1-.918-2.494v-1.448a5.718 5.718 0 0 0-3.812-5.4v-.845a1.98 1.98 0 0 0-1.804-2.014z" fill="#3E5667"/><circle fill="#2A77C7" cx="573.5" cy="18.5" r="4.5"/><path d="M32.404 26.01c.143.043.297.066.454.066.396 0 .76-.146 1.05-.389L36 27.183v8.175c0 .904-.686 1.642-1.525 1.642h-12.95c-.84 0-1.525-.738-1.525-1.642v-2.2l2.189-2.207c.25.15.535.239.842.239.465 0 .882-.196 1.19-.515l2.056 1.288a2.174 2.174 0 0 0-.028.342c0 1.019.767 1.846 1.714 1.846.946 0 1.713-.827 1.713-1.846 0-.442-.142-.846-.385-1.165l3.113-5.13zm-9.369 1.488c-.946 0-1.714.827-1.714 1.846 0 .227.04.442.107.642L20 31.46v-8.817c0-.904.686-1.642 1.525-1.642h12.947c.839 0 1.524.738 1.524 1.642v3.08l-1.474-1.061c.028-.139.046-.285.046-.435 0-1.019-.768-1.846-1.714-1.846s-1.714.827-1.714 1.846c0 .4.118.77.318 1.07l-3.12 5.206a1.626 1.626 0 0 0-1.457.373l-2.146-1.292c.007-.077.014-.158.014-.239 0-1.019-.768-1.846-1.714-1.846z" fill="#3E5667"/><text font-family="Lato-Semibold, Lato" font-size="16" font-weight="500" fill="#253B53"><tspan x="47" y="34">App</tspan></text><circle fill="#3E5667" cx="613" cy="29" r="15"/><text font-family="Lato-Bold, Lato" font-size="12" font-weight="bold" fill="#FFF"><tspan x="606.609" y="33.5">TS</tspan></text><path fill="#2A77C7" d="M20 111h74v4H20z"/></g><g transform="rotate(90 -3.5 246.5)"><path fill="#B8C7D2" d="M33 3.5h1v145h-1z"/><path fill="#B8C7D2" d="M33 75.5h21v1H33zM3 2.5h31v1H3z"/><circle fill="#3E5667" cx="3" cy="3" r="3"/><path fill="#B8C7D2" d="M3 147.5h31v1H3z"/><circle fill="#3E5667" cx="3" cy="148" r="3"/><path fill="#B8C7D2" d="M3 75.5h31v1H3z"/><circle fill="#3E5667" cx="3" cy="76" r="3"/></g><path d="M160.532 324.22l-1.386-3.682a10.194 10.194 0 0 1-.343-1.085c-.051.22-.107.421-.168.606-.06.184-.117.346-.168.486l-1.386 3.675h3.451zm3.101 3.78h-1.267a.536.536 0 0 1-.35-.108.705.705 0 0 1-.203-.27l-.84-2.226h-4.34l-.84 2.226a.67.67 0 0 1-.196.259.522.522 0 0 1-.35.119h-1.267l3.997-10.08h1.659l3.997 10.08zm2.401-1.792c.21.27.44.46.69.57.25.11.526.165.829.165.588 0 1.046-.215 1.376-.644.329-.43.493-1.069.493-1.918 0-.439-.037-.813-.112-1.123a2.173 2.173 0 0 0-.322-.76 1.241 1.241 0 0 0-.511-.427 1.663 1.663 0 0 0-.679-.133c-.383 0-.713.083-.99.249a2.811 2.811 0 0 0-.774.71v3.311zm-.077-4.312c.299-.35.638-.632 1.018-.847.38-.215.823-.322 1.327-.322.401 0 .765.08 1.092.242.327.16.607.395.84.703.233.308.414.69.542 1.144.129.456.193.977.193 1.565 0 .527-.071 1.018-.214 1.474a3.6 3.6 0 0 1-.612 1.183 2.855 2.855 0 0 1-.966.784 2.825 2.825 0 0 1-1.281.283c-.42 0-.776-.068-1.068-.203a2.764 2.764 0 0 1-.794-.56v3.031h-1.505v-9.513h.91c.205 0 .336.096.392.287l.126.749zm7.98 4.312c.21.27.44.46.69.57.25.11.526.165.829.165.588 0 1.046-.215 1.375-.644.33-.43.494-1.069.494-1.918 0-.439-.037-.813-.112-1.123a2.173 2.173 0 0 0-.322-.76 1.241 1.241 0 0 0-.511-.427 1.663 1.663 0 0 0-.679-.133c-.383 0-.713.083-.99.249a2.811 2.811 0 0 0-.774.71v3.311zm-.077-4.312c.299-.35.638-.632 1.018-.847.38-.215.823-.322 1.327-.322.401 0 .765.08 1.092.242.327.16.607.395.84.703.233.308.414.69.542 1.144.129.456.193.977.193 1.565 0 .527-.071 1.018-.214 1.474a3.6 3.6 0 0 1-.612 1.183 2.855 2.855 0 0 1-.966.784 2.825 2.825 0 0 1-1.281.283c-.42 0-.776-.068-1.068-.203a2.764 2.764 0 0 1-.794-.56v3.031h-1.505v-9.513h.91c.205 0 .336.096.392.287l.126.749zm18.585-3.976V328h-.833a.714.714 0 0 1-.322-.066.753.753 0 0 1-.252-.221l-5.537-7.112a7.995 7.995 0 0 1 .042.77V328h-1.442v-10.08h.854c.07 0 .13.003.178.01.05.008.095.02.137.039a.397.397 0 0 1 .119.084c.037.037.077.084.119.14l5.544 7.119a9.206 9.206 0 0 1-.042-.819v-6.573h1.435zm5.936 6.958a9.52 9.52 0 0 0-1.358.13 3.855 3.855 0 0 0-.896.259c-.229.105-.393.23-.493.374a.817.817 0 0 0-.151.476c0 .168.027.311.08.43a.784.784 0 0 0 .225.295.911.911 0 0 0 .336.168c.128.035.269.052.423.052.392 0 .73-.073 1.012-.22.282-.148.556-.361.822-.641v-1.323zm-3.99-3.024c.807-.751 1.769-1.127 2.884-1.127.41 0 .776.066 1.096.2.32.133.587.32.805.563.217.243.382.53.497.864.114.334.171.704.171 1.11V328h-.672a.655.655 0 0 1-.329-.066c-.075-.045-.138-.135-.189-.27l-.147-.581c-.182.163-.362.31-.539.438a3.4 3.4 0 0 1-.55.325 2.701 2.701 0 0 1-.608.2 3.591 3.591 0 0 1-.718.066c-.29 0-.559-.04-.808-.119-.25-.08-.466-.2-.648-.36a1.705 1.705 0 0 1-.43-.599 2.068 2.068 0 0 1-.158-.84c0-.275.073-.544.22-.805.148-.261.39-.496.729-.703.338-.208.783-.38 1.337-.515.553-.135 1.235-.212 2.047-.231v-.476c0-.513-.11-.896-.329-1.148-.22-.252-.541-.378-.966-.378-.29 0-.532.036-.728.109-.196.072-.366.15-.511.234a9.607 9.607 0 0 0-.385.235.647.647 0 0 1-.357.108.428.428 0 0 1-.262-.08.666.666 0 0 1-.179-.2l-.273-.49zm13.496-.994l-2.87 7.14h-1.358l-2.87-7.14h1.239c.117 0 .213.03.29.087a.4.4 0 0 1 .151.207l1.582 4.158c.065.196.124.39.175.581.051.191.096.385.133.581.037-.196.083-.388.136-.577.054-.19.114-.384.179-.585l1.61-4.158a.427.427 0 0 1 .154-.21.442.442 0 0 1 .273-.084h1.176z" fill="#233745" fill-rule="nonzero"/><g transform="translate(126 314)"><rect fill="#3E5667" width="19.2" height="18.4" rx="9.2"/><text font-family="Lato-Heavy, Lato" font-size="9.6" font-weight="600" fill="#FFF"><tspan x="6.816" y="12.2">5</tspan></text></g><path d="M48.586 100.753c.089 0 .166.035.231.105l.651.707c-.41.495-.915.876-1.512 1.145-.597.268-1.311.402-2.142.402-.737 0-1.403-.127-1.998-.382a4.393 4.393 0 0 1-1.523-1.064 4.72 4.72 0 0 1-.97-1.627 6.11 6.11 0 0 1-.339-2.079c0-.756.12-1.45.36-2.083a4.777 4.777 0 0 1 1.015-1.63 4.558 4.558 0 0 1 1.568-1.061 5.214 5.214 0 0 1 2.013-.378c.728 0 1.37.118 1.928.353.558.236 1.042.55 1.453.942l-.539.763a.6.6 0 0 1-.133.133.35.35 0 0 1-.21.056c-.093 0-.2-.043-.319-.13a5.02 5.02 0 0 0-.455-.286 3.53 3.53 0 0 0-.693-.288c-.277-.086-.624-.129-1.039-.129-.48 0-.922.084-1.323.252a2.86 2.86 0 0 0-1.036.735c-.29.322-.514.714-.676 1.176a4.771 4.771 0 0 0-.241 1.575c0 .593.084 1.121.252 1.585.168.465.399.857.693 1.176.294.32.64.564 1.036.732a3.25 3.25 0 0 0 1.281.252c.28 0 .53-.015.752-.046a2.833 2.833 0 0 0 1.141-.403c.166-.102.33-.228.494-.377a.422.422 0 0 1 .28-.126zm5.11-5.005c.527 0 1.004.086 1.431.259.428.173.791.418 1.092.735.302.317.534.702.697 1.155.163.453.245.961.245 1.526 0 .565-.082 1.073-.245 1.526a3.299 3.299 0 0 1-.697 1.159c-.3.32-.664.565-1.092.738a3.787 3.787 0 0 1-1.431.259 3.807 3.807 0 0 1-1.438-.259 3.081 3.081 0 0 1-1.096-.738 3.272 3.272 0 0 1-.7-1.159 4.474 4.474 0 0 1-.245-1.526c0-.565.082-1.073.245-1.526.163-.453.397-.838.7-1.155a3.104 3.104 0 0 1 1.095-.735 3.807 3.807 0 0 1 1.439-.259zm0 6.181c.644 0 1.123-.216 1.438-.648.316-.431.473-1.048.473-1.851 0-.803-.157-1.422-.473-1.859-.315-.436-.794-.654-1.438-.654-.653 0-1.139.218-1.456.654-.317.437-.476 1.056-.476 1.859 0 .803.159 1.42.476 1.851.317.432.803.648 1.456.648zm6.314-5.124c.154-.159.314-.302.48-.43.165-.129.341-.24.528-.333.187-.093.385-.166.595-.217.21-.051.439-.077.686-.077.392 0 .736.065 1.032.196.297.13.546.315.75.553.203.238.355.524.458.858.103.333.154.7.154 1.102V103h-1.498v-4.543c0-.48-.11-.854-.333-1.12-.221-.266-.558-.399-1.011-.399-.336 0-.647.077-.934.231a3.205 3.205 0 0 0-.809.63V103h-1.505v-7.14h.91c.205 0 .336.096.392.287l.105.658zm8.736 6.307c-.593 0-1.049-.167-1.368-.5-.32-.334-.48-.804-.48-1.411v-4.158h-.784a.317.317 0 0 1-.217-.08c-.06-.054-.091-.135-.091-.242v-.609l1.155-.168.329-2.065a.398.398 0 0 1 .119-.192.328.328 0 0 1 .224-.074h.77v2.345h1.981v1.085h-1.981v4.053c0 .257.063.453.189.588a.656.656 0 0 0 .504.203.888.888 0 0 0 .301-.045c.084-.03.156-.063.217-.098.06-.036.113-.068.158-.098a.23.23 0 0 1 .129-.046c.084 0 .152.047.203.14l.448.735a2.442 2.442 0 0 1-.826.473 2.98 2.98 0 0 1-.98.164zm6.643-3.234a9.52 9.52 0 0 0-1.358.13 3.855 3.855 0 0 0-.896.259c-.229.105-.393.23-.494.374a.817.817 0 0 0-.15.476c0 .168.027.311.08.43a.784.784 0 0 0 .224.295.911.911 0 0 0 .336.168c.129.035.27.052.424.052.392 0 .73-.073 1.011-.22.283-.148.557-.361.823-.641v-1.323zm-3.99-3.024c.807-.751 1.769-1.127 2.884-1.127.41 0 .776.066 1.096.2.32.133.587.32.804.563.218.243.383.53.498.865.114.333.171.703.171 1.109V103h-.672a.655.655 0 0 1-.329-.066c-.075-.045-.138-.135-.189-.27l-.147-.581c-.182.163-.362.31-.539.438a3.4 3.4 0 0 1-.55.325 2.701 2.701 0 0 1-.608.2 3.591 3.591 0 0 1-.718.066c-.29 0-.559-.04-.808-.119-.25-.08-.466-.2-.648-.36a1.705 1.705 0 0 1-.43-.599 2.068 2.068 0 0 1-.158-.84c0-.275.073-.544.22-.805.148-.261.39-.496.729-.703.338-.208.783-.38 1.337-.515.553-.135 1.235-.212 2.047-.231v-.476c0-.513-.11-.896-.329-1.148-.22-.252-.541-.378-.966-.378-.29 0-.532.036-.728.108-.196.073-.366.151-.511.235a9.607 9.607 0 0 0-.385.235.647.647 0 0 1-.357.108.428.428 0 0 1-.262-.08.666.666 0 0 1-.179-.2l-.273-.49zm8.778-.994V103h-1.505v-7.14h1.505zm.252-2.156a.941.941 0 0 1-.08.385 1.012 1.012 0 0 1-.221.319 1.074 1.074 0 0 1-.325.216.983.983 0 0 1-.777 0 1.01 1.01 0 0 1-.312-.216 1.075 1.075 0 0 1-.213-.319.941.941 0 0 1-.081-.385c0-.14.027-.27.08-.392.054-.121.125-.227.214-.318a1.01 1.01 0 0 1 .312-.217.983.983 0 0 1 .777 0c.123.053.232.125.325.217.093.09.167.197.22.318.054.121.081.252.081.392zm3.052 3.101c.154-.159.314-.302.48-.43.165-.129.341-.24.528-.333.187-.093.385-.166.595-.217.21-.051.439-.077.686-.077.392 0 .736.065 1.033.196.296.13.545.315.749.553.203.238.355.524.458.858.103.333.154.7.154 1.102V103h-1.498v-4.543c0-.48-.11-.854-.332-1.12-.222-.266-.56-.399-1.012-.399-.336 0-.647.077-.934.231a3.205 3.205 0 0 0-.809.63V103h-1.505v-7.14h.91c.205 0 .336.096.392.287l.105.658zm11.13 1.82c0-.252-.036-.486-.109-.703a1.647 1.647 0 0 0-.318-.567 1.452 1.452 0 0 0-.521-.379 1.773 1.773 0 0 0-.718-.136c-.546 0-.975.156-1.288.469-.313.313-.511.751-.595 1.316h3.549zm-3.591.924c.019.406.082.757.189 1.053.107.297.25.543.43.739.18.196.395.342.645.438.25.095.528.143.836.143.294 0 .548-.034.763-.101.215-.068.401-.143.56-.224.159-.082.294-.157.406-.224a.606.606 0 0 1 .308-.102c.121 0 .215.047.28.14l.427.553c-.177.21-.378.387-.602.532a3.508 3.508 0 0 1-.714.354 4.034 4.034 0 0 1-.777.196c-.266.04-.525.059-.777.059-.495 0-.953-.083-1.376-.248a3.059 3.059 0 0 1-1.098-.732 3.377 3.377 0 0 1-.729-1.197c-.175-.476-.262-1.024-.262-1.645 0-.495.078-.957.234-1.386a3.155 3.155 0 0 1 1.736-1.873c.418-.184.89-.276 1.418-.276.439 0 .845.071 1.218.214.373.142.695.35.966.626.27.275.482.612.633 1.012.152.399.228.852.228 1.361 0 .233-.026.39-.077.469-.051.08-.145.119-.28.119H91.02zm7.763-2.366c.224-.453.495-.808.812-1.068a1.747 1.747 0 0 1 1.141-.388c.154 0 .299.017.434.053.135.035.257.087.364.157l-.105 1.134c-.019.08-.048.134-.087.165a.253.253 0 0 1-.158.045c-.07 0-.17-.013-.301-.038a2.14 2.14 0 0 0-.413-.039c-.21 0-.395.03-.556.091-.162.06-.306.15-.434.266a1.79 1.79 0 0 0-.34.427c-.098.168-.189.36-.273.574V103h-1.505v-7.14h.875c.159 0 .268.03.329.087.06.059.103.16.126.305l.091.931z" fill="#233745" fill-rule="nonzero"/><path fill="#B8C7D2" d="M119 100h1v40h-1zM545 128h1v10h-1zM602 97h1v41h-1zM652 58h1v80h-1z"/><g transform="translate(110 42)"><rect fill="#3E5667" y="47" width="19.2" height="18.4" rx="9.2"/><text font-family="Lato-Heavy, Lato" font-size="9.6" font-weight="600" fill="#FFF"><tspan x="6.816" y="59.2">1</tspan></text><rect fill="#3E5667" x="426" y="70" width="19.2" height="18.4" rx="9.2"/><text font-family="Lato-Heavy, Lato" font-size="9.6" font-weight="600" fill="#FFF"><tspan x="432.816" y="82.2">2</tspan></text><rect fill="#3E5667" x="483" y="40" width="19.2" height="18.4" rx="9.2"/><text font-family="Lato-Heavy, Lato" font-size="9.6" font-weight="600" fill="#FFF"><tspan x="489.816" y="52.2">3</tspan></text><rect fill="#3E5667" x="533" width="19.2" height="18.4" rx="9.2"/><text font-family="Lato-Heavy, Lato" font-size="9.6" font-weight="600" fill="#FFF"><tspan x="539.816" y="12.2">4</tspan></text></g><circle fill="#3E5667" cx="120" cy="139.5" r="3"/><circle fill="#3E5667" cx="545.5" cy="139" r="3"/><circle fill="#3E5667" cx="602.5" cy="139" r="3"/><circle fill="#3E5667" cx="652.5" cy="139" r="3"/></g><text font-family="Lato-Semibold, Lato" font-size="15" font-weight="500" fill="#3E5667"><tspan x="1" y="403">The Masthead Anatomy.</tspan></text></g></svg>