<svg viewBox="0 0 726 235" xmlns="http://www.w3.org/2000/svg" xmlns:xlink="http://www.w3.org/1999/xlink"><defs><filter x="-2.6%" y="-13.4%" width="105.1%" height="128.4%" filterUnits="objectBoundingBox" id="a"><feOffset dy="1" in="SourceAlpha" result="shadowOffsetOuter1"/><feGaussianBlur stdDeviation="3" in="shadowOffsetOuter1" result="shadowBlurOuter1"/><feColorMatrix values="0 0 0 0 0 0 0 0 0 0 0 0 0 0 0 0 0 0 0.0408380682 0" in="shadowBlurOuter1" result="shadowMatrixOuter1"/><feMerge><feMergeNode in="shadowMatrixOuter1"/><feMergeNode in="SourceGraphic"/></feMerge></filter><path id="c" d="M0 0h646v116H0z"/><filter x="-.8%" y="-3.4%" width="101.5%" height="108.6%" filterUnits="objectBoundingBox" id="b"><feOffset dy="1" in="SourceAlpha" result="shadowOffsetOuter1"/><feGaussianBlur stdDeviation="1.5" in="shadowOffsetOuter1" result="shadowBlurOuter1"/><feColorMatrix values="0 0 0 0 0 0 0 0 0 0 0 0 0 0 0 0 0 0 0.0620902535 0" in="shadowBlurOuter1"/></filter><filter x="-.5%" y="-2.2%" width="101.1%" height="106%" filterUnits="objectBoundingBox" id="d"><feOffset dy="-1" in="SourceAlpha" result="shadowOffsetInner1"/><feComposite in="shadowOffsetInner1" in2="SourceAlpha" operator="arithmetic" k2="-1" k3="1" result="shadowInnerInner1"/><feColorMatrix values="0 0 0 0 0.88627451 0 0 0 0 0.91372549 0 0 0 0 0.933333333 0 0 0 1 0" in="shadowInnerInner1"/></filter><path id="e" d="M0 0h646v58H0z"/><filter x="-.1%" y="-.9%" width="100.2%" height="101.7%" filterUnits="objectBoundingBox" id="f"><feOffset dy="-1" in="SourceAlpha" result="shadowOffsetInner1"/><feComposite in="shadowOffsetInner1" in2="SourceAlpha" operator="arithmetic" k2="-1" k3="1" result="shadowInnerInner1"/><feColorMatrix values="0 0 0 0 0.88627451 0 0 0 0 0.91372549 0 0 0 0 0.933333333 0 0 0 1 0" in="shadowInnerInner1"/></filter></defs><g fill="none" fill-rule="evenodd"><path stroke="#B8C7D2" fill="#F8FAFC" d="M.5.5h725v195H.5z"/><g filter="url(#a)" transform="translate(40 40)"><g><use fill="#000" filter="url(#b)" xlink:href="#c"/><use fill="#FFF" xlink:href="#c"/><use fill="#000" filter="url(#d)" xlink:href="#c"/><text font-family="Lato-Bold, Lato" font-size="14" font-weight="bold" fill="#233745"><tspan x="38" y="91">Home</tspan></text><text font-family="Lato-Semibold, Lato" font-size="14" font-weight="500" fill="#748999"><tspan x="110" y="91">Ships</tspan></text><text font-family="Lato-Semibold, Lato" font-size="14" font-weight="500" fill="#748999"><tspan x="176" y="91">Reports</tspan></text><use fill="#FFF" xlink:href="#e"/><use fill="#000" filter="url(#f)" xlink:href="#e"/><path d="M512.603 34.318l-3.278-3.327c.477-.89.724-1.887.717-2.9a6.13 6.13 0 0 0-1.763-4.307A5.987 5.987 0 0 0 504.02 22a5.985 5.985 0 0 0-4.257 1.784A6.127 6.127 0 0 0 498 28.092c0 1.615.634 3.164 1.764 4.306a5.984 5.984 0 0 0 4.257 1.784c1.088.001 2.156-.3 3.087-.87l3.24 3.277a1.322 1.322 0 0 0 1.911 0l.383-.387-.001.001a1.365 1.365 0 0 0-.038-1.886zm-8.601-2.176a3.952 3.952 0 0 1-2.81-1.177 4.045 4.045 0 0 1-1.166-2.841c0-1.066.417-2.09 1.161-2.844a3.953 3.953 0 0 1 2.809-1.182 3.952 3.952 0 0 1 2.811 1.172 4.045 4.045 0 0 1 1.17 2.84 4.046 4.046 0 0 1-1.154 2.844 3.955 3.955 0 0 1-2.802 1.188H504z" fill="#3E5667"/><path fill="#E2E9EE" d="M533 14h1v30h-1z"/><path d="M559.082 37.792h5.082a2.541 2.541 0 0 1-5.082 0zm2.643-17.79a1.904 1.904 0 0 0-2.008 1.907v.953a5.718 5.718 0 0 0-3.812 5.4v1.588c0 1.01-.4 1.98-1.115 2.694l-.264.263a1.805 1.805 0 0 0-.356 2.04 1.853 1.853 0 0 0 1.697 1.039h11.582c.992 0 1.798-.806 1.798-1.798v-.08c0-.428-.154-.843-.432-1.169l-.556-.635a3.813 3.813 0 0 1-.918-2.494v-1.448a5.718 5.718 0 0 0-3.812-5.4v-.845a1.98 1.98 0 0 0-1.804-2.014z" fill="#3E5667"/><circle fill="#2A77C7" cx="573.5" cy="18.5" r="4.5"/><path d="M32.404 26.01c.143.043.297.066.454.066.396 0 .76-.146 1.05-.389L36 27.183v8.175c0 .904-.686 1.642-1.525 1.642h-12.95c-.84 0-1.525-.738-1.525-1.642v-2.2l2.189-2.207c.25.15.535.239.842.239.465 0 .882-.196 1.19-.515l2.056 1.288a2.174 2.174 0 0 0-.028.342c0 1.019.767 1.846 1.714 1.846.946 0 1.713-.827 1.713-1.846 0-.442-.142-.846-.385-1.165l3.113-5.13zm-9.369 1.488c-.946 0-1.714.827-1.714 1.846 0 .227.04.442.107.642L20 31.46v-8.817c0-.904.686-1.642 1.525-1.642h12.947c.839 0 1.524.738 1.524 1.642v3.08l-1.474-1.061c.028-.139.046-.285.046-.435 0-1.019-.768-1.846-1.714-1.846s-1.714.827-1.714 1.846c0 .4.118.77.318 1.07l-3.12 5.206a1.626 1.626 0 0 0-1.457.373l-2.146-1.292c.007-.077.014-.158.014-.239 0-1.019-.768-1.846-1.714-1.846z" fill="#3E5667"/><text font-family="Lato-Semibold, Lato" font-size="16" font-weight="500" fill="#253B53"><tspan x="47" y="34">App</tspan></text><circle fill="#3E5667" cx="613" cy="29" r="15"/><text font-family="Lato-Bold, Lato" font-size="12" font-weight="bold" fill="#FFF"><tspan x="606.609" y="33.5">TS</tspan></text><path fill="#2A77C7" d="M20 111h74v4H20z"/></g></g><path d="M8.715 222.662H5.348V232H3.6v-9.338H.225V221.2h8.49v1.463zm2.813 2.595a4.06 4.06 0 0 1 1.034-.746c.376-.187.813-.281 1.313-.281.42 0 .789.07 1.106.21.318.14.585.337.803.593.217.255.381.56.491.918.11.358.165.751.165 1.181V232h-1.605v-4.868c0-.515-.119-.914-.356-1.2-.238-.285-.599-.427-1.084-.427-.36 0-.694.082-1.001.248-.308.165-.596.39-.867.675V232H9.915v-11.1h1.613v4.357zm11.82 2.055c0-.27-.04-.52-.117-.753a1.765 1.765 0 0 0-.341-.608 1.556 1.556 0 0 0-.559-.405 1.9 1.9 0 0 0-.768-.146c-.586 0-1.045.167-1.38.502-.336.336-.548.805-.638 1.41h3.802zm-3.848.99c.02.436.087.812.203 1.13.115.317.268.58.46.79.193.21.423.367.69.47.268.102.567.153.897.153.315 0 .587-.036.817-.109.23-.072.43-.152.6-.24.17-.087.315-.167.435-.24a.65.65 0 0 1 .33-.108c.13 0 .23.05.3.15l.458.592c-.19.225-.405.415-.645.57-.24.155-.495.281-.765.379-.27.097-.547.167-.832.21a5.642 5.642 0 0 1-.833.064 4 4 0 0 1-1.474-.267 3.277 3.277 0 0 1-1.177-.784 3.618 3.618 0 0 1-.78-1.282c-.188-.51-.282-1.097-.282-1.762 0-.53.084-1.025.252-1.486a3.38 3.38 0 0 1 1.86-2.006 3.725 3.725 0 0 1 1.518-.296c.47 0 .905.076 1.305.229.4.152.745.376 1.035.671.29.295.517.656.68 1.084.162.427.243.913.243 1.459 0 .25-.027.417-.083.502-.055.085-.154.127-.3.127H19.5zm22.32-7.102V232h-1.545v-7.403a7.533 7.533 0 0 1 .045-.825l-3.473 6.413c-.135.265-.342.398-.622.398h-.248c-.285 0-.492-.133-.622-.398l-3.525-6.428a8.487 8.487 0 0 1 .045.84V232H30.33v-10.8h1.313c.155 0 .274.014.36.041.085.028.162.111.232.251l3.465 6.278c.075.145.146.294.214.446.067.153.128.309.183.469.06-.16.124-.319.192-.476.067-.158.138-.309.213-.454l3.413-6.262c.07-.14.147-.224.233-.252.085-.027.204-.041.36-.041h1.312zm6.352 7.455a10.2 10.2 0 0 0-1.454.139 4.13 4.13 0 0 0-.96.277c-.246.113-.422.246-.53.401a.876.876 0 0 0-.16.51c0 .18.028.334.086.462a.84.84 0 0 0 .24.315.976.976 0 0 0 .36.18c.137.037.288.056.454.056.42 0 .78-.079 1.083-.236a3.39 3.39 0 0 0 .882-.686v-1.418zm-4.274-3.24c.865-.805 1.894-1.207 3.09-1.207.44 0 .83.07 1.173.213.343.143.63.344.863.604.232.26.41.569.532.926.123.358.184.754.184 1.189V232h-.72a.701.701 0 0 1-.353-.071c-.08-.048-.147-.144-.202-.289l-.158-.622a7.102 7.102 0 0 1-.577.468c-.19.138-.386.254-.589.349-.202.095-.42.166-.652.214a3.847 3.847 0 0 1-.769.071c-.31 0-.599-.043-.866-.127a1.901 1.901 0 0 1-.694-.387 1.827 1.827 0 0 1-.461-.641 2.215 2.215 0 0 1-.169-.9c0-.295.079-.582.236-.863.158-.28.418-.53.78-.753.363-.223.84-.406 1.433-.552.592-.145 1.323-.227 2.194-.247v-.51c0-.55-.118-.96-.353-1.23s-.58-.405-1.035-.405c-.31 0-.57.039-.78.116-.21.078-.392.161-.547.251-.156.09-.293.174-.413.252a.693.693 0 0 1-.383.116.459.459 0 0 1-.28-.086.713.713 0 0 1-.192-.214l-.292-.525zm12.292.323a.4.4 0 0 1-.135.15.36.36 0 0 1-.188.044.603.603 0 0 1-.277-.078 11.52 11.52 0 0 0-.353-.177 3.042 3.042 0 0 0-.476-.176 2.331 2.331 0 0 0-.641-.078c-.2 0-.381.023-.544.07-.162.048-.3.116-.412.203a.916.916 0 0 0-.259.308.821.821 0 0 0-.09.379c0 .18.055.33.165.45.11.12.255.223.435.31.18.088.385.167.615.237.23.07.465.145.705.225.24.08.475.172.705.278.23.105.435.233.615.386.18.152.325.337.435.555.11.217.165.481.165.791 0 .36-.065.692-.195.998-.13.305-.32.57-.57.794-.25.226-.561.4-.934.525a4.014 4.014 0 0 1-1.279.188 4.07 4.07 0 0 1-.768-.071 4.421 4.421 0 0 1-.705-.195 3.758 3.758 0 0 1-.623-.297 3.278 3.278 0 0 1-.514-.374l.376-.615a.52.52 0 0 1 .168-.177.463.463 0 0 1 .252-.064.56.56 0 0 1 .31.102c.103.067.223.141.36.221.138.08.304.154.5.221.195.068.437.101.727.101.24 0 .447-.028.623-.086.175-.057.32-.136.434-.236a.949.949 0 0 0 .338-.75.7.7 0 0 0-.165-.48 1.399 1.399 0 0 0-.439-.322c-.182-.09-.39-.17-.622-.24a25.38 25.38 0 0 1-.709-.226 7.428 7.428 0 0 1-.709-.277 2.438 2.438 0 0 1-.622-.401 1.832 1.832 0 0 1-.439-.593c-.11-.232-.165-.516-.165-.851a2.114 2.114 0 0 1 .724-1.597c.237-.21.53-.377.877-.5a3.615 3.615 0 0 1 1.204-.183c.515 0 .982.082 1.402.248.42.165.773.39 1.058.674l-.36.586zm4.433 6.382c-.636 0-1.124-.179-1.467-.536-.342-.358-.514-.861-.514-1.512v-4.454h-.84a.34.34 0 0 1-.232-.087c-.065-.057-.098-.143-.098-.258v-.653l1.238-.18.352-2.213a.427.427 0 0 1 .128-.206.351.351 0 0 1 .24-.078h.825v2.512h2.122v1.162h-2.122v4.343c0 .275.067.485.203.63a.703.703 0 0 0 .54.218.952.952 0 0 0 .322-.05c.09-.032.167-.067.233-.104.065-.038.12-.073.168-.105a.246.246 0 0 1 .139-.049c.09 0 .162.05.218.15l.48.787c-.25.22-.545.39-.886.507-.34.117-.69.176-1.05.176zm4.642-6.863a4.06 4.06 0 0 1 1.035-.746c.375-.187.812-.281 1.313-.281.42 0 .788.07 1.106.21.317.14.585.337.802.593.218.255.381.56.492.918.11.358.164.751.164 1.181V232h-1.605v-4.868c0-.515-.118-.914-.356-1.2-.237-.285-.598-.427-1.084-.427-.36 0-.693.082-1 .248-.308.165-.597.39-.867.675V232h-1.612v-11.1h1.612v4.357zm11.82 2.055c0-.27-.039-.52-.116-.753a1.765 1.765 0 0 0-.341-.608 1.556 1.556 0 0 0-.56-.405 1.9 1.9 0 0 0-.768-.146c-.585 0-1.045.167-1.38.502-.335.336-.547.805-.638 1.41h3.803zm-3.847.99c.02.436.087.812.202 1.13.115.317.269.58.461.79.193.21.423.367.69.47.268.102.566.153.897.153.315 0 .587-.036.817-.109.23-.072.43-.152.6-.24.17-.087.315-.167.435-.24a.65.65 0 0 1 .33-.108c.13 0 .23.05.3.15l.457.592c-.19.225-.404.415-.645.57-.24.155-.494.281-.764.379-.27.097-.548.167-.833.21a5.642 5.642 0 0 1-.832.064 4 4 0 0 1-1.474-.267 3.277 3.277 0 0 1-1.178-.784 3.618 3.618 0 0 1-.78-1.282c-.187-.51-.281-1.097-.281-1.762 0-.53.084-1.025.251-1.486.168-.46.408-.86.72-1.2a3.38 3.38 0 0 1 1.14-.806 3.725 3.725 0 0 1 1.519-.296c.47 0 .905.076 1.305.229.4.152.745.376 1.035.671.29.295.516.656.679 1.084.162.427.243.913.243 1.459 0 .25-.027.417-.082.502-.055.085-.155.127-.3.127h-4.913zm10.882.353a10.2 10.2 0 0 0-1.455.139 4.13 4.13 0 0 0-.96.277c-.245.113-.421.246-.529.401a.876.876 0 0 0-.161.51c0 .18.029.334.086.462a.84.84 0 0 0 .24.315.976.976 0 0 0 .36.18c.138.037.289.056.454.056.42 0 .781-.079 1.084-.236a3.39 3.39 0 0 0 .881-.686v-1.418zm-4.275-3.24c.865-.805 1.895-1.207 3.09-1.207.44 0 .831.07 1.174.213.342.143.63.344.862.604.233.26.41.569.533.926.122.358.183.754.183 1.189V232h-.72a.701.701 0 0 1-.352-.071c-.08-.048-.147-.144-.203-.289l-.157-.622a7.102 7.102 0 0 1-.578.468c-.19.138-.386.254-.588.349-.203.095-.42.166-.653.214a3.847 3.847 0 0 1-.769.071c-.31 0-.598-.043-.866-.127a1.901 1.901 0 0 1-.694-.387 1.827 1.827 0 0 1-.46-.641 2.215 2.215 0 0 1-.17-.9c0-.295.08-.582.237-.863.157-.28.417-.53.78-.753.362-.223.84-.406 1.432-.552.593-.145 1.324-.227 2.194-.247v-.51c0-.55-.117-.96-.353-1.23-.235-.27-.58-.405-1.034-.405-.31 0-.57.039-.78.116-.21.078-.393.161-.548.251-.155.09-.292.174-.412.252a.693.693 0 0 1-.383.116.459.459 0 0 1-.281-.086.713.713 0 0 1-.191-.214l-.293-.525zm12.608.817c-.226-.29-.473-.492-.743-.607a2.216 2.216 0 0 0-.877-.173c-.63 0-1.123.232-1.478.694-.355.463-.532 1.146-.532 2.052 0 .47.04.87.12 1.203.08.333.194.604.344.814.15.21.333.362.548.458.215.095.457.142.728.142.41 0 .763-.089 1.06-.266.298-.178.574-.429.83-.754v-3.563zm1.612-5.332V232h-.975c-.215 0-.352-.102-.413-.308l-.142-.832c-.32.375-.684.677-1.091.907-.408.23-.881.346-1.422.346-.43 0-.82-.087-1.17-.26a2.518 2.518 0 0 1-.9-.753c-.25-.33-.443-.739-.58-1.226a6.19 6.19 0 0 1-.207-1.677c0-.57.076-1.097.229-1.582.152-.485.371-.906.656-1.264a3.048 3.048 0 0 1 1.039-.84 3.033 3.033 0 0 1 1.368-.303c.45 0 .833.07 1.148.213.315.143.597.341.847.597V220.9h1.613zm11.108 4.95a.834.834 0 0 1-.143.15.312.312 0 0 1-.195.053.492.492 0 0 1-.266-.09 6.698 6.698 0 0 0-.33-.2 2.602 2.602 0 0 0-.462-.198c-.18-.06-.404-.09-.674-.09-.35 0-.657.062-.92.188a1.785 1.785 0 0 0-.66.536c-.177.232-.31.515-.397.847a4.41 4.41 0 0 0-.131 1.121c0 .43.047.813.142 1.148.096.335.232.617.41.847.177.23.392.405.644.525.253.12.536.18.852.18.31 0 .562-.037.757-.112.195-.075.357-.157.487-.248.13-.09.242-.172.334-.247a.462.462 0 0 1 .297-.112c.13 0 .23.05.3.15l.457.592c-.185.225-.39.415-.615.57a3.484 3.484 0 0 1-.713.379c-.25.097-.51.167-.78.21a5.25 5.25 0 0 1-.817.064c-.475 0-.919-.09-1.331-.267a3.11 3.11 0 0 1-1.08-.772 3.683 3.683 0 0 1-.728-1.238c-.177-.487-.266-1.043-.266-1.669 0-.565.08-1.088.24-1.57.16-.483.394-.9.701-1.25.308-.35.689-.623 1.144-.82.455-.198.98-.297 1.575-.297.555 0 1.044.09 1.466.27.423.18.799.435 1.129.765l-.427.585zm5.1-1.62c.565 0 1.076.092 1.533.278.458.185.848.447 1.17.787.323.34.571.752.746 1.238.176.485.263 1.03.263 1.635s-.087 1.15-.263 1.635a3.534 3.534 0 0 1-.746 1.24 3.265 3.265 0 0 1-1.17.792 4.058 4.058 0 0 1-1.534.278 4.08 4.08 0 0 1-1.54-.278 3.301 3.301 0 0 1-1.174-.791 3.505 3.505 0 0 1-.75-1.242 4.793 4.793 0 0 1-.263-1.635c0-.605.087-1.15.263-1.635.175-.485.424-.897.75-1.237.325-.34.716-.602 1.173-.787a4.08 4.08 0 0 1 1.541-.278zm0 6.623c.69 0 1.203-.232 1.54-.694.338-.463.507-1.124.507-1.984 0-.86-.169-1.524-.506-1.991-.338-.468-.851-.702-1.541-.702-.7 0-1.22.234-1.56.702-.34.467-.51 1.131-.51 1.991 0 .86.17 1.521.51 1.984.34.462.86.694 1.56.694zM115.53 232v-7.65h.975c.22 0 .36.102.42.308l.105.667c.14-.16.285-.306.435-.439a2.84 2.84 0 0 1 .484-.345 2.383 2.383 0 0 1 1.196-.311c.245 0 .47.035.675.105.205.07.386.17.544.3.157.13.293.287.408.472.116.186.21.393.285.623a2.35 2.35 0 0 1 1.02-1.147 2.66 2.66 0 0 1 .687-.267c.242-.057.488-.086.739-.086.41 0 .776.065 1.098.195.323.13.595.319.818.566.222.248.391.551.506.911.115.36.172.77.172 1.23V232h-1.612v-4.868c0-.54-.116-.946-.349-1.218-.232-.273-.576-.409-1.031-.409a1.58 1.58 0 0 0-.578.105 1.355 1.355 0 0 0-.79.814 1.977 1.977 0 0 0-.117.708V232h-1.613v-4.868c0-.56-.112-.97-.337-1.233-.225-.263-.555-.394-.99-.394-.3 0-.577.076-.833.229-.255.152-.49.361-.704.626V232h-1.613zm14.07-1.92c.225.29.471.494.739.611.267.118.563.177.888.177.63 0 1.122-.23 1.474-.69.353-.46.529-1.145.529-2.055 0-.47-.04-.872-.12-1.204a2.329 2.329 0 0 0-.345-.814 1.33 1.33 0 0 0-.547-.457 1.782 1.782 0 0 0-.728-.143c-.41 0-.764.089-1.061.266a3.012 3.012 0 0 0-.829.762v3.547zm-.082-4.62c.32-.375.683-.677 1.09-.907.408-.23.882-.345 1.422-.345.43 0 .82.086 1.17.258.35.173.65.424.9.754s.444.739.581 1.226a6.19 6.19 0 0 1 .206 1.677c0 .565-.076 1.09-.228 1.578-.153.488-.371.91-.656 1.268-.286.357-.63.637-1.035.84a3.027 3.027 0 0 1-1.373.304c-.45 0-.831-.073-1.144-.218a2.961 2.961 0 0 1-.851-.6v3.248h-1.612V224.35h.975c.22 0 .36.102.42.308l.135.802zm10.244-1.23c.566 0 1.077.092 1.534.278.458.185.848.447 1.17.787.323.34.571.752.746 1.238.176.485.263 1.03.263 1.635s-.087 1.15-.262 1.635a3.534 3.534 0 0 1-.747 1.24 3.265 3.265 0 0 1-1.17.792 4.058 4.058 0 0 1-1.534.278 4.08 4.08 0 0 1-1.54-.278 3.301 3.301 0 0 1-1.174-.791 3.505 3.505 0 0 1-.75-1.242 4.793 4.793 0 0 1-.263-1.635c0-.605.087-1.15.263-1.635.175-.485.424-.897.75-1.237.325-.34.716-.602 1.173-.787a4.08 4.08 0 0 1 1.541-.278zm0 6.623c.69 0 1.204-.232 1.542-.694.337-.463.506-1.124.506-1.984 0-.86-.169-1.524-.506-1.991-.338-.468-.851-.702-1.542-.702-.7 0-1.22.234-1.56.702-.34.467-.51 1.131-.51 1.991 0 .86.17 1.521.51 1.984.34.462.86.694 1.56.694zm6.766-5.49a4.89 4.89 0 0 1 .513-.462 3.42 3.42 0 0 1 .566-.356c.2-.1.413-.177.638-.232.225-.055.47-.083.735-.083.42 0 .789.07 1.106.21.318.14.585.337.803.593.217.255.381.56.491.918.11.358.165.751.165 1.181V232h-1.605v-4.868c0-.515-.119-.914-.356-1.2-.238-.285-.599-.427-1.084-.427-.36 0-.694.082-1.001.248-.308.165-.596.39-.867.675V232h-1.612v-7.65h.975c.22 0 .36.102.42.308l.113.705zm11.924 1.95c0-.27-.038-.522-.116-.754a1.765 1.765 0 0 0-.341-.608 1.556 1.556 0 0 0-.559-.405 1.9 1.9 0 0 0-.769-.146c-.585 0-1.044.167-1.38.502-.335.336-.547.805-.637 1.41h3.802zm-3.847.99c.02.435.087.81.203 1.128.115.318.268.581.46.791.193.21.423.367.69.47.268.102.567.153.897.153.315 0 .587-.036.818-.109.23-.072.43-.152.6-.24.17-.087.314-.167.435-.24a.65.65 0 0 1 .33-.108c.13 0 .23.05.3.15l.457.592c-.19.225-.405.415-.645.57-.24.155-.495.281-.765.379-.27.097-.547.167-.832.21a5.642 5.642 0 0 1-.833.064 4 4 0 0 1-1.474-.267 3.277 3.277 0 0 1-1.177-.784 3.618 3.618 0 0 1-.78-1.282c-.188-.51-.281-1.097-.281-1.762 0-.53.083-1.025.25-1.486.168-.46.408-.86.72-1.2a3.38 3.38 0 0 1 1.14-.806 3.725 3.725 0 0 1 1.52-.296c.47 0 .904.076 1.304.229.4.152.745.376 1.035.671.29.295.517.656.68 1.084.162.427.243.913.243 1.459 0 .25-.028.417-.083.502-.055.085-.154.127-.3.127h-4.912zm8.303-2.94a4.89 4.89 0 0 1 .513-.462 3.42 3.42 0 0 1 .567-.356c.2-.1.412-.177.637-.232.225-.055.47-.083.735-.083.42 0 .789.07 1.106.21.318.14.585.337.803.593.217.255.381.56.491.918.11.358.165.751.165 1.181V232h-1.605v-4.868c0-.515-.119-.914-.356-1.2-.238-.285-.599-.427-1.084-.427-.36 0-.694.082-1.001.248-.308.165-.596.39-.867.675V232H161.4v-7.65h.975c.22 0 .36.102.42.308l.113.705zm9.36 6.757c-.636 0-1.124-.179-1.467-.536-.342-.358-.513-.861-.513-1.512v-4.454h-.84a.34.34 0 0 1-.233-.087c-.065-.057-.097-.143-.097-.258v-.653l1.237-.18.353-2.213a.427.427 0 0 1 .127-.206.351.351 0 0 1 .24-.078h.825v2.512h2.123v1.162H171.9v4.343c0 .275.067.485.202.63a.703.703 0 0 0 .54.218.952.952 0 0 0 .323-.05c.09-.032.167-.067.232-.104.065-.038.122-.073.17-.105a.246.246 0 0 1 .138-.049c.09 0 .162.05.218.15l.48.787c-.25.22-.545.39-.886.507-.34.117-.69.176-1.05.176zm2.782-1.05a1.063 1.063 0 0 1 .296-.743 1.017 1.017 0 0 1 .739-.307c.145 0 .281.028.409.082a1.062 1.062 0 0 1 .559.56c.054.127.082.263.082.408 0 .15-.028.287-.082.412-.055.126-.13.236-.226.33a1.011 1.011 0 0 1-.333.222 1.063 1.063 0 0 1-.409.079c-.145 0-.281-.027-.409-.08a.97.97 0 0 1-.33-.22 1.053 1.053 0 0 1-.296-.743z" fill="#3E5667" fill-rule="nonzero"/></g></svg>