<svg viewBox="0 0 726 438" xmlns="http://www.w3.org/2000/svg" xmlns:xlink="http://www.w3.org/1999/xlink"><defs><filter x="-2.6%" y="-13.4%" width="105.1%" height="128.4%" filterUnits="objectBoundingBox" id="a"><feOffset dy="1" in="SourceAlpha" result="shadowOffsetOuter1"/><feGaussianBlur stdDeviation="3" in="shadowOffsetOuter1" result="shadowBlurOuter1"/><feColorMatrix values="0 0 0 0 0 0 0 0 0 0 0 0 0 0 0 0 0 0 0.0408380682 0" in="shadowBlurOuter1" result="shadowMatrixOuter1"/><feMerge><feMergeNode in="shadowMatrixOuter1"/><feMergeNode in="SourceGraphic"/></feMerge></filter><path id="c" d="M0 0h646v116H0z"/><filter x="-.8%" y="-3.4%" width="101.5%" height="108.6%" filterUnits="objectBoundingBox" id="b"><feOffset dy="1" in="SourceAlpha" result="shadowOffsetOuter1"/><feGaussianBlur stdDeviation="1.5" in="shadowOffsetOuter1" result="shadowBlurOuter1"/><feColorMatrix values="0 0 0 0 0 0 0 0 0 0 0 0 0 0 0 0 0 0 0.0620902535 0" in="shadowBlurOuter1"/></filter><filter x="-.5%" y="-2.2%" width="101.1%" height="106%" filterUnits="objectBoundingBox" id="d"><feOffset dy="-1" in="SourceAlpha" result="shadowOffsetInner1"/><feComposite in="shadowOffsetInner1" in2="SourceAlpha" operator="arithmetic" k2="-1" k3="1" result="shadowInnerInner1"/><feColorMatrix values="0 0 0 0 0.88627451 0 0 0 0 0.91372549 0 0 0 0 0.933333333 0 0 0 1 0" in="shadowInnerInner1"/></filter><path id="e" d="M0 0h646v58H0z"/><filter x="-.1%" y="-.9%" width="100.2%" height="101.7%" filterUnits="objectBoundingBox" id="f"><feOffset dy="-1" in="SourceAlpha" result="shadowOffsetInner1"/><feComposite in="shadowOffsetInner1" in2="SourceAlpha" operator="arithmetic" k2="-1" k3="1" result="shadowInnerInner1"/><feColorMatrix values="0 0 0 0 0.88627451 0 0 0 0 0.91372549 0 0 0 0 0.933333333 0 0 0 1 0" in="shadowInnerInner1"/></filter><filter x="-2.6%" y="-13.4%" width="105.1%" height="128.4%" filterUnits="objectBoundingBox" id="g"><feOffset dy="1" in="SourceAlpha" result="shadowOffsetOuter1"/><feGaussianBlur stdDeviation="3" in="shadowOffsetOuter1" result="shadowBlurOuter1"/><feColorMatrix values="0 0 0 0 0 0 0 0 0 0 0 0 0 0 0 0 0 0 0.0408380682 0" in="shadowBlurOuter1" result="shadowMatrixOuter1"/><feMerge><feMergeNode in="shadowMatrixOuter1"/><feMergeNode in="SourceGraphic"/></feMerge></filter><path id="i" d="M0 0h646v116H0z"/><filter x="-.8%" y="-3.4%" width="101.5%" height="108.6%" filterUnits="objectBoundingBox" id="h"><feOffset dy="1" in="SourceAlpha" result="shadowOffsetOuter1"/><feGaussianBlur stdDeviation="1.5" in="shadowOffsetOuter1" result="shadowBlurOuter1"/><feColorMatrix values="0 0 0 0 0 0 0 0 0 0 0 0 0 0 0 0 0 0 0.0620902535 0" in="shadowBlurOuter1"/></filter><path id="j" d="M0 0h646v58H0z"/><filter x="-.1%" y="-.9%" width="100.2%" height="101.7%" filterUnits="objectBoundingBox" id="k"><feOffset dy="-1" in="SourceAlpha" result="shadowOffsetInner1"/><feComposite in="shadowOffsetInner1" in2="SourceAlpha" operator="arithmetic" k2="-1" k3="1" result="shadowInnerInner1"/><feColorMatrix values="0 0 0 0 0.88627451 0 0 0 0 0.91372549 0 0 0 0 0.933333333 0 0 0 1 0" in="shadowInnerInner1"/></filter></defs><g fill="none" fill-rule="evenodd"><path stroke="#B8C7D2" fill="#F8FAFC" d="M.5.5h725v404H.5z"/><path d="M50.045 40.96a5.56 5.56 0 0 1-.364 2.047 4.621 4.621 0 0 1-1.025 1.593 4.6 4.6 0 0 1-1.59 1.032c-.618.246-1.305.368-2.061.368h-3.808V35.92h3.808c.756 0 1.443.122 2.061.367a4.6 4.6 0 0 1 1.59 1.033c.44.443.782.974 1.025 1.593.243.618.364 1.3.364 2.047zm-1.673 0c0-.579-.078-1.099-.234-1.561a3.232 3.232 0 0 0-.672-1.169 2.929 2.929 0 0 0-1.061-.731 3.66 3.66 0 0 0-1.4-.256h-2.163v7.434h2.163c.518 0 .985-.084 1.4-.252a2.873 2.873 0 0 0 1.06-.731c.292-.32.516-.71.672-1.17.157-.46.235-.98.235-1.564zm7.875.665c0-.252-.036-.486-.108-.703a1.647 1.647 0 0 0-.319-.567 1.452 1.452 0 0 0-.522-.378 1.773 1.773 0 0 0-.717-.137c-.546 0-.975.156-1.288.469-.313.313-.511.751-.595 1.316h3.549zm-3.591.924c.019.406.082.757.189 1.053.107.297.25.543.43.739.18.196.395.342.645.438.25.095.528.143.836.143.294 0 .548-.034.763-.101.215-.068.401-.143.56-.224.159-.082.294-.157.406-.224a.606.606 0 0 1 .308-.102c.121 0 .215.047.28.14l.427.553c-.177.21-.378.387-.602.532a3.508 3.508 0 0 1-.714.353 4.034 4.034 0 0 1-.777.197c-.266.04-.525.059-.777.059-.495 0-.953-.083-1.376-.248a3.059 3.059 0 0 1-1.098-.732 3.377 3.377 0 0 1-.728-1.197c-.176-.476-.263-1.024-.263-1.645 0-.495.078-.957.235-1.386a3.155 3.155 0 0 1 1.736-1.872c.417-.185.89-.277 1.417-.277.439 0 .845.071 1.218.214.373.142.695.35.966.626.27.275.482.612.633 1.011.152.4.228.853.228 1.362 0 .233-.026.39-.077.469-.051.08-.145.119-.28.119h-4.585zM59.481 46v-5.943l-.7-.098a.623.623 0 0 1-.283-.126.32.32 0 0 1-.109-.259v-.616h1.092v-.602c0-.406.06-.77.178-1.092a2.26 2.26 0 0 1 .511-.819c.222-.224.492-.395.809-.514a3.033 3.033 0 0 1 1.071-.179 2.695 2.695 0 0 1 .896.14l-.028.756c-.01.126-.071.2-.185.224a2.206 2.206 0 0 1-.431.035c-.21 0-.399.024-.567.074a1.007 1.007 0 0 0-.43.248c-.12.117-.21.27-.273.462-.064.191-.095.43-.095.714v.553h1.953v1.085h-1.904V46h-1.505zm8.295-3.122a9.52 9.52 0 0 0-1.358.13 3.855 3.855 0 0 0-.896.258c-.229.106-.393.23-.494.375a.817.817 0 0 0-.15.476c0 .168.027.311.08.43a.784.784 0 0 0 .225.295.911.911 0 0 0 .335.168c.129.035.27.052.424.052.392 0 .73-.073 1.012-.22.282-.148.556-.361.822-.641v-1.323zm-3.99-3.024c.807-.751 1.769-1.127 2.884-1.127.41 0 .776.066 1.096.2.32.133.587.32.804.563.218.243.383.53.498.864.114.334.171.704.171 1.11V46h-.672a.655.655 0 0 1-.329-.066c-.075-.045-.138-.135-.189-.27l-.147-.581c-.182.163-.362.31-.539.438a3.4 3.4 0 0 1-.55.325 2.701 2.701 0 0 1-.609.2 3.591 3.591 0 0 1-.717.066c-.29 0-.559-.04-.808-.119-.25-.08-.466-.2-.648-.36a1.705 1.705 0 0 1-.43-.599 2.068 2.068 0 0 1-.158-.84c0-.275.073-.544.22-.805.148-.261.39-.496.728-.704.339-.207.784-.379 1.337-.514.554-.135 1.236-.212 2.048-.231v-.476c0-.513-.11-.896-.329-1.148-.22-.252-.541-.378-.966-.378-.29 0-.532.036-.728.108-.196.073-.366.151-.511.235a9.607 9.607 0 0 0-.385.235.647.647 0 0 1-.357.108.428.428 0 0 1-.263-.08.666.666 0 0 1-.178-.2l-.273-.49zm13.23-.994V46h-.91c-.2 0-.329-.096-.385-.287l-.112-.665c-.15.159-.307.303-.472.434-.166.13-.342.243-.529.336a2.81 2.81 0 0 1-1.281.294c-.392 0-.737-.065-1.036-.196a2.057 2.057 0 0 1-.752-.553 2.382 2.382 0 0 1-.459-.858 3.736 3.736 0 0 1-.154-1.102V38.86h1.505v4.543c0 .48.11.854.332 1.12.222.266.56.399 1.012.399.331 0 .64-.076.927-.227.288-.152.557-.361.809-.627V38.86h1.505zm3.367-3.22V46h-1.505V35.64h1.505zm4.151 10.472c-.593 0-1.049-.167-1.369-.5-.32-.334-.479-.804-.479-1.411v-4.158h-.784a.317.317 0 0 1-.217-.08c-.06-.054-.091-.135-.091-.242v-.609l1.155-.168.329-2.065a.398.398 0 0 1 .119-.192.328.328 0 0 1 .224-.074h.77v2.345h1.981v1.085h-1.981v4.053c0 .257.063.453.189.588a.656.656 0 0 0 .504.203.888.888 0 0 0 .301-.045c.084-.03.156-.063.217-.099.06-.035.113-.067.157-.098a.23.23 0 0 1 .13-.045c.084 0 .152.047.203.14l.448.735a2.442 2.442 0 0 1-.826.472 2.98 2.98 0 0 1-.98.165zm11.865-8.47a.618.618 0 0 1-.161.185.354.354 0 0 1-.21.06.545.545 0 0 1-.297-.112 5.832 5.832 0 0 0-.406-.248 3.56 3.56 0 0 0-.571-.252 2.373 2.373 0 0 0-.784-.116c-.28 0-.526.035-.739.105-.212.07-.39.168-.535.294a1.212 1.212 0 0 0-.325.444c-.073.17-.109.356-.109.557 0 .257.068.47.203.64.135.17.314.317.535.438.222.121.475.227.76.319.285.09.575.187.871.29.297.103.587.22.872.35.285.13.538.296.76.497.221.2.4.446.535.735.135.29.203.642.203 1.057 0 .448-.077.868-.231 1.26a2.968 2.968 0 0 1-.668 1.025 3.113 3.113 0 0 1-1.079.69 3.963 3.963 0 0 1-1.459.252c-.322 0-.636-.031-.941-.095a4.88 4.88 0 0 1-.876-.266 4.38 4.38 0 0 1-.78-.416 3.918 3.918 0 0 1-.651-.546l.476-.784a.462.462 0 0 1 .161-.154.43.43 0 0 1 .217-.056c.107 0 .226.05.357.15.13.1.288.21.472.33.185.119.408.228.669.328.261.1.574.151.938.151.593 0 1.051-.145 1.376-.434.324-.29.486-.688.486-1.197 0-.285-.068-.517-.203-.697a1.649 1.649 0 0 0-.535-.451 3.847 3.847 0 0 0-.76-.308 32.878 32.878 0 0 1-.868-.27 8.541 8.541 0 0 1-.868-.335 2.763 2.763 0 0 1-.76-.505 2.334 2.334 0 0 1-.535-.77c-.135-.305-.203-.687-.203-1.144a2.716 2.716 0 0 1 .837-1.964c.273-.263.61-.474 1.011-.633a3.709 3.709 0 0 1 1.372-.238c.579 0 1.11.091 1.593.273.483.182.899.441 1.249.777l-.399.784zm4.375 8.47c-.593 0-1.049-.167-1.368-.5-.32-.334-.48-.804-.48-1.411v-4.158h-.784a.317.317 0 0 1-.217-.08c-.06-.054-.091-.135-.091-.242v-.609l1.155-.168.329-2.065a.398.398 0 0 1 .119-.192.328.328 0 0 1 .224-.074h.77v2.345h1.981v1.085h-1.981v4.053c0 .257.063.453.189.588a.656.656 0 0 0 .504.203.888.888 0 0 0 .301-.045c.084-.03.156-.063.217-.099.06-.035.113-.067.157-.098a.23.23 0 0 1 .13-.045c.084 0 .152.047.203.14l.448.735a2.442 2.442 0 0 1-.826.472 2.98 2.98 0 0 1-.98.165zm6.643-3.234a9.52 9.52 0 0 0-1.358.13 3.855 3.855 0 0 0-.896.258c-.229.106-.393.23-.493.375a.817.817 0 0 0-.151.476c0 .168.027.311.08.43a.784.784 0 0 0 .224.295.911.911 0 0 0 .337.168c.128.035.269.052.423.052.392 0 .73-.073 1.011-.22.283-.148.557-.361.823-.641v-1.323zm-3.99-3.024c.807-.751 1.769-1.127 2.884-1.127.41 0 .776.066 1.095.2.32.133.588.32.805.563.218.243.383.53.498.864.114.334.171.704.171 1.11V46h-.672a.655.655 0 0 1-.329-.066c-.075-.045-.138-.135-.189-.27l-.147-.581c-.182.163-.362.31-.539.438a3.4 3.4 0 0 1-.55.325 2.701 2.701 0 0 1-.608.2 3.591 3.591 0 0 1-.718.066c-.29 0-.559-.04-.808-.119-.25-.08-.466-.2-.648-.36a1.705 1.705 0 0 1-.43-.599 2.067 2.067 0 0 1-.158-.84c0-.275.073-.544.22-.805.148-.261.39-.496.728-.704.339-.207.784-.379 1.338-.514.553-.135 1.235-.212 2.047-.231v-.476c0-.513-.11-.896-.329-1.148-.22-.252-.541-.378-.966-.378-.29 0-.532.036-.728.108-.196.073-.366.151-.511.235a9.608 9.608 0 0 0-.385.235.647.647 0 0 1-.357.108.428.428 0 0 1-.263-.08.666.666 0 0 1-.178-.2l-.273-.49zm9.499 6.258c-.593 0-1.049-.167-1.368-.5-.32-.334-.48-.804-.48-1.411v-4.158h-.784a.317.317 0 0 1-.217-.08c-.06-.054-.091-.135-.091-.242v-.609l1.155-.168.329-2.065a.398.398 0 0 1 .119-.192.328.328 0 0 1 .224-.074h.77v2.345h1.981v1.085h-1.981v4.053c0 .257.063.453.189.588a.656.656 0 0 0 .504.203.888.888 0 0 0 .301-.045c.084-.03.156-.063.217-.099.06-.035.113-.067.157-.098a.23.23 0 0 1 .13-.045c.084 0 .152.047.203.14l.448.735a2.442 2.442 0 0 1-.826.472 2.98 2.98 0 0 1-.98.165zm7.511-4.487c0-.252-.036-.486-.108-.703a1.647 1.647 0 0 0-.319-.567 1.452 1.452 0 0 0-.522-.378 1.773 1.773 0 0 0-.717-.137c-.546 0-.975.156-1.288.469-.313.313-.511.751-.595 1.316h3.549zm-3.591.924c.019.406.082.757.189 1.053.107.297.25.543.43.739.18.196.395.342.644.438.25.095.529.143.837.143.294 0 .548-.034.763-.101.215-.068.401-.143.56-.224.159-.082.294-.157.406-.224a.606.606 0 0 1 .308-.102c.121 0 .215.047.28.14l.427.553c-.177.21-.378.387-.602.532a3.508 3.508 0 0 1-.714.353 4.034 4.034 0 0 1-.777.197c-.266.04-.525.059-.777.059-.495 0-.953-.083-1.375-.248a3.059 3.059 0 0 1-1.1-.732 3.377 3.377 0 0 1-.727-1.197c-.176-.476-.263-1.024-.263-1.645 0-.495.078-.957.234-1.386a3.155 3.155 0 0 1 1.736-1.872c.418-.185.89-.277 1.418-.277.439 0 .845.071 1.218.214.373.142.695.35.966.626.27.275.482.612.633 1.011.152.4.228.853.228 1.362 0 .233-.026.39-.077.469-.051.08-.145.119-.28.119h-4.585z" fill="#233745" fill-rule="nonzero"/><g filter="url(#a)" transform="translate(40 60)"><use fill="#000" filter="url(#b)" xlink:href="#c"/><use fill="#FFF" xlink:href="#c"/><use fill="#000" filter="url(#d)" xlink:href="#c"/><text font-family="Lato-Bold, Lato" font-size="14" font-weight="bold" fill="#233745"><tspan x="38" y="91">Home</tspan></text><text font-family="Lato-Semibold, Lato" font-size="14" font-weight="500" fill="#748999"><tspan x="110" y="91">Ships</tspan></text><text font-family="Lato-Semibold, Lato" font-size="14" font-weight="500" fill="#748999"><tspan x="176" y="91">Reports</tspan></text><use fill="#FFF" xlink:href="#e"/><use fill="#000" filter="url(#f)" xlink:href="#e"/><path d="M512.603 34.318l-3.278-3.327c.477-.89.724-1.887.717-2.9a6.13 6.13 0 0 0-1.763-4.307A5.987 5.987 0 0 0 504.02 22a5.985 5.985 0 0 0-4.257 1.784A6.127 6.127 0 0 0 498 28.092c0 1.615.634 3.164 1.764 4.306a5.984 5.984 0 0 0 4.257 1.784c1.088.001 2.156-.3 3.087-.87l3.24 3.277a1.322 1.322 0 0 0 1.911 0l.383-.387-.001.001a1.365 1.365 0 0 0-.038-1.886zm-8.601-2.176a3.952 3.952 0 0 1-2.81-1.177 4.045 4.045 0 0 1-1.166-2.841c0-1.066.417-2.09 1.161-2.844a3.953 3.953 0 0 1 2.809-1.182 3.952 3.952 0 0 1 2.811 1.172 4.045 4.045 0 0 1 1.17 2.84 4.046 4.046 0 0 1-1.154 2.844 3.955 3.955 0 0 1-2.802 1.188H504z" fill="#3E5667"/><path fill="#E2E9EE" d="M533 14h1v30h-1z"/><path d="M559.082 37.792h5.082a2.541 2.541 0 0 1-5.082 0zm2.643-17.79a1.904 1.904 0 0 0-2.008 1.907v.953a5.718 5.718 0 0 0-3.812 5.4v1.588c0 1.01-.4 1.98-1.115 2.694l-.264.263a1.805 1.805 0 0 0-.356 2.04 1.853 1.853 0 0 0 1.697 1.039h11.582c.992 0 1.798-.806 1.798-1.798v-.08c0-.428-.154-.843-.432-1.169l-.556-.635a3.813 3.813 0 0 1-.918-2.494v-1.448a5.718 5.718 0 0 0-3.812-5.4v-.845a1.98 1.98 0 0 0-1.804-2.014z" fill="#3E5667"/><circle fill="#2A77C7" cx="573.5" cy="18.5" r="4.5"/><path d="M32.404 26.01c.143.043.297.066.454.066.396 0 .76-.146 1.05-.389L36 27.183v8.175c0 .904-.686 1.642-1.525 1.642h-12.95c-.84 0-1.525-.738-1.525-1.642v-2.2l2.189-2.207c.25.15.535.239.842.239.465 0 .882-.196 1.19-.515l2.056 1.288a2.174 2.174 0 0 0-.028.342c0 1.019.767 1.846 1.714 1.846.946 0 1.713-.827 1.713-1.846 0-.442-.142-.846-.385-1.165l3.113-5.13zm-9.369 1.488c-.946 0-1.714.827-1.714 1.846 0 .227.04.442.107.642L20 31.46v-8.817c0-.904.686-1.642 1.525-1.642h12.947c.839 0 1.524.738 1.524 1.642v3.08l-1.474-1.061c.028-.139.046-.285.046-.435 0-1.019-.768-1.846-1.714-1.846s-1.714.827-1.714 1.846c0 .4.118.77.318 1.07l-3.12 5.206a1.626 1.626 0 0 0-1.457.373l-2.146-1.292c.007-.077.014-.158.014-.239 0-1.019-.768-1.846-1.714-1.846z" fill="#3E5667"/><text font-family="Lato-Semibold, Lato" font-size="16" font-weight="500" fill="#253B53"><tspan x="47" y="34">App</tspan></text><circle fill="#3E5667" cx="613" cy="29" r="15"/><text font-family="Lato-Bold, Lato" font-size="12" font-weight="bold" fill="#FFF"><tspan x="606.609" y="33.5">TS</tspan></text><path fill="#2A77C7" d="M20 111h74v4H20z"/></g><g filter="url(#g)" transform="translate(40 240)"><use fill="#000" filter="url(#h)" xlink:href="#i"/><use fill="#3E5667" xlink:href="#i"/><rect fill="#748999" x="599" y="69" width="38" height="36" rx="3"/><text font-family="Lato-Medium, Lato" font-size="15" font-weight="400" fill="#FFF"><tspan x="20" y="92">Search...</tspan></text><use fill="#FFF" xlink:href="#j"/><use fill="#000" filter="url(#k)" xlink:href="#j"/><path fill="#3E5667" d="M476 0h58v58h-58z"/><path d="M512.603 34.318l-3.278-3.327c.477-.89.724-1.887.717-2.9a6.13 6.13 0 0 0-1.763-4.307A5.987 5.987 0 0 0 504.02 22a5.985 5.985 0 0 0-4.257 1.784A6.127 6.127 0 0 0 498 28.092c0 1.615.634 3.164 1.764 4.306a5.984 5.984 0 0 0 4.257 1.784c1.088.001 2.156-.3 3.087-.87l3.24 3.277a1.322 1.322 0 0 0 1.911 0l.383-.387-.001.001a1.365 1.365 0 0 0-.038-1.886zm-8.601-2.176a3.952 3.952 0 0 1-2.81-1.177 4.045 4.045 0 0 1-1.166-2.841c0-1.066.417-2.09 1.161-2.844a3.953 3.953 0 0 1 2.809-1.182 3.952 3.952 0 0 1 2.811 1.172 4.045 4.045 0 0 1 1.17 2.84 4.046 4.046 0 0 1-1.154 2.844 3.955 3.955 0 0 1-2.802 1.188H504z" fill="#FFF"/><path d="M559.082 37.792h5.082a2.541 2.541 0 0 1-5.082 0zm2.643-17.79a1.904 1.904 0 0 0-2.008 1.907v.953a5.718 5.718 0 0 0-3.812 5.4v1.588c0 1.01-.4 1.98-1.115 2.694l-.264.263a1.805 1.805 0 0 0-.356 2.04 1.853 1.853 0 0 0 1.697 1.039h11.582c.992 0 1.798-.806 1.798-1.798v-.08c0-.428-.154-.843-.432-1.169l-.556-.635a3.813 3.813 0 0 1-.918-2.494v-1.448a5.718 5.718 0 0 0-3.812-5.4v-.845a1.98 1.98 0 0 0-1.804-2.014z" fill="#3E5667"/><circle fill="#2A77C7" cx="573.5" cy="18.5" r="4.5"/><path d="M32.404 26.01c.143.043.297.066.454.066.396 0 .76-.146 1.05-.389L36 27.183v8.175c0 .904-.686 1.642-1.525 1.642h-12.95c-.84 0-1.525-.738-1.525-1.642v-2.2l2.189-2.207c.25.15.535.239.842.239.465 0 .882-.196 1.19-.515l2.056 1.288a2.174 2.174 0 0 0-.028.342c0 1.019.767 1.846 1.714 1.846.946 0 1.713-.827 1.713-1.846 0-.442-.142-.846-.385-1.165l3.113-5.13zm-9.369 1.488c-.946 0-1.714.827-1.714 1.846 0 .227.04.442.107.642L20 31.46v-8.817c0-.904.686-1.642 1.525-1.642h12.947c.839 0 1.524.738 1.524 1.642v3.08l-1.474-1.061c.028-.139.046-.285.046-.435 0-1.019-.768-1.846-1.714-1.846s-1.714.827-1.714 1.846c0 .4.118.77.318 1.07l-3.12 5.206a1.626 1.626 0 0 0-1.457.373l-2.146-1.292c.007-.077.014-.158.014-.239 0-1.019-.768-1.846-1.714-1.846z" fill="#3E5667"/><text font-family="Lato-Semibold, Lato" font-size="16" font-weight="500" fill="#253B53"><tspan x="47" y="34">App</tspan></text><circle fill="#3E5667" cx="613" cy="29" r="15"/><text font-family="Lato-Bold, Lato" font-size="12" font-weight="bold" fill="#FFF"><tspan x="606.609" y="33.5">TS</tspan></text><path d="M619.96 87.928h-7.095c-1.153 0-1.153-1.813 0-1.813h7.095l-2.522-2.564c-.812-.796.428-2.122 1.24-1.282l4.017 4.068a.923.923 0 0 1 0 1.37l-4.017 4.024c-.812.84-2.051-.486-1.24-1.282l2.522-2.52z" fill="#FFF"/></g><path d="M46.9 213.985a.61.61 0 0 1-.157.188.348.348 0 0 1-.21.06.55.55 0 0 1-.308-.124 6.089 6.089 0 0 0-.431-.278 3.339 3.339 0 0 0-.619-.277 2.664 2.664 0 0 0-.862-.124c-.316 0-.592.041-.83.124a1.745 1.745 0 0 0-.595.337 1.41 1.41 0 0 0-.364.503 1.573 1.573 0 0 0-.124.626c0 .29.074.53.221.72.148.19.341.352.581.487.24.136.513.253.818.353.305.1.617.204.938.311.32.108.632.231.937.371.305.14.577.317.817.53.24.212.434.472.582.78.147.307.221.683.221 1.128 0 .475-.081.92-.244 1.335a3.139 3.139 0 0 1-.709 1.088c-.31.31-.69.553-1.143.73-.453.178-.966.267-1.541.267a4.93 4.93 0 0 1-1.928-.386 4.636 4.636 0 0 1-.814-.443 4.02 4.02 0 0 1-.678-.581l.457-.765a.614.614 0 0 1 .161-.15.388.388 0 0 1 .214-.06c.105 0 .226.055.364.165.137.11.307.231.51.364.202.132.445.253.727.363.283.11.626.165 1.032.165.33 0 .624-.043.884-.13.26-.088.48-.213.657-.376.177-.162.313-.358.409-.589.095-.23.142-.484.142-.764 0-.316-.072-.573-.218-.773a1.773 1.773 0 0 0-.577-.502 4.23 4.23 0 0 0-.817-.345c-.306-.095-.618-.194-.938-.297a9.396 9.396 0 0 1-.938-.356 3.04 3.04 0 0 1-.817-.529 2.392 2.392 0 0 1-.578-.817c-.145-.328-.217-.731-.217-1.212a2.878 2.878 0 0 1 .881-2.073c.288-.278.641-.5 1.062-.668.42-.167.9-.251 1.44-.251a4.67 4.67 0 0 1 1.668.289 3.87 3.87 0 0 1 1.324.828l-.39.758zm7.335 4.357a2.5 2.5 0 0 0-.124-.802 1.822 1.822 0 0 0-.363-.637c-.16-.18-.355-.32-.585-.42-.23-.1-.495-.15-.795-.15-.616 0-1.1.177-1.452.532-.352.355-.576.847-.671 1.477h3.99zm1.208 3.57a2.88 2.88 0 0 1-.623.544 3.612 3.612 0 0 1-.75.371 4.548 4.548 0 0 1-.821.21 5.31 5.31 0 0 1-.837.068 3.921 3.921 0 0 1-1.458-.266 3.242 3.242 0 0 1-1.163-.78 3.558 3.558 0 0 1-.765-1.275c-.182-.508-.274-1.091-.274-1.751 0-.53.083-1.024.248-1.482.165-.457.401-.856.709-1.196.307-.34.683-.607 1.128-.802a3.7 3.7 0 0 1 1.5-.293c.466 0 .894.076 1.287.229.392.152.731.373 1.016.663.285.29.509.648.671 1.073.163.425.244.91.244 1.455 0 .225-.025.376-.075.454-.05.077-.142.116-.277.116h-4.995c.015.455.08.851.195 1.189a2.4 2.4 0 0 0 .476.844c.202.225.443.392.724.502.28.11.592.165.937.165.325 0 .606-.037.844-.112.237-.076.442-.157.615-.244.172-.088.317-.169.435-.244a.6.6 0 0 1 .311-.112c.12 0 .212.044.278.135l.42.54zm5.782-2.294c-.595.02-1.1.066-1.515.138-.415.073-.752.169-1.013.289-.26.12-.447.261-.562.424a.92.92 0 0 0-.172.543c0 .19.03.354.093.492.063.137.148.25.255.337.108.088.234.151.379.191.145.04.302.06.473.06a2.463 2.463 0 0 0 1.62-.563c.15-.119.297-.256.442-.411v-1.5zm-4.29-3.173a4.36 4.36 0 0 1 1.384-.907c.497-.2 1.043-.3 1.639-.3.435 0 .82.07 1.154.213.336.143.618.341.848.597.23.255.404.56.521.915.118.355.176.747.176 1.177V223h-.652a.622.622 0 0 1-.33-.071c-.075-.048-.135-.136-.18-.267l-.157-.667c-.196.18-.388.339-.578.476-.19.138-.389.255-.596.353a3.045 3.045 0 0 1-.664.221c-.235.05-.495.075-.78.075a2.8 2.8 0 0 1-.844-.124 1.79 1.79 0 0 1-1.148-1.016 2.195 2.195 0 0 1-.168-.892c0-.3.081-.59.244-.867.162-.277.427-.526.795-.746.367-.22.847-.4 1.44-.54.592-.14 1.321-.22 2.186-.24v-.555c0-.575-.122-1.005-.367-1.29-.246-.285-.605-.427-1.08-.427-.32 0-.59.04-.807.12a3.11 3.11 0 0 0-.562.266c-.158.097-.295.186-.413.266a.638.638 0 0 1-.364.12.416.416 0 0 1-.258-.082.687.687 0 0 1-.177-.196l-.262-.472zm9.067.398c.246-.5.54-.893.886-1.178.345-.285.76-.427 1.244-.427.166 0 .322.018.47.056.147.037.275.093.385.168l-.097 1.103c-.035.135-.117.203-.248.203a1.8 1.8 0 0 1-.314-.042 2.334 2.334 0 0 0-.45-.041c-.236 0-.443.034-.623.101-.18.068-.341.168-.484.3a2.043 2.043 0 0 0-.379.488 4.88 4.88 0 0 0-.307.656V223h-1.462v-7.62h.84c.16 0 .268.029.326.086.057.058.098.159.123.304l.09 1.072zm9.458-.038a.81.81 0 0 1-.131.131.298.298 0 0 1-.184.049.436.436 0 0 1-.251-.094 2.95 2.95 0 0 0-.81-.405 2.216 2.216 0 0 0-.694-.093c-.36 0-.677.064-.953.195-.275.13-.503.314-.686.555-.182.24-.321.532-.416.877a4.38 4.38 0 0 0-.142 1.162c0 .446.05.842.15 1.19.1.347.242.64.427.877s.41.417.675.54c.265.122.56.184.885.184.315 0 .575-.04.78-.117a2.55 2.55 0 0 0 .51-.251c.135-.09.247-.174.337-.251a.423.423 0 0 1 .278-.117c.12 0 .212.046.278.136l.42.54a2.829 2.829 0 0 1-.59.547c-.217.15-.448.272-.693.367a3.918 3.918 0 0 1-.769.21 4.897 4.897 0 0 1-.814.068c-.475 0-.918-.087-1.33-.262a3.016 3.016 0 0 1-1.073-.766 3.661 3.661 0 0 1-.716-1.233c-.176-.488-.263-1.041-.263-1.661 0-.566.079-1.088.236-1.568.158-.48.39-.894.698-1.241.307-.348.686-.62 1.136-.818.45-.197.965-.296 1.545-.296.545 0 1.025.087 1.44.263.415.175.785.422 1.11.742l-.39.54zm3.3-.458c.32-.325.674-.587 1.061-.787.388-.2.834-.3 1.339-.3.42 0 .789.07 1.106.21.318.14.584.336.799.589.215.252.377.556.487.911.11.355.165.747.165 1.178V223h-1.47v-4.852c0-.546-.124-.97-.374-1.272-.25-.302-.633-.453-1.148-.453-.375 0-.726.088-1.054.266a3.51 3.51 0 0 0-.911.724V223h-1.463v-11.07h1.463v4.417zm16.74 2.64l-1.597-4.177a9.312 9.312 0 0 1-.346-1.08c-.055.215-.11.415-.168.6-.058.185-.114.35-.169.495l-1.59 4.163h3.87zM98.657 223h-1.23a.545.545 0 0 1-.54-.375l-.952-2.498h-4.748l-.952 2.498a.608.608 0 0 1-.195.259.528.528 0 0 1-.345.116h-1.23l4.29-10.77h1.613l4.29 10.77zm6.383-6.195a.81.81 0 0 1-.131.131.298.298 0 0 1-.184.049.436.436 0 0 1-.251-.094 2.95 2.95 0 0 0-.81-.405 2.216 2.216 0 0 0-.694-.093c-.36 0-.677.064-.953.195-.275.13-.503.314-.686.555-.182.24-.321.532-.416.877a4.38 4.38 0 0 0-.143 1.162c0 .446.05.842.15 1.19.1.347.243.64.428.877s.41.417.675.54c.265.122.56.184.885.184.315 0 .575-.04.78-.117a2.55 2.55 0 0 0 .51-.251c.135-.09.248-.174.337-.251a.423.423 0 0 1 .278-.117c.12 0 .213.046.278.136l.42.54a2.829 2.829 0 0 1-.59.547c-.217.15-.448.272-.693.367a3.918 3.918 0 0 1-.769.21 4.897 4.897 0 0 1-.814.068c-.475 0-.918-.087-1.33-.262a3.016 3.016 0 0 1-1.073-.766 3.661 3.661 0 0 1-.716-1.233c-.176-.488-.263-1.041-.263-1.661 0-.566.079-1.088.236-1.568.158-.48.39-.894.698-1.241.307-.348.686-.62 1.136-.818.45-.197.965-.296 1.545-.296.545 0 1.025.087 1.44.263.415.175.785.422 1.11.742l-.39.54zM114.1 223h-1.47v-6.435h-3.825v4.463c0 .3.074.523.221.67a.767.767 0 0 0 .567.222c.135 0 .25-.017.348-.052a1.39 1.39 0 0 0 .251-.117c.07-.042.13-.081.18-.116a.244.244 0 0 1 .135-.052c.05 0 .09.01.117.033a.42.42 0 0 1 .086.109l.435.705c-.24.22-.525.39-.855.51-.33.12-.672.18-1.028.18-.615 0-1.088-.172-1.42-.518-.333-.345-.5-.837-.5-1.477v-4.56h-.885a.305.305 0 0 1-.213-.079c-.058-.052-.087-.131-.087-.236v-.593l1.246-.172.322-2.273a.353.353 0 0 1 .116-.198.336.336 0 0 1 .222-.072h.742v2.558h5.295v7.5zm.33-10.02a.933.933 0 0 1-.083.386 1.008 1.008 0 0 1-.938.619.944.944 0 0 1-.381-.079 1.032 1.032 0 0 1-.537-.54 1.016 1.016 0 0 1 .536-1.328.997.997 0 0 1 .772 0 1.008 1.008 0 0 1 .549.544.976.976 0 0 1 .082.398zm8.407 2.4l-3.09 7.62h-1.32l-3.09-7.62h1.208a.47.47 0 0 1 .285.083.393.393 0 0 1 .15.21l1.822 4.68c.066.195.122.388.17.58.047.193.09.384.13.575.04-.19.085-.38.135-.57.05-.19.11-.385.18-.585l1.846-4.68a.435.435 0 0 1 .427-.293h1.148zm6.218 2.963a2.5 2.5 0 0 0-.124-.803 1.822 1.822 0 0 0-.364-.637c-.16-.18-.354-.32-.585-.42-.23-.1-.494-.15-.794-.15-.616 0-1.1.177-1.452.532-.352.355-.576.847-.671 1.477h3.99zm1.207 3.57a2.88 2.88 0 0 1-.622.543 3.612 3.612 0 0 1-.75.371 4.548 4.548 0 0 1-.821.21 5.31 5.31 0 0 1-.836.068 3.921 3.921 0 0 1-1.46-.266 3.242 3.242 0 0 1-1.162-.78 3.558 3.558 0 0 1-.765-1.275c-.182-.508-.273-1.091-.273-1.751 0-.53.082-1.024.247-1.482.165-.457.401-.856.709-1.196.307-.34.683-.607 1.129-.802a3.7 3.7 0 0 1 1.5-.293c.465 0 .893.076 1.286.229.392.152.731.373 1.016.663.285.29.509.648.671 1.073.163.425.244.91.244 1.455 0 .225-.025.376-.075.454-.05.077-.142.116-.278.116h-4.994c.014.455.08.851.194 1.189a2.4 2.4 0 0 0 .477.844c.202.225.443.392.724.502.28.11.592.165.937.165.325 0 .606-.037.844-.112.237-.076.442-.157.615-.244.172-.088.317-.169.435-.244a.6.6 0 0 1 .311-.112c.12 0 .213.044.278.135l.42.54z" fill="#233745" fill-rule="nonzero"/><path d="M8.67 427.565H5.25V437H3.66v-9.435H.225v-1.335H8.67v1.335zm2.715 2.783c.32-.326.674-.588 1.061-.788.388-.2.834-.3 1.339-.3.42 0 .789.07 1.106.21.318.14.584.336.799.589.215.252.377.556.487.911.11.355.166.747.166 1.177V437h-1.47v-4.853c0-.545-.125-.968-.375-1.27-.25-.303-.633-.454-1.148-.454-.375 0-.726.088-1.054.266a3.51 3.51 0 0 0-.911.724V437H9.922v-11.07h1.463v4.418zm11.978 1.994a2.5 2.5 0 0 0-.124-.802 1.822 1.822 0 0 0-.364-.638c-.16-.18-.355-.32-.585-.42-.23-.1-.495-.15-.795-.15-.615 0-1.099.178-1.451.533-.353.355-.576.847-.672 1.477h3.99zm1.207 3.57a2.88 2.88 0 0 1-.622.544 3.612 3.612 0 0 1-.75.371 4.548 4.548 0 0 1-.822.21 5.31 5.31 0 0 1-.836.068 3.921 3.921 0 0 1-1.459-.266 3.242 3.242 0 0 1-1.162-.78 3.558 3.558 0 0 1-.765-1.275c-.183-.508-.274-1.091-.274-1.751 0-.53.082-1.024.248-1.482.165-.457.4-.856.708-1.196.308-.34.684-.607 1.129-.803a3.7 3.7 0 0 1 1.5-.292c.465 0 .894.076 1.286.229.393.152.731.373 1.016.663.286.29.51.648.672 1.073.162.425.244.91.244 1.455 0 .225-.025.376-.075.454-.05.077-.143.116-.278.116h-4.995c.015.455.08.851.195 1.189a2.4 2.4 0 0 0 .476.844c.203.225.444.392.724.502.28.11.592.165.938.165.325 0 .606-.037.843-.113.238-.075.443-.156.615-.243.173-.088.318-.169.435-.244a.6.6 0 0 1 .311-.113c.12 0 .213.046.278.135l.42.54zm11.347-7.927a.61.61 0 0 1-.157.188.348.348 0 0 1-.21.06.55.55 0 0 1-.307-.124 6.089 6.089 0 0 0-.432-.278 3.339 3.339 0 0 0-.618-.277 2.664 2.664 0 0 0-.863-.124c-.315 0-.591.041-.829.124a1.745 1.745 0 0 0-.596.337 1.41 1.41 0 0 0-.364.503 1.573 1.573 0 0 0-.123.626c0 .29.073.53.22.72.148.19.342.352.582.488.24.135.512.252.818.352.305.1.617.204.937.311.32.108.632.231.938.371.305.14.577.317.817.53.24.212.434.472.581.78.148.307.221.683.221 1.128 0 .475-.08.92-.243 1.335a3.139 3.139 0 0 1-.709 1.087c-.31.31-.691.554-1.144.732-.452.177-.966.266-1.541.266a4.93 4.93 0 0 1-1.928-.386 4.636 4.636 0 0 1-.813-.443 4.02 4.02 0 0 1-.679-.581l.457-.765a.614.614 0 0 1 .162-.15.388.388 0 0 1 .213-.06c.106 0 .227.055.364.165.138.11.308.231.51.364.203.132.445.253.728.363.282.11.626.166 1.031.166.33 0 .625-.044.885-.132.26-.087.479-.212.656-.375.178-.162.314-.358.409-.589.095-.23.142-.484.142-.764 0-.316-.072-.573-.217-.773a1.773 1.773 0 0 0-.578-.502 4.23 4.23 0 0 0-.817-.346c-.305-.095-.617-.193-.938-.296a9.396 9.396 0 0 1-.937-.356 3.04 3.04 0 0 1-.818-.529 2.392 2.392 0 0 1-.577-.817c-.145-.328-.217-.731-.217-1.212a2.878 2.878 0 0 1 .88-2.073c.288-.278.642-.5 1.062-.668.42-.167.9-.251 1.44-.251a4.67 4.67 0 0 1 1.669.289 3.87 3.87 0 0 1 1.323.829l-.39.757zm3.818 1.395V437h-1.462v-7.62h1.462zm.278-2.355a.933.933 0 0 1-.083.386c-.055.123-.129.23-.221.323a1.008 1.008 0 0 1-.717.296.944.944 0 0 1-.382-.079 1.032 1.032 0 0 1-.536-.54.97.97 0 0 1-.079-.386.989.989 0 0 1 .296-.716c.093-.093.199-.165.319-.218a.997.997 0 0 1 .773 0c.125.053.233.125.326.218.092.092.166.2.221.322a.95.95 0 0 1 .083.394zm6.757 4.2c-.24-.315-.499-.535-.776-.66a2.249 2.249 0 0 0-.934-.188c-.67 0-1.189.242-1.556.724-.368.483-.551 1.186-.551 2.111 0 .486.04.9.123 1.242.083.342.203.622.36.84.158.217.351.377.581.48.23.102.49.154.78.154.426 0 .793-.095 1.103-.286.31-.19.6-.457.87-.802v-3.615zm1.47-5.295V437h-.885c-.205 0-.332-.097-.383-.293l-.127-.877a4.04 4.04 0 0 1-1.106.926c-.413.233-.889.349-1.429.349-.435 0-.829-.085-1.181-.255a2.487 2.487 0 0 1-.904-.746c-.25-.328-.442-.734-.578-1.219-.135-.485-.202-1.042-.202-1.673 0-.565.075-1.09.225-1.575.15-.485.367-.904.652-1.26.286-.355.63-.633 1.035-.836a3.027 3.027 0 0 1 1.373-.303c.46 0 .851.074 1.174.224.322.15.611.363.866.638v-4.17h1.47zm7.095 6.412a2.5 2.5 0 0 0-.124-.802 1.822 1.822 0 0 0-.364-.638c-.16-.18-.354-.32-.584-.42-.23-.1-.495-.15-.795-.15-.616 0-1.1.178-1.452.533-.352.355-.576.847-.671 1.477h3.99zm1.207 3.57a2.88 2.88 0 0 1-.622.544 3.612 3.612 0 0 1-.75.371 4.548 4.548 0 0 1-.821.21 5.31 5.31 0 0 1-.836.068 3.921 3.921 0 0 1-1.46-.266 3.242 3.242 0 0 1-1.162-.78 3.558 3.558 0 0 1-.765-1.275c-.182-.508-.273-1.091-.273-1.751 0-.53.082-1.024.247-1.482.165-.457.401-.856.709-1.196.307-.34.683-.607 1.129-.803a3.7 3.7 0 0 1 1.5-.292c.465 0 .893.076 1.286.229.392.152.731.373 1.016.663.285.29.509.648.671 1.073.163.425.244.91.244 1.455 0 .225-.025.376-.075.454-.05.077-.142.116-.277.116h-4.995c.015.455.08.851.194 1.189a2.4 2.4 0 0 0 .477.844c.202.225.443.392.724.502.28.11.592.165.937.165.325 0 .606-.037.844-.113.237-.075.442-.156.615-.243.172-.088.317-.169.435-.244a.6.6 0 0 1 .311-.113c.12 0 .212.046.278.135l.42.54zm3.15-.787c.24.315.5.535.78.66s.585.188.916.188c.68 0 1.203-.243 1.57-.728.368-.485.552-1.217.552-2.197 0-.906-.162-1.57-.487-1.992-.326-.422-.785-.633-1.38-.633-.42 0-.784.094-1.092.284a3.21 3.21 0 0 0-.858.81v3.608zm0-4.695c.316-.35.673-.632 1.073-.848.4-.215.855-.322 1.365-.322.445 0 .846.086 1.204.259.357.172.661.42.911.742.25.323.442.714.578 1.174.135.46.202.98.202 1.56 0 .615-.076 1.175-.229 1.68-.152.505-.37.937-.652 1.298-.283.36-.626.638-1.032.836-.405.197-.86.296-1.364.296a2.99 2.99 0 0 1-.675-.071 2.314 2.314 0 0 1-1.042-.536 3.507 3.507 0 0 1-.413-.443l-.068.637c-.04.206-.165.308-.375.308h-.945v-11.07h1.463v4.5zm11.063 3.188c-.595.02-1.1.066-1.515.138-.415.073-.752.169-1.012.289-.26.12-.448.261-.563.424a.92.92 0 0 0-.172.543c0 .19.03.354.093.492.063.137.148.25.255.337.108.088.234.151.379.192.145.04.302.06.472.06a2.463 2.463 0 0 0 1.62-.563c.15-.12.298-.257.443-.412v-1.5zm-4.29-3.173a4.36 4.36 0 0 1 1.384-.907c.497-.2 1.043-.3 1.638-.3.436 0 .82.07 1.156.213.335.143.617.341.847.596.23.256.404.56.521.915.118.356.177.748.177 1.178V437h-.653a.622.622 0 0 1-.33-.071c-.075-.048-.135-.136-.18-.266l-.157-.668c-.196.18-.388.339-.578.476-.19.138-.389.255-.596.353a3.045 3.045 0 0 1-.664.221c-.235.05-.495.075-.78.075a2.8 2.8 0 0 1-.844-.124 1.79 1.79 0 0 1-1.147-1.016 2.195 2.195 0 0 1-.169-.893c0-.3.081-.588.244-.866.162-.277.427-.526.795-.746.367-.22.847-.4 1.44-.54.592-.14 1.321-.22 2.186-.24v-.555c0-.575-.122-1.005-.367-1.29-.246-.285-.605-.428-1.08-.428-.32 0-.59.04-.807.12a3.11 3.11 0 0 0-.562.267c-.158.097-.295.186-.413.266a.638.638 0 0 1-.364.12.416.416 0 0 1-.258-.082.687.687 0 0 1-.176-.195l-.263-.473zm9.067.397c.246-.5.54-.892.886-1.177.345-.285.76-.428 1.244-.428.166 0 .322.02.47.057.147.037.275.094.385.168l-.097 1.103c-.035.135-.117.202-.248.202a1.8 1.8 0 0 1-.314-.04 2.334 2.334 0 0 0-.45-.042c-.236 0-.443.034-.623.101-.18.068-.341.168-.484.3a2.043 2.043 0 0 0-.379.488 4.88 4.88 0 0 0-.307.656V437h-1.462v-7.62h.84c.16 0 .268.029.326.086.057.058.098.159.123.304l.09 1.072zm13.778-2.857a.61.61 0 0 1-.157.188.348.348 0 0 1-.21.06.55.55 0 0 1-.308-.124 6.089 6.089 0 0 0-.431-.278 3.339 3.339 0 0 0-.619-.277 2.664 2.664 0 0 0-.862-.124c-.316 0-.592.041-.83.124a1.745 1.745 0 0 0-.596.337 1.41 1.41 0 0 0-.363.503 1.573 1.573 0 0 0-.124.626c0 .29.074.53.221.72.148.19.341.352.581.488.24.135.513.252.818.352.305.1.617.204.938.311.32.108.632.231.937.371.305.14.577.317.817.53.24.212.434.472.582.78.147.307.221.683.221 1.128 0 .475-.081.92-.244 1.335a3.139 3.139 0 0 1-.709 1.087c-.31.31-.69.554-1.143.732-.453.177-.966.266-1.541.266a4.93 4.93 0 0 1-1.928-.386 4.636 4.636 0 0 1-.814-.443 4.02 4.02 0 0 1-.678-.581l.457-.765a.614.614 0 0 1 .161-.15.388.388 0 0 1 .214-.06c.105 0 .226.055.364.165.137.11.307.231.51.364.202.132.445.253.727.363.283.11.626.166 1.031.166.33 0 .625-.044.886-.132.26-.087.478-.212.656-.375.177-.162.313-.358.409-.589.095-.23.142-.484.142-.764 0-.316-.072-.573-.218-.773a1.773 1.773 0 0 0-.577-.502 4.23 4.23 0 0 0-.817-.346c-.306-.095-.618-.193-.938-.296a9.396 9.396 0 0 1-.938-.356 3.04 3.04 0 0 1-.817-.529 2.392 2.392 0 0 1-.578-.817c-.145-.328-.217-.731-.217-1.212a2.878 2.878 0 0 1 .881-2.073c.288-.278.641-.5 1.061-.668.42-.167.9-.251 1.44-.251a4.67 4.67 0 0 1 1.67.289 3.87 3.87 0 0 1 1.323.829l-.39.757zm4.672 9.135c-.615 0-1.088-.172-1.42-.517-.333-.346-.5-.838-.5-1.478v-4.56h-.885a.305.305 0 0 1-.213-.079c-.058-.052-.087-.131-.087-.236v-.592l1.238-.173.33-2.273a.353.353 0 0 1 .116-.198.336.336 0 0 1 .221-.072h.743v2.558h2.16v1.065h-2.16v4.462c0 .3.074.524.221.672a.767.767 0 0 0 .567.221c.135 0 .25-.018.348-.053a1.39 1.39 0 0 0 .251-.116c.07-.042.13-.081.18-.116a.244.244 0 0 1 .136-.053c.05 0 .088.012.116.034a.42.42 0 0 1 .086.109l.435.705c-.24.22-.525.39-.855.51-.33.12-.672.18-1.028.18zm7.14-3.502c-.595.02-1.1.066-1.514.138-.416.073-.753.169-1.013.289-.26.12-.447.261-.563.424a.92.92 0 0 0-.172.543c0 .19.031.354.094.492.062.137.147.25.255.337.107.088.233.151.379.192.145.04.302.06.472.06a2.463 2.463 0 0 0 1.62-.563c.15-.12.297-.257.442-.412v-1.5zm-4.29-3.173a4.36 4.36 0 0 1 1.384-.907c.498-.2 1.044-.3 1.639-.3.435 0 .82.07 1.155.213.335.143.617.341.847.596.23.256.404.56.522.915.117.356.176.748.176 1.178V437h-.653a.622.622 0 0 1-.33-.071c-.075-.048-.135-.136-.18-.266l-.157-.668c-.195.18-.387.339-.578.476-.19.138-.388.255-.596.353a3.045 3.045 0 0 1-.664.221c-.235.05-.494.075-.78.075a2.8 2.8 0 0 1-.843-.124 1.79 1.79 0 0 1-1.148-1.016 2.195 2.195 0 0 1-.168-.893c0-.3.08-.588.243-.866.163-.277.428-.526.795-.746.368-.22.848-.4 1.44-.54.593-.14 1.321-.22 2.186-.24v-.555c0-.575-.122-1.005-.367-1.29-.245-.285-.605-.428-1.08-.428-.32 0-.589.04-.806.12a3.11 3.11 0 0 0-.563.267c-.157.097-.295.186-.412.266a.638.638 0 0 1-.364.12.416.416 0 0 1-.259-.082.687.687 0 0 1-.176-.195l-.263-.473zm10.073 6.675c-.615 0-1.089-.172-1.421-.517-.333-.346-.499-.838-.499-1.478v-4.56h-.885a.305.305 0 0 1-.214-.079c-.057-.052-.086-.131-.086-.236v-.592l1.237-.173.33-2.273a.353.353 0 0 1 .117-.198.336.336 0 0 1 .221-.072h.743v2.558h2.16v1.065h-2.16v4.462c0 .3.073.524.22.672a.767.767 0 0 0 .567.221c.135 0 .251-.018.349-.053a1.39 1.39 0 0 0 .251-.116c.07-.042.13-.081.18-.116a.244.244 0 0 1 .135-.053c.05 0 .089.012.116.034a.42.42 0 0 1 .087.109l.434.705c-.24.22-.524.39-.855.51-.33.12-.672.18-1.027.18zm8.093-4.778a2.5 2.5 0 0 0-.124-.802 1.822 1.822 0 0 0-.364-.638c-.16-.18-.355-.32-.585-.42-.23-.1-.495-.15-.795-.15-.615 0-1.099.178-1.451.533-.353.355-.576.847-.672 1.477h3.99zm1.207 3.57a2.88 2.88 0 0 1-.623.544 3.612 3.612 0 0 1-.75.371 4.548 4.548 0 0 1-.82.21 5.31 5.31 0 0 1-.837.068 3.921 3.921 0 0 1-1.459-.266 3.242 3.242 0 0 1-1.162-.78 3.558 3.558 0 0 1-.765-1.275c-.183-.508-.274-1.091-.274-1.751 0-.53.082-1.024.248-1.482.165-.457.4-.856.708-1.196.308-.34.684-.607 1.129-.803a3.7 3.7 0 0 1 1.5-.292c.465 0 .894.076 1.286.229.393.152.731.373 1.017.663.285.29.508.648.67 1.073.163.425.245.91.245 1.455 0 .225-.025.376-.075.454-.05.077-.143.116-.278.116h-4.995c.015.455.08.851.195 1.189a2.4 2.4 0 0 0 .476.844c.203.225.444.392.724.502.28.11.592.165.938.165.325 0 .606-.037.843-.113.238-.075.443-.156.615-.243.173-.088.318-.169.435-.244a.6.6 0 0 1 .311-.113c.12 0 .213.046.278.135l.42.54zm6.18-5.22a.41.41 0 0 1-.128.14.326.326 0 0 1-.172.04.552.552 0 0 1-.266-.082 5.593 5.593 0 0 0-.353-.18 3.417 3.417 0 0 0-.483-.18 2.332 2.332 0 0 0-.66-.082c-.21 0-.402.026-.574.078a1.36 1.36 0 0 0-.439.218.97.97 0 0 0-.278.33.887.887 0 0 0-.097.409c0 .19.056.347.169.472.112.125.26.232.442.322.183.09.39.172.623.244.232.073.47.149.712.229.243.08.48.171.713.274.232.102.44.23.622.382.183.153.33.336.443.552.112.215.168.477.168.787 0 .355-.063.684-.19.986a2.158 2.158 0 0 1-.563.784c-.248.22-.554.392-.919.517a3.858 3.858 0 0 1-1.252.188c-.526 0-1.01-.087-1.456-.262a3.645 3.645 0 0 1-1.117-.668l.345-.563c.04-.07.09-.123.15-.16a.449.449 0 0 1 .24-.057c.095 0 .192.035.293.105.1.07.22.146.36.229.14.082.31.157.51.225.2.067.45.101.75.101.25 0 .467-.031.652-.094a1.34 1.34 0 0 0 .461-.255c.123-.107.214-.231.274-.371.06-.14.09-.287.09-.442 0-.2-.056-.367-.169-.5a1.448 1.448 0 0 0-.442-.34 3.554 3.554 0 0 0-.626-.248c-.236-.07-.475-.145-.72-.225a7.376 7.376 0 0 1-.72-.278 2.473 2.473 0 0 1-.627-.397 1.847 1.847 0 0 1-.442-.585c-.113-.23-.169-.51-.169-.84 0-.295.061-.577.184-.848a2.1 2.1 0 0 1 .532-.712c.233-.205.52-.369.863-.491a3.474 3.474 0 0 1 1.174-.184c.505 0 .96.08 1.368.24.408.16.756.38 1.046.66l-.322.532zm1.785 5.43a.984.984 0 0 1 1.365-.91 1.018 1.018 0 0 1 .529.528c.052.12.079.247.079.382 0 .14-.027.27-.08.39-.052.12-.123.226-.213.315a.966.966 0 0 1-.697.286c-.14 0-.27-.026-.39-.075a.925.925 0 0 1-.312-.21.997.997 0 0 1-.281-.705z" fill="#3E5667" fill-rule="nonzero"/></g></svg>