<svg xmlns="http://www.w3.org/2000/svg" xmlns:xlink="http://www.w3.org/1999/xlink" width="16" height="16" viewBox="0 0 16 16">
  <defs>
    <path id="pages-a" d="M4.88888887,8.88888889 L1.77777774,8.88888889 L1.77777774,13.3333334 C1.77777774,13.8222223 2.17777774,14.2222223 2.66666663,14.2222223 L7.11111111,14.2222223 L7.11111111,11.1111111 L3.99999997,12 L4.88888887,8.88888889 Z M1.77777774,2.66666663 L1.77777774,7.11111111 L4.88888887,7.11111111 L3.99999997,3.99999997 L7.11111111,4.88888887 L7.11111111,1.77777774 L2.66666663,1.77777774 C2.17777774,1.77777774 1.77777774,2.17777774 1.77777774,2.66666663 Z M13.3333334,1.77777774 L8.88888889,1.77777774 L8.88888889,4.88888887 L12,3.99999997 L11.1111111,7.11111111 L14.2222223,7.11111111 L14.2222223,2.66666663 C14.2222223,2.17777774 13.8222223,1.77777774 13.3333334,1.77777774 Z M12,12 L8.88888889,11.1111111 L8.88888889,14.2222223 L13.3333334,14.2222223 C13.8222223,14.2222223 14.2222223,13.8222223 14.2222223,13.3333334 L14.2222223,8.88888889 L11.1111111,8.88888889 L12,12 Z"/>
  </defs>
  <g fill="none" fill-rule="evenodd">
    <mask id="pages-b" fill="#fff">
      <use xlink:href="#pages-a"/>
    </mask>
    <g fill="CurrentColor" mask="url(#pages-b)">
      <rect width="16" height="16"/>
    </g>
  </g>
</svg>
