<svg viewBox="0 0 726 393" xmlns="http://www.w3.org/2000/svg" xmlns:xlink="http://www.w3.org/1999/xlink"><defs><rect id="b" width="280" height="270" rx="3"/><filter y="-8.9%" height="120.7%" filterUnits="objectBoundingBox" id="a"><feMorphology radius="2" operator="dilate" in="SourceAlpha" result="shadowSpreadOuter1"/><feOffset dy="4" in="shadowSpreadOuter1" result="shadowOffsetOuter1"/><feGaussianBlur stdDeviation="8" in="shadowOffsetOuter1" result="shadowBlurOuter1"/><feComposite in="shadowBlurOuter1" in2="SourceAlpha" operator="out" result="shadowBlurOuter1"/><feColorMatrix values="0 0 0 0 0 0 0 0 0 0 0 0 0 0 0 0 0 0 0.103583916 0" in="shadowBlurOuter1" result="shadowMatrixOuter1"/><feMorphology radius="2" operator="dilate" in="SourceAlpha" result="shadowSpreadOuter2"/><feOffset dy="1" in="shadowSpreadOuter2" result="shadowOffsetOuter2"/><feGaussianBlur stdDeviation="1" in="shadowOffsetOuter2" result="shadowBlurOuter2"/><feComposite in="shadowBlurOuter2" in2="SourceAlpha" operator="out" result="shadowBlurOuter2"/><feColorMatrix values="0 0 0 0 0 0 0 0 0 0 0 0 0 0 0 0 0 0 0.102573208 0" in="shadowBlurOuter2" result="shadowMatrixOuter2"/><feMerge><feMergeNode in="shadowMatrixOuter1"/><feMergeNode in="shadowMatrixOuter2"/></feMerge></filter><filter x="-34.2%" y="-31%" width="168.4%" height="161.9%" filterUnits="objectBoundingBox" id="c"><feOffset dy="1" in="SourceAlpha" result="shadowOffsetOuter1"/><feGaussianBlur stdDeviation="1" in="shadowOffsetOuter1" result="shadowBlurOuter1"/><feColorMatrix values="0 0 0 0 0 0 0 0 0 0 0 0 0 0 0 0 0 0 0.5 0" in="shadowBlurOuter1" result="shadowMatrixOuter1"/><feMerge><feMergeNode in="shadowMatrixOuter1"/><feMergeNode in="SourceGraphic"/></feMerge></filter></defs><g fill="none" fill-rule="evenodd"><path stroke="#B8C7D2" fill="#FFF" d="M.5.5h725v357H.5z"/><g transform="translate(218 44)"><use fill="#000" filter="url(#a)" xlink:href="#b"/><rect stroke="#2A77C7" stroke-width="2" fill="#FFF" x="-1" y="-1" width="282" height="272" rx="3"/><g transform="translate(60 22)"><rect fill="#3E5667" width="24" height="16.5" rx="8.25"/><text font-family="Lato-Heavy, Lato" font-size="10" font-weight="600" fill="#FFF"><tspan x="6" y="12">10</tspan></text></g><rect fill="#E2E9EE" x="4" y="90" width="272" height="45" rx="4"/><rect fill="#2A77C7" x="4" y="180" width="272" height="45" rx="4"/><g transform="translate(64 60)"><rect fill="#3E5667" width="18" height="16.5" rx="8.25"/><text font-family="Lato-Heavy, Lato" font-size="10" font-weight="600" fill="#FFF"><tspan x="6" y="12">5</tspan></text></g><g transform="translate(64 105)"><rect fill="#3E5667" width="24" height="16.5" rx="8.25"/><text font-family="Lato-Heavy, Lato" font-size="10" font-weight="600" fill="#FFF"><tspan x="6" y="12">12</tspan></text></g><g transform="translate(66 150)"><rect fill="#3E5667" width="18" height="16.5" rx="8.25"/><text font-family="Lato-Heavy, Lato" font-size="10" font-weight="600" fill="#FFF"><tspan x="6" y="12">3</tspan></text></g><g transform="translate(63 195)"><rect fill="#FFF" width="24" height="16.5" rx="8.25"/><text font-family="Lato-Heavy, Lato" font-size="10" font-weight="600" fill="#274776"><tspan x="6" y="12">10</tspan></text></g><g transform="translate(95 239)"><rect fill="#3E5667" width="24" height="16.5" rx="8.25"/><text font-family="Lato-Heavy, Lato" font-size="10" font-weight="600" fill="#FFF"><tspan x="6" y="12">30</tspan></text></g><text font-family="Lato-Medium, Lato" font-size="15" font-weight="400" fill="#233745"><tspan x="14" y="36">Boats</tspan></text><text font-family="Lato-Medium, Lato" font-size="12" font-weight="400" fill="#748999"><tspan x="14" y="18">Transport</tspan></text><text font-family="Lato-Medium, Lato" font-size="16" font-weight="400" fill="#233745"><tspan x="14" y="73">Planes</tspan></text><text font-family="Lato-Medium, Lato" font-size="16" font-weight="400" fill="#233745"><tspan x="14" y="118">Buses</tspan></text><text font-family="Lato-Medium, Lato" font-size="16" font-weight="400" fill="#233745"><tspan x="14" y="163">Trains</tspan></text><text font-family="Lato-Medium, Lato" font-size="16" font-weight="400" fill="#FFF"><tspan x="14" y="208">Boats</tspan></text><text font-family="Lato-Medium, Lato" font-size="16" font-weight="400" fill="#233745"><tspan x="14" y="252">Combined</tspan></text><g><path fill="#E2E9EE" d="M239 9h1v26h-1z"/><path d="M260.3240419 19.1986064l4.1374638 6.0181292c.1564426.2275529.0987964.5388427-.1287565.6952854-.0833492.0573025-.1821177.087979-.2832644.087979h-9.0989696c-.2761423 0-.5-.2238576-.5-.5 0-.1011468.0306765-.1999152.0879791-.2832644l4.1374638-6.0181292c.3128852-.45510575.9354649-.5703983 1.3905707-.25751307.100876.06935227.1881609.15663707.2575131.25751307z" fill="#2A77C7"/></g></g><g filter="url(#c)" transform="translate(361 168)"><path fill="#FFF" d="M5.06666667 1.26666667h5.06666663v3.8H15.2v1.26666666h2.5333333V7.6H19v6.3333333h-1.2666667v2.5333334h-1.2666666v3.8h-2.5333334V19h-1.2666666v1.2666667H6.33333333l.00021647-2.5333334H5.06666667v-1.2666666H3.8V15.2H2.53333333v-2.5333333H1.26666667V11.4H0V8.86666667h1.26666667V7.6H3.8v1.26666667h1.26666667z"/><path fill="#000" d="M17.7333333 12.6666667H19v1.2666666h-1.2666667zM17.7333333 10.1333333H19V11.4h-1.2666667zM17.7333333 11.4H19v1.2666667h-1.2666667zM17.7333333 8.86666667H19v1.26666663h-1.2666667zM17.7333333 7.6H19v1.26666667h-1.2666667z"/><path fill="#000" d="M16.4666667 13.9333333h1.2666666V15.2h-1.2666666zM16.4666667 15.2h1.2666666v1.2666667h-1.2666666zM16.4666667 6.33333333h1.2666666V7.6h-1.2666666zM15.2 17.7333333h1.2666667V19H15.2zM15.2 19h1.2666667v1.2666667H15.2zM15.2 16.4666667h1.2666667v1.2666666H15.2zM15.2 6.33333333h1.2666667V7.6H15.2zM15.2 7.6h1.2666667v1.26666667H15.2zM13.9333333 19H15.2v1.2666667h-1.2666667zM13.9333333 13.9333333H15.2V15.2h-1.2666667zM13.9333333 15.2H15.2v1.2666667h-1.2666667z"/><path fill="#000" d="M13.9333333 12.6666667H15.2v1.2666666h-1.2666667zM13.9333333 11.4H15.2v1.2666667h-1.2666667zM13.9333333 5.06666667H15.2v1.26666666h-1.2666667zM12.6666667 17.7333333h1.2666666V19h-1.2666666zM12.6666667 6.33333333h1.2666666V7.6h-1.2666666z"/><path fill="#000" d="M12.6666667 5.06666667h1.2666666v1.26666666h-1.2666666zM12.6666667 7.6h1.2666666v1.26666667h-1.2666666zM11.4 19h1.2666667v1.2666667H11.4zM11.4 13.9333333h1.2666667V15.2H11.4zM11.4 15.2h1.2666667v1.2666667H11.4z"/><path fill="#000" d="M11.4 12.6666667h1.2666667v1.2666666H11.4zM11.4 11.4h1.2666667v1.2666667H11.4zM11.4 5.06666667h1.2666667v1.26666666H11.4zM10.1333333 19H11.4v1.2666667h-1.2666667zM10.1333333 5.06666667H11.4v1.26666666h-1.2666667zM8.86666667 19h1.26666663v1.2666667H8.86666667zM8.86666667 13.9333333h1.26666663V15.2H8.86666667zM8.86666667 15.2h1.26666663v1.2666667H8.86666667z"/><path fill="#000" d="M8.86666667 12.6666667h1.26666663v1.2666666H8.86666667zM8.86666667 11.4h1.26666663v1.2666667H8.86666667zM8.86666667 6.33333333h1.26666663V7.6H8.86666667zM8.86666667 3.8h1.26666663v1.26666667H8.86666667zM8.86666667 5.06666667h1.26666663v1.26666666H8.86666667zM8.86666667 7.6h1.26666663v1.26666667H8.86666667zM8.86666667 2.53333333h1.26666663V3.8H8.86666667zM8.86666667 1.26666667h1.26666663v1.26666666H8.86666667zM7.6 19h1.26666667v1.2666667H7.6zM7.6 0h1.26666667v1.26666667H7.6zM6.33333333 17.7333333H7.6V19H6.33333333zM6.33333333 19H7.6v1.2666667H6.33333333zM6.33333333 0H7.6v1.26666667H6.33333333zM5.06666667 16.4666667h1.26666666v1.2666666H5.06666667zM5.06666667 10.1333333h1.26666666V11.4H5.06666667zM5.06666667 6.33333333h1.26666666V7.6H5.06666667zM5.06666667 3.8h1.26666666v1.26666667H5.06666667zM5.06666667 5.06666667h1.26666666v1.26666666H5.06666667zM5.06666667 8.86666667h1.26666666v1.26666663H5.06666667zM5.06666667 7.6h1.26666666v1.26666667H5.06666667zM5.06666667 2.53333333h1.26666666V3.8H5.06666667zM5.06666667 1.26666667h1.26666666v1.26666666H5.06666667zM3.8 15.2h1.26666667v1.2666667H3.8zM3.8 8.86666667h1.26666667v1.26666663H3.8zM2.53333333 13.9333333H3.8V15.2H2.53333333z"/><path fill="#000" d="M2.53333333 12.6666667H3.8v1.2666666H2.53333333zM2.53333333 7.6H3.8v1.26666667H2.53333333zM1.26666667 11.4h1.26666666v1.2666667H1.26666667zM1.26666667 7.6h1.26666666v1.26666667H1.26666667zM0 10.1333333h1.26666667V11.4H0zM0 8.86666667h1.26666667v1.26666663H0z"/></g><text font-family="Lato-Medium, Lato" font-size="15" font-weight="400" fill="#3E5667"><tspan x="0" y="387">Anatomy of the Select component.</tspan></text><path fill="#B8C7D2" d="M520 202h40v1h-40zM520 66h40v1h-40zM515 45h10v1h-10z"/><path fill="#B8C7D2" d="M520 45h1v43h-1zM520 92h1v221h-1z"/><path fill="#B8C7D2" d="M515 87h10v1h-10zM515 92h10v1h-10zM515 312h10v1h-10zM151 37h1v20h-1zM151 76h1v30h-1z"/><text font-family="Lato-Semibold, Lato" font-size="14" font-weight="500" fill="#233745"><tspan x="98.0045" y="45">Label</tspan></text><text font-family="Lato-Semibold, Lato" font-size="14" font-weight="500" fill="#233745"><tspan x="123.783" y="207">Item</tspan></text><path fill="#B8C7D2" d="M151 57h71v1h-71zM172 202h50v1h-50z"/><rect fill="#3E5667" x="142" y="31" width="19.2" height="18.4" rx="9.2"/><rect fill="#3E5667" x="162" y="193" width="19.2" height="18.4" rx="9.2"/><text font-family="Lato-Heavy, Lato" font-size="9.6" font-weight="600" fill="#FFF"><tspan x="148.816" y="43.2">2</tspan></text><text font-family="Lato-Semibold, Lato" font-size="14" font-weight="500" fill="#233745"><tspan x="95.3355" y="105">Value</tspan></text><rect fill="#3E5667" x="142" y="91" width="19.2" height="18.4" rx="9.2"/><text font-family="Lato-Heavy, Lato" font-size="9.6" font-weight="600" fill="#FFF"><tspan x="148.816" y="103.2">3</tspan></text><text font-family="Lato-Semibold, Lato" font-size="14" font-weight="500" fill="#233745"><tspan x="588.389" y="73">Container</tspan></text><rect fill="#3E5667" x="559" y="58" width="19.2" height="18.4" rx="9.2"/><text font-family="Lato-Heavy, Lato" font-size="9.6" font-weight="600" fill="#FFF"><tspan x="565.816" y="70.2">1</tspan></text><text font-family="Lato-Semibold, Lato" font-size="14" font-weight="500" fill="#233745"><tspan x="590.262" y="209">Sheet</tspan></text><rect fill="#3E5667" x="559" y="194" width="19.2" height="18.4" rx="9.2"/><text font-family="Lato-Heavy, Lato" font-size="9.6" font-weight="600" fill="#FFF"><tspan x="565.816" y="206.2">4</tspan></text><text font-family="Lato-Heavy, Lato" font-size="9.6" font-weight="600" fill="#FFF"><tspan x="168.816" y="205.2">5</tspan></text><circle fill="#3E5667" cx="223" cy="57.5" r="3"/><path fill="#B8C7D2" d="M151 75h71v1h-71z"/><circle fill="#3E5667" cx="223" cy="75.5" r="3"/><circle fill="#3E5667" cx="223" cy="202.5" r="3"/><text font-family="Lato-Semibold, Lato" font-size="14" font-weight="500" fill="#233745"><tspan x="72.401" y="251">Item (Active)</tspan></text><path fill="#B8C7D2" d="M172 246h50v1h-50z"/><rect fill="#3E5667" x="162" y="237" width="19.2" height="18.4" rx="9.2"/><text font-family="Lato-Heavy, Lato" font-size="9.6" font-weight="600" fill="#FFF"><tspan x="168.816" y="249.2">6</tspan></text><circle fill="#3E5667" cx="223" cy="246.5" r="3"/></g></svg>