<svg viewBox="0 0 726 213" xmlns="http://www.w3.org/2000/svg"><g fill="none" fill-rule="evenodd"><path stroke="#B8C7D2" fill="#FFF" d="M.5.5h725v177H.5z"/><g transform="translate(223 67)"><rect stroke="#B8C7D2" fill="#FFF" x="-.5" y="-.5" width="281" height="45" rx="3"/><text font-family="Lato-Medium, Lato" font-size="15" font-weight="400" fill="#253B53"><tspan x="12" y="36">Day</tspan></text><text font-family="Lato-Medium, Lato" font-size="12" font-weight="400" fill="#748999"><tspan x="12" y="18">Date Range</tspan></text><path fill="#E2E9EE" d="M239 9h1v26h-1z"/><path d="M258.6759581 25.8013936l-4.1374638-6.0181292c-.1564426-.2275529-.0987964-.5388427.1287565-.6952854.0833492-.0573025.1821177-.087979.2832644-.087979h9.0989696c.2761423 0 .5.2238576.5.5 0 .1011468-.0306765.1999152-.0879791.2832644l-4.1374638 6.0181292c-.3128852.4551058-.9354649.5703983-1.3905707.2575131-.100876-.0693523-.1881609-.1566371-.2575131-.2575131z" fill="#B8C7D2"/></g><text font-family="Lato-Medium, Lato" font-size="15" font-weight="400" fill="#3E5667"><tspan x="0" y="207">The Select component.</tspan></text></g></svg>