<?xml version="1.0" encoding="UTF-8"?>
<svg width="16px" height="16px" viewBox="0 0 16 16" version="1.1" xmlns="http://www.w3.org/2000/svg" xmlns:xlink="http://www.w3.org/1999/xlink">
    <title>Icons/Places/ac-unit</title>
    <g id="Icons/Places/ac-unit" stroke="none" stroke-width="1" fill="none" fill-rule="evenodd">
        <rect id="Spacer" fill-opacity="0" fill="#D8D8D8" x="0" y="0" width="16" height="16"></rect>
        <polygon id="Icons/Places/ic_ac_unit_24px" fill="#233745" fill-rule="nonzero" points="14.6666667 7.33333333 11.8866667 7.33333333 14.0466667 5.17333332 13.1066667 4.22666664 10 7.33333333 8.66666667 7.33333333 8.66666667 5.99999999 11.7733334 2.8933333 10.8266667 1.9533333 8.66666667 4.11333331 8.66666667 1.33333329 7.33333333 1.33333329 7.33333333 4.11333331 5.17333332 1.9533333 4.22666664 2.8933333 7.33333333 5.99999999 7.33333333 7.33333333 5.99999999 7.33333333 2.8933333 4.22666664 1.9533333 5.17333332 4.11333331 7.33333333 1.33333329 7.33333333 1.33333329 8.66666667 4.11333331 8.66666667 1.9533333 10.8266667 2.8933333 11.7733334 5.99999999 8.66666667 7.33333333 8.66666667 7.33333333 10 4.22666664 13.1066667 5.17333332 14.0466667 7.33333333 11.8866667 7.33333333 14.6666667 8.66666667 14.6666667 8.66666667 11.8866667 10.8266667 14.0466667 11.7733334 13.1066667 8.66666667 10 8.66666667 8.66666667 10 8.66666667 13.1066667 11.7733334 14.0466667 10.8266667 11.8866667 8.66666667 14.6666667 8.66666667"></polygon>
    </g>
</svg>