<?xml version="1.0" encoding="UTF-8"?>
<svg width="16px" height="16px" viewBox="0 0 16 16" version="1.1" xmlns="http://www.w3.org/2000/svg" xmlns:xlink="http://www.w3.org/1999/xlink">
    <title>Icons/Places/airport-shuttle</title>
    <defs>
        <path d="M11.3333334,3.3333333 L1.99999996,3.3333333 C1.26666662,3.3333333 0.666666621,3.92666664 0.666666621,4.66666665 L0.666666621,10.6666667 L1.99999996,10.6666667 C1.99999996,11.7666667 2.8933333,12.6666667 3.99999997,12.6666667 C5.10666665,12.6666667 5.99999999,11.7666667 5.99999999,10.6666667 L9.66666662,10.6666667 C9.66666662,11.7666667 10.56,12.6666667 11.6666666,12.6666667 C12.7733334,12.6666667 13.6666666,11.7666667 13.6666666,10.6666667 L15.3333334,10.6666667 L15.3333334,7.3333333 L11.3333334,3.3333333 Z M1.99999996,7.33333333 L1.99999996,4.66666665 L4.66666665,4.66666665 L4.66666665,7.33333333 L1.99999996,7.33333333 Z M3.99999997,11.6666667 C3.44666664,11.6666667 2.99999997,11.22 2.99999997,10.6666667 C2.99999997,10.1133333 3.44666664,9.66666668 3.99999997,9.66666668 C4.55333331,9.66666668 4.99999997,10.1133333 4.99999997,10.6666667 C4.99999997,11.22 4.55333331,11.6666667 3.99999997,11.6666667 Z M8.66666667,7.33333333 L5.99999999,7.33333333 L5.99999999,4.66666665 L8.66666667,4.66666665 L8.66666667,7.33333333 Z M11.6666667,11.6666667 C11.1133334,11.6666667 10.6666667,11.22 10.6666667,10.6666667 C10.6666667,10.1133333 11.1133334,9.66666668 11.6666667,9.66666668 C12.22,9.66666668 12.6666667,10.1133333 12.6666667,10.6666667 C12.6666667,11.22 12.22,11.6666667 11.6666667,11.6666667 Z M10,7.33333333 L10,4.66666665 L10.6666667,4.66666665 L13.3333334,7.33333333 L10,7.33333333 Z" id="path-1"></path>
    </defs>
    <g id="Icons/Places/airport-shuttle" stroke="none" stroke-width="1" fill="none" fill-rule="evenodd">
        <mask id="mask-2" fill="white">
            <use xlink:href="#path-1"></use>
        </mask>
        <use id="Icons/Places/ic_airport_shuttle_24px" fill="#233745" fill-rule="nonzero" xlink:href="#path-1"></use>
    </g>
</svg>