<?xml version="1.0" encoding="UTF-8"?>
<svg width="16px" height="16px" viewBox="0 0 16 16" version="1.1" xmlns="http://www.w3.org/2000/svg" xmlns:xlink="http://www.w3.org/1999/xlink">
    <title>Icons/Places/business-center</title>
    <defs>
        <path d="M6.66666666,10.6666667 L6.66666666,10 L2.00666663,10 L1.99999996,12.6666667 C1.99999996,13.4066667 2.5933333,14 3.3333333,14 L12.6666667,14 C13.4066667,14 14,13.4066667 14,12.6666667 L14,10 L9.33333334,10 L9.33333334,10.6666667 L6.66666666,10.6666667 Z M13.3333333,4.66666665 L10.66,4.66666665 L10.66,3.3333333 L9.32666667,1.99999996 L6.65999999,1.99999996 L5.32666665,3.3333333 L5.32666665,4.66666665 L2.66666663,4.66666665 C1.9333333,4.66666665 1.33333329,5.26666665 1.33333329,5.99999996 L1.33333329,7.99999996 C1.33333329,8.74 1.92666663,9.33333334 2.66666663,9.33333334 L6.66666666,9.33333334 L6.66666666,7.99999996 L9.33333329,7.99999996 L9.33333329,9.33333334 L13.3333333,9.33333334 C14.0666667,9.33333334 14.6666667,8.73333334 14.6666667,7.99999996 L14.6666667,5.99999996 C14.6666667,5.26666665 14.0666667,4.66666665 13.3333333,4.66666665 Z M9.33333334,4.66666665 L6.66666666,4.66666665 L6.66666666,3.3333333 L9.33333334,3.3333333 L9.33333334,4.66666665 Z" id="path-1"></path>
    </defs>
    <g id="Icons/Places/business-center" stroke="none" stroke-width="1" fill="none" fill-rule="evenodd">
        <mask id="mask-2" fill="white">
            <use xlink:href="#path-1"></use>
        </mask>
        <use id="Icons/Places/ic_business_center_24px" fill="#233745" fill-rule="nonzero" xlink:href="#path-1"></use>
    </g>
</svg>