<?xml version="1.0" encoding="UTF-8"?>
<svg width="16px" height="16px" viewBox="0 0 16 16" version="1.1" xmlns="http://www.w3.org/2000/svg" xmlns:xlink="http://www.w3.org/1999/xlink">
    <title>Icons/Places/casino</title>
    <defs>
        <path d="M12.6666667,1.99999996 L3.3333333,1.99999996 C2.59999997,1.99999996 1.99999996,2.59999997 1.99999996,3.3333333 L1.99999996,12.6666667 C1.99999996,13.4 2.59999997,14 3.3333333,14 L12.6666667,14 C13.4,14 14,13.4 14,12.6666667 L14,3.3333333 C14,2.59999997 13.4,1.99999996 12.6666667,1.99999996 Z M4.99999997,12 C4.44666664,12 3.99999997,11.5533334 3.99999997,11 C3.99999997,10.4466667 4.44666664,10 4.99999997,10 C5.55333332,10 5.99999997,10.4466667 5.99999997,11 C5.99999997,11.5533334 5.55333332,12 4.99999997,12 Z M4.99999997,5.99999997 C4.44666664,5.99999997 3.99999997,5.55333332 3.99999997,4.99999997 C3.99999997,4.44666664 4.44666664,3.99999997 4.99999997,3.99999997 C5.55333332,3.99999997 5.99999997,4.44666664 5.99999997,4.99999997 C5.99999997,5.55333332 5.55333332,5.99999997 4.99999997,5.99999997 Z M7.99999999,8.99999999 C7.44666666,8.99999999 6.99999999,8.55333334 6.99999999,7.99999999 C6.99999999,7.44666666 7.44666666,6.99999999 7.99999999,6.99999999 C8.55333334,6.99999999 8.99999999,7.44666666 8.99999999,7.99999999 C8.99999999,8.55333334 8.55333334,8.99999999 7.99999999,8.99999999 Z M11,12 C10.4466667,12 10,11.5533334 10,11 C10,10.4466667 10.4466667,10 11,10 C11.5533334,10 12,10.4466667 12,11 C12,11.5533334 11.5533334,12 11,12 Z M11,5.99999997 C10.4466667,5.99999997 10,5.55333332 10,4.99999997 C10,4.44666664 10.4466667,3.99999997 11,3.99999997 C11.5533334,3.99999997 12,4.44666664 12,4.99999997 C12,5.55333332 11.5533334,5.99999997 11,5.99999997 Z" id="path-1"></path>
    </defs>
    <g id="Icons/Places/casino" stroke="none" stroke-width="1" fill="none" fill-rule="evenodd">
        <mask id="mask-2" fill="white">
            <use xlink:href="#path-1"></use>
        </mask>
        <use id="Icons/Places/ic_casino_24px" fill="#233745" fill-rule="nonzero" xlink:href="#path-1"></use>
    </g>
</svg>