<?xml version="1.0" encoding="UTF-8"?>
<svg width="16px" height="16px" viewBox="0 0 16 16" version="1.1" xmlns="http://www.w3.org/2000/svg" xmlns:xlink="http://www.w3.org/1999/xlink">
    <title>Icons/Places/child-care</title>
    <g id="Icons/Places/child-care" stroke="none" stroke-width="1" fill="none" fill-rule="evenodd">
        <rect id="Spacer" fill-opacity="0" fill="#D8D8D8" x="0" y="0" width="16" height="16"></rect>
        <path d="M8,1.99999996 C9.52000001,1.99999996 10.9066667,2.56666663 11.96,3.50666664 C12.5666667,4.04666664 13.0666667,4.69999998 13.42,5.44666665 C14.3866667,5.73333332 15.1266667,6.55333332 15.2933334,7.56 C15.32,7.7 15.3333334,7.84666667 15.3333334,7.99999996 C15.3333334,8.15333333 15.32,8.3 15.2933334,8.44 C15.1266667,9.45333334 14.3866667,10.2666667 13.4266667,10.5533333 C13.08,11.2866667 12.58,11.9466667 11.98,12.48 C10.92,13.4266667 9.52666668,14 8,14 C6.47333332,14 5.07999998,13.4266667 4.02666664,12.48 C3.42666664,11.9466667 2.92666663,11.2933334 2.57999997,10.5533333 C1.61333329,10.2666667 0.873333289,9.44666668 0.706666621,8.44 C0.679999954,8.3 0.666666621,8.15333333 0.666666621,7.99999996 C0.666666621,7.84666667 0.679999954,7.7 0.706666621,7.56 C0.873333289,6.54666666 1.61333329,5.73333332 2.57999997,5.44666665 C2.92666663,4.70666665 3.42666664,4.04666664 4.03999998,3.50666664 C5.09333332,2.56666663 6.47999999,1.99999996 8,1.99999996 Z M7.99999996,3.3333333 C6.36666666,3.3333333 4.93333331,4.17333331 4.09999998,5.44666665 C3.85333331,5.82666665 3.65999997,6.23999999 3.52666664,6.68666666 C3.45999997,6.67999999 3.39999997,6.66666666 3.3333333,6.66666666 C2.59999997,6.66666666 1.99999996,7.26666666 1.99999996,8 C1.99999996,8.73333334 2.59999997,9.3333333 3.3333333,9.3333333 C3.39999997,9.3333333 3.45999997,9.32000001 3.52666664,9.31333334 C3.65999997,9.76000001 3.85333331,10.1733333 4.09999998,10.5533333 C4.93333331,11.8266667 6.36666666,12.6666667 7.99999996,12.6666667 C9.63333334,12.6666667 11.0666667,11.8266667 11.9,10.5533333 C12.1466667,10.1733333 12.34,9.76000001 12.4733334,9.31333334 C12.54,9.32000001 12.6,9.3333333 12.6666667,9.3333333 C13.4,9.3333333 14,8.73333334 14,8 C14,7.26666666 13.4,6.66666666 12.6666667,6.66666666 C12.6,6.66666666 12.54,6.67999999 12.4733334,6.68666666 C12.34,6.23999999 12.1466667,5.82666665 11.9,5.44666665 C11.0666667,4.17333331 9.63333334,3.3333333 7.99999996,3.3333333 Z M11,9.33333334 C10.4933333,10.5133333 9.34000001,11.3333333 7.99999998,11.3333333 C6.65999999,11.3333333 5.50666665,10.5133333 4.99999998,9.33333334 L4.99999998,9.33333334 Z M9.66666668,6.16666666 C10.126904,6.16666666 10.5,6.5397627 10.5,6.99999999 C10.5,7.46023729 10.126904,7.83333333 9.66666668,7.83333333 C9.20642938,7.83333333 8.83333334,7.46023729 8.83333334,6.99999999 C8.83333334,6.5397627 9.20642938,6.16666666 9.66666668,6.16666666 Z M6.33333332,6.16666666 C6.79357062,6.16666666 7.16666666,6.5397627 7.16666666,6.99999999 C7.16666666,7.46023729 6.79357062,7.83333333 6.33333332,7.83333333 C5.87309603,7.83333333 5.49999998,7.46023729 5.49999998,6.99999999 C5.49999998,6.5397627 5.87309603,6.16666666 6.33333332,6.16666666 Z" id="Combined-Shape" fill="#233745" fill-rule="nonzero"></path>
    </g>
</svg>