<?xml version="1.0" encoding="UTF-8"?>
<svg width="16px" height="16px" viewBox="0 0 16 16" version="1.1" xmlns="http://www.w3.org/2000/svg" xmlns:xlink="http://www.w3.org/1999/xlink">
    <title>Icons/Places/child-friendly</title>
    <defs>
        <path d="M8.66666667,1.33333329 L8.66666667,6.66666666 L14,6.66666666 C14,3.71999997 11.6133334,1.33333329 8.66666667,1.33333329 Z M12.88,10.5933333 C13.58,9.69333334 14,8.56 14,7.33333333 L4.29333331,7.33333333 L3.65999997,5.99999999 L1.33333329,5.99999999 L1.33333329,7.33333333 L2.8133333,7.33333333 C2.8133333,7.33333333 4.07333331,10.0466667 4.22666664,10.28 C3.49333331,10.6733334 2.99999997,11.4466667 2.99999997,12.3333334 C2.99999997,13.62 4.04666664,14.6666667 5.33333329,14.6666667 C6.50666666,14.6666667 7.48,13.8 7.64,12.6666667 L9.02666667,12.6666667 C9.18666667,13.8 10.16,14.6666667 11.3333333,14.6666667 C12.62,14.6666667 13.6666667,13.62 13.6666667,12.3333334 C13.6666667,11.64 13.36,11.02 12.88,10.5933333 Z M5.33333331,13.3333334 C4.77999998,13.3333334 4.33333331,12.8866667 4.33333331,12.3333334 C4.33333331,11.78 4.77999998,11.3333334 5.33333331,11.3333334 C5.88666665,11.3333334 6.33333331,11.78 6.33333331,12.3333334 C6.33333331,12.8866667 5.88666665,13.3333334 5.33333331,13.3333334 Z M11.3333333,13.3333334 C10.78,13.3333334 10.3333333,12.8866667 10.3333333,12.3333334 C10.3333333,11.78 10.78,11.3333334 11.3333333,11.3333334 C11.8866667,11.3333334 12.3333333,11.78 12.3333333,12.3333334 C12.3333333,12.8866667 11.8866667,13.3333334 11.3333333,13.3333334 Z" id="path-1"></path>
    </defs>
    <g id="Icons/Places/child-friendly" stroke="none" stroke-width="1" fill="none" fill-rule="evenodd">
        <mask id="mask-2" fill="white">
            <use xlink:href="#path-1"></use>
        </mask>
        <use id="Icons/Places/ic_child_friendly_24px" fill="#233745" fill-rule="nonzero" xlink:href="#path-1"></use>
    </g>
</svg>