<svg xmlns="http://www.w3.org/2000/svg" xmlns:xlink="http://www.w3.org/1999/xlink" width="16" height="16" viewBox="0 0 16 16">
  <defs>
    <polygon id="fitness-center-a" points="13.713 9.907 14.667 8.953 13.713 8 11.333 10.38 5.62 4.667 8 2.287 7.047 1.333 6.093 2.287 5.14 1.333 3.713 2.76 2.76 1.807 1.807 2.76 2.76 3.713 1.333 5.14 2.287 6.093 1.333 7.047 2.287 8 4.667 5.62 10.38 11.333 8 13.713 8.953 14.667 9.907 13.713 10.86 14.667 12.287 13.24 13.24 14.193 14.193 13.24 13.24 12.287 14.667 10.86"/>
  </defs>
  <g fill="none" fill-rule="evenodd">
    <mask id="fitness-center-b" fill="#fff">
      <use xlink:href="#fitness-center-a"/>
    </mask>
    <g fill="CurrentColor" mask="url(#fitness-center-b)">
      <rect width="16" height="16"/>
    </g>
  </g>
</svg>
