<svg xmlns="http://www.w3.org/2000/svg" xmlns:xlink="http://www.w3.org/1999/xlink" width="16" height="16" viewBox="0 0 16 16">
  <defs>
    <path id="golf-course-a" d="M13,14 C12.4477153,14 12,13.5522848 12,13 C12,12.4477153 12.4477153,12 13,12 C13.5522848,12 14,12.4477153 14,13 C14,13.5522848 13.5522848,14 13,14 Z M11.3333334,3.94666664 L7.33333333,5.98666665 L7.33333333,12.02 C9.22666667,12.1266667 10.6666666,12.6733334 10.6666666,13.3333333 C10.6666666,14.0666667 8.87333334,14.6666667 6.66666663,14.6666667 C4.45999998,14.6666667 2.66666663,14.0666667 2.66666663,13.3333333 C2.66666663,12.84 3.47333331,12.4133334 4.66666663,12.18 L4.66666663,13.3333333 L5.99999999,13.3333333 L5.99999999,1.33333329 L11.3333334,3.94666664 Z"/>
  </defs>
  <g fill="none" fill-rule="evenodd">
    <mask id="golf-course-b" fill="#fff">
      <use xlink:href="#golf-course-a"/>
    </mask>
    <g fill="CurrentColor" mask="url(#golf-course-b)">
      <rect width="16" height="16"/>
    </g>
  </g>
</svg>
