<?xml version="1.0" encoding="UTF-8"?>
<svg width="16px" height="16px" viewBox="0 0 16 16" version="1.1" xmlns="http://www.w3.org/2000/svg" xmlns:xlink="http://www.w3.org/1999/xlink">
    <title>Icons/Places/kitchen</title>
    <g id="Icons/Places/kitchen" stroke="none" stroke-width="1" fill="none" fill-rule="evenodd">
        <rect id="Spacer" fill-opacity="0" fill="#D8D8D8" x="0" y="0" width="16" height="16"></rect>
        <path d="M12,1.33999996 L3.99999997,1.33333329 C3.26666664,1.33333329 2.66666663,1.92666663 2.66666663,2.66666663 L2.66666663,13.3333333 C2.66666663,14.0666667 3.26666664,14.6666667 3.99999997,14.6666667 L12,14.6666667 C12.7333334,14.6666667 13.3333334,14.0666667 13.3333334,13.3333333 L13.3333334,2.66666663 C13.3333334,1.92666663 12.7333334,1.33999996 12,1.33999996 Z M12,13.3333334 L3.99999998,13.3333334 L3.99999998,7.32 L12,7.32 L12,13.3333334 Z M12,5.99999999 L3.99999998,5.99999999 L3.99999998,2.66666663 L12,2.66666663 L12,5.99999999 Z M5.33333332,3.3333333 L6.66666666,3.3333333 L6.66666666,5.3333333 L5.33333332,5.3333333 L5.33333332,3.3333333 Z M5.33333332,8 L6.66666666,8 L6.66666666,11.3333334 L5.33333332,11.3333334 L5.33333332,8 Z" id="Icons/Places/ic_kitchen_24px" fill="#233745" fill-rule="nonzero"></path>
    </g>
</svg>