<?xml version="1.0" encoding="UTF-8"?>
<svg width="16px" height="16px" viewBox="0 0 16 16" version="1.1" xmlns="http://www.w3.org/2000/svg" xmlns:xlink="http://www.w3.org/1999/xlink">
    <title>Icons/Places/pool</title>
    <defs>
        <path d="M12.4466667,12 C13.1866667,12 13.6,12.2466667 13.9,12.4266667 C14.1466667,12.58 14.2933334,12.6666667 14.6666667,12.6666667 L14.6666667,14 C13.9266667,14 13.5133334,13.7533334 13.2133334,13.5733334 C12.9666667,13.4266667 12.8133334,13.3333334 12.4466667,13.3333334 C12.0733334,13.3333334 11.9266667,13.42 11.68,13.5733334 C11.3733334,13.7533334 10.9666667,14 10.2266667,14 C9.48666668,14 9.07333334,13.7533334 8.77333334,13.5733334 C8.52666667,13.4266667 8.37333334,13.3333334 8.00666667,13.3333334 C7.63333333,13.3333334 7.48666666,13.42 7.24,13.5733334 C6.93333333,13.7533334 6.51999999,14 5.77999999,14 C5.03999998,14 4.62666665,13.7533334 4.32666664,13.5733334 C4.07999998,13.42 3.92666664,13.3333334 3.55999997,13.3333334 C3.1933333,13.3333334 3.03999997,13.42 2.7933333,13.5733334 C2.48666663,13.7533334 2.0733333,14 1.33333329,14 L1.33333329,12.6666667 C1.70666663,12.6666667 1.85333329,12.58 2.09999996,12.4266667 C2.40666663,12.2466667 2.81999997,12 3.55999997,12 C4.29999998,12 4.71333331,12.2466667 5.01333331,12.4266667 C5.25999998,12.58 5.40666665,12.6666667 5.77999999,12.6666667 C6.15333332,12.6666667 6.29999999,12.58 6.54666666,12.4266667 C6.85333333,12.2466667 7.26666666,12 8.00666667,12 C8.74666667,12 9.16000001,12.2466667 9.46000001,12.4266667 C9.70666668,12.5733334 9.86000001,12.6666667 10.2266667,12.6666667 C10.5933333,12.6666667 10.7466667,12.58 10.9933334,12.4266667 C11.2933334,12.2466667 11.7066667,12 12.4466667,12 Z M12.4333334,9.00000001 C13.1733334,9.00000001 13.5866667,9.24666667 13.8866667,9.42666668 C14.1333334,9.57333334 14.2866667,9.66666668 14.6533334,9.66666668 L14.6533333,10.9998941 L14.4727874,10.9941197 C13.8524518,10.9557025 13.4860606,10.7369697 13.2133334,10.5733333 C12.9666667,10.4266667 12.8133334,10.3333333 12.4466667,10.3333333 C12.0733334,10.3333333 11.9266667,10.42 11.68,10.5733333 C11.38,10.7533334 10.9666667,11 10.2266667,11 C9.48666668,11 9.07333334,10.7533334 8.77333334,10.5733333 C8.52666667,10.4266667 8.37333334,10.3333333 8.00666667,10.3333333 C7.63333333,10.3333333 7.48666666,10.42 7.24,10.5733333 C6.93999999,10.7533334 6.52666666,11 5.78666665,11 C5.04666665,11 4.63333331,10.7533334 4.33333329,10.5733333 C4.08666664,10.4266667 3.93333331,10.3333333 3.56666664,10.3333333 C3.19999997,10.3333333 3.04666664,10.42 2.79999997,10.5733333 C2.48666663,10.7533334 2.0733333,11 1.33333329,11 L1.33333329,9.66666668 C1.70666663,9.66666668 1.85333329,9.58000001 2.09999996,9.42666668 C2.39999997,9.24666667 2.8133333,9.00000001 3.55333331,9.00000001 C4.29333331,9.00000001 4.70666665,9.24666667 5.00666665,9.42666668 C5.25333332,9.57333334 5.40666665,9.66666668 5.77333332,9.66666668 C6.14666666,9.66666668 6.29333332,9.58000001 6.53999999,9.42666668 C6.83999999,9.24666667 7.25333333,9.00000001 7.99333333,9.00000001 C8.73333334,9.00000001 9.14666667,9.24666667 9.44666668,9.42666668 C9.69333334,9.57333334 9.84666668,9.66666668 10.2133333,9.66666668 C10.58,9.66666668 10.7333334,9.58000001 10.98,9.42666668 C11.28,9.24666667 11.6933334,9.00000001 12.4333334,9.00000001 Z M3.3333333,1.99999996 C4.99999998,1.9933333 5.95333332,2.29999996 6.98666666,3.3333333 L6.98666666,3.3333333 L11.2666667,7.60666666 C11.1666667,7.66 11.0733334,7.71333333 10.9933334,7.76 C10.7466667,7.91333333 10.5933333,8 10.2266667,8 C9.86000001,8 9.70666668,7.90666667 9.46000001,7.76 C9.16000001,7.58 8.74666667,7.33333333 8.00666667,7.33333333 C7.26666666,7.33333333 6.85333333,7.58 6.54666666,7.76 C6.29999999,7.91333333 6.15333332,8 5.77999999,8 C5.40666665,8 5.25999998,7.91333333 5.01333331,7.76 C4.87333331,7.68 4.70666665,7.58 4.49999998,7.5 L4.49999998,7.5 L6.66666666,5.33333332 L5.99999999,4.66666665 C5.25999998,3.92666664 4.54666665,3.65999997 3.3333333,3.66666664 L3.3333333,3.66666664 Z M11,1.99999996 C11.9204746,1.99999996 12.6666667,2.74619205 12.6666667,3.66666664 C12.6666667,4.58714123 11.9204746,5.33333332 11,5.33333332 C10.0795254,5.33333332 9.33333334,4.58714123 9.33333334,3.66666664 C9.33333334,2.74619205 10.0795254,1.99999996 11,1.99999996 Z" id="path-1"></path>
    </defs>
    <g id="Icons/Places/pool" stroke="none" stroke-width="1" fill="none" fill-rule="evenodd">
        <mask id="mask-2" fill="white">
            <use xlink:href="#path-1"></use>
        </mask>
        <use id="Combined-Shape" fill="#233745" fill-rule="nonzero" xlink:href="#path-1"></use>
    </g>
</svg>