<?xml version="1.0" encoding="UTF-8"?>
<svg width="16px" height="16px" viewBox="0 0 16 16" version="1.1" xmlns="http://www.w3.org/2000/svg" xmlns:xlink="http://www.w3.org/1999/xlink">
    <title>Icons/Places/rv-hookup</title>
    <defs>
        <path d="M13.3333334,11.3333334 L13.3333334,7.33333333 C13.3333334,6.59999999 12.7333334,5.99999999 12,5.99999999 L4.66666663,5.99999999 L4.66666663,4.66666665 L2.66666663,6.66666665 L4.66666663,8.66666665 L4.66666663,7.33333333 L7.33333333,7.33333333 L7.33333333,9.33333334 L2.66666663,9.33333334 L2.66666663,11.3333334 C2.66666663,12.0666667 3.26666664,12.6666666 3.99999997,12.6666666 L5.33333332,12.6666666 C5.33333332,13.7733334 6.22666666,14.6666666 7.33333333,14.6666666 C8.44,14.6666666 9.33333334,13.7733334 9.33333334,12.6666666 L14.6666666,12.6666666 L14.6666666,11.3333334 L13.3333334,11.3333334 Z M7.33333333,13.3333334 C6.96666666,13.3333334 6.66666666,13.0333334 6.66666666,12.6666667 C6.66666666,12.3 6.96666666,12 7.33333333,12 C7.7,12 8,12.3 8,12.6666667 C8,13.0333334 7.7,13.3333334 7.33333333,13.3333334 Z M12,9.33333333 L9.33333334,9.33333333 L9.33333334,7.33333333 L12,7.33333333 L12,9.33333333 Z M11.3333334,1.33333329 L11.3333334,2.66666663 L5.99999999,2.66666663 L5.99999999,3.99999997 L11.3333334,3.99999997 L11.3333334,5.33333329 L13.3333334,3.33333329 L11.3333334,1.33333329 Z" id="path-1"></path>
    </defs>
    <g id="Icons/Places/rv-hookup" stroke="none" stroke-width="1" fill="none" fill-rule="evenodd">
        <mask id="mask-2" fill="white">
            <use xlink:href="#path-1"></use>
        </mask>
        <use id="Icons/Places/ic_rv_hookup_24px" fill="#233745" fill-rule="nonzero" xlink:href="#path-1"></use>
    </g>
</svg>