<?xml version="1.0" encoding="UTF-8"?>
<svg width="16px" height="16px" viewBox="0 0 16 16" version="1.1" xmlns="http://www.w3.org/2000/svg" xmlns:xlink="http://www.w3.org/1999/xlink">
    <title>Icons/Places/smoking-rooms</title>
    <defs>
        <path d="M1.33333329,10.6666667 L11.3333333,10.6666667 L11.3333333,12.6666667 L1.33333329,12.6666667 L1.33333329,10.6666667 Z M13.6666667,10.6666667 L14.6666667,10.6666667 L14.6666667,12.6666667 L13.6666667,12.6666667 L13.6666667,10.6666667 Z M12,10.6666667 L13,10.6666667 L13,12.6666667 L12,12.6666667 L12,10.6666667 Z M12.5666667,5.15333332 C12.98,4.74666665 13.2333334,4.18666664 13.2333334,3.56666664 C13.2333334,2.33333329 12.2333334,1.33333329 11,1.33333329 L11,2.33333329 C11.68,2.33333329 12.2333334,2.88666663 12.2333334,3.56666664 C12.2333334,4.24666664 11.68,4.79999998 11,4.79999998 L11,5.79999999 C12.4933334,5.79999999 13.6666667,7.01999999 13.6666667,8.51333334 L13.6666667,10 L14.6666667,10 L14.6666667,8.50666667 C14.6666667,7.02666666 13.8133334,5.74666665 12.5666667,5.15333332 Z M10.6866667,6.79999997 L9.66666668,6.79999997 C8.98666667,6.79999997 8.43333333,6.14666666 8.43333333,5.46666665 C8.43333333,4.78666665 8.98666667,4.29999997 9.66666668,4.29999997 L9.66666668,3.29999997 C8.43333333,3.29999997 7.43333333,4.29999997 7.43333333,5.53333332 C7.43333333,6.76666666 8.43333333,7.76666667 9.66666668,7.76666667 L10.6866667,7.76666667 C11.3866667,7.76666667 12,8.26 12,9.13333334 L12,10 L13,10 L13,8.90666667 C13,7.7 11.9333333,6.79999997 10.6866667,6.79999997 L10.6866667,6.79999997 Z" id="path-1"></path>
    </defs>
    <g id="Icons/Places/smoking-rooms" stroke="none" stroke-width="1" fill="none" fill-rule="evenodd">
        <mask id="mask-2" fill="white">
            <use xlink:href="#path-1"></use>
        </mask>
        <use id="Icons/Places/ic_smoking_rooms_24px" fill="#233745" fill-rule="nonzero" xlink:href="#path-1"></use>
    </g>
</svg>