<?xml version="1.0" encoding="UTF-8"?>
<svg width="16px" height="16px" viewBox="0 0 16 16" version="1.1" xmlns="http://www.w3.org/2000/svg" xmlns:xlink="http://www.w3.org/1999/xlink">
    <title>Icons/Places/spa</title>
    <defs>
        <path d="M14.6666667,6.66666666 C14.6666667,10.2133333 12.4266667,13.2133334 9.31333334,14.3266667 C8.88666667,14.4733334 8.45333334,14.5866667 8,14.6666667 C7.54666666,14.5933334 7.10666666,14.48 6.68666666,14.3266667 C3.57333331,13.2133334 1.33333329,10.2133333 1.33333329,6.66666666 C3.02523806,6.66666666 4.5918112,7.19994047 5.88235634,8.10833151 L5.95233329,8.15933329 L5.96033329,8.16433329 L5.95933329,8.16433329 L5.96733329,8.16933329 L6.10720358,8.27249757 C6.77296525,8.77648446 7.35887815,9.38300049 7.84258169,10.0685781 L8,10.3 C9.43333334,8.11333333 11.88,6.66666666 14.6666667,6.66666666 Z M8.04,1.33333329 C9.45333334,2.74666663 10.2066667,4.55999998 10.3266667,6.41999999 C9.47333334,6.87999999 8.68666667,7.46666666 8,8.17333333 C7.31333333,7.46 6.52666666,6.87333333 5.67333332,6.41999999 C5.82666665,4.57333331 6.61333332,2.75999997 8.04,1.33333329 Z" id="path-1"></path>
    </defs>
    <g id="Icons/Places/spa" stroke="none" stroke-width="1" fill="none" fill-rule="evenodd">
        <mask id="mask-2" fill="white">
            <use xlink:href="#path-1"></use>
        </mask>
        <use id="Combined-Shape" fill="#233745" fill-rule="nonzero" xlink:href="#path-1"></use>
    </g>
</svg>