<svg xmlns="http://www.w3.org/2000/svg" xmlns:xlink="http://www.w3.org/1999/xlink" width="16" height="16" viewBox="0 0 16 16">
  <defs>
    <path id="headset-mic-a" d="M7.99999996,0.666666621 C4.68666665,0.666666621 1.99999996,3.3533333 1.99999996,6.66666662 L1.99999996,11.3333334 C1.99999996,12.44 2.8933333,13.3333334 3.99999996,13.3333334 L5.99999996,13.3333334 L5.99999996,8 L3.3333333,8 L3.3333333,6.66666662 C3.3333333,4.08666664 5.41999998,1.99999996 7.99999996,1.99999996 C10.58,1.99999996 12.6666667,4.08666664 12.6666667,6.66666662 L12.6666667,8 L9.99999996,8 L9.99999996,13.3333334 L12.6666667,13.3333334 L12.6666667,14 L7.99999996,14 L7.99999996,15.3333334 L12,15.3333334 C13.1066667,15.3333334 14,14.44 14,13.3333334 L14,6.66666662 C14,3.3533333 11.3133334,0.666666621 7.99999996,0.666666621 Z"/>
  </defs>
  <g fill="none" fill-rule="evenodd">
    <mask id="headset-mic-b" fill="#fff">
      <use xlink:href="#headset-mic-a"/>
    </mask>
    <g fill="CurrentColor" mask="url(#headset-mic-b)">
      <rect width="16" height="16"/>
    </g>
  </g>
</svg>
