<svg xmlns="http://www.w3.org/2000/svg" xmlns:xlink="http://www.w3.org/1999/xlink" width="16" height="16" viewBox="0 0 16 16">
  <defs>
    <path id="art-track-a" d="M14.6666667,8.66666667 L9.33333334,8.66666667 L9.33333334,7.33333333 L14.6666667,7.33333333 L14.6666667,8.66666667 Z M14.6666667,4.66666665 L9.33333334,4.66666665 L9.33333334,5.99999999 L14.6666667,5.99999999 L14.6666667,4.66666665 Z M9.33333334,11.3333334 L14.6666667,11.3333334 L14.6666667,10 L9.33333334,10 L9.33333334,11.3333334 Z M8,5.99999999 L8,10 C8,10.7333334 7.4,11.3333334 6.66666666,11.3333334 L2.66666663,11.3333334 C1.9333333,11.3333334 1.33333329,10.7333334 1.33333329,10 L1.33333329,5.99999999 C1.33333329,5.26666665 1.9333333,4.66666665 2.66666663,4.66666665 L6.66666666,4.66666665 C7.4,4.66666665 8,5.26666665 8,5.99999999 Z M6.99999999,10 L5.49999998,8 L4.3333333,9.50666668 L3.49999997,8.5 L2.3333333,10 L6.99999999,10 Z"/>
  </defs>
  <g fill="none" fill-rule="evenodd">
    <mask id="art-track-b" fill="#fff">
      <use xlink:href="#art-track-a"/>
    </mask>
    <g fill="CurrentColor" mask="url(#art-track-b)">
      <rect width="16" height="16"/>
    </g>
  </g>
</svg>
