<svg xmlns="http://www.w3.org/2000/svg" xmlns:xlink="http://www.w3.org/1999/xlink" width="16" height="16" viewBox="0 0 16 16">
  <defs>
    <path id="fiber-smart-record-a" d="M5.99999999,13.3333334 C3.0544813,13.3333334 0.666666621,10.9455187 0.666666621,8 C0.666666621,5.05448132 3.0544813,2.66666663 5.99999999,2.66666663 C8.94551867,2.66666663 11.3333334,5.05448132 11.3333334,8 C11.3333334,10.9455187 8.94551867,13.3333334 5.99999999,13.3333334 Z M11.3333334,2.83999997 C13.6333334,3.4333333 15.3333334,5.51333332 15.3333334,8 C15.3333334,10.4866667 13.6333334,12.5666667 11.3333334,13.16 L11.3333334,11.7666667 C12.8866667,11.22 14,9.74000001 14,8 C14,6.25999999 12.8866667,4.77999998 11.3333334,4.23333331 L11.3333334,2.83999997 Z"/>
  </defs>
  <g fill="none" fill-rule="evenodd">
    <mask id="fiber-smart-record-b" fill="#fff">
      <use xlink:href="#fiber-smart-record-a"/>
    </mask>
    <g fill="CurrentColor" mask="url(#fiber-smart-record-b)">
      <rect width="16" height="16"/>
    </g>
  </g>
</svg>
