<svg xmlns="http://www.w3.org/2000/svg" viewBox="0 0 296 55">
  <style>
    .home {
      opacity: 0;
      transition: 0.2s;
      transform: translateY(10px);
      transition-delay: 0s;
    }
    .team {
      opacity: 1;
      transition: 0.2s;
      transform: translateY(0);
      transition-delay: 0.1s;
    }
    .logo:hover .team {
      opacity: 0;
      transform: translateY(-10px);
      transition-delay: 0s;
    }
    .logo:hover .home {
      opacity: 1;
      transform: translateY(0);
      transition-delay: 0.1s;
    }
    .left-arrow {
      transition: 0.2s;
    }
    .logo:hover .left-arrow {
      fill: #3a8fdd;
    }
    
  </style>
  <g class="logo" fill="none" fill-rule="evenodd">
    <path fill="#FFF" d="M0 0h296v56H0z"/>
    <path class="home" fill="#3E5667" fill-rule="nonzero" d="M198.13 21.8V39h-2.33v-7.82h-9.28V39h-2.32V21.8h2.32v7.67h9.28V21.8h2.33zm8.64 4.85c.89 0 1.69.15 2.4.45a5.14 5.14 0 0 1 2.98 3.23c.27.77.4 1.63.4 2.59s-.13 1.82-.4 2.59a5.08 5.08 0 0 1-2.98 3.22c-.71.3-1.51.44-2.4.44-.9 0-1.7-.15-2.42-.44a5.07 5.07 0 0 1-2.99-3.22 7.83 7.83 0 0 1-.4-2.6c0-.95.13-1.8.4-2.58a5.13 5.13 0 0 1 2.99-3.23c.72-.3 1.52-.45 2.42-.45zm0 10.85c1.2 0 2.1-.4 2.69-1.2.59-.81.88-1.93.88-3.37 0-1.45-.3-2.58-.88-3.39-.6-.8-1.5-1.2-2.7-1.2-.6 0-1.13.1-1.58.3-.45.21-.83.51-1.13.9a4 4 0 0 0-.67 1.45 7.75 7.75 0 0 0-.22 1.94c0 1.44.3 2.56.89 3.36.6.8 1.5 1.21 2.72 1.21zm8.48 1.5V26.84h1.29c.3 0 .49.15.56.45l.16 1.25c.44-.56.95-1 1.5-1.36.57-.35 1.22-.53 1.95-.53.82 0 1.48.23 1.99.69.5.45.87 1.07 1.1 1.84a4 4 0 0 1 1.6-1.93c.35-.2.71-.36 1.1-.45a4.9 4.9 0 0 1 2.9.16c.5.2.92.5 1.27.9.34.38.61.87.8 1.44.18.57.27 1.22.27 1.96V39h-2.15v-7.74c0-.95-.2-1.67-.62-2.17-.42-.49-1.02-.73-1.8-.73-.35 0-.69.06-1 .18a2.41 2.41 0 0 0-1.4 1.45c-.15.37-.22.79-.22 1.27V39h-2.15v-7.74c0-.98-.2-1.7-.58-2.18-.4-.48-.97-.72-1.72-.72-.53 0-1.02.14-1.46.42-.45.29-.86.67-1.24 1.16V39h-2.15zm27.88-7.4c0-.5-.07-.95-.21-1.37a3.06 3.06 0 0 0-.61-1.06c-.27-.3-.6-.54-.98-.7a3.3 3.3 0 0 0-1.31-.25c-1.02 0-1.83.3-2.43.9-.6.6-.97 1.42-1.11 2.48h6.65zm1.73 5.7c-.27.32-.58.6-.95.83a5.9 5.9 0 0 1-1.18.58 7.5 7.5 0 0 1-4.96.03 5.1 5.1 0 0 1-1.84-1.25 5.73 5.73 0 0 1-1.2-2.03 8.27 8.27 0 0 1-.04-5.16 5.17 5.17 0 0 1 2.91-3.19c.7-.3 1.5-.46 2.37-.46.73 0 1.4.12 2.02.37a4.57 4.57 0 0 1 2.67 2.76c.26.67.39 1.44.39 2.3 0 .34-.04.57-.11.68-.07.11-.2.17-.4.17h-8.13c.02.77.13 1.43.32 2 .18.57.45 1.04.78 1.42.34.38.74.67 1.2.86.47.18.99.28 1.56.28.54 0 1-.06 1.39-.19a6.6 6.6 0 0 0 1.7-.8.93.93 0 0 1 .49-.19c.17 0 .31.07.4.2l.6.79z"/>
    <path class="team" fill="#3E5667" fill-rule="nonzero" d="M194.2 24.5a.88.88 0 0 1-.23.26.51.51 0 0 1-.31.1c-.14 0-.3-.08-.48-.21a5.55 5.55 0 0 0-1.69-.9c-.38-.14-.85-.2-1.4-.2-.53 0-.98.06-1.38.2-.4.14-.73.33-1 .57-.26.24-.47.53-.6.85-.14.32-.2.67-.2 1.05 0 .48.11.88.35 1.2.23.31.55.58.93.8.4.23.83.42 1.32.59l1.52.5c.51.18 1.02.38 1.5.6.5.22.94.5 1.33.83.39.34.7.75.93 1.24.24.49.36 1.09.36 1.8a5.8 5.8 0 0 1-.39 2.12 4.88 4.88 0 0 1-2.93 2.87c-.72.28-1.53.42-2.44.42a7.15 7.15 0 0 1-5.39-2.24l.67-1.1a.88.88 0 0 1 .24-.23c.09-.06.19-.09.3-.09.1 0 .22.04.36.13a19 19 0 0 0 1.03.74 4.76 4.76 0 0 0 2.86.86c.55 0 1.04-.08 1.48-.23.43-.15.8-.36 1.1-.64.3-.28.52-.6.68-.99.16-.38.24-.81.24-1.28 0-.52-.11-.95-.35-1.28a2.93 2.93 0 0 0-.93-.84 6.46 6.46 0 0 0-1.32-.57l-1.51-.48c-.51-.16-1.02-.35-1.51-.57-.5-.21-.94-.5-1.32-.84-.39-.34-.7-.77-.93-1.29a4.6 4.6 0 0 1-.36-1.91 4.55 4.55 0 0 1 1.39-3.28c.45-.44 1-.79 1.67-1.05a7.23 7.23 0 0 1 4.9.06c.78.3 1.47.74 2.07 1.32l-.56 1.1zm6.91 14.7c-.96 0-1.7-.28-2.21-.81-.52-.54-.78-1.31-.78-2.32v-7.44h-1.46a.48.48 0 0 1-.32-.11c-.1-.08-.14-.2-.14-.36v-.85l2-.25.49-3.76a.47.47 0 0 1 .5-.4h1.07v4.18h3.52v1.55h-3.52v7.3c0 .51.12.89.37 1.14.25.25.57.37.96.37.23 0 .42-.03.58-.09a2.5 2.5 0 0 0 .74-.4.4.4 0 0 1 .22-.09c.11 0 .21.07.3.2l.62 1.03a4.52 4.52 0 0 1-2.94 1.1zm11.46-5.67c-.98.03-1.82.1-2.51.23-.7.13-1.26.29-1.7.49-.43.2-.75.43-.94.7-.2.28-.3.58-.3.92 0 .32.06.6.16.83a1.54 1.54 0 0 0 1.06.89 4.36 4.36 0 0 0 2.7-.34c.28-.15.54-.32.8-.52.25-.2.5-.43.73-.68v-2.52zm-6.9-4.97a6.94 6.94 0 0 1 2.17-1.45 6.7 6.7 0 0 1 2.58-.48c.68 0 1.29.11 1.82.33a3.72 3.72 0 0 1 2.14 2.4c.19.56.28 1.18.28 1.86V39h-.95a.93.93 0 0 1-.48-.1c-.11-.07-.2-.2-.26-.4l-.24-1.16c-.32.3-.63.56-.94.79a5.36 5.36 0 0 1-4.63.86 2.8 2.8 0 0 1-1.82-1.6 3.5 3.5 0 0 1-.27-1.43c0-.48.13-.94.4-1.38.26-.45.69-.84 1.28-1.18.6-.35 1.37-.63 2.32-.85.95-.22 2.12-.35 3.5-.38v-.95c0-.94-.2-1.65-.61-2.14-.4-.48-1-.72-1.79-.72a3.84 3.84 0 0 0-2.25.64l-.67.44a.97.97 0 0 1-.56.2.61.61 0 0 1-.37-.11c-.1-.08-.2-.17-.26-.29l-.39-.68zm14.26.05c.26-.3.54-.57.84-.8a5.54 5.54 0 0 1 2-1.02 5.01 5.01 0 0 1 2.96.2c.5.21.93.52 1.27.93.34.4.6.89.78 1.46.17.56.26 1.2.26 1.88V39h-2.15v-7.74c0-.92-.2-1.63-.63-2.14-.42-.51-1.06-.76-1.91-.76a3.6 3.6 0 0 0-1.77.45c-.55.3-1.06.72-1.52 1.24V39h-2.15V26.84h1.29c.3 0 .49.15.56.45l.17 1.32zm19.3 1.13c-.4-.54-.84-.91-1.3-1.13a3.71 3.71 0 0 0-1.56-.31c-1.13 0-2 .4-2.6 1.2-.61.82-.92 1.97-.92 3.46 0 .8.07 1.47.2 2.04.14.56.34 1.03.6 1.39.27.36.6.63.98.8.38.17.82.25 1.3.25.71 0 1.32-.16 1.85-.48.52-.32 1-.77 1.44-1.36v-5.86zm2.13-8.42V39h-1.27c-.3 0-.5-.15-.58-.44l-.19-1.48a6.62 6.62 0 0 1-1.78 1.51c-.66.39-1.43.58-2.3.58-.7 0-1.33-.14-1.9-.4a3.93 3.93 0 0 1-1.45-1.19c-.4-.52-.7-1.16-.92-1.94a10 10 0 0 1 .03-5.18c.24-.77.59-1.44 1.04-2a4.79 4.79 0 0 1 3.85-1.83c.74 0 1.38.12 1.91.38.53.25 1 .6 1.42 1.05v-6.74h2.14zm9.97 12.2c-.98.04-1.82.12-2.51.24-.7.13-1.26.29-1.7.49-.43.2-.75.43-.94.7-.2.28-.3.58-.3.92 0 .32.06.6.16.83a1.54 1.54 0 0 0 1.06.89 4.36 4.36 0 0 0 2.7-.34c.28-.15.54-.32.8-.52.25-.2.5-.43.73-.68v-2.52zm-6.9-4.96a6.94 6.94 0 0 1 2.17-1.45 6.7 6.7 0 0 1 2.58-.48c.68 0 1.29.11 1.82.33a3.72 3.72 0 0 1 2.14 2.4c.19.56.28 1.18.28 1.86V39h-.95a.93.93 0 0 1-.48-.1c-.11-.07-.2-.2-.26-.4l-.24-1.16c-.32.3-.63.56-.94.79a5.36 5.36 0 0 1-4.63.86 2.8 2.8 0 0 1-1.82-1.6 3.5 3.5 0 0 1-.27-1.43c0-.48.13-.94.4-1.38.26-.45.69-.84 1.28-1.18.6-.35 1.37-.63 2.32-.85.95-.22 2.12-.35 3.5-.38v-.95c0-.94-.2-1.65-.61-2.14-.4-.48-1-.72-1.79-.72a3.84 3.84 0 0 0-2.25.64l-.67.44a.97.97 0 0 1-.56.2.61.61 0 0 1-.37-.11c-.1-.08-.2-.17-.26-.29l-.39-.68zm14.27.72c.38-.83.86-1.48 1.42-1.95a3.1 3.1 0 0 1 2.05-.7c.25 0 .5.03.74.08.23.06.44.15.63.27l-.16 1.6c-.05.2-.17.3-.36.3-.11 0-.28-.03-.5-.08a3.39 3.39 0 0 0-1.75.1c-.3.1-.57.27-.8.5-.24.21-.45.49-.64.81a7 7 0 0 0-.51 1.11V39h-2.15V26.84h1.23c.23 0 .39.05.48.14.08.08.14.24.18.45l.14 1.85zm14.16.46c-.4-.54-.83-.91-1.3-1.13a3.71 3.71 0 0 0-1.56-.31c-1.12 0-2 .4-2.6 1.2-.6.82-.91 1.97-.91 3.46 0 .8.07 1.47.2 2.04.14.56.34 1.03.6 1.39.27.36.59.63.97.8.39.17.82.25 1.31.25.7 0 1.32-.16 1.84-.48.53-.32 1.01-.77 1.45-1.36v-5.86zm2.14-8.42V39h-1.28c-.3 0-.5-.15-.57-.44l-.2-1.48a6.62 6.62 0 0 1-1.77 1.51c-.66.39-1.43.58-2.3.58-.7 0-1.33-.14-1.9-.4a3.93 3.93 0 0 1-1.45-1.19c-.4-.52-.71-1.16-.93-1.94a10 10 0 0 1 .04-5.18c.24-.77.58-1.44 1.03-2a4.79 4.79 0 0 1 3.85-1.83c.75 0 1.39.12 1.92.38.53.25 1 .6 1.42 1.05v-6.74H275zm10.46 7.53a.47.47 0 0 1-.44.26.84.84 0 0 1-.41-.13 5.24 5.24 0 0 0-1.34-.6 3.75 3.75 0 0 0-2.06 0c-.29.1-.53.22-.74.38-.2.16-.36.35-.46.56-.11.21-.17.44-.17.7 0 .3.1.56.27.77.18.21.42.39.72.54.3.15.63.29 1 .4.38.12.77.24 1.16.38.4.13.79.27 1.16.43.38.16.71.36 1.01.6a2.7 2.7 0 0 1 .98 2.14c0 .56-.1 1.08-.3 1.55-.2.48-.5.9-.88 1.24-.4.35-.88.62-1.44.82-.57.2-1.23.3-1.97.3a6.14 6.14 0 0 1-4.06-1.47l.5-.82c.07-.1.15-.18.23-.24.1-.06.2-.08.34-.08s.3.05.46.16a4.43 4.43 0 0 0 1.42.74c.32.12.73.18 1.22.18.41 0 .78-.06 1.09-.17.31-.1.57-.25.78-.43.2-.19.36-.4.46-.64.1-.24.15-.5.15-.77 0-.33-.09-.61-.27-.83-.18-.22-.42-.41-.71-.57-.3-.15-.64-.29-1.02-.4l-1.16-.37c-.4-.13-.79-.27-1.17-.44a4.1 4.1 0 0 1-1.01-.62 2.8 2.8 0 0 1-.71-.91c-.18-.37-.27-.81-.27-1.33a3.23 3.23 0 0 1 1.12-2.47c.37-.32.82-.58 1.36-.77.54-.2 1.15-.29 1.84-.29.8 0 1.51.13 2.15.38.64.25 1.19.6 1.65 1.04l-.48.78z"/>
    <path class="left-arrow" fill="#D9445E" d="M28.57 10.24L32 13.67c.32.32.32.83 0 1.15l-5.15 5.16-4.58-4.59 5.15-5.15a.81.81 0 0 1 1.15 0zm-9.74 17.75L32 41.17c.32.32.32.83 0 1.14l-3.43 3.44a.81.81 0 0 1-1.15 0L10.24 28.57a.81.81 0 0 1 0-1.15l5.15-5.15 4.59 4.58-1.15 1.14z"/>
    <path class="right-arrow" fill="#233745" d="M15.4 36.01l4.58 4.59-5.16 5.15a.81.81 0 0 1-1.15 0l-3.43-3.44a.81.81 0 0 1 0-1.14L15.39 36zM32 28.57l-5.15 5.15-4.58-4.58 1.14-1.15-13.17-13.17a.81.81 0 0 1 0-1.15l3.43-3.43a.81.81 0 0 1 1.15 0L32 27.42c.32.32.32.83 0 1.15z"/>
    <path fill="#233745" d="M64.84 15.97v24.06H62c-.42 0-.78-.07-1.06-.2a2.61 2.61 0 0 1-.86-.72L48.94 24.75a20.85 20.85 0 0 1 .1 2.38v12.9h-4.82V15.97h2.88c.24 0 .44 0 .6.03.17.02.31.06.44.12s.26.15.37.26c.12.11.26.26.41.45l11.24 14.45A20.28 20.28 0 0 1 60 28.7V15.97h4.83zm9.03 4.3v5.6h7.42v4.14h-7.42v5.73h9.7v4.3H68.35V15.96h15.2v4.3h-9.7zm27.3 15.3v4.46H86.94V15.97h5.48v19.6h8.75zm16.2-14.71c-.17.26-.34.46-.52.6-.18.12-.4.19-.69.19-.24 0-.51-.08-.8-.24l-.97-.54a8 8 0 0 0-1.24-.53c-.47-.16-1-.24-1.59-.24-1.03 0-1.8.22-2.3.67a2.3 2.3 0 0 0-.75 1.8c0 .49.15.9.46 1.21.3.32.7.6 1.19.83.49.23 1.05.44 1.68.63.64.2 1.28.4 1.94.65.66.23 1.3.51 1.94.83.63.32 1.2.73 1.68 1.22.5.5.9 1.1 1.2 1.81.3.71.45 1.57.45 2.57a8.5 8.5 0 0 1-.57 3.12 7.32 7.32 0 0 1-4.3 4.24 9.78 9.78 0 0 1-3.6.62 13.15 13.15 0 0 1-6.47-1.88 8.56 8.56 0 0 1-1.63-1.3l1.62-2.6c.13-.2.3-.35.51-.47.21-.13.44-.2.7-.2.32 0 .64.11.97.32l1.12.7c.42.25.9.48 1.44.69.54.2 1.17.31 1.9.31 1 0 1.78-.22 2.33-.67.55-.44.82-1.15.82-2.12 0-.56-.15-1.02-.45-1.37-.3-.35-.7-.65-1.2-.88-.48-.23-1.04-.43-1.67-.6-.63-.18-1.27-.38-1.93-.6-.66-.21-1.3-.47-1.93-.79a5.81 5.81 0 0 1-2.87-3.15 7.74 7.74 0 0 1 .08-5.48c.36-.86.88-1.62 1.58-2.3.69-.67 1.54-1.2 2.54-1.6 1-.4 2.16-.6 3.45-.6a12.72 12.72 0 0 1 4.07.68c.62.22 1.2.5 1.73.8.54.32 1.01.68 1.44 1.07l-1.37 2.6zm27.74 7.13c0 1.74-.3 3.36-.88 4.86a11.4 11.4 0 0 1-6.36 6.5c-1.5.63-3.18.95-5.02.95a13 13 0 0 1-5.02-.94 11.47 11.47 0 0 1-6.38-6.51c-.6-1.5-.89-3.12-.89-4.86 0-1.74.3-3.36.89-4.85.58-1.5 1.42-2.8 2.5-3.9a11.53 11.53 0 0 1 3.88-2.6 13 13 0 0 1 5.02-.94c1.84 0 3.51.32 5.02.95 1.5.64 2.8 1.5 3.87 2.6 1.07 1.1 1.9 2.4 2.49 3.9.58 1.5.88 3.11.88 4.84zm-5.61 0c0-1.19-.15-2.26-.45-3.21a6.84 6.84 0 0 0-1.31-2.42 5.63 5.63 0 0 0-2.08-1.52 7.05 7.05 0 0 0-2.8-.53c-1.07 0-2.01.18-2.84.53-.82.35-1.52.86-2.09 1.52-.57.66-1 1.47-1.3 2.42-.3.95-.46 2.02-.46 3.21 0 1.2.15 2.28.46 3.23.3.95.73 1.76 1.3 2.42a5.54 5.54 0 0 0 2.1 1.51c.82.35 1.76.52 2.82.52 1.05 0 1.99-.17 2.8-.52a5.55 5.55 0 0 0 2.09-1.5c.57-.67 1-1.48 1.3-2.43.3-.95.46-2.03.46-3.23zm28.4-12.02v24.06h-2.85c-.42 0-.78-.07-1.06-.2a2.61 2.61 0 0 1-.86-.72L152 24.75a20.85 20.85 0 0 1 .1 2.38v12.9h-4.82V15.97h2.88c.24 0 .44 0 .6.03.17.02.31.06.44.12s.26.15.37.26c.12.11.26.26.41.45l11.24 14.45a20.28 20.28 0 0 1-.15-2.58V15.97h4.83z"/>
  </g>
</svg>