<svg xmlns="http://www.w3.org/2000/svg" viewBox="0 0 373 66">
  <g class="logo" fill="none" fill-rule="evenodd">
    <path fill="#FFF" d="M0 0h373v66H0z"/>
    <path d="M54.9103543 45v-9.605h1.955c.4533333 0 .7961666.0623333 1.0285.187.2323333.1246667.4448333.3343333.6375.629l5.168 7.871c.3513333.612.918.918 1.7.918h4.131l-6.154-9.078c-.204-.3173333-.4306667-.5921667-.68-.8245-.2493334-.2323333-.5213334-.4335-.816-.6035.8613333-.2606667 1.6291666-.6176667 2.3035-1.071.6743333-.4533333 1.241-.9803333 1.7-1.581.459-.6006667.8103333-1.2693333 1.054-2.006.2436666-.7366667.3655-1.5186667.3655-2.346 0-1.0426667-.1813334-1.9975-.544-2.8645-.3626667-.867-.9265-1.6121667-1.6915-2.2355-.765-.6233333-1.7453334-1.1078333-2.941-1.4535-1.1956667-.3456667-2.6265-.5185-4.2925-.5185h-7.497V45h4.573zm2.856-12.886h-2.856v-8.16h2.924c1.6886666 0 2.9438333.3343333 3.7655 1.003.8216666.6686667 1.2325 1.6263333 1.2325 2.873 0 .6233333-.102 1.1956667-.306 1.717-.204.5213333-.5128334.9718333-.9265 1.3515-.4136667.3796667-.9406667.6771667-1.581.8925-.6403334.2153333-1.3911667.323-2.2525.323zm19.349 13.141c1.292 0 2.4678333-.2096667 3.5275-.629 1.0596666-.4193333 1.9663333-1.02 2.72-1.802.7536666-.782 1.3345-1.7283333 1.7425-2.839.408-1.1106667.612-2.3573333.612-3.74 0-1.3713333-.204-2.6123333-.612-3.723-.408-1.1106667-.9888334-2.0513333-1.7425-2.822-.7536667-.7706667-1.6603334-1.3656667-2.72-1.785-1.0596667-.4193333-2.2355-.629-3.5275-.629-1.3033334 0-2.4876667.2096667-3.553.629-1.0653334.4193333-1.9748334 1.0143333-2.7285 1.785-.7536667.7706667-1.3373334 1.7113333-1.751 2.822-.4136667 1.1106667-.6205 2.3516667-.6205 3.723 0 1.3826667.2068333 2.6293333.6205 3.74.4136666 1.1106667.9973333 2.057 1.751 2.839.7536666.782 1.6631666 1.3826667 2.7285 1.802 1.0653333.4193333 2.2496666.629 3.553.629zm0-3.23c-1.4733334 0-2.5641667-.4901667-3.2725-1.4705-.7083334-.9803333-1.0625-2.4055-1.0625-4.2755s.3541666-3.3008333 1.0625-4.2925c.7083333-.9916667 1.7991666-1.4875 3.2725-1.4875 1.4506666 0 2.5245.493 3.2215 1.479.697.986 1.0455 2.4196667 1.0455 4.301s-.3485 3.3093333-1.0455 4.284c-.697.9746667-1.7708334 1.462-3.2215 1.462zm15.15 8.67c.408 0 .7111666-.0765.9095-.2295.1983333-.153.3598333-.3768333.4845-.6715l9.5029997-22.236h-3.3659997c-.2606667 0-.4958334.0736667-.7055.221-.2096667.1473333-.3598334.3343333-.4505.561l-3.502 9.027c-.1246667.306-.238.6148333-.34.9265-.102.3116667-.204.6261667-.306.9435-.0793334-.3173333-.1615-.629-.2465-.935-.085-.306-.1898334-.612-.3145-.918l-3.706-9.044c-.0906667-.204-.2295-.3853333-.4165-.544-.187-.1586667-.4448334-.238-.7735-.238h-3.689l7.055 16.133-3.264 7.004h3.128zm15.4389997-5.423c.623334 0 1.192834-.0538333 1.7085-.1615.515667-.1076667 1.000167-.2635 1.4535-.4675.453334-.204.889667-.4561667 1.309-.7565.419334-.3003333.85-.6488333 1.292-1.0455l.374 1.258c.124667.3626667.294667.6035.51.7225.215334.119.521334.1785.918.1785h1.904V33.984c0-.986-.1445-1.8926667-.4335-2.72-.289-.8273333-.711166-1.5385-1.2665-2.1335-.555333-.595-1.235333-1.0596667-2.04-1.394-.804666-.3343333-1.717-.5015-2.737-.5015-2.822 0-5.236.918-7.242 2.754l.748 1.343c.124667.204.289.3825.493.5355.204.153.453334.2295.748.2295.34 0 .648834-.0793333.9265-.238.277667-.1586667.5865-.3371667.9265-.5355.34-.1983333.733834-.3768333 1.1815-.5355.447667-.1586667 1.0115-.238 1.6915-.238.940667 0 1.660334.2805 2.159.8415.498667.561.748 1.4251667.748 2.5925v1.02c-1.326.034-2.504666.1331667-3.536.2975-1.031333.1643333-1.935166.3768333-2.7115.6375-.776333.2606667-1.430833.5666667-1.9635.918-.532666.3513333-.966166.7253333-1.3005 1.122-.334333.3966667-.575166.8131667-.7225 1.2495-.147333.4363333-.221.8755-.221 1.3175 0 .782.124667 1.4676667.374 2.057.249334.5893333.600667 1.0823333 1.054 1.479.453334.3966667.991667.6941667 1.615.8925.623334.1983333 1.303334.2975 2.04.2975zm1.292-2.89c-.702666 0-1.272166-.1586667-1.7085-.476-.436333-.3173333-.6545-.8443333-.6545-1.581 0-.374.107667-.7196667.323-1.037.215334-.3173333.572334-.595 1.071-.833.498667-.238 1.161667-.4335 1.989-.5865.827334-.153 1.847334-.2578333 3.06-.3145v2.941c-.600666.6346667-1.2155 1.1078333-1.8445 1.4195-.629.3116667-1.374166.4675-2.2355.4675zm15.371 2.618V19.738h-4.199V45h4.199zm15.153 0V29.904c0-.6346667-.034-1.326-.102-2.074l12.835 16.388c.226667.2833333.461834.4845.7055.6035.243667.119.546834.1785.9095.1785h2.346V20.418h-4.029v14.943c0 .3286667.011334.6856667.034 1.071.022667.3853333.051.7763333.085 1.173l-12.886-16.456c-.124666-.1586667-.238-.2861667-.34-.3825-.102-.0963333-.206833-.17-.3145-.221-.107666-.051-.232333-.085-.374-.102-.141666-.017-.308833-.0255-.5015-.0255h-2.397V45h4.029zm23.905.272c.623334 0 1.192834-.0538333 1.7085-.1615.515667-.1076667 1.000167-.2635 1.4535-.4675.453334-.204.889667-.4561667 1.309-.7565.419334-.3003333.85-.6488333 1.292-1.0455l.374 1.258c.124667.3626667.294667.6035.51.7225.215334.119.521334.1785.918.1785h1.904V33.984c0-.986-.1445-1.8926667-.4335-2.72-.289-.8273333-.711166-1.5385-1.2665-2.1335-.555333-.595-1.235333-1.0596667-2.04-1.394-.804666-.3343333-1.717-.5015-2.737-.5015-2.822 0-5.236.918-7.242 2.754l.748 1.343c.124667.204.289.3825.493.5355.204.153.453334.2295.748.2295.34 0 .648834-.0793333.9265-.238.277667-.1586667.5865-.3371667.9265-.5355.34-.1983333.733834-.3768333 1.1815-.5355.447667-.1586667 1.0115-.238 1.6915-.238.940667 0 1.660334.2805 2.159.8415.498667.561.748 1.4251667.748 2.5925v1.02c-1.326.034-2.504666.1331667-3.536.2975-1.031333.1643333-1.935166.3768333-2.7115.6375-.776333.2606667-1.430833.5666667-1.9635.918-.532666.3513333-.966166.7253333-1.3005 1.122-.334333.3966667-.575166.8131667-.7225 1.2495-.147333.4363333-.221.8755-.221 1.3175 0 .782.124667 1.4676667.374 2.057.249334.5893333.600667 1.0823333 1.054 1.479.453334.3966667.991667.6941667 1.615.8925.623334.1983333 1.303334.2975 2.04.2975zm1.292-2.89c-.702666 0-1.272166-.1586667-1.7085-.476-.436333-.3173333-.6545-.8443333-.6545-1.581 0-.374.107667-.7196667.323-1.037.215334-.3173333.572334-.595 1.071-.833.498667-.238 1.161667-.4335 1.989-.5865.827334-.153 1.847334-.2578333 3.06-.3145v2.941c-.600666.6346667-1.2155 1.1078333-1.8445 1.4195-.629.3116667-1.374166.4675-2.2355.4675zm19.519 2.618l6.919-17.442h-3.315c-.283333 0-.527.0736667-.731.221-.204.1473333-.345666.3343333-.425.561l-3.434 9.316c-.192666.544-.357 1.0766667-.493 1.598s-.260666 1.0426667-.374 1.564c-.102-.5213333-.221-1.0426667-.357-1.564-.136-.5213333-.294666-1.054-.476-1.598l-3.366-9.316c-.068-.2266667-.206833-.4136667-.4165-.561-.209666-.1473333-.473166-.221-.7905-.221h-3.468l6.919 17.442h3.808zm13.093 5.695c.408 0 .711167-.0765.9095-.2295.198334-.153.359834-.3768333.4845-.6715l9.503-22.236h-3.366c-.260666 0-.495833.0736667-.7055.221-.209666.1473333-.359833.3343333-.4505.561l-3.502 9.027c-.124666.306-.238.6148333-.34.9265-.102.3116667-.204.6261667-.306.9435-.079333-.3173333-.1615-.629-.2465-.935-.085-.306-.189833-.612-.3145-.918l-3.706-9.044c-.090666-.204-.2295-.3853333-.4165-.544-.187-.1586667-.444833-.238-.7735-.238h-3.689l7.055 16.133-3.264 7.004h3.128z" fill="#233745" fill-rule="nonzero"/>
    <path class="team" d="M224.204354 45c1.28 0 2.444-.208 3.492-.624 1.048-.416 1.948-1.002 2.7-1.758.752-.756 1.334-1.662 1.746-2.718.412-1.056.618-2.228.618-3.516 0-1.28-.206-2.45-.618-3.51-.412-1.06-.994-1.968-1.746-2.724-.752-.756-1.652-1.342-2.7-1.758-1.048-.416-2.212-.624-3.492-.624h-6.48V45h6.48zm0-2.064h-3.912V29.832h3.912c.904 0 1.722.148 2.454.444.732.296 1.356.726 1.872 1.29.516.564.914 1.252 1.194 2.064.28.812.42 1.73.42 2.754 0 1.032-.14 1.952-.42 2.76-.28.808-.678 1.494-1.194 2.058-.516.564-1.14.994-1.872 1.29-.732.296-1.55.444-2.454.444zm15.578118 2.232c.44 0 .886-.036 1.338-.108.452-.072.89-.184 1.314-.336.424-.152.824-.35 1.2-.594s.708-.534.996-.87l-.672-.864c-.104-.144-.252-.216-.444-.216-.144 0-.31.06-.498.18s-.42.25-.696.39c-.276.14-.604.27-.984.39s-.83.18-1.35.18c-.552 0-1.052-.088-1.5-.264-.448-.176-.834-.444-1.158-.804-.324-.36-.578-.81-.762-1.35-.184-.54-.288-1.174-.312-1.902h7.992c.216 0 .364-.062.444-.186.08-.124.12-.366.12-.726 0-.872-.13-1.648-.39-2.328-.26-.68-.618-1.252-1.074-1.716-.456-.464-.998-.818-1.626-1.062-.628-.244-1.314-.366-2.058-.366-.888 0-1.688.156-2.4.468-.712.312-1.314.74-1.806 1.284s-.87 1.182-1.134 1.914c-.264.732-.396 1.522-.396 2.37 0 1.056.146 1.99.438 2.802.292.812.7 1.492 1.224 2.04s1.144.964 1.86 1.248c.716.284 1.494.426 2.334.426zm2.916-7.62h-6.384c.152-1.008.51-1.796 1.074-2.364.564-.568 1.338-.852 2.322-.852.48 0 .904.08 1.272.24.368.16.68.384.936.672.256.288.45.628.582 1.02.132.392.198.82.198 1.284zm7.142118 7.644c.752 0 1.42-.1 2.004-.3.584-.2 1.074-.476 1.47-.828.396-.352.696-.77.9-1.254.204-.484.306-1.01.306-1.578 0-.496-.09-.916-.27-1.26-.18-.344-.416-.638-.708-.882s-.624-.448-.996-.612c-.372-.164-.752-.31-1.14-.438-.388-.128-.768-.25-1.14-.366-.372-.116-.704-.246-.996-.39-.292-.144-.528-.316-.708-.516-.18-.2-.27-.452-.27-.756 0-.232.052-.45.156-.654.104-.204.252-.38.444-.528.192-.148.426-.264.702-.348.276-.084.582-.126.918-.126.408 0 .76.044 1.056.132.296.088.554.184.774.288.22.104.408.2.564.288.156.088.298.132.426.132.112 0 .204-.022.276-.066.072-.044.14-.118.204-.222l.516-.852c-.464-.448-1.022-.8-1.674-1.056-.652-.256-1.382-.384-2.19-.384-.704 0-1.33.098-1.878.294-.548.196-1.008.458-1.38.786-.372.328-.656.708-.852 1.14-.196.432-.294.884-.294 1.356 0 .528.09.976.27 1.344.18.368.416.68.708.936s.626.468 1.002.636c.376.168.76.316 1.152.444.392.128.776.248 1.152.36.376.112.71.244 1.002.396.292.152.528.334.708.546.18.212.27.478.27.798 0 .248-.048.484-.144.708-.096.224-.242.422-.438.594s-.442.308-.738.408c-.296.1-.644.15-1.044.15-.48 0-.88-.054-1.2-.162-.32-.108-.592-.228-.816-.36-.224-.132-.416-.254-.576-.366-.16-.112-.316-.168-.468-.168-.16 0-.288.03-.384.09-.096.06-.176.146-.24.258l-.552.9c.48.432 1.076.788 1.788 1.068s1.488.42 2.328.42zm7.766117-14.544c.216 0 .424-.042.624-.126.2-.084.374-.2.522-.348.148-.148.266-.32.354-.516.088-.196.132-.402.132-.618 0-.224-.044-.434-.132-.63-.088-.196-.206-.368-.354-.516-.148-.148-.322-.264-.522-.348-.2-.084-.408-.126-.624-.126-.216 0-.42.042-.612.126-.192.084-.362.2-.51.348-.148.148-.264.32-.348.516-.084.196-.126.406-.126.63 0 .216.042.422.126.618.084.196.2.368.348.516.148.148.318.264.51.348.192.084.396.126.612.126zm1.188 14.352V32.808h-2.34V45h2.34zm7.106118 4.368c.904 0 1.712-.116 2.424-.348.712-.232 1.316-.54 1.812-.924s.874-.824 1.134-1.32c.26-.496.39-1.008.39-1.536 0-.568-.118-1.03-.354-1.386-.236-.356-.544-.636-.924-.84-.38-.204-.816-.352-1.308-.444-.492-.092-.992-.156-1.5-.192-.508-.036-1.008-.062-1.5-.078s-.928-.054-1.308-.114c-.38-.06-.688-.158-.924-.294-.236-.136-.354-.344-.354-.624 0-.168.062-.338.186-.51s.306-.33.546-.474c.48.12.996.18 1.548.18.672 0 1.29-.092 1.854-.276.564-.184 1.05-.448 1.458-.792.408-.344.728-.758.96-1.242.232-.484.348-1.026.348-1.626 0-.304-.032-.594-.096-.87s-.152-.538-.264-.786l1.308-.192c.36-.072.54-.252.54-.54v-.876h-3.384c-.76-.44-1.668-.66-2.724-.66-.68 0-1.306.092-1.878.276-.572.184-1.064.448-1.476.792-.412.344-.734.756-.966 1.236-.232.48-.348 1.02-.348 1.62 0 .744.172 1.394.516 1.95.344.556.816 1.002 1.416 1.338-.256.136-.482.288-.678.456-.196.168-.36.346-.492.534-.132.188-.23.376-.294.564-.064.188-.096.37-.096.546 0 .456.104.822.312 1.098.208.276.488.494.84.654-.648.232-1.156.554-1.524.966-.368.412-.552.914-.552 1.506 0 .424.11.832.33 1.224.22.392.552.736.996 1.032.444.296 1 .532 1.668.708.668.176 1.454.264 2.358.264zm-.132-10.452c-.408 0-.77-.058-1.086-.174-.316-.116-.58-.276-.792-.48-.212-.204-.372-.448-.48-.732-.108-.284-.162-.598-.162-.942 0-.704.214-1.266.642-1.686.428-.42 1.054-.63 1.878-.63.832 0 1.462.21 1.89.63.428.42.642.982.642 1.686 0 .344-.054.66-.162.948-.108.288-.268.534-.48.738-.212.204-.476.362-.792.474-.316.112-.682.168-1.098.168zm.18 8.748c-.584 0-1.086-.046-1.506-.138-.42-.092-.768-.22-1.044-.384s-.48-.358-.612-.582c-.132-.224-.198-.464-.198-.72 0-.4.134-.748.402-1.044.268-.296.61-.548 1.026-.756.392.056.8.094 1.224.114.424.02.838.042 1.242.066s.79.058 1.158.102c.368.044.69.116.966.216.276.1.494.236.654.408.16.172.24.402.24.69 0 .296-.078.568-.234.816-.156.248-.384.462-.684.642-.3.18-.67.32-1.11.42-.44.1-.948.15-1.524.15zM275.646943 45v-8.94c.448-.488.934-.874 1.458-1.158.524-.284 1.086-.426 1.686-.426.824 0 1.436.242 1.836.726.4.484.6 1.162.6 2.034V45h2.352v-7.764c0-.688-.088-1.316-.264-1.884-.176-.568-.436-1.054-.78-1.458-.344-.404-.77-.718-1.278-.942-.508-.224-1.098-.336-1.77-.336-.424 0-.822.046-1.194.138-.372.092-.72.22-1.044.384-.324.164-.63.362-.918.594-.288.232-.564.488-.828.768l-.18-1.224c-.08-.312-.284-.468-.612-.468h-1.404V45h2.34zm20.296235.192c.92 0 1.742-.142 2.466-.426.724-.284 1.334-.674 1.83-1.17.496-.496.874-1.076 1.134-1.74.26-.664.39-1.376.39-2.136 0-.712-.118-1.314-.354-1.806s-.546-.908-.93-1.248c-.384-.34-.82-.622-1.308-.846-.488-.224-.988-.422-1.5-.594s-1.012-.338-1.5-.498c-.488-.16-.924-.348-1.308-.564-.384-.216-.694-.476-.93-.78-.236-.304-.354-.688-.354-1.152 0-.36.066-.694.198-1.002.132-.308.326-.576.582-.804.256-.228.574-.408.954-.54.38-.132.822-.198 1.326-.198.536 0 .996.066 1.38.198.384.132.714.28.99.444.276.164.506.312.69.444.184.132.348.198.492.198.136 0 .248-.032.336-.096.088-.064.172-.164.252-.3l.624-1.212c-.6-.576-1.306-1.018-2.118-1.326-.812-.308-1.702-.462-2.67-.462-.864 0-1.632.134-2.304.402-.672.268-1.238.624-1.698 1.068-.46.444-.81.954-1.05 1.53-.24.576-.36 1.172-.36 1.788 0 .768.116 1.414.348 1.938.232.524.54.96.924 1.308.384.348.82.63 1.308.846.488.216.988.406 1.5.57.512.164 1.012.322 1.5.474.488.152.924.336 1.308.552.384.216.692.484.924.804.232.32.348.732.348 1.236 0 .448-.076.856-.228 1.224-.152.368-.37.682-.654.942-.284.26-.634.46-1.05.6-.416.14-.888.21-1.416.21-.648 0-1.198-.088-1.65-.264-.452-.176-.84-.37-1.164-.582-.324-.212-.596-.406-.816-.582-.22-.176-.414-.264-.582-.264-.128 0-.242.032-.342.096-.1.064-.186.144-.258.24l-.732 1.224c.32.344.682.654 1.086.93s.838.512 1.302.708c.464.196.956.348 1.476.456.52.108 1.056.162 1.608.162zm10.238117 3.9c.232 0 .408-.048.528-.144.12-.096.216-.232.288-.408l6.768-15.732h-1.872c-.152 0-.288.044-.408.132-.12.088-.208.2-.264.336l-2.988 7.308c-.072.184-.14.37-.204.558-.064.188-.124.378-.18.57-.04-.184-.09-.37-.15-.558-.06-.188-.122-.374-.186-.558l-3.096-7.32c-.048-.12-.128-.228-.24-.324-.112-.096-.268-.144-.468-.144h-2.04l5.004 11.424-2.232 4.86h1.74zm11.666118-3.9c.752 0 1.42-.1 2.004-.3.584-.2 1.074-.476 1.47-.828.396-.352.696-.77.9-1.254.204-.484.306-1.01.306-1.578 0-.496-.09-.916-.27-1.26-.18-.344-.416-.638-.708-.882s-.624-.448-.996-.612c-.372-.164-.752-.31-1.14-.438-.388-.128-.768-.25-1.14-.366-.372-.116-.704-.246-.996-.39-.292-.144-.528-.316-.708-.516-.18-.2-.27-.452-.27-.756 0-.232.052-.45.156-.654.104-.204.252-.38.444-.528.192-.148.426-.264.702-.348.276-.084.582-.126.918-.126.408 0 .76.044 1.056.132.296.088.554.184.774.288.22.104.408.2.564.288.156.088.298.132.426.132.112 0 .204-.022.276-.066.072-.044.14-.118.204-.222l.516-.852c-.464-.448-1.022-.8-1.674-1.056-.652-.256-1.382-.384-2.19-.384-.704 0-1.33.098-1.878.294-.548.196-1.008.458-1.38.786-.372.328-.656.708-.852 1.14-.196.432-.294.884-.294 1.356 0 .528.09.976.27 1.344.18.368.416.68.708.936s.626.468 1.002.636c.376.168.76.316 1.152.444.392.128.776.248 1.152.36.376.112.71.244 1.002.396.292.152.528.334.708.546.18.212.27.478.27.798 0 .248-.048.484-.144.708-.096.224-.242.422-.438.594s-.442.308-.738.408c-.296.1-.644.15-1.044.15-.48 0-.88-.054-1.2-.162-.32-.108-.592-.228-.816-.36-.224-.132-.416-.254-.576-.366-.16-.112-.316-.168-.468-.168-.16 0-.288.03-.384.09-.096.06-.176.146-.24.258l-.552.9c.48.432 1.076.788 1.788 1.068s1.488.42 2.328.42zm10.322118 0c.568 0 1.116-.096 1.644-.288.528-.192.984-.464 1.368-.816l-.696-1.128c-.048-.08-.094-.138-.138-.174-.044-.036-.106-.054-.186-.054-.064 0-.136.028-.216.084-.08.056-.176.118-.288.186-.112.068-.246.13-.402.186-.156.056-.342.084-.558.084-.368 0-.67-.118-.906-.354s-.354-.594-.354-1.074v-7.14h3.456V33h-3.456v-4.092h-1.188c-.144 0-.262.038-.354.114-.092.076-.154.182-.186.318l-.528 3.636-1.98.276v.948c0 .168.046.294.138.378.092.084.206.126.342.126h1.416V42c0 1.024.266 1.812.798 2.364.532.552 1.29.828 2.274.828zm9.254117-.024c.44 0 .886-.036 1.338-.108.452-.072.89-.184 1.314-.336.424-.152.824-.35 1.2-.594s.708-.534.996-.87l-.672-.864c-.104-.144-.252-.216-.444-.216-.144 0-.31.06-.498.18s-.42.25-.696.39c-.276.14-.604.27-.984.39s-.83.18-1.35.18c-.552 0-1.052-.088-1.5-.264-.448-.176-.834-.444-1.158-.804-.324-.36-.578-.81-.762-1.35-.184-.54-.288-1.174-.312-1.902h7.992c.216 0 .364-.062.444-.186.08-.124.12-.366.12-.726 0-.872-.13-1.648-.39-2.328-.26-.68-.618-1.252-1.074-1.716-.456-.464-.998-.818-1.626-1.062-.628-.244-1.314-.366-2.058-.366-.888 0-1.688.156-2.4.468-.712.312-1.314.74-1.806 1.284s-.87 1.182-1.134 1.914c-.264.732-.396 1.522-.396 2.37 0 1.056.146 1.99.438 2.802.292.812.7 1.492 1.224 2.04s1.144.964 1.86 1.248c.716.284 1.494.426 2.334.426zm2.916-7.62h-6.384c.152-1.008.51-1.796 1.074-2.364.564-.568 1.338-.852 2.322-.852.48 0 .904.08 1.272.24.368.16.68.384.936.672.256.288.45.628.582 1.02.132.392.198.82.198 1.284zM346.605766 45v-9.048c.36-.456.756-.816 1.188-1.08.432-.264.9-.396 1.404-.396.728 0 1.28.224 1.656.672.376.448.564 1.144.564 2.088V45h2.352v-7.764c0-.456.066-.856.198-1.2s.312-.632.54-.864c.228-.232.494-.406.798-.522.304-.116.624-.174.96-.174.76 0 1.338.232 1.734.696.396.464.594 1.152.594 2.064V45h2.352v-7.764c0-.736-.092-1.392-.276-1.968-.184-.576-.452-1.06-.804-1.452-.352-.392-.782-.69-1.29-.894-.508-.204-1.086-.306-1.734-.306-.4 0-.794.048-1.182.144-.388.096-.754.244-1.098.444-.344.2-.656.456-.936.768s-.508.684-.684 1.116c-.232-.76-.6-1.362-1.104-1.806-.504-.444-1.16-.666-1.968-.666-.736 0-1.378.17-1.926.51-.548.34-1.046.778-1.494 1.314l-.168-1.164c-.08-.312-.284-.468-.612-.468h-1.404V45h2.34z" fill="#3E5667" fill-rule="nonzero"/>
    <path class="home" d="M220.292354 45v-7.764h8.988V45h2.556V27.768h-2.556v7.608h-8.988v-7.608h-2.568V45h2.568zm19.4421176.168c.896 0 1.706-.146 2.43-.438.724-.292 1.34-.71 1.848-1.254s.898-1.204 1.17-1.98c.272-.776.408-1.644.408-2.604 0-.96-.136-1.826-.408-2.598-.272-.772-.662-1.432-1.17-1.98-.508-.548-1.124-.968-1.848-1.26-.724-.292-1.534-.438-2.43-.438-.904 0-1.718.146-2.442.438-.724.292-1.342.712-1.854 1.26s-.906 1.208-1.182 1.98c-.276.772-.414 1.638-.414 2.598s.138 1.828.414 2.604c.276.776.67 1.436 1.182 1.98.512.544 1.13.962 1.854 1.254.724.292 1.538.438 2.442.438zm0-1.824c-1.168 0-2.038-.388-2.61-1.164-.572-.776-.858-1.868-.858-3.276 0-1.408.286-2.502.858-3.282.572-.78 1.442-1.17 2.61-1.17 1.152 0 2.012.39 2.58 1.17.568.78.852 1.874.852 3.282s-.284 2.5-.852 3.276c-.568.776-1.428 1.164-2.58 1.164zM249.8285893 45v-9.048c.36-.456.756-.816 1.188-1.08.432-.264.9-.396 1.404-.396.728 0 1.28.224 1.656.672.376.448.564 1.144.564 2.088V45h2.352v-7.764c0-.456.066-.856.198-1.2s.312-.632.54-.864c.228-.232.494-.406.798-.522.304-.116.624-.174.96-.174.76 0 1.338.232 1.734.696.396.464.594 1.152.594 2.064V45h2.352v-7.764c0-.736-.092-1.392-.276-1.968-.184-.576-.452-1.06-.804-1.452-.352-.392-.782-.69-1.29-.894-.508-.204-1.086-.306-1.734-.306-.4 0-.794.048-1.182.144-.388.096-.754.244-1.098.444-.344.2-.656.456-.936.768s-.508.684-.684 1.116c-.232-.76-.6-1.362-1.104-1.806-.504-.444-1.16-.666-1.968-.666-.736 0-1.378.17-1.926.51-.548.34-1.046.778-1.494 1.314l-.168-1.164c-.08-.312-.284-.468-.612-.468h-1.404V45h2.34zm21.9501176.168c.44 0 .886-.036 1.338-.108.452-.072.89-.184 1.314-.336.424-.152.824-.35 1.2-.594s.708-.534.996-.87l-.672-.864c-.104-.144-.252-.216-.444-.216-.144 0-.31.06-.498.18s-.42.25-.696.39c-.276.14-.604.27-.984.39s-.83.18-1.35.18c-.552 0-1.052-.088-1.5-.264-.448-.176-.834-.444-1.158-.804-.324-.36-.578-.81-.762-1.35-.184-.54-.288-1.174-.312-1.902h7.992c.216 0 .364-.062.444-.186.08-.124.12-.366.12-.726 0-.872-.13-1.648-.39-2.328-.26-.68-.618-1.252-1.074-1.716-.456-.464-.998-.818-1.626-1.062-.628-.244-1.314-.366-2.058-.366-.888 0-1.688.156-2.4.468-.712.312-1.314.74-1.806 1.284s-.87 1.182-1.134 1.914c-.264.732-.396 1.522-.396 2.37 0 1.056.146 1.99.438 2.802.292.812.7 1.492 1.224 2.04s1.144.964 1.86 1.248c.716.284 1.494.426 2.334.426zm2.916-7.62h-6.384c.152-1.008.51-1.796 1.074-2.364.564-.568 1.338-.852 2.322-.852.48 0 .904.08 1.272.24.368.16.68.384.936.672.256.288.45.628.582 1.02.132.392.198.82.198 1.284z" fill="#3E5667" fill-rule="nonzero"/>
    <path class="right-arrow" d="M21.09944943 41.12l4.84508433 4.8450843-5.45071988 5.4507199c-.33448327.3344833-.8767878.3344833-1.21127108 0l-3.63381325-3.6338132c-.33448327-.3344833-.33448327-.8767878 0-1.2112711L21.09944943 41.12zM37.756775 32.8678855l-5.2384301 5.2387812-4.6563822-4.6566944 1.1640955-1.1641735-13.38709902-13.38799623c-.32145611-.32147766-.32145611-.84269592 0-1.16417358l3.49228671-3.49252075c.32145612-.32147765.84263946-.32147765 1.16409557 0L37.756775 31.703712c.3214561.3214776.3214561.8426959 0 1.1641735z" fill="#233745"/>
    <path class="left-arrow" d="M35.6198581 14.25086246l3.6338132 3.63381325c.3344833.33448327.3344833.87678781 0 1.21127108l-5.4507199 5.45071991-4.8450843-4.84508437 5.4507199-5.45071987c.3344832-.33448328.8767878-.33448328 1.2112711 0zM24.36967596 33.3808679L37.756775 46.7688641c.3214561.3214777.3214561.8426959 0 1.1641736l-3.4922867 3.4925207c-.3214561.3214777-.8426395.3214777-1.1640956 0L15.63895918 33.9629547c-.32145611-.3214777-.32145611-.8426959 0-1.1641736L20.87738925 27.56l4.65638228 4.6566943-1.16409557 1.1641736z" fill="#D9445E"/>
  </g>
</svg>
