<?xml version="1.0" encoding="UTF-8"?>
<svg viewBox="0 0 405 39" version="1.1" xmlns="http://www.w3.org/2000/svg" xmlns:xlink="http://www.w3.org/1999/xlink">
  <g stroke="none" stroke-width="1" fill="none" fill-rule="evenodd">
      <g transform="translate(-615.000000, -129.000000)">
          <g transform="translate(598.810092, 120.433430)">
              <g transform="translate(28.547170, 28.547170) rotate(45.000000) translate(-28.547170, -28.547170) translate(9.000000, 9.000000)">
                  <path d="M20.9196717,29.6554355 L27.8928956,29.6554355 L27.8928956,37.5054037 C27.8928956,37.9871168 27.5026432,38.3776224 27.0212426,38.3776224 L21.7913247,38.3776224 C21.309924,38.3776224 20.9196717,37.9871168 20.9196717,37.5054037 L20.9196717,29.6554355 Z M27.8928956,11.338843 L27.8928956,19.1888112 L20.9196717,19.1888112 L20.9196717,17.4443738 L0.871652986,17.4443738 C0.390252335,17.4443738 -2.84217094e-14,17.0538682 -2.84217094e-14,16.5721551 L-2.84217094e-14,11.338843 C-2.84217094e-14,10.8571299 0.390252335,10.4666243 0.871652986,10.4666243 L27.0212426,10.4666243 C27.5026432,10.4666243 27.8928956,10.8571299 27.8928956,11.338843 Z" fill="#1C2D39"></path>
                  <path d="M11.3314888,-3.55271368e-15 L16.5614067,-3.55271368e-15 C17.0428074,-3.55271368e-15 17.4330597,0.390505609 17.4330597,0.87221869 L17.4330597,8.7221869 L10.4598358,8.7221869 L10.4598358,0.87221869 C10.4598358,0.390505609 10.8500882,-3.55271368e-15 11.3314888,-3.55271368e-15 Z M17.4330597,20.9332486 L37.4810784,20.9332486 C37.9624791,20.9332486 38.3527314,21.3237542 38.3527314,21.8054673 L38.3527314,27.0387794 C38.3527314,27.5204925 37.9624791,27.9109981 37.4810784,27.9109981 L11.3314888,27.9109981 C10.8500882,27.9109981 10.4598358,27.5204925 10.4598358,27.0387794 L10.4598358,19.1888112 L17.4330597,19.1888112 L17.4330597,20.9332486 Z" fill="#C30333"></path>
              </g>
              <path d="M76.5332975,15.8352066 L76.5332975,40.2979333 L73.4417594,40.2979333 C72.9850526,40.2979333 72.6015418,40.2279765 72.2912154,40.0880609 C71.980889,39.9481453 71.6734948,39.7046957 71.3690236,39.357705 L59.3014857,24.7673759 C59.3483274,25.2039126 59.3805306,25.6264515 59.3980962,26.0350052 C59.4156619,26.4435588 59.4244446,26.8269219 59.4244446,27.1851059 L59.4244446,40.2979333 L54.1899085,40.2979333 L54.1899085,15.8352066 L57.3165777,15.8352066 C57.5742072,15.8352066 57.7908469,15.8463997 57.9665033,15.8687862 C58.1421598,15.8911727 58.3002482,15.9331468 58.4407734,15.9947097 C58.5812985,16.0562725 58.7159665,16.1430189 58.8447812,16.2549514 C58.9735959,16.3668839 59.1199741,16.5179905 59.2839201,16.7082758 L71.4568514,31.3993436 C71.3982992,30.9292271 71.3573133,30.473109 71.3338925,30.0309756 C71.3104716,29.5888422 71.2987614,29.1718999 71.2987614,28.7801361 L71.2987614,15.8352066 L76.5332975,15.8352066 Z M86.3134943,20.2005525 L86.3134943,25.9090817 L94.3585196,25.9090817 L94.3585196,30.1065297 L86.3134943,30.1065297 L86.3134943,35.9325874 L96.8176976,35.9325874 L96.8176976,40.2979333 L80.3412048,40.2979333 L80.3412048,15.8352066 L96.8176976,15.8352066 L96.8176976,20.2005525 L86.3134943,20.2005525 Z M115.893893,35.7646895 L115.893893,40.2979333 L100.471334,40.2979333 L100.471334,15.8352066 L106.408492,15.8352066 L106.408492,35.7646895 L115.893893,35.7646895 Z M133.437302,20.804985 C133.261646,21.073623 133.077209,21.2750985 132.883987,21.4094175 C132.690765,21.5437365 132.441922,21.610895 132.137451,21.610895 C131.868111,21.610895 131.578282,21.5297452 131.267956,21.367443 C130.95763,21.2051409 130.606322,21.0232533 130.214023,20.8217748 C129.821723,20.6202963 129.373806,20.4384087 128.870258,20.2761066 C128.366709,20.1138044 127.792907,20.0326546 127.148833,20.0326546 C126.036342,20.0326546 125.207842,20.2593145 124.663307,20.7126412 C124.118772,21.1659678 123.846508,21.7787891 123.846508,22.5511234 C123.846508,23.0436264 124.010452,23.4521739 124.338344,23.7767782 C124.666236,24.1013824 125.096588,24.3812095 125.629412,24.6162677 C126.162237,24.851326 126.77117,25.0667928 127.45623,25.2626747 C128.14129,25.4585566 128.840978,25.6768217 129.555314,25.9174766 C130.26965,26.1581315 130.969338,26.4407568 131.654398,26.7653611 C132.339459,27.0899654 132.948392,27.5041094 133.481216,28.0078057 C134.014041,28.511502 134.444393,29.1243232 134.772285,29.8462879 C135.100177,30.5682526 135.26412,31.4385147 135.26412,32.4571005 C135.26412,33.5876188 135.059191,34.6453651 134.649326,35.6303712 C134.239461,36.6153772 133.645165,37.4744463 132.866422,38.2076042 C132.087678,38.9407621 131.127437,39.5172059 129.98567,39.9369528 C128.843903,40.3566997 127.546993,40.56657 126.094899,40.56657 C125.29859,40.56657 124.487655,40.4882184 123.66207,40.3315129 C122.836484,40.1748074 122.03726,39.953744 121.264371,39.6683161 C120.491483,39.3828882 119.765447,39.0442975 119.086242,38.6525337 C118.407037,38.2607699 117.815669,37.8242397 117.312121,37.3429299 L119.068676,34.6901428 C119.209202,34.4998576 119.393638,34.3403561 119.621992,34.2116338 C119.850345,34.0829114 120.099188,34.0185512 120.368528,34.0185512 C120.719841,34.0185512 121.074076,34.1248854 121.431244,34.3375572 C121.788412,34.550229 122.192416,34.7852837 122.643267,35.0427285 C123.094119,35.3001732 123.612298,35.535228 124.197819,35.7478997 C124.783341,35.9605715 125.474246,36.0669058 126.270555,36.0669058 C127.347915,36.0669058 128.185198,35.8402458 128.78243,35.3869192 C129.379662,34.9335925 129.678273,34.214437 129.678273,33.2294309 C129.678273,32.6585752 129.51433,32.1940622 129.186438,31.8358782 C128.858545,31.4776942 128.428194,31.1810775 127.895369,30.9460193 C127.362545,30.710961 126.756539,30.503889 126.077334,30.324797 C125.398129,30.145705 124.701369,29.9470277 123.987033,29.7287594 C123.272696,29.510491 122.575936,29.241857 121.896731,28.9228493 C121.217526,28.6038417 120.611521,28.1841011 120.078696,27.663615 C119.545871,27.1431288 119.11552,26.49393 118.787628,25.7159991 C118.459736,24.9380682 118.295792,23.9782614 118.295792,22.8365498 C118.295792,21.9187033 118.489011,21.0232567 118.875455,20.1501831 C119.2619,19.2771096 119.829847,18.4991903 120.579314,17.8164021 C121.328782,17.1336138 122.248037,16.587951 123.337107,16.1793974 C124.426177,15.7708437 125.673319,15.56657 127.078571,15.56657 C127.863169,15.56657 128.627264,15.6253336 129.370876,15.7428628 C130.114488,15.8603919 130.820031,16.0338847 131.487526,16.2633463 C132.15502,16.492808 132.778591,16.7670385 133.358257,17.0860461 C133.937924,17.4050538 134.456102,17.7660307 134.912809,18.1689877 L133.437302,20.804985 Z M163.496553,28.0581751 C163.496553,29.8267086 163.177449,31.4720918 162.539231,32.9943739 C161.901012,34.5166559 161.00225,35.8402379 159.842917,36.9651596 C158.683585,38.0900813 157.287137,38.9715366 155.653532,39.6095518 C154.019927,40.2475671 152.207765,40.56657 150.216992,40.56657 C148.226219,40.56657 146.411129,40.2475671 144.771669,39.6095518 C143.132209,38.9715366 141.729906,38.0900813 140.564718,36.9651596 C139.39953,35.8402379 138.497841,34.5166559 137.859622,32.9943739 C137.221404,31.4720918 136.9023,29.8267086 136.9023,28.0581751 C136.9023,26.2896415 137.221404,24.6442583 137.859622,23.1219763 C138.497841,21.5996942 139.39953,20.2789105 140.564718,19.1595854 C141.729906,18.0402604 143.132209,17.1616034 144.771669,16.5235881 C146.411129,15.8855728 148.226219,15.56657 150.216992,15.56657 C152.207765,15.56657 154.019927,15.8883711 155.653532,16.531983 C157.287137,17.1755949 158.683585,18.0570502 159.842917,19.1763752 C161.00225,20.2957003 161.901012,21.616484 162.539231,23.1387661 C163.177449,24.6610481 163.496553,26.3008347 163.496553,28.0581751 Z M157.418871,28.0581751 C157.418871,26.849304 157.254927,25.7607767 156.927035,24.7925606 C156.599143,23.8243444 156.127805,23.0044511 155.513008,22.3328561 C154.89821,21.661261 154.145826,21.1463792 153.255833,20.7881952 C152.365841,20.4300112 151.352904,20.2509219 150.216992,20.2509219 C149.06937,20.2509219 148.04765,20.4300112 147.151802,20.7881952 C146.255954,21.1463792 145.500643,21.661261 144.885845,22.3328561 C144.271048,23.0044511 143.79971,23.8243444 143.471818,24.7925606 C143.143926,25.7607767 142.979982,26.849304 142.979982,28.0581751 C142.979982,29.2782394 143.143926,30.3723632 143.471818,31.3405794 C143.79971,32.3087955 144.271048,33.1286888 144.885845,33.8002839 C145.500643,34.4718789 146.255954,34.9839624 147.151802,35.3365498 C148.04765,35.6891372 149.06937,35.8654283 150.216992,35.8654283 C151.352904,35.8654283 152.365841,35.6891372 153.255833,35.3365498 C154.145826,34.9839624 154.89821,34.4718789 155.513008,33.8002839 C156.127805,33.1286888 156.599143,32.3087955 156.927035,31.3405794 C157.254927,30.3723632 157.418871,29.2782394 157.418871,28.0581751 Z M188.189908,15.8352066 L188.189908,40.2979333 L185.09837,40.2979333 C184.641664,40.2979333 184.258153,40.2279765 183.947826,40.0880609 C183.6375,39.9481453 183.330106,39.7046957 183.025635,39.357705 L170.958097,24.7673759 C171.004938,25.2039126 171.037142,25.6264515 171.054707,26.0350052 C171.072273,26.4435588 171.081056,26.8269219 171.081056,27.1851059 L171.081056,40.2979333 L165.84652,40.2979333 L165.84652,15.8352066 L168.973189,15.8352066 C169.230818,15.8352066 169.447458,15.8463997 169.623114,15.8687862 C169.798771,15.8911727 169.956859,15.9331468 170.097384,15.9947097 C170.23791,16.0562725 170.372577,16.1430189 170.501392,16.2549514 C170.630207,16.3668839 170.776585,16.5179905 170.940531,16.7082758 L183.113462,31.3993436 C183.05491,30.9292271 183.013924,30.473109 182.990503,30.0309756 C182.967083,29.5888422 182.955372,29.1718999 182.955372,28.7801361 L182.955372,15.8352066 L188.189908,15.8352066 Z" fill="#12202B" fill-rule="nonzero"></path>
              <text font-family="Lato-Black, Lato" font-size="31" font-weight="700" fill="#253B5B">
                  <tspan x="205.189908" y="38.56657">// </tspan>
                  <tspan x="242.048908" y="38.56657" font-family="Lato-Light, Lato" font-weight="300">STANDARDS</tspan>
              </text>
          </g>
      </g>
  </g>
</svg>
