<svg xmlns="http://www.w3.org/2000/svg" xmlns:xlink="http://www.w3.org/1999/xlink" viewBox="0 0 726 213"><defs><path d="M13.3333334 5.79333332V2.66666663h-3.1266667L8 .45999995 5.79333332 2.66666663H2.66666663v3.12666669L.45999995 8l2.20666668 2.2066667v3.1266667h3.12666669L8 15.54l2.2066667-2.2066666h3.1266667v-3.1266667L15.54 8l-2.2066666-2.20666668zM7.99999997 12c-2.20666665 0-4-1.7933333-4-4.00000003 0-2.20666665 1.79333335-4 4-4 2.20666673 0 4.00000003 1.79333335 4.00000003 4C12 10.2066667 10.2066667 12 7.99999997 12zM8 5.33333332C6.52666666 5.33333332 5.33333332 6.52666666 5.33333332 8c0 1.47333334 1.19333334 2.6666667 2.66666668 2.6666667 1.47333334 0 2.6666667-1.19333336 2.6666667-2.6666667S9.47333334 5.33333332 8 5.33333332z" id="c"/><path d="M13.3333334 10.2066667L15.54 8l-2.2066666-2.20666668V2.66666663h-3.1266667L8 .45999995 5.79333332 2.66666663H2.66666663v3.12666669L.45999995 8l2.20666668 2.2066667v3.1266667h3.12666669L8 15.54l2.2066667-2.2066666h3.1266667v-3.1266667zM7.99999997 12c-2.20666665 0-4-1.7933333-4-4.00000003 0-2.20666665 1.79333335-4 4-4 2.20666673 0 4.00000003 1.79333335 4.00000003 4C12 10.2066667 10.2066667 12 7.99999997 12z" id="e"/><filter x="-25%" y="-17.9%" width="150%" height="150%" filterUnits="objectBoundingBox" id="a"><feOffset dy="1" in="SourceAlpha" result="shadowOffsetOuter1"/><feGaussianBlur stdDeviation="1" in="shadowOffsetOuter1" result="shadowBlurOuter1"/><feColorMatrix values="0 0 0 0 0 0 0 0 0 0 0 0 0 0 0 0 0 0 0.20588396 0" in="shadowBlurOuter1"/></filter><circle id="b" cx="103" cy="8" r="7"/></defs><g fill="none" fill-rule="evenodd"><path stroke="#B8C7D2" fill="#FFF" d="M.5.5h725v177H.5z"/><text font-family="Lato-Semibold, Lato" font-size="15" font-weight="500" fill="#3E5667"><tspan x="169" y="94">Icon</tspan></text><path fill="#B8C7D2" d="M217 88.5h40v1h-40z"/><rect fill="#3E5667" x="207" y="80" width="19.2" height="18.4" rx="9.2"/><text font-family="Lato-Heavy, Lato" font-size="9.6" font-weight="600" fill="#FFF"><tspan x="213.816" y="92.2">3</tspan></text><circle fill="#3E5667" cx="257.5" cy="89" r="3"/><text font-family="Lato-Semibold, Lato" font-size="15" font-weight="500" fill="#3E5667"><tspan x="393" y="53">Slider Handle</tspan></text><path fill="#B8C7D2" d="M371.5 46h1v33h-1z"/><rect fill="#3E5667" x="362" y="38" width="19.2" height="19.2" rx="9.6"/><text font-family="Lato-Heavy, Lato" font-size="9.6" font-weight="600" fill="#FFF"><tspan x="368.816" y="51">2</tspan></text><circle fill="#3E5667" cx="372" cy="78" r="3"/><text font-family="Lato-Semibold, Lato" font-size="15" font-weight="500" fill="#3E5667"><tspan x="240" y="53">Slider</tspan></text><path fill="#B8C7D2" d="M294.5 46h1v33h-1z"/><rect fill="#3E5667" x="285" y="38" width="19.2" height="19.2" rx="9.6"/><text font-family="Lato-Heavy, Lato" font-size="9.6" font-weight="600" fill="#FFF"><tspan x="291.816" y="51">1</tspan></text><circle fill="#3E5667" cx="295" cy="78" r="3"/><g transform="translate(269 81)"><rect fill="#E2E9EE" x="24" y="7" width="140" height="2" rx="1"/><rect fill="#E2E9EE" x="24" width="2" height="16" rx="1"/><rect fill="#3A8FDD" x="24" width="2" height="16" rx="1"/><rect fill="#3A8FDD" x="24" y="7" width="79" height="2" rx="1"/><use fill="#000" filter="url(#a)" xlink:href="#b"/><use fill="#3A8FDD" xlink:href="#b"/><rect fill="#E2E9EE" x="162" width="2" height="16" rx="1"/><g transform="translate(172)"><mask id="d" fill="#fff"><use xlink:href="#c"/></mask><g mask="url(#d)" fill="#3E5667"><path d="M0 0h16v16H0z"/></g></g><g><mask id="f" fill="#fff"><use xlink:href="#e"/></mask><g mask="url(#f)" fill="#3E5667"><path d="M0 0h16v16H0z"/></g></g></g><text font-family="Lato-Medium, Lato" font-size="15" font-weight="400" fill="#3E5667"><tspan x="0" y="207">The Ranger Slider anatomy.</tspan></text></g></svg>