<svg xmlns="http://www.w3.org/2000/svg" viewBox="0 0 12 13">
  <path d="M6 0c1.35560802 0 2.45454545 1.09893743 2.45454545 2.45454545 0 .96880787-.56128058 1.80652163-1.37640181 2.20570135.00852287.05140146.01276545.10417279.01276545.15793502V11l-.00192517.0303602c1.46892084-.251844 2.63879371-1.0031526 3.08230938-2.11178301l.0440895-.12057633.0783406-.27510387c-.44539021-.1749758-.6839162-.33781391-.715578-.48851432l-.01342593-.07294174-.01890074-.14729973c-.02869831-.29900955-.01130954-.72389088.27236309-.72340452l.74256318-.00057479.2174413.00256324.2015055.00582211C11.6242198 7.12464 11.9941899 7.22386153 12 7.5843559v.34556802c0 2.50862508-2.60168922 4.54980438-5.84268683 4.61397168L6 12.5454512l-.13756089-.0015526c-3.18932141-.063115-5.7777346-2.0394624-5.8604021-4.49238638L0 7.93049871v-.34556802c.0056313-.34940224.35335757-.4533626.96159568-.48318691l.26021799-.00844386.21744138-.00256324.74256313.00057479c.36877442-.00057479.28752911.71759536.24003642.94364599-.0316618.15070041-.27018779.31353852-.71557797.48851432l.08241024.28939498c.40792684 1.15483079 1.6101112 1.94901324 3.12190386 2.21375314l-.00149982-6.20843808c0-.05376223.00424258-.10653356.01241121-.15799744-.81476699-.3991173-1.37604757-1.23683106-1.37604757-2.20563893C3.54545455 1.09893743 4.64439198 0 6 0zm0 1.36363636c-.60249245 0-1.09090909.48841664-1.09090909 1.09090909 0 .60249246.48841664 1.0909091 1.09090909 1.0909091s1.09090909-.48841664 1.09090909-1.0909091c0-.60249245-.48841664-1.09090909-1.09090909-1.09090909z" fill="CurrentColor" fill-rule="evenodd"/>
</svg>
