<svg xmlns="http://www.w3.org/2000/svg" viewBox="0 0 11 13">
  <path d="M10.1904762 4.51858198l-.0002791 1.85380754a12.19194309 12.19194309 0 01.0169804.00524969c.2930631.09076755.4928225.36182024.4928225.66861776v.33987765c.0000701.30679674-.1996875.57784924-.4927292.668683l-.0173388.00463565.0002651 1.01059714a12.17847133 12.17847133 0 01.0169804.00524969c.2930631.09076754.4928225.36182023.4928225.66861775v.33987765c.0000701.3067967-.1996875.5778492-.4927292.668683l-.0173388.0049748.0005442 1.1796961c-1.09183673.4496102-2.18367347.6744152-3.2755102.6744152-1.09183674 0-2.18367347-.224805-3.27551021-.6744152l.00027912-1.1793923a12.24200553 12.24200553 0 01-.01698046-.0052497c-.2930631-.0907675-.49282247-.3618202-.49282247-.6686178v-.33987761c-.00007005-.30679673.19968751-.57784924.49272926-.668683l.01627073-.00587572.00080294-1.00935707a12.17438113 12.17438113 0 01-.01698046-.00524968c-.2930631-.09076755-.49282247-.36182024-.49282247-.66861776v-.33987765c-.00007005-.30679674.19968751-.57784924.49272926-.66868301l.01627073-.00521483.00052382-1.85387129c1.05402987.44961015 2.13316642.67441522 3.23740965.67441522 1.10424324 0 2.20878016-.22480507 3.31361076-.67441522zM.50952382 1.95580414c.89923712.38358129 1.59838118.60353793 2.53416616.65986992.16108402.00969687.64218033-.00191423.48487596.0145453-.73100994.07648916-.38025757 1.37544643-.48487596 3.440168-.56704041.12414773-.81675319 1.89395256 0 2.24441467.14054885.06030836.11527976.17718949.11527976.5147438 0 .09528638-.02651238.13521773-.24740511.23462932-.37934839.1707237-.09708152.92441139-.3235185.92441139-.76691007 0-1.31289251-.29893438-2.0785223-.61421497L.510185 8.19509705l-.16891174-.05342284C.13686402 8.07544199 0 7.89671771 0 7.69607871V7.0062199c0-.20063391.13682676-.37935387.34121598-.44562372l.16830784-.0524893L.510185 5.49743617l-.16891174-.05342285C.13686402 5.3777811 0 5.19905682 0 4.99841783v-.68985882c0-.20063391.13682676-.37935386.34121598-.44562371l.16830784-.0524893V1.95580414zm6.41352788.40464913c.91037974 0 1.81982024.15667821 2.72832153.47003463.32260309.11131833.53910297.4150088.53910297.75627779v.12251803c-.99754819.37269523-2.28724733.67441522-3.28030832.67441522-1.00180728 0-2.2697351-.29512611-3.27071209-.67441522v-.12089128c.00003563-.34191283.21733779-.64602794.54080604-.75681003.91708752-.31408609 1.83135081-.47112914 2.74278987-.47112914zM3.79311973 0c.91037974 0 1.81982025.1566782 2.72832153.47003463.32260309.11131833.53910297.4150088.53910297.75627778v.12251803c-.99754819.37269524-2.28724732.67441522-3.28030831.67441522-1.00180729 0-2.2697351-.29512611-3.2707121-.67441522v-.12089127C.50955946.88602634.72686161.58191123 1.05032986.47112914 1.96741738.15704303 2.88168067 0 3.79311973 0z" fill="CurrentColor" fill-rule="evenodd"/>
</svg>
