<svg xmlns="http://www.w3.org/2000/svg" xmlns:xlink="http://www.w3.org/1999/xlink" viewBox="0 0 727 363">
  <defs>
    <rect id="b" width="370" height="212" rx="3"/>
    <filter id="a" width="103.2%" height="105.7%" x="-1.6%" y="-2.4%" filterUnits="objectBoundingBox">
      <feMorphology in="SourceAlpha" operator="dilate" radius="1" result="shadowSpreadOuter1"/>
      <feOffset dy="1" in="shadowSpreadOuter1" result="shadowOffsetOuter1"/>
      <feGaussianBlur in="shadowOffsetOuter1" result="shadowBlurOuter1" stdDeviation="1.5"/>
      <feComposite in="shadowBlurOuter1" in2="SourceAlpha" operator="out" result="shadowBlurOuter1"/>
      <feColorMatrix in="shadowBlurOuter1" values="0 0 0 0 0 0 0 0 0 0 0 0 0 0 0 0 0 0 0.138958698 0"/>
    </filter>
    <rect id="d" width="119" height="43" rx="3"/>
    <filter id="c" width="110.1%" height="127.9%" x="-5%" y="-11.6%" filterUnits="objectBoundingBox">
      <feMorphology in="SourceAlpha" operator="dilate" radius="1" result="shadowSpreadOuter1"/>
      <feOffset dy="1" in="shadowSpreadOuter1" result="shadowOffsetOuter1"/>
      <feGaussianBlur in="shadowOffsetOuter1" result="shadowBlurOuter1" stdDeviation="1.5"/>
      <feComposite in="shadowBlurOuter1" in2="SourceAlpha" operator="out" result="shadowBlurOuter1"/>
      <feColorMatrix in="shadowBlurOuter1" values="0 0 0 0 0 0 0 0 0 0 0 0 0 0 0 0 0 0 0.0995137675 0"/>
    </filter>
  </defs>
  <g fill="none" fill-rule="evenodd">
    <path fill="#F8FAFC" stroke="#B8C7D2" d="M1.5.5h725v330H1.5z"/>
    <g transform="translate(178 59)">
      <use fill="#000" filter="url(#a)" xlink:href="#b"/>
      <rect width="371" height="213" x="-.5" y="-.5" fill="#FFF" stroke="#B8C7D2" rx="3"/>
    </g>
    <path fill="#FFF" d="M178 195h370v71.99a4 4 0 0 1-4.01 4l-362-.98a4 4 0 0 1-3.99-4V195z"/>
    <text fill="#3E5667" font-family="Lato-Semibold, Lato" font-size="15" font-weight="500" transform="translate(299.23 212)">
      <tspan x="41.41" y="27">Cancel</tspan>
    </text>
    <g transform="translate(413 212)">
      <use fill="#000" filter="url(#c)" xlink:href="#d"/>
      <rect width="120" height="44" x="-.5" y="-.5" fill="#2A77C7" stroke="#2A77C7" rx="3"/>
    </g>
    <g transform="translate(498 222.5)">
      <circle cx="11" cy="11" r="11" fill="#2661A7"/>
      <path fill="#FFF" d="M10.74 7.71l3.39 3.39a.3.3 0 0 1 0 .42l-3.39 3.39a.94.94 0 0 1-1.33-1.34l2.26-2.26-2.26-2.26a.94.94 0 0 1 1.33-1.34z"/>
    </g>
    <text fill="#FFF" font-family="Lato-Semibold, Lato" font-size="16" font-weight="500" transform="translate(413 212)">
      <tspan x="16" y="27">Confirm</tspan>
    </text>
    <path fill="#E2E9EE" d="M178 195h370v1H178z"/>
    <text fill="#3E5667" font-family="Lato-Semibold, Lato" font-size="15" font-weight="500">
      <tspan x=".5" y="360">The Dialog Component.</tspan>
    </text>
  </g>
</svg>