<?xml version="1.0" encoding="UTF-8"?>
<svg width="16px" height="16px" viewBox="0 0 16 16" version="1.1" xmlns="http://www.w3.org/2000/svg" xmlns:xlink="http://www.w3.org/1999/xlink">
    <title>Icons/Hardware/developer-board</title>
    <g id="Icons/Hardware/developer-board" stroke="none" stroke-width="1" fill="none" fill-rule="evenodd">
        <rect id="Spacer" fill-opacity="0" fill="#D8D8D8" x="0" y="0" width="16" height="16"></rect>
        <path d="M14.6666667,5.99999996 L14.6666667,4.66666665 L13.3333333,4.66666665 L13.3333333,3.3333333 C13.3333333,2.59999997 12.7333334,1.99999996 12,1.99999996 L2.66666663,1.99999996 C1.9333333,1.99999996 1.33333329,2.59999997 1.33333329,3.3333333 L1.33333329,12.6666667 C1.33333329,13.4 1.9333333,14 2.66666663,14 L12,14 C12.7333334,14 13.3333333,13.4 13.3333333,12.6666667 L13.3333333,11.3333334 L14.6666667,11.3333334 L14.6666667,9.99999996 L13.3333333,9.99999996 L13.3333333,8.66666667 L14.6666667,8.66666667 L14.6666667,7.33333333 L13.3333333,7.33333333 L13.3333333,5.99999996 L14.6666667,5.99999996 Z M12,12.6666667 L2.66666663,12.6666667 L2.66666663,3.3333333 L12,3.3333333 L12,12.6666667 Z M3.99999998,8.66666667 L7.33333333,8.66666667 L7.33333333,11.3333334 L3.99999998,11.3333334 L3.99999998,8.66666667 Z M8,4.66666665 L10.6666667,4.66666665 L10.6666667,6.66666665 L8,6.66666665 L8,4.66666665 Z M3.99999998,4.66666665 L7.33333333,4.66666665 L7.33333333,8 L3.99999998,8 L3.99999998,4.66666665 Z M8,7.33333333 L10.6666667,7.33333333 L10.6666667,11.3333333 L8,11.3333333 L8,7.33333333 Z" id="Icons/Hardware/ic_developer_board_24px" fill="#233745" fill-rule="nonzero"></path>
    </g>
</svg>