<?xml version="1.0" encoding="UTF-8"?>
<svg width="16px" height="16px" viewBox="0 0 16 16" version="1.1" xmlns="http://www.w3.org/2000/svg" xmlns:xlink="http://www.w3.org/1999/xlink">
    <title>Icons/Hardware/dock</title>
    <g id="Icons/Hardware/dock" stroke="none" stroke-width="1" fill="none" fill-rule="evenodd">
        <rect id="Spacer" fill-opacity="0" fill="#D8D8D8" x="0" y="0" width="16" height="16"></rect>
        <path d="M5.33333332,15.3333334 L10.6666667,15.3333334 L10.6666667,14 L5.33333332,14 L5.33333332,15.3333334 Z M10.6666667,0.673333288 L5.33333332,0.666666621 C4.59999998,0.666666621 3.99999998,1.26666662 3.99999998,1.99999996 L3.99999998,11.3333334 C3.99999998,12.0666667 4.59999998,12.6666666 5.33333332,12.6666666 L10.6666667,12.6666666 C11.4,12.6666666 12,12.0666667 12,11.3333334 L12,1.99999996 C12,1.26666662 11.4,0.673333288 10.6666667,0.673333288 Z M10.6666667,10 L5.33333332,10 L5.33333332,3.3333333 L10.6666667,3.3333333 L10.6666667,10 Z" id="Icons/Hardware/ic_dock_24px" fill="#233745" fill-rule="nonzero"></path>
    </g>
</svg>