<?xml version="1.0" encoding="UTF-8"?>
<svg width="16px" height="16px" viewBox="0 0 16 16" version="1.1" xmlns="http://www.w3.org/2000/svg" xmlns:xlink="http://www.w3.org/1999/xlink">
    <title>Icons/Hardware/keyboard</title>
    <defs>
        <path d="M13.3333333,3.3333333 L2.66666663,3.3333333 C1.9333333,3.3333333 1.33999996,3.93333331 1.33999996,4.66666665 L1.33333329,11.3333333 C1.33333329,12.0666667 1.9333333,12.6666667 2.66666663,12.6666667 L13.3333333,12.6666667 C14.0666667,12.6666667 14.6666667,12.0666667 14.6666667,11.3333333 L14.6666667,4.66666665 C14.6666667,3.93333331 14.0666667,3.3333333 13.3333333,3.3333333 Z M7.33333333,5.33333332 L8.66666667,5.33333332 L8.66666667,6.66666666 L7.33333333,6.66666666 L7.33333333,5.33333332 Z M7.33333333,7.33333333 L8.66666667,7.33333333 L8.66666667,8.66666667 L7.33333333,8.66666667 L7.33333333,7.33333333 Z M5.33333332,5.33333332 L6.66666666,5.33333332 L6.66666666,6.66666666 L5.33333332,6.66666666 L5.33333332,5.33333332 Z M5.33333332,7.33333333 L6.66666666,7.33333333 L6.66666666,8.66666667 L5.33333332,8.66666667 L5.33333332,7.33333333 Z M4.66666665,8.66666667 L3.3333333,8.66666667 L3.3333333,7.33333333 L4.66666665,7.33333333 L4.66666665,8.66666667 Z M4.66666665,6.66666666 L3.3333333,6.66666666 L3.3333333,5.33333332 L4.66666665,5.33333332 L4.66666665,6.66666666 Z M10.6666667,11.3333334 L5.33333332,11.3333334 L5.33333332,10 L10.6666667,10 L10.6666667,11.3333334 Z M10.6666667,8.66666667 L9.33333334,8.66666667 L9.33333334,7.33333333 L10.6666667,7.33333333 L10.6666667,8.66666667 Z M10.6666667,6.66666666 L9.33333334,6.66666666 L9.33333334,5.33333332 L10.6666667,5.33333332 L10.6666667,6.66666666 Z M12.6666667,8.66666667 L11.3333334,8.66666667 L11.3333334,7.33333333 L12.6666667,7.33333333 L12.6666667,8.66666667 Z M12.6666667,6.66666666 L11.3333334,6.66666666 L11.3333334,5.33333332 L12.6666667,5.33333332 L12.6666667,6.66666666 Z" id="path-1"></path>
    </defs>
    <g id="Icons/Hardware/keyboard" stroke="none" stroke-width="1" fill="none" fill-rule="evenodd">
        <mask id="mask-2" fill="white">
            <use xlink:href="#path-1"></use>
        </mask>
        <use id="Icons/Hardware/ic_keyboard_24px" fill="#233745" fill-rule="nonzero" xlink:href="#path-1"></use>
    </g>
</svg>