<?xml version="1.0" encoding="UTF-8"?>
<svg width="16px" height="16px" viewBox="0 0 16 16" version="1.1" xmlns="http://www.w3.org/2000/svg" xmlns:xlink="http://www.w3.org/1999/xlink">
    <title>Icons/Hardware/keyboard-voice</title>
    <defs>
        <path d="M7.99999999,9.99999996 C9.10666667,9.99999996 9.99333335,9.10666667 9.99333335,7.99999996 L9.99999999,3.99999996 C9.99999999,2.8933333 9.10666667,1.99999996 7.99999999,1.99999996 C6.89333333,1.99999996 5.99999999,2.8933333 5.99999999,3.99999996 L5.99999999,7.99999996 C5.99999999,9.10666667 6.89333333,9.99999996 7.99999999,9.99999996 Z M11.5333334,8 C11.5333334,10 9.84000001,11.4 8,11.4 C6.15999999,11.4 4.46666664,10 4.46666664,8 L3.3333333,8 C3.3333333,10.28 5.14666665,12.1533334 7.3333333,12.48 L7.3333333,14.6666667 L8.66666667,14.6666667 L8.66666667,12.48 C10.8533334,12.16 12.6666667,10.28 12.6666667,8 L11.5333334,8 Z" id="path-1"></path>
    </defs>
    <g id="Icons/Hardware/keyboard-voice" stroke="none" stroke-width="1" fill="none" fill-rule="evenodd">
        <mask id="mask-2" fill="white">
            <use xlink:href="#path-1"></use>
        </mask>
        <use id="Icons/Hardware/ic_keyboard_voice_24px" fill="#233745" fill-rule="nonzero" xlink:href="#path-1"></use>
    </g>
</svg>