<?xml version="1.0" encoding="UTF-8"?>
<svg width="16px" height="16px" viewBox="0 0 16 16" version="1.1" xmlns="http://www.w3.org/2000/svg" xmlns:xlink="http://www.w3.org/1999/xlink">
    <title>Icons/Hardware/keyboard-hide</title>
    <g id="Icons/Hardware/keyboard-hide" stroke="none" stroke-width="1" fill="none" fill-rule="evenodd">
        <rect id="Spacer" fill-opacity="0" fill="#D8D8D8" x="0" y="0" width="16" height="16"></rect>
        <path d="M13.3333333,1.99999996 L2.66666663,1.99999996 C1.9333333,1.99999996 1.33999996,2.59999997 1.33999996,3.3333333 L1.33333329,9.99999996 C1.33333329,10.7333334 1.9333333,11.3333334 2.66666663,11.3333334 L13.3333333,11.3333334 C14.0666667,11.3333334 14.6666667,10.7333334 14.6666667,9.99999996 L14.6666667,3.3333333 C14.6666667,2.59999997 14.0666667,1.99999996 13.3333333,1.99999996 Z M7.33333333,3.99999997 L8.66666667,3.99999997 L8.66666667,5.33333332 L7.33333333,5.33333332 L7.33333333,3.99999997 Z M7.33333333,5.99999999 L8.66666667,5.99999999 L8.66666667,7.33333333 L7.33333333,7.33333333 L7.33333333,5.99999999 Z M5.33333332,3.99999997 L6.66666666,3.99999997 L6.66666666,5.33333332 L5.33333332,5.33333332 L5.33333332,3.99999997 Z M5.33333332,5.99999999 L6.66666666,5.99999999 L6.66666666,7.33333333 L5.33333332,7.33333333 L5.33333332,5.99999999 Z M4.66666665,7.33333333 L3.3333333,7.33333333 L3.3333333,5.99999999 L4.66666665,5.99999999 L4.66666665,7.33333333 Z M4.66666665,5.33333332 L3.3333333,5.33333332 L3.3333333,3.99999997 L4.66666665,3.99999997 L4.66666665,5.33333332 Z M10.6666667,10 L5.33333332,10 L5.33333332,8.66666667 L10.6666667,8.66666667 L10.6666667,10 Z M10.6666667,7.33333333 L9.33333334,7.33333333 L9.33333334,5.99999999 L10.6666667,5.99999999 L10.6666667,7.33333333 Z M10.6666667,5.33333332 L9.33333334,5.33333332 L9.33333334,3.99999997 L10.6666667,3.99999997 L10.6666667,5.33333332 Z M12.6666667,7.33333333 L11.3333334,7.33333333 L11.3333334,5.99999999 L12.6666667,5.99999999 L12.6666667,7.33333333 Z M12.6666667,5.33333332 L11.3333334,5.33333332 L11.3333334,3.99999997 L12.6666667,3.99999997 L12.6666667,5.33333332 Z M8,15.3333334 L10.6666667,12.6666667 L5.33333332,12.6666667 L8,15.3333334 Z" id="Icons/Hardware/ic_keyboard_hide_24px" fill="#233745" fill-rule="nonzero"></path>
    </g>
</svg>