<?xml version="1.0" encoding="UTF-8"?>
<svg width="16px" height="16px" viewBox="0 0 16 16" version="1.1" xmlns="http://www.w3.org/2000/svg" xmlns:xlink="http://www.w3.org/1999/xlink">
    <title>Icons/Hardware/laptop-mac</title>
    <g id="Icons/Hardware/laptop-mac" stroke="none" stroke-width="1" fill="none" fill-rule="evenodd">
        <rect id="Spacer" fill-opacity="0" fill="#D8D8D8" x="0" y="2" width="16" height="16"></rect>
        <path d="M13.3333334,12 C14.0666667,12 14.66,11.4 14.66,10.6666667 L14.6666667,3.3333333 C14.6666667,2.59999997 14.0666667,1.99999996 13.3333334,1.99999996 L2.66666663,1.99999996 C1.9333333,1.99999996 1.33333329,2.59999997 1.33333329,3.3333333 L1.33333329,10.6666667 C1.33333329,11.4 1.9333333,12 2.66666663,12 L-5.00000006e-08,12 C-5.00000006e-08,12.7333334 0.599999954,13.3333334 1.33333329,13.3333334 L14.6666667,13.3333334 C15.4,13.3333334 15.9999999,12.7333334 15.9999999,12 L13.3333334,12 Z M2.66666663,3.3333333 L13.3333334,3.3333333 L13.3333334,10.6666667 L2.66666663,10.6666667 L2.66666663,3.3333333 Z M8,12.6666667 C7.63333333,12.6666667 7.33333333,12.3666667 7.33333333,12 C7.33333333,11.6333334 7.63333333,11.3333334 8,11.3333334 C8.36666667,11.3333334 8.66666667,11.6333334 8.66666667,12 C8.66666667,12.3666667 8.36666667,12.6666667 8,12.6666667 Z" id="Icons/Hardware/ic_laptop_mac_24px" fill="#233745" fill-rule="nonzero"></path>
    </g>
</svg>