<?xml version="1.0" encoding="UTF-8"?>
<svg width="16px" height="16px" viewBox="0 0 16 16" version="1.1" xmlns="http://www.w3.org/2000/svg" xmlns:xlink="http://www.w3.org/1999/xlink">
    <title>Icons/Hardware/laptop-windows</title>
    <defs>
        <path d="M13.3333334,12 L13.3333334,11.3333334 C14.0666667,11.3333334 14.66,10.7333334 14.66,9.99999996 L14.6666667,3.3333333 C14.6666667,2.59999997 14.0666667,1.99999996 13.3333334,1.99999996 L2.66666663,1.99999996 C1.9333333,1.99999996 1.33333329,2.59999997 1.33333329,3.3333333 L1.33333329,9.99999996 C1.33333329,10.7333334 1.9333333,11.3333334 2.66666663,11.3333334 L2.66666663,12 L-5.00000006e-08,12 L-5.00000006e-08,13.3333334 L15.9999999,13.3333334 L15.9999999,12 L13.3333334,12 Z M2.66666663,3.3333333 L13.3333334,3.3333333 L13.3333334,10 L2.66666663,10 L2.66666663,3.3333333 Z" id="path-1"></path>
    </defs>
    <g id="Icons/Hardware/laptop-windows" stroke="none" stroke-width="1" fill="none" fill-rule="evenodd">
        <mask id="mask-2" fill="white">
            <use xlink:href="#path-1"></use>
        </mask>
        <use id="Icons/Hardware/ic_laptop_windows_24px" fill="#233745" fill-rule="nonzero" xlink:href="#path-1"></use>
    </g>
</svg>