<?xml version="1.0" encoding="UTF-8"?>
<svg width="16px" height="16px" viewBox="0 0 16 16" version="1.1" xmlns="http://www.w3.org/2000/svg" xmlns:xlink="http://www.w3.org/1999/xlink">
    <title>Icons/Hardware/laptop</title>
    <g id="Icons/Hardware/laptop" stroke="none" stroke-width="1" fill="none" fill-rule="evenodd">
        <rect id="Spacer" fill-opacity="0" fill="#D8D8D8" x="0" y="0" width="16" height="16"></rect>
        <path d="M13.3333334,12 C14.0666667,12 14.6666667,11.4 14.6666667,10.6666666 L14.6666667,3.99999997 C14.6666667,3.26666664 14.0666667,2.66666663 13.3333334,2.66666663 L2.66666663,2.66666663 C1.9333333,2.66666663 1.33333329,3.26666664 1.33333329,3.99999997 L1.33333329,10.6666666 C1.33333329,11.4 1.9333333,12 2.66666663,12 L-5.00000006e-08,12 L-5.00000006e-08,13.3333334 L15.9999999,13.3333334 L15.9999999,12 L13.3333334,12 Z M2.66666663,3.99999998 L13.3333334,3.99999998 L13.3333334,10.6666667 L2.66666663,10.6666667 L2.66666663,3.99999998 Z" id="Icons/Hardware/ic_laptop_24px" fill="#233745" fill-rule="nonzero"></path>
    </g>
</svg>