<svg xmlns="http://www.w3.org/2000/svg" xmlns:xlink="http://www.w3.org/1999/xlink" width="16" height="16" viewBox="0 0 16 16">
  <defs>
    <path id="memory-a" d="M9.99999999,5.99999999 L5.99999999,5.99999999 L5.99999999,9.99999999 L9.99999999,9.99999999 L9.99999999,5.99999999 Z M8.66666667,8.66666667 L7.33333333,8.66666667 L7.33333333,7.33333333 L8.66666667,7.33333333 L8.66666667,8.66666667 Z M14,7.33333333 L14,5.99999996 L12.6666667,5.99999996 L12.6666667,4.66666665 C12.6666667,3.93333331 12.0666667,3.3333333 11.3333334,3.3333333 L9.99999996,3.3333333 L9.99999996,1.99999996 L8.66666667,1.99999996 L8.66666667,3.3333333 L7.33333333,3.3333333 L7.33333333,1.99999996 L5.99999996,1.99999996 L5.99999996,3.3333333 L4.66666665,3.3333333 C3.93333331,3.3333333 3.3333333,3.93333331 3.3333333,4.66666665 L3.3333333,5.99999996 L1.99999996,5.99999996 L1.99999996,7.33333333 L3.3333333,7.33333333 L3.3333333,8.66666667 L1.99999996,8.66666667 L1.99999996,9.99999996 L3.3333333,9.99999996 L3.3333333,11.3333334 C3.3333333,12.0666667 3.93333331,12.6666667 4.66666665,12.6666667 L5.99999996,12.6666667 L5.99999996,14 L7.33333333,14 L7.33333333,12.6666667 L8.66666667,12.6666667 L8.66666667,14 L9.99999996,14 L9.99999996,12.6666667 L11.3333334,12.6666667 C12.0666667,12.6666667 12.6666667,12.0666667 12.6666667,11.3333334 L12.6666667,9.99999996 L14,9.99999996 L14,8.66666667 L12.6666667,8.66666667 L12.6666667,7.33333333 L14,7.33333333 Z M11.3333334,11.3333334 L4.66666665,11.3333334 L4.66666665,4.66666665 L11.3333334,4.66666665 L11.3333334,11.3333334 Z"/>
  </defs>
  <g fill="none" fill-rule="evenodd">
    <mask id="memory-b" fill="#fff">
      <use xlink:href="#memory-a"/>
    </mask>
    <g fill="CurrentColor" mask="url(#memory-b)">
      <rect width="16" height="16"/>
    </g>
  </g>
</svg>
