<?xml version="1.0" encoding="UTF-8"?>
<svg width="16px" height="16px" viewBox="0 0 16 16" version="1.1" xmlns="http://www.w3.org/2000/svg" xmlns:xlink="http://www.w3.org/1999/xlink">
    <title>Icons/Hardware/phone-iphone</title>
    <g id="Icons/Hardware/phone-iphone" stroke="none" stroke-width="1" fill="none" fill-rule="evenodd">
        <rect id="Spacer" fill-opacity="0" fill="#D8D8D8" x="0" y="0" width="16" height="16"></rect>
        <path d="M10.3333333,0.666666621 L4.99999998,0.666666621 C4.07999998,0.666666621 3.3333333,1.41333329 3.3333333,2.3333333 L3.3333333,13.6666666 C3.3333333,14.5866667 4.07999998,15.3333334 4.99999998,15.3333334 L10.3333333,15.3333334 C11.2533334,15.3333334 12,14.5866667 12,13.6666666 L12,2.3333333 C12,1.41333329 11.2533334,0.666666621 10.3333333,0.666666621 Z M7.66666666,14.6666667 C7.11333333,14.6666667 6.66666666,14.22 6.66666666,13.6666667 C6.66666666,13.1133334 7.11333333,12.6666667 7.66666666,12.6666667 C8.22,12.6666667 8.66666666,13.1133334 8.66666666,13.6666667 C8.66666666,14.22 8.22,14.6666667 7.66666666,14.6666667 Z M10.6666666,12 L4.66666665,12 L4.66666665,2.66666663 L10.6666666,2.66666663 L10.6666666,12 Z" id="Icons/Hardware/ic_phone_iphone_24px" fill="#233745" fill-rule="nonzero"></path>
    </g>
</svg>