<?xml version="1.0" encoding="UTF-8"?>
<svg width="16px" height="16px" viewBox="0 0 16 16" version="1.1" xmlns="http://www.w3.org/2000/svg" xmlns:xlink="http://www.w3.org/1999/xlink">
    <title>Icons/Hardware/phonelink-off</title>
    <defs>
        <path d="M14.6666667,3.99999997 L14.6666667,2.66666663 L4.54666665,2.66666663 L5.87999999,3.99999997 L14.6666667,3.99999997 Z M1.27999996,1.09999996 L0.433333286,1.94666663 L1.64666663,3.15999997 C1.45333329,3.38666664 1.33333329,3.67999997 1.33333329,3.99999997 L1.33333329,11.3333334 L-5.00000006e-08,11.3333334 L-5.00000006e-08,13.3333334 L11.82,13.3333334 L13.3866667,14.9 L14.2333334,14.0533334 L2.5933333,2.4133333 L1.27999996,1.09999996 Z M2.66666663,4.17999998 L9.82000001,11.3333334 L2.66666663,11.3333334 L2.66666663,4.17999998 Z M15.3333334,5.33333332 L11.3333334,5.33333332 C10.9666667,5.33333332 10.6666667,5.63333332 10.6666667,5.99999999 L10.6666667,8.78666667 L12,10.12 L12,6.66666666 L14.6666667,6.66666666 L14.6666667,11.3333333 L13.2133334,11.3333333 L15.2133334,13.3333333 L15.3333334,13.3333333 C15.7,13.3333333 16,13.0333334 16,12.6666667 L16,5.99999999 C16,5.63333332 15.7,5.33333332 15.3333334,5.33333332 Z" id="path-1"></path>
    </defs>
    <g id="Icons/Hardware/phonelink-off" stroke="none" stroke-width="1" fill="none" fill-rule="evenodd">
        <mask id="mask-2" fill="white">
            <use xlink:href="#path-1"></use>
        </mask>
        <use id="Icons/Hardware/ic_phonelink_off_24px" fill="#233745" fill-rule="nonzero" xlink:href="#path-1"></use>
    </g>
</svg>