<?xml version="1.0" encoding="UTF-8"?>
<svg width="16px" height="16px" viewBox="0 0 16 16" version="1.1" xmlns="http://www.w3.org/2000/svg" xmlns:xlink="http://www.w3.org/1999/xlink">
    <title>Icons/Hardware/router</title>
    <g id="Icons/Hardware/router" stroke="none" stroke-width="1" fill="none" fill-rule="evenodd">
        <rect id="Spacer" fill-opacity="0" fill="#D8D8D8" x="0" y="0" width="16" height="16"></rect>
        <path d="M13.4666667,3.93333331 L14,3.39999997 C13.0666667,2.46666663 11.8666667,1.99999996 10.6666667,1.99999996 C9.46666668,1.99999996 8.26666667,2.46666663 7.33333333,3.39999997 L7.86666667,3.93333331 C8.66666667,3.19999997 9.66666668,2.79999997 10.6666667,2.79999997 C11.6666667,2.79999997 12.6666667,3.19999997 13.4666667,3.93333331 Z M12.8666667,4.46666664 C12.2666667,3.86666664 11.4666667,3.53333331 10.6666667,3.53333331 C9.86666668,3.53333331 9.06666667,3.86666664 8.46666667,4.46666664 L9.00000001,4.99999998 C9.46666667,4.53333331 10.0666667,4.33333331 10.6666667,4.33333331 C11.2666667,4.33333331 11.8666667,4.53333331 12.3333334,4.99999998 L12.8666667,4.46666664 L12.8666667,4.46666664 Z M12.6666667,8.66666667 L11.3333334,8.66666667 L11.3333334,5.99999999 L9.99999996,5.99999999 L9.99999996,8.66666667 L3.3333333,8.66666667 C2.59999997,8.66666667 1.99999996,9.26666667 1.99999996,9.99999999 L1.99999996,12.6666667 C1.99999996,13.4 2.59999997,14 3.3333333,14 L12.6666667,14 C13.4,14 14,13.4 14,12.6666667 L14,9.99999999 C14,9.26666667 13.4,8.66666667 12.6666667,8.66666667 Z M5.33333332,12 L3.99999997,12 L3.99999997,10.6666667 L5.33333332,10.6666667 L5.33333332,12 Z M7.66666666,12 L6.33333332,12 L6.33333332,10.6666667 L7.66666666,10.6666667 L7.66666666,12 Z M10,12 L8.66666667,12 L8.66666667,10.6666667 L10,10.6666667 L10,12 Z" id="Icons/Hardware/ic_router_24px" fill="#233745" fill-rule="nonzero"></path>
    </g>
</svg>