<?xml version="1.0" encoding="UTF-8"?>
<svg width="16px" height="16px" viewBox="0 0 16 16" version="1.1" xmlns="http://www.w3.org/2000/svg" xmlns:xlink="http://www.w3.org/1999/xlink">
    <title>Icons/Hardware/sim-card</title>
    <g id="Icons/Hardware/sim-card" stroke="none" stroke-width="1" fill="none" fill-rule="evenodd">
        <rect id="Spacer" fill-opacity="0" fill="#D8D8D8" x="0" y="0" width="16" height="16"></rect>
        <path d="M13.3266667,2.66666663 C13.3266667,1.9333333 12.7333334,1.33333329 12,1.33333329 L6.66666663,1.33333329 L2.66666663,5.33333329 L2.66666663,13.3333333 C2.66666663,14.0666667 3.26666664,14.6666667 3.99999997,14.6666667 L12.0066667,14.6666667 C12.74,14.6666667 13.3333334,14.0666667 13.3333334,13.3333333 L13.3266667,2.66666663 L13.3266667,2.66666663 Z M5.99999999,12.6666667 L4.66666665,12.6666667 L4.66666665,11.3333334 L5.99999999,11.3333334 L5.99999999,12.6666667 Z M11.3333334,12.6666667 L10,12.6666667 L10,11.3333334 L11.3333334,11.3333334 L11.3333334,12.6666667 Z M5.99999999,10 L4.66666665,10 L4.66666665,7.33333333 L5.99999999,7.33333333 L5.99999999,10 Z M8.66666667,12.6666667 L7.33333333,12.6666667 L7.33333333,10 L8.66666667,10 L8.66666667,12.6666667 Z M8.66666667,8.66666667 L7.33333333,8.66666667 L7.33333333,7.33333333 L8.66666667,7.33333333 L8.66666667,8.66666667 Z M11.3333334,10 L10,10 L10,7.33333333 L11.3333334,7.33333333 L11.3333334,10 Z" id="Icons/Hardware/ic_sim_card_24px" fill="#233745" fill-rule="nonzero"></path>
    </g>
</svg>