<?xml version="1.0" encoding="UTF-8"?>
<svg width="16px" height="16px" viewBox="0 0 16 16" version="1.1" xmlns="http://www.w3.org/2000/svg" xmlns:xlink="http://www.w3.org/1999/xlink">
    <title>Icons/Hardware/speaker</title>
    <defs>
        <path d="M11.3333333,1.33333329 L4.66666665,1.33333329 C3.93333331,1.33333329 3.3333333,1.9333333 3.3333333,2.66666663 L3.3333333,13.3333333 C3.3333333,14.0666667 3.93333331,14.66 4.66666665,14.66 L11.3333333,14.6666667 C12.0666667,14.6666667 12.6666667,14.0666667 12.6666667,13.3333333 L12.6666667,2.66666663 C12.6666667,1.9333333 12.0666667,1.33333329 11.3333333,1.33333329 Z M8,2.66666663 C8.73333334,2.66666663 9.33333334,3.26666664 9.33333334,3.99999997 C9.33333334,4.73333331 8.73333334,5.33333332 8,5.33333332 C7.26,5.33333332 6.66666666,4.73333331 6.66666666,3.99999997 C6.66666666,3.26666664 7.26,2.66666663 8,2.66666663 Z M8,13.3333334 C6.15999999,13.3333334 4.66666665,11.84 4.66666665,10 C4.66666665,8.16 6.15999999,6.66666666 8,6.66666666 C9.84000001,6.66666666 11.3333334,8.16 11.3333334,10 C11.3333334,11.84 9.84000001,13.3333334 8,13.3333334 Z M7.99999999,8 C6.89333333,8 5.99999999,8.89333334 5.99999999,10 C5.99999999,11.1066667 6.89333333,12 7.99999999,12 C9.10666667,12 9.99999999,11.1066667 9.99999999,10 C9.99999999,8.89333334 9.10666667,8 7.99999999,8 Z" id="path-1"></path>
    </defs>
    <g id="Icons/Hardware/speaker" stroke="none" stroke-width="1" fill="none" fill-rule="evenodd">
        <mask id="mask-2" fill="white">
            <use xlink:href="#path-1"></use>
        </mask>
        <use id="Icons/Hardware/ic_speaker_24px" fill="#233745" fill-rule="nonzero" xlink:href="#path-1"></use>
    </g>
</svg>