<?xml version="1.0" encoding="UTF-8"?>
<svg width="16px" height="16px" viewBox="0 0 16 16" version="1.1" xmlns="http://www.w3.org/2000/svg" xmlns:xlink="http://www.w3.org/1999/xlink">
    <title>Icons/Hardware/speaker-group</title>
    <g id="Icons/Hardware/speaker-group" stroke="none" stroke-width="1" fill="none" fill-rule="evenodd">
        <rect id="Spacer" fill-opacity="0" fill="#D8D8D8" x="0" y="0" width="16" height="16"></rect>
        <path d="M3.99999998,3.3333333 L3.99999998,14 L10.6666666,14 L10.6666666,15.3333333 L3.99999998,15.3333333 C3.25999997,15.3333333 2.66666663,14.7333334 2.66666663,14 L2.66666663,14 L2.66666663,3.3333333 L3.99999998,3.3333333 Z M12.1333334,0.666666621 C12.7933334,0.666666621 13.3333333,1.20666662 13.3333333,1.86666663 L13.3333333,1.86666663 L13.3333333,11.4666667 C13.3333333,12.1266667 12.7933334,12.6666666 12.1333334,12.6666666 L12.1333334,12.6666666 L6.53333332,12.66 C5.87333332,12.66 5.33333332,12.1266667 5.33333332,11.4666667 L5.33333332,11.4666667 L5.33333332,1.86666663 C5.33333332,1.20666662 5.87333332,0.666666621 6.53333332,0.666666621 L6.53333332,0.666666621 Z M9.33333334,5.66666665 C7.86,5.66666665 6.66666666,6.85999999 6.66666666,8.33333334 C6.66666666,9.80666668 7.86,11 9.33333334,11 C10.8066667,11 12,9.80666668 12,8.33333334 C12,6.85999999 10.8066667,5.66666665 9.33333334,5.66666665 Z M9.33333334,6.66666666 C10.2538079,6.66666666 11,7.41285875 11,8.33333334 C11,9.25380792 10.2538079,10 9.33333334,10 C8.41285875,10 7.66666666,9.25380792 7.66666666,8.33333334 C7.66666666,7.41285875 8.41285875,6.66666666 9.33333334,6.66666666 Z M9.33333334,1.99999996 C8.6,1.99999996 8,2.5933333 8,3.3333333 C8,4.07333331 8.6,4.66666665 9.33333334,4.66666665 C10.0666667,4.66666665 10.6666667,4.07333331 10.6666667,3.3333333 C10.6666667,2.5933333 10.0666667,1.99999996 9.33333334,1.99999996 Z" id="Combined-Shape" fill="#233745" fill-rule="nonzero"></path>
    </g>
</svg>