<?xml version="1.0" encoding="UTF-8"?>
<svg width="16px" height="16px" viewBox="0 0 16 16" version="1.1" xmlns="http://www.w3.org/2000/svg" xmlns:xlink="http://www.w3.org/1999/xlink">
    <title>Icons/Hardware/tablet-android</title>
    <g id="Icons/Hardware/tablet-android" stroke="none" stroke-width="1" fill="none" fill-rule="evenodd">
        <rect id="Spacer" fill-opacity="0" fill="#D8D8D8" x="0" y="0" width="16" height="16"></rect>
        <path d="M12,-5.00000006e-08 L3.99999996,-5.00000006e-08 C2.8933333,-5.00000006e-08 1.99999996,0.893333289 1.99999996,1.99999995 L1.99999996,13.9999999 C1.99999996,15.1066667 2.8933333,15.9999999 3.99999996,15.9999999 L12,15.9999999 C13.1066667,15.9999999 14,15.1066667 14,13.9999999 L14,1.99999995 C14,0.893333289 13.1066667,-5.00000006e-08 12,-5.00000006e-08 Z M9.33333334,14.6666667 L6.66666666,14.6666667 L6.66666666,14 L9.33333334,14 L9.33333334,14.6666667 Z M12.8333334,12.6666667 L3.16666664,12.6666667 L3.16666664,1.99999996 L12.8333334,1.99999996 L12.8333334,12.6666667 Z" id="Icons/Hardware/ic_tablet_android_24px" fill="#233745" fill-rule="nonzero"></path>
    </g>
</svg>