<svg xmlns="http://www.w3.org/2000/svg" xmlns:xlink="http://www.w3.org/1999/xlink" width="16" height="16" viewBox="0 0 16 16">
  <defs>
    <path id="tablet-mac-a" d="M12.3333333,-5.00000006e-08 L2.99999997,-5.00000006e-08 C2.07999996,-5.00000006e-08 1.33333329,0.746666621 1.33333329,1.66666663 L1.33333329,14.3333334 C1.33333329,15.2533334 2.07999996,15.9999999 2.99999997,15.9999999 L12.3333333,15.9999999 C13.2533334,15.9999999 14,15.2533334 14,14.3333334 L14,1.66666663 C14,0.746666621 13.2533334,-5.00000006e-08 12.3333333,-5.00000006e-08 Z M7.66666666,15.3333334 C7.11333333,15.3333334 6.66666666,14.8866667 6.66666666,14.3333334 C6.66666666,13.78 7.11333333,13.3333334 7.66666666,13.3333334 C8.22,13.3333334 8.66666666,13.78 8.66666666,14.3333334 C8.66666666,14.8866667 8.22,15.3333334 7.66666666,15.3333334 Z M12.6666666,12.6666667 L2.66666663,12.6666667 L2.66666663,1.99999996 L12.6666666,1.99999996 L12.6666666,12.6666667 Z"/>
  </defs>
  <g fill="none" fill-rule="evenodd">
    <mask id="tablet-mac-b" fill="#fff">
      <use xlink:href="#tablet-mac-a"/>
    </mask>
    <g fill="CurrentColor" mask="url(#tablet-mac-b)">
      <rect width="16" height="16"/>
    </g>
  </g>
</svg>
