<?xml version="1.0" encoding="UTF-8"?>
<svg width="16px" height="16px" viewBox="0 0 16 16" version="1.1" xmlns="http://www.w3.org/2000/svg" xmlns:xlink="http://www.w3.org/1999/xlink">
    <title>Icons/Hardware/toys</title>
    <g id="Icons/Hardware/toys" stroke="none" stroke-width="1" fill="none" fill-rule="evenodd">
        <rect id="Spacer" fill-opacity="0" fill="#D8D8D8" x="0" y="0" width="16" height="16"></rect>
        <path d="M8,8 C8,5.99999999 9.66666668,4.33333331 11.6666667,4.33333331 C13.6666667,4.33333331 15.3333334,5.99999999 15.3333334,8 L8,8 Z M8,8 C8,10 6.33333332,11.6666667 4.33333331,11.6666667 C2.3333333,11.6666667 0.666666621,10 0.666666621,8 L8,8 Z M8,8 C5.99999999,8 4.33333331,6.33333332 4.33333331,4.33333331 C4.33333331,2.3333333 5.99999999,0.666666621 8,0.666666621 L8,8 Z M8,8 C10,8 11.6666667,9.66666668 11.6666667,11.6666667 C11.6666667,13.6666667 10,15.3333334 8,15.3333334 L8,8 Z" id="Icons/Hardware/ic_toys_24px" fill="#233745" fill-rule="nonzero"></path>
    </g>
</svg>