<?xml version="1.0" encoding="UTF-8"?>
<svg width="16px" height="16px" viewBox="0 0 16 16" version="1.1" xmlns="http://www.w3.org/2000/svg" xmlns:xlink="http://www.w3.org/1999/xlink">
    <title>Icons/Hardware/videogame-asset</title>
    <defs>
        <path d="M14,3.99999998 L1.99999996,3.99999998 C1.26666662,3.99999998 0.666666621,4.59999998 0.666666621,5.33333332 L0.666666621,10.6666667 C0.666666621,11.4 1.26666662,12 1.99999996,12 L14,12 C14.7333334,12 15.3333334,11.4 15.3333334,10.6666667 L15.3333334,5.33333332 C15.3333334,4.59999998 14.7333334,3.99999998 14,3.99999998 Z M7.33333333,8.66666667 L5.33333332,8.66666667 L5.33333332,10.6666667 L3.99999996,10.6666667 L3.99999996,8.66666667 L1.99999996,8.66666667 L1.99999996,7.33333332 L3.99999996,7.33333332 L3.99999996,5.33333332 L5.33333332,5.33333332 L5.33333332,7.33333332 L7.33333333,7.33333332 L7.33333333,8.66666667 Z M10.3333333,10 C9.78000001,10 9.33333334,9.55333334 9.33333334,9 C9.33333334,8.44666667 9.78000001,8 10.3333333,8 C10.8866667,8 11.3333333,8.44666667 11.3333333,9 C11.3333333,9.55333334 10.8866667,10 10.3333333,10 Z M13,7.99999999 C12.4466667,7.99999999 12,7.55333333 12,6.99999999 C12,6.44666666 12.4466667,5.99999999 13,5.99999999 C13.5533334,5.99999999 14,6.44666666 14,6.99999999 C14,7.55333333 13.5533334,7.99999999 13,7.99999999 Z" id="path-1"></path>
    </defs>
    <g id="Icons/Hardware/videogame-asset" stroke="none" stroke-width="1" fill="none" fill-rule="evenodd">
        <mask id="mask-2" fill="white">
            <use xlink:href="#path-1"></use>
        </mask>
        <use id="Icons/Hardware/ic_videogame_asset_24px" fill="#233745" fill-rule="nonzero" xlink:href="#path-1"></use>
    </g>
</svg>