<?xml version="1.0" encoding="UTF-8"?>
<svg width="16px" height="16px" viewBox="0 0 16 16" version="1.1" xmlns="http://www.w3.org/2000/svg" xmlns:xlink="http://www.w3.org/1999/xlink">
    <title>Icons/Hardware/watch</title>
    <g id="Icons/Hardware/watch" stroke="none" stroke-width="1" fill="none" fill-rule="evenodd">
        <rect id="Spacer" fill-opacity="0" fill="#D8D8D8" x="0" y="0" width="16" height="16"></rect>
        <path d="M13.3333334,7.99999995 C13.3333334,6.30666666 12.54,4.79333331 11.3066667,3.81999997 L10.6666666,-5.00000006e-08 L5.33333332,-5.00000006e-08 L4.69999998,3.81999997 C3.45999997,4.79333331 2.66666663,6.29999999 2.66666663,7.99999995 C2.66666663,9.70000001 3.45999997,11.2066667 4.69999998,12.18 L5.33333332,15.9999999 L10.6666666,15.9999999 L11.3066667,12.18 C12.54,11.2066667 13.3333334,9.69333334 13.3333334,7.99999995 Z M3.99999998,7.99999997 C3.99999998,5.79333332 5.79333332,3.99999997 7.99999997,3.99999997 C10.2066667,3.99999997 12,5.79333332 12,7.99999997 C12,10.2066667 10.2066667,12 7.99999997,12 C5.79333332,12 3.99999998,10.2066667 3.99999998,7.99999997 Z" id="Icons/Hardware/ic_watch_24px" fill="#233745" fill-rule="nonzero"></path>
    </g>
</svg>