<svg xmlns="http://www.w3.org/2000/svg" xmlns:xlink="http://www.w3.org/1999/xlink" width="16" height="16" viewBox="0 0 16 16">
  <defs>
    <path id="all-inclusive-a" d="M12.4,4.41333331 C11.44,4.41333331 10.5333333,4.78666665 9.88666668,5.43333332 L7.99999995,7.10666666 L6.98666666,8 L6.99333333,8 L5.19999998,9.59333334 C4.77333331,10.02 4.20666664,10.2533333 3.59999997,10.2533333 C2.3533333,10.2533333 1.33999996,9.24666667 1.33999996,8 C1.33999996,6.75333333 2.3533333,5.74666665 3.59999997,5.74666665 C4.20666664,5.74666665 4.77333331,5.97999999 5.22666665,6.43333332 L5.97999999,7.09999999 L6.98666666,6.20666666 L6.14666666,5.46666665 C5.46666665,4.78666665 4.55999998,4.41333331 3.59999997,4.41333331 C1.61333329,4.41333331 -5.00000006e-08,6.02666665 -5.00000006e-08,8 C-5.00000006e-08,9.97333335 1.61333329,11.5866667 3.59999997,11.5866667 C4.55999998,11.5866667 5.46666665,11.2133334 6.11333332,10.5666667 L7.99999995,8.90000001 L8.00666667,8.90666667 L9.01333334,8 L9.00666667,8 L10.8,6.40666666 C11.2266667,5.97999999 11.7933334,5.74666665 12.4,5.74666665 C13.6466667,5.74666665 14.66,6.75333333 14.66,8 C14.66,9.24666667 13.6466667,10.2533333 12.4,10.2533333 C11.8,10.2533333 11.2266667,10.02 10.7733334,9.56666668 L10.0133333,8.89333334 L9.00666667,9.78666668 L9.85333334,10.5333333 C10.5333333,11.2066667 11.4333334,11.58 12.4,11.58 C14.3866667,11.58 15.9999999,9.97333335 15.9999999,7.99333333 C15.9999999,6.01333332 14.3866667,4.41333331 12.4,4.41333331 L12.4,4.41333331 Z"/>
  </defs>
  <g fill="none" fill-rule="evenodd">
    <mask id="all-inclusive-b" fill="#fff">
      <use xlink:href="#all-inclusive-a"/>
    </mask>
    <g fill="CurrentColor" mask="url(#all-inclusive-b)">
      <rect width="16" height="16"/>
    </g>
  </g>
</svg>
