<svg xmlns="http://www.w3.org/2000/svg" xmlns:xlink="http://www.w3.org/1999/xlink" width="16" height="16" viewBox="0 0 16 16">
  <defs>
    <path id="hot-tub-a" d="M4.66666665,5.33333332 C3.93028697,5.33333332 3.3333333,4.73637965 3.3333333,3.99999998 C3.3333333,3.2636203 3.93028697,2.66666663 4.66666665,2.66666663 C5.40304632,2.66666663 5.99999999,3.2636203 5.99999999,3.99999998 C5.99999999,4.73637965 5.40304632,5.33333332 4.66666665,5.33333332 Z M7.43333333,7.99999999 L14.6666667,7.99999999 L14.6666667,13.3333334 C14.6666667,14.0666667 14.0666667,14.6666667 13.3333333,14.6666667 L2.66666663,14.6666667 C1.9333333,14.6666667 1.33333329,14.0666667 1.33333329,13.3333334 L1.33333329,7.99999999 L3.33333329,7.99999999 L3.33333329,7.49999999 C3.33333329,6.67333333 4.00666664,5.99999999 4.83333329,5.99999999 L4.85333331,5.99999999 C5.07999998,5.99999999 5.29999998,6.05999999 5.49333332,6.15333332 C5.66666665,6.23333332 5.82666665,6.34666666 5.95333332,6.48666666 L6.88666666,7.52 C7.03999999,7.69333333 7.22666666,7.85333333 7.43333333,7.99999999 Z M4.66666665,13.3333333 L4.66666665,9.33333334 L3.3333333,9.33333334 L3.3333333,13.3333333 L4.66666665,13.3333333 Z M7.33333333,13.3333333 L7.33333333,9.33333334 L5.99999999,9.33333334 L5.99999999,13.3333333 L7.33333333,13.3333333 Z M10,13.3333333 L10,9.33333334 L8.66666667,9.33333334 L8.66666667,13.3333333 L10,13.3333333 Z M12.6666667,13.3333333 L12.6666667,9.33333334 L11.3333334,9.33333334 L11.3333334,13.3333333 L12.6666667,13.3333333 Z M12.4333334,3.90666664 C13.12,4.57333331 13.44,5.47333332 13.3,6.37999999 L13.26,6.66666666 L11.9866667,6.66666666 L12.06,6.27333332 C12.16,5.74666665 11.9933334,5.21999998 11.6133334,4.80666665 L11.5666667,4.76666665 C10.88,4.09333331 10.5666667,3.1933333 10.7,2.28666663 L10.74,1.99999996 L12,1.99999996 L11.94,2.3933333 C11.84,2.91999997 12.0066667,3.44666664 12.3866667,3.85999997 L12.4333334,3.90666664 Z M9.76666668,3.90666664 C10.4533333,4.57333331 10.7733334,5.47333332 10.6333333,6.37999999 L10.5933333,6.66666666 L9.32000001,6.66666666 L9.39333334,6.27333332 C9.49333334,5.74666665 9.32666667,5.21999998 8.94666667,4.80666665 L8.90000001,4.76666665 C8.21333333,4.09333331 7.9,3.1933333 8.03333333,2.28666663 L8.07333333,1.99999996 L9.33333334,1.99999996 L9.27333334,2.3933333 C9.17333334,2.91999997 9.34000001,3.44666664 9.72000001,3.85999997 L9.76666668,3.90666664 Z"/>
  </defs>
  <g fill="none" fill-rule="evenodd">
    <mask id="hot-tub-b" fill="#fff">
      <use xlink:href="#hot-tub-a"/>
    </mask>
    <g fill="CurrentColor" mask="url(#hot-tub-b)">
      <rect width="16" height="16"/>
    </g>
  </g>
</svg>
