<svg xmlns="http://www.w3.org/2000/svg" xmlns:xlink="http://www.w3.org/1999/xlink" width="16" height="16" viewBox="0 0 16 16">
  <defs>
    <path id="kitchen-a" d="M12,1.33999996 L3.99999997,1.33333329 C3.26666664,1.33333329 2.66666663,1.92666663 2.66666663,2.66666663 L2.66666663,13.3333333 C2.66666663,14.0666667 3.26666664,14.6666667 3.99999997,14.6666667 L12,14.6666667 C12.7333334,14.6666667 13.3333334,14.0666667 13.3333334,13.3333333 L13.3333334,2.66666663 C13.3333334,1.92666663 12.7333334,1.33999996 12,1.33999996 Z M12,13.3333334 L3.99999997,13.3333334 L3.99999997,7.32 L12,7.32 L12,13.3333334 Z M12,5.99999999 L3.99999997,5.99999999 L3.99999997,2.66666663 L12,2.66666663 L12,5.99999999 Z M5.33333332,3.3333333 L6.66666666,3.3333333 L6.66666666,5.3333333 L5.33333332,5.3333333 L5.33333332,3.3333333 Z M5.33333332,8 L6.66666666,8 L6.66666666,11.3333334 L5.33333332,11.3333334 L5.33333332,8 Z"/>
  </defs>
  <g fill="none" fill-rule="evenodd">
    <mask id="kitchen-b" fill="#fff">
      <use xlink:href="#kitchen-a"/>
    </mask>
    <g fill="CurrentColor" mask="url(#kitchen-b)">
      <rect width="16" height="16"/>
    </g>
  </g>
</svg>
