<svg xmlns="http://www.w3.org/2000/svg" xmlns:xlink="http://www.w3.org/1999/xlink" width="16" height="16" viewBox="0 0 16 16">
  <defs>
    <path id="smoke-free-a" d="M1.33333329,3.99999997 L5.99333332,8.66666664 L1.33333329,8.66666664 L1.33333329,10.6666666 L7.99333333,10.6666666 L12.66,15.3333334 L13.5,14.5 L2.16666663,3.16666664 L1.33333329,3.99999997 Z M13.6666667,8.66666667 L14.6666667,8.66666667 L14.6666667,10.6666667 L13.6666667,10.6666667 L13.6666667,8.66666667 Z M12,8.66666667 L13,8.66666667 L13,10.6666667 L12,10.6666667 L12,8.66666667 Z M12.5666667,3.2533333 C12.98,2.84666663 13.2333334,2.28666663 13.2333334,1.66666663 L12.2333334,1.66666663 C12.2333334,2.34666663 11.68,2.89999997 11,2.89999997 L11,3.89999997 C12.4933334,3.89999997 13.6666667,5.11999998 13.6666667,6.61333332 L13.6666667,8 L14.6666667,8 L14.6666667,6.61333332 C14.6666667,5.12666665 13.8133334,3.84666664 12.5666667,3.2533333 Z M9.66666668,5.79999999 L10.6866667,5.79999999 C11.3866667,5.79999999 12,6.29333332 12,7.16666666 L12,8 L13,8 L13,6.93999999 C13,5.73999999 11.9333333,4.83333329 10.6866667,4.83333329 L9.66666668,4.83333329 C8.98666667,4.83333329 8.43333333,4.17999998 8.43333333,3.49999997 C8.43333333,2.81999997 8.98666667,2.33333329 9.66666668,2.33333329 L9.66666668,1.33333329 C8.43333333,1.33333329 7.43333333,2.33333329 7.43333333,3.56666664 C7.43333333,4.79999998 8.43333333,5.79999999 9.66666668,5.79999999 Z M11.3333334,10.62 L11.3333334,8.66666667 L9.38000001,8.66666667 L11.3333334,10.62 Z"/>
  </defs>
  <g fill="none" fill-rule="evenodd">
    <mask id="smoke-free-b" fill="#fff">
      <use xlink:href="#smoke-free-a"/>
    </mask>
    <g fill="CurrentColor" mask="url(#smoke-free-b)">
      <rect width="16" height="16"/>
    </g>
  </g>
</svg>
