<svg xmlns="http://www.w3.org/2000/svg" xmlns:xlink="http://www.w3.org/1999/xlink" width="16" height="16" viewBox="0 0 16 16">
  <defs>
    <path id="spa-a" d="M10.3266667,6.41999999 C9.47333334,6.87999999 8.68666667,7.46666666 8,8.17333333 C7.31333333,7.46 6.52666666,6.87333333 5.67333332,6.41999999 C5.82666665,4.57333331 6.61333332,2.75999997 8.04,1.33333329 C9.45333334,2.74666663 10.2066667,4.55999998 10.3266667,6.41999999 Z M5.99333332,8.18666667 C5.89999999,8.12 5.79333332,8.06 5.69333332,7.99333333 C5.79333332,8.06666667 5.89999999,8.12 5.99333332,8.18666667 Z M10.2733333,8.02 C10.1866667,8.08 10.0933333,8.12666667 10.0066667,8.19333333 C10.0933333,8.12666667 10.1866667,8.08 10.2733333,8.02 Z M8,10.3 C9.43333334,8.11333333 11.88,6.66666666 14.6666667,6.66666666 C14.6666667,10.2133333 12.4266667,13.2133334 9.31333334,14.3266667 C8.88666667,14.4733334 8.45333334,14.5866667 8,14.6666667 C7.54666666,14.5933334 7.10666666,14.48 6.68666666,14.3266667 C3.57333331,13.2133334 1.33333329,10.2133333 1.33333329,6.66666666 C4.11999998,6.66666666 6.56666666,8.11333333 8,10.3 Z"/>
  </defs>
  <g fill="none" fill-rule="evenodd">
    <mask id="spa-b" fill="#fff">
      <use xlink:href="#spa-a"/>
    </mask>
    <g fill="CurrentColor" mask="url(#spa-b)">
      <rect width="16" height="16"/>
    </g>
  </g>
</svg>
