<svg xmlns="http://www.w3.org/2000/svg" viewBox="0 0 697 101">
    <g fill="#E7F6FF" fill-rule="nonzero">
        <path d="M15.1292142 72.9834054l12.8564869 12.8564869L13.5221533 100.30344c-.8875552.887555-2.3265665.887555-3.2141217 0L.6656664 90.6610749c-.8875552-.8875552-.8875552-2.3265665 0-3.2141217l14.4635478-14.4635478zm46.6047651-20.8917913L47.2704315 66.5551619 34.4139446 53.698675l3.2141217-3.2141217-36.9623999-36.9624c-.8875552-.8875552-.8875552-2.3265665 0-3.2141217L10.3080316.6656664c.8875552-.8875552 2.3265665-.8875552 3.2141217 0l48.211826 48.211826c.8875552.8875552.8875552 2.3265665 0 3.2141217zM52.0916141.6656664l9.6423652 9.6423652c.8875552.8875552.8875552 2.3265665 0 3.2141217L47.2704315 27.9857011 34.4139446 15.1292142 48.8774924.6656664c.8875552-.8875552 2.3265665-.8875552 3.2141217 0zM24.7715794 50.4845533l36.9623999 36.9623999c.8875552.8875552.8875552 2.3265665 0 3.2141217l-9.6423652 9.6423651c-.8875552.887555-2.3265665.887555-3.2141217 0L.6656664 52.0916141c-.8875552-.8875552-.8875552-2.3265665 0-3.2141217l14.4635478-14.4635478 12.8564869 12.8564869-3.2141217 3.2141218zM109.194 84V48.074c0-.9813333-.023-2.0316667-.069-3.151-.046-1.1193333-.130333-2.277-.253-3.473l31.602 39.974c.797333.9506667 1.602333 1.6176667 2.415 2.001.812667.3833333 1.817.575 3.013.575h8.096V16.978H140.29v35.466c0 1.0733333.030667 2.2156667.092 3.427.061333 1.2113333.168667 2.461.322 3.749l-31.878-40.25c-.429333-.5213333-.812667-.9353333-1.15-1.242-.337333-.3066667-.69-.5443333-1.058-.713-.368-.1686667-.782-.2836667-1.242-.345-.46-.0613333-1.027333-.092-1.702-.092h-8.188V84h13.708zm60.738 0c1.288 0 2.369-.345 3.243-1.035.874-.69 1.479667-1.4643333 1.817-2.323l3.956-11.684h25.484l3.956 11.684c.429333.9813333 1.058 1.7863333 1.886 2.415.828.6286667 1.916667.943 3.266.943h12.052l-25.944-67.022h-15.916L157.788 84h12.144zm30.958-25.622h-18.354l6.164-18.262c.46-1.1653333.950667-2.5453333 1.472-4.14.521333-1.5946667 1.012-3.3273333 1.472-5.198.521333 1.84 1.042667 3.5496667 1.564 5.129.521333 1.5793333 1.012 2.9516667 1.472 4.117l6.21 18.354zM254.528 84l26.864-67.022h-12.604c-1.288 0-2.369.345-3.243 1.035-.874.69-1.479667 1.4643333-1.817 2.323l-12.88 35.88c-.613333 1.564-1.188333 3.2736667-1.725 5.129-.536667 1.8553333-1.019667 3.795-1.449 5.819-.521333-2.024-1.073333-3.9636667-1.656-5.819-.582667-1.8553333-1.180667-3.565-1.794-5.129l-12.972-35.88c-.429333-.9813333-1.058-1.7863333-1.886-2.415-.828-.6286667-1.916667-.943-3.266-.943h-12.512L240.452 84h14.076zm60.262 0V58.516l24.288-41.538h-13.8c-.644 0-1.234333.0996667-1.771.299s-1.012.46-1.426.782c-.414.322-.774333.6823333-1.081 1.081-.306667.3986667-.567333.7973333-.782 1.196l-9.384 19.504c-.797333 1.5026667-1.495 2.921-2.093 4.255-.598 1.334-1.127 2.6603333-1.587 3.979-.490667-1.288-1.058-2.599-1.702-3.933-.644-1.334-1.364667-2.7676667-2.162-4.301l-9.476-19.504c-.521333-.9813333-1.173-1.7863333-1.955-2.415-.782-.6286667-1.847667-.943-3.197-.943h-13.708l24.288 41.538V84h15.548zm69.91 0c5.213333 0 9.959-.8356667 14.237-2.507 4.278-1.6713333 7.935-4.002 10.971-6.992 3.036-2.99 5.389667-6.532 7.061-10.626 1.671333-4.094 2.507-8.5636667 2.507-13.409 0-4.8146667-.835667-9.269-2.507-13.363-1.671333-4.094-4.025-7.6283333-7.061-10.603-3.036-2.9746667-6.693-5.3053333-10.971-6.992-4.278-1.6866667-9.023667-2.53-14.237-2.53h-26.036V84H384.7zm0-11.96h-10.396V28.938H384.7c2.974667 0 5.627333.4983333 7.958 1.495 2.330667.9966667 4.301 2.4226667 5.911 4.278 1.61 1.8553333 2.844333 4.117 3.703 6.785.858667 2.668 1.288 5.658 1.288 8.97 0 3.3426667-.429333 6.348-1.288 9.016-.858667 2.668-2.093 4.9296667-3.703 6.785-1.61 1.8553333-3.580333 3.2813333-5.911 4.278-2.330667.9966667-4.983333 1.495-7.958 1.495zM442.816 84V16.978h-15.64V84h15.64zm44.362.736c4.232 0 8.287667-.5673333 12.167-1.702 3.879333-1.1346667 7.536333-2.9593333 10.971-5.474V49.27h-23.828v8.556c0 .7973333.276 1.4566667.828 1.978.552.5213333 1.318667.782 2.3.782h6.624v10.166c-1.441333.6133333-2.921 1.104-4.439 1.472-1.518.368-3.212333.552-5.083.552-3.036 0-5.803667-.4983333-8.303-1.495-2.499333-.9966667-4.646-2.4456667-6.44-4.347-1.794-1.9013333-3.181667-4.232-4.163-6.992-.981333-2.76-1.472-5.9186667-1.472-9.476 0-3.22.444667-6.141 1.334-8.763.889333-2.622 2.154333-4.8683333 3.795-6.739 1.640667-1.8706667 3.626333-3.3196667 5.957-4.347 2.330667-1.0273333 4.952667-1.541 7.866-1.541 1.564 0 2.974667.0766667 4.232.23s2.453333.3986667 3.588.736c1.134667.3373333 2.246333.7743333 3.335 1.311 1.088667.5366667 2.246333 1.173 3.473 1.909 1.288.7973333 2.491667 1.0733333 3.611.828 1.119333-.2453333 2.031667-.9046667 2.737-1.978l4.508-6.854c-1.349333-1.288-2.882667-2.484-4.6-3.588-1.717333-1.104-3.611-2.0546667-5.681-2.852s-4.331667-1.426-6.785-1.886c-2.453333-.46-5.075333-.69-7.866-.69-5.397333 0-10.281.8433333-14.651 2.53-4.37 1.6866667-8.096 4.048-11.178 7.084-3.082 3.036-5.451 6.647-7.107 10.833-1.656 4.186-2.484 8.7783333-2.484 13.777 0 4.9066667.874 9.453 2.622 13.639 1.748 4.186 4.232 7.8046667 7.452 10.856 3.22 3.0513333 7.091667 5.4433333 11.615 7.176 4.523333 1.7326667 9.545 2.599 15.065 2.599zm47.72-.736V16.978h-15.64V84h15.64zm40.774 0V29.306h18.86V16.978h-53.268v12.328h18.86V84h15.548zm22.056 0c1.288 0 2.369-.345 3.243-1.035.874-.69 1.479667-1.4643333 1.817-2.323l3.956-11.684h25.484l3.956 11.684c.429333.9813333 1.058 1.7863333 1.886 2.415.828.6286667 1.916667.943 3.266.943h12.052l-25.944-67.022h-15.916L585.584 84h12.144zm30.958-25.622h-18.354l6.164-18.262c.46-1.1653333.950667-2.5453333 1.472-4.14.521333-1.5946667 1.012-3.3273333 1.472-5.198.521333 1.84 1.042667 3.5496667 1.564 5.129.521333 1.5793333 1.012 2.9516667 1.472 4.117l6.21 18.354zM696.466 84V71.58h-24.84V16.978h-15.548V84h40.388z"/>
    </g>
</svg>
