<svg viewBox="0 0 726 213" xmlns="http://www.w3.org/2000/svg"><g fill="none" fill-rule="evenodd"><path stroke="#B8C7D2" fill="#FFF" d="M.5.5h725v177H.5z"/><g transform="translate(223 62)"><rect stroke="#B8C7D2" fill="#FFF" x="-.5" y="-.5" width="281" height="45" rx="3"/><text font-family="Lato-Medium, Lato" font-size="15" font-weight="400" fill="#253B53"><tspan x="14" y="36">Your name</tspan></text><text font-family="Lato-Medium, Lato" font-size="12" font-weight="400" fill="#748999"><tspan x="14" y="18">First Name (optional)</tspan></text></g><text font-family="Lato-Medium, Lato" font-size="15" font-weight="400" fill="#3E5667"><tspan x="0" y="207">Anatomy of the Text Input component.</tspan></text><text font-family="Lato-Semibold, Lato" font-size="14" font-weight="500" fill="#233745" transform="translate(107 66)"><tspan x=".504" y="14">Label</tspan></text><path fill="#B8C7D2" d="M159 75h71v1h-71z"/><g transform="translate(150 66)"><rect fill="#3E5667" width="19.2" height="18.4" rx="9.2"/><text font-family="Lato-Heavy, Lato" font-size="9.6" font-weight="600" fill="#FFF"><tspan x="6.816" y="12.2">1</tspan></text></g><text font-family="Lato-Semibold, Lato" font-size="14" font-weight="500" fill="#233745" transform="translate(156 103)"><tspan x=".342" y="39">User Input</tspan></text><path fill="#B8C7D2" d="M241 103h1v39h-1z"/><g transform="translate(232 128)"><rect fill="#3E5667" width="19.2" height="18.4" rx="9.2"/><text font-family="Lato-Heavy, Lato" font-size="9.6" font-weight="600" fill="#FFF"><tspan x="6.816" y="12.2">2</tspan></text></g><g><text font-family="Lato-Semibold, Lato" font-size="14" font-weight="500" fill="#233745" transform="translate(503 38)"><tspan x="62.389" y="14">Container</tspan></text><path fill="#B8C7D2" d="M548 47h1v40h-1z"/><path fill="#B8C7D2" d="M503 86h46v1h-46z"/><g transform="translate(539 38)"><rect fill="#3E5667" width="19.2" height="18.4" rx="9.2"/><text font-family="Lato-Heavy, Lato" font-size="9.6" font-weight="600" fill="#FFF"><tspan x="6.816" y="12.2">3</tspan></text></g></g><circle fill="#3E5667" cx="231" cy="75.5" r="3"/><circle fill="#3E5667" cx="241.5" cy="105" r="3"/><circle fill="#3E5667" cx="503" cy="86.5" r="3"/></g></svg>