<svg width="726" height="213" xmlns="http://www.w3.org/2000/svg"><g fill="none" fill-rule="evenodd"><path stroke="#B8C7D2" fill="#FFF" d="M.5.5h725v177H.5z"/><path d="M265.5 58.5H543a3.5 3.5 0 0 1 3.5 3.5v38a3.5 3.5 0 0 1-3.5 3.5H265.5v-45z" stroke="#B8C7D2" fill="#FFF"/><path d="M227 58.5h38.5v45H227a3.5 3.5 0 0 1-3.5-3.5V62a3.5 3.5 0 0 1 3.5-3.5z" stroke="#B8C7D2" fill="#F8FAFC"/><text font-family="Lato-Bold, Lato" font-size="16" font-weight="bold" fill="#748999" transform="translate(224 59)"><tspan x="16" y="28">£</tspan></text><text font-family="Lato-Medium, Lato" font-size="15" font-weight="400" fill="#253B53" transform="translate(224 59)"><tspan x="56" y="36">Your name</tspan></text><text font-family="Lato-Medium, Lato" font-size="12" font-weight="400" fill="#748999" transform="translate(224 59)"><tspan x="56" y="18">First Name (optional)</tspan></text><text font-family="Lato-Medium, Lato" font-size="15" font-weight="400" fill="#3E5667"><tspan x="0" y="207">Anatomy of the Pre &amp; Post Fix labels.</tspan></text><g><text font-family="Lato-Semibold, Lato" font-size="14" font-weight="500" fill="#233745" transform="translate(94 72)"><tspan x=".663" y="14">Content</tspan></text><path fill="#B8C7D2" d="M164 81h71v1h-71z"/><g transform="translate(155 72)"><rect fill="#3E5667" width="19.2" height="18.4" rx="9.2"/><text font-family="Lato-Heavy, Lato" font-size="9.6" font-weight="600" fill="#FFF"><tspan x="6.816" y="12.2">2</tspan></text></g></g><g><text font-family="Lato-Semibold, Lato" font-size="14" font-weight="500" fill="#233745" transform="translate(164 100)"><tspan x=".389" y="39">Container</tspan></text><path fill="#B8C7D2" d="M243 100h1v39h-1z"/><g transform="translate(234 125)"><rect fill="#3E5667" width="19.2" height="18.4" rx="9.2"/><text font-family="Lato-Heavy, Lato" font-size="9.6" font-weight="600" fill="#FFF"><tspan x="6.816" y="12.2">1</tspan></text></g></g><circle fill="#3E5667" cx="236" cy="81.5" r="3"/><circle fill="#3E5667" cx="243.5" cy="102" r="3"/></g></svg>