<svg xmlns="http://www.w3.org/2000/svg" viewBox="0 0 726 180">
  <g fill="none" fill-rule="evenodd">
    <path fill="#FFF" stroke="#B8C7D2" d="M.5.5h725v146H.5z"/>
    <path fill="#3A8FDD" fill-rule="nonzero" d="M119.76 74.22c0 .84-.15 1.62-.43 2.33a5.37 5.37 0 0 1-3.04 3.03c-.72.28-1.52.42-2.4.42h-4.4V68.43h4.4c.88 0 1.68.14 2.4.43s1.34.68 1.85 1.2c.51.5.9 1.11 1.2 1.82.27.7.42 1.49.42 2.34zm-2.21 0c0-.64-.09-1.2-.25-1.71-.17-.5-.41-.93-.73-1.28s-.7-.62-1.15-.8a3.95 3.95 0 0 0-1.53-.29h-2.25v8.15h2.25c.57 0 1.08-.1 1.53-.28.45-.19.83-.46 1.15-.8.32-.36.56-.78.73-1.29.16-.5.25-1.07.25-1.7zm9.08.73c0-.25-.04-.5-.11-.72a1.72 1.72 0 0 0-.32-.6 1.5 1.5 0 0 0-.55-.4c-.22-.1-.48-.15-.77-.15-.57 0-1.02.16-1.35.49a2.4 2.4 0 0 0-.63 1.38h3.73zm-3.77 1.2c.03.42.1.78.22 1.09.12.3.28.56.47.76.19.2.42.35.68.44.27.1.56.15.88.15.32 0 .6-.04.83-.11.23-.07.43-.16.6-.25l.46-.25a.77.77 0 0 1 .38-.1c.17 0 .29.05.37.18l.57.72a3.3 3.3 0 0 1-.74.64 4.13 4.13 0 0 1-1.76.64c-.3.04-.6.06-.89.06-.57 0-1.1-.1-1.59-.28-.5-.2-.92-.47-1.28-.84a3.94 3.94 0 0 1-.86-1.38 5.32 5.32 0 0 1-.04-3.48 3.67 3.67 0 0 1 2.02-2.16 4.08 4.08 0 0 1 1.66-.32c.51 0 1 .09 1.43.25a3.12 3.12 0 0 1 1.87 1.9c.17.46.26.98.26 1.57 0 .3-.03.5-.1.6-.06.11-.18.16-.36.16h-5.08zm7.6 3.85v-6.72l-.71-.11a.84.84 0 0 1-.37-.17.4.4 0 0 1-.14-.33v-.8h1.22v-.61c0-.47.07-.9.21-1.27a2.63 2.63 0 0 1 1.57-1.55 3.7 3.7 0 0 1 2.34-.06l-.04 1c0 .07-.03.13-.06.18a.35.35 0 0 1-.15.1.8.8 0 0 1-.21.05l-.26.01c-.23 0-.44.03-.63.08a1.06 1.06 0 0 0-.76.76c-.06.2-.1.46-.1.76v.54h2.14v1.41h-2.07V80h-1.98zm9.5-3.5c-.57.02-1.05.07-1.44.14-.4.08-.7.17-.94.28-.23.11-.4.24-.5.4a.85.85 0 0 0-.16.48c0 .35.1.6.31.74.2.15.48.23.8.23.41 0 .76-.08 1.06-.22.3-.15.58-.37.87-.67V76.5zm-4.53-3.56a4.87 4.87 0 0 1 3.4-1.3c.49 0 .92.08 1.3.24a2.72 2.72 0 0 1 1.55 1.66c.14.39.2.81.2 1.28V80h-.9a.9.9 0 0 1-.42-.08c-.1-.06-.19-.17-.24-.34l-.18-.6c-.2.2-.41.35-.6.5a3.58 3.58 0 0 1-1.3.57 3.94 3.94 0 0 1-1.77-.06 2.1 2.1 0 0 1-.76-.42 1.89 1.89 0 0 1-.5-.7 2.47 2.47 0 0 1-.07-1.59c.07-.2.18-.4.34-.58.16-.2.36-.37.61-.53.25-.17.56-.31.93-.43.36-.13.79-.23 1.27-.3.49-.08 1.04-.13 1.67-.14v-.48c0-.55-.12-.96-.36-1.22-.23-.27-.57-.4-1.01-.4a2.41 2.41 0 0 0-1.35.36l-.44.26a.86.86 0 0 1-.44.1.57.57 0 0 1-.35-.1.9.9 0 0 1-.23-.25l-.35-.63zm15.38-1.15V80h-1.2c-.27 0-.43-.12-.5-.36l-.14-.66c-.33.35-.7.62-1.11.83-.4.21-.88.32-1.43.32-.45 0-.85-.08-1.19-.23a2.38 2.38 0 0 1-.87-.64c-.23-.28-.41-.61-.53-1-.12-.37-.18-.8-.18-1.25v-5.22h1.98v5.22c0 .5.11.89.34 1.16.24.28.58.41 1.05.41.34 0 .66-.07.96-.22.3-.16.58-.37.85-.63v-5.94h1.97zm3.95-3.68V80h-1.97V68.11h1.97zm4.72 12.02c-.72 0-1.27-.2-1.65-.6-.38-.4-.57-.96-.57-1.67v-4.59h-.84c-.1 0-.2-.03-.27-.1-.08-.07-.11-.18-.11-.31v-.79l1.32-.21.41-2.24c.03-.11.08-.2.15-.25a.45.45 0 0 1 .3-.09h1.02v2.58h2.19v1.41h-2.2v4.45c0 .26.07.46.2.6.12.14.3.22.51.22.12 0 .23-.02.3-.05a1.7 1.7 0 0 0 .39-.18c.05-.03.1-.05.14-.05.06 0 .1.02.15.05l.12.13.59.96a3 3 0 0 1-1 .54 3.7 3.7 0 0 1-1.15.19zm17.16-11.7V80h-2.16v-5.06h-5.43V80h-2.16V68.43h2.16v4.98h5.43v-4.98h2.16zm9.72 3.36l-4.47 10.47a.76.76 0 0 1-.23.31c-.09.07-.23.11-.42.11h-1.48l1.54-3.3-3.32-7.59h1.74c.15 0 .27.04.36.11.09.08.15.16.2.26l1.74 4.26c.06.14.1.28.15.43l.11.44a88.28 88.28 0 0 1 .3-.88l1.66-4.25a.58.58 0 0 1 .54-.37h1.58zm2.96 6.08a1.94 1.94 0 0 0 1.6.75c.3 0 .56-.06.8-.17.24-.11.45-.28.62-.51.16-.23.3-.52.38-.87.1-.35.14-.76.14-1.24s-.04-.88-.12-1.22c-.07-.33-.18-.6-.33-.81-.14-.2-.32-.36-.52-.46-.2-.1-.44-.14-.7-.14a2 2 0 0 0-1.05.26c-.29.17-.56.42-.82.73v3.68zm-.1-4.96c.34-.38.72-.68 1.14-.92a3.07 3.07 0 0 1 2.74-.07c.37.19.69.46.96.81.27.36.47.8.62 1.31a6.6 6.6 0 0 1-.03 3.5c-.16.52-.4.97-.7 1.36a3.27 3.27 0 0 1-3.75 1 2.87 2.87 0 0 1-.88-.58v3.36h-1.97V71.79h1.2c.26 0 .43.12.51.36l.16.76zm12.5 2.04c0-.25-.03-.5-.1-.72a1.72 1.72 0 0 0-.33-.6 1.5 1.5 0 0 0-.55-.4c-.22-.1-.47-.15-.77-.15-.57 0-1.02.16-1.35.49a2.4 2.4 0 0 0-.62 1.38h3.72zm-3.76 1.2c.03.42.1.78.22 1.09.12.3.27.56.46.76.2.2.42.35.69.44a2.72 2.72 0 0 0 1.7.04c.23-.07.44-.16.61-.25l.46-.25a.77.77 0 0 1 .38-.1c.16 0 .28.05.36.18l.57.72a3.3 3.3 0 0 1-.73.64 4.13 4.13 0 0 1-1.76.64c-.3.04-.6.06-.9.06-.56 0-1.1-.1-1.58-.28-.5-.2-.92-.47-1.28-.84a3.94 3.94 0 0 1-.86-1.38 5.32 5.32 0 0 1-.04-3.48 3.67 3.67 0 0 1 2.02-2.16 4.08 4.08 0 0 1 1.65-.32c.52 0 1 .09 1.43.25a3.12 3.12 0 0 1 1.87 1.9c.18.46.27.98.27 1.57 0 .3-.03.5-.1.6-.06.11-.18.16-.36.16h-5.08zm8.88-2.93c.26-.5.56-.88.92-1.16.35-.28.76-.42 1.24-.42.38 0 .69.08.92.25l-.13 1.48a.38.38 0 0 1-.12.2.32.32 0 0 1-.2.06c-.08 0-.2-.01-.36-.04a2.75 2.75 0 0 0-.46-.04c-.22 0-.41.03-.58.1-.17.06-.33.15-.46.27-.14.12-.26.27-.36.44-.1.17-.2.37-.3.58V80h-1.97v-8.2h1.16c.2 0 .34.03.42.1.08.07.14.2.16.39l.12.93zm6.1-5.1V80h-1.97V68.11h1.98zm4.03 3.67V80H215v-8.2h1.98zm.27-2.39c0 .17-.03.33-.1.48a1.32 1.32 0 0 1-.68.66 1.24 1.24 0 0 1-1.38-.27 1.3 1.3 0 0 1-.26-.39 1.24 1.24 0 0 1 .27-1.38 1.28 1.28 0 0 1 .87-.36 1.32 1.32 0 0 1 1.18.77c.07.15.1.31.1.49zm3.6 3.4c.16-.17.34-.32.52-.46a3.31 3.31 0 0 1 2.01-.68c.45 0 .85.08 1.2.23.34.15.63.37.86.64.23.28.41.6.53.99.12.38.18.8.18 1.26V80h-1.98v-5.22c0-.5-.11-.9-.34-1.17-.23-.27-.58-.41-1.05-.41-.34 0-.66.08-.96.23-.3.16-.58.37-.85.63V80H219v-8.2h1.2c.26 0 .43.11.51.35l.14.65zm9.15-4.69v6.81h.37c.13 0 .23-.02.31-.05.08-.04.16-.1.24-.21l2.04-2.52c.08-.12.18-.2.28-.26.1-.06.24-.09.4-.09h1.81l-2.55 3.05c-.18.24-.38.42-.59.55.11.08.21.18.3.28.09.1.17.22.25.35L235.6 80h-1.79a.96.96 0 0 1-.4-.08.62.62 0 0 1-.28-.27l-2.1-3.11a.6.6 0 0 0-.22-.24.89.89 0 0 0-.36-.06h-.45V80H228V68.11H230zm14.8 8.39c-.57.02-1.05.07-1.44.14-.4.08-.7.17-.94.28-.23.11-.4.24-.5.4a.85.85 0 0 0-.15.48c0 .35.1.6.3.74.2.15.48.23.8.23.41 0 .76-.08 1.06-.22.3-.15.59-.37.87-.67V76.5zm-4.53-3.56a4.87 4.87 0 0 1 3.4-1.3c.49 0 .92.08 1.3.24a2.72 2.72 0 0 1 1.55 1.66c.14.39.2.81.2 1.28V80h-.89a.9.9 0 0 1-.43-.08c-.1-.06-.18-.17-.24-.34l-.18-.6c-.2.2-.4.35-.6.5a3.58 3.58 0 0 1-1.3.57 3.94 3.94 0 0 1-1.77-.06 2.1 2.1 0 0 1-.76-.42 1.89 1.89 0 0 1-.5-.7 2.47 2.47 0 0 1-.07-1.59c.07-.2.18-.4.34-.58.16-.2.36-.37.61-.53.25-.17.56-.31.93-.43.36-.13.79-.23 1.27-.3.49-.08 1.04-.13 1.67-.14v-.48c0-.55-.12-.96-.35-1.22-.24-.27-.58-.4-1.02-.4a2.41 2.41 0 0 0-1.35.36l-.44.26a.86.86 0 0 1-.43.1.57.57 0 0 1-.36-.1.9.9 0 0 1-.23-.25l-.35-.63zm10.29 4.93a1.94 1.94 0 0 0 1.59.75c.3 0 .57-.06.8-.17.25-.11.45-.28.62-.51.17-.23.3-.52.39-.87.09-.35.13-.76.13-1.24s-.03-.88-.11-1.22c-.08-.33-.19-.6-.33-.81-.15-.2-.32-.36-.53-.46-.2-.1-.44-.14-.7-.14a2 2 0 0 0-1.05.26c-.28.17-.56.42-.81.73v3.68zm-.1-4.96c.33-.38.71-.68 1.14-.92a3.07 3.07 0 0 1 2.73-.07c.37.19.7.46.96.81.27.36.48.8.62 1.31a6.6 6.6 0 0 1-.02 3.5c-.17.52-.4.97-.71 1.36a3.27 3.27 0 0 1-3.75 1 2.87 2.87 0 0 1-.87-.58v3.36h-1.98V71.79h1.21c.26 0 .42.12.5.36l.16.76zm9.19 4.96a1.94 1.94 0 0 0 1.59.75c.3 0 .57-.06.8-.17.25-.11.45-.28.62-.51.17-.23.3-.52.39-.87.09-.35.13-.76.13-1.24s-.04-.88-.11-1.22c-.08-.33-.2-.6-.34-.81-.14-.2-.31-.36-.52-.46-.2-.1-.44-.14-.7-.14a2 2 0 0 0-1.05.26c-.29.17-.56.42-.81.73v3.68zm-.1-4.96c.33-.38.7-.68 1.14-.92a3.07 3.07 0 0 1 2.73-.07c.37.19.69.46.96.81.27.36.48.8.62 1.31a6.6 6.6 0 0 1-.03 3.5c-.16.52-.4.97-.7 1.36a3.27 3.27 0 0 1-3.75 1 2.87 2.87 0 0 1-.87-.58v3.36h-1.98V71.79h1.2c.26 0 .43.12.51.36l.16.76zm12.5 2.04c0-.25-.04-.5-.11-.72a1.72 1.72 0 0 0-.33-.6 1.5 1.5 0 0 0-.54-.4c-.23-.1-.48-.15-.78-.15-.57 0-1.02.16-1.34.49a2.4 2.4 0 0 0-.63 1.38h3.73zm-3.77 1.2c.03.42.1.78.22 1.09.12.3.27.56.47.76.19.2.42.35.68.44.26.1.56.15.88.15.32 0 .6-.04.82-.11.24-.07.44-.16.61-.25l.46-.25a.77.77 0 0 1 .38-.1c.16 0 .29.05.37.18l.56.72a3.3 3.3 0 0 1-.73.64 4.13 4.13 0 0 1-1.76.64c-.3.04-.6.06-.89.06-.57 0-1.1-.1-1.6-.28-.48-.2-.9-.47-1.27-.84a3.94 3.94 0 0 1-.86-1.38 5.32 5.32 0 0 1-.04-3.48 3.67 3.67 0 0 1 2.02-2.16 4.08 4.08 0 0 1 1.65-.32c.52 0 1 .09 1.44.25a3.12 3.12 0 0 1 1.86 1.9c.18.46.27.98.27 1.57 0 .3-.03.5-.1.6-.06.11-.18.16-.36.16h-5.08zm11.36.35c-.57.02-1.05.07-1.44.14-.4.08-.7.17-.94.28-.23.11-.4.24-.5.4a.85.85 0 0 0-.15.48c0 .35.1.6.3.74.2.15.48.23.8.23.41 0 .76-.08 1.06-.22.3-.15.59-.37.87-.67V76.5zm-4.53-3.56a4.87 4.87 0 0 1 3.4-1.3c.49 0 .92.08 1.3.24a2.72 2.72 0 0 1 1.55 1.66c.14.39.2.81.2 1.28V80h-.89a.9.9 0 0 1-.43-.08c-.1-.06-.18-.17-.24-.34l-.18-.6c-.2.2-.4.35-.6.5a3.58 3.58 0 0 1-1.3.57 3.94 3.94 0 0 1-1.77-.06 2.1 2.1 0 0 1-.76-.42 1.89 1.89 0 0 1-.5-.7 2.47 2.47 0 0 1-.07-1.59c.07-.2.18-.4.34-.58.16-.2.36-.37.61-.53.25-.17.56-.31.93-.43.36-.13.79-.23 1.27-.3.49-.08 1.04-.13 1.67-.14v-.48c0-.55-.12-.96-.35-1.22-.24-.27-.58-.4-1.02-.4a2.41 2.41 0 0 0-1.35.36l-.44.26a.86.86 0 0 1-.43.1.57.57 0 0 1-.36-.1.9.9 0 0 1-.23-.25l-.35-.63zm10.18.28c.25-.5.56-.88.9-1.16.36-.28.78-.42 1.26-.42.37 0 .68.08.9.25l-.12 1.48a.38.38 0 0 1-.12.2.32.32 0 0 1-.2.06c-.08 0-.2-.01-.36-.04a2.75 2.75 0 0 0-.46-.04c-.21 0-.4.03-.58.1-.17.06-.32.15-.46.27-.14.12-.26.27-.36.44-.1.17-.2.37-.3.58V80h-1.97v-8.2h1.16c.2 0 .35.03.43.1.08.07.13.2.16.39l.12.93zm8.44 3.28c-.57.02-1.05.07-1.44.14-.4.08-.7.17-.94.28-.23.11-.4.24-.5.4a.85.85 0 0 0-.16.48c0 .35.1.6.31.74.2.15.48.23.8.23.41 0 .76-.08 1.06-.22.3-.15.58-.37.87-.67V76.5zm-4.53-3.56a4.87 4.87 0 0 1 3.4-1.3c.49 0 .92.08 1.3.24a2.72 2.72 0 0 1 1.55 1.66c.14.39.2.81.2 1.28V80h-.9a.9.9 0 0 1-.42-.08c-.1-.06-.19-.17-.24-.34l-.18-.6c-.2.2-.41.35-.6.5a3.58 3.58 0 0 1-1.3.57 3.94 3.94 0 0 1-1.77-.06 2.1 2.1 0 0 1-.76-.42 1.89 1.89 0 0 1-.5-.7 2.47 2.47 0 0 1-.07-1.59c.07-.2.18-.4.34-.58.16-.2.36-.37.61-.53.25-.17.56-.31.93-.43.36-.13.79-.23 1.27-.3.49-.08 1.04-.13 1.67-.14v-.48c0-.55-.12-.96-.36-1.22-.23-.27-.57-.4-1.01-.4a2.41 2.41 0 0 0-1.35.36l-.44.26a.86.86 0 0 1-.44.1.57.57 0 0 1-.35-.1.9.9 0 0 1-.23-.25l-.35-.63zm10.16-.14c.16-.17.34-.32.52-.46a3.31 3.31 0 0 1 2.01-.68c.45 0 .85.08 1.2.23.34.15.63.37.86.64.24.28.41.6.53.99.12.38.18.8.18 1.26V80h-1.97v-5.22c0-.5-.12-.9-.35-1.17-.23-.27-.58-.41-1.05-.41-.34 0-.66.08-.96.23-.3.16-.58.37-.84.63V80h-1.98v-8.2h1.2c.26 0 .43.11.51.35l.14.65zm13.05.73a.98.98 0 0 1-.17.17.4.4 0 0 1-.24.07c-.1 0-.2-.03-.3-.1l-.34-.2a2.19 2.19 0 0 0-1.16-.3c-.35 0-.65.06-.91.19-.27.12-.48.3-.66.54-.17.23-.3.51-.38.85-.09.33-.13.7-.13 1.13 0 .44.04.83.14 1.17.1.34.23.63.4.86.18.23.4.4.64.53.25.12.54.18.85.18a2.1 2.1 0 0 0 1.26-.38c.13-.09.25-.17.34-.25.1-.08.21-.12.34-.12a.4.4 0 0 1 .36.19l.56.72a3.57 3.57 0 0 1-1.5 1.06c-.28.1-.56.17-.85.22-.3.04-.58.06-.87.06a3.38 3.38 0 0 1-2.6-1.11c-.34-.36-.6-.8-.8-1.33-.2-.53-.3-1.13-.3-1.8 0-.6.1-1.16.26-1.68a3.5 3.5 0 0 1 2.01-2.22 4.3 4.3 0 0 1 1.72-.32c.61 0 1.15.1 1.61.3.46.2.88.48 1.24.85l-.52.72zm7.12 1.42c0-.25-.03-.5-.1-.72a1.72 1.72 0 0 0-.33-.6 1.5 1.5 0 0 0-.55-.4c-.22-.1-.47-.15-.77-.15-.57 0-1.02.16-1.35.49a2.4 2.4 0 0 0-.62 1.38h3.72zm-3.76 1.2c.03.42.1.78.22 1.09.12.3.27.56.46.76.2.2.42.35.69.44a2.72 2.72 0 0 0 1.7.04c.23-.07.44-.16.61-.25l.46-.25a.77.77 0 0 1 .38-.1c.16 0 .28.05.36.18l.57.72a3.3 3.3 0 0 1-.73.64 4.13 4.13 0 0 1-1.76.64c-.3.04-.6.06-.9.06-.56 0-1.1-.1-1.58-.28-.5-.2-.92-.47-1.28-.84a3.94 3.94 0 0 1-.86-1.38 5.32 5.32 0 0 1-.04-3.48 3.67 3.67 0 0 1 2.02-2.16 4.08 4.08 0 0 1 1.65-.32c.52 0 1 .09 1.43.25a3.12 3.12 0 0 1 1.87 1.9c.18.46.27.98.27 1.57 0 .3-.03.5-.1.6-.06.11-.18.16-.36.16h-5.08z"/>
    <g fill="#3A8FDD" fill-rule="nonzero">
      <path d="M406.44 68.43V80h-2.16v-5.06h-5.43V80h-2.16V68.43h2.16v4.98h5.43v-4.98h2.16zm5.9 3.23c.6 0 1.16.1 1.66.3a3.64 3.64 0 0 1 2.1 2.17c.2.52.29 1.1.29 1.75 0 .65-.1 1.24-.29 1.76a3.58 3.58 0 0 1-2.1 2.18c-.5.2-1.05.3-1.66.3-.61 0-1.17-.1-1.67-.3a3.58 3.58 0 0 1-2.11-2.18c-.2-.52-.3-1.1-.3-1.76 0-.65.1-1.23.3-1.75a3.63 3.63 0 0 1 2.1-2.17c.5-.2 1.07-.3 1.68-.3zm0 6.94c.68 0 1.19-.23 1.52-.69.32-.46.49-1.13.49-2.01 0-.89-.17-1.56-.5-2.03-.32-.46-.83-.7-1.51-.7-.7 0-1.2.24-1.54.7-.33.47-.5 1.15-.5 2.03 0 .88.17 1.55.5 2 .33.47.85.7 1.54.7zm12.96-6.8l-3.26 8.2h-1.79L417 71.8h1.63c.15 0 .27.03.37.1.1.07.16.15.2.26l1.58 4.38a11.8 11.8 0 0 1 .4 1.5 18.4 18.4 0 0 1 .4-1.5l1.62-4.38c.03-.1.1-.2.2-.26.1-.07.2-.1.34-.1h1.56zm6.34 3.15c0-.25-.04-.5-.11-.72a1.72 1.72 0 0 0-.33-.6 1.5 1.5 0 0 0-.54-.4c-.23-.1-.48-.15-.78-.15-.57 0-1.02.16-1.34.49a2.4 2.4 0 0 0-.63 1.38h3.73zm-3.77 1.2c.03.42.1.78.22 1.09.12.3.27.56.47.76.19.2.42.35.68.44.26.1.56.15.88.15.32 0 .6-.04.82-.11.24-.07.44-.16.61-.25l.46-.25a.77.77 0 0 1 .38-.1c.16 0 .29.05.37.18l.56.72a3.3 3.3 0 0 1-.73.64 4.13 4.13 0 0 1-1.76.64c-.3.04-.6.06-.89.06-.57 0-1.1-.1-1.6-.28-.48-.2-.9-.47-1.27-.84a3.94 3.94 0 0 1-.86-1.38 5.32 5.32 0 0 1-.04-3.48 3.67 3.67 0 0 1 2.02-2.16 4.08 4.08 0 0 1 1.65-.32c.52 0 1 .09 1.44.25a3.12 3.12 0 0 1 1.86 1.9c.18.46.27.98.27 1.57 0 .3-.03.5-.1.6-.06.11-.18.16-.36.16h-5.08zm8.89-2.93c.25-.5.56-.88.9-1.16.36-.28.78-.42 1.26-.42.37 0 .68.08.9.25l-.12 1.48a.38.38 0 0 1-.12.2.32.32 0 0 1-.2.06c-.08 0-.2-.01-.36-.04a2.75 2.75 0 0 0-.46-.04c-.21 0-.4.03-.58.1-.17.06-.32.15-.46.27-.14.12-.26.27-.36.44-.1.17-.2.37-.3.58V80h-1.97v-8.2h1.16c.2 0 .35.03.43.1.08.07.13.2.16.39l.12.93zm9.39 1.73c0-.25-.04-.5-.11-.72a1.72 1.72 0 0 0-.32-.6 1.5 1.5 0 0 0-.55-.4c-.22-.1-.48-.15-.77-.15-.57 0-1.02.16-1.35.49a2.4 2.4 0 0 0-.63 1.38h3.73zm-3.77 1.2c.03.42.1.78.22 1.09.12.3.28.56.47.76.19.2.42.35.68.44.27.1.56.15.88.15.32 0 .6-.04.83-.11.23-.07.43-.16.6-.25l.46-.25a.77.77 0 0 1 .38-.1c.17 0 .29.05.37.18l.57.72a3.3 3.3 0 0 1-.74.64 4.13 4.13 0 0 1-1.76.64c-.3.04-.6.06-.89.06-.57 0-1.1-.1-1.59-.28-.5-.2-.92-.47-1.28-.84a3.94 3.94 0 0 1-.86-1.38 5.32 5.32 0 0 1-.04-3.48 3.67 3.67 0 0 1 2.02-2.16 4.08 4.08 0 0 1 1.66-.32c.51 0 1 .09 1.43.25a3.12 3.12 0 0 1 1.87 1.9c.17.46.26.98.26 1.57 0 .3-.03.5-.1.6-.06.11-.18.16-.36.16h-5.08zm12.18-2.26a1.94 1.94 0 0 0-1.59-.75c-.3 0-.57.06-.8.17-.25.11-.45.28-.62.51-.17.23-.3.51-.4.86-.08.35-.13.77-.13 1.24 0 .48.04.89.12 1.22.07.33.18.6.33.82.14.2.32.36.53.45.2.1.44.14.7.14.4 0 .75-.08 1.04-.25.29-.17.56-.42.82-.73v-3.68zm1.97-5.78V80h-1.2c-.27 0-.43-.12-.5-.36l-.17-.8c-.33.39-.71.7-1.14.93a3.08 3.08 0 0 1-2.73.07c-.38-.19-.7-.46-.97-.81a3.9 3.9 0 0 1-.62-1.32 6.65 6.65 0 0 1 .03-3.49c.16-.52.4-.97.71-1.36a3.21 3.21 0 0 1 2.57-1.22c.46 0 .85.07 1.17.22.33.14.62.33.88.58v-4.33h1.97zm15.9.32V80h-2.15v-5.06h-5.44V80h-2.16V68.43h2.16v4.98h5.44v-4.98h2.16zm9.73 3.36l-4.48 10.47a.76.76 0 0 1-.22.31c-.1.07-.24.11-.43.11h-1.47l1.53-3.3-3.32-7.59h1.74c.15 0 .27.04.36.11.09.08.16.16.2.26l1.74 4.26a17.53 17.53 0 0 1 .26.87 88.28 88.28 0 0 1 .31-.88l1.65-4.25a.58.58 0 0 1 .54-.37h1.59zm2.96 6.08a1.94 1.94 0 0 0 1.59.75c.3 0 .57-.06.8-.17.25-.11.45-.28.62-.51.17-.23.3-.52.39-.87.09-.35.13-.76.13-1.24s-.04-.88-.11-1.22c-.08-.33-.2-.6-.34-.81-.14-.2-.31-.36-.52-.46-.2-.1-.44-.14-.7-.14a2 2 0 0 0-1.05.26c-.29.17-.56.42-.81.73v3.68zm-.1-4.96c.33-.38.7-.68 1.14-.92a3.07 3.07 0 0 1 2.73-.07c.37.19.69.46.96.81.27.36.48.8.62 1.31a6.6 6.6 0 0 1-.03 3.5c-.16.52-.4.97-.7 1.36a3.27 3.27 0 0 1-3.75 1 2.87 2.87 0 0 1-.87-.58v3.36h-1.98V71.79h1.2c.26 0 .43.12.51.36l.16.76zm12.5 2.04c0-.25-.04-.5-.11-.72a1.72 1.72 0 0 0-.33-.6 1.5 1.5 0 0 0-.54-.4c-.23-.1-.48-.15-.78-.15-.57 0-1.02.16-1.34.49a2.4 2.4 0 0 0-.63 1.38h3.73zm-3.77 1.2c.03.42.1.78.22 1.09.12.3.27.56.47.76.19.2.42.35.68.44.26.1.56.15.88.15.32 0 .6-.04.82-.11.24-.07.44-.16.61-.25l.46-.25a.77.77 0 0 1 .38-.1c.16 0 .29.05.37.18l.56.72a3.3 3.3 0 0 1-.73.64 4.13 4.13 0 0 1-1.76.64c-.3.04-.6.06-.89.06-.57 0-1.1-.1-1.6-.28-.48-.2-.9-.47-1.27-.84a3.94 3.94 0 0 1-.86-1.38 5.32 5.32 0 0 1-.04-3.48 3.67 3.67 0 0 1 2.02-2.16 4.08 4.08 0 0 1 1.65-.32c.52 0 1 .09 1.44.25a3.12 3.12 0 0 1 1.86 1.9c.18.46.27.98.27 1.57 0 .3-.03.5-.1.6-.06.11-.18.16-.36.16h-5.08zm8.89-2.93c.25-.5.56-.88.9-1.16.36-.28.78-.42 1.26-.42.37 0 .68.08.9.25l-.12 1.48a.38.38 0 0 1-.12.2.32.32 0 0 1-.2.06c-.08 0-.2-.01-.36-.04a2.75 2.75 0 0 0-.46-.04c-.21 0-.4.03-.58.1-.17.06-.32.15-.46.27-.14.12-.26.27-.36.44-.1.17-.2.37-.3.58V80h-1.97v-8.2h1.16c.2 0 .35.03.43.1.08.07.13.2.16.39l.12.93zm6.1-5.1V80h-1.98V68.11h1.98zm4.02 3.67V80h-1.98v-8.2h1.98zm.28-2.39c0 .17-.04.33-.1.48a1.32 1.32 0 0 1-.69.66 1.24 1.24 0 0 1-1.37-.27 1.3 1.3 0 0 1-.27-.39 1.24 1.24 0 0 1 .27-1.38 1.28 1.28 0 0 1 .88-.36 1.32 1.32 0 0 1 1.18.77c.06.15.1.31.1.49zm3.59 3.4c.16-.17.34-.32.52-.46a3.31 3.31 0 0 1 2.01-.68c.45 0 .85.08 1.2.23.34.15.63.37.86.64.24.28.41.6.53.99.12.38.18.8.18 1.26V80h-1.97v-5.22c0-.5-.12-.9-.35-1.17-.23-.27-.58-.41-1.05-.41-.34 0-.66.08-.96.23-.3.16-.58.37-.84.63V80h-1.98v-8.2h1.2c.26 0 .43.11.51.35l.14.65zm9.15-4.69v6.81h.37c.13 0 .24-.02.31-.05.08-.04.16-.1.24-.21l2.04-2.52c.09-.12.18-.2.28-.26.1-.06.24-.09.4-.09h1.82l-2.56 3.05c-.18.24-.37.42-.59.55.11.08.21.18.3.28.09.1.17.22.25.35l2.74 3.98h-1.78a.96.96 0 0 1-.4-.08.62.62 0 0 1-.28-.27l-2.1-3.11a.6.6 0 0 0-.23-.24.89.89 0 0 0-.36-.06h-.45V80h-1.98V68.11h1.98zm14.8 8.39c-.57.02-1.05.07-1.44.14-.39.08-.7.17-.94.28-.23.11-.4.24-.5.4a.85.85 0 0 0-.15.48c0 .35.1.6.3.74.21.15.48.23.81.23.4 0 .76-.08 1.05-.22.3-.15.59-.37.87-.67V76.5zm-4.53-3.56a4.87 4.87 0 0 1 3.41-1.3c.48 0 .9.08 1.29.24a2.72 2.72 0 0 1 1.55 1.66c.14.39.2.81.2 1.28V80h-.89a.9.9 0 0 1-.43-.08c-.1-.06-.18-.17-.24-.34l-.18-.6c-.2.2-.4.35-.6.5a3.58 3.58 0 0 1-1.3.57 3.94 3.94 0 0 1-1.77-.06 2.1 2.1 0 0 1-.76-.42 1.89 1.89 0 0 1-.5-.7 2.47 2.47 0 0 1-.07-1.59c.07-.2.19-.4.34-.58.16-.2.37-.37.62-.53.25-.17.55-.31.92-.43.37-.13.8-.23 1.28-.3.48-.08 1.04-.13 1.66-.14v-.48c0-.55-.12-.96-.35-1.22-.24-.27-.58-.4-1.02-.4a2.41 2.41 0 0 0-1.35.36l-.44.26a.86.86 0 0 1-.43.1.57.57 0 0 1-.35-.1.9.9 0 0 1-.24-.25l-.35-.63zm10.29 4.93a1.94 1.94 0 0 0 1.6.75c.3 0 .56-.06.8-.17.24-.11.44-.28.61-.51.17-.23.3-.52.39-.87.1-.35.14-.76.14-1.24s-.04-.88-.12-1.22c-.08-.33-.19-.6-.33-.81-.15-.2-.32-.36-.53-.46-.2-.1-.43-.14-.7-.14a2 2 0 0 0-1.04.26c-.3.17-.56.42-.82.73v3.68zm-.1-4.96c.33-.38.71-.68 1.14-.92a3.07 3.07 0 0 1 2.73-.07c.37.19.7.46.96.81.27.36.48.8.63 1.31a6.6 6.6 0 0 1-.03 3.5c-.17.52-.4.97-.71 1.36a3.27 3.27 0 0 1-3.75 1 2.87 2.87 0 0 1-.87-.58v3.36h-1.98V71.79h1.21c.26 0 .43.12.5.36l.17.76zm9.19 4.96a1.94 1.94 0 0 0 1.59.75c.3 0 .57-.06.8-.17.25-.11.45-.28.62-.51.17-.23.3-.52.39-.87.09-.35.13-.76.13-1.24s-.03-.88-.11-1.22c-.08-.33-.19-.6-.33-.81-.15-.2-.32-.36-.53-.46-.2-.1-.44-.14-.7-.14a2 2 0 0 0-1.05.26c-.28.17-.56.42-.81.73v3.68zm-.1-4.96c.33-.38.71-.68 1.14-.92a3.07 3.07 0 0 1 2.73-.07c.37.19.7.46.96.81.27.36.48.8.62 1.31a6.6 6.6 0 0 1-.02 3.5c-.17.52-.4.97-.71 1.36a3.27 3.27 0 0 1-3.75 1 2.87 2.87 0 0 1-.87-.58v3.36h-1.98V71.79h1.21c.26 0 .42.12.5.36l.16.76zm12.5 2.04c0-.25-.04-.5-.11-.72a1.72 1.72 0 0 0-.32-.6 1.5 1.5 0 0 0-.55-.4c-.22-.1-.48-.15-.77-.15-.57 0-1.02.16-1.35.49a2.4 2.4 0 0 0-.63 1.38h3.73zm-3.77 1.2c.03.42.1.78.22 1.09.12.3.28.56.47.76.19.2.42.35.68.44.27.1.56.15.88.15.32 0 .6-.04.83-.11.23-.07.43-.16.6-.25l.46-.25a.77.77 0 0 1 .38-.1c.17 0 .29.05.37.18l.57.72a3.3 3.3 0 0 1-.74.64 4.13 4.13 0 0 1-1.76.64c-.3.04-.6.06-.89.06-.57 0-1.1-.1-1.59-.28-.5-.2-.92-.47-1.28-.84a3.94 3.94 0 0 1-.86-1.38 5.32 5.32 0 0 1-.04-3.48 3.67 3.67 0 0 1 2.02-2.16 4.08 4.08 0 0 1 1.66-.32c.51 0 1 .09 1.43.25a3.12 3.12 0 0 1 1.87 1.9c.17.46.26.98.26 1.57 0 .3-.03.5-.1.6-.06.11-.18.16-.36.16h-5.08zm11.36.35c-.57.02-1.05.07-1.44.14-.39.08-.7.17-.94.28-.23.11-.4.24-.5.4a.85.85 0 0 0-.15.48c0 .35.1.6.3.74.21.15.48.23.81.23.4 0 .76-.08 1.05-.22.3-.15.59-.37.87-.67V76.5zm-4.53-3.56a4.87 4.87 0 0 1 3.41-1.3c.48 0 .9.08 1.29.24a2.72 2.72 0 0 1 1.55 1.66c.14.39.2.81.2 1.28V80h-.89a.9.9 0 0 1-.43-.08c-.1-.06-.18-.17-.24-.34l-.18-.6c-.2.2-.4.35-.6.5a3.58 3.58 0 0 1-1.3.57 3.94 3.94 0 0 1-1.77-.06 2.1 2.1 0 0 1-.76-.42 1.89 1.89 0 0 1-.5-.7 2.47 2.47 0 0 1-.07-1.59c.07-.2.19-.4.34-.58.16-.2.37-.37.62-.53.25-.17.55-.31.92-.43.37-.13.8-.23 1.28-.3.48-.08 1.04-.13 1.66-.14v-.48c0-.55-.12-.96-.35-1.22-.24-.27-.58-.4-1.02-.4a2.41 2.41 0 0 0-1.35.36l-.44.26a.86.86 0 0 1-.43.1.57.57 0 0 1-.35-.1.9.9 0 0 1-.24-.25l-.35-.63zm10.18.28c.25-.5.56-.88.91-1.16.35-.28.77-.42 1.25-.42.38 0 .68.08.91.25l-.13 1.48a.38.38 0 0 1-.11.2.32.32 0 0 1-.2.06c-.09 0-.2-.01-.36-.04a2.75 2.75 0 0 0-.46-.04c-.22 0-.42.03-.59.1-.17.06-.32.15-.46.27-.13.12-.25.27-.36.44-.1.17-.2.37-.29.58V80h-1.98v-8.2h1.16c.2 0 .35.03.43.1.08.07.13.2.16.39l.12.93zm8.44 3.28c-.57.02-1.05.07-1.44.14-.4.08-.7.17-.94.28-.23.11-.4.24-.5.4a.85.85 0 0 0-.15.48c0 .35.1.6.3.74.2.15.48.23.8.23.41 0 .76-.08 1.06-.22.3-.15.59-.37.87-.67V76.5zm-4.53-3.56a4.87 4.87 0 0 1 3.4-1.3c.49 0 .92.08 1.3.24a2.72 2.72 0 0 1 1.55 1.66c.14.39.2.81.2 1.28V80h-.89a.9.9 0 0 1-.43-.08c-.1-.06-.18-.17-.24-.34l-.18-.6c-.2.2-.4.35-.6.5a3.58 3.58 0 0 1-1.3.57 3.94 3.94 0 0 1-1.77-.06 2.1 2.1 0 0 1-.76-.42 1.89 1.89 0 0 1-.5-.7 2.47 2.47 0 0 1-.07-1.59c.07-.2.18-.4.34-.58.16-.2.36-.37.61-.53.25-.17.56-.31.93-.43.36-.13.79-.23 1.27-.3.49-.08 1.04-.13 1.67-.14v-.48c0-.55-.12-.96-.35-1.22-.24-.27-.58-.4-1.02-.4a2.41 2.41 0 0 0-1.35.36l-.44.26a.86.86 0 0 1-.43.1.57.57 0 0 1-.36-.1.9.9 0 0 1-.23-.25l-.35-.63zm10.16-.14c.17-.17.34-.32.52-.46a3.31 3.31 0 0 1 2.02-.68c.44 0 .84.08 1.19.23.34.15.63.37.87.64.23.28.4.6.52.99.12.38.18.8.18 1.26V80h-1.97v-5.22c0-.5-.12-.9-.35-1.17-.23-.27-.57-.41-1.04-.41-.35 0-.67.08-.96.23-.3.16-.59.37-.85.63V80h-1.98v-8.2h1.21c.26 0 .42.11.5.35l.14.65zm13.06.73a.98.98 0 0 1-.18.17.4.4 0 0 1-.24.07c-.1 0-.2-.03-.3-.1l-.34-.2a2.19 2.19 0 0 0-1.16-.3c-.35 0-.65.06-.91.19-.26.12-.48.3-.65.54-.18.23-.3.51-.4.85-.08.33-.12.7-.12 1.13 0 .44.05.83.14 1.17.1.34.23.63.4.86.18.23.4.4.64.53.25.12.54.18.85.18a2.1 2.1 0 0 0 1.26-.38l.35-.25c.1-.08.2-.12.33-.12a.4.4 0 0 1 .36.19l.57.72a3.57 3.57 0 0 1-1.51 1.06c-.28.1-.56.17-.85.22-.3.04-.58.06-.87.06a3.38 3.38 0 0 1-2.6-1.11c-.34-.36-.6-.8-.8-1.33-.2-.53-.3-1.13-.3-1.8 0-.6.1-1.16.27-1.68a3.5 3.5 0 0 1 2.01-2.22 4.3 4.3 0 0 1 1.71-.32c.61 0 1.15.1 1.61.3.46.2.88.48 1.25.85l-.52.72zm7.12 1.42c0-.25-.04-.5-.11-.72a1.72 1.72 0 0 0-.33-.6 1.5 1.5 0 0 0-.54-.4c-.23-.1-.48-.15-.78-.15-.57 0-1.02.16-1.34.49a2.4 2.4 0 0 0-.63 1.38h3.73zm-3.77 1.2c.03.42.1.78.22 1.09.12.3.27.56.47.76.19.2.42.35.68.44.26.1.56.15.88.15.32 0 .6-.04.82-.11.24-.07.44-.16.61-.25l.46-.25a.77.77 0 0 1 .38-.1c.16 0 .29.05.37.18l.56.72a3.3 3.3 0 0 1-.73.64 4.13 4.13 0 0 1-1.76.64c-.3.04-.6.06-.89.06-.57 0-1.1-.1-1.6-.28-.48-.2-.9-.47-1.27-.84a3.94 3.94 0 0 1-.86-1.38 5.32 5.32 0 0 1-.04-3.48 3.67 3.67 0 0 1 2.02-2.16 4.08 4.08 0 0 1 1.65-.32c.52 0 1 .09 1.44.25a3.12 3.12 0 0 1 1.86 1.9c.18.46.27.98.27 1.57 0 .3-.03.5-.1.6-.06.11-.18.16-.36.16h-5.08zM617.08 83.7H395.4v-.8h221.68z"/>
    </g>
    <path fill="#3E5667" fill-rule="nonzero" d="M10.22 166.2V177H8.47v-4.8H3.04v4.8H1.28v-10.8h1.76v4.73h5.43v-4.73h1.75zm8.9 3.15l-4.22 9.83a.8.8 0 0 1-.2.26c-.07.07-.2.1-.35.1h-1.2l1.41-3.06-3.12-7.13h1.4c.14 0 .25.03.32.1.07.06.12.13.16.22l1.82 4.34a8.07 8.07 0 0 1 .23.75 35.79 35.79 0 0 1 .26-.76l1.75-4.34a.5.5 0 0 1 .45-.31h1.29zm2.65 5.73c.23.29.47.5.74.61.27.12.56.18.89.18.63 0 1.12-.23 1.47-.7.36-.45.53-1.14.53-2.05 0-.47-.04-.87-.12-1.2-.08-.33-.2-.6-.34-.81a1.33 1.33 0 0 0-.55-.46 2.03 2.03 0 0 0-1.79.12c-.3.18-.57.43-.83.76v3.55zm-.08-4.62c.32-.38.68-.68 1.1-.9.4-.24.87-.35 1.41-.35a2.52 2.52 0 0 1 2.07 1.01c.25.33.45.74.58 1.23a6.19 6.19 0 0 1-.02 3.25c-.15.49-.37.91-.65 1.27a3.03 3.03 0 0 1-2.4 1.14 2.7 2.7 0 0 1-1.16-.22c-.3-.14-.6-.34-.85-.6v3.25h-1.61v-10.19h.98c.22 0 .35.1.41.3l.14.81zm11.96 1.85c0-.27-.04-.52-.12-.75-.08-.23-.2-.44-.34-.6-.15-.18-.34-.32-.56-.41a1.9 1.9 0 0 0-.77-.15c-.59 0-1.04.17-1.38.5-.34.34-.55.8-.64 1.41h3.8zm-3.85 1c.02.43.08.8.2 1.12.12.32.27.58.46.8.2.2.42.36.7.46a2.73 2.73 0 0 0 1.71.05 3.84 3.84 0 0 0 1.03-.48c.12-.08.23-.11.33-.11.13 0 .23.05.3.15l.46.59c-.2.23-.4.41-.65.57a3.76 3.76 0 0 1-1.6.59c-.28.04-.56.06-.83.06a4 4 0 0 1-1.47-.26 3.28 3.28 0 0 1-1.18-.79c-.33-.34-.6-.77-.78-1.28a5.1 5.1 0 0 1-.03-3.25 3.38 3.38 0 0 1 1.86-2c.45-.2.95-.3 1.52-.3.47 0 .9.08 1.3.23a2.86 2.86 0 0 1 1.72 1.75c.16.43.24.92.24 1.46 0 .25-.02.42-.08.5-.06.09-.15.13-.3.13H29.8zm8.32-2.54c.24-.49.52-.87.87-1.15.34-.27.74-.41 1.22-.41.16 0 .32.02.46.05.15.04.28.1.4.17l-.12 1.22c-.02.08-.05.14-.1.17a.27.27 0 0 1-.16.05c-.08 0-.18-.01-.32-.04a2.3 2.3 0 0 0-.45-.04c-.22 0-.42.03-.6.1-.17.06-.32.16-.46.28-.14.13-.26.28-.36.46-.1.18-.2.38-.3.62V177h-1.6v-7.65h.93c.17 0 .29.03.35.1.07.06.11.16.14.32l.1 1zm5.65-4.87V177h-1.61v-11.1h1.61zm3.67 3.45V177h-1.6v-7.65h1.6zm.28-2.31a1.08 1.08 0 0 1-.67.99 1.05 1.05 0 0 1-1.4-.58 1.03 1.03 0 0 1 0-.83 1.08 1.08 0 0 1 .56-.57 1.05 1.05 0 0 1 .83 0 1.15 1.15 0 0 1 .59.57c.06.13.09.27.09.42zm3.27 3.32a4.89 4.89 0 0 1 1.07-.82 3.03 3.03 0 0 1 2.48-.1c.32.14.59.34.8.6.22.25.39.55.5.91a4 4 0 0 1 .16 1.18V177h-1.6v-4.87c0-.51-.12-.91-.36-1.2-.24-.28-.6-.43-1.08-.43-.36 0-.7.09-1 .25-.31.17-.6.4-.87.68V177h-1.61v-7.65h.97c.22 0 .36.1.42.3l.12.71zm8.52-4.46v6.44h.34a.7.7 0 0 0 .27-.05.6.6 0 0 0 .22-.19l2.14-2.45a.8.8 0 0 1 .25-.22.7.7 0 0 1 .35-.08h1.46l-2.58 2.91c-.15.2-.32.35-.5.47.1.06.19.14.27.23l.21.3L64.7 177h-1.43a.8.8 0 0 1-.34-.06.58.58 0 0 1-.24-.24l-2.21-3a.57.57 0 0 0-.23-.22.9.9 0 0 0-.34-.05h-.4V177h-1.6v-11.1h1.6z"/>
    <path fill="#FFF" d="M522.07 77.3h5.06v3.89h5.07v1.29h2.53v1.3H536v6.48h-1.27v2.59h-1.26v3.89h-2.54v-1.3h-1.26v1.3h-6.34v-2.59h-1.26v-1.3h-1.27v-1.29h-1.27v-2.6h-1.26v-1.29H517v-2.6h1.27v-1.29h2.53v1.29h1.27z"/>
    <path fill="#000" d="M534.73 88.96H536v1.3h-1.27zM534.73 86.37H536v1.3h-1.27z"/>
    <path fill="#000" d="M534.73 87.67H536v1.29h-1.27zM534.73 85.07H536v1.3h-1.27z"/>
    <path fill="#000" d="M534.73 83.78H536v1.29h-1.27zM533.47 90.26h1.26v1.3h-1.26zM533.47 91.56h1.26v1.29h-1.26zM533.47 82.48h1.26v1.3h-1.26zM532.2 94.15h1.27v1.29h-1.27z"/>
    <path fill="#000" d="M532.2 95.44h1.27v1.3h-1.27zM532.2 92.85h1.27v1.3h-1.27zM532.2 82.48h1.27v1.3h-1.27zM532.2 83.78h1.27v1.29h-1.27zM530.93 95.44h1.27v1.3h-1.27zM530.93 90.26h1.27v1.3h-1.27zM530.93 91.56h1.27v1.29h-1.27zM530.93 88.96h1.27v1.3h-1.27z"/>
    <path fill="#000" d="M530.93 87.67h1.27v1.29h-1.27zM530.93 81.19h1.27v1.29h-1.27zM529.67 94.15h1.26v1.29h-1.26zM529.67 82.48h1.26v1.3h-1.26zM529.67 81.19h1.26v1.29h-1.26zM529.67 83.78h1.26v1.29h-1.26zM528.4 95.44h1.27v1.3h-1.27zM528.4 90.26h1.27v1.3h-1.27zM528.4 91.56h1.27v1.29h-1.27zM528.4 88.96h1.27v1.3h-1.27z"/>
    <path fill="#000" d="M528.4 87.67h1.27v1.29h-1.27zM528.4 81.19h1.27v1.29h-1.27zM527.13 95.44h1.27v1.3h-1.27zM527.13 81.19h1.27v1.29h-1.27zM525.87 95.44h1.26v1.3h-1.26zM525.87 90.26h1.26v1.3h-1.26zM525.87 91.56h1.26v1.29h-1.26zM525.87 88.96h1.26v1.3h-1.26z"/>
    <path fill="#000" d="M525.87 87.67h1.26v1.29h-1.26zM525.87 82.48h1.26v1.3h-1.26zM525.87 79.89h1.26v1.3h-1.26zM525.87 81.19h1.26v1.29h-1.26zM525.87 83.78h1.26v1.29h-1.26zM525.87 78.59h1.26v1.3h-1.26zM525.87 77.3h1.26v1.29h-1.26zM524.6 95.44h1.27v1.3h-1.27zM524.6 76h1.27v1.3h-1.27zM523.33 94.15h1.27v1.29h-1.27z"/>
    <path fill="#000" d="M523.33 95.44h1.27v1.3h-1.27zM523.33 76h1.27v1.3h-1.27zM522.07 92.85h1.26v1.3h-1.26zM522.07 86.37h1.26v1.3h-1.26zM522.07 82.48h1.26v1.3h-1.26zM522.07 79.89h1.26v1.3h-1.26zM522.07 81.19h1.26v1.29h-1.26zM522.07 85.07h1.26v1.3h-1.26z"/>
    <path fill="#000" d="M522.07 83.78h1.26v1.29h-1.26zM522.07 78.59h1.26v1.3h-1.26zM522.07 77.3h1.26v1.29h-1.26zM520.8 91.56h1.27v1.29h-1.27zM520.8 85.07h1.27v1.3h-1.27zM519.53 90.26h1.27v1.3h-1.27zM519.53 88.96h1.27v1.3h-1.27zM519.53 83.78h1.27v1.29h-1.27zM518.27 87.67h1.26v1.29h-1.26zM518.27 83.78h1.26v1.29h-1.26zM517 86.37h1.27v1.3H517zM517 85.07h1.27v1.3H517z"/>
  </g>
</svg>