<?xml version="1.0" encoding="utf-8"?>
<!-- Generator: Adobe Illustrator 22.1.0, SVG Export Plug-In . SVG Version: 6.00 Build 0)  -->
<svg version="1.1" id="Layer_1" xmlns="http://www.w3.org/2000/svg" xmlns:xlink="http://www.w3.org/1999/xlink" x="0px" y="0px"
	 viewBox="0 0 246 174.5" style="enable-background:new 0 0 246 174.5;" xml:space="preserve">
<style type="text/css">
	.st0{fill:#C22439;}
	.st1{fill:#FFFFFF;}
</style>
<title>Nelson</title>
<desc>Created with Sketch.</desc>
<g id="Page-1">
	<g id="Nelson">
		<path id="Combined-Shape" class="st0" d="M246,106.5l-108,63.4v0l-8,4.7v-46.6l0,0l0,0l45-26.4l7.7,4.7L138,132.5v28.1l92.8-54.5
			L138,51.7v0l-2.5-1.4L130,47v0l0,0V0l0,0v0l116,68v9.3L138,14v28.4l108,63.4V106.5z"/>
		<path id="Combined-Shape_1_" class="st1" d="M0,69.2L118,0v0l0,0v46.9l0,0l0,0l-5.5,3.2l-2.5,1.4v0l-92.8,54.5l92.8,54.5v-28.1
			l-44.7-26.2l7.7-4.7l45,26.4l0,0l0,0v46.6l-8-4.7v0L1.8,106.4l-0.4-0.3l0,0l0,0L110,42.4V14L0,78.5V69.2z"/>
	</g>
</g>
</svg>
