<?xml version="1.0" encoding="UTF-8"?>
<svg width="727px" height="285px" viewBox="0 0 727 285" version="1.1" xmlns="http://www.w3.org/2000/svg" xmlns:xlink="http://www.w3.org/1999/xlink">
    <!-- Generator: Sketch 60 (88103) - https://sketch.com -->
    <title>Group</title>
    <desc>Created with Sketch.</desc>
    <defs>
        <path d="M0,0 L550,0 C552.209139,-4.05812251e-16 554,1.790861 554,4 L554,104 C554,106.209139 552.209139,108 550,108 L0,108 L0,108 L0,0 Z" id="path-1"></path>
        <filter x="-0.5%" y="-2.8%" width="101.1%" height="105.6%" filterUnits="objectBoundingBox" id="filter-2">
            <feOffset dx="6" dy="0" in="SourceAlpha" result="shadowOffsetInner1"></feOffset>
            <feComposite in="shadowOffsetInner1" in2="SourceAlpha" operator="arithmetic" k2="-1" k3="1" result="shadowInnerInner1"></feComposite>
            <feColorMatrix values="0 0 0 0 0.22745098   0 0 0 0 0.560784314   0 0 0 0 0.866666667  0 0 0 1 0" type="matrix" in="shadowInnerInner1"></feColorMatrix>
        </filter>
    </defs>
    <g id="Docs-Images" stroke="none" stroke-width="1" fill="none" fill-rule="evenodd">
        <g id="Alerts" transform="translate(-201.000000, -435.000000)">
            <g id="Group" transform="translate(201.000000, 435.000000)">
                <g id="Group-33">
                    <rect id="Rectangle" stroke="#B8C7D2" fill="#FFFFFF" x="1.5" y="0.5" width="725" height="247"></rect>
                    <g id="Group-6" transform="translate(87.000000, 70.000000)">
                        <g id="Rectangle">
                            <use fill="#ECF8FF" fill-rule="evenodd" xlink:href="#path-1"></use>
                            <use fill="black" fill-opacity="1" filter="url(#filter-2)" xlink:href="#path-1"></use>
                        </g>
                        <path d="M534.84699,21 L537.617476,23.7704855 C538.127508,24.2805178 538.127508,25.1074435 537.617476,25.6174758 C537.107443,26.1275081 536.280518,26.1275081 535.770485,25.6174758 L533,22.8469903 L530.229515,25.6174758 C529.719482,26.1275081 528.892557,26.1275081 528.382524,25.6174758 C527.872492,25.1074435 527.872492,24.2805178 528.382524,23.7704855 L531.15301,21 L528.382524,18.2295145 C527.872492,17.7194822 527.872492,16.8925565 528.382524,16.3825242 C528.892557,15.8724919 529.719482,15.8724919 530.229515,16.3825242 L533,19.1530097 L535.770485,16.3825242 C536.280518,15.8724919 537.107443,15.8724919 537.617476,16.3825242 C538.127508,16.8925565 538.127508,17.7194822 537.617476,18.2295145 L534.84699,21 Z" id="Path" fill="#3A8FDD"></path>
                        <text id="Alert-Title" font-family="Lato-Bold, Lato" font-size="16" font-weight="bold" fill="#274776">
                            <tspan x="47" y="38">Alert Title</tspan>
                        </text>
                        <text id="This-is-the-alert-de" font-family="Lato-Semibold, Lato" font-size="14" font-weight="500" line-spacing="21" fill="#2A77C7">
                            <tspan x="26" y="60">This is the alert description. It provides context to the user, bringing attention to </tspan>
                            <tspan x="26" y="81">information that needs to be consumed.</tspan>
                        </text>
                    </g>
                    <path d="M120,93 C115.584,93 112,96.584 112,101 C112,105.416 115.584,109 120,109 C124.416,109 128,105.416 128,101 C128,96.584 124.416,93 120,93 Z M120.8,105 L119.2,105 L119.2,100.2 L120.8,100.2 L120.8,105 Z M120.8,98.6 L119.2,98.6 L119.2,97 L120.8,97 L120.8,98.6 Z" id="Icons/Action/ic_info_24px" fill="#274776" fill-rule="nonzero"></path>
                    <text id="The-Alert-Component." font-family="Lato-Medium, Lato" font-size="15" font-weight="400" line-spacing="24" fill="#3E5667">
                        <tspan x="0" y="279">The Alert Component.</tspan>
                    </text>
                </g>
                <rect id="Rectangle" fill="#B8C7D2" x="369.5" y="52" width="1" height="17"></rect>
                <rect id="Rectangle" fill="#3E5667" x="360.5" y="35" width="19.2" height="19.2" rx="9.6"></rect>
                <text id="1" font-family="Lato-Heavy, Lato" font-size="9.6" font-weight="600" fill="#FFFFFF">
                    <tspan x="367.316" y="48">1</tspan>
                </text>
                <text id="Container" font-family="Lato-Medium, Lato" font-size="15" font-weight="400" fill="#233745">
                    <tspan x="386.5" y="49">Container</tspan>
                </text>
                <circle id="Oval" fill="#3E5667" cx="370" cy="70" r="3"></circle>
                <rect id="Rectangle" fill="#B8C7D2" x="199.5" y="155" width="1" height="57"></rect>
                <rect id="Rectangle" fill="#3E5667" x="190.5" y="196" width="19.2" height="19.2" rx="9.6"></rect>
                <text id="3" font-family="Lato-Heavy, Lato" font-size="9.6" font-weight="600" fill="#FFFFFF">
                    <tspan x="197.316" y="209">3</tspan>
                </text>
                <text id="Description" font-family="Lato-Medium, Lato" font-size="15" font-weight="400" fill="#233745">
                    <tspan x="216.5" y="210">Description</tspan>
                </text>
                <circle id="Oval" fill="#3E5667" cx="200" cy="153" r="3"></circle>
                <rect id="Rectangle" fill="#B8C7D2" x="189.5" y="52" width="1" height="40"></rect>
                <rect id="Rectangle" fill="#3E5667" x="180.5" y="35" width="19.2" height="19.2" rx="9.6"></rect>
                <text id="2" font-family="Lato-Heavy, Lato" font-size="9.6" font-weight="600" fill="#FFFFFF">
                    <tspan x="187.316" y="48">2</tspan>
                </text>
                <text id="Title" font-family="Lato-Medium, Lato" font-size="15" font-weight="400" fill="#233745">
                    <tspan x="206.5" y="49">Title</tspan>
                </text>
                <circle id="Oval" fill="#3E5667" cx="190" cy="90" r="3"></circle>
                <rect id="Rectangle" fill="#B8C7D2" x="119.5" y="52" width="1" height="40"></rect>
                <rect id="Rectangle" fill="#3E5667" x="110.5" y="35" width="19.2" height="19.2" rx="9.6"></rect>
                <text id="4" font-family="Lato-Heavy, Lato" font-size="9.6" font-weight="600" fill="#FFFFFF">
                    <tspan x="117.316" y="48">4</tspan>
                </text>
                <text id="Icon" font-family="Lato-Medium, Lato" font-size="15" font-weight="400" fill="#233745">
                    <tspan x="76.5" y="49">Icon</tspan>
                </text>
                <circle id="Oval" fill="#3E5667" cx="120" cy="90" r="3"></circle>
            </g>
        </g>
    </g>
</svg>