<svg xmlns="http://www.w3.org/2000/svg" xmlns:xlink="http://www.w3.org/1999/xlink" viewBox="0 0 727 225">
  <defs>
    <filter id="b" width="101.1%" height="105.6%" x="-.5%" y="-2.8%" filterUnits="objectBoundingBox">
      <feOffset dx="6" in="SourceAlpha" result="shadowOffsetInner1"/>
      <feComposite in="shadowOffsetInner1" in2="SourceAlpha" k2="-1" k3="1" operator="arithmetic" result="shadowInnerInner1"/>
      <feColorMatrix in="shadowInnerInner1" values="0 0 0 0 0.22745098 0 0 0 0 0.560784314 0 0 0 0 0.866666667 0 0 0 1 0"/>
    </filter>
    <path id="a" d="M87 40h550a4 4 0 014 4v100a4 4 0 01-4 4H87V40z"/>
  </defs>
  <g fill="none" fill-rule="evenodd">
    <path fill="#FFF" stroke="#B8C7D2" d="M1.5.5h725v187H1.5z"/>
    <g>
      <use fill="#ECF8FF" xlink:href="#a"/>
      <use fill="#000" filter="url(#b)" xlink:href="#a"/>
    </g>
    <path fill="#3A8FDD" d="M621.85 61l2.77 2.77a1.3 1.3 0 01-1.85 1.85L620 62.85l-2.77 2.77a1.3 1.3 0 01-1.85-1.85l2.77-2.77-2.77-2.77a1.3 1.3 0 011.85-1.85l2.77 2.77 2.77-2.77a1.3 1.3 0 011.85 1.85L621.85 61z"/>
    <text fill="#274776" font-family="Lato-Bold, Lato" font-size="16" font-weight="bold">
      <tspan x="134" y="78">Alert Title</tspan>
    </text>
    <text fill="#2A77C7" font-family="Lato-Semibold, Lato" font-size="14" font-weight="500">
      <tspan x="113" y="100">This is the alert description. It provides context to the user, bringing attention to </tspan> <tspan x="113" y="121">information that needs to be consumed.</tspan>
    </text>
    <path fill="#274776" fill-rule="nonzero" d="M120 63a8 8 0 100 16 8 8 0 000-16zm.8 12h-1.6v-4.8h1.6V75zm0-6.4h-1.6V67h1.6v1.6z"/>
    <text fill="#3E5667" font-family="Lato-Medium, Lato" font-size="15" font-weight="400">
      <tspan x="0" y="219">The Alert Component.</tspan>
    </text>
  </g>
</svg>