<svg xmlns="http://www.w3.org/2000/svg" xmlns:xlink="http://www.w3.org/1999/xlink" viewBox="0 0 726 605">
  <defs>
    <filter id="b" width="101.1%" height="105.6%" x="-.5%" y="-2.8%" filterUnits="objectBoundingBox">
      <feOffset dx="6" in="SourceAlpha" result="shadowOffsetInner1"/>
      <feComposite in="shadowOffsetInner1" in2="SourceAlpha" k2="-1" k3="1" operator="arithmetic" result="shadowInnerInner1"/>
      <feColorMatrix in="shadowInnerInner1" values="0 0 0 0 0.461992157 0 0 0 0 0.780392157 0 0 0 0 0.405803922 0 0 0 1 0"/>
    </filter>
    <filter id="d" width="101.1%" height="105.6%" x="-.5%" y="-2.8%" filterUnits="objectBoundingBox">
      <feOffset dx="6" in="SourceAlpha" result="shadowOffsetInner1"/>
      <feComposite in="shadowOffsetInner1" in2="SourceAlpha" k2="-1" k3="1" operator="arithmetic" result="shadowInnerInner1"/>
      <feColorMatrix in="shadowInnerInner1" values="0 0 0 0 0.811764706 0 0 0 0 0.576470588 0 0 0 0 0.156862745 0 0 0 1 0"/>
    </filter>
    <filter id="f" width="101.1%" height="105.6%" x="-.5%" y="-2.8%" filterUnits="objectBoundingBox">
      <feOffset dx="6" in="SourceAlpha" result="shadowOffsetInner1"/>
      <feComposite in="shadowOffsetInner1" in2="SourceAlpha" k2="-1" k3="1" operator="arithmetic" result="shadowInnerInner1"/>
      <feColorMatrix in="shadowInnerInner1" values="0 0 0 0 0.956862745 0 0 0 0 0.287058824 0 0 0 0 0.287058824 0 0 0 1 0"/>
    </filter>
    <filter id="h" width="101.1%" height="105.6%" x="-.5%" y="-2.8%" filterUnits="objectBoundingBox">
      <feOffset dx="6" in="SourceAlpha" result="shadowOffsetInner1"/>
      <feComposite in="shadowOffsetInner1" in2="SourceAlpha" k2="-1" k3="1" operator="arithmetic" result="shadowInnerInner1"/>
      <feColorMatrix in="shadowInnerInner1" values="0 0 0 0 0.22745098 0 0 0 0 0.560784314 0 0 0 0 0.866666667 0 0 0 1 0"/>
    </filter>
    <path id="a" d="M83 164h550a4 4 0 014 4v100a4 4 0 01-4 4H83V164z"/>
    <path id="c" d="M83 288h550a4 4 0 014 4v100a4 4 0 01-4 4H83V288z"/>
    <path id="e" d="M83 412h550a4 4 0 014 4v100a4 4 0 01-4 4H83V412z"/>
    <path id="g" d="M83 40h550a4 4 0 014 4v100a4 4 0 01-4 4H83V40z"/>
  </defs>
  <g fill="none" fill-rule="evenodd">
    <path fill="#FFF" stroke="#B8C7D2" d="M.5.5h725v559H.5z"/>
    <g>
      <use fill="#F4FFEF" xlink:href="#a"/>
      <use fill="#000" filter="url(#b)" xlink:href="#a"/>
    </g>
    <path fill="#479442" d="M617.85 185l2.77 2.77a1.3 1.3 0 01-1.85 1.85l-2.77-2.77-2.77 2.77a1.3 1.3 0 01-1.85-1.85l2.77-2.77-2.77-2.77a1.3 1.3 0 011.85-1.85l2.77 2.77 2.77-2.77a1.3 1.3 0 011.85 1.85l-2.77 2.77z"/>
    <text fill="#3B612C" font-family="Lato-Bold, Lato" font-size="16" font-weight="bold">
      <tspan x="133" y="202">Success Alert</tspan>
    </text>
    <text fill="#479442" font-family="Lato-Semibold, Lato" font-size="14" font-weight="500">
      <tspan x="109" y="224">This is the alert description. It provides context to the user, bringing attention to </tspan> <tspan x="109" y="245">information that needs to be consumed.</tspan>
    </text>
    <path fill="#3B6F33" fill-rule="nonzero" d="M121.44 189h-10.88c-.87 0-1.56.7-1.56 1.56v10.88c0 .86.7 1.56 1.56 1.56h10.88c.87 0 1.56-.7 1.56-1.56v-10.88c0-.86-.7-1.56-1.56-1.56zm-7 10.89l-3.88-3.89 1.1-1.1 2.78 2.79 5.9-5.9 1.1 1.1-7 7z"/>
    <g>
      <use fill="#FFE" xlink:href="#c"/>
      <use fill="#000" filter="url(#d)" xlink:href="#c"/>
    </g>
    <path fill="#CF9328" d="M617.85 309l2.77 2.77a1.3 1.3 0 01-1.85 1.85l-2.77-2.77-2.77 2.77a1.3 1.3 0 01-1.85-1.85l2.77-2.77-2.77-2.77a1.3 1.3 0 011.85-1.85l2.77 2.77 2.77-2.77a1.3 1.3 0 011.85 1.85l-2.77 2.77z"/>
    <text fill="#8C4F17" font-family="Lato-Bold, Lato" font-size="16" font-weight="bold">
      <tspan x="136" y="326">Warning Alert</tspan>
    </text>
    <text fill="#AE6D1D" font-family="Lato-Semibold, Lato" font-size="14" font-weight="500">
      <tspan x="109" y="348">This is the alert description. It provides context to the user, bringing attention to </tspan> <tspan x="109" y="369">information that needs to be consumed.</tspan>
    </text>
    <path fill="#8C4F17" fill-rule="nonzero" d="M109 327h17l-8.5-15-8.5 15zm9.27-2.37h-1.54v-1.58h1.54v1.58zm0-3.16h-1.54v-3.15h1.54v3.15z"/>
    <g>
      <use fill="#FFF3F4" xlink:href="#e"/>
      <use fill="#000" filter="url(#f)" xlink:href="#e"/>
    </g>
    <path fill="#BE2B2B" d="M617.85 433l2.77 2.77a1.3 1.3 0 01-1.85 1.85l-2.77-2.77-2.77 2.77a1.3 1.3 0 01-1.85-1.85l2.77-2.77-2.77-2.77a1.3 1.3 0 011.85-1.85l2.77 2.77 2.77-2.77a1.3 1.3 0 011.85 1.85l-2.77 2.77z"/>
    <text fill="#902727" font-family="Lato-Bold, Lato" font-size="16" font-weight="bold">
      <tspan x="129" y="450">Danger Alert</tspan>
    </text>
    <text fill="#E13637" font-family="Lato-Semibold, Lato" font-size="14" font-weight="500">
      <tspan x="109" y="472">This is the alert description. It provides context to the user, bringing attention to </tspan> <tspan x="109" y="493">information that needs to be consumed.</tspan>
    </text>
    <path fill="#902727" fill-rule="nonzero" d="M114.75 445.75h1.5v1.5h-1.5v-1.5zm0-6h1.5v4.5h-1.5v-4.5zm.74-3.75a7.5 7.5 0 10.01 15 7.5 7.5 0 000-15zm.01 13.5a6 6 0 110-12 6 6 0 010 12z"/>
    <g>
      <use fill="#ECF8FF" xlink:href="#g"/>
      <use fill="#000" filter="url(#h)" xlink:href="#g"/>
    </g>
    <path fill="#3A8FDD" d="M617.85 61l2.77 2.77a1.3 1.3 0 01-1.85 1.85L616 62.85l-2.77 2.77a1.3 1.3 0 01-1.85-1.85l2.77-2.77-2.77-2.77a1.3 1.3 0 011.85-1.85l2.77 2.77 2.77-2.77a1.3 1.3 0 011.85 1.85L617.85 61z"/>
    <text fill="#274776" font-family="Lato-Bold, Lato" font-size="16" font-weight="bold">
      <tspan x="130" y="78">Info Alert</tspan>
    </text>
    <text fill="#2A77C7" font-family="Lato-Semibold, Lato" font-size="14" font-weight="500">
      <tspan x="109" y="100">This is the alert description. It provides context to the user, bringing attention to </tspan> <tspan x="109" y="121">information that needs to be consumed.</tspan>
    </text>
    <path fill="#274776" fill-rule="nonzero" d="M116 63a8 8 0 100 16 8 8 0 000-16zm.8 12h-1.6v-4.8h1.6V75zm0-6.4h-1.6V67h1.6v1.6z"/>
    <text fill="#3E5667" font-family="Lato-Medium, Lato" font-size="15" font-weight="400">
      <tspan x="0" y="599">The Alert Component.</tspan>
    </text>
  </g>
</svg>