<svg xmlns="http://www.w3.org/2000/svg" xmlns:xlink="http://www.w3.org/1999/xlink" width="16" height="16" viewBox="0 0 16 16">
  <defs>
    <path id="format-list-bulleted-a" d="M6.22222221,8.88888889 L14.2222222,8.88888889 L14.2222222,7.11111111 L6.22222221,7.11111111 L6.22222221,8.88888889 Z M6.22222221,2.66666663 L6.22222221,4.44444442 L14.2222222,4.44444442 L14.2222222,2.66666663 L6.22222221,2.66666663 Z M6.22222221,13.3333334 L14.2222222,13.3333334 L14.2222222,11.5555556 L6.22222221,11.5555556 L6.22222221,13.3333334 Z M2.66666663,8.88888889 L4.44444442,8.88888889 L4.44444442,7.11111111 L2.66666663,7.11111111 L2.66666663,8.88888889 Z M2.66666663,2.66666663 L2.66666663,4.44444442 L4.44444442,4.44444442 L4.44444442,2.66666663 L2.66666663,2.66666663 Z M2.66666663,13.3333334 L4.44444442,13.3333334 L4.44444442,11.5555556 L2.66666663,11.5555556 L2.66666663,13.3333334 Z"/>
  </defs>
  <g fill="none" fill-rule="evenodd">
    <mask id="format-list-bulleted-b" fill="#fff">
      <use xlink:href="#format-list-bulleted-a"/>
    </mask>
    <g fill="CurrentColor" mask="url(#format-list-bulleted-b)">
      <rect width="16" height="16"/>
    </g>
  </g>
</svg>
