<svg xmlns="http://www.w3.org/2000/svg" xmlns:xlink="http://www.w3.org/1999/xlink" width="16" height="16" viewBox="0 0 16 16">
  <defs>
    <path id="cast-connected-a" d="M0.666666621,12 L0.666666621,14 L2.66666662,14 C2.66666662,12.8933334 1.77333329,12 0.666666621,12 Z M0.666666621,9.33333334 L0.666666621,10.6666667 C2.50666663,10.6666667 3.99999997,12.16 3.99999997,14 L5.33333332,14 C5.33333332,11.42 3.24666664,9.33333334 0.666666621,9.33333334 Z M12.6666667,4.66666665 L3.3333333,4.66666665 L3.3333333,5.75333332 C5.97333332,6.60666666 8.06,8.69333334 8.91333334,11.3333334 L12.6666667,11.3333334 L12.6666667,4.66666665 Z M0.666666621,6.66666666 L0.666666621,8 C3.97999997,8 6.66666662,10.6866667 6.66666662,14 L8,14 C8,9.94666668 4.71333331,6.66666666 0.666666621,6.66666666 Z M14,1.99999996 L1.99999996,1.99999996 C1.26666662,1.99999996 0.666666621,2.59999997 0.666666621,3.3333333 L0.666666621,5.33333332 L1.99999996,5.33333332 L1.99999996,3.3333333 L14,3.3333333 L14,12.6666667 L9.33333334,12.6666667 L9.33333334,14 L14,14 C14.7333334,14 15.3333334,13.4 15.3333334,12.6666667 L15.3333334,3.3333333 C15.3333334,2.59999997 14.7333334,1.99999996 14,1.99999996 Z"/>
  </defs>
  <g fill="none" fill-rule="evenodd">
    <mask id="cast-connected-b" fill="#fff">
      <use xlink:href="#cast-connected-a"/>
    </mask>
    <g fill="CurrentColor" mask="url(#cast-connected-b)">
      <rect width="16" height="16"/>
    </g>
  </g>
</svg>
