<svg xmlns="http://www.w3.org/2000/svg" xmlns:xlink="http://www.w3.org/1999/xlink" width="16" height="16" viewBox="0 0 16 16">
  <defs>
    <path id="devices-other-a" d="M1.99999996,3.99999997 L14,3.99999997 L14,2.66666663 L1.99999996,2.66666663 C1.26666662,2.66666663 0.666666621,3.26666664 0.666666621,3.99999997 L0.666666621,12 C0.666666621,12.7333334 1.26666662,13.3333334 1.99999996,13.3333334 L4.66666662,13.3333334 L4.66666662,12 L1.99999996,12 L1.99999996,3.99999997 Z M8.66666667,8 L5.99999999,8 L5.99999999,9.18666667 C5.59333332,9.55333334 5.33333332,10.0733333 5.33333332,10.6666667 C5.33333332,11.26 5.59333332,11.78 5.99999999,12.1466667 L5.99999999,13.3333334 L8.66666667,13.3333334 L8.66666667,12.1466667 C9.07333334,11.78 9.33333332,11.2533334 9.33333332,10.6666667 C9.33333332,10.08 9.07333334,9.55333334 8.66666667,9.18666667 L8.66666667,8 Z M7.33333332,11.6666667 C6.77999999,11.6666667 6.33333332,11.22 6.33333332,10.6666667 C6.33333332,10.1133333 6.77999999,9.66666668 7.33333332,9.66666668 C7.88666667,9.66666668 8.33333332,10.1133333 8.33333332,10.6666667 C8.33333332,11.22 7.88666667,11.6666667 7.33333332,11.6666667 Z M14.6666667,5.33333332 L10.6666667,5.33333332 C10.3333333,5.33333332 10,5.66666665 10,5.99999999 L10,12.6666667 C10,13 10.3333333,13.3333333 10.6666667,13.3333333 L14.6666667,13.3333333 C15,13.3333333 15.3333334,13 15.3333334,12.6666667 L15.3333334,5.99999999 C15.3333334,5.66666665 15,5.33333332 14.6666667,5.33333332 Z M14,12 L11.3333334,12 L11.3333334,6.66666666 L14,6.66666666 L14,12 Z"/>
  </defs>
  <g fill="none" fill-rule="evenodd">
    <mask id="devices-other-b" fill="#fff">
      <use xlink:href="#devices-other-a"/>
    </mask>
    <g fill="CurrentColor" mask="url(#devices-other-b)">
      <rect width="16" height="16"/>
    </g>
  </g>
</svg>
