<svg xmlns="http://www.w3.org/2000/svg" xmlns:xlink="http://www.w3.org/1999/xlink" width="16" height="16" viewBox="0 0 16 16">
  <defs>
    <path id="laptop-windows-a" d="M13.3333334,12 L13.3333334,11.3333334 C14.0666667,11.3333334 14.66,10.7333334 14.66,9.99999996 L14.6666667,3.3333333 C14.6666667,2.59999997 14.0666667,1.99999996 13.3333334,1.99999996 L2.66666663,1.99999996 C1.9333333,1.99999996 1.33333329,2.59999997 1.33333329,3.3333333 L1.33333329,9.99999996 C1.33333329,10.7333334 1.9333333,11.3333334 2.66666663,11.3333334 L2.66666663,12 L-5.00000006e-08,12 L-5.00000006e-08,13.3333334 L15.9999999,13.3333334 L15.9999999,12 L13.3333334,12 Z M2.66666663,3.3333333 L13.3333334,3.3333333 L13.3333334,10 L2.66666663,10 L2.66666663,3.3333333 Z"/>
  </defs>
  <g fill="none" fill-rule="evenodd">
    <mask id="laptop-windows-b" fill="#fff">
      <use xlink:href="#laptop-windows-a"/>
    </mask>
    <g fill="CurrentColor" mask="url(#laptop-windows-b)">
      <rect width="16" height="16"/>
    </g>
  </g>
</svg>
