<svg xmlns="http://www.w3.org/2000/svg" xmlns:xlink="http://www.w3.org/1999/xlink" width="16" height="16" viewBox="0 0 16 16">
  <defs>
    <path id="toys-a" d="M8,8 C8,5.99999999 9.66666668,4.33333331 11.6666667,4.33333331 C13.6666667,4.33333331 15.3333334,5.99999999 15.3333334,8 L8,8 Z M8,8 C8,10 6.33333332,11.6666667 4.33333331,11.6666667 C2.3333333,11.6666667 0.666666621,10 0.666666621,8 L8,8 Z M8,8 C5.99999999,8 4.33333331,6.33333332 4.33333331,4.33333331 C4.33333331,2.3333333 5.99999999,0.666666621 8,0.666666621 L8,8 Z M8,8 C10,8 11.6666667,9.66666668 11.6666667,11.6666667 C11.6666667,13.6666667 10,15.3333334 8,15.3333334 L8,8 Z"/>
  </defs>
  <g fill="none" fill-rule="evenodd">
    <mask id="toys-b" fill="#fff">
      <use xlink:href="#toys-a"/>
    </mask>
    <g fill="CurrentColor" mask="url(#toys-b)">
      <rect width="16" height="16"/>
    </g>
  </g>
</svg>
