<svg xmlns="http://www.w3.org/2000/svg" viewBox="0 0 726 181">
  <g fill="none" fill-rule="evenodd">
    <path fill="#3E5667" fill-rule="nonzero" d="M8.71 168.66H5.36V178H3.6v-9.34H.22v-1.46h8.5v1.46zm2.69 2.6c.32-.31.66-.56 1.04-.75a2.9 2.9 0 0 1 1.3-.28c.43 0 .8.07 1.11.21.32.14.59.34.8.6.22.25.39.55.5.91a4 4 0 0 1 .16 1.18V178h-1.6v-4.87c0-.51-.12-.91-.36-1.2-.24-.28-.6-.43-1.08-.43-.36 0-.7.09-1 .25-.31.17-.6.4-.87.68V178H9.79v-11.1h1.61v4.36zm11.82 2.05c0-.27-.04-.52-.12-.75-.07-.23-.19-.44-.34-.6-.15-.18-.33-.32-.56-.41a1.9 1.9 0 0 0-.77-.15c-.58 0-1.04.17-1.38.5-.33.34-.54.8-.63 1.41h3.8zm-3.85 1c.02.43.09.8.2 1.12.12.32.27.58.47.8.19.2.42.36.69.46a2.73 2.73 0 0 0 1.71.05 3.84 3.84 0 0 0 1.04-.48c.12-.08.22-.11.32-.11.14 0 .23.05.3.15l.46.59c-.19.23-.4.41-.64.57a3.76 3.76 0 0 1-1.6.59c-.29.04-.56.06-.83.06a4 4 0 0 1-1.48-.26 3.28 3.28 0 0 1-1.17-.79c-.34-.34-.6-.77-.78-1.28a5.1 5.1 0 0 1-.03-3.25 3.38 3.38 0 0 1 1.86-2c.44-.2.95-.3 1.52-.3.47 0 .9.08 1.3.23a2.86 2.86 0 0 1 1.71 1.75c.17.43.25.92.25 1.46 0 .25-.03.42-.09.5-.05.09-.15.13-.3.13h-4.9zm16.04-.36l-1.48-3.94c-.12-.31-.24-.7-.37-1.17a7.68 7.68 0 0 1-.36 1.17l-1.48 3.94h3.7zm3.33 4.05h-1.36a.57.57 0 0 1-.38-.12.76.76 0 0 1-.21-.28l-.9-2.39h-4.65l-.9 2.38c-.04.1-.11.2-.21.28a.56.56 0 0 1-.38.13H28.4l4.29-10.8h1.77l4.29 10.8zm7.08-7.65L42.74 178H41.3l-3.08-7.65h1.33a.5.5 0 0 1 .31.1c.08.06.14.13.16.22l1.7 4.45a10.9 10.9 0 0 1 .33 1.25 7.19 7.19 0 0 1 .34-1.25l1.72-4.46a.46.46 0 0 1 .16-.22.47.47 0 0 1 .3-.09h1.26zm5.02 4.3c-.58.03-1.06.07-1.46.14-.4.08-.71.17-.96.28-.25.11-.42.25-.53.4a.88.88 0 0 0-.16.51c0 .18.03.34.09.46.05.13.13.24.24.32.1.08.22.14.36.18a2.32 2.32 0 0 0 1.54-.18c.3-.16.59-.39.88-.69v-1.41zm-4.28-3.24c.87-.8 1.9-1.2 3.09-1.2.44 0 .83.07 1.17.21.35.14.63.34.87.6.23.27.4.57.53.93.12.36.18.75.18 1.19V178h-.72a.7.7 0 0 1-.35-.07c-.08-.05-.15-.14-.2-.29l-.16-.62c-.2.17-.39.33-.58.47-.19.13-.38.25-.59.34-.2.1-.42.17-.65.22-.23.05-.49.07-.77.07-.3 0-.6-.04-.86-.13a1.83 1.83 0 0 1-1.16-1.03 2.22 2.22 0 0 1-.17-.9c0-.29.08-.58.24-.86.16-.28.42-.53.78-.75.36-.22.84-.4 1.43-.55.6-.15 1.32-.23 2.2-.25v-.51c0-.55-.12-.96-.36-1.23-.23-.27-.58-.4-1.03-.4-.31 0-.57.03-.78.11-.21.08-.4.16-.55.25l-.41.25a.7.7 0 0 1-.38.12.46.46 0 0 1-.29-.09.71.71 0 0 1-.19-.21l-.29-.53zm10.07 6.71c-.63 0-1.12-.18-1.46-.54a2.1 2.1 0 0 1-.52-1.5v-4.46h-.84a.34.34 0 0 1-.23-.09c-.07-.06-.1-.14-.1-.26v-.65l1.24-.18.35-2.21a.43.43 0 0 1 .13-.2.35.35 0 0 1 .24-.09h.83v2.52h2.12v1.16h-2.13v4.34c0 .28.07.48.2.63a.7.7 0 0 0 .55.22c.12 0 .23-.02.32-.05a1.46 1.46 0 0 0 .4-.21c.05-.03.1-.05.14-.05.09 0 .16.05.22.15l.48.79c-.25.22-.55.39-.89.5a3.2 3.2 0 0 1-1.05.18zm7.12-3.47c-.58.03-1.06.07-1.45.14-.4.08-.72.17-.96.28-.25.11-.43.25-.53.4a.88.88 0 0 0-.16.51c0 .18.02.34.08.46.06.13.14.24.24.32.1.08.22.14.36.18a2.32 2.32 0 0 0 1.54-.18c.3-.16.6-.39.88-.69v-1.41zm-4.27-3.24c.86-.8 1.89-1.2 3.09-1.2.44 0 .83.07 1.17.21.34.14.63.34.86.6.23.27.41.57.53.93.13.36.19.75.19 1.19V178h-.72a.7.7 0 0 1-.35-.07c-.09-.05-.15-.14-.2-.29l-.16-.62-.58.47c-.2.13-.39.25-.6.34-.2.1-.41.17-.64.22-.24.05-.5.07-.77.07-.31 0-.6-.04-.87-.13a1.83 1.83 0 0 1-1.16-1.03 2.22 2.22 0 0 1-.16-.9c0-.29.08-.58.23-.86.16-.28.42-.53.78-.75.37-.22.84-.4 1.44-.55.59-.15 1.32-.23 2.19-.25v-.51c0-.55-.12-.96-.35-1.23-.24-.27-.58-.4-1.04-.4-.3 0-.57.03-.78.11-.2.08-.39.16-.55.25l-.4.25a.7.7 0 0 1-.39.12.46.46 0 0 1-.28-.09.71.71 0 0 1-.2-.21l-.28-.53zm9.24.36c.24-.49.53-.87.87-1.15.34-.27.75-.41 1.22-.41.17 0 .32.02.47.05.15.04.27.1.39.17l-.11 1.22c-.02.08-.05.14-.1.17a.27.27 0 0 1-.16.05c-.08 0-.19-.01-.33-.04a2.3 2.3 0 0 0-.44-.04c-.23 0-.42.03-.6.1-.17.06-.32.16-.46.28-.14.13-.26.28-.36.46-.11.18-.2.38-.3.62V178H67.2v-7.65h.94c.17 0 .28.03.35.1.07.06.11.16.14.32l.1 1zm11.52 2.88c-.57.03-1.06.07-1.45.14-.4.08-.72.17-.96.28-.25.11-.42.25-.53.4a.88.88 0 0 0-.16.51c0 .18.03.34.08.46.06.13.14.24.24.32.1.08.23.14.36.18a2.32 2.32 0 0 0 1.54-.18c.3-.16.6-.39.88-.69v-1.41zm-4.27-3.24c.86-.8 1.9-1.2 3.09-1.2.44 0 .83.07 1.17.21.34.14.63.34.86.6.24.27.41.57.54.93.12.36.18.75.18 1.19V178h-.72a.7.7 0 0 1-.35-.07c-.08-.05-.15-.14-.2-.29l-.16-.62c-.2.17-.39.33-.58.47-.19.13-.39.25-.59.34-.2.1-.42.17-.65.22-.23.05-.49.07-.77.07-.31 0-.6-.04-.87-.13a1.83 1.83 0 0 1-1.16-1.03 2.22 2.22 0 0 1-.16-.9c0-.29.08-.58.24-.86.15-.28.41-.53.78-.75.36-.22.84-.4 1.43-.55.6-.15 1.32-.23 2.2-.25v-.51c0-.55-.12-.96-.36-1.23s-.58-.4-1.03-.4c-.32 0-.57.03-.78.11-.22.08-.4.16-.55.25l-.42.25a.7.7 0 0 1-.38.12.46.46 0 0 1-.28-.09.71.71 0 0 1-.19-.21l-.3-.53zm9.23-.05a4.89 4.89 0 0 1 1.08-.82 3.03 3.03 0 0 1 2.48-.1c.32.14.58.34.8.6.22.25.38.55.5.91a4 4 0 0 1 .16 1.18V178h-1.6v-4.87c0-.51-.13-.91-.36-1.2-.24-.28-.6-.43-1.09-.43-.36 0-.7.09-1 .25-.3.17-.6.4-.86.68V178h-1.62v-7.65h.98c.22 0 .36.1.42.3l.11.71zm11 3.3c-.58.02-1.06.06-1.46.13-.4.08-.71.17-.96.28-.25.11-.42.25-.53.4a.88.88 0 0 0-.16.51c0 .18.03.34.09.46.05.13.13.24.24.32.1.08.22.14.36.18a2.32 2.32 0 0 0 1.54-.18c.3-.16.59-.39.87-.69v-1.41zm-4.28-3.25c.87-.8 1.9-1.2 3.09-1.2.44 0 .83.07 1.17.21.35.14.63.34.87.6.23.27.4.57.53.93.12.36.18.75.18 1.19V178h-.72a.7.7 0 0 1-.35-.07c-.08-.05-.15-.14-.2-.29l-.16-.62c-.2.17-.39.33-.58.47-.19.13-.38.25-.59.34-.2.1-.42.17-.65.22-.23.05-.49.07-.77.07-.3 0-.6-.04-.86-.13a1.83 1.83 0 0 1-1.16-1.03 2.22 2.22 0 0 1-.17-.9c0-.29.08-.58.24-.86.16-.28.42-.53.78-.75.36-.22.84-.4 1.43-.55.6-.15 1.32-.23 2.2-.25v-.51c0-.55-.12-.96-.36-1.23-.23-.27-.58-.4-1.03-.4-.31 0-.57.03-.78.11-.21.08-.4.16-.55.25l-.41.25a.7.7 0 0 1-.38.12.46.46 0 0 1-.29-.09.71.71 0 0 1-.19-.21l-.29-.53zm10.07 6.71c-.63 0-1.12-.18-1.46-.54a2.1 2.1 0 0 1-.52-1.5v-4.46h-.84a.34.34 0 0 1-.23-.09c-.07-.06-.1-.14-.1-.26v-.65l1.24-.18.35-2.21a.43.43 0 0 1 .13-.2.35.35 0 0 1 .24-.09h.83v2.52h2.12v1.16h-2.13v4.34c0 .28.07.48.2.63a.7.7 0 0 0 .55.22c.12 0 .23-.02.32-.05a1.46 1.46 0 0 0 .4-.21c.05-.03.1-.05.14-.05.09 0 .16.05.22.15l.48.79c-.25.22-.55.39-.89.5a3.2 3.2 0 0 1-1.05.18zm6.29-7.89c.56 0 1.07.1 1.53.28a3.29 3.29 0 0 1 1.92 2.02c.17.49.26 1.03.26 1.64 0 .6-.09 1.15-.26 1.63a3.26 3.26 0 0 1-1.92 2.03c-.46.19-.97.28-1.53.28-.57 0-1.09-.09-1.54-.28a3.3 3.3 0 0 1-1.93-2.03 4.8 4.8 0 0 1-.26-1.63c0-.6.09-1.15.26-1.64a3.33 3.33 0 0 1 1.92-2.03c.46-.18.98-.27 1.55-.27zm0 6.62c.69 0 1.2-.23 1.54-.7.34-.45.5-1.11.5-1.97 0-.87-.16-1.53-.5-2-.34-.46-.85-.7-1.54-.7-.7 0-1.22.24-1.56.7a3.34 3.34 0 0 0-.51 2c0 .86.17 1.52.5 1.98.35.46.87.7 1.57.7zm5.25 1.15v-7.65h.98c.22 0 .36.1.42.3l.1.67c.15-.16.29-.3.44-.43a2.84 2.84 0 0 1 1.04-.58 2.38 2.38 0 0 1 1.31.03 1.72 1.72 0 0 1 .96.77c.11.18.2.39.28.62a2.42 2.42 0 0 1 1.7-1.41 3.2 3.2 0 0 1 1.85.1c.32.14.6.32.81.57.23.25.4.55.51.91.12.36.17.77.17 1.23V178h-1.61v-4.87c0-.54-.12-.94-.35-1.22-.23-.27-.57-.4-1.03-.4-.2 0-.4.03-.58.1a1.36 1.36 0 0 0-.79.81c-.08.2-.11.44-.11.71V178H118v-4.87c0-.56-.11-.97-.34-1.23-.22-.26-.55-.4-.98-.4-.3 0-.58.08-.84.23a2.7 2.7 0 0 0-.7.63V178h-1.62zm19.06-7.65l-4.22 9.83a.8.8 0 0 1-.2.26c-.08.07-.2.1-.35.1h-1.2l1.41-3.06-3.12-7.13h1.4c.14 0 .24.03.32.1.07.06.12.13.16.22l1.82 4.34a8.07 8.07 0 0 1 .23.75 35.79 35.79 0 0 1 .26-.76l1.75-4.34a.5.5 0 0 1 .44-.31h1.3zm.25 6.72a1.06 1.06 0 0 1 .3-.74 1.02 1.02 0 0 1 .74-.31 1.02 1.02 0 0 1 .74.3 1.06 1.06 0 0 1 .22 1.16 1.07 1.07 0 0 1-.56.55 1.06 1.06 0 0 1-.82 0 .97.97 0 0 1-.32-.22 1.05 1.05 0 0 1-.3-.74z"/>
    <path fill="#FFF" stroke="#B8C7D2" d="M.5.5h725v146H.5z"/>
    <path fill="#3E5667" fill-rule="nonzero" d="M233.78 74.6c.1 0 .18.03.25.1l.7.76c-.44.53-.98.94-1.62 1.23-.64.29-1.4.43-2.3.43a5.4 5.4 0 0 1-2.14-.4 4.7 4.7 0 0 1-2.67-2.9 6.55 6.55 0 0 1-.36-2.22c0-.81.13-1.55.38-2.23a4.88 4.88 0 0 1 2.77-2.88c.65-.28 1.37-.41 2.16-.41a5.1 5.1 0 0 1 3.62 1.39l-.58.81a.64.64 0 0 1-.14.15.38.38 0 0 1-.22.06.6.6 0 0 1-.35-.14 3.78 3.78 0 0 0-3.76-.48c-.43.18-.8.44-1.1.78-.32.35-.56.77-.73 1.26-.17.5-.26 1.06-.26 1.69 0 .64.09 1.2.27 1.7.18.5.43.92.74 1.26.32.34.69.6 1.11.78.43.18.88.27 1.38.27a6 6 0 0 0 .8-.05 3.2 3.2 0 0 0 1.75-.83c.1-.1.2-.14.3-.14zm5.32-5.37c.57 0 1.08.1 1.53.28a3.29 3.29 0 0 1 1.92 2.02c.18.49.26 1.03.26 1.64 0 .6-.08 1.15-.26 1.63a3.26 3.26 0 0 1-1.92 2.03c-.45.19-.96.28-1.53.28-.57 0-1.08-.09-1.54-.28a3.3 3.3 0 0 1-1.93-2.03 4.8 4.8 0 0 1-.26-1.63c0-.6.09-1.15.26-1.64a3.33 3.33 0 0 1 1.92-2.03c.47-.18.98-.27 1.55-.27zm0 6.62c.69 0 1.2-.23 1.54-.7.34-.45.5-1.11.5-1.98 0-.86-.16-1.52-.5-1.99-.34-.46-.85-.7-1.54-.7-.7 0-1.22.24-1.56.7a3.34 3.34 0 0 0-.51 2c0 .86.17 1.52.51 1.98.34.46.86.7 1.56.7zm6.77-5.49a4.89 4.89 0 0 1 1.07-.81 3.03 3.03 0 0 1 2.48-.11c.32.14.59.34.8.6.22.25.39.55.5.91a4 4 0 0 1 .16 1.18V77h-1.6v-4.87c0-.51-.12-.91-.36-1.2-.24-.28-.6-.43-1.08-.43-.36 0-.7.09-1 .25-.31.17-.6.4-.87.68V77h-1.61v-7.65h.97c.22 0 .36.1.42.3l.12.71zm9.25 6.76c-.64 0-1.12-.18-1.47-.54a2.1 2.1 0 0 1-.51-1.5v-4.46h-.84a.34.34 0 0 1-.23-.09c-.07-.06-.1-.14-.1-.26v-.65l1.24-.18.35-2.21a.43.43 0 0 1 .13-.2.35.35 0 0 1 .24-.09h.82v2.52h2.13v1.16h-2.13v4.34c0 .28.07.48.2.63a.7.7 0 0 0 .55.22c.12 0 .23-.02.32-.05a1.46 1.46 0 0 0 .4-.21c.05-.03.1-.05.14-.05.09 0 .16.05.21.15l.49.79c-.26.22-.55.39-.89.5a3.2 3.2 0 0 1-1.05.18zm7.12-3.47c-.58.03-1.06.07-1.46.14-.4.08-.71.17-.96.28-.24.11-.42.25-.53.4a.88.88 0 0 0-.16.51c0 .18.03.34.09.46.06.13.14.24.24.32.1.08.22.14.36.18a2.32 2.32 0 0 0 1.54-.18c.3-.16.6-.39.88-.69v-1.41zm-4.28-3.23c.87-.81 1.9-1.21 3.1-1.21.43 0 .82.07 1.17.21.34.14.63.34.86.6.23.27.4.57.53.93.12.36.19.75.19 1.19V77h-.73a.7.7 0 0 1-.35-.07c-.08-.05-.15-.14-.2-.29l-.16-.62c-.2.17-.38.33-.57.47-.2.13-.4.25-.6.34-.2.1-.41.17-.65.22-.23.05-.48.07-.76.07-.32 0-.6-.04-.87-.13a1.83 1.83 0 0 1-1.15-1.03 2.22 2.22 0 0 1-.18-.9c0-.29.08-.58.24-.86.16-.28.42-.53.78-.75.36-.22.84-.4 1.43-.55.6-.15 1.33-.23 2.2-.25v-.51c0-.55-.12-.96-.36-1.23-.23-.27-.57-.4-1.03-.4-.31 0-.57.03-.78.11-.21.08-.4.16-.55.25l-.41.25a.7.7 0 0 1-.38.12.46.46 0 0 1-.28-.09.71.71 0 0 1-.2-.21l-.29-.52zm9.4-1.07V77h-1.6v-7.65h1.6zm.28-2.31a1.08 1.08 0 0 1-.67.99 1.05 1.05 0 0 1-1.4-.58 1.03 1.03 0 0 1 0-.83 1.08 1.08 0 0 1 .56-.57 1.05 1.05 0 0 1 .83 0 1.15 1.15 0 0 1 .6.57c.05.13.08.27.08.42zm3.27 3.32a4.89 4.89 0 0 1 1.08-.81 3.03 3.03 0 0 1 2.48-.11c.31.14.58.34.8.6.22.25.38.55.49.91a4 4 0 0 1 .17 1.18V77h-1.61v-4.87c0-.51-.12-.91-.36-1.2-.23-.28-.6-.43-1.08-.43-.36 0-.7.09-1 .25-.3.17-.6.4-.87.68V77h-1.61v-7.65h.98c.22 0 .36.1.42.3l.1.71zm11.92 1.95c0-.27-.04-.52-.11-.75-.08-.23-.2-.44-.35-.6-.15-.18-.33-.32-.55-.41a1.9 1.9 0 0 0-.77-.15c-.59 0-1.05.17-1.38.5-.34.34-.55.8-.64 1.41h3.8zm-3.84 1c.01.43.08.8.2 1.12.11.32.27.58.46.8.2.2.42.36.69.46a2.73 2.73 0 0 0 1.71.05 3.84 3.84 0 0 0 1.04-.48c.12-.08.23-.11.33-.11.13 0 .23.05.3.15l.45.59c-.19.23-.4.41-.64.57a3.76 3.76 0 0 1-1.6.59c-.28.04-.56.06-.83.06a4 4 0 0 1-1.47-.26 3.28 3.28 0 0 1-1.18-.79c-.33-.34-.6-.77-.78-1.28a5.1 5.1 0 0 1-.03-3.25 3.38 3.38 0 0 1 1.86-2c.45-.2.95-.3 1.52-.3.47 0 .9.08 1.3.23a2.86 2.86 0 0 1 1.72 1.75c.16.43.24.92.24 1.46 0 .25-.03.42-.08.5-.06.09-.16.13-.3.13h-4.91zm8.31-2.54c.24-.49.53-.87.87-1.15.34-.27.75-.41 1.22-.41.17 0 .32.02.47.05.15.04.27.1.39.17l-.11 1.22c-.02.08-.05.14-.1.17a.27.27 0 0 1-.17.05c-.07 0-.18-.01-.32-.04a2.3 2.3 0 0 0-.44-.04c-.23 0-.42.03-.6.1-.17.06-.32.16-.46.28-.14.13-.26.28-.37.46-.1.18-.2.38-.29.62V77h-1.61v-7.65h.94c.17 0 .28.03.35.1.06.06.11.16.13.32l.1 1z"/>
    <path fill="#B8C7D2" d="M311 71.5h40v1h-40z"/>
    <g transform="translate(302 62)">
      <rect width="19.2" height="18.4" fill="#3E5667" rx="9.2"/>
      <text fill="#FFF" font-family="Lato-Heavy, Lato" font-size="9.6" font-weight="600">
        <tspan x="6.82" y="12.2">1</tspan>
      </text>
    </g>
    <g transform="translate(348 57)">
      <circle cx="15" cy="15" r="15" fill="#3E5667"/>
      <text fill="#FFF" font-family="Lato-Bold, Lato" font-size="12" font-weight="bold">
        <tspan x="8.11" y="20">TS</tspan>
      </text>
    </g>
    <path fill="#3E5667" fill-rule="nonzero" d="M438.55 77h-1.77V66.2h1.77V77zm3.65-6.64a4.89 4.89 0 0 1 1.09-.81 3.03 3.03 0 0 1 2.47-.11c.32.14.59.34.8.6.22.25.39.55.5.91a4 4 0 0 1 .16 1.18V77h-1.6v-4.87c0-.51-.12-.91-.36-1.2-.24-.28-.6-.43-1.08-.43-.36 0-.7.09-1 .25-.31.17-.6.4-.87.68V77h-1.61v-7.65h.97c.22 0 .36.1.42.3l.12.71zm8.6-1.01V77h-1.62v-7.65h1.61zm.26-2.31a1.08 1.08 0 0 1-.67.99 1.05 1.05 0 0 1-1.4-.58 1.03 1.03 0 0 1 0-.83c.06-.13.14-.24.24-.34.09-.1.2-.18.33-.23a1.05 1.05 0 0 1 .83 0 1.15 1.15 0 0 1 .59.57c.05.13.08.27.08.42zm9.19 9.96h-1.61v-6.38h-3.73v4.34c0 .28.07.48.2.63a.7.7 0 0 0 .54.22c.13 0 .24-.02.33-.05a1.46 1.46 0 0 0 .4-.21c.04-.03.09-.05.13-.05.1 0 .17.05.22.15l.48.79c-.25.22-.54.39-.88.5a3.2 3.2 0 0 1-1.05.18c-.64 0-1.13-.18-1.47-.54a2.1 2.1 0 0 1-.51-1.5v-4.46h-.84a.34.34 0 0 1-.23-.09c-.07-.06-.1-.14-.1-.26v-.65l1.24-.18.35-2.21a.43.43 0 0 1 .13-.2.35.35 0 0 1 .23-.09h.83v2.52h5.34V77zm.33-10c0 .15-.03.28-.09.41a1.1 1.1 0 0 1-.58.57 1.03 1.03 0 0 1-1.16-.23c-.1-.1-.18-.21-.24-.34a1.05 1.05 0 0 1 0-.83 1.1 1.1 0 0 1 .57-.58 1.03 1.03 0 0 1 .82 0 1.07 1.07 0 0 1 .67 1zm5.79 6.66c-.58.02-1.06.06-1.45.13-.4.08-.72.17-.97.28-.24.11-.42.25-.52.4a.88.88 0 0 0-.17.51c0 .18.03.34.1.46.05.13.13.24.23.32.1.08.22.14.36.18a2.32 2.32 0 0 0 1.54-.18c.3-.16.6-.39.88-.69v-1.41zm-4.27-3.24c.86-.81 1.89-1.21 3.08-1.21.45 0 .84.07 1.18.21.34.14.63.34.86.6.23.27.41.57.53.93.13.36.19.75.19 1.19V77h-.72a.7.7 0 0 1-.36-.07c-.07-.05-.14-.14-.2-.29l-.16-.62c-.19.17-.38.33-.57.47-.2.13-.39.25-.6.34-.2.1-.41.17-.64.22-.24.05-.5.07-.77.07-.31 0-.6-.04-.87-.13a1.83 1.83 0 0 1-1.15-1.03 2.22 2.22 0 0 1-.17-.9c0-.29.08-.58.23-.86.16-.28.42-.53.78-.75.37-.22.84-.4 1.44-.55.59-.15 1.32-.23 2.19-.25v-.51c0-.55-.12-.96-.35-1.23-.24-.27-.58-.4-1.04-.4-.3 0-.57.03-.78.11-.2.08-.39.16-.55.25l-.4.25a.7.7 0 0 1-.39.12.46.46 0 0 1-.28-.09.71.71 0 0 1-.2-.21l-.28-.52zm9.36-4.52V77h-1.61V65.9h1.61zm6.56 4.84a.4.4 0 0 1-.13.15.36.36 0 0 1-.19.04.6.6 0 0 1-.27-.08l-.36-.17a2.33 2.33 0 0 0-1.66-.18c-.16.04-.3.1-.41.2a.92.92 0 0 0-.26.3.82.82 0 0 0-.09.38c0 .18.05.33.17.45.1.12.25.23.43.31.18.1.38.17.62.24.23.07.46.14.7.23.24.08.47.17.7.27.24.1.44.24.62.39.18.15.32.34.44.55.1.22.16.48.16.8 0 .36-.06.69-.2 1-.13.3-.31.56-.56.79-.26.22-.57.4-.94.52a4.01 4.01 0 0 1-2.05.12 4.42 4.42 0 0 1-1.32-.5c-.2-.1-.37-.23-.52-.37l.38-.61c.04-.08.1-.14.17-.18a.46.46 0 0 1 .25-.06c.1 0 .2.03.3.1l.37.22a2.25 2.25 0 0 0 1.23.32 2 2 0 0 0 .62-.08c.17-.06.32-.14.43-.24a.95.95 0 0 0 .34-.75.7.7 0 0 0-.17-.48 1.4 1.4 0 0 0-.43-.32 4.05 4.05 0 0 0-.63-.24l-.7-.23a7.43 7.43 0 0 1-.71-.27c-.24-.11-.44-.24-.63-.4a1.83 1.83 0 0 1-.6-1.45 2.11 2.11 0 0 1 .72-1.6c.24-.2.53-.37.88-.5.35-.12.75-.18 1.2-.18.52 0 .99.08 1.4.25.43.16.78.39 1.06.67l-.36.59z"/>
    <path fill="#B8C7D2" d="M368.5 70.5h40v1h-40z"/>
    <g transform="translate(403.5 62)">
      <rect width="19.2" height="18.4" fill="#3E5667" rx="9.2"/>
      <text fill="#FFF" font-family="Lato-Heavy, Lato" font-size="9.6" font-weight="600">
        <tspan x="6.82" y="12.2">2</tspan>
      </text>
    </g>
    <circle cx="348.5" cy="72" r="3" fill="#12202B"/>
    <circle cx="369" cy="71" r="3" fill="#FFF"/>
  </g>
</svg>