<svg xmlns="http://www.w3.org/2000/svg" viewBox="0 0 726 140">
  <g fill="none" fill-rule="evenodd">
    <g fill="#3E5667" font-family="Lato-Semibold, Lato" font-size="15" font-weight="500">
      <text transform="translate(231 87)">
        <tspan x="0" y="15">Light</tspan>
      </text>
      <text transform="translate(231 87)">
        <tspan x="110" y="15">Dark</tspan>
      </text>
      <text transform="translate(231 87)">
        <tspan x="215" y="15">Active</tspan>
      </text>
    </g>
    <path fill="#F8FAFC" stroke="#B8C7D2" d="M.5.5h725v109H.5z"/>
    <g transform="translate(233 40)">
      <circle cx="15" cy="15" r="15" fill="#FFF"/>
      <text fill="#233745" font-family="Lato-Bold, Lato" font-size="12" font-weight="bold">
        <tspan x="8.11" y="20">TS</tspan>
      </text>
    </g>
    <g transform="translate(343 40)">
      <circle cx="15" cy="15" r="15" fill="#3E5667"/>
      <text fill="#FFF" font-family="Lato-Bold, Lato" font-size="12" font-weight="bold">
        <tspan x="8.11" y="20">TS</tspan>
      </text>
    </g>
    <g transform="translate(453 40)">
      <circle cx="15" cy="15" r="15" fill="#3A8FDD"/>
      <text fill="#FFF" font-family="Lato-Bold, Lato" font-size="12" font-weight="bold">
        <tspan x="8.11" y="20">TS</tspan>
      </text>
    </g>
    <path fill="#3E5667" fill-rule="nonzero" d="M8.49 127.76H5.12v9.34H3.37v-9.34H0v-1.46h8.49v1.46zm2.69 2.6c.31-.31.65-.56 1.03-.75a2.9 2.9 0 0 1 1.31-.28c.42 0 .8.07 1.1.21.33.14.6.34.81.6.22.25.38.55.5.91a4 4 0 0 1 .16 1.18v4.87h-1.6v-4.87c0-.51-.13-.91-.36-1.2-.24-.28-.6-.43-1.09-.43-.36 0-.7.09-1 .25-.3.17-.6.4-.86.68v5.57H9.55V126h1.62v4.36zM23 132.4c0-.27-.04-.52-.12-.75-.08-.23-.2-.44-.34-.6-.15-.18-.34-.32-.56-.41a1.9 1.9 0 0 0-.77-.15c-.59 0-1.04.17-1.38.5-.34.34-.55.8-.64 1.41H23zm-3.85 1c.02.43.08.8.2 1.12.12.32.27.58.46.8.2.2.42.36.7.46a2.73 2.73 0 0 0 1.71.05 3.84 3.84 0 0 0 1.03-.48c.12-.08.23-.11.33-.11.13 0 .23.05.3.15l.46.59c-.2.23-.4.41-.65.57a3.76 3.76 0 0 1-1.6.59c-.28.04-.56.06-.83.06a4 4 0 0 1-1.47-.26 3.28 3.28 0 0 1-1.18-.79c-.33-.34-.6-.77-.78-1.28a5.1 5.1 0 0 1-.03-3.25 3.38 3.38 0 0 1 1.86-2c.45-.2.95-.3 1.52-.3.47 0 .9.08 1.3.23a2.86 2.86 0 0 1 1.72 1.75c.16.43.24.92.24 1.46 0 .25-.02.42-.08.5-.06.09-.15.13-.3.13h-4.91zm16.04-.36l-1.48-3.95c-.13-.3-.25-.69-.37-1.16a7.68 7.68 0 0 1-.36 1.17l-1.49 3.94h3.7zm3.32 4.05h-1.35a.57.57 0 0 1-.38-.12.76.76 0 0 1-.22-.28l-.9-2.39h-4.65l-.9 2.38c-.04.1-.1.2-.2.28a.56.56 0 0 1-.38.13h-1.36l4.28-10.8h1.78l4.28 10.8zm7.08-7.65l-3.07 7.65h-1.46L38 129.45h1.32a.5.5 0 0 1 .32.1c.08.06.13.13.16.21l1.7 4.46a10.9 10.9 0 0 1 .32 1.25 7.19 7.19 0 0 1 .34-1.25l1.73-4.46a.46.46 0 0 1 .16-.22.47.47 0 0 1 .3-.09h1.25zm5.02 4.3c-.58.03-1.06.07-1.45.14-.4.08-.72.17-.96.28-.25.11-.43.25-.53.4a.88.88 0 0 0-.16.51c0 .18.02.34.08.46.06.13.14.24.24.32.1.08.22.14.36.18a2.32 2.32 0 0 0 1.54-.18c.3-.16.6-.39.88-.69v-1.41zm-4.27-3.24c.86-.8 1.89-1.2 3.08-1.2.45 0 .84.07 1.18.21.34.14.63.34.86.6.23.27.41.57.53.93.13.36.19.75.19 1.19v4.86h-.72a.7.7 0 0 1-.36-.07c-.08-.05-.14-.14-.2-.29l-.16-.62c-.19.17-.38.33-.57.47-.2.13-.39.25-.6.34-.2.1-.41.17-.64.22-.24.05-.5.07-.77.07-.31 0-.6-.04-.87-.13a1.83 1.83 0 0 1-1.16-1.03 2.22 2.22 0 0 1-.16-.9c0-.29.08-.58.23-.86.16-.28.42-.53.78-.75.37-.22.84-.4 1.44-.55.59-.15 1.32-.23 2.19-.25v-.51c0-.55-.12-.96-.35-1.23-.24-.27-.58-.4-1.04-.4-.3 0-.57.03-.78.11-.2.08-.39.16-.54.25l-.42.25a.7.7 0 0 1-.38.12.46.46 0 0 1-.28-.09.71.71 0 0 1-.2-.21l-.28-.53zm10.07 6.71c-.64 0-1.13-.18-1.47-.54a2.1 2.1 0 0 1-.51-1.5v-4.46h-.84a.34.34 0 0 1-.24-.09c-.06-.06-.1-.14-.1-.26v-.65l1.24-.18.36-2.21a.43.43 0 0 1 .13-.2.35.35 0 0 1 .24-.09h.82v2.52h2.12v1.16h-2.12v4.34c0 .28.07.48.2.63a.7.7 0 0 0 .54.22c.13 0 .23-.02.32-.05a1.46 1.46 0 0 0 .4-.21c.05-.03.1-.05.15-.05.09 0 .16.05.21.15l.48.79c-.25.22-.54.39-.88.5a3.2 3.2 0 0 1-1.05.18zm7.12-3.47c-.58.03-1.06.07-1.46.14-.4.08-.71.17-.96.28-.25.11-.42.25-.53.4a.88.88 0 0 0-.16.51c0 .18.03.34.09.46.05.13.13.24.24.32.1.08.22.14.36.18a2.32 2.32 0 0 0 1.54-.18c.3-.16.59-.39.87-.69v-1.41zm-4.28-3.24c.87-.8 1.9-1.2 3.09-1.2.44 0 .83.07 1.17.21.35.14.63.34.87.6.23.27.4.57.53.93.12.36.18.75.18 1.19v4.86h-.72a.7.7 0 0 1-.35-.07c-.08-.05-.15-.14-.2-.29l-.16-.62c-.2.17-.39.33-.58.47-.19.13-.38.25-.59.34-.2.1-.42.17-.65.22-.23.05-.49.07-.77.07-.3 0-.6-.04-.86-.13a1.83 1.83 0 0 1-1.15-1.03 2.22 2.22 0 0 1-.18-.9c0-.29.08-.58.24-.86.16-.28.42-.53.78-.75.36-.22.84-.4 1.43-.55.6-.15 1.32-.23 2.2-.25v-.51c0-.55-.12-.96-.36-1.23-.23-.27-.58-.4-1.03-.4-.31 0-.57.03-.78.11-.21.08-.4.16-.55.25l-.41.25a.7.7 0 0 1-.38.12.46.46 0 0 1-.29-.09.71.71 0 0 1-.19-.21l-.29-.53zm9.25.36c.24-.49.53-.87.87-1.15.34-.27.74-.41 1.22-.41.17 0 .32.02.47.05.14.04.27.1.38.17l-.1 1.22c-.03.08-.06.14-.1.17a.27.27 0 0 1-.17.05c-.08 0-.18-.01-.32-.04a2.3 2.3 0 0 0-.44-.04c-.23 0-.43.03-.6.1-.17.06-.33.16-.47.28-.13.13-.25.28-.36.46-.1.18-.2.38-.3.62v4.75h-1.6v-7.65h.93c.17 0 .29.03.36.1.06.06.1.16.13.32l.1 1zm12.84.08a.83.83 0 0 1-.15.15.31.31 0 0 1-.19.05.5.5 0 0 1-.27-.09 6.7 6.7 0 0 0-.33-.2 2.16 2.16 0 0 0-1.14-.29c-.34 0-.65.07-.91.2-.26.12-.48.3-.66.53-.18.23-.31.51-.4.85-.09.33-.13.7-.13 1.12 0 .43.05.81.14 1.14.1.34.23.62.41.85.18.23.4.4.65.53.25.12.53.18.85.18a2.14 2.14 0 0 0 1.58-.61c.09-.08.19-.11.3-.11.12 0 .22.05.3.15l.45.59a3 3 0 0 1-1.33.95 5.25 5.25 0 0 1-1.6.27 3.1 3.1 0 0 1-2.41-1.04c-.3-.33-.55-.75-.72-1.23a4.86 4.86 0 0 1-.27-1.67c0-.57.08-1.1.24-1.57.16-.49.4-.9.7-1.25.3-.35.69-.63 1.14-.82.46-.2.98-.3 1.58-.3a3.55 3.55 0 0 1 2.6 1.03l-.43.59zm4.96-1.62c.57 0 1.08.1 1.54.28a3.29 3.29 0 0 1 1.91 2.02c.18.49.27 1.03.27 1.64 0 .6-.1 1.15-.27 1.63a3.26 3.26 0 0 1-1.92 2.03c-.45.19-.96.28-1.53.28-.57 0-1.08-.09-1.54-.28a3.3 3.3 0 0 1-1.92-2.03 4.8 4.8 0 0 1-.27-1.63c0-.6.1-1.15.27-1.64a3.33 3.33 0 0 1 1.92-2.03c.46-.18.97-.27 1.54-.27zm0 6.62c.7 0 1.2-.23 1.54-.7.34-.45.51-1.11.51-1.97 0-.87-.17-1.53-.5-2-.34-.46-.86-.7-1.55-.7-.7 0-1.22.24-1.56.7a3.34 3.34 0 0 0-.5 2c0 .86.16 1.52.5 1.98.34.46.86.7 1.56.7zm5.26 1.15v-7.65h.97c.23 0 .36.1.42.3l.11.68c.14-.17.28-.31.44-.44a2.84 2.84 0 0 1 1.03-.58 2.38 2.38 0 0 1 1.32.03 1.72 1.72 0 0 1 .95.77c.12.18.21.39.29.62a2.42 2.42 0 0 1 1.7-1.41 3.2 3.2 0 0 1 1.84.1c.32.14.6.32.82.57.22.25.39.55.5.91.12.36.18.77.18 1.23v4.87h-1.61v-4.87c0-.54-.12-.94-.35-1.22-.24-.27-.58-.4-1.03-.4-.21 0-.4.03-.58.1a1.36 1.36 0 0 0-.8.81c-.07.2-.11.44-.11.71v4.87h-1.61v-4.87c0-.56-.11-.97-.34-1.23-.23-.26-.55-.4-.99-.4-.3 0-.58.08-.83.23a2.7 2.7 0 0 0-.7.63v5.64h-1.62zm14.07-1.92c.23.29.47.5.74.61.27.12.56.18.89.18.63 0 1.12-.23 1.47-.7.35-.45.53-1.14.53-2.05 0-.47-.04-.87-.12-1.2-.08-.33-.2-.6-.34-.81a1.33 1.33 0 0 0-.55-.46 2.03 2.03 0 0 0-1.79.12c-.3.18-.57.43-.83.76v3.55zm-.08-4.62c.32-.38.68-.68 1.09-.9.4-.24.88-.35 1.42-.35a2.52 2.52 0 0 1 2.07 1.01c.25.33.44.74.58 1.23a6.19 6.19 0 0 1-.02 3.25c-.15.49-.37.91-.66 1.27a3.03 3.03 0 0 1-2.4 1.14 2.7 2.7 0 0 1-1.15-.22c-.31-.14-.6-.34-.85-.6v3.25h-1.61v-10.19h.97c.22 0 .36.1.42.3l.14.81zm10.24-1.23c.57 0 1.08.1 1.54.28a3.29 3.29 0 0 1 1.91 2.02c.18.49.27 1.03.27 1.64 0 .6-.1 1.15-.27 1.63a3.26 3.26 0 0 1-1.92 2.03c-.45.19-.96.28-1.53.28-.57 0-1.08-.09-1.54-.28a3.3 3.3 0 0 1-1.92-2.03 4.8 4.8 0 0 1-.27-1.63c0-.6.1-1.15.27-1.64a3.33 3.33 0 0 1 1.92-2.03c.46-.18.97-.27 1.54-.27zm0 6.62c.7 0 1.2-.23 1.54-.7.34-.45.51-1.11.51-1.97 0-.87-.17-1.53-.5-2-.34-.46-.86-.7-1.55-.7-.7 0-1.22.24-1.56.7a3.34 3.34 0 0 0-.5 2c0 .86.16 1.52.5 1.98.34.46.86.7 1.56.7zm6.77-5.49a4.89 4.89 0 0 1 1.08-.81 3.03 3.03 0 0 1 2.48-.11c.31.14.58.34.8.6.22.25.38.55.49.91a4 4 0 0 1 .17 1.18v4.87h-1.61v-4.87c0-.51-.12-.91-.36-1.2-.23-.28-.6-.43-1.08-.43-.36 0-.7.09-1 .25-.3.17-.6.4-.87.68v5.57h-1.61v-7.65h.98c.22 0 .36.1.41.3l.12.71zm11.92 1.95c0-.27-.04-.52-.11-.75-.08-.23-.2-.44-.34-.6-.16-.18-.34-.32-.56-.41a1.9 1.9 0 0 0-.77-.15c-.59 0-1.05.17-1.38.5-.34.34-.55.8-.64 1.41h3.8zm-3.84 1c.02.43.08.8.2 1.12.11.32.27.58.46.8.2.2.42.36.69.46a2.73 2.73 0 0 0 1.71.05 3.84 3.84 0 0 0 1.04-.48c.12-.08.23-.11.33-.11.13 0 .23.05.3.15l.45.59c-.19.23-.4.41-.64.57a3.76 3.76 0 0 1-1.6.59c-.28.04-.56.06-.83.06a4 4 0 0 1-1.47-.26 3.28 3.28 0 0 1-1.18-.79c-.33-.34-.6-.77-.78-1.28a5.1 5.1 0 0 1-.03-3.25 3.38 3.38 0 0 1 1.86-2c.45-.2.95-.3 1.52-.3.47 0 .9.08 1.3.23a2.86 2.86 0 0 1 1.72 1.75c.16.43.24.92.24 1.46 0 .25-.03.42-.08.5-.06.09-.16.13-.3.13h-4.92zm8.3-2.95a4.89 4.89 0 0 1 1.08-.81 3.03 3.03 0 0 1 2.48-.11c.31.14.58.34.8.6.22.25.38.55.49.91a4 4 0 0 1 .17 1.18v4.87h-1.61v-4.87c0-.51-.12-.91-.36-1.2-.23-.28-.6-.43-1.08-.43-.36 0-.7.09-1 .25-.3.17-.6.4-.87.68v5.57h-1.61v-7.65h.97c.23 0 .36.1.42.3l.12.71zm9.25 6.76c-.63 0-1.12-.18-1.46-.54a2.1 2.1 0 0 1-.52-1.5v-4.46h-.84a.34.34 0 0 1-.23-.09c-.06-.06-.1-.14-.1-.26v-.65l1.24-.18.35-2.21a.43.43 0 0 1 .13-.2.35.35 0 0 1 .24-.09h.82v2.52h2.13v1.16h-2.13v4.34c0 .28.07.48.2.63a.7.7 0 0 0 .55.22c.12 0 .23-.02.32-.05a1.46 1.46 0 0 0 .4-.21c.05-.03.1-.05.14-.05.09 0 .16.05.22.15l.48.79c-.25.22-.55.39-.89.5a3.2 3.2 0 0 1-1.05.18zm2.78-1.05a1.06 1.06 0 0 1 .3-.74 1.02 1.02 0 0 1 .74-.31 1.02 1.02 0 0 1 .74.3 1.06 1.06 0 0 1 .23 1.16 1.07 1.07 0 0 1-.56.55c-.13.06-.26.08-.41.08-.15 0-.28-.02-.4-.08a.97.97 0 0 1-.34-.22 1.05 1.05 0 0 1-.3-.74z"/>
  </g>
</svg>