<svg xmlns="http://www.w3.org/2000/svg" viewBox="0 0 726 222">
  <g fill="none" fill-rule="evenodd">
    <path fill="#3E5667" fill-rule="nonzero" d="M8.71 211.66H5.36V221H3.6v-9.34H.22v-1.46h8.5v1.46zm2.69 2.6c.32-.31.66-.56 1.04-.75a2.9 2.9 0 0 1 1.3-.28c.43 0 .8.07 1.11.21.32.14.59.34.8.6.22.25.39.55.5.91a4 4 0 0 1 .16 1.18V221h-1.6v-4.87c0-.51-.12-.91-.36-1.2-.24-.28-.6-.43-1.08-.43-.36 0-.7.09-1 .25-.31.17-.6.4-.87.68V221H9.79v-11.1h1.61v4.36zm11.82 2.05c0-.27-.04-.52-.12-.75-.07-.23-.19-.44-.34-.6-.15-.18-.33-.32-.56-.41a1.9 1.9 0 0 0-.77-.15c-.58 0-1.04.17-1.38.5-.33.34-.54.8-.63 1.41h3.8zm-3.85 1c.02.43.09.8.2 1.12.12.32.27.58.47.8.19.2.42.36.69.46.26.1.56.15.9.15.3 0 .58-.03.81-.1a3.84 3.84 0 0 0 1.04-.48c.12-.08.22-.11.32-.11.14 0 .23.05.3.15l.46.59c-.19.23-.4.41-.64.57a3.76 3.76 0 0 1-1.6.59c-.29.04-.56.06-.83.06a4 4 0 0 1-1.48-.26 3.28 3.28 0 0 1-1.17-.79c-.34-.34-.6-.77-.78-1.28a5.1 5.1 0 0 1-.03-3.25 3.38 3.38 0 0 1 1.86-2c.44-.2.95-.3 1.52-.3.47 0 .9.08 1.3.23a2.86 2.86 0 0 1 1.71 1.75c.17.43.25.92.25 1.46 0 .25-.03.42-.09.5-.05.09-.15.13-.3.13h-4.9zm16.04-.36l-1.48-3.94c-.12-.31-.24-.7-.37-1.17a7.68 7.68 0 0 1-.36 1.17l-1.48 3.94h3.7zm3.33 4.05h-1.36a.57.57 0 0 1-.38-.12.76.76 0 0 1-.21-.28l-.9-2.39h-4.65l-.9 2.39c-.04.1-.11.19-.21.27a.56.56 0 0 1-.38.13H28.4l4.29-10.8h1.77l4.29 10.8zm7.08-7.65L42.74 221H41.3l-3.08-7.65h1.33a.5.5 0 0 1 .31.1c.08.06.14.13.16.22l1.7 4.45a10.9 10.9 0 0 1 .33 1.25 7.19 7.19 0 0 1 .34-1.25l1.72-4.45a.46.46 0 0 1 .16-.23.47.47 0 0 1 .3-.09h1.26zm5.02 4.3c-.58.03-1.06.07-1.46.14-.4.08-.71.17-.96.28-.25.11-.42.25-.53.4a.88.88 0 0 0-.16.51c0 .18.03.34.09.46.05.13.13.24.24.32.1.08.22.14.36.18a2.32 2.32 0 0 0 1.54-.18c.3-.16.59-.39.88-.69v-1.41zm-4.28-3.23c.87-.81 1.9-1.21 3.09-1.21.44 0 .83.07 1.17.21.35.14.63.34.87.6.23.27.4.57.53.93.12.36.18.75.18 1.19V221h-.72a.7.7 0 0 1-.35-.07c-.08-.05-.15-.14-.2-.29l-.16-.62c-.2.17-.39.33-.58.47a2.9 2.9 0 0 1-1.24.56c-.23.05-.49.07-.77.07-.3 0-.6-.04-.86-.13a1.83 1.83 0 0 1-1.16-1.03 2.22 2.22 0 0 1-.17-.9c0-.29.08-.58.24-.86.16-.28.42-.53.78-.75.36-.22.84-.4 1.43-.55.6-.15 1.32-.23 2.2-.25v-.51c0-.55-.12-.96-.36-1.23-.23-.27-.58-.4-1.03-.4-.31 0-.57.03-.78.11-.21.08-.4.16-.55.25l-.41.25a.7.7 0 0 1-.38.12.46.46 0 0 1-.29-.09.71.71 0 0 1-.19-.21l-.29-.52zm10.07 6.7c-.63 0-1.12-.18-1.46-.54a2.1 2.1 0 0 1-.52-1.5v-4.46h-.84a.34.34 0 0 1-.23-.09c-.07-.06-.1-.14-.1-.26v-.65l1.24-.18.35-2.21a.43.43 0 0 1 .13-.2.35.35 0 0 1 .24-.09h.83v2.51h2.12v1.17h-2.13v4.34c0 .28.07.48.2.63a.7.7 0 0 0 .55.22c.12 0 .23-.02.32-.05a1.46 1.46 0 0 0 .4-.21c.05-.03.1-.05.14-.05.09 0 .16.05.22.15l.48.79c-.25.22-.55.39-.89.5a3.2 3.2 0 0 1-1.05.18zm7.12-3.46c-.58.02-1.06.06-1.45.13-.4.08-.72.17-.96.28-.25.11-.43.25-.53.4a.88.88 0 0 0-.16.51c0 .18.02.34.08.46.06.13.14.24.24.32.1.08.22.14.36.18a2.32 2.32 0 0 0 1.54-.18c.3-.16.6-.39.88-.69v-1.41zm-4.27-3.24c.86-.81 1.89-1.21 3.09-1.21.44 0 .83.07 1.17.21.34.14.63.34.86.6.23.27.41.57.53.93.13.36.19.75.19 1.19V221h-.72a.7.7 0 0 1-.35-.07c-.09-.05-.15-.14-.2-.29l-.16-.62-.58.47c-.2.13-.39.25-.6.35a3.85 3.85 0 0 1-1.42.28c-.3 0-.6-.04-.86-.13a1.83 1.83 0 0 1-1.16-1.03 2.22 2.22 0 0 1-.16-.9c0-.29.08-.58.23-.86.16-.28.42-.53.78-.75.37-.22.84-.4 1.44-.55.59-.15 1.32-.23 2.19-.25v-.51c0-.55-.12-.96-.35-1.23-.24-.27-.58-.4-1.04-.4-.3 0-.57.03-.78.11-.2.08-.39.16-.55.25l-.4.25a.7.7 0 0 1-.39.12.46.46 0 0 1-.28-.09.71.71 0 0 1-.2-.21l-.28-.52zm9.24.35c.24-.49.53-.87.87-1.15.34-.27.75-.41 1.22-.41.17 0 .32.02.47.05.15.04.27.1.39.17l-.11 1.22c-.02.08-.05.14-.1.17a.27.27 0 0 1-.16.05c-.08 0-.19-.01-.33-.04a2.3 2.3 0 0 0-.44-.04c-.23 0-.42.03-.6.1-.17.06-.32.16-.46.28-.14.13-.26.28-.36.46-.11.18-.2.38-.3.62V221H67.2v-7.65h.94c.17 0 .28.03.35.1.07.06.11.16.14.32l.1 1zm13.38-2.72a.66.66 0 0 1-.17.2.38.38 0 0 1-.23.06c-.09 0-.2-.04-.31-.12a3.81 3.81 0 0 0-1.05-.54 2.54 2.54 0 0 0-.84-.12c-.3 0-.56.03-.8.11-.22.08-.41.18-.56.32-.16.13-.28.29-.35.47-.08.18-.12.38-.12.6 0 .27.07.5.22.68.14.19.33.34.57.47.24.13.51.25.82.34l.93.31c.32.12.63.24.93.38.3.14.58.32.82.53a2.44 2.44 0 0 1 .79 1.92c0 .48-.08.93-.25 1.35a3.18 3.18 0 0 1-1.87 1.84 4.98 4.98 0 0 1-5.04-1.15l.5-.84a.5.5 0 0 1 .18-.16.46.46 0 0 1 .23-.06c.12 0 .24.05.38.16l.5.35c.2.13.44.25.73.35.28.11.61.16 1 .16.64 0 1.13-.15 1.47-.46.35-.31.53-.74.53-1.28 0-.3-.08-.56-.22-.75-.15-.2-.34-.35-.58-.48-.23-.13-.5-.24-.81-.33l-.93-.3c-.32-.1-.62-.21-.93-.35-.3-.14-.58-.32-.81-.54a2.5 2.5 0 0 1-.58-.83 3.03 3.03 0 0 1-.22-1.22 2.91 2.91 0 0 1 .9-2.1c.3-.29.65-.51 1.08-.69a4.8 4.8 0 0 1 3.18.04c.52.2.96.47 1.34.83l-.43.84zm4.35 9.07c-.63 0-1.12-.18-1.46-.54a2.1 2.1 0 0 1-.52-1.5v-4.46h-.84a.34.34 0 0 1-.23-.09c-.07-.06-.1-.14-.1-.26v-.65l1.24-.18.35-2.21a.43.43 0 0 1 .13-.2.35.35 0 0 1 .24-.09h.82v2.51h2.13v1.17h-2.13v4.34c0 .28.07.48.2.63a.7.7 0 0 0 .55.22c.12 0 .23-.02.32-.05a1.46 1.46 0 0 0 .4-.21c.05-.03.1-.05.14-.05.09 0 .16.05.22.15l.48.79c-.25.22-.55.39-.89.5a3.2 3.2 0 0 1-1.05.18zm7.12-3.46c-.58.02-1.06.06-1.45.13-.4.08-.72.17-.97.28-.24.11-.42.25-.52.4a.88.88 0 0 0-.16.51c0 .18.02.34.08.46.06.13.14.24.24.32.1.08.22.14.36.18a2.32 2.32 0 0 0 1.54-.18c.3-.16.6-.39.88-.69v-1.42zm-4.27-3.24c.86-.81 1.89-1.21 3.09-1.21.44 0 .83.07 1.17.21.34.14.63.34.86.6.23.27.41.57.53.93.13.36.19.75.19 1.19V221h-.72a.7.7 0 0 1-.36-.07c-.08-.05-.14-.14-.2-.29l-.16-.62c-.19.17-.38.33-.57.47-.2.13-.39.25-.6.35a3.85 3.85 0 0 1-1.42.28c-.3 0-.6-.04-.86-.13a1.83 1.83 0 0 1-1.16-1.03 2.22 2.22 0 0 1-.16-.9c0-.29.08-.58.23-.86.16-.28.42-.53.78-.75.37-.22.84-.4 1.44-.55.59-.15 1.32-.23 2.19-.25v-.51c0-.55-.12-.96-.35-1.23-.24-.27-.58-.4-1.04-.4-.3 0-.57.03-.78.11-.2.08-.39.16-.55.25l-.4.25a.7.7 0 0 1-.39.12.46.46 0 0 1-.28-.09.71.71 0 0 1-.2-.21l-.28-.52zm10.07 6.7c-.64 0-1.13-.18-1.47-.54a2.1 2.1 0 0 1-.51-1.5v-4.46h-.84a.34.34 0 0 1-.23-.09c-.07-.06-.1-.14-.1-.26v-.65l1.23-.18.36-2.21a.43.43 0 0 1 .13-.2.35.35 0 0 1 .23-.09H99v2.51h2.12v1.17H99v4.34c0 .28.07.48.2.63a.7.7 0 0 0 .54.22c.13 0 .23-.02.33-.05a1.46 1.46 0 0 0 .4-.21c.04-.03.09-.05.14-.05.08 0 .16.05.21.15l.48.79c-.25.22-.54.39-.88.5a3.2 3.2 0 0 1-1.05.18zm8-4.8c0-.28-.05-.53-.12-.76-.08-.23-.2-.44-.34-.6-.16-.18-.34-.32-.56-.41a1.9 1.9 0 0 0-.77-.15c-.59 0-1.05.17-1.38.5-.34.34-.55.8-.64 1.41h3.8zm-3.86.98c.02.44.1.81.2 1.13.12.32.28.58.47.8.2.2.42.36.69.46.27.1.56.15.9.15.31 0 .58-.03.81-.1a3.84 3.84 0 0 0 1.04-.48c.12-.08.23-.11.33-.11.13 0 .23.05.3.15l.45.59c-.19.23-.4.41-.64.57a3.76 3.76 0 0 1-1.6.59c-.28.04-.56.06-.83.06a4 4 0 0 1-1.47-.26 3.28 3.28 0 0 1-1.18-.79c-.33-.34-.6-.77-.78-1.28a5.1 5.1 0 0 1-.03-3.25 3.38 3.38 0 0 1 1.86-2c.45-.2.95-.3 1.52-.3.47 0 .9.08 1.3.23a2.86 2.86 0 0 1 1.72 1.75c.16.43.24.92.24 1.46 0 .25-.03.42-.08.5-.06.09-.16.13-.3.13h-4.92zm11.37-2.56a.4.4 0 0 1-.14.15.36.36 0 0 1-.18.04.6.6 0 0 1-.28-.08l-.36-.17a2.33 2.33 0 0 0-1.66-.18c-.16.04-.3.1-.4.2a.92.92 0 0 0-.27.3.82.82 0 0 0-.09.38c0 .18.06.33.17.45.1.12.25.23.43.31.18.1.39.17.62.24l.7.22c.24.09.48.18.7.28.24.1.44.24.62.39.18.15.33.34.44.55.1.22.16.48.16.8 0 .36-.06.69-.2 1-.12.3-.31.56-.56.79-.25.22-.56.4-.94.52a4.01 4.01 0 0 1-2.04.12 4.42 4.42 0 0 1-1.33-.5c-.2-.1-.36-.23-.52-.37l.38-.61c.05-.08.1-.14.17-.18a.46.46 0 0 1 .25-.06c.1 0 .2.03.31.1l.36.22a2.25 2.25 0 0 0 1.23.32 2 2 0 0 0 .62-.08c.18-.06.32-.14.44-.24a.95.95 0 0 0 .33-.75.7.7 0 0 0-.16-.48 1.4 1.4 0 0 0-.44-.32 4.05 4.05 0 0 0-.62-.24l-.71-.23a7.43 7.43 0 0 1-.71-.28c-.23-.1-.44-.23-.62-.4a1.83 1.83 0 0 1-.6-1.44 2.11 2.11 0 0 1 .72-1.6c.23-.2.53-.37.87-.5.35-.12.75-.18 1.2-.18.52 0 .99.08 1.41.25.42.16.77.39 1.06.67l-.36.59zm1.73 5.33a1.06 1.06 0 0 1 .3-.74 1.02 1.02 0 0 1 .73-.31 1.02 1.02 0 0 1 .75.3 1.06 1.06 0 0 1 .22 1.16 1.07 1.07 0 0 1-.56.55 1.06 1.06 0 0 1-.82 0 .97.97 0 0 1-.32-.22 1.05 1.05 0 0 1-.3-.74z"/>
    <path fill="#F8FAFC" stroke="#B8C7D2" d="M.5.5h725v189H.5z"/>
    <path fill="#3E5667" fill-rule="nonzero" d="M237.76 66.6c0 .8-.13 1.53-.39 2.2a4.95 4.95 0 0 1-2.8 2.8c-.66.27-1.4.4-2.2.4h-4.09V61.2h4.08c.81 0 1.55.13 2.21.4a4.93 4.93 0 0 1 2.8 2.8c.26.67.4 1.4.4 2.2zm-1.79 0a5.2 5.2 0 0 0-.25-1.67 3.14 3.14 0 0 0-1.86-2.04 3.92 3.92 0 0 0-1.5-.27h-2.32v7.96h2.32c.56 0 1.06-.09 1.5-.27.45-.18.83-.44 1.14-.78.31-.34.55-.76.72-1.25.17-.5.25-1.05.25-1.68zm8.34.71c0-.27-.04-.52-.12-.75-.07-.23-.19-.44-.34-.6-.15-.18-.33-.32-.56-.41a1.9 1.9 0 0 0-.76-.15c-.59 0-1.05.17-1.38.5-.34.34-.55.8-.64 1.41h3.8zm-3.85 1c.02.43.09.8.2 1.12.12.32.27.58.47.8.19.2.42.36.69.46a2.73 2.73 0 0 0 1.71.05 3.84 3.84 0 0 0 1.03-.48c.13-.08.23-.11.34-.11.13 0 .22.05.3.15l.45.59c-.19.23-.4.41-.64.57a3.76 3.76 0 0 1-1.6.59c-.29.04-.56.06-.83.06a4 4 0 0 1-1.48-.26 3.28 3.28 0 0 1-1.17-.79c-.34-.34-.6-.77-.78-1.28a5.1 5.1 0 0 1-.03-3.25 3.38 3.38 0 0 1 1.86-2c.44-.2.95-.3 1.52-.3.47 0 .9.08 1.3.23a2.86 2.86 0 0 1 1.71 1.75c.17.43.25.92.25 1.46 0 .25-.03.42-.08.5-.06.09-.16.13-.3.13h-4.92zm7.22 3.69v-6.37l-.75-.1a.67.67 0 0 1-.3-.14.34.34 0 0 1-.12-.28v-.66h1.17v-.64c0-.44.06-.82.19-1.17s.3-.64.55-.88c.23-.24.52-.42.86-.55a3.25 3.25 0 0 1 2.11-.04l-.03.81c-.01.14-.08.21-.2.24-.12.03-.27.04-.46.04-.23 0-.43.02-.6.08a1.08 1.08 0 0 0-.76.76c-.07.2-.1.46-.1.76v.6h2.09v1.16h-2.04V72h-1.61zm8.86-3.34c-.58.02-1.06.06-1.46.13-.4.08-.71.17-.96.28-.25.11-.42.25-.53.4a.88.88 0 0 0-.16.51c0 .18.03.34.09.46.05.13.13.24.24.32.1.08.22.14.36.18a2.32 2.32 0 0 0 1.54-.18c.3-.16.59-.39.88-.69v-1.41zm-4.28-3.24c.87-.81 1.9-1.21 3.09-1.21.44 0 .83.07 1.17.21.35.14.63.34.87.6.23.27.4.57.53.93.12.36.18.75.18 1.19V72h-.72a.7.7 0 0 1-.35-.07c-.08-.05-.15-.14-.2-.29l-.16-.62c-.2.17-.39.33-.58.47-.19.13-.38.25-.59.34-.2.1-.42.17-.65.22-.23.05-.49.07-.77.07-.3 0-.6-.04-.86-.13a1.83 1.83 0 0 1-1.16-1.03 2.22 2.22 0 0 1-.17-.9c0-.29.08-.58.24-.86.16-.28.42-.53.78-.75.36-.22.84-.4 1.43-.55.6-.15 1.32-.23 2.2-.25v-.51c0-.55-.12-.96-.36-1.23-.23-.27-.58-.4-1.03-.4-.31 0-.57.03-.78.11-.21.08-.4.16-.55.25l-.41.25a.7.7 0 0 1-.38.12.46.46 0 0 1-.29-.09.71.71 0 0 1-.19-.21l-.29-.52zm14.18-1.07V72h-.98c-.22 0-.35-.1-.41-.3l-.12-.72a4.65 4.65 0 0 1-1.07.83 3.01 3.01 0 0 1-1.38.31c-.42 0-.79-.07-1.1-.21a2.2 2.2 0 0 1-.81-.6 2.55 2.55 0 0 1-.5-.91 4 4 0 0 1-.16-1.18v-4.87h1.61v4.87c0 .51.12.91.36 1.2.24.28.6.42 1.08.42.36 0 .69-.08 1-.24.3-.16.6-.38.86-.67v-5.58h1.62zm3.6-3.45V72h-1.61V60.9h1.61zm4.45 11.22c-.64 0-1.12-.18-1.47-.54a2.1 2.1 0 0 1-.51-1.5v-4.46h-.84a.34.34 0 0 1-.23-.09c-.07-.06-.1-.14-.1-.26v-.65l1.24-.18.35-2.21a.43.43 0 0 1 .13-.2.35.35 0 0 1 .24-.09h.82v2.52h2.13v1.16h-2.13v4.34c0 .28.07.48.2.63a.7.7 0 0 0 .55.22c.12 0 .23-.02.32-.05a1.46 1.46 0 0 0 .4-.21c.05-.03.1-.05.14-.05.09 0 .16.05.21.15l.49.79c-.26.22-.55.39-.89.5a3.2 3.2 0 0 1-1.05.18zm12.71-9.08a.66.66 0 0 1-.17.2.38.38 0 0 1-.22.07c-.1 0-.2-.04-.32-.12a3.81 3.81 0 0 0-1.05-.54 2.54 2.54 0 0 0-.84-.12c-.3 0-.56.03-.8.11-.22.08-.41.18-.56.31-.16.14-.28.3-.35.48-.08.18-.12.38-.12.6 0 .27.07.5.22.68.14.19.33.34.57.47.24.13.51.25.81.34l.94.31c.32.12.63.24.93.38.3.14.58.32.82.53a2.44 2.44 0 0 1 .79 1.92c0 .48-.08.93-.25 1.35a3.18 3.18 0 0 1-1.87 1.84 4.98 4.98 0 0 1-5.04-1.15l.5-.84a.5.5 0 0 1 .18-.16.46.46 0 0 1 .23-.06c.12 0 .24.05.38.16l.5.35c.2.13.44.25.72.35.29.11.62.17 1.01.17.64 0 1.13-.16 1.47-.47.35-.31.52-.74.52-1.28 0-.3-.07-.56-.21-.75-.15-.2-.34-.35-.58-.48-.23-.13-.5-.24-.81-.33l-.93-.3c-.32-.1-.62-.21-.93-.35-.3-.14-.58-.32-.81-.54a2.5 2.5 0 0 1-.58-.83 3.03 3.03 0 0 1-.22-1.22 2.91 2.91 0 0 1 .9-2.1c.3-.29.66-.51 1.09-.69a4.8 4.8 0 0 1 3.18.04c.5.2.95.47 1.33.84l-.43.84zm4.35 9.08c-.63 0-1.12-.18-1.46-.54a2.1 2.1 0 0 1-.52-1.5v-4.46h-.84a.34.34 0 0 1-.23-.09c-.06-.06-.1-.14-.1-.26v-.65l1.24-.18.35-2.21a.43.43 0 0 1 .13-.2.35.35 0 0 1 .24-.09h.82v2.52h2.13v1.16h-2.13v4.34c0 .28.07.48.2.63a.7.7 0 0 0 .55.22c.12 0 .23-.02.32-.05a1.46 1.46 0 0 0 .4-.21c.05-.03.1-.05.14-.05.09 0 .16.05.22.15l.48.79c-.25.22-.55.39-.89.5a3.2 3.2 0 0 1-1.05.18zm7.12-3.47c-.58.03-1.06.07-1.46.14-.39.08-.71.17-.95.28-.25.11-.43.25-.53.4a.88.88 0 0 0-.17.51c0 .18.03.34.1.46.05.13.13.24.23.32.1.08.22.14.36.18a2.32 2.32 0 0 0 1.54-.18c.3-.16.6-.39.88-.69v-1.41zm-4.28-3.23c.87-.81 1.9-1.21 3.1-1.21.44 0 .83.07 1.17.21.34.14.63.34.86.6.23.27.41.57.53.93.13.36.19.75.19 1.19V72h-.72a.7.7 0 0 1-.35-.07c-.09-.05-.15-.14-.2-.29l-.17-.62c-.19.17-.38.33-.57.47-.2.13-.39.25-.6.34-.2.1-.41.17-.64.22-.24.05-.5.07-.77.07-.31 0-.6-.04-.87-.13a1.83 1.83 0 0 1-1.15-1.03 2.22 2.22 0 0 1-.17-.9c0-.29.08-.58.23-.86.16-.28.42-.53.78-.75.37-.22.84-.4 1.44-.55.59-.15 1.32-.23 2.19-.25v-.51c0-.55-.12-.96-.35-1.23-.24-.27-.58-.4-1.04-.4-.3 0-.57.03-.78.11-.2.08-.39.16-.55.25l-.4.25a.7.7 0 0 1-.39.12.46.46 0 0 1-.28-.09.71.71 0 0 1-.2-.21l-.29-.52zm10.08 6.7c-.64 0-1.13-.18-1.47-.54a2.1 2.1 0 0 1-.51-1.5v-4.46h-.84a.34.34 0 0 1-.23-.09c-.07-.06-.1-.14-.1-.26v-.65l1.24-.18.35-2.21a.43.43 0 0 1 .13-.2.35.35 0 0 1 .23-.09h.83v2.52h2.12v1.16h-2.12v4.34c0 .28.07.48.2.63a.7.7 0 0 0 .54.22c.13 0 .24-.02.33-.05a1.46 1.46 0 0 0 .4-.21c.04-.03.09-.05.13-.05.1 0 .17.05.22.15l.48.79c-.25.22-.54.39-.88.5a3.2 3.2 0 0 1-1.05.18zm8-4.8c0-.28-.05-.53-.12-.76-.08-.23-.2-.44-.35-.6-.15-.18-.33-.32-.55-.41a1.9 1.9 0 0 0-.77-.15c-.59 0-1.05.17-1.38.5-.34.34-.55.8-.64 1.41h3.8zm-3.86.98c.02.44.1.81.2 1.13.12.32.28.58.47.8.2.2.42.36.69.46a2.73 2.73 0 0 0 1.71.05 3.84 3.84 0 0 0 1.04-.48c.12-.08.23-.11.33-.11.13 0 .23.05.3.15l.45.59c-.19.23-.4.41-.64.57a3.76 3.76 0 0 1-1.6.59c-.28.04-.56.06-.83.06a4 4 0 0 1-1.47-.26 3.28 3.28 0 0 1-1.18-.79c-.33-.34-.6-.77-.78-1.28a5.1 5.1 0 0 1-.03-3.25 3.38 3.38 0 0 1 1.86-2c.45-.2.95-.3 1.52-.3.47 0 .9.08 1.3.23a2.86 2.86 0 0 1 1.72 1.75c.16.43.24.92.24 1.46 0 .25-.03.42-.08.5-.06.09-.16.13-.3.13h-4.91zM246.22 121.2V132h-1.75v-4.8h-5.43v4.8h-1.76v-10.8h1.76v4.72h5.43v-4.72h1.75zm5.35 3.03c.57 0 1.08.1 1.53.28a3.29 3.29 0 0 1 1.92 2.02c.18.49.26 1.03.26 1.64 0 .6-.08 1.15-.26 1.63a3.26 3.26 0 0 1-1.92 2.03c-.45.19-.96.28-1.53.28-.57 0-1.08-.09-1.54-.28a3.3 3.3 0 0 1-1.93-2.03 4.8 4.8 0 0 1-.26-1.63c0-.6.09-1.15.26-1.64a3.33 3.33 0 0 1 1.92-2.03c.47-.18.98-.27 1.55-.27zm0 6.62c.69 0 1.2-.23 1.54-.7.34-.45.5-1.11.5-1.97 0-.87-.16-1.53-.5-2-.34-.46-.85-.7-1.54-.7-.7 0-1.22.24-1.56.7a3.34 3.34 0 0 0-.51 2c0 .86.17 1.52.51 1.98.34.46.86.7 1.56.7zm11.77-6.5l-3.08 7.65h-1.45l-3.08-7.65h1.33a.5.5 0 0 1 .31.1c.08.06.14.13.16.22l1.7 4.45a10.9 10.9 0 0 1 .33 1.25 7.19 7.19 0 0 1 .33-1.25l1.73-4.45a.46.46 0 0 1 .17-.23.47.47 0 0 1 .29-.09h1.26zm5.9 2.96c0-.27-.05-.52-.12-.75-.08-.23-.2-.44-.35-.6-.15-.18-.33-.32-.55-.41a1.9 1.9 0 0 0-.77-.15c-.59 0-1.05.17-1.38.5-.34.34-.55.8-.64 1.41h3.8zm-3.86 1c.02.43.1.8.2 1.12.12.32.28.58.47.8.2.2.42.36.69.46a2.73 2.73 0 0 0 1.71.05 3.84 3.84 0 0 0 1.04-.48c.12-.08.23-.11.33-.11.13 0 .23.05.3.15l.45.59c-.19.23-.4.41-.64.57a3.76 3.76 0 0 1-1.6.59c-.28.04-.56.06-.83.06a4 4 0 0 1-1.47-.26 3.28 3.28 0 0 1-1.18-.79c-.33-.34-.6-.77-.78-1.28a5.1 5.1 0 0 1-.03-3.25 3.38 3.38 0 0 1 1.86-2c.45-.2.95-.3 1.52-.3.47 0 .9.08 1.3.23a2.86 2.86 0 0 1 1.72 1.75c.16.43.24.92.24 1.46 0 .25-.03.42-.08.5-.06.09-.16.13-.3.13h-4.92zm8.32-2.54c.24-.49.53-.87.87-1.15.34-.27.75-.41 1.23-.41.16 0 .31.02.46.05.15.04.27.1.39.17l-.11 1.22c-.02.08-.05.14-.1.17a.27.27 0 0 1-.17.05c-.07 0-.18-.01-.32-.04a2.3 2.3 0 0 0-.44-.04c-.23 0-.42.03-.6.1-.17.06-.32.16-.46.28-.14.13-.26.28-.37.46-.1.18-.2.38-.29.62V132h-1.61v-7.65h.94c.17 0 .28.03.35.1.06.06.11.16.13.32l.1 1zm13.38-2.72a.66.66 0 0 1-.17.2.38.38 0 0 1-.23.06c-.09 0-.2-.04-.31-.12a3.81 3.81 0 0 0-1.05-.54 2.54 2.54 0 0 0-.84-.12c-.3 0-.56.03-.8.11-.22.08-.41.18-.56.31-.16.14-.28.3-.35.48-.08.18-.12.38-.12.6 0 .27.07.5.22.68.14.19.33.34.57.47.24.13.51.25.81.34l.94.31c.32.12.63.24.93.38.3.14.58.32.82.53a2.44 2.44 0 0 1 .79 1.92c0 .48-.08.93-.25 1.35a3.18 3.18 0 0 1-1.87 1.84 4.98 4.98 0 0 1-5.04-1.15l.5-.84a.5.5 0 0 1 .18-.16.46.46 0 0 1 .23-.06c.12 0 .24.05.38.16l.5.35c.2.13.44.25.72.35.29.11.62.16 1.01.16.64 0 1.13-.15 1.47-.46.35-.31.52-.74.52-1.28 0-.3-.07-.56-.21-.75-.15-.2-.34-.35-.58-.48-.23-.13-.5-.24-.81-.33l-.93-.3c-.32-.1-.62-.21-.93-.35-.3-.14-.58-.32-.81-.54a2.5 2.5 0 0 1-.58-.83 3.03 3.03 0 0 1-.22-1.22 2.91 2.91 0 0 1 .9-2.1c.3-.29.65-.51 1.08-.69a4.8 4.8 0 0 1 3.18.04c.52.2.96.47 1.34.83l-.43.84zm4.35 9.07c-.63 0-1.12-.18-1.46-.54a2.1 2.1 0 0 1-.52-1.5v-4.46h-.84a.34.34 0 0 1-.23-.09c-.06-.06-.1-.14-.1-.26v-.65l1.24-.18.35-2.21a.43.43 0 0 1 .13-.2.35.35 0 0 1 .24-.09h.82v2.52h2.13v1.16h-2.13v4.34c0 .28.07.48.2.63a.7.7 0 0 0 .55.22c.12 0 .23-.02.32-.05a1.46 1.46 0 0 0 .4-.21c.05-.03.1-.05.14-.05.09 0 .16.05.22.15l.48.79c-.25.22-.55.39-.89.5a3.2 3.2 0 0 1-1.05.18zm7.12-3.47c-.58.03-1.06.07-1.45.14-.4.08-.72.17-.97.28-.24.11-.42.25-.52.4a.88.88 0 0 0-.17.51c0 .18.03.34.1.46.05.13.13.24.23.32.1.08.22.14.36.18a2.32 2.32 0 0 0 1.54-.18c.3-.16.6-.39.88-.69v-1.41zm-4.28-3.23c.87-.81 1.9-1.21 3.1-1.21.44 0 .83.07 1.17.21.34.14.63.34.86.6.23.27.41.57.53.93.13.36.19.75.19 1.19V132h-.72a.7.7 0 0 1-.35-.07c-.09-.05-.15-.14-.2-.29l-.17-.62c-.19.17-.38.33-.57.47-.2.13-.39.25-.6.34-.2.1-.41.17-.64.22-.24.05-.5.07-.77.07-.31 0-.6-.04-.87-.13a1.83 1.83 0 0 1-1.15-1.03 2.22 2.22 0 0 1-.17-.9c0-.29.08-.58.23-.86.16-.28.42-.53.78-.75.37-.22.84-.4 1.44-.55.59-.15 1.32-.23 2.19-.25v-.51c0-.55-.12-.96-.35-1.23-.24-.27-.58-.4-1.04-.4-.3 0-.57.03-.78.11-.2.08-.39.16-.55.25l-.4.25a.7.7 0 0 1-.39.12.46.46 0 0 1-.28-.09.71.71 0 0 1-.2-.21l-.29-.52zm10.08 6.7c-.64 0-1.13-.18-1.47-.54a2.1 2.1 0 0 1-.51-1.5v-4.46h-.84a.34.34 0 0 1-.23-.09c-.07-.06-.1-.14-.1-.26v-.65l1.24-.18.35-2.21a.43.43 0 0 1 .13-.2.35.35 0 0 1 .23-.09h.83v2.52h2.12v1.16h-2.12v4.34c0 .28.07.48.2.63a.7.7 0 0 0 .54.22c.13 0 .23-.02.32-.05a1.46 1.46 0 0 0 .4-.21c.05-.03.1-.05.14-.05.1 0 .17.05.22.15l.48.79c-.25.22-.54.39-.88.5a3.2 3.2 0 0 1-1.05.18zm8-4.8c0-.28-.05-.53-.12-.76-.08-.23-.2-.44-.35-.6-.15-.18-.33-.32-.55-.41a1.9 1.9 0 0 0-.77-.15c-.59 0-1.05.17-1.38.5-.34.34-.55.8-.64 1.41h3.8zm-3.86.98c.02.44.1.81.2 1.13.12.32.28.58.47.8.2.2.42.36.69.46a2.73 2.73 0 0 0 1.71.05 3.84 3.84 0 0 0 1.04-.48c.12-.08.23-.11.33-.11.13 0 .23.05.3.15l.45.59c-.19.23-.4.41-.64.57a3.76 3.76 0 0 1-1.6.59c-.28.04-.56.06-.83.06a4 4 0 0 1-1.47-.26 3.28 3.28 0 0 1-1.18-.79c-.33-.34-.6-.77-.78-1.28a5.1 5.1 0 0 1-.03-3.25 3.38 3.38 0 0 1 1.86-2c.45-.2.95-.3 1.52-.3.47 0 .9.08 1.3.23a2.86 2.86 0 0 1 1.72 1.75c.16.43.24.92.24 1.46 0 .25-.03.42-.08.5-.06.09-.16.13-.3.13h-4.92z"/>
    <g transform="translate(368 50)">
      <circle cx="15" cy="15" r="15" fill="#FFF"/>
      <text fill="#233745" font-family="Lato-Bold, Lato" font-size="12" font-weight="bold">
        <tspan x="8.11" y="20">TS</tspan>
      </text>
    </g>
    <g transform="translate(448 50)">
      <circle cx="15" cy="15" r="15" fill="#3E5667"/>
      <text fill="#FFF" font-family="Lato-Bold, Lato" font-size="12" font-weight="bold">
        <tspan x="8.11" y="20">TS</tspan>
      </text>
    </g>
    <g transform="translate(368 110)">
      <circle cx="15" cy="15" r="15" fill="#3A8FDD"/>
      <text fill="#FFF" font-family="Lato-Bold, Lato" font-size="12" font-weight="bold">
        <tspan x="8.11" y="20">TS</tspan>
      </text>
    </g>
    <g transform="translate(448 110)">
      <circle cx="15" cy="15" r="15" fill="#3A8FDD"/>
      <text fill="#FFF" font-family="Lato-Bold, Lato" font-size="12" font-weight="bold">
        <tspan x="8.11" y="20">TS</tspan>
      </text>
    </g>
  </g>
</svg>