<svg xmlns="http://www.w3.org/2000/svg" xmlns:xlink="http://www.w3.org/1999/xlink" width="16" height="16" viewBox="0 0 16 16">
  <defs>
    <path id="access-alarms-a" d="M14.6666667,3.79999997 L11.6,1.19999996 L10.7333334,2.19999996 L13.8,4.79999998 L14.6666667,3.79999997 Z M5.26666665,2.26666662 L4.39999998,1.26666662 L1.33333329,3.79999997 L2.19999996,4.79999998 L5.26666665,2.26666662 Z M8.33333333,5.33333332 L7.33333333,5.33333332 L7.33333333,9.33333332 L10.4666667,11.2666667 L11,10.4666667 L8.33333333,8.86666667 L8.33333333,5.33333332 Z M7.99999996,2.66666663 C4.66666665,2.66666663 1.99999996,5.33333332 1.99999996,8.66666663 C1.99999996,12 4.66666665,14.6666666 7.99999996,14.6666666 C11.3333334,14.6666666 14,12 14,8.66666663 C14,5.33333332 11.3333334,2.66666663 7.99999996,2.66666663 Z M8,13.3333334 C5.39999998,13.3333334 3.3333333,11.2666667 3.3333333,8.66666667 C3.3333333,6.06666665 5.39999998,3.99999998 8,3.99999998 C10.6,3.99999998 12.6666667,6.06666665 12.6666667,8.66666667 C12.6666667,11.2666667 10.6,13.3333334 8,13.3333334 Z"/>
  </defs>
  <g fill="none" fill-rule="evenodd">
    <mask id="access-alarms-b" fill="#fff">
      <use xlink:href="#access-alarms-a"/>
    </mask>
    <g fill="CurrentColor" mask="url(#access-alarms-b)">
      <rect width="16" height="16"/>
    </g>
  </g>
</svg>
