<svg xmlns="http://www.w3.org/2000/svg" xmlns:xlink="http://www.w3.org/1999/xlink" width="16" height="16" viewBox="0 0 16 16">
  <defs>
    <path id="battery-charging-30-a" d="M10.6666667,2.66666663 C11.1555556,2.66666663 11.5555556,3.06666664 11.5555556,3.55555553 L11.5555556,9.33333329 L9.33333334,9.33333329 L10.2222222,7.55555555 L8.44444442,7.55555555 L8.44444442,3.99999997 L5.77777776,9.33333329 L4.44444442,9.33333329 L4.44444442,3.55555553 C4.44444442,3.06666664 4.84444442,2.66666663 5.33333332,2.66666663 L6.66666666,2.66666663 L6.66666666,1.33333329 L9.33333334,1.33333329 L9.33333334,2.66666663 L10.6666667,2.66666663 Z M7.55555555,12.8888889 L9.33333334,9.33333334 L11.5555556,9.33333334 L11.5555556,13.3333333 C11.5555556,13.8222223 11.1555556,14.2222223 10.6666667,14.2222223 L5.33333332,14.2222223 C4.84444442,14.2222223 4.44444442,13.8222223 4.44444442,13.3333333 L4.44444442,9.33333334 L7.55555555,9.33333334 L7.55555555,12.8888889 Z"/>
  </defs>
  <g fill="none" fill-rule="evenodd">
    <mask id="battery-charging-30-b" fill="#fff">
      <use xlink:href="#battery-charging-30-a"/>
    </mask>
    <g fill="CurrentColor" mask="url(#battery-charging-30-b)">
      <rect width="16" height="16"/>
    </g>
  </g>
</svg>
