<svg xmlns="http://www.w3.org/2000/svg" xmlns:xlink="http://www.w3.org/1999/xlink" width="16" height="16" viewBox="0 0 16 16">
  <defs>
    <path id="data-usage-a" d="M8.66666667,1.36666663 L8.66666667,3.38666664 C10.9266667,3.71333331 12.6666667,5.64666665 12.6666667,8 C12.6666667,8.6 12.5466667,9.16666667 12.3466667,9.69333334 L14.08,10.7133334 C14.4533334,9.88666668 14.6666667,8.96666667 14.6666667,8 C14.6666667,4.54666665 12.0333334,1.69999996 8.66666667,1.36666663 Z M8,12.6666667 C5.41999998,12.6666667 3.33333329,10.58 3.33333329,8 C3.33333329,5.64666665 5.07333332,3.71333331 7.33333329,3.38666664 L7.33333329,1.36666663 C3.95999997,1.69999996 1.33333329,4.53999998 1.33333329,8 C1.33333329,11.68 4.31333331,14.6666667 7.99333333,14.6666667 C10.2,14.6666667 12.1533334,13.5933334 13.3666667,11.94 L11.6333334,10.92 C10.78,11.9866667 9.47333334,12.6666667 8,12.6666667 Z"/>
  </defs>
  <g fill="none" fill-rule="evenodd">
    <mask id="data-usage-b" fill="#fff">
      <use xlink:href="#data-usage-a"/>
    </mask>
    <g fill="CurrentColor" mask="url(#data-usage-b)">
      <rect width="16" height="16"/>
    </g>
  </g>
</svg>
