<svg xmlns="http://www.w3.org/2000/svg" xmlns:xlink="http://www.w3.org/1999/xlink" width="16" height="16" viewBox="0 0 16 16">
  <defs>
    <path id="devices-a" d="M2.66666663,3.99999997 L14.6666667,3.99999997 L14.6666667,2.66666663 L2.66666663,2.66666663 C1.9333333,2.66666663 1.33333329,3.26666664 1.33333329,3.99999997 L1.33333329,11.3333334 L-5.00000006e-08,11.3333334 L-5.00000006e-08,13.3333334 L9.33333334,13.3333334 L9.33333334,11.3333334 L2.66666663,11.3333334 L2.66666663,3.99999997 Z M15.3333334,5.33333332 L11.3333334,5.33333332 C10.9666667,5.33333332 10.6666667,5.63333332 10.6666667,5.99999999 L10.6666667,12.6666667 C10.6666667,13.0333334 10.9666667,13.3333333 11.3333334,13.3333333 L15.3333334,13.3333333 C15.7,13.3333333 16.0000001,13.0333334 16.0000001,12.6666667 L16.0000001,5.99999999 C16.0000001,5.63333332 15.7,5.33333332 15.3333334,5.33333332 Z M14.6666667,11.3333334 L12,11.3333334 L12,6.66666666 L14.6666667,6.66666666 L14.6666667,11.3333334 Z"/>
  </defs>
  <g fill="none" fill-rule="evenodd">
    <mask id="devices-b" fill="#fff">
      <use xlink:href="#devices-a"/>
    </mask>
    <g fill="CurrentColor" mask="url(#devices-b)">
      <rect width="16" height="16"/>
    </g>
  </g>
</svg>
