<svg xmlns="http://www.w3.org/2000/svg" xmlns:xlink="http://www.w3.org/1999/xlink" width="16" height="16" viewBox="0 0 16 16">
  <defs>
    <path id="screen-lock-landscape-a" d="M14,3.3333333 L1.99999996,3.3333333 C1.26666662,3.3333333 0.666666621,3.93333331 0.666666621,4.66666665 L0.666666621,11.3333333 C0.666666621,12.0666667 1.26666662,12.6666667 1.99999996,12.6666667 L14,12.6666667 C14.7333334,12.6666667 15.3333334,12.0666667 15.3333334,11.3333333 L15.3333334,4.66666665 C15.3333334,3.93333331 14.7333334,3.3333333 14,3.3333333 Z M12.6666667,11.3333334 L3.3333333,11.3333334 L3.3333333,4.66666665 L12.6666667,4.66666665 L12.6666667,11.3333334 Z M6.66666666,10.6666667 L9.33333334,10.6666667 C9.70000001,10.6666667 9.99999999,10.3666667 9.99999999,10 L9.99999999,8 C9.99999999,7.63333333 9.70000001,7.33333332 9.33333334,7.33333332 L9.33333334,6.66666666 C9.33333334,5.92666665 8.73333334,5.33333332 7.99999999,5.33333332 C7.26,5.33333332 6.66666666,5.93333332 6.66666666,6.66666666 L6.66666666,7.33333332 C6.29999999,7.33333332 5.99999999,7.63333333 5.99999999,8 L5.99999999,10 C5.99999999,10.3666667 6.29999999,10.6666667 6.66666666,10.6666667 Z M7.19999999,6.66666666 C7.19999999,6.22666666 7.56,5.86666665 8,5.86666665 C8.44,5.86666665 8.8,6.22666666 8.8,6.66666666 L8.8,7.33333333 L7.19999999,7.33333333 L7.19999999,6.66666666 L7.19999999,6.66666666 Z"/>
  </defs>
  <g fill="none" fill-rule="evenodd">
    <mask id="screen-lock-landscape-b" fill="#fff">
      <use xlink:href="#screen-lock-landscape-a"/>
    </mask>
    <g fill="CurrentColor" mask="url(#screen-lock-landscape-b)">
      <rect width="16" height="16"/>
    </g>
  </g>
</svg>
