<svg xmlns="http://www.w3.org/2000/svg" xmlns:xlink="http://www.w3.org/1999/xlink" width="16" height="16" viewBox="0 0 16 16">
  <defs>
    <path id="screen-lock-rotation-a" d="M15.5,8.51333334 L13.7866667,6.79999999 L12.8466667,7.74 L14.3266667,9.22000001 L10.5533333,12.9933334 L3.00666664,5.44666665 L6.77999999,1.67333329 L8.18,3.0733333 L9.12000001,2.1333333 L7.48666666,0.499999953 C7.09333333,0.106666617 6.45999999,0.106666617 6.07333332,0.499999953 L1.83333329,4.73999998 C1.43999996,5.13333332 1.43999996,5.76666665 1.83333329,6.15333332 L9.84666668,14.1666667 C10.24,14.56 10.8733334,14.56 11.26,14.1666667 L15.5,9.92666668 C15.8933334,9.53333334 15.8933334,8.90000001 15.5,8.51333334 Z M5.64666665,13.6533334 C3.46666664,12.6266667 1.90666663,10.5066667 1.66666662,8 L0.666666621,8 C1.00666662,12.1066667 4.43999998,15.3333334 8.63333334,15.3333334 L9.07333334,15.3133334 L6.53333332,12.7666667 L5.64666665,13.6533334 L5.64666665,13.6533334 Z M10.6666667,5.99999995 L14,5.99999995 C14.3666667,5.99999995 14.6666667,5.69999999 14.6666667,5.33333332 L14.6666667,2.66666663 C14.6666667,2.29999996 14.3666667,1.99999995 14,1.99999995 L14,1.66666663 C14,0.746666621 13.2533334,-5.00000006e-08 12.3333334,-5.00000006e-08 C11.4133334,-5.00000006e-08 10.6666667,0.746666621 10.6666667,1.66666663 L10.6666667,1.99999995 C10.3,1.99999995 10,2.29999996 10,2.66666663 L10,5.33333332 C10,5.69999999 10.3,5.99999995 10.6666667,5.99999995 Z M11.2,1.66666663 C11.2,1.03999996 11.7066667,0.533333287 12.3333334,0.533333287 C12.96,0.533333287 13.4666667,1.03999996 13.4666667,1.66666663 L13.4666667,1.99999996 L11.2,1.99999996 L11.2,1.66666663 Z"/>
  </defs>
  <g fill="none" fill-rule="evenodd">
    <mask id="screen-lock-rotation-b" fill="#fff">
      <use xlink:href="#screen-lock-rotation-a"/>
    </mask>
    <g fill="CurrentColor" mask="url(#screen-lock-rotation-b)">
      <rect width="16" height="16"/>
    </g>
  </g>
</svg>
