<svg xmlns="http://www.w3.org/2000/svg" xmlns:xlink="http://www.w3.org/1999/xlink" width="16" height="16" viewBox="0 0 16 16">
  <defs>
    <path id="signal-wifi-3-bar-lock-a" d="M2.37708303,7.23873664 C2.82410588,6.94222358 4.91700978,5.33333332 8,5.33333332 C9.93333335,5.33333332 11.5333334,5.99999999 12.5333334,6.59999999 C11.2666667,7.06666666 10.3333333,8.26666667 10.3333333,9.73333334 L10.3333333,11.4666667 L8,14.3333333 L2.3333333,7.26666666 C2.34552182,7.25935355 2.36011701,7.24999031 2.37708303,7.23873664 L0.266666618,4.66666665 C0.533333287,4.46666664 3.53333331,1.99999996 8,1.99999996 C12.4666667,1.99999996 15.4666667,4.46666664 15.7333334,4.66666665 L14.3333334,6.46666666 C14.1333334,6.39999999 13.9333334,6.39999999 13.6666667,6.39999999 C13.4666667,6.39999999 13.2666666,6.39999999 13.0666667,6.46666666 C12.8666667,6.46666666 12.7333334,6.53333332 12.5333334,6.59999999 C11.2666666,7.06666666 10.3333333,8.26666667 10.3333333,9.73333334 L10.3333333,11.4666667 L8,14.3333334 L2.39999997,7.26666666 L2.37708303,7.23873664 Z M15.3333334,10.6666667 C15.6666667,10.6666667 16.0000001,11 16.0000001,11.3333334 L16.0000001,14 C16.0000001,14.3333334 15.6666667,14.6666667 15.3333334,14.6666667 L12,14.6666667 C11.6666667,14.6666667 11.3333334,14.3333334 11.3333334,14 L11.3333334,11.3333334 C11.3333334,11 11.6666667,10.6666667 12,10.6666667 L12,9.66666668 C12,8.73333334 12.7333334,8 13.6666667,8 C14.6,8 15.3333334,8.73333334 15.3333334,9.66666668 L15.3333334,10.6666667 Z M14.6666667,10.6666667 L14.6666667,9.66666667 C14.6666667,9.13333334 14.2,8.66666667 13.6666667,8.66666667 C13.1333334,8.66666667 12.6666667,9.13333334 12.6666667,9.66666667 L12.6666667,10.6666667 L14.6666667,10.6666667 Z"/>
  </defs>
  <g fill="none" fill-rule="evenodd">
    <mask id="signal-wifi-3-bar-lock-b" fill="#fff">
      <use xlink:href="#signal-wifi-3-bar-lock-a"/>
    </mask>
    <g fill="CurrentColor" mask="url(#signal-wifi-3-bar-lock-b)">
      <rect width="16" height="16"/>
    </g>
  </g>
</svg>
