<svg xmlns="http://www.w3.org/2000/svg" xmlns:xlink="http://www.w3.org/1999/xlink" width="16" height="16" viewBox="0 0 16 16">
  <defs>
    <path id="signal-wifi-statusbar-not-connected-26x24px-a" d="M12.923077,5.84615381 C11.2246154,5.84615381 9.84615386,7.22461538 9.84615386,8.92307693 C9.84615386,9.6923077 10.1292308,10.3876923 10.5969231,10.9230769 L8.00615385,14.1476923 L8,14.1538462 L7.99384615,14.1415385 L0.25846149,4.50461536 C0.553846107,4.2830769 3.53230766,1.84615381 8,1.84615381 C12.4676923,1.84615381 15.4461539,4.2830769 15.7415385,4.51076921 L14.363077,6.2276923 C13.9323077,5.9876923 13.4461539,5.84615381 12.923077,5.84615381 Z M12.923077,6.76923076 C14.1107693,6.76923076 15.0769231,7.73538461 15.083077,8.92923078 C15.083077,9.40307693 14.8861539,9.83384617 14.5784616,10.1415385 L14.0984616,10.6338462 C13.7046154,11.0215385 13.4646154,11.3476923 13.4646154,12.1538462 L12.3876923,12.1538462 L12.3876923,11.8830769 C12.3876923,11.2923077 12.6276923,10.7507692 13.0153846,10.3630769 L13.6861539,9.68615386 C13.8769231,9.48923078 14,9.21846155 14,8.92307693 C14,8.32615385 13.52,7.84615385 12.923077,7.84615385 C12.3261539,7.84615385 11.8461539,8.32615385 11.8461539,8.92307693 L10.7692308,8.92307693 C10.7692308,7.73538461 11.7353846,6.76923076 12.923077,6.76923076 Z M12.3384616,14.123077 L12.3384616,12.9538462 L13.5076923,12.9538462 L13.5076923,14.123077 L12.3384616,14.123077 Z"/>
  </defs>
  <g fill="none" fill-rule="evenodd">
    <mask id="signal-wifi-statusbar-not-connected-26x24px-b" fill="#fff">
      <use xlink:href="#signal-wifi-statusbar-not-connected-26x24px-a"/>
    </mask>
    <g fill="CurrentColor" mask="url(#signal-wifi-statusbar-not-connected-26x24px-b)">
      <rect width="16" height="16"/>
    </g>
  </g>
</svg>
