<svg xmlns="http://www.w3.org/2000/svg" xmlns:xlink="http://www.w3.org/1999/xlink" width="16" height="16" viewBox="0 0 16 16">
  <defs>
    <path id="signal-wifi-1-bar-lock-a" d="M4.47417082,9.9260469 L0.266666618,4.66666665 C0.533333287,4.46666664 3.53333331,1.99999996 8,1.99999996 C12.4666667,1.99999996 15.4666667,4.46666664 15.7333334,4.66666665 L14.3333334,6.39999999 C14.1333334,6.33333332 13.9333334,6.33333332 13.6666667,6.33333332 C11.9433719,6.33333332 10.5609917,7.58335349 10.3588066,9.24411334 C10.3726731,9.25159534 10.386405,9.25911389 10.4,9.26666667 C10.3333333,9.40000001 10.3333333,9.60000001 10.3333333,9.73333334 L10.3333333,11.4666667 L8,14.3333334 L4.46666664,9.93333335 C4.46883423,9.93116576 4.47133658,9.92873389 4.47417082,9.9260469 Z M15.3333334,10.6666667 C15.6666667,10.6666667 16.0000001,11 16.0000001,11.3333334 L16.0000001,14 C16.0000001,14.3333334 15.6666667,14.6666667 15.3333334,14.6666667 L12,14.6666667 C11.6666667,14.6666667 11.3333334,14.3333334 11.3333334,14 L11.3333334,11.3333334 C11.3333334,11 11.6666667,10.6666667 12,10.6666667 L12,9.66666668 C12,8.73333334 12.7333334,8 13.6666667,8 C14.6,8 15.3333334,8.73333334 15.3333334,9.66666668 L15.3333334,10.6666667 Z M14.6666667,10.6666667 L14.6666667,9.66666667 C14.6666667,9.13333334 14.2,8.66666667 13.6666667,8.66666667 C13.1333334,8.66666667 12.6666667,9.13333334 12.6666667,9.66666667 L12.6666667,10.6666667 L14.6666667,10.6666667 Z"/>
  </defs>
  <g fill="none" fill-rule="evenodd">
    <mask id="signal-wifi-1-bar-lock-b" fill="#fff">
      <use xlink:href="#signal-wifi-1-bar-lock-a"/>
    </mask>
    <g fill="CurrentColor" mask="url(#signal-wifi-1-bar-lock-b)">
      <rect width="16" height="16"/>
    </g>
  </g>
</svg>
