<svg xmlns="http://www.w3.org/2000/svg" xmlns:xlink="http://www.w3.org/1999/xlink" width="16" height="16" viewBox="0 0 16 16">
  <defs>
    <path id="signal-wifi-statusbar-connected-no-internet-2-26x24px-a" d="M10.1569231,11.4676923 L8.00615385,14.1476923 L8,14.1538462 L7.99384615,14.1476923 L3.35384612,8.36307693 C3.35420461,8.36281733 3.35456958,8.36255235 3.35494103,8.362282 L0.25846149,4.50461536 C0.553846107,4.2830769 3.53230766,1.84615381 8,1.84615381 C12.4676923,1.84615381 15.4461539,4.2830769 15.7476924,4.50461536 L14.9169231,5.53846152 L12.3076923,5.53846152 L12.3076923,8.78769231 L10.1569231,11.4676923 Z M13.5384616,6.76923076 L14.7692308,6.76923076 L14.7692308,11.6923077 L13.5384616,11.6923077 L13.5384616,6.76923076 Z M13.5384616,14.1538462 L13.5384616,12.923077 L14.7692308,12.923077 L14.7692308,14.1538462 L13.5384616,14.1538462 Z"/>
  </defs>
  <g fill="none" fill-rule="evenodd">
    <mask id="signal-wifi-statusbar-connected-no-internet-2-26x24px-b" fill="#fff">
      <use xlink:href="#signal-wifi-statusbar-connected-no-internet-2-26x24px-a"/>
    </mask>
    <g fill="CurrentColor" mask="url(#signal-wifi-statusbar-connected-no-internet-2-26x24px-b)">
      <rect width="16" height="16"/>
    </g>
  </g>
</svg>
