<svg xmlns="http://www.w3.org/2000/svg" xmlns:xlink="http://www.w3.org/1999/xlink" width="16" height="16" viewBox="0 0 16 16">
  <defs>
    <path id="storage-a" d="M1.33333329,13.3333334 L14.6666667,13.3333334 L14.6666667,10.6666667 L1.33333329,10.6666667 L1.33333329,13.3333334 Z M2.66666663,11.3333334 L3.99999997,11.3333334 L3.99999997,12.6666667 L2.66666663,12.6666667 L2.66666663,11.3333334 Z M1.33333329,2.66666663 L1.33333329,5.33333332 L14.6666667,5.33333332 L14.6666667,2.66666663 L1.33333329,2.66666663 Z M3.99999997,4.66666665 L2.66666663,4.66666665 L2.66666663,3.3333333 L3.99999997,3.3333333 L3.99999997,4.66666665 Z M1.33333329,9.33333334 L14.6666667,9.33333334 L14.6666667,6.66666666 L1.33333329,6.66666666 L1.33333329,9.33333334 Z M2.66666663,7.33333333 L3.99999997,7.33333333 L3.99999997,8.66666667 L2.66666663,8.66666667 L2.66666663,7.33333333 Z"/>
  </defs>
  <g fill="none" fill-rule="evenodd">
    <mask id="storage-b" fill="#fff">
      <use xlink:href="#storage-a"/>
    </mask>
    <g fill="CurrentColor" mask="url(#storage-b)">
      <rect width="16" height="16"/>
    </g>
  </g>
</svg>
