<svg xmlns="http://www.w3.org/2000/svg" xmlns:xlink="http://www.w3.org/1999/xlink" width="16" height="16" viewBox="0 0 16 16">
  <defs>
    <path id="usb-a" d="M9.77777779,5.77777774 L9.77777779,7.55555555 L10.2222222,7.55555555 L10.2222222,8.88888889 L8.44444445,8.88888889 L8.44444445,4.44444442 L9.77777779,4.44444442 L8,1.77777774 L6.22222221,4.44444442 L7.55555555,4.44444442 L7.55555555,8.88888889 L5.77777776,8.88888889 L5.77777776,7.52 C6.08888888,7.36 6.3111111,7.03999999 6.3111111,6.66666666 C6.3111111,6.12444443 5.87555554,5.68888887 5.33333332,5.68888887 C4.79111109,5.68888887 4.35555553,6.12444443 4.35555553,6.66666666 C4.35555553,7.03999999 4.57777776,7.36 4.88888887,7.52 L4.88888887,8.88888889 C4.88888887,9.37777779 5.28888887,9.77777774 5.77777776,9.77777774 L7.55555555,9.77777774 L7.55555555,11.6355556 C7.03999999,11.8222222 6.66666666,12.3111111 6.66666666,12.8888889 C6.66666666,13.6266667 7.26222222,14.2222223 8,14.2222223 C8.73777778,14.2222223 9.33333334,13.6266667 9.33333334,12.8888889 C9.33333334,12.3111111 8.96000001,11.8222222 8.44444445,11.6355556 L8.44444445,9.77777774 L10.2222222,9.77777774 C10.7111111,9.77777774 11.1111111,9.37777779 11.1111111,8.88888889 L11.1111111,7.55555555 L11.5555556,7.55555555 L11.5555556,5.77777774 L9.77777779,5.77777774 Z"/>
  </defs>
  <g fill="none" fill-rule="evenodd">
    <mask id="usb-b" fill="#fff">
      <use xlink:href="#usb-a"/>
    </mask>
    <g fill="CurrentColor" mask="url(#usb-b)">
      <rect width="16" height="16"/>
    </g>
  </g>
</svg>
