<svg xmlns="http://www.w3.org/2000/svg" xmlns:xlink="http://www.w3.org/1999/xlink" width="16" height="16" viewBox="0 0 16 16">
  <defs>
    <path id="wifi-tethering-a" d="M8,7.33333333 C7.26666666,7.33333333 6.66666666,7.93333333 6.66666666,8.66666667 C6.66666666,9.40000001 7.26666666,10 8,10 C8.73333334,10 9.33333334,9.40000001 9.33333334,8.66666667 C9.33333334,7.93333333 8.73333334,7.33333333 8,7.33333333 Z M12,8.66666665 C12,6.45999999 10.2066667,4.66666665 7.99999997,4.66666665 C5.79333332,4.66666665 3.99999997,6.45999999 3.99999997,8.66666665 C3.99999997,10.1466667 4.80666665,11.4333334 5.99999997,12.1266667 L6.66666666,10.9666667 C5.87333332,10.5 5.33333332,9.65333334 5.33333332,8.66666665 C5.33333332,7.19333333 6.52666666,5.99999999 7.99999997,5.99999999 C9.47333334,5.99999999 10.6666667,7.19333333 10.6666667,8.66666665 C10.6666667,9.65333334 10.1266667,10.5 9.33333334,10.9666667 L9.99999997,12.1266667 C11.1933334,11.4333334 12,10.1466667 12,8.66666665 Z M8,1.99999996 C4.31999998,1.99999996 1.33333329,4.98666665 1.33333329,8.66666667 C1.33333329,11.1333334 2.6733333,13.28 4.65999998,14.4333334 L5.32666665,13.28 C3.73999997,12.3533334 2.66666663,10.64 2.66666663,8.66666667 C2.66666663,5.71999999 5.05333331,3.3333333 8,3.3333333 C10.9466667,3.3333333 13.3333333,5.71999999 13.3333333,8.66666667 C13.3333333,10.64 12.26,12.3533334 10.6666667,13.28 L11.3333333,14.4333334 C13.3266667,13.28 14.6666667,11.1333334 14.6666667,8.66666667 C14.6666667,4.98666665 11.68,1.99999996 8,1.99999996 Z"/>
  </defs>
  <g fill="none" fill-rule="evenodd">
    <mask id="wifi-tethering-b" fill="#fff">
      <use xlink:href="#wifi-tethering-a"/>
    </mask>
    <g fill="CurrentColor" mask="url(#wifi-tethering-b)">
      <rect width="16" height="16"/>
    </g>
  </g>
</svg>
