<svg xmlns="http://www.w3.org/2000/svg" xmlns:xlink="http://www.w3.org/1999/xlink" width="16" height="16" viewBox="0 0 16 16">
  <defs>
    <path id="cached-a" d="M12.6666667,5.33333332 L10,8 L12,8 C12,10.2066667 10.2066667,12 8,12 C7.32666666,12 6.68666666,11.8333333 6.13333332,11.5333334 L5.15999998,12.5066667 C5.97999999,13.0266667 6.95333333,13.3333333 8,13.3333333 C10.9466667,13.3333333 13.3333334,10.9466667 13.3333334,8 L15.3333334,8 L12.6666667,5.33333332 Z M3.99999997,8 C3.99999997,5.79333332 5.79333332,3.99999997 8,3.99999997 C8.67333334,3.99999997 9.31333334,4.16666663 9.86666668,4.46666664 L10.84,3.49333331 C10.02,2.9733333 9.04666667,2.66666663 8,2.66666663 C5.05333331,2.66666663 2.66666662,5.05333331 2.66666662,8 L0.666666621,8 L3.3333333,10.6666666 L5.99999999,8 L3.99999997,8 Z"/>
  </defs>
  <g fill="none" fill-rule="evenodd">
    <mask id="cached-b" fill="#fff">
      <use xlink:href="#cached-a"/>
    </mask>
    <g fill="CurrentColor" mask="url(#cached-b)">
      <rect width="16" height="16"/>
    </g>
  </g>
</svg>
