<?xml version="1.0" encoding="UTF-8"?>
<svg width="16px" height="16px" viewBox="0 0 16 16" version="1.1" xmlns="http://www.w3.org/2000/svg" xmlns:xlink="http://www.w3.org/1999/xlink">
    <title>Icons/Action/card-membership</title>
    <g id="Icons/Action/card-membership" stroke="none" stroke-width="1" fill="none" fill-rule="evenodd">
        <rect id="Spacer" fill-opacity="0" fill="#D8D8D8" x="0" y="0" width="16" height="16"></rect>
        <path d="M13.3333333,1.33333329 L2.66666663,1.33333329 C1.92666663,1.33333329 1.33333329,1.92666663 1.33333329,2.66666663 L1.33333329,10 C1.33333329,10.74 1.92666663,11.3333333 2.66666663,11.3333333 L5.33333329,11.3333333 L5.33333329,14.6666667 L8,13.3333333 L10.6666667,14.6666667 L10.6666667,11.3333333 L13.3333333,11.3333333 C14.0733334,11.3333333 14.6666667,10.74 14.6666667,10 L14.6666667,2.66666663 C14.6666667,1.92666663 14.0733334,1.33333329 13.3333333,1.33333329 Z M13.3333334,10 L2.66666663,10 L2.66666663,8.66666667 L13.3333334,8.66666667 L13.3333334,10 Z M13.3333334,6.66666663 L2.66666663,6.66666663 L2.66666663,2.66666663 L13.3333334,2.66666663 L13.3333334,6.66666663 Z" id="Icons/Action/ic_card_membership_24px" fill="#233745" fill-rule="nonzero"></path>
    </g>
</svg>