<?xml version="1.0" encoding="UTF-8"?>
<svg width="16px" height="16px" viewBox="0 0 16 16" version="1.1" xmlns="http://www.w3.org/2000/svg" xmlns:xlink="http://www.w3.org/1999/xlink">
    <title>Icons/Action/card-travel</title>
    <defs>
        <path d="M13.3333333,3.99999998 L11.3333333,3.99999998 L11.3333333,2.66666663 C11.3333333,1.92666663 10.74,1.33333329 10,1.33333329 L5.99999999,1.33333329 C5.25999998,1.33333329 4.66666665,1.92666663 4.66666665,2.66666663 L4.66666665,3.99999998 L2.66666663,3.99999998 C1.92666663,3.99999998 1.33333329,4.59333331 1.33333329,5.33333329 L1.33333329,12.6666667 C1.33333329,13.4066667 1.92666663,14 2.66666663,14 L13.3333333,14 C14.0733334,14 14.6666667,13.4066667 14.6666667,12.6666667 L14.6666667,5.33333329 C14.6666667,4.59333331 14.0733334,3.99999998 13.3333333,3.99999998 Z M5.99999999,2.66666663 L9.99999999,2.66666663 L9.99999999,3.99999998 L5.99999999,3.99999998 L5.99999999,2.66666663 Z M13.3333334,12.6666667 L2.66666663,12.6666667 L2.66666663,11.3333334 L13.3333334,11.3333334 L13.3333334,12.6666667 Z M13.3333334,9.33333332 L2.66666663,9.33333332 L2.66666663,5.33333332 L4.66666663,5.33333332 L4.66666663,6.66666666 L5.99999999,6.66666666 L5.99999999,5.33333332 L10,5.33333332 L10,6.66666666 L11.3333334,6.66666666 L11.3333334,5.33333332 L13.3333334,5.33333332 L13.3333334,9.33333332 Z" id="path-1"></path>
    </defs>
    <g id="Icons/Action/card-travel" stroke="none" stroke-width="1" fill="none" fill-rule="evenodd">
        <mask id="mask-2" fill="white">
            <use xlink:href="#path-1"></use>
        </mask>
        <use id="Icons/Action/ic_card_travel_24px" fill="#233745" fill-rule="nonzero" xlink:href="#path-1"></use>
    </g>
</svg>