<?xml version="1.0" encoding="UTF-8"?>
<svg width="16px" height="16px" viewBox="0 0 16 16" version="1.1" xmlns="http://www.w3.org/2000/svg" xmlns:xlink="http://www.w3.org/1999/xlink">
    <title>Icons/Action/copyright</title>
    <g id="Icons/Action/copyright" stroke="none" stroke-width="1" fill="none" fill-rule="evenodd">
        <rect id="Spacer" fill-opacity="0" fill="#D8D8D8" x="0" y="0" width="16" height="16"></rect>
        <path d="M6.71999999,7.24 C6.75333333,7.01999999 6.82666666,6.82666666 6.91999999,6.65999999 C7.01333333,6.49333332 7.14666666,6.35333332 7.31333333,6.24666666 C7.47333333,6.14666666 7.67333333,6.09999999 7.92,6.09333332 C8.07333333,6.09999999 8.21333333,6.12666665 8.34,6.17999999 C8.47333334,6.23999999 8.59333334,6.31999999 8.68666667,6.41999999 C8.78,6.51999999 8.85333334,6.63999999 8.91333334,6.77333333 C8.97333334,6.90666666 9.00000001,7.05333333 9.00666667,7.19999999 L10.2,7.19999999 C10.1866667,6.88666666 10.1266667,6.59999999 10.0133333,6.33999999 C9.90000001,6.07999999 9.74666668,5.85333332 9.54666668,5.66666665 C9.34666668,5.47999998 9.10666667,5.33333332 8.82666667,5.22666665 C8.54666667,5.11999998 8.24,5.07333332 7.9,5.07333332 C7.46666666,5.07333332 7.08666666,5.14666665 6.76666666,5.29999998 C6.44666666,5.45333332 6.17999999,5.65333332 5.96666665,5.91333332 C5.75333332,6.17333332 5.59333332,6.47333332 5.49333332,6.81999999 C5.39333332,7.16666666 5.33333332,7.52666666 5.33333332,7.91333333 L5.33333332,8.09333333 C5.33333332,8.48 5.38666665,8.84000001 5.48666665,9.18666667 C5.58666665,9.53333334 5.74666665,9.83333334 5.95999999,10.0866667 C6.17333332,10.34 6.43999999,10.5466667 6.75999999,10.6933334 C7.07999999,10.84 7.46,10.92 7.89333333,10.92 C8.20666667,10.92 8.5,10.8666667 8.77333334,10.7666667 C9.04666667,10.6666667 9.28666667,10.5266667 9.49333334,10.3466667 C9.70000001,10.1666667 9.86666668,9.96000001 9.98666668,9.72000001 C10.1066667,9.48000001 10.18,9.22666667 10.1866667,8.95333334 L8.99333334,8.95333334 C8.98666667,9.09333334 8.95333334,9.22000001 8.89333334,9.34000001 C8.83333332,9.46000001 8.75333334,9.56000001 8.65333334,9.64666668 C8.55333334,9.73333334 8.44,9.80000001 8.30666667,9.84666668 C8.18,9.89333335 8.04666667,9.90666668 7.90666667,9.91333335 C7.66666666,9.90666668 7.46666666,9.86000001 7.31333333,9.76000001 C7.14666666,9.65333334 7.01333333,9.51333334 6.91999999,9.34666668 C6.82666666,9.18000001 6.75333333,8.98000001 6.71999999,8.76 C6.68666666,8.54 6.66666666,8.31333334 6.66666666,8.09333333 L6.66666666,7.91333333 C6.66666666,7.68 6.68666666,7.46 6.71999999,7.24 L6.71999999,7.24 Z M8,1.33333329 C4.31999998,1.33333329 1.33333329,4.31999998 1.33333329,8 C1.33333329,11.68 4.31999998,14.6666667 8,14.6666667 C11.68,14.6666667 14.6666667,11.68 14.6666667,8 C14.6666667,4.31999998 11.68,1.33333329 8,1.33333329 Z M8,13.3333334 C5.05999998,13.3333334 2.66666663,10.94 2.66666663,8 C2.66666663,5.05999998 5.05999998,2.66666663 8,2.66666663 C10.94,2.66666663 13.3333334,5.05999998 13.3333334,8 C13.3333334,10.94 10.94,13.3333334 8,13.3333334 Z" id="Icons/Action/ic_copyright_24px" fill="#233745" fill-rule="nonzero"></path>
    </g>
</svg>