<?xml version="1.0" encoding="UTF-8"?>
<svg width="16px" height="16px" viewBox="0 0 16 16" version="1.1" xmlns="http://www.w3.org/2000/svg" xmlns:xlink="http://www.w3.org/1999/xlink">
    <title>Icons/Action/date-range</title>
    <defs>
        <path d="M5.99999999,7.33333333 L4.66666665,7.33333333 L4.66666665,8.66666667 L5.99999999,8.66666667 L5.99999999,7.33333333 Z M8.66666667,7.33333333 L7.33333333,7.33333333 L7.33333333,8.66666667 L8.66666667,8.66666667 L8.66666667,7.33333333 Z M11.3333334,7.33333333 L10,7.33333333 L10,8.66666667 L11.3333334,8.66666667 L11.3333334,7.33333333 Z M12.6666667,2.66666663 L12,2.66666663 L12,1.33333329 L10.6666667,1.33333329 L10.6666667,2.66666663 L5.33333332,2.66666663 L5.33333332,1.33333329 L3.99999996,1.33333329 L3.99999996,2.66666663 L3.3333333,2.66666663 C2.5933333,2.66666663 2.00666663,3.26666664 2.00666663,3.99999998 L1.99999996,13.3333333 C1.99999996,14.0666667 2.5933333,14.6666667 3.3333333,14.6666667 L12.6666667,14.6666667 C13.4,14.6666667 14,14.0666667 14,13.3333333 L14,3.99999998 C14,3.26666664 13.4,2.66666663 12.6666667,2.66666663 Z M12.6666667,13.3333334 L3.3333333,13.3333334 L3.3333333,5.99999999 L12.6666667,5.99999999 L12.6666667,13.3333334 Z" id="path-1"></path>
    </defs>
    <g id="Icons/Action/date-range" stroke="none" stroke-width="1" fill="none" fill-rule="evenodd">
        <mask id="mask-2" fill="white">
            <use xlink:href="#path-1"></use>
        </mask>
        <use id="Icons/Action/ic_date_range_24px" fill="#233745" fill-rule="nonzero" xlink:href="#path-1"></use>
    </g>
</svg>