<?xml version="1.0" encoding="UTF-8"?>
<svg width="16px" height="16px" viewBox="0 0 16 16" version="1.1" xmlns="http://www.w3.org/2000/svg" xmlns:xlink="http://www.w3.org/1999/xlink">
    <title>Icons/Action/delete-forever</title>
    <defs>
        <path d="M3.99999997,12.6666666 C3.99999997,13.4 4.59999998,14 5.33333332,14 L10.6666667,14 C11.4,14 12,13.4 12,12.6666666 L12,4.66666665 L3.99999997,4.66666665 L3.99999997,12.6666666 Z M5.63999999,7.92 L6.57999999,6.97999999 L8,8.39333334 L9.41333334,6.97999999 L10.3533333,7.92 L8.94000001,9.33333334 L10.3533333,10.7466667 L9.41333334,11.6866667 L8,10.2733333 L6.58666666,11.6866667 L5.64666665,10.7466667 L7.05999999,9.33333334 L5.63999999,7.92 Z M10.3333333,2.66666663 L9.66666668,1.99999996 L6.3333333,1.99999996 L5.66666665,2.66666663 L3.3333333,2.66666663 L3.3333333,3.99999996 L12.6666667,3.99999996 L12.6666667,2.66666663 L10.3333333,2.66666663 Z" id="path-1"></path>
    </defs>
    <g id="Icons/Action/delete-forever" stroke="none" stroke-width="1" fill="none" fill-rule="evenodd">
        <mask id="mask-2" fill="white">
            <use xlink:href="#path-1"></use>
        </mask>
        <use id="Icons/Action/ic_delete_forever_24px" fill="#233745" fill-rule="nonzero" xlink:href="#path-1"></use>
    </g>
</svg>