<?xml version="1.0" encoding="UTF-8"?>
<svg width="16px" height="16px" viewBox="0 0 16 16" version="1.1" xmlns="http://www.w3.org/2000/svg" xmlns:xlink="http://www.w3.org/1999/xlink">
    <title>Icons/Action/dns</title>
    <defs>
        <path d="M13.3333334,8.66666667 L2.66666663,8.66666667 C2.29999996,8.66666667 1.99999996,8.96666667 1.99999996,9.33333334 L1.99999996,13.3333334 C1.99999996,13.7 2.29999996,14 2.66666663,14 L13.3333334,14 C13.7,14 14,13.7 14,13.3333334 L14,9.33333334 C14,8.96666667 13.7,8.66666667 13.3333334,8.66666667 Z M4.66666665,12.6666667 C3.93333331,12.6666667 3.3333333,12.0666667 3.3333333,11.3333334 C3.3333333,10.6 3.93333331,10 4.66666665,10 C5.39999998,10 5.99999999,10.6 5.99999999,11.3333334 C5.99999999,12.0666667 5.39999998,12.6666667 4.66666665,12.6666667 Z M13.3333334,1.99999996 L2.66666663,1.99999996 C2.29999996,1.99999996 1.99999996,2.29999996 1.99999996,2.66666663 L1.99999996,6.66666666 C1.99999996,7.03333333 2.29999996,7.33333333 2.66666663,7.33333333 L13.3333334,7.33333333 C13.7,7.33333333 14,7.03333333 14,6.66666666 L14,2.66666663 C14,2.29999996 13.7,1.99999996 13.3333334,1.99999996 Z M4.66666665,5.99999999 C3.93333331,5.99999999 3.3333333,5.39999998 3.3333333,4.66666665 C3.3333333,3.93333331 3.93333331,3.3333333 4.66666665,3.3333333 C5.39999998,3.3333333 5.99999999,3.93333331 5.99999999,4.66666665 C5.99999999,5.39999998 5.39999998,5.99999999 4.66666665,5.99999999 Z" id="path-1"></path>
    </defs>
    <g id="Icons/Action/dns" stroke="none" stroke-width="1" fill="none" fill-rule="evenodd">
        <mask id="mask-2" fill="white">
            <use xlink:href="#path-1"></use>
        </mask>
        <use id="Icons/Action/ic_dns_24px" fill="#233745" fill-rule="nonzero" xlink:href="#path-1"></use>
    </g>
</svg>