<?xml version="1.0" encoding="UTF-8"?>
<svg width="16px" height="16px" viewBox="0 0 16 16" version="1.1" xmlns="http://www.w3.org/2000/svg" xmlns:xlink="http://www.w3.org/1999/xlink">
    <title>Icons/Action/donut-small</title>
    <g id="Icons/Action/donut-small" stroke="none" stroke-width="1" fill="none" fill-rule="evenodd">
        <rect id="Spacer" fill-opacity="0" fill="#D8D8D8" x="0" y="0" width="16" height="16"></rect>
        <path d="M7.33333329,6.10666665 L7.33333329,1.33333329 C3.99999997,1.66666663 1.33333329,4.52666664 1.33333329,8 C1.33333329,11.4733334 3.99999997,14.3333333 7.33333329,14.6666667 L7.33333329,9.89333335 C6.66666666,9.62000001 5.99999999,8.88000001 5.99999999,8 C5.99999999,7.11999999 6.66666666,6.37999999 7.33333329,6.10666665 Z M9.90666668,7.33333329 L14.6666667,7.33333329 C14.3466667,4.16666664 12,1.64666663 8.66666667,1.33333329 L8.66666667,6.10666665 C9.33333334,6.30666666 9.68000001,6.75999999 9.90666668,7.33333329 Z M8.66666667,9.89333335 L8.66666667,14.6666667 C12,14.3533334 14.3466667,11.8333334 14.6666667,8.66666667 L9.90666668,8.66666667 C9.68000001,9.24000001 9.33333334,9.69333334 8.66666667,9.89333335 Z" id="Icons/Action/ic_donut_small_24px" fill="#233745" fill-rule="nonzero"></path>
    </g>
</svg>