<?xml version="1.0" encoding="UTF-8"?>
<svg width="16px" height="16px" viewBox="0 0 16 16" version="1.1" xmlns="http://www.w3.org/2000/svg" xmlns:xlink="http://www.w3.org/1999/xlink">
    <title>Icons/Action/donut-large</title>
    <g id="Icons/Action/donut-large" stroke="none" stroke-width="1" fill="none" fill-rule="evenodd">
        <rect id="Spacer" fill-opacity="0" fill="#D8D8D8" x="0" y="0" width="16" height="16"></rect>
        <path d="M7.33333329,3.38666664 L7.33333329,1.33333329 C3.99999997,1.66666663 1.33333329,4.53999998 1.33333329,8 C1.33333329,11.46 3.99999997,14.3333333 7.33333329,14.6666667 L7.33333329,12.6133334 C5.33333329,12.2933334 3.33333329,10.3466667 3.33333329,8 C3.33333329,5.65333332 5.33333329,3.70666664 7.33333329,3.38666664 Z M12.6466667,7.33333329 L14.6666667,7.33333329 C14.3533334,3.99999997 12,1.64666663 8.66666667,1.33333329 L8.66666667,3.38666664 C10.6666667,3.67333331 12.36,5.33333329 12.6466667,7.33333329 Z M8.66666667,12.6133334 L8.66666667,14.6666667 C12,14.3533334 14.3533334,12 14.6666667,8.66666667 L12.6466667,8.66666667 C12.36,10.6666667 10.6666667,12.3266667 8.66666667,12.6133334 Z" id="Icons/Action/ic_donut_large_24px" fill="#233745" fill-rule="nonzero"></path>
    </g>
</svg>