<svg xmlns="http://www.w3.org/2000/svg" xmlns:xlink="http://www.w3.org/1999/xlink" width="16" height="16" viewBox="0 0 16 16">
  <defs>
    <path id="event-a" d="M11.5555556,8 L8,8 L8,11.5555556 L11.5555556,11.5555556 L11.5555556,8 Z M13.3333334,1.77777774 L12.4444445,1.77777774 L12.4444445,0.888888844 L10.6666667,0.888888844 L10.6666667,1.77777774 L5.33333332,1.77777774 L5.33333332,0.888888844 L3.55555553,0.888888844 L3.55555553,1.77777774 L2.66666663,1.77777774 C2.17777774,1.77777774 1.77777774,2.17777774 1.77777774,2.66666663 L1.77777774,13.3333334 C1.77777774,13.8222223 2.17777774,14.2222223 2.66666663,14.2222223 L13.3333334,14.2222223 C13.8222223,14.2222223 14.2222223,13.8222223 14.2222223,13.3333334 L14.2222223,2.66666663 C14.2222223,2.17777774 13.8222223,1.77777774 13.3333334,1.77777774 Z M12.4444445,12.4444445 L3.55555553,12.4444445 L3.55555553,5.33333332 L12.4444445,5.33333332 L12.4444445,12.4444445 Z"/>
  </defs>
  <g fill="none" fill-rule="evenodd">
    <mask id="event-b" fill="#fff">
      <use xlink:href="#event-a"/>
    </mask>
    <g fill="CurrentColor" mask="url(#event-b)">
      <rect width="16" height="16"/>
    </g>
  </g>
</svg>
