<?xml version="1.0" encoding="UTF-8"?>
<svg width="16px" height="16px" viewBox="0 0 16 16" version="1.1" xmlns="http://www.w3.org/2000/svg" xmlns:xlink="http://www.w3.org/1999/xlink">
    <title>Icons/Action/event</title>
    <g id="Icons/Action/event" stroke="none" stroke-width="1" fill="none" fill-rule="evenodd">
        <rect id="Spacer" fill-opacity="0" fill="#D8D8D8" x="0" y="0" width="16" height="16"></rect>
        <path d="M11.5555556,8 L8,8 L8,11.5555556 L11.5555556,11.5555556 L11.5555556,8 Z M13.3333334,1.77777774 L12.4444445,1.77777774 L12.4444445,0.888888844 L10.6666667,0.888888844 L10.6666667,1.77777774 L5.33333332,1.77777774 L5.33333332,0.888888844 L3.55555553,0.888888844 L3.55555553,1.77777774 L2.66666663,1.77777774 C2.17777774,1.77777774 1.77777774,2.17777774 1.77777774,2.66666663 L1.77777774,13.3333334 C1.77777774,13.8222223 2.17777774,14.2222223 2.66666663,14.2222223 L13.3333334,14.2222223 C13.8222223,14.2222223 14.2222223,13.8222223 14.2222223,13.3333334 L14.2222223,2.66666663 C14.2222223,2.17777774 13.8222223,1.77777774 13.3333334,1.77777774 Z M12.4444445,12.4444445 L3.55555553,12.4444445 L3.55555553,5.33333332 L12.4444445,5.33333332 L12.4444445,12.4444445 Z" id="Icons/Action/ic_event_18px" fill="#233745" fill-rule="nonzero"></path>
    </g>
</svg>