<?xml version="1.0" encoding="UTF-8"?>
<svg width="16px" height="16px" viewBox="0 0 16 16" version="1.1" xmlns="http://www.w3.org/2000/svg" xmlns:xlink="http://www.w3.org/1999/xlink">
    <title>Icons/Action/exit-to-app</title>
    <g id="Icons/Action/exit-to-app" stroke="none" stroke-width="1" fill="none" fill-rule="evenodd">
        <rect id="Spacer" fill-opacity="0" fill="#D8D8D8" x="0" y="0" width="16" height="16"></rect>
        <path d="M6.72666666,10.3933333 L7.66666666,11.3333334 L11,8 L7.66666666,4.66666665 L6.72666666,5.60666665 L8.44666667,7.33333333 L1.99999996,7.33333333 L1.99999996,8.66666665 L8.44666667,8.66666665 L6.72666666,10.3933333 Z M12.6666667,1.99999996 L3.3333333,1.99999996 C2.5933333,1.99999996 1.99999996,2.59999997 1.99999996,3.3333333 L1.99999996,5.99999996 L3.3333333,5.99999996 L3.3333333,3.3333333 L12.6666667,3.3333333 L12.6666667,12.6666667 L3.3333333,12.6666667 L3.3333333,9.99999996 L1.99999996,9.99999996 L1.99999996,12.6666667 C1.99999996,13.4 2.5933333,14 3.3333333,14 L12.6666667,14 C13.4,14 14,13.4 14,12.6666667 L14,3.3333333 C14,2.59999997 13.4,1.99999996 12.6666667,1.99999996 Z" id="Icons/Action/ic_exit_to_app_24px" fill="#233745" fill-rule="nonzero"></path>
    </g>
</svg>