<?xml version="1.0" encoding="UTF-8"?>
<svg width="16px" height="16px" viewBox="0 0 16 16" version="1.1" xmlns="http://www.w3.org/2000/svg" xmlns:xlink="http://www.w3.org/1999/xlink">
    <title>Icons/Action/extension</title>
    <g id="Icons/Action/extension" stroke="none" stroke-width="1" fill="none" fill-rule="evenodd">
        <rect id="Spacer" fill-opacity="0" fill="#D8D8D8" x="0" y="0" width="16" height="16"></rect>
        <path d="M13.6666667,7.33333333 L12.6666667,7.33333333 L12.6666667,4.66666662 C12.6666667,3.93333331 12.0666667,3.3333333 11.3333333,3.3333333 L8.66666667,3.3333333 L8.66666667,2.3333333 C8.66666667,1.41333329 7.92,0.666666621 6.99999999,0.666666621 C6.07999999,0.666666621 5.33333329,1.41333329 5.33333329,2.3333333 L5.33333329,3.3333333 L2.66666663,3.3333333 C1.9333333,3.3333333 1.33999996,3.93333331 1.33999996,4.66666662 L1.33999996,7.19999999 L2.33333329,7.19999999 C3.32666664,7.19999999 4.13333331,8.00666667 4.13333331,9.00000001 C4.13333331,9.99333335 3.32666664,10.8 2.33333329,10.8 L1.33333329,10.8 L1.33333329,13.3333334 C1.33333329,14.0666667 1.9333333,14.6666666 2.66666663,14.6666666 L5.19999998,14.6666666 L5.19999998,13.6666666 C5.19999998,12.6733334 6.00666665,11.8666667 6.99999999,11.8666667 C7.99333333,11.8666667 8.8,12.6733334 8.8,13.6666666 L8.8,14.6666666 L11.3333333,14.6666666 C12.0666667,14.6666666 12.6666667,14.0666667 12.6666667,13.3333334 L12.6666667,10.6666666 L13.6666667,10.6666666 C14.5866667,10.6666666 15.3333333,9.92000001 15.3333333,9.00000001 C15.3333333,8.08 14.5866667,7.33333333 13.6666667,7.33333333 Z" id="Icons/Action/ic_extension_24px" fill="#233745" fill-rule="nonzero"></path>
    </g>
</svg>