<?xml version="1.0" encoding="UTF-8"?>
<svg width="16px" height="16px" viewBox="0 0 16 16" version="1.1" xmlns="http://www.w3.org/2000/svg" xmlns:xlink="http://www.w3.org/1999/xlink">
    <title>Icons/Action/face</title>
    <defs>
        <path d="M5.99999999,7.83333333 C5.53999998,7.83333333 5.16666665,8.20666667 5.16666665,8.66666667 C5.16666665,9.12666667 5.53999998,9.50000001 5.99999999,9.50000001 C6.45999999,9.50000001 6.83333333,9.12666667 6.83333333,8.66666667 C6.83333333,8.20666667 6.45999999,7.83333333 5.99999999,7.83333333 Z M10,7.83333333 C9.54000001,7.83333333 9.16666667,8.20666667 9.16666667,8.66666667 C9.16666667,9.12666667 9.54000001,9.50000001 10,9.50000001 C10.46,9.50000001 10.8333334,9.12666667 10.8333334,8.66666667 C10.8333334,8.20666667 10.46,7.83333333 10,7.83333333 Z M8,1.33333329 C4.31999998,1.33333329 1.33333329,4.31999998 1.33333329,8 C1.33333329,11.68 4.31999998,14.6666667 8,14.6666667 C11.68,14.6666667 14.6666667,11.68 14.6666667,8 C14.6666667,4.31999998 11.68,1.33333329 8,1.33333329 Z M8,13.3333334 C5.05999998,13.3333334 2.66666663,10.94 2.66666663,8 C2.66666663,7.80666667 2.67999997,7.61333333 2.69999997,7.42666666 C4.27333331,6.72666666 5.51999998,5.43999998 6.17333332,3.84666664 C7.38,5.55333332 9.36666668,6.66666666 11.6133334,6.66666666 C12.1333334,6.66666666 12.6333334,6.60666666 13.1133334,6.49333332 C13.2533334,6.96666666 13.3333334,7.47333333 13.3333334,8 C13.3333334,10.94 10.94,13.3333334 8,13.3333334 Z" id="path-1"></path>
    </defs>
    <g id="Icons/Action/face" stroke="none" stroke-width="1" fill="none" fill-rule="evenodd">
        <mask id="mask-2" fill="white">
            <use xlink:href="#path-1"></use>
        </mask>
        <use id="Icons/Action/ic_face_24px" fill="#233745" fill-rule="nonzero" xlink:href="#path-1"></use>
    </g>
</svg>