<?xml version="1.0" encoding="UTF-8"?>
<svg width="16px" height="16px" viewBox="0 0 16 16" version="1.1" xmlns="http://www.w3.org/2000/svg" xmlns:xlink="http://www.w3.org/1999/xlink">
    <title>Icons/Action/favorite-border</title>
    <g id="Icons/Action/favorite-border" stroke="none" stroke-width="1" fill="none" fill-rule="evenodd">
        <rect id="Spacer" fill-opacity="0" fill="#D8D8D8" x="0" y="0" width="16" height="16"></rect>
        <path d="M11,1.99999996 C9.84000001,1.99999996 8.72666667,2.53999997 8,3.3933333 C7.27333333,2.53999997 6.15999999,1.99999996 4.99999998,1.99999996 C2.94666664,1.99999996 1.33333329,3.61333331 1.33333329,5.66666665 C1.33333329,8.18666667 3.59999997,10.24 7.03333333,13.36 L8,14.2333334 L8.96666667,13.3533334 C12.4,10.24 14.6666667,8.18666667 14.6666667,5.66666665 C14.6666667,3.61333331 13.0533334,1.99999996 11,1.99999996 Z M8.06666667,12.3666667 L8,12.4333334 L7.93333333,12.3666667 C4.75999998,9.49333334 2.66666663,7.59333333 2.66666663,5.66666665 C2.66666663,4.3333333 3.66666663,3.3333333 4.99999998,3.3333333 C6.02666665,3.3333333 7.02666666,3.99333331 7.38,4.90666665 L8.62666667,4.90666665 C8.97333334,3.99333331 9.97333335,3.3333333 11,3.3333333 C12.3333334,3.3333333 13.3333334,4.3333333 13.3333334,5.66666665 C13.3333334,7.59333333 11.24,9.49333334 8.06666667,12.3666667 Z" id="Icons/Action/ic_favorite_border_24px" fill="#233745" fill-rule="nonzero"></path>
    </g>
</svg>