<?xml version="1.0" encoding="UTF-8"?>
<svg width="16px" height="16px" viewBox="0 0 16 16" version="1.1" xmlns="http://www.w3.org/2000/svg" xmlns:xlink="http://www.w3.org/1999/xlink">
    <title>Icons/Action/find-replace</title>
    <defs>
        <path d="M7.33333333,3.99999998 C8.25333333,3.99999998 9.08666667,4.37333331 9.69333334,4.97333331 L8,6.66666663 L12,6.66666663 L12,2.66666663 L10.6333333,4.03333331 C9.78666668,3.18666664 8.62,2.66666663 7.33333333,2.66666663 C4.97999998,2.66666663 3.04666664,4.40666664 2.71999997,6.66666663 L4.06666664,6.66666663 C4.37333331,5.14666665 5.71999997,3.99999998 7.33333333,3.99999998 Z M11.0933334,10.0933333 C11.5333334,9.49333334 11.84,8.78 11.9466667,8 L10.6,8 C10.2933333,9.52000001 8.94666667,10.6666667 7.33333333,10.6666667 C6.41333332,10.6666667 5.57999998,10.2933333 4.97333331,9.69333334 L6.66666663,8 L2.66666663,8 L2.66666663,12 L4.03333331,10.6333333 C4.87999998,11.48 6.04666665,12 7.33333333,12 C8.36666667,12 9.32000001,11.66 10.0933333,11.0933334 L13.3333334,14.3266667 L14.3266667,13.3333334 L11.0933334,10.0933333 Z" id="path-1"></path>
    </defs>
    <g id="Icons/Action/find-replace" stroke="none" stroke-width="1" fill="none" fill-rule="evenodd">
        <mask id="mask-2" fill="white">
            <use xlink:href="#path-1"></use>
        </mask>
        <use id="Icons/Action/ic_find_replace_24px" fill="#233745" fill-rule="nonzero" xlink:href="#path-1"></use>
    </g>
</svg>