<?xml version="1.0" encoding="UTF-8"?>
<svg width="16px" height="16px" viewBox="0 0 16 16" version="1.1" xmlns="http://www.w3.org/2000/svg" xmlns:xlink="http://www.w3.org/1999/xlink">
    <title>Icons/Action/find-in-page</title>
    <g id="Icons/Action/find-in-page" stroke="none" stroke-width="1" fill="none" fill-rule="evenodd">
        <rect id="Spacer" fill-opacity="0" fill="#D8D8D8" x="0" y="0" width="16" height="16"></rect>
        <path d="M13.3333334,13.06 L13.3333334,5.33333329 L9.33333334,1.33333329 L3.99999997,1.33333329 C3.26666664,1.33333329 2.6733333,1.9333333 2.6733333,2.66666663 L2.66666663,13.3333333 C2.66666663,14.0666667 3.25999997,14.6666667 3.99333331,14.6666667 L12,14.6666667 C12.3,14.6666667 12.5666667,14.5666667 12.7933334,14.4 L9.84000001,11.4466667 C9.30666667,11.7933334 8.68,12 8,12 C6.15999999,12 4.66666663,10.5066667 4.66666663,8.66666667 C4.66666663,6.82666666 6.15999999,5.33333329 8,5.33333329 C9.84000001,5.33333329 11.3333334,6.82666666 11.3333334,8.66666667 C11.3333334,9.34666668 11.1266667,9.97333335 10.78,10.5 L13.3333334,13.06 Z M5.99999999,8.66666666 C5.99999999,9.77333334 6.89333333,10.6666667 7.99999999,10.6666667 C9.10666667,10.6666667 9.99999999,9.77333334 9.99999999,8.66666666 C9.99999999,7.56 9.10666667,6.66666666 7.99999999,6.66666666 C6.89333333,6.66666666 5.99999999,7.56 5.99999999,8.66666666 Z" id="Icons/Action/ic_find_in_page_24px" fill="#233745" fill-rule="nonzero"></path>
    </g>
</svg>