<?xml version="1.0" encoding="UTF-8"?>
<svg width="16px" height="16px" viewBox="0 0 16 16" version="1.1" xmlns="http://www.w3.org/2000/svg" xmlns:xlink="http://www.w3.org/1999/xlink">
    <title>Icons/Action/fingerprint</title>
    <defs>
        <path d="M11.8733334,2.97999997 C11.82,2.97999997 11.7666667,2.96666664 11.72,2.93999997 C10.44,2.27999996 9.33333334,1.99999996 8.00666667,1.99999996 C6.68666666,1.99999996 5.43333332,2.3133333 4.29333331,2.93999997 C4.13333331,3.02666664 3.93333331,2.96666664 3.83999997,2.80666663 C3.75333331,2.64666663 3.81333331,2.43999997 3.97333331,2.3533333 C5.21333332,1.67999996 6.57333332,1.33333329 8.00666667,1.33333329 C9.42666668,1.33333329 10.6666667,1.64666663 12.0266667,2.34666663 C12.1933334,2.4333333 12.2533334,2.6333333 12.1666667,2.7933333 C12.1066667,2.9133333 11.9933334,2.97999997 11.8733334,2.97999997 L11.8733334,2.97999997 Z M2.3333333,6.47999999 C2.26666663,6.47999999 2.19999996,6.45999225 2.13999996,6.41999999 C1.98666663,6.31333332 1.9533333,6.10666665 2.05999996,5.95333332 C2.71999997,5.01999998 3.55999997,4.28666664 4.55999998,3.77333331 C6.65333332,2.6933333 9.33333334,2.68666663 11.4333334,3.76666664 C12.4333334,4.27999998 13.2733334,5.00666665 13.9333334,5.93333332 C14.04,6.07999999 14.0066667,6.29333332 13.8533334,6.39999999 C13.7,6.50666666 13.4933334,6.47333332 13.3866667,6.31999999 C12.7866667,5.47999998 12.0266667,4.81999998 11.1266667,4.35999998 C9.21333334,3.37999997 6.76666666,3.37999997 4.85999998,4.36666664 C3.95333331,4.83333331 3.1933333,5.49999998 2.5933333,6.33999999 C2.53999997,6.43333332 2.43999997,6.47999999 2.3333333,6.47999999 L2.3333333,6.47999999 Z M6.49999999,14.5266667 C6.41333332,14.5266667 6.32666666,14.4933334 6.26666666,14.4266667 C5.68666665,13.8466667 5.37333332,13.4733334 4.92666665,12.6666667 C4.46666664,11.8466667 4.22666664,10.8466667 4.22666664,9.77333334 C4.22666664,7.79333333 5.91999999,6.17999999 8,6.17999999 C10.08,6.17999999 11.7733334,7.79333333 11.7733334,9.77333334 C11.7733334,9.96000001 11.6266667,10.1066667 11.44,10.1066667 C11.2533334,10.1066667 11.1066667,9.96000001 11.1066667,9.77333334 C11.1066667,8.16 9.71333334,6.84666666 8,6.84666666 C6.28666666,6.84666666 4.89333331,8.16 4.89333331,9.77333334 C4.89333331,10.7333334 5.10666665,11.62 5.51333332,12.34 C5.93999999,13.1066667 6.23333332,13.4333334 6.74666666,13.9533334 C6.87333333,14.0866667 6.87333333,14.2933334 6.74666666,14.4266667 C6.67333333,14.4933334 6.58666666,14.5266667 6.49999999,14.5266667 Z M11.28,13.2933334 C10.4866667,13.2933334 9.78666668,13.0933334 9.21333334,12.7 C8.22,12.0266667 7.62666666,10.9333334 7.62666666,9.77333334 C7.62666666,9.58666668 7.77333333,9.44000001 7.96,9.44000001 C8.14666667,9.44000001 8.29333334,9.58666668 8.29333334,9.77333334 C8.29333334,10.7133334 8.77333334,11.6 9.58666668,12.1466667 C10.06,12.4666667 10.6133333,12.62 11.28,12.62 C11.44,12.62 11.7066667,12.6 11.9733334,12.5533334 C12.1533334,12.52 12.3266667,12.64 12.36,12.8266667 C12.3933334,13.0066667 12.2733334,13.18 12.0866667,13.2133334 C11.7066667,13.2866667 11.3733334,13.2933334 11.28,13.2933334 L11.28,13.2933334 Z M9.94000001,14.6666667 C9.91333335,14.6666667 9.88000001,14.66 9.85333334,14.6533334 C8.79333334,14.36 8.1,13.9666667 7.37333333,13.2533334 C6.43999999,12.3266667 5.92666665,11.0933334 5.92666665,9.77333334 C5.92666665,8.69333334 6.84666666,7.81333333 7.98,7.81333333 C9.11333334,7.81333333 10.0333333,8.69333334 10.0333333,9.77333334 C10.0333333,10.4866667 10.6533333,11.0666667 11.42,11.0666667 C12.1866667,11.0666667 12.8066667,10.4866667 12.8066667,9.77333334 C12.8066667,7.26 10.64,5.21999998 7.97333333,5.21999998 C6.07999999,5.21999998 4.34666664,6.27333332 3.56666664,7.90666667 C3.30666664,8.44666667 3.1733333,9.08000001 3.1733333,9.77333334 C3.1733333,10.2933333 3.21999997,11.1133334 3.61999997,12.18 C3.68666664,12.3533334 3.59999997,12.5466666 3.42666664,12.6066667 C3.2533333,12.6733334 3.05999997,12.58 2.99999997,12.4133334 C2.6733333,11.54 2.5133333,10.6733334 2.5133333,9.77333334 C2.5133333,8.97333334 2.66666663,8.24666667 2.96666664,7.61333333 C3.85333331,5.75333332 5.81999999,4.54666665 7.97333333,4.54666665 C11.0066667,4.54666665 13.4733334,6.88666666 13.4733334,9.76666668 C13.4733334,10.8466667 12.5533334,11.7266667 11.42,11.7266667 C10.2866667,11.7266667 9.36666668,10.8466667 9.36666668,9.76666668 C9.36666668,9.05333334 8.74666667,8.47333334 7.98,8.47333334 C7.21333333,8.47333334 6.59333332,9.05333334 6.59333332,9.76666668 C6.59333332,10.9066667 7.03333333,11.9733334 7.84,12.7733334 C8.47333334,13.4 9.08000001,13.7466667 10.02,14.0066667 C10.2,14.0533334 10.3,14.24 10.2533333,14.4133334 C10.22,14.5666667 10.08,14.6666667 9.94000001,14.6666667 L9.94000001,14.6666667 Z" id="path-1"></path>
    </defs>
    <g id="Icons/Action/fingerprint" stroke="none" stroke-width="1" fill="none" fill-rule="evenodd">
        <mask id="mask-2" fill="white">
            <use xlink:href="#path-1"></use>
        </mask>
        <use id="Icons/Action/ic_fingerprint_24px" fill="#233745" fill-rule="nonzero" xlink:href="#path-1"></use>
    </g>
</svg>