<?xml version="1.0" encoding="UTF-8"?>
<svg width="16px" height="16px" viewBox="0 0 16 16" version="1.1" xmlns="http://www.w3.org/2000/svg" xmlns:xlink="http://www.w3.org/1999/xlink">
    <title>Icons/Action/flip-to-back</title>
    <g id="Icons/Action/flip-to-back" stroke="none" stroke-width="1" fill="none" fill-rule="evenodd">
        <rect id="Spacer" fill-opacity="0" fill="#D8D8D8" x="0" y="0" width="16" height="16"></rect>
        <path d="M5.99999999,4.66666665 L4.66666665,4.66666665 L4.66666665,5.99999999 L5.99999999,5.99999999 L5.99999999,4.66666665 Z M5.99999999,7.33333333 L4.66666665,7.33333333 L4.66666665,8.66666667 L5.99999999,8.66666667 L5.99999999,7.33333333 Z M5.99999999,1.99999996 C5.25999998,1.99999996 4.66666665,2.59999997 4.66666665,3.3333333 L5.99999999,3.3333333 L5.99999999,1.99999996 Z M8.66666667,10 L7.33333333,10 L7.33333333,11.3333334 L8.66666667,11.3333334 L8.66666667,10 Z M12.6666667,1.99999996 L12.6666667,3.3333333 L14,3.3333333 C14,2.59999997 13.4,1.99999996 12.6666667,1.99999996 Z M8.66666667,1.99999996 L7.33333333,1.99999996 L7.33333333,3.3333333 L8.66666667,3.3333333 L8.66666667,1.99999996 Z M5.99999999,11.3333334 L5.99999999,10 L4.66666665,10 C4.66666665,10.7333334 5.25999998,11.3333334 5.99999999,11.3333334 Z M12.6666667,8.66666667 L14,8.66666667 L14,7.33333333 L12.6666667,7.33333333 L12.6666667,8.66666667 Z M12.6666667,5.99999999 L14,5.99999999 L14,4.66666665 L12.6666667,4.66666665 L12.6666667,5.99999999 Z M12.6666667,11.3333334 C13.4,11.3333334 14,10.7333334 14,10 L12.6666667,10 L12.6666667,11.3333334 Z M3.3333333,4.66666665 L1.99999996,4.66666665 L1.99999996,12.6666666 C1.99999996,13.4 2.5933333,14 3.3333333,14 L11.3333334,14 L11.3333334,12.6666666 L3.3333333,12.6666666 L3.3333333,4.66666665 Z M10,3.3333333 L11.3333334,3.3333333 L11.3333334,1.99999996 L10,1.99999996 L10,3.3333333 Z M10,11.3333334 L11.3333334,11.3333334 L11.3333334,10 L10,10 L10,11.3333334 Z" id="Icons/Action/ic_flip_to_back_24px" fill="#233745" fill-rule="nonzero"></path>
    </g>
</svg>