<?xml version="1.0" encoding="UTF-8"?>
<svg width="16px" height="16px" viewBox="0 0 16 16" version="1.1" xmlns="http://www.w3.org/2000/svg" xmlns:xlink="http://www.w3.org/1999/xlink">
    <title>Icons/Action/g-translate</title>
    <g id="Icons/Action/g-translate" stroke="none" stroke-width="1" fill="none" fill-rule="evenodd">
        <rect id="Spacer" fill-opacity="0" fill="#D8D8D8" x="0" y="0" width="16" height="16"></rect>
        <path d="M13.3333333,3.33333329 L7.25333333,3.33333329 L6.66666666,1.33333329 L2.66666663,1.33333329 C1.9333333,1.33333329 1.33333329,1.9333333 1.33333329,2.66666663 L1.33333329,11.3333333 C1.33333329,12.0666667 1.9333333,12.6666667 2.66666663,12.6666667 L7.33333329,12.6666667 L8,14.6666667 L13.3333333,14.6666667 C14.0666667,14.6666667 14.6666667,14.0666667 14.6666667,13.3333333 L14.6666667,4.66666665 C14.6666667,3.93333331 14.0666667,3.33333329 13.3333333,3.33333329 Z M4.77999998,9.72666668 C3.27999997,9.72666668 2.0533333,8.50666667 2.0533333,6.99999999 C2.0533333,5.49333332 3.2733333,4.27333331 4.77999998,4.27333331 C5.47333332,4.27333331 6.10666665,4.51999998 6.60666666,4.98666665 L6.65333332,5.02666665 L5.83333332,5.81333332 L5.79333332,5.77999999 C5.59999999,5.59999999 5.27333332,5.38666665 4.77999998,5.38666665 C3.90666664,5.38666665 3.1933333,6.11333332 3.1933333,6.99999999 C3.1933333,7.88666667 3.90666664,8.61333334 4.77999998,8.61333334 C5.69333332,8.61333334 6.08666665,8.03333333 6.19333332,7.64 L4.71999998,7.64 L4.71999998,6.60666666 L7.35333333,6.60666666 L7.36,6.65333332 C7.38666666,6.79333333 7.39333333,6.91999999 7.39333333,7.05999999 C7.39333333,8.62666667 6.31999999,9.72666668 4.77999998,9.72666668 L4.77999998,9.72666668 Z M8.8,8.58666667 C9.02000001,8.98666667 9.29333334,9.37333334 9.59333334,9.72000001 L9.23333334,10.0733333 L8.8,8.58666667 L8.8,8.58666667 Z M9.31333334,8.08 L8.65333334,8.08 L8.44666667,7.38666666 L11.1066667,7.38666666 C11.1066667,7.38666666 10.88,8.26 10.0666667,9.21333334 C9.72000001,8.8 9.47333334,8.39333334 9.31333334,8.08 L9.31333334,8.08 Z M14,13.3333334 C14,13.7 13.7,14 13.3333334,14 L8.66666667,14 L10,12.6666667 L9.46000001,10.82 L10.0733333,10.2066667 L11.86,12 L12.3466667,11.5133334 L10.54,9.72666668 C11.14,9.04000001 11.6066667,8.22666667 11.82,7.38666666 L12.6666667,7.38666666 L12.6666667,6.69333333 L10.24,6.69333333 L10.24,5.99999997 L9.54666668,5.99999997 L9.54666668,6.69333333 L8.24,6.69333333 L7.45333333,3.99999998 L13.3333334,3.99999998 C13.7,3.99999998 14,4.29999998 14,4.66666665 L14,13.3333334 Z" id="Icons/Action/ic_g_translate_24px" fill="#233745" fill-rule="nonzero"></path>
    </g>
</svg>