<svg xmlns="http://www.w3.org/2000/svg" xmlns:xlink="http://www.w3.org/1999/xlink" width="16" height="16" viewBox="0 0 16 16">
  <defs>
    <path id="gif-a" d="M7.66666666,5.99999999 L8.66666666,5.99999999 L8.66666666,9.99999999 L7.66666666,9.99999999 L7.66666666,5.99999999 Z M5.99999999,5.99999999 L3.99999997,5.99999999 C3.59999997,5.99999999 3.3333333,6.33333332 3.3333333,6.66666666 L3.3333333,9.33333334 C3.3333333,9.66666668 3.59999997,9.99999999 3.99999997,9.99999999 L5.99999999,9.99999999 C6.39999999,9.99999999 6.66666666,9.66666668 6.66666666,9.33333334 L6.66666666,7.99999999 L5.66666665,7.99999999 L5.66666665,8.99999999 L4.3333333,8.99999999 L4.3333333,6.99999999 L6.66666666,6.99999999 L6.66666666,6.66666666 C6.66666666,6.33333332 6.39999999,5.99999999 5.99999999,5.99999999 Z M12.6666667,6.99999999 L12.6666667,5.99999999 L9.66666668,5.99999999 L9.66666668,9.99999999 L10.6666667,9.99999999 L10.6666667,8.66666667 L12,8.66666667 L12,7.66666666 L10.6666667,7.66666666 L10.6666667,6.99999999 L12.6666667,6.99999999 Z"/>
  </defs>
  <g fill="none" fill-rule="evenodd">
    <mask id="gif-b" fill="#fff">
      <use xlink:href="#gif-a"/>
    </mask>
    <g fill="CurrentColor" mask="url(#gif-b)">
      <rect width="16" height="16"/>
    </g>
  </g>
</svg>
