<?xml version="1.0" encoding="UTF-8"?>
<svg width="16px" height="16px" viewBox="0 0 16 16" version="1.1" xmlns="http://www.w3.org/2000/svg" xmlns:xlink="http://www.w3.org/1999/xlink">
    <title>Icons/Action/help</title>
    <g id="Icons/Action/help" stroke="none" stroke-width="1" fill="none" fill-rule="evenodd">
        <rect id="Spacer" fill-opacity="0" fill="#D8D8D8" x="0" y="0" width="16" height="16"></rect>
        <path d="M8,1.33333329 C4.31999998,1.33333329 1.33333329,4.31999998 1.33333329,8 C1.33333329,11.68 4.31999998,14.6666667 8,14.6666667 C11.68,14.6666667 14.6666667,11.68 14.6666667,8 C14.6666667,4.31999998 11.68,1.33333329 8,1.33333329 Z M8.66666667,12.6666667 L7.33333333,12.6666667 L7.33333333,11.3333334 L8.66666667,11.3333334 L8.66666667,12.6666667 Z M10.0466667,7.5 L9.44666668,8.11333333 C8.96666667,8.6 8.66666667,9.00000001 8.66666667,10 L7.33333332,10 L7.33333332,9.66666668 C7.33333332,8.93333334 7.63333333,8.26666667 8.11333333,7.78 L8.94000001,6.93999999 C9.18666667,6.69999999 9.33333332,6.36666666 9.33333332,5.99999999 C9.33333332,5.26666665 8.73333334,4.66666665 8,4.66666665 C7.26666666,4.66666665 6.66666666,5.26666665 6.66666666,5.99999999 L5.33333332,5.99999999 C5.33333332,4.52666664 6.52666666,3.3333333 8,3.3333333 C9.47333334,3.3333333 10.6666667,4.52666664 10.6666667,5.99999999 C10.6666667,6.58666666 10.4266667,7.11999999 10.0466667,7.5 Z" id="Icons/Action/ic_help_24px" fill="#233745" fill-rule="nonzero"></path>
    </g>
</svg>