<?xml version="1.0" encoding="UTF-8"?>
<svg width="16px" height="16px" viewBox="0 0 16 16" version="1.1" xmlns="http://www.w3.org/2000/svg" xmlns:xlink="http://www.w3.org/1999/xlink">
    <title>Icons/Action/help-outline</title>
    <g id="Icons/Action/help-outline" stroke="none" stroke-width="1" fill="none" fill-rule="evenodd">
        <rect id="Spacer" fill-opacity="0" fill="#D8D8D8" x="0" y="0" width="16" height="16"></rect>
        <path d="M7.33333333,12 L8.66666667,12 L8.66666667,10.6666667 L7.33333333,10.6666667 L7.33333333,12 Z M8,1.33333329 C4.31999998,1.33333329 1.33333329,4.31999998 1.33333329,8 C1.33333329,11.68 4.31999998,14.6666667 8,14.6666667 C11.68,14.6666667 14.6666667,11.68 14.6666667,8 C14.6666667,4.31999998 11.68,1.33333329 8,1.33333329 Z M8,13.3333334 C5.05999998,13.3333334 2.66666663,10.94 2.66666663,8 C2.66666663,5.05999998 5.05999998,2.66666663 8,2.66666663 C10.94,2.66666663 13.3333334,5.05999998 13.3333334,8 C13.3333334,10.94 10.94,13.3333334 8,13.3333334 Z M8,3.99999998 C6.52666666,3.99999998 5.33333332,5.19333332 5.33333332,6.66666666 L6.66666666,6.66666666 C6.66666666,5.93333332 7.26666666,5.33333332 8,5.33333332 C8.73333334,5.33333332 9.33333332,5.93333332 9.33333332,6.66666666 C9.33333332,7.99999997 7.33333332,7.83333333 7.33333332,9.99999997 L8.66666667,9.99999997 C8.66666667,8.49999997 10.6666667,8.33333334 10.6666667,6.66666666 C10.6666667,5.19333332 9.47333334,3.99999998 8,3.99999998 Z" id="Icons/Action/ic_help_outline_24px" fill="#233745" fill-rule="nonzero"></path>
    </g>
</svg>