<svg xmlns="http://www.w3.org/2000/svg" xmlns:xlink="http://www.w3.org/1999/xlink" width="16" height="16" viewBox="0 0 16 16">
  <defs>
    <path id="highlight-off-a" d="M9.72666668,5.33333332 L8,7.05999999 L6.27333332,5.33333332 L5.33333332,6.27333332 L7.05999999,8 L5.33333332,9.72666668 L6.27333332,10.6666667 L8,8.94000001 L9.72666668,10.6666667 L10.6666667,9.72666668 L8.94000001,8 L10.6666667,6.27333332 L9.72666668,5.33333332 Z M8,1.33333329 C4.31333331,1.33333329 1.33333329,4.31333331 1.33333329,8 C1.33333329,11.6866667 4.31333331,14.6666667 8,14.6666667 C11.6866667,14.6666667 14.6666667,11.6866667 14.6666667,8 C14.6666667,4.31333331 11.6866667,1.33333329 8,1.33333329 Z M8,13.3333334 C5.05999998,13.3333334 2.66666663,10.94 2.66666663,8 C2.66666663,5.05999998 5.05999998,2.66666663 8,2.66666663 C10.94,2.66666663 13.3333334,5.05999998 13.3333334,8 C13.3333334,10.94 10.94,13.3333334 8,13.3333334 Z"/>
  </defs>
  <g fill="none" fill-rule="evenodd">
    <mask id="highlight-off-b" fill="#fff">
      <use xlink:href="#highlight-off-a"/>
    </mask>
    <g fill="CurrentColor" mask="url(#highlight-off-b)">
      <rect width="16" height="16"/>
    </g>
  </g>
</svg>
