<?xml version="1.0" encoding="UTF-8"?>
<svg width="16px" height="16px" viewBox="0 0 16 16" version="1.1" xmlns="http://www.w3.org/2000/svg" xmlns:xlink="http://www.w3.org/1999/xlink">
    <title>Icons/Action/hourglass-empty</title>
    <defs>
        <path d="M3.99999998,1.33333329 L3.99999998,5.33333329 L4.00666664,5.33333329 L3.99999998,5.33999998 L6.66666666,8 L3.99999998,10.6666667 L4.00666664,10.6733334 L3.99999998,10.6733334 L3.99999998,14.6666667 L12,14.6666667 L12,10.6733334 L11.9933334,10.6733334 L12,10.6666667 L9.33333334,8 L12,5.33999998 L11.9933334,5.33333329 L12,5.33333329 L12,1.33333329 L3.99999998,1.33333329 Z M10.6666667,11 L10.6666667,13.3333333 L5.33333332,13.3333333 L5.33333332,11 L8,8.33333334 L10.6666667,11 Z M8,7.66666663 L5.33333332,4.99999998 L5.33333332,2.66666663 L10.6666667,2.66666663 L10.6666667,4.99999998 L8,7.66666663 Z" id="path-1"></path>
    </defs>
    <g id="Icons/Action/hourglass-empty" stroke="none" stroke-width="1" fill="none" fill-rule="evenodd">
        <mask id="mask-2" fill="white">
            <use xlink:href="#path-1"></use>
        </mask>
        <use id="Icons/Action/ic_hourglass_empty_24px" fill="#233745" fill-rule="nonzero" xlink:href="#path-1"></use>
    </g>
</svg>