<?xml version="1.0" encoding="UTF-8"?>
<svg width="16px" height="16px" viewBox="0 0 16 16" version="1.1" xmlns="http://www.w3.org/2000/svg" xmlns:xlink="http://www.w3.org/1999/xlink">
    <title>Icons/Action/important-devices</title>
    <g id="Icons/Action/important-devices" stroke="none" stroke-width="1" fill="none" fill-rule="evenodd">
        <rect id="Spacer" fill-opacity="0" fill="#D8D8D8" x="0" y="0" width="16" height="16"></rect>
        <path d="M15.3333334,7.34 L12,7.33333333 C11.6333334,7.33333333 11.3333334,7.63333333 11.3333334,8 L11.3333334,14 C11.3333334,14.3666667 11.6333334,14.6666667 12,14.6666667 L15.3333334,14.6666667 C15.7,14.6666667 16.0000001,14.3666667 16.0000001,14 L16.0000001,8 C16.0000001,7.63333333 15.7,7.34 15.3333334,7.34 Z M15.3333334,13.3333334 L12,13.3333334 L12,8.66666667 L15.3333334,8.66666667 L15.3333334,13.3333334 Z M13.3333334,1.33333329 L1.33333329,1.33333329 C0.593333287,1.33333329 -5.00000006e-08,1.92666663 -5.00000006e-08,2.66666663 L-5.00000006e-08,10.6666667 C-5.00000006e-08,11.4 0.593333287,12 1.33333329,12 L5.99999995,12 L5.99999995,13.3333333 L4.66666665,13.3333333 L4.66666665,14.6666667 L9.99999995,14.6666667 L9.99999995,13.3333333 L8.66666667,13.3333333 L8.66666667,12 L9.99999995,12 L9.99999995,10.6666667 L1.33333329,10.6666667 L1.33333329,2.66666663 L13.3333334,2.66666663 L13.3333334,5.99999999 L14.6666667,5.99999999 L14.6666667,2.66666663 C14.6666667,1.92666663 14.0666667,1.33333329 13.3333334,1.33333329 Z M7.98,5.99999997 L7.33333333,3.99999998 L6.68666666,5.99999997 L4.66666665,5.99999997 L6.31333332,7.17333333 L5.68666665,9.11333334 L7.33333333,7.91333333 L8.98000001,9.11333334 L8.35333334,7.17333333 L10,5.99999997 L7.98,5.99999997 Z" id="Icons/Action/ic_important_devices_24px" fill="#233745" fill-rule="nonzero"></path>
    </g>
</svg>