<?xml version="1.0" encoding="UTF-8"?>
<svg width="16px" height="16px" viewBox="0 0 16 16" version="1.1" xmlns="http://www.w3.org/2000/svg" xmlns:xlink="http://www.w3.org/1999/xlink">
    <title>Icons/Action/input</title>
    <defs>
        <path d="M14,2.00666663 L1.99999996,2.00666663 C1.26666662,2.00666663 0.666666621,2.60666663 0.666666621,3.33999997 L0.666666621,5.99999999 L1.99999996,5.99999999 L1.99999996,3.32666664 L14,3.32666664 L14,12.68 L1.99999996,12.68 L1.99999996,10 L0.666666621,10 L0.666666621,12.6733334 C0.666666621,13.4066667 1.26666662,13.9933334 1.99999996,13.9933334 L14,13.9933334 C14.7333334,13.9933334 15.3333334,13.4066667 15.3333334,12.6733334 L15.3333334,3.33999997 C15.3333334,2.59999997 14.7333334,2.00666663 14,2.00666663 Z M7.33333333,10.6666667 L10,8 L7.33333333,5.33333332 L7.33333333,7.33333332 L0.666666621,7.33333332 L0.666666621,8.66666667 L7.33333333,8.66666667 L7.33333333,10.6666667 Z" id="path-1"></path>
    </defs>
    <g id="Icons/Action/input" stroke="none" stroke-width="1" fill="none" fill-rule="evenodd">
        <mask id="mask-2" fill="white">
            <use xlink:href="#path-1"></use>
        </mask>
        <use id="Icons/Action/ic_input_24px" fill="#233745" fill-rule="nonzero" xlink:href="#path-1"></use>
    </g>
</svg>