<?xml version="1.0" encoding="UTF-8"?>
<svg width="16px" height="16px" viewBox="0 0 16 16" version="1.1" xmlns="http://www.w3.org/2000/svg" xmlns:xlink="http://www.w3.org/1999/xlink">
    <title>Icons/Action/lock-open</title>
    <defs>
        <path d="M8,11.3333334 C8.73333334,11.3333334 9.33333334,10.7333334 9.33333334,10 C9.33333334,9.26666667 8.73333334,8.66666667 8,8.66666667 C7.26666666,8.66666667 6.66666666,9.26666667 6.66666666,10 C6.66666666,10.7333334 7.26666666,11.3333334 8,11.3333334 Z M12,5.33333332 L11.3333334,5.33333332 L11.3333334,3.99999997 C11.3333334,2.15999996 9.84000001,0.666666621 8,0.666666621 C6.15999999,0.666666621 4.66666663,2.15999996 4.66666663,3.99999997 L5.93333332,3.99999997 C5.93333332,2.85999997 6.85999999,1.9333333 8,1.9333333 C9.14000001,1.9333333 10.0666667,2.85999997 10.0666667,3.99999997 L10.0666667,5.33333332 L3.99999997,5.33333332 C3.26666664,5.33333332 2.66666663,5.93333332 2.66666663,6.66666662 L2.66666663,13.3333334 C2.66666663,14.0666667 3.26666664,14.6666666 3.99999997,14.6666666 L12,14.6666666 C12.7333334,14.6666666 13.3333334,14.0666667 13.3333334,13.3333334 L13.3333334,6.66666662 C13.3333334,5.93333332 12.7333334,5.33333332 12,5.33333332 Z M12,13.3333334 L3.99999998,13.3333334 L3.99999998,6.66666666 L12,6.66666666 L12,13.3333334 Z" id="path-1"></path>
    </defs>
    <g id="Icons/Action/lock-open" stroke="none" stroke-width="1" fill="none" fill-rule="evenodd">
        <mask id="mask-2" fill="white">
            <use xlink:href="#path-1"></use>
        </mask>
        <use id="Icons/Action/ic_lock_open_24px" fill="#233745" fill-rule="nonzero" xlink:href="#path-1"></use>
    </g>
</svg>