<?xml version="1.0" encoding="UTF-8"?>
<svg width="16px" height="16px" viewBox="0 0 16 16" version="1.1" xmlns="http://www.w3.org/2000/svg" xmlns:xlink="http://www.w3.org/1999/xlink">
    <title>Icons/Action/loyalty</title>
    <defs>
        <path d="M14.2733334,7.72 L8.27333334,1.71999996 C8.03333333,1.47999996 7.7,1.33333329 7.33333329,1.33333329 L2.66666663,1.33333329 C1.9333333,1.33333329 1.33333329,1.9333333 1.33333329,2.66666663 L1.33333329,7.33333329 C1.33333329,7.7 1.47999996,8.03333333 1.72666663,8.28 L7.72666666,14.28 C7.96666667,14.52 8.3,14.6666667 8.66666667,14.6666667 C9.03333334,14.6666667 9.36666668,14.52 9.60666668,14.2733334 L14.2733334,9.60666668 C14.52,9.36666668 14.6666667,9.03333334 14.6666667,8.66666667 C14.6666667,8.3 14.5133334,7.96 14.2733334,7.72 Z M3.66666663,4.66666663 C3.1133333,4.66666663 2.66666663,4.21999998 2.66666663,3.66666663 C2.66666663,3.1133333 3.1133333,2.66666663 3.66666663,2.66666663 C4.21999998,2.66666663 4.66666663,3.1133333 4.66666663,3.66666663 C4.66666663,4.21999998 4.21999998,4.66666663 3.66666663,4.66666663 Z M11.5133334,10.18 L8.66666667,13.0266667 L5.81999999,10.18 C5.51999998,9.87333335 5.33333332,9.46000001 5.33333332,9.00000001 C5.33333332,8.08 6.07999999,7.33333333 6.99999999,7.33333333 C7.46,7.33333333 7.88,7.52 8.18,7.82666667 L8.66666667,8.30666667 L9.15333334,7.82 C9.45333334,7.52 9.87333335,7.33333333 10.3333333,7.33333333 C11.2533334,7.33333333 12,8.08 12,9.00000001 C12,9.46000001 11.8133334,9.88000001 11.5133334,10.18 Z" id="path-1"></path>
    </defs>
    <g id="Icons/Action/loyalty" stroke="none" stroke-width="1" fill="none" fill-rule="evenodd">
        <mask id="mask-2" fill="white">
            <use xlink:href="#path-1"></use>
        </mask>
        <use id="Icons/Action/ic_loyalty_24px" fill="#233745" fill-rule="nonzero" xlink:href="#path-1"></use>
    </g>
</svg>