<svg xmlns="http://www.w3.org/2000/svg" xmlns:xlink="http://www.w3.org/1999/xlink" width="16" height="16" viewBox="0 0 16 16">
  <defs>
    <path id="motorcycle-a" d="M12.96,6.01999999 L10.2733333,3.3333333 L7.33333333,3.3333333 L7.33333333,4.66666665 L9.72666668,4.66666665 L11.06,5.99999999 L3.3333333,5.99999999 C1.46666663,5.99999999 -5.00000006e-08,7.46666666 -5.00000006e-08,9.3333333 C-5.00000006e-08,11.2 1.46666663,12.6666667 3.3333333,12.6666667 C4.97333331,12.6666667 6.29999999,11.54 6.59999999,10 L7.7,10 L9.54666668,8.15333333 C9.40666668,8.51333334 9.33333334,8.91333334 9.33333334,9.3333333 C9.33333334,11.2 10.8,12.6666667 12.6666667,12.6666667 C14.5333334,12.6666667 15.9999999,11.2 15.9999999,9.3333333 C15.9999999,7.56666666 14.6866667,6.15333332 12.96,6.01999999 Z M5.21333332,10 C4.93333331,10.7666667 4.18666664,11.3333333 3.33333329,11.3333333 C2.24666663,11.3333333 1.33333329,10.42 1.33333329,9.33333333 C1.33333329,8.24666667 2.24666663,7.33333333 3.33333329,7.33333333 C4.18666664,7.33333333 4.93333331,7.9 5.21333332,8.66666667 L3.33333329,8.66666667 L3.33333329,10 L5.21333332,10 Z M12.6666667,11.3333333 C11.56,11.3333333 10.6666667,10.44 10.6666667,9.33333333 C10.6666667,8.22666667 11.56,7.33333333 12.6666667,7.33333333 C13.7733334,7.33333333 14.6666667,8.22666667 14.6666667,9.33333333 C14.6666667,10.44 13.7733334,11.3333333 12.6666667,11.3333333 Z"/>
  </defs>
  <g fill="none" fill-rule="evenodd">
    <mask id="motorcycle-b" fill="#fff">
      <use xlink:href="#motorcycle-a"/>
    </mask>
    <g fill="CurrentColor" mask="url(#motorcycle-b)">
      <rect width="16" height="16"/>
    </g>
  </g>
</svg>
