<?xml version="1.0" encoding="UTF-8"?>
<svg width="16px" height="16px" viewBox="0 0 16 16" version="1.1" xmlns="http://www.w3.org/2000/svg" xmlns:xlink="http://www.w3.org/1999/xlink">
    <title>Icons/Action/note-add</title>
    <g id="Icons/Action/note-add" stroke="none" stroke-width="1" fill="none" fill-rule="evenodd">
        <rect id="Spacer" fill-opacity="0" fill="#D8D8D8" x="0" y="0" width="16" height="16"></rect>
        <path d="M9.33333334,1.33333329 L3.99999997,1.33333329 C3.26666664,1.33333329 2.6733333,1.9333333 2.6733333,2.66666663 L2.66666663,13.3333333 C2.66666663,14.0666667 3.25999997,14.6666667 3.99333331,14.6666667 L12,14.6666667 C12.7333334,14.6666667 13.3333334,14.0666667 13.3333334,13.3333333 L13.3333334,5.33333329 L9.33333334,1.33333329 Z M10.6666667,10.6666667 L8.66666667,10.6666667 L8.66666667,12.6666667 L7.33333332,12.6666667 L7.33333332,10.6666667 L5.33333332,10.6666667 L5.33333332,9.33333333 L7.33333332,9.33333333 L7.33333332,7.33333333 L8.66666667,7.33333333 L8.66666667,9.33333333 L10.6666667,9.33333333 L10.6666667,10.6666667 Z M8.66666667,5.99999999 L8.66666667,2.3333333 L12.3333334,5.99999999 L8.66666667,5.99999999 Z" id="Icons/Action/ic_note_add_24px" fill="#233745" fill-rule="nonzero"></path>
    </g>
</svg>