<?xml version="1.0" encoding="UTF-8"?>
<svg width="16px" height="16px" viewBox="0 0 16 16" version="1.1" xmlns="http://www.w3.org/2000/svg" xmlns:xlink="http://www.w3.org/1999/xlink">
    <title>Icons/Action/open-with</title>
    <defs>
        <path d="M6.66666665,5.99999999 L9.33333334,5.99999999 L9.33333334,3.99999997 L11.3333334,3.99999997 L8,0.666666621 L4.66666665,3.99999997 L6.66666665,3.99999997 L6.66666665,5.99999999 Z M5.99999999,6.66666665 L3.99999997,6.66666665 L3.99999997,4.66666665 L0.666666621,8 L3.99999997,11.3333334 L3.99999997,9.33333334 L5.99999999,9.33333334 L5.99999999,6.66666665 Z M15.3333334,8 L12,4.66666665 L12,6.66666665 L10,6.66666665 L10,9.33333334 L12,9.33333334 L12,11.3333334 L15.3333334,8 Z M9.33333334,10 L6.66666665,10 L6.66666665,12 L4.66666665,12 L8,15.3333334 L11.3333334,12 L9.33333334,12 L9.33333334,10 Z" id="path-1"></path>
    </defs>
    <g id="Icons/Action/open-with" stroke="none" stroke-width="1" fill="none" fill-rule="evenodd">
        <mask id="mask-2" fill="white">
            <use xlink:href="#path-1"></use>
        </mask>
        <use id="Icons/Action/ic_open_with_24px" fill="#233745" fill-rule="nonzero" xlink:href="#path-1"></use>
    </g>
</svg>