<?xml version="1.0" encoding="UTF-8"?>
<svg width="16px" height="16px" viewBox="0 0 16 16" version="1.1" xmlns="http://www.w3.org/2000/svg" xmlns:xlink="http://www.w3.org/1999/xlink">
    <title>Icons/Action/open-in-browser</title>
    <defs>
        <path d="M12.6666667,2.66666663 L3.3333333,2.66666663 C2.5933333,2.66666663 1.99999996,3.26666664 1.99999996,3.99999997 L1.99999996,12 C1.99999996,12.7333334 2.5933333,13.3333334 3.3333333,13.3333334 L5.99999996,13.3333334 L5.99999996,12 L3.3333333,12 L3.3333333,5.33333332 L12.6666667,5.33333332 L12.6666667,12 L9.99999996,12 L9.99999996,13.3333334 L12.6666667,13.3333334 C13.4,13.3333334 14,12.7333334 14,12 L14,3.99999997 C14,3.26666664 13.4066667,2.66666663 12.6666667,2.66666663 Z M8,6.66666666 L5.33333332,9.33333334 L7.33333332,9.33333334 L7.33333332,13.3333334 L8.66666667,13.3333334 L8.66666667,9.33333334 L10.6666667,9.33333334 L8,6.66666666 Z" id="path-1"></path>
    </defs>
    <g id="Icons/Action/open-in-browser" stroke="none" stroke-width="1" fill="none" fill-rule="evenodd">
        <mask id="mask-2" fill="white">
            <use xlink:href="#path-1"></use>
        </mask>
        <use id="Icons/Action/ic_open_in_browser_24px" fill="#233745" fill-rule="nonzero" xlink:href="#path-1"></use>
    </g>
</svg>