<?xml version="1.0" encoding="UTF-8"?>
<svg width="16px" height="16px" viewBox="0 0 16 16" version="1.1" xmlns="http://www.w3.org/2000/svg" xmlns:xlink="http://www.w3.org/1999/xlink">
    <title>Icons/Action/pageview</title>
    <g id="Icons/Action/pageview" stroke="none" stroke-width="1" fill="none" fill-rule="evenodd">
        <rect id="Spacer" fill-opacity="0" fill="#D8D8D8" x="0" y="0" width="16" height="16"></rect>
        <path d="M7.66666666,5.99999999 C6.74666666,5.99999999 5.99999999,6.74666666 5.99999999,7.66666666 C5.99999999,8.58666667 6.74666666,9.33333334 7.66666666,9.33333334 C8.58666667,9.33333334 9.33333334,8.58666667 9.33333334,7.66666666 C9.33333334,6.74666666 8.58666667,5.99999999 7.66666666,5.99999999 Z M13.3333333,2.66666663 L2.66666663,2.66666663 C1.9333333,2.66666663 1.33333329,3.26666664 1.33333329,3.99999997 L1.33333329,12 C1.33333329,12.7333334 1.9333333,13.3333334 2.66666663,13.3333334 L13.3333333,13.3333334 C14.0666667,13.3333334 14.6666667,12.7333334 14.6666667,12 L14.6666667,3.99999997 C14.6666667,3.26666664 14.0666667,2.66666663 13.3333333,2.66666663 Z M11.1933334,12.14 L9.25333334,10.2 C8.79333334,10.4933333 8.24666667,10.6666666 7.66,10.6666666 C6.00666665,10.6666666 4.66666665,9.32666667 4.66666665,7.66666665 C4.66666665,6.00666665 6.00666665,4.66666665 7.66666665,4.66666665 C9.32666667,4.66666665 10.6666666,6.00666665 10.6666666,7.66666665 C10.6666666,8.25333333 10.4933333,8.79333334 10.2,9.26000001 L12.14,11.1933334 L11.1933334,12.14 Z" id="Icons/Action/ic_pageview_24px" fill="#233745" fill-rule="nonzero"></path>
    </g>
</svg>