<?xml version="1.0" encoding="UTF-8"?>
<svg width="16px" height="16px" viewBox="0 0 16 16" version="1.1" xmlns="http://www.w3.org/2000/svg" xmlns:xlink="http://www.w3.org/1999/xlink">
    <title>Icons/Action/pan-tool</title>
    <defs>
        <path d="M15.3333334,3.66666664 L15.3333334,13.3333334 C15.3333334,14.8 14.1333334,15.9999999 12.6666666,15.9999999 L7.8,15.9999999 C7.07999999,15.9999999 6.39999999,15.7133334 5.89999999,15.2066667 L0.666666621,9.88666668 C0.666666621,9.88666668 1.50666663,9.06666667 1.53333329,9.05333334 C1.67999996,8.92666667 1.85999996,8.86000001 2.05999996,8.86000001 C2.20666663,8.86000001 2.33999996,8.90000001 2.45999997,8.96666667 C2.48666663,8.97333334 5.33333332,10.6066667 5.33333332,10.6066667 L5.33333332,2.66666663 C5.33333332,2.1133333 5.77999999,1.66666663 6.33333332,1.66666663 C6.88666666,1.66666663 7.33333333,2.1133333 7.33333333,2.66666663 L7.33333333,7.33333333 L8,7.33333333 L8,0.99999995 C8,0.446666619 8.44666667,-5.00000006e-08 9.00000001,-5.00000006e-08 C9.55333334,-5.00000006e-08 10,0.446666619 10,0.99999995 L10,7.33333333 L10.6666666,7.33333333 L10.6666666,1.66666663 C10.6666666,1.11333329 11.1133334,0.666666621 11.6666666,0.666666621 C12.22,0.666666621 12.6666666,1.11333329 12.6666666,1.66666663 L12.6666666,7.33333333 L13.3333334,7.33333333 L13.3333334,3.66666664 C13.3333334,3.1133333 13.78,2.66666663 14.3333334,2.66666663 C14.8866667,2.66666663 15.3333334,3.1133333 15.3333334,3.66666664 Z" id="path-1"></path>
    </defs>
    <g id="Icons/Action/pan-tool" stroke="none" stroke-width="1" fill="none" fill-rule="evenodd">
        <mask id="mask-2" fill="white">
            <use xlink:href="#path-1"></use>
        </mask>
        <use id="Icons/Action/ic_pan_tool_24px" fill="#233745" fill-rule="nonzero" xlink:href="#path-1"></use>
    </g>
</svg>