<?xml version="1.0" encoding="UTF-8"?>
<svg width="16px" height="16px" viewBox="0 0 16 16" version="1.1" xmlns="http://www.w3.org/2000/svg" xmlns:xlink="http://www.w3.org/1999/xlink">
    <title>Icons/Action/perm-contact-calendar</title>
    <g id="Icons/Action/perm-contact-calendar" stroke="none" stroke-width="1" fill="none" fill-rule="evenodd">
        <rect id="Spacer" fill-opacity="0" fill="#D8D8D8" x="0" y="0" width="16" height="16"></rect>
        <path d="M12.6666667,1.99999996 L12,1.99999996 L12,0.666666621 L10.6666667,0.666666621 L10.6666667,1.99999996 L5.33333332,1.99999996 L5.33333332,0.666666621 L3.99999996,0.666666621 L3.99999996,1.99999996 L3.3333333,1.99999996 C2.5933333,1.99999996 1.99999996,2.59999997 1.99999996,3.3333333 L1.99999996,12.6666666 C1.99999996,13.4 2.5933333,14 3.3333333,14 L12.6666667,14 C13.4,14 14,13.4 14,12.6666666 L14,3.3333333 C14,2.59999997 13.4,1.99999996 12.6666667,1.99999996 Z M7.99999999,3.99999997 C9.10666667,3.99999997 9.99999999,4.89333331 9.99999999,5.99999997 C9.99999999,7.10666666 9.10666667,7.99999997 7.99999999,7.99999997 C6.89333333,7.99999997 5.99999999,7.10666666 5.99999999,5.99999997 C5.99999999,4.89333331 6.89333333,3.99999997 7.99999999,3.99999997 Z M12,12 L3.99999997,12 L3.99999997,11.3333334 C3.99999997,10 6.66666666,9.26666667 7.99999997,9.26666667 C9.33333334,9.26666667 12,10 12,11.3333334 L12,12 Z" id="Icons/Action/ic_perm_contact_calendar_24px" fill="#233745" fill-rule="nonzero"></path>
    </g>
</svg>