<?xml version="1.0" encoding="UTF-8"?>
<svg width="16px" height="16px" viewBox="0 0 16 16" version="1.1" xmlns="http://www.w3.org/2000/svg" xmlns:xlink="http://www.w3.org/1999/xlink">
    <title>Icons/Action/perm-camera-mic</title>
    <g id="Icons/Action/perm-camera-mic" stroke="none" stroke-width="1" fill="none" fill-rule="evenodd">
        <rect id="Spacer" fill-opacity="0" fill="#D8D8D8" x="0" y="0" width="16" height="16"></rect>
        <path d="M13.3333333,3.3333333 L11.22,3.3333333 L10,1.99999996 L5.99999999,1.99999996 L4.77999998,3.3333333 L2.66666663,3.3333333 C1.9333333,3.3333333 1.33333329,3.93333331 1.33333329,4.66666665 L1.33333329,12.6666667 C1.33333329,13.4 1.9333333,14 2.66666663,14 L7.33333329,14 L7.33333329,12.6066667 C5.44666665,12.2866667 3.99999998,10.6466667 3.99999998,8.66666667 L5.33333329,8.66666667 C5.33333329,10.14 6.52666666,11.3333334 8,11.3333334 C9.47333334,11.3333334 10.6666667,10.14 10.6666667,8.66666667 L12,8.66666667 C12,10.6466667 10.5533333,12.2866667 8.66666667,12.6066667 L8.66666667,14 L13.3333333,14 C14.0666667,14 14.6666667,13.4 14.6666667,12.6666667 L14.6666667,4.66666665 C14.6666667,3.93333331 14.0666667,3.3333333 13.3333333,3.3333333 Z M9.33333334,8.66666665 C9.33333334,9.40000001 8.73333334,10 8,10 C7.26666666,10 6.66666666,9.40000001 6.66666666,8.66666665 L6.66666666,5.99999999 C6.66666666,5.26666665 7.26666666,4.66666665 8,4.66666665 C8.73333334,4.66666665 9.33333334,5.26666665 9.33333334,5.99999999 L9.33333334,8.66666665 Z" id="Icons/Action/ic_perm_camera_mic_24px" fill="#233745" fill-rule="nonzero"></path>
    </g>
</svg>