<?xml version="1.0" encoding="UTF-8"?>
<svg width="16px" height="16px" viewBox="0 0 16 16" version="1.1" xmlns="http://www.w3.org/2000/svg" xmlns:xlink="http://www.w3.org/1999/xlink">
    <title>Icons/Action/perm-identity</title>
    <defs>
        <path d="M8,3.93333331 C8.77333334,3.93333331 9.40000001,4.55999998 9.40000001,5.33333332 C9.40000001,6.10666665 8.77333334,6.73333333 8,6.73333333 C7.22666666,6.73333333 6.59999999,6.10666665 6.59999999,5.33333332 C6.59999999,4.55999998 7.22666666,3.93333331 8,3.93333331 L8,3.93333331 Z M8,9.93333335 C9.98000001,9.93333335 12.0666667,10.9066667 12.0666667,11.3333334 L12.0666667,12.0666667 L3.93333331,12.0666667 L3.93333331,11.3333334 C3.93333331,10.9066667 6.01999999,9.93333335 8,9.93333335 L8,9.93333335 Z M8,2.66666663 C6.52666666,2.66666663 5.33333332,3.85999997 5.33333332,5.33333332 C5.33333332,6.80666666 6.52666666,8 8,8 C9.47333334,8 10.6666667,6.80666666 10.6666667,5.33333332 C10.6666667,3.85999997 9.47333334,2.66666663 8,2.66666663 Z M8,8.66666667 C6.21999999,8.66666667 2.66666663,9.56000001 2.66666663,11.3333334 L2.66666663,13.3333334 L13.3333334,13.3333334 L13.3333334,11.3333334 C13.3333334,9.56000001 9.78000001,8.66666667 8,8.66666667 Z" id="path-1"></path>
    </defs>
    <g id="Icons/Action/perm-identity" stroke="none" stroke-width="1" fill="none" fill-rule="evenodd">
        <mask id="mask-2" fill="white">
            <use xlink:href="#path-1"></use>
        </mask>
        <use id="Icons/Action/ic_perm_identity_24px" fill="#233745" fill-rule="nonzero" xlink:href="#path-1"></use>
    </g>
</svg>