<?xml version="1.0" encoding="UTF-8"?>
<svg width="16px" height="16px" viewBox="0 0 16 16" version="1.1" xmlns="http://www.w3.org/2000/svg" xmlns:xlink="http://www.w3.org/1999/xlink">
    <title>Icons/Action/pets</title>
    <g id="Icons/Action/pets" stroke="none" stroke-width="1" fill="none" fill-rule="evenodd">
        <rect id="Spacer" fill-opacity="0" fill="#D8D8D8" x="0" y="0" width="16" height="16"></rect>
        <path d="M8,6.99999999 C8.17333333,6.99999999 8.35333334,6.99999999 8.52,7.02666666 C8.59333334,7.03999999 8.66666667,7.05999999 8.74,7.08666666 C9.20666667,7.24666666 9.60000001,7.60666666 9.90666668,7.96666667 C10.4933333,8.64666667 10.98,9.22666667 11.56,9.90666668 C12.4333334,10.78 13.5066667,11.7466667 13.3,13.1066667 C13.1066667,13.78 12.62,14.46 11.7466667,14.6533334 C11.26,14.7466667 9.70666668,14.36 8.05333333,14.36 L8.05333333,14.36 L7.93333333,14.36 C6.27999999,14.36 4.72666665,14.7533334 4.23999998,14.6533334 C3.36666664,14.46 2.87999997,13.7866667 2.68666663,13.1066667 C2.48666663,11.7533334 3.55999997,10.7866667 4.43333331,9.91333335 C5.01999998,9.23333334 5.50666665,8.65333334 6.08666665,7.97333333 C6.39999999,7.61333333 6.78666666,7.25333333 7.25333333,7.09333333 C7.32666666,7.06666666 7.4,7.04666666 7.47333333,7.03333333 C7.64666666,6.99999999 7.82666667,6.99999999 8,6.99999999 Z M2.99999997,4.66666665 C3.92047456,4.66666665 4.66666665,5.41285873 4.66666665,6.33333332 C4.66666665,7.25380791 3.92047456,8 2.99999997,8 C2.07952538,8 1.33333329,7.25380791 1.33333329,6.33333332 C1.33333329,5.41285873 2.07952538,4.66666665 2.99999997,4.66666665 Z M13,4.66666665 C13.9204746,4.66666665 14.6666667,5.41285873 14.6666667,6.33333332 C14.6666667,7.25380791 13.9204746,8 13,8 C12.0795254,8 11.3333334,7.25380791 11.3333334,6.33333332 C11.3333334,5.41285873 12.0795254,4.66666665 13,4.66666665 Z M5.99999999,1.99999996 C6.92047458,1.99999996 7.66666666,2.74619205 7.66666666,3.66666664 C7.66666666,4.58714123 6.92047458,5.33333332 5.99999999,5.33333332 C5.0795254,5.33333332 4.33333331,4.58714123 4.33333331,3.66666664 C4.33333331,2.74619205 5.0795254,1.99999996 5.99999999,1.99999996 Z M10,1.99999996 C10.9204746,1.99999996 11.6666667,2.74619205 11.6666667,3.66666664 C11.6666667,4.58714123 10.9204746,5.33333332 10,5.33333332 C9.07952542,5.33333332 8.33333334,4.58714123 8.33333334,3.66666664 C8.33333334,2.74619205 9.07952542,1.99999996 10,1.99999996 Z" id="Combined-Shape" fill="#233745" fill-rule="nonzero"></path>
    </g>
</svg>