<svg xmlns="http://www.w3.org/2000/svg" xmlns:xlink="http://www.w3.org/1999/xlink" width="16" height="16" viewBox="0 0 16 16">
  <defs>
    <path id="picture-in-picture-a" d="M12.6666667,4.66666665 L7.33333333,4.66666665 L7.33333333,8.66666665 L12.6666667,8.66666665 L12.6666667,4.66666665 Z M14,1.99999996 L1.99999996,1.99999996 C1.26666662,1.99999996 0.666666621,2.59999997 0.666666621,3.3333333 L0.666666621,12.6666667 C0.666666621,13.4 1.26666662,13.9866667 1.99999996,13.9866667 L14,13.9866667 C14.7333334,13.9866667 15.3333334,13.4 15.3333334,12.6666667 L15.3333334,3.3333333 C15.3333334,2.59999997 14.7333334,1.99999996 14,1.99999996 Z M14,12.6733334 L1.99999996,12.6733334 L1.99999996,3.31999997 L14,3.31999997 L14,12.6733334 L14,12.6733334 Z"/>
  </defs>
  <g fill="none" fill-rule="evenodd">
    <mask id="picture-in-picture-b" fill="#fff">
      <use xlink:href="#picture-in-picture-a"/>
    </mask>
    <g fill="CurrentColor" mask="url(#picture-in-picture-b)">
      <rect width="16" height="16"/>
    </g>
  </g>
</svg>
