<?xml version="1.0" encoding="UTF-8"?>
<svg width="16px" height="16px" viewBox="0 0 16 16" version="1.1" xmlns="http://www.w3.org/2000/svg" xmlns:xlink="http://www.w3.org/1999/xlink">
    <title>Icons/Action/power-settings-new</title>
    <defs>
        <path d="M8.66666667,1.99999996 L7.33333333,1.99999996 L7.33333333,8.66666667 L8.66666667,8.66666667 L8.66666667,1.99999996 Z M11.8866667,3.44666664 L10.94,4.39333331 C11.9933334,5.23999998 12.6666667,6.53999999 12.6666667,8 C12.6666667,10.58 10.58,12.6666667 7.99999996,12.6666667 C5.41999998,12.6666667 3.3333333,10.58 3.3333333,8 C3.3333333,6.53999999 4.00666664,5.23999998 5.05333331,4.38666664 L4.11333331,3.44666664 C2.81999997,4.54666665 1.99999996,6.17333332 1.99999996,8 C1.99999996,11.3133334 4.68666665,14 7.99999996,14 C11.3133334,14 14,11.3133334 14,8 C14,6.17333332 13.18,4.54666665 11.8866667,3.44666664 Z" id="path-1"></path>
    </defs>
    <g id="Icons/Action/power-settings-new" stroke="none" stroke-width="1" fill="none" fill-rule="evenodd">
        <mask id="mask-2" fill="white">
            <use xlink:href="#path-1"></use>
        </mask>
        <use id="Icons/Action/ic_power_settings_new_24px" fill="#233745" fill-rule="nonzero" xlink:href="#path-1"></use>
    </g>
</svg>