<?xml version="1.0" encoding="UTF-8"?>
<svg width="16px" height="16px" viewBox="0 0 16 16" version="1.1" xmlns="http://www.w3.org/2000/svg" xmlns:xlink="http://www.w3.org/1999/xlink">
    <title>Icons/Action/print</title>
    <g id="Icons/Action/print" stroke="none" stroke-width="1" fill="none" fill-rule="evenodd">
        <rect id="Spacer" fill-opacity="0" fill="#D8D8D8" x="0" y="0" width="16" height="16"></rect>
        <path d="M12.6666667,5.33333332 L3.33333329,5.33333332 C2.22666663,5.33333332 1.33333329,6.22666666 1.33333329,7.33333332 L1.33333329,11.3333333 L3.99999998,11.3333333 L3.99999998,14 L12,14 L12,11.3333333 L14.6666667,11.3333333 L14.6666667,7.33333332 C14.6666667,6.22666666 13.7733334,5.33333332 12.6666667,5.33333332 Z M10.6666667,12.6666667 L5.33333332,12.6666667 L5.33333332,9.33333334 L10.6666667,9.33333334 L10.6666667,12.6666667 Z M12.6666667,8 C12.3,8 12,7.7 12,7.33333333 C12,6.96666666 12.3,6.66666666 12.6666667,6.66666666 C13.0333334,6.66666666 13.3333334,6.96666666 13.3333334,7.33333333 C13.3333334,7.7 13.0333334,8 12.6666667,8 Z M12,1.99999996 L3.99999998,1.99999996 L3.99999998,4.66666665 L12,4.66666665 L12,1.99999996 Z" id="Icons/Action/ic_print_24px" fill="#233745" fill-rule="nonzero"></path>
    </g>
</svg>