<svg xmlns="http://www.w3.org/2000/svg" xmlns:xlink="http://www.w3.org/1999/xlink" width="16" height="16" viewBox="0 0 16 16">
  <defs>
    <path id="query-builder-a" d="M7.99333333,1.33333329 C4.31333331,1.33333329 1.33333329,4.31999998 1.33333329,8 C1.33333329,11.68 4.31333331,14.6666667 7.99333333,14.6666667 C11.68,14.6666667 14.6666667,11.68 14.6666667,8 C14.6666667,4.31999998 11.68,1.33333329 7.99333333,1.33333329 Z M8,13.3333334 C5.05333331,13.3333334 2.66666663,10.9466667 2.66666663,8 C2.66666663,5.05333331 5.05333331,2.66666663 8,2.66666663 C10.9466667,2.66666663 13.3333334,5.05333331 13.3333334,8 C13.3333334,10.9466667 10.9466667,13.3333334 8,13.3333334 Z M8.33333333,4.66666665 L7.33333333,4.66666665 L7.33333333,8.66666665 L10.8333333,10.7666667 L11.3333333,9.94666668 L8.33333333,8.16666665 L8.33333333,4.66666665 Z"/>
  </defs>
  <g fill="none" fill-rule="evenodd">
    <mask id="query-builder-b" fill="#fff">
      <use xlink:href="#query-builder-a"/>
    </mask>
    <g fill="CurrentColor" mask="url(#query-builder-b)">
      <rect width="16" height="16"/>
    </g>
  </g>
</svg>
