<?xml version="1.0" encoding="UTF-8"?>
<svg width="16px" height="16px" viewBox="0 0 16 16" version="1.1" xmlns="http://www.w3.org/2000/svg" xmlns:xlink="http://www.w3.org/1999/xlink">
    <title>Icons/Action/question-answer</title>
    <defs>
        <path d="M14,3.99999998 L12.6666667,3.99999998 L12.6666667,9.99999997 L3.99999998,9.99999997 L3.99999998,11.3333334 C3.99999998,11.7 4.29999998,12 4.66666665,12 L12,12 L14.6666667,14.6666667 L14.6666667,4.66666665 C14.6666667,4.29999998 14.3666667,3.99999998 14,3.99999998 Z M11.3333333,8 L11.3333333,1.99999996 C11.3333333,1.63333329 11.0333334,1.33333329 10.6666667,1.33333329 L1.99999996,1.33333329 C1.63333329,1.33333329 1.33333329,1.63333329 1.33333329,1.99999996 L1.33333329,11.3333333 L3.99999997,8.66666667 L10.6666667,8.66666667 C11.0333334,8.66666667 11.3333333,8.36666667 11.3333333,8 Z" id="path-1"></path>
    </defs>
    <g id="Icons/Action/question-answer" stroke="none" stroke-width="1" fill="none" fill-rule="evenodd">
        <mask id="mask-2" fill="white">
            <use xlink:href="#path-1"></use>
        </mask>
        <use id="Icons/Action/ic_question_answer_24px" fill="#233745" fill-rule="nonzero" xlink:href="#path-1"></use>
    </g>
</svg>