<?xml version="1.0" encoding="UTF-8"?>
<svg width="16px" height="16px" viewBox="0 0 16 16" version="1.1" xmlns="http://www.w3.org/2000/svg" xmlns:xlink="http://www.w3.org/1999/xlink">
    <title>Icons/Action/receipt</title>
    <defs>
        <path d="M12,11.3333334 L3.99999997,11.3333334 L3.99999997,10 L12,10 L12,11.3333334 Z M12,8.66666667 L3.99999997,8.66666667 L3.99999997,7.33333333 L12,7.33333333 L12,8.66666667 Z M12,5.99999999 L3.99999997,5.99999999 L3.99999997,4.66666665 L12,4.66666665 L12,5.99999999 Z M1.99999996,14.6666667 L2.99999996,13.6666667 L3.99999996,14.6666667 L4.99999996,13.6666667 L5.99999996,14.6666667 L6.99999996,13.6666667 L7.99999996,14.6666667 L8.99999996,13.6666667 L9.99999996,14.6666667 L11,13.6666667 L12,14.6666667 L13,13.6666667 L14,14.6666667 L14,1.33333329 L13,2.33333329 L12,1.33333329 L11,2.33333329 L9.99999996,1.33333329 L8.99999996,2.33333329 L7.99999996,1.33333329 L6.99999996,2.33333329 L5.99999996,1.33333329 L4.99999996,2.33333329 L3.99999996,1.33333329 L2.99999996,2.33333329 L1.99999996,1.33333329 L1.99999996,14.6666667 Z" id="path-1"></path>
    </defs>
    <g id="Icons/Action/receipt" stroke="none" stroke-width="1" fill="none" fill-rule="evenodd">
        <mask id="mask-2" fill="white">
            <use xlink:href="#path-1"></use>
        </mask>
        <use id="Icons/Action/ic_receipt_24px" fill="#233745" fill-rule="nonzero" xlink:href="#path-1"></use>
    </g>
</svg>