<?xml version="1.0" encoding="UTF-8"?>
<svg width="16px" height="16px" viewBox="0 0 16 16" version="1.1" xmlns="http://www.w3.org/2000/svg" xmlns:xlink="http://www.w3.org/1999/xlink">
    <title>Icons/Action/record-voice-over</title>
    <defs>
        <path d="M5.99999999,10 C7.78,10 11.3333334,10.8933334 11.3333334,12.6666667 L11.3333334,12.6666667 L11.3333334,14 L0.666666621,14 L0.666666621,12.6666667 C0.666666621,10.8933334 4.21999998,10 5.99999999,10 Z M13.38,1.33333329 C15.9866667,4.03333331 15.98,8.07333333 13.38,10.6666667 L13.38,10.6666667 L12.2933334,9.58000001 C14.14,7.46 14.14,4.43333331 12.2933334,2.41999997 L12.2933334,2.41999997 Z M5.99999999,3.3333333 C7.47275933,3.3333333 8.66666667,4.52724065 8.66666667,5.99999999 C8.66666667,7.47275933 7.47275933,8.66666667 5.99999999,8.66666667 C4.52724065,8.66666667 3.3333333,7.47275933 3.3333333,5.99999999 C3.3333333,4.52724065 4.52724065,3.3333333 5.99999999,3.3333333 Z M11.1733334,3.57333331 C12.52,5.03999998 12.52,7.07333331 11.1733334,8.42 L11.1733334,8.42 L10.0533333,7.29333333 C10.6133333,6.50666666 10.6133333,5.48666665 10.0533333,4.69999998 L10.0533333,4.69999998 Z" id="path-1"></path>
    </defs>
    <g id="Icons/Action/record-voice-over" stroke="none" stroke-width="1" fill="none" fill-rule="evenodd">
        <mask id="mask-2" fill="white">
            <use xlink:href="#path-1"></use>
        </mask>
        <use id="Combined-Shape" fill="#233745" fill-rule="nonzero" xlink:href="#path-1"></use>
    </g>
</svg>