<?xml version="1.0" encoding="UTF-8"?>
<svg width="16px" height="16px" viewBox="0 0 16 16" version="1.1" xmlns="http://www.w3.org/2000/svg" xmlns:xlink="http://www.w3.org/1999/xlink">
    <title>Icons/Action/redeem</title>
    <g id="Icons/Action/redeem" stroke="none" stroke-width="1" fill="none" fill-rule="evenodd">
        <rect id="Spacer" fill-opacity="0" fill="#D8D8D8" x="0" y="0" width="16" height="16"></rect>
        <path d="M13.3333333,3.99999998 L11.88,3.99999998 C11.9533334,3.79333331 12,3.56666664 12,3.33333329 C12,2.22666663 11.1066667,1.33333329 10,1.33333329 C9.30000001,1.33333329 8.69333334,1.69333329 8.33333329,2.2333333 L8,2.67999997 L7.66666666,2.22666663 C7.30666666,1.69333329 6.69999999,1.33333329 5.99999999,1.33333329 C4.89333331,1.33333329 3.99999998,2.22666663 3.99999998,3.33333329 C3.99999998,3.56666664 4.04666664,3.79333331 4.11999998,3.99999998 L2.66666663,3.99999998 C1.92666663,3.99999998 1.33999996,4.59333331 1.33999996,5.33333329 L1.33333329,12.6666667 C1.33333329,13.4066667 1.92666663,14 2.66666663,14 L13.3333333,14 C14.0733334,14 14.6666667,13.4066667 14.6666667,12.6666667 L14.6666667,5.33333329 C14.6666667,4.59333331 14.0733334,3.99999998 13.3333333,3.99999998 Z M10,2.66666663 C10.3666667,2.66666663 10.6666667,2.96666664 10.6666667,3.3333333 C10.6666667,3.69999997 10.3666667,3.99999998 10,3.99999998 C9.63333334,3.99999998 9.33333334,3.69999997 9.33333334,3.3333333 C9.33333334,2.96666664 9.63333334,2.66666663 10,2.66666663 Z M5.99999999,2.66666663 C6.36666666,2.66666663 6.66666666,2.96666664 6.66666666,3.3333333 C6.66666666,3.69999997 6.36666666,3.99999998 5.99999999,3.99999998 C5.63333332,3.99999998 5.33333332,3.69999997 5.33333332,3.3333333 C5.33333332,2.96666664 5.63333332,2.66666663 5.99999999,2.66666663 Z M13.3333334,12.6666667 L2.66666663,12.6666667 L2.66666663,11.3333334 L13.3333334,11.3333334 L13.3333334,12.6666667 Z M13.3333334,9.33333334 L2.66666663,9.33333334 L2.66666663,5.33333332 L6.05333332,5.33333332 L4.66666663,7.22 L5.74666665,8 L7.33333333,5.83999999 L8,4.93333331 L8.66666663,5.83999999 L10.2533333,8 L11.3333334,7.22 L9.94666668,5.33333332 L13.3333334,5.33333332 L13.3333334,9.33333334 Z" id="Icons/Action/ic_redeem_24px" fill="#233745" fill-rule="nonzero"></path>
    </g>
</svg>