<?xml version="1.0" encoding="UTF-8"?>
<svg width="16px" height="16px" viewBox="0 0 16 16" version="1.1" xmlns="http://www.w3.org/2000/svg" xmlns:xlink="http://www.w3.org/1999/xlink">
    <title>Icons/Action/restore</title>
    <defs>
        <path d="M8.66666662,1.99999996 C5.35333332,1.99999996 2.66666662,4.68666665 2.66666662,7.99999996 L0.666666621,7.99999996 L3.25999997,10.5933333 L3.30666664,10.6866667 L5.99999999,7.99999996 L3.99999997,7.99999996 C3.99999997,5.41999998 6.08666665,3.3333333 8.66666662,3.3333333 C11.2466667,3.3333333 13.3333334,5.41999998 13.3333334,7.99999996 C13.3333334,10.58 11.2466667,12.6666667 8.66666662,12.6666667 C7.38,12.6666667 6.21333332,12.14 5.37333332,11.2933334 L4.42666664,12.24 C5.51333332,13.3266667 7.00666666,14 8.66666662,14 C11.98,14 14.6666666,11.3133334 14.6666666,7.99999996 C14.6666666,4.68666665 11.98,1.99999996 8.66666662,1.99999996 Z M8,5.33333332 L8,8.66666667 L10.8533334,10.36 L11.3333334,9.55333334 L9,8.16666667 L9,5.33333332 L8,5.33333332 Z" id="path-1"></path>
    </defs>
    <g id="Icons/Action/restore" stroke="none" stroke-width="1" fill="none" fill-rule="evenodd">
        <mask id="mask-2" fill="white">
            <use xlink:href="#path-1"></use>
        </mask>
        <use id="Icons/Action/ic_restore_24px" fill="#233745" fill-rule="nonzero" xlink:href="#path-1"></use>
    </g>
</svg>