<?xml version="1.0" encoding="UTF-8"?>
<svg width="16px" height="16px" viewBox="0 0 16 16" version="1.1" xmlns="http://www.w3.org/2000/svg" xmlns:xlink="http://www.w3.org/1999/xlink">
    <title>Icons/Action/restore-page</title>
    <defs>
        <path d="M9.33333334,1.33333329 L3.99999997,1.33333329 C3.26666664,1.33333329 2.6733333,1.9333333 2.6733333,2.66666663 L2.66666663,13.3333333 C2.66666663,14.0666667 3.25999997,14.6666667 3.99333331,14.6666667 L12,14.6666667 C12.7333334,14.6666667 13.3333334,14.0666667 13.3333334,13.3333333 L13.3333334,5.33333329 L9.33333334,1.33333329 Z M8,12 C6.63333332,12 5.45999998,11.1733334 4.94666665,10 L6.08666665,10 C6.50666666,10.6 7.20666666,11 8,11 C9.28666667,11 10.3333333,9.95333335 10.3333333,8.66666667 C10.3333333,7.38 9.28666667,6.33333332 8,6.33333332 C7.09999999,6.33333332 6.31999999,6.85333333 5.93333332,7.6 L6.99999999,8.66666667 L4.33333331,8.66666667 L4.33333331,5.99999999 L5.19999998,6.86666666 C5.79333332,5.94666665 6.81999999,5.33333332 8,5.33333332 C9.84000001,5.33333332 11.3333333,6.82666666 11.3333333,8.66666667 C11.3333333,10.5066667 9.84000001,12 8,12 Z" id="path-1"></path>
    </defs>
    <g id="Icons/Action/restore-page" stroke="none" stroke-width="1" fill="none" fill-rule="evenodd">
        <mask id="mask-2" fill="white">
            <use xlink:href="#path-1"></use>
        </mask>
        <use id="Icons/Action/ic_restore_page_24px" fill="#233745" fill-rule="nonzero" xlink:href="#path-1"></use>
    </g>
</svg>