<?xml version="1.0" encoding="UTF-8"?>
<svg width="16px" height="16px" viewBox="0 0 16 16" version="1.1" xmlns="http://www.w3.org/2000/svg" xmlns:xlink="http://www.w3.org/1999/xlink">
    <title>Icons/Action/rounded-corner</title>
    <defs>
        <path d="M12.6666667,12.6666667 L14,12.6666667 L14,14 L12.6666667,14 L12.6666667,12.6666667 Z M12.6666667,11.3333334 L14,11.3333334 L14,10 L12.6666667,10 L12.6666667,11.3333334 Z M1.99999996,8.66666667 L3.3333333,8.66666667 L3.3333333,7.33333333 L1.99999996,7.33333333 L1.99999996,8.66666667 Z M1.99999996,11.3333334 L3.3333333,11.3333334 L3.3333333,10 L1.99999996,10 L1.99999996,11.3333334 Z M1.99999996,5.99999999 L3.3333333,5.99999999 L3.3333333,4.66666665 L1.99999996,4.66666665 L1.99999996,5.99999999 Z M1.99999996,3.3333333 L3.3333333,3.3333333 L3.3333333,1.99999996 L1.99999996,1.99999996 L1.99999996,3.3333333 Z M4.66666665,3.3333333 L5.99999999,3.3333333 L5.99999999,1.99999996 L4.66666665,1.99999996 L4.66666665,3.3333333 Z M10,14 L11.3333334,14 L11.3333334,12.6666667 L10,12.6666667 L10,14 Z M7.33333333,14 L8.66666667,14 L8.66666667,12.6666667 L7.33333333,12.6666667 L7.33333333,14 Z M10,14 L11.3333334,14 L11.3333334,12.6666667 L10,12.6666667 L10,14 Z M4.66666665,14 L5.99999999,14 L5.99999999,12.6666667 L4.66666665,12.6666667 L4.66666665,14 Z M1.99999996,14 L3.3333333,14 L3.3333333,12.6666667 L1.99999996,12.6666667 L1.99999996,14 Z M14,5.33333332 C14,3.49333331 12.5066667,1.99999996 10.6666667,1.99999996 L7.33333333,1.99999996 L7.33333333,3.3333333 L10.6666667,3.3333333 C11.7666667,3.3333333 12.6666667,4.23333331 12.6666667,5.33333332 L12.6666667,8.66666667 L14,8.66666667 L14,5.33333332 Z" id="path-1"></path>
    </defs>
    <g id="Icons/Action/rounded-corner" stroke="none" stroke-width="1" fill="none" fill-rule="evenodd">
        <mask id="mask-2" fill="white">
            <use xlink:href="#path-1"></use>
        </mask>
        <use id="Icons/Action/ic_rounded_corner_24px" fill="#233745" fill-rule="nonzero" xlink:href="#path-1"></use>
    </g>
</svg>