<?xml version="1.0" encoding="UTF-8"?>
<svg width="16px" height="16px" viewBox="0 0 16 16" version="1.1" xmlns="http://www.w3.org/2000/svg" xmlns:xlink="http://www.w3.org/1999/xlink">
    <title>Icons/Action/rowing</title>
    <g id="Icons/Action/rowing" stroke="none" stroke-width="1" fill="none" fill-rule="evenodd">
        <rect id="Spacer" fill-opacity="0" fill="#D8D8D8" x="0" y="0" width="16" height="16"></rect>
        <path d="M5.66666663,9.66666668 L2.66666663,12.6666667 L3.66666663,13.6666667 L5.99999999,11.3333334 L7.33333333,11.3333334 L5.66666663,9.66666668 Z M10,0.666666621 C9.26666667,0.666666621 8.66666667,1.26666662 8.66666667,1.99999996 C8.66666667,2.7333333 9.26666667,3.3333333 10,3.3333333 C10.7333334,3.3333333 11.3333334,2.7333333 11.3333334,1.99999996 C11.3333334,1.26666662 10.7333334,0.666666621 10,0.666666621 Z M14,14.0066667 L12,16 L10.0066667,13.9933334 L10.0066667,13 L5.27333332,8.27333334 C5.06666665,8.30666667 4.86666665,8.32 4.66666665,8.32 L4.66666665,6.87999999 C5.77333332,6.89999999 7.07333333,6.29999999 7.78,5.51999998 L8.71333334,4.48666664 C8.84000001,4.34666664 9.00000001,4.23333331 9.17333334,4.15333331 C9.36666668,4.05999998 9.58666668,3.99999998 9.81333334,3.99999998 L9.83333334,3.99999998 C10.66,4.00666664 11.3333334,4.67999998 11.3333334,5.50666665 L11.3333334,9.34000001 C11.3333334,9.90000001 11.1,10.4133333 10.72,10.78 L8.33333334,8.39333334 L8.33333334,6.87999999 C7.91333333,7.22666666 7.38,7.56 6.80666666,7.80666667 L11,12 L12,12 L14,14.0066667 L14,14.0066667 Z" id="Icons/Action/ic_rowing_24px" fill="#233745" fill-rule="nonzero"></path>
    </g>
</svg>