<?xml version="1.0" encoding="UTF-8"?>
<svg width="16px" height="16px" viewBox="0 0 16 16" version="1.1" xmlns="http://www.w3.org/2000/svg" xmlns:xlink="http://www.w3.org/1999/xlink">
    <title>Icons/Action/search</title>
    <g id="Icons/Action/search" stroke="none" stroke-width="1" fill="none" fill-rule="evenodd">
        <rect id="Spacer" fill-opacity="0" fill="#D8D8D8" x="0" y="0" width="16" height="16"></rect>
        <path d="M10.3333333,9.33333334 L9.80666668,9.33333334 L9.62000001,9.15333334 C10.2733333,8.39333334 10.6666667,7.40666666 10.6666667,6.33333332 C10.6666667,3.93999997 8.72666667,1.99999996 6.33333332,1.99999996 C3.93999997,1.99999996 1.99999996,3.93999997 1.99999996,6.33333332 C1.99999996,8.72666667 3.93999997,10.6666667 6.33333332,10.6666667 C7.40666666,10.6666667 8.39333334,10.2733333 9.15333334,9.62000001 L9.33333334,9.80666668 L9.33333334,10.3333333 L12.6666667,13.66 L13.66,12.6666667 L10.3333333,9.33333334 Z M6.3333333,9.3333333 C4.67333331,9.3333333 3.3333333,7.99333333 3.3333333,6.3333333 C3.3333333,4.67333331 4.67333331,3.3333333 6.3333333,3.3333333 C7.99333333,3.3333333 9.3333333,4.67333331 9.3333333,6.3333333 C9.3333333,7.99333333 7.99333333,9.3333333 6.3333333,9.3333333 Z" id="Icons/Action/ic_search_24px" fill="#233745" fill-rule="nonzero"></path>
    </g>
</svg>