<svg xmlns="http://www.w3.org/2000/svg" xmlns:xlink="http://www.w3.org/1999/xlink" width="16" height="16" viewBox="0 0 16 16">
  <defs>
    <path id="settings-cell-a" d="M4.66666665,16.0000001 L5.99999999,16.0000001 L5.99999999,14.6666667 L4.66666665,14.6666667 L4.66666665,16.0000001 Z M7.33333333,16.0000001 L8.66666667,16.0000001 L8.66666667,14.6666667 L7.33333333,14.6666667 L7.33333333,16.0000001 Z M10,16.0000001 L11.3333334,16.0000001 L11.3333334,14.6666667 L10,14.6666667 L10,16.0000001 Z M10.6666667,0.00666661671 L5.33333332,-5.00000006e-08 C4.59999998,-5.00000006e-08 3.99999997,0.599999954 3.99999997,1.33333329 L3.99999997,11.9999999 C3.99999997,12.7333334 4.59999998,13.3333334 5.33333332,13.3333334 L10.6666667,13.3333334 C11.4,13.3333334 12,12.7333334 12,11.9999999 L12,1.33333329 C12,0.599999954 11.4,0.00666661671 10.6666667,0.00666661671 Z M10.6666667,10.6666666 L5.33333332,10.6666666 L5.33333332,2.66666663 L10.6666667,2.66666663 L10.6666667,10.6666666 Z"/>
  </defs>
  <g fill="none" fill-rule="evenodd">
    <mask id="settings-cell-b" fill="#fff">
      <use xlink:href="#settings-cell-a"/>
    </mask>
    <g fill="CurrentColor" mask="url(#settings-cell-b)">
      <rect width="16" height="16"/>
    </g>
  </g>
</svg>
