<?xml version="1.0" encoding="UTF-8"?>
<svg width="16px" height="16px" viewBox="0 0 16 16" version="1.1" xmlns="http://www.w3.org/2000/svg" xmlns:xlink="http://www.w3.org/1999/xlink">
    <title>Icons/Action/settings-cell</title>
    <g id="Icons/Action/settings-cell" stroke="none" stroke-width="1" fill="none" fill-rule="evenodd">
        <rect id="Spacer" fill-opacity="0" fill="#D8D8D8" x="0" y="0" width="16" height="16"></rect>
        <path d="M4.66666665,16 L5.99999999,16 L5.99999999,14.6666667 L4.66666665,14.6666667 L4.66666665,16 Z M7.33333333,16 L8.66666667,16 L8.66666667,14.6666667 L7.33333333,14.6666667 L7.33333333,16 Z M10,16 L11.3333334,16 L11.3333334,14.6666667 L10,14.6666667 L10,16 Z M10.6666667,0.00666661671 L5.33333332,-5.00000006e-08 C4.59999998,-5.00000006e-08 3.99999998,0.599999954 3.99999998,1.33333329 L3.99999998,11.9999999 C3.99999998,12.7333334 4.59999998,13.3333334 5.33333332,13.3333334 L10.6666667,13.3333334 C11.4,13.3333334 12,12.7333334 12,11.9999999 L12,1.33333329 C12,0.599999954 11.4,0.00666661671 10.6666667,0.00666661671 Z M10.6666667,10.6666666 L5.33333332,10.6666666 L5.33333332,2.66666663 L10.6666667,2.66666663 L10.6666667,10.6666666 Z" id="Icons/Action/ic_settings_cell_24px" fill="#233745" fill-rule="nonzero"></path>
    </g>
</svg>