<?xml version="1.0" encoding="UTF-8"?>
<svg width="16px" height="16px" viewBox="0 0 16 16" version="1.1" xmlns="http://www.w3.org/2000/svg" xmlns:xlink="http://www.w3.org/1999/xlink">
    <title>Icons/Action/settings-overscan</title>
    <g id="Icons/Action/settings-overscan" stroke="none" stroke-width="1" fill="none" fill-rule="evenodd">
        <rect id="Spacer" fill-opacity="0" fill="#D8D8D8" x="0" y="0" width="16" height="16"></rect>
        <path d="M8.00666667,3.66666664 L6.66666666,5.33333332 L9.33333334,5.33333332 L8.00666667,3.66666664 Z M12,6.66666666 L12,9.33333334 L13.6666667,8.00666667 L12,6.66666666 Z M3.99999998,6.66666666 L2.3333333,8.00666667 L3.99999998,9.33333334 L3.99999998,6.66666666 Z M9.33333334,10.6666667 L6.66666666,10.6666667 L8.00666667,12.3333334 L9.33333334,10.6666667 Z M14,1.99999996 L1.99999996,1.99999996 C1.26666662,1.99999996 0.666666621,2.59999997 0.666666621,3.3333333 L0.666666621,12.6666667 C0.666666621,13.4 1.26666662,14 1.99999996,14 L14,14 C14.7333334,14 15.3333334,13.4 15.3333334,12.6666667 L15.3333334,3.3333333 C15.3333334,2.59999997 14.7333334,1.99999996 14,1.99999996 Z M14,12.6733334 L1.99999996,12.6733334 L1.99999996,3.32666664 L14,3.32666664 L14,12.6733334 L14,12.6733334 Z" id="Icons/Action/ic_settings_overscan_24px" fill="#233745" fill-rule="nonzero"></path>
    </g>
</svg>