<svg xmlns="http://www.w3.org/2000/svg" xmlns:xlink="http://www.w3.org/1999/xlink" width="16" height="16" viewBox="0 0 16 16">
  <defs>
    <path id="settings-input-hdmi-a" d="M12,4.66666665 L12,2.66666663 C12,1.9333333 11.4,1.33333329 10.6666667,1.33333329 L5.3333333,1.33333329 C4.59999998,1.33333329 3.99999997,1.9333333 3.99999997,2.66666663 L3.99999997,4.66666665 L3.3333333,4.66666665 L3.3333333,8.66666667 L5.3333333,12.6666667 L5.3333333,14.6666667 L10.6666667,14.6666667 L10.6666667,12.6666667 L12.6666667,8.66666667 L12.6666667,4.66666665 L12,4.66666665 Z M5.33333332,2.66666663 L10.6666667,2.66666663 L10.6666667,4.66666663 L9.33333332,4.66666663 L9.33333332,3.3333333 L8.66666667,3.3333333 L8.66666667,4.66666663 L7.33333332,4.66666663 L7.33333332,3.3333333 L6.66666666,3.3333333 L6.66666666,4.66666663 L5.33333332,4.66666663 L5.33333332,2.66666663 Z"/>
  </defs>
  <g fill="none" fill-rule="evenodd">
    <mask id="settings-input-hdmi-b" fill="#fff">
      <use xlink:href="#settings-input-hdmi-a"/>
    </mask>
    <g fill="CurrentColor" mask="url(#settings-input-hdmi-b)">
      <rect width="16" height="16"/>
    </g>
  </g>
</svg>
