<svg xmlns="http://www.w3.org/2000/svg" xmlns:xlink="http://www.w3.org/1999/xlink" width="16" height="16" viewBox="0 0 16 16">
  <defs>
    <path id="settings-input-svideo-a" d="M5.3333333,7.66666666 C5.3333333,7.11333333 4.88666665,6.66666666 4.3333333,6.66666666 C3.77999997,6.66666666 3.3333333,7.11333333 3.3333333,7.66666666 C3.3333333,8.22 3.77999997,8.66666666 4.3333333,8.66666666 C4.88666665,8.66666666 5.3333333,8.22 5.3333333,7.66666666 Z M9.99999999,4.3333333 C9.99999999,3.77999997 9.55333334,3.3333333 8.99999999,3.3333333 L6.99999999,3.3333333 C6.44666666,3.3333333 5.99999999,3.77999997 5.99999999,4.3333333 C5.99999999,4.88666665 6.44666666,5.3333333 6.99999999,5.3333333 L8.99999999,5.3333333 C9.55333334,5.3333333 9.99999999,4.88666665 9.99999999,4.3333333 Z M5.66666665,10 C5.11333332,10 4.66666665,10.4466667 4.66666665,11 C4.66666665,11.5533334 5.11333332,12 5.66666665,12 C6.21999999,12 6.66666665,11.5533334 6.66666665,11 C6.66666665,10.4466667 6.21999999,10 5.66666665,10 Z M8,0.666666621 C3.95333331,0.666666621 0.666666621,3.95333331 0.666666621,8 C0.666666621,12.0466667 3.95333331,15.3333334 8,15.3333334 C12.0466667,15.3333334 15.3333334,12.0466667 15.3333334,8 C15.3333334,3.95333331 12.0466667,0.666666621 8,0.666666621 Z M7.99999996,14 C4.69333331,14 1.99999996,11.3066667 1.99999996,7.99999996 C1.99999996,4.69333331 4.69333331,1.99999996 7.99999996,1.99999996 C11.3066667,1.99999996 14,4.69333331 14,7.99999996 C14,11.3066667 11.3066667,14 7.99999996,14 Z M11.6666667,6.66666666 C11.1133334,6.66666666 10.6666667,7.11333333 10.6666667,7.66666666 C10.6666667,8.22 11.1133334,8.66666666 11.6666667,8.66666666 C12.22,8.66666666 12.6666667,8.22 12.6666667,7.66666666 C12.6666667,7.11333333 12.22,6.66666666 11.6666667,6.66666666 Z M10.3333333,10 C9.78000001,10 9.33333334,10.4466667 9.33333334,11 C9.33333334,11.5533334 9.78000001,12 10.3333333,12 C10.8866667,12 11.3333333,11.5533334 11.3333333,11 C11.3333333,10.4466667 10.8866667,10 10.3333333,10 Z"/>
  </defs>
  <g fill="none" fill-rule="evenodd">
    <mask id="settings-input-svideo-b" fill="#fff">
      <use xlink:href="#settings-input-svideo-a"/>
    </mask>
    <g fill="CurrentColor" mask="url(#settings-input-svideo-b)">
      <rect width="16" height="16"/>
    </g>
  </g>
</svg>
