<?xml version="1.0" encoding="UTF-8"?>
<svg width="16px" height="16px" viewBox="0 0 16 16" version="1.1" xmlns="http://www.w3.org/2000/svg" xmlns:xlink="http://www.w3.org/1999/xlink">
    <title>Icons/Action/settings-applications</title>
    <defs>
        <path d="M8,6.66666666 C7.26666666,6.66666666 6.66666666,7.26666666 6.66666666,8 C6.66666666,8.73333334 7.26666666,9.33333334 8,9.33333334 C8.73333334,9.33333334 9.33333334,8.73333334 9.33333334,8 C9.33333334,7.26666666 8.73333334,6.66666666 8,6.66666666 Z M12.6666667,1.99999996 L3.3333333,1.99999996 C2.5933333,1.99999996 1.99999996,2.59999997 1.99999996,3.3333333 L1.99999996,12.6666667 C1.99999996,13.4 2.5933333,14 3.3333333,14 L12.6666667,14 C13.4066667,14 14,13.4 14,12.6666667 L14,3.3333333 C14,2.59999997 13.4066667,1.99999996 12.6666667,1.99999996 Z M11.5,8 C11.5,8.15333333 11.4866667,8.30666667 11.4666667,8.45333334 L12.4533334,9.22666667 C12.54,9.30000001 12.5666667,9.42666668 12.5066667,9.52666668 L11.5733334,11.14 C11.5133334,11.24 11.3933334,11.28 11.2866667,11.24 L10.1266667,10.7733334 C9.88666668,10.96 9.62000001,11.1133334 9.34000001,11.2333334 L9.16666667,12.4666667 C9.14666667,12.58 9.04666667,12.6666667 8.93333334,12.6666667 L7.06666666,12.6666667 C6.95333333,12.6666667 6.85333333,12.58 6.83333333,12.4733334 L6.65999999,11.24 C6.37333332,11.12 6.11333332,10.9666667 5.87333332,10.78 L4.71333331,11.2466667 C4.60666665,11.2866667 4.48666664,11.2466667 4.42666664,11.1466667 L3.49333331,9.53333334 C3.4333333,9.43333334 3.45999997,9.30666667 3.54666664,9.23333334 L4.53333331,8.46 C4.51333331,8.30666667 4.49999998,8.15333333 4.49999998,8 C4.49999998,7.84666667 4.51333331,7.69333333 4.53333331,7.54666666 L3.54666664,6.77333333 C3.45999997,6.69999999 3.4333333,6.57333332 3.49333331,6.47333332 L4.42666664,4.85999998 C4.48666664,4.75999998 4.60666665,4.71999998 4.71333331,4.75999998 L5.87333332,5.22666665 C6.11333332,5.03999998 6.37999999,4.88666665 6.65999999,4.76666665 L6.83333333,3.53333331 C6.85333333,3.41999997 6.95333333,3.3333333 7.06666666,3.3333333 L8.93333334,3.3333333 C9.04666667,3.3333333 9.14666667,3.41999997 9.16666667,3.52666664 L9.34000001,4.75999998 C9.62666668,4.87999998 9.88666668,5.03333331 10.1266667,5.21999998 L11.2866667,4.75333331 C11.3933334,4.71333331 11.5133334,4.75333331 11.5733334,4.85333331 L12.5066667,6.46666666 C12.5666667,6.56666666 12.54,6.69333333 12.4533334,6.76666666 L11.4666667,7.54 C11.4866667,7.69333333 11.5,7.84666667 11.5,8 Z" id="path-1"></path>
    </defs>
    <g id="Icons/Action/settings-applications" stroke="none" stroke-width="1" fill="none" fill-rule="evenodd">
        <mask id="mask-2" fill="white">
            <use xlink:href="#path-1"></use>
        </mask>
        <use id="Icons/Action/ic_settings_applications_24px" fill="#233745" fill-rule="nonzero" xlink:href="#path-1"></use>
    </g>
</svg>