<?xml version="1.0" encoding="UTF-8"?>
<svg width="16px" height="16px" viewBox="0 0 16 16" version="1.1" xmlns="http://www.w3.org/2000/svg" xmlns:xlink="http://www.w3.org/1999/xlink">
    <title>Icons/Action/settings-input-component</title>
    <g id="Icons/Action/settings-input-component" stroke="none" stroke-width="1" fill="none" fill-rule="evenodd">
        <rect id="Spacer" fill-opacity="0" fill="#D8D8D8" x="0" y="0" width="16" height="16"></rect>
        <path d="M3.3333333,1.33333329 C3.3333333,0.966666623 3.0333333,0.666666621 2.66666662,0.666666621 C2.29999996,0.666666621 1.99999996,0.966666623 1.99999996,1.33333329 L1.99999996,3.99999997 L0.666666621,3.99999997 L0.666666621,8 L4.66666662,8 L4.66666662,3.99999997 L3.3333333,3.99999997 L3.3333333,1.33333329 Z M5.99999999,10.6666667 C5.99999999,11.5333334 6.55999999,12.2666667 7.33333333,12.5466667 L7.33333333,15.3333333 L8.66666667,15.3333333 L8.66666667,12.5466667 C9.44000001,12.2733334 9.99999999,11.54 9.99999999,10.6666667 L9.99999999,9.33333334 L5.99999999,9.33333334 L5.99999999,10.6666667 Z M0.666666621,10.6666667 C0.666666621,11.5333334 1.22666662,12.2666667 1.99999996,12.5466667 L1.99999996,15.3333333 L3.3333333,15.3333333 L3.3333333,12.5466667 C4.10666664,12.2666667 4.66666662,11.5333334 4.66666662,10.6666667 L4.66666662,9.33333334 L0.666666621,9.33333334 L0.666666621,10.6666667 Z M14,3.99999997 L14,1.33333329 C14,0.966666623 13.7,0.666666621 13.3333334,0.666666621 C12.9666667,0.666666621 12.6666667,0.966666623 12.6666667,1.33333329 L12.6666667,3.99999997 L11.3333334,3.99999997 L11.3333334,8 L15.3333334,8 L15.3333334,3.99999997 L14,3.99999997 Z M8.66666667,1.33333329 C8.66666667,0.966666623 8.36666667,0.666666621 7.99999999,0.666666621 C7.63333333,0.666666621 7.33333333,0.966666623 7.33333333,1.33333329 L7.33333333,3.99999997 L5.99999999,3.99999997 L5.99999999,8 L9.99999999,8 L9.99999999,3.99999997 L8.66666667,3.99999997 L8.66666667,1.33333329 Z M11.3333334,10.6666667 C11.3333334,11.5333334 11.8933334,12.2666667 12.6666667,12.5466667 L12.6666667,15.3333333 L14,15.3333333 L14,12.5466667 C14.7733334,12.2733334 15.3333334,11.54 15.3333334,10.6666667 L15.3333334,9.33333334 L11.3333334,9.33333334 L11.3333334,10.6666667 Z" id="Icons/Action/ic_settings_input_component_24px" fill="#233745" fill-rule="nonzero"></path>
    </g>
</svg>