<?xml version="1.0" encoding="UTF-8"?>
<svg width="16px" height="16px" viewBox="0 0 16 16" version="1.1" xmlns="http://www.w3.org/2000/svg" xmlns:xlink="http://www.w3.org/1999/xlink">
    <title>Icons/Action/settings-voice</title>
    <g id="Icons/Action/settings-voice" stroke="none" stroke-width="1" fill="none" fill-rule="evenodd">
        <rect id="Spacer" fill-opacity="0" fill="#D8D8D8" x="0" y="0" width="16" height="16"></rect>
        <path d="M4.66666665,16 L5.99999999,16 L5.99999999,14.6666667 L4.66666665,14.6666667 L4.66666665,16 Z M7.99999999,8.66666662 C9.10666667,8.66666662 9.99333335,7.77333333 9.99333335,6.66666662 L9.99999999,2.66666662 C9.99999999,1.55999996 9.10666667,0.666666621 7.99999999,0.666666621 C6.89333333,0.666666621 5.99999999,1.55999996 5.99999999,2.66666662 L5.99999999,6.66666662 C5.99999999,7.77333333 6.89333333,8.66666662 7.99999999,8.66666662 Z M7.33333333,16 L8.66666667,16 L8.66666667,14.6666667 L7.33333333,14.6666667 L7.33333333,16 Z M10,16 L11.3333334,16 L11.3333334,14.6666667 L10,14.6666667 L10,16 Z M12.6666667,6.66666666 L11.5333334,6.66666666 C11.5333334,8.66666666 9.84000001,10.0666667 8,10.0666667 C6.15999999,10.0666667 4.46666664,8.66666666 4.46666664,6.66666666 L3.3333333,6.66666666 C3.3333333,8.94000001 5.14666665,10.82 7.3333333,11.1466667 L7.3333333,13.3333334 L8.66666667,13.3333334 L8.66666667,11.1466667 C10.8533334,10.82 12.6666667,8.94000001 12.6666667,6.66666666 Z" id="Icons/Action/ic_settings_voice_24px" fill="#233745" fill-rule="nonzero"></path>
    </g>
</svg>