<svg xmlns="http://www.w3.org/2000/svg" xmlns:xlink="http://www.w3.org/1999/xlink" width="16" height="16" viewBox="0 0 16 16">
  <defs>
    <path id="settings-backup-restore-a" d="M9.33333334,8 C9.33333334,7.26666666 8.73333334,6.66666666 8,6.66666666 C7.26666666,6.66666666 6.66666666,7.26666666 6.66666666,8 C6.66666666,8.73333334 7.26666666,9.33333334 8,9.33333334 C8.73333334,9.33333334 9.33333334,8.73333334 9.33333334,8 Z M7.99999995,1.99999996 C4.68666665,1.99999996 1.99999995,4.68666665 1.99999995,7.99999996 L-5.00000006e-08,7.99999996 L2.66666663,10.6666667 L5.33333332,7.99999996 L3.3333333,7.99999996 C3.3333333,5.41999998 5.41999998,3.3333333 7.99999995,3.3333333 C10.58,3.3333333 12.6666667,5.41999998 12.6666667,7.99999996 C12.6666667,10.58 10.58,12.6666667 7.99999995,12.6666667 C6.99333333,12.6666667 6.05999999,12.34 5.29333332,11.8 L4.34666664,12.76 C5.35999998,13.5333334 6.62666666,14 7.99999995,14 C11.3133334,14 13.9999999,11.3133334 13.9999999,7.99999996 C13.9999999,4.68666665 11.3133334,1.99999996 7.99999995,1.99999996 Z"/>
  </defs>
  <g fill="none" fill-rule="evenodd">
    <mask id="settings-backup-restore-b" fill="#fff">
      <use xlink:href="#settings-backup-restore-a"/>
    </mask>
    <g fill="CurrentColor" mask="url(#settings-backup-restore-b)">
      <rect width="16" height="16"/>
    </g>
  </g>
</svg>
