<?xml version="1.0" encoding="UTF-8"?>
<svg width="16px" height="16px" viewBox="0 0 16 16" version="1.1" xmlns="http://www.w3.org/2000/svg" xmlns:xlink="http://www.w3.org/1999/xlink">
    <title>Icons/Action/shop-two</title>
    <defs>
        <path d="M1.99999996,5.99999999 L0.666666621,5.99999999 L0.666666621,13.3333334 C0.666666621,14.0733334 1.25999996,14.6666667 1.99999996,14.6666667 L11.3333334,14.6666667 C12.0733334,14.6666667 12.6666666,14.0733334 12.6666666,13.3333334 L1.99999996,13.3333334 L1.99999996,5.99999999 Z M12,3.3333333 L12,1.99999996 C12,1.25999996 11.4066667,0.666666621 10.6666667,0.666666621 L8,0.666666621 C7.26,0.666666621 6.66666666,1.25999996 6.66666666,1.99999996 L6.66666666,3.3333333 L3.3333333,3.3333333 L3.3333333,10.6666666 C3.3333333,11.4066667 3.92666664,12 4.66666665,12 L14,12 C14.74,12 15.3333333,11.4066667 15.3333333,10.6666666 L15.3333333,3.3333333 L12,3.3333333 Z M8,1.99999996 L10.6666667,1.99999996 L10.6666667,3.3333333 L8,3.3333333 L8,1.99999996 Z M8,10 L8,5.33333332 L11.6666667,7.33333332 L8,10 Z" id="path-1"></path>
    </defs>
    <g id="Icons/Action/shop-two" stroke="none" stroke-width="1" fill="none" fill-rule="evenodd">
        <mask id="mask-2" fill="white">
            <use xlink:href="#path-1"></use>
        </mask>
        <use id="Icons/Action/ic_shop_two_24px" fill="#233745" fill-rule="nonzero" xlink:href="#path-1"></use>
    </g>
</svg>