<?xml version="1.0" encoding="UTF-8"?>
<svg width="16px" height="16px" viewBox="0 0 16 16" version="1.1" xmlns="http://www.w3.org/2000/svg" xmlns:xlink="http://www.w3.org/1999/xlink">
    <title>Icons/Action/shopping-basket</title>
    <g id="Icons/Action/shopping-basket" stroke="none" stroke-width="1" fill="none" fill-rule="evenodd">
        <rect id="Spacer" fill-opacity="0" fill="#D8D8D8" x="0" y="0" width="16" height="16"></rect>
        <path d="M11.4733334,5.99999999 L8.55333334,1.62666663 C8.42666667,1.43999996 8.21333333,1.34666663 8,1.34666663 C7.78666667,1.34666663 7.57333333,1.43999996 7.44666666,1.63333329 L4.52666664,5.99999999 L1.33333329,5.99999999 C0.966666623,5.99999999 0.666666621,6.29999999 0.666666621,6.66666666 C0.666666621,6.72666666 0.673333288,6.78666666 0.693333288,6.84666663 L2.38666663,13.0266667 C2.53999997,13.5866667 3.0533333,14 3.66666662,14 L12.3333334,14 C12.9466667,14 13.46,13.5866667 13.62,13.0266667 L15.3133334,6.84666663 L15.3333334,6.66666666 C15.3333334,6.29999999 15.0333334,5.99999999 14.6666666,5.99999999 L11.4733334,5.99999999 Z M5.99999999,5.99999999 L7.99999999,3.06666664 L9.99999999,5.99999999 L5.99999999,5.99999999 Z M8,11.3333334 C7.26666666,11.3333334 6.66666666,10.7333334 6.66666666,10 C6.66666666,9.26666667 7.26666666,8.66666667 8,8.66666667 C8.73333334,8.66666667 9.33333334,9.26666667 9.33333334,10 C9.33333334,10.7333334 8.73333334,11.3333334 8,11.3333334 Z" id="Icons/Action/ic_shopping_basket_24px" fill="#233745" fill-rule="nonzero"></path>
    </g>
</svg>