<?xml version="1.0" encoding="UTF-8"?>
<svg width="16px" height="16px" viewBox="0 0 16 16" version="1.1" xmlns="http://www.w3.org/2000/svg" xmlns:xlink="http://www.w3.org/1999/xlink">
    <title>Icons/Action/shopping-cart</title>
    <defs>
        <path d="M4.66666665,12 C3.93333331,12 3.33999997,12.6 3.33999997,13.3333334 C3.33999997,14.0666667 3.93333331,14.6666667 4.66666665,14.6666667 C5.39999998,14.6666667 5.99999999,14.0666667 5.99999999,13.3333334 C5.99999999,12.6 5.39999998,12 4.66666665,12 Z M0.666666621,1.33333329 L0.666666621,2.66666663 L1.99999996,2.66666663 L4.39999998,7.72666666 L3.49999997,9.36000001 C3.3933333,9.54666668 3.3333333,9.76666668 3.3333333,10 C3.3333333,10.7333334 3.93333331,11.3333333 4.66666662,11.3333333 L12.6666666,11.3333333 L12.6666666,10 L4.94666665,10 C4.85333331,10 4.77999998,9.92666668 4.77999998,9.83333329 L4.79999998,9.75333334 L5.39999998,8.66666667 L10.3666667,8.66666667 C10.8666667,8.66666667 11.3066667,8.39333334 11.5333334,7.98 L13.92,3.65333331 C13.9733334,3.55999997 14,3.44666664 14,3.33333329 C14,2.96666664 13.7,2.66666663 13.3333334,2.66666663 L3.47333331,2.66666663 L2.84666663,1.33333329 L0.666666621,1.33333329 Z M11.3333334,12 C10.6,12 10.0066667,12.6 10.0066667,13.3333334 C10.0066667,14.0666667 10.6,14.6666667 11.3333334,14.6666667 C12.0666667,14.6666667 12.6666667,14.0666667 12.6666667,13.3333334 C12.6666667,12.6 12.0666667,12 11.3333334,12 Z" id="path-1"></path>
    </defs>
    <g id="Icons/Action/shopping-cart" stroke="none" stroke-width="1" fill="none" fill-rule="evenodd">
        <mask id="mask-2" fill="white">
            <use xlink:href="#path-1"></use>
        </mask>
        <use id="Icons/Action/ic_shopping_cart_24px" fill="#233745" fill-rule="nonzero" xlink:href="#path-1"></use>
    </g>
</svg>