<?xml version="1.0" encoding="UTF-8"?>
<svg width="16px" height="16px" viewBox="0 0 16 16" version="1.1" xmlns="http://www.w3.org/2000/svg" xmlns:xlink="http://www.w3.org/1999/xlink">
    <title>Icons/Action/speaker-notes-off</title>
    <g id="Icons/Action/speaker-notes-off" stroke="none" stroke-width="1" fill="none" fill-rule="evenodd">
        <rect id="Spacer" fill-opacity="0" fill="#D8D8D8" x="0" y="0" width="16" height="16"></rect>
        <path d="M7.02666666,7.33333333 L6.66666666,6.97333333 L5.02666665,5.33333332 L3.99999995,4.30666664 L1.58666663,1.8933333 L0.846666622,1.15333329 L-5.00000006e-08,1.99999996 L1.33999996,3.33999997 L1.33333329,14.6666667 L3.99999995,12 L9.99999995,12 L13.82,15.82 L14.6666667,14.9733334 L11.6933334,12 L7.02666666,7.33333333 Z M5.33333332,9.33333334 L3.99999997,9.33333334 L3.99999997,8 L5.33333332,8 L5.33333332,9.33333334 Z M3.99999997,7.33333333 L3.99999997,5.99999999 L5.33333332,7.33333333 L3.99999997,7.33333333 Z M13.3333334,1.33333329 L2.71999997,1.33333329 L6.66666666,5.27999998 L6.66666666,3.99999997 L12,3.99999997 L12,5.33333329 L6.71999997,5.33333329 L7.38666666,5.99999999 L12,5.99999999 L12,7.33333329 L8.71999997,7.33333329 L13.38,11.9933334 C14.0933334,11.9666667 14.6666667,11.3866667 14.6666667,10.6666667 L14.6666667,2.66666663 C14.6666667,1.9333333 14.0666667,1.33333329 13.3333334,1.33333329 Z" id="Icons/Action/ic_speaker_notes_off_24px" fill="#233745" fill-rule="nonzero"></path>
    </g>
</svg>