<svg xmlns="http://www.w3.org/2000/svg" xmlns:xlink="http://www.w3.org/1999/xlink" width="16" height="16" viewBox="0 0 16 16">
  <defs>
    <path id="speaker-notes-a" d="M13.3333333,1.33333329 L2.66666663,1.33333329 C1.9333333,1.33333329 1.33999996,1.9333333 1.33999996,2.66666663 L1.33333329,14.6666667 L3.99999997,12 L13.3333333,12 C14.0666667,12 14.6666667,11.4 14.6666667,10.6666667 L14.6666667,2.66666663 C14.6666667,1.9333333 14.0666667,1.33333329 13.3333333,1.33333329 Z M5.33333332,9.33333334 L3.99999997,9.33333334 L3.99999997,8 L5.33333332,8 L5.33333332,9.33333334 Z M5.33333332,7.33333333 L3.99999997,7.33333333 L3.99999997,5.99999999 L5.33333332,5.99999999 L5.33333332,7.33333333 Z M5.33333332,5.33333332 L3.99999997,5.33333332 L3.99999997,3.99999997 L5.33333332,3.99999997 L5.33333332,5.33333332 Z M10,9.33333334 L6.66666666,9.33333334 L6.66666666,8 L10,8 L10,9.33333334 Z M12,7.33333333 L6.66666666,7.33333333 L6.66666666,5.99999999 L12,5.99999999 L12,7.33333333 Z M12,5.33333332 L6.66666666,5.33333332 L6.66666666,3.99999997 L12,3.99999997 L12,5.33333332 Z"/>
  </defs>
  <g fill="none" fill-rule="evenodd">
    <mask id="speaker-notes-b" fill="#fff">
      <use xlink:href="#speaker-notes-a"/>
    </mask>
    <g fill="CurrentColor" mask="url(#speaker-notes-b)">
      <rect width="16" height="16"/>
    </g>
  </g>
</svg>
