<?xml version="1.0" encoding="UTF-8"?>
<svg width="16px" height="16px" viewBox="0 0 16 16" version="1.1" xmlns="http://www.w3.org/2000/svg" xmlns:xlink="http://www.w3.org/1999/xlink">
    <title>Icons/Action/system-update-alt</title>
    <defs>
        <path d="M8,11 L10.6666667,8.3333333 L8.66666667,8.3333333 L8.66666667,2.3333333 L7.33333332,2.3333333 L7.33333332,8.3333333 L5.33333332,8.3333333 L8,11 Z M14,2.3333333 L10,2.3333333 L10,3.65999997 L14,3.65999997 L14,13.0133334 L1.99999996,13.0133334 L1.99999996,3.65999997 L5.99999999,3.65999997 L5.99999999,2.3333333 L1.99999996,2.3333333 C1.26666662,2.3333333 0.666666621,2.9333333 0.666666621,3.66666664 L0.666666621,13 C0.666666621,13.7333334 1.26666662,14.3333333 1.99999996,14.3333333 L14,14.3333333 C14.7333334,14.3333333 15.3333334,13.7333334 15.3333334,13 L15.3333334,3.66666664 C15.3333334,2.9333333 14.7333334,2.3333333 14,2.3333333 Z" id="path-1"></path>
    </defs>
    <g id="Icons/Action/system-update-alt" stroke="none" stroke-width="1" fill="none" fill-rule="evenodd">
        <mask id="mask-2" fill="white">
            <use xlink:href="#path-1"></use>
        </mask>
        <use id="Icons/Action/ic_system_update_alt_24px" fill="#233745" fill-rule="nonzero" xlink:href="#path-1"></use>
    </g>
</svg>