<?xml version="1.0" encoding="UTF-8"?>
<svg width="16px" height="16px" viewBox="0 0 16 16" version="1.1" xmlns="http://www.w3.org/2000/svg" xmlns:xlink="http://www.w3.org/1999/xlink">
    <title>Icons/Action/tab-unselected</title>
    <g id="Icons/Action/tab-unselected" stroke="none" stroke-width="1" fill="none" fill-rule="evenodd">
        <rect id="Spacer" fill-opacity="0" fill="#D8D8D8" x="0" y="0" width="16" height="16"></rect>
        <path d="M0.666666621,5.99999999 L1.99999996,5.99999999 L1.99999996,4.66666665 L0.666666621,4.66666665 L0.666666621,5.99999999 Z M0.666666621,8.66666667 L1.99999996,8.66666667 L1.99999996,7.33333333 L0.666666621,7.33333333 L0.666666621,8.66666667 Z M0.666666621,3.3333333 L1.99999996,3.3333333 L1.99999996,1.99999996 C1.26666662,1.99999996 0.666666621,2.59999997 0.666666621,3.3333333 Z M5.99999999,14 L7.33333333,14 L7.33333333,12.6666667 L5.99999999,12.6666667 L5.99999999,14 Z M0.666666621,11.3333334 L1.99999996,11.3333334 L1.99999996,10 L0.666666621,10 L0.666666621,11.3333334 Z M1.99999996,14 L1.99999996,12.6666667 L0.666666621,12.6666667 C0.666666621,13.4 1.26666662,14 1.99999996,14 Z M14,1.99999996 L8.66666667,1.99999996 L8.66666667,5.99999996 L15.3333334,5.99999996 L15.3333334,3.3333333 C15.3333334,2.59999997 14.7333334,1.99999996 14,1.99999996 Z M14,11.3333334 L15.3333334,11.3333334 L15.3333334,10 L14,10 L14,11.3333334 Z M5.99999999,3.3333333 L7.33333333,3.3333333 L7.33333333,1.99999996 L5.99999999,1.99999996 L5.99999999,3.3333333 Z M3.3333333,14 L4.66666665,14 L4.66666665,12.6666667 L3.3333333,12.6666667 L3.3333333,14 Z M3.3333333,3.3333333 L4.66666665,3.3333333 L4.66666665,1.99999996 L3.3333333,1.99999996 L3.3333333,3.3333333 Z M14,14 C14.7333334,14 15.3333334,13.4 15.3333334,12.6666667 L14,12.6666667 L14,14 Z M14,8.66666667 L15.3333334,8.66666667 L15.3333334,7.33333333 L14,7.33333333 L14,8.66666667 Z M8.66666667,14 L10,14 L10,12.6666667 L8.66666667,12.6666667 L8.66666667,14 Z M11.3333334,14 L12.6666667,14 L12.6666667,12.6666667 L11.3333334,12.6666667 L11.3333334,14 Z" id="Icons/Action/ic_tab_unselected_24px" fill="#233745" fill-rule="nonzero"></path>
    </g>
</svg>