<?xml version="1.0" encoding="UTF-8"?>
<svg width="16px" height="16px" viewBox="0 0 16 16" version="1.1" xmlns="http://www.w3.org/2000/svg" xmlns:xlink="http://www.w3.org/1999/xlink">
    <title>Icons/Action/thumbs-up-down</title>
    <defs>
        <path d="M7.99999995,3.99999995 C7.99999995,3.63333331 7.7,3.3333333 7.33333333,3.3333333 L3.87999997,3.3333333 L4.31999998,1.21333329 L4.33333331,1.05999996 C4.33333331,0.853333289 4.24666664,0.666666621 4.11333331,0.52666662 L3.58666664,-5.00000006e-08 L0.293333285,3.2933333 C0.113333284,3.47333331 -5.00000006e-08,3.72666664 -5.00000006e-08,3.99999995 L-5.00000006e-08,8.33333334 C-5.00000006e-08,8.88666667 0.446666619,9.33333334 0.99999995,9.33333334 L5.49999995,9.33333334 C5.91333332,9.33333334 6.26666666,9.08000001 6.41999999,8.72666667 L7.92666667,5.19999998 C7.97333333,5.08666665 7.99999995,4.95999998 7.99999995,4.83333331 L7.99999995,3.99999995 Z M15,6.66666666 L10.5,6.66666666 C10.0866667,6.66666666 9.73333334,6.91999999 9.58000001,7.27333333 L8.07333333,10.8 C8.02666667,10.9133334 8,11.04 8,11.1666667 L8,12 C8,12.3666667 8.3,12.6666667 8.66666667,12.6666667 L12.12,12.6666667 L11.68,14.7866667 L11.6666667,14.9466667 C11.6666667,15.1533334 11.7533334,15.34 11.8866667,15.48 L12.4133334,16.0000001 L15.7066667,12.7066667 C15.8866667,12.5266667 16,12.2733334 16,12 L16,7.66666666 C16,7.11333333 15.5533334,6.66666666 15,6.66666666 Z" id="path-1"></path>
    </defs>
    <g id="Icons/Action/thumbs-up-down" stroke="none" stroke-width="1" fill="none" fill-rule="evenodd">
        <mask id="mask-2" fill="white">
            <use xlink:href="#path-1"></use>
        </mask>
        <use id="Icons/Action/ic_thumbs_up_down_24px" fill="#233745" fill-rule="nonzero" xlink:href="#path-1"></use>
    </g>
</svg>