<?xml version="1.0" encoding="UTF-8"?>
<svg width="16px" height="16px" viewBox="0 0 16 16" version="1.1" xmlns="http://www.w3.org/2000/svg" xmlns:xlink="http://www.w3.org/1999/xlink">
    <title>Icons/Action/thumb-down</title>
    <defs>
        <path d="M10,1.99999996 L3.99999997,1.99999996 C3.44666664,1.99999996 2.9733333,2.3333333 2.7733333,2.8133333 L0.759999955,7.51333333 C0.699999954,7.66666666 0.666666621,7.82666667 0.666666621,7.99999996 L0.666666621,9.27333334 L0.673333288,9.28000001 L0.666666621,9.33333334 C0.666666621,10.0666667 1.26666662,10.6666667 1.99999996,10.6666667 L6.20666666,10.6666667 L5.57333332,13.7133334 L5.55333332,13.9266667 C5.55333332,14.2 5.66666662,14.4533334 5.84666665,14.6333334 L6.55333332,15.3333334 L10.9466667,10.94 C11.1866667,10.7 11.3333334,10.3666667 11.3333334,9.99999996 L11.3333334,3.3333333 C11.3333334,2.59999997 10.7333334,1.99999996 10,1.99999996 Z M12.6666667,1.99999996 L12.6666667,9.99999996 L15.3333334,9.99999996 L15.3333334,1.99999996 L12.6666667,1.99999996 Z" id="path-1"></path>
    </defs>
    <g id="Icons/Action/thumb-down" stroke="none" stroke-width="1" fill="none" fill-rule="evenodd">
        <mask id="mask-2" fill="white">
            <use xlink:href="#path-1"></use>
        </mask>
        <use id="Icons/Action/ic_thumb_down_24px" fill="#233745" fill-rule="nonzero" xlink:href="#path-1"></use>
    </g>
</svg>