<svg xmlns="http://www.w3.org/2000/svg" xmlns:xlink="http://www.w3.org/1999/xlink" width="16" height="16" viewBox="0 0 16 16">
  <defs>
    <path id="thumb-up-a" d="M0.666666621,14 L3.3333333,14 L3.3333333,5.99999999 L0.666666621,5.99999999 L0.666666621,14 Z M15.3333334,6.66666662 C15.3333334,5.93333332 14.7333334,5.33333332 14,5.33333332 L9.79333334,5.33333332 L10.4266667,2.28666663 L10.4466667,2.0733333 C10.4466667,1.79999996 10.3333333,1.54666663 10.1533333,1.36666663 L9.44666668,0.666666621 L5.05999998,5.05999998 C4.81333331,5.29999998 4.66666665,5.63333332 4.66666665,5.99999999 L4.66666665,12.6666666 C4.66666665,13.4 5.26666665,14 5.99999999,14 L12,14 C12.5533334,14 13.0266667,13.6666666 13.2266667,13.1866667 L15.24,8.48666667 C15.3,8.33333334 15.3333334,8.17333333 15.3333334,8 L15.3333334,6.72666666 L15.3266667,6.71999999 L15.3333334,6.66666662 Z"/>
  </defs>
  <g fill="none" fill-rule="evenodd">
    <mask id="thumb-up-b" fill="#fff">
      <use xlink:href="#thumb-up-a"/>
    </mask>
    <g fill="CurrentColor" mask="url(#thumb-up-b)">
      <rect width="16" height="16"/>
    </g>
  </g>
</svg>
