<?xml version="1.0" encoding="UTF-8"?>
<svg width="16px" height="16px" viewBox="0 0 16 16" version="1.1" xmlns="http://www.w3.org/2000/svg" xmlns:xlink="http://www.w3.org/1999/xlink">
    <title>Icons/Action/timeline</title>
    <defs>
        <path d="M15.3333334,5.33333332 C15.3333334,6.06666665 14.7333334,6.66666666 14,6.66666666 C13.88,6.66666666 13.7666667,6.65333332 13.66,6.61999999 L11.2866667,8.98666667 C11.32,9.09333334 11.3333334,9.21333334 11.3333334,9.33333334 C11.3333334,10.0666667 10.7333334,10.6666667 10,10.6666667 C9.26666667,10.6666667 8.66666662,10.0666667 8.66666662,9.33333334 C8.66666662,9.21333334 8.68,9.09333334 8.71333334,8.98666667 L7.01333333,7.28666666 C6.90666666,7.32 6.78666666,7.33333333 6.66666662,7.33333333 C6.54666666,7.33333333 6.42666666,7.32 6.31999999,7.28666666 L3.28666664,10.3266667 C3.31999997,10.4333333 3.3333333,10.5466667 3.3333333,10.6666667 C3.3333333,11.4 2.7333333,12 1.99999996,12 C1.26666662,12 0.666666621,11.4 0.666666621,10.6666667 C0.666666621,9.93333335 1.26666662,9.33333334 1.99999996,9.33333334 C2.11999996,9.33333334 2.2333333,9.34666668 2.33999996,9.38000001 L5.37999998,6.34666666 C5.34666665,6.23999999 5.33333332,6.11999999 5.33333332,5.99999997 C5.33333332,5.26666665 5.93333332,4.66666665 6.66666662,4.66666665 C7.4,4.66666665 8,5.26666665 8,5.99999997 C8,6.11999999 7.98666667,6.23999999 7.95333333,6.34666666 L9.65333334,8.04666667 C9.76000001,8.01333333 9.88000001,7.99999997 10,7.99999997 C10.12,7.99999997 10.24,8.01333333 10.3466667,8.04666667 L12.7133334,5.67333332 C12.68,5.56666665 12.6666666,5.45333332 12.6666666,5.33333332 C12.6666666,4.59999998 13.2666667,3.99999998 14,3.99999998 C14.7333334,3.99999998 15.3333334,4.59999998 15.3333334,5.33333332 Z" id="path-1"></path>
    </defs>
    <g id="Icons/Action/timeline" stroke="none" stroke-width="1" fill="none" fill-rule="evenodd">
        <mask id="mask-2" fill="white">
            <use xlink:href="#path-1"></use>
        </mask>
        <use id="Icons/Action/ic_timeline_24px" fill="#233745" fill-rule="nonzero" xlink:href="#path-1"></use>
    </g>
</svg>