<?xml version="1.0" encoding="UTF-8"?>
<svg width="16px" height="16px" viewBox="0 0 16 16" version="1.1" xmlns="http://www.w3.org/2000/svg" xmlns:xlink="http://www.w3.org/1999/xlink">
    <title>Icons/Action/toc</title>
    <g id="Icons/Action/toc" stroke="none" stroke-width="1" fill="none" fill-rule="evenodd">
        <rect id="Spacer" fill-opacity="0" fill="#D8D8D8" x="0" y="0" width="16" height="16"></rect>
        <path d="M1.99999996,5.99999999 L11.3333334,5.99999999 L11.3333334,4.66666665 L1.99999996,4.66666665 L1.99999996,5.99999999 Z M1.99999996,8.66666667 L11.3333334,8.66666667 L11.3333334,7.33333333 L1.99999996,7.33333333 L1.99999996,8.66666667 Z M1.99999996,11.3333334 L11.3333334,11.3333334 L11.3333334,10 L1.99999996,10 L1.99999996,11.3333334 Z M12.6666667,11.3333334 L14,11.3333334 L14,10 L12.6666667,10 L12.6666667,11.3333334 Z M12.6666667,4.66666665 L12.6666667,5.99999999 L14,5.99999999 L14,4.66666665 L12.6666667,4.66666665 Z M12.6666667,8.66666667 L14,8.66666667 L14,7.33333333 L12.6666667,7.33333333 L12.6666667,8.66666667 Z" id="Icons/Action/ic_toc_24px" fill="#233745" fill-rule="nonzero"></path>
    </g>
</svg>