<?xml version="1.0" encoding="UTF-8"?>
<svg width="16px" height="16px" viewBox="0 0 16 16" version="1.1" xmlns="http://www.w3.org/2000/svg" xmlns:xlink="http://www.w3.org/1999/xlink">
    <title>Icons/Action/toll</title>
    <defs>
        <path d="M10,2.66666663 C7.05333333,2.66666663 4.66666665,5.05333331 4.66666665,8 C4.66666665,10.9466667 7.05333333,13.3333334 10,13.3333334 C12.9466667,13.3333334 15.3333334,10.9466667 15.3333334,8 C15.3333334,5.05333331 12.9466667,2.66666663 10,2.66666663 Z M9.99999999,12 C7.79333333,12 5.99999999,10.2066667 5.99999999,7.99999997 C5.99999999,5.79333332 7.79333333,3.99999998 9.99999999,3.99999998 C12.2066667,3.99999998 14,5.79333332 14,7.99999997 C14,10.2066667 12.2066667,12 9.99999999,12 Z M1.99999996,8 C1.99999996,6.25999999 3.1133333,4.77999998 4.66666662,4.23333331 L4.66666662,2.83999997 C2.36666663,3.4333333 0.666666621,5.51333332 0.666666621,8 C0.666666621,10.4866667 2.36666663,12.5666667 4.66666662,13.16 L4.66666662,11.7666667 C3.1133333,11.22 1.99999996,9.74000001 1.99999996,8 Z" id="path-1"></path>
    </defs>
    <g id="Icons/Action/toll" stroke="none" stroke-width="1" fill="none" fill-rule="evenodd">
        <mask id="mask-2" fill="white">
            <use xlink:href="#path-1"></use>
        </mask>
        <use id="Icons/Action/ic_toll_24px" fill="#233745" fill-rule="nonzero" xlink:href="#path-1"></use>
    </g>
</svg>