<?xml version="1.0" encoding="UTF-8"?>
<svg width="16px" height="16px" viewBox="0 0 16 16" version="1.1" xmlns="http://www.w3.org/2000/svg" xmlns:xlink="http://www.w3.org/1999/xlink">
    <title>Icons/Action/touch-app</title>
    <defs>
        <path d="M5.99999999,7.49333333 L5.99999999,4.99999996 C5.99999999,4.07999998 6.74666666,3.3333333 7.66666665,3.3333333 C8.58666667,3.3333333 9.33333334,4.07999998 9.33333334,4.99999996 L9.33333334,7.49333333 C10.14,6.95333333 10.6666666,6.03999999 10.6666666,4.99999996 C10.6666666,3.33999997 9.32666667,1.99999996 7.66666665,1.99999996 C6.00666665,1.99999996 4.66666665,3.33999997 4.66666665,4.99999996 C4.66666665,6.03999999 5.19333332,6.95333333 5.99999999,7.49333333 Z M12.56,10.58 L9.53333334,9.07333334 C9.42000001,9.02666667 9.30000001,8.99999998 9.17333334,8.99999998 L8.66666664,8.99999998 L8.66666664,4.99999998 C8.66666664,4.44666664 8.22,3.99999998 7.66666664,3.99999998 C7.11333333,3.99999998 6.66666664,4.44666664 6.66666664,4.99999998 L6.66666664,12.16 L4.37999998,11.68 C4.32666664,11.6733334 4.27999998,11.66 4.21999998,11.66 C4.01333331,11.66 3.82666664,11.7466667 3.69333331,11.88 L3.16666664,12.4133334 L6.45999999,15.7066667 C6.63999999,15.8866667 6.89333333,16 7.16666664,16 L11.6933334,16 C12.1933334,16 12.58,15.6333334 12.6533334,15.1466667 L13.1533334,11.6333334 C13.16,11.5866667 13.1666666,11.54 13.1666666,11.5 C13.1666666,11.0866667 12.9133334,10.7266667 12.56,10.58 L12.56,10.58 Z" id="path-1"></path>
    </defs>
    <g id="Icons/Action/touch-app" stroke="none" stroke-width="1" fill="none" fill-rule="evenodd">
        <mask id="mask-2" fill="white">
            <use xlink:href="#path-1"></use>
        </mask>
        <use id="Icons/Action/ic_touch_app_24px" fill="#233745" fill-rule="nonzero" xlink:href="#path-1"></use>
    </g>
</svg>