<?xml version="1.0" encoding="UTF-8"?>
<svg width="16px" height="16px" viewBox="0 0 16 16" version="1.1" xmlns="http://www.w3.org/2000/svg" xmlns:xlink="http://www.w3.org/1999/xlink">
    <title>Icons/Action/track-changes</title>
    <defs>
        <path d="M12.7133334,3.28666664 L11.7733334,4.22666664 C12.7333334,5.19333332 13.3333333,6.52666666 13.3333333,8 C13.3333333,10.9466667 10.9466667,13.3333333 8,13.3333333 C5.05333331,13.3333333 2.66666663,10.9466667 2.66666663,8 C2.66666663,5.27999998 4.69999998,3.03999997 7.33333329,2.7133333 L7.33333329,4.05999998 C5.43999998,4.37999998 3.99999998,6.01999999 3.99999998,8 C3.99999998,10.2066667 5.79333332,12 8,12 C10.2066667,12 12,10.2066667 12,8 C12,6.89333333 11.5533334,5.89333332 10.8266667,5.17333332 L9.88666668,6.11333332 C10.3666667,6.59999999 10.6666667,7.26666666 10.6666667,8 C10.6666667,9.47333334 9.47333334,10.6666667 8,10.6666667 C6.52666666,10.6666667 5.33333329,9.47333334 5.33333329,8 C5.33333329,6.75999999 6.18666666,5.72666665 7.33333329,5.42666665 L7.33333329,6.85333333 C6.93333333,7.08666666 6.66666666,7.50666666 6.66666666,8 C6.66666666,8.73333334 7.26666666,9.33333329 8,9.33333329 C8.73333334,9.33333329 9.33333329,8.73333334 9.33333329,8 C9.33333329,7.50666666 9.06666667,7.07999999 8.66666667,6.85333333 L8.66666667,1.33333329 L8,1.33333329 C4.31999998,1.33333329 1.33333329,4.31999998 1.33333329,8 C1.33333329,11.68 4.31999998,14.6666667 8,14.6666667 C11.68,14.6666667 14.6666667,11.68 14.6666667,8 C14.6666667,6.15999999 13.92,4.49333331 12.7133334,3.28666664 Z" id="path-1"></path>
    </defs>
    <g id="Icons/Action/track-changes" stroke="none" stroke-width="1" fill="none" fill-rule="evenodd">
        <mask id="mask-2" fill="white">
            <use xlink:href="#path-1"></use>
        </mask>
        <use id="Icons/Action/ic_track_changes_24px" fill="#233745" fill-rule="nonzero" xlink:href="#path-1"></use>
    </g>
</svg>