<svg xmlns="http://www.w3.org/2000/svg" xmlns:xlink="http://www.w3.org/1999/xlink" width="16" height="16" viewBox="0 0 16 16">
  <defs>
    <path id="translate-a" d="M8.58,10.0466667 L6.88666666,8.37333334 L6.90666666,8.35333334 C8.06666667,7.05999999 8.89333334,5.57333332 9.38000001,3.99999997 L11.3333334,3.99999997 L11.3333334,2.66666663 L6.66666662,2.66666663 L6.66666662,1.33333329 L5.33333332,1.33333329 L5.33333332,2.66666663 L0.666666621,2.66666663 L0.666666621,3.99333331 L8.11333333,3.99333331 C7.66666662,5.27999998 6.95999999,6.49999999 5.99999999,7.56666666 C5.37999998,6.87999999 4.86666665,6.12666665 4.45999998,5.33333329 L3.12666664,5.33333329 C3.61333331,6.41999999 4.27999998,7.44666666 5.11333332,8.37333334 L1.71999996,11.72 L2.66666662,12.6666667 L5.99999999,9.33333329 L8.07333333,11.4066667 L8.58,10.0466667 Z M12.3333334,6.66666666 L11,6.66666666 L8,14.6666667 L9.33333334,14.6666667 L10.08,12.6666667 L13.2466667,12.6666667 L14,14.6666667 L15.3333334,14.6666667 L12.3333334,6.66666666 Z M10.5866667,11.3333334 L11.6666667,8.44666667 L12.7466667,11.3333334 L10.5866667,11.3333334 L10.5866667,11.3333334 Z"/>
  </defs>
  <g fill="none" fill-rule="evenodd">
    <mask id="translate-b" fill="#fff">
      <use xlink:href="#translate-a"/>
    </mask>
    <g fill="CurrentColor" mask="url(#translate-b)">
      <rect width="16" height="16"/>
    </g>
  </g>
</svg>
