<?xml version="1.0" encoding="UTF-8"?>
<svg width="16px" height="16px" viewBox="0 0 16 16" version="1.1" xmlns="http://www.w3.org/2000/svg" xmlns:xlink="http://www.w3.org/1999/xlink">
    <title>Icons/Action/update</title>
    <g id="Icons/Action/update" stroke="none" stroke-width="1" fill="none" fill-rule="evenodd">
        <rect id="Spacer" fill-opacity="0" fill="#D8D8D8" x="0" y="0" width="16" height="16"></rect>
        <path d="M14,6.74666666 L9.48000001,6.74666666 L11.3066667,4.86666665 C9.48666668,3.06666664 6.53999999,2.99999996 4.71999998,4.79999998 C2.89999997,6.60666666 2.89999997,9.52000001 4.71999998,11.3266667 C6.53999999,13.1333334 9.48666668,13.1333334 11.3066667,11.3266667 C12.2133334,10.4333333 12.6666667,9.38666668 12.6666667,8.06666667 L14,8.06666667 C14,9.38666668 13.4133334,11.1 12.24,12.26 C9.90000001,14.58 6.09999999,14.58 3.75999997,12.26 C1.42666663,9.94666668 1.40666663,6.18666666 3.74666664,3.87333331 C6.08666665,1.55999996 9.84000001,1.55999996 12.18,3.87333331 L14,1.99999996 L14,6.74666666 Z M8.33333333,5.33333332 L8.33333333,8.16666667 L10.6666667,9.55333334 L10.1866667,10.36 L7.33333333,8.66666667 L7.33333333,5.33333332 L8.33333333,5.33333332 Z" id="Icons/Action/ic_update_24px" fill="#233745" fill-rule="nonzero"></path>
    </g>
</svg>