<?xml version="1.0" encoding="UTF-8"?>
<svg width="16px" height="16px" viewBox="0 0 16 16" version="1.1" xmlns="http://www.w3.org/2000/svg" xmlns:xlink="http://www.w3.org/1999/xlink">
    <title>Icons/Action/view-list</title>
    <defs>
        <path d="M2.66666663,9.33333334 L5.33333332,9.33333334 L5.33333332,6.66666666 L2.66666663,6.66666666 L2.66666663,9.33333334 Z M2.66666663,12.6666667 L5.33333332,12.6666667 L5.33333332,10 L2.66666663,10 L2.66666663,12.6666667 Z M2.66666663,5.99999999 L5.33333332,5.99999999 L5.33333332,3.3333333 L2.66666663,3.3333333 L2.66666663,5.99999999 Z M5.99999999,9.33333334 L14,9.33333334 L14,6.66666666 L5.99999999,6.66666666 L5.99999999,9.33333334 Z M5.99999999,12.6666667 L14,12.6666667 L14,10 L5.99999999,10 L5.99999999,12.6666667 Z M5.99999999,3.3333333 L5.99999999,5.99999999 L14,5.99999999 L14,3.3333333 L5.99999999,3.3333333 Z" id="path-1"></path>
    </defs>
    <g id="Icons/Action/view-list" stroke="none" stroke-width="1" fill="none" fill-rule="evenodd">
        <mask id="mask-2" fill="white">
            <use xlink:href="#path-1"></use>
        </mask>
        <use id="Icons/Action/ic_view_list_24px" fill="#233745" fill-rule="nonzero" xlink:href="#path-1"></use>
    </g>
</svg>