<?xml version="1.0" encoding="UTF-8"?>
<svg width="16px" height="16px" viewBox="0 0 16 16" version="1.1" xmlns="http://www.w3.org/2000/svg" xmlns:xlink="http://www.w3.org/1999/xlink">
    <title>Icons/Action/view-week</title>
    <defs>
        <path d="M3.99999998,3.3333333 L1.99999996,3.3333333 C1.63333329,3.3333333 1.33333329,3.63333331 1.33333329,3.99999997 L1.33333329,12 C1.33333329,12.3666667 1.63333329,12.6666667 1.99999996,12.6666667 L3.99999998,12.6666667 C4.36666664,12.6666667 4.66666665,12.3666667 4.66666665,12 L4.66666665,3.99999997 C4.66666665,3.63333331 4.36666664,3.3333333 3.99999998,3.3333333 Z M13.3333334,3.3333333 L11.3333334,3.3333333 C10.9666667,3.3333333 10.6666667,3.63333331 10.6666667,3.99999997 L10.6666667,12 C10.6666667,12.3666667 10.9666667,12.6666667 11.3333334,12.6666667 L13.3333334,12.6666667 C13.7,12.6666667 14,12.3666667 14,12 L14,3.99999997 C14,3.63333331 13.7,3.3333333 13.3333334,3.3333333 Z M8.66666667,3.3333333 L6.66666666,3.3333333 C6.29999999,3.3333333 5.99999999,3.63333331 5.99999999,3.99999997 L5.99999999,12 C5.99999999,12.3666667 6.29999999,12.6666667 6.66666666,12.6666667 L8.66666667,12.6666667 C9.03333334,12.6666667 9.33333334,12.3666667 9.33333334,12 L9.33333334,3.99999997 C9.33333334,3.63333331 9.03333334,3.3333333 8.66666667,3.3333333 Z" id="path-1"></path>
    </defs>
    <g id="Icons/Action/view-week" stroke="none" stroke-width="1" fill="none" fill-rule="evenodd">
        <mask id="mask-2" fill="white">
            <use xlink:href="#path-1"></use>
        </mask>
        <use id="Icons/Action/ic_view_week_24px" fill="#233745" fill-rule="nonzero" xlink:href="#path-1"></use>
    </g>
</svg>