<?xml version="1.0" encoding="UTF-8"?>
<svg width="16px" height="16px" viewBox="0 0 16 16" version="1.1" xmlns="http://www.w3.org/2000/svg" xmlns:xlink="http://www.w3.org/1999/xlink">
    <title>Icons/Action/view-agenda</title>
    <g id="Icons/Action/view-agenda" stroke="none" stroke-width="1" fill="none" fill-rule="evenodd">
        <rect id="Spacer" fill-opacity="0" fill="#D8D8D8" x="0" y="0" width="16" height="16"></rect>
        <path d="M13.5,8.66666667 L2.16666667,8.66666667 C1.8,8.66666667 1.5,8.96666667 1.5,9.33333334 L1.5,13.3333334 C1.5,13.7 1.8,14 2.16666667,14 L13.5,14 C13.8666667,14 14.1666667,13.7 14.1666667,13.3333334 L14.1666667,9.33333334 C14.1666667,8.96666667 13.8666667,8.66666667 13.5,8.66666667 Z M13.5,1.99999996 L2.16666667,1.99999996 C1.8,1.99999996 1.5,2.29999996 1.5,2.66666663 L1.5,6.66666666 C1.5,7.03333333 1.8,7.33333333 2.16666667,7.33333333 L13.5,7.33333333 C13.8666667,7.33333333 14.1666667,7.03333333 14.1666667,6.66666666 L14.1666667,2.66666663 C14.1666667,2.29999996 13.8666667,1.99999996 13.5,1.99999996 Z" id="Icons/Action/ic_view_agenda_24px" fill="#233745" fill-rule="nonzero"></path>
    </g>
</svg>