<?xml version="1.0" encoding="UTF-8"?>
<svg width="16px" height="16px" viewBox="0 0 16 16" version="1.1" xmlns="http://www.w3.org/2000/svg" xmlns:xlink="http://www.w3.org/1999/xlink">
    <title>Icons/Action/work</title>
    <defs>
        <path d="M13.3333333,3.99999998 L10.6666667,3.99999998 L10.6666667,2.66666663 C10.6666667,1.92666663 10.0733333,1.33333329 9.33333329,1.33333329 L6.66666666,1.33333329 C5.92666665,1.33333329 5.33333329,1.92666663 5.33333329,2.66666663 L5.33333329,3.99999998 L2.66666663,3.99999998 C1.92666663,3.99999998 1.33999996,4.59333331 1.33999996,5.33333329 L1.33333329,12.6666667 C1.33333329,13.4066667 1.92666663,14 2.66666663,14 L13.3333333,14 C14.0733334,14 14.6666667,13.4066667 14.6666667,12.6666667 L14.6666667,5.33333329 C14.6666667,4.59333331 14.0733334,3.99999998 13.3333333,3.99999998 Z M9.33333334,3.99999998 L6.66666666,3.99999998 L6.66666666,2.66666663 L9.33333334,2.66666663 L9.33333334,3.99999998 Z" id="path-1"></path>
    </defs>
    <g id="Icons/Action/work" stroke="none" stroke-width="1" fill="none" fill-rule="evenodd">
        <mask id="mask-2" fill="white">
            <use xlink:href="#path-1"></use>
        </mask>
        <use id="Icons/Action/ic_work_24px" fill="#233745" fill-rule="nonzero" xlink:href="#path-1"></use>
    </g>
</svg>