<?xml version="1.0" encoding="UTF-8"?>
<svg width="16px" height="16px" viewBox="0 0 16 16" version="1.1" xmlns="http://www.w3.org/2000/svg" xmlns:xlink="http://www.w3.org/1999/xlink">
    <title>Icons/Action/zoom-out</title>
    <defs>
        <path d="M10.7627216,9.59119498 L10.1457176,9.59119498 L9.9270326,9.38032019 C10.69243,8.48995998 11.1532304,7.33405374 11.1532304,6.0766152 C11.1532304,3.27276155 8.88046884,0.999999963 6.0766152,0.999999963 C3.27276155,0.999999963 0.999999963,3.27276155 0.999999963,6.0766152 C0.999999963,8.88046884 3.27276155,11.1532304 6.0766152,11.1532304 C7.33405374,11.1532304 8.48995998,10.69243 9.38032019,9.9270326 L9.59119498,10.1457176 L9.59119498,10.7627216 L13.4962836,14.66 L14.66,13.4962836 L10.7627216,9.59119498 Z M6.0766152,9.59119498 C4.13188105,9.59119498 2.56203542,8.02134934 2.56203542,6.0766152 C2.56203542,4.13188105 4.13188105,2.56203542 6.0766152,2.56203542 C8.02134934,2.56203542 9.59119498,4.13188105 9.59119498,6.0766152 C9.59119498,8.02134934 8.02134934,9.59119498 6.0766152,9.59119498 Z M4.12407088,5.68610633 L8.02915952,5.68610633 L8.02915952,6.46712406 L4.12407088,6.46712406 L4.12407088,5.68610633 Z" id="path-1"></path>
    </defs>
    <g id="Icons/Action/zoom-out" stroke="none" stroke-width="1" fill="none" fill-rule="evenodd">
        <mask id="mask-2" fill="white">
            <use xlink:href="#path-1"></use>
        </mask>
        <use id="Icons/Action/ic_zoom_out_24px" fill="#233745" fill-rule="nonzero" xlink:href="#path-1"></use>
    </g>
</svg>