<?xml version="1.0" encoding="UTF-8"?>
<svg width="14px" height="20px" viewBox="0 0 14 20" version="1.1" xmlns="http://www.w3.org/2000/svg" xmlns:xlink="http://www.w3.org/1999/xlink">
    <title>table/sort-ascending.svg</title>
    <g id="Page-1" stroke="none" stroke-width="1" fill="none" fill-rule="evenodd">
        <g id="table/sort-ascending.svg">
            <g id="Group-3">
                <path d="M5.96258594,0.429710972 C6.53553391,-0.143236991 7.46446609,-0.143236991 8.03741406,0.429710972 L13.570289,5.96258594 C14.143237,6.53553391 14.143237,7.46446609 13.570289,8.03741406 C12.9973411,8.61036202 12.0684089,8.61036202 11.4954609,8.03741406 L7,3.54195314 L2.50453909,8.03741406 C1.93159112,8.61036202 1.00265894,8.61036202 0.429710972,8.03741406 C-0.143236991,7.46446609 -0.143236991,6.53553391 0.429710972,5.96258594 L5.96258594,0.429710972 Z" id="Path" fill="#748999"></path>
                <path d="M8.03741406,18.6942683 C7.46446609,19.2672163 6.53553391,19.2672163 5.96258594,18.6942683 L0.429710972,13.1613933 C-0.143236991,12.5884454 -0.143236991,11.6595132 0.429710972,11.0865652 C1.00265894,10.5136173 1.93159112,10.5136173 2.50453909,11.0865652 L7,15.5820261 L11.4954609,11.0865652 C12.0684089,10.5136173 12.9973411,10.5136173 13.570289,11.0865652 C14.143237,11.6595132 14.143237,12.5884454 13.570289,13.1613933 L8.03741406,18.6942683 Z" id="Path" fill="#0C1720"></path>
            </g>
        </g>
    </g>
</svg>