<?xml version="1.0" encoding="UTF-8"?>
<svg width="200px" height="74px" viewBox="0 0 200 74" version="1.1" xmlns="http://www.w3.org/2000/svg" xmlns:xlink="http://www.w3.org/1999/xlink">
    <title>Silhouettes/90m OPV</title>
    <defs>
        <path d="M150.317942,58.7897358 L149.125624,58.7897358 L149.125624,54.2329799 L150.317942,53.8173908 L150.317942,58.7897358 Z M140.38242,53.1903959 L138.576719,53.1903959 L138.576719,54.1626964 L137.882218,54.1626964 L137.882218,55.4503002 L133.229343,51.98641 L140.38242,51.98641 L140.38242,53.1903959 Z M26.3987932,58.1035695 C26.3987932,58.2688605 26.2648936,58.403038 26.0996025,58.403038 L25.6362318,58.403038 C25.4706629,58.403038 25.3367632,58.2688605 25.3367632,58.1035695 L25.3367632,57.8377147 C25.3367632,57.6727014 25.4706629,57.5385239 25.6362318,57.5385239 L26.0996025,57.5385239 C26.2648936,57.5385239 26.3987932,57.6727014 26.3987932,57.8377147 L26.3987932,58.1035695 Z M154.884143,61.9944384 L154.884143,64.4682488 L154.38827,64.4682488 L154.38827,63.3959402 L153.445972,63.3959402 L153.445972,64.4682488 L152.785919,64.4682488 L152.785919,63.3959402 L151.843065,63.3959402 L151.843065,64.4682488 L151.365804,64.4682488 L151.365804,58.7897358 L150.83215,58.7897358 L150.83215,54.2224235 L152.81981,53.5295899 L152.701468,53.1903959 L150.83215,53.8415595 L150.83215,53.6382097 L151.143564,53.5295899 L151.025221,53.1903959 L150.559628,53.3526312 L150.317942,53.3526312 L150.317942,53.4365268 L149.125624,53.8523937 L149.125624,53.3526312 L148.611416,53.3526312 L148.611416,58.7897358 L142.234513,58.7897358 L142.234513,57.0754311 L141.910321,57.0754311 L141.910321,53.1903959 L142.280906,53.1903959 L142.280906,51.98641 L143.067914,51.98641 L143.067914,51.7550025 L144.271622,51.7550025 L144.271622,50.4585092 L143.067914,50.4585092 L143.067914,50.180709 L137.558303,50.180709 L137.558303,49.3473085 L128.020313,49.3473085 L128.020313,50.180709 L128.020313,50.4585092 L126.075712,50.4585092 L126.075712,51.7550025 L128.020313,51.7550025 L128.020313,51.98641 L132.221207,51.98641 L137.882218,56.2006384 L137.882218,56.633451 L137.561359,57.0754311 L137.234111,57.0754311 L137.234111,58.7897358 L128.748427,58.7897358 L124.905617,50.5090688 L125.126746,50.5090688 L125.126746,48.9117179 L124.164169,48.9117179 L123.901925,48.3463946 L123.904981,48.337505 L124.504752,46.5112467 L121.661467,46.0562101 L121.661467,45.3467085 L119.38295,45.1580822 L119.38295,45.6917363 L115.501804,45.0705751 L115.501804,44.3852421 L113.223287,44.1966158 L113.223287,44.7063791 L108.208439,43.9038145 L108.063427,44.8141656 L106.375236,44.8141656 L106.375236,46.8634973 L107.436432,48.7608724 L105.842693,58.7897358 L104.184782,58.7897358 L104.184782,58.7786238 L102.775501,58.7786238 L102.775501,53.1642827 L99.6877526,53.1642827 L96.6172275,53.1642827 L95.447411,53.1642827 L95.447411,50.2948849 L95.447411,50.2729387 L95.2215595,46.4020713 L94.5895642,35.588978 L97.0533737,34.2680383 L97.0533737,33.8349478 L94.4873337,33.8349478 L94.2164785,29.1884624 L94.7779127,29.1884624 L101.436505,27.9103039 L101.436505,27.4877698 L97.7598195,27.4877698 L99.9013809,23.7758042 L99.9013809,27.4877698 L100.892294,27.4877698 L100.892294,26.5424159 L103.888647,24.2225068 L103.868089,24.2225068 L103.868089,22.4687544 L100.892294,24.1224988 L100.892294,14.8464737 L101.936267,14.8464737 L103.392496,14.8464737 L104.638151,14.8464737 L104.638151,13.3880229 L104.612316,13.3880229 L104.612316,12.6635201 L105.901587,12.6635201 L105.901587,11.5795439 L103.322212,11.5795439 L103.322212,12.2079279 L100.892294,13.2877371 L100.892294,9.6077184 L100.63394,9.6077184 L100.63394,7.10542736e-15 L100.160013,7.10542736e-15 L100.160013,9.6077184 L99.9116596,9.6077184 L96.129966,6.54830528 L96.129966,9.74300708 L96.1038528,9.74300708 L96.1038528,11.2014579 L97.3497865,11.2014579 L98.8082373,11.2014579 L99.9013809,11.2014579 L99.9013809,11.4134194 L99.3024438,11.4134194 L99.3024438,13.0582741 L99.9013809,13.0582741 L99.9013809,15.7871051 L99.3024438,15.7871051 L99.3024438,17.4319598 L99.9013809,17.4319598 L99.9013809,23.119918 L97.3806223,27.4877698 L95.0982162,27.4877698 L95.0982162,24.7503271 L94.1792533,24.7503271 L94.1792533,22.6984952 L93.3539091,22.6984952 L93.3539091,22.2879065 L94.646791,22.2879065 L94.646791,21.1389251 L98.208189,21.1389251 L98.208189,19.9835542 L87.5153832,19.9835542 L87.5153832,21.1389251 L91.0765034,21.1389251 L91.0765034,22.2879065 L92.3691075,22.2879065 L92.3691075,22.6984952 L91.544041,22.6984952 L91.544041,24.7503271 L90.6250781,24.7503271 L90.6250781,27.4877698 L88.335727,27.4877698 L88.335727,26.9160571 C88.599915,26.7482658 88.7763181,26.4551867 88.7763181,26.1193263 C88.7763181,25.597062 88.3532285,25.1736945 87.831242,25.1736945 C87.3092555,25.1736945 86.8861658,25.597062 86.8861658,26.1193263 C86.8861658,26.4551867 87.0625689,26.7482658 87.3267569,26.9160571 L87.3267569,27.4877698 L86.9395035,27.4877698 L86.9395035,27.9050257 L86.9395035,27.9103039 L86.9525601,27.9103039 L90.1953213,29.1884624 L91.2359607,29.1884624 L90.3356104,33.8349478 L87.9587522,33.8349478 L87.9587522,31.1011165 L88.6779768,31.1011165 L88.6779768,30.5927422 L90.4628428,30.5927422 L90.4628428,30.1574293 L85.1035222,30.1574293 L85.1035222,30.5927422 L86.8883882,30.5927422 L86.8883882,31.1011165 L87.607335,31.1011165 L87.607335,33.8349478 L86.7330979,33.8349478 L86.7330979,34.2630379 L86.7330979,34.2680383 L90.1055918,35.0205989 L89.0755089,40.3354715 L82.1421726,40.3354715 L82.1421726,36.0515153 L83.2653186,36.0515153 L83.2653186,35.3411803 L86.0538766,35.3411803 L86.0538766,34.7327979 L77.6812577,34.7327979 L77.6812577,35.3411803 L80.4698156,35.3411803 L80.4698156,36.0515153 L81.5929617,36.0515153 L81.5929617,40.3354715 L80.5923255,40.3354715 L79.5805773,44.411911 L76.2061388,44.411911 L76.2061388,43.9038145 L72.7808629,43.9038145 L72.7808629,44.411911 L64.4315792,46.1178817 L64.4315792,44.9880685 L65.0927436,44.9880685 L65.0927436,44.5758131 L65.169972,44.5758131 L65.169972,43.8743677 C65.169972,43.3771054 64.766884,42.9740174 64.2696217,42.9740174 C63.7723594,42.9740174 63.3692714,43.3771054 63.3692714,43.8743677 L63.3692714,44.5758131 L63.4476111,44.5758131 L63.4476111,44.9880685 L64.1084976,44.9880685 L64.1084976,46.1837204 L61.8108125,46.6532026 L61.2052082,47.3535368 L61.8108125,47.3535368 L62.3511338,50.2948849 L57.9627248,50.2948849 L57.9627248,50.531015 L57.1623825,50.531015 L57.1623825,50.2948849 L56.9037506,50.2948849 C56.7792961,50.0804231 56.534832,49.9326335 56.2500868,49.9326335 L55.9447844,49.9326335 L55.1588878,49.9326335 L54.8533076,49.9326335 C54.5688403,49.9326335 54.3243761,50.0804231 54.1996439,50.2948849 L53.8132238,50.2948849 C53.6887694,50.0804231 53.4443052,49.9326335 53.1595601,49.9326335 L52.8542577,49.9326335 L52.0683611,49.9326335 L51.7627809,49.9326335 C51.4783135,49.9326335 51.2338494,50.0804231 51.1091171,50.2948849 L50.807704,50.2948849 L50.807704,50.531015 L48.2802781,50.531015 L47.6477272,52.6320176 L46.0709335,58.4541533 L42.9198463,58.4541533 L42.9198463,57.3596206 L41.9772704,57.3596206 L41.9772704,58.4541533 L41.3172172,58.4541533 L41.3172172,57.3596206 L40.3746413,57.3596206 L40.3746413,58.4541533 L39.7304227,58.4541533 L39.7304227,57.0743199 L37.2279989,57.0743199 L37.2279989,56.9737562 L36.930475,56.9737562 L36.930475,56.8284667 L37.0146484,56.8284667 L37.1804951,56.8284667 L37.1804951,56.26231 L37.0146484,56.26231 L36.930475,56.26231 L36.930475,56.0881293 L37.0974328,56.0881293 L37.0974328,55.841165 L37.6777574,55.841165 L37.6777574,55.7108767 L37.5635815,55.7108767 L37.5635815,54.4863336 L37.1429921,54.4863336 L36.7199024,54.4863336 L36.7199024,54.2813171 L36.930475,54.2813171 L37.6777574,54.2813171 L37.8811071,54.2813171 L38.3166977,54.2813171 L38.766734,54.1079698 L38.766734,54.0415756 L38.9989749,54.0415756 L38.9989749,53.7801656 L38.766734,53.7801656 L38.766734,53.683769 L38.1569626,53.683769 L38.1569626,53.4398604 L37.8811071,53.4398604 L37.8811071,53.5623703 L37.6777574,53.5623703 L37.6777574,53.4398604 L37.3813446,53.4398604 L37.5635815,52.9350975 L36.582947,52.5811802 L36.4012657,53.0867764 L36.3407052,53.4398604 L35.9937328,53.4398604 L35.9937328,53.5623703 L35.6164802,53.5623703 L35.6164802,53.7348842 L35.4425773,53.7348842 L35.4425773,53.6832134 L35.1786672,53.6832134 L35.1786672,53.8068344 L34.6439019,53.8068344 L34.6439019,53.8432263 L30.7969253,53.8618389 L30.7969253,53.9640693 L34.6439019,53.9821263 L34.6439019,54.0193516 L35.1786672,54.0193516 L35.1786672,54.142417 L35.4425773,54.142417 L35.4425773,54.0907462 L35.6164802,54.0907462 L35.6164802,54.1513066 L35.0831039,54.5641177 L34.7311311,54.5641177 L34.7311311,54.8369174 L34.1646966,55.2755639 L34.1646966,55.7108767 L34.5275036,56.0881293 L34.7311311,56.0881293 L34.7819685,56.0881293 L34.7819685,56.26231 L34.6977951,56.26231 L34.5322262,56.26231 L34.5322262,56.8284667 L34.6977951,56.8284667 L34.7819685,56.8284667 L34.7819685,56.9737562 L34.4844446,56.9737562 L34.4844446,57.0743199 L31.7661701,57.0743199 L29.6601671,56.5345542 L28.7573166,56.5345542 L29.8337922,58.4541533 L26.8471627,58.4541533 C26.8507741,58.4324848 26.8535521,58.4108164 26.8535521,58.3880368 L26.8535521,57.7257612 C26.8535521,57.5160221 26.6838162,57.3460084 26.4740771,57.3460084 L25.2614794,57.3460084 C25.0520181,57.3460084 24.8820044,57.5160221 24.8820044,57.7257612 L24.8820044,58.3880368 C24.8820044,58.4108164 24.8847824,58.4324848 24.8886716,58.4541533 L23.7252445,58.4541533 L23.7252445,57.4710185 L23.5574532,57.4710185 L23.5574532,56.5856694 L21.7164716,56.5856694 L21.7164716,57.4368491 C21.6503552,57.381289 21.5659039,57.3462862 21.4728409,57.3462862 L20.260521,57.3462862 C20.1494009,57.3462862 20.0502263,57.3949013 19.9807762,57.4710185 L17.2908373,57.4710185 L17.2908373,58.4541533 L15.1842787,58.4541533 L15.1842787,57.3596206 L14.2417028,57.3596206 L14.2417028,58.4541533 L13.5816496,58.4541533 L13.5816496,57.3596206 L12.6390737,57.3596206 L12.6390737,58.4541533 L8.99489126,58.4541533 L8.99489126,57.3596206 L8.05231533,57.3596206 L8.05231533,58.4541533 L7.39226215,58.4541533 L7.39226215,57.3596206 L6.44968622,57.3596206 L6.44968622,58.4541533 L1.27038011,58.4541533 C1.27038011,58.4541533 0,59.1900459 0,59.8039842 C0,59.8450986 0.0563934317,59.9431621 0.155568087,60.0853958 C0.173347297,60.1103978 0.189459706,60.1340108 0.209739118,60.1617908 C1.52956766,61.9694364 8.7123685,69.7111712 11.1439533,72.320548 C11.6489939,72.8622583 11.9490181,73.1831175 11.9490181,73.1831175 L125.493443,73.1831175 L194.827361,73.1831175 L195.339069,72.320548 L196.027458,71.1610102 L199.855822,64.7110462 L200,64.7110462 L200,61.9944384 L154.884143,61.9944384 Z" id="path-1"></path>
    </defs>
    <g id="Silhouettes/90m-OPV" stroke="none" stroke-width="1" fill="none" fill-rule="evenodd">
        <mask id="mask-2" fill="white">
            <use xlink:href="#path-1"></use>
        </mask>
        <use fill="#3E5667" xlink:href="#path-1"></use>
    </g>
</svg>