<?xml version="1.0" encoding="UTF-8"?>
<svg width="200px" height="20px" viewBox="0 0 200 20" version="1.1" xmlns="http://www.w3.org/2000/svg" xmlns:xlink="http://www.w3.org/1999/xlink">
    <title>Silhouettes/A Boats</title>
    <defs>
        <path d="M21.7672266,12.6742255 C21.7672266,12.6680059 21.7659827,12.6617864 21.7659827,12.6543229 L21.7659827,9.43756492 C21.7659827,8.99348812 22.1254735,8.63399738 22.5695503,8.63399738 C23.0136271,8.63399738 23.3743617,8.99348812 23.3743617,9.43756492 L23.3743617,12.425443 C25.3459632,12.1380992 27.0028548,11.9726588 28.09501,11.9726588 L59.1866055,11.9726588 C60.4168351,11.2126282 60.7937406,10.2461081 60.7937406,10.2461081 C60.7937406,10.2461081 61.9456037,3.33741751 62.0625315,1.95543061 C62.1757275,0.57344371 63.8288874,-1.42108547e-14 63.8288874,-1.42108547e-14 L93.494959,-1.42108547e-14 C96.3746167,-1.42108547e-14 98.0999235,1.60962291 98.0999235,1.60962291 L104.783466,10.8643327 C111.306544,10.5272324 117.206421,10.2461081 120.321178,10.2461081 L165.918039,10.2461081 C169.948315,10.2461081 174.899088,11.6268511 174.899088,11.6268511 L189.614574,17.9347319 L190.211652,9.61295659 C190.211652,9.61295659 191.479199,8.97856117 194.013049,8.97856117 C196.545655,8.97856117 200,9.61295659 200,9.61295659 L200,19.2271571 L192.631062,19.2271571 L189.52128,19.2271571 L0,19.2271571 C0.700322795,17.2107748 13.2625962,14.0649198 21.7672266,12.6742255" id="path-1"></path>
    </defs>
    <g id="Silhouettes/A-Boats" stroke="none" stroke-width="1" fill="none" fill-rule="evenodd">
        <mask id="mask-2" fill="white">
            <use xlink:href="#path-1"></use>
        </mask>
        <use fill="#3E5667" xlink:href="#path-1"></use>
    </g>
</svg>