<?xml version="1.0" encoding="UTF-8"?>
<svg width="200px" height="42px" viewBox="0 0 200 42" version="1.1" xmlns="http://www.w3.org/2000/svg" xmlns:xlink="http://www.w3.org/1999/xlink">
    <title>Silhouettes/Aircraft Carrier</title>
    <defs>
        <path d="M112.977223,0 L113.243211,0.133331089 L112.977223,0.263295231 L112.790694,0.262621841 L112.790694,0.689550681 L112.864093,0.69022407 L113.006178,0.760929951 L112.864093,0.830289052 L112.835137,0.829615663 L112.835137,1.05587448 L112.860726,1.05654787 L112.860726,1.16765711 L112.90517,1.1683305 L112.90517,1.5157994 L112.860726,1.51512601 L112.860726,1.62758203 L112.835137,1.62690864 L112.835137,1.89963132 L112.864093,1.90030471 L113.006178,1.97101059 L112.864093,2.04036969 L112.835137,2.0396963 L112.835137,2.30097136 L112.860726,2.30164475 L112.860726,2.41275399 L112.90517,2.41342738 L112.90517,2.76089628 L112.860726,2.76022289 L112.860726,2.87267891 L112.835137,2.87200552 L112.835137,4.88543964 L113.154997,5.342671 L113.730745,12.3230249 L115.707816,12.2839683 L115.794684,11.3466103 L117.637077,11.3466103 L117.637077,11.0153028 L115.822966,11.0153028 L115.822966,10.1459571 L117.581859,10.1459571 L117.581859,10.0065655 L117.306443,10.0065655 L117.306443,9.91229104 L116.981869,9.91296443 C116.731368,9.91296443 116.527331,9.63418124 116.527331,9.5358664 L116.527331,9.22072019 C116.527331,9.12240535 116.874127,9.04227202 117.124628,9.04227202 L118.27545,9.04227202 C118.526624,9.04227202 118.872746,9.12240535 118.872746,9.22072019 L118.872746,9.5358664 C118.872746,9.63418124 118.669383,9.91296443 118.418208,9.91296443 L118.022929,9.91229104 L118.022929,10.0065655 L117.817545,10.0065655 L117.817545,10.1459571 L119.548829,10.1459571 L119.548829,11.0153028 L118.288244,11.0153028 L118.288244,11.3466103 L118.222926,11.3466103 L118.492955,13.4381576 L119.341425,13.4381576 L119.398663,12.8031515 L119.398663,12.6031548 L118.659282,12.6031548 L118.659282,12.4476019 L120.572381,12.4476019 L120.572381,12.6031548 L119.834346,12.6031548 L119.834346,12.8031515 L119.890911,13.4381576 L120.290904,13.438831 L120.290904,13.8563324 L118.59329,14.2179425 L118.818202,15.9620208 L121.374434,15.9613475 L121.39863,15.5088298 L121.677413,15.5081564 L121.640376,15.1310584 C121.640376,14.7288205 121.945407,14.395801 122.337019,14.3531862 L122.422181,14.34858 C122.826305,14.34858 123.157104,14.6547836 123.199414,15.0460046 L123.203986,15.1310584 L123.134627,15.8387906 L123.094224,15.9613475 L122.908521,15.9619816 L123.182438,18.0623222 L124.302284,18.0623222 L124.416087,16.2475379 L124.57366,16.2468645 L124.57366,15.9835693 L124.541338,15.9842427 L124.482753,15.3452062 C124.482753,14.9543966 124.77231,14.637464 125.12786,14.637464 C125.459264,14.637464 125.731443,14.9107375 125.768635,15.2626806 L125.772967,15.3452062 L125.715055,15.9842427 L125.681386,15.9835693 L125.681386,16.2468645 L125.783741,16.2475379 L125.954109,18.0623222 L126.21067,18.0616488 L126.158145,17.9539065 L126.065218,17.0199155 C126.065218,16.532037 126.403402,16.1228061 126.858029,16.0139652 L127.145334,15.0765139 L129.413983,15.0758405 L129.561455,14.6031212 L130.45639,14.6031212 L130.696116,13.8320904 L131.636841,13.8320904 L131.396441,14.6031212 L131.667144,14.6031212 L131.764112,14.2906685 L132.360735,14.2906685 L132.263767,14.6031212 L132.772176,14.6031212 L132.624703,15.0758405 L133.292706,15.0765139 L132.377569,18.0623222 L134.506826,18.0623222 L134.506826,18.6104611 L131.845592,19.7976465 L129.45304,27.6062693 L198.635713,27.6062693 L198.63302,27.6237774 L200,27.6244508 L200,29.0695443 L198.39464,29.0688709 L198.152893,30.5328193 L198.138752,30.5334927 L196.658642,39.9441087 L196.495682,41.3918958 L7.34196394,41.3918958 C7.34196394,40.9929126 7.29286263,40.5897207 7.20557142,40.1862171 L7.1487012,39.9441087 C6.06546756,35.6608638 0.722444629,31.1807625 0.550370849,30.5608501 L0.546118752,30.5334927 L0.199996633,27.6062693 L0.0491802326,25.9503401 C0.0169908214,25.7991485 0,25.6418606 0,25.4803791 L0,25.4096732 L0.00340345057,25.3553655 C0.0643834073,24.2385169 0.93716556,23.3531422 2.00468006,23.3531422 L2.2228582,23.3531422 C5.09280989,23.3531422 20.1791559,27.521632 42.0894768,27.6050018 L54.8643962,27.6062693 L53.8765341,22.2588845 L53.0024747,22.1066985 L53.0024747,21.9551859 L53.8206428,21.9551859 L53.4132422,19.7511826 L54.2078416,17.9397653 L54.3357856,17.9316847 L54.4044713,16.8912981 L54.4044713,16.648878 L54.5485766,16.648878 L54.5485766,16.460329 L53.3762058,16.460329 L53.3762058,16.3148769 L55.9586539,16.3148769 L55.9586539,16.460329 L54.7869564,16.460329 L54.7869564,16.648878 L54.9317352,16.648878 L54.9317352,16.8912981 L54.945832,17.1004084 C55.0709834,17.1042447 55.18077,17.1384847 55.2524201,17.1890635 L55.2906517,17.2212589 L55.2906517,17.4313564 C55.2322913,17.4914003 55.1267001,17.5364799 55.0003772,17.5498386 L54.9748321,17.5505463 L54.9802192,17.6293328 L55.3243211,17.6293328 L55.3404825,17.9168701 L59.5242504,17.8313496 L59.5242504,16.9970203 L58.0730964,16.0394606 L58.0730964,15.6414875 L58.1411087,15.6408141 L58.1983468,15.005808 L58.1983468,14.8071581 L57.4603121,14.8071581 L57.4603121,14.6516052 L59.3707177,14.6516052 L59.3707177,14.8071581 L58.6333563,14.8071581 L58.6333563,15.0064814 L58.689921,15.6408141 L59.5949563,15.6408141 L59.703372,14.8569889 L60.3491524,11.6422282 L60.460935,11.6422282 L60.460935,11.5338126 L60.5154795,11.5331392 L60.5969596,11.1614283 L60.1861922,10.9412299 L61.2730425,8.73251292 L61.6804431,8.93318294 L63.1699803,9.71566135 L63.4447232,10.5998216 L63.1821013,11.1419 L63.2669484,11.5331392 L63.3235131,11.5338126 L63.3235131,11.6422282 L63.4049932,11.6422282 L63.8299019,14.8569889 L64.3019478,16.3936634 L64.3814077,16.3936634 L64.4016094,16.0488881 L64.625848,16.0488881 L64.629215,16.39299 L64.7760139,16.3936634 L64.7760139,16.5990472 L64.6817394,17.0845609 L64.5140654,17.0845609 L64.7423444,17.8259625 L67.9786536,17.8259625 L69.1220687,14.0974058 L70.7065538,14.0974058 L70.857393,13.6132388 L71.7509806,13.6125654 L71.9907072,12.8428814 L72.9300854,12.8428814 L72.6903587,13.6125654 L72.9603879,13.6125654 L73.0580293,13.3014596 L73.6533055,13.3014596 L73.555664,13.6125654 L74.0647464,13.6132388 L73.9139072,14.0974058 L74.5899901,14.0974058 L74.4176024,14.6596859 L75.3569805,14.6603593 L75.3569805,14.8361139 L74.2512752,15.2010909 L72.6270602,20.4993182 L72.6270602,21.9551859 L72.4183095,21.9551859 L72.4183095,21.1807882 L71.6647868,23.6373125 L73.5496035,23.6379859 L73.5496035,23.9430313 L71.5718591,23.9423579 L70.4479723,27.6062693 L112.372519,27.6062693 L110.217673,19.767344 L111.419673,15.9667346 L111.792731,12.3607347 L112.576556,12.3452467 L112.576556,10.3452804 L112.477568,10.3452804 L112.477568,10.4456154 L112.317974,10.4456154 L112.317974,10.3452804 L112.278244,10.3459538 L112.278244,10.207909 L112.317974,10.2072356 L112.317974,10.1082473 L112.477568,10.1082473 L112.477568,10.2072356 L112.576556,10.2072356 L112.576556,8.98166698 L112.477568,8.98166698 L112.477568,9.08065521 L112.317974,9.08065521 L112.317974,8.98166698 L112.278244,8.98166698 L112.278244,8.84362216 L112.317974,8.84362216 L112.317974,8.74328715 L112.477568,8.74328715 L112.477568,8.84362216 L112.576556,8.84362216 L112.576556,8.54329052 L112.477568,8.54329052 L112.477568,8.64295214 L112.317974,8.64295214 L112.317974,8.54329052 L112.278244,8.54396391 L112.278244,8.40591909 L112.317974,8.4052457 L112.317974,8.30558408 L112.477568,8.30558408 L112.477568,8.4052457 L112.576556,8.4052457 L112.576556,7.39246814 L112.477568,7.39246814 L112.477568,7.49212976 L112.317974,7.49212976 L112.317974,7.39246814 L112.278244,7.39314153 L112.278244,7.25442333 L112.317974,7.25374994 L112.317974,7.1547617 L112.477568,7.1547617 L112.477568,7.25374994 L112.576556,7.25374994 L112.576556,5.91505194 L112.477568,5.91505194 L112.477568,6.01606034 L112.317974,6.01606034 L112.317974,5.91505194 L112.278244,5.91572532 L112.278244,5.77768051 L112.317974,5.77700712 L112.317974,5.67869228 L112.477568,5.67869228 L112.477568,5.77700712 L112.576556,5.77700712 L112.576556,5.342671 L112.637834,4.60463629 L112.637834,4.08882005 L112.614266,4.08949344 L112.614266,4.61473713 L112.38464,4.61473713 L112.38464,4.08949344 L112.328075,4.09016683 L112.328075,3.93865423 L112.38464,3.93798084 L112.38464,3.41341055 L112.614266,3.41341055 L112.614266,3.93798084 L112.637834,3.93730745 L112.637834,2.87200552 L112.611572,2.87267891 L112.611572,2.76022289 L112.567802,2.76089628 L112.567802,2.41342738 L112.611572,2.41275399 L112.611572,2.30164475 L112.637834,2.30097136 L112.637834,2.0396963 L112.608205,2.04036969 L112.466793,1.96899042 L112.486995,1.96090975 L112.608205,1.90030471 L112.637834,1.89963132 L112.637834,1.62690864 L112.611572,1.62758203 L112.611572,1.51512601 L112.567802,1.5157994 L112.567802,1.1683305 L112.611572,1.16765711 L112.611572,1.05654787 L112.637834,1.05587448 L112.637834,0.829615663 L112.608205,0.830289052 L112.466793,0.758236393 L112.486995,0.750155721 L112.608205,0.69022407 L112.681605,0.689550681 L112.681605,0.262621841 L112.496423,0.263295231 L112.22976,0.133331089 L112.235148,0.131310921 L112.22976,0.128617363 L112.26949,0.113802798 L112.496423,0 L112.977223,0 Z" id="path-1"></path>
    </defs>
    <g id="Silhouettes/Aircraft-Carrier" stroke="none" stroke-width="1" fill="none" fill-rule="evenodd">
        <mask id="mask-2" fill="white">
            <use xlink:href="#path-1"></use>
        </mask>
        <use fill="#3E5667" xlink:href="#path-1"></use>
    </g>
</svg>