<?xml version="1.0" encoding="UTF-8"?>
<svg width="200px" height="50px" viewBox="0 0 200 50" version="1.1" xmlns="http://www.w3.org/2000/svg" xmlns:xlink="http://www.w3.org/1999/xlink">
    <title>Silhouettes/Albion Class</title>
    <g id="Silhouettes/Albion-Class" stroke="none" stroke-width="1" fill="none" fill-rule="evenodd">
        <path d="M51.5118002,0 L51.5120246,3.03457197 C51.5747247,3.03878732 51.6371547,3.04819062 51.6986674,3.06277822 C51.8490656,3.09844484 51.955258,3.23276569 51.955258,3.3873352 L51.955258,4.11582614 C51.955258,4.2713172 51.8483102,4.40638769 51.6969622,4.44204258 C51.6358435,4.45644108 51.5738331,4.46575711 51.5115571,4.46998805 L51.5115946,5.11579889 C51.528386,5.11597299 51.5451769,5.11620751 51.561967,5.11650245 L51.9086887,5.12259314 C51.9345394,5.12304725 51.955258,5.14413292 51.955258,5.16998767 C51.955258,5.19584156 51.9345385,5.2169257 51.9086886,5.21737679 L51.5585223,5.22348738 L51.511,5.223 L51.5120246,6.03650029 C51.5747247,6.04071565 51.6371547,6.05011894 51.6986674,6.06470654 C51.8490656,6.10037316 51.955258,6.23469401 51.955258,6.38926352 L51.955258,7.11775446 C51.955258,7.27324553 51.8483102,7.40831601 51.6969622,7.44397091 C51.6358435,7.4583694 51.5738331,7.46768543 51.5115571,7.47191637 L51.511,9.279 L53.0143166,9.27972395 L53.0143166,10.8092438 C52.5422549,10.8092438 51.8918206,10.9574054 51.0630136,11.2537285 L50.7801382,11.3579904 L50.78,19.9874276 L60.7149186,19.9863135 C60.6015313,19.2403427 60.4886585,18.7103601 60.3763003,18.3963657 C60.1817462,17.8526679 59.9280247,16.9426324 60.3763003,16.0601211 C60.824576,15.1776097 62.1657759,14.787168 63.1291814,15.2925382 C64.092587,15.7979084 64.637869,16.5977929 64.5622451,18.1585285 C64.5336204,18.7492889 64.4185342,19.3589266 64.2169862,19.9874416 L71.438385,19.9874485 L71.9862112,16.9913834 L78.5984526,16.9913834 L79.0109462,23.5507183 L80.1904811,23.5512792 C80.2735081,22.9998704 80.8499607,20.3828767 81.9198387,15.7002979 L83.3175536,6.29484217 L84.7174337,5.36336275 L84.5202812,3.04655334 L84.9104721,1.68728176 L87.6642193,1.68728176 L87.9693131,3.04655334 L87.9693131,5.36336275 L89.1046992,6.55249466 L91.015,23.5504276 L97.49,23.5504276 L97.49,20.0524276 L97.2025674,20.0533546 L97.2025674,19.2092794 L102.385805,19.3834364 L102.799273,16.5001824 L110.538672,16.2772745 L110.777,19.2844276 L111.21252,19.2849574 L113.406857,1.27642757 L116.103764,1.27642757 L118.745889,18.8237236 L125.709346,18.4337161 L126.091308,23.8697167 L121.012114,23.8697167 L121.012,32.4364276 L139.184431,32.4378516 C139.291072,31.8351565 139.710722,29.8568455 140.443382,26.5029185 L140.129843,25.4307237 L140.635013,24.8792627 L140.635013,24.2701475 L141.860368,23.0147838 L142.87428,23.0147838 L143.435423,24.5886029 L144.342801,24.5886029 L145.166381,25.7826208 L144.747932,27.6630605 L144.747932,29.0060456 L160.424749,29.0060456 L160.424749,29.4996352 L159.972739,29.6952904 L159.503189,29.4996352 L148.083068,29.6952904 L143.435423,30.9159095 L143.256784,31.7121024 L143.902,32.4364276 L200,32.437069 L194.619177,50 L10.4373895,50 L10.2876575,49.5381148 C9.21161544,46.2211146 5.89027729,40.121285 0.323643058,31.2386259 L-1.13686838e-13,30.7230773 L12.741,30.8624276 L12.6005453,30.7230773 L12.6005453,29.2266734 L23.3212671,29.2266734 L24.1475536,23.0775411 L28.5171718,23.0775411 L27.7956868,19.9874485 L44.692,19.9874276 L44.6927707,17.5925725 L43.7705604,15.2587165 L48.6933099,15.2587165 L48.6936465,11.1371451 L48.452,11.085 L47.909,11.066 L47.9087057,11.6185744 L47.7978413,11.6185744 L47.798,11.063 L42.9995665,10.8988026 L43.03,10.737 L43.0306702,9.28374129 L43.057,9.283 L43.0496708,9.27972395 L47.797,9.279 L47.7978413,7.22686448 L47.9087057,7.22686448 L47.908,9.279 L51.345,9.279 L51.3455199,7.47116065 C51.2899239,7.46687476 51.2345592,7.45853148 51.1798718,7.44612897 L51.1703561,7.44397091 C51.0134325,7.40838233 50.9020457,7.26890565 50.9020457,7.10799711 L50.9020457,6.40234356 C50.9020457,6.24051175 51.0141887,6.10028424 51.1720613,6.06470654 L51.1848213,6.06183098 C51.2379643,6.04985483 51.2917453,6.04173558 51.3457502,6.0374709 L51.3457758,5.22396648 L51.3188093,5.22356543 L50.9486156,5.21734647 C50.9227702,5.21691229 50.9020457,5.19583673 50.9020457,5.16998767 C50.9020457,5.14413939 50.922771,5.12306523 50.9486157,5.1226338 L51.3221849,5.11639777 L51.345,5.116 L51.3455199,4.46923233 C51.2899239,4.46494644 51.2345592,4.45660316 51.1798718,4.44420064 L51.1703561,4.44204258 C51.0134325,4.40645401 50.9020457,4.26697733 50.9020457,4.10606879 L50.9020457,3.40041524 C50.9020457,3.23858342 51.0141887,3.09835592 51.1720613,3.06277822 L51.1848213,3.05990266 C51.2379643,3.04792651 51.2917453,3.03980726 51.3457502,3.03554258 L51.3455035,0 L51.5118002,0 Z M98.319,20.0994276 L98.319,23.5504276 L101.829751,23.5507183 L102.391,20.7214276 L98.319,20.0994276 Z M45.4708421,10.2119939 L45.4689789,10.8037365 C46.0614755,10.8269046 46.7583316,10.8475178 47.5595472,10.8655763 L47.7984697,10.9289227 C47.084227,10.7450794 46.3083511,10.5061031 45.4708421,10.2119939 Z M48.693,9.422 L47.908,9.422 L47.9069679,10.679658 C48.1626604,10.7340999 48.4245247,10.7861798 48.6925608,10.8358977 L48.693,9.422 Z M44.7503868,9.95106101 L44.7489071,10.7717426 C44.9370394,10.7812877 45.1398959,10.7904723 45.3574766,10.7992964 L45.3590754,10.1725471 C45.1596294,10.1018047 44.9567331,10.027976 44.7503868,9.95106101 Z M43.9182915,9.63155754 L43.9176623,10.7199822 C44.1245786,10.7361171 44.3645446,10.751443 44.6375603,10.7659599 L44.6395971,9.90959254 C44.4036206,9.82090271 44.1631855,9.72822438 43.9182915,9.63155754 Z M43.141,9.324 L43.1402156,10.628917 C43.2831474,10.6581791 43.5050015,10.6855091 43.8057778,10.7109071 L43.8079375,9.58784754 C43.7125689,9.54994414 43.6165314,9.51144242 43.519825,9.47234237 L43.397,9.422 L43.3441545,9.42239373 L43.141,9.324 Z M47.797,9.422 L45.469,9.422 L45.4677145,10.0274478 C46.1758519,10.2631186 46.9522999,10.4726454 47.7970584,10.6560281 L47.797,9.422 Z M45.358,9.422 L44.749,9.422 L44.7479402,9.76987236 C44.9450429,9.84570289 45.1482338,9.91920334 45.3575128,9.99037371 L45.358,9.422 Z M44.638,9.422 L43.9231993,9.42266674 C44.1515899,9.52791955 44.3898569,9.62939244 44.6380003,9.7270854 L44.638,9.422 Z" id="Combined-Shape" fill="#3E5667"></path>
    </g>
</svg>