<?xml version="1.0" encoding="UTF-8"?>
<svg width="200px" height="39px" viewBox="0 0 200 39" version="1.1" xmlns="http://www.w3.org/2000/svg" xmlns:xlink="http://www.w3.org/1999/xlink">
    <title>Silhouettes/Another Fort Class</title>
    <defs>
        <path d="M5.54158604,38.189036 L5.54158604,36.7453646 L0,23.8708036 L19.7857674,25.5958686 C19.7857674,25.5958686 18.7561374,27.0434035 23.7085355,27.4548692 L35.0627984,27.4548692 L36.5064698,25.8038552 L36.5064698,24.3614716 L40.0151965,24.3614716 L40.0151965,27.4548692 L44.3532938,27.4548692 L44.3532938,15.8945515 L24.3286316,24.4342347 L43.5271429,14.0381266 L45.1768691,14.0381266 L45.1768691,18.579703 L47.2419244,18.579703 L47.2419244,27.2501022 L55.0861728,27.2501022 L55.0861728,26.6300061 L54.2600218,26.6300061 L54.2600218,23.3247584 L46.2097187,13.2119756 L46.828527,12.7992221 L53.8472683,21.2622788 L55.2922275,21.056224 L55.4982823,20.230717 L56.3250772,21.2622788 L57.3559951,24.9783481 L57.3559951,15.4830858 L56.7371868,14.2435374 L58.3888447,14.2435374 L58.3888447,12.7992221 L63.3438185,12.7992221 L63.3438185,13.8320718 L69.9478746,13.8320718 L69.9478746,12.7992221 L70.7740255,12.7992221 L70.7740255,9.08186492 L71.6001764,0.207986555 L72.2202726,1.0658141e-14 L72.2202726,7.84424833 L73.8719305,11.149496 L76.5532185,11.149496 L76.5532185,13.8320718 L77.7927668,13.8320718 L77.7927668,12.5918795 L79.8571783,12.5918795 L79.8571783,13.8320718 L96.9899902,14.1785014 L96.9899902,19.6106208 L95.9584284,18.9924565 L95.9584284,21.6737444 L96.9899902,21.6737444 L96.9899902,24.5649507 L99.8799087,24.5649507 L99.8799087,22.0897175 L100.914046,22.0897175 L100.914046,17.9596068 L103.389923,17.9596068 L103.389923,24.3614716 L106.692595,24.3614716 L106.692595,21.6737444 L108.757651,21.6737444 L109.58187,21.056224 L99.6751417,13.8320718 L100.087895,13.3169348 L109.996555,20.5533215 L109.996555,18.579703 L113.297939,18.579703 L113.297939,16.928045 L113.919323,16.928045 L114.536844,6.19323432 L115.570337,5.16167252 L121.554297,5.77919297 L123.103572,6.81268654 L124.991549,16.6968773 L126.850549,16.6968773 L126.923312,18.9924565 L130.019929,19.8198952 L132.49645,20.6421826 L131.670943,22.0897175 L131.670943,27.4548692 L132.703793,27.4548692 L132.703793,23.3247584 L134.561506,23.3247584 L134.974903,27.4548692 L136.625273,27.4548692 L136.625273,18.3723603 L139.10115,18.3723603 L139.10115,27.2501022 L139.927945,27.0434035 L139.927945,26.0124856 L143.851357,26.0124856 L143.851357,16.5146476 L162.842526,16.5146476 L162.842526,24.5437013 L200,24.5437013 L200,31.1728703 L197.522191,38.189036 L5.54158604,38.189036 Z" id="path-1"></path>
    </defs>
    <g id="Silhouettes/Another-Fort-Class" stroke="none" stroke-width="1" fill="none" fill-rule="evenodd">
        <mask id="mask-2" fill="white">
            <use xlink:href="#path-1"></use>
        </mask>
        <use fill="#3E5667" xlink:href="#path-1"></use>
    </g>
</svg>