<?xml version="1.0" encoding="UTF-8"?>
<svg width="200px" height="66px" viewBox="0 0 200 66" version="1.1" xmlns="http://www.w3.org/2000/svg" xmlns:xlink="http://www.w3.org/1999/xlink">
    <title>Silhouettes/Archer Class Patrol Boat</title>
    <defs>
        <path d="M161.281021,-1.42108547e-14 L161.279656,1.35803489 L163.722645,1.35803489 L162.910636,3.40778678 L162.910636,23.4399031 L162.144004,23.4399031 L162.144004,25.0171794 L162.913562,25.0171794 L163.074597,29.7490083 L168.408733,29.7490083 L168.408733,40.7899424 L163.451566,40.7899424 L163.681848,47.512294 L173.292192,47.512294 L173.292192,44.1763546 L173.186303,44.1653137 L173.186303,42.9792019 C171.047516,42.9792019 169.29674,41.2946708 169.29674,39.2126661 C169.29674,37.1306614 171.047516,35.4461303 173.186303,35.4461303 C175.344017,35.4461303 177.075866,37.1306614 177.075866,39.2126661 L177.06753,39.4621123 L189.814399,39.4621123 C189.80887,39.3796638 189.806063,39.296487 189.806063,39.2126661 C189.806063,37.1306614 191.537913,35.4461303 193.695627,35.4461303 C195.834413,35.4461303 197.575726,37.1306614 197.575726,39.2126661 C197.575726,41.2113906 195.970932,42.8438034 193.950287,42.9711985 L193.68953,42.9792019 L193.690895,44.1653137 L193.587007,44.1763546 L193.587007,47.512294 L198.818991,47.512294 C199.462305,47.512294 200,48.0327951 200,48.6763239 C200,49.3198526 199.462305,49.8403538 198.818991,49.8403538 L198.421358,49.8403538 L198.422724,65.5468712 L23.8361936,65.5468712 C22.7157682,64.9243728 21.6105674,63.6176998 20.5684331,62.7966362 L20.2883855,62.5957709 C18.1559942,61.1155962 15.4140891,58.7930255 12.06267,55.6280585 C10.253486,54.0475162 7.57229148,49.0174537 7.57229148,48.6763239 L7.58038989,48.5422554 L4.83184561,49.6573897 L6.67639855,50.8971289 C3.94799733,50.9633745 0.374176009,50.1778909 0.0379293801,49.3356254 C-0.146205679,48.8703289 0.390187754,48.6744837 0.574100427,48.6221269 L0.633566266,48.6069237 L2.65104604,48.6069237 L2.63289629,47.4152754 C2.60516749,47.2049504 2.6181076,46.7141922 3.34275339,46.7141922 L17.7533232,46.8940017 L17.7979858,47.512294 L41.4066574,47.512294 L41.6542898,46.2441638 L40.2865792,44.0249361 L45.5105183,40.7978288 L47.4127135,43.8735175 L44.4823462,45.6747671 L46.045215,45.6747671 L46.330914,47.512294 L54.0248678,47.512294 L54.2725002,46.2457411 L52.9095214,44.0249361 L58.1334605,40.7978288 L60.0261921,43.8735175 L57.0958248,45.6747671 L58.6539617,45.6747671 L58.9459699,47.512294 L80.125636,47.512294 L80.1270013,41.5649047 L91.1459454,32.0309142 L91.1713019,32.0297498 L88.0133827,20.5149071 L113.075321,15.5535216 L149.525793,15.5535216 L149.527158,15.2408955 L154.085699,1.90219522 L152.476665,1.90219522 L152.476665,0.81387457 L156.699246,0.81387457 L156.700611,-1.42108547e-14 L161.281021,-1.42108547e-14 Z M187.482947,44.8325015 L183.400165,45.2725616 L179.386788,44.8372334 L179.386788,47.512294 L187.482947,47.512294 L187.482947,44.8325015 Z" id="path-1"></path>
    </defs>
    <g id="Silhouettes/Archer-Class-Patrol-Boat" stroke="none" stroke-width="1" fill="none" fill-rule="evenodd">
        <mask id="mask-2" fill="white">
            <use xlink:href="#path-1"></use>
        </mask>
        <use fill="#3E5667" xlink:href="#path-1"></use>
    </g>
</svg>