<?xml version="1.0" encoding="UTF-8"?>
<svg width="200px" height="47px" viewBox="0 0 200 47" version="1.1" xmlns="http://www.w3.org/2000/svg" xmlns:xlink="http://www.w3.org/1999/xlink">
    <title>Silhouettes/Argus</title>
    <defs>
        <path d="M62.5033346,1.77635684e-14 L62.5033346,7.88770033 L62.7923861,13.5340936 L68.5869231,13.5347689 L68.5869231,11.8619171 L69.8795506,11.8619171 L69.8795506,34.2181596 L70.7156388,34.9002671 L72.389166,34.8995917 L72.389166,33.6832792 L71.5139072,33.6832792 L71.5139072,30.1106567 L71.7421769,30.1106567 L71.7421769,26.3860796 L71.8184919,26.3860796 L71.8184919,24.9401468 L73.04561,25.1170895 L86.7971676,20.594244 L90.749339,17.3370118 L92.386397,17.3370118 C93.2284428,17.3370118 93.1875546,18.3273296 92.5362291,18.3290341 L92.4613613,18.3250546 L91.665119,18.3250546 L76.9903526,30.9102758 L76.9498313,30.8927166 L76.9505067,33.6832792 L75.9989329,33.6832792 L75.9989329,34.8995917 L133.522207,34.9002671 L133.522207,29.2644382 L133.505323,29.2657889 L133.505323,20.3686757 L132.334935,20.3686757 C131.678491,20.3686757 131.649451,19.7405965 132.334935,19.7405965 L136.155412,19.7405965 L136.155412,20.453095 L137.268396,29.180019 L139.605796,29.1996042 L140.440533,21.7470732 L141.080094,21.7470732 L141.107108,21.447216 L142.320043,21.447216 L142.36124,21.7470732 L146.961076,21.7470732 L147.267011,28.7477924 L150.487774,26.1760445 C150.231815,25.8910451 150.545855,25.6053704 150.830854,25.9187347 L151.088164,26.1470043 L147.815399,29.1989289 L150.936209,29.1996042 L150.936209,26.7960195 L159.070848,26.7960195 L159.070848,29.1996042 L164.924816,29.1996042 L164.924816,34.9002671 L199.295606,34.9002671 L199.295606,36.8804049 L199.304385,36.9553692 L200,36.9553692 L199.355037,42.6567074 L196.407792,42.6567074 L195.192155,46.307671 L9.20034713,46.307671 L0,31.17569 L2.29958027,31.1750146 L2.30025562,19.7878713 L2.585255,19.7878713 L2.585255,27.3962869 L3.02423508,31.1750146 L6.97573116,31.1750146 L6.97640651,29.8289785 L7.12514728,29.8214754 C7.60031085,29.8114312 9.10859069,29.8885246 10.1020604,31.175233 L18.8383236,31.1750146 L18.838999,27.0877724 L20.0364016,27.0877724 L20.0366555,31.0740074 C21.1117606,30.7971175 20.9096343,30.0502825 20.9096343,30.0502825 L20.9096343,18.9335485 L21.6707582,18.9335485 L20.8927504,16.3496443 L28.1332203,16.3489689 L28.1338957,10.34102 L26.00518,9.42794142 L30.1113321,9.42794142 L30.0350171,9.8844807 L30.6428357,13.5347689 L58.9043733,13.5340936 L59.5378553,7.48857392 L59.5378553,1.77635684e-14 L62.5033346,1.77635684e-14 Z M85.4390307,21.7133055 L75.073698,25.4095178 L75.7726894,25.5101455 L75.772014,29.6797809 L75.9954057,29.4957956 C76.0293488,29.292329 76.2050264,29.1374717 76.4176524,29.1374717 L76.4291334,29.138147 L85.4390307,21.7133055 Z M81.8664082,22.6392158 L73.1388089,25.1305966 L75.0021105,25.3993875 L81.8664082,22.6392158 Z M86.6485897,20.716483 L81.8664082,22.6392158 L85.6132721,21.5694551 L86.6485897,20.716483 Z" id="path-1"></path>
    </defs>
    <g id="Silhouettes/Argus" stroke="none" stroke-width="1" fill="none" fill-rule="evenodd">
        <mask id="mask-2" fill="white">
            <use xlink:href="#path-1"></use>
        </mask>
        <use fill="#3E5667" xlink:href="#path-1"></use>
    </g>
</svg>