<?xml version="1.0" encoding="UTF-8"?>
<svg width="200px" height="41px" viewBox="0 0 200 41" version="1.1" xmlns="http://www.w3.org/2000/svg" xmlns:xlink="http://www.w3.org/1999/xlink">
    <title>Silhouettes/Astute Class Fleet Submarine</title>
    <defs>
        <path d="M4.24325642,17.7733998 C4.87806334,17.2589873 5.90247997,16.6910662 7.61540217,16.12635 L8.71511733,15.7862915 C11.9728276,14.8080115 20.44195,12.3680142 25.740535,11.4602941 C25.8018058,11.256713 25.9929539,11.1119071 26.2171278,11.1119071 L26.3653821,11.1101161 L26.3667751,8.23079908 C26.3667751,7.94822045 26.595624,7.10844452 26.8782026,7.10844452 L27.2383909,7.10844452 C27.5189795,7.10844452 27.7478284,7.94822045 27.7478284,8.23079908 L27.7464354,11.1101161 L55.1571595,11.1129021 C57.1869496,11.1129021 58.9998619,10.4710136 59.6596268,9.28069962 L59.7759271,9.03535218 L61.0942024,1.0196524 L61.1599654,0.85370586 L61.2083898,0.758234083 C61.3581008,0.486863079 61.6828035,0.0988308807 62.329216,0.0159517626 L62.5869875,2.84217094e-14 L88.2021432,2.84217094e-14 C89.8697551,2.84217094e-14 91.8119857,0.091539556 93.2388088,0.85370586 C93.6957106,1.09747968 94.1016686,1.40592818 94.428027,1.80591624 L95.0637096,2.62520775 C96.4112688,4.40140952 99.0566398,8.03131149 100.860382,10.5167218 L104.702094,10.2405443 C109.425947,9.91951461 114.999325,9.62459734 121.454013,9.58670183 L122.850661,9.58259952 L158.760037,9.58259952 C162.233354,9.58259952 170.128503,12.5064874 177.651574,15.668618 L179.101121,16.282897 L179.608569,8.89008288 L179.662619,8.82415351 C179.878361,8.61859266 180.561435,8.4460196 182.959768,8.375988 L184.257688,8.34335883 C184.345453,8.34210587 184.437214,8.34144254 184.533397,8.34144254 C185.691737,8.34144254 187.59251,8.65915003 188.408618,8.83932362 L188.602927,8.88470991 L188.519746,8.88928689 L188.585216,8.88988388 L188.585415,19.8845806 L188.079958,20.2626787 L191.640051,21.9163607 L191.640051,19.6537417 L197.576192,21.0447449 L197.576192,24.2287295 C198.883615,24.4854382 200,24.945126 200,25.4724735 C200,25.9592557 199.048761,26.3883871 197.874092,26.6534354 L197.576192,26.7162174 L197.576192,29.902192 L191.640051,31.2912052 L191.640051,29.0445061 L190.512092,29.5665522 C190.114221,29.7485488 189.695145,29.9380596 189.256902,30.1336836 L188.585415,30.4315294 L188.585415,39.382506 L188.414276,39.7048844 L187.809542,39.8253982 C186.867656,39.998607 185.461927,40.202382 184.533795,40.202382 L184.267883,40.2008895 L182.893557,40.173717 C180.504099,40.1031347 179.867771,39.9276315 179.655201,39.7212484 L179.600609,39.6551347 L179.588669,39.3486762 L179.228481,34.1269415 C175.298382,35.4735016 171.305878,36.5236328 168.153776,36.6576656 L167.491518,36.6721391 L37.3501289,36.6721391 C32.9403102,36.6721391 6.30030944,31.2732953 4.59090773,31.0026566 C3.84466135,30.8852472 3.37900361,30.722068 3.04269524,30.513119 C2.69404893,30.2950161 2.48931873,30.0259694 2.28688099,29.6957902 L2.13326965,29.4365342 C1.6696019,28.6345681 0,26.5032885 0,25.4227237 C0,24.5553722 0.409552197,23.7620361 0.702089481,23.3059991 L1.0010423,22.8860491 L3.40885347,18.7184462 C3.53780484,18.4939753 3.72279434,18.2440325 4.00865248,17.9767689 L4.24325642,17.7733998 Z" id="path-1"></path>
    </defs>
    <g id="Silhouettes/Astute-Class-Fleet-Submarine" stroke="none" stroke-width="1" fill="none" fill-rule="evenodd">
        <mask id="mask-2" fill="white">
            <use xlink:href="#path-1"></use>
        </mask>
        <use fill="#3E5667" xlink:href="#path-1"></use>
    </g>
</svg>