<?xml version="1.0" encoding="UTF-8"?>
<svg width="200px" height="44px" viewBox="0 0 200 44" version="1.1" xmlns="http://www.w3.org/2000/svg" xmlns:xlink="http://www.w3.org/1999/xlink">
    <title>Silhouettes/Auxiliary Oiler and Replenishment</title>
    <defs>
        <path d="M57.8169979,-7.10542736e-15 L57.8161678,0.479618519 L58.7997547,0.480171925 L58.7956963,0.659475463 L58.814051,0.659475463 L58.8132209,0.839332408 L58.9455771,1.27089684 L58.8132209,1.3161839 L58.8132209,1.45730242 L59.3135921,1.54437163 L58.8132209,1.86128879 L58.814051,2.01532012 L58.765259,2.01532012 L58.7610162,2.23908061 L58.7610162,2.97326588 L58.7246759,2.97271247 L58.758157,3.01541697 L58.5595765,4.67628056 L58.8830423,13.9802342 L60.6763543,22.6087558 L63.1565355,22.6087558 L63.200808,21.5891975 L63.8962548,21.5891975 L63.9432943,22.6087558 L66.0914319,22.6094014 L66.1656805,21.2702512 L67.0170034,21.2702512 L67.0977084,22.6094014 L67.4541941,22.6094014 L67.6497309,25.6365322 L70.5458889,25.6365322 L70.914365,30.0044734 L71.3367983,30.0038277 L71.3369827,29.1346114 L71.6837838,25.9049341 L72.2039854,25.9049341 L72.9713751,26.5551861 L73.1117557,27.0920821 L73.8828347,27.0920821 L74.5238633,27.661168 L74.2956756,28.5751179 L78.6002518,25.8717297 L78.6002518,18.9661454 L77.3872781,18.9661454 L77.3872781,18.6359465 L78.6002518,18.6359465 L78.6010819,14.2963212 L79.205309,14.2963212 L79.2061391,13.379512 L78.5761786,13.379512 L78.5753485,13.0788281 L78.4584876,13.0790125 L78.3800885,12.3153123 C78.3800885,11.7941883 78.8025217,11.3708327 79.324568,11.3708327 C79.8118112,11.3708327 80.2122804,11.7396225 80.2635107,12.2124875 L80.2690475,12.3153123 L80.1906484,13.0790125 L80.0713894,13.0788281 L80.0722195,13.379512 L79.4431813,13.379512 L79.4423512,14.2963212 L81.0130097,14.2963212 L81.0121795,18.2808443 L81.3588884,18.2812133 L81.3580583,18.5363334 L83.8963471,18.536979 L83.8963471,18.9880049 L81.3580583,18.9873593 L81.3588884,19.245062 L81.0121795,19.2446931 L81.0121795,24.3563197 L83.500754,22.7931322 C83.5081328,22.7568534 83.52412,22.7226242 83.5489892,22.694544 L83.5929883,22.6575478 L83.9002019,22.4627383 C83.9321617,22.3371227 84.0454335,22.2457215 84.1817201,22.2457215 C84.3412855,22.2457215 84.4713359,22.3739272 84.4713359,22.5353373 C84.4713359,22.695825 84.3412855,22.8240307 84.1817201,22.8240307 L84.1195541,22.8169287 L83.8152731,23.0089606 C83.7900624,23.0255627 83.7623921,23.0339663 83.7344485,23.0369042 L83.6926014,23.0375532 L81.0121795,24.7861316 L81.0121795,30.0047501 L84.6036921,30.0047501 L84.602862,30.0173862 L89.9635213,30.0173862 L90.2033306,28.5151656 L88.8157573,28.5140588 L88.8166797,28.3554158 L90.2236221,28.3574449 L89.8351311,25.8049521 L90.6188462,24.6511006 L92.034182,24.6505472 L92.0350122,23.709757 L96.9483349,23.709757 L96.9475048,24.6505472 L101.59012,24.6511006 L102.372267,25.8049521 L101.981839,28.3701733 L103.390626,28.3793967 L103.390626,28.5380397 L102.008403,28.5354572 L102.244522,30.0173862 L107.778582,30.0167405 L107.778582,24.0408783 L106.568376,24.0408783 L106.568541,23.9715869 C106.542136,23.9861055 106.511836,23.9943922 106.479554,23.9943922 C106.376252,23.9943922 106.292318,23.9095366 106.292318,23.8071565 C106.292318,23.703854 106.376252,23.6199208 106.479554,23.6199208 C106.548002,23.6199208 106.607542,23.6567709 106.639927,23.7116889 L107.778582,23.7116017 L107.778582,23.5077638 L106.973377,22.9825815 C106.931871,22.9853486 106.888521,22.9788922 106.850705,22.9539889 L106.545409,22.7615881 L106.484258,22.7690591 C106.347488,22.7690591 106.232402,22.6748671 106.202311,22.54689 L106.194642,22.4803656 C106.194642,22.3198779 106.324693,22.1907498 106.484258,22.1907498 C106.619387,22.1907498 106.732938,22.2822951 106.765448,22.4070248 L107.07299,22.6025761 C107.123719,22.6339358 107.154156,22.6837423 107.165224,22.7381606 L107.778582,23.1231467 L107.778582,18.9661454 L106.568376,18.9661454 L106.568376,18.6368688 L107.778582,18.6368688 L107.778582,15.504591 L107.343052,15.2953113 L107.343052,14.4827268 L107.779412,14.2963212 L108.10048,14.2963212 L108.132393,13.4904699 L108.659051,13.4904699 L108.691702,14.2963212 L110.19134,14.2963212 L110.19051,18.2808443 L110.537403,18.2812133 L110.537311,18.5363334 L113.074493,18.536979 L113.074493,18.9880049 L110.537311,18.9873593 L110.537403,19.245062 L110.19051,19.2446931 L110.19051,24.6385567 L116.368365,28.518855 L116.142022,27.6061963 L116.783051,27.0371105 L117.55413,27.0371105 L117.694603,26.5002144 L118.023443,26.2219177 C117.999308,26.1646082 117.985971,26.1016252 117.985971,26.0355379 C117.985971,25.7708254 118.199955,25.5559194 118.464667,25.5559194 C118.663293,25.5559194 118.833876,25.6769146 118.906671,25.849158 L118.982194,25.8499624 L119.328995,29.0800087 L119.328165,30.0167405 L120.840808,30.0173862 L121.021587,28.1616314 L119.623315,28.1619081 L119.623315,27.780058 L121.050826,27.7798735 L121.336752,24.8256079 L123.090219,24.8255157 L123.838239,18.7620308 L124.179506,18.7620308 L124.867575,8.73615909 L125.296649,8.73551345 L125.297479,7.03379005 L127.179059,7.03379005 L127.178229,7.97458022 L129.687833,7.97458022 L129.687003,8.73551345 L130.080659,8.73615909 L131.079741,16.0199042 L134.660278,16.0199042 L134.661016,15.1989264 L134.91835,15.1989264 L135.480241,8.06404752 L133.698182,7.54366143 L133.698182,7.33244481 L136.740162,7.33170693 L136.740162,5.79508299 L136.421861,5.79508299 L136.421031,5.59401215 L135.633258,5.59401215 L135.633258,5.42153395 L138.004602,5.42153395 L138.004602,5.59401215 L137.213324,5.59401215 L137.214154,5.79508299 L136.895116,5.79508299 L136.895116,7.33170693 L138.31451,7.33244481 L138.31451,7.54366143 L137.788866,7.54292355 L136.401293,7.96895392 L137.202072,15.1989264 L138.314418,15.1989264 L138.31368,16.0199042 L144.152113,16.0192585 L144.152943,14.2972436 L145.023635,14.2972436 L145.022805,16.0192585 L145.30043,16.0192585 L145.30043,14.7621046 L145.206259,14.7621046 L145.206259,14.5785583 L145.24592,14.5785583 L145.24592,14.4392844 L145.485821,14.4392844 L145.486651,14.3839438 L145.697038,14.3839438 L145.794806,14.0011714 L145.631459,14.0011714 L145.631459,13.3785896 L145.94976,13.3785896 L145.953449,13.3638322 L145.857433,13.3638322 L145.857433,12.7523185 L146.11034,12.7512117 L145.971804,12.7504739 L145.971804,11.372493 C145.971988,11.1207855 146.176749,10.9160253 146.428548,10.9160253 C146.65319,10.9160253 146.839936,11.0778111 146.878662,11.2906105 L146.886002,11.3777841 L146.885846,12.7504739 L146.768801,12.7523185 L146.996527,12.7523185 L147.634881,12.8779417 L147.634881,12.9598458 L148.514797,12.9598458 L148.515627,12.9367872 L148.945439,12.9367872 L148.945439,13.1452368 L148.515627,13.1452368 L148.514797,13.1221782 L147.634881,13.1221782 L147.634881,13.1813926 L146.995697,13.3038798 L146.996527,13.3638322 L146.920065,13.3638322 L146.923754,13.3785896 L147.226191,13.3785896 L147.226191,14.0011714 L147.072252,14.0011714 L147.163564,14.3839438 L147.383912,14.3839438 L147.383081,14.4392844 L147.65508,14.4392844 L147.65508,14.5785583 L147.693819,14.5785583 L147.693819,14.7621046 L147.597987,14.7621046 L147.597987,16.0192585 L149.351362,16.0192585 L149.352192,14.9687095 L150.376916,14.9687095 L150.376085,16.0192585 L151.608982,16.0200886 L151.098926,18.7622153 L151.524126,18.7630454 L152.598656,27.7798735 L152.814761,27.7797813 L152.815591,26.7092174 L154.804163,26.7092174 L154.803333,27.7797813 L154.864208,27.7797813 L154.865038,26.7092174 L156.854533,26.7092174 L156.853703,27.7797813 L156.914577,27.7797813 L156.915407,26.7092174 L158.904902,26.7092174 L158.904072,27.7797813 L158.964946,27.7797813 L158.965776,26.7092174 L160.954349,26.7092174 L160.953519,27.7797813 L161.014393,27.7797813 L161.015223,26.7092174 L163.004718,26.7092174 L163.003888,27.7797813 L163.064762,27.7797813 L163.065592,26.7092174 L165.055087,26.7092174 L165.054257,27.7797813 L165.114209,27.7797813 L165.115039,26.7092174 L167.103611,26.7092174 L167.102781,27.7797813 L167.164578,27.7797813 L167.165408,26.7092174 L169.155825,26.7092174 L169.154995,27.7797813 L169.214947,27.7797813 L169.215778,26.7092174 L171.205272,26.7092174 L171.204442,27.7797813 L171.265317,27.7797813 L171.266147,26.7092174 L173.254719,26.7092174 L173.253889,27.7797813 L173.334133,27.7797813 L173.334963,26.7092174 L175.323535,26.7092174 L175.322705,27.7797813 L175.384502,27.7797813 L175.385332,26.7092174 L177.374826,26.7092174 L177.373996,27.7797813 L177.433949,27.7797813 L177.434779,26.7092174 L179.425196,26.7092174 L179.424366,27.7797813 L179.484318,27.7797813 L179.485148,26.7092174 L181.47372,26.7092174 L181.47289,27.7797813 L181.535609,27.7797813 L181.536439,26.7092174 L183.525012,26.7092174 L183.524182,27.7797813 L183.584134,27.7797813 L183.584964,26.7092174 L185.574458,26.7092174 L185.573628,27.7797813 L185.634503,27.7797813 L185.635333,26.7092174 L187.623905,26.7092174 L187.623075,27.7797813 L187.681183,27.7797813 L187.682013,26.7092174 L189.670585,26.7092174 L189.669755,27.7797813 L189.73063,27.7797813 L189.73146,26.7092174 L191.720954,26.7092174 L191.720124,27.7797813 L191.780076,27.7797813 L191.780907,26.7092174 L193.771323,26.7092174 L193.770493,27.7797813 L193.830446,27.7797813 L193.831276,26.7092174 L195.819848,26.7092174 L195.819018,27.7797813 L195.880815,27.7797813 L195.881645,26.7092174 L197.871139,26.7092174 L197.870309,27.7797813 L197.931184,27.7797813 L197.932014,26.7092174 L199.921509,26.7092174 L199.920678,27.7797813 L200,27.780058 L197.954796,42.0257426 L197.580325,43.9755763 L6.44588842,43.9755763 C6.37133234,42.8872112 6.14241186,42.3227884 6.06817603,42.1648798 L6.04466909,42.1179769 L0,32.221141 L4.68458165,32.5439612 L4.68458165,30.1744612 L4.53414746,30.1744612 L4.53414746,29.754795 L4.68458165,29.754795 L4.68458165,29.0943972 L4.53414746,29.0943972 L4.53414746,28.674731 L4.68458165,28.674731 L4.68541176,28.4330771 L4.83944309,28.4330771 L4.83861298,32.5550293 L17.6923893,33.4404789 L18.3644086,32.8395722 L18.6521797,32.8395722 L19.2804025,33.5416037 L19.8364763,33.5650164 L19.8729011,33.1867422 L20.818303,33.0493131 L21.1811055,33.0750151 C21.2289192,32.8506542 21.4429524,32.6982011 21.6731308,32.7318425 C21.88337,32.7617612 22.0368969,32.9362966 22.0485667,33.1404725 L22.1169624,33.1461591 L22.1513711,33.6593765 L24.0334783,33.7313134 L24.2271916,31.544141 L22.7428645,31.5415585 L22.7437869,31.3829154 L24.2410268,31.385498 L24.5336863,28.0981742 L27.7062706,28.0973441 L27.8033933,24.9360124 L29.8304272,24.9355513 L29.8627092,23.3149941 L28.1279659,23.3151785 L26.3044932,22.9840573 L26.2811579,22.9838728 L26.2811579,22.6804219 L28.1582188,22.6794995 L28.258293,22.3034602 L28.2910362,22.3114846 L28.3384223,22.2431933 C28.3893288,22.1737785 28.4360377,22.1257246 28.4755888,22.0925256 L28.3213813,22.093996 L27.9967165,22.0626363 L27.9765615,22.0553259 L27.9616674,22.0423448 L27.9608373,22.0034219 L26.9822311,21.9932761 L26.9830612,22.011723 L26.7995148,22.011723 L26.7995148,21.9342461 L26.9830612,21.9342461 L26.9822311,21.9517707 L27.9608373,21.9425472 L27.9616674,21.9242848 C27.9616674,21.9119869 27.9696838,21.9000534 27.978591,21.8905896 L28.0022505,21.8707889 L28.6008513,21.7951568 L29.098946,21.7954565 L29.0989167,21.7184178 L29.1496456,21.7184178 L29.1488155,21.7903606 L29.2119038,21.7518989 L29.2644773,21.6347613 L29.3065362,21.6344846 L29.3065362,21.6077366 L29.2511034,21.6077366 L29.2511034,21.4407925 L29.2630938,21.4398701 L29.2630938,21.3605486 L29.1985298,21.3609175 L29.1985298,21.2253331 L29.2962982,21.2253331 L29.2962982,21.252081 L29.3829984,21.2806737 L29.3802314,21.3609175 L29.3424153,21.3605486 L29.3424153,21.4398701 L29.3654739,21.4407925 L29.3654739,21.6077366 L29.3332841,21.6077366 L29.3331082,21.647899 C29.3613872,21.6145821 29.4090653,21.5936248 29.4658249,21.5936248 C29.476893,21.5936248 29.4870388,21.6010035 29.4870388,21.6102269 C29.4870388,21.618528 29.476893,21.6259068 29.4658249,21.6259068 C29.3966491,21.6259068 29.3459202,21.6664899 29.3459202,21.7227528 C29.3459202,21.7753264 29.3994162,21.8186765 29.4658249,21.8186765 C29.476893,21.8186765 29.4870388,21.8269776 29.4870388,21.8352787 C29.4870388,21.8445021 29.476893,21.8518809 29.4658249,21.8518809 C29.4103678,21.8518809 29.3614232,21.8294487 29.3325876,21.7950083 L29.3341143,21.8641481 L29.3073663,21.8641481 L29.3065362,21.8521576 L29.1552719,22.0034219 L29.156102,22.093996 L29.0648822,22.0938115 L29.0212775,22.1381544 C29.0252399,22.149134 29.0240224,22.161973 29.0168282,22.1724877 C29.0069313,22.1869524 28.9888655,22.1926199 28.9730041,22.1874155 L28.9633322,22.1826335 L28.9501132,22.1664711 L28.766043,22.1657543 L28.7918686,22.2056918 L28.7909463,22.6794995 L29.8368836,22.6804219 L29.2511956,19.561518 L37.8031627,19.5610568 L37.8031627,19.4331278 L37.7274383,19.4337734 L37.7274383,18.4302639 L37.8031627,18.4296183 L37.8039928,18.2743879 L38.1850128,18.2734656 L38.3288984,17.605689 L38.1756972,17.605689 L38.1756972,16.9831073 L38.4773957,16.9831073 L38.481085,16.9683498 L38.406283,16.9683498 L38.4054529,16.9083975 L37.7665457,16.7867404 L37.766269,16.7276182 L36.8854311,16.7276182 L36.8862612,16.7506768 L36.4564493,16.7506768 L36.4564493,16.5413048 L36.8862612,16.5413048 L36.8854311,16.5643634 L37.766269,16.5643634 L37.7665457,16.4832894 L38.4054529,16.3596032 L38.5152117,16.3596032 L38.5160419,14.9772873 C38.5160419,14.7254876 38.7208021,14.5216497 38.9735241,14.5216497 C39.2253239,14.5216497 39.4300841,14.7254876 39.4300841,14.9772873 L39.429254,16.3577585 L39.545377,16.3577585 L39.545377,16.9683498 L39.4467785,16.9683498 L39.4504679,16.9831073 L39.7704288,16.9831073 L39.7704288,17.605689 L39.6063439,17.605689 L39.741006,18.2734656 L40.10155,18.2743879 L40.1007199,18.4296183 L40.1781045,18.4302639 L40.1781045,19.4337734 L40.1007199,19.4331278 L40.1007199,19.5610568 L40.3774229,19.5610568 L40.378253,17.9026836 L41.2489451,17.9026836 L41.248115,19.5610568 L43.5788765,19.5613335 L43.5797066,18.562159 L44.6431684,18.562159 L44.6423383,19.5613335 L45.3007992,19.5617947 L45.3007992,18.4734296 L45.4835154,18.4726917 L45.4835154,18.1037544 L45.403825,18.1038466 L45.403825,17.460051 C45.403825,17.2386886 45.5827596,17.0615987 45.8022773,17.0615987 C45.9974041,17.0615987 46.1604653,17.2015216 46.1942921,17.3880855 L46.2007296,17.460051 L46.2007296,18.1038466 L46.11901,18.1037544 L46.11901,18.4726917 L46.4113006,18.4734296 L46.9342692,14.4197308 L44.8479286,14.0572498 L44.8479286,13.6615646 L45.3396299,13.6608267 L45.3396299,12.8897477 L45.0794368,12.8897477 L45.0786067,12.6075106 L44.5924396,12.608433 L44.5924396,12.4276537 L46.2157638,12.4276537 L46.2157638,12.608433 L45.7270141,12.6075106 L45.7278442,12.8897477 L45.4669132,12.8897477 L45.4669132,13.6608267 L47.0320376,13.6615646 L47.1916952,12.0912751 L46.6032402,11.7707608 L46.0811016,11.7709453 L46.0811016,11.560651 L48.9238559,11.5597286 L48.9238559,10.0544644 L48.6074,10.0544644 L48.6065699,9.66615784 L47.1021357,9.66615784 L47.1021357,9.3544058 L50.9012678,9.3544058 L50.9012678,9.66615784 L49.394251,9.66615784 L49.3950811,10.0544644 L49.0788096,10.0544644 L49.0788096,11.5597286 L49.816592,11.560651 L49.8166843,11.7707608 L48.0623873,12.2840448 L48.6599735,19.5617947 L48.7512855,19.5619792 L48.7504554,22.6087558 L49.4817814,22.6066344 L49.4817814,20.2814069 L52.4259935,20.2807613 L52.5207181,18.1372355 L55.6686758,18.1372355 L56.2027126,13.9802342 L56.7951337,4.69011571 L56.5998736,3.01541697 L56.6328013,2.97271247 L56.5981212,2.97326588 L56.5981212,2.25752747 L56.5922182,2.01532012 L56.5321736,2.01532012 L56.5313435,1.87512394 L56.0106807,1.54437163 L56.5313435,1.45269071 L56.5313435,1.32356264 L56.3786957,1.27089684 L56.5313435,0.77015666 L56.5321736,0.659475463 L56.5627032,0.659475463 L56.5584604,0.480171925 L56.9076596,0.479618519 L56.9084897,0.20383787 L57.2285428,0.20383787 L57.2277127,0.479618519 L57.5413095,0.479618519 L57.5421396,-7.10542736e-15 L57.8169979,-7.10542736e-15 Z M78.5953634,14.28719 L78.5953634,15.4917704 L78.1646291,15.2953113 L78.1646291,14.4827268 L78.5953634,14.28719 Z M108.596701,24.0408783 L108.294172,24.0408783 L108.294172,30.0167405 L109.67492,30.0167405 L109.67492,24.7446262 L108.596701,24.0408783 Z M110.19051,25.0803592 L110.19051,30.0167405 L116.74007,30.0167405 L116.491959,29.0187651 L116.331472,28.9141713 L116.081517,28.9243171 L110.19051,25.0803592 Z M78.6002518,26.3596493 L74.5844613,28.9792888 L74.5124263,28.9763373 L74.0623227,29.5177528 L73.9414958,30.0038277 L78.6002518,30.0047501 L78.6002518,26.3596493 Z M80.4965896,25.1218646 L79.1158417,26.022994 L79.1158417,30.0047501 L80.4965896,30.0047501 L80.4965896,25.1218646 Z M80.4965896,18.9661454 L79.1158417,18.9661454 L79.1158417,25.5479872 L80.4965896,24.6800622 L80.4965896,18.9661454 Z M109.67492,18.9661454 L108.294172,18.9661454 L108.294172,23.4468892 L108.715683,23.7116017 L109.67492,23.7116017 L109.67492,18.9661454 Z M109.67575,14.8119111 L108.295002,14.8119111 L108.294172,18.6368688 L109.67492,18.6368688 L109.67575,14.8119111 Z M80.4974197,14.8119111 L79.1166718,14.8119111 L79.1158417,18.6359465 L80.4965896,18.6359465 L80.4974197,14.8119111 Z" id="path-1"></path>
    </defs>
    <g id="Silhouettes/Auxiliary-Oiler-and-Replenishment" stroke="none" stroke-width="1" fill="none" fill-rule="evenodd">
        <mask id="mask-2" fill="white">
            <use xlink:href="#path-1"></use>
        </mask>
        <use fill="#3E5667" xlink:href="#path-1"></use>
    </g>
</svg>