<?xml version="1.0" encoding="UTF-8"?>
<svg width="200px" height="48px" viewBox="0 0 200 48" version="1.1" xmlns="http://www.w3.org/2000/svg" xmlns:xlink="http://www.w3.org/1999/xlink">
    <title>Silhouettes/Bay Class</title>
    <defs>
        <path d="M195.757035,47.3145513 L200,36.7411549 L199.769631,32.4941482 L127.211492,32.4941482 L127.288281,24.3140293 L126.054258,24.3140293 L126.054258,24.776788 L126.669922,24.8542512 L126.595827,32.4941482 L113.782059,32.5729586 L113.703248,28.481552 L113.1637,28.481552 L113.0081,32.5729586 L110.614149,32.4193793 L110.538706,22.2299311 L111.307276,22.3047 L111.46355,22.7708267 L111.849519,22.6152266 L111.92833,21.6863412 L111.387434,21.6863412 L111.387434,21.2262769 L110.459896,21.3023929 L110.538706,20.3000859 L109.920348,20.2232962 L104.517454,20.6079181 L104.283044,20.0656754 L92.3968139,19.9909065 L91.2409275,20.2232962 L90.2352525,19.6817271 L79.3540239,20.145833 L78.2749272,21.0706768 L78.5820858,21.2262769 L78.5052961,25.2388731 L79.2779078,25.2388731 L79.1977502,21.1508344 L91.8579391,21.9968678 L91.8579391,25.1634306 L92.4749507,25.1634306 L92.3968139,21.9207517 L93.9427109,22.2299311 L93.8639004,24.6966303 L94.7914386,25.7016318 L94.4836064,32.4941482 L97.1072529,32.4193793 L97.0277689,22.074331 L97.5700116,22.1544887 L97.6461277,22.5377633 L98.1876968,22.5377633 L98.3446441,21.6863412 L104.90275,22.2299311 L108.298335,22.3848576 L108.452587,26.0135055 L107.990502,32.5729586 L76.3437347,32.5729586 L76.3437347,31.5693043 L75.2639644,31.5693043 L75.4175437,31.1840089 L76.3437347,31.1840089 L76.3437347,30.4127444 L75.185154,30.1810282 L75.185154,29.6408063 L76.5741037,29.6408063 L76.731051,29.407743 L75.185154,29.3316269 L75.1083643,26.4728963 L76.3437347,26.2411801 L76.4205244,25.9333479 L74.954785,25.8572319 L75.0322483,22.6899955 L76.2676187,22.6152266 L76.1874611,22.3047 L74.7230689,22.3047 L74.6442585,19.295758 L76.0332082,19.1421787 L74.5694896,18.9104626 L74.5694896,15.9789839 L74.7978378,15.5923412 L73.0235926,15.514878 L72.6362764,11.8848829 L65.4584645,11.7339979 L65.3836957,8.79847768 L64.1456309,2.70380412 L63.144671,2.70380412 L60.9831096,8.72236162 L59.7463921,8.79847768 L59.6682552,10.0338481 L57.201556,10.1133321 L57.1227456,11.7339979 L43.4602496,11.810114 L43.5377128,0 L42.9968173,0 L41.0656248,9.57108937 L33.2694542,9.57108937 L34.1195292,12.8124211 L33.5038647,12.8892107 L33.5038647,13.2758534 L33.9666234,13.2758534 L32.5776737,27.9406564 C32.5776737,27.9406564 32.961622,28.5563208 32.4220737,28.7907314 C31.8818517,29.0211003 31.8037149,27.555361 31.8037149,27.555361 L32.1917047,27.6328242 L32.2658,26.8608861 L30.0281225,26.7066332 L30.0281225,27.555361 L30.2605123,27.4765505 L30.2605123,29.3316269 L19.2216628,29.0211003 L19.3018204,32.5729586 C19.3018204,32.5729586 18.9899466,33.0363909 18.4517454,32.5729586 C17.9121971,32.1075055 17.4480912,31.336241 17.4480912,31.336241 L0,31.2614721 L9.41751006,47.0067191 L195.757035,47.3145513" id="path-1"></path>
    </defs>
    <g id="Silhouettes/Bay-Class" stroke="none" stroke-width="1" fill="none" fill-rule="evenodd">
        <mask id="mask-2" fill="white">
            <use xlink:href="#path-1"></use>
        </mask>
        <use fill="#3E5667" xlink:href="#path-1"></use>
    </g>
</svg>