<?xml version="1.0" encoding="UTF-8"?>
<svg width="200px" height="56px" viewBox="0 0 200 56" version="1.1" xmlns="http://www.w3.org/2000/svg" xmlns:xlink="http://www.w3.org/1999/xlink">
    <title>Silhouettes/Clyde Class</title>
    <defs>
        <path d="M109.779279,3.55271368e-15 L111.67165,18.3297492 L113.029365,18.3294166 L113.617416,17.4828033 L114.065193,17.383011 L114.065193,18.1802448 L114.062508,18.3294166 L121.678666,18.3294166 L122.483466,16.6362257 L124.027117,17.4828033 L123.728845,18.2800371 L123.714103,18.3294166 L124.724558,18.3297492 L127.214947,27.4944396 L128.609462,27.4944396 L128.609462,26.9965828 L130.104138,26.9965828 L130.104138,29.8854045 L129.879881,29.8854045 L129.879881,32.6994742 L131.598445,34.4176695 L136.628935,34.4176695 L138.471962,32.5750099 L138.471962,27.4944396 L138.621467,27.5942319 L138.820683,25.4024834 L139.019531,23.5598238 L139.61718,23.4600315 L139.916557,25.0036824 L139.916557,27.0462948 L140.563919,27.693656 L140.563919,29.2877554 L142.058594,29.2877554 L142.058594,31.4791357 L140.563919,31.4791357 L140.563919,32.5750099 L142.456658,34.4677498 L144.947047,34.4677498 L144.947047,35.8626327 L146.042554,35.8626327 L146.042554,39.2493114 L145.04684,39.2493114 L145.04684,41.3412676 L146.953133,41.3408637 L146.952943,38.1451577 L146.889499,38.1453359 L146.889499,37.7494808 L162.81246,37.7490736 C162.764673,37.6755933 162.7434,37.5608338 162.792565,37.3816117 C162.842277,37.2100131 162.817605,37.032891 163.226716,36.9279433 C163.439926,36.8752854 164.560472,36.9279433 164.560472,36.9279433 L164.589083,36.9424196 C164.631033,36.9664545 164.703918,37.0201878 164.700215,37.101892 L164.829653,37.1021196 L164.521617,37.7487799 L164.695901,37.7489425 L164.763643,37.6066945 C164.830817,37.4721201 164.894165,37.3671508 164.934601,37.351048 C165.126521,37.270663 165.334071,37.2036433 165.540575,37.1484303 L165.468545,36.6952173 L165.637198,36.6646536 L165.792226,37.0549852 L165.806222,37.0833702 C166.293848,36.9742691 166.733638,36.9297335 166.89271,36.9279964 L166.896201,36.9054808 L168.188398,35.4973425 L168.52834,35.1343253 C168.60276,35.0557523 168.66749,34.9882874 168.718549,34.9363676 L168.794833,34.860659 C169.08795,34.5730656 169.173749,34.5730656 169.840627,34.4316625 C170.474511,34.2899832 171.709728,34.3897847 172.062871,34.3033438 L172.111084,34.2880851 L172.674213,33.8921948 C173.058801,33.6886877 173.942048,33.3863007 175.255093,33.3102559 L175.248453,33.0850305 L174.896157,33.0898057 L174.894922,33.0395591 L174.268312,33.0566644 L174.264559,32.9411923 L162.703819,32.1069803 L162.692772,31.9803067 L174.254664,32.6321224 L174.254319,32.6221443 L174.882532,32.6055736 L174.882532,32.5554934 L175.489109,32.5470239 L176.415873,32.5113049 L176.421028,32.5665405 L177.043717,32.5473921 L177.045024,32.5995274 L188.29484,30.1810991 L188.300364,30.3114551 L177.057342,32.9067918 L177.054337,32.893464 L177.057342,32.9793345 L176.432122,32.9982334 L176.434284,33.0507726 L176.064491,33.0629125 L176.070293,33.2931676 C177.461095,33.3109456 178.840718,33.5517953 179.763518,33.8063955 C180.338461,33.9668736 181.265142,34.3089998 181.965199,34.5773447 L182.915261,34.9494042 L192.832997,35.6299068 L193.037737,35.383556 L193.137876,35.3890187 C193.275413,35.3941717 193.524915,35.394858 193.693936,35.3448911 C193.854524,35.2982354 193.91497,35.2625864 193.936785,35.2453959 L193.948388,35.2340516 L195.771531,33.6789854 L195.749584,33.639749 C195.728619,33.5973981 195.698731,33.5228679 195.688418,33.4265349 L193.430646,33.4771914 L193.419231,32.8961129 L195.362051,32.8515562 L195.752382,33.0150535 L195.753392,33.0650032 C195.840076,32.9132104 196.084129,32.7988963 196.459988,32.7547601 L196.454765,32.3333631 L196.432885,32.3341827 L196.374704,30.0069229 L196.961674,29.9929298 L196.997761,31.93575 L196.83721,32.3286592 L196.778969,32.3287067 L196.784385,32.7351335 C196.904485,32.7338737 197.033726,32.7384459 197.171569,32.7495544 C197.491045,32.7762968 198.07697,32.8985649 198.449484,32.9812342 L199.850127,32.9509802 L199.861543,33.5379505 L198.925968,33.5552311 C198.796547,33.586207 198.616542,33.6157837 198.420394,33.6419991 L196.36918,36.86387 L196.296334,36.924968 C196.227541,36.9787012 196.116275,37.0561636 195.989896,37.1076431 C195.838148,37.1745907 195.630058,37.1866943 195.523102,37.1881268 L184.758289,37.1768718 L184.44179,37.370328 L184.077531,37.5851709 L183.789322,37.7493994 L183.789322,37.7493994 L200,37.7494808 L200,38.1453359 L199.570493,38.1451577 L199.570683,41.3408637 L199.662326,41.3412676 L199.662326,42.7361506 L197.254791,42.7361506 L197.254791,45.5251801 L197.545698,45.5251801 L197.545698,49.0120193 L195.254157,55.1884639 L11.4562313,55.3876803 L12.5517373,53.8933732 L12.4523133,53.1959317 L1.79331576,40.6441944 L2.29117261,40.0465452 L2.29117261,39.2493114 L0.996081955,39.1495191 L0,37.555788 L34.8661113,38.2513289 L34.8665508,37.3936091 L38.4524458,37.3936091 L38.452137,38.3229213 L42.7354616,38.408483 L42.7357824,35.0653989 L44.1306653,35.0653989 L44.1306416,38.4364216 L49.9086771,38.5518699 L51.1039755,34.5675421 L53.7106443,34.5040746 L53.5943645,33.073235 L52.4988585,32.9237307 L52.7481551,32.1268651 L55.686689,32.2262892 L55.8361933,32.8243066 L55.7134415,32.8464049 L55.5168545,32.8881788 C55.2134265,32.9583239 54.7767745,33.0862625 54.5911829,33.2720832 C54.3705894,33.4924054 54.4209002,33.9832321 54.4626561,34.2263041 L54.4913906,34.3683257 L54.5342487,34.4837028 L59.2729522,34.3683257 L59.2729522,32.8736504 L61.3649085,32.674434 L61.1653238,31.9769925 L67.7405694,32.0767848 L66.6443269,28.1918811 L74.1162304,25.4024834 L80.9897483,25.4024834 L82.6829035,21.9160124 L101.012653,22.1152288 L103.303825,18.827606 L103.204401,18.2299568 L104.897925,18.1301645 L106.790664,0.0994240768 L109.779279,3.55271368e-15 Z M161.571775,38.1445757 L161.571965,41.3408637 L165.950164,41.3408637 L165.951153,40.1736577 C165.839246,40.2148915 165.692685,40.2362367 165.501318,40.2259087 L164.726477,40.1915634 L164.513193,40.1797288 L164.324386,40.1642966 C164.030763,40.1344433 163.844066,40.0810885 163.789015,39.9616754 C163.67447,39.713242 163.675535,39.4195822 163.689802,39.2470469 L163.620788,39.2487064 C163.499181,39.2481177 163.274855,39.2302285 163.135393,39.1219013 C162.928444,38.9672416 163.022345,38.3279816 163.022345,38.3279816 L163.309784,38.3279222 L163.309784,38.1451577 L161.571775,38.1445757 Z M194.446102,38.1451577 L190.068485,38.1451577 L190.068093,41.3408637 L194.44571,41.3408637 L194.446102,38.1451577 Z M199.197397,38.1451577 L194.819198,38.1451577 L194.819388,41.3408637 L199.197587,41.3408637 L199.197397,38.1451577 Z M184.943512,38.1451577 L183.040244,38.1454418 L182.860394,38.2311352 L182.459531,38.4093788 C181.975958,38.6193312 181.389407,38.8586346 180.848589,39.0669527 C180.880078,39.2428926 180.88917,39.4506308 180.7596,39.4459501 L180.569153,39.4321119 L180.568996,41.3408637 L184.943702,41.3408637 L184.943512,38.1451577 Z M180.194736,41.3408637 L180.192996,39.3119459 L179.907131,39.4124405 L179.897609,39.4900392 L179.877587,39.5910641 C179.8272,39.8043913 179.693657,40.152996 179.346321,40.3175417 C179.357993,40.3625791 179.364607,40.4111114 179.365453,40.4611804 C179.379446,40.8073235 179.099586,41.0893933 178.756389,41.0978628 C178.413192,41.105964 178.127808,40.8294177 178.119707,40.4862206 C178.116724,40.3928614 178.134492,40.3039315 178.168901,40.223729 C177.90968,40.0529663 177.937607,39.8208011 177.95031,39.759783 L177.954,39.7445906 L177.993945,39.7377656 L177.643815,39.7593828 L177.263537,39.7783126 L177.263537,39.7783126 L177.267974,40.2172634 L176.819092,40.2314003 L176.814567,39.7964408 L176.421028,39.8112415 C176.24226,39.817208 176.041695,39.8219779 175.823586,39.8257398 L175.822939,41.3408637 L180.194736,41.3408637 Z M171.612996,39.8292766 L171.594909,39.8927764 L171.071454,39.8924795 L171.071644,41.3408637 L175.449261,41.3408637 L175.450818,39.8310368 L174.824415,39.8360879 L173.662962,39.8377596 C172.992111,39.8367777 172.289918,39.8331135 171.612996,39.8292766 Z M189.694807,38.1451577 L185.31719,38.1451577 L185.316798,41.3408637 L189.694415,41.3408637 L189.694807,38.1451577 Z M151.696089,38.1451577 L147.327203,38.1451577 L147.326811,41.3408637 L151.695697,41.3408637 L151.696089,38.1451577 Z M156.446802,38.1451577 L152.069767,38.1451577 L152.069375,41.3408637 L156.446992,41.3408637 L156.446802,38.1451577 Z M161.198679,38.1445757 L156.821062,38.1451577 L156.82067,41.3408637 L161.198287,41.3408637 L161.198679,38.1445757 Z M166.323218,39.6279351 L166.322678,41.3408637 L170.697967,41.3408637 L170.69842,41.105607 C170.651864,41.1223785 170.601593,41.1322477 170.548747,41.13395 C170.294295,41.1365277 170.083664,40.9347336 170.075562,40.6773357 C170.070417,40.4375813 170.248018,40.2339287 170.480403,40.2047556 L170.47485,39.8924795 L169.965091,39.8927764 L169.939369,39.8205171 L168.918561,39.8193428 C167.966785,39.8217757 167.011723,39.7597669 166.323218,39.6279351 Z" id="path-1"></path>
    </defs>
    <g id="Silhouettes/Clyde-Class" stroke="none" stroke-width="1" fill="none" fill-rule="evenodd">
        <mask id="mask-2" fill="white">
            <use xlink:href="#path-1"></use>
        </mask>
        <use fill="#3E5667" xlink:href="#path-1"></use>
    </g>
</svg>