<?xml version="1.0" encoding="UTF-8"?>
<svg width="200px" height="62px" viewBox="0 0 200 62" version="1.1" xmlns="http://www.w3.org/2000/svg" xmlns:xlink="http://www.w3.org/1999/xlink">
    <title>Silhouettes/Coalition</title>
    <defs>
        <path d="M7.303403,61.6726779 L195.931487,61.6726779 L200,52.1352147 L196.612993,52.1352147 L195.217536,52.635026 L144.399759,52.635026 L143.803969,43.468045 L112.950728,43.468045 L112.950728,38.9754773 L115.382781,36.2422093 L111.394552,36.0418019 L110.823361,32.5396514 L106.363842,32.5396514 L106.363842,31.2370029 L106.845243,30.6855806 L106.845243,28.9818154 L106.363842,28.3792349 L104.21746,28.3792349 L104.023995,27.9752509 L102.606051,27.9752509 L102.606051,30.6855806 L103.651702,31.2370029 L103.45386,32.0941674 L103.103901,32.0941674 L103.45386,33.0222591 L106.845243,35.8011016 L106.845243,36.9952464 L105.83898,38.9754773 L105.83898,42.4485022 L103.651702,42.4485022 L103.45386,38.9754773 L102.606051,38.6961443 L100.239795,38.6961443 L99.7464725,40.7249679 L98.6368369,40.7249679 L98.1311401,38.4998114 L94.8743681,38.4998114 L94.8743681,42.4485022 L92.7210443,42.4485022 L92.2666566,39.338263 L91.3281521,39.338263 L91.3281521,37.9728363 C91.6205136,37.345054 91.6205136,36.8662693 91.3281521,36.5364823 C90.8896099,36.0418019 89.7887271,35.4847959 88.98755,36.2422093 C88.4534319,36.7471516 88.4534319,37.3240273 88.98755,37.9728363 L88.7224025,39.338263 L83.4411831,39.338263 L82.9707991,32.5396514 L85.2881612,28.3792349 L82.3237003,27.9752509 L81.2087829,21.1650192 L81.2087829,17.8039689 L82.9707991,16.706557 L81.6962197,15.2976685 L81.6962197,12.0413491 L81.2087829,9.28091753 L81.2087829,0 L80.0030182,0 L80.0030182,9.28091753 L78.5078096,9.28091753 L78.0188637,12.0413491 L79.4914359,12.0413491 L79.4914359,15.2976685 L78.5078096,16.706557 L79.4914359,18.7888025 L79.4914359,21.1650192 L78.5078096,22.6457406 L78.5078096,27.9752509 L73.2815212,27.9752509 L73.2815212,26.2114238 L72.261073,24.9561609 L71.0039991,26.2114238 L71.0039991,27.9752509 L70.3861767,27.9752509 L70.3861767,29.3910813 C72.6047436,29.4315249 75.1489726,30.0468322 78.0188637,31.2370029 L76.7252698,38.9754773 L73.8422999,38.9754773 C73.0215549,38.578586 72.2403481,38.2443723 71.4986795,37.9728363 C70.757011,37.7013003 70.757011,36.8052516 71.4986795,35.2846903 L69.9050781,35.2846903 L69.4137176,38.9754773 L54.3342639,39.338263 C54.0807364,45.9616691 52.8632008,49.2733721 50.681657,49.2733721 C48.5001132,49.2733721 43.9262557,49.2733721 36.9600845,49.2733721 L36.9600845,47.2626575 L35.0181846,46.2811439 L31.5016977,46.7993662 L24.7844262,45.7128197 L24.7844262,46.2811439 L30.7142534,47.2626575 L28.8134007,48.8257753 L28.8134007,50.8084207 L0,50.8084207 C4.26298448,55.6089942 6.53170351,58.4686486 6.8061571,59.387384 C7.08061068,60.3061194 7.24635931,61.067884 7.303403,61.6726779 Z" id="path-1"></path>
    </defs>
    <g id="Silhouettes/Coalition" stroke="none" stroke-width="1" fill="none" fill-rule="evenodd">
        <mask id="mask-2" fill="white">
            <use xlink:href="#path-1"></use>
        </mask>
        <use id="Path-14" fill="#3E5667" xlink:href="#path-1"></use>
    </g>
</svg>