<?xml version="1.0" encoding="UTF-8"?>
<svg width="200px" height="86px" viewBox="0 0 200 86" version="1.1" xmlns="http://www.w3.org/2000/svg" xmlns:xlink="http://www.w3.org/1999/xlink">
    <title>Silhouettes/Costal Survey Ship</title>
    <defs>
        <path d="M69.3269947,-4.26325641e-14 C69.4514866,-4.26325641e-14 69.5557745,0.0865033919 69.5830304,0.202682082 L69.5899759,0.262981276 L69.5899759,15.2194437 C69.5899759,15.3439356 69.5034725,15.4482235 69.3872939,15.4754794 L69.3269947,15.4824249 L68.1934356,15.4824249 L68.1929259,20.6968966 C68.2588784,20.5761927 68.3769257,20.4880296 68.5168408,20.4626343 L68.60021,20.4551618 L70.7710009,20.4551618 C70.9986912,20.4551618 71.1880607,20.6192324 71.2273318,20.8355959 L71.2348043,20.9189651 L71.2346287,26.8309466 C71.268868,26.8015861 71.3101081,26.7801572 71.355501,26.7695079 L71.4212819,26.7619309 C71.5570913,26.7619309 71.6708599,26.8562983 71.7005936,26.9830387 L71.7081706,27.0488196 L71.7081706,29.4873733 C71.7081706,29.6231826 71.6138032,29.7369513 71.4870629,29.766685 L71.4212819,29.7742619 L71.2344555,29.7742619 L71.2348043,30.4245429 C71.2348043,30.6522331 71.0707337,30.8416026 70.8543702,30.8808738 L70.7710009,30.8883462 L68.60021,30.8883462 C68.4248886,30.8883462 68.2722874,30.7910688 68.1934369,30.6475441 L68.1934356,34.9325201 L69.5609383,34.9325201 L69.5612871,32.9013484 C69.5612871,32.7768565 69.6477905,32.6725685 69.7639692,32.6453126 L69.8242683,32.6383671 L70.7327491,32.6383671 C70.857241,32.6383671 70.961529,32.7248705 70.9887849,32.8410492 L70.9957304,32.9013484 L70.9957304,35.1868947 C70.9957304,35.2890106 70.9375284,35.3775327 70.8524876,35.4210979 L70.8522861,35.8371757 C70.8522861,35.9289351 70.8047097,36.0122273 70.7296853,36.0595777 L70.6685849,36.0879222 L68.1934356,36.8699749 L68.1934356,40.4025307 L68.3846947,40.4025307 L68.3850435,40.2170093 C68.3850435,39.9608578 68.5926954,39.753206 68.8488469,39.753206 C69.0066396,39.753206 69.146028,39.8320041 69.2298087,39.9523968 L78.1838478,39.9523968 C78.2676286,39.8320041 78.407017,39.753206 78.5648097,39.753206 C78.7924999,39.753206 78.9818694,39.9172766 79.0211405,40.1336401 L79.028613,40.2170093 L79.0282642,49.5925309 L80.6204963,49.5925309 L80.620455,46.0310175 C79.8878249,45.562907 79.3900993,44.7986513 79.3349509,43.9187056 L79.3298461,43.7553029 L79.3298461,43.296281 C79.3298461,42.0592542 80.2026581,41.0227446 81.3971348,40.665667 L82.2625315,30.3951418 C82.2840508,30.1398958 82.5084134,29.9504228 82.7636594,29.9719421 C82.8762017,29.9814303 82.9759573,30.0303529 83.0504781,30.1039698 L87.0677128,30.1027514 C87.1480749,29.9871194 87.279919,29.9093503 87.4314711,29.9036855 C87.6240272,29.896488 87.7935464,30.0077404 87.8697965,30.1722715 C87.9576908,30.2531789 87.9740027,30.3944785 87.9191179,30.4986808 L88.2796108,40.1278307 C88.289647,40.1556769 88.2951169,40.1857043 88.2951169,40.2170093 C88.2951169,40.2421261 88.2915958,40.2664205 88.2850203,40.2894258 L88.3062534,40.8427204 C89.2035411,41.2745462 89.8377849,42.116642 89.909297,43.1085969 L89.9160378,43.296281 L89.9160378,43.7553029 C89.9160378,44.6997094 89.4073159,45.5272437 88.6351211,46.0247986 L88.634253,49.5925309 L122.702282,49.5925309 L122.702631,44.7498502 C122.702631,44.4936987 122.910283,44.2860469 123.166434,44.2860469 C123.394124,44.2860469 123.583494,44.4501175 123.622765,44.666481 L123.630237,44.7498502 L123.629889,49.5925309 L132.867704,49.5925309 L132.868052,42.875511 C132.868052,42.6193594 133.075704,42.4117076 133.331856,42.4117076 C133.559546,42.4117076 133.748916,42.5757782 133.788187,42.7921417 L133.795659,42.875511 L133.79531,49.5925309 L135.540898,49.5934872 C135.768589,49.5934872 135.957958,49.7575578 135.997229,49.9739213 L136.004702,50.0572905 L136.004353,63.9666093 L147.891107,63.9666093 L147.891456,61.0642523 C147.891456,60.8081008 148.099107,60.600449 148.355259,60.600449 C148.582949,60.600449 148.772319,60.7645195 148.81159,60.9808831 L148.819062,61.0642523 L148.818713,63.9666093 L150.293321,63.9666093 L151.498143,62.8894707 C151.561931,62.8323695 151.639833,62.7944153 151.722954,62.779007 L151.807486,62.7712399 C155.04599,62.7712399 158.061093,62.8731916 160.859789,63.0650473 L160.858823,61.2268225 C160.858823,60.970671 161.066475,60.7630192 161.322627,60.7630192 C161.550317,60.7630192 161.739686,60.9270898 161.778957,61.1434533 L161.78643,61.2268225 L161.787174,63.1325043 C164.404499,63.3339868 166.82658,63.615659 169.059442,63.9671404 L169.847653,63.9666093 L169.848001,63.5984355 C169.848001,63.3707453 170.012072,63.1813758 170.228435,63.1421047 L170.3258,63.1336759 L170.3258,58.3722803 L170.244864,58.3722803 C170.017174,58.3722803 169.827804,58.2082098 169.788533,57.9918462 L169.781061,57.908477 L169.780712,56.6117402 L169.087746,56.6126965 C168.873246,56.6126965 168.692754,56.4670836 168.639729,56.269314 L167.328163,56.2684301 C167.100472,56.2684301 166.911103,56.1043595 166.871832,55.887996 L166.864359,55.8046268 L166.864359,53.9015986 C166.864359,53.6739084 167.02843,53.4845389 167.244793,53.4452678 L167.328163,53.4377953 L168.628018,53.4382024 C168.654438,53.2396144 168.806517,53.0807349 169.001699,53.044118 L169.087746,53.0361512 L172.906842,53.0351949 L169.871909,50.0094758 L170.818641,49.0723061 L174.790744,53.0351949 L176.694729,53.0351949 L176.695077,52.2854592 C176.695077,52.0577689 176.859148,51.8683994 177.075512,51.8291283 L177.158881,51.8216558 L191.120796,51.8216558 C191.348486,51.8216558 191.537856,51.9857264 191.577127,52.2020899 L191.584599,52.2854592 L191.58425,53.4377953 L193.970557,53.4377953 C194.198247,53.4377953 194.387616,53.6018659 194.426887,53.8182294 L194.43436,53.9015986 L194.43436,55.8046268 C194.43436,56.032317 194.270289,56.2216865 194.053926,56.2609576 L193.970557,56.2684301 L191.568813,56.269314 C191.522416,56.4423624 191.378428,56.5754783 191.199457,56.6060534 L191.120796,56.6126965 L185.119692,56.6117402 L181.245739,59.4968839 L186.065197,64.326624 L186.545502,64.2867452 C187.269187,64.2263287 187.904827,64.7640142 187.965244,65.4876994 C188.02566,66.2113846 187.487975,66.8470246 186.764289,66.9074412 L186.065469,66.9636395 L185.888554,77.7554348 L199.536197,77.7563911 C199.763887,77.7563911 199.953256,77.9204617 199.992528,78.1368252 L200,78.2201945 L200,79.6833266 C200,79.9110169 199.835929,80.1003864 199.619566,80.1396575 L199.536197,80.14713 L196.683218,80.1461737 L186.406223,83.2016519 L186.415786,82.32186 L194.069662,80.1461737 L185.849346,80.1461737 L185.808575,83.0092745 L185.779823,84.7592954 C185.776134,84.9843207 185.61264,85.1697561 185.398532,85.2081859 L185.316082,85.2154964 L24.5436741,85.2154964 C24.4320761,85.2154964 24.3252197,85.1753126 24.2418455,85.1038533 L24.1840106,85.0445338 L22.7591302,83.294513 C22.7450318,83.2771975 22.7324431,83.2593902 22.7213105,83.2412039 L16.12823,75.1804403 L6.77439767,63.7323169 L6.26735686,63.7369803 C5.5412193,63.7467097 4.94468126,63.1659462 4.93483138,62.4398086 C4.93349291,62.3386619 4.94360936,62.2400298 4.96397801,62.145148 L4.93100866,62.1190463 L3.86569542,62.2194573 L5.62284485,63.976694 C5.79707467,64.1509239 5.65793684,64.4199242 5.44963162,64.4272807 L5.39128969,64.4225322 L5.33061879,64.403203 L0.157059866,62.1176566 C-0.0813756922,62.0123219 -0.0323270045,61.6769921 0.196535686,61.6218353 L0.263330088,61.6141222 L1.83069849,61.6131659 L2.03173408,60.482815 C2.03918941,60.4407669 2.05662234,60.4018385 2.08185225,60.3688784 L2.12527229,60.3242705 L2.17875234,60.2907518 L4.27303959,59.3057674 L4.44595211,59.2879307 L7.54517188,60.0266716 L7.5455207,52.6297256 C7.5455207,52.373574 7.75317252,52.1659222 8.00932404,52.1659222 C8.16711672,52.1659222 8.30650512,52.2447203 8.39028588,52.3651131 L17.8415987,52.3651131 C17.9253794,52.2447203 18.0647678,52.1659222 18.2225605,52.1659222 C18.3803532,52.1659222 18.5197416,52.2447203 18.6035223,52.3651131 L28.0548351,52.3651131 C28.1386159,52.2447203 28.2780043,52.1659222 28.435797,52.1659222 C28.5935897,52.1659222 28.7329781,52.2447203 28.8167588,52.3651131 L38.2776346,52.3651131 C38.3614153,52.2447203 38.5008037,52.1659222 38.6585964,52.1659222 C38.8862866,52.1659222 39.0756561,52.3299928 39.1149272,52.5463563 L39.1223997,52.6297256 L39.1224363,61.7516101 L39.1991393,61.7552976 L39.1989034,61.561526 C39.1989034,59.9069575 40.8979726,58.1545151 42.5571338,58.043176 L42.7228525,58.0375769 L42.9150679,58.0366206 L44.250664,56.4156996 L45.629353,53.7552385 C45.6824865,53.6526475 45.770795,53.5755101 45.875112,53.5354841 L45.9560519,53.5126052 L46.041198,53.504736 L46.2655787,53.504736 L46.2659275,52.9453031 C46.2659275,52.7176129 46.4299981,52.5282434 46.6463616,52.4889722 L46.7297308,52.4814997 L47.1491958,52.4814997 L41.949358,44.9659245 C41.7517266,44.680277 41.9274565,44.2976687 42.2530706,44.2444677 L42.3307713,44.2382321 L46.7255568,44.2372758 L53.567244,43.516229 L54.0593874,43.5152727 L54.0985098,43.4641545 L55.5965032,41.9651176 L59.5963386,35.8926409 L59.5966874,33.0543557 C59.5966874,32.9298638 59.6831908,32.8255758 59.7993695,32.7983199 L59.8596687,32.7913744 L61.6399422,32.7913744 L65.8074782,26.464523 L64.4869228,26.0568699 C64.3988009,26.0296091 64.3331068,25.9589693 64.3103541,25.8727688 L64.3016615,25.8056354 L64.3011053,25.3982554 C64.2250007,25.3665847 64.1669745,25.3001894 64.1468082,25.218851 L64.1390913,25.1553544 L64.1390913,22.8698081 C64.1390913,22.7453162 64.2255947,22.6410282 64.3417734,22.6137723 L64.4020726,22.6068268 L65.3392422,22.6068268 C65.4637341,22.6068268 65.5680221,22.6933302 65.595278,22.8095089 L65.6022235,22.8698081 L65.6018747,24.9009798 L66.8374085,24.9009798 L67.1947928,24.3604005 C67.2141274,24.331051 67.2383335,24.3068389 67.2656399,24.2881288 L67.2671175,21.8296595 C67.2142186,21.8892907 67.1356471,21.9230551 67.0538055,21.917867 L66.9921612,21.9064678 L64.3432225,21.0840537 C64.255204,21.0567266 64.1896117,20.986114 64.1668955,20.8999777 L64.1582172,20.8328985 L64.1575138,20.4292246 C64.0774309,20.3994827 64.0157656,20.3318477 63.9943028,20.2481047 L63.986084,20.1826176 L63.986084,17.8970712 C63.986084,17.7725793 64.0725874,17.6682914 64.1887661,17.6410355 L64.2490653,17.6340899 L65.1862349,17.6340899 C65.3107268,17.6340899 65.4150148,17.7205933 65.4422707,17.836772 L65.4492162,17.8970712 L65.4488674,19.9291992 L67.2658289,19.9291992 L67.2658289,15.4824249 L65.4826866,15.4824249 C65.337446,15.4824249 65.2197053,15.3646842 65.2197053,15.2194437 C65.2197053,15.0949518 65.3062087,14.9906638 65.4223874,14.9634079 L65.4826866,14.9564624 L67.2658289,14.9564624 L67.2661778,4.15510416 C67.2661778,3.92741393 67.4302483,3.73804443 67.6466119,3.69877331 L67.7299811,3.69130082 C67.9576713,3.69130082 68.1470408,3.8553714 68.1863119,4.07173492 L68.1937844,4.15510416 L68.1934356,14.9564624 L69.0630571,14.9564624 L69.0640134,0.262981276 C69.0640134,0.138489378 69.1505168,0.0342014288 69.2666955,0.00694552296 L69.3269947,-4.26325641e-14 Z M147.891107,64.4925718 L136.004353,64.4925718 L136.004552,66.9980656 C139.773513,66.89705 143.551375,66.7715087 147.328362,66.6234438 L147.891107,66.117318 L147.891107,64.4925718 Z M149.705199,64.4925718 L148.818713,64.4925718 L148.818713,65.2862972 L149.705199,64.4925718 Z M180.173732,60.2944344 L177.153751,62.5436415 L177.153751,62.8027976 L177.394737,63.1336759 L177.627466,63.1346322 C177.855156,63.1346322 178.044525,63.2987027 178.083796,63.5150663 L178.091269,63.5984355 L178.09092,64.9324678 L179.187061,64.8563027 C181.119468,64.7166718 182.824869,64.5869008 184.351292,64.4654978 L180.173732,60.2944344 Z M4.41269648,59.8201118 L2.52496906,60.7085104 L2.31054534,61.9230153 C2.29570249,62.006729 2.24224408,62.0752998 2.17046797,62.1117121 L2.11351847,62.1327257 L2.05160276,62.1400848 L1.51033948,62.1400848 L4.25490771,63.3526676 L3.09926818,62.1969407 C2.97338385,62.0710564 3.01030996,61.8734043 3.14354849,61.7886657 L3.19789771,61.7625423 L3.26049694,61.7491687 L4.98182893,61.5865985 L5.16326812,61.6372264 L5.18340508,61.6526608 C5.41873345,61.3271489 5.7996446,61.1131983 6.23212359,61.1074036 L7.54517188,61.0977226 L7.54517188,60.5669786 L4.41269648,59.8201118 Z M42.9309761,58.9642273 L42.7228525,58.9651836 C41.5697836,58.9651836 40.2298577,60.2624032 40.1321856,61.4277316 L40.1265101,61.561526 L40.127598,61.8008728 L40.6689458,61.8282555 C40.8549253,60.5099057 41.6066481,59.4703223 42.596054,59.3824159 L42.7167659,59.377347 L42.9309761,58.9642273 Z M38.1944442,59.8057674 L28.8992515,59.8057674 L28.9001885,61.3588091 C32.0306924,61.450923 35.1353375,61.5666999 38.1958369,61.707987 L38.1944442,59.8057674 Z M27.9716448,59.8057674 L18.686015,59.8057674 L18.6850353,61.1407654 L20.8635621,61.1738625 C21.602252,61.1863087 22.3531814,61.2001962 23.1155263,61.2156067 C24.7392126,61.2484288 26.3590212,61.2872169 27.9724605,61.3322226 L27.9716448,59.8057674 Z M17.7584084,59.8057674 L8.47277857,59.8057674 L8.47277857,60.2475759 L11.6659835,61.0092627 C11.7206649,61.0222994 11.7651107,61.0497534 11.7982549,61.0856543 L14.2527489,61.0963726 C15.3780213,61.1036156 16.54795,61.1142897 17.7577681,61.1288971 L17.7584084,59.8057674 Z M8.47277857,60.7888392 L8.47277857,61.0910286 L9.71545012,61.0860509 L8.47277857,60.7888392 Z M176.4853,56.6117402 L173.491139,56.6117402 L173.491139,57.4351107 L175.66706,57.4351107 C175.89475,57.4351107 176.084119,57.5991813 176.123391,57.8155448 L176.130863,57.898914 L176.130514,58.8599911 L176.690296,58.8599911 C176.917986,58.8599911 177.107356,59.0240616 177.146627,59.2404252 L177.154099,59.3237944 L177.153751,60.28009 L178.876039,58.9986539 L176.4853,56.6117402 Z M27.9716448,56.3535404 L18.686015,56.3535404 L18.686015,59.2798048 L27.9716448,59.2798048 L27.9716448,56.3535404 Z M17.7584084,56.3535404 L8.47277857,56.3535404 L8.47277857,59.2798048 L17.7584084,59.2798048 L17.7584084,56.3535404 Z M38.1944442,56.3535404 L28.8992515,56.3535404 L28.8992515,59.2798048 L38.1944442,59.2798048 L38.1944442,56.3535404 Z M182.083454,56.6117402 L178.36729,56.6117402 L179.950915,58.1991908 L182.083454,56.6117402 Z M27.9716448,52.8917505 L18.686015,52.8917505 L18.686015,55.8275779 L27.9716448,55.8275779 L27.9716448,52.8917505 Z M38.1944442,52.8917505 L28.8992515,52.8917505 L28.8992515,55.8275779 L38.1944442,55.8275779 L38.1944442,52.8917505 Z M17.7584084,52.8917505 L8.47277857,52.8917505 L8.47277857,55.8275779 L17.7584084,55.8275779 L17.7584084,52.8917505 Z M78.1006575,47.3930511 L72.782698,47.3930511 L74.3202227,49.6188439 C74.3422733,49.6112187 74.3650781,49.6052101 74.3884955,49.6009597 L74.4718647,49.5934872 L78.1006575,49.5925309 L78.1006575,47.3930511 Z M86.8080773,49.3678014 L82.4378066,49.3678014 L82.4374578,49.5925309 L86.8077285,49.5925309 L86.8080773,49.3678014 Z M86.8077285,47.3930511 L82.4374578,47.3930511 L82.4378066,47.5125881 L86.8080773,47.5125881 L86.8077285,47.3930511 Z M86.8077285,46.5180407 L82.4374578,46.5180407 L82.4374578,46.8670886 L86.8077285,46.8670886 L86.8077285,46.5180407 Z M78.1006575,43.9216983 L69.8373077,43.9216983 L70.0496053,44.2372758 L70.3597939,44.2382321 C70.4816722,44.2382321 70.5973331,44.2861157 70.683062,44.3694433 L70.7413759,44.4383904 L72.4193057,46.8670886 L78.1006575,46.8670886 L78.1006575,43.9216983 Z M82.8104131,43.9216983 L82.4374578,43.9216983 L82.4374578,45.4661156 L82.8104131,45.4661156 L82.8104131,43.9216983 Z M86.8077285,43.9216983 L86.4538991,43.9216983 L86.4538991,45.4661156 L86.8077285,45.4661156 L86.8077285,43.9216983 Z M85.401974,43.9216983 L83.8623382,43.9216983 L83.862687,45.4661156 L85.4023228,45.4661156 L85.401974,43.9216983 Z M81.2971093,41.8409464 C80.7914094,42.119717 80.4436877,42.5991875 80.3892459,43.1456772 L80.3817712,43.296281 L80.3817712,43.7553029 C80.3817712,44.051634 80.4680851,44.3324677 80.6204015,44.5777359 L80.6208451,43.2675921 C80.6208451,43.0061591 80.8115851,42.7892759 81.0614938,42.7485135 L81.1468077,42.7416296 L81.2220062,42.7406733 L81.2971093,41.8409464 Z M88.3546973,42.13961 L88.3799226,42.8168987 C88.5071067,42.8936184 88.5991778,43.0226525 88.6263353,43.1742003 L88.6346018,43.2675921 L88.6360018,44.5605667 C88.7526138,44.3676311 88.8286376,44.153265 88.8543826,43.9270429 L88.8641127,43.7553029 L88.8641127,43.296281 C88.8641127,42.8539436 88.6717889,42.4461376 88.3546973,42.13961 Z M63.383269,41.5032268 L56.8023919,41.5032268 L56.0057977,42.299821 L55.2059858,43.5152727 L63.383269,43.5152727 L63.383269,41.5032268 Z M65.8887633,41.5032268 L63.9092316,41.5032268 L63.9092316,43.5152727 L65.0252285,43.5152727 L67.2661778,42.2587003 L67.2658289,41.5032268 L66.4147259,41.5032268 L66.4150747,41.995719 C66.4150747,42.1409596 66.297334,42.2587003 66.1520934,42.2587003 C66.0276015,42.2587003 65.9233136,42.1721969 65.8960577,42.0560182 L65.8891122,41.995719 L65.8887633,41.5032268 Z M68.3854728,41.3589664 C68.3508733,41.4272376 68.2873638,41.4783779 68.2110503,41.4962813 L68.1934356,41.4974891 L68.1937844,42.5312446 C68.1937844,42.6710619 68.130858,42.8017952 68.0251932,42.8889785 L67.9568272,42.9357868 L66.9225188,43.5152727 L68.3846947,43.5152727 L68.3854728,41.3589664 Z M86.4538991,41.5835557 L86.4538991,43.3957357 L86.8077285,43.3957357 L86.8080773,43.2675921 C86.8080773,43.0352073 86.9587854,42.8380221 87.167795,42.7684435 L87.248726,42.7485135 L87.3340399,42.7416296 L87.4465339,42.7406733 L87.4065455,41.6364858 C87.302485,41.6131795 87.194941,41.5973602 87.0846391,41.5897446 L86.9323957,41.584512 L86.4538991,41.5835557 Z M85.4023228,41.5835557 L83.862687,41.5835557 L83.8623382,43.3957357 L85.401974,43.3957357 L85.4023228,41.5835557 Z M82.8104131,43.3957357 L82.8104131,41.5835557 L82.2499031,41.5854204 L82.1480388,42.7975189 C82.2953512,42.8716833 82.4030187,43.0130575 82.4307745,43.1813747 L82.4378066,43.2675921 L82.4374578,43.3957357 L82.8104131,43.3957357 Z M69.3193048,40.4781559 C69.3560479,40.5139792 69.3823456,40.5604658 69.393198,40.6126157 L69.3987168,40.6664682 L69.398368,43.3957357 L78.1006575,43.3957357 L78.1006575,40.4790343 L69.3193048,40.4781559 Z M65.8887633,40.9284932 L63.9095804,40.9284932 L63.9092316,40.9772643 L65.8887633,40.9772643 L65.8887633,40.9284932 Z M65.8887633,36.1575347 L60.0524916,36.1575347 L56.8769829,40.9772643 L63.383269,40.9772643 L63.3836178,40.6664682 C63.3836178,40.5419763 63.4701212,40.4376884 63.5862999,40.4104325 L63.6465991,40.403487 L65.8887633,40.4025307 L65.8887633,36.1575347 Z M87.3623799,40.4790343 L82.3427846,40.4790343 L82.3380031,40.5316306 L86.9323957,40.5325869 C87.0795549,40.5325869 87.2243673,40.5425036 87.3660657,40.5616703 L87.3623799,40.4790343 Z M67.2658289,40.4025307 L67.2663179,36.1501116 L67.2357279,36.1556425 L67.2040185,36.1575347 L66.4147259,36.1575347 L66.4147259,40.4025307 L67.2658289,40.4025307 Z M87.2524059,37.543207 L82.5895088,37.543207 L82.3867742,39.9530718 L87.3422977,39.9530718 L87.2524059,37.543207 Z M87.1223497,34.0718541 L82.8830916,34.0718541 L82.6344547,37.0172444 L87.2323237,37.0172444 L87.1223497,34.0718541 Z M70.3263235,35.4584827 L68.1934356,35.4584827 L68.1934356,36.3181924 L70.3263235,35.644004 L70.3263235,35.4584827 Z M65.8887633,33.3173369 L61.9230057,33.3173369 L60.3986706,35.6315722 L65.8887633,35.6315722 L65.8887633,33.3173369 Z M66.940081,33.3173369 L66.4147259,33.3173369 L66.4147259,35.6315722 L66.940081,35.6315722 L66.940081,33.3173369 Z M61.2928069,33.3173369 L60.1216937,33.3173369 L60.1213449,35.0960467 L61.2928069,33.3173369 Z M70.4688115,33.1633734 L70.0862933,33.1633734 L70.0862933,34.9229572 L70.4688115,34.9229572 L70.4688115,33.1633734 Z M86.9942061,30.6291901 L83.1728491,30.6291901 L82.9270812,33.5458916 L87.1032238,33.5458916 L86.9942061,30.6291901 Z M66.3315282,26.6270933 L62.270141,32.7913744 L65.8887633,32.7913744 L65.8891122,29.8603285 C65.8891122,29.715088 66.0068529,29.5973473 66.1520934,29.5973473 C66.2765853,29.5973473 66.3808733,29.6838506 66.4081292,29.8000293 L66.4150747,29.8603285 L66.4147259,32.7913744 L67.2040185,32.7913744 C67.2254827,32.7913744 67.2463462,32.7939458 67.2663179,32.7987975 L67.2655117,29.6006751 C67.250555,29.5659179 67.2422704,29.5276131 67.2422704,29.4873733 C67.2422704,29.4471335 67.250555,29.4088286 67.2655117,29.3740714 L67.2663835,26.8875415 L67.2065087,26.8905854 L67.1454244,26.879284 L66.3315282,26.6270933 Z M70.3068488,29.7742619 L69.0636646,29.7742619 L69.0640134,29.9607396 L70.3071976,29.9607396 L70.3068488,29.7742619 Z M70.3071976,21.3827685 L69.0640134,21.3827685 L69.0636646,29.2004846 L70.3068488,29.1995283 L70.3071976,21.3827685 Z M67.2049748,25.4269424 L67.1214283,25.4269424 L66.631805,26.169984 L67.024235,26.2914335 L67.2049748,25.4269424 Z M66.4912295,25.4269424 L64.8276241,25.4269424 L64.8276241,25.6115074 L66.1087113,26.0083701 L66.4912295,25.4269424 Z M65.0762609,23.131833 L64.6650539,23.131833 L64.6650539,24.8914169 L65.0762609,24.8914169 L65.0762609,23.131833 Z M67.0596179,20.4551618 L64.6841798,20.4551618 L64.6841798,20.6387705 L66.8731403,21.3186967 L67.0596179,20.4551618 Z M64.9222974,18.1600525 L64.5110903,18.1600525 L64.5110903,19.9196363 L64.9222974,19.9196363 L64.9222974,18.1600525 Z" id="path-1"></path>
    </defs>
    <g id="Silhouettes/Costal-Survey-Ship" stroke="none" stroke-width="1" fill="none" fill-rule="evenodd">
        <mask id="mask-2" fill="white">
            <use xlink:href="#path-1"></use>
        </mask>
        <use fill="#3E5667" fill-rule="nonzero" xlink:href="#path-1"></use>
    </g>
</svg>