<?xml version="1.0" encoding="UTF-8"?>
<svg width="200px" height="41px" viewBox="0 0 200 41" version="1.1" xmlns="http://www.w3.org/2000/svg" xmlns:xlink="http://www.w3.org/1999/xlink">
    <title>Silhouettes/CVF HMS Queen Elizabeth II</title>
    <defs>
        <path d="M112.592616,-3.90798505e-14 L112.64889,0.0562738243 L112.64889,0.295054195 L112.592616,0.35132802 L112.301751,0.350977975 L112.301751,0.74249444 L112.486769,0.743011172 L112.543043,0.799284996 L112.543043,0.95847191 L112.486769,1.01474573 L112.301751,1.01452904 L112.301751,1.14094512 L112.380505,1.14139518 L112.436779,1.197669 L112.436779,1.3564392 L112.380505,1.41271302 L112.301751,1.41244632 L112.301751,1.5388624 L112.327165,1.53936246 L112.383439,1.59563629 L112.383439,1.7548232 L112.327165,1.81109702 L112.301751,1.810897 L112.301751,1.88450636 L113.01767,1.88482307 C113.048749,1.88482307 113.073944,1.91001772 113.073944,1.94109689 C113.073944,1.96440627 113.059772,1.98440561 113.039574,1.99294844 L113.01767,1.99737072 L112.301751,1.99705401 L112.301751,2.07066337 L112.313414,2.07068004 L112.369687,2.12695387 L112.369687,2.2865575 L112.313414,2.34283132 L112.301751,2.34269797 L112.301751,2.42964237 L112.343851,2.47199775 L112.343851,2.8966351 L112.301751,2.93850709 L112.301751,3.13159832 L112.313414,3.13206504 L112.369687,3.18833887 L112.369687,3.34752578 L112.313414,3.4037996 L112.301751,3.40363292 L112.301751,4.02504529 L112.787146,4.02504529 L112.787624,3.48087607 L112.843898,3.42460225 L113.135185,3.42460225 L113.191459,3.48087607 L113.191459,4.56976457 L113.135185,4.6260384 L112.843898,4.6260384 L112.787624,4.56976457 L112.787146,4.20000087 L112.301751,4.61071978 L112.302162,4.72811805 C112.302162,4.75450408 112.295015,4.77804624 112.282963,4.79774121 L112.741632,5.39905279 L113.308279,12.3637059 L115.296265,12.3637059 L115.317601,11.4910616 L114.635376,11.491495 L114.579102,11.4352211 L114.579102,10.4796829 L114.635376,10.4234091 L116.525221,10.4231924 L116.525221,9.74203911 L115.201281,9.74252251 L115.145007,9.68624868 L115.145007,8.35899653 L115.201281,8.30272271 L115.94168,8.30238933 L115.942192,8.1464695 L115.998466,8.09019568 L117.802862,8.09019568 L117.859136,8.1464695 L117.858724,8.30238933 L118.598796,8.30272271 L118.65507,8.35899653 L118.65507,9.68624868 L118.598796,9.74252251 L117.27465,9.74203911 L117.27465,10.4231924 L118.563792,10.4234091 L118.620066,10.4796829 L118.620066,11.4352211 L118.563792,11.491495 L117.948335,11.4910616 L118.066751,12.3407697 L119.976264,11.5713874 L120.050472,11.6420243 L119.744831,12.5226595 L120.528208,12.5228428 L120.584482,12.5791166 L120.584482,12.6587101 L120.528208,12.7149839 L119.89685,12.7146839 L119.920648,12.7383035 L119.92032,13.5307877 L120.076901,13.5313044 L120.130287,13.6053736 L119.997354,14.0041743 L119.956547,14.0412288 L119.154356,14.2247426 L118.524409,16.0393734 L118.533255,16.106632 L121.691212,16.106582 L121.691212,16.0297722 L121.561673,16.0299889 L121.507356,15.9884253 L121.30079,15.2182023 C121.30079,14.7224119 121.703185,14.3201547 122.199254,14.3201547 C122.66869,14.3201547 123.055047,14.6814337 123.09292,15.1526688 L123.09596,15.232183 L122.90218,15.9876957 L122.84767,16.0299889 L122.706274,16.0297722 L122.706274,16.1007146 L123.659045,16.0799753 L123.714258,16.1521224 L123.570201,16.6244241 L123.159665,17.0811059 L123.285859,18.1767619 L123.9619,18.1767119 L124.135111,16.1847172 L124.191174,16.133302 L124.400356,16.133252 L124.400356,16.1161832 L124.306189,16.1166666 L124.251857,16.075049 L124.084894,15.4486483 C124.084894,15.0405075 124.415058,14.7102044 124.822921,14.7102044 C125.206728,14.7102044 125.52146,15.0027301 125.555698,15.3891129 L125.558779,15.462611 L125.402086,16.0743555 L125.347571,16.1166666 L125.244197,16.1161832 L125.244197,16.133252 L125.49634,16.133302 L125.55236,16.1842335 L125.74186,18.1767119 L126.291263,18.1767119 L126.300865,18.1468415 L126.088499,18.1469248 L126.034157,18.1052689 L125.75344,17.0542692 C125.75344,16.385254 126.295721,15.8424317 126.96486,15.8424317 L127.027688,15.8440375 L127.226238,15.2166762 L127.279901,15.1773471 L129.995734,15.1768637 L130.270417,14.3151811 L130.324038,14.2759825 L131.992583,14.2759825 L132.046204,14.3493315 L131.782628,15.1768637 L132.038128,15.1768637 L132.312755,14.3151959 L132.366381,14.2759825 L133.114393,14.2759825 L133.168013,14.3493315 L132.904371,15.1768637 L133.53528,15.1773471 L133.589018,15.2503205 L132.670741,18.203382 L133.850091,18.203382 L133.850091,17.2176566 L133.836568,17.2180567 L133.780294,17.1617828 L133.780216,17.1259116 L133.736138,17.1259616 L133.681782,17.0842507 L133.572351,16.6683868 C133.572351,16.3899119 133.797852,16.164556 134.076182,16.164556 C134.334252,16.164556 134.546756,16.358876 134.574384,16.6207852 L134.577415,16.6823679 L134.474485,17.0836689 L134.419975,17.1259616 L134.371224,17.1259116 L134.371236,17.1617828 L134.314962,17.2180567 L134.30775,17.2176566 L134.30775,18.203382 L134.756268,18.2035654 L134.812542,18.2598392 L134.812542,22.0023985 L134.756268,22.0586724 L134.729181,22.0586724 L134.672908,22.0023985 L134.672596,20.4831386 L133.62667,19.3871624 C133.61883,19.3789473 133.613965,19.3689782 133.612045,19.358587 L132.099262,20.0631612 L132.092534,20.0644187 L131.491391,21.9990648 L132.340128,21.9994648 L132.395243,22.0670969 L132.050616,23.7393929 L131.9955,23.7843085 L130.936654,23.7838251 L129.705564,27.7459291 L197.482163,27.7464458 C197.505472,27.7464458 197.525472,27.7606178 197.534015,27.7808153 L197.538437,27.8027196 C197.538437,27.826029 197.524265,27.8460283 197.504067,27.8545712 L197.498187,27.8552763 L197.49872,27.8936812 L199.943726,27.8939646 L200,27.9502384 L200,29.1866457 L199.943726,29.2429195 L198.432172,29.2426528 L198.123313,29.3545045 C198.133189,29.3765275 198.140346,29.4000317 198.144359,29.4245931 L198.148098,29.4708485 L198.148098,30.4684754 C198.148098,30.5543413 198.110095,30.6313036 198.049923,30.6835507 L198.086701,30.7156203 L198.098797,30.801251 L198.536047,30.8014177 C198.567126,30.8014177 198.592321,30.8266124 198.592321,30.8576915 C198.592321,30.8810009 198.578149,30.9010002 198.557951,30.9095431 L198.536047,30.9139654 L198.114799,30.9137987 L198.229636,31.7253321 L198.212945,31.7437709 L198.468539,31.7440376 L198.524812,31.8003114 L198.524451,32.1811599 L199.362487,32.1765936 L199.419093,32.2328664 L199.418431,32.2409008 L199.427844,32.2503687 L199.408981,32.5883789 C199.420555,32.5986858 199.427844,32.6137002 199.427844,32.630417 C199.427844,32.6431312 199.423627,32.6548606 199.416517,32.6642832 L199.403288,32.6769006 L196.743424,34.4795855 L196.730623,34.4918538 L195.656353,39.7959951 L197.521751,39.7963118 L197.578025,39.8525856 L197.578025,40.8822999 L197.521751,40.9385737 L195.44886,40.9385404 L195.428973,40.9552425 L7.03334379,40.9139873 L7.0179593,40.8974685 L6.98292084,40.8977352 L6.92674734,40.8383133 C6.97762294,39.9303063 6.29122267,38.5475879 5.0275183,36.8182689 C4.69605562,36.3646781 4.3293087,35.893542 3.93165678,35.4077048 L3.61414702,35.0246058 L3.31523966,34.6740192 C2.58332743,33.825663 1.6365889,32.7919654 1.029545,32.1379181 L0.803116683,31.8946272 L0.423512837,31.4926957 L0.393375069,31.1541498 C0.377387792,30.9873207 0.3580231,30.7992254 0.335599148,30.5920745 L0.299708545,30.2673328 L0.173304138,29.1914063 L0,27.8099918 L0.0437388966,27.7592641 L0.0441171416,27.7044184 C0.101459643,25.8487106 1.75587435,24.6806392 5.70777085,24.6806392 C7.27109989,24.6806392 8.91947063,24.8208688 11.0285247,25.1119496 L11.9216334,25.2414975 L18.1219861,26.2194006 C24.1367329,27.1409723 29.4289783,27.6490601 35.7416296,27.741462 L36.1382414,27.7459791 L45.0394783,27.7457841 L45.1190188,27.7350906 L45.2115454,27.7310438 L45.2244189,27.7459291 L49.7973251,27.745773 C49.8271232,27.7405276 49.8580478,27.7366536 49.8901145,27.7341987 L49.9746513,27.7310438 L49.9876914,27.7459291 L50.7395878,27.7458483 L50.8204265,27.7349542 L50.9097702,27.7310438 L50.9296779,27.7459291 L54.7392291,27.7459291 L53.7620381,22.5180641 L53.746026,22.5183407 L53.3163096,22.0532383 L53.3163096,21.9011357 L53.3725834,21.8448618 L53.6361554,21.8443784 L53.2607572,19.8374343 L54.1018147,18.1841796 L54.1045887,18.1743851 L54.1066153,18.1745783 L54.1125322,18.1638881 L54.1623722,18.1331406 L54.2623684,18.1324396 L54.2585128,18.1285725 L54.2585128,16.8204894 L54.3147866,16.7642156 L54.4410578,16.7637322 L54.4410578,16.6639862 L53.1283857,16.6642362 L53.0721119,16.6079624 L53.0721119,16.4250225 L53.1283857,16.3687486 L55.9579123,16.3687486 L56.0141861,16.4250225 L56.0141861,16.6079624 L55.9579123,16.6642362 L54.7664325,16.6639862 L54.7664325,16.7637322 L54.9540346,16.7642156 L55.0103084,16.8204894 L55.0103084,18.1285725 L59.5214822,18.1031526 L59.5222374,17.2144562 L58.0610798,16.2120787 L58.0607182,14.929899 L57.3264197,14.9302657 L57.2701459,14.8739919 L57.2701459,14.7827303 L57.3264197,14.7264564 L59.1520686,14.7264564 L59.2083424,14.7827303 L59.2083424,14.8739919 L59.1520686,14.9302657 L58.690665,14.929899 L58.690665,15.7908085 L59.524371,15.7908085 L59.5254548,15.0058372 L59.6634312,14.6510365 L60.191415,11.730665 L60.2467911,11.6844028 L60.4092836,11.6841528 L60.4812928,11.3406424 L58.6657567,11.3406424 L58.6094829,11.2843686 L58.6094829,9.03324896 L58.6657567,8.97697514 L64.9619742,8.97697514 L65.018248,9.03324896 L65.018248,11.2843686 L64.9619742,11.3406424 L63.1216286,11.3406424 L63.2205471,11.663338 L63.2048392,11.6841528 L63.2896782,11.6844028 L63.3453076,11.7321853 L63.8010099,14.7218892 L63.7973375,15.0365193 L64.9397714,18.0418114 L65.5107325,18.0422948 L65.5395477,18.0239592 L66.3652412,18.0236258 L66.3654694,17.1859526 L66.4217432,17.1296788 L67.4260376,17.1296788 L67.4823114,17.1859526 L67.4821832,18.0236258 L67.9316186,18.0236758 L69.0753878,14.3098657 L69.1291709,14.2701484 L70.6655214,14.2700817 L71.2324118,12.3925979 L71.347313,12.427259 L71.0831746,13.302492 L71.0965045,13.2933575 L72.7646333,13.2933575 L72.8182587,13.3666917 L72.530292,14.2700817 L72.7863245,14.2700817 L73.0852269,13.3325561 L73.1388476,13.2933575 L73.8868594,13.2933575 L73.9404801,13.3667065 L73.652568,14.2700817 L74.5752803,14.2701484 L74.6290595,14.3429915 L72.2518566,22.0577389 L73.6780828,22.0578056 L73.7343566,22.1140794 L73.7343566,22.3574437 L73.6971439,22.410391 L72.9658589,22.6733339 L72.6993856,24.0111727 L72.6442013,24.0564265 L71.6357782,24.0563931 L70.5518742,27.5763414 L70.5316378,27.5885757 L70.484165,27.7459291 L112.229208,27.7459291 L111.125068,23.7571551 L110.122718,23.7576385 L110.067365,23.7115001 L109.722321,21.8270938 L109.777674,21.7606845 L110.572464,21.7606345 L110.069371,19.9408951 L110.729381,17.9789311 L110.730351,17.9692189 L110.728173,17.9668614 L110.732484,17.95215 L111.355294,12.4140567 L111.411216,12.3640726 L112.045185,12.3637059 L112.057453,4.80754482 L112.025393,4.77881938 C111.979767,4.73806908 111.968756,4.67300425 111.994452,4.62065401 L111.457377,4.14506055 L111.426439,4.14506055 L111.426651,4.56976457 L111.370377,4.6260384 L111.077423,4.6260384 L111.021149,4.56976457 L111.021149,3.48087607 L111.077423,3.42460225 L111.370377,3.42460225 L111.426651,3.48087607 L111.426439,4.02504529 L111.478713,4.02504529 L111.489744,4.01351641 L111.502716,4.02504529 L112.03505,4.02504529 L112.03505,3.40363292 L111.96962,3.4037996 L111.913346,3.34752578 L111.913346,3.18833887 L111.96962,3.13206504 L112.03505,3.13159832 L112.03505,2.95290892 L111.995873,2.95290892 L111.939599,2.8966351 L111.939599,2.47199775 L111.995873,2.41572393 L112.03505,2.41524053 L112.03505,2.34269797 L111.96962,2.34283132 L111.913346,2.2865575 L111.913346,2.12695387 L111.96962,2.07068004 L112.03505,2.07066337 L112.03505,1.99705401 L111.26578,1.99737072 C111.234701,1.99737072 111.209507,1.97217607 111.209507,1.94109689 C111.209507,1.91778751 111.223679,1.89778818 111.243876,1.88924534 L111.26578,1.88482307 L112.03505,1.88450636 L112.03505,1.810897 L111.955451,1.81109702 L111.899178,1.7548232 L111.899178,1.59563629 L111.955451,1.53936246 L112.03505,1.5388624 L112.03505,1.41244632 L111.902528,1.41271302 L111.846254,1.3564392 L111.846254,1.197669 L111.902528,1.14139518 L112.03505,1.14094512 L112.03505,1.01452904 L111.796264,1.01474573 L111.739991,0.95847191 L111.739991,0.799284996 L111.796264,0.743011172 L112.03505,0.74249444 L112.03505,0.350977975 L111.690001,0.35132802 L111.633727,0.295054195 L111.633727,0.0562738243 L111.690001,-3.90798505e-14 L112.592616,-3.90798505e-14 Z M53.6569581,21.9569261 L53.4204395,21.9569761 L53.4129436,22.0140235 L53.7332345,22.364978 L53.6569581,21.9569261 Z M134.672596,18.8647995 L133.710874,19.312323 L134.672596,20.3199179 L134.672596,18.8647995 Z M65.9958557,11.8015177 L65.9958557,17.9768865 L65.8758404,17.9768865 L65.8758404,11.8015177 L65.9958557,11.8015177 Z M111.31367,3.53703322 L111.13338,3.53703322 L111.13338,4.51315737 L111.31367,4.51315737 L111.313358,4.14506055 L111.290784,4.14512723 L111.290784,4.02511196 L111.313358,4.02504529 L111.31367,3.53703322 Z M113.078383,4.14506055 L112.899693,4.14506055 L112.900005,4.51315737 L113.078694,4.51315737 L113.078383,4.14506055 Z M112.03505,4.14506055 L111.6382,4.14506055 L112.03505,4.49603853 L112.03505,4.14506055 Z M112.666064,4.14506055 L112.301751,4.14506055 L112.301751,4.45336643 L112.666064,4.14506055 Z M113.078694,3.53703322 L112.900005,3.53703322 L112.899693,4.02504529 L113.078383,4.02504529 L113.078694,3.53703322 Z M112.03825,0.112014247 L111.746125,0.112064254 L111.746125,0.238480333 L112.03505,0.238430327 L112.035462,0.135867281 L112.03825,0.112014247 Z M112.536092,0.112064254 L112.299084,0.112014247 L112.302162,0.135867281 L112.301751,0.238430327 L112.536092,0.238480333 L112.536092,0.112064254 Z" id="path-1"></path>
    </defs>
    <g id="Silhouettes/CVF-HMS-Queen-Elizabeth-II" stroke="none" stroke-width="1" fill="none" fill-rule="evenodd">
        <mask id="mask-2" fill="white">
            <use xlink:href="#path-1"></use>
        </mask>
        <use fill="#3E5667" xlink:href="#path-1"></use>
    </g>
</svg>