<?xml version="1.0" encoding="UTF-8"?>
<svg width="200px" height="52px" viewBox="0 0 200 52" version="1.1" xmlns="http://www.w3.org/2000/svg" xmlns:xlink="http://www.w3.org/1999/xlink">
    <title>Silhouettes/Daring Class</title>
    <defs>
        <path d="M78.2956077,-1.42108547e-14 C80.170992,-1.42108547e-14 81.6920621,1.52107017 81.6920621,3.39822595 C81.6920621,4.31566668 81.3280425,5.14831364 80.736601,5.75956916 L80.8718251,5.75902039 L80.8718251,6.3826131 L79.9167744,6.38335376 L79.8125939,6.4377462 L80.6638428,6.43717746 L80.4439791,7.38314493 L80.8994616,7.38355026 L81.5269045,10.9303273 L81.9099653,10.9305881 L81.9099653,11.2512423 L81.583591,11.2511941 L83.5542479,22.3874611 L88.1595923,22.387582 L88.1600649,21.9175121 L88.3301356,21.9175121 L88.3301356,23.4431884 L88.1600649,23.4431884 L88.1595923,22.8009654 L83.6269777,22.8008444 L84.5715723,28.1371408 L92.6531212,28.1371408 L93.7845508,32.8215144 L94.3626459,32.2417442 L94.3626865,31.7103979 L94.7760292,31.7101749 L94.7765253,31.3557295 L95.6073917,31.3557295 L95.6070742,31.7101749 L96.0782136,31.7101749 L96.0786294,31.3252585 L96.3669938,31.3252056 L97.1525552,27.2198217 L106.575371,27.219715 L106.575891,25.8631533 C106.575891,25.2866843 107.039334,24.82147 107.616157,24.82147 C108.166423,24.82147 108.617256,25.2453533 108.657103,25.7852667 L108.718761,27.219715 L108.721972,27.2198217 L108.721972,27.7707801 L106.520618,28.5070446 L107.543854,33.9424091 L107.580818,33.5880441 C107.537484,33.5212939 107.512343,33.4417933 107.512343,33.3565409 L107.512343,31.4917861 C107.512343,31.255813 107.704382,31.0641291 107.941772,31.0641291 L108.406986,31.0641291 C108.64296,31.0641291 108.834643,31.255813 108.834643,31.4917861 L108.834643,33.3565409 C108.834643,33.4540215 108.801834,33.5439819 108.746652,33.6159593 L108.963968,35.7201699 L108.963968,35.8452427 L109.450441,35.8452427 L109.450337,36.5852819 L112.46375,36.5858778 C112.311922,36.4997723 112.210193,36.3359045 112.210193,36.1481102 C112.210193,35.8710366 112.43164,35.6474644 112.708713,35.6474644 L114.809795,35.6474644 C115.045465,35.6474644 115.24443,35.8117216 115.296468,36.0331358 L115.302948,36.0707546 L115.298148,36.1031146 C115.263016,36.286653 115.150973,36.4864061 115.003247,36.5860656 L117.280022,36.5852111 L117.354479,36.127631 L118.991846,22.0083035 L117.571673,20.5881259 L117.571673,19.9234327 L117.703566,19.9231332 L117.703566,19.5322105 L117.336054,19.5326244 L117.336054,18.6730585 C117.336054,18.326185 117.618797,18.0448597 117.965671,18.0448597 C118.289419,18.0448597 118.552364,18.2899253 118.585985,18.6046217 L118.631781,19.5326244 L118.260805,19.5322105 L118.260805,19.9231332 L119.569941,19.9231332 L119.570359,19.5386477 L119.803104,19.5386278 L119.803497,19.3044461 L119.974768,19.3043951 L119.974985,18.902654 L120.181727,18.902242 L120.181727,18.4626545 L118.926603,18.4626545 L118.926925,18.9196611 L118.835866,18.9196611 L118.835866,17.9123462 L118.926925,17.9123462 L118.926603,18.3696032 L120.181727,18.3696032 L120.181727,16.4214069 L118.926603,16.4214069 L118.926925,16.8795208 L118.835866,16.8795208 L118.835866,15.8711431 L118.926925,15.8711431 L118.926603,16.327286 L120.181727,16.327286 L120.181727,14.2571604 L118.926603,14.2571604 L118.926925,14.7135991 L118.835866,14.7135991 L118.835866,13.7080559 L118.926925,13.7080559 L118.926603,14.1641091 L120.181727,14.1641091 L120.181727,11.9282023 L119.558312,11.9283364 L119.558312,11.5587869 L120.181727,11.5586707 L120.181727,10.3859026 L119.558312,10.3860074 L119.558312,10.0164579 L120.181727,10.016371 L120.181727,9.25270799 L119.652297,9.25270799 L119.65256,9.7089133 L119.561147,9.7089133 L119.561147,8.70514163 L119.65256,8.70514163 L119.652297,9.16126096 L120.181727,9.16126096 L120.181727,8.16924779 L119.833614,8.16977312 L119.833614,7.67515072 L120.189749,7.67511292 L120.189749,6.80984214 L120.005456,6.80991583 L120.005456,6.60901977 L120.320235,6.60876561 L120.320235,6.45474955 L119.895973,6.45524748 L119.895973,6.27135849 L120.320235,6.2713207 L120.320442,4.46116807 L120.490512,4.46116807 L120.490294,6.2713207 L120.914981,6.27135849 L120.914981,6.45524748 L120.490294,6.45474955 L120.490294,6.60876561 L120.807269,6.60901977 L120.807269,6.80991583 L120.61971,6.80984214 L120.61971,7.67511292 L120.977694,7.67515072 L120.977694,8.16977312 L120.630406,8.16924779 L120.630406,9.16126096 L121.158394,9.16149811 L121.158394,8.70514163 L121.254059,8.70514163 L121.254059,9.7089133 L121.158394,9.7089133 L121.158394,9.25291113 L120.630406,9.25270799 L120.630406,10.016371 L121.254059,10.0164579 L121.254059,10.3860074 L120.630406,10.3859026 L120.630406,11.5586707 L121.254059,11.5587869 L121.254059,11.9283364 L120.630406,11.9282023 L120.630406,14.1641091 L121.885801,14.1644123 L121.885801,13.7080559 L121.981466,13.7080559 L121.981466,14.7135991 L121.885801,14.7135991 L121.885801,14.2572426 L120.630406,14.2571604 L120.630406,16.327286 L121.885801,16.3274996 L121.885801,15.8711431 L121.981466,15.8711431 L121.981466,16.8795208 L121.885801,16.8795208 L121.885801,16.4217471 L120.630406,16.4214069 L120.630406,18.3696032 L121.885801,18.37012 L121.885801,17.9123462 L121.981466,17.9123462 L121.981466,18.9196611 L121.885801,18.9196611 L121.885801,18.4629503 L120.630406,18.4626545 L120.630406,18.902242 L120.840575,18.902654 L120.840574,19.3043951 L121.006394,19.3044461 L121.006355,19.5386278 L121.240595,19.5386477 L121.240588,20.5878623 L121.441491,20.5881259 L121.441129,21.0649551 L121.760728,21.0653869 L122.073772,24.2857434 L122.628799,24.2856792 L122.628871,23.9296899 L122.422232,23.9300159 L122.422232,23.4658645 L123.288176,23.4658645 L123.288176,23.9300159 L123.049207,23.9296899 L123.049135,24.2856792 L123.675796,24.2861015 L123.675796,24.717656 L122.187679,25.4579768 L122.680882,30.5238002 L123.781027,30.5238002 L123.781027,31.9945577 L124.365295,31.9940334 L124.985695,30.6882019 L125.734006,30.6882019 L125.589402,31.9940334 L128.372937,31.9945577 L129.381669,36.402933 L129.435526,36.5852111 L131.313389,36.5854047 L134.804697,21.7221972 L130.385291,21.7221264 L130.385441,22.3643022 L130.215015,22.3643022 L130.215015,20.8357914 L130.385441,20.8357914 L130.385291,21.3071387 L134.902026,21.3072095 L135.223428,19.9376431 L130.374858,19.9378111 L131.769745,15.0817314 L139.037435,15.0360249 L139.442062,15.2780214 L139.227311,16.0070249 L140.957463,17.9867522 L140.957463,18.6379814 L140.16219,19.862053 L139.776528,19.8617046 L140.072795,21.3072095 L144.524287,21.3071387 L144.524342,20.8357914 L144.697248,20.8357914 L144.697248,22.3643022 L144.524342,22.3643022 L144.524287,21.7221264 L140.157824,21.7221972 L141.227804,26.9431025 L146.92482,26.9431025 L146.92482,27.5868911 L144.717089,29.7907244 L145.73149,33.3714221 L145.976209,33.3710867 L146.591056,32.1146702 L147.343973,32.1146702 L147.184272,33.3710867 L153.906432,33.3710867 L154.072043,32.1727777 L154.827795,32.1727777 L154.986683,33.3710867 L156.643425,33.3710867 L156.853762,32.13026 L157.603845,32.13026 L157.806567,33.3710867 L158.767412,33.3714221 L159.321205,31.352895 L159.436571,31.3528345 L159.437066,31.1686517 L159.717864,31.1684448 L159.717864,30.8946385 L158.527542,30.8951213 L158.527542,30.4614409 L161.154426,30.4614409 L161.154426,30.8951213 L159.962792,30.8946385 L159.962792,31.1684448 L160.247736,31.1686517 L160.247294,31.3528345 L160.327103,31.352895 L161.734953,37.5264119 L162.279738,39.8357231 L162.505895,40.7465538 L162.56763,40.978972 L162.61452,41.1415554 C162.618852,41.1554952 162.622882,41.1680191 162.626601,41.1790863 C162.86594,41.9005139 163.460916,42.1303973 163.605921,42.1765958 L163.638167,42.1860468 L200,42.1860468 L196.786017,51.8297663 L9.73336097,51.8297663 L6.19700735,47.393095 L5.77248433,47.7912949 L5.10460236,46.8286236 L5.74725906,46.8283695 L0,39.6169157 L5.21762607,39.9356698 L11.0145332,40.2652116 L15.7649646,40.5192503 L19.515151,40.7098525 C21.6738007,40.817018 23.951376,40.9256549 26.3157325,41.0324922 L26.2631738,40.8123712 L25.3915613,39.9393414 L30.5663056,40.959181 L30.5663178,40.8382362 L31.2508214,40.8377656 L31.2508214,40.3265387 L30.0979147,40.3198747 L30.0979147,39.6459694 L30.65187,38.2494609 L29.8576898,38.2496178 L29.8571899,38.0922154 L27.2485429,38.0922154 L27.2488755,38.1702514 L26.5416647,38.1702514 L26.5415664,38.0922154 L23.9558808,38.0926567 L23.9558808,37.805308 L26.5415664,37.8050396 L26.5416647,37.7291305 L27.2488755,37.7291305 L27.2485429,37.8050396 L29.8571899,37.8050396 L29.8576898,37.6515357 L30.8893115,37.6510444 L31.0726326,37.1909274 L32.4434736,36.2842378 L35.2514124,36.2842378 L36.066689,38.0519105 L35.0735467,40.3503457 L34.0557319,40.3436515 L34.0557319,40.8377656 L34.6976195,40.8382362 L34.6974655,41.3853991 L36.7911463,41.4662572 L39.3098952,41.5577802 L41.8484933,41.6444521 L42.5319631,41.6661575 L42.6076805,41.4621832 L43.2507604,38.8898633 L56.9329514,38.8898633 L57.4839097,41.9213742 L57.4864643,42.0293266 L59.10592,42.0511755 C58.992208,41.9953832 58.9080268,41.9011739 58.8780576,41.7884883 L58.8678263,41.7314433 L58.8125874,41.7355787 L58.8432265,41.4774543 L58.6398296,39.3471884 C58.5352452,39.2936878 58.4493318,39.208956 58.4366602,39.0747793 L58.3424126,38.0989039 L58.5196859,38.0891444 L58.3895364,36.7199416 C58.3699129,36.5183025 58.5356563,36.3400052 58.7694436,36.2992172 L58.8292401,36.291951 C59.0693015,36.2752025 59.2833994,36.4133589 59.3316378,36.607643 L59.340161,36.6573262 L59.4673125,37.9898041 L59.4977948,37.9876562 L59.3692147,36.6555474 C59.3495912,36.4525946 59.5150328,36.2729837 59.7490523,36.2334005 L59.8089184,36.2264895 C60.0486528,36.2110546 60.2630274,36.3477963 60.3113103,36.5407357 L60.3198393,36.5900858 L60.4523735,37.9812125 L60.5419942,37.976875 L60.5715982,38.274413 L60.6316356,38.9207312 L60.627762,38.9627901 C60.6216037,39.0061252 60.6056784,39.0770803 60.564535,39.1473466 L60.7988719,41.6103479 C60.8188225,41.8133007 60.6555193,41.9929116 60.4221056,42.0324948 L60.362357,42.0394058 C60.1222956,42.0538555 59.9094053,41.9167348 59.8616314,41.7226237 L59.8523526,41.6659324 L59.8186616,41.6680803 L59.8195479,41.6743864 C59.8351447,41.8359548 59.7353595,41.9825865 59.57658,42.0569594 L61.2894244,42.0739073 C61.1090672,41.9978115 60.9824065,41.8015531 60.9824065,41.574286 C60.9824065,41.2794159 61.1921604,41.0383044 61.4536442,41.0383044 C61.5147392,41.0383044 61.5731553,41.0516108 61.6267795,41.0757946 L61.56899,40.4755853 L61.4210473,40.4842843 L61.328217,39.5402012 L61.3334714,39.4911729 C61.3432662,39.4310182 61.371223,39.3263582 61.45081,39.2397899 L61.3855611,38.5489944 L61.2353868,38.5580417 L61.1457453,37.6136027 L61.150675,37.5644628 C61.1601113,37.5041906 61.1875743,37.3993887 61.2674251,37.313028 L61.2112934,36.7228979 C61.188263,36.5015561 61.3859702,36.3090386 61.646391,36.2919576 C61.8874336,36.2738911 62.104626,36.4131925 62.1497118,36.6077021 L62.1573119,36.6574206 L62.2029553,37.129934 L62.2322607,37.1279424 L62.1863656,36.6559972 C62.1697129,36.4360788 62.3613968,36.2449847 62.6257151,36.2264803 C62.8674117,36.2110417 63.0840507,36.3490291 63.1326702,36.5436009 L63.141242,36.5933667 L63.2026809,37.2273535 C63.2760868,37.2806893 63.3308066,37.3556353 63.3407208,37.460941 L63.4349683,38.4356276 L63.317714,38.4415737 L63.3863849,39.1517113 C63.4612454,39.2053703 63.5173716,39.2809863 63.5277986,39.3875395 L63.6206289,40.3604468 L63.5016776,40.3665533 L63.6206289,41.6119885 C63.6402524,41.816304 63.4733013,41.9945431 63.2429511,42.0341902 L63.184114,42.0411495 C62.9394738,42.0565882 62.7265331,41.9186007 62.6784999,41.7240289 L62.6700043,41.6742631 L62.6413049,41.6774658 C62.6589297,41.8586112 62.5260504,42.0209228 62.3319086,42.0822739 L63.7574137,42.089435 C63.9936305,42.0903491 64.2291564,42.091111 64.4639808,42.0917017 L65.6065638,42.0928896 L65.656163,41.6354427 L66.8491384,35.1160644 L66.8771963,34.8065395 L65.3812153,34.5636888 L65.3812153,32.7294051 L66.6237115,32.728927 L66.1160626,30.6166304 L69.6131205,30.6160399 L69.6131205,29.8924645 L68.7918423,29.8927669 L68.7918423,29.4558976 L70.6806904,29.4558976 L70.6806904,29.8927669 L69.8596531,29.8924645 L69.8596531,30.6160399 L71.6966155,30.6165539 L71.8077634,30.2499154 L72.2789888,27.3137858 L70.2792526,26.8428316 L70.2792526,26.4853287 L70.8147666,26.4848799 L70.8147666,26.2067746 L69.9933212,26.2068379 L69.9933212,25.7717403 L71.8793348,25.7717403 L71.8793348,26.2068379 L71.0575558,26.2067746 L71.0575558,26.4848799 L72.3952161,26.4853287 L72.4142876,26.4747192 L73.0046825,22.8007944 L68.5649556,22.8007944 L68.5650813,23.4431884 L68.3943019,23.4431884 L68.3943019,21.9175121 L68.5650813,21.9175121 L68.5649556,22.387411 L70.9682479,22.387411 L70.9683934,22.0117597 L71.2506107,22.0114413 L71.2506107,21.7392393 L70.0620581,21.7396465 L70.0620581,21.3045489 L72.6857536,21.3045489 L72.6857536,21.7396465 L71.4960738,21.7392393 L71.4960738,22.0114413 L71.7808355,22.0117597 L71.7805757,22.387411 L73.070995,22.387411 L74.8608969,11.2511941 L74.661763,11.2512423 L74.661763,10.9305881 L74.9127704,10.9303273 L75.1068948,9.72226385 L74.7560105,9.72273155 L74.7560105,8.70514163 L75.2705368,8.70511612 L75.4830629,7.38355026 L76.1438293,7.38314493 L75.9256011,6.43717746 L76.7774823,6.4377462 L76.6732439,6.38335376 L75.7190361,6.3826131 L75.7190361,5.75902039 L75.8530503,5.75956916 C75.2614014,5.14831364 74.8973818,4.31566668 74.8973818,3.39822595 C74.8973818,1.52107017 76.418452,-1.42108547e-14 78.2956077,-1.42108547e-14 Z" id="path-1"></path>
    </defs>
    <g id="Silhouettes/Daring-Class" stroke="none" stroke-width="1" fill="none" fill-rule="evenodd">
        <mask id="mask-2" fill="white">
            <use xlink:href="#path-1"></use>
        </mask>
        <use fill="#3E5667" xlink:href="#path-1"></use>
    </g>
</svg>