<?xml version="1.0" encoding="UTF-8"?>
<svg width="200px" height="30px" viewBox="0 0 200 30" version="1.1" xmlns="http://www.w3.org/2000/svg" xmlns:xlink="http://www.w3.org/1999/xlink">
    <title>Silhouettes/Dreadnought Class Ballistic Submarine</title>
    <defs>
        <path d="M52.7353598,0.699 L52.7293598,0.704 L52.7342472,0.699798573 L52.9769523,0.493937122 L53.0592774,0.426695335 C53.3886021,0.168579438 53.7138096,0.0219057598 54.1144695,0.00226929509 L54.208305,7.60280727e-13 L70.8987925,7.60280727e-13 C71.9259529,7.60280727e-13 72.6140764,0.221721402 72.8215291,0.728004688 C72.8267395,0.740720779 72.828578,0.75371992 72.8275899,0.766189204 L73.1321662,2.01719537 L74.544529,7.71172173 L140.050435,7.71201886 C149.351464,7.71201886 173.377432,10.8346848 180.597531,12.8056615 L181.280321,12.9935326 L181.81298,13.1429362 L183.345402,9.87392727 L183.432987,9.69325741 L183.447433,9.66827133 C183.602735,9.42442966 184.094233,9.34357113 185.139926,9.32533183 L185.364256,9.32241875 L185.59723,9.32111415 L185.987567,9.3208994 C186.161801,9.3208994 186.348531,9.32768015 186.546051,9.34062862 C186.89559,9.36354272 187.26806,9.4048822 187.648008,9.45935832 C187.806195,9.48203886 187.958255,9.50593343 188.101504,9.53013484 L188.241717,9.55440493 L188.474659,9.59776574 C188.507135,9.60429703 188.532018,9.62916041 188.53941,9.66027154 L188.541667,9.67959126 L188.541667,14.5134648 L188.53636,14.535 L188.541667,15.6324463 L193.29238,17.5348677 L193.285217,15.8248106 L197.995802,16.9395657 L197.995802,19.3360106 C199.269737,19.7954621 199.906705,20.1072846 199.906705,20.2714779 C199.906705,20.517768 198.555752,21.2221924 197.995802,21.38912 L197.995802,23.8714753 L193.29238,24.9915279 L193.285217,23.2774202 C190.271126,24.3392267 188.687742,24.900099 188.535063,24.960037 C188.382384,25.019975 188.356349,26.3292338 188.456958,28.8878135 C185.498805,29.0551568 183.893899,29.0809861 183.64224,28.9653014 C183.390581,28.8496166 182.858203,28.0951429 182.045105,26.7018803 C174.463352,28.3935437 166.833976,29.2456367 159.156977,29.2581594 L158.660365,29.2588945 C149.961181,29.2706367 112.456715,29.269392 46.1469694,29.2551604 L28.1220964,29.1801065 C25.8006431,29.1998154 22.5374225,28.8257315 18.3324344,28.0578546 C12.0249523,26.9060393 3.60021695,25.0307306 2.84856488,24.5608748 C2.09691281,24.0910191 0.136680019,20.7656436 0.0913988273,20.5129704 C0.0461176357,20.2602971 0.764855891,18.1066526 1.26599121,17.1785889 C1.58857387,16.5811908 2.22277626,15.3975356 3.08356961,14.579411 C3.07879438,14.5543182 3.0866779,14.527666 3.10615879,14.5082436 C3.15747787,14.4570788 3.21214581,14.4061404 3.27033454,14.3553877 L3.34929494,14.2884363 C3.33247843,14.2558352 3.33653784,14.2127152 3.37067116,14.1849868 C3.89726949,13.757201 4.76239087,13.3396206 6.13125668,12.8588932 L6.60094515,12.6944995 L8.26042066,12.1014849 C8.71966659,11.9391555 9.17206001,11.7813916 9.49151977,11.6750868 L9.57525455,11.6474056 C11.1773489,11.1216584 12.8853058,10.6540374 14.9254376,10.2100797 C16.9990138,9.75884403 19.3390531,9.3512407 22.0081837,8.9896166 L22.523284,8.92134738 C24.871596,8.62597661 31.1335222,8.17657867 38.604525,7.84464485 C39.314951,7.80875807 40.0159281,7.77980882 40.7067253,7.75750526 L41.5031879,7.73631423 C41.7940795,7.72804701 42.118268,7.71539095 42.4674133,7.69743514 C43.4648164,7.6461408 44.4621475,7.56272547 45.3925194,7.43995868 C47.2521596,7.19457072 48.6059328,6.82309008 49.2250789,6.31152122 C49.2392609,6.29980329 49.2552328,6.29377343 49.2711237,6.29247024 L50.0260947,5.07654531 L52.7199633,0.717689083 L52.7254211,0.709776198 L52.7353598,0.699 Z" id="path-1"></path>
    </defs>
    <g id="Silhouettes/Dreadnought-Class-Ballistic-Submarine" stroke="none" stroke-width="1" fill="none" fill-rule="evenodd">
        <mask id="mask-2" fill="white">
            <use xlink:href="#path-1"></use>
        </mask>
        <use id="Combined-Shape" fill="#3E5667" xlink:href="#path-1"></use>
    </g>
</svg>