<?xml version="1.0" encoding="UTF-8"?>
<svg width="200px" height="54px" viewBox="0 0 200 54" version="1.1" xmlns="http://www.w3.org/2000/svg" xmlns:xlink="http://www.w3.org/1999/xlink">
    <title>Silhouettes/Echo Class Survey Ship</title>
    <defs>
        <path d="M111.666165,-3.55271368e-15 L111.664159,8.8554519 L117.281573,8.8554519 L117.281573,5.5050657 L116.286488,5.50707192 L116.286488,4.82295115 L116.15809,4.82495737 L116.15809,3.02939111 C116.15809,2.21486608 116.81613,1.55682616 117.626643,1.55682616 C118.371451,1.55682616 118.986455,2.10976249 119.083784,2.82931021 L119.097201,3.02939111 L119.097201,4.82495737 L118.97081,4.82295115 L118.97081,5.50707192 L117.973719,5.5050657 L117.973719,8.8554519 L119.127295,8.85745812 L119.127295,9.38108135 L111.664159,10.1635069 L111.666165,15.8451199 L113.168823,15.8451199 L113.168823,16.3145752 L111.844719,16.3145752 L113.058481,21.5668573 L116.759956,28.2335239 L123.573077,28.2335239 L123.575083,26.3336343 L126.447989,26.3336343 L126.445983,28.2335239 L127.28057,28.2335239 L128.78724,16.148059 L130.113351,16.2965192 L130.113351,11.6039723 L131.301033,11.6039723 L131.301033,16.4289297 L135.473969,16.8963788 L135.473969,12.067409 L136.661651,12.067409 L136.661651,17.0307955 L138.049955,17.1852744 L140.429331,28.2315177 L140.441368,34.3625238 L145.416792,34.36453 L145.416792,32.5047648 L148.289698,32.5047648 L148.289698,34.36453 L149.647909,34.36453 L149.645902,35.4739693 L151.12248,35.5201123 L151.132511,35.2312168 L152.045341,35.2613101 L152.249975,34.7838299 L152.717424,34.7978734 L152.526833,35.5642492 L152.968201,35.5802989 L152.968201,34.5671582 L153.618216,34.5671582 L153.620223,34.2220885 C153.620223,34.1839703 153.628248,34.1458521 153.642291,34.1097402 L153.840907,33.63226 L153.839431,32.8497794 L153.268608,32.8402053 L152.961235,32.8245003 C152.863653,32.8140722 152.888039,32.8008056 153.034392,32.7847006 L154.226101,32.7073929 L155.185074,30.4142843 C155.231217,30.3039422 155.339553,30.2337245 155.455913,30.2337245 L155.981543,30.2317183 L156.097904,30.0411275 L165.159996,31.5678604 L165.165873,32.1301018 L165.244257,32.1255893 C165.621426,32.1255893 165.926372,32.4325409 165.926372,32.8077039 C165.926372,33.1828669 165.621426,33.4898184 165.244257,33.4898184 L165.176046,33.4817936 L165.176046,34.1338148 L161.964089,33.8348882 L159.347979,35.7829271 L159.721136,35.7929582 L159.731167,35.5060688 L160.643996,35.5341559 L160.848631,35.0566757 L161.31608,35.0727254 L161.123483,35.8391012 L162.567961,35.8872505 C162.88183,35.8985952 163.468344,36.168328 163.524864,36.4898763 L164.520012,36.4891163 L164.518006,40.1725349 L164.528037,40.1745411 L164.528037,40.7563447 L163.177851,40.7543384 L163.179568,41.3538376 C164.18818,41.6137446 164.933293,42.5294095 164.933293,43.6192196 C164.933293,44.7090296 164.18818,45.6246946 163.179568,45.8846016 L163.177851,46.4459825 L167.48721,46.4459825 L167.48721,45.8962785 L165.005517,45.8962785 L165.005517,44.3113652 L167.48721,44.3113652 L167.48721,42.1366235 L170.257799,42.1366235 L170.257799,44.3113652 L170.582807,44.3113652 L170.582807,43.7576487 L179.658943,43.7576487 L179.658943,43.9462333 L194.639382,43.9442271 L196.483098,36.880329 L196.687732,36.9304845 L197.90952,32.2559936 C197.919551,31.8547497 198.238539,31.5357609 198.631758,31.5357609 C199.02899,31.5357609 199.347979,31.8547497 199.347979,32.2499749 C199.347979,32.439987 199.274248,32.612378 199.153539,32.7401719 L199.153279,33.4804933 C199.648252,33.6724688 200,34.154049 200,34.7176246 C200,35.2781121 199.648252,35.758981 199.153279,35.9507925 L199.151369,43.9442271 L199.903701,43.9462333 L199.929782,46.4459825 L199.077139,53.8770188 L8.53846925,53.8770188 C8.53846925,53.7044839 8.52063619,53.5078744 8.48675338,53.2913513 L8.42210854,52.9521517 C7.71805932,49.5911548 3.91118531,42.3093157 1.66380047,38.1962774 L-2.84217094e-14,35.2111546 L-2.84217094e-14,35.1730364 L24.7607584,36.7077942 L24.7627646,34.1157589 L31.1224797,34.1157589 L31.1204735,37.1030194 L31.5056676,37.1291002 L33.2671281,39.3198917 C33.4260207,39.5269335 33.6593841,39.6749122 33.926131,39.725822 L34.1318086,39.7452102 L35.8350888,39.7973719 L35.837095,37.1712308 L38.7019761,37.1712308 L38.8504364,34.8700973 L38.8363928,34.3625238 L79.8314776,34.3625238 L79.8415087,32.1938008 L81.6230314,32.1938008 L81.6290501,34.3625238 L83.3142743,34.3605176 L81.3220985,29.451299 L83.6653626,29.451299 L83.6653626,29.3329321 L83.7596549,29.3309259 L83.7596549,29.2446584 L83.8399037,29.2446584 L83.8399037,29.158391 L83.9723142,29.158391 L83.9723142,29.2446584 L84.1428428,29.2426522 L84.1649112,29.1383288 L84.034507,29.1082355 L84.0264821,29.140335 L83.5490019,29.0139432 L83.7997793,28.0549704 L83.8780219,28.0730264 L83.9815067,27.9199307 C84.0953806,27.7647935 84.2001707,27.6569418 84.2888925,27.5821834 L83.9422209,27.5855151 C83.9422209,27.5855151 83.2701374,27.5253285 83.2139633,27.5152974 C83.1765139,27.50861 83.1542225,27.4894395 83.1435227,27.4774022 L83.1357207,27.4671482 L83.1337145,27.3848932 L81.0051159,27.3628248 L81.0051159,27.3808807 L80.9409168,27.3788745 L80.9409168,27.4009429 L80.5276357,27.4009429 L80.5276357,27.2284081 L80.9409168,27.2284081 L80.9409168,27.246464 L81.0031096,27.2484703 L81.0031096,27.2665262 L83.1337145,27.246464 L83.1357207,27.2043334 C83.1357207,27.164209 83.1767368,27.1249763 83.2040808,27.1032794 L83.2280068,27.0859665 L84.5701675,26.9154379 L85.6776006,26.9114254 L85.6856254,26.9154379 L85.6876317,26.7408968 L85.8019862,26.7408968 L85.7999799,26.9054068 L85.9424215,26.8171331 L86.0627947,26.5563246 L86.1550808,26.5563246 L86.1550808,26.4921256 L86.0306952,26.4941318 L86.0306952,26.1189688 L86.0547698,26.1169626 L86.0547698,25.9384091 L85.9123282,25.9384091 L85.9123282,25.63547 L86.1310061,25.63547 L86.1310061,25.6956565 L86.3276156,25.7598556 L86.321597,25.9384091 L86.2333233,25.9384091 L86.2333233,26.1169626 L86.2874912,26.1189688 L86.2874912,26.4941318 L86.2152673,26.4921256 L86.2160461,26.5817582 C86.2804502,26.5083162 86.3873608,26.4620323 86.5121878,26.4620323 C86.5382686,26.4620323 86.560337,26.4780821 86.560337,26.4981442 C86.560337,26.5182064 86.5382686,26.5342562 86.5121878,26.5342562 C86.3577089,26.5342562 86.2433544,26.6265423 86.2433544,26.7509279 C86.2433544,26.8692948 86.3637276,26.9675996 86.5121878,26.9675996 C86.5382686,26.9675996 86.560337,26.9836493 86.560337,27.0057177 C86.560337,27.0257799 86.5382686,27.0418297 86.5121878,27.0418297 C86.3900391,27.0418297 86.2815489,26.9925075 86.2161169,26.9171964 L86.2172735,27.0699167 L86.157087,27.0699167 L86.1550808,27.0438359 L85.8140235,27.3848932 L85.8160297,27.5855151 L85.6113953,27.5855151 L85.5147313,27.6838141 C85.523706,27.7085491 85.5215931,27.7378604 85.5070719,27.7620624 C85.4905127,27.7830375 85.4678787,27.795508 85.4438499,27.7978027 L85.4007423,27.7961681 L85.3846925,27.7821246 C85.370044,27.7733354 85.3599411,27.760268 85.3541887,27.7453627 L85.0155482,27.7440064 L84.97743,27.7981743 L85.0015047,27.8382987 L85.0376166,29.2426522 L85.0717223,29.2446584 L85.0717223,29.158391 L85.2041328,29.158391 L85.2041328,29.2446584 L85.2823754,29.2446584 L85.2823754,29.3309259 L85.3806801,29.3329321 L85.3806801,29.451299 L87.5433845,29.451299 L87.7560437,28.9336945 L87.7740997,28.8554519 L87.7740997,26.9395125 L89.1664159,26.9375063 L89.1664159,25.8300732 L89.1423413,25.8300732 L88.2515799,23.3885044 L86.3597151,23.3905106 L89.1202728,20.997091 L92.6793058,21.0051159 L92.6793058,20.2608085 L93.7506269,20.2608085 L93.7506269,21.0071221 L95.8310763,21.015147 L95.8310763,20.997091 L99.5766877,20.9950848 L99.5766877,18.8283679 L98.8183368,18.8283679 L98.8183368,18.3087571 L98.7220383,18.3067509 L98.7220383,16.9425218 C98.7220383,16.5425449 98.9299955,16.1926781 99.2435271,15.9947653 L99.0691143,14.3986358 C99.0691143,13.2510783 100.034106,12.3201926 101.223794,12.3201926 C102.330424,12.3201926 103.246562,13.1310975 103.363795,14.1722249 L103.376467,14.3986358 L103.21597,15.8451199 L104.359514,15.8431137 L104.359514,15.0626944 L103.886047,15.0647006 L103.886047,14.3284181 L103.705487,14.3304243 L103.705487,12.881934 C103.705487,12.3884041 104.104725,11.9891664 104.598255,11.9891664 C105.036948,11.9891664 105.402724,12.3046134 105.478591,12.7213346 L105.493028,12.881934 L105.493028,14.3304243 L105.314475,14.3284181 L105.314475,15.0647006 L104.839001,15.0626944 L104.839001,15.8431137 L106.078844,15.8431137 L106.078844,11.5879226 L105.641489,11.5899288 L105.641489,10.923864 L103.546996,10.9258702 L103.546996,10.6149062 L108.831377,10.6149062 L108.831377,10.9258702 L106.736884,10.923864 L106.736884,11.5899288 L106.295516,11.5879226 L106.295516,15.8411074 L107.423011,15.8431137 L107.423011,13.63226 L108.492326,13.63226 L108.492326,15.8431137 L108.977831,15.8451199 L109.326913,10.1414385 L103.755642,9.38108135 L103.755642,8.85745812 L104.192998,8.8554519 L104.192998,8.59865583 L103.482797,8.60066205 L103.482797,7.64770789 L100.102317,7.64848178 L100.102317,7.02778614 L108.630755,7.02778614 L108.630755,7.64848178 L105.252282,7.64770789 L105.252282,8.60066205 L104.540074,8.59865583 L104.540074,8.8554519 L109.405156,8.8554519 L109.950848,-3.55271368e-15 L111.666165,-3.55271368e-15 Z M122.720433,28.9316882 L115.684622,28.9336945 L115.682616,34.3605176 L115.670579,40.1745411 L122.718427,40.1725349 L122.718427,37.6226302 L120.286889,37.6226302 L120.284883,36.5252282 L118.7742,36.5252282 L118.483654,36.5132565 C117.584739,36.4365918 117.186809,36.0085447 117.018617,35.7194615 L116.937548,35.5527076 L116.904404,35.4498947 L116.691744,33.9833484 L116.679707,33.9853546 L116.613672,33.9772357 L116.581845,33.9550105 L116.571836,33.9218766 L116.571836,33.8413457 C116.57399,33.8168949 116.582428,33.7972088 116.613672,33.7868016 L116.679707,33.778714 L117.14515,33.7767078 L117.157045,33.4007837 C117.171744,33.2387371 117.202891,33.134827 117.26527,33.0378129 L117.338607,32.9411997 L117.640718,32.6191514 L118.463236,31.6761962 L118.601352,31.5968879 L118.842827,31.4852687 L119.006921,31.4224095 C119.304093,31.316665 119.71899,31.2109205 120.241455,31.1786097 L120.56776,31.1686227 L122.720433,31.1666165 L122.720433,28.9316882 Z M149.644367,37.6815437 L149.645902,40.1725349 L152.647206,40.1725349 L152.647206,38.4251179 L152.966195,38.4231116 L152.966195,37.8232521 L150.657037,37.7510282 C150.29736,37.7394963 149.960108,37.7154716 149.644367,37.6815437 Z M160.983692,37.7380024 L158.65209,38.0072547 L158.104123,37.9877621 L158.104123,38.5073729 L159.159394,38.5093791 L159.159394,40.1725349 L160.979035,40.1725349 L160.983692,37.7380024 Z M140.948942,35.1068312 L140.441368,35.1068312 L140.441368,37.7730966 L140.375163,37.7710904 L140.377169,40.1725349 L140.948942,40.1725349 L140.948942,35.1068312 Z M160.618719,32.7149502 L157.506029,32.7325478 L158.080048,34.1097402 C158.096098,34.1458521 158.104123,34.1839703 158.104123,34.2220885 L158.10011,35.6063798 L158.29672,35.6144047 L158.330826,34.4949343 L158.796268,34.5089778 L159.32591,35.0486508 L161.069315,33.7526332 L158.46123,33.5138931 L158.46123,32.8077039 L160.589627,32.8057882 L160.618719,32.7149502 Z M156.872112,32.7362275 L156.278463,32.7394924 L156.278463,34.9082155 L156.318588,34.9122279 L156.278463,35.0707192 L156.278463,35.5301434 L156.555321,35.5301434 L156.601465,34.0776407 L157.291604,34.0997091 L157.468151,35.59033 L157.514294,35.59033 L157.518307,34.2822751 L156.872112,32.7362275 Z M113.084562,22.6482094 L113.084562,28.2335239 L116.182165,28.2335239 L113.084562,22.6482094 Z M110.241749,17.1010131 L104.668472,17.1010131 L103.76768,20.9990972 L103.779717,20.9990972 L103.779717,21.683218 L111.299027,21.683218 L110.241749,17.1010131 Z M102.824757,17.3497843 L101.344167,17.3497843 L101.344167,20.0518002 L100.71622,20.0518002 L100.71622,18.8283679 L100.102317,18.8283679 L100.102317,20.9950848 L101.980138,20.9950848 L102.824757,17.3497843 Z" id="path-1"></path>
    </defs>
    <g id="Silhouettes/Echo-Class-Survey-Ship" stroke="none" stroke-width="1" fill="none" fill-rule="evenodd">
        <mask id="mask-2" fill="white">
            <use xlink:href="#path-1"></use>
        </mask>
        <use fill="#3E5667" xlink:href="#path-1"></use>
    </g>
</svg>