<?xml version="1.0" encoding="UTF-8"?>
<svg width="200px" height="51px" viewBox="0 0 200 51" version="1.1" xmlns="http://www.w3.org/2000/svg" xmlns:xlink="http://www.w3.org/1999/xlink">
    <title>Silhouettes/Enterprise Class</title>
    <defs>
        <path d="M110.68367,0.103991884 C110.961609,0.183150887 111.188415,0.27996435 111.36877,0.392090639 C111.576312,0.521119062 111.71702,0.666916186 111.799218,0.820223439 C111.849563,0.914120421 111.871999,0.997851704 111.876225,1.05683658 L111.94271,2.6998916 C111.947937,2.82887419 111.85102,2.93749611 111.725341,2.94916712 L111.702879,2.95020471 L110.363075,2.9501374 L110.363075,5.54114791 L111.568779,5.54131184 C111.837537,5.54131184 111.898873,5.91060003 111.659943,6.00460787 L111.636661,6.01259495 L110.363075,6.38882727 L110.363075,12.8977522 L111.568779,12.8979028 C111.844669,12.8979028 111.898327,13.2819004 111.648587,13.3655459 L111.625045,13.3723036 L109.090249,13.9847939 L109.090291,21.1808812 L109.253761,21.1809378 C109.378527,21.1809378 109.48106,21.2763387 109.492691,21.3983228 L109.493789,21.4214895 L109.493637,22.2796921 L109.805638,22.282819 C109.929544,22.2840236 110.030773,22.379158 110.042254,22.5003476 L110.043339,22.5233594 L110.043339,23.1637013 C110.043339,23.2746011 109.968456,23.3679729 109.866599,23.3958031 L109.919298,24.3191864 L109.939664,24.3192154 C109.997456,24.3192154 110.045506,24.361507 110.054435,24.4170579 L110.055911,24.4340919 L110.097806,27.4365609 L110.185703,28.9689407 L122.549331,28.8091052 L122.55272,28.7891958 L124.323072,20.2144119 C124.345777,20.1044378 124.440933,20.025871 124.551033,20.0226947 L124.573235,20.0230777 L127.042118,20.1790664 L127.042174,9.14205855 C127.042174,9.00920551 127.149638,8.90150684 127.282202,8.90150684 C127.406969,8.90150684 127.509501,8.99690773 127.521132,9.11889182 L127.522231,9.14205855 L127.522129,20.2093823 L133.754049,20.603564 C133.851883,20.6097499 133.935308,20.674748 133.966266,20.7664166 L133.972462,20.7880297 L135.408233,26.8442348 L135.85251,26.9867009 C135.944829,27.0163024 136.009594,27.0982774 136.018375,27.1935961 L136.019395,27.2158119 L136.019245,28.8924317 L136.036606,28.8905302 L136.054329,28.8898862 L138.784762,28.8897256 L138.784762,24.0961479 L137.688326,24.0961686 C137.584638,24.0961686 137.493595,24.0296132 137.460944,23.9326921 L137.452948,23.9033818 L137.422528,23.7678713 L137.414874,23.7323885 C137.385244,23.5940437 137.355634,23.4446368 137.327977,23.289458 C137.291739,23.0861286 137.261597,22.888072 137.239591,22.7006017 C137.189407,22.273093 137.183788,21.932259 137.239859,21.6909875 L137.250398,21.6494463 L137.264113,21.601968 C137.581191,20.5564882 138.748007,20.0237645 139.623702,20.4548841 C139.899626,20.588094 140.122247,20.7526873 140.295283,20.942249 C140.476719,21.1410131 140.594541,21.3561377 140.660438,21.5727095 C140.696786,21.6921675 140.712054,21.7915544 140.714998,21.8623454 L140.715542,21.8875349 L140.714253,21.9124311 L140.509909,23.8805131 C140.49798,23.9954062 140.406647,24.0844157 140.293972,24.0950931 L140.27117,24.0961686 L139.283389,24.0961479 L139.283389,28.8897256 L139.590149,28.8898862 C139.854231,28.8898862 139.920423,29.2496125 139.68859,29.350034 L139.665979,29.35867 L136.195894,30.516631 C136.134653,30.537067 136.072332,30.5314203 136.019409,30.5068173 L136.019395,33.9384606 C136.019395,33.9505899 136.018691,33.9622699 136.017336,33.9734985 L136.098165,33.985796 L138.09476,33.9858933 C138.219526,33.9858933 138.322059,34.0812942 138.33369,34.2032783 L138.334788,34.226445 L138.334669,35.4719417 L138.345756,35.4696678 C138.378348,35.3877324 138.45459,35.3279761 138.545691,35.3192519 L138.568807,35.3181508 L139.315563,35.3181508 C139.440329,35.3181508 139.542862,35.4135517 139.554492,35.5355357 L139.555591,35.5587025 L139.555364,38.5133513 L140.439536,38.5543364 L140.864619,38.5542451 L140.868469,38.5500498 L140.88132,38.5385529 L141.549977,38.0231417 L142.316484,37.3611463 L145.108006,37.5290924 L145.134491,37.5296883 L145.133109,37.5272545 L145.1259,37.5115753 L144.583864,36.0618653 C144.555126,35.985006 144.612579,35.9032574 144.694469,35.9044851 L149.395027,35.9748192 L149.814372,35.9701553 L149.812123,35.911675 C149.809502,35.8473812 149.859384,35.7931314 149.923538,35.7905047 C149.930948,35.7902013 149.938224,35.7905999 149.945303,35.7916413 L149.945262,35.5697861 L149.514944,35.5682932 L146.579183,35.5521217 L144.723371,35.532568 C143.817292,35.5196247 143.202378,35.5037044 142.933666,35.4844628 C142.367971,35.4460016 141.875375,35.2230414 141.457952,34.8764576 C141.297088,34.7428925 141.15861,34.5998739 141.042469,34.4566374 L140.998949,34.401659 L140.962124,34.3527248 L140.934881,34.3144977 L140.905684,34.3111556 C140.808652,34.2995024 140.728843,34.2882706 140.666751,34.2774694 L140.618251,34.2683922 C140.22304,34.1887608 139.904551,34.0516982 139.655374,33.8726743 C139.40153,33.6902968 139.263201,33.5039337 139.208312,33.372449 C139.178665,33.3014284 139.224472,33.2251188 139.29494,33.2126976 L139.310399,33.211039 L139.348973,33.2136102 L140.334867,33.3049145 L141.30203,33.3922727 L141.879314,33.4231346 C142.827916,33.4756906 143.926158,33.5445923 144.966597,33.6129086 C144.959944,33.586765 144.962883,33.5585539 144.97571,33.5334678 L144.984675,33.5187264 L147.740309,29.6552174 C147.779941,29.5996518 147.855963,29.5916787 147.906136,29.6307859 L147.919132,29.6426184 L147.930566,29.6567831 L150.174546,32.914745 L151.458607,32.9148923 C151.528913,32.9148923 151.595207,32.9457465 151.640514,32.9984983 L151.656486,33.0192892 L152.161711,33.7567552 L152.164895,33.7619247 L152.69427,33.7299431 L152.694435,33.155444 C152.694435,33.0304059 152.789629,32.9276498 152.911348,32.9159935 L152.934464,32.9148923 L153.725101,32.9148984 C153.729572,32.8993642 153.73567,32.884108 153.743441,32.8693708 L153.756011,32.8482101 L154.621842,31.5449393 C154.695309,31.4343547 154.844317,31.4043948 154.954662,31.4780221 C155.058109,31.5470476 155.090849,31.6826116 155.034003,31.7904064 L155.021433,31.8115672 L154.288254,32.9148024 L154.311154,32.9148923 C154.385311,32.9148923 154.454803,32.9492001 154.500011,33.006973 L154.514155,33.0270849 L154.978435,33.7645509 C154.994902,33.7907069 155.005718,33.8188242 155.011207,33.8474666 L156.669317,34.2348195 L156.782848,34.2574613 C156.794143,34.2597021 156.80473,34.2635123 156.814426,34.268621 L156.891368,34.2866771 L156.909302,34.2762748 C156.983426,34.2365615 157.287284,34.1042673 157.82025,34.2579676 C158.144289,34.2765344 158.421276,34.3960469 158.650887,34.5839955 C158.699825,34.6240544 158.743339,34.6641899 158.781535,34.7030916 C158.868406,34.6762197 158.964213,34.7015329 159.026762,34.7687045 L159.042302,34.7871766 L159.056166,34.8075088 L159.720283,35.8954501 C159.789463,36.0087782 159.753873,36.156852 159.640791,36.2261821 L159.635976,36.2286733 L159.687169,38.2521767 L159.751803,40.0896578 L159.733541,40.0896204 L159.733923,40.1010106 C159.735441,40.1610363 159.69144,40.2113975 159.633751,40.2193742 L159.617703,40.2204742 L158.159711,40.2203786 L157.982476,41.3877031 C157.965536,41.4992814 157.87347,41.5840541 157.761101,41.5915409 L157.715102,41.5944221 L157.715128,43.5782223 C157.715128,43.607249 157.709998,43.635075 157.700597,43.6608392 L158.939937,43.6629569 L159.002903,41.5780334 C159.006584,41.4558832 159.100678,41.3572357 159.219751,41.3458417 L159.242354,41.3447434 L161.520118,41.340568 L161.520277,38.8880286 C161.520277,38.7629904 161.61547,38.6602343 161.737189,38.648578 L161.760306,38.6474768 L184.580588,38.647484 C184.569217,38.5663857 184.599475,38.4815121 184.667748,38.4264178 C184.764547,38.3483045 184.903401,38.3577839 184.988884,38.4445367 L185.005241,38.4629146 L185.153333,38.6474495 L187.060225,38.6474768 C187.179754,38.6474768 187.279814,38.7353003 187.297492,38.8515549 L187.299826,38.8736713 L187.438038,41.191487 L188.351866,41.1916218 C188.358872,41.1477285 188.378521,41.1047851 188.412813,41.0680156 L188.428769,41.0523279 L198.629047,31.8436017 C198.700672,31.7789388 198.803221,31.7639695 198.889511,31.8035537 L198.910717,31.814589 L199.880974,32.382276 C200.014643,32.4604847 200.039129,32.6411925 199.93711,32.7523826 L199.919948,32.7693362 L190.277108,41.4103754 C190.23939,41.4441744 190.192154,41.4650185 190.142255,41.4702842 L190.117115,41.4716067 L190.081276,41.4713973 C190.083939,41.4821777 190.085886,41.4932405 190.087065,41.504531 L190.087237,43.8299376 C190.099699,43.8590804 190.106598,43.8911841 190.106598,43.9248979 C190.106598,43.9586321 190.099645,43.9907346 190.087101,44.0198559 L190.087065,44.0175398 C190.087065,44.0396884 190.084013,44.061695 190.078023,44.0829419 L190.071058,44.1039125 L187.758294,50.1286225 C187.722673,50.2214134 187.633763,50.2826826 187.534558,50.2828012 L158.765621,50.3098516 L144.366702,50.3197968 C132.27629,50.3271612 120.289896,50.3318991 108.684579,50.3333333 L80.4590843,50.3294814 C68.4594919,50.3242005 57.7000649,50.3139794 48.3807089,50.2983294 L33.821953,50.265998 C27.6395359,50.2480664 22.552079,50.2264736 18.6335319,50.2010381 L13.5114286,50.1622218 L12.2059597,50.1492531 C9.18124321,50.1147194 8.99176846,50.0699477 8.9295887,49.9099087 L8.92103579,49.8855074 C8.56374005,48.7967126 8.13611215,47.7113385 7.64570879,46.6330543 L7.39406881,46.1532907 C6.73568926,44.9017171 5.96404361,43.4637305 5.17184047,42.050313 L5.10947047,41.9504083 C4.00566327,40.190016 2.82278082,38.5690859 1.64009852,37.1254496 L1.46464151,36.9126106 C1.11748212,36.4941362 0.793197318,36.1190483 0.498030011,35.7903104 L0.305377422,35.5779102 L0.141446617,35.4011975 L0.0682488672,35.3241082 C-0.0768335722,35.1741582 0.0250957357,34.926928 0.226481678,34.9164342 L0.248432595,34.916231 L2.85662891,35.001712 L3.05969865,15.6265237 C3.06109053,15.493678 3.16967743,15.387116 3.30223427,15.3884841 C3.42699366,15.3898238 3.52852114,15.4862983 3.53887344,15.6083981 L3.53972945,15.6315751 L3.41168843,27.8660212 L3.42231629,27.8785581 L3.43658045,27.8986106 L8.0572255,35.1411371 C8.06383629,35.1514991 8.06955526,35.1621766 8.07440227,35.1730792 L17.7949387,35.4925763 C17.8182002,35.4933404 17.8411853,35.4974894 17.8631809,35.5048589 L17.8848204,35.5132958 L17.8918678,35.5164161 L17.9380798,35.517293 L18.0841713,35.6023667 L20.027151,36.4705343 L20.1748847,36.4762927 C20.2746482,36.4801732 20.3578215,36.5445423 20.3906107,36.6327971 L21.6817586,37.209776 L21.7480759,37.0693567 L21.7628982,36.9265409 C21.7749871,36.8089396 21.8701091,36.7188238 21.9855862,36.7111664 L22.0089344,36.7107507 L26.454109,36.8458185 L31.0959855,36.8969558 L31.0960813,36.6733717 C31.0960813,36.5483335 31.1912747,36.4455775 31.3129935,36.4339212 L31.3361099,36.43282 L32.865682,36.43282 C32.9692144,36.43282 33.06016,36.4991792 33.0929308,36.5959023 L33.0990461,36.6170803 L33.171766,36.9199426 L36.3418645,36.9549225 L36.4538795,36.271891 C36.4716499,36.1633809 36.5601721,36.0818134 36.6674768,36.07142 L36.6907392,36.0702984 L37.9190189,36.0702644 L38.9381434,35.9980199 L38.9380444,36.0702644 L39.0718683,36.0702984 C39.1966346,36.0702984 39.2991672,36.1656993 39.3107982,36.2876834 L39.311897,36.3108501 L39.3118478,37.0092246 L39.7145714,37.0656921 L39.7145741,36.3707057 C39.7145741,36.3464173 39.7182443,36.3223166 39.7254197,36.2992139 L39.7337573,36.2764739 L39.8393238,36.0281903 L39.8189711,36.0228841 L39.7972005,36.0150175 L37.1437384,34.9108889 C37.0954865,34.8908108 37.057236,34.8567811 37.0317105,34.8154044 L29.2806535,34.8152132 C29.1558872,34.8152132 29.0533546,34.7198123 29.0417236,34.5978282 L29.0406248,34.5746615 L29.0406248,33.1241987 C29.0406248,32.9991605 29.1358183,32.8964044 29.2575371,32.8847481 L29.2806535,32.8836469 L34.2130635,32.8835963 L39.3100188,32.8012043 L39.3100698,32.9063123 C39.3917141,32.9447083 39.4482512,33.0278366 39.4482512,33.1241987 C39.4482512,33.2205607 39.3917141,33.303689 39.3100698,33.342085 L39.3098532,33.7732515 L64.9462154,33.8275536 L82.412747,33.7635732 C82.4128042,33.7578131 82.4132939,33.7519903 82.4142429,33.7461425 L82.4179038,33.7304393 L83.7093255,29.5021501 C83.7262283,29.4468077 83.7805824,29.413142 83.8361681,29.4207889 L83.8534522,29.4244182 L83.9369382,29.1304379 L84.5360707,29.1304379 L84.5359477,27.7446079 L83.0080011,27.7447245 C82.8832348,27.7447245 82.7807022,27.6493236 82.7690713,27.5273395 L82.7679725,27.5041728 C82.7679725,27.3791346 82.8631659,27.2763785 82.9848847,27.2647222 L83.0080011,27.2636211 L84.5359477,27.2635511 L84.5360707,25.7077521 C84.5360707,25.5748991 84.6435352,25.4672004 84.7760993,25.4672004 C84.9008656,25.4672004 85.0033982,25.5626013 85.0150292,25.6845854 L85.016128,25.7077521 L85.0161246,27.2635511 L85.6252802,27.2637216 C85.622158,27.2482389 85.6205193,27.2322172 85.6205193,27.2158119 C85.6205193,27.0907737 85.7157127,26.9880176 85.8374316,26.9763613 L85.8605479,26.9752602 L87.1176674,26.9752168 L85.3376975,24.8234098 C85.2364714,24.7010478 85.2800293,24.5179978 85.4200674,24.4522813 L85.440724,24.4437107 L85.6475089,24.3684913 L85.6246512,24.3382261 L90.5250605,22.5675992 L90.5221087,22.5465261 L90.5210099,22.5233594 L90.5210099,4.21583048 C90.5210099,4.08297744 90.6284744,3.97527876 90.7610386,3.97527876 C90.8858048,3.97527876 90.9883375,4.07067966 90.9999684,4.19266374 L91.0010672,4.21583048 L91.0009249,22.3956255 L91.8116803,22.1028645 L92.4333115,22.1137875 L93.3384961,22.1228202 C93.3227443,22.094541 93.3125222,22.0627469 93.3092956,22.028907 L93.3081969,22.0057403 L93.3081969,21.5415771 C93.3081969,21.3806093 93.4619031,21.2672276 93.6126996,21.309829 L93.63323,21.3166153 L94.1524506,21.5135233 L94.1953272,21.1623474 C94.2066587,21.0692628 94.2707239,20.9920263 94.3582778,20.9630679 L94.3806387,20.9568529 L95.6694309,20.6647275 C95.7522597,20.645953 95.838193,20.6725039 95.8960366,20.7332827 L95.9110923,20.750699 L96.185679,21.1007978 C96.2174922,21.1413596 96.2353087,21.1909032 96.2368831,21.2420262 L96.2363064,21.267685 L96.1693506,22.1501 L99.163005,22.1794111 C99.1677029,22.1604477 99.1749151,22.1415196 99.1848857,22.122949 L99.195785,22.1045096 L100.181629,20.5803357 L99.8374264,20.5804996 C99.7126601,20.5804996 99.6101275,20.4850987 99.5984965,20.3631147 L99.5973977,20.3399479 L99.5973977,19.7741432 C99.5973977,19.583993 99.8053753,19.4718368 99.9622582,19.568612 L99.9801186,19.580713 L100.553604,20.0054995 L100.993102,19.3261141 L100.993245,15.3406885 C100.993245,15.3237463 100.994993,15.3072132 100.998317,15.2912603 L100.552253,15.2913735 C100.419556,15.2913735 100.313655,15.1839723 100.312223,15.0538355 L100.31307,15.0306514 L100.381059,14.2209069 C100.390867,14.1041007 100.482851,14.0126116 100.597111,14.0016317 L100.620243,14.0005256 L103.148995,14.0005089 L99.2231969,13.3760309 C98.939661,13.3309196 98.9633289,12.9229607 99.2354141,12.8990022 L99.2608318,12.8979028 L99.6589765,12.8979133 C99.6461041,12.8720715 99.6377364,12.8435823 99.6349041,12.8134787 L99.633834,12.7906144 L99.6336811,11.8730653 L99.5989003,11.8732052 C99.4816773,11.8732052 99.3828625,11.7886549 99.3626371,11.6751717 L99.3596577,11.6521058 L99.3069148,11.0027322 L96.2670474,11.0028522 C96.1537063,11.0028522 96.0569489,10.9236527 96.0327738,10.8147114 L96.0289231,10.7925413 L95.9631875,10.2726635 C95.9459732,10.1365214 96.0453683,10.0152945 96.1787764,10.002911 L96.2013119,10.0018709 L104.565126,10.0018709 C104.689893,10.0018709 104.792425,10.0972718 104.804056,10.2192559 L104.805155,10.2424227 L104.805155,10.7623005 C104.805155,10.8873386 104.709962,10.9900947 104.588243,11.001751 L104.565126,11.0028522 L101.38818,11.0027322 L101.333854,11.6527681 C101.324071,11.7695967 101.23208,11.8611152 101.117801,11.8720986 L101.094666,11.8732052 L100.928114,11.8730653 L100.928261,12.7906144 C100.928261,12.8291722 100.919209,12.8656111 100.903118,12.8979133 L105.19681,12.8977522 L105.19681,10.0403948 L104.452222,9.642698 C104.238578,9.52857176 104.310294,9.21059452 104.542189,9.19083239 L104.565126,9.18986773 L105.19681,9.18971713 L105.19681,6.2145941 L104.435796,6.01452674 C104.171897,5.9450749 104.21255,5.56534778 104.471817,5.5423978 L104.496761,5.54131184 L105.19681,5.54114791 L105.196939,3.42039108 L105.339583,3.42036708 L105.262624,3.3294965 C105.134982,3.17881375 105.233468,2.95029829 105.424058,2.93416795 L105.445607,2.93326445 L107.556657,2.93326445 C107.681423,2.93326445 107.783956,3.02866535 107.795587,3.15064943 L107.796686,3.17381617 L107.796523,5.54120523 L109.864449,5.54114791 L109.864449,2.9501374 L108.512264,2.95020471 C108.398469,2.95020471 108.300314,2.87012712 108.277227,2.75845626 L108.261714,2.67549408 C108.250574,2.61192296 108.239477,2.54087547 108.229136,2.46387599 C108.193233,2.19654392 108.174952,1.92575133 108.18399,1.66983322 C108.197532,1.28638287 108.270246,0.9722758 108.428123,0.746433422 L108.457392,0.706836312 C108.950492,0.0791260969 109.770238,-0.155218315 110.68367,0.103991884 Z M182.675912,37.1433745 L182.692337,37.1616914 L183.505996,38.1667365 C183.589518,38.2699042 183.573774,38.4213936 183.470831,38.5050976 C183.374322,38.5835702 183.235434,38.574607 183.14963,38.4881725 L183.133206,38.4698556 L182.319546,37.4648105 C182.236024,37.3616429 182.251768,37.2101534 182.354711,37.1264494 C182.451221,37.0479769 182.590108,37.0569401 182.675912,37.1433745 Z M183.369015,36.4284114 L183.385372,36.4467892 L184.195306,37.4548519 C184.278446,37.5583293 184.262141,37.7097592 184.158889,37.79308 C184.06209,37.8711932 183.923237,37.8617138 183.837753,37.774961 L183.821396,37.7565832 L183.011462,36.7485205 C182.928322,36.6450431 182.944627,36.4936132 183.047879,36.4102924 C183.144678,36.3321792 183.283531,36.3416586 183.369015,36.4284114 Z M139.075504,35.7991443 L138.924378,35.7990869 L139.075462,37.0981735 L139.075504,35.7991443 Z M181.048592,35.1332844 L181.065017,35.1516013 L181.878677,36.1566463 C181.962199,36.259814 181.946455,36.4113034 181.843511,36.4950075 C181.747002,36.57348 181.608115,36.5645168 181.522311,36.4780823 L181.505886,36.4597654 L180.692226,35.4547204 C180.608704,35.3515527 180.624448,35.2000633 180.727391,35.1163592 C180.823901,35.0378867 180.962788,35.0468499 181.048592,35.1332844 Z M1.02231965,35.6558669 L1.10428327,35.749448 C1.25232933,35.9180634 1.40645017,36.0968072 1.56599571,36.2853742 C1.37072942,36.0365723 1.18862042,35.8247059 1.02231965,35.6558669 Z M181.749146,34.4122861 L181.765502,34.4306639 L182.575437,35.4387266 C182.658577,35.542204 182.642272,35.6936339 182.53902,35.7769547 C182.442221,35.8550679 182.303367,35.8455885 182.217884,35.7588357 L182.201527,35.7404579 L181.391592,34.7323952 C181.308453,34.6289178 181.324757,34.4774879 181.42801,34.3941671 C181.524809,34.3160539 181.663662,34.3255333 181.749146,34.4122861 Z M39.228411,35.2572318 L39.8779546,35.5275764 L39.876847,35.517293 L39.228411,35.2572318 Z M141.717836,34.7847474 L141.759205,34.815228 C142.077697,35.0437552 142.437966,35.1949685 142.839906,35.2418691 L142.58914,35.1503526 C142.338633,35.0565947 141.99476,34.9207953 141.717836,34.7847474 Z M3.40233462,28.7382034 L3.33647343,35.0175362 L7.49584613,35.1541244 L3.40233462,28.7382034 Z M137.854701,34.4669101 L137.813605,34.4668528 L137.854659,34.6071055 L137.854701,34.4669101 Z M179.421272,33.1231942 L179.437697,33.1415111 L180.251357,34.1465562 C180.334879,34.2497238 180.319135,34.4012133 180.216192,34.4849173 C180.119682,34.5633898 179.980795,34.5544266 179.894991,34.4679922 L179.878566,34.4496753 L179.064906,33.4446302 C178.981384,33.3414625 178.997128,33.1899731 179.100072,33.1062691 C179.196581,33.0277965 179.335468,33.0367597 179.421272,33.1231942 Z M32.1251498,34.2391504 L29.5204933,34.2391504 L29.5204933,34.3339865 L36.9250908,34.3339292 L36.7130085,34.248978 L32.1251498,34.2391504 Z M139.719467,33.6287126 L139.744549,33.6487706 L139.790848,33.6832903 C139.945543,33.7944324 140.132156,33.8882675 140.35398,33.9597287 L139.941775,33.7467215 C139.86323,33.7057513 139.788337,33.6661693 139.719467,33.6287126 Z M147.955204,30.1025857 L147.999595,33.7631255 C147.999838,33.7832492 147.994977,33.8022431 147.986215,33.8188698 L148.719629,33.8710172 C148.716839,33.8439218 148.718981,33.8160944 148.726203,33.7886183 L148.733159,33.766498 L148.988213,33.0723237 C149.020293,32.9850113 149.099373,32.9247483 149.190456,32.9159937 L149.213457,32.9148923 L149.891991,32.914745 L147.955204,30.1025857 Z M180.129276,32.3961608 L180.145633,32.4145386 L180.955568,33.4226012 C181.038707,33.5260787 181.022403,33.6775085 180.91915,33.7608293 C180.822351,33.8389426 180.683498,33.8294632 180.598015,33.7427104 L180.581658,33.7243325 L179.771723,32.7162699 C179.688584,32.6127925 179.704888,32.4613626 179.808141,32.3780418 C179.90494,32.2999285 180.043793,32.3094079 180.129276,32.3961608 Z M147.722345,30.0809315 L145.192719,33.6278058 L147.43366,33.7801279 C147.553159,33.7884553 147.667007,33.7964201 147.774454,33.8039614 C147.771389,33.7969616 147.769491,33.789482 147.768349,33.7817514 L147.767096,33.7659556 L147.722345,30.0809315 Z M177.793953,31.113104 L177.810377,31.1314209 L178.624037,32.136466 C178.707559,32.2396337 178.691815,32.3911231 178.588872,32.4748271 C178.492362,32.5532996 178.353475,32.5443365 178.267671,32.457902 L178.251246,32.4395851 L177.437586,31.43454 C177.354064,31.3313723 177.369809,31.1798829 177.472752,31.0961789 C177.569261,31.0177063 177.708149,31.0266695 177.793953,31.113104 Z M197.467271,30.631384 C197.771914,30.8282574 198.03726,31.015358 198.262102,31.1867618 L198.352054,31.2562171 C198.380337,31.2783534 198.406917,31.2994584 198.431783,31.3194848 L198.540828,31.4098245 C198.640832,31.4970334 198.651359,31.6489765 198.56434,31.749199 C198.47732,31.8494214 198.325708,31.8599709 198.225703,31.772762 L198.164253,31.7214294 L198.094745,31.665467 L198.015084,31.6031377 C198.000964,31.5922346 197.986424,31.5810781 197.971464,31.569674 C197.756305,31.4056516 197.501097,31.2256995 197.207111,31.0357132 C197.095701,30.9637154 197.063625,30.8148376 197.135466,30.7031852 C197.207307,30.5915328 197.355861,30.5593863 197.467271,30.631384 Z M179.013298,30.0784386 C179.069137,30.1989307 179.016938,30.3419738 178.896708,30.3979344 C178.807068,30.4396568 178.717374,30.4820265 178.627626,30.5250457 L179.335699,31.4064759 C179.418838,31.5099533 179.402534,31.6613832 179.299281,31.744704 C179.202482,31.8228173 179.063629,31.8133379 178.978145,31.726585 L178.961789,31.7082072 L178.185739,30.7418971 C178.040329,30.814914 177.89478,30.8896386 177.749093,30.9660803 C177.631651,31.0277017 177.486601,30.982243 177.425113,30.8645454 C177.363626,30.7468478 177.408985,30.601481 177.526427,30.5398595 C177.916647,30.3351116 178.306016,30.1424109 178.694497,29.961594 C178.814727,29.9056334 178.957459,29.9579465 179.013298,30.0784386 Z M195.160509,29.3914996 C195.570017,29.5730392 195.962379,29.7653716 196.337142,29.9662682 C196.454034,30.02893 196.498107,30.1746938 196.435582,30.2918409 C196.373056,30.408988 196.22761,30.4531571 196.110717,30.3904954 C195.746347,30.19517 195.364719,30.0080994 194.966309,29.8314792 C194.845076,29.7777352 194.790271,29.6356744 194.843898,29.5141774 C194.897525,29.3926804 195.039277,29.3377557 195.160509,29.3914996 Z M138.109665,29.3708397 L136.308295,29.3708397 L136.34187,29.9608338 L138.109665,29.3708397 Z M181.415343,29.1345484 C181.45828,29.26024 181.391415,29.3970157 181.265997,29.4400456 C180.868204,29.576525 180.468978,29.725775 180.068359,29.8880162 C179.945451,29.9377913 179.805551,29.8782879 179.755884,29.7551117 C179.706217,29.6319355 179.765591,29.4917308 179.8885,29.4419558 C180.297143,29.2764648 180.704496,29.1241766 181.11051,28.9848764 C181.235929,28.9418465 181.372407,29.0088569 181.415343,29.1345484 Z M192.696106,28.5069403 C193.121071,28.6256256 193.536791,28.7583937 193.943034,28.9041316 C194.067842,28.9489062 194.132802,29.0866011 194.088125,29.2116817 C194.043447,29.3367624 193.906052,29.4018633 193.781243,29.3570888 C193.385736,29.2152024 192.98099,29.0859389 192.567236,28.9703846 C192.439538,28.9347207 192.364867,28.8020639 192.400453,28.6740872 C192.436039,28.5461106 192.568408,28.4712764 192.696106,28.5069403 Z M85.5145845,27.7446079 L85.0161246,27.7446079 L85.0161246,29.1304379 L85.9710717,29.1304758 C85.9639315,29.1029061 85.9616096,29.0737237 85.9648717,29.0440998 L85.9685058,29.0211947 L86.1246941,28.2685826 L85.7948124,28.2687432 C85.6821129,28.2687432 85.5857079,28.1904135 85.5609093,28.082238 L85.5569208,28.0602193 L85.5145845,27.7446079 Z M183.912038,28.4669711 C183.939861,28.5968649 183.857346,28.7247692 183.727735,28.7526534 C183.316521,28.8411207 182.903253,28.9432949 182.487986,29.0594659 C182.360303,29.0951851 182.227902,29.0204083 182.19226,28.8924471 C182.156619,28.7644859 182.231233,28.6317967 182.358916,28.5960774 C182.783543,28.4772882 183.206252,28.3727797 183.626977,28.2822663 C183.756588,28.2543821 183.884214,28.3370773 183.912038,28.4669711 Z M190.111018,27.9845358 L190.134085,27.9864101 C190.570416,28.0428675 191.000763,28.1145532 191.424969,28.2007389 C191.55489,28.227135 191.63886,28.3540847 191.612522,28.4842891 C191.586183,28.6144935 191.459509,28.6986467 191.329588,28.6722506 C190.916538,28.5883314 190.497499,28.5185293 190.072615,28.4635531 C189.941142,28.4465417 189.848323,28.3259391 189.865297,28.1941797 C189.881273,28.0701709 189.988812,27.9804764 190.111018,27.9845358 Z M186.471125,28.1180658 C186.481903,28.250479 186.383532,28.3665775 186.251406,28.3773791 C185.831847,28.411679 185.409374,28.4603496 184.984059,28.523773 C184.852938,28.5433258 184.730828,28.4526507 184.711317,28.3212444 C184.691807,28.1898381 184.782285,28.0674615 184.913406,28.0479087 C185.349235,27.9829174 185.782255,27.9330318 186.212376,27.8978684 C186.344501,27.8870669 186.460347,27.9856526 186.471125,28.1180658 Z M188.828593,27.8647452 C188.96094,27.8723375 189.062088,27.986015 189.054512,28.1186509 C189.046936,28.2512868 188.933506,28.3526547 188.801158,28.3450624 C188.380551,28.3209336 187.955809,28.311374 187.527032,28.3168938 C187.394478,28.3186002 187.285643,28.2122937 187.28394,28.0794516 C187.282237,27.9466096 187.388312,27.8375365 187.520866,27.8358301 C187.960895,27.8301654 188.396843,27.8399772 188.828593,27.8647452 Z M135.504178,27.3799842 L135.539248,27.8257279 L135.539248,27.391311 L135.504178,27.3799842 Z M86.1399853,27.4562163 L85.9595252,27.4562736 L85.9624609,27.472145 L86.004734,27.7875832 L86.3336184,27.7875259 L86.1399853,27.4562163 Z M85.9429803,24.7731297 L85.9249538,24.7794791 L86.3542283,25.2984567 L85.9606652,24.7806182 C85.9545258,24.7786031 85.9486154,24.7760908 85.9429803,24.7731297 Z M108.460484,21.6617141 L108.876627,22.2188112 L108.811018,22.2298874 L108.817207,22.2397186 C108.822769,22.2504378 108.826519,22.2617487 108.828518,22.2732451 L109.013626,22.2750281 L109.013669,21.6619379 L108.460484,21.6617141 Z M100.531332,22.1704216 L100.516705,22.192409 L101.001536,22.197073 L100.531332,22.1704216 Z M106.210227,20.7378025 L104.968648,20.7378025 L104.571742,20.8623976 L105.498189,21.3883719 C105.631513,21.4640703 105.659424,21.6419994 105.561525,21.7549605 L105.545019,21.7722322 L105.23641,22.0652061 L107.158281,22.1003526 L106.210227,20.7378025 Z M103.18791,21.2968901 L101.972404,21.6787616 L101.782427,22.0022423 L103.467451,22.0330579 L103.151293,21.6329728 C103.072802,21.5336738 103.086586,21.3958738 103.170252,21.3127568 L103.18791,21.2968901 Z M104.346529,21.28732 L103.717761,21.5748214 L104.002477,21.9349477 L104.675954,21.9349477 L104.979285,21.6466134 L104.346529,21.28732 Z M95.6273866,21.1673889 L94.6512429,21.3887617 L94.626644,21.5911453 L95.7089951,21.8708179 L95.7503811,21.3244653 L95.6273866,21.1673889 Z M133.511625,21.0702207 L133.640271,21.4686584 L133.546405,21.0724435 L133.511625,21.0702207 Z M108.610238,14.1007273 L108.023489,14.2426566 C108.012299,14.2453607 108.000937,14.2472529 107.989491,14.2483217 L107.97227,14.249306 L107.512263,14.2588031 L107.512263,18.7505542 L107.89435,18.7505749 C108.088907,18.7505749 108.19685,18.9663833 108.096951,19.1205493 L108.08499,19.137411 L108.070739,19.154271 L107.324359,19.9647684 C107.301574,19.9895113 107.273925,20.0091148 107.243259,20.022408 L107.237354,20.0244886 L108.122968,21.2099282 C108.150557,21.194922 108.181409,21.1851777 108.214185,21.182039 L108.237302,21.1809378 L108.610281,21.1808812 L108.610238,14.1007273 Z M103.362906,20.7378025 L102.52538,20.7378025 L102.335902,21.0602838 L103.362906,20.7378025 Z M101.606246,15.5811003 L101.473279,15.5811003 L101.473236,18.9241211 L101.520256,18.8544752 L101.606203,18.8543279 L101.606246,15.5811003 Z M104.59767,14.2310431 L104.598182,14.2410773 L104.598182,15.0508218 C104.598182,15.17586 104.502989,15.278616 104.38127,15.2902723 L104.358153,15.2913735 L102.081261,15.2912603 L102.085044,15.3156034 L102.086333,15.3406885 L102.086257,18.750445 L105.19681,18.7505542 L105.19681,14.3077749 L105.11484,14.309538 L105.093434,14.3090319 L105.072158,14.306616 L104.59767,14.2310431 Z M104.117992,14.4815657 L100.840855,14.4815657 L100.813264,14.8102101 L104.117992,14.8102101 L104.117992,14.4815657 Z M105.19681,13.378809 L102.302993,13.3788663 L105.125715,13.8279415 L105.19681,13.826385 L105.19681,13.378809 Z M108.610238,13.378809 L107.512263,13.378809 L107.512263,13.7775797 L107.936138,13.7686422 L108.610238,13.6056785 L108.610238,13.378809 Z M109.54936,13.3788663 L109.090249,13.378809 L109.090249,13.4897452 L109.54936,13.3788663 Z M109.864449,6.53624253 L108.305184,6.99701237 C108.271608,7.0069339 108.236377,7.00934572 108.201959,7.00421087 L108.176336,6.99894416 L107.512263,6.82407706 L107.512263,9.18971713 L109.327009,9.18986773 C109.56716,9.18986773 109.65464,9.50027077 109.462672,9.62902307 L109.443217,9.64089938 L108.083431,10.3949292 C108.060285,10.4077641 108.035236,10.4166467 108.00931,10.4212742 L107.983132,10.4244721 L107.512263,10.455656 L107.512263,12.8977776 L108.646437,12.8977776 C108.688808,12.8295948 108.764282,12.7842148 108.850332,12.7842148 C108.936383,12.7842148 109.011857,12.8295948 109.054228,12.8977776 L109.864449,12.8977776 L109.864449,6.53624253 Z M100.448104,11.9330308 L100.113858,11.9330308 L100.113858,12.5500094 L100.448104,12.5500094 L100.448104,11.9330308 Z M100.901521,11.0611986 L99.7934077,11.0611986 L99.8201673,11.3920085 L100.873764,11.3920085 L100.901521,11.0611986 Z M104.325088,10.4828644 L96.4735551,10.4828644 L96.4785414,10.5216755 L104.325088,10.5216755 L104.325088,10.4828644 Z M108.397367,9.67083124 L107.512263,9.67077392 L107.512263,9.97343326 L107.897578,9.94783867 L108.397367,9.67083124 Z M109.864449,6.0222047 L107.512263,6.0222047 L107.512263,6.32652975 L108.233652,6.51647791 L109.864449,6.03453094 L109.864449,6.0222047 Z M107.316512,3.41426127 L105.964072,3.41426127 L105.969182,3.42036708 L107.316469,3.42036708 L107.316512,3.41426127 Z" id="path-1"></path>
    </defs>
    <g id="Silhouettes/Enterprise-Class" stroke="none" stroke-width="1" fill="none" fill-rule="evenodd">
        <mask id="mask-2" fill="white">
            <use xlink:href="#path-1"></use>
        </mask>
        <use fill="#3E5667" xlink:href="#path-1"></use>
    </g>
</svg>