<?xml version="1.0" encoding="UTF-8"?>
<svg width="200px" height="50px" viewBox="0 0 200 50" version="1.1" xmlns="http://www.w3.org/2000/svg" xmlns:xlink="http://www.w3.org/1999/xlink">
    <title>Silhouettes/F-35B Lightning II</title>
    <defs>
        <path d="M25.3890037,0 L46.9419859,23.8557322 L62.0094032,23.2851084 L78.5189681,22.7288312 C94.371721,22.1445942 116.335311,20.8820575 116.335311,20.8820575 L118.967837,21.0147262 C118.967837,21.0147262 127.919186,18.7347194 144.690408,18.9602562 C145.105609,18.8547276 148.63925,17.9709266 152.555768,17.9709266 C160.81258,17.9709266 166.29714,21.3331565 167.050777,21.8219017 L167.139852,21.8808635 L168.249755,22.5761024 C170.552893,23.921051 172.902122,25.4336304 174.626627,26.5757525 L177.520086,28.3892256 L178.002512,28.4461091 C178.677177,28.5366852 179.68056,28.7178002 180.354263,29.0503242 L180.62089,29.2022819 C181.621591,29.8694161 195.157591,32.7104221 200,36.053674 L198.145059,36.8957336 C195.289053,38.1642408 189.746395,40.512412 185.93387,41.4103963 L183.833368,43.6328488 L181.909679,43.9002956 C181.58808,43.9426943 180.555535,44.0427655 178.812045,44.200509 C178.531902,44.2166002 178.311206,44.2192886 178.179785,44.2033243 C177.616037,44.1371451 175.636138,43.2563033 174.238088,42.6420442 L170.492438,42.9530616 C159.924946,43.8079917 144.919939,44.8343941 130.163183,45.2419309 L127.719566,45.7803881 C125.577759,46.2412773 122.65223,46.840666 121.636117,46.9058423 L121.074827,46.9104066 C117.535039,46.8957577 94.466677,46.7603582 91.5282911,46.9034244 L90.9945625,46.9331673 C87.637039,47.0803404 72.8036692,47.0803404 72.0050035,47.0803404 C71.1729811,47.0803404 66.1581032,48.7519663 63.6544548,48.9168546 L61.3401439,49.0534677 C57.0305523,49.284126 50.1961236,49.549639 49.2902223,49.3243371 C47.2850293,48.8239865 41.0988761,45.9545515 38.2597654,45.1168432 C35.4187594,44.2829255 31.9106192,43.7389838 30.4057768,43.4035214 C28.8990391,43.0699543 21.5491917,39.5637094 21.5491917,39.5637094 L21.5510869,39.5561283 L21.4544283,39.518223 L21.7903878,37.719075 C20.0096634,37.719075 18.5417856,37.5732941 17.3867544,37.2817323 L16.5484585,37.0120596 C14.1033732,36.2868327 5.88381288,34.1954093 0,34.0484809 L0.40630699,33.8913083 L0.151621401,33.8835927 L9.85349582,30.2048784 L11.7250232,30.1231596 C12.4209069,30.0980208 13.2445696,30.07398 14.0768346,30.0626145 L17.747285,29.9357504 C17.747285,29.9357504 19.4464219,30.1688278 22.0207866,30.5076034 L22.0722855,30.5024354 L6.75473343,0 L25.3890037,0 Z" id="path-1"></path>
    </defs>
    <g id="Silhouettes/F-35B-Lightning-II" stroke="none" stroke-width="1" fill="none" fill-rule="evenodd">
        <mask id="mask-2" fill="white">
            <use xlink:href="#path-1"></use>
        </mask>
        <use fill="#3E5667" xlink:href="#path-1"></use>
    </g>
</svg>