<?xml version="1.0" encoding="UTF-8"?>
<svg width="200px" height="45px" viewBox="0 0 200 45" version="1.1" xmlns="http://www.w3.org/2000/svg" xmlns:xlink="http://www.w3.org/1999/xlink">
    <title>Silhouettes/Fleet Tanker Wave Class</title>
    <defs>
        <path d="M139.913185,0 L139.913185,0.186454891 L139.40808,0.185468357 L139.40808,0.4784689 L139.137769,0.477482366 L139.137769,0.667883392 L139.199921,0.668869926 L139.199921,4.06353278 L139.493908,4.06451931 L139.493908,4.34666798 L139.199921,4.34568145 L139.199921,5.84225324 C139.199921,5.91131061 139.143689,5.96951611 139.073645,5.96951611 L138.088097,5.96852957 L138.276525,7.00439008 L139.059833,7.00439008 L138.524145,8.67952449 L139.84906,19.4021605 L140.193361,19.4021605 L141.092093,11.9143689 L141.331821,9.18660287 L148.174419,9.18660287 L148.796922,16.2718887 L152.333646,16.2728753 L152.334632,15.6799684 L153.467173,15.6789819 L153.928871,15.0722636 L153.177132,13.7877966 L153.177132,13.3063681 C153.177132,12.3060228 153.990036,11.4921324 154.992354,11.4921324 C155.944557,11.4921324 156.725813,12.2266685 156.801558,13.1577931 L156.807577,13.3063681 L156.807577,13.7877966 L156.056824,15.0722636 L156.514576,15.6789819 L156.898338,15.6789819 L156.898338,14.9410546 L157.4725,14.9410546 L157.4725,15.6789819 L157.77438,15.6789819 L157.77438,14.9410546 L158.348542,14.9410546 L158.348542,15.6789819 L159.440635,15.6789819 L159.440635,14.3668919 L158.635624,14.3668919 L158.635624,13.9811572 L158.484684,13.9811572 L158.385044,13.0064618 C158.385044,12.3405515 158.924678,11.7999309 159.591575,11.7999309 C160.216791,11.7999309 160.730154,12.2750857 160.791883,12.8831732 L160.798106,13.0064618 L160.697479,13.9811572 L160.54654,13.9811572 L160.54654,14.3668919 L159.743501,14.3668919 L159.743501,15.6789819 L161.044739,15.6799684 L161.249938,19.3834164 L163.822819,19.3893356 L163.822819,19.2975879 L163.994475,19.2966014 L163.994475,19.2660188 L163.723179,19.2670054 L163.723179,17.6786859 L164.625857,17.6786859 L164.625857,19.2670054 L164.352587,19.2660188 L164.352587,19.2966014 L164.914911,19.2966014 L164.914911,19.2670054 L164.835002,19.2679919 L164.835002,18.2262122 L164.914911,18.2252257 L164.914911,18.1591279 L164.815272,18.1601144 L164.815272,17.9697134 L164.856706,17.9687269 L164.856706,17.8246929 L165.107286,17.8237064 L165.107286,17.7684605 L165.324323,17.767474 L165.425936,17.3699009 L165.257239,17.3708874 L165.257239,16.7099097 L165.491047,16.7099097 L165.491047,16.0755685 L165.609431,16.074582 L165.610418,14.6450945 C165.610418,14.411834 165.778007,14.2191067 165.998168,14.1791582 L166.082967,14.1715582 C166.317105,14.1715582 166.50993,14.3383677 166.549889,14.559741 L166.55749,14.6450945 L166.55749,16.076555 L166.671928,16.076555 L167.334879,16.205791 L167.334879,16.2906329 L168.248409,16.2906329 L168.248409,16.2679426 L168.693336,16.2679426 L168.693336,16.4839935 L168.248409,16.4839935 L168.248409,16.4583436 L167.334879,16.4583436 L167.334879,16.5204952 L166.671928,16.6477581 L166.671928,16.7099097 L166.911656,16.7099097 L166.911656,17.3708874 L166.750851,17.3699009 L166.844572,17.767474 L167.075421,17.7684605 L167.075421,17.8237064 L167.356583,17.8246929 L167.356583,17.9687269 L167.395057,17.9697134 L167.395057,18.1601144 L167.298377,18.1591279 L167.298377,18.2252257 L167.376313,18.2262122 L167.376313,19.2679919 L167.298377,19.2670054 L167.298377,19.3992009 L168.349036,19.403147 L168.519706,22.5985301 L169.155034,22.5985301 L169.155034,21.9030237 L169.03369,21.95531 L168.93701,21.7244611 L169.523997,21.4778277 L169.543728,21.5251813 L170.730528,21.0279682 L170.788734,21.1631234 L169.599961,21.6613229 L169.620678,21.7086766 L169.526525,21.7467626 L169.536362,21.7807838 L169.539782,21.8171953 L169.538795,22.5985301 L170.263898,22.5995166 L170.263898,22.903369 L168.536477,22.9023825 L168.628225,24.6219109 L169.973857,24.6228974 L169.973857,24.9267499 L168.644009,24.9257633 L168.800868,27.863661 L170.177083,27.8646476 L170.176096,28.9231983 L170.240221,28.9231983 L170.240221,27.8646476 L172.306023,27.8646476 L172.306023,28.9231983 L172.370147,28.9231983 L172.370147,27.8646476 L174.435949,27.8646476 L174.435949,28.9231983 L174.499087,28.9231983 L174.499087,27.8646476 L176.564889,27.8646476 L176.564889,28.9231983 L176.627041,28.9231983 L176.627041,27.8646476 L178.692843,27.8646476 L178.692843,28.9231983 L178.755981,28.9231983 L178.755981,27.8646476 L180.821783,27.8646476 L180.821783,28.9231983 L180.883934,28.9231983 L180.884921,27.8646476 L182.949736,27.8646476 L182.94875,28.9231983 L183.012874,28.9231983 L183.012874,27.8646476 L185.079663,27.8646476 L185.079663,28.9231983 L185.141814,28.9231983 L185.141814,27.8646476 L187.207616,27.8646476 L187.207616,28.9231983 L187.270754,28.9231983 L187.271741,27.8646476 L189.336556,27.8646476 L189.335569,28.9231983 L189.419425,28.9231983 L189.420411,27.8646476 L191.48424,27.8646476 L191.483254,28.9231983 L191.548365,28.9231983 L191.548365,27.8646476 L193.614167,27.8646476 L193.614167,28.9231983 L193.677305,28.9231983 L193.677305,27.8646476 L195.744093,27.8646476 L195.744093,28.9231983 L195.805258,28.9231983 L195.806245,27.8646476 L197.87106,27.8646476 L197.870073,28.9231983 L197.935185,28.9231983 L197.935185,27.8646476 L200,27.8646476 L200,29.1885759 L199.932916,29.1875894 L199.487989,30.8656834 L196.913136,31.977507 L192.99857,43.3019287 L192.469787,44.7393084 L5.37647441,44.7393084 L5.66213218,44.5802859 C5.94796834,44.4174648 6.20825729,44.2272974 6.20825729,43.866226 L6.17768415,43.7955964 L5.16852796,41.8777975 C4.16791355,40.0053593 2.4450709,36.8111504 0,32.2951709 L17.05421,32.8821585 L17.2742071,32.6641346 L17.5711538,32.6493366 L17.8306121,32.9087949 L18.8546342,32.9443102 L19.8273566,32.749963 L20.2037965,32.7580955 C20.2396771,32.5244919 20.4539476,32.3551871 20.6955063,32.3750802 C20.9145585,32.3967256 21.082699,32.5688263 21.105229,32.7800108 L21.1769348,32.7825186 L21.2055443,33.0252059 L22.0302866,33.0538154 L22.1565629,32.3129285 L23.2131406,32.311942 L23.2131406,32.165935 L23.1332314,32.1669215 L23.1332314,31.1271149 L23.2131406,31.1261283 L23.2131406,31.0600306 L23.1144872,31.0610171 L23.1144872,30.8706161 L23.1549351,30.8696296 L23.1549351,30.7246091 L23.4360973,30.7236226 L23.4360973,30.6683767 L23.6649731,30.6673901 L23.7596804,30.2688305 L23.5998619,30.269817 L23.5998619,29.6246239 L23.9125931,29.6236374 L23.9165392,29.6088393 L23.8376165,29.6098259 L23.83663,29.5466877 L23.1756523,29.4204114 L23.1756523,29.3582598 L22.262122,29.3582598 L22.262122,29.3848962 L21.8171953,29.3848962 L21.8171953,29.1688453 L22.262122,29.1688453 L22.262122,29.190549 L23.1756523,29.190549 L23.1756523,29.1076802 L23.83663,28.9774577 L23.953041,28.9744981 L23.953041,27.5450106 C23.953041,27.2825926 24.1641592,27.0714744 24.4265772,27.0714744 C24.6589607,27.0714744 24.8523701,27.2382838 24.892481,27.46035 L24.9001135,27.5450106 L24.9001135,28.9744981 L25.019484,28.9744981 L25.019484,29.6098259 L24.9188576,29.6088393 L24.9228037,29.6236374 L25.2542791,29.6246239 L25.2542791,30.269817 L25.0836087,30.2688305 L25.1852217,30.6673901 L25.4042322,30.6683767 L25.4042322,30.7236226 L25.6538253,30.7246091 L25.6538253,30.8696296 L25.6942732,30.8706161 L25.6942732,31.0610171 L25.5966063,31.0600306 L25.5966063,31.1261283 L25.675529,31.1271149 L25.675529,31.2237952 L25.8836877,31.2237952 L25.8836877,30.5786021 L26.7873526,30.5786021 L26.7873526,32.165935 L26.6867262,32.1669215 L26.6867262,32.311942 L27.264835,32.311942 L27.2786465,32.2991171 L27.5667143,32.5852119 L27.6998964,31.8680018 L27.9159473,27.6683273 L27.1060031,27.6693139 L27.1060031,27.484832 L27.9159473,27.4838455 L27.9159473,26.3641296 L27.2855522,26.3651162 L27.2855522,25.9221625 L27.1129088,25.9221625 L27.1129088,25.7199231 L26.7015242,25.7201755 L26.7015242,25.3233365 L27.7225867,25.3233365 L27.7216002,26.0178563 L27.9159473,26.0178563 L27.9159473,23.764613 L27.4019632,23.6255118 L27.4019632,23.4952893 L27.9159473,23.4943028 L27.9159473,21.6879594 L27.4019632,21.5488581 L27.4019632,21.4186356 L27.9159473,21.4176491 L27.9159473,21.3614167 L28.2365708,21.3614167 L28.2365708,26.0178563 L28.2858975,26.0188428 L28.2858975,26.3651162 L28.2365708,26.3641296 L28.2365708,27.4838455 L29.1816702,27.484832 L29.1816702,27.6693139 L28.5137868,27.6683273 L28.5137868,27.8972032 L29.3079465,27.8981897 L28.5137868,28.2464361 L28.5137868,33.2777586 L41.328861,33.7197257 L41.328861,31.450698 L41.5695753,31.450698 L41.5695753,33.7522814 L41.8921719,33.8568539 L41.8921719,31.450698 L42.1328861,31.450698 L42.1328861,33.9338036 L42.2631086,33.9762245 L42.2640951,31.450698 L42.5048094,31.450698 L42.5038228,34.0541607 L53.9505747,37.7467568 L64.0023677,37.7457702 L64.0023677,37.2229073 L65.7100577,37.2229073 L65.7100577,37.7457702 L68.3746855,37.7457702 L67.9011493,36.0578109 L72.2517634,36.0578109 L72.2262446,37.6895378 L72.6868248,37.6895378 L72.6868248,36.1219356 L72.4322991,35.8180832 L72.6868248,35.8230158 L72.6868248,35.0722636 L72.8604548,35.0722636 L72.8604548,35.0998865 L75.376116,35.0989 L68.6469886,34.1084977 C68.6216154,34.1457498 68.5835538,34.1738609 68.538811,34.1862695 L68.4871504,34.193262 C68.3994119,34.193262 68.3265057,34.1358671 68.3018014,34.0580965 L61.341686,33.0330982 C61.282494,33.0646673 61.2173827,33.0824249 61.1463523,33.0735461 L60.319637,32.9630543 C60.1400878,32.940364 60.0157845,32.7756129 60.0374883,32.5960637 C60.0631382,32.4165146 60.2269028,32.2922113 60.4054654,32.3158881 L61.2321807,32.4234203 C61.3239284,32.4372318 61.4018645,32.4885315 61.4531643,32.559562 L81.0575642,35.0989 L81.4492182,35.0989 L81.4590835,34.7930745 L69.497361,33.0330982 C69.4391555,33.0646673 69.3730578,33.0824249 69.3030139,33.0735461 L68.4762985,32.9630543 C68.2957628,32.940364 68.1714596,32.7756129 68.1941499,32.5960637 C68.2188132,32.4165146 68.3825778,32.2922113 68.562127,32.3158881 L69.3888423,32.4234203 C69.4805899,32.4372318 69.5585261,32.4885315 69.6098259,32.559562 L81.4807873,34.0965817 L81.502491,33.3902234 L80.9835742,31.8107828 L81.6731613,31.1221822 L82.9448034,30.868643 L83.2831845,27.9859912 L85.4663839,28.3046416 L85.4663839,34.6135254 L87.9573817,34.9361219 L88.1773788,27.6495832 L87.2717407,27.6505697 L87.2717407,27.4858186 L88.1823114,27.484832 L88.3598875,21.591279 L87.4601687,21.5922656 L87.4601687,21.4275144 L88.3648202,21.4265279 L88.5562078,15.0850885 L91.5730282,15.0850885 L91.5710551,15.566517 L89.9718838,16.0084842 C89.6631809,16.0538647 89.4931683,16.2235486 89.4618458,16.5175356 L89.4618458,19.7060129 L89.87619,19.7069995 L89.87619,21.3101169 L89.4618458,21.3091304 L89.4618458,31.4881863 L89.8298229,31.1221822 L91.101465,30.868643 L91.4388596,27.9859912 L91.9902087,28.0653918 C92.1043383,27.7958368 92.3716273,27.6071622 92.6838652,27.6071622 C93.0636808,27.6071622 93.3788372,27.8890095 93.4287257,28.2558944 L93.4296848,28.2760322 L93.6220589,28.3046416 L93.6220589,28.6588073 L94.8424012,28.6597938 L94.8424012,28.824545 L93.6220589,28.8235584 L93.6220589,36.4968184 L94.517578,36.4968184 L94.517578,36.6615696 L90.5319428,36.6615696 L89.5831895,36.0578109 L89.5831895,35.8259754 L89.4618458,35.814137 L89.4618458,37.7309722 L91.3254082,37.7457702 L91.3254082,37.0793524 L95.0103632,37.0729542 L95.2843684,33.6082474 L99.0805505,33.6082474 L98.8013614,31.7644157 L99.168352,30.6703497 L108.833424,30.6703497 L109.211266,31.7634292 L108.922212,33.6082474 L109.817985,33.609234 L109.817985,33.7739851 L108.899522,33.7729986 L109.601934,36.6773541 L111.544959,36.6768515 C111.569292,36.541474 111.637592,36.4311059 111.696628,36.4011246 L112.643417,36.4011246 C112.718924,36.4011246 112.784279,36.5143985 112.81353,36.6768515 L113.133995,36.6765657 C113.165422,36.3144419 113.284234,36.0342276 113.431799,35.981806 C113.708565,35.9474751 113.887064,35.9605786 113.967295,36.0211165 L113.966359,21.591279 L113.959453,21.4275144 L113.966359,21.3091304 L113.553988,21.3101169 L113.553988,19.7069995 L113.966359,19.7060129 L113.966359,16.5175356 C113.966359,16.2363735 113.73847,16.0084842 113.457308,16.0084842 L111.859123,15.566517 L111.856163,15.0850885 L114.872984,15.0850885 L115.064371,21.4265279 L115.969023,21.4275144 L115.969023,21.5922656 L115.069304,21.591279 L115.24688,27.484832 L116.157451,27.4858186 L116.157451,27.6505697 L115.251813,27.6495832 L115.487871,35.4562699 C115.533961,35.4177083 115.583288,35.3968332 115.634588,35.3968332 C115.8901,35.3968332 116.095326,36.032161 116.095326,36.6773541 L116.827865,36.6768515 L116.853838,36.5353727 C116.869485,36.4754039 116.895492,36.4324816 116.960509,36.4106143 C117.032749,36.3863172 117.354682,36.383154 117.926306,36.4011246 C117.999834,36.4011246 118.062143,36.5045228 118.09266,36.6554211 L118.418773,36.6560132 C118.4525,36.3075491 118.567612,36.0388875 118.710897,35.9834869 L119.136783,35.9739555 C119.33409,35.9739555 119.492922,36.3735017 119.492922,36.8677551 C119.492922,37.3050468 119.36859,37.6697474 119.203283,37.7480014 L122.802743,37.7457702 L122.893414,36.6421051 L122.20293,36.6201352 C121.09706,36.5856377 120.449839,36.2939014 120.137448,36.0993852 C119.985202,36.0952992 119.6557,35.9532383 119.661619,35.7944064 C119.666552,35.6336013 120.003946,35.5142308 120.159818,35.5181769 L122.417994,35.5892073 L122.422927,35.4550387 L122.844177,35.4678637 L122.938884,35.2488532 L123.281211,31.9804666 L129.625984,31.979882 L129.847977,29.2216595 L128.451635,29.2280373 L128.451635,28.9241849 L129.891975,28.9241849 L130.037982,26.2171361 L127.928772,26.2181226 L127.928772,25.9122971 L128.670646,25.9113106 L127.988951,22.3370986 L126.53776,21.9572831 L125.286835,21.9582696 L125.286835,21.6544172 L126.217136,21.6534307 L125.641987,18.4442362 L128.067874,18.4432496 L128.067874,17.841464 L128.642036,17.841464 L128.642036,18.4432496 L129.648301,18.4432496 L129.648301,17.841464 L130.222463,17.841464 L130.222463,18.4432496 L132.388892,18.4432496 L132.388892,16.2768214 L131.584867,16.2778079 L131.584867,15.8920732 L131.43294,15.8920732 L131.3333,14.9173778 C131.3333,14.2504809 131.872934,13.7108469 132.540818,13.7108469 C133.165109,13.7108469 133.678415,14.1851346 133.740139,14.7939267 L133.646722,15.8920732 L133.495783,15.8920732 L133.495783,16.2778079 L132.691758,16.2768214 L132.691758,18.4432496 L134.286983,18.4442362 L134.119272,19.4021605 L134.462586,19.4021605 L134.462586,16.4928723 L134.242589,16.4938588 L134.242589,16.1535047 L134.15972,16.1544912 L134.15972,15.4856213 C134.15972,15.257732 134.345188,15.0722636 134.573077,15.0722636 C134.775646,15.0722636 134.944696,15.2188065 134.979762,15.4114255 L134.986435,16.1544912 L134.90258,16.1535047 L134.90258,16.4938588 L134.683569,16.4928723 L134.683569,19.4021605 L135.134415,19.4021605 L136.460317,8.67952449 L135.923642,7.00439008 L136.937799,7.00439008 L137.37286,4.34568145 L135.71943,4.34666798 L135.71943,4.06451931 L136.625068,4.06353278 L136.625068,2.51566122 L136.354758,2.51664776 L136.354758,2.24041829 L135.167957,2.24140482 L135.167957,2.02042125 L138.214374,2.02042125 L138.214374,2.24140482 L137.027574,2.24041829 L137.027574,2.51664776 L136.757263,2.51566122 L136.757263,4.06353278 L138.946382,4.06353278 L138.946382,1.65244414 L138.509347,1.42258176 L138.510334,0.804025058 L138.802348,0.804025058 L138.802348,1.24697874 L138.946382,1.24697874 L138.946382,0.668869926 L139.005574,0.667883392 L139.005574,0.477482366 L138.735264,0.4784689 L138.735264,0.185468357 L138.229172,0.186454891 L138.229172,0 L139.913185,0 Z M85.4663839,35.3840083 L85.4663839,36.4968184 L86.3876396,36.4962248 C86.4094628,36.4546805 86.448611,36.4153917 86.4763851,36.4011246 L87.4295861,36.4011246 C87.5321857,36.4011246 87.6150545,36.6102698 87.6150545,36.8677551 C87.6150545,37.1272135 87.5321857,37.3363587 87.4295861,37.3363587 L87.4098555,37.3304395 L87.4098555,37.3363587 L86.5002713,37.3363587 C86.3502985,37.3353722 86.2354117,36.8880917 86.3138164,36.6960983 L85.237508,36.6960983 L85.237508,37.7457702 L86.0997386,37.7457702 L86.0997386,37.4202141 L87.8824052,37.4192275 L87.935678,35.66813 L86.3799142,35.5191634 L85.4663839,35.3840083 Z M118.418679,37.0785801 L118.093065,37.0793524 C118.062697,37.2320394 118.00016,37.3363587 117.926306,37.3363587 L117.390618,37.3353722 L117.390618,37.4192275 L118.484727,37.4201415 C118.453705,37.3209586 118.430845,37.2049744 118.418679,37.0785801 Z M89.4618458,32.7894244 L89.4618458,35.1304691 L89.6039067,35.1492132 L89.6591526,33.3902234 L89.4618458,32.7894244 Z M138.946382,4.34568145 L137.79411,4.34568145 L138.04173,5.71301731 L138.946382,5.71400385 L138.946382,4.34568145 Z" id="path-1"></path>
    </defs>
    <g id="Silhouettes/Fleet-Tanker-Wave-Class" stroke="none" stroke-width="1" fill="none" fill-rule="evenodd">
        <mask id="mask-2" fill="white">
            <use xlink:href="#path-1"></use>
        </mask>
        <use fill="#3E5667" xlink:href="#path-1"></use>
    </g>
</svg>