<?xml version="1.0" encoding="UTF-8"?>
<svg width="200px" height="41px" viewBox="0 0 200 41" version="1.1" xmlns="http://www.w3.org/2000/svg" xmlns:xlink="http://www.w3.org/1999/xlink">
    <title>Silhouettes/Fleet Tanker Tide Class</title>
    <defs>
        <path d="M135.642452,0 L135.642452,0.297372083 L134.117414,0.296508938 L134.117414,0.711054873 L133.797297,0.711054873 L133.797297,0.816816023 L134.869073,0.816816023 L134.869073,1.18414716 L135.001275,1.61852331 L134.869073,1.66479381 L134.869073,1.80643821 L135.374272,1.89520203 L134.869073,2.21531837 L134.869073,2.37112721 L134.814304,3.34186347 L134.612225,5.05481638 L134.782198,6.67900547 L137.564094,6.67900547 L137.564433,6.31465477 C137.522073,6.30217235 137.492328,6.2729582 137.492328,6.23896354 L137.492328,5.95756334 C137.492328,5.91223713 137.545208,5.87446529 137.610365,5.87446529 C137.676465,5.87446529 137.729346,5.91223713 137.729346,5.95756334 L137.729346,6.23896354 C137.729346,6.27239162 137.700584,6.30119722 137.658969,6.31401676 L137.658524,6.67900547 L138.970151,6.67900547 L138.970767,6.31433923 C138.92858,6.30168512 138.899329,6.27267491 138.899329,6.23896354 L138.899329,5.95756334 C138.899329,5.91223713 138.952209,5.87446529 139.01831,5.87446529 C139.084411,5.87446529 139.137291,5.91223713 139.137291,5.95756334 L139.137291,6.23896354 C139.137291,6.27239162 139.108529,6.30119722 139.066914,6.31401676 L139.066469,6.67900547 L141.494254,6.67900547 L141.494254,7.01611913 L139.066469,7.1171588 L139.066914,7.44642531 C139.108529,7.45951449 139.137291,7.4888337 139.137291,7.52226178 L139.137291,7.80460628 C139.137291,7.85087678 139.084411,7.88770432 139.01831,7.88770432 C138.952209,7.88770432 138.899329,7.85087678 138.899329,7.80460628 L138.899329,7.52226178 C138.899329,7.48855041 138.92858,7.45901785 138.970767,7.44609604 L138.970151,7.12093599 L138.745408,7.13037895 L137.728402,7.54775777 L137.729346,7.80460628 C137.729346,7.85087678 137.676465,7.88770432 137.610365,7.88770432 C137.545208,7.88770432 137.492328,7.85087678 137.492328,7.80460628 L137.492328,7.64502026 L134.988999,8.67241428 L135.093816,9.68186668 L137.564094,9.68186668 L137.564433,9.30158099 C137.522073,9.28927563 137.492328,9.26023853 137.492328,9.22482743 L137.492328,8.94342723 C137.492328,8.89810102 137.545208,8.86032918 137.610365,8.86032918 C137.676465,8.86032918 137.729346,8.89810102 137.729346,8.94342723 L137.729346,9.22482743 C137.729346,9.25964834 137.700584,9.28830596 137.658969,9.30095182 L137.658524,9.68186668 L138.970151,9.68186668 L138.970767,9.30126987 C138.92858,9.28879124 138.899329,9.25994344 138.899329,9.22482743 L138.899329,8.94342723 C138.899329,8.89810102 138.952209,8.86032918 139.01831,8.86032918 C139.084411,8.86032918 139.137291,8.89810102 139.137291,8.94342723 L139.137291,9.22482743 C139.137291,9.25964834 139.108529,9.28830596 139.066914,9.30095182 L139.066469,9.68186668 L141.494254,9.68281098 L141.494254,10.0199246 L139.066469,10.1237972 L139.066914,10.4332335 C139.108529,10.4463227 139.137291,10.4756419 139.137291,10.50907 L139.137291,10.7904702 C139.137291,10.8367407 139.084411,10.8735682 139.01831,10.8735682 C138.952209,10.8735682 138.899329,10.8367407 138.899329,10.7904702 L138.899329,10.50907 C138.899329,10.4753586 138.92858,10.445826 138.970767,10.4329042 L138.970151,10.1275744 L138.75013,10.1370173 L137.728402,10.525123 L137.729346,10.7904702 C137.729346,10.8367407 137.676465,10.8735682 137.610365,10.8735682 C137.545208,10.8735682 137.492328,10.8367407 137.492328,10.7904702 L137.492328,10.6148311 L135.277954,11.4561988 L135.409211,12.7158897 L136.175979,12.7158897 L138.659477,15.1823908 L146.432922,15.1823908 L147.122258,9.3721376 L151.408417,9.3721376 L152.634114,15.1295102 L156.52839,15.1502847 L156.80979,18.0266103 L158.978838,18.0237774 L158.978838,16.3164902 L159.860811,16.3164902 L159.859866,16.94728 L160.045893,16.94728 L160.045893,16.6016676 L160.085553,16.6016676 L160.085553,16.4600232 L160.330126,16.4600232 L160.330126,16.4052541 L160.542592,16.4052541 L160.641744,16.0162041 L160.477436,16.0162041 L160.477436,15.3854144 L160.705011,15.3854144 L160.705011,14.7517918 L160.82116,14.7517918 L160.82116,13.3619806 C160.823132,13.1007392 161.0286,12.892473 161.283865,12.892473 C161.539769,12.892473 161.747514,13.1017832 161.747514,13.3629408 L161.74657,14.7517918 L161.858941,14.7517918 L162.505784,14.8792718 L162.50484,14.9614255 L163.397199,14.9614255 L163.397199,14.9397067 L163.83252,14.9397067 L163.83252,15.1502847 L163.397199,15.1502847 L163.397199,15.1247887 L162.50484,15.1247887 L162.505784,15.1852237 L161.858941,15.3098707 L161.858941,15.3854144 L162.092182,15.3854144 L162.092182,16.0162041 L161.934485,16.0162041 L162.027026,16.4052541 L162.251768,16.4052541 L162.251768,16.4600232 L162.525614,16.4600232 L162.547333,17.8679685 L162.468012,17.8679685 L162.468012,18.0275546 L162.719195,18.0284989 L162.97982,19.2560836 L164.116753,19.2617494 L164.278227,19.1947044 L164.307501,19.2626937 L165.967573,18.5667476 L166.046894,18.7556068 L164.386821,19.4524972 L164.414206,19.5195422 L164.281896,19.5740866 L164.299946,19.6706296 L164.299946,20.6595178 L163.760753,20.6595178 L163.760753,19.7924437 L163.592668,19.8632659 L163.45669,19.541261 L164.000604,19.3108528 L162.992096,19.3155743 L163.298992,20.7594028 L164.525633,20.7603471 L164.525633,21.0568561 L163.403809,21.2844314 L163.89862,23.6971076 L164.989282,23.8415849 L164.816476,25.3137423 L166.720177,25.3146866 L166.720177,26.4308445 L166.7825,26.4308445 L166.7825,25.3146866 L168.799517,25.3146866 L168.799517,26.4308445 L168.860896,26.4308445 L168.860896,25.3146866 L170.878856,25.3146866 L170.878856,26.4308445 L170.939291,26.4308445 L170.939291,25.3146866 L172.956307,25.3146866 L172.956307,26.4308445 L173.018631,26.4308445 L173.018631,25.3146866 L175.035647,25.3146866 L175.035647,26.4308445 L175.097971,26.4308445 L175.097971,25.3146866 L177.114987,25.3146866 L177.114987,26.4308445 L177.176366,26.4308445 L177.176366,25.3146866 L179.193382,25.3146866 L179.192438,26.4308445 L179.254762,26.4308445 L179.254762,25.3146866 L181.272722,25.3146866 L181.272722,26.4308445 L181.334101,26.4308445 L181.334101,25.3146866 L183.351118,25.3146866 L183.351118,26.4308445 L183.412497,26.4308445 L183.412497,25.3146866 L185.429513,25.3146866 L185.429513,26.4308445 L185.510722,26.4308445 L185.511667,25.3146866 L187.527739,25.3146866 L187.526794,26.4308445 L187.589118,26.4308445 L187.589118,25.3146866 L189.606134,25.3146866 L189.606134,26.4308445 L189.667513,26.4308445 L189.667513,25.3146866 L191.685474,25.3146866 L191.685474,26.4308445 L191.746853,26.4308445 L191.746853,25.3146866 L193.763869,25.3146866 L193.763869,26.4308445 L193.825249,26.4308445 L193.825249,25.3146866 L195.842265,25.3146866 L195.842265,26.4308445 L195.904588,26.4308445 L195.904588,25.3146866 L197.921605,25.3146866 L197.921605,26.4308445 L197.982984,26.4308445 L197.982984,25.3146866 L200,25.3146866 L200,26.4308445 L196.125554,40.8974589 L7.31073948,40.8965146 L7.31335639,40.8683382 C7.31897417,40.7288161 7.3105475,40.3837206 7.28807637,39.8330517 C7.23414569,38.5114466 2.25025732,32.561214 2.25025732,32.561214 C1.62810586,31.9383399 0.640461233,31.3132541 0.210992445,31.0540702 L0,30.9294705 L0.825314687,29.6471166 L20.0993399,28.5687306 L19.0096224,27.5432251 L23.9001313,27.7169756 L24.1229851,27.7160313 L24.2155261,27.3269814 L24.0606616,27.3279257 L24.0606616,26.697136 L24.2929584,26.697136 L24.2929584,26.620648 L23.6461156,26.4978895 L23.6451713,26.4383989 L22.7537559,26.4383989 L22.7547002,26.4620063 L22.3193798,26.4620063 L22.3193798,26.2514282 L22.7547002,26.2514282 L22.7537559,26.2731471 L23.6451713,26.2731471 L23.6461156,26.1919376 L24.2929584,26.0663462 L24.4043853,26.0663462 L24.4053296,24.6746623 C24.4053296,24.4144648 24.6121304,24.2041946 24.8680346,24.2041946 C25.095505,24.2041946 25.2841777,24.370334 25.3232967,24.5899989 L25.3307397,24.6746623 L25.3297954,26.0625691 L25.4468881,26.0635133 L25.4468881,26.697136 L25.6754077,26.697136 L25.6754077,27.3279257 L25.5082673,27.3269814 L25.6074184,27.7160313 L25.8217736,27.7169756 L25.8208293,27.7708005 L26.0672905,27.7717448 L26.0672905,27.9124449 L26.2901444,27.9313308 L26.2910887,27.6282118 L27.1730611,27.6282118 L27.1721168,27.9785456 L28.340211,28.0418134 L28.8633509,26.6754171 L29.1381411,26.6744728 L29.8288218,23.8972984 L28.8907355,23.8982427 L28.8907355,23.7377123 L29.932294,23.7367681 L30.5725267,21.5469457 L30.2439117,21.4600704 L30.2439117,21.2929301 L30.1957526,21.2929301 L30.1957526,20.6999122 L30.4752642,20.6999122 L30.4752642,21.2929301 L30.647126,21.2919858 L31.103221,19.7320088 L30.2439117,19.5025449 L30.2439117,19.3354045 L30.1957526,19.3354045 L30.1957526,18.7423866 L30.4752642,18.7423866 L30.4752642,19.3354045 L31.2193694,19.3344602 L31.6990718,17.697051 L31.9936921,17.697051 L30.9408021,22.7471459 L31.154213,23.7367681 L31.3676239,23.7377123 L31.3940642,24.8302628 L33.7198652,24.8302628 L34.0560345,26.6744728 L35.8416982,26.6754171 L36.3365093,29.6471166 L37.9578655,29.6480609 L37.9569212,32.0418512 C38.3731131,32.3513575 38.946109,32.521586 39.6759087,32.5525366 L40.144855,32.561214 L46.4914683,32.5602697 L46.4924126,32.4412884 L42.5150379,32.4412884 L42.5150379,32.4516757 L42.3441203,32.4516757 L42.3441203,29.8964107 L42.5150379,29.8964107 L42.5150379,29.9247396 L46.4924126,29.9247396 L46.4924126,25.7103467 L46.2997762,25.4317793 L46.4924126,25.4317793 L46.4933569,25.4006176 L39.2166121,25.4006176 L39.2166121,24.7811594 L58.6615549,23.905797 L59.8919725,23.905797 L60.630412,24.0804918 L60.4764918,24.0417757 L60.7380617,22.9832199 L61.3782944,23.1409173 L61.6568617,23.8142003 L61.5369361,24.294847 L63.8198562,24.8353119 C63.8370279,24.8278164 63.8549701,24.8217843 63.8735091,24.8173574 L63.9486681,24.808544 C64.0159492,24.808544 64.0789809,24.8292595 64.130991,24.8651132 L64.1790763,24.9058065 L64.5511289,25.4336679 L64.5511289,27.4724029 L65.3896637,27.4724029 L65.3896637,27.6329333 L64.557739,27.631989 L64.5586833,27.9615483 L64.353771,27.9615483 L64.353771,29.0503215 L65.9741829,29.0503215 L65.9741829,29.2108518 L65.8419815,29.2108518 L64.353771,29.5734615 L64.3528268,32.5593254 L64.439702,32.5593254 L64.4406463,31.40634 L66.3688987,31.40634 L66.3679544,32.5593254 L66.4283893,32.5593254 L66.4283893,31.40634 L68.3556974,31.40634 L68.3547531,32.5593254 L68.4132995,32.5593254 L68.4142438,31.40634 L69.570062,31.40634 L69.570062,24.9114723 L68.3330343,24.9114723 L68.3330343,24.7509419 L69.570062,24.7509419 L69.570062,23.1956865 L69.7296481,19.9822472 L68.4784559,19.9831915 L68.4784559,19.8226612 L69.7372024,19.8217169 L69.9572234,15.3986345 L74.6343214,15.3986345 L74.6324328,16.2985486 L71.6191843,16.2985486 C71.3749264,16.2985486 71.1709585,16.4746307 71.1286478,16.7067539 L71.120596,16.7961926 L71.1196517,17.5015817 L71.3228236,17.502526 L71.3228236,17.7008281 L74.6333771,17.7017724 L74.6333771,18.051162 L71.3228236,18.0502177 L71.3228236,18.2494641 L71.1196517,18.2485198 L71.1196517,18.951076 L71.4067177,18.9520203 L71.4067177,19.7508947 L71.1196517,19.7499504 L71.1196517,31.40634 L72.3302392,31.40634 L72.3302392,32.5593254 L72.3878412,32.5593254 L72.3887855,31.40634 L74.3170379,31.40634 L74.3170379,32.5593254 L74.3765286,32.5593254 L74.3765286,31.40634 L74.7197283,31.4061284 C74.7443471,31.3470012 74.7755415,31.3049764 74.8101771,31.2876594 L74.8458437,31.27886 L75.7344262,31.27886 L75.7344262,31.40634 L76.2489388,31.4067299 C76.2949229,31.1217182 76.398957,30.9112756 76.5239664,30.8685268 L76.5710724,30.8605369 L76.8996874,30.8605369 L76.8996874,32.5593254 L77.3105782,32.5615966 C77.0938923,32.476269 76.9280163,32.0050187 76.9280163,31.4365575 C76.9280163,30.8076564 77.13104,30.2977365 77.3812784,30.2977365 C77.4887243,30.2977365 77.5874655,30.3917464 77.6651683,30.5488193 L78.3893608,30.5488193 C78.4671956,30.3917464 78.5661683,30.2977365 78.6740196,30.2977365 C78.9233137,30.2977365 79.1263374,30.8076564 79.1263374,31.4365575 C79.1263374,31.6994315 79.0908661,31.9415177 79.031371,32.1342661 L79.042295,32.1343922 L79.042295,32.5593254 L79.9592064,32.5593254 L80.930887,29.7934825 L80.0338058,29.7934825 L80.0338058,29.6329522 L80.905391,29.6320079 L80.6268237,28.0267047 L80.9960434,26.2854229 L90.4342817,26.2854229 L90.7921699,28.0267047 L90.5230455,29.6320079 L91.3946307,29.6329522 L91.3946307,29.7934825 L90.495661,29.7925382 L90.4928281,29.8057583 L90.7374007,30.5593065 L92.2803804,30.5593065 L92.2803804,32.5593254 L98.7610837,32.5602697 L98.7610837,31.40634 L100.501573,31.4068076 C100.507855,30.7916538 100.708388,30.2977365 100.953739,30.2977365 C101.06159,30.2977365 101.160389,30.3917464 101.238025,30.5488193 L101.961646,30.5488193 C102.039349,30.3917464 102.13809,30.2977365 102.245536,30.2977365 C102.413954,30.2977365 102.560985,30.5287143 102.639129,30.8714878 L103.056686,30.8605369 C103.20156,30.8605369 103.326279,31.0865925 103.377889,31.4067299 L103.892388,31.40634 L103.892388,31.27886 L104.781915,31.27886 C104.83069,31.27886 104.875205,31.3272922 104.90803,31.4061284 L104.955665,31.40634 L104.955665,32.5602697 L105.017045,32.5602697 L105.017045,31.40634 L107.039727,31.40634 L107.039727,32.5602697 L107.10205,32.5602697 L107.10205,31.40634 L108.615757,31.40634 L108.615757,25.4006176 L102.284252,25.4006176 L102.131276,25.5450949 C101.999712,25.6681313 101.836326,25.7251644 101.698134,25.7090986 L101.511818,25.8170521 L101.557144,25.8954287 L101.348455,26.0162985 L101.322959,25.9719166 L99.2275659,27.1768383 L99.148245,27.479013 L98.8394602,27.6046044 L98.8394602,27.9615483 L98.634548,27.960604 L98.634548,29.0503215 L100.253071,29.0503215 L100.253071,29.2108518 L100.122758,29.2108518 L98.634548,29.5725172 L98.634548,32.3260197 L96.8045024,32.3260197 L96.8045024,29.5725172 L95.3162919,29.2108518 L95.1859791,29.2108518 L95.1859791,29.0503215 L96.8045024,29.0503215 L96.8045024,27.960604 L96.6005345,27.9615483 L96.6005345,27.631989 L95.769554,27.6329333 L95.769554,27.4724029 L96.6080888,27.4714587 L96.6080888,25.4346122 L96.9801415,24.9058065 C97.0386878,24.8463158 97.1208416,24.808544 97.2105497,24.808544 C97.2568676,24.808544 97.3011583,24.8186804 97.3411984,24.83673 L99.6213373,24.2957913 L99.5033003,23.8142003 L99.779979,23.1409173 L100.4221,22.9832199 L100.68367,24.0417757 L100.325782,24.1295952 L101.267245,23.9067413 L102.497663,23.9067413 L108.615757,24.2646295 L108.615757,16.7093174 C108.615757,16.4335829 108.392903,16.2107291 108.118113,16.2107291 L105.104864,16.2107291 L105.10392,15.310815 L109.780073,15.310815 L110.167235,23.1078669 L110.167235,24.3552819 L117.361177,24.7763506 C117.375617,24.7216999 117.422104,24.676088 117.500637,24.639515 C117.669352,24.5589351 117.886563,24.6551833 118.016314,24.8546435 L118.203194,25.2372544 C118.322175,25.4893814 118.264573,25.7651158 118.075714,25.8557682 C117.906999,25.9363482 117.692035,25.8184912 117.562284,25.6196942 L117.433592,25.4015619 L115.627154,25.4006176 L115.627154,25.4317793 L115.820735,25.4317793 L115.627154,25.7103467 L115.627154,29.4325687 L115.299483,29.4325687 L115.299483,25.7103467 L115.106847,25.4317793 L115.299483,25.4317793 L115.299483,25.4006176 L110.167235,25.4006176 L110.167235,31.40634 L111.210682,31.40634 L111.210682,32.5602697 L111.265451,32.5602697 L111.265451,31.40634 L113.289077,31.40634 L113.289077,32.5602697 L113.349512,32.5602697 L113.350457,31.40634 L114.543102,31.40634 L114.739516,29.6348407 L118.888752,29.6348407 L118.957686,30.6301287 L119.87743,30.6301287 C120.037725,30.6301287 120.170546,30.745805 120.201246,30.8987145 L120.207934,30.9662981 L120.207934,31.0352317 C120.207934,31.1291392 120.170395,31.2139025 120.10965,31.2748233 C120.155209,31.3198408 120.187714,31.3787772 120.201119,31.4448479 L120.207934,31.5130454 L120.207934,31.5819791 C120.207934,31.7100692 120.138092,31.8211466 120.034784,31.8779105 L120.034184,32.5177764 L119.930311,32.5177764 L119.930311,32.3440259 L119.077612,32.3440259 L119.093665,32.5602697 L120.838724,32.5546039 L121.241938,32.3440259 L120.62248,32.3440259 L120.62248,32.5177764 L120.518607,32.5177764 L120.517095,31.8771299 C120.434623,31.8315318 120.37327,31.7515977 120.352027,31.6561651 L120.343913,31.5819791 L120.343913,31.5130454 C120.343913,31.4196146 120.381933,31.3348467 120.443154,31.2738045 C120.397238,31.228878 120.364373,31.169967 120.35081,31.1037022 L120.343913,31.0352317 L120.343913,30.9662981 C120.343913,30.8043513 120.458143,30.6684317 120.609426,30.6369822 L120.676305,30.6301287 L121.797184,30.6301287 C121.957478,30.6301287 122.090299,30.745805 122.121,30.8987145 L122.127688,30.9662981 L122.127688,31.0352317 C122.127688,31.1291392 122.090149,31.2139025 122.029404,31.2748233 C122.074962,31.3198408 122.107468,31.3787772 122.120873,31.4448479 L122.127688,31.5130454 L122.127688,31.5819791 C122.127688,31.7100692 122.057846,31.8211466 121.954538,31.8779105 L121.953937,31.9729176 L122.391146,31.7453423 L123.399654,27.0852416 L121.37414,26.9209341 L121.37414,26.6348124 L121.810404,26.6338681 L121.810404,25.5809781 C121.810404,25.546517 121.816884,25.5135866 121.828681,25.4833371 L121.697089,25.4289464 L121.724473,25.3619014 L120.063457,24.665011 L120.142778,24.4761518 L121.80285,25.1730422 L121.832123,25.1050529 L122.654605,25.4487767 L122.517682,25.7736145 L122.349597,25.701848 L122.349597,26.6338681 L123.496917,26.6338681 L125.360957,18.0237774 L124.253298,13.7772784 L123.88219,13.7772784 L124.977573,12.7158897 L126.008744,12.7158897 L126.008744,11.8319584 L126.248595,11.8319584 L126.248595,12.7158897 L126.655587,12.7158897 L126.655587,11.9708401 L126.442176,11.9708401 L126.442176,11.7026601 L125.372289,11.7026601 L125.372289,11.3985968 L125.252363,11.3976525 L125.173042,10.6261627 C125.173042,10.0973569 125.600808,9.66959084 126.129614,9.66959084 C126.550467,9.66959084 126.907694,9.94150191 127.035233,10.3197413 L127.464849,10.3192665 L127.464849,10.1341845 L127.317538,10.1341845 L127.219332,9.18233411 C127.219332,8.53171418 127.747193,8.00479702 128.397813,8.00479702 C129.007769,8.00479702 129.540411,8.4531926 129.540411,9.03369487 L129.540411,9.53077933 L131.830329,9.53077933 L131.830329,9.75741036 L129.516804,9.75741036 L129.513971,9.78951643 L130.304347,9.78951643 L130.304347,10.2399456 L129.507361,10.2399456 L129.507101,10.1335167 L129.330777,10.1341845 L129.330777,10.3192665 L132.277925,10.3192665 L132.397851,9.16439249 L128.992719,7.76683444 L126.523385,7.65257462 L126.523385,7.31546096 L132.590487,7.31546096 L132.825617,5.05481638 L132.730243,4.26255205 L132.022021,4.07369286 L132.022021,3.90655247 L131.974806,3.90655247 L131.974806,3.31353459 L132.254318,3.31353459 L132.254318,3.90655247 L132.686805,3.90655247 L132.62637,3.3361977 L132.556493,2.37112721 L132.556493,2.22948281 L132.028631,1.89520203 L132.556493,1.80266103 L132.556493,1.67140388 L132.401628,1.61852331 L132.556493,1.11332496 L132.556493,0.816816023 L133.640544,0.816816023 L133.640544,0.711054873 L133.320428,0.711054873 L133.319484,0.296508938 L131.794446,0.297372083 L131.794446,0 L135.642452,0 Z M78.3132985,32.3260843 L77.6642279,32.3261914 C77.6041442,32.4469916 77.5315654,32.5301748 77.4521568,32.5615263 L78.3132985,32.5593254 L78.3132985,32.3260843 Z M58.8749658,25.3996733 L46.8210276,25.4006176 L46.8200833,25.4317793 L47.0146083,25.4317793 L46.8200833,25.7094024 L46.8200833,29.9247396 L48.0098962,29.9247396 L48.0098962,29.8964107 L48.1808138,29.8964107 L48.1808138,32.4516757 L48.0098962,32.4516757 L48.0089519,32.4412884 L46.8200833,32.4412884 L46.819139,32.5602697 L48.4055562,32.5602697 L48.4065005,29.8964107 L48.5774181,29.8964107 L48.5774181,29.9247396 L54.0722764,29.9247396 L54.0722764,29.8964107 L54.243194,29.8964107 L54.2422497,32.5602697 L54.4688807,32.5602697 L54.469825,29.8964107 L54.6407426,29.8964107 L54.6407426,29.9247396 L60.1356009,29.9247396 L60.1356009,29.8964107 L60.3065185,29.8964107 L60.3055742,32.5593254 L62.5227811,32.5593254 L62.5237254,29.5734615 L61.0383479,29.2108518 L60.9070907,29.2108518 L60.9070907,29.0503215 L62.5237254,29.0503215 L62.5237254,27.9615483 L62.3197575,27.9615483 L62.3197575,27.4780687 L62.0109727,27.479013 L61.9307076,27.175894 L59.8362591,25.9719166 L59.8117074,26.0162985 L59.6020737,25.8954287 L59.6464556,25.8170521 L59.4611003,25.7091625 C59.3231056,25.7247889 59.1601554,25.6675195 59.028886,25.5441506 L58.8749658,25.3996733 Z M121.84912,31.9115384 L121.797184,31.9181484 L120.676305,31.9181484 L120.62248,31.9137584 L120.62248,32.2241003 L121.472346,32.2241003 L121.848176,32.0276868 L121.84912,31.9115384 Z M119.929367,31.9124826 L119.87743,31.9181484 L119.047394,31.9181484 L119.069113,32.2241003 L119.930311,32.2241003 L119.929367,31.9124826 Z M182.949792,30.1277632 L178.649468,30.1277632 C178.440778,30.1277632 178.347293,30.2590204 178.446444,30.4129406 L178.92049,31.1800462 C178.983981,31.2506188 179.114676,31.3528204 179.405881,31.3753826 L183.827987,31.3798997 C184.036676,31.3798997 184.130162,31.2486426 184.031955,31.0947223 L183.564219,30.3357149 C183.496185,30.2563055 183.341439,30.1277632 182.949792,30.1277632 Z M194.959348,30.1277632 L190.659024,30.1277632 C190.450335,30.1277632 190.356849,30.2590204 190.456001,30.4129406 L190.929891,31.1800462 C190.993186,31.2506188 191.123617,31.3528204 191.415239,31.3753826 L195.837543,31.3798997 C196.046233,31.3798997 196.139718,31.2486426 196.040567,31.0947223 L195.573244,30.3357149 C195.505387,30.2563055 195.350287,30.1277632 194.959348,30.1277632 Z M5.56095903,30.1230418 L4.41836089,30.1230418 C4.30018899,30.1230418 4.20144261,30.2049064 4.17564103,30.3151165 L4.16906675,30.3723359 L4.16906675,30.9719639 C4.16906675,31.0901357 4.25093143,31.1888821 4.36114151,31.2146837 L4.41836089,31.221258 L5.56095903,31.221258 C5.67832153,31.221258 5.77695228,31.1393933 5.80273734,31.0291832 L5.80930887,30.9719639 L5.80930887,30.3723359 C5.80930887,30.2344687 5.69788194,30.1230418 5.56095903,30.1230418 Z M9.22105025,30.1230418 L7.67712632,30.1230418 C7.55895442,30.1230418 7.46020804,30.2049064 7.43440646,30.3151165 L7.42783218,30.3723359 L7.42783218,30.6716777 C7.42783218,30.7898496 7.50969686,30.888596 7.61990694,30.9143976 L7.67712632,30.9209719 L7.89998017,30.9209719 L7.89998017,30.9719639 C7.89998017,31.0901357 7.98184485,31.1888821 8.09205493,31.2146837 L8.14927431,31.221258 L8.74890226,31.221258 C8.86626476,31.221258 8.96489551,31.1393933 8.99068057,31.0291832 L8.9972521,30.9719639 L8.9972521,30.9209719 L9.22105025,30.9209719 C9.33841275,30.9209719 9.4370435,30.8391072 9.46282856,30.7288971 L9.46940009,30.6716777 L9.46940009,30.3723359 C9.46940009,30.2344687 9.35797316,30.1230418 9.22105025,30.1230418 Z M16.7442563,30.1230418 L15.2003324,30.1230418 C15.0829699,30.1230418 14.9843391,30.2049064 14.9585541,30.3151165 L14.9519825,30.3723359 L14.9519825,30.9719639 C14.9519825,31.0901357 15.0338472,31.1888821 15.1434626,31.2146837 L15.2003324,31.221258 L16.7442563,31.221258 C16.8624282,31.221258 16.9611746,31.1393933 16.9869762,31.0291832 L16.9935505,30.9719639 L16.9935505,30.3723359 C16.9935505,30.2344687 16.8821235,30.1230418 16.7442563,30.1230418 Z M101.41912,25.4013274 L98.8498475,25.4110048 L99.5467379,25.9615294 L99.3371042,26.7585152 L101.169038,25.7037366 L101.144487,25.6621876 L101.35412,25.5413177 L101.398502,25.6196942 L101.472336,25.5773892 C101.438145,25.5264976 101.420738,25.4659468 101.41912,25.4013274 Z M62.3039236,25.3996733 L59.7410639,25.4003986 C59.7395811,25.465776 59.7219604,25.5270211 59.6871741,25.5783547 L59.7597711,25.6196942 L59.8060416,25.5413177 L60.0156753,25.6621876 L59.9911236,25.7037366 L61.8202249,26.7566266 L61.6124798,25.9615294 L62.3039236,25.3996733 Z M128.546067,10.7413668 L128.546067,12.7158897 L131.132494,12.7158897 L131.156102,12.1738638 L131.561205,12.1738638 L131.586701,12.7158897 L132.029575,12.7158897 L132.097565,12.0520496 L128.946449,10.7583641 L128.546067,10.7413668 Z M127.079576,10.6809318 L127.075705,10.7319099 C127.117991,10.7837217 127.154076,10.8664132 127.166451,10.9348081 L127.166451,11.6393923 L127.086186,11.6393923 L127.086186,11.9708401 L126.871831,11.9708401 L126.871831,12.7158897 L128.250503,12.7158897 L128.250503,10.7290909 L127.079576,10.6809318 Z M129.456369,10.7791386 L132.116451,11.8707448 L132.218435,10.8943427 L129.456369,10.7791386 Z M137.564094,10.1889536 L135.158028,10.2918819 L135.260012,11.2758383 L137.564094,10.4004759 L137.564094,10.1889536 Z M129.516804,7.79138613 L132.417681,8.97742188 L132.526275,7.93114194 L129.516804,7.79138613 Z M137.564094,7.18042663 L134.845466,7.29374215 L134.970113,8.49110945 L137.564094,7.42594359 L137.564094,7.18042663 Z" id="path-1"></path>
    </defs>
    <g id="Silhouettes/Fleet-Tanker-Tide-Class" stroke="none" stroke-width="1" fill="none" fill-rule="evenodd">
        <mask id="mask-2" fill="white">
            <use xlink:href="#path-1"></use>
        </mask>
        <use fill="#3E5667" xlink:href="#path-1"></use>
    </g>
</svg>