<?xml version="1.0" encoding="UTF-8"?>
<svg width="200px" height="42px" viewBox="0 0 200 42" version="1.1" xmlns="http://www.w3.org/2000/svg" xmlns:xlink="http://www.w3.org/1999/xlink">
    <title>Silhouettes/Fort Class</title>
    <defs>
        <path d="M56.0608682,-2.04836148e-14 L56.0608682,0.569658294 L54.904,0.569 L54.9047864,1.1539415 L54.7399886,1.1539415 L54.7399886,2.16163385 L55.7594522,2.16163385 L55.7594522,3.72507299 L55.0727946,3.72507299 L55.072,5.274 L55.5846667,5.26925005 L56.1047429,20.0632438 L56.5870084,20.0632438 L56.5870084,22.5448423 L65.9647896,22.5448423 L65.9647896,25.576837 L67.3445256,25.576837 L67.3445256,26.9565729 L68.673966,26.9565729 L68.7071396,22.5448423 L70.1011438,22.5448423 L70.135,22.584 L70.2167163,22.5847933 L70.678,23.044 L75.25,24.391 L75.2501841,13.4520686 L76.721,13.452 L78.7865601,11.3878153 L79.4739311,12.0748296 L77.9101352,16.2044064 L77.507,16.204 L77.507,25.056 L85.462,27.399 L85.5728776,27.3996008 L85.5728776,27.9624817 L77.507,27.962 L77.507,29.177 L86.0968776,29.1777765 L85.5454113,26.1297301 L85.612,26.12925 L86.081896,25.4288043 L87.064,25.42825 L87.0642622,24.843451 L94.4587622,24.843451 L94.458,25.42825 L95.4357779,25.4288043 L96.0414634,26.1561263 L95.4468358,26.883805 L95.375,26.88325 L95.5599113,29.1652919 L104.547,29.16525 L104.547,27.96225 L97.978373,27.9624817 L97.978373,27.3996008 L98.084,27.39925 L104.547,25.49625 L104.5471,13.4520686 L106.015,13.452 L108.082406,11.3878153 L108.770134,12.0748296 L107.205981,16.2044064 L106.801,16.204 L106.801,24.83225 L112.874,23.04425 L113.334534,22.5847933 L114.806657,22.5847933 L114.806657,29.1353286 L114.503,29.13525 L114.503814,29.1652919 L116.432519,29.1652919 L116.432519,26.6815532 L116.985413,24.199598 L120.293854,24.199598 L122.501859,8.20279407 L126.282,8.202 L126.282222,6.80083611 L125.468934,6.07148017 L128.972493,6.07148017 L128.972493,6.72686155 L127.47005,7.01860393 L127.47005,8.33061346 L127.741146,15.9072709 L139.45,15.907 L139.450353,15.202778 L142.827638,15.202778 L142.827,15.907 L145.876755,15.9072709 L147.048175,26.9565729 L200,26.9565729 L196.257805,41.8946756 L5.98515749,41.824048 L0,32.5119006 L24.0437178,32.9945228 L24.5966109,28.6113286 L29.2847881,28.6113286 L29.8351843,24.4760446 L28.048,22.52 L27.8019644,22.5202296 L27.8019644,21.9113338 L30.366,21.911 L29.8351843,19.7878674 L30.694,19.787 L30.6944873,19.5367469 L31.3971967,19.5367469 L31.3971967,18.459497 L31.8213192,18.459497 L31.8213192,19.5367469 L33.3690633,19.5367469 L33.369,19.787 L38.075,19.787 L38.0750758,19.3430559 L41.4527178,19.3430559 L41.452,19.787 L45.674,19.787 L45.6746812,15.2502198 L42.4372243,13.9371878 L43.3293442,13.9371878 L43.3293442,13.1802592 L43.6814123,13.1802592 L43.6814123,13.9371878 L45.6746812,13.9371878 L45.6746812,11.8729345 L46.1326908,11.8729345 L46.1326908,10.8655988 L45.967893,10.8652421 L45.967,10.282 L44.8118112,10.2823857 L44.8118112,9.71272742 L47.9229945,9.71272742 L47.9229945,10.2823857 L46.766,10.282 L46.7669127,10.8652421 L46.6010448,10.8655988 L46.6010448,11.8729345 L47.9750734,11.8729345 L46.1326908,12.9862116 L46.1326908,19.9169947 L45.828,19.916 L45.761,21.911 L47.5035091,21.9113338 L47.503,22.494 L50.7958986,22.5348546 L50.7958986,20.3382636 L53.1148395,20.3382636 L53.5639314,5.28958224 L54.07,5.284 L54.0708096,3.72507299 L53.3852221,3.72507299 L53.3852221,2.16163385 L54.2705645,2.16163385 L54.2705645,1.1539415 L54.1071935,1.1539415 L54.107,0.569 L52.9496849,0.569658294 L52.9496849,-2.04836148e-14 L56.0608682,-2.04836148e-14 Z M75.25,27.962 L71.755,27.962 L71.7558995,29.1777765 L75.25,29.177 L75.25,27.962 Z M112.079,27.96225 L106.801,27.96225 L106.801,29.16525 L112.294738,29.1652919 L112.294,29.13525 L112.021502,29.1353286 L112.021502,28.7122762 L112.079,27.96225 Z M112.407,23.76925 L106.801,25.42025 L106.801,27.39925 L112.123,27.39925 L112.171,26.78825 L111.772165,26.7732264 L110.92713,26.4143809 L110.73772,25.4288043 L110.92713,24.8659234 L111.772165,24.458566 L112.333976,24.458566 L112.332,24.47525 L112.352,24.47525 L112.407,23.76925 Z M104.547,26.08325 L100.079,27.39925 L104.547,27.39925 L104.547,26.08325 Z M77.507,25.643 L77.507,27.399 L83.472,27.399 L77.507,25.643 Z M71.154,23.773 L71.74,24.458 L71.7805121,24.458566 L72.6251902,24.8659234 L72.8124604,25.4288043 L72.6251902,26.4143809 L71.7805121,26.7732264 L71.755,26.774 L71.755,27.399 L75.25,27.399 L75.25,24.979 L71.154,23.773 Z M111.772165,24.7721099 L111.208928,24.9144353 L111.067316,25.4288043 L111.208928,25.7569731 L111.772165,25.8992985 L111.772165,24.7721099 Z M71.7805121,24.7721099 L71.7805121,25.8992985 L72.3444631,25.7569731 L72.4853617,25.4288043 L72.3444631,24.9144353 L71.7805121,24.7721099 Z M44.6719828,12.3148923 L44.6719828,12.7425819 L43.804,12.742 L43.8044756,13.1799025 L43.2055675,13.1799025 L43.205,12.742 L42.3391304,12.7425819 L42.3391304,12.3148923 L44.6719828,12.3148923 Z M128.502355,5.15974153 L128.502355,6.06791311 L128.034001,6.06791311 L128.034001,5.15974153 L128.502355,5.15974153 Z M126.939986,2.28220023 L126.939986,6.06791311 L126.688152,6.06791311 L126.688152,2.28220023 L126.939986,2.28220023 Z M129.25429,4.12850664 L129.25429,4.59650393 L128.752,4.596 L128.752762,5.15546107 L127.782524,5.15546107 L127.782,4.596 L127.284207,4.59650393 L127.284207,4.12850664 L129.25429,4.12850664 Z M127.188253,1.88269034 L127.188253,2.28184352 L126.437745,2.28184352 L126.437745,1.88269034 L127.188253,1.88269034 Z" id="path-1"></path>
    </defs>
    <g id="Silhouettes/Fort-Class" stroke="none" stroke-width="1" fill="none" fill-rule="evenodd">
        <mask id="mask-2" fill="white">
            <use xlink:href="#path-1"></use>
        </mask>
        <use fill="#3E5667" xlink:href="#path-1"></use>
    </g>
</svg>