<?xml version="1.0" encoding="UTF-8"?>
<svg width="200px" height="53px" viewBox="0 0 200 53" version="1.1" xmlns="http://www.w3.org/2000/svg" xmlns:xlink="http://www.w3.org/1999/xlink">
    <title>Silhouettes/Generic RN Ship</title>
    <defs>
        <path d="M82.1132152,-9.59232693e-14 L82.2370268,0.12384792 L80.9373037,1.42326881 C81.500242,2.04164786 81.8434719,2.86377668 81.8434719,3.76614247 C81.8434719,4.63329488 81.5259588,5.42648163 81.0008828,6.03575239 L81.0245198,6.03568347 L81.0245198,6.83341007 L80.8114095,6.83338949 L80.6213475,7.65220814 L83.652584,7.11070711 L83.6833842,7.28308782 L81.0545354,7.75149428 L81.664436,11.1991429 L82.0610337,11.1991502 L82.0610337,11.6944128 L81.7522083,11.6944056 L83.6883714,22.6382413 L88.1262116,22.6382413 L88.1262322,22.1688637 L88.4711472,22.1688637 L88.4711472,23.8672608 L88.1262322,23.8672608 L88.1262116,23.2261154 L86.7398768,23.2261154 L86.7495129,23.2613999 L83.9338335,24.0252436 L84.7041777,28.3787062 L92.7687288,28.3787496 L93.723447,32.331906 L94.3189969,32.331906 L94.3191376,31.9464093 L94.7321608,31.9462753 L94.7323282,31.5922965 L95.7370038,31.5922965 L95.7368698,31.9462753 L96.0322252,31.9462753 L96.0323926,31.5618733 L96.335924,31.5618126 L97.1197919,27.4628675 L106.513171,27.4627134 L106.513211,26.1958795 C106.513211,25.5848882 106.994333,25.0897458 107.599747,25.0689525 L107.639403,25.0682726 C108.250393,25.0682726 108.74757,25.5510875 108.768372,26.1526758 L108.76905,26.1920745 L108.824118,27.4627134 L108.83104,27.4628675 L108.83096,27.6184007 L108.834932,27.7066074 L108.83096,27.7065068 L108.83104,28.163557 L106.645747,28.8943266 L107.453802,33.1849324 L107.453856,31.8156954 C107.453856,31.5446858 107.666436,31.3231548 107.934502,31.3076769 L107.964508,31.306813 L108.428993,31.306813 C108.574836,31.306813 108.706443,31.3683166 108.799267,31.4667764 L111.767608,22.3009037 L111.934201,22.354853 L108.917155,31.6716276 C108.927268,31.7058928 108.933867,31.7416576 108.936534,31.778504 L108.937875,31.8156954 L108.937875,33.6775291 C108.937875,33.7819043 108.9063,33.8790043 108.852186,33.959795 L109.066561,36.0290144 C109.068514,36.0478619 109.063937,36.0657532 109.054744,36.0805655 L109.470813,36.0804372 C109.511017,36.0804372 109.544455,36.1094077 109.551389,36.1476117 L109.552709,36.1623325 L109.552661,36.8136323 L112.429163,36.8137228 C112.263787,36.716833 112.150446,36.5407269 112.139549,36.3368775 L112.138687,36.3045436 C112.138687,35.9900981 112.382194,35.7346721 112.691732,35.7179931 L112.723981,35.7171267 L114.821772,35.7171267 C115.145224,35.7171267 115.408482,35.9801271 115.408482,36.3045436 C115.408482,36.5215616 115.290729,36.7115898 115.116075,36.8137173 L117.213714,36.8136323 L117.275498,36.4341882 L118.905916,22.3795967 L117.491769,20.9653818 L117.491769,20.1779079 L117.623707,20.1777805 L117.623707,19.9626884 L117.256519,19.9628224 L117.256519,19.0170477 C117.256519,18.62257 117.57781,18.3022776 117.972704,18.3022776 C118.355175,18.3022776 118.664546,18.6032133 118.682318,18.9784475 L118.683124,19.0127581 L118.729726,19.9628224 L118.35492,19.9626884 L118.35492,20.1777805 L119.487283,20.1777805 L119.487323,19.7937256 L119.720063,19.7936516 L119.720097,19.5598909 L119.891269,19.5598703 L119.891316,19.1587282 L120.097851,19.1587209 L120.097851,18.8947366 L119.019887,18.8947366 L119.020008,19.3508193 L118.753981,19.3508193 L118.753981,18.1699717 L119.020008,18.1699717 L119.019887,18.6269143 L120.097851,18.6269143 L120.097851,16.8567843 L119.019887,16.8567843 L119.020008,17.3138749 L118.753981,17.3138749 L118.753981,16.131966 L119.020008,16.131966 L119.019887,16.5874602 L120.097851,16.5874602 L120.097851,14.6956838 L119.019887,14.6956838 L119.020008,15.151346 L118.753981,15.151346 L118.753981,13.9722671 L119.020008,13.9722671 L119.019887,14.4278615 L120.097851,14.4278615 L120.097851,12.3703857 L119.475295,12.3704463 L119.475295,11.8263649 L120.097851,11.8262309 L120.097851,10.8305327 L119.475295,10.8305333 L119.475295,10.2864519 L120.097851,10.2863779 L120.097851,9.69917131 L119.744425,9.69917131 L119.744506,10.1544998 L119.478126,10.1544998 L119.478126,8.97718975 L119.744506,8.97718975 L119.744425,9.43268397 L120.097851,9.43268397 L120.097851,8.61770328 L119.750166,8.61777058 L119.750166,7.94881227 L120.106027,7.94873162 L120.106027,7.25990273 L119.921739,7.26004345 L119.921639,6.90580997 L119.812428,6.90593067 L119.812428,6.54721902 L120.236184,6.54721179 L120.236231,4.73986417 L120.581146,4.73986417 L120.581099,6.54721179 L121.004949,6.54721902 L121.004949,6.90593067 L120.897313,6.90580997 L120.897407,7.26004345 L120.710254,7.25990273 L120.710254,7.94873162 L121.067565,7.94881227 L121.067565,8.61777058 L120.721101,8.61770328 L120.721101,9.43268397 L121.072857,9.43268397 L121.072871,8.97718975 L121.343497,8.97718975 L121.343497,10.1544998 L121.072871,10.1544998 L121.072857,9.69917131 L120.721101,9.69917131 L120.721101,10.2863779 L121.343497,10.2864519 L121.343497,10.8305333 L120.721101,10.8305327 L120.721101,11.8262309 L121.343497,11.8263649 L121.343497,12.3704463 L120.721101,12.3703857 L120.721101,14.4278615 L121.799065,14.4278615 L121.799138,13.9722671 L122.069764,13.9722671 L122.069764,15.151346 L121.799138,15.151346 L121.799065,14.6956838 L120.721101,14.6956838 L120.721101,16.5874602 L121.799065,16.5874602 L121.799138,16.131966 L122.069764,16.131966 L122.069764,17.3138749 L121.799138,17.3138749 L121.799065,16.8567843 L120.721101,16.8567843 L120.721101,18.6269143 L121.799065,18.6269143 L121.799138,18.1699717 L122.069764,18.1699717 L122.069764,19.3508193 L121.799138,19.3508193 L121.799065,18.8947366 L120.721101,18.8947366 L120.721101,19.1587209 L120.93066,19.1587282 L120.930519,19.5598703 L121.096219,19.5598909 L121.096219,19.7936516 L121.330054,19.7937256 L121.33,20.8414124 L121.530635,20.8415598 L121.530575,21.3179859 L121.841268,21.3180732 L122.153992,24.5336888 L122.541291,24.5336888 L122.541291,24.3533051 L122.33473,24.3533257 L122.33473,23.7147906 L123.374427,23.7147906 L123.374427,24.3533257 L123.13584,24.3533051 L123.13584,24.5336888 L123.76144,24.5337428 L123.76144,25.1049479 L122.285316,25.8843141 L122.759971,30.7615736 L123.866506,30.7616703 L123.86647,32.2300072 L124.300074,32.22995 L124.926657,30.9258145 L125.291934,30.9257139 L128.90476,19.7750518 L129.071345,19.8290261 L125.475822,30.9257139 L125.827346,30.9258145 L125.673727,32.22995 L128.433452,32.230124 L129.454752,36.6942231 L129.490153,36.8136323 L131.229997,36.8136896 L134.674558,22.1493196 L130.460487,22.1493196 L130.460574,22.7904183 L130.115306,22.7904183 L130.115306,21.0891912 L130.460574,21.0891912 L130.460487,21.55961 L134.813225,21.55961 L135.140619,20.1657661 L130.27737,20.1658801 L131.689564,15.3437909 L138.932515,15.3436301 L138.959275,15.2524808 L139.518568,15.5869795 L139.298956,16.3343223 L141.016036,18.2989476 L141.016036,19.0090001 L140.20749,20.1966571 L139.83727,20.1966366 L140.116607,21.55961 L144.402097,21.55961 L144.402217,21.0888374 L144.749963,21.0888374 L144.749963,22.7900645 L144.402217,22.7900645 L144.402097,22.1493196 L140.237419,22.1493196 L141.269745,27.1864382 L146.974046,27.1865817 L146.974046,27.9532291 L144.780469,30.1426621 L145.761149,33.6048283 L145.889887,33.604771 L146.4984,32.3500484 L146.862891,32.3499277 L150.477695,21.1968021 L150.644275,21.2507908 L147.046946,32.3499277 L147.403979,32.3500484 L147.249523,33.604771 L153.729154,33.604771 L153.949613,32.4080648 L154.303511,32.4079975 L154.303579,20.9942069 L154.478689,20.9942069 L154.478555,32.4079975 L154.850457,32.4080648 L155.063092,33.604771 L156.498987,33.604771 L156.726953,32.3656138 L157.080186,32.3656132 L157.080233,20.9517558 L157.255344,20.9517558 L157.25523,32.3656132 L157.62214,32.3656138 L157.842437,33.604771 L158.643651,33.6048283 L159.196688,31.5894665 L159.291514,31.5893458 L159.291581,31.4055118 L159.572352,31.4054578 L159.572352,31.3075066 L158.383482,31.3075205 L158.383482,30.6994088 L161.181362,30.6994088 L161.181362,31.3075205 L159.992023,31.3075066 L159.992023,31.4054578 L160.276092,31.4055118 L160.276032,31.5893458 L160.337849,31.5894665 L160.47435,32.195821 L161.057878,34.7702759 L161.338218,35.9971753 L161.875469,38.3228898 L162.140318,39.4492602 L162.331392,40.2458459 C162.466757,40.8028347 162.565486,41.1894656 162.622215,41.3814309 L162.633421,41.4185863 L162.646777,41.4602512 C162.737008,41.7322308 162.885449,41.9481593 163.07626,42.115429 C163.19091,42.2159337 163.313843,42.2927511 163.436579,42.3488457 C163.471528,42.3648186 163.502514,42.3774444 163.528571,42.3870674 L163.567691,42.4005173 L163.585264,42.4055852 L200,42.4056486 L196.732692,52.2093724 L9.86775465,52.2093724 L6.37033228,47.8208777 L5.94110708,48.2228656 L5.12111988,47.040953 L5.74875098,47.0409391 L0,39.8278924 L0.197498838,39.8407262 L2.55767752,39.9882373 L4.91618604,40.1300344 L7.82945685,40.2994236 L9.59049737,40.3990772 L10.5724007,40.4537689 C13.5318975,40.6176773 16.6141863,40.7799558 19.7844213,40.9370584 L21.7162564,41.0316091 L23.3014501,41.1074194 C24.3225481,41.1557319 25.3403877,41.202876 26.3544663,41.2488005 L26.3342727,41.1659268 L25.2786522,40.1085541 L30.6226825,41.1618647 L30.6227031,41.0599492 L31.3060048,41.0599086 L31.3060048,40.7238376 L30.1550337,40.716976 L30.154953,40.0562009 L29.9977336,40.0823563 L30.154953,39.9700972 L30.1550337,39.9571055 L30.1612128,39.9247969 L30.6670693,38.6503425 L29.9151851,38.6504965 L29.9151645,38.4936539 L27.4854074,38.4936539 L27.4855681,38.5712545 L26.6043544,38.5712545 L26.6043472,38.4936539 L24.022621,38.4937813 L24.022621,38.031772 L26.6043472,38.0317648 L26.6043544,37.9557138 L27.4855681,37.9557138 L27.4854074,38.0317648 L29.9151645,38.0317648 L29.9151851,37.8782406 L30.9736048,37.8780799 L31.1445487,37.4480486 L32.5581383,36.5130845 L35.4440512,36.5130845 L36.2978958,38.3643798 L35.2678215,40.7482869 L34.2819192,40.742193 L34.2819192,41.0599086 L34.922644,41.0599492 L34.9227438,41.6105987 C37.5198967,41.7118947 40.0812025,41.8037667 42.5975474,41.8852873 L42.6478177,41.7492389 L43.3064703,39.1146284 L57.1086668,39.1146284 L57.6732214,42.2271172 L57.6737737,42.2504793 L58.5529969,42.2627298 C58.6988187,42.2646622 58.8442818,42.2665397 58.9893845,42.2683623 C58.9491638,42.2198012 58.9189172,42.1643104 58.9012602,42.1037708 L58.8190563,42.1092147 L58.860829,41.7642562 L58.6626799,39.6973295 C58.5532827,39.6316216 58.480729,39.5389241 58.4596658,39.4151915 L58.4554303,39.3830765 L58.3613304,38.4127155 L58.5243561,38.3969063 L58.5245911,38.4002081 L58.5382742,38.3993738 L58.4083862,37.0416058 C58.3831825,36.7836873 58.6003583,36.5634296 58.8917268,36.5293082 L58.923221,36.5263713 L58.9553961,36.5249358 C59.1512124,36.5210714 59.3303195,36.6065311 59.4328485,36.742151 C59.5140954,36.5863628 59.6907263,36.4745131 59.9018115,36.4612498 C60.1923313,36.4426216 60.4535652,36.6191527 60.4950041,36.8686878 L60.4986942,36.8967081 L60.6316266,38.2837347 L60.6381344,38.2834009 L60.7205046,38.275697 L60.7449024,38.531403 C60.7469379,38.5423721 60.748505,38.5535071 60.7495839,38.5647955 C60.7504522,38.5749316 60.7509119,38.5850019 60.7509756,38.5949952 L60.8103704,39.2229096 C60.8096588,39.2865676 60.7929654,39.3746694 60.7451487,39.4653557 L60.9752067,41.870217 L61.0014931,41.9640044 L60.9775188,41.9657449 C60.9665814,42.0940806 60.8967723,42.2083687 60.7903156,42.2883367 L61.8270597,42.2973143 C61.79612,42.2649925 61.7700487,42.228824 61.7498348,42.1896012 C61.6875867,42.2137208 61.6198894,42.2270003 61.5492012,42.2270003 C61.2407762,42.2270003 60.9911464,41.9762015 60.9911464,41.6689454 C60.9911464,41.359954 61.2403873,41.108768 61.5492012,41.108768 C61.5717454,41.108768 61.593982,41.1101174 61.6158351,41.1127396 L61.582938,40.7733972 L61.5166554,40.7771189 L61.4351566,40.7851674 L61.34209,39.8370473 C61.3433729,39.7692272 61.3628917,39.673649 61.4185834,39.5767637 C61.4316284,39.5540696 61.4460998,39.5326033 61.4620137,39.5124643 L61.3993838,38.8582593 L61.3341386,38.8619304 L61.2497601,38.869993 L61.1598945,37.9224295 C61.1606517,37.8546949 61.1795031,37.7592855 61.2346896,37.6625349 C61.2477749,37.6395942 61.2623361,37.6179125 61.2783869,37.5975925 L61.2257784,37.0463979 C61.1976607,36.7773335 61.4318027,36.5476489 61.7355515,36.5278157 C61.9450877,36.5121787 62.1406198,36.6001133 62.2482278,36.7433156 C62.3299915,36.5882105 62.5042698,36.4772969 62.7142381,36.4626621 C63.0069195,36.4440477 63.2704283,36.6219966 63.3119824,36.8731015 L63.3156764,36.9012969 L63.3726936,37.4947648 C63.4457217,37.5557902 63.4940602,37.634051 63.5106023,37.7314937 L63.5148335,37.7636662 L63.6089334,38.7326121 L63.4922355,38.7437883 L63.5562151,39.4076476 C63.6307413,39.4691306 63.6801927,39.5481695 63.697279,39.6468274 L63.7016283,39.6790213 L63.7943132,40.6461985 L63.6759566,40.6574243 L63.7943082,41.8903179 C63.8106747,42.0599833 63.7234745,42.2132596 63.5803857,42.3082153 L64.4060919,42.3110655 L64.8154958,42.3120397 L65.6176264,42.3127496 L65.6590117,41.9277024 L66.8490491,35.4263561 L66.8696329,35.1990227 L65.3830646,34.9572536 L65.3830646,32.9638203 L66.7284631,32.9636662 L66.7231233,32.9459782 L66.7097147,32.9461323 L66.360854,31.756547 L66.0861261,30.8543552 L69.6082618,30.8542946 L69.6082618,30.3066356 L68.788349,30.3067362 L68.788349,29.6954407 L70.8493491,29.6954407 L70.8493491,30.3067362 L70.0296021,30.3066356 L70.0296021,30.8542946 L71.7121267,30.8542946 L71.8006553,30.5618756 L72.2587845,27.711179 L70.2734294,27.2433382 L70.2734294,26.729525 L70.8082057,26.7294978 L70.8082057,26.6265405 L69.9879458,26.6265811 L69.9879458,26.0170543 L72.0461158,26.0170543 L72.0461158,26.6265811 L71.2260418,26.6265405 L71.2260418,26.7294978 L72.4166412,26.7294978 L72.8545014,24.0050527 L70.1144756,23.2613985 L70.1238822,23.2261154 L68.7370467,23.2261154 L68.7370539,23.8672608 L68.3914314,23.8672608 L68.3914314,22.1688637 L68.7370539,22.1688637 L68.7370467,22.6382413 L70.96139,22.6382413 L70.9614907,22.2629636 L71.2437298,22.2629564 L71.2437298,22.1663401 L70.0565751,22.1663874 L70.0565751,21.5568606 L72.8512714,21.5568606 L72.8512714,22.1663874 L71.6635683,22.1663401 L71.6635683,22.2629564 L71.9477708,22.2629636 L71.9477436,22.6382413 L73.074099,22.6382413 L74.3756652,14.5406639 L74.3029343,14.5407579 L74.7570136,11.9144509 L74.7978399,11.9143369 L74.8332158,11.6944056 L74.6490747,11.6944128 L74.6490747,11.1991502 L74.9128115,11.1991429 L75.0785109,10.1682357 L74.7431746,10.1682964 L74.7431746,8.97718975 L75.2699079,8.9771358 L75.4668115,7.75249548 L72.8766399,7.41709479 L72.8991309,7.24343444 L76.0915633,7.6575479 L76.1064145,7.6575479 L75.9161856,6.83338949 L75.7046916,6.83341007 L75.7046916,6.03568347 L75.727071,6.03575136 C75.2018547,5.42652045 74.8843245,4.63336679 74.8843245,3.76614247 C74.8843245,2.85584448 75.2335762,2.02730229 75.8054257,1.40716974 L74.5212084,0.123863484 L74.6449889,-9.59232693e-14 L75.9272277,1.28153467 C76.5550663,0.665517061 77.4154672,0.285684324 78.3647826,0.285684324 C79.3211294,0.285684324 80.1873991,0.671831631 80.8162723,1.29681731 L82.1132152,-9.59232693e-14 Z M62.7696399,42.1896564 L62.758505,42.2099164 C62.7385445,42.243485 62.7140429,42.2748181 62.6856745,42.3033221 L62.8919581,42.3045262 C62.844263,42.272478 62.8028957,42.2337211 62.7696399,42.1896564 Z M59.9548574,42.1849641 C59.937698,42.2189552 59.9164987,42.2502133 59.891583,42.2790043 L60.0491862,42.2807642 C60.0129374,42.2527062 59.9812671,42.2205316 59.9548574,42.1849641 Z M94.3189969,32.5071168 L93.7658313,32.5071168 L93.8779662,32.9713421 L94.3189969,32.5289764 L94.3189969,32.5071168 Z M94.7321608,32.1213192 L94.4941249,32.1213765 L94.4940409,32.353265 L94.60453,32.2425056 L94.7322447,32.2423554 L94.7321608,32.1213192 Z M86.2102394,23.2261154 L83.7924967,23.2261154 L83.9031299,23.8522021 L86.2102394,23.2261154 Z M72.979652,23.2261154 L70.6533527,23.2261154 L72.8823683,23.8311768 L72.979652,23.2261154 Z M120.106027,8.12377559 L119.925227,8.12383287 L119.925227,8.44254973 L120.097851,8.44249244 L120.097911,8.28771341 L120.106027,8.28763944 L120.106027,8.12377559 Z M120.892391,8.12383287 L120.710254,8.12377559 L120.710254,8.28763944 L120.721235,8.28771341 L120.721101,8.44249244 L120.892391,8.44254973 L120.892391,8.12383287 Z" id="path-1"></path>
    </defs>
    <g id="Silhouettes/Generic-RN-Ship" stroke="none" stroke-width="1" fill="none" fill-rule="evenodd">
        <mask id="mask-2" fill="white">
            <use xlink:href="#path-1"></use>
        </mask>
        <use id="Silhouettes/Daring-Class" fill="#3E5667" xlink:href="#path-1"></use>
    </g>
</svg>