<?xml version="1.0" encoding="UTF-8"?>
<svg width="200px" height="102px" viewBox="0 0 200 102" version="1.1" xmlns="http://www.w3.org/2000/svg" xmlns:xlink="http://www.w3.org/1999/xlink">
    <title>Silhouettes/Gleaner</title>
    <defs>
        <path d="M158.278247,56.1923501 L139.275153,62.9925155 L144.582026,72.8451484 L144.577888,73.7849905 L178.535801,73.7854939 L178.535801,87.293706 L144.519999,87.2932026 L144.497863,92.4885913 L60.8083571,92.4885913 L59.7077202,91.982482 L58.4732059,91.4068588 L57.1817064,90.7973815 C56.3237353,90.3899528 55.4748977,89.9815935 54.6536525,89.5800467 L54.0431805,89.2802849 L53.2114291,88.867329 L52.4556647,88.4867475 C51.0708662,87.7840925 49.9308814,87.174289 49.0786811,86.6731868 L48.9312889,86.5858886 L48.6666848,86.4255652 C47.9828703,86.0044018 47.5296746,85.6742576 47.2291201,85.3291486 C47.0698965,85.1463215 46.9409354,84.9496834 46.8493266,84.7014709 C46.6737704,84.2258035 46.6915854,83.6757039 47.00416,83.1831294 C47.4347983,82.5045029 47.9778279,82.3555446 48.6561165,82.3555446 C49.4452878,82.3555446 50.486651,81.1075826 51.3996811,78.8593988 C51.7711083,77.9448218 52.0889731,76.9528974 52.3505996,75.9594108 L52.4541294,75.5539296 C52.4864263,75.4232556 52.516511,75.2972616 52.5443858,75.176529 L52.6253916,74.8119284 L52.9032891,73.3744682 L73.1193954,72.9629704 L86.0060862,56.1923501 L158.278247,56.1923501 Z M0.581383382,66.5372533 L0,64.4641003 L1.53922215,65.0413382 L2.24719359,65.2869742 L2.63596116,65.4158675 C2.77089188,65.4599863 2.91113013,65.5052285 3.05657394,65.5515011 L3.63063441,65.731044 C5.05274766,66.1684503 6.64329351,66.6041397 8.37469809,67.0130349 C12.6897384,68.0320915 17.2062286,68.7291317 21.7601154,68.9577291 L23.2720486,69.0294516 C26.5209009,69.1790789 29.592658,69.2914507 32.4565696,69.37159 L33.7635047,69.406307 L35.4699825,69.4458987 L37.4977905,69.4837418 L39.2673783,69.5068775 L40.2616119,69.5144876 L41.3659103,69.5155699 L41.3659103,84.2092428 L40.4407891,84.2092428 L38.863851,84.202233 L36.6897025,84.1829116 L34.9325092,84.1599506 C32.8860515,84.1293522 30.8585464,84.085201 28.9166549,84.0252248 L27.4693181,83.9769615 C22.3532738,83.7932564 18.6200292,83.513117 16.7254748,83.1062209 L16.6140116,83.0816548 L16.2080402,82.9856431 C15.3465344,82.7949615 14.3470765,82.7140966 13.1854929,82.7249746 L12.9145462,82.7291053 C12.1801536,82.744506 11.4669921,82.7882829 10.506899,82.8713986 L10.2615761,82.8930034 L8.55153418,83.0507644 C7.75327117,83.1224325 7.33830711,83.1521257 6.98842476,83.1589944 L6.7199237,83.1600242 L6.33304801,83.1490886 C5.18688714,83.0918763 4.44812128,82.7389511 4.40014374,81.8253567 L4.39495346,81.6537535 L4.38666616,81.5584599 C4.30929321,80.8262929 3.82729459,78.7344203 3.06498713,75.7646894 L2.8973904,75.1150575 L2.51128989,73.6398859 L1.96676244,71.5973155 L1.73709233,70.7461962 L1.73709233,70.7461962 L1.50479948,69.8907523 L1.03583926,68.1785883 L0.581383382,66.5372533 Z M2.2756564,66.9103249 L2.74915144,68.6291784 L3.21673993,70.3460724 C3.29399546,70.6314504 3.37081638,70.9161195 3.44705766,71.1995946 L3.99330717,73.2486318 L4.40898499,74.8368522 L4.81840165,76.4359932 C5.45099751,78.9433108 5.83165409,80.6535006 5.91367374,81.453448 L5.92264715,81.5556732 L5.97925089,81.5693966 C6.06143273,81.5869015 6.16687004,81.6012768 6.2942222,81.6110091 L6.3938244,81.6174141 L6.50151898,81.6219362 C6.7828455,81.6308351 7.0075639,81.6301618 7.37636273,81.6073314 L7.75260198,81.5804617 L10.3656376,81.3450911 L10.9026927,81.3005997 C11.4168325,81.2602655 11.8678794,81.232182 12.3067102,81.2143623 L12.5253431,81.2062985 L12.8824094,81.196649 C14.3751717,81.1653446 15.6530302,81.267024 16.7758794,81.5445091 C18.3172245,81.9336606 21.8159685,82.221766 26.6739933,82.4131246 L27.2517608,82.4351913 L28.9644724,82.4931773 C31.1392963,82.5603431 33.4235074,82.6076036 35.7214956,82.6381417 L37.8249537,82.661443 L39.8328654,82.6741844 L39.8328654,71.0445878 L38.0958571,71.0256567 L36.1443582,70.9927549 L34.3021793,70.9527492 L32.9958378,70.9197088 C30.1324213,70.8431764 27.0560287,70.7342399 23.7976531,70.5877471 L21.6843267,70.4886472 C17.0296487,70.2549909 12.4227682,69.5440006 8.02239888,68.5047923 C6.2565903,68.0877721 4.63323061,67.6430901 3.17947311,67.1959362 L2.81958283,67.0841108 L2.2756564,66.9103249 Z M121.179998,46.0947173 C121.743884,45.540062 122.076409,45.4387865 123.288651,45.4799097 L124.324179,45.5260355 C124.514425,45.5332263 124.694049,45.5379603 124.878244,45.5403173 L125.242235,45.5419548 L125.617386,45.5379867 L125.617386,45.5379867 L125.754275,45.5352851 L126.792247,45.5064328 C128.157968,45.4693096 128.716112,45.4877013 129.341299,45.6245089 C130.387182,45.8533759 131.042906,46.4614576 131.08841,47.4639798 L131.091124,47.5913564 L131.094165,47.5955647 L131.094165,47.5955647 L131.101676,47.5992849 L131.213961,47.6316907 C131.466197,47.7078962 131.877112,47.7226582 132.387272,47.6730843 C132.742432,47.6385724 133.127411,47.5754289 133.522148,47.4918665 C133.688475,47.4566566 133.848495,47.4195326 133.999038,47.3819894 L134.26607,47.3123887 L134.26607,47.3123887 L134.380168,47.2802213 L135.665867,46.8986005 L134.787114,50.4293062 L124.152856,51.3664247 L123.946196,51.2502581 L123.65879,51.0825725 L123.441737,50.949452 L123.200941,50.7962856 C122.741929,50.4990507 122.304114,50.1844537 121.91539,49.8601122 C120.615919,48.7758657 119.993818,47.7430546 120.678298,46.7223514 C120.849228,46.4651989 121.010187,46.2617489 121.179998,46.0947173 Z M182.44692,74.8962953 L182.597934,86.0864408 L179.366526,86.1300496 L179.215512,74.9399041 L182.44692,74.8962953 Z M187.647699,52.4690925 L189.138011,52.8140921 L189.09623,53.0338702 L189.049934,53.2452509 C189.023727,53.3601537 188.992958,53.4887918 188.95775,53.63079 C191.371341,53.8172937 197.582771,58.9966522 199.217937,61.7060858 C200.048839,63.0795185 200.170231,65.3791932 199.804596,67.7128412 C199.646686,68.7206968 199.405797,69.613947 199.102636,70.2371558 C198.846028,70.7646663 198.53916,71.1625757 198.026682,71.4178019 C197.127139,71.8657962 196.213454,71.5274039 195.677363,70.8025347 L195.573101,70.6552314 L195.521415,70.5929901 C195.357201,70.411223 195.040755,70.197108 193.971535,69.5509807 L192.743063,68.8141152 C191.473823,68.0556027 190.634998,67.4780896 189.936114,66.8092752 L189.814175,66.6902459 C189.458646,66.3299981 188.914546,65.9942959 188.230971,65.7067981 C187.661214,65.4671701 187.035927,65.277019 186.408661,65.1349743 C186.243285,65.0975248 186.087351,65.0656359 185.943524,65.0390037 L185.746587,65.004489 L185.641997,64.988366 L184.574385,68.4715161 C184.040294,70.2064809 183.470954,72.0459607 182.872672,73.9705994 L194.328102,73.9704862 L194.328102,86.0214121 L177.308812,86.0214121 L177.308686,75.1451242 L172.890086,87.9491895 L169.835177,86.8949464 L175.815335,69.5660774 L178.870244,70.6203205 L177.713907,73.9702345 L181.212778,73.9702345 L183.965892,64.7704549 L183.959766,64.7699419 L184.233006,63.0393812 L184.28098,62.7556163 C184.330809,62.4673743 184.389175,62.1470534 184.455723,61.8024315 C184.646286,60.8155951 184.865034,59.8276998 185.110273,58.8984626 C185.435802,57.6650015 185.783856,56.6251803 186.168404,55.8178908 C186.439233,55.249334 186.728992,54.7721307 187.066965,54.4095977 L187.647699,52.4690925 Z M180.754199,75.5030277 L178.841353,75.5030277 L178.841353,84.4883672 L192.795057,84.4883672 L192.795057,75.5030277 L182.395219,75.5030277 L181.416308,78.6347695 L179.957062,78.1666326 L180.754199,75.5030277 Z M141.843148,71.3030465 L141.843148,82.6613482 L91.8185405,82.6613482 L92.0545992,71.4354421 L141.843148,71.3030465 Z M89.9080603,49.594879 L93.1353378,49.7637033 L92.9911208,52.669591 L92.7127515,57.4451605 L89.4862276,57.2623687 L89.6635129,54.034815 L89.3008654,54.1916894 L89.3008654,54.1916894 L88.949784,54.3359033 C88.1539032,54.6532601 87.5205128,54.8350865 87.0354345,54.8491452 C85.7743356,54.8856948 85.3973789,53.8439358 86.0303185,52.7404032 L86.0796845,52.6575383 L86.8022805,53.1041116 L87.9913917,52.8829959 C88.1510448,52.8247074 88.3233864,52.7576226 88.5060415,52.6824198 L88.6405748,52.6263437 C88.8391102,52.5425979 89.0461337,52.4512203 89.2596927,52.353416 C89.429444,52.2756743 89.5998778,52.1954889 89.7694158,52.1138794 L89.9080603,49.594879 Z M172.751961,69.9195327 C175.465783,69.9195327 177.138921,73.1649786 177.138921,76.9039352 C177.138921,80.0381353 175.948763,82.8332977 173.952489,83.6355243 L195.746147,83.6391645 L191.445998,97.3633268 L191.443477,97.4001822 C191.384346,97.9831315 191.188044,98.6315006 190.775577,99.2696967 L190.676518,99.4167577 L190.56957,99.5632511 C189.649278,100.775269 188.14717,101.480344 186.110715,101.524572 L185.90529,101.526786 L58.0199223,101.524855 L56.2966338,101.516927 C53.497949,101.497596 51.5933434,101.4484 49.2516149,101.356815 L47.3847619,101.285133 L46.4236328,101.253438 C44.7708959,101.20327 43.2181639,101.180245 40.922803,101.173741 L40.2460501,101.172323 L22.4615546,101.172331 C21.3008499,101.186782 19.338193,100.291999 15.7353677,98.0166367 L14.8912462,97.4776665 L14.671204,97.3354092 C12.2866536,95.7992944 9.94584955,93.207368 7.64993398,89.8437744 C6.37115523,87.9703204 5.1853437,85.9709373 4.11921325,83.9723015 C3.79949934,83.3729455 3.51005038,82.8097842 3.25316662,82.2929317 L2.90940587,81.5883839 L2.76669294,81.285216 L1.65309665,78.8583111 L18.1347269,79.7068725 L28.6789635,80.2374744 L35.9444653,80.5977881 C37.1539806,80.6573887 38.362178,80.7167279 39.5681322,80.7757527 C39.4082101,80.2324288 39.3234445,79.6578628 39.3234445,79.063437 C39.3234445,75.6924119 42.0724355,72.962467 45.4546173,72.962467 C48.8242593,72.962467 51.5631381,75.694991 51.5631381,79.063437 C51.5631381,79.8656711 51.4090797,80.6319673 51.1290227,81.3342132 L53.3135355,81.4389855 L64.6625853,81.9694753 C85.6233331,82.931883 100.315091,83.499062 106.323269,83.5334854 L117.973195,83.5762802 L148.057509,83.6196245 L148.057509,83.6196245 L171.549314,83.6340468 C169.550813,82.8307821 168.3499,80.0326092 168.3499,76.9039352 C168.3499,73.1709464 170.038741,69.9195327 172.751961,69.9195327 Z M144.787923,-1.42108547e-14 L144.787294,26.2538029 L154.221332,26.2538029 L144.787294,31.4018739 L144.787672,37.2743093 L145.634724,37.4386489 L145.151914,39.9317013 L142.180756,41.601341 L141.951758,42.4802129 L141.682878,43.4880932 C141.458944,44.3624849 141.382724,45.0406381 141.410356,45.7472699 C141.424197,46.1012126 141.462315,46.4691652 141.535748,46.9639775 L141.615456,47.4695822 L141.926145,49.3165589 L141.97899,49.6516606 L141.97899,49.6516606 L142.029652,49.9854491 L142.072962,50.2821768 C142.356894,52.266106 142.544761,54.3712964 142.633944,56.9798513 L142.696195,59.0389661 L128.014341,59.0389661 L138.223592,31.0787037 L130.958045,26.2538029 L143.254501,26.2538029 L143.25513,-1.42108547e-14 L144.787923,-1.42108547e-14 Z M143.254878,39.2384994 L143.254501,37.2637383 L142.881502,38.8043471 L142.697384,39.5524696 L142.697384,39.5524696 L143.254878,39.2384994 Z" id="path-1"></path>
    </defs>
    <g id="Silhouettes/Gleaner" stroke="none" stroke-width="1" fill="none" fill-rule="evenodd">
        <mask id="mask-2" fill="white">
            <use xlink:href="#path-1"></use>
        </mask>
        <use fill="#3E5667" fill-rule="nonzero" xlink:href="#path-1"></use>
    </g>
</svg>