<?xml version="1.0" encoding="UTF-8"?>
<svg width="200px" height="68px" viewBox="0 0 200 68" version="1.1" xmlns="http://www.w3.org/2000/svg" xmlns:xlink="http://www.w3.org/1999/xlink">
    <title>Silhouettes/Grob Tutor</title>
    <defs>
        <path d="M11.4196939,3.55271368e-14 C15.0987763,3.55271368e-14 17.3689933,1.81229894 19.8211488,5.43689682 L20.1818689,5.97240172 C22.2878551,9.07573323 29.0883409,18.6886979 33.0933829,24.3380184 L36.1703088,28.6747454 C36.2219168,28.7450047 36.314094,28.8633544 36.4524298,29.0159829 L97.6572334,29.0162132 C97.8011644,28.9633684 97.9440946,28.9097052 98.0858491,28.85522 L98.1485133,29.016 L98.0896851,28.85905 L98.0896851,28.85905 C98.3802601,28.7470225 98.6686774,28.6328406 98.950082,28.5148886 L99.4586616,28.2965706 C100.76603,27.745186 102.793904,27.0863071 105.22076,26.40019 L105.466685,26.3311628 C113.131875,24.1887143 124.624179,21.8131738 130.39247,21.7628729 L130.576547,21.76206 C131.887752,21.76206 133.256022,21.8316964 134.652536,21.9709691 L135.072014,22.015 L135.51277,22.0650283 C136.104533,22.134539 136.697764,22.2152918 137.29833,22.3131434 L137.297173,22.30975 C137.841881,22.4055 138.375082,22.50891 138.915954,22.62381 L142.463191,34.2043333 L138.91979,22.62381 C144.298784,23.7606285 149.685239,26.1711746 153.626205,30.6524076 L153.79186,30.84299 L151.374402,33.2853333 L153.79186,30.84682 C153.803368,30.85831 153.814876,30.8698 153.826384,30.88512 L154.454784,30.9009807 C157.193189,30.9769928 168.439936,31.3600481 179.430998,32.7554436 L179.431509,32.75416 L179.453293,32.7582691 L179.453293,32.7582691 C182.554398,33.1523956 185.633938,33.6270186 188.495915,34.19807 L188.496093,34.4319511 C194.857446,34.4564183 200,36.2661593 200,38.4915 C200,40.687239 194.99335,42.4783615 188.749295,42.5491281 L188.495878,42.5506667 L188.495915,43.11431 L188.352835,43.2226752 C187.760733,43.6521661 185.255014,45.300688 179.437121,47.1288611 L179.435345,50.86623 L179.408199,50.9241387 C179.295565,51.1501019 178.823219,51.9676702 177.8204,52.12247 L177.754616,52.1307096 C177.013928,52.2089839 172.921397,52.2984936 168.123179,52.2572786 L168.123318,57.2689136 C168.569182,57.2443782 168.974468,57.23169 169.327554,57.23169 C173.416702,57.23169 176.730983,58.93987 176.730983,61.04254 C176.730983,62.370851 175.408328,63.54173 173.403223,64.2239855 C172.868887,65.9377363 171.264966,67.18203 169.36975,67.18203 C167.609667,67.18203 166.103005,66.108853 165.469668,64.5830841 L165.0256,64.5303316 C160.198095,63.9384701 154.10641,62.5985165 154.10641,61.04254 C154.10641,59.4280917 160.664535,58.0462071 165.564425,57.4915234 L165.564464,52.25652 L168.054022,52.256676 L166.886648,52.2438572 C166.297645,52.2361084 165.701691,52.2262956 165.103385,52.2141722 L165.150178,52.35993 L156.595957,55.08689 L156.051249,53.37105 L160.182812,52.0553561 L159.535436,52.023745 C157.929295,51.9414568 156.42002,51.8344642 155.11177,51.6971796 L154.414841,51.7682517 C146.582625,52.5536531 137.077632,53.06082 125.593617,53.06082 L124.784994,53.057 L125.427793,57.2342069 C129.345771,57.3069685 132.49057,58.9482313 132.562328,60.9718148 L132.563581,61.04254 C132.563581,62.3711445 131.23881,63.5422474 129.231833,64.2244377 C128.697442,65.9378971 127.093605,67.18203 125.198512,67.18203 C123.438301,67.18203 121.931548,66.1086969 121.298292,64.5827513 L120.854204,64.5300116 C116.026389,63.9382869 109.931336,62.5984101 109.931336,61.04254 C109.931336,59.3254495 117.35498,57.8714344 122.306599,57.3959113 L121.627651,52.995057 C107.565694,52.5440353 90.7789237,49.8388223 75.2087983,46.9224423 L65.932717,51.13433 L61.981664,50.10023 L67.7061933,45.487793 L65.2215134,45.0025206 C62.7552641,44.5190628 60.346312,44.0420881 58.0127097,43.5809538 L33.7196084,43.9230244 C24.8971252,44.0414287 16.8265628,44.1405426 14.2734349,44.1444598 L14.1240554,44.14458 C8.19363996,44.14458 6.93927654,43.06452 6.93927654,42.25639 C6.93927654,41.0959 13.2226016,40.37586 13.2226016,39.83966 L13.2223225,37.8176871 L12.7458541,37.7474164 C5.02672844,36.5911093 0.414285166,35.02918 0.414285166,35.02918 L0,3.55271368e-14 L11.4196939,3.55271368e-14 Z M109.453599,35.2835024 L109.662818,35.53857 C111.501725,37.8075013 114.702657,37.7820485 114.865598,37.7792515 L135.793471,37.77912 C137.15272,37.77912 137.973678,37.4242968 138.468535,36.9765858 L138.417652,37.0206079 C137.934592,37.4315948 137.160611,37.753911 135.922601,37.7742687 L135.797307,37.77529 L114.741656,37.7750052 C114.109633,37.7633223 111.327885,37.5925582 109.662818,35.53474 L109.523622,35.364284 C108.310632,33.893027 105.815717,31.1794322 105.310967,29.2799448 L105.28348,29.1695309 C105.708902,31.0404775 108.192346,33.764823 109.453599,35.2835024 L109.453599,35.2835024 Z" id="path-1"></path>
    </defs>
    <g id="Silhouettes/Grob-Tutor" stroke="none" stroke-width="1" fill="none" fill-rule="evenodd">
        <mask id="mask-2" fill="white">
            <use xlink:href="#path-1"></use>
        </mask>
        <use fill="#3E5667" xlink:href="#path-1"></use>
    </g>
</svg>