<?xml version="1.0" encoding="UTF-8"?>
<svg width="200px" height="68px" viewBox="0 0 200 68" version="1.1" xmlns="http://www.w3.org/2000/svg" xmlns:xlink="http://www.w3.org/1999/xlink">
    <title>Silhouettes/Grob Prefect</title>
    <defs>
        <path d="M11.4227919,7.10542736e-15 C15.1547051,7.10542736e-15 17.4417405,1.87008483 19.9310587,5.60199806 L20.0939111,5.84480538 C22.9669239,10.1065891 36.1219477,28.6457366 36.1219477,28.6457366 L36.1493983,28.685764 C36.1938498,28.7484903 36.2935526,28.8817455 36.4576726,29.0627639 L97.6750858,29.0629636 C97.8147093,29.0118343 97.9533953,28.9599423 98.0909851,28.9072846 L98.0906971,28.9058146 C98.404442,28.7869218 98.7102607,28.6653869 99.0081532,28.5369827 L99.2300865,28.4393254 C100.526348,27.8696307 102.644127,27.1719611 105.220137,26.4412657 L105.220137,28.6994035 C105.220137,30.6520528 108.386484,34.0041695 109.666233,35.589407 C110.089084,36.1131122 110.584104,36.5148749 111.097701,36.8230492 L111.164591,36.8623852 C110.628765,36.5500765 110.110568,36.1377725 109.670361,35.5935352 L109.489902,35.3731566 C108.11362,33.7111184 105.224266,30.5659065 105.224266,28.6994035 L105.224266,26.4412657 L105.45782,26.3755492 C113.127527,24.2261387 124.633392,21.8451399 130.402621,21.7977349 L130.575681,21.7970153 C132.020559,21.7970153 133.535616,21.883708 135.071315,22.0488369 L135.072416,22.0532403 L135.440867,22.0921832 C136.057043,22.1609869 136.67513,22.2469916 137.304683,22.3501971 L142.171858,39.094268 L142.175986,39.094268 L137.304683,22.3501971 C137.841352,22.4368898 138.38215,22.5442236 138.91469,22.6598138 L143.608479,38.0168019 L146.754185,38.0168019 L153.796933,30.8914897 C153.805189,30.9038743 153.817574,30.916259 153.829959,30.9327719 L154.655398,30.9542011 C158.582104,31.0677549 175.710199,31.6943464 188.490515,34.2518629 L188.490474,34.4873819 C194.858846,34.5097763 200,36.3175531 200,38.5493426 C200,40.7726381 194.897905,42.5791884 188.563133,42.6150971 L188.49024,42.6150914 L188.490515,43.1770801 L188.388164,43.2558113 C187.878448,43.6337758 185.397151,45.3212298 179.43909,47.1979304 L179.437323,50.946395 L179.41175,51.001498 C179.302295,51.2235915 178.832163,52.0486305 177.823188,52.2055029 L177.742321,52.2151489 C176.961992,52.2920443 172.890082,52.3796025 168.12209,52.3382805 L168.122006,57.3618709 L168.449005,57.3456395 C168.767995,57.3316646 169.062406,57.3244989 169.327306,57.3244989 C173.418375,57.3244989 176.737466,59.0335831 176.737466,61.1389766 C176.737466,62.4661551 175.41338,63.6368807 173.407,64.319336 C172.87307,66.0389917 171.268166,67.2859001 169.368588,67.2859001 C167.613446,67.2859001 166.105496,66.2100277 165.472305,64.6787385 L165.02832,64.6259917 C160.20158,64.0341818 154.106549,62.6939657 154.106549,61.1389766 C154.106549,59.5228983 160.664094,58.140323 165.562399,57.5849653 L165.562367,52.337606 L168.066192,52.3377905 C167.099476,52.3292175 166.104626,52.3153362 165.103201,52.2949874 L165.149545,52.4408116 L156.599996,55.1695667 L156.050942,53.4522261 L160.178257,52.1357168 C158.330324,52.0496427 156.589207,51.9327717 155.106678,51.7769438 L154.225782,51.866545 C146.431018,52.6426641 136.987723,53.1426094 125.597044,53.1426094 L124.78406,53.1390317 L125.428464,57.327041 C129.356145,57.4002686 132.496534,59.0464065 132.560365,61.075935 L132.561356,61.1389766 C132.561356,62.466286 131.240303,63.6371115 129.234977,64.3195379 C128.701062,66.0391244 127.096856,67.2859001 125.200735,67.2859001 C123.442475,67.2859001 121.933762,66.2100277 121.300383,64.6787385 L120.856394,64.6259917 C116.029598,64.0341818 109.934568,62.6939657 109.934568,61.1389766 C109.934568,59.4190638 117.361839,57.9636236 122.311851,57.4883207 L121.633035,53.0768268 C107.802415,52.6328633 91.3364625,50.0053235 75.9850945,47.1404638 L75.2120874,46.995686 L65.9359713,51.2147295 L61.9852622,50.1826738 L67.7094557,45.559111 L64.868755,45.003204 C62.5218455,44.5420407 60.2278772,44.087193 58.0025164,43.6467919 L33.7098072,43.9906482 C24.7114725,44.1120594 16.4980844,44.213264 14.1267777,44.213264 L13.7764277,44.2119769 C8.14482465,44.1701108 6.93954218,43.1155696 6.93954218,42.3266663 C6.93954218,41.1583793 13.2268252,40.4400685 13.2268252,39.8992714 L13.2265634,37.8766859 C5.22107431,36.7117584 0.421078705,35.0816356 0.421078705,35.0816356 L0.0495386711,3.67411811 L0,7.10542736e-15 L11.4227919,7.10542736e-15 Z M138.918819,22.6598138 C144.376329,23.8157161 149.842095,26.280265 153.792805,30.8914897 L146.754185,38.0126736 L143.608479,38.0126736 L138.918819,22.6598138 Z" id="path-1"></path>
    </defs>
    <g id="Silhouettes/Grob-Prefect" stroke="none" stroke-width="1" fill="none" fill-rule="evenodd">
        <mask id="mask-2" fill="white">
            <use xlink:href="#path-1"></use>
        </mask>
        <use fill="#3E5667" xlink:href="#path-1"></use>
    </g>
</svg>