<?xml version="1.0" encoding="UTF-8"?>
<svg width="200px" height="56px" viewBox="0 0 200 56" version="1.1" xmlns="http://www.w3.org/2000/svg" xmlns:xlink="http://www.w3.org/1999/xlink">
    <title>Silhouettes/HAWK T1</title>
    <defs>
        <path d="M2.64815287,3.90798505e-14 L9.96414519,3.90798505e-14 C12.4050116,3.90798505e-14 17.9283095,1.52826013 22.9872947,6.40130949 L23.4594123,6.8606059 C26.6104723,9.91553098 33.1495464,15.8883887 38.0694826,20.3513787 L44.3147199,25.994719 C44.4537821,26.1041901 47.3932902,28.3739198 51.8726416,28.2248733 L51.8723145,29.1333333 L80.7551012,25.9872295 C80.9050613,25.9604495 84.2649725,25.363427 89.6144431,24.6715549 L88.0900265,21.36449 L90.1285133,21.36449 L92.2610015,24.34266 L92.5211582,24.3113912 C96.9785028,23.7830272 102.4212,23.2470759 108.347152,22.8991256 L108.815986,22.87205 L109.56586,24.7233333 L108.815986,22.8695867 C109.206763,22.8474167 109.60224,22.8270942 110.000403,22.8073875 L111.200935,22.7488833 L111.201662,22.7513333 L111.994813,22.715597 C114.64844,22.6004989 117.374339,22.5267414 120.130547,22.5142822 L121.101183,22.5124582 L121.33633,22.512788 C121.667557,22.513463 121.999146,22.5150296 122.331028,22.5175141 L123.405743,22.5287882 L124.421961,22.5454915 L124.874415,22.5548589 L125.643201,22.5735565 L126.567776,22.6007697 L127.747462,22.6431854 L128.862001,22.6914283 L129.353354,22.7152866 L130.161081,22.7580352 L130.72458,22.7905066 L131.537149,22.8412516 L132.383472,22.8991467 C132.568789,22.9139267 132.754106,22.9188533 132.936737,22.9360967 C133.472545,22.9767417 134.009863,23.027086 134.54756,23.0860906 L135.08534,23.1479433 C143.27109,24.1418788 151.550482,27.1971048 158.190478,30.2615708 L158.510481,30.40985 C159.11209,30.6896847 159.698229,30.9695193 160.267523,31.2443091 L160.691313,31.4493767 L161.134482,31.6681768 C165.606587,33.8873389 169.051136,35.9359081 170.780134,37.0127788 L171.715992,37.6018091 L172.019821,37.79985 L172.24811,37.86636 L170.687687,39.5340367 L172.250796,37.86636 L175.369683,38.7701758 C187.077684,42.1785176 195.854593,44.9495272 198.866612,47.4265567 C199.310542,47.7924161 199.629248,48.152091 199.8135,48.5055816 L199.861844,48.6052725 C199.88123,48.6480846 199.898582,48.6908617 199.913903,48.7335659 L199.935359,48.797563 C199.940557,48.8143362 199.945513,48.8312227 199.950148,48.8480948 C199.983276,48.9687247 200,49.0885034 200,49.2075467 C200,49.6267871 199.716923,50.0756348 198.95976,50.5146718 L198.866612,50.5673067 L198.791422,50.6079934 L198.634271,50.6883429 C195.97662,51.9982185 188.832669,53.17844 172.132623,53.17844 L169.911147,53.1762698 C144.619133,53.1302342 69.2572112,52.3602293 40.8758131,51.672633 L40.0042972,51.6511733 C38.6703841,51.6178956 37.3765062,51.58106 36.1218355,51.5410719 L34.8718224,55.3634167 L22.7993608,53.17844 L22.1655252,50.8902274 L21.127296,50.8227009 C20.6156701,50.7886578 20.1152444,50.754211 19.6258715,50.7194328 L17.9623189,52.5404367 L17.05722,52.5404367 L17.8396745,50.5874042 L17.5526595,50.5652108 C16.4459915,51.2434943 14.4250089,51.97387 13.7940296,51.97387 C13.2246498,51.97387 11.4544399,50.7312552 10.3375644,49.9028453 L9.36538918,49.795355 C4.90672791,49.2904187 2.46793772,48.8451952 1.61131029,48.6738828 L1.25424685,48.5991033 L1.25424685,34.6467833 L1.60947499,34.608 L10.5576967,30.7621067 L2.64815287,3.90798505e-14 Z M1.0957874,37.8762133 L1.0957874,47.5127733 L0,47.5127733 L0,37.8762133 L1.0957874,37.8762133 Z M158.991231,53.17844 L158.016303,53.9740967 L153.839956,53.9740967 L152.975143,53.17844 L158.991231,53.17844 Z M187.288329,40.24594 L188.228343,42.70681 L186.06094,41.9998333 L186.06094,40.24594 L187.288329,40.24594 Z" id="path-1"></path>
    </defs>
    <g id="Silhouettes/HAWK-T1" stroke="none" stroke-width="1" fill="none" fill-rule="evenodd">
        <mask id="mask-2" fill="white">
            <use xlink:href="#path-1"></use>
        </mask>
        <use fill="#3E5667" xlink:href="#path-1"></use>
    </g>
</svg>