<?xml version="1.0" encoding="UTF-8"?>
<svg width="200px" height="72px" viewBox="0 0 200 72" version="1.1" xmlns="http://www.w3.org/2000/svg" xmlns:xlink="http://www.w3.org/1999/xlink">
    <title>Silhouettes/HMS Protector</title>
    <defs>
        <path d="M68.4212865,-5.68434189e-14 C68.4858784,-5.68434189e-14 68.5392596,0.0479985581 68.5477079,0.110273438 L68.5488726,0.127586119 L68.5488068,2.97376836 C68.7743661,2.80873232 69.0524308,2.71129008 69.3531755,2.71129008 C70.0927581,2.71129008 70.6948258,3.30010908 70.716871,4.03456584 L70.7174964,4.07629143 L70.7174964,4.82887942 C70.7174964,4.84989847 70.7124137,4.86973038 70.7034102,4.88721311 C70.6995479,4.91769416 70.6844803,4.94729326 70.6563819,4.96914375 L70.6412383,4.97939148 L70.0605999,5.3203484 L70.0635761,5.33594539 L70.0645957,5.35215262 L70.064459,11.7651079 L70.32283,11.7651413 C70.3780848,11.7651413 70.426288,11.8005591 70.4436262,11.851632 L70.4482298,11.8692091 L70.6183446,12.7762613 C70.6273586,12.8243236 70.608286,12.8701621 70.5738119,12.8984916 L70.3573234,14.2994853 L71.9508289,14.2995119 C72.0212928,14.2995119 72.078415,14.3566342 72.078415,14.4270981 C72.078415,14.4916899 72.0304164,14.5450712 71.9681416,14.5535195 L71.9510658,14.5546575 L71.9510658,15.1068636 L71.9661181,15.1082473 C72.0057972,15.1154493 72.0358863,15.1501779 72.0358863,15.1919343 C72.0358863,15.2336907 72.0057972,15.2684194 71.9661181,15.2756213 L71.9510658,15.2769784 L71.9510658,15.8720467 L71.9661181,15.8734238 C72.0057972,15.8806257 72.0358863,15.9153544 72.0358863,15.9571108 C72.0358863,15.9988672 72.0057972,16.0335958 71.9661181,16.0407978 L71.9510658,16.0421615 L71.9511691,16.7501861 C71.9511691,16.7788568 71.9369837,16.8042144 71.9152485,16.8196232 C71.9395356,16.8388579 71.9565586,16.867019 71.9615582,16.8991932 L71.9630772,16.91894 L71.9630772,17.6466912 C71.9630772,17.7112831 71.9150786,17.7646643 71.8528037,17.7731126 L71.835491,17.7742773 L71.2991258,17.7741639 L70.9285423,19.8877572 L70.9397072,19.890436 C70.9997541,19.9089805 71.0383508,19.9695091 71.0277604,20.0332268 C71.01717,20.0969446 70.9610687,20.1417336 70.8982514,20.1398571 L70.8845126,20.1384264 L70.561628,21.9801696 L70.5791878,21.9832838 C70.6486981,21.994837 70.6956816,22.0605519 70.6841285,22.1300622 C70.6735381,22.1937799 70.6174367,22.238569 70.5546194,22.2366925 L70.5373501,22.2350028 L70.5174315,22.2315059 L70.0494489,24.9006409 L70.3799886,24.9007276 C70.4445805,24.9007276 70.4979617,24.9487261 70.50641,25.011001 L70.5075747,25.0283137 L70.5075747,25.6499133 C70.5075747,25.7132057 70.4614201,25.7659709 70.400566,25.7758429 L70.3836286,25.7774475 L68.5406804,25.8299348 L68.5407071,29.3434463 C68.5407071,29.3786783 68.5264265,29.4105748 68.503338,29.4336634 L68.5032819,31.1112796 C68.5032819,31.1510346 68.4850993,31.1865428 68.4565966,31.2099418 L67.7747469,33.529632 L68.2436866,33.529632 C68.3141505,33.529632 68.3712727,33.5867542 68.3712727,33.6572181 C68.3712727,33.72181 68.3232742,33.7751912 68.2609993,33.7836395 L68.2436866,33.7848042 L68.2245505,33.7848042 L68.2245505,34.3368435 L68.2436866,34.3369969 C68.2906625,34.3369969 68.328744,34.3750784 68.328744,34.4220543 C68.328744,34.4638107 68.298655,34.4985394 68.2589758,34.5057414 L68.2436866,34.5071117 L68.2245505,34.5069583 L68.2245505,35.1020266 L68.2436866,35.1021734 C68.2906625,35.1021734 68.328744,35.1402549 68.328744,35.1872308 C68.328744,35.2289872 68.298655,35.2637159 68.2589758,35.2709178 L68.2436866,35.2722882 L68.2245505,35.2721415 L68.2247776,35.7935884 C68.2472984,35.8133777 68.262789,35.8409759 68.2670185,35.8721521 L68.2681832,35.8894648 L68.2681832,36.4518644 C68.2681832,36.5164563 68.2201846,36.5698375 68.1579097,36.5782858 L68.140597,36.5794505 L64.5589095,36.5793571 L64.5589095,39.6050661 L69.1919067,39.6051128 C69.2623705,39.6051128 69.3194928,39.6622351 69.3194928,39.7326989 C69.3194928,39.7972908 69.2714942,39.850672 69.2092193,39.8591203 L69.1919067,39.860285 L69.1726904,39.8602383 L69.1726904,40.4124444 L69.1919067,40.4124778 C69.2388826,40.4124778 69.2769641,40.4505593 69.2769641,40.4975352 C69.2769641,40.5392915 69.246875,40.5740202 69.2071958,40.5812222 L69.1919067,40.5825926 L69.1726904,40.5825592 L69.1726904,41.1776276 L69.1919067,41.1776542 C69.2388826,41.1776542 69.2769641,41.2157357 69.2769641,41.2627117 C69.2769641,41.304468 69.246875,41.3391967 69.2071958,41.3463987 L69.1919067,41.3477691 L69.1726904,41.3477424 L69.1729556,42.046822 C69.1861045,42.0613716 69.1959471,42.0789662 69.2012986,42.0984212 L69.2046914,42.115026 L69.2058561,42.1323386 L69.2058561,42.6491475 C69.2058561,42.7137394 69.1578575,42.7671206 69.0955826,42.7755689 L69.07827,42.7767336 L66.0958169,42.7767336 C65.6410502,42.7767336 64.770485,44.0501782 64.741105,44.6095061 L64.7403419,44.6377898 L64.7401986,45.4793645 L69.2225273,45.4795179 C69.2567136,45.4795179 69.2877595,45.4929634 69.3106654,45.5148546 L72.1474816,45.5149018 C72.189238,45.5149018 72.2239667,45.5449909 72.2311686,45.5846701 L72.232539,45.5999592 L72.232539,46.5110942 C72.232539,46.5528506 72.20245,46.5875793 72.1627708,46.5947813 L72.1474816,46.5961516 L69.5283471,46.5961183 L69.5283471,51.1476905 L69.613488,51.5202753 L70.2480468,51.5203114 C70.3419216,51.227443 70.610238,51.0123615 70.9307205,50.9975028 L70.9662043,50.9966819 C71.3020179,50.9966819 71.5867332,51.2167352 71.6840293,51.5203337 L71.7242748,51.5202919 C71.8215202,51.216663 72.1061216,50.9966819 72.4421205,50.9966819 C72.8584157,50.9966819 73.1960694,51.3343356 73.1960694,51.7502906 C73.1960694,51.9421712 73.124654,52.1172913 73.0069746,52.2504603 L73.0067784,52.3276536 L73.0259546,52.3276603 C73.0729305,52.3276603 73.111012,52.3657418 73.111012,52.4127177 L73.1096812,52.4265537 L75.1197278,52.4266671 C75.1901917,52.4266671 75.247314,52.4837894 75.247314,52.5542533 C75.247314,52.6188451 75.1993154,52.6722264 75.1370405,52.6806747 L75.1197278,52.6818394 L75.100525,52.681726 L75.100525,53.233932 L75.1197278,53.2340321 C75.1667038,53.2340321 75.2047853,53.2721136 75.2047853,53.3190895 C75.2047853,53.3608459 75.1746962,53.3955746 75.135017,53.4027765 L75.1197278,53.4041469 L75.100525,53.4040469 L75.100525,53.9991152 L75.1197278,53.9992086 C75.1667038,53.9992086 75.2047853,54.0372901 75.2047853,54.084266 C75.2047853,54.1260224 75.1746962,54.1607511 75.135017,54.167953 L75.1197278,54.1693234 L75.100525,54.16923 L75.1007448,54.7974432 C75.1273111,54.8078582 75.1473974,54.8312566 75.1531198,54.8599102 L75.1547546,54.8749647 L75.1843718,56.3590465 C75.1852009,56.4013844 75.1549912,56.4370009 75.1148088,56.444393 L75.0993141,56.4458 L72.9514077,56.4457666 L72.9514077,57.6699263 L110.88201,57.6699263 L114.03061,53.1955818 C114.025751,53.1847211 114.022366,53.173057 114.020709,53.1608437 L114.019545,53.143531 L114.019461,49.4423728 L107.707868,44.2607086 L107.692762,44.2450419 C107.678925,44.2279534 107.670868,44.2101439 107.667072,44.1918321 L106.891546,37.4394769 C106.883518,37.3695698 106.93336,37.307607 107.001032,37.298488 L107.018299,37.2973351 L110.125314,37.2975436 L110.13931,37.2991482 L110.700436,37.4081384 C110.791385,37.349216 110.891685,37.3167282 110.998646,37.3167282 C111.175639,37.3167282 111.334445,37.4058091 111.462818,37.556465 L114.015792,38.0528517 L114.015792,31.4952588 L110.954416,31.4953989 C110.889824,31.4953989 110.836443,31.4474003 110.827994,31.3851254 L110.82683,31.3678128 L110.826882,30.7212507 C110.79355,30.7019216 110.769774,30.6679369 110.764371,30.6281145 L110.763207,30.6108018 L110.763028,26.542054 C109.970639,25.8504909 109.488065,24.864013 109.44818,23.7929539 L109.446148,23.7197986 L109.445497,23.6486825 C109.445497,22.4921387 109.955644,21.454758 110.763161,20.7493145 L110.763097,13.954419 L110.103842,13.9545191 L110.103842,13.4652688 L111.677063,13.4652688 L111.677063,13.9545191 L111.018269,13.954419 L111.018412,20.5446991 C111.639757,20.0884292 112.403124,19.8142661 113.229862,19.8008605 L113.293495,19.8003449 C115.418933,19.8003449 117.141832,21.5232436 117.141832,23.6486825 C117.141832,24.8591352 116.575728,25.9752927 115.632242,26.6992468 L115.610702,26.7153658 L115.610799,27.6548866 C115.610799,27.6772801 115.602145,27.6976525 115.587999,27.7128418 L115.589364,27.7321187 L115.589364,28.1148771 C115.589364,28.1293407 115.586957,28.1432422 115.582523,28.156203 L120.651271,28.1560048 L120.819037,8.12839507 C120.819387,8.08664017 120.849765,8.05216455 120.889503,8.04529495 L120.904803,8.04405258 C120.946558,8.04440209 120.981034,8.0747808 120.987904,8.11451884 L120.989146,8.12981896 L120.821164,28.2095089 C120.836102,28.2304014 120.844892,28.2559897 120.844892,28.283631 C120.844892,28.3120485 120.835601,28.3382961 120.819891,28.359502 L120.814693,28.9748365 C120.840072,28.9895549 120.85714,29.0170178 120.85714,29.0484672 C120.85714,29.0803792 120.839566,29.1081864 120.813568,29.1227391 L120.802052,30.4857739 C120.854452,30.4964234 120.895184,30.5391876 120.902806,30.5926239 L120.904092,30.6108018 L120.904092,31.3678128 C120.904092,31.4324046 120.856093,31.4857859 120.793818,31.4942342 L120.776505,31.4953989 L118.774004,31.4952588 L119.762004,35.2055965 L122.390989,35.2056448 C122.575058,33.4845283 123.746241,32.2937339 123.800467,32.2398214 L124.281551,32.7209061 L124.764677,33.1999494 L124.726426,33.2413487 C124.538967,33.4501274 123.727657,34.424814 123.727657,35.6581086 L123.727514,37.4507787 L124.622451,37.4507787 L124.622461,36.5073218 C124.622461,35.56656 125.401773,34.6360406 125.771559,34.2476782 L125.771417,33.3595171 L126.621991,33.3595171 L126.621991,35.7006374 L125.771417,35.7006374 L125.771382,35.6373834 C125.600525,35.923586 125.473036,36.2312835 125.473036,36.5073218 L125.473026,37.4507787 L127.872145,37.4507787 L127.876078,36.9829629 C127.883165,36.1024549 128.661926,35.2459729 129.042281,34.8797277 L129.048849,34.0794431 L129.899423,34.0865879 L129.881391,36.2524898 L129.030817,36.2450048 L129.031144,36.207784 C128.858861,36.4670198 128.728589,36.7448786 128.726652,36.9897675 L128.722719,37.4507787 L129.826274,37.4507787 C129.876133,37.4507787 129.920794,37.4797241 129.941624,37.5238289 L129.948282,37.5410518 L133.511618,49.1923707 L135.432592,49.1925973 L135.372461,49.1481325 C134.978805,48.8539978 134.638991,48.5388488 134.353566,48.2234173 C134.270096,48.1311718 134.196247,48.0442893 134.132065,47.9642625 L134.086815,47.9068893 C133.814595,47.8024294 133.673931,47.6370115 133.673931,47.3844637 C133.673931,47.089447 133.94943,46.9220019 134.392621,46.8285495 C134.539974,46.7974781 134.699972,46.7764419 134.864383,46.7635266 C134.900923,46.7606562 134.935989,46.7583063 134.96932,46.7564143 L135.06385,46.7520491 L135.146409,46.7500554 L135.271973,46.7498887 L135.543333,46.3933656 C135.559554,46.3720409 135.581962,46.3565024 135.607248,46.3486967 L135.626701,46.3443227 L138.668355,45.9064471 C138.724083,45.8984244 138.777649,45.9278326 138.801464,45.9773064 L138.808263,45.9945171 L139.045353,46.7498887 L142.258355,46.7498887 L144.085922,43.1257759 L144.085979,42.4375246 C144.085979,42.3957683 144.116068,42.3610396 144.155747,42.3538376 L144.171036,42.3524672 L144.654843,42.3524672 C144.696599,42.3524672 144.731328,42.3825563 144.73853,42.4222355 L144.7399,42.4375246 L144.739864,43.2440223 L146.571433,46.7498887 L149.747399,46.7499354 C149.814444,46.7499354 149.869004,46.8015243 149.874624,46.8665341 L149.874989,46.883044 L149.845977,47.5480942 L149.884137,48.2878346 L149.887816,48.3672644 L149.887816,48.3672644 L154.960929,49.3818319 L156.559508,47.3521286 L153.67229,47.3521419 L153.672059,45.8094206 L153.65834,45.8095407 L153.658217,45.1721571 L147.737664,45.1722906 L147.737664,44.5939002 L200,44.5939002 L200,45.1722906 L196.156736,45.1721571 L196.156766,47.3521419 L193.049472,47.3521286 L193.009298,47.3826936 L192.987597,47.3663048 L191.34849,48.7877643 L192.821495,48.787911 L192.821495,49.5520668 L190.637844,49.5519468 L190.637844,50.7067262 L192.619738,50.7068063 C192.690202,50.7068063 192.747325,50.7639285 192.747325,50.8343924 C192.747325,50.8989843 192.699326,50.9523655 192.637051,50.9608138 L192.619738,50.9619785 L192.600669,50.9618985 L192.600669,51.5141045 L192.619738,51.5141712 C192.666714,51.5141712 192.704796,51.5522527 192.704796,51.5992286 C192.704796,51.640985 192.674707,51.6757137 192.635028,51.6829157 L192.619738,51.6842861 L192.600669,51.6842193 L192.600669,52.2792877 L192.619738,52.2793477 C192.666714,52.2793477 192.704796,52.3174292 192.704796,52.3644051 C192.704796,52.4061615 192.674707,52.4408902 192.635028,52.4480921 L192.619738,52.4494625 L192.600669,52.4494025 L192.600866,53.0985865 C192.632234,53.1107784 192.654612,53.1410495 192.655114,53.1766963 L192.681942,54.9700368 L192.719956,57.3060205 L192.768487,59.9653382 L192.799523,61.4527823 L192.799523,61.4527823 L192.825209,62.5320293 L192.827499,62.6439094 C192.849556,64.0907957 192.572004,65.2433158 192.093752,66.1294459 C191.932106,66.4289515 191.758547,66.6758962 191.58452,66.8736146 C191.523189,66.9432945 191.466025,67.0019379 191.414453,67.0499697 L191.364313,67.0947892 L191.351044,67.1055293 L186.332658,71.6135708 C186.32095,71.6240888 186.306635,71.6310821 186.291356,71.6339214 L186.275816,71.6353527 L13.0138674,71.6353527 L12.9853447,71.6304278 L12.7283025,71.5378224 C10.6098884,70.7652807 9.08029433,69.9725611 8.04331942,69.2026574 L7.97003188,69.1476749 C7.94708636,69.1303252 7.93656577,69.1086261 7.93512409,69.0870259 L7.86178705,69.0318087 C7.68613132,68.8989869 7.5310202,68.770911 7.39516873,68.6481752 C7.39046571,68.646786 7.38590665,68.644966 7.3815308,68.6427647 L7.37025471,68.6359496 L7.36008197,68.627391 L7.33469608,68.6023943 C7.22251004,68.4907335 7.13384101,68.3907593 7.06613934,68.3037201 C7.03146789,68.2591455 7.00780773,68.2252841 6.99114287,68.1978676 L6.98195127,68.182157 L0.00724345249,52.2764208 C-0.0147976589,52.2261564 0.0158245781,52.1699934 0.0671609074,52.15909 L0.0816512931,52.1572769 L4.56374712,51.9732478 L5.20784632,49.5833509 C5.21660096,49.5508641 5.24347391,49.5270519 5.27581535,49.5216065 L5.28997389,49.5204255 L6.16607858,49.5204255 L6.80325876,47.1146349 L5.17652031,46.5385361 C5.1474102,46.5282262 5.12657447,46.5031547 5.12121549,46.4735131 L5.11985907,46.4583586 L5.11985907,46.2031864 C5.11985907,46.1636757 5.14679885,46.130457 5.18331198,46.120897 L5.18348201,45.8629568 C5.18348201,45.8212004 5.2135711,45.7864717 5.25325025,45.7792697 L5.26853943,45.7778993 L5.46001876,45.7778993 L5.46001876,45.2673881 L4.92830978,45.2675549 C4.88655341,45.2675549 4.85182473,45.2374658 4.84462275,45.1977866 L4.84325236,45.1824975 L4.84325236,44.4595094 C4.84325236,44.4177531 4.87334145,44.3830244 4.9130206,44.3758224 L4.92830978,44.374452 L6.41681449,44.374452 C6.45857086,44.374452 6.49329954,44.4045411 6.50050152,44.4442203 L6.50187191,44.4595094 L6.50187191,45.1824975 C6.50187191,45.2242538 6.47178282,45.2589825 6.43210367,45.2661845 L6.41681449,45.2675549 L5.88530582,45.2673881 L5.88530582,45.7778993 L6.07658484,45.7778993 C6.11834121,45.7778993 6.15306989,45.8079884 6.16027187,45.8476676 L6.16164226,45.8629568 L6.16149224,46.1179622 L7.06143302,46.1179622 L7.20392773,43.8163308 C7.20608427,43.7814456 7.22905794,43.7525465 7.26030562,43.7414252 L7.27416749,43.7377818 L7.28882308,43.7365214 L7.62898277,43.7363547 L7.62905273,33.1468736 C7.62905273,33.1051172 7.65914182,33.0703886 7.69882097,33.0631866 L7.71411015,33.0618162 L8.18192591,33.0618162 C8.22368228,33.0618162 8.25841096,33.0919053 8.26561294,33.1315844 L8.26698333,33.1468736 L8.26691337,33.2934726 L10.1811153,33.2935126 C10.2515792,33.2935126 10.3087015,33.3506348 10.3087015,33.4210987 C10.3087015,33.4676396 10.2837818,33.5083603 10.2465574,33.5306456 L10.2465574,36.3970945 C10.2837818,36.4193798 10.3087015,36.4601004 10.3087015,36.5066414 C10.3087015,36.5531823 10.2837818,36.593903 10.2465574,36.6161883 L10.2465574,39.3315752 C10.2837818,39.3538605 10.3087015,39.3945812 10.3087015,39.4411221 C10.3087015,39.4876631 10.2837818,39.5283837 10.2465574,39.550669 L10.2465574,41.1177809 C10.2837818,41.1400662 10.3087015,41.1807868 10.3087015,41.2273278 C10.3087015,41.2738687 10.2837818,41.3145894 10.2465574,41.3368747 L10.2465574,43.5844458 C10.2837818,43.6067311 10.3087015,43.6474518 10.3087015,43.6939927 C10.3087015,43.7405337 10.2837818,43.7812543 10.2465574,43.8035396 L10.2465574,45.4982376 C10.2837818,45.5205229 10.3087015,45.5612436 10.3087015,45.6077845 C10.3087015,45.6723764 10.2607029,45.7257576 10.198428,45.7342059 L10.1811153,45.7353706 L8.81978655,45.7353706 L8.81961977,47.6916911 L10.2658325,47.6916911 C10.3362964,47.6916911 10.3934186,47.7488134 10.3934186,47.8192772 C10.3934186,47.8838691 10.3454201,47.9372503 10.2831452,47.9456986 L10.2658325,47.9468634 L10.2232339,47.9466966 L10.2233841,48.6131061 C10.2368741,48.6281591 10.2450785,48.6480471 10.2450785,48.6698514 C10.2450785,48.6916556 10.2368741,48.7115436 10.2233841,48.7265967 L10.2233038,49.4789175 C10.2233038,49.5040891 10.2123696,49.526707 10.1949917,49.5422805 C10.2053225,49.5514182 10.2133761,49.5631358 10.218209,49.576422 L10.2219334,49.5901937 L10.2233038,49.6054829 L10.2232339,51.7405907 L18.7092193,51.3917604 L18.7113355,51.392079 L18.9559031,51.1305407 L19.3480198,50.7042352 C19.38924,50.6591263 19.4315415,50.6127588 19.4749022,50.5651583 L22.2007824,42.3544565 C22.2062509,42.3379842 22.2148565,42.3232026 22.2258032,42.310686 L22.2258354,41.6259302 L22.2068725,41.6260769 C22.1598966,41.6260769 22.1218151,41.5879954 22.1218151,41.5410195 C22.1218151,41.4992631 22.1519042,41.4645345 22.1915833,41.4573325 L22.2068725,41.4559621 L22.2258354,41.4558153 L22.2258354,40.860747 L22.2068725,40.8609004 C22.1598966,40.8609004 22.1218151,40.8228189 22.1218151,40.775843 C22.1218151,40.7340867 22.1519042,40.699358 22.1915833,40.692156 L22.2068725,40.6907856 L22.2258354,40.6906322 L22.2258354,40.1384261 L22.2068725,40.1385929 C22.1364087,40.1385929 22.0792864,40.0814706 22.0792864,40.0110068 C22.0792864,39.9464149 22.127285,39.8930337 22.1895598,39.8845854 L22.2068725,39.8834207 L23.9566704,39.8834207 L23.9566704,39.4863193 L23.4248947,39.4863727 C23.3831383,39.4863727 23.3484096,39.4562836 23.3412076,39.4166044 L23.3398373,39.4013152 L23.3398373,38.4694262 C23.3398373,38.4276699 23.3699263,38.3929412 23.4096055,38.3857392 L23.4248947,38.3843688 L24.9133994,38.3843688 C24.9551558,38.3843688 24.9898844,38.4144579 24.9970864,38.4541371 L24.9984568,38.4694262 L24.9984568,39.4013152 C24.9984568,39.4430716 24.9683677,39.4778003 24.9286886,39.4850023 L24.9133994,39.4863727 L24.3819574,39.4863193 L24.3819574,39.8834207 L25.3361015,39.8834207 L26.5021925,36.4157794 L26.5022134,35.6046299 C26.4823632,35.5890589 26.4696098,35.5648525 26.4696098,35.5376673 C26.4696098,35.5104822 26.4823632,35.4862758 26.5022134,35.4707048 L26.5022134,34.8394535 C26.4823632,34.8238824 26.4696098,34.799676 26.4696098,34.7724909 C26.4696098,34.7453057 26.4823632,34.7210993 26.5022134,34.7055283 L26.5022465,34.1240089 C26.4579272,34.1040106 26.4270811,34.0594349 26.4270811,34.0076546 C26.4270811,33.9430627 26.4750797,33.8896815 26.5373545,33.8812332 L26.5546672,33.8800685 L31.0067624,33.8800351 L29.759754,31.2387523 L29.4340307,31.2388657 C29.3329253,31.2388657 29.2742758,31.1283556 29.3244928,31.0457227 L29.3344982,31.031458 L31.1669751,28.7464756 C31.1871543,28.7213135 31.2159428,28.7049185 31.2473772,28.7001524 L31.2665076,28.6987112 L39.9082708,28.6987045 L39.9082708,20.2715163 L38.313894,19.4030629 C38.2702929,19.3793123 38.2493994,19.3396087 38.247309,19.2992823 C38.2377683,19.28448 38.2312645,19.2675508 38.2286089,19.2493683 L38.227266,19.2308005 L38.227266,18.102599 C38.227266,17.0086104 39.113982,16.1217819 40.2080831,16.1217819 C41.2850721,16.1217819 42.161229,16.9815878 42.1879327,18.0522593 L42.1885598,18.102599 L42.1885598,19.2308005 C42.1885598,19.2563183 42.1810685,19.2800863 42.1681652,19.3000255 C42.1662611,19.3331746 42.1514713,19.3660109 42.1214625,19.3898835 L42.1051791,19.4010329 L40.6931339,20.2303218 L40.6931339,22.3999529 L43.2885223,22.4000397 C43.3999773,22.4000397 43.4553035,22.5309118 43.3853733,22.610822 L43.3732807,22.6229894 L40.6931339,25.0048779 L40.6931339,28.6987045 L43.7218449,28.6987045 L43.7219749,19.5172738 C43.7219749,19.4702979 43.7600564,19.4322164 43.8070323,19.4322164 C43.8487886,19.4322164 43.8835173,19.4623055 43.8907193,19.5019847 L43.8920897,19.5172738 L43.8919597,28.6987045 L48.2262218,28.6990127 L48.24136,28.7009751 L48.2572914,28.7050981 L48.2689467,28.7095373 L48.280419,28.7153125 L48.2934306,28.7238882 L48.3051489,28.7336502 L48.8183682,29.2195561 L50.1253338,29.2193893 L51.965044,24.9775532 C51.9746343,24.9554381 51.9900157,24.9370233 52.0089597,24.9237715 L52.0087876,24.2626354 C52.0075555,24.2568732 52.0069071,24.2508948 52.0069071,24.2447648 C52.0069071,24.2386349 52.0075555,24.2326564 52.0087876,24.2268942 L52.0087876,23.4971187 C52.0075555,23.4913565 52.0069071,23.485378 52.0069071,23.4792481 C52.0069071,23.4731182 52.0075555,23.4671397 52.0087876,23.4613775 L52.0088658,22.8112282 C51.9816295,22.7878294 51.9643784,22.7531352 51.9643784,22.7144119 C51.9643784,22.64982 52.0123769,22.5964388 52.0746518,22.5879905 L52.0919645,22.5868257 L61.161692,22.5867613 C61.1707345,22.5554323 61.1914607,22.5290583 61.2188471,22.5126627 L61.2188471,20.5876293 C61.1816227,20.565344 61.156703,20.5246233 61.156703,20.4780824 C61.156703,20.4315414 61.1816227,20.3908208 61.2188471,20.3685355 L61.2188471,17.9603759 C61.1816227,17.9380906 61.156703,17.89737 61.156703,17.850829 C61.156703,17.8042881 61.1816227,17.7635674 61.2188471,17.7412821 L61.2188471,14.1460613 C61.1816227,14.123776 61.156703,14.0830554 61.156703,14.0365144 C61.156703,13.9899735 61.1816227,13.9492528 61.2188471,13.9269675 L61.2188471,10.7284545 C61.1816227,10.7061692 61.156703,10.6654485 61.156703,10.6189076 C61.156703,10.5543157 61.2047016,10.5009345 61.2669765,10.4924862 L61.2842891,10.4913215 L62.4263034,10.4912481 L62.4264401,10.4242962 C62.4264401,10.3825399 62.4565292,10.3478112 62.4962083,10.3406092 L62.5114975,10.3392388 L62.6833102,10.3391454 L62.6833102,9.70871989 L59.9989015,9.70879328 C59.9571452,9.70879328 59.9224165,9.67870419 59.9152145,9.63902504 L59.9138441,9.62373587 L59.9138441,9.2753407 C59.9138441,9.23358434 59.9439332,9.19885566 59.9836124,9.19165368 L59.9989015,9.19028329 L62.7354324,9.19009137 C62.7421862,9.18725207 62.7493837,9.18525954 62.756892,9.18424666 L62.7683709,9.1834787 L63.0272856,9.1834787 C63.0389801,9.1834787 63.0501233,9.18583875 63.060265,9.19010855 L63.9720134,9.19020324 L63.9720134,8.72138679 L60.5010805,8.72144684 C60.4593241,8.72144684 60.4245954,8.69135775 60.4173935,8.6516786 L60.4160231,8.63638942 L60.4160231,8.18898743 C60.4160231,8.14723107 60.4461122,8.11250238 60.4857913,8.10530041 L60.5010805,8.10393002 L64.0214561,8.10359876 C64.0286941,8.1002466 64.0364828,8.0978821 64.0446493,8.09667823 L64.0571608,8.09576451 L64.3899054,8.09576451 C64.4026933,8.09576451 64.414822,8.09858654 64.4257029,8.1036418 L67.9459857,8.10393002 C67.9877421,8.10393002 68.0224707,8.13401911 68.0296727,8.17369826 L68.0310431,8.18898743 L68.0310431,8.63638942 C68.0310431,8.67814579 68.000954,8.71287447 67.9612749,8.72007645 L67.9459857,8.72144684 L64.4748528,8.72138679 L64.4748528,9.19020324 L65.796755,9.19028329 C65.8385114,9.19028329 65.87324,9.22037238 65.880442,9.26005153 L65.8818124,9.2753407 L65.8818124,9.62373587 C65.8818124,9.66549223 65.8517233,9.70022091 65.8120442,9.70742289 L65.796755,9.70879328 L64.8042418,9.70871989 L64.8043051,10.2405722 C64.8043051,10.2823286 64.774216,10.3170573 64.7345369,10.3242592 L64.7192477,10.3256296 L64.6157813,10.3254695 L64.6157813,11.7651079 L68.2935971,11.7651079 L68.2935971,5.10394508 L68.0686864,4.98141303 C68.0284406,4.95949413 68.0075395,4.92398311 68.0029133,4.88693479 C67.9969079,4.87538123 67.9926614,4.86274217 67.9904977,4.84939177 L67.9888546,4.82887942 L67.9888546,4.07629143 C67.9888546,3.75048902 68.103045,3.45127704 68.2935571,3.21655346 L68.2937004,0.127586119 C68.2937004,0.057122251 68.3508226,-5.68434189e-14 68.4212865,-5.68434189e-14 Z M77.7221444,61.0201876 L77.2124804,61.0201876 L75.9849318,65.297895 L76.6143567,65.297895 L76.8235979,64.5517714 L78.139266,64.5517714 L78.3519095,65.297895 L78.9782723,65.297895 L77.7221444,61.0201876 Z M84.7387005,61.0201876 L81.9151346,61.0201876 L81.9151346,61.69044 L84.0034642,61.6815941 L81.7827853,65.297895 L82.5758606,65.297895 L84.7387005,61.7003067 L84.7387005,61.0201876 Z M88.2229923,61.0201876 L86.4572005,61.0201876 C86.1360237,61.0201876 85.9771364,61.2188818 85.9771364,61.4168954 L85.9771364,62.0211433 L86.5861475,62.0211433 L86.5833351,61.9883545 C86.5774577,61.8902439 86.579953,61.6057229 86.8066163,61.6057229 L87.7698064,61.6057229 C87.7698064,61.6057229 88.1665142,61.5679574 88.1665142,61.9078468 L88.1665142,62.5685728 C88.1665142,62.5685728 88.1566476,62.8710369 87.8548639,62.8710369 L86.5892096,62.8710369 L86.5892096,63.4467055 L87.8449972,63.4467055 C87.8449972,63.4467055 88.1848866,63.4092802 88.1848866,63.626687 L88.1848866,64.3442313 L88.1819435,64.3576956 C88.167519,64.4176731 88.0953637,64.6575828 87.8640501,64.6575828 L86.8035413,64.657575 C86.7775579,64.656977 86.5956739,64.642151 86.5956739,64.3442313 L85.9771364,64.3442313 L85.9767765,64.8712288 C85.9784873,64.9681984 86.0121501,65.297895 86.3908557,65.297895 L88.2607578,65.297895 C88.2607578,65.297895 88.8020809,65.2506031 88.8020809,64.6558817 L88.8020809,63.3953696 C88.8014683,63.3540826 88.7894599,63.1166827 88.592822,63.1166827 L88.6071788,63.111608 C88.6544278,63.0925564 88.8020809,63.0133346 88.8020809,62.7672669 L88.8020809,61.5301919 C88.8020809,61.2753599 88.5815944,61.0201876 88.2229923,61.0201876 Z M80.7253515,61.0201876 L80.082998,61.0201876 L80.082998,65.297895 L80.7253515,65.297895 L80.7253515,61.0201876 Z M77.4669722,62.2569224 L77.9909259,64.0502729 L76.9790829,64.0502729 L77.4669722,62.2569224 Z M72.3631773,59.4124358 L71.5412892,59.4124358 L71.5412892,59.9824872 L72.3631773,59.9824872 L72.3631773,59.4124358 Z M75.8575359,59.4124358 L73.459584,59.4124358 L73.459584,59.9824872 L75.8575359,59.9824872 L75.8575359,59.4124358 Z M101.535034,59.4124358 L99.1374161,59.4124358 L99.1374161,59.9824872 L101.535034,59.9824872 L101.535034,59.4124358 Z M91.263935,59.4124358 L88.8659831,59.4124358 L88.8659831,59.9824872 L91.263935,59.9824872 L91.263935,59.4124358 Z M73.2894692,59.4124358 L72.9514077,59.4124358 L72.9514077,59.9824872 L73.2894692,59.9824872 L73.2894692,59.4124358 Z M111.265936,59.4124358 L109.408349,59.4124358 L109.408349,59.9824872 L111.181629,59.9824872 L111.265936,59.4124358 Z M80.9930023,59.4124358 L78.5953839,59.4124358 L78.5953839,59.9824872 L80.9930023,59.9824872 L80.9930023,59.4124358 Z M106.670501,59.4124358 L104.272883,59.4124358 L104.272883,59.9824872 L106.670501,59.9824872 L106.670501,59.4124358 Z M78.4252691,59.4124358 L76.0276508,59.4124358 L76.0276508,59.9824872 L78.4252691,59.9824872 L78.4252691,59.4124358 Z M109.238234,59.4124358 L106.840616,59.4124358 L106.840616,59.9824872 L109.238234,59.9824872 L109.238234,59.4124358 Z M104.102768,59.4124358 L101.705149,59.4124358 L101.705149,59.9824872 L104.102768,59.9824872 L104.102768,59.4124358 Z M96.3995681,59.4124358 L94.0021166,59.4124358 L94.0021166,59.9824872 L96.3995681,59.9824872 L96.3995681,59.4124358 Z M98.9673013,59.4124358 L96.569683,59.4124358 L96.569683,59.9824872 L98.9673013,59.9824872 L98.9673013,59.4124358 Z M83.5607355,59.4124358 L81.1631171,59.4124358 L81.1631171,59.9824872 L83.5607355,59.9824872 L83.5607355,59.4124358 Z M86.1281351,59.4124358 L83.7308503,59.4124358 L83.7308503,59.9824872 L86.1281351,59.9824872 L86.1281351,59.4124358 Z M88.6958683,59.4124358 L86.2982499,59.4124358 L86.2982499,59.9824872 L88.6958683,59.9824872 L88.6958683,59.4124358 Z M93.8320017,59.4124358 L91.4340498,59.4124358 L91.4340498,59.9824872 L93.8320017,59.9824872 L93.8320017,59.4124358 Z M104.102768,58.6474194 L101.705149,58.6474194 L101.705149,59.2423209 L104.102768,59.2423209 L104.102768,58.6474194 Z M96.3995681,58.6474194 L94.0021166,58.6474194 L94.0021166,59.2423209 L96.3995681,59.2423209 L96.3995681,58.6474194 Z M75.8575359,58.6474194 L73.459584,58.6474194 L73.459584,59.2423209 L75.8575359,59.2423209 L75.8575359,58.6474194 Z M86.1281351,58.6474194 L83.7308503,58.6474194 L83.7308503,59.2423209 L86.1281351,59.2423209 L86.1281351,58.6474194 Z M111.379346,58.6474194 L109.408349,58.6474194 L109.408349,59.2423209 L111.291286,59.2423209 L111.379346,58.6474194 Z M73.2894692,58.6474194 L72.9514077,58.6474194 L72.9514077,59.2423209 L73.2894692,59.2423209 L73.2894692,58.6474194 Z M98.9673013,58.6474194 L96.569683,58.6474194 L96.569683,59.2423209 L98.9673013,59.2423209 L98.9673013,58.6474194 Z M91.263935,58.6474194 L88.8659831,58.6474194 L88.8659831,59.2423209 L91.263935,59.2423209 L91.263935,58.6474194 Z M109.238234,58.6474194 L106.840616,58.6474194 L106.840616,59.2423209 L109.238234,59.2423209 L109.238234,58.6474194 Z M88.6958683,58.6474194 L86.2982499,58.6474194 L86.2982499,59.2423209 L88.6958683,59.2423209 L88.6958683,58.6474194 Z M101.535034,58.6474194 L99.1374161,58.6474194 L99.1374161,59.2423209 L101.535034,59.2423209 L101.535034,58.6474194 Z M83.5607355,58.6474194 L81.1631171,58.6474194 L81.1631171,59.2423209 L83.5607355,59.2423209 L83.5607355,58.6474194 Z M80.9930023,58.6474194 L78.5953839,58.6474194 L78.5953839,59.2423209 L80.9930023,59.2423209 L80.9930023,58.6474194 Z M72.3631773,58.6474194 L71.5412892,58.6474194 L71.5412892,59.2423209 L72.3631773,59.2423209 L72.3631773,58.6474194 Z M78.4252691,58.6474194 L76.0276508,58.6474194 L76.0276508,59.2423209 L78.4252691,59.2423209 L78.4252691,58.6474194 Z M106.670501,58.6474194 L104.272883,58.6474194 L104.272883,59.2423209 L106.670501,59.2423209 L106.670501,58.6474194 Z M93.8320017,58.6474194 L91.4340498,58.6474194 L91.4340498,59.2423209 L93.8320017,59.2423209 L93.8320017,58.6474194 Z M78.4252691,57.9250985 L76.0276508,57.9250985 L76.0276508,58.4773046 L78.4252691,58.4773046 L78.4252691,57.9250985 Z M96.3995681,57.9250985 L94.0021166,57.9250985 L94.0021166,58.4773046 L96.3995681,58.4773046 L96.3995681,57.9250985 Z M98.9673013,57.9250985 L96.569683,57.9250985 L96.569683,58.4773046 L98.9673013,58.4773046 L98.9673013,57.9250985 Z M111.486418,57.9250985 L109.408349,57.9250985 L109.408349,58.4773046 L111.40453,58.4773046 L111.486418,57.9250985 Z M109.238234,57.9250985 L106.840616,57.9250985 L106.840616,58.4773046 L109.238234,58.4773046 L109.238234,57.9250985 Z M75.8575359,57.9250985 L73.459584,57.9250985 L73.459584,58.4773046 L75.8575359,58.4773046 L75.8575359,57.9250985 Z M101.535034,57.9250985 L99.1374161,57.9250985 L99.1374161,58.4773046 L101.535034,58.4773046 L101.535034,57.9250985 Z M104.102768,57.9250985 L101.705149,57.9250985 L101.705149,58.4773046 L104.102768,58.4773046 L104.102768,57.9250985 Z M88.6958683,57.9250985 L86.2982499,57.9250985 L86.2982499,58.4773046 L88.6958683,58.4773046 L88.6958683,57.9250985 Z M83.5607355,57.9250985 L81.1631171,57.9250985 L81.1631171,58.4773046 L83.5607355,58.4773046 L83.5607355,57.9250985 Z M91.263935,57.9250985 L88.8659831,57.9250985 L88.8659831,58.4773046 L91.263935,58.4773046 L91.263935,57.9250985 Z M93.8320017,57.9250985 L91.4340498,57.9250985 L91.4340498,58.4773046 L93.8320017,58.4773046 L93.8320017,57.9250985 Z M72.3631773,57.9250985 L71.5412892,57.9250985 L71.5412892,58.4773046 L72.3631773,58.4773046 L72.3631773,57.9250985 Z M73.2894692,57.9250985 L72.9514077,57.9250985 L72.9514077,58.4773046 L73.2894692,58.4773046 L73.2894692,57.9250985 Z M106.670501,57.9250985 L104.272883,57.9250985 L104.272883,58.4773046 L106.670501,58.4773046 L106.670501,57.9250985 Z M80.9930023,57.9250985 L78.5953839,57.9250985 L78.5953839,58.4773046 L80.9930023,58.4773046 L80.9930023,57.9250985 Z M86.1281351,57.9250985 L83.7308503,57.9250985 L83.7308503,58.4773046 L86.1281351,58.4773046 L86.1281351,57.9250985 Z M72.3631773,56.9464379 L71.6398557,57.6699263 L72.3631773,57.6699263 L72.3631773,56.9464379 Z M191.531531,54.9102302 L189.266335,54.9102302 L189.266335,57.6218938 L191.531531,57.6218938 L191.531531,54.9102302 Z M186.29583,54.9102302 L184.030301,54.9102302 L184.030301,57.6218938 L186.29583,57.6218938 L186.29583,54.9102302 Z M74.9304101,54.16923 L72.9792598,54.16923 L72.9792598,54.7914834 L74.9304101,54.7914834 L74.9304101,54.16923 Z M19.0365993,53.8531834 L18.4226849,53.8531834 L18.4226849,54.1730659 L19.0365993,54.1730659 L19.0365993,53.8531834 Z M14.1042701,53.8531834 L13.4905225,53.8531834 L13.4905225,54.1730659 L14.1042701,54.1730659 L14.1042701,53.8531834 Z M15.2800637,53.8531834 L14.6663161,53.8531834 L14.6663161,54.1730659 L15.2800637,54.1730659 L15.2800637,53.8531834 Z M17.6646733,53.8531834 L17.0509257,53.8531834 L17.0509257,54.1730659 L17.6646733,54.1730659 L17.6646733,53.8531834 Z M10.8704206,53.8531834 L10.2565062,53.8531834 L10.2565062,54.1730659 L10.8704206,54.1730659 L10.8704206,53.8531834 Z M12.9279761,53.8531834 L12.3142285,53.8531834 L12.3142285,54.1730659 L12.9279761,54.1730659 L12.9279761,53.8531834 Z M8.77967605,53.8531834 L8.16592845,53.8531834 L8.16592845,54.1728992 L8.77967605,54.1728992 L8.77967605,53.8531834 Z M21.3231427,53.0644843 L21.0504586,53.0644843 L20.2365759,53.8418424 L20.2475834,54.0376412 L21.3231427,54.0376412 L21.3231427,53.0644843 Z M74.9304101,53.4040469 L73.1722906,53.4042368 C73.1421562,53.5214409 73.084635,53.627612 73.0069593,53.7155065 L73.0069017,53.9709695 C73.0069017,53.9808687 73.0052107,53.9903728 73.0021017,53.9992089 L74.9304101,53.9991152 L74.9304101,53.4040469 Z M72.8368047,53.8587688 C72.7767931,53.8957467 72.7112098,53.9245415 72.6416028,53.9436024 L72.8366636,53.9434109 L72.8368047,53.8587688 Z M70.4391407,53.754959 L70.4390452,53.9434109 L70.76807,53.94363 C70.6423138,53.9094476 70.5296315,53.8435136 70.4391407,53.754959 Z M71.7122714,53.4042541 L71.6959925,53.4042678 C71.6285782,53.6660755 71.4243562,53.8728672 71.1642171,53.9436259 L72.242681,53.943606 C71.9830372,53.8724931 71.7794805,53.6658754 71.7122714,53.4042541 Z M70.2137311,53.2629304 L70.0119236,53.2627848 L70.1675286,53.9434109 L70.2689304,53.9434109 L70.2688149,53.5026446 C70.2380915,53.4280045 70.2189802,53.3473486 70.2137311,53.2629304 Z M67.9130068,53.2627848 L67.7363876,53.2627848 L67.7363876,53.9434109 L67.7378886,53.9434109 L67.9130068,53.2627848 Z M67.5662728,53.2627848 L64.7401986,53.2627848 L64.7403419,53.2789424 C64.7403419,53.5359406 64.820677,53.7016265 64.9583513,53.8038675 L64.9832373,53.8212571 L65.0092856,53.8373635 C65.0689007,53.872022 65.1337397,53.8948783 65.1987017,53.9078663 L65.2271518,53.9129615 L65.2558855,53.916741 L65.2959324,53.9195482 C65.3173585,53.9226381 65.3370522,53.931046 65.3536407,53.943386 L67.5662728,53.9434109 L67.5662728,53.2627848 Z M74.9304101,52.681726 L73.0067784,52.681726 L73.0068983,52.7159209 C73.1173001,52.8406778 73.1870156,53.0022593 73.1952487,53.1798405 L73.1960694,53.2153195 C73.1960694,53.2215854 73.1959932,53.2278335 73.1958418,53.2340629 L74.9304101,53.233932 L74.9304101,52.681726 Z M17.998572,52.4433384 C17.7950115,52.4433384 17.6301033,52.6081611 17.6301033,52.8118071 C17.6301033,53.0152402 17.7951389,53.1802758 17.998572,53.1802758 C18.202218,53.1802758 18.3670407,53.0153676 18.3670407,52.8118071 C18.3670407,52.6080338 18.2023453,52.4433384 17.998572,52.4433384 Z M174.456088,52.4494025 L172.789094,52.4496378 C172.935651,52.6905771 173.209197,52.8595935 173.584981,52.967803 C173.797529,53.0290077 174.02863,53.0658758 174.263132,53.0832091 C174.333863,53.0884372 174.398713,53.0915291 174.456378,53.0930355 L174.456088,52.4494025 Z M182.159288,52.4494025 L179.76167,52.4494025 L179.76167,53.0928368 L182.159288,53.0928368 L182.159288,52.4494025 Z M177.024155,52.4494025 L174.626203,52.4494025 L174.626203,53.0928368 L177.024155,53.0928368 L177.024155,52.4494025 Z M67.5662728,52.4977685 L64.7401986,52.4977685 L64.7401986,53.0928368 L67.5662728,53.0928368 L67.5662728,52.4977685 Z M68.1096396,52.4977685 L67.7363876,52.4977685 L67.7363876,53.0928368 L67.956703,53.0928368 L68.1096396,52.4977685 Z M187.981051,52.4494025 L187.464869,52.4494025 L187.464869,53.0928368 L188.620482,53.0928368 L187.981051,52.4494025 Z M70.2689304,52.4977685 L69.8369722,52.4977685 L69.973064,53.0928368 L70.2221517,53.0928964 C70.2315153,53.035591 70.2473432,52.9804526 70.2688622,52.9282553 L70.2689304,52.4977685 Z M184.727021,52.4494025 L182.329403,52.4494025 L182.329403,53.0928368 L184.727021,53.0928368 L184.727021,52.4494025 Z M179.591555,52.4494025 L177.19427,52.4494025 L177.19427,53.0928368 L179.591555,53.0928368 L179.591555,52.4494025 Z M187.294754,52.4494025 L184.897136,52.4494025 L184.897136,53.0928368 L187.294754,53.0928368 L187.294754,52.4494025 Z M192.430554,52.4494025 L190.637844,52.4494025 L190.637844,53.0928368 L192.430554,53.0928368 L192.430554,52.4494025 Z M189.862821,52.4494025 L188.92769,52.4494025 L189.575627,53.0928368 L189.862821,53.0928368 L189.862821,52.4494025 Z M139.310366,52.3928643 L137.10988,52.3928643 L137.10988,53.09267 L139.310366,53.09267 L139.310366,52.3928643 Z M136.939765,52.3928643 L136.297665,52.3928643 L136.297665,53.09267 L136.939765,53.09267 L136.939765,52.3928643 Z M152.346331,52.3928643 L150.112657,52.3928643 L150.112657,53.0925032 L152.346331,53.0925032 L152.346331,52.3928643 Z M157.651912,52.3928643 L157.651912,53.0925032 L159.162245,53.0925409 L159.26406,53.0915384 C160.122069,53.0794144 160.351778,52.973079 160.404417,52.3930872 L157.651912,52.3928643 Z M153.734435,52.3928643 L152.516446,52.3928643 L152.516446,53.0925032 L153.734935,53.0925032 L153.734435,52.3928643 Z M157.481798,52.3928643 L155.641889,52.3928643 L155.112532,53.0925032 L157.481798,53.0925032 L157.481798,52.3928643 Z M154.697585,52.3928643 L154.212424,52.3928643 L153.907895,52.7853675 L153.904717,52.7886315 L153.904883,53.0925032 L154.160222,53.0925032 L154.697585,52.3928643 Z M71.4984555,52.6816984 C71.5906331,52.7737254 71.6591283,52.8894825 71.6939804,53.0189946 L71.7042325,53.0623162 L71.7145891,53.018991 C71.7491482,52.8894724 71.8175829,52.7737437 71.9097037,52.6817362 L71.4984555,52.6816984 Z M153.997112,52.3928643 L153.90455,52.3928643 L153.90455,52.5121115 L153.997112,52.3928643 Z M4.51738249,52.1453639 L3.33174888,52.1938967 L3.36251956,52.4042053 L4.44766877,52.4042053 L4.51738249,52.1453639 Z M71.7040248,51.9035355 L71.6999089,51.9233102 C71.6622422,52.0840703 71.5732391,52.2250362 71.4511654,52.3279138 L71.9565411,52.32782 C71.8297381,52.220728 71.738746,52.0724594 71.7040248,51.9035355 Z M68.2954316,51.7754476 L67.7363876,51.7754476 L67.7363876,52.3276536 L68.1535025,52.3276536 L68.2954316,51.7754476 Z M70.2128926,51.7754476 L69.6718607,51.7754476 L69.7981126,52.3276536 L70.2689304,52.3276536 L70.2688149,52.0376158 C70.2366286,51.9594214 70.2171864,51.8746247 70.2130758,51.7858167 L70.2128926,51.7754476 Z M67.5662728,51.7754476 L64.7401986,51.7754476 L64.7401986,52.3276536 L67.5662728,52.3276536 L67.5662728,51.7754476 Z M174.456088,51.6842193 L172.666547,51.6842193 L172.66663,51.9870904 C172.66663,52.0927648 172.681667,52.1900928 172.710874,52.2794635 L174.456088,52.2792877 L174.456088,51.6842193 Z M187.220537,51.6842193 L184.897136,51.6842193 L184.897136,52.2792877 L187.294754,52.2792877 L187.294754,51.7589364 L187.220537,51.6842193 Z M184.727021,51.6842193 L182.329403,51.6842193 L182.329403,52.2792877 L184.727021,52.2792877 L184.727021,51.6842193 Z M187.464869,51.9300519 L187.464869,52.2792877 L187.811937,52.2792877 L187.464869,51.9300519 Z M192.430554,51.6842193 L190.637844,51.6842193 L190.637844,52.2792877 L192.430554,52.2792877 L192.430554,51.6842193 Z M182.159288,51.6842193 L179.76167,51.6842193 L179.76167,52.2792877 L182.159288,52.2792877 L182.159288,51.6842193 Z M177.024155,51.6842193 L174.626203,51.6842193 L174.626203,52.2792877 L177.024155,52.2792877 L177.024155,51.6842193 Z M179.591555,51.6842193 L177.19427,51.6842193 L177.19427,52.2792877 L179.591555,52.2792877 L179.591555,51.6842193 Z M189.862821,51.6842193 L188.15717,51.6842193 L188.756408,52.2792877 L189.862821,52.2792877 L189.862821,51.6842193 Z M160.418113,51.6276812 L157.651912,51.6276812 L157.651912,52.2227495 L160.414719,52.2229881 C160.416886,52.1630307 160.417961,52.0989942 160.418268,52.0306058 L160.418113,51.6276812 Z M154.914064,51.6276812 L154.806325,51.6276812 L154.344513,52.2227495 L154.82834,52.2227495 L154.914064,52.1111742 L154.914064,51.6276812 Z M153.733935,51.6276812 L152.516446,51.6276812 L152.516446,52.2227495 L153.734268,52.2227495 L153.733935,51.6276812 Z M136.939765,51.6276812 L136.297665,51.6276812 L136.297665,52.2227495 L136.939765,52.2227495 L136.939765,51.6276812 Z M152.346331,51.6276812 L149.949047,51.6276812 L149.949047,52.199734 L149.985221,52.199734 C150.012333,52.199734 150.037471,52.208191 150.058139,52.2226109 L152.346331,52.2227495 L152.346331,51.6276812 Z M157.481798,51.6276812 L156.220947,51.6276812 L155.770643,52.2227495 L157.481798,52.2227495 L157.481798,51.6276812 Z M154.591013,51.6276812 L154.118027,51.6276812 L153.911931,51.8893575 L153.904216,51.8973632 L153.904383,52.2227495 L154.129201,52.2227495 L154.591013,51.6276812 Z M139.310366,51.6276812 L137.10988,51.6276812 L137.10988,52.2227495 L139.310366,52.2227495 L139.310366,51.6276812 Z M147.134647,51.6276812 L146.993885,51.6276812 L146.993802,52.199734 L147.134647,52.199734 L147.134647,51.6276812 Z M149.778932,51.6276812 L147.474876,51.6276812 L147.474876,52.199734 L149.778932,52.199734 L149.778932,51.6276812 Z M155.285315,51.6276812 L155.084179,51.6276812 L155.084179,51.8895246 L155.285315,51.6276812 Z M68.4572075,48.6510053 L65.5844517,48.6511387 C65.2891805,48.6511387 65.0739634,48.8031878 64.9190165,49.0690896 C64.8273982,49.2263142 64.7726392,49.3927634 64.7464658,49.523752 L64.7402819,49.5572837 L64.7401986,51.5202753 L68.3609759,51.5202753 L68.4572908,51.1463563 L68.4572075,48.6510053 Z M192.430554,50.9618985 L190.637844,50.9618985 L190.637844,51.5141045 L192.430554,51.5141045 L192.430554,50.9618985 Z M182.159288,50.9618985 L179.76167,50.9618985 L179.76167,51.5141045 L182.159288,51.5141045 L182.159288,50.9618985 Z M179.591555,50.9618985 L177.19427,50.9618985 L177.19427,51.5141045 L179.591555,51.5141045 L179.591555,50.9618985 Z M174.456088,50.9618985 L172.666547,50.9618985 L172.666547,51.5141045 L174.456088,51.5141045 L174.456088,50.9618985 Z M177.024155,50.9618985 L174.626203,50.9618985 L174.626203,51.5141045 L177.024155,51.5141045 L177.024155,50.9618985 Z M189.862821,50.9618985 L187.464869,50.9618985 L187.464869,50.9969221 L187.985721,51.5141045 L189.862821,51.5141045 L189.862821,50.9618985 Z M184.727021,50.9618985 L182.329403,50.9618985 L182.329403,51.5141045 L184.727021,51.5141045 L184.727021,50.9618985 Z M186.50272,50.9618985 L184.897136,50.9618985 L184.897136,51.5141045 L187.05159,51.5141045 L186.50272,50.9618985 Z M154.914064,51.1496919 L154.366361,51.3124684 L154.251951,51.4575664 L154.723102,51.4575664 L154.914064,51.211567 L154.914064,51.1496919 Z M155.327677,51.0267756 L155.256295,51.0479565 L155.084179,51.2697729 L155.084179,51.4575664 L155.328011,51.4575664 L155.327677,51.0267756 Z M136.939765,50.9053603 L136.297665,50.9053603 L136.297665,51.4575664 L136.939765,51.4575664 L136.939765,50.9053603 Z M154.083671,51.3965252 L153.903883,51.4500613 L153.903883,51.4575664 L154.035471,51.4575664 L154.083671,51.3965252 Z M160.418113,50.9053603 L157.651912,50.9053603 L157.651912,51.4575664 L160.418113,51.4575664 L160.418113,50.9053603 Z M157.481798,50.9053603 L156.767482,50.9053603 L156.3497,51.4575664 L157.481798,51.4575664 L157.481798,50.9053603 Z M146.986547,51.1965568 L144.813405,51.3688132 L144.813247,51.4058648 L146.866336,51.4059782 C146.908309,51.4059782 146.945549,51.4262471 146.968801,51.4575311 L147.067101,51.4575664 L146.986547,51.1965568 Z M139.507499,50.9053603 L137.10988,50.9053603 L137.10988,51.4575664 L139.335636,51.4575311 C139.355635,51.4306236 139.385982,51.4118649 139.420789,51.4071429 L139.438102,51.4059782 L139.507499,51.4058648 L139.507499,50.9053603 Z M140.501169,50.9053603 L139.677613,50.9053603 L139.677613,51.4058648 L140.501169,51.4058648 L140.501169,50.9053603 Z M155.84019,50.9053603 L155.721188,50.9056694 L155.707049,50.9129963 L155.691844,50.9185833 L155.497792,50.9762415 L155.498125,51.3506609 L155.84019,50.9053603 Z M189.999914,49.5519468 L186.00972,49.5519468 L187.172672,50.7067262 L189.999914,50.7067262 L189.999914,49.5519468 Z M185.10144,49.5519468 L172.666547,49.5519468 L172.666547,50.7067262 L186.249048,50.7067262 L185.10144,49.5519468 Z M136.297803,49.7360978 L136.297665,50.6501881 L140.501169,50.6501881 L140.501055,50.4625534 L140.073569,50.4767803 L139.670989,50.4886539 C139.62767,50.4898402 139.584827,50.4909818 139.542464,50.4920783 C138.340558,50.5233041 137.257752,50.2451583 136.297803,49.7360978 Z M156.918584,48.9063443 L156.012633,50.0739463 C156.030635,50.2694554 155.952452,50.4207306 155.778682,50.5060292 L155.780816,50.6501881 L156.036155,50.6501881 L156.918417,49.5014126 L156.918584,48.9063443 Z M157.991558,49.2879352 L156.960613,50.6501881 L160.418113,50.6501881 L160.41828,49.2884356 L159.674111,49.2882688 L159.648753,49.3105717 L159.623076,49.2882688 L157.991558,49.2879352 Z M156.918918,48.0736156 L155.760186,49.5440395 C155.782486,49.553068 155.801941,49.5682885 155.816116,49.5881265 C155.841675,49.6238972 155.877962,49.6822047 155.914196,49.7554528 C155.931939,49.79132 155.947751,49.8271762 155.961297,49.8629039 L156.918751,48.6288237 L156.918918,48.0736156 Z M10.053119,48.7549088 L8.81961977,48.7549088 L8.81970307,49.5204255 L10.0639746,49.5204031 C10.0594852,49.5123831 10.0562573,49.5035614 10.0545594,49.4942066 L10.053189,49.4789175 L10.053119,48.7549088 Z M156.919085,47.3521286 L156.884228,47.3521286 L155.496124,49.1144848 L155.496458,49.4889042 L155.574677,49.5045815 L156.918918,47.7989302 L156.919085,47.3521286 Z M155.326343,49.3301304 L155.241452,49.4378698 L155.326343,49.4548812 L155.326343,49.3301304 Z M157.830867,47.731051 L157.088866,48.6870296 L157.088699,49.279763 L157.722992,48.4541458 L158.662928,48.454039 L157.830867,47.731051 Z M192.741848,47.3541299 L189.659684,47.3541299 L189.65974,47.8835806 L189.359815,47.8834872 L190.402685,48.7877643 L191.088482,48.7877643 L192.741848,47.3541299 Z M180.213141,47.8834872 L179.057194,47.8834872 L178.015991,48.7877643 L181.254677,48.7877643 L180.213141,47.8834872 Z M175.770809,47.8834872 L174.615529,47.8834872 L173.574493,48.7877643 L176.812179,48.7877643 L175.770809,47.8834872 Z M187.683517,47.8834872 L184.915482,47.8834872 L185.956518,48.7877643 L186.64148,48.7877643 L187.683517,47.8834872 Z M178.797519,47.8834872 L176.030318,47.8834872 L177.07152,48.7877643 L177.756316,48.7877643 L178.797519,47.8834872 Z M174.355854,47.8834872 L171.590321,47.8834872 L172.246764,48.454039 L172.701552,48.4541458 L172.673719,48.7877643 L173.314985,48.7877643 L174.355854,47.8834872 Z M184.65614,47.8834872 L183.50036,47.8834872 L182.458823,48.7877643 L185.697176,48.7877643 L184.65614,47.8834872 Z M189.100306,47.8834872 L187.943359,47.8834872 L186.901322,48.7877643 L190.14301,48.7877643 L189.100306,47.8834872 Z M183.240684,47.8834872 L180.472483,47.8834872 L181.514186,48.7877643 L182.199148,48.7877643 L183.240684,47.8834872 Z M10.053119,47.9466966 L8.81961977,47.9466966 L8.81961977,48.5847939 L10.053119,48.5847939 L10.053119,47.9466966 Z M158.486476,47.3541299 L158.123397,47.3541299 L157.93527,47.5964602 L158.922437,48.454039 L160.375251,48.454039 L161.032194,47.8834872 L158.683776,47.8834872 L158.683872,47.8893145 C158.6839,47.9362904 158.645841,47.974422 158.598865,47.974422 C158.557109,47.974422 158.522362,47.9443778 158.515137,47.9047029 L158.513757,47.8894146 L158.5133,47.4981163 C158.500347,47.4859206 158.49122,47.4697074 158.487909,47.4514678 L158.486539,47.4361787 L158.486476,47.3541299 Z M165.474026,47.8834872 L162.706991,47.8834872 L163.363935,48.454039 L164.817082,48.454039 L165.474026,47.8834872 Z M166.889314,47.8834872 L165.733534,47.8834872 L165.076757,48.454039 L167.546424,48.454039 L166.889314,47.8834872 Z M169.916191,47.8834872 L167.148823,47.8834872 L167.805933,48.454039 L169.259247,48.454039 L169.916191,47.8834872 Z M171.330812,47.8834872 L170.175866,47.8834872 L169.518923,48.454039 L171.987255,48.454039 L171.330812,47.8834872 Z M162.447483,47.8834872 L161.291703,47.8834872 L160.634759,48.454039 L163.104593,48.454039 L162.447483,47.8834872 Z M157.449776,47.3999942 L157.089033,47.8578032 L157.088866,48.4096757 L157.70228,47.6193089 L157.449776,47.3999942 Z M68.4572075,47.2220408 L66.6356446,47.2220408 L66.6356446,47.8848215 L68.4572075,47.8848215 L68.4572075,47.2220408 Z M66.4655298,47.2220408 L64.7401986,47.2220408 L64.7402819,47.8848215 L66.4655298,47.8848215 L66.4655298,47.2220408 Z M157.270989,47.3521286 L157.089199,47.3521286 L157.089033,47.5829511 L157.270989,47.3521286 Z M157.908085,47.3541299 L157.656332,47.3541299 L157.806684,47.4847181 L157.908085,47.3541299 Z M158.412358,46.6534832 L157.716289,47.1820138 L158.041676,47.1820138 L158.424907,46.6883243 C158.41835,46.6780066 158.413954,46.6661805 158.412358,46.6534832 Z M190.935545,45.8094206 L189.999413,45.8094206 L188.273582,47.1196383 L189.65974,47.1197651 L189.659684,47.1820138 L192.744766,47.1820138 L190.935545,45.8094206 Z M195.986621,45.8094206 L195.083178,45.8094206 L193.27379,47.1820138 L195.986538,47.1820138 L195.986621,45.8094206 Z M157.089199,47.1069631 L157.089199,47.1820138 L157.187933,47.1820138 L157.089199,47.1069631 Z M155.381213,45.8094206 L153.842341,45.8094206 L153.842258,47.1820138 L156.693432,47.1820138 L156.878557,46.9470218 L155.381213,45.8094206 Z M158.486476,46.8863142 L158.256988,47.1820138 L158.486476,47.1820138 L158.486476,46.8863142 Z M194.801655,45.8094206 L191.217068,45.8094206 L193.009195,47.169005 L194.801655,45.8094206 Z M158.446545,45.8092567 L158.099381,45.8094206 L157.187099,46.9677024 L157.429095,47.1516599 L158.414773,45.9007059 C158.412763,45.893456 158.411689,45.8858169 158.411689,45.8779269 C158.411689,45.8497268 158.425412,45.824732 158.446545,45.8092567 Z M166.747719,46.7277071 L166.360457,46.7277071 L166.360457,47.1196383 L167.2639,47.1196383 L166.747719,46.7277071 Z M161.668957,46.7277071 L161.224657,46.7277071 L161.224657,47.1196383 L162.185139,47.1196383 L161.668957,46.7277071 Z M175.695592,45.8094206 L174.760127,45.8094206 L174.063156,46.3389447 L174.063156,46.5575923 L174.098317,46.5577057 C174.145293,46.5577057 174.183374,46.5957872 174.183374,46.6427631 C174.183374,46.6845195 174.153285,46.7192482 174.113606,46.7264501 L174.098317,46.7278205 L174.063156,46.7277071 L174.063156,47.1196383 L177.42109,47.1196383 L175.695592,45.8094206 Z M168.757909,46.7277071 L168.47255,46.7277071 L167.956368,47.1196383 L168.757909,47.1196383 L168.757909,46.7277071 Z M171.826814,46.7277071 L171.495757,46.7277071 L171.495757,47.1196383 L172.342995,47.1196383 L171.826814,46.7277071 Z M166.190342,46.7277071 L163.792724,46.7277071 L163.792724,47.1196383 L166.190342,47.1196383 L166.190342,46.7277071 Z M184.637127,45.8094206 L181.055876,45.8094206 L182.781208,47.1196383 L182.911295,47.1196383 L184.637127,45.8094206 Z M163.112432,46.7277071 L161.94998,46.7277071 L162.466162,47.1196383 L162.59625,47.1196383 L163.112432,46.7277071 Z M173.893042,46.7277071 L173.551478,46.7277071 L173.03563,47.1196383 L173.893042,47.1196383 L173.893042,46.7277071 Z M163.622609,46.7277071 L163.393621,46.7277071 L162.877606,47.1196383 L163.622609,47.1196383 L163.622609,46.7277071 Z M168.191193,46.7277071 L167.028742,46.7277071 L167.544923,47.1196383 L167.675011,47.1196383 L168.191193,46.7277071 Z M189.718223,45.8094206 L186.135639,45.8094206 L187.86197,47.1196383 L187.992058,47.1196383 L189.718223,45.8094206 Z M173.270288,46.7277071 L172.10817,46.7277071 L172.624352,47.1196383 L172.75444,47.1196383 L173.270288,46.7277071 Z M161.054543,46.7277071 L158.683109,46.7277071 L158.683275,47.1196383 L161.054543,47.1196383 L161.054543,46.7277071 Z M179.557532,45.8094206 L175.976781,45.8094206 L177.702113,47.1196383 L177.832201,47.1196383 L179.557532,45.8094206 Z M185.854282,45.8094206 L184.918317,45.8094206 L183.192652,47.1196383 L187.580614,47.1196383 L185.854282,45.8094206 Z M171.325642,46.7277071 L168.928024,46.7277071 L168.928024,47.1196383 L171.325642,47.1196383 L171.325642,46.7277071 Z M180.77452,45.8094206 L179.838888,45.8094206 L178.113557,47.1196383 L182.500018,47.1196383 L180.77452,45.8094206 Z M68.4572075,46.4568576 L66.6356446,46.4568576 L66.6356446,47.051926 L68.4572075,47.051926 L68.4572075,46.4568576 Z M66.4655298,46.4568576 L64.7401986,46.4568576 L64.7401986,47.051926 L66.4655298,47.051926 L66.4655298,46.4568576 Z M158.486476,46.0846064 L157.899913,46.8289421 L158.486476,46.3834748 L158.486476,46.0846064 Z M157.774495,45.8094206 L155.662403,45.8094206 L156.983795,46.8132649 L157.774495,45.8094206 Z M144.704978,43.9120724 C144.694434,43.919778 144.68205,43.9251156 144.668608,43.9273029 L144.654843,43.928411 L144.57125,43.9283176 L144.571168,45.9206067 C144.57935,45.9161643 144.588015,45.9126182 144.597011,45.9100485 L144.614253,45.9063907 L144.632048,45.9051452 L145.369325,45.9051452 C145.41862,45.9051452 145.462897,45.9334507 145.48402,45.9768305 L145.49082,45.9937787 L145.733201,46.7498887 L146.187508,46.7498887 L144.704978,43.9120724 Z M144.09083,43.8717386 L142.639446,46.7498887 L142.87327,46.7498887 L142.988087,46.3434255 C143.002084,46.2938053 143.044266,46.2581276 143.094197,46.2515662 L143.113244,46.2505002 L144.23102,46.2710656 L144.23102,43.9283176 L144.171036,43.928411 C144.134014,43.928411 144.102516,43.9047577 144.09083,43.8717386 Z M165.740539,45.9628575 L164.400801,45.9628575 L163.792724,46.4246692 L163.792724,46.5575923 L166.190342,46.5575923 L166.190342,46.3044214 L165.740539,45.9628575 Z M166.360457,46.4336753 L166.360457,46.5575923 L166.523734,46.5575923 L166.360457,46.4336753 Z M171.495757,46.4763708 L171.495757,46.5575923 L171.602829,46.5575923 L171.495757,46.4763708 Z M170.819467,45.9628575 L169.479729,45.9628575 L168.928024,46.381807 L168.928024,46.5575923 L171.325642,46.5575923 L171.325642,46.3471169 L170.819467,45.9628575 Z M161.224657,46.3903127 L161.224657,46.5575923 L161.444973,46.5575923 L161.224657,46.3903127 Z M168.757909,45.9628575 L166.360457,45.9628575 L166.360457,46.2201979 L166.804757,46.5575923 L168.415178,46.5575923 L168.757909,46.2972499 L168.757909,45.9628575 Z M173.893042,46.4681986 L173.775462,46.5575923 L173.893042,46.5575923 L173.893042,46.4681986 Z M163.622609,45.9628575 L161.224657,45.9628575 L161.224657,46.1768353 L161.725996,46.5575923 L163.336416,46.5575923 L163.622609,46.3402789 L163.622609,45.9628575 Z M160.661611,45.9628575 L159.321706,45.9628575 L158.682942,46.4478515 L158.682942,46.5575923 L161.054543,46.5575923 L161.054543,46.2612256 L160.661611,45.9628575 Z M173.893042,45.9628575 L171.495757,45.9628575 L171.495757,46.2627266 L171.884186,46.5575923 L173.494272,46.5575923 L173.893042,46.2545544 L173.893042,45.9628575 Z M66.4655298,45.7345367 L64.7401986,45.7345367 L64.7401986,46.2867428 L66.4655298,46.2867428 L66.4655298,45.7345367 Z M68.4572075,45.7345367 L66.6356446,45.7345367 L66.6356446,46.2867428 L68.4572075,46.2867428 L68.4572075,45.7345367 Z M159.04035,45.9628575 L158.682608,45.9628575 L158.682775,46.2343741 L159.04035,45.9628575 Z M164.119611,45.9628575 L163.792724,45.9628575 L163.792724,46.211025 L164.119611,45.9628575 Z M169.198373,45.9628575 L168.928024,45.9628575 L168.928024,46.1681628 L169.198373,45.9628575 Z M171.325642,45.9628575 L171.100824,45.9628575 L171.325642,46.1334727 L171.325642,45.9628575 Z M174.148617,45.8093291 C174.169693,45.8248099 174.183374,45.8497707 174.183374,45.8779269 C174.183374,45.9196832 174.153285,45.9544119 174.113606,45.9616139 L174.098317,45.9629843 L174.063156,45.9628575 L174.063156,46.1253005 L174.478937,45.8094206 L174.148617,45.8093291 Z M166.190342,45.9628575 L166.021562,45.9628575 L166.190342,46.090944 L166.190342,45.9628575 Z M161.054543,45.9628575 L160.9428,45.9628575 L161.054543,46.0477481 L161.054543,45.9628575 Z M10.1613588,43.8214121 L9.96806161,43.8214121 L9.96806161,45.4801984 L10.1613588,45.4801984 L10.1613588,43.8214121 Z M9.24507361,43.8214121 L8.81985651,43.8215789 L8.81978655,45.4801984 L9.24507361,45.4801984 L9.24507361,43.8214121 Z M9.8830042,43.8214121 L9.33013102,43.8214121 L9.33013102,45.4801984 L9.8830042,45.4801984 L9.8830042,43.8214121 Z M197.939229,37.3582362 L197.939229,44.5666818 L197.769114,44.5666818 L197.769114,37.3582362 L197.939229,37.3582362 Z M8.56461431,41.3549139 L8.26691337,41.3549139 L8.26691337,43.5662398 L8.56461431,43.5662398 L8.56461431,41.3549139 Z M9.8830042,41.3549139 L9.33013102,41.3549139 L9.33013102,43.5662398 L9.8830042,43.5662398 L9.8830042,41.3549139 Z M10.1613588,41.3549139 L9.96806161,41.3549139 L9.96806161,43.5662398 L10.1613588,43.5662398 L10.1613588,41.3549139 Z M9.24507361,41.3549139 L8.64967172,41.3549139 L8.64967172,43.5662398 L9.24507361,43.5662398 L9.24507361,41.3549139 Z M23.6799836,41.6259302 L22.3959502,41.6259302 L22.3959502,42.2670296 L23.7211489,42.2670826 C23.7006869,42.2546996 23.6858635,42.2339358 23.6814373,42.2095496 L23.6800669,42.1942604 L23.6799836,41.6259302 Z M69.0025756,41.3477424 L66.605124,41.3477424 L66.605124,42.0046858 L69.0025756,42.0046858 L69.0025756,41.3477424 Z M66.4350092,41.3477424 L64.5589095,41.3477424 L64.5589095,42.0046858 L66.4350092,42.0046858 L66.4350092,41.3477424 Z M24.750206,41.6259302 L24.6581438,41.6259302 L24.6581438,41.8999485 L24.750206,41.6259302 Z M23.9566704,40.860747 L22.3959502,40.860747 L22.3959502,41.4558153 L23.6799836,41.4558153 L23.6800669,40.9983532 C23.6800669,40.9565969 23.710156,40.9218682 23.7498351,40.9146662 L23.7651243,40.9132958 L23.9566704,40.9132825 L23.9566704,40.860747 Z M24.7935686,40.860747 L24.3819574,40.860747 L24.3819574,40.9132825 L24.5731697,40.9132958 C24.6149261,40.9132958 24.6496548,40.9433849 24.6568568,40.983064 L24.6582272,40.9983532 L24.6581438,41.4558153 L24.7935686,41.4558153 L24.7935686,40.860747 Z M66.4350092,40.5825592 L64.5589095,40.5825592 L64.5589095,41.1776276 L66.4350092,41.1776276 L66.4350092,40.5825592 Z M69.0025756,40.5825592 L66.605124,40.5825592 L66.605124,41.1776276 L69.0025756,41.1776276 L69.0025756,40.5825592 Z M9.24507361,39.5685415 L8.64967172,39.5685415 L8.64967172,41.0997417 L9.24507361,41.0997417 L9.24507361,39.5685415 Z M8.56461431,39.5685415 L8.26691337,39.5685415 L8.26691337,41.0997417 L8.56461431,41.0997417 L8.56461431,39.5685415 Z M9.8830042,39.5685415 L9.33013102,39.5685415 L9.33013102,41.0997417 L9.8830042,41.0997417 L9.8830042,39.5685415 Z M10.1613588,39.5685415 L9.96806161,39.5685415 L9.96806161,41.0997417 L10.1613588,41.0997417 L10.1613588,39.5685415 Z M25.0075464,40.860747 L24.9636834,40.860747 L24.9636834,40.9911684 L25.0075464,40.860747 Z M24.7935686,40.1384261 L24.3819574,40.1384261 L24.3819574,40.6906322 L24.7935686,40.6906322 L24.7935686,40.1384261 Z M25.2503769,40.1384261 L24.9636834,40.1384261 L24.9636834,40.6906322 L25.0647516,40.6906322 L25.2503769,40.1384261 Z M23.9566704,40.1384261 L22.3959502,40.1384261 L22.3959502,40.6906322 L23.9566704,40.6906322 L23.9566704,40.1384261 Z M66.4350092,39.8602383 L64.5589095,39.8602383 L64.5589095,40.4124444 L66.4350092,40.4124444 L66.4350092,39.8602383 Z M69.0025756,39.8602383 L66.605124,39.8602383 L66.605124,40.4124444 L69.0025756,40.4124444 L69.0025756,39.8602383 Z M119.917442,37.7227956 L119.818085,37.723013 C119.803588,37.7344854 119.785265,37.7413348 119.765343,37.7413348 C119.74542,37.7413348 119.727098,37.7344854 119.712601,37.723013 L117.621893,37.7227956 L117.678097,38.7649991 L119.189192,39.0590087 C119.24656,39.0701646 119.288236,39.1185377 119.292129,39.1754332 L119.292142,39.1927288 L119.216052,40.3337246 L119.445124,40.3719171 L119.917442,37.7227956 Z M10.1613588,36.6340607 L9.96806161,36.6340607 L9.96806161,39.3133692 L10.1613588,39.3133692 L10.1613588,36.6340607 Z M9.8830042,36.6340607 L9.33013102,36.6340607 L9.33013102,39.3133692 L9.8830042,39.3133692 L9.8830042,36.6340607 Z M9.24507361,36.6340607 L8.64967172,36.6340607 L8.64967172,39.3133692 L9.24507361,39.3133692 L9.24507361,36.6340607 Z M8.56461431,36.6340607 L8.26691337,36.6340607 L8.26691337,39.3133692 L8.56461431,39.3133692 L8.56461431,36.6340607 Z M116.251468,37.7227956 L114.972438,37.7227956 L114.972438,38.2389774 L116.208105,38.4793062 L116.251468,37.7227956 Z M119.680282,36.9484396 L117.413252,36.9484396 L117.413252,37.4676234 L119.680282,37.4676234 L119.680282,36.9484396 Z M119.961806,36.9484396 L119.850397,36.9484396 L119.850397,37.4676234 L120.009637,37.4675659 C120.018251,37.4626409 120.027476,37.4586986 120.037149,37.4558753 L120.054664,37.4520806 L120.072911,37.4507787 L120.095563,37.4507787 L119.961806,36.9484396 Z M117.243137,36.9484396 L115.384716,36.9484396 L115.071088,37.4676234 L117.243137,37.4676234 L117.243137,36.9484396 Z M122.366595,36.9484396 L122.287375,36.9484396 L122.287375,37.4507787 L122.366595,37.4507787 L122.366595,36.9484396 Z M122.117261,36.9484396 L120.225984,36.9484396 L120.359741,37.4507787 L122.117261,37.4507787 L122.117261,36.9484396 Z M115.086682,36.9484396 L114.972438,36.9484396 L114.972438,37.1374005 L115.086682,36.9484396 Z M119.680282,36.1829229 L117.413252,36.1829229 L117.413252,36.7783248 L119.680282,36.7783248 L119.680282,36.1829229 Z M117.243137,36.1829229 L115.847362,36.1829229 L115.487619,36.7783248 L117.243137,36.7783248 L117.243137,36.1829229 Z M119.850397,36.5298237 L119.850397,36.7783248 L119.916442,36.7783248 L119.850397,36.5298237 Z M122.117261,36.1829229 L120.02218,36.1829229 L120.18062,36.7783248 L122.117261,36.7783248 L122.117261,36.1829229 Z M115.54916,36.1829229 L114.972438,36.1829229 L114.972438,36.7783248 L115.189418,36.7783248 L115.54916,36.1829229 Z M122.366595,36.1829229 L122.287375,36.1829229 L122.287375,36.7783248 L122.366595,36.7783248 L122.366595,36.1829229 Z M8.56461431,33.5486448 L8.26691337,33.5486448 L8.26691337,36.3788885 L8.56461431,36.3788885 L8.56461431,33.5486448 Z M10.1613588,33.5486448 L9.96806161,33.5486448 L9.96806161,36.3788885 L10.1613588,36.3788885 L10.1613588,33.5486448 Z M9.24507361,33.5486448 L8.64967172,33.5486448 L8.64967172,36.3788885 L9.24507361,36.3788885 L9.24507361,33.5486448 Z M9.8830042,33.5486448 L9.33013102,33.5486448 L9.33013102,36.3788885 L9.8830042,36.3788885 L9.8830042,33.5486448 Z M29.2780956,35.6227114 L26.6723367,35.6227114 L26.6723367,36.3300222 L29.2780956,36.3300222 L29.2780956,35.6227114 Z M31.8296512,35.6227114 L29.4482104,35.6227114 L29.4482104,36.3300222 L31.9027005,36.3300222 L31.9027371,35.8894648 C31.9027371,35.8640434 31.9101719,35.8403585 31.9229858,35.8204659 L31.8296512,35.6227114 Z M117.243137,35.4607688 L116.283656,35.4607688 L115.950098,36.0128081 L117.243137,36.0128081 L117.243137,35.4607688 Z M115.985455,35.4607688 L114.972438,35.4607688 L114.972438,36.0128081 L115.651896,36.0128081 L115.985455,35.4607688 Z M119.565705,35.4607688 L117.413252,35.4607688 L117.413252,36.0128081 L119.680282,36.0128081 L119.680282,35.891226 L119.565705,35.4607688 Z M122.371366,35.4607391 L122.287375,35.4607688 L122.287375,36.0128081 L122.366595,36.0128081 L122.366739,35.6581086 C122.366739,35.591662 122.368316,35.5258621 122.371366,35.4607391 Z M122.117261,35.4607688 L119.850397,35.4607688 L119.850397,35.537654 L119.976816,36.0128081 L122.117261,36.0128081 L122.117261,35.4607688 Z M68.0544356,35.2721415 L67.2627346,35.2721415 L67.1188041,35.7618053 L68.0544356,35.7618053 L68.0544356,35.2721415 Z M29.2780956,34.8575283 L26.6723367,34.8575283 L26.6723367,35.4525966 L29.2780956,35.4525966 L29.2780956,34.8575283 Z M31.4684073,34.8575283 L29.4482104,34.8575283 L29.4482104,35.4525966 L31.7494304,35.4525966 L31.4684073,34.8575283 Z M118.381572,31.4952588 L114.972438,31.4952588 L114.972438,35.2055965 L116.139726,35.2055965 L118.381572,31.4952588 Z M118.561777,31.6903905 L116.43776,35.2055965 L119.497659,35.2055965 L118.561777,31.6903905 Z M68.0544356,34.5069583 L67.487553,34.5069583 L67.3127684,35.1020266 L68.0544356,35.1020266 L68.0544356,34.5069583 Z M31.1273438,34.1352074 L29.4482104,34.1352074 L29.4482104,34.6874134 L31.3880197,34.6874134 L31.1273438,34.1352074 Z M29.2780956,34.1352074 L26.6723367,34.1352074 L26.6723367,34.6874134 L29.2780956,34.6874134 L29.2780956,34.1352074 Z M68.0544356,33.7848042 L67.6996962,33.7848042 L67.53742,34.3368435 L68.0544356,34.3368435 L68.0544356,33.7848042 Z M118.193779,29.8990147 L115.926415,29.8990147 L115.926415,30.4830756 L118.193779,30.4830756 L118.193779,29.8990147 Z M115.7563,29.8990147 L113.931068,29.8990147 L113.931068,30.4830756 L115.7563,30.4830756 L115.7563,29.8990147 Z M112.655541,29.8990147 L111.051958,29.8990147 L111.051958,30.4830756 L112.655541,30.4830756 L112.655541,29.8990147 Z M120.630757,29.8990147 L118.363894,29.8990147 L118.363894,30.4830756 L120.630757,30.4830756 L120.630757,29.8990147 Z M115.7563,29.133498 L113.931068,29.133498 L113.931068,29.7288999 L115.7563,29.7288999 L115.7563,29.133498 Z M118.193779,29.133498 L115.926415,29.133498 L115.926415,29.7288999 L118.193779,29.7288999 L118.193779,29.133498 Z M112.655541,29.133498 L111.051958,29.133498 L111.051958,29.7288999 L112.655541,29.7288999 L112.655541,29.133498 Z M120.630757,29.133498 L118.363894,29.133498 L118.363894,29.7288999 L120.630757,29.7288999 L120.630757,29.133498 Z M112.655541,28.4111771 L111.051958,28.4111771 L111.051958,28.9633831 L112.655541,28.9633831 L112.655541,28.4111771 Z M120.630757,28.4111771 L118.363894,28.4111771 L118.363894,28.9633831 L120.630757,28.9633831 L120.630757,28.4111771 Z M115.7563,28.4111771 L113.931068,28.4111771 L113.931068,28.9633831 L115.7563,28.9633831 L115.7563,28.4111771 Z M118.193779,28.4111771 L115.926415,28.4111771 L115.926415,28.9633831 L118.193779,28.9633831 L118.193779,28.4111771 Z M62.1351069,24.3297555 L61.6979785,24.3297555 L61.6979785,24.9006409 L62.1351069,24.9006409 L62.1351069,24.3297555 Z M63.2490254,24.3297555 L62.4501528,24.3297555 L62.4501528,24.9006409 L63.2490254,24.9006409 L63.2490254,24.3297555 Z M57.1445717,24.3297555 L54.7469533,24.3297555 L54.7469533,24.9006409 L57.1445717,24.9006409 L57.1445717,24.3297555 Z M54.5768385,24.3297555 L52.1790533,24.3297555 L52.1790533,24.9006409 L54.5768385,24.9006409 L54.5768385,24.3297555 Z M62.280038,24.3297555 L62.2201643,24.3297555 L62.2201643,24.9006409 L62.280038,24.9006409 L62.280038,24.3297555 Z M69.0107478,21.9811703 L68.454539,24.9006409 L69.0938039,24.9006409 L69.5888046,22.0772351 L69.0107478,21.9811703 Z M64.1723153,24.3297555 L63.3340828,24.3297555 L63.3340828,24.9006409 L64.0353895,24.9006409 L64.1723153,24.3297555 Z M61.2188217,24.3297555 L61.1916367,24.3297555 L61.1916367,24.9006409 L61.2188217,24.9006409 L61.2188217,24.3297555 Z M69.6728614,22.0912446 L69.1801955,24.9006409 L69.963224,24.9006409 L70.4337083,22.2176632 L69.6728614,22.0912446 Z M58.4629615,24.3297555 L57.3146865,24.3297555 L57.3146865,24.9006409 L58.4629615,24.9006409 L58.4629615,24.3297555 Z M61.6129211,24.3297555 L61.3038791,24.3297555 L61.3038791,24.9006409 L61.6129211,24.9006409 L61.6129211,24.3297555 Z M60.9364645,24.3297555 L59.8824197,24.3297555 L59.8824197,24.8135821 L60.9365478,24.8135821 L60.9364645,24.3297555 Z M59.7123048,24.3297555 L58.7181338,24.3297555 L58.7182171,24.8135821 L59.7123048,24.8135821 L59.7123048,24.3297555 Z M42.9529091,22.6551252 L40.6931339,22.6551252 L40.6931339,24.6636476 L42.9529091,22.6551252 Z M62.1351069,23.5642388 L61.6979785,23.5642388 L61.6979785,24.1596407 L62.1351069,24.1596407 L62.1351069,23.5642388 Z M61.6129211,23.5642388 L61.3038791,23.5642388 L61.3038791,24.1596407 L61.6129211,24.1596407 L61.6129211,23.5642388 Z M60.7449283,23.5642981 L59.8824197,23.5642388 L59.8824197,24.1596407 L60.9362211,24.1596603 C60.9307079,23.9392177 60.8609337,23.7347501 60.7449283,23.5642981 Z M58.6135898,23.5642388 L57.3146865,23.5642388 L57.3146865,24.1596407 L58.4633911,24.1597089 C58.467738,23.9454585 58.5214391,23.7433329 58.6135898,23.5642388 Z M61.2188217,23.5642388 L61.0412618,23.5642388 C61.1294352,23.7356034 61.1824065,23.9280538 61.1906227,24.1320362 L61.1911364,24.1596407 L61.2188217,24.1596407 L61.2188217,23.5642388 Z M57.1445717,23.5642388 L54.7469533,23.5642388 L54.7469533,24.1596407 L57.1445717,24.1596407 L57.1445717,23.5642388 Z M64.356106,23.5642388 L63.3340828,23.5642388 L63.3340828,24.1596407 L64.2131762,24.1596407 L64.356106,23.5642388 Z M59.7123048,23.5642388 L58.9099232,23.5642981 C58.7982752,23.7283478 58.7294505,23.9239056 58.7195228,24.1348887 L58.7188009,24.1596407 L59.7123048,24.1596407 L59.7123048,23.5642388 Z M63.2490254,23.5642388 L62.4501528,23.5642388 L62.4501528,24.1596407 L63.2490254,24.1596407 L63.2490254,23.5642388 Z M54.5768385,23.5642388 L52.1790533,23.5642388 L52.1790533,24.1596407 L54.5768385,24.1596407 L54.5768385,23.5642388 Z M62.280038,23.5642388 L62.2201643,23.5642388 L62.2201643,24.1596407 L62.280038,24.1596407 L62.280038,23.5642388 Z M63.2490254,22.8419179 L62.4501528,22.8419179 L62.4501528,23.394124 L63.2490254,23.394124 L63.2490254,22.8419179 Z M57.1445717,22.8419179 L54.7469533,22.8419179 L54.7469533,23.394124 L57.1445717,23.394124 L57.1445717,22.8419179 Z M62.280038,22.8419179 L62.2201643,22.8419179 L62.2201643,23.394124 L62.280038,23.394124 L62.280038,22.8419179 Z M59.8824197,23.0799119 L59.8824197,23.394124 L60.6023687,23.3941396 C60.4197275,23.2157027 60.1757315,23.0998267 59.9049752,23.0811265 L59.8824197,23.0799119 Z M54.5768385,22.8419179 L52.1790533,22.8419179 L52.1790533,23.394124 L54.5768385,23.394124 L54.5768385,22.8419179 Z M62.1351069,22.8419179 L61.6979785,22.8419179 L61.6979785,23.394124 L62.1351069,23.394124 L62.1351069,22.8419179 Z M59.6021023,22.8418046 L57.3146865,22.8419179 L57.3146865,23.394124 L58.7174767,23.3941846 C58.9234578,23.1065051 59.2384564,22.9022398 59.6021023,22.8418046 Z M59.7124573,23.0843441 C59.4566656,23.1106869 59.2266708,23.2239614 59.0524829,23.3941396 L59.7123048,23.394124 L59.7124573,23.0843441 Z M64.5295564,22.8419179 L63.3340828,22.8419179 L63.3340828,23.394124 L64.3969669,23.394124 L64.5295564,22.8419179 Z M60.0526657,22.8417907 C60.4163469,22.9022084 60.7313779,23.106483 60.9373749,23.3941846 L61.2188217,23.394124 L61.2188217,22.8419179 L60.0526657,22.8417907 Z M61.6129211,22.8419179 L61.3038791,22.8419179 L61.3038791,23.394124 L61.6129211,23.394124 L61.6129211,22.8419179 Z M65.0664188,20.6055751 L63.3340828,20.6055751 L63.3340828,22.4945168 L63.4042601,22.4946235 C63.4624237,22.4946235 63.511497,22.5335437 63.5268573,22.5867613 L64.5907644,22.5867613 L65.0664188,20.6055751 Z M62.1351069,20.6055751 L61.6979785,20.6055751 L61.6979785,22.4945168 L62.1351069,22.4945168 L62.1351069,20.6055751 Z M63.2490254,20.6055751 L62.2201643,20.6055751 L62.2201643,22.4945168 L63.2490254,22.4945168 L63.2490254,20.6055751 Z M61.6129211,20.6055751 L61.3038791,20.6055751 L61.3038791,22.4945168 L61.6129211,22.4945168 L61.6129211,20.6055751 Z M70.0397757,19.9983319 L69.7168911,21.8399083 L70.477738,21.9663269 L70.8006226,20.1247505 L70.0397757,19.9983319 Z M69.4085163,19.8934277 L69.0584467,21.7305011 L69.6330011,21.8258988 L69.9558858,19.9843224 L69.4085163,19.8934277 Z M62.1351069,17.9783017 L61.6979785,17.9783017 L61.6979785,20.3504029 L62.1351069,20.3504029 L62.1351069,17.9783017 Z M61.6129211,17.9783017 L61.3038791,17.9783017 L61.3038791,20.3504029 L61.6129211,20.3504029 L61.6129211,17.9783017 Z M63.2490254,17.9783017 L62.2201643,17.9783017 L62.2201643,20.3504029 L63.2490254,20.3504029 L63.2490254,17.9783017 Z M65.6970111,17.9783017 L63.3340828,17.9783017 L63.3340828,20.3504029 L65.1276268,20.3504029 L65.6970111,17.9783017 Z M71.2129009,17.7741639 L70.4298724,17.7741639 L70.0839722,19.7469956 L70.8448191,19.8734142 L71.2129009,17.7741639 Z M70.3434807,17.7741639 L69.8207946,17.7741639 C69.8181833,17.7916746 69.8121035,17.8077304 69.8033634,17.8218838 L69.4562152,19.6425918 L70.0000823,19.7329861 L70.3434807,17.7741639 Z M61.6129211,14.1640605 L61.3038791,14.1640605 L61.3038791,17.7231295 L61.6129211,17.7231295 L61.6129211,14.1640605 Z M63.2490254,14.1640605 L62.2201643,14.1640605 L62.2201643,17.7231295 L63.2490254,17.7231295 L63.2490254,14.1640605 Z M62.1351069,14.1640605 L61.6979785,14.1640605 L61.6979785,17.7231295 L62.1351069,17.7231295 L62.1351069,14.1640605 Z M63.339253,12.9272257 L63.3340828,12.9272257 L63.3340828,13.9088883 L63.4042601,13.9089283 C63.474724,13.9089283 63.5318462,13.9660506 63.5318462,14.0365144 C63.5318462,14.1011063 63.4838477,14.1544875 63.4215728,14.1629358 L63.4042601,14.1641005 L63.3340828,14.1640605 L63.3340828,17.7231295 L64.5178819,17.7231295 L63.339253,12.9272257 Z M71.780951,16.0421615 L70.0883085,16.0421615 L69.9725637,16.7913339 L71.7917497,16.7915102 C71.7873073,16.7835333 71.7841112,16.7747672 71.7824247,16.7654753 L71.7810543,16.7501861 L71.780951,16.0421615 Z M71.780951,15.2769784 L70.2063882,15.2769784 L70.1144928,15.8720467 L71.780951,15.8720467 L71.780951,15.2769784 Z M71.780951,14.5546575 L70.3179635,14.5546575 L70.2327393,15.1068636 L71.780951,15.1068636 L71.780951,14.5546575 Z M61.6977934,12.8450428 L61.6979785,13.9088883 L62.1351069,13.9088883 L62.1351069,12.9272257 L61.8170888,12.9273658 C61.7591221,12.9273658 61.715428,12.8912633 61.6977934,12.8450428 Z M61.6129211,10.7464203 L61.3038791,10.7464203 L61.3038791,13.9088883 L61.6129211,13.9088883 L61.6129211,10.7464203 Z M63.2490254,12.9272257 L62.2201643,12.9272257 L62.2201643,13.9088883 L63.2490254,13.9088883 L63.2490254,12.9272257 Z M110.96063,13.6350828 C110.990837,13.6548772 111.012138,13.6871427 111.017214,13.7245629 L111.018379,13.7418755 L111.018269,13.7841374 L111.506849,13.7843042 L111.506849,13.6353703 L110.96063,13.6350828 Z M110.821059,13.6350152 L110.27385,13.6353703 L110.27385,13.7843042 L110.763097,13.7841374 L110.763207,13.7418755 C110.763207,13.6971469 110.786223,13.6577942 110.821059,13.6350152 Z M62.1351069,10.7464203 L61.6979785,10.7464203 L61.6977589,12.7538397 C61.7009654,12.7456471 61.705112,12.7376222 61.7102542,12.7298879 L61.7210927,12.7157381 L62.1351069,12.2425969 L62.1351069,10.7464203 Z M62.4263034,10.7464203 L62.2201643,10.7464203 L62.2201643,12.1453646 L62.5151887,11.8086859 C62.5287013,11.7932512 62.5455623,11.7814877 62.5642145,11.7741018 L62.5642298,10.9577296 L62.5114975,10.9577763 C62.4697411,10.9577763 62.4350124,10.9276872 62.4278105,10.8880081 L62.4264401,10.8727189 L62.4263034,10.7464203 Z M68.5487693,5.24287219 L68.5487693,11.7651079 L68.845136,11.7651079 L68.845136,5.40431449 L68.5487693,5.24287219 Z M63.6426244,9.70871989 L63.1122664,9.70871989 L63.1122664,10.3391454 L63.2838188,10.3392388 C63.3255752,10.3392388 63.3603038,10.3693279 63.3675058,10.4090071 L63.3688762,10.4242962 L63.3687729,10.4912481 L63.4042601,10.4913215 C63.474724,10.4913215 63.5318462,10.5484437 63.5318462,10.6189076 C63.5318462,10.6834995 63.4838477,10.7368807 63.4215728,10.745329 L63.4042601,10.7464937 L63.3687729,10.7464203 L63.3688762,10.8727189 C63.3688762,10.9008015 63.3552668,10.9257055 63.3342836,10.9411952 L63.3340828,11.7651079 L63.8310849,11.7651079 L63.8310849,10.3254695 L63.7278185,10.3256296 C63.6860621,10.3256296 63.6513334,10.2955405 63.6441315,10.2558614 L63.6427611,10.2405722 L63.6426244,9.70871989 Z M63.2490254,10.9577296 L63.2313468,10.9577296 L63.2313468,11.7651079 L63.2490254,11.7651079 L63.2490254,10.9577296 Z" id="path-1"></path>
    </defs>
    <g id="Silhouettes/HMS-Protector" stroke="none" stroke-width="1" fill="none" fill-rule="evenodd">
        <mask id="mask-2" fill="white">
            <use xlink:href="#path-1"></use>
        </mask>
        <use fill="#3E5667" xlink:href="#path-1"></use>
    </g>
</svg>