<?xml version="1.0" encoding="UTF-8"?>
<svg width="200px" height="60px" viewBox="0 0 200 60" version="1.1" xmlns="http://www.w3.org/2000/svg" xmlns:xlink="http://www.w3.org/1999/xlink">
    <title>Silhouettes/Hunt Class MCMV</title>
    <defs>
        <path d="M92.3259447,0 C92.4072514,0 92.474874,0.0577792191 92.4888975,0.13397396 L92.4915659,0.163333333 L92.491324,9.64 L92.7619678,9.64 C92.8432745,9.64 92.9108972,9.69777922 92.9249206,9.77397396 L92.927589,9.80333333 L92.9273471,12.3266667 L93.2926316,12.3266667 C93.3739383,12.3266667 93.441561,12.3844459 93.4555844,12.4606406 L93.4582528,12.49 L93.4582528,13.6766667 C93.4582528,13.7568502 93.3996643,13.8235387 93.3224022,13.8373685 L93.2926316,13.84 L92.9273471,13.84 L92.9273471,16.4266667 L93.0120896,16.4266667 C93.0321109,16.4266667 93.0513396,16.4301804 93.0691554,16.4366308 L94.9894038,16.4366667 C95.0707106,16.4366667 95.1383332,16.4944459 95.1523567,16.5706406 L95.155025,16.6 L95.155025,20.63 C95.155025,20.7101836 95.0964365,20.7768721 95.0191745,20.7907018 L94.9894038,20.7933333 L93.4262387,20.7933333 L94.1076516,32.32 L101.61739,32.32 L101.617632,31.5533333 C101.617632,31.4731498 101.67622,31.4064613 101.753482,31.3926315 L101.783253,31.39 L105.737881,31.39 C105.819188,31.39 105.886811,31.4477792 105.900834,31.523974 L105.903502,31.5533333 L105.903261,32.32 L106.484287,32.32 L106.887286,24.1720408 C106.888122,24.155153 106.891537,24.1389675 106.897145,24.123848 L107.078496,23.0205842 C107.082111,22.9985463 107.090094,22.9781357 107.101486,22.960156 L108.957932,19.0737379 C108.981355,19.0246916 109.027586,18.990856 109.080705,18.9821896 L109.107766,18.98 L117.743728,18.98 C117.786734,18.98 117.827599,18.9964676 117.85812,19.0252148 L117.878942,19.0490122 L120.666466,22.9348152 C120.681199,22.9502656 120.692954,22.9686045 120.700746,22.9890044 L120.709339,23.0210466 L120.88753,24.1246683 L120.893495,24.1451639 L120.896742,24.1667148 L121.188407,27.69 L121.620616,27.69 L121.635922,27.6913333 L121.654386,27.6969191 L121.654386,27.6969191 L121.666927,27.7036188 L121.666927,27.7036188 L121.679521,27.713585 L121.679521,27.713585 L121.691854,27.7284946 L121.691854,27.7284946 L121.699203,27.7426465 L121.699203,27.7426465 L121.702884,27.7542258 L121.702884,27.7542258 L121.705116,27.7733333 L121.704874,30.7366667 L121.779477,30.7366667 C121.860783,30.7366667 121.928406,30.7944459 121.94243,30.8706406 L121.945098,30.9 L121.945098,35.3833333 C121.945098,35.4560299 121.89694,35.5176339 121.830369,35.5388106 L121.829935,40.5633333 L133.345678,40.5633333 L133.34592,37.2433333 C133.34592,37.1932186 133.368806,37.1483754 133.404834,37.118414 L133.427949,37.1022998 L133.445631,37.0936667 L140.037407,26.9253566 C140.058221,26.8932475 140.089374,26.8698506 140.125,26.8582407 L140.152466,26.8517913 L140.181059,26.8500503 L141.134226,26.8733836 C141.250562,26.8762315 141.324665,26.9917291 141.285336,27.0939025 L141.273099,27.1190954 L135.022074,37.6646667 L135.021832,38.3033333 L137.44589,38.3033333 C137.527196,38.3033333 137.594819,38.3611126 137.608842,38.4373073 L137.611511,38.4666667 L137.611269,40.5633333 L141.379996,40.5633333 L141.380238,40.4933333 C141.380238,40.4626749 141.388803,40.4339894 141.403703,40.4094771 L141.403662,37.8099525 C141.070991,37.6169986 140.782961,37.2825208 140.785327,36.9466667 C140.785327,36.4452453 141.425307,35.9565184 141.902361,35.9279467 L141.952814,35.9266667 L144.026555,35.934 L144.026555,35.1066667 L142.414525,35.1066667 C142.337093,35.1066667 142.271425,35.0540853 142.25364,34.9822035 L142.249285,34.9544081 L142.059623,32.1966667 C142.059623,31.024944 143.161733,30.09 144.51352,30.09 C145.837145,30.09 146.921388,30.9863938 146.965633,32.1341455 L146.967037,32.2077414 L146.777756,34.9544081 C146.772505,35.030595 146.714858,35.0916416 146.640931,35.1042669 L146.612516,35.1066667 L145.003382,35.1066667 L145.003382,35.9373333 L155.454417,35.9736667 L155.454659,35.9466667 C155.454659,35.3724582 155.955309,34.9054157 156.579438,34.8749176 L156.644428,34.8733333 L160.369215,34.8733333 C161.001411,34.8733333 161.523134,35.3212355 161.557213,35.8876616 L161.558983,35.9466667 L161.558983,36.15 C161.558983,36.4025296 161.463157,36.634129 161.303004,36.8172937 C161.421819,36.9528105 161.505369,37.115301 161.540474,37.2932685 L171.172852,37.293396 C171.47874,36.182169 172.509378,35.3666667 173.733831,35.3666667 C174.686903,35.3666667 175.521518,35.8608918 175.988387,36.6044046 L175.988115,36.1888106 C175.931054,36.1706591 175.887522,36.122806 175.876248,36.0637243 L175.873386,36.0333333 L175.873386,35.0033333 C175.873386,34.1847935 176.544112,33.5233333 177.377497,33.5233333 C178.180434,33.5233333 178.842769,34.1506042 178.879961,34.9338322 L178.881608,35.0033333 L178.881608,36.0333333 C178.881608,36.1072375 178.831837,36.1696774 178.763547,36.1898324 L178.763307,36.64 C178.763307,36.7201836 178.704719,36.7868721 178.627457,36.8007018 L178.597686,36.8033333 L177.779478,36.8033333 L177.779478,37.2933333 L177.877499,37.2933333 L177.877741,37.2833333 C177.877741,37.2031498 177.936329,37.1364613 178.013591,37.1226315 L178.043362,37.12 L180.480359,37.12 C180.561666,37.12 180.629289,37.1777792 180.643312,37.253974 L180.645981,37.2833333 L180.645981,40.52 C180.645981,40.5876874 180.60423,40.6457583 180.544741,40.6705335 L180.54458,41.57 C180.54458,41.6501836 180.485991,41.7168721 180.408729,41.7307018 L180.378959,41.7333333 L179.969734,41.7333333 L179.969734,46.5466667 L194.169216,46.5466667 L194.169458,45.4933333 C194.169458,45.4131498 194.228047,45.3464613 194.305309,45.3326315 L194.335079,45.33 L196.757977,45.33 L196.758219,44.8146667 L180.251969,45.2899305 C180.144789,45.2930154 180.068354,45.198784 180.08309,45.1026984 L180.089414,45.076519 L180.100532,45.0506779 L180.482475,44.3340112 C180.504347,44.2929713 180.542618,44.2634329 180.587293,44.2519481 L180.614787,44.2472761 L196.690182,42.8739428 C196.721999,42.8712247 196.753695,42.8776485 196.781573,42.8921081 L196.808041,42.9092054 L198.372992,44.145872 C198.404374,44.1706708 198.425261,44.2056402 198.432361,44.2440173 L198.435049,44.2733333 L198.434807,46.5466667 L199.171894,46.5466667 C199.253201,46.5466667 199.320823,46.6044459 199.334847,46.6806406 L199.337515,46.71 L199.337515,50.2633333 C199.337515,50.3435169 199.278927,50.4102054 199.201665,50.4240351 L199.171894,50.4266667 L199.033071,50.4266667 L199.033071,50.66 L199.422016,50.66 C199.724126,50.66 199.972562,50.8880276 199.997876,51.1806581 L200,51.23 C200,51.5270377 199.766601,51.7728461 199.471705,51.7978978 L199.422016,51.8 L199.256153,51.8 L199.256395,59.12 C199.256395,59.2001836 199.197806,59.2668721 199.120544,59.2807018 L199.090773,59.2833333 L9.26522656,59.2833333 C9.2125039,59.2833333 9.16361961,59.2586489 9.1327094,59.2179822 L9.11643326,59.191734 L7.92923836,56.7967519 L7.92923836,56.7967519 L1.0143453,42.8296667 L0.563554833,42.8165961 C0.258325585,42.8077427 0.0178567293,42.5744668 0,42.2782509 L0,42.2283265 C0.0103810353,41.9090135 0.257123195,41.647591 0.575212576,41.6764129 L0.609080386,41.6806667 L1.09884591,41.6943333 L1.09908776,38.66 C1.09908776,38.6371668 1.10839952,38.6164784 1.1234823,38.6014267 L1.14035762,38.5883832 C1.15580339,38.5743621 1.17678072,38.5660378 1.19960493,38.566703 L12.4781975,38.8896748 L20.9184517,39.1251727 L28.3374782,39.3277968 C30.1860281,39.377736 32.0280169,39.4270733 33.8591557,39.4756642 C33.86357,39.4672234 33.869334,39.4594831 33.8757267,39.4523006 L33.8900508,39.4380623 L33.8900508,39.4380623 L34.6760077,38.8373333 L34.6762495,38.52 C34.6762495,38.4398164 34.7348381,38.3731279 34.8121001,38.3592982 L34.8418707,38.3566667 L35.3060442,38.3566667 L35.690353,38.0633333 L35.5111156,38.0633333 C35.4298088,38.0633333 35.3621862,38.0055541 35.3481627,37.9293594 L35.3454944,37.9 L35.3452525,37.8833333 L34.7168098,37.8833333 C34.6678564,37.8833333 34.6238635,37.8623881 34.593543,37.8290891 L28.9969457,37.7999978 C28.9159395,37.7995815 28.848765,37.7418654 28.8348374,37.6659231 L28.8321875,37.6366667 L28.8321875,37.49 C28.8321875,37.4100871 28.8903958,37.3435288 28.9673557,37.3294231 L28.9970176,37.3266685 L34.5944916,37.2998779 C34.6187203,37.273719 34.6514618,37.2553592 34.6883932,37.2490616 L34.7168098,37.2466667 L35.3452525,37.2466667 L35.3454944,37.2266667 C35.3454944,37.1464831 35.4040829,37.0797946 35.4813449,37.0659649 L35.5111156,37.0633333 L35.9031984,37.0633333 C35.9369765,37.0633333 35.9683929,37.0733055 35.9945856,37.0904275 L35.994459,37.05 C35.994459,36.9698164 36.0530476,36.9031279 36.1303096,36.8892982 L36.1600802,36.8866667 L36.5555431,36.8863333 L36.5555431,36.87 C36.5555431,36.7998394 36.6003999,36.7400109 36.6633737,36.7168852 L36.6913936,36.7092982 L36.7211643,36.7066667 L37.0964431,36.7066667 L37.1655526,36.3135118 L37.1655526,36.3135118 L37.1703756,36.2979601 L37.4407776,35.5579601 C37.4683295,35.4825596 37.5463192,35.4394081 37.6237343,35.4521798 L37.6526385,35.4596369 L39.109429,35.9763035 C39.1859735,36.0034509 39.2297787,36.0804431 39.2167788,36.1568476 L39.2091941,36.1853732 L39.018325,36.7066667 L39.2223823,36.7066667 C39.273199,36.7066667 39.3186703,36.7292367 39.3490514,36.7647664 L39.3653913,36.7875625 L39.3727934,36.8026667 L39.3801954,36.7875625 C39.3993596,36.7552992 39.4294289,36.7300999 39.4654138,36.7168852 L39.4934338,36.7092982 L39.5232044,36.7066667 L39.9355674,36.7066667 C40.0168741,36.7066667 40.0844968,36.7644459 40.0985202,36.8406406 L40.1011886,36.87 L40.1011886,37.0663333 L40.8414139,37.0666667 C40.9125573,37.0666667 40.9732238,37.1109039 40.9966734,37.1730077 L41.0043667,37.2006406 L41.0050071,37.2063333 L41.1861764,37.2066667 C41.2573198,37.2066667 41.3179863,37.2509039 41.3414359,37.3130077 L41.3491292,37.3406406 L41.3517976,37.37 L41.3517976,37.7533333 C41.3517976,37.8335169 41.2932091,37.9002054 41.215947,37.9140351 L41.1861764,37.9166667 L40.991825,37.9163333 L40.985365,37.9307762 C40.9760923,37.9468415 40.9640872,37.9613072 40.9498277,37.9734874 L40.9268073,37.989958 L40.9007638,38.0024861 L40.231519,38.2558194 L40.1721691,38.2666667 L39.1403895,38.2664464 C39.177768,38.2904997 39.2046868,38.3290396 39.2129558,38.3739846 L39.2156222,38.4033333 L39.2153804,39.6153333 L43.9074662,39.7373857 C47.7721751,39.8360099 51.4348629,39.9269055 54.8772711,40.0094617 C55.1536476,39.7593832 55.5266562,39.6066667 55.9366026,39.6066667 C56.3743295,39.6066667 56.7699428,39.7807825 57.0512057,40.0613002 L57.8896865,40.0808903 L57.8896865,40.0808903 C57.823781,39.7120373 57.788856,39.3251133 57.788856,38.9266667 C57.788856,37.3998145 58.3005246,36.0435157 59.0934607,35.2234218 L59.0933035,34.8566667 L58.8163834,34.8566667 C58.7440092,34.8566667 58.6813436,34.8105904 58.6592263,34.7449393 L58.6523199,34.7156819 L58.1588363,31.1923485 C58.1464628,31.104005 58.2078647,31.0242775 58.2935183,31.0092155 L58.3228998,31.0066667 L58.9875088,31.0066667 L58.2646101,26.9918886 C58.248395,26.9018295 58.3099801,26.818447 58.3975859,26.8026711 L58.4276806,26.8 L60.0971707,26.8 L60.0971707,23.37 L59.2794467,23.37 C59.19814,23.37 59.1305174,23.3122208 59.1164939,23.236026 L59.1138255,23.2066667 L59.1136335,22.7554773 C59.0565729,22.7373258 59.0130399,22.6894726 59.0017664,22.630391 L58.9989047,22.6 L58.9989047,21.57 C58.9989047,20.7525481 59.6719078,20.09 60.5030155,20.09 C61.3103773,20.09 61.96854,20.715229 62.0054902,21.5003239 L62.0071263,21.57 L62.0071263,22.6 C62.0071263,22.6726965 61.9589682,22.7343005 61.8923975,22.7554773 L61.8922055,23.2066667 C61.8922055,23.2868502 61.833617,23.3535387 61.7563549,23.3673685 L61.7265843,23.37 L60.9083766,23.37 L60.9083766,26.8 L69.5071585,26.8 L69.5074004,26.0833333 C69.5074004,26.0031498 69.5659889,25.9364613 69.6432509,25.9226315 L69.6730215,25.92 L70.5786262,25.92 L70.5786262,23.3133333 L69.6730215,23.3133333 C69.5917148,23.3133333 69.5240922,23.2555541 69.5100687,23.1793594 L69.5074004,23.15 L69.5071585,22.6466667 L65.992175,22.6466667 C65.9108683,22.6466667 65.8432457,22.5888874 65.8292222,22.5126927 L65.8265538,22.4833333 L65.8265538,21.9133333 C65.8265538,21.8331498 65.8851424,21.7664613 65.9624044,21.7526315 L65.992175,21.75 L76.0139472,21.75 C76.0952539,21.75 76.1628766,21.8077792 76.1769,21.883974 L76.1795684,21.9133333 L76.1795684,22.4833333 C76.1795684,22.5635169 76.1209798,22.6302054 76.0437178,22.6440351 L76.0139472,22.6466667 L72.49848,22.6466667 L72.4987219,23.15 C72.4987219,23.2301836 72.4401333,23.2968721 72.3628713,23.3107018 L72.3331007,23.3133333 L71.4303924,23.3133333 L71.4303924,25.92 L72.3297207,25.92 C72.4110274,25.92 72.47865,25.9777792 72.4926735,26.053974 L72.4953419,26.0833333 L72.4951,26.8 L74.3949155,26.8 C74.4867169,26.8 74.5588809,26.8729444 74.5605461,26.959928 L74.5584203,26.9893618 L73.88429,31.1066667 L76.2063667,31.1066667 L76.2066086,29.4966667 C76.2066086,29.4164831 76.2651971,29.3497946 76.3424592,29.3359649 L76.3722298,29.3333333 L77.1257334,29.3333333 L77.1259752,27.58 C77.1259752,27.4998164 77.1845638,27.4331279 77.2618258,27.4192982 L77.2915964,27.4166667 L79.5156524,27.4166667 C79.5969591,27.4166667 79.6645818,27.4744459 79.6786052,27.5506406 L79.6812736,27.58 L79.6810318,29.3333333 L81.1919026,29.3333333 L81.1921445,28.82 C81.1921445,26.7239669 82.0125117,25.9492165 84.0291899,25.9239737 L84.1327657,25.9233333 L84.6363893,25.9233333 C84.717696,25.9233333 84.7853186,25.9811126 84.7993421,26.0573073 L84.8020105,26.0866667 L84.8020105,28.3933333 C84.8020105,28.4723778 84.7450151,28.5385117 84.6690325,28.5534895 L84.6397233,28.5566336 L84.1327657,28.5666667 C84.0040785,28.5666667 83.8954657,28.6637367 83.8782572,28.7860653 L83.8758838,28.82 L83.873952,29.3333333 L85.5960744,29.3333333 L85.5963162,29.03 C85.5963162,27.2937285 86.2825409,26.6437025 87.9498162,26.6206392 L88.0434538,26.62 L88.4591968,26.62 C88.5405035,26.62 88.6081262,26.6777792 88.6221496,26.753974 L88.624818,26.7833333 L88.624818,28.68 C88.624818,28.7592633 88.5675181,28.825505 88.4912881,28.8402651 L88.4618895,28.8433117 L88.0434538,28.85 C87.9546755,28.85 87.8805937,28.9156155 87.8666651,29.0009047 L87.8643125,29.03 L87.8627187,29.3333333 L89.0460652,29.3333333 L90.0489184,18.0526667 L87.7665571,17.4375519 C87.7035507,17.4205651 87.6574405,17.3690436 87.6468974,17.3071101 L87.644611,17.28 L87.644611,16.59 C87.644611,16.5098164 87.7031995,16.4431279 87.7804615,16.4292982 L87.8102321,16.4266667 L88.0601121,16.4266667 L88.0603539,14.5333333 C88.0603539,14.4531498 88.1189425,14.3864613 88.1962045,14.3726315 L88.2259751,14.37 L89.5306645,14.37 C89.6119713,14.37 89.6795939,14.4277792 89.6936173,14.503974 L89.6962857,14.5333333 L89.6960439,16.4266667 L91.0142534,16.4266667 L91.0142534,14.6523333 L89.4669148,14.2376072 C89.4038195,14.2206823 89.3576187,14.1691318 89.3470543,14.1071378 L89.3447632,14.08 L89.3447632,13.6633333 C89.3447632,13.5831498 89.4033517,13.5164613 89.4806138,13.5026315 L89.5103844,13.5 L89.5946432,13.5 L89.594885,12.43 C89.594885,12.3498164 89.6534735,12.2831279 89.7307356,12.2692982 L89.7605062,12.2666667 L90.5412918,12.2666667 C90.6225985,12.2666667 90.6902212,12.3244459 90.7042446,12.4006406 L90.706913,12.43 L90.7066712,13.5 L91.0142534,13.5 L91.0142534,11.517 L89.4500146,11.0976072 C89.3869194,11.0806823 89.3407185,11.0291318 89.3301542,10.9671378 L89.3278631,10.94 L89.3278631,10.5233333 C89.3278631,10.4431498 89.3864516,10.3764613 89.4637136,10.3626315 L89.4934843,10.36 L89.574363,10.36 L89.5746049,9.29 C89.5746049,9.20981644 89.6331934,9.14312793 89.7104554,9.12929819 L89.740226,9.12666667 L90.5210117,9.12666667 C90.6023184,9.12666667 90.669941,9.18444589 90.6839645,9.26064063 L90.6866329,9.29 L90.686391,10.36 L91.0142534,10.36 L91.0144952,9.80333333 C91.0144952,9.72314977 91.0730838,9.65646127 91.1503458,9.64263152 L91.1801164,9.64 L91.4536565,9.64 L91.4538984,0.163333333 C91.4538984,0.0831497697 91.5124869,0.0164612657 91.589749,0.00263151867 L91.6195196,0 L92.3259447,0 Z M153.365562,50.4266667 L147.656789,50.4268389 C147.860378,50.5592954 148.084301,50.6404997 148.328362,50.6569099 L148.420829,50.66 L153.365562,50.66 L153.365562,50.4266667 Z M194.804661,50.4266667 L194.000215,50.4266667 L194.000215,50.66 L194.804661,50.66 L194.804661,50.4266667 Z M178.786725,50.4266667 L175.548662,50.4266667 L175.548662,50.66 L178.786725,50.66 L178.786725,50.4266667 Z M183.59312,50.4266667 L179.969734,50.4266667 L179.969734,50.66 L183.59312,50.66 L183.59312,50.4266667 Z M197.850063,50.4266667 L197.562761,50.4266667 L197.562761,50.66 L197.850063,50.66 L197.850063,50.4266667 Z M191.871041,48.22 L185.594336,48.22 C185.440708,48.22 185.314379,48.3317997 185.295853,48.4765145 L185.293514,48.5133333 L185.293514,50.2633333 C185.293514,50.3435169 185.234926,50.4102054 185.157664,50.4240351 L185.127893,50.4266667 L184.776129,50.4266667 L184.776129,50.66 L186.942386,50.66 L186.939586,49.2270077 C186.939417,49.1468425 186.997838,49.0800423 187.07505,49.0660349 L187.104808,49.0633338 L188.507518,49.06 C188.588843,49.0598072 188.656615,49.1174505 188.670806,49.1936316 L188.673538,49.2229916 L188.676339,50.66 L189.328345,50.66 L189.322503,49.2206834 C189.322164,49.1404002 189.38061,49.073422 189.457925,49.0593759 L189.487724,49.0566671 L190.887054,49.0533333 C190.96838,49.05314 191.036153,49.1107838 191.050344,49.1869654 L191.053075,49.2163257 L191.055876,50.66 L192.817206,50.66 L192.817206,50.4266667 L192.337485,50.4266667 C192.256178,50.4266667 192.188555,50.3688874 192.174532,50.2926927 L192.171864,50.2633333 L192.171864,48.5133333 C192.171864,48.3512093 192.037472,48.22 191.871041,48.22 Z M161.210599,41.7333333 L155.81608,41.7333333 L155.816139,42.5930462 L155.875304,42.5912297 L155.875304,42.5912297 L155.978563,42.59 C158.233042,42.59 160.069364,44.3455033 160.159561,46.5468856 L161.210599,46.5466667 L161.210599,41.7333333 Z M167.788126,41.7333333 L162.393607,41.7333333 L162.393607,46.5466667 L165.132002,46.5468531 C165.39767,45.4137431 166.41205,44.5621676 167.633219,44.5246254 L167.717388,44.5233333 L167.788386,44.5242526 L167.788386,44.5242526 L167.788126,41.7333333 Z M174.365654,41.7333333 L168.971135,41.7333333 L168.971426,44.8338039 C169.633226,45.1849709 170.12618,45.8054829 170.299545,46.5466768 L174.365654,46.5466768 L174.365654,41.7333333 Z M154.633157,41.7333333 L143.073388,41.7333333 L143.07363,43.8133333 C143.07363,43.8336396 143.069873,43.8530803 143.063006,43.8710162 L143.093047,43.9040289 L143.120414,43.9397541 L144.872575,46.5467039 L151.794199,46.5467039 C151.865768,44.8052582 153.032144,43.3423275 154.633157,42.8075377 L154.633157,41.7333333 Z M178.786725,41.7333333 L175.548662,41.7333333 L175.548662,46.5466667 L178.786725,46.5466667 L178.786725,41.7333333 Z M131.746927,42.863 L131.746927,43.6863333 L133.426799,43.6866667 L133.426799,42.8633333 L131.746927,42.863 Z M137.986452,42.8633333 L136.975824,42.8633333 L136.975824,43.6866667 L137.986452,43.6866667 L137.986452,42.8633333 Z M141.379996,42.8633333 L138.155453,42.8633333 L138.155453,43.6866667 L141.379996,43.6866667 L141.379996,42.8633333 Z M134.217724,42.8633333 L133.5958,42.8633333 L133.5958,43.6866667 L134.217724,43.6866667 L134.217724,42.8633333 Z M124.152012,42.863 L121.829935,42.863 L121.829935,43.6863333 L124.152012,43.6863333 L124.152012,42.863 Z M57.0454943,42.3610918 L57.0452115,43.1845373 L59.0972483,43.2323698 L59.0972483,43.2323698 L59.0966567,42.632278 C59.0270796,42.5604587 58.9596603,42.4845161 58.8945542,42.4046974 L57.0454943,42.3610918 L57.0454943,42.3610918 Z M51.4617314,42.2266449 L51.4614261,43.0506163 L54.8282448,43.1319841 L54.8282448,43.1319841 L54.8281919,42.3083347 L51.4617314,42.2266449 L51.4617314,42.2266449 Z M46.8950089,42.1131503 L46.8947957,42.9373333 L47.1636626,42.9443576 L51.2927335,43.0464937 L51.2927335,43.0464937 L51.2924711,42.2224909 L46.8950089,42.1131503 L46.8950089,42.1131503 Z M42.3355916,41.9971897 L42.3351428,42.821 L46.7257945,42.933 L46.7262976,42.108904 L42.3355916,41.9971897 L42.3355916,41.9971897 Z M38.6374451,41.9018462 C38.6155694,41.951362 38.5695302,41.9881066 38.5140158,41.9975945 L38.485537,42 L38.2757336,42 L38.2757336,42.0766667 L38.5531375,42.0766667 C38.6344442,42.0766667 38.7020668,42.1344459 38.7160903,42.2106406 L38.7187587,42.24 L38.7185168,42.7286667 L42.1661416,42.8166667 L42.1666508,41.9928473 L38.6374451,41.9018462 Z M137.986452,41.7966667 L137.611269,41.7966667 L137.611511,42.61 C137.611511,42.641985 137.602188,42.6718227 137.586077,42.6970145 L137.986452,42.6966667 L137.986452,41.7966667 Z M131.746927,41.7963333 L131.746927,42.6966667 L133.36917,42.6968357 C133.359254,42.6804282 133.352172,42.6621616 133.348588,42.6426927 L133.34592,42.6133333 L133.345678,41.7966667 L131.746927,41.7963333 Z M141.379996,41.7966667 L138.155453,41.7966667 L138.155453,42.6966667 L141.379996,42.6966667 L141.379996,41.7966667 Z M124.152012,41.7963333 L121.829935,41.7963333 L121.829935,42.6966667 L124.152012,42.6966667 L124.152012,41.7963333 Z M33.2090771,41.7583333 L33.2090771,42.5843333 L34.3109651,42.6133333 L34.3112069,42.24 C34.3112069,42.1598164 34.3697955,42.0931279 34.4470575,42.0792982 L34.4768281,42.0766667 L34.7503682,42.0766667 L34.7503682,42 L34.5444286,42 C34.4631219,42 34.3954992,41.9422208 34.3814758,41.866026 L34.3788074,41.8366667 L34.3785656,41.7893333 L33.2090771,41.7583333 Z M28.6468833,41.636214 L28.6460443,42.0063333 L29.434604,42.484 L31.9436126,42.5510225 L33.0400759,42.58 L33.0400759,41.7536667 L28.6468833,41.636214 L28.6468833,41.636214 Z M24.0833313,41.5122004 L24.0830455,42.3395547 L25.3449087,42.3738344 L25.3449087,42.3738344 L25.0330765,41.5381465 L24.0833313,41.5122004 L24.0833313,41.5122004 Z M23.7337383,41.5026321 L23.7230703,42.3297532 L23.9140403,42.3349542 L23.9140403,42.3349542 L23.9142136,41.5075729 L23.7337383,41.5026321 L23.7337383,41.5026321 Z M21.3528329,41.4372185 L21.343319,42.2647101 L21.9926675,42.2825001 L21.9926675,42.2825001 L22.0035168,41.4551383 L21.3528329,41.4372185 L21.3528329,41.4372185 Z M57.4644746,41.3042924 L57.4548725,41.3593669 C57.3979602,41.6495851 57.2519442,41.9099977 57.0452622,42.113767 L57.0450603,42.1943663 L58.7640305,42.2346317 L58.7640305,42.2346317 C58.5675647,41.9651177 58.395945,41.6585876 58.2535526,41.32274 L57.4644746,41.3042924 L57.4644746,41.3042924 Z M19.5201433,41.3865766 L19.5198954,42.2145879 L19.6127588,42.2171464 L19.6127588,42.2171464 L19.6202136,41.3893482 L19.5201433,41.3865766 L19.5201433,41.3865766 Z M19.1803818,41.377161 L19.1915093,41.3831321 C19.2297638,41.4077192 19.2564895,41.447196 19.2643354,41.4923211 L19.2667186,41.52 L19.2664767,42.2073333 L19.3510732,42.209935 L19.3510732,42.209935 L19.3511067,41.3818933 L19.1803818,41.377161 L19.1803818,41.377161 Z M51.4617314,41.1599782 L51.4618427,42.0599288 L54.8281896,42.1416178 L54.8281896,42.1416178 L54.8276531,42.113481 C54.5912098,41.8802453 54.4342227,41.5728545 54.3993032,41.231523 L51.4617314,41.1599782 L51.4617314,41.1599782 Z M14.9535657,41.258 L14.9535657,42.0856667 L15.5856302,42.1036667 L15.5856302,41.276 L14.9535657,41.258 Z M10.3939128,41.128 L10.3939128,41.957 L14.7845645,42.081 L14.7845645,41.253 L10.3939128,41.128 Z M46.8950089,41.0464836 L46.8953378,41.9464374 L51.2925292,42.0557734 L51.2925292,42.0557734 L51.2924711,41.1558242 L46.8950089,41.0464836 L46.8950089,41.0464836 Z M5.82749996,40.998 L5.82749996,41.828 L10.2249116,41.9523333 L10.2249116,41.1233333 L5.82749996,40.998 Z M42.3355916,40.9305231 L42.3351428,41.8296667 L43.9074662,41.870719 L46.7263024,41.9421829 L46.7263024,41.9421829 L46.7263024,41.0422373 L42.3355916,40.9305231 L42.3355916,40.9305231 Z M28.0069092,41.6189245 L28.4770431,41.9036667 L28.4777758,41.6316487 L28.0069092,41.6189245 L28.0069092,41.6189245 Z M42.1666508,40.9261806 L38.5060304,40.8313279 L38.4976949,40.8448249 L38.4976949,40.8448249 C38.5738914,40.8492738 38.6358824,40.905564 38.6487175,40.9785731 L38.6511582,41.0066667 L38.6509163,41.734 L42.1661416,41.8253333 L42.1666508,40.9261806 Z M1.26784713,40.8683333 L1.26784713,41.6993333 L5.65849875,41.8233333 L5.65849875,40.9933333 L1.26784713,40.8683333 Z M141.379996,40.73 L138.155453,40.73 L138.155453,41.63 L141.379996,41.63 L141.379996,40.73 Z M124.300733,40.7296667 L121.829935,40.7296667 L121.829935,41.63 L124.152012,41.63 L124.152254,41.3766667 C124.152254,41.2964831 124.210842,41.2297946 124.288104,41.2159649 L124.300733,41.2146667 L124.300733,40.7296667 Z M133.345678,40.73 L129.029387,40.73 L129.029387,41.2133333 L131.581547,41.2133333 C131.662854,41.2133333 131.730477,41.2711126 131.7445,41.3473073 L131.747169,41.3766667 L131.746927,41.63 L133.345678,41.63 L133.345678,40.73 Z M137.986452,40.73 L137.611269,40.73 L137.611269,41.63 L137.986452,41.63 L137.986452,40.73 Z M33.2090771,40.6916667 L33.210061,41.5917541 L34.3785656,41.6226667 L34.3788074,41.0066667 C34.3788074,40.9562571 34.4019636,40.9111813 34.4383581,40.8812201 L34.4218015,40.8666826 L34.2781788,40.72 L33.2090771,40.6916667 Z M28.6468833,40.5695473 L28.6462782,41.4694686 L33.0409703,41.5872559 L33.0409703,41.5872559 L33.0400759,40.687 L28.6468833,40.5695473 L28.6468833,40.5695473 Z M24.0833313,40.4455337 L24.0835118,41.3454745 L24.9699199,41.3696929 L24.9699199,41.3696929 L24.7593422,40.8064984 C24.7227994,40.7087464 24.7869892,40.6054867 24.8867106,40.5889556 L24.9147393,40.5866667 L26.2566089,40.5866667 C26.2770173,40.5866667 26.2971594,40.5903854 26.3160479,40.5975476 L26.343317,40.6108391 L27.7195545,41.444421 L28.477342,41.4649078 L28.477342,41.4649078 L28.4777758,40.564982 L24.0833313,40.4455337 L24.0833313,40.4455337 Z M19.5201433,40.31991 L19.5199786,41.2196667 L19.6213793,41.2223333 L19.625007,40.8319666 C19.6256879,40.7517138 19.6849419,40.6854775 19.7623982,40.6723548 L19.7922186,40.6699998 L21.1949287,40.6833409 C21.2762789,40.6841142 21.3433557,40.7425983 21.3565915,40.8189735 L21.3589538,40.8483751 L21.3543178,41.2703333 L22.0056485,41.2883333 L22.0113114,40.8546166 C22.0123298,40.7746032 22.0715313,40.708721 22.1487827,40.6956737 L22.1785197,40.6933332 L23.5778497,40.7066743 C23.6593174,40.7074505 23.7264473,40.7660976 23.7395624,40.842599 L23.7418711,40.8720458 L23.736084,41.3359655 L23.9145386,41.3408509 L23.9145386,41.3408509 L23.9142136,40.4409062 L19.5201433,40.31991 L19.5201433,40.31991 Z M17.7704691,40.2713325 L17.792566,40.303816 C17.9105739,40.4879559 17.9789293,40.7061121 17.9789293,40.94 C17.9789293,40.9868925 17.9761816,41.0331527 17.970837,41.0786331 L18.4272167,41.189 L19.3509773,41.2146667 L19.3511067,40.3152266 L17.7704691,40.2713325 L17.7704691,40.2713325 Z M128.860386,40.7296667 L124.469734,40.7296667 L124.469734,41.2133333 L128.860386,41.2133333 L128.860386,40.7296667 Z M57.1977849,40.2313489 L57.2219576,40.2647306 C57.3857321,40.4995303 57.4812738,40.7820419 57.4812738,41.0866667 L57.4803588,41.1378527 L57.4803588,41.1378527 L58.1858993,41.1544881 L58.1858993,41.1544881 C58.0763294,40.8699869 57.9874401,40.5664571 57.9217119,40.2482997 L57.1977849,40.2313489 L57.1977849,40.2313489 Z M14.9535657,40.191 L14.9535657,41.092 L15.5675545,41.1093094 C15.5625311,41.0744832 15.5590348,41.0391703 15.5571345,41.0034379 L15.5554519,40.94 C15.5554519,40.667355 15.6482736,40.4162527 15.8044814,40.2154517 L14.9535657,40.191 Z M10.3939128,40.0613333 L10.3939128,40.9633333 L12.4781975,41.0230082 L14.7845645,41.0873333 L14.7845645,40.1863333 L10.3939128,40.0613333 Z M51.4619263,40.0933163 L51.4618427,40.9932621 L54.3928883,41.0644918 L54.3928883,41.0644918 C54.397293,40.7272318 54.5194672,40.4182272 54.7212331,40.1723166 L51.4619263,40.0933163 L51.4619263,40.0933163 Z M46.895182,39.9798213 L46.8953378,40.8797707 L51.2925292,40.9891067 L51.2925292,40.9891067 L51.2927282,40.0891638 L46.895182,39.9798213 L46.895182,39.9798213 Z M5.82749996,39.9313333 L5.82749996,40.8326667 L10.2249116,40.9586667 L10.2249116,40.0566667 L5.82749996,39.9313333 Z M42.3356438,39.8638578 L42.3351428,40.763 L43.9074662,40.8040523 L46.7263024,40.8755162 L46.7263024,40.8755162 L46.7264362,39.9755742 L42.3356438,39.8638578 L42.3356438,39.8638578 Z M1.26784713,39.8016667 L1.26784713,40.702 L5.65849875,40.8276667 L5.65849875,39.9266667 L1.26784713,39.8016667 Z M39.2153804,39.783 L39.2156222,40.0366667 L39.222707,40.036667 C39.3039009,40.036824 39.3713547,40.0945796 39.385342,40.1706794 L39.3880035,40.2 L39.3880035,40.39 C39.3880035,40.4701836 39.3294149,40.5368721 39.2521529,40.5507018 L39.2223823,40.5533333 L38.5258554,40.5533333 L38.5258554,40.664 L42.1661416,40.7586667 L42.1667565,39.8595167 L39.2153804,39.783 Z M33.2090771,39.625 L33.210061,40.5250875 L34.1113199,40.5490194 L34.1113199,40.5490194 L33.8765762,40.3086441 L33.8765762,40.3086441 L33.8595645,40.2861977 L33.8595645,40.2861977 L33.8449852,40.2569923 L33.8449852,40.2569923 L33.8376857,40.2312662 L33.8353751,40.2155117 L33.8346235,40.2 L33.8343816,39.6416667 L33.2090771,39.625 Z M28.6468833,39.5028806 L28.6462782,40.4028019 L33.0409703,40.5205893 L33.0409703,40.5205893 L33.0400759,39.6203333 L28.6468833,39.5028806 L28.6468833,39.5028806 Z M24.0833313,39.378867 L24.0835118,40.2788079 L28.477342,40.3982412 L28.477342,40.3982412 L28.4777758,39.4983154 L24.0833313,39.378867 L24.0833313,39.378867 Z M175.430669,39.9844842 C175.265329,40.1204287 175.082923,40.2369108 174.887087,40.3303456 L175.430361,40.33 L175.430669,39.9844842 Z M171.458833,39.6 L171.08703,39.6 L171.087272,40.3 C171.087272,40.3102674 171.086311,40.3203135 171.084474,40.3300558 L171.458833,40.33 L171.458833,39.6 Z M144.026555,39.6 L141.572657,39.6 L141.572657,40.33 L144.026555,40.33 L144.026555,39.6 Z M155.488218,39.6 L154.599271,39.6 L154.599271,40.33 L155.488218,40.33 L155.488218,39.6 Z M152.591537,39.9466667 L151.293607,39.9466667 L151.293607,40.33 L152.591537,40.33 L152.591537,39.9466667 Z M151.124606,39.9466667 L150.015958,39.9466667 L150.015958,40.33 L151.124606,40.33 L151.124606,39.9466667 Z M163.086512,39.6 L161.541841,39.6 L161.541841,40.33 L163.086512,40.33 L163.086512,39.6 Z M177.877499,39.6 L177.779478,39.6 L177.779478,40.33 L177.877499,40.33 L177.877499,39.6 Z M176.968272,39.6 L175.811126,39.6002517 C175.745315,39.6819796 175.67464,39.7597377 175.599532,39.8331006 L175.599362,40.33 L176.968272,40.33 L176.968272,39.6 Z M148.985051,39.9466667 L146.527773,39.9466667 L146.527773,40.33 L148.985051,40.33 L148.985051,39.9466667 Z M19.5201433,39.2532433 L19.5199786,40.1526667 L23.9145386,40.2741843 L23.9145386,40.2741843 L23.9142136,39.3742395 L19.5201433,39.2532433 L19.5201433,39.2532433 Z M14.9535657,39.1246667 L14.9535657,40.0253333 L15.9566915,40.0532292 C16.1569006,39.8758022 16.4175107,39.7630715 16.7044568,39.7483187 L16.7688806,39.7466667 C17.1044404,39.7466667 17.4085626,39.8818054 17.6279827,40.1000101 L19.3509773,40.148 L19.3511067,39.2485599 L17.545726,39.1984101 L17.545726,39.1984101 L14.9535657,39.1246667 Z M38.5900759,39.7666667 L38.5903177,40.0363333 L38.8843798,40.0363333 L38.884138,39.7743333 L38.5900759,39.7666667 Z M37.9647714,39.7503333 L37.9647714,40.0366667 L38.2590753,40.0363333 L38.2588335,39.758 L37.9647714,39.7503333 Z M10.3939128,38.9946667 L10.3939128,39.8966667 L12.4781975,39.9563415 L14.7845645,40.0206667 L14.7845645,39.1196667 L10.3939128,38.9946667 Z M5.82749996,38.8646667 L5.82749996,39.766 L10.2249116,39.892 L10.2249116,38.99 L5.82749996,38.8646667 Z M1.26784713,38.735 L1.26784713,39.6353333 L5.65849875,39.761 L5.65849875,38.86 L1.26784713,38.735 Z M38.5903177,38.566 L38.5900759,39.599 L38.884138,39.6066667 L38.8843798,38.5663333 L38.5903177,38.566 Z M38.333704,38.2665036 L37.9647714,38.2666667 L37.9647714,39.5826667 L38.2588335,39.5903333 L38.2590753,38.403 C38.2590753,38.3459358 38.288748,38.2957094 38.333704,38.2665036 Z M176.968272,38.5333333 L176.323979,38.5336044 C176.252215,38.8605775 176.118203,39.1648007 175.934775,39.4336197 L176.968272,39.4333333 L176.968272,38.5333333 Z M163.086512,38.5333333 L161.541841,38.5333333 L161.541841,39.4333333 L163.086512,39.4333333 L163.086512,38.5333333 Z M141.572657,38.5333333 L141.572657,39.4333333 L144.026555,39.4333333 L144.026476,39.0624423 C143.544991,38.9285207 143.106296,38.7499199 142.709056,38.5335894 L141.572657,38.5333333 Z M155.488218,38.999 L155.069217,39.0903634 L154.599271,39.19 L154.599271,39.4333333 L155.488218,39.4333333 L155.488218,38.999 Z M177.877499,38.5333333 L177.779478,38.5333333 L177.779478,39.4333333 L177.877499,39.4333333 L177.877499,38.5333333 Z M170.75545,38.5333333 L170.738887,38.5333333 L170.738887,39.4333333 L170.75545,39.4333333 L170.75545,38.5333333 Z M171.08703,38.5333333 L171.08703,39.4333333 L171.458833,39.4333333 L171.458897,39.3228656 C171.311613,39.0821943 171.202673,38.8163127 171.140437,38.5334358 L171.08703,38.5333333 Z M176.968272,37.46 L176.331496,37.4599486 C176.365781,37.6279673 176.38377,37.8018723 176.38377,37.98 C176.38377,38.1114921 176.373885,38.2407226 176.354807,38.3670092 L176.968272,38.3666667 L176.968272,37.46 Z M170.738887,37.46 L170.738887,38.1166667 L170.921651,38.1166667 C171.002957,38.1166667 171.07058,38.1744459 171.084603,38.2506406 L171.087272,38.28 L171.08703,38.3666667 L171.109541,38.3668813 C171.094449,38.2672317 171.085096,38.165753 171.081825,38.0627816 L171.080512,37.98 C171.080512,37.8019419 171.098543,37.6280895 171.132904,37.4601092 L170.738887,37.46 Z M141.57287,37.8941076 L141.572657,38.3666667 L142.42303,38.3669583 C142.219058,38.2400093 142.036085,38.1076156 141.873399,37.9729794 C141.777626,37.964339 141.675086,37.9366444 141.57287,37.8941076 Z M165.709411,37.46 L161.558065,37.46 L161.558983,37.4833333 L161.558983,37.6866667 C161.558983,37.7486851 161.553247,37.8094238 161.542232,37.8684807 L161.541841,38.3666667 L163.086512,38.3666667 L163.086754,38.0466667 C163.086754,37.9664831 163.145343,37.8997946 163.222605,37.8859649 L163.252375,37.8833333 L165.709411,37.8833333 L165.709411,37.46 Z M177.877499,37.46 L177.779478,37.46 L177.779478,38.3666667 L177.877499,38.3666667 L177.877499,37.46 Z M170.569886,37.46 L165.878412,37.46 L165.878412,37.8833333 L170.516048,37.8833333 C170.535027,37.8833333 170.553261,37.8864818 170.570242,37.892278 L170.569886,37.46 Z M176.096138,36.7931148 L176.109674,36.8196548 C176.185137,36.9699029 176.246383,37.1283787 176.291685,37.2933847 L176.968272,37.2933333 L176.968272,36.8033333 L176.153928,36.8033333 C176.133602,36.8033333 176.11413,36.7997221 176.096138,36.7931148 Z M98.7646492,34.6266667 L94.3706175,34.6266667 L94.3706175,35.29 L98.7646492,35.29 L98.7646492,34.6266667 Z M101.61739,34.6266667 L98.9336504,34.6266667 L98.9336504,35.29 L101.61739,35.29 L101.61739,34.6266667 Z M106.370042,34.6266667 L105.903261,34.6266667 L105.903261,35.29 L106.337256,35.29 L106.370042,34.6266667 Z M98.7646492,33.5566667 L94.3706175,33.5566667 L94.3706175,34.46 L98.7646492,34.46 L98.7646492,33.5566667 Z M101.61739,33.5566667 L98.9336504,33.5566667 L98.9336504,34.46 L101.61739,34.46 L101.61739,33.5566667 Z M106.423108,33.5566667 L105.903261,33.5566667 L105.903261,34.46 L106.378492,34.46 L106.423108,33.5566667 Z M106.475837,32.4866667 L105.903261,32.4866667 L105.903261,33.39 L106.43122,33.39 L106.475837,32.4866667 Z M101.61739,32.4866667 L98.9336504,32.4866667 L98.9336504,33.39 L101.61739,33.39 L101.61739,32.4866667 Z M98.7646492,32.4866667 L94.3706175,32.4866667 L94.3706175,33.39 L98.7646492,33.39 L98.7646492,32.4866667 Z M94.2016163,32.4866667 L94.1177917,32.4866667 L94.1711961,33.39 L94.2016163,33.39 L94.2016163,32.4866667 Z M121.535873,29.9966667 L121.379378,29.9966667 L121.440556,30.7366667 L121.535873,30.7366667 L121.535873,29.9966667 Z M121.535873,28.9263333 L121.290821,28.9263333 L121.36552,29.83 L121.535873,29.83 L121.535873,28.9263333 Z M121.535873,27.8566667 L121.202265,27.8566667 L121.276963,28.7596667 L121.535873,28.7596667 L121.535873,27.8566667 Z M94.5736608,12.3266667 C94.6549676,12.3266667 94.7225902,12.3844459 94.7366137,12.4606406 L94.739282,12.49 L94.739282,13.6766667 C94.739282,13.7568502 94.6806935,13.8235387 94.6034315,13.8373685 L94.5736608,13.84 L93.9821566,13.84 C93.9008499,13.84 93.8332272,13.7822208 93.8192038,13.706026 L93.8165354,13.6766667 L93.8165354,12.49 C93.8165354,12.4098164 93.8751239,12.3431279 93.952386,12.3292982 L93.9821566,12.3266667 L94.5736608,12.3266667 Z M92.9273471,12.653 L92.9273471,13.513 L93.1266724,13.513 L93.1266724,12.653 L92.9273471,12.653 Z M94.4077017,12.653 L94.1474398,12.653 L94.1474398,13.513 L94.4077017,13.513 L94.4077017,12.653 Z M92.1599855,0.326666667 L91.7848028,0.326666667 L91.7845609,2.82333333 L92.1597436,2.82333333 L92.1599855,0.326666667 Z" id="path-1"></path>
    </defs>
    <g id="Silhouettes/Hunt-Class-MCMV" stroke="none" stroke-width="1" fill="none" fill-rule="evenodd">
        <mask id="mask-2" fill="white">
            <use xlink:href="#path-1"></use>
        </mask>
        <use fill="#3E5667" xlink:href="#path-1"></use>
    </g>
</svg>