<?xml version="1.0" encoding="UTF-8"?>
<svg width="200px" height="99px" viewBox="0 0 200 99" version="1.1" xmlns="http://www.w3.org/2000/svg" xmlns:xlink="http://www.w3.org/1999/xlink">
    <title>Silhouettes/Island Class Patrol Boat</title>
    <defs>
        <path d="M32.3208786,58.4515247 C32.47124,58.4515247 32.5993415,58.5776642 32.6367115,58.7676965 L33.7758408,58.7678208 L33.7757236,59.4824158 L34.1132233,58.7361912 L37.2867278,59.0103145 L36.780654,60.8659185 L35.7473028,60.3997917 L35.74742,61.1716714 C35.74742,61.2828339 35.6987201,61.3842564 35.6265434,61.4525176 L36.0848025,61.9307821 L36.0848025,63.3857443 L35.4942659,63.3856272 L35.4943831,63.5017196 C35.4943831,63.7050528 35.3571332,63.8495646 35.1771677,63.8596276 L35.1570005,63.8601885 L32.2997922,63.8601885 L32.2997922,64.3662623 C32.2997922,64.3896239 32.2977847,64.4125554 32.2939704,64.4348392 L41.3405899,64.4347932 L41.3398935,77.6718627 L41.9637772,77.7310043 C45.0957351,78.0251542 48.4157111,78.295689 51.9204731,78.5317222 L51.9206954,75.1097875 L51.9311386,75.1083818 L51.9312386,67.2234707 L81.1991738,67.2234707 L81.1990738,71.1398025 L82.4010991,70.9768514 L147.442126,70.9768514 L147.442026,79.4852173 L166.403979,79.4851002 L166.404079,74.8198494 L166.968041,74.8197323 L166.968041,71.6252585 L166.404079,71.6252585 L166.404079,66.6594093 L174.190136,66.6594093 L174.190136,65.536558 L174.179693,65.536558 C174.023911,65.536558 173.899445,65.437389 173.839348,65.2941366 L172.534953,65.2940643 L172.534853,64.1700416 L171.753484,64.4821204 L171.870731,64.4822376 C172.081595,64.4822376 172.250286,64.6192992 172.250286,64.8301633 L172.250286,65.8317677 C172.250286,66.025181 172.093028,66.1891084 171.892389,66.2001838 L171.870731,66.2007799 L170.679349,66.2007799 C170.468485,66.2007799 170.310337,66.0320886 170.310337,65.8317677 L170.310237,65.0584823 L169.140041,65.5260148 L168.570708,63.6809541 L172.144854,63.3962875 L172.534853,64.1455579 L172.534953,63.4279172 L173.812018,63.4279534 C173.851026,63.2454365 173.982761,63.1218201 174.157615,63.1122229 L174.179693,63.111621 L177.205592,63.111621 C177.373691,63.111621 177.512092,63.2378316 177.552268,63.4279534 L180.199862,63.4279172 L180.199862,65.2940643 L178.243074,65.2940739 L178.247864,65.3117535 L178.250977,65.3247827 L178.253292,65.3364292 L178.253292,65.3364292 L178.256144,65.3542622 L178.256144,65.3542622 L178.258988,65.3822533 L178.259681,65.3960801 L178.259913,65.4100396 L178.259813,66.6594093 L196.810698,66.6594093 L196.810698,71.6252585 L184.838772,71.6252585 L184.838772,74.8197323 L196.810697,74.8198494 L196.810676,79.9834166 C197.843048,80.601531 198.534495,81.7346257 198.534495,83.0382772 C198.534495,84.98877 196.953014,86.5807938 195.002521,86.5807938 L190.168128,86.5806825 L192.493239,90.1338537 L192.493239,93.454963 L200,93.454963 L200,98.0518001 L23.570019,98.0518001 L6.13393135,79.4356282 L5.58057889,79.3029466 C3.76797043,78.8638325 2.75545694,78.5731611 2.5574128,78.5152425 C0.670179229,77.9669959 -0.405227611,75.9954167 0.143019013,74.1187263 C0.685783171,72.2608029 2.6132222,71.177884 4.47266749,71.6883746 L4.82557683,71.7856859 C5.55407177,71.982535 7.61050912,72.5185759 10.9438686,73.2219693 L10.9445318,64.4347932 L28.6994736,64.434936 C28.6958858,64.4126218 28.6940163,64.3896578 28.6940163,64.3662623 L28.6940163,60.7499433 C28.6940163,60.7093724 28.6990902,60.6703627 28.7085621,60.6338153 L26.9649308,60.633968 L26.9649308,58.7678208 L29.2961748,58.7676965 C29.3359354,58.5776642 29.4714569,58.4515247 29.6218183,58.4515247 L32.3208786,58.4515247 Z M184.838772,75.9478551 L184.838772,78.9632116 L195.682558,78.9633287 L195.682558,75.9479723 L184.838772,75.9478551 Z M38.7099565,65.5627989 L38.7099565,77.4103758 L39.456742,77.4866476 C39.7069595,77.5119326 39.9584654,77.5370767 40.2112579,77.5620737 L40.2123499,65.5627989 L38.7099565,65.5627989 Z M22.8318947,65.5627989 L12.0725375,65.562916 L12.0722768,73.4562812 L12.7732807,73.5981629 C15.4792033,74.1405903 18.8383419,74.7540238 22.8318947,75.3749381 L22.8318947,65.5627989 Z M98.3002512,44.8086183 L98.3002512,40.9181759 L107.894567,40.9181759 L107.894567,44.8086183 L104.784322,44.8086183 L104.784222,47.5266564 L119.070364,42.1517308 L128.464359,42.1517308 L128.464359,53.0112313 L130.325134,53.0112313 L130.325234,48.5567275 L130.350321,48.5567275 L130.350321,43.6330511 L130.325234,43.6330615 L130.325234,36.6956226 L130.350321,36.6956226 L130.350321,31.7824894 L130.325234,31.7824999 L130.325234,23.4322716 L135.591465,23.4321544 L135.591565,14.243869 L136.635242,14.2437519 L136.635242,7.00057052 L136.624799,7.00068766 L136.624699,2.89926404 L134.705936,2.89938119 L134.705936,2.36167777 L139.460921,2.36167777 L139.460921,2.89938119 L137.331094,2.89926404 L137.331094,6.89513848 L138.048131,6.89525562 L138.048031,14.2437519 L139.102352,14.2437519 L139.102452,2.90992439 L139.460921,2.90992439 L139.460821,14.2437519 L139.798303,14.243869 L139.798203,23.4321544 L142.228528,23.4322716 L142.228379,31.7823618 L142.182139,31.7822551 L142.182139,36.6956226 L142.228395,36.6956226 L142.228395,43.6329235 L142.182139,43.6328168 L142.182139,48.5567275 L142.228371,48.5567275 L142.228412,53.0112313 L144.099931,53.0112313 L146.883337,57.7556732 L147.020398,58.0087101 L140.768278,58.0087101 L137.447169,70.9346786 L147.442126,70.9346786 L147.442126,70.9663082 L82.4010991,70.9663082 L85.2266778,70.5867529 L82.1163325,57.7556732 L82.1058894,57.7556732 L81.7157908,56.2058222 L101.927013,48.6015947 L101.927113,44.8086183 L98.3002512,44.8086183 Z M178.259813,67.787415 L178.259913,69.0263586 C178.259913,69.2197719 178.112483,69.3836993 177.903032,69.3947747 L177.880357,69.3953708 L174.559248,69.3953708 C174.365835,69.3953708 174.201907,69.2381128 174.190832,69.046963 L174.190236,69.0263586 L174.190136,68.530828 L170.964015,68.530828 C170.780782,68.530828 170.617205,68.3833987 170.606142,68.183437 L170.605546,68.1618159 L170.605446,67.787415 L167.531985,67.7875321 L167.531985,69.9436174 L184.838872,69.9436174 L184.838772,70.4970185 L195.682558,70.4971356 L195.682558,67.7875321 L178.259813,67.787415 Z M187.084575,64.0710526 L187.084575,64.3557191 L180.495072,64.3557191 L180.495072,64.0710526 L187.084575,64.0710526 Z M190.468943,63.6809541 L190.468943,63.8707317 L180.38964,63.8707317 L180.38964,63.6809541 L190.468943,63.6809541 Z M33.7757236,59.510531 L33.7758408,60.633968 L32.6118445,60.6340151 C32.5601171,60.7702601 32.4576866,60.8666349 32.3393025,60.8757536 L32.3208786,60.8764617 L32.2997922,60.8764617 L32.2997922,62.7109793 L34.2413818,62.7109793 L34.6102768,61.5405664 L34.3451738,61.5406836 C34.1825072,61.5406836 34.0394478,61.3838265 34.0294367,61.1930071 L34.0288777,61.1716714 L34.0288777,60.170067 C34.0288777,59.9667338 34.1661276,59.822222 34.3271862,59.812159 L34.3451738,59.8115981 L34.4431085,59.8114809 L33.7757236,59.510531 Z M26.7224371,59.4109563 L26.7224371,59.6956228 L20.8498723,59.6956228 L20.8498723,59.4109563 L26.7224371,59.4109563 Z M26.8067827,59.0103145 L26.8067827,59.2106354 L17.8450591,59.2106354 L17.8450591,59.0103145 L26.8067827,59.0103145 Z M140.424938,50.3596154 L132.128005,50.3596154 L132.127905,53.0112313 L140.424938,53.0112313 L140.424938,50.3596154 Z M140.424938,43.6328168 L132.107522,43.6330511 L132.107522,48.5567275 L140.424938,48.5567275 L140.424938,43.6328168 Z M140.424938,38.4985106 L132.128005,38.4985106 L132.128005,41.8301631 L140.424938,41.830046 L140.424938,38.4985106 Z M140.424938,31.7822551 L132.107522,31.7824894 L132.107522,36.6956226 L140.424938,36.6956226 L140.424938,31.7822551 Z M140.424938,25.2350424 L132.128005,25.2350424 L132.128005,29.9796015 L140.424938,29.9794843 L140.424938,25.2350424 Z M136.983268,-4.97379915e-14 L136.983268,2.26678893 L135.760256,2.26678893 L135.760256,-4.97379915e-14 L136.983268,-4.97379915e-14 Z" id="path-1"></path>
    </defs>
    <g id="Silhouettes/Island-Class-Patrol-Boat" stroke="none" stroke-width="1" fill="none" fill-rule="evenodd">
        <mask id="mask-2" fill="white">
            <use xlink:href="#path-1"></use>
        </mask>
        <use fill="#3E5667" xlink:href="#path-1"></use>
    </g>
</svg>