<?xml version="1.0" encoding="UTF-8"?>
<svg width="200px" height="50px" viewBox="0 0 200 50" version="1.1" xmlns="http://www.w3.org/2000/svg" xmlns:xlink="http://www.w3.org/1999/xlink">
    <title>Silhouettes/King Air 350ER</title>
    <defs>
        <path d="M3.4882705,-6.03961325e-14 L30.490149,-6.03961325e-14 L30.5850681,0.00190767344 C31.8015201,0.046260566 36.7524355,0.858415971 36.7524355,1.85225635 C36.7524355,2.86244837 31.6590549,3.68360333 30.5352462,3.70621832 L30.3525403,3.70669696 L38.2071535,12.3443201 C41.3489363,15.7894096 44.3737714,19.0897077 44.9871128,19.7020663 C46.2757495,20.9886379 47.5624337,20.7542276 47.6989653,20.7248278 L47.7108907,20.7221179 L99.2573501,22.952252 C99.551133,22.9426369 99.8428838,22.9338287 100.134003,22.925549 L98.9056835,19.7020663 L101.223188,19.7020663 L103.616202,22.8518362 C104.335055,22.84206 105.049194,22.8358563 105.758176,22.8333654 L106.465423,22.8321174 L127.454038,22.8318296 L125.739374,16.1045826 L128.841029,16.1045826 L132.268902,22.8318296 L157.824036,22.8321174 C161.407176,22.8321174 163.481963,23.8199972 164.269376,24.2903286 L164.34625,24.3370757 L164.338482,24.3420946 L164.457752,24.4192637 C164.515033,24.4573871 164.557175,24.4871102 164.58332,24.5060002 L167.843872,27.0699669 C168.668248,27.7206987 169.491711,28.372839 170.098209,28.8580175 L170.832696,29.4512581 L170.832696,29.4512581 L170.848805,29.4613604 L169.439449,30.3066711 C169.351048,30.3683947 168.642205,30.8422924 167.9065,30.7040306 C168.630444,30.8544377 169.335757,30.4014496 169.458353,30.3175961 L169.477087,30.3044865 L170.877201,29.4679132 C171.862513,30.2536226 174.383917,30.9307957 175.209201,31.1375148 L175.475078,31.2022192 L175.893642,31.2909707 C189.526411,34.1998451 199.052822,38.0194623 199.930195,40.7057194 L199.95413,40.7867721 C199.982526,40.8916168 200,40.9964615 200,41.0991219 C200,45.9110567 173.683981,49.8121532 141.221441,49.8121532 L139.987331,49.809969 L139.987331,49.8121532 L94.5568127,49.8121532 L94.2656091,49.81625 C89.4267143,49.8538355 80.5610263,48.4600919 70.4715798,46.4778703 C64.349255,45.6812748 58.1730404,44.8122823 52.383675,43.9620925 L51.1117907,47.6562841 L29.4351492,45.830239 L26.5527966,39.9392067 L22.5263204,39.2687082 L20.4507559,34.9718579 L19.8746232,34.8259141 L18.9441265,32.9780263 L19.4409499,32.8830466 L19.4409499,32.8830466 L5.34271111,3.70669696 L3.4882705,3.70669696 C2.46385042,3.70669696 0,2.87667642 0,1.85225635 C0,0.848950825 2.37344164,0.0308074186 3.42990217,0.000849880106 L3.4882705,-6.03961325e-14 Z" id="path-1"></path>
    </defs>
    <g id="Silhouettes/King-Air-350ER" stroke="none" stroke-width="1" fill="none" fill-rule="evenodd">
        <mask id="mask-2" fill="white">
            <use xlink:href="#path-1"></use>
        </mask>
        <use fill="#3E5667" xlink:href="#path-1"></use>
    </g>
</svg>