<?xml version="1.0" encoding="UTF-8"?>
<svg width="200px" height="36px" viewBox="0 0 200 36" version="1.1" xmlns="http://www.w3.org/2000/svg" xmlns:xlink="http://www.w3.org/1999/xlink">
    <title>Silhouettes/Knight Class</title>
    <defs>
        <path d="M34.093207,17.674446 L34.6821511,17.6747117 L34.685562,17.7151472 L35.3325273,17.715339 L34.7235723,18.1218236 L35.2745119,24.0434237 L35.3518856,24.0408827 L48.253508,28.5646683 L58.6243046,28.5645607 L59.5880709,22.7061634 L54.8673567,22.5551481 L54.8673567,22.5551481 L54.9526995,26.8817142 L54.282965,26.9660466 L54.1986327,22.0230613 L54.2080478,22.0301555 L54.2047883,21.9848963 L62.8667252,22.0481075 C68.4241343,22.0928303 74.6860312,22.1528313 75.1444556,22.1991129 C75.9816237,22.2815985 76.8169451,22.6158502 76.8169451,22.6158502 L76.8169451,23.1199978 L76.6477682,23.0952127 C76.2402587,23.0383619 75.2060424,22.9116899 74.773267,23.0223747 L74.7277183,23.0356654 C74.3976019,23.1458392 65.633963,22.8940661 59.6785017,22.7089755 L60.2722019,28.5645607 L62.1572429,28.5645607 L62.5758538,25.6327332 L64.5031872,25.6327332 L65.003305,28.5645607 L66.5156434,28.5645607 L66.5979541,25.4652996 L67.4357378,25.4652996 L67.4357378,24.9617676 L75.813699,24.9616566 L75.8443528,23.1501605 L76.0181706,23.1541547 C76.3854426,23.1585945 77.2279041,23.1465266 77.4866796,22.9525642 C77.8209313,22.7014137 77.4866796,21.8636301 77.8209313,21.5281472 C78.1576452,21.1926644 78.8273797,21.5281472 78.8273797,21.5281472 L78.9966601,22.1147805 L79.7507269,22.5345957 L79.7305019,22.5800687 C79.6765883,22.6950857 79.5149656,23.0026711 79.2465794,23.203099 C78.9117121,23.4542495 78.9966601,24.2077008 79.4115507,24.3763655 C79.7725644,24.5189817 79.8249401,24.6620478 79.6752221,24.9617265 L85.0972905,24.9616566 L84.7761978,24.1252151 L84.6906343,23.203099 L84.6517768,23.0920858 C84.5818332,22.8843904 84.4419461,22.4296419 84.4419461,22.1147805 C84.4419461,21.6961964 84.5250474,21.6112485 84.9430159,21.1926644 C85.2307323,20.9057943 85.6376885,20.9341827 85.86403,20.979974 L85.8638873,7.66159515 L85.6970827,7.12023787 L88.8795527,7.12023787 L88.8795527,7.62253874 L86.5006437,8.11233657 L87.0726691,19.5231397 C87.2968627,19.56957 87.4849531,19.7445025 87.623185,20.0206291 C87.8755665,20.5229299 88.3760207,26.9728178 88.3760207,26.9728178 L92.7239028,26.9725016 L92.9829075,24.794334 L92.5643235,22.4490322 L92.9829075,20.8584128 L101.193311,20.8584128 L101.779944,21.8636301 L101.277643,24.8786664 L101.277643,26.6379505 L101.528793,27.4757342 L101.528793,28.5646683 L101.946611,28.7216474 L101.946762,26.8059997 L107.810622,26.8059963 L107.810622,8.13991926 L105.299128,7.62253874 L105.299128,7.12023787 L108.48406,7.12023787 L108.408023,7.36356761 L109.386872,26.8059963 L113.390061,26.8059963 L113.389747,24.5244427 C113.253776,24.5049714 113.150559,24.4836338 113.087253,24.4600823 C112.417519,24.2077008 111.99955,23.5379663 111.99955,23.5379663 L112.047066,23.5385816 L112.030694,23.2781651 C112.005407,22.8290291 111.974804,22.0183807 112.098007,22.2156784 L112.111307,22.2397401 C112.300286,22.6158502 112.487418,22.3659309 112.676396,22.742041 C112.865374,23.1199978 112.805049,23.4961079 112.805049,23.4961079 L112.300545,23.5377846 L116.257651,23.5377846 L116.257752,23.031639 L117.074606,23.031639 L117.074367,23.5377846 L118.016888,23.5377846 L118.017036,23.031639 L118.833275,23.031639 L118.833268,23.5377846 L119.776798,23.5377846 L119.776936,23.031639 L120.593175,23.031639 L120.592842,23.5377846 L121.167032,23.5377846 L121.222282,22.9974398 L121.548481,22.9972313 L121.548807,21.7792977 L121.919501,21.91377 L121.843481,21.8424587 L121.872594,21.8433164 C122.185917,21.8433164 122.185917,21.9682761 122.312107,22.2815985 L122.008977,21.9975272 L122.009249,23.1618562 L121.661166,23.1930011 L121.661166,23.5377846 L122.553903,23.5377846 L122.554024,14.5741119 L119.121635,13.1503105 L119.037303,10.4695259 L119.05796,10.3984619 C119.131402,10.164911 119.410077,9.42399901 120.04252,9.21438927 C120.796587,8.96323884 125.737725,9.1300569 126.491177,9.1300569 C126.770713,9.1300569 127.085101,9.19104783 127.370087,9.29640958 L128.336024,3.19744231e-14 L130.094693,3.19744231e-14 L131.466138,10.9728628 L131.769645,10.9730579 L131.769645,9.80102251 L132.521865,9.80102251 L132.521865,10.9730579 L132.999331,10.9728628 L134.199279,1.08831854 L139.895715,1.08831854 L141.111331,10.9728628 L143.419531,10.9728628 L143.354574,8.54342366 L144.910156,8.54297 C144.991192,8.4652651 145.075773,8.4595457 145.087785,8.45912473 L145.467192,8.45909128 L145.449149,8.09069792 C145.436703,7.77754123 145.425206,7.3164523 145.442324,6.91677778 L145.445648,6.84692711 C145.486275,5.99006093 145.696798,5.21321817 146.889147,5.21321817 C147.929046,5.21321817 148.236537,5.90944453 148.252,6.6989997 L148.254823,7.24334149 C148.257059,7.52378528 148.260634,7.81310163 148.263803,8.04145135 L148.516173,8.04151588 L148.51275,7.76395598 C148.511521,7.55942821 148.513159,7.32556832 148.52224,7.12023787 L148.529337,6.99516444 C148.562925,6.53033586 148.703674,5.87732463 149.529304,5.88295265 C150.424609,5.89073271 150.449479,7.03310411 150.450169,7.09656318 L150.450088,8.04102524 L150.785672,8.04112279 L151.096263,8.54693204 L151.119924,8.3766056 L151.439432,8.3768745 C151.437484,8.20562718 151.440002,7.99888804 151.454175,7.79058793 C151.496649,7.18240992 151.751493,6.77736829 152.208242,6.7632103 C152.648371,6.750899 152.964156,7.20272355 152.964156,7.79058793 C152.964156,8.01797169 152.979033,8.22003025 152.996007,8.37656897 L153.21346,8.3766056 L153.585769,10.9728628 L157.247202,10.9728628 L157.318046,9.54864095 L157.904679,9.54864095 L157.904477,10.9728628 L158.489768,10.9728628 L158.490081,9.80102251 L158.660592,9.80102251 L158.996075,8.04112279 L159.148242,8.05314272 L159.137187,7.83316143 C159.128601,7.64057009 159.120789,7.40197125 159.11897,7.14639364 L159.118573,7.0359055 C159.118573,6.36493988 159.201674,6.15564785 159.539619,6.15564785 C159.861123,6.15564785 159.911831,6.42531332 159.915499,6.96410248 L159.915658,8.1120002 L160.0807,8.1248396 L160.335544,9.80102251 L160.502362,9.80102251 L160.443766,10.9728628 L161.519891,10.9730579 L162.906025,20.3546756 L199.874501,20.3548808 L199.897472,20.4072176 C199.981396,20.6145041 200.226857,21.3880695 199.434701,21.8293738 L199.369738,21.8636301 L199.235186,21.928657 C198.48635,22.2796367 197.26001,22.6918117 196.615285,22.9002558 L196.188499,23.0356654 L191.49728,35.265091 L6.36740214,35.265091 L0,23.0356654 L1.51090444,23.0358653 L3.37113345,23.195981 C6.04249864,23.4153795 11.2843219,23.8083931 17.0893096,24.0408827 L17.844133,24.0691868 C23.8258755,24.2787194 30.3904435,24.167716 33.5092301,24.0921606 L33.5085887,18.5809744 L31.5646552,17.715339 L32.3009456,17.7155558 L32.2860928,17.5425726 C32.259626,17.2003343 32.2409684,16.7328958 32.2897065,16.3524889 C32.2554339,16.0386792 32.2288899,15.5595853 32.3341112,15.2450775 C32.5015448,14.742161 32.7526953,14.6584442 33.4236609,14.6584442 C34.0703011,14.6584442 34.092599,15.3608293 34.0933679,15.4092696 L34.093207,17.674446 Z M78.7357817,25.4652088 L78.6599461,26.9728178 L78.6599461,28.5646683 L81.7742498,28.5645607 L81.8436472,26.9728178 L85.3990182,26.9725016 L85.4459323,26.5548493 L85.2772507,26.2163324 L85.1116806,25.9669849 L79.4983454,25.4652996 L78.7357817,25.4652088 Z M122.554611,24.472706 C122.502968,24.4966574 122.44688,24.5202533 122.385975,24.5431836 C121.717472,24.794334 122.13544,25.3815828 121.633139,25.212918 L121.416483,25.142376 C121.100607,25.042646 120.949452,25.0192203 120.04252,24.8786664 C119.145563,24.7406342 115.483956,24.7159788 113.831315,24.5727395 L113.831315,26.8059963 L114.008138,26.8059997 L114.067818,28.4279838 L115.939722,28.4830732 C117.428081,28.5242603 119.139807,28.5646683 120.126852,28.5646683 C120.545781,28.5646683 120.902675,28.5335709 121.211888,28.473792 L121.325357,25.3821984 L122.553903,25.4356079 L122.554611,24.472706 Z M24.9642299,21.6961964 C25.279399,21.6961964 25.3415711,22.2815985 25.3415711,22.2815985 L25.3414231,23.1196715 L26.3874157,23.1199978 L26.3874157,24.1252151 L20.1886783,24.1252151 L20.1886783,23.1199978 L22.1160116,23.1193822 L22.1160116,21.9461157 L24.5456458,21.9461157 L24.5455617,22.2333255 L24.5466219,22.2021326 C24.5577899,21.8817816 24.6665701,21.6961964 24.9642299,21.6961964 Z M23.2049457,18.5112549 C23.6783982,18.5153894 23.6380727,19.3954017 23.6125439,19.4964254 L23.6104415,19.5023034 L23.6369983,20.2458078 C23.6388853,20.3043824 23.6405448,20.3566627 23.6418609,20.3984413 L23.6666193,20.3979703 L24.1264462,21.9461157 L22.2828297,21.9258021 L22.8060405,20.4624498 L22.7909553,19.8843873 C22.7884539,19.7601039 22.786504,19.633269 22.7859235,19.5210099 L22.7857461,19.4555406 C22.7857461,19.0572702 22.6811001,18.5094175 23.2049457,18.5112549 Z M121.307506,21.3404 L121.843481,21.8424587 L121.818467,21.8418248 C121.554207,21.826831 121.38574,21.6976357 121.319408,21.4018037 L121.307506,21.3404 Z" id="path-1"></path>
    </defs>
    <g id="Silhouettes/Knight-Class" stroke="none" stroke-width="1" fill="none" fill-rule="evenodd">
        <mask id="mask-2" fill="white">
            <use xlink:href="#path-1"></use>
        </mask>
        <use fill="#3E5667" xlink:href="#path-1"></use>
    </g>
</svg>