<?xml version="1.0" encoding="UTF-8"?>
<svg width="200px" height="64px" viewBox="0 0 200 64" version="1.1" xmlns="http://www.w3.org/2000/svg" xmlns:xlink="http://www.w3.org/1999/xlink">
    <title>Silhouettes/Landing Craft LCU10</title>
    <defs>
        <path d="M153.06993,-3.55271368e-15 C153.220306,-3.55271368e-15 153.343565,0.116098956 153.354964,0.263551543 L153.355824,0.285893991 L153.355671,4.78472183 L154.414775,4.78472183 C154.565151,4.78472183 154.688411,4.90082078 154.699809,5.04827337 L154.700669,5.07061582 L154.700669,7.14277546 C154.700669,7.29315155 154.58457,7.41641127 154.437117,7.4278093 L154.414775,7.42866945 L153.355671,7.42866945 L153.355671,26.0277889 L166.879753,26.0277889 C166.947286,26.0277889 167.012349,26.0516823 167.063648,26.0947797 L167.082217,26.1118323 L168.587163,27.6213526 C168.634655,27.6689885 168.663637,27.7316338 168.669491,27.7981148 L168.670593,27.8232032 L168.67044,29.0514037 L168.402996,29.0514037 L168.380654,29.0522639 C168.240962,29.063062 168.12941,29.1742568 168.118055,29.3137918 L168.117102,29.3372977 L168.117102,29.9777003 L168.117914,29.9995501 C168.13029,30.165173 168.282211,30.2858005 168.446328,30.2603154 L168.467794,30.2561543 L168.67044,30.2090076 L168.67044,34.7555606 L170.16744,34.7557494 L170.349331,34.7517053 L170.498803,34.7502166 L170.674936,34.7501694 C170.886379,34.7511577 171.118272,34.7559028 171.366431,34.765503 L171.462947,34.769449 L171.660606,34.7788418 C172.444582,34.8195619 173.216918,34.9019283 173.941839,35.0359248 L174.096771,35.065473 C176.27335,35.4936252 177.669377,36.3289035 177.864308,37.7130108 L177.8715,37.7698744 L179.05655,37.7700269 C179.199011,37.7700269 179.317136,37.8742265 179.338867,38.0105693 L179.341584,38.0335784 L179.342444,38.0559209 L179.342291,44.2373301 L179.41548,44.2387024 L179.415633,41.2808051 C179.415633,41.130429 179.531732,41.0071693 179.679184,40.9957712 L179.701527,40.9949111 L188.28963,40.9947586 L188.289782,40.4162617 C188.289782,40.2738001 188.393982,40.1556757 188.530325,40.1339447 L188.553334,40.1312278 L188.575676,40.1303677 L190.515181,40.1303677 C190.667421,40.1303677 190.791492,40.2492514 190.800585,40.3986391 L190.801076,40.4212649 L190.77526,42.1578274 L190.767203,42.8444339 L190.760003,43.6105494 L190.755048,44.4565702 L191.022776,44.4613185 L191.022929,47.2960146 L191.023998,47.3132284 C191.032466,47.3808929 191.090198,47.4332438 191.160158,47.4332438 C191.230117,47.4332438 191.28785,47.3808929 191.296318,47.3132284 L191.297387,47.2960146 L191.297234,44.4665028 L198.081189,44.5916944 L198.424637,44.595314 C199.449859,44.6111928 200,45.0701428 200,45.8002173 C200,46.1353961 199.809928,46.3753456 199.521636,46.5225585 C199.366814,46.6016162 199.217141,46.6405383 199.107309,46.6553384 L199.084062,46.657509 L199.060715,46.6577754 L197.733432,46.6187127 L194.394191,63.891589 L16.6367431,63.891589 L0,31.0938304 L1.21219052,30.8879867 L7.89524844,42.0264166 L14.7771361,42.3647626 L25.1175024,42.3649151 L25.1139827,42.3690751 C25.0790515,42.4125993 25.0565944,42.4665638 25.0520352,42.5255448 L25.051175,42.5478872 L25.051175,42.7217108 L22.0360989,42.7217108 L25.051175,42.8699182 L25.051175,42.7217108 L25.622963,42.7217108 L25.622963,42.5478872 L25.6221029,42.5255448 C25.6179036,42.4712202 25.5985209,42.4211513 25.5681926,42.379576 L25.5566356,42.3649151 L31.8149802,42.3649165 L32.9186727,42.3691844 L32.9069461,42.3788562 C32.8753138,42.4074233 32.8539656,42.4471631 32.8491227,42.4918544 L32.8480759,42.5112928 L32.8479235,42.7256752 L31.8142833,42.7217108 L25.622963,42.7217108 L25.622963,42.8981264 L28.5482303,43.0419121 L30.479044,46.5984333 L32.8479235,46.5984333 L32.8479235,42.7256752 L33.2047192,42.7272 L33.2047192,46.5984333 L34.1584615,46.5984333 L34.1584615,42.7308594 L39.3868908,42.7512913 L39.3868908,42.3944956 L55.4747174,42.457316 L55.4748699,42.3191721 C55.4748699,42.168796 55.5909689,42.0455362 55.7384215,42.0341382 L55.7607639,42.0332781 L59.6077534,42.0332781 C59.7581295,42.0332781 59.8813893,42.149377 59.8927873,42.2968296 L59.8936474,42.3191721 L59.893495,42.4746984 L80.9795109,42.5570359 L110.441687,38.2309642 L110.44099,38.2231073 C110.438383,38.1890934 110.436636,38.1548541 110.435769,38.1204071 L110.435131,38.0696438 L110.435131,37.667105 C110.435131,36.5037597 111.459676,35.5535857 112.716027,35.529102 L112.765738,35.528618 L120.084625,35.528618 C120.928171,35.528618 121.670692,35.9436032 122.079903,36.5636404 L122.093811,36.5852822 L123.455734,36.5852822 L123.469754,36.5637659 C123.871608,35.9562198 124.593479,35.545098 125.414295,35.529102 L125.464006,35.528618 L132.782892,35.528618 L132.833382,35.5291143 L132.890083,35.5307527 L132.890236,34.6125374 L131.842574,28.6226455 C131.829607,28.5485081 131.846479,28.4730218 131.888184,28.4120264 L131.904978,28.3898633 L131.922035,28.3712314 L133.343092,26.950121 L133.343244,26.3136829 C133.343244,26.1712213 133.447444,26.0530969 133.583787,26.031366 L133.606796,26.028649 L133.629138,26.0277889 L152.189224,26.0277889 L152.189224,7.42866945 L149.918234,7.42866945 C149.767858,7.42866945 149.644599,7.31257049 149.6332,7.16511791 L149.63234,7.14277546 L149.63234,5.07061582 C149.63234,4.92023973 149.748439,4.79698001 149.895892,4.78558197 L149.918234,4.78472183 L152.189224,4.78472183 L152.189376,0.285893991 C152.189376,0.135517904 152.305475,0.0122581813 152.452928,0.000860149008 L152.47527,-3.55271368e-15 L153.06993,-3.55271368e-15 Z M72.0805947,48.3722631 L72.0704502,49.9335471 L72.0711665,49.9558946 C72.0816148,50.1034175 72.2041244,50.2203077 72.3544974,50.221294 C72.5048704,50.2222449 72.6288751,50.1069414 72.6412223,49.9595653 L72.6422263,49.9372288 L72.6503831,48.6610192 C72.4735412,48.5960768 72.3052087,48.5134482 72.1475185,48.4152802 L72.0805947,48.3722631 Z M57.415747,42.8215831 L57.4784262,49.9196175 L57.4794837,49.9419515 C57.4921845,50.0892975 57.6164655,50.2043026 57.7668357,50.2030072 C57.9172059,50.2016456 58.0394348,50.0844608 58.0495292,49.9369132 L58.0501918,49.914564 L57.9873825,42.8238702 L57.415747,42.8215831 Z M64.2259706,46.5984333 L63.8693274,46.5984333 L63.9030339,49.9417642 L63.904277,49.961191 C63.9148649,50.0504712 63.9912712,50.1192798 64.0832245,50.1183783 C64.1751778,50.1174234 64.2501786,50.0470842 64.2589609,49.9576084 L64.2598114,49.9381604 L64.2259706,46.5984333 Z M104.351154,46.5984333 L102.768445,46.5984333 L102.768597,49.7341186 L102.769458,49.756461 C102.780256,49.896153 102.89145,50.0077048 103.030986,50.0190601 L103.054491,50.0200126 L104.065413,50.0200126 L104.087755,50.0191524 C104.227447,50.0083543 104.338999,49.8971595 104.350354,49.7576245 L104.351307,49.7341186 L104.351154,46.5984333 Z M81.3722912,46.5984333 L81.0154955,46.5984333 L81.0154955,49.6700783 L81.0165423,49.6895167 C81.0262279,49.7788993 81.1019353,49.8484762 81.1938933,49.8484762 C81.2858513,49.8484762 81.3615587,49.7788993 81.3712443,49.6895167 L81.3722912,49.6700783 L81.3722912,46.5984333 Z M51.0304763,46.5984333 L50.6736806,46.5984333 L50.6329874,49.461695 L50.6337574,49.4811464 C50.6421696,49.5706577 50.7168788,49.6413053 50.8088275,49.6426684 C50.9007762,49.643926 50.9774664,49.5754316 50.9884235,49.4861959 L50.9897469,49.4667743 L51.0304763,46.5984333 Z M88.394305,46.5984333 L88.0372043,46.5984333 L88.1332165,49.4017193 L88.1349273,49.4211106 C88.1476632,49.5101097 88.2257051,49.5770576 88.3176093,49.5739137 C88.4095135,49.5707697 88.482798,49.4986451 88.489422,49.4089837 L88.4898036,49.3895209 L88.394305,46.5984333 Z M97.8535079,46.5984333 L97.4954924,46.5984333 L97.6802371,48.9384997 L97.6828098,48.9577955 C97.6994962,49.0461392 97.780442,49.1095453 97.8721151,49.1023119 C97.9637881,49.0950784 98.033788,49.0197619 98.0364128,48.9298945 L98.0359273,48.9104339 L97.8535079,46.5984333 Z M43.807803,46.5984333 L43.4510073,46.5984333 L43.455887,48.7236007 L43.4569778,48.7430367 C43.4668654,48.8323972 43.54273,48.9018027 43.6346877,48.9015962 C43.7266455,48.901387 43.8021954,48.8316391 43.8116797,48.7422349 L43.8126827,48.7227941 L43.807803,46.5984333 Z M33.2047192,46.5984333 L32.8479235,46.5984333 L32.8480759,47.9821602 L32.8491227,48.0015986 C32.8588084,48.0909812 32.9345158,48.1605581 33.0264738,48.1605581 C33.1184318,48.1605581 33.1941392,48.0909812 33.2038248,48.0015986 L33.2048716,47.9821602 L33.2047192,46.5984333 Z M109.331046,46.5984333 L109.067719,46.5984333 L109.379494,47.6075937 L109.385087,47.622381 C109.410807,47.6793541 109.475533,47.7095887 109.536806,47.6906644 C109.59808,47.6717402 109.634484,47.6102721 109.623597,47.5487178 L109.619877,47.533352 L109.331046,46.5984333 Z M72.663579,46.5984333 L72.0919435,46.5984333 L72.091715,46.6383164 C72.2038962,46.9388388 72.4031332,47.1969213 72.6585597,47.3816034 L72.663579,46.5984333 Z M25.051175,42.8699182 L25.051175,47.0032592 L25.0520352,47.0256016 C25.0634332,47.1730542 25.1866929,47.2891532 25.337069,47.2891532 C25.4874451,47.2891532 25.6107048,47.1730542 25.6221029,47.0256016 L25.622963,47.0032592 L25.622963,42.8981264 L25.051175,42.8699182 Z M106.76166,39.1317971 L104.071817,39.5268645 L104.088918,39.527512 C104.228453,39.5388673 104.339648,39.6504192 104.350446,39.7901111 L104.351307,39.8124535 L104.351154,46.5984333 L109.067719,46.5984333 L106.76166,39.1317971 Z M39.3868908,42.7512913 L39.3868908,46.5984333 L43.4510073,46.5984333 L43.4423161,42.7671489 L39.3868908,42.7512913 Z M102.785522,39.7156308 L97.3730535,40.5104923 L97.8535079,46.5984333 L102.768445,46.5984333 L102.768597,39.8124535 C102.768597,39.7807954 102.773743,39.7503391 102.783244,39.7218754 L102.785522,39.7156308 Z M97.0191549,40.5623344 L88.2252082,41.8536604 L88.2285292,41.8645026 C88.2299435,41.8702257 88.2310828,41.8760609 88.2319319,41.8819942 L88.2336426,41.9013855 L88.394305,46.5984333 L97.4954924,46.5984333 L97.0191549,40.5623344 Z M73.5959746,44.4736692 C73.2531805,44.4736692 72.9359022,44.5800978 72.6754763,44.7617143 L72.663579,46.5984333 L75.114494,46.5985197 C75.1664325,46.4473087 75.1965242,46.2859461 75.2009776,46.1182351 L75.2015553,46.0746755 C75.2015553,45.1886691 74.4844738,44.4736692 73.5959746,44.4736692 Z M43.7991118,42.7685212 L43.807803,46.5984333 L50.6736806,46.5984333 L50.7278099,42.7955096 L43.7991118,42.7685212 Z M51.0846056,42.7968818 L51.0304763,46.5984333 L55.4747174,46.5984333 L55.4747174,42.8141117 L51.0846056,42.7968818 Z M87.8771037,41.9047401 L81.3722912,42.8598548 L81.3722912,46.5984333 L88.0372043,46.5984333 L87.8770555,41.9135839 L87.8771037,41.9047401 Z M110.50222,38.5825757 L107.013704,39.0948977 L109.331046,46.5984333 L111.084529,46.5984333 L111.084682,43.4444508 C111.084682,43.2940747 111.200781,43.170815 111.348233,43.159417 L111.370576,43.1585568 L111.4552,43.1585568 L111.4552,39.8422496 C110.998475,39.5564426 110.65751,39.1251377 110.512275,38.6193087 L110.50222,38.5825757 Z M64.1880039,42.8481141 L64.2259706,46.5984333 L70.8965853,46.598555 C70.8670009,46.4449135 70.8501805,46.2867477 70.8472726,46.1252132 L70.846818,46.0746755 C70.846818,45.1034906 71.3499855,44.2518071 72.1102411,43.7640989 L72.1158824,42.8790668 L64.1880039,42.8481141 Z M59.893495,42.8313416 L59.893495,46.5984333 L63.8693274,46.5984333 L63.8313607,42.8467418 L59.893495,42.8313416 Z M72.0991302,45.4930325 C72.0289029,45.6732168 71.990394,45.8693544 71.990394,46.0746755 C71.990394,46.2580195 72.0210345,46.4342593 72.0774552,46.5985197 L72.0919435,46.5984333 L72.0991302,45.4930325 Z M72.6875179,42.8812015 L72.6837191,43.4844042 C72.9691262,43.3844352 73.2761354,43.3300932 73.5959746,43.3300932 C75.1153104,43.3300932 76.3451312,44.5563442 76.3451312,46.0746755 C76.3451312,46.2537801 76.328027,46.4289251 76.295364,46.598555 L81.0154955,46.5984333 L81.0154955,42.9120018 L80.991927,42.9138302 L72.6875179,42.8812015 Z M191.160158,29.0353937 C191.230117,29.0353937 191.28785,29.0877446 191.296318,29.1554091 L191.297387,29.1726228 L191.297234,44.4665028 L191.022776,44.4613185 L191.022929,29.1726228 C191.022929,29.0968332 191.084368,29.0353937 191.160158,29.0353937 Z M112.325987,42.124839 L112.026836,42.1247641 L112.026988,43.2866373 L112.127623,43.2866373 L112.127623,42.5570359 C112.127623,42.4145743 112.231823,42.2964499 112.368166,42.2747189 L112.391175,42.272002 L112.413517,42.2711419 L120.436846,42.2711419 C120.587222,42.2711419 120.710482,42.3872408 120.72188,42.5346934 L120.72274,42.5570359 L120.72274,43.2866373 L120.827949,43.2866373 L120.827797,42.1247641 L120.524259,42.1248768 C120.510654,42.1292409 120.496605,42.1326136 120.482198,42.13491 L120.459188,42.1376269 L120.436846,42.138487 L112.413517,42.138487 C112.382986,42.138487 112.353573,42.1337013 112.325987,42.124839 Z M124.72058,39.9307877 L124.720682,43.2866373 L124.825891,43.2866373 L124.825891,42.5570359 C124.825891,42.4145743 124.93009,42.2964499 125.066433,42.2747189 L125.089442,42.272002 L125.111785,42.2711419 L133.130539,42.2711419 C133.280915,42.2711419 133.404175,42.3872408 133.415573,42.5346934 L133.416433,42.5570359 L133.416433,43.2866373 L133.521642,43.2866373 L133.521642,39.9329578 C133.486969,39.9443729 133.451927,39.955007 133.4165,39.9648372 L133.416433,41.8525931 C133.416433,41.9950546 133.312234,42.113179 133.175891,42.13491 L133.152882,42.1376269 L133.130539,42.138487 L125.111785,42.138487 C124.961408,42.138487 124.838149,42.0223881 124.826751,41.8749355 L124.825891,41.8525931 L124.825922,39.9631168 L124.772953,39.9475516 L124.772953,39.9475516 L124.72058,39.9307877 Z M81.1938933,42.6073532 C81.1019353,42.6073532 81.0262279,42.6769301 81.0165423,42.7663126 L81.0154955,42.785751 L81.0154955,42.9120018 L81.0185408,42.911939 L81.3722912,42.8598548 L81.3722912,42.785751 L81.3712443,42.7663126 C81.3615587,42.6769301 81.2858513,42.6073532 81.1938933,42.6073532 Z M72.4039222,42.5455881 C72.2535492,42.5446372 72.1295445,42.6599406 72.1171972,42.8073168 L72.1161932,42.8296532 L72.1158824,42.8790668 L72.6875179,42.8812015 L72.6879694,42.833335 L72.6872531,42.8109874 C72.6768048,42.6634645 72.5542952,42.5465743 72.4039222,42.5455881 Z M64.0064318,42.5158489 C63.9144785,42.5168038 63.8394777,42.587143 63.8306954,42.6766189 L63.829845,42.6960669 L63.8313607,42.8467418 L64.1880039,42.8481141 L64.1866225,42.6924631 L64.1853794,42.6730362 C64.1747915,42.5837561 64.0983851,42.5149474 64.0064318,42.5158489 Z M57.8998609,42.4669221 C57.9480257,42.5141983 57.9790778,42.5767372 57.985094,42.6465327 L57.9861516,42.6688667 L57.9873825,42.8238702 L59.893495,42.8313416 L59.893495,42.4746984 L57.8998609,42.4669221 Z M55.4747174,42.457316 L55.4747174,42.8141117 L57.415747,42.8215831 L57.4143859,42.6739202 C57.4137214,42.5987351 57.4421404,42.5300723 57.4891438,42.4786157 L57.5020489,42.4652448 L55.4747174,42.457316 Z M50.9099672,42.5387203 C50.8180185,42.5374452 50.7413283,42.6059395 50.7303712,42.6951753 L50.7290478,42.7145968 L50.7278099,42.7955096 L51.0846056,42.7968818 L51.0858073,42.7196761 L51.0850373,42.7002248 C51.0766251,42.6107134 51.0019158,42.5400658 50.9099672,42.5387203 Z M43.6201582,42.4746974 C43.5282004,42.4749067 43.4526505,42.5446546 43.4431662,42.6340588 L43.4421632,42.6534995 L43.4423161,42.7671489 L43.7991118,42.7685212 L43.7989589,42.6526929 L43.7978681,42.6332569 C43.7879805,42.5438965 43.7121159,42.4744909 43.6201582,42.4746974 Z M150.929155,37.259992 C149.410324,37.259992 148.179999,38.4903169 148.179999,40.0091486 C148.179999,41.5248006 149.411716,42.7583052 150.929155,42.7583052 C152.449778,42.7583052 153.678312,41.5261998 153.678312,40.0091486 C153.678312,38.4889203 152.451167,37.259992 150.929155,37.259992 Z M33.1353422,42.3700993 L34.1584615,42.3740637 L34.1584615,42.7308594 L33.2047192,42.7272 L33.2048716,42.5112928 L33.2038248,42.4918544 C33.1986592,42.4441837 33.174714,42.4021466 33.1395397,42.3732936 L33.1353422,42.3700993 Z M14.7771361,42.3647626 L10.7679113,42.3649148 L10.7484728,42.3659619 C10.6590903,42.3756475 10.5895134,42.451355 10.5895134,42.5433129 C10.5895134,42.6352709 10.6590903,42.7109784 10.7484728,42.720664 L10.7679113,42.7217108 L22.0360989,42.7217108 L14.7771361,42.3647626 Z M57.697742,42.385488 C57.631955,42.3860789 57.5715545,42.4088412 57.523574,42.4466174 L57.5020489,42.4652448 L57.8998609,42.4669221 L57.8847782,42.4529996 C57.839948,42.415087 57.7833131,42.3907431 57.7212554,42.3862361 L57.697742,42.385488 Z M39.1011493,39.9336726 C39.2515254,39.9336726 39.3747851,40.0497716 39.3861831,40.1972241 L39.3870433,40.2195666 L39.3868908,42.3944956 L34.1584615,42.3740637 L34.158614,40.2195666 C34.158614,40.0691905 34.2747129,39.9459308 34.4221655,39.9345327 L34.444508,39.9336726 L39.1011493,39.9336726 Z M33.0264738,42.332895 C33.063257,42.332895 33.0974401,42.3440273 33.1258377,42.3631065 L33.1353422,42.3700993 L32.9186727,42.3691844 L32.9211143,42.3673154 C32.9506374,42.3456744 32.9870632,42.332895 33.0264738,42.332895 Z M25.337069,42.2619933 C25.4154229,42.2619933 25.4864147,42.2935136 25.5380563,42.344566 L25.5566356,42.3649151 L25.1175024,42.3649151 L25.1276561,42.3532536 C25.179858,42.2971132 25.2543622,42.2619933 25.337069,42.2619933 Z M88.0492498,41.7291911 C87.9573456,41.7323351 87.8840612,41.8044597 87.8774371,41.8941211 L87.8771037,41.9047401 L88.2252082,41.8536604 L88.2234765,41.8476845 C88.2000875,41.7818727 88.1392924,41.7342732 88.0674306,41.7294827 L88.0492498,41.7291911 Z M150.929155,38.403568 C151.819216,38.403568 152.534736,39.1201283 152.534736,40.0091486 C152.534736,40.8953622 151.817454,41.6147293 150.929155,41.6147293 C150.043667,41.6147293 149.323575,40.893592 149.323575,40.0091486 C149.323575,39.1218965 150.041903,38.403568 150.929155,38.403568 Z M112.699259,40.2117903 L112.699411,41.5666991 L117.342177,41.5666991 L117.342177,40.2127051 L112.765738,40.2127051 L112.699259,40.2117903 Z M120.1508,40.2117903 L120.084625,40.2127051 L117.913965,40.2127051 L117.913965,41.5666991 L120.150952,41.5666991 L120.1508,40.2117903 Z M97.1910872,40.2242082 L97.1716267,40.2246937 C97.0799536,40.2319271 97.0099538,40.3072436 97.007329,40.3971111 L97.0078145,40.4165716 L97.0191549,40.5623344 L97.3730535,40.5104923 L97.3635046,40.3885059 L97.360932,40.36921 C97.3454374,40.2871766 97.2745356,40.2266455 97.1910872,40.2242082 L97.1910872,40.2242082 Z M125.397604,40.0494049 L125.397526,40.2117903 L125.464006,40.2127051 L132.782892,40.2127051 L132.844493,40.2117903 L132.844606,40.0495352 L132.782892,40.0503173 L125.464006,40.0503173 L125.397604,40.0494049 L125.397604,40.0494049 Z M117.913965,40.0503173 L117.342177,40.0503173 L117.342177,40.2127051 L117.913965,40.2127051 L117.913965,40.0503173 Z M132.890083,35.5307527 L132.890166,35.6933974 C134.021808,35.743968 134.924225,36.5900984 134.950522,37.6208315 L134.951112,37.667105 L134.951112,38.0696438 C134.951112,38.7161328 134.614825,39.2880676 134.093576,39.6490674 L134.093567,39.8433772 C134.694385,39.4680736 135.09412,38.8408857 135.112815,38.1223781 L135.1135,38.0696438 L135.1135,37.667105 L135.112971,37.6212433 C135.087293,36.5086912 134.129635,35.6036756 132.933589,35.5330545 L132.890083,35.5307527 Z M122.41325,37.5815656 L122.250922,37.583611 L122.252362,37.6252577 L122.252362,37.6252577 L122.252845,37.667105 L122.252845,38.0696438 C122.252845,38.7142504 121.918513,39.2847363 121.399857,39.6459086 L121.399874,39.8405121 C121.998182,39.4648637 122.395949,38.8389846 122.414551,38.1222478 L122.415232,38.0696438 L122.415232,37.667105 L122.414704,37.6212433 L122.41325,37.5815656 Z M123.29839,37.5701829 L123.135685,37.5722645 L123.133943,37.6206866 L123.133943,37.6206866 L123.133398,37.667105 L123.133398,38.0696438 L123.134034,38.1203066 C123.152027,38.836577 123.550584,39.4630814 124.14893,39.8394133 L124.148909,39.6446421 C123.645711,39.2937245 123.315085,38.7458931 123.296603,38.124647 L123.295786,38.0696438 L123.295786,37.667105 C123.295786,37.6346189 123.296661,37.6023052 123.29839,37.5701829 Z M104.071817,39.5268645 L103.054491,39.5265596 L103.032149,39.5274197 C102.9235,39.5358183 102.831873,39.6049506 102.791173,39.7009136 L102.785522,39.7156308 L104.071817,39.5268645 Z M106.979485,38.987488 C106.953765,38.9305149 106.889039,38.9002804 106.827766,38.9192046 C106.766492,38.9381289 106.730088,38.9995969 106.740975,39.0611512 L106.744695,39.076517 L106.76166,39.1317971 L107.013704,39.0948977 L106.985078,39.0022754 L106.979485,38.987488 Z M110.602664,38.2073864 L110.441687,38.2309642 L110.445544,38.2739567 C110.455931,38.3753085 110.473969,38.4745507 110.499113,38.5712015 L110.50222,38.5825757 L110.664025,38.5588969 C110.638809,38.4680869 110.62045,38.3747372 110.609489,38.2793249 L110.602664,38.2073864 Z M123.186155,37.2148589 L122.364915,37.2253798 L122.372578,37.258939 C122.390017,37.3412819 122.402285,37.4253015 122.409055,37.5107031 L122.41325,37.5815656 L123.135685,37.5722645 L123.138265,37.5285724 C123.144721,37.4369603 123.157531,37.3468949 123.176289,37.2587409 L123.186155,37.2148589 Z M122.093811,36.5852822 L121.89734,36.5853235 C122.036935,36.7788394 122.140256,36.9957042 122.198518,37.2276207 L122.364915,37.2253798 L122.362742,37.2149889 C122.31111,36.9960569 122.22279,36.7895336 122.104054,36.601087 L122.093811,36.5852822 Z M123.652461,36.5853235 L123.455734,36.5852822 L123.445553,36.6012064 C123.338462,36.7707776 123.256005,36.9549508 123.202805,37.1495705 L123.186155,37.2148589 L123.354146,37.212801 C123.407898,37.0070395 123.497275,36.8133326 123.615977,36.6375234 L123.652461,36.5853235 Z M139.937103,30.8445308 L136.291383,30.8445308 L136.27273,30.8455817 C136.187186,30.8552946 136.1238,30.9310055 136.12928,31.0169245 L136.131525,31.0354716 L136.803948,34.8001237 L136.808071,34.8176056 C136.826532,34.8802176 136.880989,34.9258097 136.945871,34.9329736 L136.963806,34.9339585 L139.937103,34.9339585 L139.954797,34.9330056 C140.030347,34.924819 140.090352,34.8648142 140.098538,34.7892646 L140.099491,34.7715707 L140.099491,31.0069186 L140.098538,30.9892247 C140.090352,30.9136752 140.030347,30.8536704 139.954797,30.8454837 L139.937103,30.8445308 Z M153.554806,30.8445308 L148.82955,30.8445308 L148.811856,30.8454837 C148.736307,30.8536704 148.676302,30.9136752 148.668115,30.9892247 L148.667162,31.0069186 L148.667162,34.7715707 L148.668115,34.7892646 C148.676302,34.8648142 148.736307,34.924819 148.811856,34.9330056 L148.82955,34.9339585 L153.554806,34.9339585 L153.5725,34.9330056 C153.648049,34.924819 153.708054,34.8648142 153.716241,34.7892646 L153.717194,34.7715707 L153.717194,31.0069186 L153.716241,30.9892247 C153.708054,30.9136752 153.648049,30.8536704 153.5725,30.8454837 L153.554806,30.8445308 Z M160.370519,30.8445308 L155.645263,30.8445308 L155.627569,30.8454837 C155.552019,30.8536704 155.492014,30.9136752 155.483828,30.9892247 L155.482875,31.0069186 L155.482875,34.7715707 L155.483828,34.7892646 C155.492014,34.8648142 155.552019,34.924819 155.627569,34.9330056 L155.645263,34.9339585 L160.370519,34.9339585 L160.388213,34.9330056 C160.463762,34.924819 160.523767,34.8648142 160.531954,34.7892646 L160.532906,34.7715707 L160.532906,31.0069186 L160.531954,30.9892247 C160.523767,30.9136752 160.463762,30.8536704 160.388213,30.8454837 L160.370519,30.8445308 Z M167.177083,30.8445308 L162.451827,30.8445308 L162.434133,30.8454837 C162.358583,30.8536704 162.298579,30.9136752 162.290392,30.9892247 L162.289439,31.0069186 L162.289439,34.7715707 L162.290392,34.7892646 C162.298579,34.8648142 162.358583,34.924819 162.434133,34.9330056 L162.451827,34.9339585 L167.177083,34.9339585 L167.194777,34.9330056 C167.270326,34.924819 167.330331,34.8648142 167.338518,34.7892646 L167.339471,34.7715707 L167.339471,31.0069186 L167.338518,30.9892247 C167.330331,30.9136752 167.270326,30.8536704 167.194777,30.8454837 L167.177083,30.8445308 Z M146.748242,30.8445308 L142.022986,30.8445308 L142.005292,30.8454837 C141.929742,30.8536704 141.869738,30.9136752 141.861551,30.9892247 L141.860598,31.0069186 L141.860598,34.7715707 L141.861551,34.7892646 C141.869738,34.8648142 141.929742,34.924819 142.005292,34.9330056 L142.022986,34.9339585 L146.748242,34.9339585 L146.765936,34.9330056 C146.841485,34.924819 146.90149,34.8648142 146.909677,34.7892646 L146.91063,34.7715707 L146.91063,31.0069186 L146.909677,30.9892247 C146.90149,30.9136752 146.841485,30.8536704 146.765936,30.8454837 L146.748242,30.8445308 Z M135.088341,30.8353822 L132.5679,30.8353822 L132.549358,30.8364211 C132.464305,30.8460237 132.40102,30.9208926 132.405716,31.0063573 L132.40778,31.0248134 L133.043608,34.7894655 L133.047601,34.80711 C133.065645,34.8703226 133.12033,34.916546 133.185665,34.923811 L133.203728,34.9248099 L135.673852,34.9248099 L135.692241,34.9237875 C135.776618,34.9143359 135.839754,34.8406209 135.836127,34.7557941 L135.834311,34.7374662 L135.2488,30.9728141 L135.24499,30.9549465 C135.227536,30.8909086 135.172542,30.8438063 135.106582,30.8364007 L135.088341,30.8353822 Z M170.822803,27.1164732 C170.973179,27.1164732 171.096439,27.2325722 171.107837,27.3800248 L171.108697,27.4023672 L171.108697,29.2824061 C171.108697,29.4327822 170.992598,29.5560419 170.845145,29.5674399 L170.822803,29.5683001 L170.143366,29.5683001 L170.143519,29.6392018 C170.143519,29.7643142 170.062357,29.8738906 169.944867,29.9114677 L169.922422,29.9176558 L168.67044,30.2090076 L168.67044,29.0514037 L169.246955,29.0514037 L169.246955,27.4023672 C169.246955,27.2519911 169.363054,27.1287314 169.510507,27.1173334 L169.532849,27.1164732 L170.822803,27.1164732 Z" id="path-1"></path>
    </defs>
    <g id="Silhouettes/Landing-Craft-LCU10" stroke="none" stroke-width="1" fill="none" fill-rule="evenodd">
        <mask id="mask-2" fill="white">
            <use xlink:href="#path-1"></use>
        </mask>
        <use fill="#3E5667" xlink:href="#path-1"></use>
    </g>
</svg>