<?xml version="1.0" encoding="UTF-8"?>
<svg width="200px" height="76px" viewBox="0 0 200 76" version="1.1" xmlns="http://www.w3.org/2000/svg" xmlns:xlink="http://www.w3.org/1999/xlink">
    <title>Silhouettes/Landing Craft LCVP Mk5</title>
    <defs>
        <path d="M178.772734,7.10542736e-15 C178.9846,-0.00390056697 179.160902,0.158622561 179.17658,0.367342817 L179.17764,0.389876993 L179.858645,36.0556227 L179.911358,36.0556955 C180.254285,36.0556955 180.533905,36.3267427 180.547672,36.6662899 L180.548203,36.6925406 L180.548204,36.9007834 C180.588607,36.8904742 180.630554,36.8840283 180.673629,36.8818623 L180.706141,36.8810468 L180.88063,36.880974 L182.234968,6.68697277 C182.244462,6.47528044 182.417914,6.30971917 182.62721,6.30740387 L182.649765,6.30778581 C182.861458,6.31728031 183.027019,6.49073206 183.029334,6.70002753 L183.028952,6.72258337 L181.676262,36.880974 L181.796419,36.8810468 C182.139346,36.8810468 182.418967,37.152094 182.432733,37.4916412 L182.433264,37.5178919 L182.433198,38.4909184 L182.815372,38.4909912 C183.158298,38.4909912 183.437919,38.7620384 183.451685,39.1015856 L183.452217,39.1278363 L183.452364,50.1109631 C183.456763,50.1354674 183.45976,50.160458 183.461269,50.1858492 L183.462406,50.2242255 L183.462406,52.2926984 C183.462406,52.3313278 183.458967,52.369154 183.452378,52.4058872 L183.452217,59.8023759 C183.452217,59.9596034 183.394073,60.1108812 183.289621,60.2274173 L183.268117,60.2502528 L182.514781,61.0117751 L182.514642,62.6767957 C182.622923,62.5094268 182.807593,62.3960911 183.019307,62.3861336 L183.049731,62.3854197 L186.086141,62.385347 L186.086108,56.5336221 C186.060074,56.480745 186.04545,56.4212391 186.04545,56.3583176 C186.04545,56.2953631 186.060089,56.2358277 186.086149,56.1829297 L186.086208,52.791985 L186.086881,52.752398 C186.088726,52.6945597 186.09457,52.61692 186.106889,52.524529 C186.132434,52.3329435 186.178603,52.1405704 186.252189,51.9566048 C186.474845,51.3999651 186.903575,51.0347947 187.542126,51.0195075 L187.584068,51.0190082 L195.41981,51.0190082 C195.631715,51.0190082 195.804882,51.1848677 195.816572,51.3938492 L195.817201,51.4163995 L195.817081,53.1372647 C195.943293,53.0116246 196.117097,52.9346383 196.306298,52.9346383 C196.684495,52.9346383 196.984924,53.2262713 196.998693,53.6006468 L196.999186,53.6275258 L196.999186,61.1881509 C196.999186,61.5753527 196.6935,61.8810384 196.306298,61.8810384 C196.165336,61.8810384 196.032921,61.8383049 195.922367,61.7645548 C195.905301,61.9530246 195.869598,62.136312 195.817254,62.3125989 L195.817134,63.6896057 L196.540657,63.6896785 C196.87456,63.6896785 197.148444,63.9466478 197.175826,64.2736125 L197.177502,64.3002729 L197.177436,65.3810664 L198.170981,65.3811391 C198.513908,65.3811391 198.793528,65.6521863 198.807295,65.9917335 L198.807826,66.0179842 L198.807705,66.61116 L198.862337,66.6299775 C198.900795,66.6437837 198.939013,66.6587999 198.976932,66.6750943 L199.033579,66.7005029 L199.089735,66.7278797 C199.647435,67.0110195 200,67.5347443 200,68.259679 C200,68.7775497 199.693654,69.2033708 199.186152,69.5810975 C198.831772,69.8448573 198.371962,70.0881184 197.827308,70.3176513 C197.416734,70.4906789 196.980502,70.6463515 196.544741,70.7830972 L196.416964,70.822639 L196.29489,70.8593505 L196.268937,70.8668622 L194.695045,74.7259866 C194.604409,74.9482094 194.397423,75.099071 194.161442,75.1198593 L194.132991,75.1223219 L194.105362,75.1223219 L11.5498898,75.1223219 C11.3113306,75.1223219 11.0936523,74.9891064 10.9845716,74.7787189 L10.9720088,74.7531056 L1.56708021,54.4453887 C1.54249672,54.3923065 1.52536778,54.3361416 1.5161327,54.278489 L1.51154244,54.2437318 L0.00349321822,39.7644214 C-0.0347558598,39.3971785 0.245871117,39.0764948 0.611283535,39.0621079 L0.636912045,39.0616044 L2.32837266,39.0616044 C2.5826741,39.0616044 2.81160729,39.2127449 2.9123194,39.444318 L2.92297675,39.4703757 L7.74058566,52.0301969 L13.6854982,55.2998689 L46.9233542,56.6339684 L47.1881657,49.3756541 C47.192943,49.2447165 47.2379728,49.1187163 47.3167087,49.0146458 L47.3370911,48.9890948 L47.9280834,48.2860178 C48.048479,48.1427886 48.2253758,48.0601581 48.411444,48.0589641 L48.4425322,48.0595227 L61.6140095,48.6172144 C61.7665369,48.3797024 62.0700436,48.2593926 62.3555625,48.3574029 C62.6238859,48.2808158 62.8986256,48.3918798 63.0489466,48.6034379 L75.4842752,49.1391555 C75.6452025,48.8750985 75.989967,48.7496272 76.296478,48.8921296 L76.3226515,48.9050033 L76.4431266,48.9675664 L76.5262023,48.9275074 C76.8271086,48.7819076 77.1605871,48.8957803 77.3294179,49.1403355 L89.7715334,49.6665188 C89.9154762,49.4328064 90.2038596,49.3085443 90.481476,49.3849622 C90.7693701,49.2880482 91.0732629,49.4134234 91.2232862,49.6532393 L104.198238,50.2025121 L104.68262,49.9602996 C104.86452,49.8693494 105.059452,49.8742607 105.222981,49.9464277 C105.365731,49.89798 105.527168,49.8992907 105.68026,49.9663791 L105.71076,49.9806786 L106.139584,50.1951126 L119.301535,50.773004 L119.797314,50.5291103 C120.214567,50.3237953 120.697456,50.6201649 120.714871,51.0738916 L120.715356,51.0987944 L120.714898,51.1239968 L120.688941,51.8239077 L132.657737,52.3085039 C133.00067,52.3223868 133.269202,52.6049636 133.268833,52.9450682 L133.26827,52.97134 L133.238914,53.6771876 L134.665055,53.7350362 C135.007995,53.7489096 135.276538,54.0314894 135.276168,54.3716007 L135.275606,54.3978731 L135.03506,60.170339 L139.117541,60.3342205 L139.117607,55.1151959 C139.117607,54.7722691 139.388655,54.4926487 139.728202,54.478882 L139.754453,54.4783508 L143.188321,54.4783508 C143.531248,54.4783508 143.810869,54.749398 143.824635,55.0889452 L143.825167,55.1151959 L143.8251,60.5230906 L143.926995,60.5272149 L143.927062,59.1094885 C143.927062,58.7665616 144.198109,58.4869412 144.537656,58.4731746 L144.563907,58.4726434 L147.355836,58.4726434 C147.698763,58.4726434 147.978383,58.7436906 147.99215,59.0832378 L147.992681,59.1094885 L147.992614,60.6903685 L148.828155,60.7238484 L148.828222,56.3379386 C148.828222,55.9950117 149.099269,55.7153913 149.438816,55.7016246 L149.465067,55.7010934 L153.102726,55.7010934 C153.445653,55.7010934 153.725273,55.9721406 153.73904,56.3116878 L153.739571,56.3379386 L153.739504,60.9209671 L156.495144,61.0317139 C156.456831,60.954165 156.433844,60.8676925 156.430136,60.7762522 L156.429605,60.7500015 L156.429605,53.2301344 C156.429605,52.8872076 156.700652,52.6075872 157.040199,52.5938205 L157.06645,52.5932893 L157.452515,52.593332 C157.409815,52.5137376 157.383542,52.4240144 157.378231,52.3286962 L157.37723,52.2926984 L157.37723,50.2242255 C157.37723,49.8812986 157.648278,49.6016783 157.987825,49.5879116 L158.014076,49.5873804 L158.027595,49.5873076 L155.794755,41.3439845 L155.558401,41.3440573 C155.215474,41.3440573 154.935854,41.0730101 154.922087,40.7334629 L154.921556,40.7072122 L154.921556,39.3723848 C154.921556,39.029458 155.192603,38.7498376 155.53215,38.7360709 L155.558401,38.7355397 L155.810765,38.7354789 C155.921203,38.5944741 156.0898,38.5012069 156.280452,38.4917799 L156.312425,38.4909912 L158.950729,38.4910268 C158.919656,38.4215911 158.900652,38.3455745 158.896387,38.2656455 L158.895469,38.2311584 L158.895469,36.0302217 C158.895469,35.6872948 159.166516,35.4076745 159.506064,35.3939078 L159.532314,35.3933766 L166.267588,35.3933766 C166.340198,35.3933766 166.40997,35.4055283 166.474982,35.427909 C166.497648,35.335898 166.540603,35.2516201 166.598735,35.1801871 L166.598681,25.1018869 L164.892003,25.1019596 C164.549076,25.1019596 164.269456,24.8309124 164.255689,24.4913652 L164.255158,24.4651145 L164.255158,22.2641778 C164.255158,21.9212509 164.526205,21.6416306 164.865752,21.6278639 L164.892003,21.6273327 L167.90294,21.6272599 L167.90294,20.3230011 L167.622795,20.3230739 C167.279868,20.3230739 167.000247,20.0520267 166.986481,19.7124795 L166.98595,19.6862288 L166.98595,18.9933413 C166.98595,18.6504145 167.256997,18.3707941 167.596544,18.3570274 L167.622795,18.3564962 L167.90294,18.3564234 L167.90294,17.9794111 L166.991044,17.9794839 C166.648117,17.9794839 166.368497,17.7084367 166.35473,17.3688895 L166.354199,17.3426388 L166.354199,16.0995171 C166.354199,15.7565903 166.625246,15.4769699 166.964794,15.4632032 L166.991044,15.462672 L167.90294,15.4625993 L167.90294,11.2135687 L166.410242,11.2136414 C166.067315,11.2136414 165.787694,10.9425942 165.773928,10.603047 L165.773396,10.5767963 L165.773396,8.11093207 C165.773396,7.76800522 166.044444,7.48838485 166.383991,7.47461816 L166.410242,7.47408696 L167.388436,7.47408696 C167.599841,7.47408696 167.787187,7.57709526 167.90302,7.73565848 L167.903006,4.82990606 C167.903006,4.48697922 168.174054,4.20735884 168.513601,4.19359215 L168.539852,4.19306095 L168.906674,4.19306095 C169.249601,4.19306095 169.529222,4.46410816 169.542988,4.80365536 L169.543519,4.82990606 L169.543453,15.4625993 L170.424913,15.462672 C170.76784,15.462672 171.04746,15.7337192 171.061227,16.0732664 L171.061758,16.0995171 L171.061758,17.3426388 C171.061758,17.6855656 170.790711,17.965186 170.451164,17.9789527 L170.424913,17.9794839 L169.543453,17.9794111 L169.543453,18.3564234 L169.823731,18.3564962 C170.166658,18.3564962 170.446279,18.6275434 170.460045,18.9670906 L170.460576,18.9933413 L170.460576,19.6862288 C170.460576,20.0291556 170.189529,20.308776 169.849982,20.3225427 L169.823731,20.3230739 L169.543453,20.3230011 L169.543453,21.6272599 L169.976574,21.6273327 C170.319501,21.6273327 170.599121,21.8983799 170.612888,22.2379271 L170.613419,22.2641778 L170.613419,24.4651145 C170.613419,24.8080413 170.342372,25.0876617 170.002825,25.1014284 L169.976574,25.1019596 L169.523073,25.1018869 L169.523073,34.9449649 L176.436731,34.9450376 C176.779658,34.9450376 177.059278,35.2160848 177.073045,35.555632 L177.073576,35.5818827 L177.073509,38.4909184 L178.173977,38.4909184 L178.174044,36.6925406 C178.174044,36.3496138 178.445092,36.0699934 178.784639,36.0562267 L178.81089,36.0556955 L179.063741,36.0556227 L178.383002,0.405051206 C178.378812,0.185618029 178.553301,0.0043354283 178.772734,7.10542736e-15 Z M195.022429,63.5916444 C194.9863,63.6252552 194.949304,63.6579396 194.911478,63.6896587 L195.022352,63.6896057 L195.022429,63.5916444 Z M195.02223,56.7556362 L186.880924,56.7556362 L186.880924,62.385347 L186.90137,62.3854197 C186.916788,62.3854197 186.932079,62.3859676 186.947223,62.3870451 L186.947223,59.1808151 C186.947223,58.8378883 187.21827,58.5582679 187.557817,58.5445012 L187.584068,58.54397 L190.73263,58.54397 C191.075557,58.54397 191.355177,58.8150172 191.368944,59.1545644 L191.369475,59.1808151 L191.369411,59.2604517 C191.848078,58.8940926 192.447132,58.6764338 193.096599,58.6764338 C193.839351,58.6764338 194.516168,58.9611092 195.022387,59.427315 L195.02223,56.7556362 Z M195.022297,51.8136696 L187.584068,51.8137909 C187.293298,51.8137909 187.11884,51.950817 187.002385,52.2221901 L186.990127,52.2517797 C186.943349,52.3687235 186.912142,52.4987531 186.8947,52.6295705 C186.886616,52.6902006 186.882814,52.7387693 186.881523,52.7698047 L186.880924,52.791985 L186.880924,55.9608535 L195.022297,55.9608535 L195.022297,51.8136696 Z M120.641997,53.0966274 L120.639328,53.1675902 L131.966073,53.6257548 L131.969051,53.5552287 L120.641997,53.0966274 Z M168.24945,23.3084825 L167.872438,23.3084825 L167.872371,23.8280753 L168.249383,23.8280753 L168.24945,23.3084825 Z" id="path-1"></path>
    </defs>
    <g id="Silhouettes/Landing-Craft-LCVP-Mk5" stroke="none" stroke-width="1" fill="none" fill-rule="evenodd">
        <mask id="mask-2" fill="white">
            <use xlink:href="#path-1"></use>
        </mask>
        <use fill="#3E5667" xlink:href="#path-1"></use>
    </g>
</svg>