<?xml version="1.0" encoding="UTF-8"?>
<svg width="200px" height="65px" viewBox="0 0 200 65" version="1.1" xmlns="http://www.w3.org/2000/svg" xmlns:xlink="http://www.w3.org/1999/xlink">
    <title>Silhouettes/Merlin 4</title>
    <defs>
        <path d="M15.9303703,-7.10542736e-15 L19.7414037,0.00179174112 L19.7414037,16.2045067 L20.0155401,16.4804349 L20.9382868,15.5576882 L21.6101897,16.2295911 L20.687443,17.1523378 L21.6066062,18.071501 L23.9806632,18.071501 L26.0196646,15.9321621 L37.1642944,15.9303703 L37.1642944,19.7431955 L22.3895971,19.7431955 L22.3878054,19.1250448 L21.5779384,19.1250448 L20.7609044,19.9420787 L31.4683494,30.1872545 L37.001246,33.505559 L86.4085075,29.8324897 L86.4085075,28.3525116 L85.1632474,28.2450071 C84.8192331,28.1953896 84.6538416,27.3732667 84.7600836,26.3592505 L84.792357,26.1020847 C84.947825,25.0568105 85.3307699,24.2344331 85.6804799,24.1549669 L85.7670642,24.1508786 L92.3982981,24.7242358 C92.4623451,24.7338274 92.5201942,24.7704009 92.5712274,24.8301827 L92.9974658,24.5540044 C94.9850922,23.2954509 101.141661,19.7682798 107.789354,19.7682798 C110.503647,19.7682798 116.305598,20.2403833 120.838398,20.9179314 L120.912066,19.2217988 L119.432088,19.1555044 L119.458964,18.5427289 L118.706897,18.510611 C118.512786,18.718397 118.247006,18.8568337 117.950431,18.8871322 L117.749924,18.8917404 C117.482413,19.34655 117.083008,19.6293959 116.647722,19.6106066 C116.166588,19.5886317 115.76011,19.2015834 115.545395,18.6369262 L113.470965,18.5445206 C113.140773,18.5291629 112.852705,18.3584721 112.672204,18.1091746 L112.591221,17.9783304 L109.698879,17.8484664 C109.492662,18.2039162 109.1018,18.4360817 108.663724,18.417307 L105.445757,18.272176 C105.076609,18.2553965 104.758408,18.066748 104.563009,17.7874255 L62.7682751,16.6864851 C61.481805,16.6291494 58.5576834,18.5839389 58.5576834,18.5839389 L58.0957694,18.3278969 C57.3566915,17.9332162 55.8969479,17.2170395 54.9652425,17.1756304 C53.6769806,17.1182947 47.0744146,17.7686967 46.6891902,17.7507793 C46.3003824,17.7346537 45.7324005,18.0105818 45.7610683,17.3225532 C45.7933197,16.6381081 48.753276,15.7368623 50.2547551,15.8049485 L55.6640215,16.0468335 C65.9212664,15.0712724 94.3426494,16.0741248 104.56763,16.4812529 C104.781727,16.1746418 105.144024,15.9812249 105.546094,15.9984565 L108.764061,16.1417958 C109.201434,16.161733 109.569479,16.4251815 109.744046,16.7947318 L112.639598,16.9265784 C112.803926,16.6654961 113.081463,16.4820803 113.401124,16.4462873 L113.564136,16.4410166 L115.639024,16.5327556 C115.902602,15.9898646 116.340823,15.6414459 116.821521,15.6634009 C117.256922,15.6821952 117.631477,15.9997425 117.858315,16.4770493 L117.876857,16.4768514 C118.35576,16.498678 118.75646,16.7946734 118.934577,17.2059529 L119.5163,17.2329661 L119.532426,16.8817849 L121.014196,16.9480793 L119.321,16.8710344 L119.405212,15.0273328 L121.096616,15.1025859 L121.118117,14.631358 L121.589344,14.6510672 L121.628763,13.7534049 L124.762518,13.8931607 L124.721308,14.790823 L125.190744,14.8141156 L125.169243,15.2853435 L126.869606,15.3605967 L126.787185,17.2042983 L126.570385,17.1971313 L126.554259,17.5465208 L127.307908,17.5809347 C127.501893,17.3738168 127.767206,17.2356513 128.062,17.2044813 L128.262356,17.2008866 C128.530532,16.7454063 128.931543,16.4623723 129.367293,16.4822266 C129.84892,16.504224 130.25499,16.8912952 130.469002,17.4563657 L132.54405,17.5483126 C132.931066,17.56623 133.257163,17.7937811 133.423795,18.1145028 L136.316815,18.2424607 C136.4944,17.9394568 136.806427,17.7265348 137.166096,17.6828809 L137.349499,17.6755262 L140.567466,17.822449 C140.97125,17.8397047 141.316684,18.0652443 141.504658,18.3904735 L149.52452,18.8128248 C162.349698,19.5262494 182.147528,20.8118282 190.252448,22.3215109 L195.656339,22.5616042 C197.157818,22.6278987 200.029979,23.7889469 199.999763,24.4751838 C199.971493,25.1042342 199.510067,24.8841487 199.136627,24.8320586 L199.037355,24.8227815 C198.65213,24.8030724 192.130193,23.5631875 190.843722,23.5094353 C189.555461,23.4485161 187.141985,24.5880635 187.141985,24.5880635 L186.846606,24.3581902 C186.150138,23.8270107 184.383934,22.5445764 183.319045,22.3461904 L183.115943,22.3215109 C182.058619,22.2743221 151.993251,20.3641424 141.38479,19.689516 C141.203683,19.9082926 140.941582,20.0547083 140.647224,20.0871383 L140.467129,20.092585 L137.249162,19.9510374 C136.812323,19.9323158 136.444169,19.668417 136.269459,19.2980307 L133.377209,19.1662548 C133.183701,19.4708508 132.837895,19.6679423 132.450879,19.6500249 L130.373356,19.5600196 C130.109688,20.1019186 129.671889,20.4495722 129.191702,20.4276406 C128.75683,20.4088691 128.383263,20.0920693 128.156496,19.6157292 L128.136367,19.6123984 C127.658179,19.5918863 127.258877,19.2961887 127.080885,18.8861052 L126.495132,18.8580753 L126.468256,19.4708508 L124.986486,19.4045564 L124.887325,21.6789877 C125.952531,21.9456795 126.700197,22.2254224 126.960984,22.507852 L128.130315,23.7102625 C128.827874,24.414935 129.738425,25.3244683 130.709446,26.2900005 L132.387959,26.5103956 C135.578903,26.9443809 138.779627,27.4593729 140.189409,27.7289856 L140.189409,28.0067055 L146.527702,29.2661749 C148.54692,29.6768317 150.765112,30.1380188 152.727321,30.5689506 L152.726222,28.9921631 C152.726222,28.8541991 152.835518,28.7431111 152.973482,28.7431111 L154.516171,28.7431111 C154.654135,28.7431111 154.763431,28.8541991 154.763431,28.9921631 L154.764901,31.0279111 L156.043618,31.3336912 C156.30354,31.3980685 156.545999,31.4598317 156.76839,31.5185181 C160.755828,32.5707588 162.557639,33.6244803 164.946914,35.7714196 L165.771543,36.5263437 L166.11232,36.8614902 L176.226698,46.5279335 L176.226698,55.1766679 C172.761216,56.2574318 167.486804,56.8547296 163.199274,57.1796078 L163.199617,59.7757087 C164.257061,60.0823634 165.033692,61.0594565 165.033692,62.2182106 C165.033692,63.6229356 163.892352,64.7606912 162.493003,64.7606912 C161.086486,64.7606912 159.946938,63.6229356 159.946938,62.2182106 C159.946938,61.0600871 160.721506,60.0834268 161.781658,59.7762099 L161.781576,57.2800107 L160.01252,57.3865029 C159.644936,57.4065347 159.295923,57.4242609 158.968569,57.4399147 L158.968648,60.2114605 C158.968648,60.7864465 158.570319,61.2622204 158.052316,61.3439728 L157.893603,61.3563831 L141.284163,61.3563831 C140.745012,61.3563831 140.297669,60.9328806 140.220789,60.3806851 L140.209118,60.2114605 L140.209118,57.5489332 L105.195258,57.5523097 C104.939424,57.5932651 104.658216,57.6152276 104.349211,57.6152276 L103.804522,57.6152276 L103.80549,58.1085414 C104.390827,58.2949719 104.907684,58.6353487 105.308227,59.0822751 L106.407511,59.7173254 C106.526161,59.5819669 106.700069,59.4965558 106.893484,59.4965558 C107.251832,59.4965558 107.542094,59.7868178 107.542094,60.1451661 C107.542094,60.5017226 107.251832,60.7901929 106.893484,60.7901929 C106.699228,60.7901929 106.524649,60.7045693 106.405966,60.5689606 L106.120323,60.7334241 C106.157406,60.9347986 106.176787,61.1424088 106.176787,61.3545913 C106.176787,63.2359195 104.650224,64.7606912 102.770687,64.7606912 C100.889359,64.7606912 99.3610041,63.2359195 99.3610041,61.3545913 C99.3610041,61.1411458 99.3806396,60.9323272 99.418199,60.7298288 L99.1351552,60.5671966 C99.016445,60.7038264 98.8411963,60.7901929 98.6460994,60.7901929 C98.2877511,60.7901929 97.9992808,60.5017226 97.9992808,60.1451661 C97.9992808,59.7868178 98.2877511,59.4965558 98.6460994,59.4965558 C98.8395144,59.4965558 99.013422,59.5819669 99.1320726,59.7173254 L100.228958,59.0840426 C100.630161,58.6362461 101.148163,58.2952176 101.734866,58.1085414 L101.733269,57.6152276 L91.4443607,57.6119969 C91.3336778,57.6052606 91.0653723,57.5871827 90.6898549,57.55034 L89.5064279,57.5489332 L89.5089503,57.4080352 C88.0667652,57.2018048 86.1408022,56.8042262 84.7871934,56.0597793 L43.8385301,44.5695605 L19.7001937,41.4519309 L18.985289,41.4519309 L18.985289,42.7061497 L15.2602592,42.7061497 L15.2602592,41.4519309 L14.2980942,41.4519309 L14.4468087,30.9917462 L13.6638178,30.3933047 L12.6604428,30.43989 L6.914329,21.2392993 L0,21.2392993 L0,17.4264742 L4.5313133,17.4246824 L3.70890413,16.1077527 L9.84561748,14.5973149 L15.1742556,14.5973149 L15.9303703,15.3211784 L15.9303703,-7.10542736e-15 Z M14.3536381,37.6319388 L14.3536381,41.4196796 L10.3150537,41.4196796 L10.3150537,37.6319388 L14.3536381,37.6319388 Z M176.226698,46.5279335 C176.226698,46.5279335 179.897976,49.4233872 179.897976,51.8099864 C179.897976,54.1983773 176.226698,55.1766679 176.226698,55.1766679 L176.226698,46.5279335 Z M166.474251,37.2072962 L172.449708,42.9211586 L168.586714,44.7344007 C168.586714,44.7344007 168.524505,44.7710955 168.433226,44.7803839 L168.359835,44.7812099 C168.256093,44.7727887 168.131567,44.7209357 168.019397,44.5615496 L167.378073,43.4120914 C166.237869,41.4092061 163.795598,37.2234219 163.795598,37.2234219 L166.474251,37.2072962 Z M162.441042,37.5280179 C162.618424,37.5280179 162.828058,37.6426893 162.930187,37.8379891 L165.093081,41.907974 C165.431034,42.5548379 165.704734,43.0892956 165.813099,43.3260921 C166.207282,44.1735857 165.813099,44.5014743 165.813099,44.5014743 L162.15078,44.5014743 L162.15078,37.8379891 L162.441042,37.5280179 Z M160.944938,37.4688904 C161.217283,37.4688904 161.439459,37.6910663 161.439459,37.9652027 L161.439459,44.0033703 C161.439459,44.2775067 161.217283,44.5014743 160.944938,44.5014743 L158.110404,44.5014743 C157.836267,44.5014743 157.6123,44.2775067 157.6123,44.0033703 L157.6123,37.9652027 C157.6123,37.6910663 157.836267,37.4688904 158.110404,37.4688904 L160.944938,37.4688904 Z M157.244993,33.1257099 C162.711595,33.8029881 165.685885,36.4493897 165.685885,36.4493897 L157.244993,36.4493897 L157.244993,33.1257099 Z" id="path-1"></path>
    </defs>
    <g id="Silhouettes/Merlin-4" stroke="none" stroke-width="1" fill="none" fill-rule="evenodd">
        <mask id="mask-2" fill="white">
            <use xlink:href="#path-1"></use>
        </mask>
        <use fill="#3E5667" xlink:href="#path-1"></use>
    </g>
</svg>