<?xml version="1.0" encoding="UTF-8"?>
<svg width="200px" height="65px" viewBox="0 0 200 65" version="1.1" xmlns="http://www.w3.org/2000/svg" xmlns:xlink="http://www.w3.org/1999/xlink">
    <title>Silhouettes/Merlin</title>
    <defs>
        <path d="M140.190076,28.0066236 C140.190076,28.0066236 147.401236,29.3990504 152.727194,30.5686926 L152.72755,28.9917326 C152.72755,28.8537672 152.836847,28.7426781 152.974813,28.7426781 L154.515725,28.7426781 C154.653691,28.7426781 154.76478,28.8537672 154.76478,28.9917326 L154.764922,31.0276756 C155.531357,31.2056912 156.213047,31.371703 156.76922,31.5184709 C161.153654,32.6759471 162.897036,33.835215 165.685012,36.4493911 L165.499,36.449 L166.112884,36.8613165 L176.227363,46.5278553 L176.226507,46.5289215 L176.235287,46.5357627 C176.433259,46.6937919 179.897781,49.4924226 179.897781,51.8108561 C179.897781,54.1974789 176.226467,55.1775709 176.226467,55.1775709 L176.225507,55.1759215 L175.95923,55.2582774 C172.493667,56.2877662 167.377416,56.8631157 163.198806,57.1797107 L163.199305,59.7753584 C164.257732,60.0817644 165.033529,61.0590607 165.033529,62.218108 C165.033529,63.6228469 163.89397,64.7606137 162.492815,64.7606137 C161.086284,64.7606137 159.946725,63.6228469 159.946725,62.218108 C159.946725,61.0603842 160.720751,60.0839966 161.780334,59.7764107 L161.780237,57.2801614 C160.739656,57.348812 159.786183,57.4008754 158.968052,57.4399925 L158.968963,60.2111589 C158.968963,60.8014837 158.550663,61.2872335 158.011243,61.3493765 L157.893907,61.3560928 L141.284303,61.3560928 C140.730769,61.3560928 140.274006,60.909698 140.215565,60.3359402 L140.209248,60.2111589 L140.208507,57.5489215 L103.805507,57.5489215 L103.806077,58.1076641 C105.124476,58.527516 106.09496,59.7273242 106.17279,61.1665141 L106.177835,61.3535844 C106.177835,63.2367229 104.651257,64.7597179 102.76991,64.7597179 C100.888563,64.7597179 99.3619848,63.2367229 99.3619848,61.3535844 C99.3619848,59.8320231 100.358614,58.5455821 101.733743,58.1076641 L101.733507,57.5489215 L89.5062363,57.5489637 L89.4375073,57.1469215 L89.4377911,57.5435884 L43.8375294,44.5694629 L19.6989547,41.4518026 L18.9845073,41.4509215 L18.9854764,42.7060337 L15.2604098,42.7060337 L15.2595073,41.4509215 L14.2968019,41.4518026 L14.2965073,41.4169215 L10.3151555,41.4177591 L10.3151555,37.629981 L14.3505073,37.6299215 L14.4455179,30.9915146 L13.6625193,30.3930672 L12.6591343,30.4396529 L6.913,21.239 L0,21.2391506 L0,17.4262878 L2.57834093,17.4244961 L4.53,17.424 L3.70750733,16.1073742 L9.84428126,14.5969215 L15.172972,14.5969215 L17.144,16.483 L18.072,15.554 L18.0720377,13.1873448 L15.9290942,11.1465316 L15.9290942,0 L19.7401652,0.00179175881 L19.7401652,14.7784267 L19.1238001,14.7766349 L19.123,15.587 L20.014,16.479 L20.9377768,15.5569459 L21.6096863,16.2288554 L20.686,17.151 L21.606,18.072 L23.980004,18.0722169 L26.0190256,15.9310651 L37.1637654,15.9292734 L37.1637654,19.7439279 L22.3889222,19.7439279 L22.3871305,19.1257711 L21.575,19.125 L20.759,19.941 L31.4672266,30.1870149 L37.0001778,33.5053522 L86.4075073,29.8589215 L86.4075073,28.3519215 L85.1628338,28.2440317 C84.8125449,28.1932652 84.6460496,27.3338071 84.7690069,26.2875367 L84.7937315,26.1010881 C84.9511076,25.0316072 85.3482145,24.1954641 85.7058101,24.1511427 L85.7684483,24.1516545 L92.3979559,24.7232256 C92.462061,24.7328259 92.5200107,24.7694568 92.5711572,24.8293347 C93.1502315,24.444598 94.6896048,23.4675824 96.8247327,22.4732951 C96.8741328,22.4506818 96.923435,22.427854 96.9730463,22.4050242 C97.0040775,22.3903716 97.0345088,22.3764249 97.0650546,22.3624791 C97.1211842,22.3372116 97.177836,22.3115197 97.2348697,22.2858406 C97.377014,22.2215153 97.5209262,22.1578767 97.6670952,22.0944673 C97.6987072,22.081048 97.7302903,22.0674 97.7619771,22.0537641 C97.8272073,22.0254131 97.8925136,21.997555 97.9582463,21.9697608 C97.9835976,21.9593076 98.0087869,21.9486902 98.034038,21.9380829 C98.1664818,21.8821992 98.3003222,21.8269773 98.4357904,21.7721349 L98.548534,21.7269489 C98.5881306,21.711084 98.627863,21.6952537 98.6677294,21.6794604 C99.0171265,21.540865 99.3767533,21.4053418 99.7455922,21.2743677 C99.8097858,21.2517054 99.8742832,21.2290359 99.9390542,21.2065135 C99.9773122,21.1930867 100.015417,21.1799225 100.053615,21.1668107 C100.219582,21.1099511 100.387528,21.0538892 100.55714,20.9989704 C100.687534,20.9566581 100.819159,20.9150413 100.951729,20.8741709 C101.095369,20.8299669 101.239442,20.7867559 101.384559,20.7444997 C101.567411,20.691196 101.751846,20.6394938 101.937828,20.5894776 C101.981844,20.5776884 102.025932,20.5659483 102.070106,20.5543048 C102.10722,20.5444769 102.14452,20.5347305 102.18188,20.5250542 C102.48931,20.4454659 102.80069,20.3705997 103.115625,20.301236 C103.200896,20.2824302 103.286936,20.2639459 103.37323,20.2458851 C103.400966,20.2401004 103.428638,20.2343574 103.456336,20.2286583 C103.521247,20.2152839 103.586255,20.2021792 103.651401,20.1893222 C103.726233,20.1745692 103.801287,20.1601184 103.876516,20.1460046 C103.924656,20.1369583 103.973293,20.1279873 104.022,20.1191594 C104.086364,20.1075073 104.150335,20.0961818 104.214424,20.0851082 C104.290925,20.0718787 104.367926,20.0589651 104.44509,20.0464236 C104.471155,20.0421962 104.497131,20.0380193 104.523126,20.0338849 C104.626147,20.0174919 104.729534,20.0017633 104.833194,19.9867277 C104.848687,19.9844864 104.864331,19.9822337 104.879982,19.9799968 C104.963826,19.968009 105.047601,19.9565144 105.131542,19.945485 C105.200128,19.9364755 105.269453,19.9276954 105.338887,19.9192388 C105.400899,19.9116843 105.462562,19.9044406 105.524307,19.8974562 C105.606524,19.8881576 105.689152,19.8792892 105.77192,19.8708956 C105.798614,19.8681871 105.82498,19.8655633 105.85136,19.8629881 C105.946251,19.8537243 106.041705,19.8450544 106.137329,19.8370351 C106.166524,19.8345855 106.195906,19.832184 106.225304,19.8298443 L106.303871,19.8237429 C106.346704,19.8204982 106.38957,19.8173857 106.432468,19.8144068 C106.881384,19.7832228 107.334302,19.7666832 107.789522,19.7666832 C107.96188,19.7666832 108.146688,19.7685894 108.342831,19.7723333 C108.352544,19.772519 108.36113,19.7726862 108.369736,19.7728569 L108.342831,19.7723333 C108.419888,19.7738041 108.498693,19.7755585 108.579181,19.7775925 C108.632943,19.7789503 108.688037,19.7804498 108.743877,19.7820753 C108.758461,19.7825004 108.771412,19.7828835 108.784404,19.7832733 C109.113128,19.7931242 109.469276,19.8073819 109.846825,19.8257328 C109.885778,19.8276267 109.923848,19.8295084 109.962128,19.8314309 C110.011159,19.8338926 110.061587,19.8364763 110.112366,19.8391294 C110.299985,19.8489327 110.492091,19.8596646 110.688497,19.8713108 C110.794912,19.8776205 110.902924,19.8842196 111.012128,19.8910841 C111.342008,19.9118223 111.682069,19.9349306 112.030861,19.9603208 C112.155833,19.9694182 112.281774,19.9787971 112.408737,19.9884623 C112.558945,19.9998973 112.7104,20.0117185 112.863122,20.0239296 C112.893261,20.0263393 112.923786,20.0287915 112.954361,20.0312591 L113.361056,20.0647525 C113.794794,20.1011806 114.237076,20.14057 114.684425,20.182707 C114.874749,20.2006333 115.066615,20.2191183 115.259133,20.2380874 C115.555343,20.2672735 115.853052,20.2976004 116.151322,20.3290124 C116.248534,20.33925 116.345904,20.3496136 116.4433,20.3600905 C116.808033,20.3993244 117.173407,20.4401812 117.537342,20.4825203 C117.669299,20.4978718 117.801126,20.5134252 117.932677,20.5291683 C117.967849,20.5333774 118.002863,20.5375835 118.037855,20.5418029 C118.237511,20.5658769 118.436662,20.590409 118.634821,20.6153583 C118.732344,20.6276369 118.829644,20.6400188 118.926668,20.6524996 C118.961093,20.6569281 118.995005,20.661307 119.028881,20.6656979 L119.179295,20.6853035 C119.419019,20.7167262 119.656844,20.748747 119.89222,20.781332 C120.104987,20.8107884 120.315139,20.840617 120.522897,20.870879 C120.575059,20.8784772 120.626535,20.8860239 120.677857,20.8935969 L120.837465,20.9173084 L120.837465,20.9173084 L120.912,19.22 L119.433446,19.1546184 L119.471,18.285 L118.013324,18.2205669 C117.818677,19.0473583 117.268631,19.6365778 116.646545,19.6097251 C116.165696,19.5877633 115.76016,19.2011653 115.545389,18.637058 L113.47101,18.5434495 C113.128585,18.5275227 112.831463,18.3459578 112.652631,18.0805514 L112.591257,17.9772537 L109.698259,17.849187 C109.492259,18.2036246 109.101596,18.4349778 108.663005,18.4162346 L105.445006,18.2711021 C105.077129,18.2543328 104.758911,18.0659033 104.563509,17.7868605 C93.9391913,17.5126277 63.8260095,16.7345952 62.7687155,16.6859331 C61.4804409,16.6285968 58.5562905,18.5834057 58.5562905,18.5834057 C58.5562905,18.5834057 56.2538804,17.2324195 54.9656059,17.1750833 C53.7112332,17.1192558 47.416828,17.7344135 46.7308034,17.750289 L46.6176447,17.7501682 C46.2357043,17.7632389 45.7326727,17.9695702 45.7613408,17.3220075 C45.7918007,16.6375556 48.7535781,15.7363009 50.2550719,15.8043878 C51.7565658,15.8706828 55.6626,16.0462752 55.6626,16.0462752 C65.9209583,15.0706082 94.3472186,16.0737646 104.569718,16.4808194 C104.781705,16.1732779 105.144194,15.9801404 105.547136,15.9973602 L108.765135,16.1407009 C109.202144,16.1606784 109.570416,16.4251516 109.74444,16.7958778 L112.637843,16.9254913 C112.809851,16.6547366 113.102196,16.4689246 113.436854,16.4423013 L113.564182,16.4399246 L115.63925,16.5316335 C115.903321,15.9888574 116.341496,15.6405281 116.822137,15.6624805 C117.444358,15.6893389 117.941075,16.3263236 118.060824,17.1677826 L119.518,17.233 L119.533,16.881 L119.320565,16.871201 L119.404778,15.0274811 L121.096,15.102 L121.117879,14.6306066 L121.587,14.651 L121.627992,13.7521072 L124.761779,13.8918644 L124.721,14.792 L125.192338,14.813366 L125.171,15.284 L126.869245,15.3607483 L126.786824,17.2044681 L125.089,17.128 L125.089,17.129 L126.570022,17.196226 L126.554,17.547 L127.307827,17.5812308 C127.540642,17.3323627 127.87649,17.1832948 128.242808,17.1990928 L128.263283,17.1999861 C128.531459,16.7452333 128.93214,16.4627322 129.367495,16.4825685 C129.848343,16.5045303 130.253879,16.8903826 130.468169,17.4539606 L132.544283,17.5474107 C132.931303,17.5653283 133.257403,17.7928817 133.424037,18.1136065 L136.316526,18.2419312 C136.500139,17.9273758 136.829347,17.709984 137.207108,17.6787097 L137.350855,17.6758798 L140.568854,17.8228041 C140.971462,17.8400587 141.316467,18.0655699 141.504306,18.3907651 C151.720084,18.8970798 180.121209,20.4328368 190.252355,22.3199395 C190.252355,22.3199395 194.156597,22.4955319 195.658091,22.5618269 C197.159585,22.628122 200.029983,23.7891817 199.999763,24.4736336 C199.969063,25.161669 199.424368,24.8373606 199.03914,24.8212348 C198.653912,24.8033172 192.130118,23.5634201 190.845427,23.5078756 C189.557152,23.4487476 187.141862,24.5865144 187.141862,24.5865144 C187.141862,24.5865144 184.402262,22.3808593 183.117571,22.3217313 C182.058793,22.2745434 151.99576,20.364452 141.386772,19.6897679 C141.196505,19.9190146 140.916687,20.0694284 140.603048,20.0915035 L140.466724,20.0929625 L137.248725,19.9514135 C136.811112,19.9314083 136.442426,19.6671031 136.268699,19.2954885 L133.377451,19.1653689 C133.183941,19.4699679 132.838131,19.6670614 132.451111,19.6491438 L130.374787,19.5578837 C130.111248,20.1012231 129.672834,20.449987 129.191902,20.4280214 C128.756355,20.4092208 128.382302,20.0914687 128.155638,19.6138965 L128.137094,19.6125919 C127.561234,19.5878902 127.099776,19.1641103 127.001449,18.6220745 L126.508,18.599 L126.469683,19.4699679 L124.988,19.403 L124.887668,21.6790149 C124.990189,21.7046937 125.089768,21.7304931 125.186255,21.7564037 C125.389863,21.8110942 125.578851,21.8660136 125.752792,21.9213377 C125.797597,21.9355939 125.840428,21.9495511 125.882282,21.9635325 L125.752792,21.9213377 C125.90014,21.9682037 126.036691,22.0153602 126.161594,22.0627549 C126.244876,22.0943621 126.322657,22.1259361 126.395054,22.1575999 C126.421835,22.1693188 126.447184,22.1807279 126.471822,22.1921478 C126.49669,22.2036706 126.521157,22.2153632 126.54487,22.2270665 C126.561544,22.2352962 126.577794,22.2435045 126.593668,22.2517178 C126.662261,22.2872093 126.723806,22.3227641 126.778017,22.3583905 C126.790489,22.3665863 126.802591,22.3747994 126.8143,22.383016 C126.871923,22.4234097 126.920398,22.4642732 126.958664,22.5051923 C126.959599,22.5061923 126.960473,22.5071332 126.961342,22.5080742 C127.007864,22.5583282 127.063948,22.6178277 127.128847,22.6858438 C127.153459,22.7116388 127.179773,22.7391101 127.207354,22.7678054 C127.379325,22.9467104 127.598966,23.1715843 127.857052,23.4334831 L127.899295,23.4763331 C128.069332,23.6487438 128.255303,23.8364976 128.454437,24.0368886 C128.905957,24.4912636 129.425823,25.0112827 129.981097,25.5647833 L130.22788,25.8106637 C130.317538,25.8999538 130.407969,25.98997 130.499041,26.0805858 L130.667182,26.2478407 L130.667182,26.2478407 L130.709289,26.2892256 C134.393097,26.7544516 138.530353,27.4111945 140.190076,27.7283635 L140.190076,28.0066236 Z M20.138,17.7 L19.764,18.074 L20.511,18.073 L20.138,17.7 Z M18.072,16.652 L17.705,17.019 L18.072,17.37 L18.072,16.652 Z M19.123,16.685 L19.123,17.37 L19.466,17.028 L19.123,16.685 Z" id="path-1"></path>
    </defs>
    <g id="Silhouettes/Merlin" stroke="none" stroke-width="1" fill="none" fill-rule="evenodd">
        <mask id="mask-2" fill="white">
            <use xlink:href="#path-1"></use>
        </mask>
        <use fill="#3E5667" xlink:href="#path-1"></use>
    </g>
</svg>