<?xml version="1.0" encoding="UTF-8"?>
<svg width="200px" height="65px" viewBox="0 0 200 65" version="1.1" xmlns="http://www.w3.org/2000/svg" xmlns:xlink="http://www.w3.org/1999/xlink">
    <title>Silhouettes/Merline HM2</title>
    <defs>
        <path d="M102.771315,57.9488453 C104.650863,57.9488453 106.177436,59.4718345 106.177436,61.354966 C106.177436,63.2363056 104.650863,64.7610866 102.771315,64.7610866 C100.889975,64.7610866 99.3616108,63.2363056 99.3616108,61.354966 C99.3616108,59.4718345 100.889975,57.9488453 102.771315,57.9488453 Z M15.9304676,-2.84217094e-14 L19.7415243,0.00179175206 L19.7415243,14.778371 L19.1251615,14.778371 L19.1251615,15.5846595 L20.0174541,16.4787437 L20.9384146,15.5577832 L21.6103217,16.2296902 L20.6893611,17.1506508 L21.6085299,18.0716113 L23.9808096,18.0716113 L26.0198235,15.9322594 L37.1645213,15.9304676 L37.1645213,19.743316 L22.3897338,19.743316 L22.3879421,19.1251615 L21.5762784,19.1251615 L20.7610312,19.9422005 L31.4685415,30.1874388 L37.0014719,33.5057636 L86.4090351,29.8613399 L86.4090351,28.0068765 L86.9968207,27.9998763 C88.49119,27.9448404 92.3182334,27.5550308 92.3182334,25.0056918 L92.6797213,24.7616264 C94.2535797,23.7285452 100.74609,19.7684005 107.790012,19.7684005 L108.456595,19.7763783 C108.575887,19.7790183 108.699118,19.782304 108.826055,19.7862209 L108.825645,19.7684005 L120.866219,20.2682994 L120.912805,19.2219162 L119.432817,19.1556213 L119.470444,18.2866216 L118.887571,18.2610122 C118.700982,18.6047521 118.354553,18.8460354 117.951152,18.8872476 L117.750643,18.8918557 C117.48313,19.3466682 117.083722,19.6295158 116.648435,19.6107264 C116.167297,19.5887513 115.760817,19.2017007 115.546101,18.63704 L113.471658,18.5446339 C113.141464,18.529276 112.853394,18.3585842 112.672892,18.1092851 L112.591908,17.9784402 L108.241534,17.7813475 L108.236159,17.8816856 L62.7686583,16.686587 C61.4821804,16.6292509 58.558041,18.5840524 58.558041,18.5840524 L58.0961241,18.3280088 C57.3570417,17.9333257 55.8972892,17.2171447 54.9655781,17.1757353 C53.6773084,17.1183992 47.074702,17.7688052 46.6894753,17.7508877 C46.3006651,17.7347619 45.7326797,18.0106918 45.7613477,17.322659 C45.7935993,16.6382097 48.7535737,15.7369584 50.2550619,15.805045 L55.6643614,16.0469315 L55.6643614,16.0469315 L56.4612101,15.9779017 C66.4129536,15.1924835 90.148586,15.9358643 101.722396,16.3712222 L108.293495,16.6364179 L108.289911,16.7313808 L112.640285,16.9266818 C112.804615,16.6655979 113.082153,16.482181 113.401817,16.4463877 L113.564829,16.4411169 L115.63973,16.5328566 C115.903309,15.9899622 116.341533,15.6415414 116.822235,15.6634966 C117.257638,15.6822909 117.632195,15.9998402 117.859035,16.4771499 L117.877577,16.476952 C118.356482,16.4987788 118.757185,16.794776 118.935303,17.206058 L119.51703,17.2330714 L119.533156,16.881888 L121.014934,16.9481828 L121.014934,16.946391 L119.321729,16.8711374 L119.405941,15.0274246 L121.097355,15.1026782 L121.118856,14.6314474 L121.590087,14.6511566 L121.629505,13.7534889 L124.76328,13.8932455 L124.722069,14.7909133 L125.191509,14.8142061 L125.170008,15.2854369 L126.87038,15.3606905 L126.78796,17.2044033 L126.571158,17.1972363 L126.555032,17.546628 L127.308686,17.581042 C127.502672,17.3739229 127.767987,17.2357566 128.062782,17.2045863 L128.263139,17.2009916 C128.531317,16.7455086 128.932331,16.4624728 129.368083,16.4823272 C129.849713,16.5043248 130.255785,16.8913983 130.469799,17.4564723 L132.544859,17.5484197 C132.931877,17.5663372 133.257976,17.7938898 133.424609,18.1146134 L137.776775,18.3081226 L137.780359,18.2131597 L145.481168,18.5943859 C157.742092,19.2395857 181.235667,20.6418979 190.25361,22.3216472 L195.657534,22.561742 L195.657534,22.561742 C197.159022,22.6280368 200.031201,23.7890922 199.999744,24.4753332 C199.972714,25.1043875 199.511285,24.8843006 199.137843,24.8322102 L199.03857,24.8229331 C198.653343,24.8032238 192.131366,23.5633314 190.844888,23.5095788 C189.556618,23.4486593 187.143128,24.5882136 187.143128,24.5882136 L186.847747,24.358339 C186.151275,23.8271561 184.38506,22.5447141 183.320164,22.3463268 L183.117061,22.3216472 C181.832375,22.2643112 137.723022,19.4566357 137.723022,19.4566357 L137.726606,19.3598811 L133.378024,19.1663718 C133.184514,19.4709697 132.838706,19.6680624 132.451688,19.6501449 L130.374152,19.5601391 C130.110483,20.1020413 129.67268,20.449697 129.192491,20.4277653 C128.757616,20.4089937 128.384047,20.0921919 128.157279,19.615849 L128.137149,19.6125181 C127.561226,19.5878136 127.099731,19.1639427 127.001475,18.6218211 L126.508446,18.5983864 L126.469028,19.4709697 L124.989041,19.4046749 L124.942455,20.4385158 L126.632077,20.5083941 L126.637274,22.2745092 C126.780284,22.3519843 126.889639,22.4298841 126.96176,22.5079894 L128.131098,23.7104073 C128.82866,24.4150841 129.739217,25.324623 130.710244,26.2901611 L132.388768,26.5105575 C135.579731,26.9445454 138.780474,27.4595406 140.190265,27.729155 L140.190265,28.0068765 L147.065262,29.3757386 C150.452975,30.067784 154.274588,30.878355 156.478967,31.4432381 L156.769347,31.5187106 C161.155556,32.6761824 162.897139,33.835446 165.685105,36.4496123 L165.457553,36.4496123 L166.113334,36.8617152 L176.227774,46.5282176 C176.227774,46.5282176 179.899074,49.423689 179.899074,51.8103027 C179.899074,53.7833333 177.393707,54.794078 176.522275,55.0859655 L175.848452,55.291318 C172.385593,56.3002258 167.334212,56.8667165 163.20027,57.179957 L163.200614,59.7760737 C164.258064,60.0827302 165.034699,61.0598293 165.034699,62.2185905 C165.034699,63.6233241 163.893353,64.7610866 162.493995,64.7610866 C161.087469,64.7610866 159.947915,63.6233241 159.947915,62.2185905 C159.947915,61.0604599 160.722488,60.0837937 161.782646,59.7765749 L161.782564,57.2803605 L160.013497,57.3868533 C159.645911,57.4068852 159.296895,57.4246115 158.969539,57.4402655 L158.969618,60.2118281 C158.969618,60.7868177 158.571287,61.2625945 158.053281,61.3443474 L157.894567,61.3567577 L141.285026,61.3567577 C140.745871,61.3567577 140.298525,60.9332527 140.221646,60.3810538 L140.209974,60.2118281 L140.209974,57.5492846 L89.5069744,57.5492846 L89.4388878,57.1783919 L89.4388878,57.5439093 L87.6005502,57.0207177 L81.5480117,57.0207177 L81.5480117,55.298844 L43.8387978,44.5698326 L19.700314,41.452184 L18.9854049,41.452184 L18.9854049,42.7064105 L15.2603523,42.7064105 L15.2603523,41.452184 L14.2981815,41.452184 L14.2981815,41.4199325 L10.3151166,41.4199325 L10.3151166,37.6321686 L14.351934,37.6321686 L14.4468969,30.9919355 L13.6639012,30.3934903 L12.6605201,30.4400758 L6.91437122,21.239429 L0,21.239429 L0,17.4265806 L4.53134097,17.4247888 L3.70892677,16.1078511 L9.8456776,14.5974041 L15.1743482,14.5974041 L17.1434838,16.4823272 L18.0734031,15.5524079 L18.0734031,13.1872952 L15.9304676,11.1482813 L15.9304676,-2.84217094e-14 Z" id="path-1"></path>
    </defs>
    <g id="Silhouettes/Merline-HM2" stroke="none" stroke-width="1" fill="none" fill-rule="evenodd">
        <mask id="mask-2" fill="white">
            <use xlink:href="#path-1"></use>
        </mask>
        <use fill="#3E5667" xlink:href="#path-1"></use>
    </g>
</svg>