<?xml version="1.0" encoding="UTF-8"?>
<svg width="200px" height="127px" viewBox="0 0 200 127" version="1.1" xmlns="http://www.w3.org/2000/svg" xmlns:xlink="http://www.w3.org/1999/xlink">
    <title>Silhouettes/P2000 Class</title>
    <defs>
        <path d="M160.627473,2.84217094e-14 C160.896222,2.84217094e-14 161.116912,0.206996908 161.140604,0.471154434 L161.14271,0.518333333 L161.142544,8.58666667 L164.27005,11.7989751 C164.333689,11.86434 164.378765,11.945239 164.401137,12.0332627 L164.411802,12.0868645 L167.575915,33.9107351 C167.928811,34.0520754 168.186617,34.3839361 168.221859,34.7821355 L168.225438,34.8416496 L168.504906,43.584 L169.567077,43.5841667 C169.835826,43.5841667 170.056516,43.7911636 170.080208,44.0553211 L170.082314,44.1025 L170.082314,91.71 C170.082314,91.7738715 170.07083,91.8350448 170.049826,91.8915442 L170.315689,100.21 L191.984701,100.210163 C191.823806,99.734794 191.736334,99.2220629 191.736334,98.6883333 C191.736334,96.2530447 193.565596,94.2425 195.87645,94.2425 C198.178949,94.2425 200,96.2544029 200,98.6883333 C200,100.034634 199.445317,101.24801 198.560458,102.064708 C198.951048,102.196971 199.237104,102.557926 199.261127,102.989385 L199.262764,103.048341 L199.262764,121.979069 C199.257937,122.188506 199.226911,122.462393 199.151914,122.780179 C199.035977,123.271439 198.838252,123.756286 198.537197,124.208646 C197.723881,125.430724 196.33441,126.160527 194.37168,126.195 L194.23051,126.195 L60.0679021,126.195 C57.0088649,126.187355 54.9705949,126.155078 52.9306477,126.086023 L51.6662588,126.038791 L48.7875037,125.913961 L47.827778,125.877879 C46.1278593,125.818874 44.5255678,125.791264 42.1891007,125.783784 L41.6654656,125.782464 L30.2870218,125.781333 L30.1159936,125.789563 C29.2539205,125.817955 28.0479435,125.687894 26.5560806,125.282513 C24.2844783,124.665254 21.8448259,123.525378 19.2994468,121.748866 L18.9328759,121.489383 L18.6656173,121.295358 C16.9931464,120.067717 14.8712614,118.265573 12.3855351,115.992769 L11.7737688,115.430698 L11.367824,115.054875 L10.7424085,114.471679 C10.4270683,114.176389 10.1078361,113.875627 9.78496646,113.569685 C7.61332154,111.511902 5.36913509,109.308577 3.17916004,107.10543 L2.46678861,106.386783 L2.46678861,106.386783 L1.79480101,105.705074 L1.08021017,104.975735 L0.292772543,104.165377 C-0.327090088,103.521943 0.102097475,102.454279 0.973818526,102.407429 L1.03129108,102.405835 L16.5614034,102.37447 C16.9714921,100.52838 18.3786516,99.2933248 20.0869278,99.2496064 C21.844255,99.2046326 23.2393861,100.425915 23.6070733,102.360411 L36.0171934,102.335333 L41.2061037,102.180055 C40.2459365,101.36489 39.6371583,100.099959 39.6371583,98.6883333 C39.6371583,96.2533882 41.4566163,94.2425 43.7615363,94.2425 C46.0617316,94.2425 47.8933695,96.2567689 47.8933695,98.6883333 C47.8933695,100.010387 47.3543411,101.205396 46.4932386,102.021755 L85.461685,100.853333 L85.4617399,96.6316667 C85.4617399,96.4364784 85.5164598,96.2457641 85.6188989,96.081149 L85.6595367,96.0206839 L96.6703729,80.8183333 L93.1736713,70.0865022 C92.9995292,69.5520578 93.2805239,68.9795202 93.7990223,68.7890723 L93.8554746,68.7701484 L99.9353609,66.9225 L99.9353922,63.7032408 C97.0199471,63.4655694 94.7405528,60.8490633 94.6872522,57.6424278 L94.6862977,57.5275 C94.6862977,54.2817598 96.9882635,51.6042779 99.9355104,51.3634637 L99.9355814,30.9691667 C99.9355814,30.6828991 100.166261,30.4508333 100.450818,30.4508333 C100.719567,30.4508333 100.940257,30.6578302 100.963949,30.9219878 L100.966055,30.9691667 L100.965961,51.3797357 C103.82478,51.7061858 106.052152,54.3492698 106.052152,57.5275 C106.052152,60.7186714 103.827616,63.3610148 100.965997,63.687015 L100.965834,66.6091667 L119.214157,61.0643333 L116.81529,56.8469282 C116.43126,56.1717374 116.895163,55.3350755 117.654347,55.2956172 L117.710416,55.2941667 L121.389747,55.294 L121.389968,1.28416667 C121.389968,0.997899071 121.620647,0.765833333 121.905205,0.765833333 C122.173953,0.765833333 122.394644,0.972830242 122.418336,1.23698777 L122.420441,1.28416667 L122.420221,55.294 L133.86499,55.2941667 C134.097139,55.2941667 134.321784,55.3729367 134.503104,55.5166149 L134.556165,55.5616517 L139.764974,60.2933333 L150.771875,60.2933333 L157.382808,42.3463333 L157.11674,38.3216667 L152.94614,38.3216667 C151.148702,38.3216667 149.781401,37.4950886 149.729803,36.1571176 L149.728293,36.0808394 C149.726658,34.7217654 151.060848,33.8694813 152.844693,33.8383812 L152.94614,33.8375 L160.112016,33.8373333 L160.112071,9.00666667 L160.10431,8.9979577 C159.962365,8.81911776 159.955368,8.56828791 160.081905,8.38246602 L160.112071,8.34233333 L160.112071,1.03633333 L159.045316,1.03666667 C158.776567,1.03666667 158.555876,0.829669758 158.532185,0.565512232 L158.530079,0.518333333 C158.530079,0.247969493 158.735839,0.0259523717 158.998419,0.00211825891 L159.045316,2.84217094e-14 L160.627473,2.84217094e-14 Z M20.1393819,101.323935 C19.5340872,101.339426 19.0000615,101.711966 18.7170656,102.370057 L21.4878601,102.364651 C21.2475096,101.657755 20.743951,101.308463 20.1393819,101.323935 Z M164.868483,22.4213333 L161.142544,22.4213333 L161.142489,33.8373333 L166.52315,33.8373333 L164.868483,22.4213333 Z M161.142544,10.0683333 L161.142544,21.3846667 L164.718054,21.3846667 L163.416212,12.4036667 L161.142544,10.0683333 Z" id="path-1"></path>
    </defs>
    <g id="Silhouettes/P2000-Class" stroke="none" stroke-width="1" fill="none" fill-rule="evenodd">
        <mask id="mask-2" fill="white">
            <use xlink:href="#path-1"></use>
        </mask>
        <use fill="#3E5667" fill-rule="nonzero" xlink:href="#path-1"></use>
    </g>
</svg>