<?xml version="1.0" encoding="UTF-8"?>
<svg width="200px" height="57px" viewBox="0 0 200 57" version="1.1" xmlns="http://www.w3.org/2000/svg" xmlns:xlink="http://www.w3.org/1999/xlink">
    <title>Silhouettes/Sandown Class</title>
    <defs>
        <path d="M109.250486,-7.10542736e-15 L109.250483,6.70198461 L113.780056,6.70203603 L113.780056,7.15769242 L113.428924,7.15775072 C113.364129,7.69134411 113.122465,8.0828155 112.75729,8.34089882 C112.606821,8.44724148 112.446552,8.52255923 112.286132,8.57262341 C112.19797,8.60013723 112.125421,8.61559194 112.074975,8.62263276 L112.046043,8.6261585 L109.250483,8.62610709 L109.250483,11.7941067 L111.088229,11.7941581 L111.088177,35.8316008 L113.910655,35.8316008 L113.910707,30.7028185 L121.561796,30.7027671 L121.561847,29.1177389 L126.451747,29.1176875 L126.967046,24.0660819 L126.966805,24.0624659 C126.95048,23.8423252 126.968134,23.5966447 127.047881,23.3497192 L127.064666,23.3003247 C127.292909,22.6608297 127.868911,22.3022711 128.741697,22.4000389 L129.7523,22.5284986 L132.806296,22.9273412 L136.611743,23.4290307 C136.674001,23.4333756 136.747456,23.446915 136.829117,23.4736856 L136.860119,23.4843527 C137.031424,23.5460663 137.197454,23.6537301 137.345186,23.8133943 C137.590098,24.0780879 137.762017,24.4610098 137.847933,24.9729897 L137.869177,25.1123744 C137.956126,25.7111698 138.205941,27.5684015 138.571027,30.3182804 L138.923016,32.9760031 L139.300208,35.8359199 L146.506332,35.8359199 L146.506335,33.0458857 L148.572985,33.0458857 L148.572982,35.8359199 L150.006896,35.8359199 L150.006899,35.2183517 L150.285472,35.2183003 L150.285476,23.4393102 L150.741132,23.4393102 L150.741129,35.2183003 L151.019709,35.2183517 L151.019705,35.8359199 L156.23276,35.8359199 L156.232802,34.7011552 C155.825232,34.639152 155.404142,34.5348792 154.988506,34.3766313 L154.915768,34.3483603 C154.812087,34.3072336 154.7104,34.2630394 154.612827,34.2166494 L154.540452,34.1814589 L153.310623,33.5990265 L153.278887,33.5617318 L153.224375,33.4952826 L153.18121,33.4407174 C153.173711,33.4311072 153.166066,33.4212447 153.158287,33.4111386 C153.069527,33.2958288 152.980792,33.1717474 152.897628,33.0430844 C152.798148,32.8891773 152.71324,32.7387795 152.647313,32.5944707 C152.42202,32.1013228 152.423168,31.6904635 152.800755,31.4744971 C153.156744,31.2708844 153.808082,31.3331024 154.83409,31.6703046 L154.888436,31.688306 L154.999216,31.7258335 L155.018637,31.7331675 L155.055496,31.7455792 L155.076692,31.7522413 L155.124328,31.7663157 C155.141385,31.7711679 155.159629,31.7761769 155.179087,31.7813308 L155.241133,31.7972154 L155.27728,31.8060247 L155.353339,31.8236565 C155.510512,31.858924 155.698131,31.8941581 155.918519,31.9283569 L156.031455,31.9453654 L156.149916,31.9621735 C156.61346,32.0260153 157.165609,32.0800033 157.813709,32.1210299 L157.902681,32.1265438 L158.078681,32.136681 L168.56032,32.1367324 C169.484756,32.1367324 170.323032,32.6990515 170.41973,33.3761812 L170.423243,33.4036942 L170.425903,33.4309621 C170.48257,34.1171206 169.822498,34.5881594 168.58309,34.7230362 L168.582992,35.8359199 L172.182893,35.8359199 L172.182896,31.5104749 L173.688074,31.5104749 L173.688071,35.8359199 L174.148049,35.8359713 L174.148046,44.7845136 L174.456033,44.7830739 L175.287219,43.4309643 L175.890722,43.4309128 L175.890773,42.169811 L177.253423,42.169811 L177.253372,43.5734404 L180.471092,43.5734919 L180.471089,44.7546918 L185.759726,44.7297032 L185.759729,42.6621791 L186.038303,42.6621277 L186.038306,35.2822537 L191.488919,29.6900088 L199.432136,29.6900088 L200,31.0744916 L199.993948,31.1316973 C199.988124,31.1867416 199.970406,31.2549191 199.929601,31.3267533 C199.720438,31.6949729 199.292367,31.619117 198.714054,31.0700027 L198.695959,31.0526075 L194.179233,31.052659 L194.124522,31.0192096 C194.126799,31.0206017 194.115817,31.0156493 194.09086,31.0082685 C193.921669,30.9582309 193.66344,30.9699974 193.30324,31.1007263 C192.758576,31.298404 192.098674,31.733143 191.319611,32.4617688 L190.783415,32.9643652 L190.222352,33.4915144 C189.760979,33.9255243 189.315562,34.3458271 188.889883,34.7486394 L187.935764,35.6536808 L187.6838,35.8935068 L187.683848,42.6621277 L188.315381,42.6621791 L189.00228,44.7144838 L194.203409,44.689969 L194.203409,56.0576131 L8.96182463,56.0576131 L1.19045816,42.4945086 L1.14924247,42.4869734 C0.599377444,42.3776154 0.157514716,42.0054304 0.0348091256,41.5358725 L0.0274123288,41.5057701 L0.021135947,41.4766201 C-0.121872626,40.7633355 0.475181289,40.2891969 1.37751132,40.3396753 L1.41149094,40.3418147 L24.485438,42.2991245 L24.4854411,40.77214 L24.6840059,40.7464223 C24.6954684,40.7449377 24.7128871,40.7431087 24.7358537,40.7412756 L24.7541125,40.7399053 C25.2207206,40.706992 25.7768299,40.7858112 26.314329,41.07149 C26.8794847,41.3718682 27.3236822,41.8613884 27.6024088,42.5634982 L30.2297318,42.7863508 L30.2297349,40.5479906 L30.6608376,40.5005339 L30.7341639,40.4942317 C30.7557677,40.4925668 30.7797631,40.4908606 30.8060092,40.4891709 C31.2327831,40.4616952 31.6988963,40.4718112 32.1471509,40.5477933 C32.5700425,40.6194762 32.9356064,40.7440797 33.2280741,40.9393202 L33.2651304,40.9647536 L34.9309828,40.9647536 L34.9309911,39.9237606 C34.5144877,39.7379408 34.2237648,39.2876489 34.2122258,38.7652477 L34.2118694,38.7329525 C34.2118694,38.030141 34.7148414,37.4534435 35.3574889,37.4534435 C35.5689261,37.4534435 35.7655722,37.5154702 35.9343946,37.6236158 C35.8892756,37.3823398 35.9188983,37.1691398 36.0189642,36.9588982 L33.9073787,36.9057512 L33.9073273,36.6327787 L29.6563853,36.6328301 L29.6563853,36.1771737 L36.627637,36.1771223 L36.7406917,36.0520163 C37.0182167,35.7396425 37.2313554,35.4677224 37.4454212,35.1352365 L37.5123554,35.0300468 C37.8810548,34.4563691 38.2192252,34.1939521 38.5592369,34.2445555 C38.8484441,34.2875977 39.034703,34.5294238 39.1664663,34.8887052 C39.2107294,35.0093983 39.2456754,35.1367972 39.2727149,35.2639357 L39.2826527,35.3123817 C39.2917089,35.358273 39.2981491,35.3962524 39.3022353,35.4240887 L39.3085405,35.4700083 L39.1985838,36.1771223 L41.3641631,36.1771737 L41.3641631,37.1042216 L39.0654141,37.0336247 L38.8367118,38.5050729 L39.1204333,38.5051243 L39.1204301,39.7800059 L39.8186714,40.9647536 L43.3574895,40.9647536 L44.2256913,35.7387934 L48.7717898,35.738742 L49.2970078,29.5408778 L49.3057391,29.5148852 C49.3373591,29.4207537 49.3933253,29.2865855 49.4726988,29.1496344 C49.6205449,28.8945407 49.792744,28.7284732 50.0247806,28.7134536 C50.3118772,28.69487 50.544063,28.922852 50.7437783,29.3740801 L50.7722656,29.4400364 L51.4833104,35.738742 L54.0550655,35.7387107 C54.0631503,34.5214119 54.3078088,33.7036635 54.7737561,33.2103957 C55.1873647,32.7725356 55.7050156,32.6247815 56.4299773,32.6247815 C56.9702006,32.6247815 57.3238325,32.8529989 57.4925985,33.2276509 C57.5745676,33.4096182 57.6012129,33.5933758 57.5971259,33.7527121 L57.5949809,33.7981661 L57.5950292,35.738742 L60.4023909,35.738742 L60.4023742,32.9445395 C60.0068158,32.9020004 59.708363,32.7526204 59.6945734,32.4835065 L59.6940751,32.4638981 C59.6940751,32.1287691 60.130786,31.9704503 60.6518173,31.9704503 C61.1702785,31.9704503 61.6052405,32.1291044 61.6052405,32.4638981 C61.6052405,32.7547625 61.2821007,32.9114445 60.8581472,32.9486178 L60.8580472,35.738742 L61.2381208,35.738742 L61.238124,33.7477261 L64.1232279,33.7477261 L64.1232248,35.738742 L71.265235,35.738742 L71.7904259,29.5411984 L71.7989831,29.5154869 C71.8303184,29.4213353 71.8858568,29.2871474 71.964764,29.1501603 C72.1118515,28.8948087 72.2835573,28.7285081 72.5156261,28.7134556 C72.8023368,28.6948589 73.034486,28.9226739 73.2348847,29.3737959 L73.2635775,29.4399783 L73.9684261,35.738742 L80.1681223,35.738742 L80.6018751,28.8919674 L78.8377204,23.7988684 L86.7936087,23.798834 C86.7851013,23.5639438 86.797494,23.3227727 86.8397989,23.089796 C86.9485512,22.4908884 87.2392944,22.0624916 87.739592,21.9121466 L87.7396147,20.3803143 L84.3772624,20.3803657 L84.3772624,19.2919732 L91.8297278,19.2919732 L91.8297278,20.3803657 L88.3982649,20.3803143 L88.3983331,21.8689549 C89.0290607,21.9593031 89.3848876,22.430891 89.5079966,23.1252809 C89.547208,23.3464508 89.5607898,23.574925 89.5558607,23.7989181 L96.8817188,23.7988684 L96.2295216,28.4719943 L100.396497,28.4719943 L100.3965,22.5279974 L100.852156,22.5279974 L100.852153,28.4719943 L105.666213,28.4719943 L107.698057,15.3379637 L104.828117,12.4765115 L100.683714,12.476563 L100.683714,11.6872624 L101.139371,11.6872624 L101.139368,11.7167757 L103.485314,12.0208552 L104.371124,12.0208552 L104.143784,11.7941581 L108.794827,11.7941067 L108.794827,8.62610709 L102.028009,8.6261585 C101.175441,8.6261585 100.640665,8.30060083 100.395626,7.75784378 C100.304472,7.55593949 100.263277,7.35000557 100.255335,7.15766714 L98.1819233,7.15769242 L98.1819233,6.70203603 L108.794827,6.70198461 L108.794827,2.46718756 L107.120064,2.46723898 L107.781927,2.04706754 C107.996817,1.91064884 108.185811,1.71262573 108.348528,1.46797983 C108.468639,1.28739369 108.567327,1.09246726 108.645397,0.897486506 C108.667226,0.842969741 108.686104,0.791716157 108.702122,0.744637076 L108.721701,0.684730749 L108.733494,0.645014744 L108.794827,0.661426741 L108.79483,-7.10542736e-15 L109.250486,-7.10542736e-15 Z M167.004391,34.7626439 L157.811361,34.7626439 L157.811361,35.8359199 L167.004391,35.8359199 L167.004391,34.7626439 Z M150.564001,35.6739567 L150.462504,35.6739567 L150.462449,35.8359199 L150.563946,35.8359199 L150.564001,35.6739567 Z M60.8581447,32.4386797 L60.8581754,32.4893303 C60.8852096,32.4859799 60.9113679,32.4819876 60.9364486,32.4774022 L60.9732363,32.4700851 L60.9986756,32.4641037 L60.9726065,32.4580631 C60.9368163,32.4502681 60.8984375,32.4437516 60.8581447,32.4386797 Z M60.4024772,32.4445046 C60.3854014,32.4471479 60.3687351,32.4500553 60.3525345,32.4532129 L60.3285898,32.4581355 L60.302491,32.4642066 L60.3279596,32.4700136 C60.3517058,32.4751066 60.3765971,32.4796477 60.4024401,32.4835908 L60.4024772,32.4445046 Z M60.6518173,32.1982785 C61.0491669,32.1982785 61.3774123,32.3170514 61.3774123,32.4638981 C61.3774123,32.6129042 61.0491669,32.7295177 60.6518173,32.7295177 C60.2523081,32.7295177 59.9219033,32.6129042 59.9219033,32.4638981 C59.9219033,32.3170514 60.2523081,32.1982785 60.6518173,32.1982785 Z" id="path-1"></path>
    </defs>
    <g id="Silhouettes/Sandown-Class" stroke="none" stroke-width="1" fill="none" fill-rule="evenodd">
        <mask id="mask-2" fill="white">
            <use xlink:href="#path-1"></use>
        </mask>
        <use fill="#3E5667" xlink:href="#path-1"></use>
    </g>
</svg>