<?xml version="1.0" encoding="UTF-8"?>
<svg width="200px" height="87px" viewBox="0 0 200 87" version="1.1" xmlns="http://www.w3.org/2000/svg" xmlns:xlink="http://www.w3.org/1999/xlink">
    <title>Silhouettes/Scimitar Class</title>
    <defs>
        <path d="M22.9442518,86.777357 L22.9439639,81.0794389 L22.5901164,80.7708254 L22.5901164,80.7708254 L15.0647917,74.1876353 L15.0647917,74.1876353 L5.4118245,65.7513147 L4.50701639,65.8283473 L6.55013083,67.8713956 C6.77268289,68.0939477 6.55842763,68.4488928 6.27848424,68.3931644 L6.24317604,68.3840202 L6.20873052,68.370974 L0.184537255,65.7270895 C-0.107940114,65.5987277 -0.0323098603,65.1747689 0.267843179,65.1396619 L0.30825506,65.1373442 L2.13848343,65.1372989 L2.37132957,63.8221319 C2.38377639,63.7517803 2.42008231,63.6888804 2.47279781,63.6431677 L2.50633667,63.6178804 L2.54345624,63.5971853 L4.98210762,62.4502948 C5.03271138,62.426496 5.08858927,62.4170413 5.14372092,62.4225484 L5.18483567,62.4294938 L7.17039597,62.9049485 L8.29335082,61.8435394 C8.37746707,61.7640054 8.4846153,61.7141288 8.59855714,61.7004838 L8.65601901,61.6967111 L11.1002131,61.6687357 L16.7461682,49.4880252 C16.7953799,49.3818527 16.8954052,49.3096629 17.0094881,49.2949315 L17.0528564,49.2921465 L76.8247403,49.2921284 L72.2309283,42.7310029 C72.1887748,42.6707973 72.1596497,42.6029178 72.1449167,42.5316894 L72.1365868,42.4777079 L72.1337817,42.422876 L72.1337817,40.7689392 C72.1337817,40.5445568 72.2728898,40.3458135 72.4792584,40.2670798 L72.5280432,40.2510838 L82.3671564,37.5347642 C82.3982015,37.5261934 82.4299227,37.5204404 82.4619347,37.5175574 L82.5101226,37.5153919 L94.0752476,37.5149847 L94.0756079,37.1833973 C94.0756079,37.0100429 94.2061014,36.867167 94.3742172,36.8476406 L94.4136388,36.8453664 L101.075868,36.845294 L104.506132,35.9540624 L104.506275,33.2839696 C104.506275,33.1106152 104.636769,32.9677393 104.804885,32.9482129 L104.844306,32.9459387 L108.478138,32.9459387 C108.651492,32.9459387 108.794368,33.0764322 108.813895,33.244548 L108.816169,33.2839696 L108.816044,34.834412 L115.997039,32.9692355 L116.041538,32.959667 L116.041538,32.959667 L116.086647,32.9539032 L116.132123,32.951975 L117.266816,32.9516763 L117.266816,30.9900257 L116.02347,30.9901886 C115.850116,30.9901886 115.70724,30.8596951 115.687714,30.6915792 L115.685439,30.6521577 L115.685439,28.092781 C115.685439,27.9194266 115.815933,27.7765507 115.984049,27.7570243 L116.02347,27.7547501 L119.186474,27.7547501 C119.359828,27.7547501 119.502704,27.8852436 119.52223,28.0533595 L119.524504,28.092781 L119.524504,30.6521577 C119.524504,30.825512 119.394011,30.968388 119.225895,30.9879144 L119.186474,30.9901886 L117.942661,30.9900257 L117.942661,32.9516763 L119.3034,32.9516763 L120.77907,24.1207371 L117.78606,24.1209181 C117.627666,24.1209181 117.513491,24.0223856 117.46851,23.8987709 C117.362982,23.8524279 117.285795,23.7534293 117.269945,23.6349885 L117.266941,23.5897267 L117.266941,20.1852728 C117.266941,20.0119221 117.397429,19.8690478 117.565541,19.8495172 L117.604962,19.8472419 L120.224677,19.8467351 L120.224677,19.6056465 L113.898705,19.6057913 C113.72535,19.6057913 113.582474,19.4752978 113.562948,19.307182 L113.560674,19.2677604 L113.560674,17.758694 C113.560674,17.5853396 113.691167,17.4424636 113.859283,17.4229373 L113.898705,17.4206631 L125.521025,17.420645 L132.313677,12.2089313 L133.586117,6.86343655 C133.619068,6.72499601 133.73451,6.62358639 133.872837,6.60629242 L133.914962,6.60367478 L139.733922,6.60367478 C140.043442,6.60367478 140.18403,6.97985744 139.969682,7.18424877 L139.939695,7.20988923 L132.915675,12.5987998 L130.235728,23.8611473 C130.202781,23.9995918 130.087337,24.1010056 129.949008,24.1183004 L129.906882,24.1209181 L128.973912,24.1207371 L127.509463,32.9516763 L133.383771,32.951975 C133.57511,32.951975 133.750573,33.0535704 133.846473,33.2162006 L133.870607,33.2620371 L141.295214,49.1736337 C141.31295,49.2116444 141.32612,49.2514854 141.33454,49.292324 L147.25511,49.2921465 C147.428464,49.2921465 147.57134,49.42264 147.590866,49.5907558 L147.59314,49.6301773 L147.592943,60.8524371 L152.518608,60.8524371 L152.518468,57.6406836 C152.235004,57.0189327 152.070678,56.3322784 152.055152,55.6101508 L152.053941,55.4974277 C152.053941,54.7369709 152.220361,54.0142276 152.518619,53.3631609 L152.518733,49.6301773 C152.518733,49.456823 152.649227,49.313947 152.817343,49.2944206 L152.856764,49.2921465 L173.808617,49.2921284 L173.808643,48.8696079 C173.808643,48.5903583 174.021703,48.3608716 174.294132,48.3348395 L174.34587,48.3323802 L185.998561,48.3325352 C185.831704,48.2256624 185.714878,48.0452279 185.696565,47.8397145 L185.69405,47.78308 L185.693998,47.5777203 L183.351979,47.577847 C183.11964,47.577847 182.92068,47.4644485 182.80565,47.2882028 L182.132653,47.2881062 L182.132653,45.5939272 L182.479549,45.275974 C182.470456,45.2419285 182.464182,45.206632 182.461009,45.1702994 L182.458612,45.1150505 L182.458487,44.9680987 L181.605336,45.311833 L180.887564,43.0149638 L184.526105,42.7068615 L184.553713,42.7606535 L185.520275,42.7607023 C185.627098,42.6186102 185.788097,42.5242582 185.978939,42.5094318 L186.032081,42.5073837 L188.567313,42.5073837 C188.775187,42.5073837 188.956735,42.6060229 189.075084,42.7607465 L191.404358,42.7609069 L191.404106,42.9659046 L200,42.9661399 L200,43.8232897 L197.162722,43.8231087 L197.162955,44.2096107 L191.404106,44.2093573 L191.404358,44.9943252 L189.78635,44.9941623 L189.786638,47.78308 C189.786638,48.0118136 189.664153,48.2159467 189.482127,48.3325352 L193.348035,48.3323802 C193.627285,48.3323802 193.856771,48.5454404 193.882803,48.8178692 L193.885263,48.8696079 L193.885219,60.8513511 L195.146842,60.8515955 C195.355372,60.8515955 195.543338,60.9720163 195.631744,61.1575275 L195.651725,61.2052293 L197.969651,67.579526 C197.988757,67.6320666 197.999505,67.687158 198.001612,67.742799 L198.000827,67.7985489 L197.169237,80.3817027 L197.169012,80.4000953 L197.071381,81.9574519 C197.055859,82.2077507 196.870667,82.4092306 196.631963,82.4527163 L196.631764,86.777357 L22.9442518,86.777357 Z M76.3802105,49.9676109 L17.2684244,49.9679005 L11.8488187,61.6600478 L23.6880392,61.5245493 C23.4309621,61.1310378 23.2757137,60.663903 23.2595409,60.1604228 L23.2581376,60.0729172 C23.2581376,58.6285426 24.437792,57.4531778 25.8899495,57.4531778 C26.9046906,57.4531778 27.7863696,58.0271036 28.2254553,58.8656958 L30.7431072,58.865664 C30.9164615,58.865664 31.0593375,58.9961575 31.0788639,59.1642733 L31.0811381,59.2036949 L31.0806474,61.4406574 L37.8657921,61.3667242 L37.8657921,61.3667242 L41.2631691,61.330362 L52.6004002,61.2126221 L52.6004256,58.479343 C52.6004256,58.2672714 52.7249065,58.0768657 52.9150474,57.9903899 L52.9639165,57.9709838 L76.3802105,49.9676109 Z M141.345272,49.9676109 L141.345272,60.8524371 L146.916736,60.8524371 L146.916916,49.9679005 L141.345272,49.9676109 Z M153.194453,58.7384128 L153.194453,60.8524371 L159.641221,60.8520751 L159.641546,60.1104559 C158.958062,60.4671091 158.18529,60.675638 157.365473,60.6934144 L157.251166,60.6946525 C155.615099,60.6946525 154.149026,59.9296188 153.194453,58.7384128 Z M173.808617,49.9679005 L160.317244,49.9679005 L160.317244,51.325226 C161.602288,52.2667961 162.436318,53.7850525 162.436318,55.4974277 C162.436318,57.2164221 161.602664,58.7420379 160.317696,59.6884419 L160.317428,60.8520751 L162.508583,60.8520751 L162.508753,53.9279986 C162.508753,53.648749 162.721813,53.4192624 162.994242,53.3932302 L163.045981,53.3907709 L173.808617,53.3906352 L173.808617,49.9679005 Z M157.251166,52.4853311 C155.58379,52.4853311 154.214924,53.8431353 154.214924,55.4974277 C154.214924,57.1656766 155.585686,58.5336694 157.251166,58.5336694 C158.223064,58.5336694 159.088202,58.0728128 159.641544,57.3570136 L159.641685,53.652344 C159.08867,52.9425028 158.223914,52.4853311 157.251166,52.4853311 Z M159.6414,49.9679005 L153.194632,49.9679005 L153.194805,52.2705109 C154.149548,51.0850636 155.6157,50.3243479 157.251166,50.3243479 C158.113347,50.3243479 158.92633,50.5342727 159.641601,50.9056652 L159.6414,49.9679005 Z M184.764394,44.9941623 L184.764465,45.1150505 C184.764465,45.4623271 184.499973,45.7163421 184.155504,45.7408754 L184.100476,45.7428222 L183.985019,45.7425778 L184.055608,45.9358831 L185.693998,45.9357112 L185.69413,45.100161 C185.648581,45.070491 185.607069,45.034956 185.570221,44.9946288 L184.764394,44.9941623 Z M132.065349,13.2511147 L126.631263,17.420645 L128.530613,17.4206631 C128.703967,17.4206631 128.846843,17.5511566 128.86637,17.7192724 L128.868644,17.758694 L128.868644,19.2677604 C128.868644,19.4411148 128.73815,19.5839907 128.570035,19.6035171 L128.530613,19.6057913 L123.783811,19.6056465 L123.469779,19.8470247 L124.824367,19.8472419 C124.984379,19.8472518 125.118418,19.9584405 125.15345,20.1077686 L125.160103,20.1458529 L125.162377,20.1852728 L125.162377,23.5897267 C125.162377,23.7630817 125.031882,23.905958 124.863766,23.9254836 L124.824344,23.9277576 L121.496906,23.9274318 L119.989018,32.9516763 L126.824207,32.9516763 L128.354079,23.7275891 C128.37662,23.5916556 128.478349,23.4859357 128.60732,23.4544717 L128.646777,23.4473042 L128.687556,23.4448563 L129.639621,23.4445305 L132.065349,13.2511147 Z M122.673573,19.6056465 L122.204427,19.6056465 L122.204427,19.8467351 L122.35954,19.8470247 L122.673573,19.6056465 Z M138.73764,7.27964605 L134.181571,7.27964605 L133.164004,11.5566164 L138.73764,7.27964605 Z M131.524601,1.0658141e-13 C131.697955,1.0658141e-13 131.840831,0.130493507 131.860358,0.298609342 L131.862632,0.338030884 L131.862632,3.74248479 C131.862632,3.91583914 131.732138,4.0587151 131.564022,4.07824149 L131.524601,4.08051568 L129.42398,4.08051568 C129.250626,4.08051568 129.10775,3.95002217 129.088224,3.78190633 L129.085949,3.74248479 L129.085949,0.338030884 C129.085949,0.164676532 129.216443,0.0218005715 129.384559,0.00227418097 L129.42398,1.0658141e-13 L131.524601,1.0658141e-13 Z M4.53364111,64.4311011 L197.476841,66.8456074 L197.452696,68.6806322 L7.56384654,66.3023435 L4.50949605,66.2661259 L4.53364111,64.4311011 Z" id="path-1"></path>
    </defs>
    <g id="Silhouettes/Scimitar-Class" stroke="none" stroke-width="1" fill="none" fill-rule="evenodd">
        <mask id="mask-2" fill="white">
            <use xlink:href="#path-1"></use>
        </mask>
        <use fill="#3E5667" fill-rule="nonzero" xlink:href="#path-1"></use>
    </g>
</svg>