<?xml version="1.0" encoding="UTF-8"?>
<svg width="200px" height="52px" viewBox="0 0 200 52" version="1.1" xmlns="http://www.w3.org/2000/svg" xmlns:xlink="http://www.w3.org/1999/xlink">
    <title>Silhouettes/Scott Class</title>
    <defs>
        <path d="M126.291619,0 L126.291,0.459 L126.72676,0.45924225 L125.124773,1.86886952 L126.237724,16.2841573 L133.609952,16.2841573 L136.01569,19.9009496 L150.348065,19.9009496 L151.255803,24.2283508 L152.891164,24.2283508 L153.304625,22.8565307 L155.659335,22.8565307 L156.688711,11.3695034 L161.573557,11.3695034 L163.063559,23.2939346 L164.562112,23.2939346 L165.750108,28.2391742 L166.835455,28.2392206 L166.835399,30.2172886 L176.720993,30.2173349 L176.720993,31.0650983 L176.297271,31.0650519 L176.297327,31.4889799 L175.308773,31.4889799 L175.308717,31.0650519 L166.835399,31.0650519 L166.835455,31.6302738 L166.564959,31.6302274 L167.173063,34.1614213 L167.259065,34.1613661 L167.25912,32.0541554 L178.556878,32.0541554 L178.556878,32.9019188 L178.274379,32.9018724 L178.274434,33.3258004 L177.28588,33.3258004 L177.285825,32.9018724 L172.343056,32.9018724 L172.343056,34.4628872 L175.227956,39.139823 L176.077771,40.4288537 L195.221015,40.4287389 L195.221071,32.9019188 L195.92718,32.9019188 L195.927125,40.4287389 L198.46912,40.4287389 L198.469176,32.9019188 L199.175286,32.9019188 L199.17523,40.4287389 L200,40.4288537 C200,44.3059308 198.87904,48.0106515 196.637121,51.5430158 L196.559369,51.6647532 L10.0509336,51.6647532 L0.0980946058,35.6775709 C-0.174603548,35.2196536 0.121263835,34.9906949 0.985696754,34.9906949 C6.69758384,36.0726716 16.9791387,36.7867062 24.0280163,37.4383033 L24.8697538,26.137569 L23.4267505,24.5955217 L23.3279709,23.4352285 L24.520807,22.643486 L26.8091821,22.643486 L27.8154576,23.4352285 L27.7317105,24.5955217 L26.6562118,26.165969 L28.3612177,37.8913716 L28.5956051,37.9212281 C30.2101199,38.1302876 31.2701727,38.3408565 31.5031577,38.5636089 C32.2526639,39.280197 33.4261118,39.6396869 35.0235015,39.6420786 L35.6861397,39.6720111 C46.6177078,40.1530001 62.8646598,40.2464781 84.4269958,39.952445 L84.4880516,39.9106853 C84.9964127,39.556823 86.1366626,38.62491 87.9089227,37.1150016 L87.372762,35.4451623 L78.2892236,35.4451623 L78.2892793,35.8690903 L77.1595035,35.8690903 L77.1595035,34.7387393 L87.3274297,34.7385516 L87.3274297,34.3148112 L75.0411183,34.3148112 L75.041174,34.8800331 L73.9113982,34.8800331 L73.9113982,33.6083882 L89.7282589,33.6083882 L89.7282032,34.5028734 L89.7475666,34.4965113 L92.0122898,36.2811745 L92.0120682,39.8367184 L92.6933781,39.8251895 L92.6938676,36.5926068 C92.5140896,36.274643 92.4114763,35.9072387 92.4114763,35.5158556 C92.4114763,34.3063215 93.3914984,33.3258004 94.6004168,33.3258004 L95.9521503,33.3258663 C95.9454522,33.2561017 95.9420256,33.185381 95.9420256,33.1138596 C95.9420256,31.9043255 96.9220476,30.9238044 98.1309661,30.9238044 L105.333287,30.9238044 C105.855923,30.9238044 106.335779,31.107062 106.712164,31.412856 L112.209307,31.4128137 L120.396596,19.9009496 L120.396596,17.7161377 L121.085053,16.2841573 L122.24048,1.86886952 L121.085053,0.45924225 L121.354,0.459 L121.354765,0 L126.291619,0 Z M93.8237169,37.5640398 L93.8230547,39.805688 L95.7638136,39.7710896 C96.1978479,39.7632003 96.6337186,39.755177 97.0714257,39.7470199 L97.0717456,37.7058645 L94.6004168,37.7059108 C94.3269003,37.7059108 94.0651007,37.6557193 93.8237169,37.5640398 Z M100.743517,37.7058645 L97.6366335,37.7058645 L97.636313,39.7364375 L99.493273,39.7008848 C99.9083333,39.6928091 100.324995,39.6846165 100.743259,39.6763073 L100.743517,37.7058645 Z M103.13379,37.2546268 C102.764965,37.5376802 102.303487,37.7059108 101.802737,37.7059108 L101.732071,37.7058645 L101.732071,39.6564265 L102.442925,39.6420786 L103.13379,37.2546268 Z M171.91939,32.9018724 L167.823953,32.9018724 L167.823953,34.1613661 L171.91939,34.1613661 L171.91939,32.9018724 Z" id="path-1"></path>
    </defs>
    <g id="Silhouettes/Scott-Class" stroke="none" stroke-width="1" fill="none" fill-rule="evenodd">
        <g>
            <mask id="mask-2" fill="white">
                <use xlink:href="#path-1"></use>
            </mask>
            <use id="Combined-Shape" fill="#3E5667" xlink:href="#path-1"></use>
        </g>
    </g>
</svg>