<?xml version="1.0" encoding="UTF-8"?>
<svg width="200px" height="21px" viewBox="0 0 200 21" version="1.1" xmlns="http://www.w3.org/2000/svg" xmlns:xlink="http://www.w3.org/1999/xlink">
    <title>Silhouettes/T Boats</title>
    <defs>
        <path d="M200,10.4809021 L200,20.6828033 L188.541915,20.6828033 L190.215919,10.4809021 L200,10.4809021 Z M78.8347295,-1.10134124e-13 C81.9091818,-1.10134124e-13 82.889087,1.67672657 82.889087,1.67672657 L82.889087,14.6727185 L131.383504,14.6727185 L131.383504,14.6727185 C164.504297,14.6727185 184.348737,20.6828033 184.348737,20.6828033 L0,20.6828033 C9.06956646,17.3334331 30.4505522,15.1966955 43.058665,14.7584602 L43.058665,12.2978095 C43.058665,11.6799249 43.5595054,11.1790845 44.1760291,11.1790845 C44.7952747,11.1790845 45.2947541,11.6799249 45.2947541,12.2978095 L45.2947541,14.6958551 C46.0364879,14.6808844 46.7401142,14.6727185 47.3920233,14.6727185 L59.8286527,14.6727185 L59.8286527,14.6727185 L59.8286527,1.95572734 L59.8286527,1.95572734 C59.8286527,0.559362517 63.0432859,-1.10134124e-13 63.0432859,-1.10134124e-13 L78.8347295,-1.10134124e-13 L78.8347295,-1.10134124e-13 Z" id="path-1"></path>
    </defs>
    <g id="Silhouettes/T-Boats" stroke="none" stroke-width="1" fill="none" fill-rule="evenodd">
        <mask id="mask-2" fill="white">
            <use xlink:href="#path-1"></use>
        </mask>
        <use fill="#3E5667" xlink:href="#path-1"></use>
    </g>
</svg>