<?xml version="1.0" encoding="UTF-8"?>
<svg width="200px" height="41px" viewBox="0 0 200 41" version="1.1" xmlns="http://www.w3.org/2000/svg" xmlns:xlink="http://www.w3.org/1999/xlink">
    <title>Silhouettes/T23</title>
    <defs>
        <path d="M85.9549861,-7.10542736e-14 L85.9549861,0.288587031 L85.8624471,0.288587031 L85.1386063,0.30724497 L88.8705821,0.307519473 L88.8705821,0.997934307 L85.6404839,0.997802016 L85.640566,1.13700813 L85.2280679,1.13687253 L85.2280679,1.89688216 L86.4331169,1.89695988 L86.5708177,2.57867495 L87.1268511,2.57870471 L87.1268511,2.7637826 L86.7688819,2.7636158 C86.8242026,3.11473681 86.8514415,3.53616313 86.8547587,4.01468033 L86.9355804,4.0149162 L86.9355804,5.46374481 L86.8025359,5.49291479 L86.7883456,5.68305791 L86.7883456,5.68305791 L86.7734429,5.86440972 L86.7580731,6.0358078 L86.7580731,6.0358078 L86.7384258,6.23584118 L86.7214403,6.39209789 L86.7138923,6.45593477 L86.1666698,7.00346553 L86.5752825,12.7116405 L90.7617798,8.68487218 L90.8900837,8.81825859 L86.5924803,12.9520787 L87.403091,24.276156 L88.1679585,24.2761675 L88.1678962,24.480545 L88.2935849,24.4807087 L88.2935849,25.1436503 L87.5082621,25.1355489 L87.9977567,32.4333726 L95.8953222,32.4333611 L96.0671346,29.5052735 L94.9761047,28.9956537 L96.0970654,28.9956239 L96.4167838,23.5461184 L96.4309338,23.5460771 L96.4341523,23.4940984 L97.2961338,23.4939992 L97.6098378,22.1486779 L97.6318019,22.1464423 L97.6322084,22.144233 L97.6567718,22.1441272 L98.4319303,22.0704366 L98.4455546,22.1441272 L98.4667179,22.144233 L98.5153379,22.5185097 L98.6972568,23.4939992 L102.068995,23.4939877 L102.069148,22.8933915 L102.326631,22.8933882 L102.326771,8.03354811 L102.511849,8.03354811 L102.511838,22.8933882 L102.774426,22.8933915 L102.774269,23.4939877 L103.066905,23.4940984 L103.066797,23.5460771 L103.094508,23.5461184 L103.094412,28.8238114 L106.04069,28.8238114 L106.139246,28.0396588 L106.141912,28.0138737 L106.074483,27.909709 C105.996028,27.7865491 105.917566,27.6567935 105.844124,27.5260894 C105.79475,27.438218 105.749289,27.3527728 105.708553,27.2706049 C105.519125,26.8885152 105.440315,26.6143122 105.526961,26.4199241 C105.637709,26.1714665 105.893595,26.1651151 106.288327,26.3463266 L106.335221,26.3685091 L107.368323,18.0585414 L108.325203,18.0585083 L108.741227,16.2286413 L110.199584,16.2286413 L110.512298,18.005096 L112.969927,18.005096 L113.285705,16.1755596 L114.334212,16.1755596 L114.597432,18.1119206 L116.254549,18.1119769 L116.257991,18.1271225 L116.367897,18.1271936 L116.996503,21.3034203 L117.493604,23.4412483 L117.617773,23.4412368 L117.617814,23.3778497 L118.436332,23.3778497 L118.436321,25.6384186 L124.551511,25.6385956 L124.551455,25.6781058 L124.695539,25.6782298 L124.695487,32.4846237 L126.227101,32.4846353 L126.559627,24.4444958 L126.575832,23.8053667 L126.457009,23.7996266 L127.027602,12.1466653 L127.79026,12.1465942 L127.79026,9.96760228 L127.568139,9.96766512 L127.568139,8.51145956 L127.79026,8.51141326 L127.79026,7.94901275 L127.583886,7.94914835 L127.583886,7.76407046 L127.79026,7.76397124 L127.79026,7.27697639 L127.568139,7.27713514 L127.568139,5.82092958 L127.79026,5.82078737 L127.790374,4.32615138 L128.201933,4.32615138 L128.20185,5.82078737 L128.423814,5.82092958 L128.423814,7.27713514 L128.20185,7.27697639 L128.20185,7.76397124 L128.372325,7.76407046 L128.372325,7.94914835 L128.20185,7.94901275 L128.20185,8.51141326 L128.423814,8.51145956 L128.423814,9.96766512 L128.20185,9.96760228 L128.20185,12.1465942 L128.921014,12.1465942 L130.476754,11.0974916 L130.580247,11.2509287 L128.996751,12.3187374 L129.39693,23.4939877 L129.906384,23.4940984 L129.906249,23.6520749 L130.105181,23.6514135 L129.956999,23.5427521 L130.556292,22.7242216 L130.556457,22.7214071 L130.558442,22.7212451 L131.024435,22.0850925 L130.293172,22.0851355 L130.293172,21.9000576 L131.844637,21.900051 L131.844637,20.9257306 L130.53717,20.9258331 L130.53717,20.5156892 L131.239904,20.5156297 L131.239971,18.8266323 L131.844637,18.8266091 L131.844747,18.3096174 L132.627878,18.3096174 L132.627798,19.0961513 L133.225577,19.0962869 L133.225421,20.5156297 L133.863264,20.5156892 L133.863264,20.9258331 L132.627798,20.9257306 L132.627798,21.900051 L134.029764,21.9000576 L134.029764,22.0851355 L133.457921,22.0850925 L134.713029,23.5460771 L160.96048,23.5460771 L162.171267,23.5419995 L162.556567,27.8737994 L162.570154,27.8738623 L162.570126,28.0270912 L162.957407,32.3802795 L179.455205,32.3802795 L200,32.3398738 L199.730896,32.6480729 C199.524398,32.884571 199.307538,33.1522008 199.0813,33.4487841 L198.944568,33.6420089 L198.944568,33.6420089 L198.874339,33.7416761 C198.407422,34.4051473 197.940518,35.084165 197.494498,35.753305 L197.488561,35.7630896 C196.877588,36.7236344 196.267269,37.7533497 195.686678,38.7831346 L195.489664,39.1346937 L195.365479,39.3585735 C195.304868,39.4682967 195.246508,39.5746238 195.190534,39.6772358 L195.011759,40.0074433 L194.948752,40.1258954 L194.908576,40.2278997 L194.894678,40.2277592 L194.880747,40.2540866 L12.0111688,40.2540866 L11.9562351,40.1704782 C11.6975808,39.7768088 11.4352928,39.3917083 11.1696339,39.0150031 C11.0281116,38.8224314 10.8789508,38.622006 10.7226481,38.4148312 C9.82795123,37.2289365 8.86745177,36.0430809 7.87112583,34.9234324 C6.5673952,33.5083004 5.21614714,32.2507196 3.84150989,31.1347291 L3.72861118,31.0434827 L2.55191859,31.2848242 L2.5518861,31.1486538 L2.52024271,31.1514799 L2.5518861,30.684479 L2.5518861,30.2231155 L2.00715099,29.7924752 C1.89127797,29.7231308 1.78158504,29.6621385 1.67812499,29.6090222 C1.58056974,29.5589374 1.4951738,29.5193412 1.42206598,29.4890085 L1.38653668,29.4746084 C1.35382228,29.4616764 1.3298684,29.4530539 1.31474642,29.4480328 L1.30084391,29.4436907 L0,29.0793225 L1.10495742,29.0796284 L0.969147558,28.9721616 L7.60032892,29.1125093 L8.27136644,29.1203782 C10.9386687,29.1536001 13.4067756,29.2078486 15.7829356,29.2856439 L18.8352486,29.3501719 L20.8515566,29.4931652 C23.5155685,29.6244386 26.1606232,29.7897789 28.9535509,29.9931061 L29.2952984,28.982271 L29.1785397,28.9794107 C28.7270083,28.9642602 28.4603584,28.9047115 28.3369835,28.8048953 C28.2667381,28.7480633 28.2390389,28.6751493 28.2530725,28.6016242 C28.2565341,28.5834879 28.2620145,28.5669201 28.2689876,28.5517523 L28.2805012,28.5300294 L28.2845811,28.523854 L28.2832849,28.4656311 C28.2654171,27.5267119 28.3717899,26.7113893 28.6016041,26.0315029 L26.4518406,26.0314871 L26.4519144,26.1434017 L25.4812287,26.1434017 L25.4811582,26.0314871 L22.9739201,26.0314871 L22.9740072,26.1434017 L22.3027018,26.1434017 L22.3027018,25.5099611 L22.9740072,25.5099611 L22.9739201,25.6592544 L25.4811582,25.6592544 L25.4812287,25.5099611 L26.4519144,25.5099611 L26.4518406,25.6592544 L28.7457145,25.659277 C29.2584388,24.495118 30.1947362,23.803979 31.5495171,23.6612554 L31.5798529,23.3464466 L31.6746698,23.3411631 L31.6992302,23.3402951 C31.8708198,23.3350565 32.0930428,23.3411705 32.3475354,23.3674497 C32.7260695,23.4065376 33.0996441,23.4835957 33.4499979,23.6077944 C34.2634943,23.8961749 34.8534669,24.4008594 35.1169539,25.1664818 L35.1370753,25.2274686 L35.1413743,25.2553463 L35.1413743,28.9285939 L34.9562964,28.9285939 L34.9561432,28.789912 L34.787861,28.5380684 C34.7716648,28.5763317 34.7528981,28.6113664 34.7318131,28.6432634 C34.6807467,28.7205156 34.6266147,28.7657409 34.5766253,28.7900691 C34.4845229,28.8249481 34.3183981,28.8565241 34.0906434,28.8860044 L33.9855407,28.8989563 L33.8186848,28.9173548 C33.6867978,28.9310442 33.5479633,28.9435954 33.4074042,28.9549313 L33.2179906,28.9694215 L33.128879,28.9752842 L33.506238,30.347138 L36.8650969,30.6254444 L36.1157053,26.1866066 L47.6168937,26.9608802 L47.829509,31.4476306 L48.2019705,31.4743434 L49.5688296,31.5684977 C49.438208,31.4944618 49.339234,31.379166 49.2986503,31.2402706 L49.2050979,31.24647 L49.2526254,30.8541418 L49.0284277,28.5177127 C48.9037623,28.4428141 48.8214801,28.3369004 48.7985722,28.1953123 L48.7944004,28.1625692 L48.6875294,27.0648415 L48.8717364,27.0469077 L48.8719591,27.050621 L48.8876686,27.0497942 L48.7406166,25.5135 C48.7119803,25.221241 48.9589505,24.9717308 49.2897596,24.9339542 L49.3231128,24.9308886 L49.3570864,24.9293027 C49.5798002,24.9240718 49.7836064,25.0209025 49.8999492,25.1750971 C49.9865157,25.0084812 50.1696389,24.8864238 50.3909086,24.8607571 L50.4303403,24.8572388 L50.4642044,24.8558522 C50.7799431,24.850116 51.0569732,25.0463652 51.1015468,25.3202191 L51.1054242,25.3498519 L51.2556708,26.9186611 L51.355971,26.9094066 L51.3837632,27.1995895 C51.3860122,27.2118134 51.3877488,27.2242199 51.3889512,27.2367958 C51.3899724,27.2484921 51.3905107,27.260112 51.3905812,27.2716417 L51.4579481,27.9812571 C51.4571279,28.0532198 51.4382589,28.1528269 51.38425,28.255358 L51.6444398,30.9751877 L51.6742168,31.0817582 L51.6470591,31.0835745 C51.6244473,31.3486263 51.3802489,31.5608731 51.0668816,31.5809216 C50.829469,31.5949206 50.6109218,31.4948781 50.489901,31.3317472 C50.4285404,31.4535847 50.3157878,31.5524037 50.1735409,31.6084189 L51.0860019,31.6663005 C51.3800186,31.684477 51.6637673,31.7015174 51.936856,31.7173649 L52.6137864,31.7554136 L52.6137864,31.7554136 L53.3423893,31.7929427 C54.4345025,31.8460584 55.2746478,31.8712781 55.8219171,31.8646907 L55.8893152,31.8635192 L54.9890714,22.3861083 L55.0596876,22.3860537 L55.0560072,22.3432891 L56.0348348,22.3432246 L55.7078918,20.2543321 L55.7166759,20.2543557 L55.71592,20.2495332 L56.6556086,20.2622931 L56.6556086,19.6797183 L56.2517208,19.6798307 L56.6556086,18.1426666 L56.6557056,17.3882975 L56.8407835,17.3882975 L56.8406501,18.1420052 L57.2405606,19.6798307 L56.8406501,19.6797183 L56.8406501,20.2647736 L65.9435678,20.3896228 L66.1467511,18.2317628 L66.1509936,18.2114702 C66.163208,18.1744066 66.185163,18.1219151 66.2171145,18.0682759 C66.2787097,17.9648715 66.3538036,17.8982939 66.4539879,17.8982939 C66.5671611,17.8982939 66.6640695,17.9880347 66.7532898,18.164669 L66.7710339,18.2011536 L66.7791955,18.2300101 L67.0257051,20.4043402 L69.197421,20.4341056 L69.7156695,19.7232088 L69.7157285,19.7148646 L69.721788,19.7147753 L70.185632,19.0784574 L69.4531514,19.078593 L69.4531514,18.8935151 L71.0081489,18.8934159 L71.0081489,17.9189301 L69.7006887,17.9189367 L69.7006887,17.5084389 L70.3981238,17.5083331 L70.3981811,15.8218592 L71.0081489,15.821793 L71.0082657,15.3044904 L71.7910426,15.3044904 L71.7909787,16.0915005 L72.3890954,16.0915138 L72.3889323,17.5083331 L73.0228898,17.5084389 L73.0228898,17.9189367 L71.7909787,17.9189301 L71.7909787,18.8934159 L73.1936357,18.8935151 L73.1936357,19.078593 L72.6197794,19.0784574 L73.8368531,20.4977704 L75.1777839,20.5161257 L75.2657965,19.5565596 L75.2704874,19.534769 C75.277849,19.5134691 75.2904168,19.4846048 75.3088504,19.4546312 C75.3285876,19.4225378 75.3508558,19.3958239 75.3771599,19.3772483 L75.3772363,15.548135 L75.5623142,15.548135 L75.5622852,19.3809267 C75.596298,19.4061973 75.6263025,19.4459126 75.6535581,19.4986241 L75.6670063,19.5261507 L75.6749422,19.5543658 L75.7869823,20.5243939 L82.4804109,20.6161821 L82.7064432,18.3478825 L80.4056574,17.3414876 L80.4055786,17.0825227 L80.1358818,16.94079 L80.4055786,16.9274119 L80.4056574,16.838372 L82.2275512,16.8382811 L82.7884827,16.8108424 L82.8727987,15.5583693 L82.9528345,14.058359 L80.4093987,12.577688 L81.8470503,12.5775309 L81.8470503,11.5364037 L80.8662288,11.5364037 L80.8662288,10.8750068 L83.0103721,10.8750068 L83.0103721,11.5364037 L82.0320918,11.5364037 L82.0320918,12.5775309 L82.9143049,12.5775309 L83.0001477,12.5747313 L83.1848392,9.99703694 L80.1427265,9.99703694 C79.9070626,9.99703694 79.7408244,9.92120759 79.6393691,9.79243744 C79.5835525,9.7215933 79.557092,9.65036365 79.5481244,9.58855485 L79.5455583,9.56583731 L79.5455242,9.2393424 L79.3026215,9.2393854 L79.3026215,9.05430751 L83.2476772,9.0543009 L83.3325086,7.67235999 L82.6475739,6.98709456 L82.6476477,7.26881902 L82.4625699,7.26881902 L82.4625699,6.65059518 L82.6476477,6.65059518 L82.6475739,6.83959052 L83.2660326,6.83959052 L82.8836275,6.45595708 L82.87198,6.35797139 L82.8545172,6.19605876 L82.8385815,6.03509149 L82.8152052,5.77346228 L82.8152052,5.77346228 L82.7954087,5.52147984 L82.6600335,5.49084574 L82.6600335,4.04428802 L82.7396813,4.04412431 L82.7402848,3.96070929 C82.745126,3.50447116 82.7726001,3.10151478 82.8264755,2.7635873 L82.4945958,2.7637826 L82.4945958,2.57870471 L83.0246022,2.57867495 L83.1629448,1.89695988 L84.4247331,1.89688216 L84.4247331,1.13687253 L83.8474691,1.13700813 L83.8474499,0.997802016 L80.3339972,0.997934307 L80.3339972,0.307519473 L83.5843569,0.307410333 L83.5843613,-7.10542736e-14 L85.9549861,-7.10542736e-14 Z M96.0861514,29.1806654 L95.8093525,29.180677 L96.07871,29.3065069 L96.0861514,29.1806654 Z M133.880425,22.8608117 L133.880427,22.906485 L130.652203,22.9064519 L130.106669,23.6514135 L133.880425,23.6385152 L133.880427,23.5461184 L134.468952,23.5460771 L133.880425,22.8608117 Z M102.589247,23.0784413 L102.254221,23.0784413 L102.254202,23.4939877 L102.589228,23.4939877 L102.589247,23.0784413 Z M133.276041,22.1572025 L131.200897,22.1572025 L130.787801,22.7212451 L133.760536,22.7212451 L133.276041,22.1572025 Z M132.442756,20.9257306 L132.029679,20.9257306 L132.029698,21.8625251 L132.442775,21.8625251 L132.442756,20.9257306 Z M132.627798,20.7006712 L132.627798,20.7406891 L133.678039,20.7407007 L133.678039,20.7006827 L132.627798,20.7006712 Z M131.844637,20.7006712 L130.722171,20.7006827 L130.722171,20.7407007 L131.844637,20.7406891 L131.844637,20.7006712 Z M132.442756,20.7006712 L132.029679,20.7006712 L132.029679,20.7406891 L132.442756,20.7406891 L132.442756,20.7006712 Z M132.442775,18.4945713 L132.029698,18.4945713 L132.029679,20.5156297 L132.442756,20.5156297 L132.442775,18.4945713 Z M131.837877,19.0116622 L131.424965,19.0116622 L131.424965,20.4691742 L131.837877,20.4691742 L131.837877,19.0116622 Z M133.040398,19.2812044 L132.627817,19.2812044 L132.627817,20.4688434 L133.040398,20.4688434 L133.040398,19.2812044 Z M71.6059371,17.9189301 L71.1931904,17.9189301 L71.1932097,18.8555593 L71.6059564,18.8555593 L71.6059371,17.9189301 Z M71.0081489,17.6933746 L69.8856822,17.6933862 L69.8856822,17.7337348 L71.0081489,17.7337232 L71.0081489,17.6933746 Z M71.7909787,17.6933746 L71.7909787,17.7337232 L72.8377475,17.7337348 L72.8377475,17.6933862 L71.7909787,17.6933746 Z M71.6059371,17.6933746 L71.1931904,17.6933746 L71.1931904,17.7337232 L71.6059371,17.7337232 L71.6059371,17.6933746 Z M71.6059564,15.4894244 L71.1932097,15.4894244 L71.1931904,17.5083331 L71.6059371,17.5083331 L71.6059564,15.4894244 Z M72.20391,16.2765536 L71.7909979,16.2765536 L71.7909979,17.4641927 L72.20391,17.4641927 L72.20391,16.2765536 Z M70.9957659,16.0068461 L70.5831845,16.0068461 L70.5831845,17.4641927 L70.9957659,17.4641927 L70.9957659,16.0068461 Z M128.016808,9.96760228 L127.975302,9.96760228 L127.975302,12.1465942 L128.016808,12.1465942 L128.016808,9.96760228 Z M80.2474913,9.2393424 L79.7305657,9.2393424 L79.7302984,9.55793711 C79.7325135,9.58378958 79.7474811,9.63059977 79.7847462,9.67789787 C79.8453907,9.75486973 79.9464447,9.80448742 80.1050867,9.81118295 L80.1427265,9.81195905 L80.2474913,9.81183007 L80.2474913,9.2393424 Z M83.2362672,9.2393424 L82.7887942,9.2393424 L82.7887942,9.81183007 L83.1980683,9.81183007 L83.2194001,9.51467226 L83.2362672,9.2393424 Z M81.7868581,9.2393424 L81.1594698,9.2393424 L81.1594698,9.81183007 L81.7868581,9.81183007 L81.7868581,9.2393424 Z M80.9744283,9.2393424 L80.4326982,9.2393424 L80.4326982,9.81183007 L80.9744283,9.81183007 L80.9744283,9.2393424 Z M82.6037526,9.2393424 L81.9720649,9.2393424 L81.9720649,9.81183007 L82.6037526,9.81183007 L82.6037526,9.2393424 Z M127.79026,8.69645476 L127.753073,8.69646634 L127.753073,9.78257235 L127.79026,9.78256077 L127.79026,8.69645476 Z M128.20185,8.69645476 L128.20185,9.78256077 L128.23858,9.78257235 L128.23858,8.69646634 L128.20185,8.69645476 Z M128.016808,8.69645476 L127.975302,8.69645476 L127.975302,9.78256077 L128.016808,9.78256077 L128.016808,8.69645476 Z M79.2267148,8.69848377 L79.2267148,9.64864463 L79.0416369,9.64864463 L79.0416369,8.69848377 L79.2267148,8.69848377 Z M128.016808,7.94901275 L127.975302,7.94901275 L127.975302,8.51141326 L128.016808,8.51141326 L128.016808,7.94901275 Z M128.016808,7.27697639 L127.975302,7.27697639 L127.975302,7.76397124 L128.016808,7.76397124 L128.016808,7.27697639 Z M83.3721958,7.02479739 L82.9469007,7.02480897 L83.3475567,7.42563798 L83.3721958,7.02479739 Z M127.79026,6.00599424 L127.753073,6.00600581 L127.753073,7.09194646 L127.79026,7.09193488 L127.79026,6.00599424 Z M128.20185,6.00599424 L128.20185,7.09193488 L128.23858,7.09194646 L128.23858,6.00600581 L128.20185,6.00599424 Z M128.016808,6.00599424 L127.975302,6.00599424 L127.975302,7.09193488 L128.016808,7.09193488 L128.016808,6.00599424 Z M128.016827,4.51112179 L127.975321,4.51112179 L127.975302,5.82078737 L128.016808,5.82078737 L128.016827,4.51112179 Z M71.6985036,15.3970293 L71.6985036,16.1840527 L72.2965565,16.1840527 L72.2965565,17.5567432 L71.6985036,17.5567432 L71.6983752,17.6012673 L72.9303509,17.6013317 L72.9303509,17.8267517 L71.6983752,17.8266574 L71.6985036,18.9481892 L71.1008047,18.9481892 L71.1007523,17.8266574 L69.7932276,17.8267517 L69.7932276,17.6013317 L71.1007523,17.6012673 L71.1008047,15.3970293 L71.6985036,15.3970293 Z M82.9178332,17.0238038 L82.8367952,18.2025695 L80.5910892,17.2202058 L80.5910892,17.0238038 L82.9178332,17.0238038 Z M71.088419,15.9143981 L71.088419,17.5567432 L70.49072,17.5567432 L70.49072,15.9143981 L71.088419,15.9143981 Z M83.1598853,12.7631197 L83.1149429,13.9383466 L81.0964261,12.7631197 L83.1598853,12.7631197 Z" id="path-1"></path>
    </defs>
    <g id="Silhouettes/T23" stroke="none" stroke-width="1" fill="none" fill-rule="evenodd">
        <mask id="mask-2" fill="white">
            <use xlink:href="#path-1"></use>
        </mask>
        <use fill="#3E5667" xlink:href="#path-1"></use>
    </g>
</svg>