<?xml version="1.0" encoding="UTF-8"?>
<svg width="200px" height="41px" viewBox="0 0 200 41" version="1.1" xmlns="http://www.w3.org/2000/svg" xmlns:xlink="http://www.w3.org/1999/xlink">
    <title>Silhouettes/Trafalgar Class Fleet Submarine</title>
    <defs>
        <path d="M80.2005765,3.33955086e-13 C80.6569672,3.33955086e-13 81.3050037,0.116220911 82.0983705,0.323634781 C82.3749452,0.395941096 82.6643035,0.478146503 82.9626686,0.568412593 C83.2695505,0.661255316 83.5744309,0.759048752 83.8696329,0.858081444 L84.3533745,1.0243946 L84.6593594,1.13445002 C84.691708,1.14647649 84.7153455,1.17358016 84.7235066,1.20602819 L84.7266198,1.2312142 L84.7264429,6.21825634 L84.8059438,6.26216465 C85.0922644,6.43172223 85.2780426,6.66370335 85.3211756,6.92356613 L85.3282198,6.97966518 L85.3308167,7.04063265 C85.3308167,7.33097949 85.1553841,7.59329281 84.8567178,7.78693369 L84.7264429,7.86260462 L84.7264429,13.1855083 L132.011548,13.1858368 C147.240436,13.1858368 161.989808,15.2383409 175.899071,18.7621979 L177.115434,19.0746551 C177.131483,19.0788344 177.144921,19.0856764 177.15585,19.0943738 L177.174729,19.0928388 L177.198326,19.0961452 L177.764307,19.2439252 C177.8097,19.2558513 177.84006,19.2962097 177.841296,19.3408684 L180.099352,19.9802262 L180.202834,18.0825195 L190.048222,19.0830078 L189.978966,22.9524975 L190.64741,23.1508958 L190.722969,21.1033927 L197.358269,22.5827009 L197.390481,25.7336811 L200,26.9366586 L200,27.8750706 L197.358269,29.0061639 L197.390481,31.9528281 L190.746186,33.4524942 L190.722969,31.3375339 L189.832346,31.7157003 L189.925343,39.8004129 C187.147207,40.7621201 184.033128,40.7621201 180.583105,39.8004129 L180.202834,34.7312649 L170.130017,37.121667 C168.167629,37.5625662 164.260589,38.2767737 156.323813,38.2021794 L154.164547,38.1739251 C145.299269,38.082418 110.874774,38.111271 50.8910628,38.2604844 C38.4325743,38.4595086 27.921322,37.8675161 19.357306,36.4845069 L14.7162531,35.7138729 C5.13500507,34.1426502 3.30994664,33.9450118 1.59135805,31.7157003 C-0.339111328,29.2115423 0.226697212,25.7950007 0.300376222,25.4173664 C0.374055232,25.0397321 1.61632357,21.7954493 1.96758911,21.4250511 C2.31885465,21.0546529 2.73307894,20.2156026 4.19775391,19.6785889 L4.53448754,19.5628476 C4.9694096,19.4213994 5.55156317,19.2574929 6.28094824,19.071128 L6.64241982,18.9511474 C8.98999026,18.1893839 12.7235969,17.2928488 17.5686117,16.4532655 L18.6634648,16.2677068 L19.4160581,16.1448286 L20.9514993,15.9053227 C27.9518579,14.8465457 36.17998,14.0464957 45.6754816,13.5955382 L47.269807,13.5236265 L48.2465089,13.4830409 L48.2466016,11.1656892 C48.2466016,10.6901873 48.676869,9.88984989 49.1264757,9.78684808 L49.1747032,9.77852711 L49.2213581,9.775819 L49.8364219,9.775819 C50.3013532,9.775819 50.7833716,10.6035011 50.8139858,11.1155761 L50.8155251,11.1656892 L50.8154662,13.3886931 L51.6061235,13.3642165 C54.3530776,13.2812939 57.1511216,13.226622 60.0105544,13.2015897 L62.6799273,13.1869139 L63.7970567,13.1855083 L63.7974848,1.85250803 L63.8010287,1.71148752 C63.8506525,0.452184441 64.383566,0.0802293004 66.3665716,0.012345439 L66.8272096,0.00207944113 L67.1951294,3.33955086e-13 L80.2005765,3.33955086e-13 Z" id="path-1"></path>
    </defs>
    <g id="Silhouettes/Trafalgar-Class-Fleet-Submarine" stroke="none" stroke-width="1" fill="none" fill-rule="evenodd">
        <mask id="mask-2" fill="white">
            <use xlink:href="#path-1"></use>
        </mask>
        <use id="Path" fill="#3E5667" xlink:href="#path-1"></use>
    </g>
</svg>