<?xml version="1.0" encoding="UTF-8"?>
<svg width="200px" height="46px" viewBox="0 0 200 46" version="1.1" xmlns="http://www.w3.org/2000/svg" xmlns:xlink="http://www.w3.org/1999/xlink">
    <title>Silhouettes/Type 26 City Class</title>
    <defs>
        <path d="M82.3346439,0 L83.5100595,0.334113734 L83.5100595,1.66484539 L82.9666457,2.23075798 L84.2212661,2.23089143 C84.2492171,2.23089143 84.2771299,2.2329672 84.3047773,2.23710182 C84.6010418,2.28140777 84.8096939,2.54841963 84.7879361,2.84426505 L84.783245,2.8867039 L84.1793972,6.97611609 L84.4787301,7.87711342 L86.1835105,15.8991893 L90.190745,15.8991932 L89.0544452,18.1862705 L86.6698468,18.1862666 L87.6801216,22.9396613 L87.6801216,25.3724727 L88.6238941,30.5270513 L92.4367125,30.5270513 L93.9122932,24.7557548 L112.632593,24.7556101 L112.632666,22.760425 L113.200816,22.760425 L113.200743,25.0203393 L114.779041,25.8200051 L117.519088,25.8200051 L117.519088,28.4557834 L120.302616,28.4555294 L120.30269,26.7628102 L120.87084,26.7628102 L120.870766,28.4555294 L122.291141,28.4555294 L122.291214,26.7628102 L122.575289,26.7628102 L122.575216,28.4555294 L129.51959,28.4557834 L130.519956,24.7557548 L131.742883,24.7557436 L131.742883,22.474384 L130.529388,22.4745404 L130.529388,22.1886557 L130.822652,22.1886557 C130.770706,22.0462718 130.700508,21.9495809 130.612058,21.8985833 C130.479383,21.8220868 130.456358,21.3760376 130.685339,21.2849363 C130.914321,21.193835 131.009811,21.1897258 131.248473,21.2849363 C131.47577,21.3756131 131.435483,21.7505307 131.295043,21.8928094 L131.273247,21.9123418 C131.187088,21.9799443 131.132194,22.0719545 131.108564,22.1883726 L131.742883,22.1884994 L131.742883,19.6155375 L131.665688,19.6156938 C131.351907,19.6156938 131.097538,19.359704 131.097538,19.0439245 L131.097538,17.0427319 C131.097538,16.7269524 131.351907,16.4709626 131.665688,16.4709626 L131.977529,16.4708062 L131.977318,11.8968075 L131.371386,11.8968075 L131.371612,13.632985 L131.125335,13.632985 L131.125093,11.8968075 L131.097538,11.896808 L131.097538,11.6109234 L131.125093,11.6109228 L131.125335,9.91648446 L131.371612,9.91648446 L131.371386,11.6109228 L131.977318,11.6109228 L131.97756,9.63059981 L132.223837,9.63059981 L132.223611,11.6109228 L132.829543,11.6109228 L132.829469,11.0389977 L132.517912,11.0391541 L132.517912,10.4673848 L132.829754,10.4672284 L132.829785,9.91648446 L133.076061,9.91648446 L133.076047,10.4669425 L133.632338,10.4672195 L133.676822,8.24675335 L133.895496,8.24675335 L133.940844,10.4672195 L135.074587,10.4673848 L135.074587,11.0391541 L133.952775,11.0389888 L134.234504,24.7557436 L144.549208,24.7557548 L145.059655,28.4557834 L154.324549,28.4557834 L157.706261,39.5805773 L200,39.5805773 L194.075068,46 L15.0329467,46 L0,35.2877009 L27.3087866,35.287814 C27.9808315,34.6392097 28.7055917,33.7164784 29.0803698,33.0676107 C29.1417669,32.9613115 29.2117756,32.8535741 29.2901831,32.7455231 L22.7766246,32.7455141 L22.7766246,32.2579935 L29.7017781,32.2580956 C30.4538368,31.4829751 31.6342957,30.7811876 33.1610343,30.5869363 C34.5004151,30.416523 35.215667,30.829955 35.3067899,31.8272322 L35.3118479,31.8930997 L35.5230043,35.2874485 L38.5911935,35.2877009 L42.0955244,30.5270513 L52.450944,30.5270513 L55.1491012,26.9738735 L57.8073104,26.9738735 L56.6654622,24.7557548 L61.8806884,24.7553966 L61.9744021,24.3842284 C62.2100278,23.4716954 62.4160226,22.8352245 62.5923867,22.4748157 L60.9310251,22.4745404 L60.9310251,22.1886557 L65.1921494,22.1886557 L65.1921494,22.4745404 L63.0618713,22.4745404 L63.1320542,22.5892492 C63.5575121,23.2997688 63.7854946,24.0219507 63.8160019,24.755795 L65.5687595,24.7556101 L67.5669078,22.8570926 L69.745463,22.8570926 L71.236907,24.1941327 L73.1487447,21.2849363 L77.2187287,21.2849363 L77.7382463,18.1862666 L74.8506977,18.1862705 L73.9984728,15.8991932 L78.1217475,15.8991893 L78.4009932,14.234483 L75.9557881,14.2345572 L76.2800885,12.8999868 L75.1355355,12.8999868 L75.1355355,12.4907027 L78.6933063,12.4905866 L79.4169112,8.17772504 L79.9838821,6.97611609 L79.4933834,2.87092064 C79.490677,2.8482693 79.4893201,2.82547525 79.4893201,2.80266075 C79.4893201,2.50123489 79.7210906,2.25428677 80.0150683,2.23245972 L80.05747,2.23089143 L81.4190986,2.23089143 L81.0469438,1.66484539 L81.0469438,0.312686344 L82.3346439,0 Z M133.295063,22.4221106 L132.491389,22.4221106 L132.491389,24.7336683 L133.252681,24.7336683 L133.295063,22.4221106 Z M132.492971,21.7286432 L132.493112,22.1907671 L132.719428,22.1909548 C132.677439,22.0199942 132.620697,21.9038975 132.549202,21.8426646 C132.525867,21.8226788 132.506728,21.7816844 132.492971,21.7286432 Z M133.101944,10.9798995 L133.102016,11.5552548 L133.112099,11.5552553 L133.112099,11.8427109 L133.102016,11.8427103 L133.102239,13.5884281 L132.859423,13.5884281 L132.859184,11.8427103 L132.261768,11.8427103 L132.261976,16.4418431 L132.551934,16.4420003 C132.861305,16.4420003 133.112099,16.6993968 133.112099,17.0169114 L133.112099,19.0291005 C133.112099,19.3420627 132.868445,19.5966182 132.565204,19.6038535 L132.565178,21.443253 C132.59189,21.3704419 132.637436,21.310122 132.705694,21.2824267 C132.931457,21.1908248 133.025606,21.186693 133.260914,21.2824267 C133.485016,21.3736017 133.445295,21.7505794 133.306829,21.89364 L133.285339,21.9132798 C133.200391,21.9812537 133.146268,22.0737695 133.12297,22.1908273 L133.420398,22.1909548 L133.639495,10.980178 L133.101944,10.9798995 Z" id="path-1"></path>
    </defs>
    <g id="Silhouettes/Type-26-City-Class" stroke="none" stroke-width="1" fill="none" fill-rule="evenodd">
        <mask id="mask-2" fill="white">
            <use xlink:href="#path-1"></use>
        </mask>
        <use id="Type-26-City-Class" fill="#3E5667" xlink:href="#path-1"></use>
    </g>
</svg>