<?xml version="1.0" encoding="UTF-8"?>
<svg width="200px" height="16px" viewBox="0 0 200 16" version="1.1" xmlns="http://www.w3.org/2000/svg" xmlns:xlink="http://www.w3.org/1999/xlink">
    <title>Silhouettes/V Boats</title>
    <defs>
        <path d="M34.7064158,9.46186685 C35.1114584,9.09768696 35.3688218,8.7170186 35.4272483,8.56790557 C35.5527039,8.24888972 36.6835972,0.468845772 36.6835972,0.468845772 C36.6835972,0.468845772 40.2010158,0 43.8442486,0 C47.4867644,0 50.627816,0.343390099 50.627816,0.343390099 C50.627816,0.343390099 51.8845234,6.24769251 52.6383328,7.63057247 C52.8971299,8.10479492 53.2304836,8.43886545 53.5563099,8.68224946 C62.0381887,8.50804529 68.4801583,8.58582781 70.1003287,8.58582781 C74.9995519,8.58582781 110.427876,9.13783277 115.703466,9.13783277 C120.980848,9.13783277 135.301793,11.9003667 137.687959,11.9003667 C140.075919,11.9003667 150.001255,11.9003667 159.798626,11.9003667 C168.456142,11.9003667 185.045684,14.7424753 188.797884,15.4052397 C189.579652,15.0847901 189.573558,14.2886843 189.573558,14.2886843 C189.573558,14.2886843 190.829907,9.8912837 191.08046,8.56790557 C191.331371,7.24452744 192.462623,6.75023209 192.462623,6.75023209 C192.462623,6.75023209 196.356767,6.75023209 198.115656,6.75023209 C199.874544,6.75023209 200,8.56790557 200,8.56790557 L200,15.5446748 L0,15.5446748 C7.27750436,12.1032464 21.1668811,10.3504515 34.7064158,9.46186685" id="path-1"></path>
    </defs>
    <g id="Silhouettes/V-Boats" stroke="none" stroke-width="1" fill="none" fill-rule="evenodd">
        <mask id="mask-2" fill="white">
            <use xlink:href="#path-1"></use>
        </mask>
        <use fill="#3E5667" xlink:href="#path-1"></use>
    </g>
</svg>