<?xml version="1.0" encoding="UTF-8"?>
<svg width="200px" height="31px" viewBox="0 0 200 31" version="1.1" xmlns="http://www.w3.org/2000/svg" xmlns:xlink="http://www.w3.org/1999/xlink">
    <title>Silhouettes/Vanguard Class Ballistic Submarine</title>
    <defs>
        <path d="M45.0374384,-5.46229728e-13 C47.0088792,0.0119889552 50.3920638,0.22794124 52.5438617,0.432388249 L53.1498164,0.493161725 L53.4508352,0.526964333 C53.4600321,0.526964333 53.4689448,0.528434219 53.4773128,0.531172416 C53.5083351,0.540089411 53.5264291,0.56312111 53.5325259,0.589026582 L55.4352212,8.16168943 L55.5003798,8.25308554 C55.6964056,8.51519585 55.8970497,8.66984078 56.0794441,8.66984078 C56.1345506,8.66984078 56.162663,8.71080619 56.1633775,8.75226717 C58.8670112,8.70028342 61.6438335,8.66971968 64.4891559,8.66412677 L77.111902,8.66319219 C77.111902,8.62345282 77.139515,8.59016281 77.1766007,8.58146239 L77.1958489,8.57924529 L80.8643282,8.57924529 C80.9040676,8.57924529 80.9373576,8.60685825 80.946058,8.64394393 L80.9482751,8.66319219 L81.1261754,8.66319219 C81.1261754,8.62345282 81.1537883,8.59016281 81.190874,8.58146239 L81.2101222,8.57924529 L84.8786015,8.57924529 C84.9183409,8.57924529 84.9516309,8.60685825 84.9603313,8.64394393 L84.9625484,8.66319219 L85.1378967,8.66319219 C85.1378967,8.62345282 85.1655097,8.59016281 85.2025954,8.58146239 L85.2218436,8.57924529 L88.8903229,8.57924529 C88.9300623,8.57924529 88.9633523,8.60685825 88.9720527,8.64394393 L88.9742698,8.66319219 L89.1521701,8.66319219 C89.1521701,8.62345282 89.179783,8.59016281 89.2168687,8.58146239 L89.2361169,8.57924529 L92.9058722,8.57924529 C92.9456116,8.57924529 92.9789016,8.60685825 92.987602,8.64394393 L92.9898191,8.66319219 L93.1651674,8.66319219 C93.1651674,8.62345282 93.1927804,8.59016281 93.229866,8.58146239 L93.2491143,8.57924529 L96.9175936,8.57924529 C96.957333,8.57924529 96.990623,8.60685825 96.9993234,8.64394393 L97.0015405,8.66319219 L97.1781648,8.66319219 C97.1781648,8.62345282 97.2057777,8.59016281 97.2428634,8.58146239 L97.2621116,8.57924529 L100.930591,8.57924529 C100.97033,8.57924529 101.00362,8.60685825 101.012321,8.64394393 L101.014538,8.66319219 L101.191162,8.66319219 C101.191162,8.62345282 101.218775,8.59016281 101.255861,8.58146239 L101.275109,8.57924529 L104.944864,8.57924529 C104.984604,8.57924529 105.017894,8.60685825 105.026594,8.64394393 L105.028811,8.66319219 L105.204159,8.66319219 C105.204159,8.62345282 105.231772,8.59016281 105.268858,8.58146239 L105.288106,8.57924529 L108.956586,8.57924529 C108.996325,8.57924529 109.029615,8.60685825 109.038315,8.64394393 L109.040533,8.66319219 L116.552571,8.66319219 C121.23666,8.66319219 130.332839,11.3039784 137.13542,11.3708337 L137.395913,11.3721249 L148.341379,11.3070493 C161.819606,11.3070493 173.515541,12.7782633 182.349698,14.5493588 L182.865066,14.6537065 C182.870543,14.6235282 182.891212,14.5961727 182.925434,14.5878925 L182.94758,14.5853434 L183.127615,14.5832904 C183.923117,14.5729606 184.450939,14.4602404 184.760397,14.2814342 C184.925062,14.1862903 184.992319,14.0991688 185.008505,14.0444754 L186.243899,7.209786 L186.243899,7.209786 C186.349081,6.88088259 186.74817,6.7136377 187.825177,6.64464211 L188.042198,6.63249794 L188.54555,6.61557791 L188.839733,6.61074239 C188.941857,6.60966027 189.04818,6.60911241 189.159113,6.60911241 C190.41785,6.60911241 192.851332,6.90980852 193.981639,7.14552129 C194.020594,7.15364491 194.04187,7.18117304 194.048449,7.21154707 L194.048449,15.3876742 C194.048449,15.4274136 194.020836,15.4607036 193.98375,15.469404 L193.964502,15.4716211 L193.913989,15.471 L193.983642,17.4375897 L194.180145,17.4817127 L194.261179,15.7253407 L199.308364,16.7893523 L199.23818,19.5754873 L200,20.3142883 L199.140471,20.9088866 L199.158422,23.4825727 L194.264092,24.5333694 L194.348038,22.6100141 L193.964502,22.8056344 L194.012251,29.4677013 C190.635114,30.0519362 188.081472,30.2035582 186.351324,29.9225673 C185.304695,29.677109 185.291897,28.7696736 185.111729,27.8809065 L184.677341,25.8822748 C184.63168,25.6662632 184.583976,25.4391068 184.53423,25.2008057 L181.831624,25.7455308 C176.372169,26.8341291 171.981288,27.6336909 168.658984,28.1442163 C163.218221,28.9802766 157.603516,29.2816814 151.480693,29.2785354 L44.5531441,28.6992238 L44.5531441,28.6992238 L37.1329716,28.5191731 C32.1530991,28.382866 26.057699,28.1781911 23.9864668,27.9411186 L23.3722477,27.860775 C20.0925017,27.4692061 9.95523785,27.3451517 2.54069753,23.5948278 C-2.96212042,20.8114659 1.31491206,17.1524318 5.41137851,15.3880363 L5.05632009,15.3889502 C10.9518279,12.734898 21.8322295,10.7611724 36.2910494,9.66091628 L36.64659,9.63435581 C36.6433541,9.59462046 36.6656221,9.55288813 36.717476,9.5448795 L36.7802826,9.53392266 L36.9128347,9.50581797 L37.0235338,9.47883443 C37.2545392,9.41964537 37.4854515,9.34167885 37.7002791,9.24290566 C38.1618721,9.03067508 38.4821269,8.75386621 38.6030986,8.40864617 L38.6027821,8.3197008 C38.6045315,8.33823096 38.6125655,8.35511603 38.6248079,8.36815199 C38.6333092,8.35838365 38.6436414,8.351272 38.65516,8.34665443 L39.0712353,4.91608297 L39.6648324,0.607429588 C39.6695516,0.573223972 39.6950116,0.546268818 39.7276652,0.538233922 L39.7628496,0.535701075 C39.9864465,0.240063694 40.7150102,0.0925531412 42.6160167,0.0314235118 L43.0062068,0.0204727794 L43.5935164,0.00860760229 L44.4793187,-5.46229728e-13 L45.0374384,-5.46229728e-13 Z" id="path-1"></path>
    </defs>
    <g id="Silhouettes/Vanguard-Class-Ballistic-Submarine" stroke="none" stroke-width="1" fill="none" fill-rule="evenodd">
        <mask id="mask-2" fill="white">
            <use xlink:href="#path-1"></use>
        </mask>
        <use id="Path" fill="#3E5667" xlink:href="#path-1"></use>
    </g>
</svg>