<?xml version="1.0" encoding="UTF-8"?>
<svg width="200px" height="56px" viewBox="0 0 200 56" version="1.1" xmlns="http://www.w3.org/2000/svg" xmlns:xlink="http://www.w3.org/1999/xlink">
    <title>Silhouettes/Wildcat</title>
    <defs>
        <path d="M3.43214957,0 L10.6438231,7.2105494 L10.577496,9.91647273 L11.8256721,11.1629939 C12.3173521,11.0970334 12.8124977,11.0619762 13.3031962,11.0675213 L13.3036547,10.2559779 L14.1737772,10.2559779 L14.1732934,11.1226551 C14.5894393,11.1720937 14.9987754,11.2560169 15.3962282,11.3806433 L15.8510674,10.9259946 L15.4519803,10.5269075 L25.012085,0.966802693 L27.4785561,3.43327377 L20.2668825,10.6438231 L17.5609592,10.5786202 L16.3598314,11.7793784 C16.7563122,11.9876816 17.1347171,12.2474852 17.4890111,12.5661866 L17.5699527,13.8916057 L17.5323275,14.082226 C17.4531775,14.4323407 17.2377548,15.1675604 16.7807719,15.4474835 L16.8628377,15.539667 L16.9505244,15.4519803 L19.4516802,17.9522509 C20.7610258,19.0271861 22.5487882,20.3225629 24.7984891,21.5765629 C26.7444606,22.6614055 29.0355581,23.7147707 31.6717817,24.5680303 C32.0663721,24.6973121 32.4654593,24.8232213 32.8757883,24.9412611 L34.9926367,24.958124 L35.6873853,25.7787821 L37.7502727,25.4628849 L56.1465247,23.9223302 C56.5042873,23.7087064 56.955094,23.5676043 57.4505637,23.5371488 C57.8968857,23.5097646 58.3177977,23.5755511 58.6753733,23.7113314 L76.5075903,22.219947 L76.9208263,21.7732419 C77.3724383,21.2931519 77.9299237,20.7270047 78.5099997,20.2016795 C78.5893147,20.1299774 78.7507403,20.0471785 78.985205,19.954723 L77.3981767,17.7790519 L86.416422,16.2411611 L87.9389173,17.6068484 C89.7222113,16.3606189 94.2104257,16.311985 94.2104257,16.311985 L94.4406237,16.1791508 L94.754064,16.013353 C95.508092,15.6297187 97.0134137,14.9631847 99.0613893,14.5417303 L99.3771993,14.4795566 L99.8943263,14.3896215 C102.607176,13.9588032 104.372647,14.3224088 105.031632,14.5085846 L105.323036,14.6020932 L105.515873,14.4354349 C107.029488,13.1582106 108.007365,13.012217 108.213187,12.9955313 L108.253797,12.9933785 L108.985393,14.1386166 L109.715988,14.0897652 L109.715988,14.0897652 L110.406619,14.089463 L110.577872,13.9281883 C111.275713,13.3093718 112.092569,12.9748627 112.52448,12.8287291 L112.828123,12.7370634 L116.673974,12.7370634 C117.497198,12.7370634 118.508779,13.4880224 118.977274,13.8767541 L119.222511,14.089463 L123.322429,14.0905872 L123.322429,11.3779187 L121.890212,11.3779187 L121.889087,10.7843468 L121.160557,10.7856667 C120.97204,11.0056528 120.703276,11.1548864 120.399822,11.1878101 L120.253166,11.1947558 C120.01373,11.6461105 119.638789,11.9366407 119.21689,11.9366407 C118.750899,11.9366407 118.341615,11.5800012 118.110071,11.0431292 L116.100637,11.0429103 C115.773077,11.0429103 115.483387,10.8854009 115.297843,10.6434345 L115.224894,10.5347768 L112.424385,10.5362575 C112.240324,10.8876243 111.87187,11.1272245 111.447618,11.1272245 L108.331366,11.1272245 C107.975439,11.1272245 107.659169,10.9585837 107.458041,10.6967866 L67.133419,11.4387894 L67.0095443,11.4397491 C65.7616943,11.4397491 63.0186727,13.4542961 63.0186727,13.4542961 L62.6422627,13.2659944 L62.2958877,13.102946 C61.5193427,12.747204 60.289061,12.2491653 59.4875947,12.2491653 L59.2167917,12.2582808 C57.5668813,12.3505517 52.21102,13.1132285 51.5585277,13.1608057 L51.510348,13.1631311 C51.135993,13.1631311 50.5963823,13.4542961 50.5963823,12.7899003 C50.5963823,12.1492329 53.2232813,11.1981043 54.714249,11.1309838 L54.8750463,11.1272245 L60.1103953,11.1272245 C69.9866747,9.7410319 97.504943,9.48306273 107.405147,9.4350549 C107.598998,9.12852537 107.941376,8.92606207 108.331366,8.92606207 L111.447618,8.92606207 C111.871408,8.92606207 112.239521,9.1651405 112.423782,9.5158812 L115.224894,9.5162614 C115.37933,9.2506717 115.647378,9.05996353 115.962766,9.01643633 L116.100637,9.0070037 L118.110071,9.00790897 C118.341615,8.47103703 118.750899,8.1143975 119.21689,8.1143975 C119.638428,8.1143975 120.013089,8.4044308 120.252552,8.85512443 L120.272503,8.85636233 C120.735297,8.85636233 121.13564,9.12582427 121.325066,9.51628087 L121.889087,9.5162614 L121.890212,9.17563207 L121.682237,9.17563207 L121.682237,7.38929547 L123.322429,7.38817127 L123.323553,6.93175047 L123.781098,6.9306263 L123.781098,6.05937967 L126.81416,6.05937967 L126.81416,6.9306263 L127.271705,6.93175047 L127.270581,7.38817127 L128.913021,7.38929547 L128.913021,9.17563207 L128.705046,9.17563207 L128.703922,9.5162614 L129.434003,9.5162334 C129.617864,9.30154677 129.878271,9.15427463 130.172827,9.11657823 L130.342092,9.10585237 C130.581528,8.65449763 130.956469,8.3639675 131.378368,8.3639675 C131.844022,8.3639675 132.253051,8.72009147 132.484685,9.25631467 L134.494621,9.2565737 C134.8701,9.2565737 135.194991,9.4634245 135.370364,9.76695557 L138.171476,9.7659477 C138.335263,9.45422207 138.644317,9.2302531 139.008615,9.1843307 L139.14764,9.17563207 L142.263892,9.17563207 C142.654375,9.17563207 142.99759,9.37907167 143.193268,9.68538433 L148.316744,9.7207895 C160.483061,9.82864903 181.998544,10.1867047 190.484863,11.3779187 L195.719088,11.3779187 C197.173788,11.3779187 200,12.3750745 200,13.0394703 C200,13.6606223 199.52896,13.4483953 199.16179,13.4173377 L198.959175,13.4047098 L198.309234,13.3285244 C196.494706,13.1015263 192.118294,12.4998595 191.107664,12.4998595 C189.860938,12.4998595 187.575461,13.7049903 187.575461,13.7049903 L187.096236,13.3687891 L186.741415,13.1319736 C185.830567,12.5360945 184.394172,11.6893191 183.586838,11.6893191 L143.13631,10.9459911 C142.962222,11.1759574 142.697728,11.3341772 142.39555,11.370139 L142.263892,11.3779187 L139.14764,11.3779187 C138.722464,11.3779187 138.353329,11.1372734 138.169673,10.7842695 L135.370364,10.7843468 C135.194991,11.0867537 134.8701,11.2936045 134.494621,11.2936045 L132.485188,11.2926992 C132.253643,11.8295712 131.844359,12.1862107 131.378368,12.1862107 C130.95683,12.1862107 130.582169,11.8961774 130.342707,11.4454838 L130.322755,11.4442458 C129.860414,11.4442458 129.460401,11.175311 129.270749,10.7854731 L128.703922,10.7843468 L128.705046,11.3779187 L127.270581,11.3779187 L127.272131,14.2361667 C130.247979,14.4510577 132.826949,14.8862682 135.043225,15.4362416 C138.724696,16.3499326 141.40213,17.5817993 143.224534,18.6504104 L143.545089,18.6473792 L144.577297,18.6585757 C146.705926,18.6976584 150.059673,18.8552088 153.413508,19.4019877 L154.092611,19.5181725 C157.982601,20.214217 161.761601,21.4618513 163.505043,23.683159 L163.512192,23.6832934 C163.905658,23.977831 164.24966,24.3015975 164.522838,24.6624622 L171.354536,33.5469293 L182.167622,35.528781 L182.400662,35.5802093 C183.326797,35.800004 185.333828,36.4549133 185.924027,38.0886537 L186.178082,38.7795997 L186.436642,39.4604797 C187.067253,41.0983547 187.662024,42.4898543 187.662024,42.4898543 L189.017796,42.4898543 L189.017796,41.4915743 L188.435466,41.4915743 L188.435466,40.0076443 L188.540141,39.8775547 C188.146033,39.3302113 187.913842,38.6584223 187.913842,37.9323913 C187.913842,36.0920937 189.405641,34.6002947 191.244815,34.6002947 C193.085112,34.6002947 194.576911,36.0920937 194.576911,37.9323913 C194.576911,38.8096517 194.237918,39.6077203 193.683777,40.2027503 L194.054163,40.8440413 L194.054163,41.4915743 L193.474082,41.4915743 L193.474082,42.4909783 L195.074927,42.4909783 L194.944521,45.8489313 L187.755331,46.64823 L187.755331,51.1854573 C187.755331,51.848729 186.891954,52.3849673 185.828471,52.3849673 L175.152047,52.3849673 C174.087439,52.3849673 173.224062,51.848729 173.224062,51.1854573 L173.224062,48.2625657 L164.65212,49.215878 L154.718784,49.215878 L154.711409,49.3267577 C154.657863,49.754713 154.318767,50.0946257 153.890947,50.1483057 L153.772217,50.1557003 L151.72282,50.1557003 L151.723964,50.8816493 C152.678982,51.1583707 153.390281,52.0078967 153.462614,53.0339053 L153.468686,53.2067497 C153.468686,54.5434107 152.386092,55.6260047 151.049431,55.6260047 C149.771961,55.6260047 148.723859,54.6355027 148.635135,53.3795877 L148.629051,53.2303577 L147.717179,52.7035197 C147.641793,52.7802677 147.543239,52.8342363 147.432871,52.8542107 L147.337358,52.8627477 C147.045069,52.8627477 146.807865,52.6255437 146.807865,52.3321303 C146.807865,52.0398413 147.045069,51.8026373 147.337358,51.8026373 C147.485495,51.8026373 147.61959,51.8631 147.716063,51.960588 L150.373793,50.4266297 L150.373793,50.1557003 L145.083359,50.1557003 C144.600822,50.1557003 144.20258,49.793618 144.144167,49.3267577 L144.136791,49.215878 L111.900667,49.215878 L107.16783,47.706092 L107.168875,48.3547583 C107.802963,48.556929 108.362297,48.926417 108.79492,49.411359 L109.974155,50.0933817 C110.10214,49.946276 110.290726,49.8532933 110.501051,49.8532933 C110.885524,49.8532933 111.198048,50.165818 111.198048,50.5514147 C111.198048,50.9370117 110.885524,51.2495363 110.501051,51.2495363 C110.290218,51.2495363 110.10123,51.156104 109.973229,51.008381 L109.665416,51.1857713 C109.705524,51.403263 109.726485,51.6274753 109.726485,51.8565983 C109.726485,53.8880083 108.080672,55.532697 106.050386,55.532697 C104.020101,55.532697 102.374288,53.8880083 102.374288,51.8565983 C102.374288,51.6274753 102.395248,51.403263 102.435357,51.1857713 L102.128668,51.008381 C102.000667,51.156104 101.811679,51.2495363 101.600845,51.2495363 C101.216373,51.2495363 100.903848,50.9370117 100.903848,50.5514147 C100.903848,50.165818 101.216373,49.8532933 101.600845,49.8532933 C101.811171,49.8532933 101.999756,49.946276 102.127741,50.0933817 L103.30484,49.412494 C103.738111,48.9264237 104.298628,48.5562183 104.934132,48.3540467 L104.934066,46.993356 L103.931673,46.6744757 L103.618575,46.6721603 L94.770272,46.671838 L94.770272,46.6808313 L92.583724,46.6808313 C92.0047667,46.6808313 92.1126887,46.0108147 92.1126887,46.0108147 L92.308163,45.2107963 C92.4437983,44.6924023 92.6395193,44.0096987 92.8613987,43.4375457 C92.8893737,43.365525 92.922007,43.298635 92.958559,43.2365127 L72.8474587,36.967837 L33.9628793,34.3799533 L35.3490047,36.1112047 L30.8196463,41.35892 L24.7434038,39.2589343 L22.2477038,33.5997663 L16.8405311,33.2441074 L16.6791403,33.2372044 C15.998853,33.1838173 13.7082349,32.7368678 12.0085888,29.2154284 L10.2218835,25.4735782 L8.06942993,20.9076703 L2.46534687,26.5117534 L0,24.0452823 L6.48881993,17.554214 L5.4748013,15.4013917 C5.4748013,15.4013917 5.20274753,14.8404213 4.93856307,14.8471665 L4.870327,14.8458613 L4.870327,14.8458613 L4.80115817,14.8390523 C4.60580307,14.8415455 3.79975943,14.5953481 3.79975943,14.2906928 C3.79975943,13.9952948 4.5520008,13.7555017 4.77943343,13.73956 L5.71111823,13.2518408 C6.68740947,12.7532039 8.26644167,12.0095106 10.0316602,11.5313514 L0.966802693,2.46534687 L3.43214957,0 Z" id="path-1"></path>
    </defs>
    <g id="Silhouettes/Wildcat" stroke="none" stroke-width="1" fill="none" fill-rule="evenodd">
        <mask id="mask-2" fill="white">
            <use xlink:href="#path-1"></use>
        </mask>
        <use fill="#3E5667" fill-rule="nonzero" xlink:href="#path-1"></use>
    </g>
</svg>