<svg width="850" height="325" xmlns="http://www.w3.org/2000/svg" xmlns:xlink="http://www.w3.org/1999/xlink">
  <defs>
    <rect id="a" x="95" y="45" width="1" height="218" rx=".5"/>
    <rect id="b" x="197" y="45" width="1" height="218" rx=".5"/>
    <rect id="c" x="590" y="45" width="1" height="218" rx=".5"/>
    <rect id="d" x="752" y="45" width="1" height="218" rx=".5"/>
    <rect id="e" x="302" y="45" width="1" height="218" rx=".5"/>
    <rect id="f" x="406" y="45" width="1" height="218" rx=".5"/>
    <rect id="g" x="509" y="45" width="1" height="218" rx=".5"/>
    <mask id="h" maskContentUnits="userSpaceOnUse" maskUnits="objectBoundingBox" x="0" y="0" width="1" height="218"
          fill="#fff">
      <use xlink:href="#a"/>
    </mask>
    <mask id="i" maskContentUnits="userSpaceOnUse" maskUnits="objectBoundingBox" x="0" y="0" width="1" height="218"
          fill="#fff">
      <use xlink:href="#b"/>
    </mask>
    <mask id="j" maskContentUnits="userSpaceOnUse" maskUnits="objectBoundingBox" x="0" y="0" width="1" height="218"
          fill="#fff">
      <use xlink:href="#c"/>
    </mask>
    <mask id="k" maskContentUnits="userSpaceOnUse" maskUnits="objectBoundingBox" x="0" y="0" width="1" height="218"
          fill="#fff">
      <use xlink:href="#d"/>
    </mask>
    <mask id="l" maskContentUnits="userSpaceOnUse" maskUnits="objectBoundingBox" x="0" y="0" width="1" height="218"
          fill="#fff">
      <use xlink:href="#e"/>
    </mask>
    <mask id="m" maskContentUnits="userSpaceOnUse" maskUnits="objectBoundingBox" x="0" y="0" width="1" height="218"
          fill="#fff">
      <use xlink:href="#f"/>
    </mask>
    <mask id="n" maskContentUnits="userSpaceOnUse" maskUnits="objectBoundingBox" x="0" y="0" width="1" height="218"
          fill="#fff">
      <use xlink:href="#g"/>
    </mask>
  </defs>
  <g fill="none" fill-rule="evenodd">
    <path fill="#EDF2F7" d="M0 0h850v290H0z"/>
    <path fill="#EC4138" d="M0 0h850v10H0z"/>
    <text font-family="-apple-system, BlinkMacSystemFont-Bold, -apple-system, BlinkMacSystemFont" font-size="16" font-weight="bold" fill="#233645">
      <tspan x="40" y="317">Don’t</tspan>
      <tspan x="85" y="317" font-family="-apple-system, BlinkMacSystemFont-Regular, -apple-system, BlinkMacSystemFont" font-weight="normal">use more than four different
        widths for form components.
      </tspan>
    </text>
    <path
      d="m23.4916667 308-2.1583334 2.158333L19.175 308 18 309.175l2.1583333 2.158333L18 313.491667l1.175 1.175 2.1583333-2.158334 2.1583334 2.158334 1.175-1.175-2.1583334-2.158334 2.1583334-2.158333-1.175-1.175Zm-2.1583334-5C16.725 303 13 306.725 13 311.333333c0 4.608334 3.725 8.333334 8.3333333 8.333334 4.6083334 0 8.3333334-3.725 8.3333334-8.333334 0-4.608333-3.725-8.333333-8.3333334-8.333333Zm0 15c-3.675 0-6.6666666-2.991667-6.6666666-6.666667 0-3.675 2.9916666-6.666666 6.6666666-6.666666 3.675 0 6.6666667 2.991666 6.6666667 6.666666C28 315.008333 25.0083333 318 21.3333333 318Z"
      fill="#EC4138" fill-rule="nonzero"/>
    <rect stroke="#B8C7D2" fill="#FFF" x="99.5" y="99.5" width="167" height="29" rx="8"/>
    <rect stroke="#B8C7D2" fill="#FFF" x="99.5" y="59.5" width="197" height="29" rx="8"/>
    <rect stroke="#B8C7D2" fill="#FFF" x="287.5" y="99.5" width="197" height="29" rx="8"/>
    <rect stroke="#B8C7D2" fill="#FFF" x="307.5" y="59.5" width="197" height="29" rx="8"/>
    <rect stroke="#B8C7D2" fill="#FFF" x="99.5" y="139.5" width="271" height="29" rx="8"/>
    <rect stroke="#B8C7D2" fill="#FFF" x="99.5" y="179.5" width="173" height="29" rx="8"/>
    <rect stroke="#B8C7D2" fill="#FFF" x="317.5" y="179.5" width="143" height="29" rx="8"/>
    <rect stroke="#B8C7D2" fill="#FFF" x="99.5" y="219.5" width="173" height="29" rx="8"/>
    <rect stroke="#B8C7D2" fill="#FFF" x="317.5" y="219.5" width="143" height="29" rx="8"/>
    <rect stroke="#B8C7D2" fill="#FFF" x="381.5" y="139.5" width="123" height="29" rx="8"/>
    <use stroke="#3F5567" mask="url(#h)" stroke-width="4" fill="#FFF" stroke-dasharray="4,4" xlink:href="#a"/>
    <use stroke="#3F5567" mask="url(#i)" stroke-width="4" fill="#FFF" stroke-dasharray="4,4" xlink:href="#b"/>
    <rect stroke="#B8C7D2" fill="#FFF" x="624.5" y="99.5" width="113" height="29" rx="8"/>
    <rect stroke="#B8C7D2" fill="#FFF" x="624.5" y="59.5" width="93" height="29" rx="8"/>
    <rect stroke="#B8C7D2" fill="#FFF" x="594.5" y="139.5" width="153" height="29" rx="8"/>
    <rect stroke="#B8C7D2" fill="#FFF" x="594.5" y="179.5" width="63" height="29" rx="8"/>
    <rect stroke="#B8C7D2" fill="#FFF" x="614.5" y="219.5" width="33" height="29" rx="8"/>
    <use stroke="#3F5567" mask="url(#j)" stroke-width="4" fill="#FFF" stroke-dasharray="4,4" xlink:href="#c"/>
    <use stroke="#3F5567" mask="url(#k)" stroke-width="4" fill="#FFF" stroke-dasharray="4,4" xlink:href="#d"/>
    <use stroke="#3F5567" mask="url(#l)" stroke-width="4" fill="#FFF" stroke-dasharray="4,4" xlink:href="#e"/>
    <use stroke="#3F5567" mask="url(#m)" stroke-width="4" fill="#FFF" stroke-dasharray="4,4" xlink:href="#f"/>
    <use stroke="#3F5567" mask="url(#n)" stroke-width="4" fill="#FFF" stroke-dasharray="4,4" xlink:href="#g"/>
  </g>
</svg>
