<svg width="850" height="922" xmlns="http://www.w3.org/2000/svg" xmlns:xlink="http://www.w3.org/1999/xlink">
  <defs>
    <filter x="-3.4%" y="-8.7%" width="106.8%" height="121.7%" filterUnits="objectBoundingBox" id="a">
      <feOffset dy="1" in="SourceAlpha" result="shadowOffsetOuter1"/>
      <feGaussianBlur stdDeviation="1.5" in="shadowOffsetOuter1" result="shadowBlurOuter1"/>
      <feColorMatrix values="0 0 0 0 0 0 0 0 0 0 0 0 0 0 0 0 0 0 0.239443906 0" in="shadowBlurOuter1"/>
    </filter>
    <rect id="b" x="0" y="0" width="146" height="46" rx="15"/>
  </defs>
  <g fill="none" fill-rule="evenodd">
    <path fill="#EDF2F7" d="M0 0h850v922H0z"/>
    <path fill="#FFF" d="M40 30h770v862H40z"/>
    <g transform="translate(105 62)" fill="#B22920">
      <text font-family="Lato-Bold,-apple-system, BlinkMacSystemFont" font-size="16" font-weight="bold">
        <tspan x="40" y="25">There is 1 error in this form</tspan>
      </text>
      <text font-family="-apple-system, BlinkMacSystemFont" font-size="16" letter-spacing="-.1"
            text-decoration="underline">
        <tspan x="58" y="49">Line manager can’t be blank</tspan>
      </text>
      <rect width="4" height="62" rx="2"/>
      <path
        d="M22 26c-4.416 0-8-3.584-8-8s3.584-8 8-8 8 3.584 8 8-3.584 8-8 8Zm.8-12h-1.6v4.8h1.6V14Zm0 6.4h-1.6V22h1.6v-1.6Z"
        fill-rule="nonzero"/>
      <circle cx="45.5" cy="43.5" r="2.5"/>
    </g>
    <g transform="translate(105 229)">
      <rect stroke="#ABC1CB" fill="#FFF" x=".5" y=".5" width="312" height="45" rx="15"/>
      <text font-family="Lato-Medium,-apple-system, BlinkMacSystemFont" font-size="13" font-weight="400" fill="#2F424F">
        <tspan x="13" y="18">First name</tspan>
      </text>
      <text font-family="Lato-Semibold,-apple-system, BlinkMacSystemFont" font-size="16" font-weight="500" fill="#162930">
        <tspan x="13" y="37">Horatio</tspan>
      </text>
    </g>
    <g transform="translate(106 736)">
      <rect stroke="#ABC1CB" fill="#FFF" x=".5" y=".5" width="312" height="45" rx="15"/>
      <text font-family="Lato-Medium,-apple-system, BlinkMacSystemFont" font-size="13" font-weight="400" fill="#2F424F">
        <tspan x="13" y="18">Unit</tspan>
      </text>
      <text font-family="Lato-Semibold,-apple-system, BlinkMacSystemFont" font-size="16" font-weight="500" fill="#162930">
        <tspan x="13" y="37">Whale Island</tspan>
      </text>
    </g>
    <g transform="translate(430 229)">
      <rect stroke="#ABC1CB" fill="#FFF" x=".5" y=".5" width="312" height="45" rx="15"/>
      <text font-family="Lato-Medium,-apple-system, BlinkMacSystemFont" font-size="13" font-weight="400" fill="#2F424F">
        <tspan x="13" y="18">Last name</tspan>
      </text>
      <text font-family="Lato-Semibold,-apple-system, BlinkMacSystemFont" font-size="16" font-weight="500" fill="#162930">
        <tspan x="13" y="37">Nelson</tspan>
      </text>
    </g>
    <g transform="translate(431 716)">
      <rect stroke="#B22920" stroke-width="3" fill="#FFF" y="19" width="313" height="46" rx="15"/>
      <text font-family="Lato-Medium,-apple-system, BlinkMacSystemFont" font-size="13" font-weight="400" fill="#2F424F">
        <tspan x="13" y="38">Line manager</tspan>
      </text>
      <text font-family="Lato-Medium,-apple-system, BlinkMacSystemFont" font-size="11" font-weight="400" fill="#B22920">
        <tspan x="13" y="11">Line manager can’t be blank</tspan>
      </text>
      <text font-family="Lato-Semibold,-apple-system, BlinkMacSystemFont" font-size="16" font-weight="500" fill="#162930">
        <tspan x="13" y="57">Nelson</tspan>
      </text>
    </g>
    <g transform="translate(105 287)">
      <rect stroke="#ABC1CB" fill="#FFF" x=".5" y=".5" width="312" height="45" rx="15"/>
      <text font-family="Lato-Medium,-apple-system, BlinkMacSystemFont" font-size="13" font-weight="400" fill="#2F424F">
        <tspan x="13" y="18">Email address</tspan>
      </text>
      <text font-family="Lato-Semibold,-apple-system, BlinkMacSystemFont" font-size="16" font-weight="500" fill="#162930">
        <tspan x="13" y="37">Horatio.Nelson@royalnavy.io</tspan>
      </text>
    </g>
    <g transform="translate(106 489)">
      <rect stroke="#ABC1CB" fill="#FFF" x=".5" y=".5" width="301" height="45" rx="15"/>
      <text font-family="Lato-Medium,-apple-system, BlinkMacSystemFont" font-size="13" font-weight="400" fill="#2F424F">
        <tspan x="13" y="18">Address line 1</tspan>
      </text>
      <text font-family="Lato-Semibold,-apple-system, BlinkMacSystemFont" font-size="16" font-weight="500" fill="#162930">
        <tspan x="13" y="37">147 New Bond Street</tspan>
      </text>
    </g>
    <path fill="#E2E9EE" d="M106 423h637v1H106zM106 683h637v1H106zM106 196h637v1H106z"/>
    <g transform="translate(441 489)">
      <rect stroke="#ABC1CB" fill="#FFF" x=".5" y=".5" width="301" height="45" rx="15"/>
      <text font-family="Lato-Medium,-apple-system, BlinkMacSystemFont" font-size="13" font-weight="400" fill="#2F424F">
        <tspan x="13" y="18">Address line 1</tspan>
      </text>
      <text font-family="Lato-Semibold,-apple-system, BlinkMacSystemFont" font-size="16" font-weight="500" fill="#162930">
        <tspan x="13" y="37">Trafalgar Square</tspan>
      </text>
    </g>
    <g transform="translate(106 547)">
      <rect stroke="#ABC1CB" fill="#FFF" x=".5" y=".5" width="301" height="45" rx="15"/>
      <text font-family="Lato-Medium,-apple-system, BlinkMacSystemFont" font-size="13" font-weight="400" fill="#2F424F">
        <tspan x="13" y="18">Address line 2</tspan>
      </text>
      <text font-family="Lato-Semibold,-apple-system, BlinkMacSystemFont" font-size="16" font-weight="500" fill="#162930">
        <tspan x="13" y="37">Mayfair</tspan>
      </text>
    </g>
    <g transform="translate(441 547)">
      <rect stroke="#ABC1CB" fill="#FFF" x=".5" y=".5" width="301" height="45" rx="15"/>
      <text font-family="Lato-Medium,-apple-system, BlinkMacSystemFont" font-size="13" font-weight="400" fill="#2F424F">
        <tspan x="13" y="18">Address line 2</tspan>
      </text>
      <text font-family="Lato-Semibold,-apple-system, BlinkMacSystemFont" font-size="16" font-weight="500" fill="#162930">
        <tspan x="13" y="37">Charing Cross</tspan>
      </text>
    </g>
    <g transform="translate(441 605)">
      <rect stroke="#ABC1CB" fill="#FFF" x=".5" y=".5" width="144" height="45" rx="15"/>
      <text font-family="Lato-Medium,-apple-system, BlinkMacSystemFont" font-size="13" font-weight="400" fill="#2F424F">
        <tspan x="13" y="18">City</tspan>
      </text>
      <text font-family="Lato-Semibold,-apple-system, BlinkMacSystemFont" font-size="16" font-weight="500" fill="#162930">
        <tspan x="13" y="37">London</tspan>
      </text>
    </g>
    <g transform="translate(106 605)">
      <rect stroke="#ABC1CB" fill="#FFF" x=".5" y=".5" width="145" height="45" rx="15"/>
      <text font-family="Lato-Medium,-apple-system, BlinkMacSystemFont" font-size="13" font-weight="400" fill="#2F424F">
        <tspan x="13" y="18">City</tspan>
      </text>
      <text font-family="Lato-Semibold,-apple-system, BlinkMacSystemFont" font-size="16" font-weight="500" fill="#162930">
        <tspan x="13" y="37">London</tspan>
      </text>
    </g>
    <g transform="translate(597 605)">
      <rect stroke="#ABC1CB" fill="#FFF" x=".5" y=".5" width="145" height="45" rx="15"/>
      <text font-family="Lato-Medium,-apple-system, BlinkMacSystemFont" font-size="13" font-weight="400" fill="#2F424F">
        <tspan x="13" y="18">Postcode</tspan>
      </text>
      <text font-family="Lato-Semibold,-apple-system, BlinkMacSystemFont" font-size="16" font-weight="500" fill="#162930">
        <tspan x="13" y="37">WC2N 5DN</tspan>
      </text>
    </g>
    <g transform="translate(262 605)">
      <rect stroke="#ABC1CB" fill="#FFF" x=".5" y=".5" width="144" height="45" rx="15"/>
      <text font-family="Lato-Medium,-apple-system, BlinkMacSystemFont" font-size="13" font-weight="400" fill="#2F424F">
        <tspan x="13" y="18">Postcode</tspan>
      </text>
      <text font-family="Lato-Semibold,-apple-system, BlinkMacSystemFont" font-size="16" font-weight="500" fill="#162930">
        <tspan x="13" y="37">W15 2TS</tspan>
      </text>
    </g>
    <g transform="translate(430 287)">
      <rect stroke="#ABC1CB" fill="#FFF" x=".5" y=".5" width="282" height="45" rx="15"/>
      <text font-family="Lato-Medium,-apple-system, BlinkMacSystemFont" font-size="16" font-weight="400" fill="#2F424F">
        <tspan x="13" y="28">ID number</tspan>
      </text>
      <text font-family="Lato-Medium,-apple-system, BlinkMacSystemFont" font-size="12" font-weight="400" fill="#2F424F">
        <tspan x="14" y="61">As shown on your security pass</tspan>
      </text>
    </g>
    <text font-family="Lato-Bold,-apple-system, BlinkMacSystemFont" font-size="16" font-weight="bold" fill="#12202B">
      <tspan x="105" y="472">Home address</tspan>
    </text>
    <text font-family="Lato-Bold,-apple-system, BlinkMacSystemFont" font-size="18" font-weight="bold" fill="#12202B">
      <tspan x="105" y="409">Address details</tspan>
    </text>
    <text font-family="Lato-Bold,-apple-system, BlinkMacSystemFont" font-size="18" font-weight="bold" fill="#12202B">
      <tspan x="105" y="182">Personal details</tspan>
    </text>
    <text font-family="Lato-Bold,-apple-system, BlinkMacSystemFont" font-size="16" font-weight="bold" fill="#12202B">
      <tspan x="441" y="472">Work address</tspan>
    </text>
    <path fill="#E2E9EE" d="M424 456h1v195h-1z"/>
    <path d="M725 298h20v20h-20z"/>
    <path
      d="M734.167 313h1.666v-1.667h-1.666V313Zm.833-13.333a8.336 8.336 0 0 0-8.333 8.333c0 4.6 3.733 8.333 8.333 8.333s8.333-3.733 8.333-8.333-3.733-8.333-8.333-8.333Zm0 15a6.676 6.676 0 0 1-6.667-6.667 6.676 6.676 0 0 1 6.667-6.667 6.676 6.676 0 0 1 6.667 6.667 6.676 6.676 0 0 1-6.667 6.667ZM735 303a3.332 3.332 0 0 0-3.333 3.333h1.666c0-.916.75-1.666 1.667-1.666s1.667.75 1.667 1.666c0 1.667-2.5 1.459-2.5 4.167h1.666c0-1.875 2.5-2.083 2.5-4.167A3.332 3.332 0 0 0 735 303Z"
      fill="#2661A7" fill-rule="nonzero"/>
    <g>
      <g transform="translate(105 814)">
        <use fill="#000" filter="url(#a)" xlink:href="#b"/>
        <use fill="#2976C7" xlink:href="#b"/>
      </g>
      <text font-family="Lato-Semibold,-apple-system, BlinkMacSystemFont" font-size="16" font-weight="500" fill="#FFF"
            transform="translate(105 814)">
        <tspan x="31" y="29">Save details</tspan>
      </text>
    </g>
  </g>
</svg>
