<svg xmlns="http://www.w3.org/2000/svg" xmlns:xlink="http://www.w3.org/1999/xlink" viewBox="0 0 727 319">
  <defs>
    <filter x="-.8%" y="-2%" width="101.6%" height="105%" filterUnits="objectBoundingBox" id="a">
      <feOffset dy="1" in="SourceAlpha" result="shadowOffsetOuter1"/>
      <feGaussianBlur stdDeviation="1.5" in="shadowOffsetOuter1" result="shadowBlurOuter1"/>
      <feColorMatrix values="0 0 0 0 0 0 0 0 0 0 0 0 0 0 0 0 0 0 0.0375600962 0" in="shadowBlurOuter1"/>
    </filter>
    <rect id="b" x="0" y="0" width="619" height="201" rx="4"/>
    <path d="M32.019 14c.7466667 0 1.4256667-.1213333 2.037-.364.6113333-.2426667 1.1363333-.5845 1.575-1.0255.4386667-.441.7781667-.9695 1.0185-1.5855.2403333-.616.3605-1.29966667.3605-2.051 0-.74666667-.1201667-1.42916667-.3605-2.0475-.2403333-.61833333-.5798333-1.148-1.0185-1.589-.4386667-.441-.9636667-.78283333-1.575-1.0255-.6113333-.24266667-1.2903333-.364-2.037-.364h-3.78V14h3.78zm0-1.204h-2.282V5.152h2.282c.5273333 0 1.0045.08633333 1.4315.259.427.17266667.791.4235 1.092.7525.301.329.5331667.73033333.6965 1.204.1633333.47366667.245 1.00916667.245 1.6065 0 .602-.0816667 1.1386667-.245 1.61-.1633333.4713333-.3955.8715-.6965 1.2005-.301.329-.665.5798333-1.092.7525-.427.1726667-.9041667.259-1.4315.259zm9.52 1.302c.5226667 0 .9951667-.0851667 1.4175-.2555.4223333-.1703333.7816667-.4141667 1.078-.7315.2963333-.3173333.5238333-.7023333.6825-1.155.1586667-.4526667.238-.959.238-1.519 0-.56-.0793333-1.06516667-.238-1.5155-.1586667-.45033333-.3861667-.83533333-.6825-1.155-.2963333-.31966667-.6556667-.56466667-1.078-.735-.4223333-.17033333-.8948333-.2555-1.4175-.2555-.5273333 0-1.0021667.08516667-1.4245.2555s-.7828333.41533333-1.0815.735c-.2986667.31966667-.5285.70466667-.6895 1.155-.161.45033333-.2415.9555-.2415 1.5155s.0805 1.0663333.2415 1.519c.161.4526667.3908333.8376667.6895 1.155.2986667.3173333.6591667.5611667 1.0815.7315.4223333.1703333.8971667.2555 1.4245.2555zm0-1.064c-.6813333 0-1.1888333-.2263333-1.5225-.679-.3336667-.4526667-.5005-1.0896667-.5005-1.911 0-.82133333.1668333-1.4595.5005-1.9145.3336667-.455.8411667-.6825 1.5225-.6825.672 0 1.1736667.2275 1.505.6825.3313333.455.497 1.09316667.497 1.9145 0 .8213333-.1656667 1.4583333-.497 1.911s-.833.679-1.505.679zm6.3.966V8.785c.2613333-.28466667.5448333-.50983333.8505-.6755.3056667-.16566667.6335-.2485.9835-.2485.4806667 0 .8376667.14116667 1.071.4235.2333333.28233333.35.67783333.35 1.1865V14h1.372V9.471c0-.40133333-.0513333-.76766667-.154-1.099s-.2543333-.61483333-.455-.8505c-.2006667-.23566667-.4491667-.41883333-.7455-.5495-.2963333-.13066667-.6405-.196-1.0325-.196-.2473333 0-.4795.02683333-.6965.0805-.217.05366667-.42.12833333-.609.224-.189.09566667-.3675.21116667-.5355.3465-.168.13533333-.329.28466667-.483.448l-.105-.714c-.0466667-.182-.1656667-.273-.357-.273h-.819V14h1.365zm6.79-6.426c.1586667 0 .2718333-.04433333.3395-.133.0676667-.08866667.1131667-.21466667.1365-.378l.126-1.092V3.948h-1.19v2.023l.126 1.092c.028.16333333.0781667.28933333.1505.378.0723333.08866667.1761667.133.3115.133zm4.634 6.538c.3313333 0 .651-.056.959-.168.308-.112.574-.2706667.798-.476l-.406-.658c-.028-.0466667-.0548333-.0805-.0805-.1015-.0256667-.021-.0618333-.0315-.1085-.0315-.0373333 0-.0793333.0163333-.126.049-.0466667.0326667-.1026667.0688333-.168.1085-.0653333.0396667-.1435.0758333-.2345.1085-.091.0326667-.1995.049-.3255.049-.2146667 0-.3908333-.0688333-.5285-.2065-.1376667-.1376667-.2065-.3465-.2065-.6265V7.994h2.016V7h-2.016V4.613h-.693c-.084 0-.1528333.02216667-.2065.0665-.0536667.04433333-.0898333.10616667-.1085.1855l-.308 2.121-1.155.161V7.7c0 .098.0268333.1715.0805.2205.0536667.049.1201667.0735.1995.0735h.826v4.256c0 .5973333.1551667 1.057.4655 1.379.3103333.322.7525.483 1.3265.483zm8.253 0c.4386667 0 .8283333-.0583333 1.169-.175.3406667-.1166667.6265-.2776667.8575-.483.231-.2053333.406-.4491667.525-.7315.119-.2823333.1785-.5891667.1785-.9205 0-.2893333-.0525-.5343333-.1575-.735-.105-.2006667-.2426667-.3721667-.413-.5145-.1703333-.1423333-.364-.2613333-.581-.357-.217-.0956667-.4386667-.1808333-.665-.2555-.2263333-.07466667-.448-.14583333-.665-.2135-.217-.06766667-.4106667-.1435-.581-.2275-.1703333-.084-.308-.18433333-.413-.301-.105-.11666667-.1575-.26366667-.1575-.441 0-.13533333.0303333-.2625.091-.3815s.147-.22166667.259-.308c.112-.08633333.2485-.154.4095-.203.161-.049.3395-.0735.5355-.0735.238 0 .4433333.02566667.616.077.1726667.05133333.3231667.10733333.4515.168.1283333.06066667.238.11666667.329.168.091.05133333.1738333.077.2485.077.0653333 0 .119-.01283333.161-.0385.042-.02566667.0816667-.06883333.119-.1295l.301-.497c-.2706667-.26133333-.5961667-.46666667-.9765-.616s-.8061667-.224-1.2775-.224c-.4106667 0-.7758333.05716667-1.0955.1715-.3196667.11433333-.588.26716667-.805.4585-.217.19133333-.3826667.413-.497.665-.1143333.252-.1715.51566667-.1715.791 0 .308.0525.56933333.1575.784.105.21466667.2426667.3966667.413.546.1703333.1493333.3651667.273.5845.371.2193333.098.4433333.1843333.672.259.2286667.0746667.4526667.1446667.672.21.2193333.0653333.4141667.1423333.5845.231.1703333.0886667.308.1948333.413.3185.105.1236667.1575.2788333.1575.4655 0 .1446667-.028.2823333-.084.413-.056.1306667-.1411667.2461667-.2555.3465-.1143333.1003333-.2578333.1796667-.4305.238-.1726667.0583333-.3756667.0875-.609.0875-.28 0-.5133333-.0315-.7-.0945-.1866667-.063-.3453333-.133-.476-.21-.1306667-.077-.2426667-.1481667-.336-.2135-.0933333-.0653333-.1843333-.098-.273-.098-.0933333 0-.168.0175-.224.0525-.056.035-.1026667.0851667-.14.1505l-.322.525c.28.252.6276667.4596667 1.043.623.4153333.1633333.868.245 1.358.245zM73.088 14V8.785c.2613333-.28466667.5448333-.50983333.8505-.6755.3056667-.16566667.6335-.2485.9835-.2485.4806667 0 .8376667.14116667 1.071.4235.2333333.28233333.35.67783333.35 1.1865V14h1.372V9.471c0-.40133333-.0513333-.76766667-.154-1.099s-.2543333-.61483333-.455-.8505c-.2006667-.23566667-.4491667-.41883333-.7455-.5495-.2963333-.13066667-.6405-.196-1.0325-.196-.4713333 0-.8878333.09333333-1.2495.28-.3616667.18666667-.6918333.43166667-.9905.735V3.668h-1.365V14h1.365zm9.499.098c.5226667 0 .9951667-.0851667 1.4175-.2555.4223333-.1703333.7816667-.4141667 1.078-.7315.2963333-.3173333.5238333-.7023333.6825-1.155.1586667-.4526667.238-.959.238-1.519 0-.56-.0793333-1.06516667-.238-1.5155-.1586667-.45033333-.3861667-.83533333-.6825-1.155-.2963333-.31966667-.6556667-.56466667-1.078-.735-.4223333-.17033333-.8948333-.2555-1.4175-.2555-.5273333 0-1.0021667.08516667-1.4245.2555s-.7828333.41533333-1.0815.735c-.2986667.31966667-.5285.70466667-.6895 1.155-.161.45033333-.2415.9555-.2415 1.5155s.0805 1.0663333.2415 1.519c.161.4526667.3908333.8376667.6895 1.155.2986667.3173333.6591667.5611667 1.0815.7315.4223333.1703333.8971667.2555 1.4245.2555zm0-1.064c-.6813333 0-1.1888333-.2263333-1.5225-.679-.3336667-.4526667-.5005-1.0896667-.5005-1.911 0-.82133333.1668333-1.4595.5005-1.9145.3336667-.455.8411667-.6825 1.5225-.6825.672 0 1.1736667.2275 1.505.6825.3313333.455.497 1.09316667.497 1.9145 0 .8213333-.1656667 1.4583333-.497 1.911s-.833.679-1.505.679zm7.406.966c.154 0 .2543333-.0863333.301-.259l1.519-4.62c.0746667-.22866667.133-.46433333.175-.707.0233333.11666667.049.23216667.077.3465.028.11433333.0606667.22983333.098.3465l1.498 4.634c.0466667.1726667.1353333.259.266.259h1.092l2.289-7.112h-1.029c-.0933333 0-.1761667.02566667-.2485.077-.0723333.05133333-.1201667.11666667-.1435.196l-1.302 4.368c-.0466667.182-.0886667.3581667-.126.5285-.0373333.1703333-.07.3395-.098.5075-.0373333-.1726667-.0793333-.3441667-.126-.5145-.0466667-.1703333-.0956667-.3441667-.147-.5215l-1.386-4.396c-.0233333-.07933333-.0688333-.1435-.1365-.1925-.0676667-.049-.1528333-.0735-.2555-.0735h-.595c-.0933333 0-.1726667.0245-.238.0735-.0653333.049-.1096667.11316667-.133.1925l-1.421 4.396c-.0513333.1773333-.1015.35-.1505.518-.049.168-.0945.336-.1365.504-.028-.168-.0583333-.336-.091-.504-.0326667-.168-.07-.3406667-.112-.518l-1.281-4.368c-.0233333-.07933333-.0711667-.14466667-.1435-.196-.0723333-.05133333-.1621667-.077-.2695-.077h-1.078L88.957 14h1.036zm13.951.112c.331333 0 .651-.056.959-.168.308-.112.574-.2706667.798-.476l-.406-.658c-.028-.0466667-.054833-.0805-.0805-.1015-.025667-.021-.061833-.0315-.1085-.0315-.037333 0-.079333.0163333-.126.049-.046667.0326667-.102667.0688333-.168.1085-.065333.0396667-.1435.0758333-.2345.1085-.091.0326667-.1995.049-.3255.049-.214667 0-.390833-.0688333-.5285-.2065-.137667-.1376667-.2065-.3465-.2065-.6265V7.994h2.016V7h-2.016V4.613h-.693c-.084 0-.152833.02216667-.2065.0665-.053667.04433333-.089833.10616667-.1085.1855l-.308 2.121-1.155.161V7.7c0 .098.026833.1715.0805.2205.053667.049.120167.0735.1995.0735h.826v4.256c0 .5973333.155167 1.057.4655 1.379.310333.322.7525.483 1.3265.483zm4.207-.112V8.785c.261333-.28466667.544833-.50983333.8505-.6755.305667-.16566667.6335-.2485.9835-.2485.480667 0 .837667.14116667 1.071.4235.233333.28233333.35.67783333.35 1.1865V14h1.372V9.471c0-.40133333-.051333-.76766667-.154-1.099-.102667-.33133333-.254333-.61483333-.455-.8505-.200667-.23566667-.449167-.41883333-.7455-.5495-.296333-.13066667-.6405-.196-1.0325-.196-.471333 0-.887833.09333333-1.2495.28-.361667.18666667-.691833.43166667-.9905.735V3.668h-1.365V14h1.365zm7.203-8.372c.126 0 .247333-.0245.364-.0735.116667-.049.218167-.11666667.3045-.203.086333-.08633333.155167-.18666667.2065-.301.051333-.11433333.077-.2345.077-.3605 0-.13066667-.025667-.25316667-.077-.3675-.051333-.11433333-.120167-.21466667-.2065-.301-.086333-.08633333-.187833-.154-.3045-.203-.116667-.049-.238-.0735-.364-.0735s-.245.0245-.357.0735c-.112.049-.211167.11666667-.2975.203-.086333.08633333-.154.18666667-.203.301-.049.11433333-.0735.23683333-.0735.3675 0 .126.0245.24616667.0735.3605.049.11433333.116667.21466667.203.301.086333.08633333.1855.154.2975.203.112.049.231.0735.357.0735zm.693 8.372V6.888h-1.365V14h1.365zm3.857.112c.438667 0 .828333-.0583333 1.169-.175.340667-.1166667.6265-.2776667.8575-.483.231-.2053333.406-.4491667.525-.7315.119-.2823333.1785-.5891667.1785-.9205 0-.2893333-.0525-.5343333-.1575-.735-.105-.2006667-.242667-.3721667-.413-.5145-.170333-.1423333-.364-.2613333-.581-.357-.217-.0956667-.438667-.1808333-.665-.2555-.226333-.07466667-.448-.14583333-.665-.2135-.217-.06766667-.410667-.1435-.581-.2275-.170333-.084-.308-.18433333-.413-.301-.105-.11666667-.1575-.26366667-.1575-.441 0-.13533333.030333-.2625.091-.3815s.147-.22166667.259-.308c.112-.08633333.2485-.154.4095-.203.161-.049.3395-.0735.5355-.0735.238 0 .443333.02566667.616.077.172667.05133333.323167.10733333.4515.168.128333.06066667.238.11666667.329.168.091.05133333.173833.077.2485.077.065333 0 .119-.01283333.161-.0385.042-.02566667.081667-.06883333.119-.1295l.301-.497c-.270667-.26133333-.596167-.46666667-.9765-.616-.380333-.14933333-.806167-.224-1.2775-.224-.410667 0-.775833.05716667-1.0955.1715-.319667.11433333-.588.26716667-.805.4585-.217.19133333-.382667.413-.497.665-.114333.252-.1715.51566667-.1715.791 0 .308.0525.56933333.1575.784.105.21466667.242667.3966667.413.546.170333.1493333.365167.273.5845.371.219333.098.443333.1843333.672.259.228667.0746667.452667.1446667.672.21.219333.0653333.414167.1423333.5845.231.170333.0886667.308.1948333.413.3185.105.1236667.1575.2788333.1575.4655 0 .1446667-.028.2823333-.084.413-.056.1306667-.141167.2461667-.2555.3465-.114333.1003333-.257833.1796667-.4305.238-.172667.0583333-.375667.0875-.609.0875-.28 0-.513333-.0315-.7-.0945-.186667-.063-.345333-.133-.476-.21-.130667-.077-.242667-.1481667-.336-.2135-.093333-.0653333-.184333-.098-.273-.098-.093333 0-.168.0175-.224.0525-.056.035-.102667.0851667-.14.1505l-.322.525c.28.252.627667.4596667 1.043.623.415333.1633333.868.245 1.358.245zm9.226 0c.266 0 .508667-.0233333.728-.07.219333-.0466667.425833-.1155.6195-.2065.193667-.091.379167-.2006667.5565-.329.177333-.1283333.357-.2765.539-.4445l.147.623c.042.1213333.098.2041667.168.2485.07.0443333.172667.0665.308.0665h.609V9.464c0-.40133333-.054833-.76766667-.1645-1.099-.109667-.33133333-.271833-.616-.4865-.854s-.478333-.4235-.791-.5565c-.312667-.133-.672-.1995-1.078-.1995-.555333 0-1.065167.09333333-1.5295.28-.464333.18666667-.894833.469-1.2915.847l.245.441c.042.07.096833.13066667.1645.182.067667.05133333.148167.077.2415.077.116667 0 .229833-.03733333.3395-.112.109667-.07466667.238-.1575.385-.2485.147-.091.322-.17383333.525-.2485.203-.07466667.453833-.112.7525-.112.443333 0 .779333.133 1.008.399.228667.266.343.66733333.343 1.204v.518c-.807333.0186667-1.4875.0933333-2.0405.224-.553.1306667-1.001.2986667-1.344.504-.343.2053333-.590333.4375-.742.6965s-.2275.5285-.2275.8085c0 .3173333.0525.595.1575.833.105.238.2485.4363333.4305.595s.3955.2765.6405.3535c.245.077.5075.1155.7875.1155zm.413-.959c-.158667 0-.305667-.0186667-.441-.056-.135333-.0373333-.253167-.0968333-.3535-.1785s-.179667-.1866667-.238-.315c-.058333-.1283333-.0875-.2811667-.0875-.4585 0-.1866667.053667-.3558333.161-.5075.107333-.1516667.282333-.2835.525-.3955.242667-.112.557667-.2018333.945-.2695.387333-.0676667.858667-.1108333 1.414-.1295v1.4c-.135333.1446667-.273.273-.413.385-.14.112-.287.2065-.441.2835-.154.077-.3185.1365-.4935.1785-.175.042-.3675.063-.5775.063zm7.672 3.395c.527333 0 .998667-.0676667 1.414-.203.415333-.1353333.767667-.315 1.057-.539.289333-.224.509833-.4806667.6615-.77s.2275-.588.2275-.896c0-.3313333-.068833-.6008333-.2065-.8085-.137667-.2076667-.317333-.371-.539-.49-.221667-.119-.476-.2053333-.763-.259-.287-.0536667-.578667-.091-.875-.112-.296333-.021-.588-.0361667-.875-.0455-.287-.0093333-.541333-.0315-.763-.0665-.221667-.035-.401333-.0921667-.539-.1715-.137667-.0793333-.2065-.2006667-.2065-.364 0-.098.036167-.1971667.1085-.2975.072333-.1003333.1785-.1925.3185-.2765.28.07.581.105.903.105.392 0 .7525-.0536667 1.0815-.161.329-.1073333.6125-.2613333.8505-.462.238-.2006667.424667-.4421667.56-.7245.135333-.28233333.203-.5985.203-.9485 0-.17733333-.018667-.3465-.056-.5075-.037333-.161-.088667-.31383333-.154-.4585l.763-.112c.21-.042.315-.147.315-.315v-.511h-1.974c-.443333-.25666667-.973-.385-1.589-.385-.396667 0-.761833.05366667-1.0955.161-.333667.10733333-.620667.26133333-.861.462-.240333.20066667-.428167.441-.5635.721-.135333.28-.203.595-.203.945 0 .434.100333.81316667.301 1.1375.200667.3243333.476.5845.826.7805-.149333.0793333-.281167.168-.3955.266-.114333.098-.21.2018333-.287.3115-.077.1096667-.134167.2193333-.1715.329-.037333.1096667-.056.2158333-.056.3185 0 .266.060667.4795.182.6405.121333.161.284667.2881667.49.3815-.378.1353333-.674333.3231667-.889.5635-.214667.2403333-.322.5331667-.322.8785 0 .2473333.064167.4853333.1925.714.128333.2286667.322.4293333.581.602.259.1726667.583333.3103333.973.413s.848167.154 1.3755.154zm-.077-6.097c-.238 0-.449167-.0338333-.6335-.1015-.184333-.0676667-.338333-.161-.462-.28-.123667-.119-.217-.26133333-.28-.427-.063-.16566667-.0945-.34883333-.0945-.5495 0-.41066667.124833-.7385.3745-.9835s.614833-.3675 1.0955-.3675c.485333 0 .852833.1225 1.1025.3675.249667.245.3745.57283333.3745.9835 0 .20066667-.0315.385-.0945.553-.063.168-.156333.3115-.28.4305-.123667.119-.277667.2111667-.462.2765-.184333.0653333-.397833.098-.6405.098zm.105 5.103c-.340667 0-.6335-.0268333-.8785-.0805s-.448-.1283333-.609-.224c-.161-.0956667-.28-.2088333-.357-.3395-.077-.1306667-.1155-.2706667-.1155-.42 0-.2333333.078167-.4363333.2345-.609s.355833-.3196667.5985-.441c.228667.0326667.466667.0548333.714.0665.247333.0116667.488833.0245.7245.0385.235667.014.460833.0338333.6755.0595s.4025.0676667.5635.126c.161.0583333.288167.1376667.3815.238.093333.1003333.14.2345.14.4025 0 .1726667-.0455.3313333-.1365.476-.091.1446667-.224.2695-.399.3745-.175.105-.390833.1866667-.6475.245-.256667.0583333-.553.0875-.889.0875zm6.188-1.442c.266 0 .508667-.0233333.728-.07.219333-.0466667.425833-.1155.6195-.2065.193667-.091.379167-.2006667.5565-.329.177333-.1283333.357-.2765.539-.4445l.147.623c.042.1213333.098.2041667.168.2485.07.0443333.172667.0665.308.0665h.609V9.464c0-.40133333-.054833-.76766667-.1645-1.099-.109667-.33133333-.271833-.616-.4865-.854s-.478333-.4235-.791-.5565c-.312667-.133-.672-.1995-1.078-.1995-.555333 0-1.065167.09333333-1.5295.28-.464333.18666667-.894833.469-1.2915.847l.245.441c.042.07.096833.13066667.1645.182.067667.05133333.148167.077.2415.077.116667 0 .229833-.03733333.3395-.112.109667-.07466667.238-.1575.385-.2485.147-.091.322-.17383333.525-.2485.203-.07466667.453833-.112.7525-.112.443333 0 .779333.133 1.008.399.228667.266.343.66733333.343 1.204v.518c-.807333.0186667-1.4875.0933333-2.0405.224-.553.1306667-1.001.2986667-1.344.504-.343.2053333-.590333.4375-.742.6965s-.2275.5285-.2275.8085c0 .3173333.0525.595.1575.833.105.238.2485.4363333.4305.595s.3955.2765.6405.3535c.245.077.5075.1155.7875.1155zm.413-.959c-.158667 0-.305667-.0186667-.441-.056-.135333-.0373333-.253167-.0968333-.3535-.1785s-.179667-.1866667-.238-.315c-.058333-.1283333-.0875-.2811667-.0875-.4585 0-.1866667.053667-.3558333.161-.5075.107333-.1516667.282333-.2835.525-.3955.242667-.112.557667-.2018333.945-.2695.387333-.0676667.858667-.1108333 1.414-.1295v1.4c-.135333.1446667-.273.273-.413.385-.14.112-.287.2065-.441.2835-.154.077-.3185.1365-.4935.1785-.175.042-.3675.063-.5775.063zm5.831-7.525c.126 0 .247333-.0245.364-.0735.116667-.049.218167-.11666667.3045-.203.086333-.08633333.155167-.18666667.2065-.301.051333-.11433333.077-.2345.077-.3605 0-.13066667-.025667-.25316667-.077-.3675-.051333-.11433333-.120167-.21466667-.2065-.301-.086333-.08633333-.187833-.154-.3045-.203-.116667-.049-.238-.0735-.364-.0735s-.245.0245-.357.0735c-.112.049-.211167.11666667-.2975.203-.086333.08633333-.154.18666667-.203.301-.049.11433333-.0735.23683333-.0735.3675 0 .126.0245.24616667.0735.3605.049.11433333.116667.21466667.203.301.086333.08633333.1855.154.2975.203.112.049.231.0735.357.0735zm.693 8.372V6.888h-1.365V14h1.365zm3.346 0V8.785c.261333-.28466667.544833-.50983333.8505-.6755.305667-.16566667.6335-.2485.9835-.2485.480667 0 .837667.14116667 1.071.4235.233333.28233333.35.67783333.35 1.1865V14h1.372V9.471c0-.40133333-.051333-.76766667-.154-1.099-.102667-.33133333-.254333-.61483333-.455-.8505-.200667-.23566667-.449167-.41883333-.7455-.5495-.296333-.13066667-.6405-.196-1.0325-.196-.247333 0-.4795.02683333-.6965.0805-.217.05366667-.42.12833333-.609.224-.189.09566667-.3675.21116667-.5355.3465-.168.13533333-.329.28466667-.483.448l-.105-.714c-.046667-.182-.165667-.273-.357-.273h-.819V14h1.365z" id="c"/>
  </defs>
  <g fill="none" fill-rule="evenodd">
    <path stroke="#B8C7D2" fill="#FFF" d="M1.5.5h725v280H1.5z"/>
    <text font-family="Lato-Medium, Lato" font-size="15" font-weight="400" fill="#3E5667">
      <tspan x="0" y="310">Dismissible Banner component.</tspan>
    </text>
    <g>
      <g transform="translate(54 40)">
        <use filter="url(#a)" xlink:href="#b" fill="#000"/>
        <rect fill="#FFF" width="619" height="201" rx="4"/>
        <rect stroke="#E2E9EE" fill="none" x=".5" y=".5" width="618" height="200" rx="4"/>
      </g>
      <path d="M55 181h617v56c0 1.6568542-1.343146 3-3 3H58c-1.65685425 0-3-1.3431458-3-3v-56z" fill="#F8FAFC"/>
      <g transform="translate(70 202)">
        <rect fill="#FFF" width="18" height="18" rx="3"/>
        <rect stroke="#B8C7D2" fill="none" x=".5" y=".5" width="17" height="17" rx="3"/>
      </g>
      <g fill-rule="nonzero" fill="#3E5667" transform="translate(70 202)">
        <use xlink:href="#c"/>
        <use xlink:href="#c"/>
      </g>
      <g transform="translate(585 194)">
        <rect fill="#FFF" width="71" height="33" rx="4"/>
        <rect stroke="#B8C7D2" fill="none" x=".5" y=".5" width="71" height="32" rx="4"/>
        <path d="M17.2995 22c.756 0 1.44316667-.1225 2.0615-.3675s1.148-.5891667 1.589-1.0325c.441-.4433333.78283333-.9741667 1.0255-1.5925.2426667-.6183333.364-1.3008333.364-2.0475 0-.7466667-.1213333-1.42916667-.364-2.0475-.24266667-.61833333-.5845-1.14916667-1.0255-1.5925-.441-.44333333-.97066667-.7875-1.589-1.0325s-1.3055-.3675-2.0615-.3675h-3.808V22h3.808zm0-1.323h-2.163v-7.434h2.163c.518 0 .98466667.08516667 1.4.2555.41533333.17033333.76883333.41416667 1.0605.7315s.51566667.707.672 1.169c.15633333.462.2345.9823333.2345 1.561 0 .5833333-.07816667 1.1048333-.2345 1.5645-.15633333.4596667-.38033333.8493333-.672 1.169-.29166667.3196667-.64516667.5635-1.0605.7315-.41533333.168-.882.252-1.4.252zm7.231-6.972c.14 0 .2718333-.02683333.3955-.0805.1236667-.05366667.2321667-.126.3255-.217.0933333-.091.1668333-.19716667.2205-.3185.0536667-.12133333.0805-.24966667.0805-.385 0-.14-.0268333-.27066667-.0805-.392-.0536667-.12133333-.1271667-.2275-.2205-.3185-.0933333-.091-.2018333-.16333333-.3255-.217-.1236667-.05366667-.2555-.0805-.3955-.0805-.1353333 0-.2625.02683333-.3815.0805s-.2228333.126-.3115.217c-.0886667.091-.1598333.19716667-.2135.3185-.0536667.12133333-.0805.252-.0805.392 0 .13533333.0268333.26366667.0805.385.0536667.12133333.1248333.2275.2135.3185s.1925.16333333.3115.217.2461667.0805.3815.0805zm.77 8.295v-7.14h-1.505V22h1.505zm3.815.112c.448 0 .8458333-.0583333 1.1935-.175.3476667-.1166667.6381667-.28.8715-.49.2333333-.21.4106667-.4573333.532-.742.1213333-.2846667.182-.595.182-.931 0-.2893333-.0513333-.5355-.154-.7385-.1026667-.203-.238-.3756667-.406-.518-.168-.1423333-.3593333-.2625-.574-.3605-.2146667-.098-.434-.1843333-.658-.259-.224-.0746667-.4433333-.1446667-.658-.21-.2146667-.0653333-.406-.1388333-.574-.2205-.168-.0816667-.3033333-.1785-.406-.2905-.1026667-.112-.154-.252-.154-.42 0-.126.028-.2438333.084-.3535.056-.1096667.1365-.2053333.2415-.287.105-.0816667.2333333-.14466667.385-.189.1516667-.04433333.3208333-.0665.5075-.0665.2286667 0 .4281667.0245.5985.0735.1703333.049.3185.1038333.4445.1645.126.0606667.2356667.1155.329.1645.0933333.049.1796667.0735.259.0735.07 0 .1283333-.014.175-.042.0466667-.028.0886667-.0746667.126-.14l.336-.546c-.266-.266-.595-.476-.987-.63-.392-.154-.8283333-.231-1.309-.231-.4246667 0-.7991667.05716667-1.1235.1715-.3243333.11433333-.5973333.2695-.819.4655s-.3896667.42233333-.504.679c-.1143333.2566667-.1715.5273333-.1715.812 0 .3126667.0513333.5775.154.7945.1026667.217.2391667.4013333.4095.553.1703333.1516667.364.2765.581.3745.217.098.4375.1843333.6615.259.224.0746667.4445.1446667.6615.21.217.0653333.4106667.14.581.224.1703333.084.3068333.1843333.4095.301.1026667.1166667.154.266.154.448 0 .1353333-.0256667.2625-.077.3815s-.1306667.2251667-.238.3185c-.1073333.0933333-.2426667.1668333-.406.2205-.1633333.0536667-.357.0805-.581.0805-.2706667 0-.497-.0315-.679-.0945-.182-.063-.3371667-.1318333-.4655-.2065-.1283333-.0746667-.2403333-.1435-.336-.2065-.0956667-.063-.1925-.0945-.2905-.0945-.0933333 0-.1715.0198333-.2345.0595-.063.0396667-.1155.0945-.1575.1645l-.35.574c.14.126.2998333.2426667.4795.35.1796667.1073333.3733333.1995.581.2765.2076667.077.427.1376667.658.182.231.0443333.4701667.0665.7175.0665zm5.698-.112v-5.264c.2006667-.2473333.42-.4421667.658-.5845.238-.1423333.497-.2135.777-.2135.406 0 .714.1225.924.3675.21.245.315.6288333.315 1.1515V22h1.505v-4.543c0-.252.0361667-.4725.1085-.6615.0723333-.189.1715-.3465.2975-.4725.126-.126.273-.2216667.441-.287.168-.06533333.3476667-.098.539-.098.4246667 0 .7455.1271667.9625.3815.217.2543333.3255.6335.3255 1.1375V22h1.505v-4.543c0-.4293333-.0536667-.812-.161-1.148-.1073333-.336-.2648333-.6195-.4725-.8505-.2076667-.231-.462-.40716667-.763-.5285-.301-.12133333-.6428333-.182-1.0255-.182-.2333333 0-.4631667.02683333-.6895.0805-.2263333.05366667-.4398333.1365-.6405.2485-.2006667.112-.3826667.25666667-.546.434-.1633333.17733333-.2986667.38966667-.406.637-.07-.21466667-.1586667-.40833333-.266-.581-.1073333-.17266667-.2345-.31966667-.3815-.441-.147-.12133333-.3161667-.21466667-.5075-.28-.1913333-.06533333-.4013333-.098-.63-.098-.2146667 0-.4141667.02566667-.5985.077-.1843333.05133333-.357.1225-.518.2135-.161.091-.3115.19833333-.4515.322s-.2753333.26016667-.406.4095l-.098-.623c-.056-.19133333-.1866667-.287-.392-.287h-.91V22h1.505zm10.92-8.295c.14 0 .2718333-.02683333.3955-.0805.1236667-.05366667.2321667-.126.3255-.217.0933333-.091.1668333-.19716667.2205-.3185.0536667-.12133333.0805-.24966667.0805-.385 0-.14-.0268333-.27066667-.0805-.392-.0536667-.12133333-.1271667-.2275-.2205-.3185-.0933333-.091-.2018333-.16333333-.3255-.217-.1236667-.05366667-.2555-.0805-.3955-.0805-.1353333 0-.2625.02683333-.3815.0805s-.2228333.126-.3115.217c-.0886667.091-.1598333.19716667-.2135.3185-.0536667.12133333-.0805.252-.0805.392 0 .13533333.0268333.26366667.0805.385.0536667.12133333.1248333.2275.2135.3185s.1925.16333333.3115.217.2461667.0805.3815.0805zm.77 8.295v-7.14h-1.505V22h1.505zm3.815.112c.448 0 .8458333-.0583333 1.1935-.175.3476667-.1166667.6381667-.28.8715-.49.2333333-.21.4106667-.4573333.532-.742.1213333-.2846667.182-.595.182-.931 0-.2893333-.0513333-.5355-.154-.7385-.1026667-.203-.238-.3756667-.406-.518-.168-.1423333-.3593333-.2625-.574-.3605-.2146667-.098-.434-.1843333-.658-.259-.224-.0746667-.4433333-.1446667-.658-.21-.2146667-.0653333-.406-.1388333-.574-.2205-.168-.0816667-.3033333-.1785-.406-.2905-.1026667-.112-.154-.252-.154-.42 0-.126.028-.2438333.084-.3535.056-.1096667.1365-.2053333.2415-.287.105-.0816667.2333333-.14466667.385-.189.1516667-.04433333.3208333-.0665.5075-.0665.2286667 0 .4281667.0245.5985.0735.1703333.049.3185.1038333.4445.1645.126.0606667.2356667.1155.329.1645.0933333.049.1796667.0735.259.0735.07 0 .1283333-.014.175-.042.0466667-.028.0886667-.0746667.126-.14l.336-.546c-.266-.266-.595-.476-.987-.63-.392-.154-.8283333-.231-1.309-.231-.4246667 0-.7991667.05716667-1.1235.1715-.3243333.11433333-.5973333.2695-.819.4655s-.3896667.42233333-.504.679c-.1143333.2566667-.1715.5273333-.1715.812 0 .3126667.0513333.5775.154.7945.1026667.217.2391667.4013333.4095.553.1703333.1516667.364.2765.581.3745.217.098.4375.1843333.6615.259.224.0746667.4445.1446667.6615.21.217.0653333.4106667.14.581.224.1703333.084.3068333.1843333.4095.301.1026667.1166667.154.266.154.448 0 .1353333-.0256667.2625-.077.3815s-.1306667.2251667-.238.3185c-.1073333.0933333-.2426667.1668333-.406.2205-.1633333.0536667-.357.0805-.581.0805-.2706667 0-.497-.0315-.679-.0945-.182-.063-.3371667-.1318333-.4655-.2065-.1283333-.0746667-.2403333-.1435-.336-.2065-.0956667-.063-.1925-.0945-.2905-.0945-.0933333 0-.1715.0198333-.2345.0595-.063.0396667-.1155.0945-.1575.1645l-.35.574c.14.126.2998333.2426667.4795.35.1796667.1073333.3733333.1995.581.2765.2076667.077.427.1376667.658.182.231.0443333.4701667.0665.7175.0665zm6.111 0c.448 0 .8458333-.0583333 1.1935-.175.3476667-.1166667.6381667-.28.8715-.49.2333333-.21.4106667-.4573333.532-.742.1213333-.2846667.182-.595.182-.931 0-.2893333-.0513333-.5355-.154-.7385-.1026667-.203-.238-.3756667-.406-.518-.168-.1423333-.3593333-.2625-.574-.3605-.2146667-.098-.434-.1843333-.658-.259-.224-.0746667-.4433333-.1446667-.658-.21-.2146667-.0653333-.406-.1388333-.574-.2205-.168-.0816667-.3033333-.1785-.406-.2905-.1026667-.112-.154-.252-.154-.42 0-.126.028-.2438333.084-.3535.056-.1096667.1365-.2053333.2415-.287.105-.0816667.2333333-.14466667.385-.189.1516667-.04433333.3208333-.0665.5075-.0665.2286667 0 .4281667.0245.5985.0735.1703333.049.3185.1038333.4445.1645.126.0606667.2356667.1155.329.1645.0933333.049.1796667.0735.259.0735.07 0 .1283333-.014.175-.042.0466667-.028.0886667-.0746667.126-.14l.336-.546c-.266-.266-.595-.476-.987-.63-.392-.154-.8283333-.231-1.309-.231-.4246667 0-.7991667.05716667-1.1235.1715-.3243333.11433333-.5973333.2695-.819.4655s-.3896667.42233333-.504.679c-.1143333.2566667-.1715.5273333-.1715.812 0 .3126667.0513333.5775.154.7945.1026667.217.2391667.4013333.4095.553.1703333.1516667.364.2765.581.3745.217.098.4375.1843333.6615.259.224.0746667.4445.1446667.6615.21.217.0653333.4106667.14.581.224.1703333.084.3068333.1843333.4095.301.1026667.1166667.154.266.154.448 0 .1353333-.0256667.2625-.077.3815s-.1306667.2251667-.238.3185c-.1073333.0933333-.2426667.1668333-.406.2205-.1633333.0536667-.357.0805-.581.0805-.2706667 0-.497-.0315-.679-.0945-.182-.063-.3371667-.1318333-.4655-.2065-.1283333-.0746667-.2403333-.1435-.336-.2065-.0956667-.063-.1925-.0945-.2905-.0945-.0933333 0-.1715.0198333-.2345.0595-.063.0396667-.1155.0945-.1575.1645l-.35.574c.14.126.2998333.2426667.4795.35.1796667.1073333.3733333.1995.581.2765.2076667.077.427.1376667.658.182.231.0443333.4701667.0665.7175.0665z" fill="#3E5667" fill-rule="nonzero"/>
      </g>
      <text font-family="Lato-Medium, Lato" font-size="18" font-weight="400" fill="#1C2D39" transform="translate(54 40)">
        <tspan x="24" y="42">Title</tspan>
      </text>
      <text font-family="Lato-Medium, Lato" font-size="14" font-weight="400" fill="#3E5667" transform="translate(54 40)">
        <tspan x="24" y="68">Cras mattis consectetur purus sit amet fermentum. Lorem ipsum dolor sit amet, consectetur </tspan> <tspan x="24" y="89">adipiscing elit. Vivamus sagittis lacus vel augue laoreet rutrum faucibus dolor auctor. Duis </tspan> <tspan x="24" y="110">mollis, est non commodo luctus.</tspan>
      </text>
    </g>
  </g>
</svg>
