<svg xmlns="http://www.w3.org/2000/svg" xmlns:xlink="http://www.w3.org/1999/xlink" width="16" height="16" viewBox="0 0 16 16">
  <defs>
    <path id="fullscreen-exit-a" d="M2.66666663,11.1111111 L4.88888887,11.1111111 L4.88888887,13.3333334 L6.22222221,13.3333334 L6.22222221,9.77777779 L2.66666663,9.77777779 L2.66666663,11.1111111 Z M4.88888887,4.88888887 L2.66666663,4.88888887 L2.66666663,6.22222221 L6.22222221,6.22222221 L6.22222221,2.66666663 L4.88888887,2.66666663 L4.88888887,4.88888887 Z M9.77777779,13.3333334 L11.1111111,13.3333334 L11.1111111,11.1111111 L13.3333334,11.1111111 L13.3333334,9.77777779 L9.77777779,9.77777779 L9.77777779,13.3333334 Z M11.1111111,4.88888887 L11.1111111,2.66666663 L9.77777779,2.66666663 L9.77777779,6.22222221 L13.3333334,6.22222221 L13.3333334,4.88888887 L11.1111111,4.88888887 Z"/>
  </defs>
  <g fill="none" fill-rule="evenodd">
    <mask id="fullscreen-exit-b" fill="#fff">
      <use xlink:href="#fullscreen-exit-a"/>
    </mask>
    <g fill="CurrentColor" mask="url(#fullscreen-exit-b)">
      <rect width="16" height="16"/>
    </g>
  </g>
</svg>
