<svg xmlns="http://www.w3.org/2000/svg" viewBox="0 0 727 369"><g fill="none" fill-rule="evenodd"><path stroke="#B8C7D2" fill="#FFF" d="M1.5.5h725v336H1.5z"/><path fill="#B8C7D2" d="M46 56h1v40h-1z"/><circle fill="#3E5667" cx="46.5" cy="98" r="3"/><path fill="#B8C7D2" d="M332 47h1v40h-1z"/><circle fill="#3E5667" cx="332.5" cy="85" r="3"/><path fill="#B8C7D2" d="M115 245h1v40h-1z"/><circle fill="#3E5667" cx="115.5" cy="244" r="3"/><text font-family="Lato-Semibold, Lato" font-size="14" font-weight="500" fill="#233745"><tspan x="66.389" y="53">Container</tspan></text><text font-family="Lato-Semibold, Lato" font-size="14" font-weight="500" fill="#233745"><tspan x="347.3535" y="54">Table Header</tspan></text><text font-family="Lato-Semibold, Lato" font-size="14" font-weight="500" fill="#233745"><tspan x="133.195" y="292">Table Column</tspan></text><rect fill="#3E5667" x="37" y="38" width="19.2" height="18.4" rx="9.2"/><rect fill="#3E5667" x="323" y="39" width="19.2" height="18.4" rx="9.2"/><rect fill="#3E5667" x="106" y="277" width="19.2" height="18.4" rx="9.2"/><text font-family="Lato-Heavy, Lato" font-size="9.6" font-weight="600" fill="#FFF"><tspan x="43.816" y="50.2">1</tspan></text><text font-family="Lato-Heavy, Lato" font-size="9.6" font-weight="600" fill="#FFF"><tspan x="329.816" y="51.2">2</tspan></text><text font-family="Lato-Heavy, Lato" font-size="9.6" font-weight="600" fill="#FFF"><tspan x="112.816" y="289.2">3</tspan></text><path fill="#E2E9EE" d="M69 129h590v2H69z"/><text font-family="Lato-Bold, Lato" font-size="14" font-weight="bold" fill="#233745" transform="translate(69 96)"><tspan x="11" y="14">FIRST COLUMN</tspan></text><text font-family="Lato-Medium, Lato" font-size="14" font-weight="400" fill="#3E5667" transform="translate(69 96)"><tspan x="11" y="57">Row 1 Cell 1</tspan></text><text font-family="Lato-Bold, Lato" font-size="14" font-weight="bold" fill="#233745" transform="translate(69 96)"><tspan x="222" y="14">SECOND COLUMN</tspan></text><text font-family="Lato-Bold, Lato" font-size="14" font-weight="bold" fill="#233745" transform="translate(69 96)"><tspan x="446" y="14">THIRD COLUMN</tspan></text><text font-family="Lato-Medium, Lato" font-size="14" font-weight="400" fill="#3E5667" transform="translate(69 96)"><tspan x="222" y="57">Row 1 Cell 2</tspan></text><g fill="#3E5667" font-family="Lato-Medium, Lato" font-size="14" font-weight="400"><text transform="translate(518 139)"><tspan x="0" y="14">Row 1 Cell 3</tspan></text><text transform="translate(518 139)"><tspan x="0" y="48">Row 2 Cell 3</tspan></text><text transform="translate(518 139)"><tspan x="0" y="82">Row 3 Cell 3</tspan></text></g><path fill="#E2E9EE" d="M69 164h590v1H69z"/><text font-family="Lato-Medium, Lato" font-size="14" font-weight="400" fill="#3E5667" transform="translate(69 96)"><tspan x="11" y="91">Row 2 Cell 1</tspan></text><text font-family="Lato-Medium, Lato" font-size="14" font-weight="400" fill="#3E5667" transform="translate(69 96)"><tspan x="222" y="91">Row 2 Cell 2</tspan></text><path fill="#E2E9EE" d="M69 198h590v1H69z"/><text font-family="Lato-Medium, Lato" font-size="14" font-weight="400" fill="#3E5667" transform="translate(69 96)"><tspan x="11" y="125">Row 3 Cell 1</tspan></text><text font-family="Lato-Medium, Lato" font-size="14" font-weight="400" fill="#3E5667" transform="translate(69 96)"><tspan x="222" y="125">Row 3 Cell 2</tspan></text><path fill="#E2E9EE" d="M69 232h590v1H69z"/><text font-family="Lato-Semibold, Lato" font-size="15" font-weight="500" fill="#3E5667"><tspan x=".5" y="366">The Table Anatomy.</tspan></text></g></svg>