<?xml version="1.0" encoding="UTF-8"?>
<svg width="16px" height="16px" viewBox="0 0 16 16" version="1.1" xmlns="http://www.w3.org/2000/svg" xmlns:xlink="http://www.w3.org/1999/xlink">
    <title>Icons/Notification/airline-seat-recline-extra</title>
    <g id="Icons/Notification/airline-seat-recline-extra" stroke="none" stroke-width="1" fill="none" fill-rule="evenodd">
        <rect id="Spacer" fill-opacity="0" fill="#D8D8D8" x="0" y="0" width="16" height="16"></rect>
        <path d="M3.56666664,3.75999997 C2.96666664,3.3333333 2.81999997,2.50666663 3.23999997,1.89999996 C3.65999997,1.29999996 4.49333331,1.15333329 5.09999998,1.57333329 C5.69999999,1.99999996 5.84666665,2.82666663 5.42666665,3.4333333 C4.99999998,4.03333331 4.17333331,4.17999998 3.56666664,3.75999997 L3.56666664,3.75999997 Z M10.6666667,12.6666666 L5.95333332,12.6666666 C4.96666665,12.6666666 4.12666664,11.9466667 3.97999997,10.9733334 L2.66666663,4.66666665 L1.33333329,4.66666665 L2.65999997,11.1733334 C2.9133333,12.8 4.31333331,14 5.95999999,14 L10.6666667,14 L10.6666667,12.6666666 Z M10.82,10 L7.56666666,10 L6.87999999,7.26666666 C7.93333333,7.86 9.06666667,8.29333334 10.3133333,8.08 L10.3133333,6.65999999 C9.22666667,6.86666666 8.02,6.47999999 7.18666666,5.82666665 L6.09333332,4.97999998 C5.93999999,4.85999998 5.76666665,4.77999998 5.58666665,4.72666665 C5.37333332,4.66666665 5.14666665,4.64666665 4.92666665,4.68666665 L4.91333331,4.68666665 C4.09333331,4.83333331 3.54666664,5.61333332 3.68666664,6.42666666 L4.58666665,10.3733333 C4.77333331,11.32 5.59333332,12 6.55333332,12 L11.12,12 L13.6666667,14 L14.6666667,13 L10.82,10 Z" id="Icons/Notification/ic_airline_seat_recline_extra_24px" fill="#233745" fill-rule="nonzero"></path>
    </g>
</svg>