<?xml version="1.0" encoding="UTF-8"?>
<svg width="16px" height="16px" viewBox="0 0 16 16" version="1.1" xmlns="http://www.w3.org/2000/svg" xmlns:xlink="http://www.w3.org/1999/xlink">
    <title>Icons/Notification/airline-seat-legroom-reduced</title>
    <defs>
        <path d="M13.3133334,12.8 C13.4333334,13.44 12.9466667,14 12.3333334,14 L9.33333334,14 L9.33333334,12 L9.99999997,9.33333334 L5.99999997,9.33333334 C4.89999998,9.33333334 3.99999998,8.43333334 3.99999998,7.33333333 L3.99999998,1.99999996 L7.99999997,1.99999996 L7.99999997,5.99999996 L11.3333334,5.99999996 C12.0666667,5.99999996 12.6666667,6.59999999 12.6666667,7.33333333 L11.3333334,12 L12.2933334,12 C12.78,12 13.22,12.3266667 13.3133334,12.8 L13.3133334,12.8 Z M3.3333333,7.99999996 L3.3333333,1.99999996 L1.99999996,1.99999996 L1.99999996,7.99999996 C1.99999996,9.84000001 3.49333331,11.3333334 5.33333332,11.3333334 L7.99999996,11.3333334 L7.99999996,9.99999996 L5.33333332,9.99999996 C4.22666664,9.99999996 3.3333333,9.10666667 3.3333333,7.99999996 Z" id="path-1"></path>
    </defs>
    <g id="Icons/Notification/airline-seat-legroom-reduced" stroke="none" stroke-width="1" fill="none" fill-rule="evenodd">
        <mask id="mask-2" fill="white">
            <use xlink:href="#path-1"></use>
        </mask>
        <use id="Icons/Notification/ic_airline_seat_legroom_reduced_24px" fill="#233745" fill-rule="nonzero" xlink:href="#path-1"></use>
    </g>
</svg>