<?xml version="1.0" encoding="UTF-8"?>
<svg width="16px" height="16px" viewBox="0 0 16 16" version="1.1" xmlns="http://www.w3.org/2000/svg" xmlns:xlink="http://www.w3.org/1999/xlink">
    <title>Icons/Notification/airline-seat-recline-normal</title>
    <defs>
        <path d="M5.05999998,3.60666664 C4.53999998,3.08666664 4.53999998,2.23999996 5.05999998,1.71999996 C5.57999998,1.19999996 6.42666666,1.19999996 6.94666666,1.71999996 C7.46666666,2.23999996 7.46666666,3.08666664 6.94666666,3.60666664 C6.41999999,4.13333331 5.57999998,4.13333331 5.05999998,3.60666664 Z M3.99999997,10.6666666 L3.99999997,4.66666665 L2.66666663,4.66666665 L2.66666663,10.6666666 C2.66666663,12.5066667 4.15999998,14 5.99999999,14 L10,14 L10,12.6666666 L5.99999999,12.6666666 C4.89333331,12.6666666 3.99999997,11.7733334 3.99999997,10.6666666 Z M13.3333334,13.38 L9.95333335,10 L7.66666665,10 L7.66666665,7.54666666 C8.6,8.31333334 10.0666667,8.98666667 11.3333334,8.98666667 L11.3333334,7.54666666 C10.2266667,7.56 8.92666667,6.96666666 8.22,6.18666666 L7.28666666,5.15333332 C7.15999999,5.01333331 6.99999999,4.89999998 6.82666666,4.81999998 C6.63333332,4.72666665 6.41333332,4.66666665 6.18666666,4.66666665 L6.16666665,4.66666665 C5.33999998,4.66666665 4.66666665,5.33999998 4.66666665,6.16666665 L4.66666665,10 C4.66666665,11.1066667 5.55999998,12 6.66666665,12 L10.0466667,12 L12.38,14.3333334 L13.3333334,13.38 Z" id="path-1"></path>
    </defs>
    <g id="Icons/Notification/airline-seat-recline-normal" stroke="none" stroke-width="1" fill="none" fill-rule="evenodd">
        <mask id="mask-2" fill="white">
            <use xlink:href="#path-1"></use>
        </mask>
        <use id="Icons/Notification/ic_airline_seat_recline_normal_24px" fill="#233745" fill-rule="nonzero" xlink:href="#path-1"></use>
    </g>
</svg>