<?xml version="1.0" encoding="UTF-8"?>
<svg width="16px" height="16px" viewBox="0 0 16 16" version="1.1" xmlns="http://www.w3.org/2000/svg" xmlns:xlink="http://www.w3.org/1999/xlink">
    <title>Icons/Notification/airline-seat-flat</title>
    <defs>
        <path d="M14.6666667,7.33333333 L14.6666667,8.66666665 L5.99999999,8.66666665 L5.99999999,4.66666665 L12,4.66666665 C13.4733334,4.66666665 14.6666667,5.85999999 14.6666667,7.33333333 Z M1.33333329,9.33333334 L1.33333329,10.6666667 L5.33333329,10.6666667 L5.33333329,12 L10.6666667,12 L10.6666667,10.6666667 L14.6666667,10.6666667 L14.6666667,9.33333334 L1.33333329,9.33333334 Z M4.75999998,8.06666667 C5.53333332,7.27333333 5.51999998,6.01333332 4.73333331,5.23999998 C3.93999997,4.46666664 2.67999997,4.47999998 1.90666663,5.26666665 C1.13333329,6.05999999 1.14666662,7.32 1.9333333,8.09333333 C2.72666663,8.86666667 3.98666664,8.85333334 4.75999998,8.06666667 L4.75999998,8.06666667 Z" id="path-1"></path>
    </defs>
    <g id="Icons/Notification/airline-seat-flat" stroke="none" stroke-width="1" fill="none" fill-rule="evenodd">
        <mask id="mask-2" fill="white">
            <use xlink:href="#path-1"></use>
        </mask>
        <use id="Icons/Notification/ic_airline_seat_flat_24px" fill="#233745" fill-rule="nonzero" xlink:href="#path-1"></use>
    </g>
</svg>