<?xml version="1.0" encoding="UTF-8"?>
<svg width="16px" height="16px" viewBox="0 0 16 16" version="1.1" xmlns="http://www.w3.org/2000/svg" xmlns:xlink="http://www.w3.org/1999/xlink">
    <title>Icons/Notification/airline-seat-flat-angled</title>
    <g id="Icons/Notification/airline-seat-flat-angled" stroke="none" stroke-width="1" fill="none" fill-rule="evenodd">
        <rect id="Spacer" fill-opacity="0" fill="#D8D8D8" x="0" y="0" width="16" height="16"></rect>
        <path d="M14.8333334,9.52666668 L14.3733334,10.7866667 L6.13333332,7.80666667 L7.52,4.03333331 L13.2266667,6.09333332 C14.6266667,6.59999999 15.3466667,8.13333333 14.8333334,9.52666668 L14.8333334,9.52666668 Z M0.999999956,8.09333333 L5.33333332,9.65333334 L5.33333332,12.6666667 L10.6666667,12.6666667 L10.6666667,11.58 L13.68,12.6666667 L14.14,11.4066667 L1.45999996,6.83333333 L0.999999956,8.09333333 Z M4.86666665,6.79999999 C5.85999999,6.31999999 6.27999999,5.12666665 5.80666665,4.13333331 C5.32666665,3.13999997 4.13333331,2.71999997 3.1333333,3.19999997 C2.13999996,3.67333331 1.71999996,4.86666665 2.19999996,5.86666665 C2.6733333,6.85999999 3.86666664,7.28 4.86666665,6.79999999 Z" id="Icons/Notification/ic_airline_seat_flat_angled_24px" fill="#233745" fill-rule="nonzero"></path>
    </g>
</svg>