<?xml version="1.0" encoding="UTF-8"?>
<svg width="16px" height="16px" viewBox="0 0 16 16" version="1.1" xmlns="http://www.w3.org/2000/svg" xmlns:xlink="http://www.w3.org/1999/xlink">
    <title>Icons/Notification/bluetooth-audio</title>
    <g id="Icons/Notification/bluetooth-audio" stroke="none" stroke-width="1" fill="none" fill-rule="evenodd">
        <rect id="Spacer" fill-opacity="0" fill="#D8D8D8" x="0" y="0" width="16" height="16"></rect>
        <path d="M9.49333334,8.00666667 L11.04,9.55333334 C11.2266667,9.07333334 11.3333334,8.54666667 11.3333334,8 C11.3333334,7.45333333 11.2266667,6.93999999 11.0466667,6.45999999 L9.49333334,8.00666667 Z M13.02,4.47333331 L12.18,5.31333332 C12.6,6.11999999 12.8333334,7.02666666 12.8333334,7.99333333 C12.8333334,8.96000001 12.5933334,9.87333335 12.18,10.6733334 L12.98,11.4733333 C13.6266667,10.4466667 14.0066667,9.23333334 14.0066667,7.93333333 C14,6.67333333 13.64,5.48666665 13.02,4.47333331 L13.02,4.47333331 Z M10.4733333,5.13999998 L6.66666666,1.33333329 L5.99999996,1.33333329 L5.99999996,6.39333332 L2.93999997,3.33333329 L1.99999996,4.27333331 L5.72666665,8 L1.99999996,11.7266667 L2.93999997,12.6666667 L5.99999996,9.60666668 L5.99999996,14.6666667 L6.66666666,14.6666667 L10.4733333,10.86 L7.60666666,8 L10.4733333,5.13999998 Z M7.33333333,3.88666664 L8.58666667,5.13999998 L7.33333333,6.39333332 L7.33333333,3.88666664 Z M8.58666667,10.86 L7.33333333,12.1133334 L7.33333333,9.60666668 L8.58666667,10.86 L8.58666667,10.86 Z" id="Icons/Notification/ic_bluetooth_audio_24px" fill="#233745" fill-rule="nonzero"></path>
    </g>
</svg>