<?xml version="1.0" encoding="UTF-8"?>
<svg width="16px" height="16px" viewBox="0 0 16 16" version="1.1" xmlns="http://www.w3.org/2000/svg" xmlns:xlink="http://www.w3.org/1999/xlink">
    <title>Icons/Notification/do-not-disturb-alt</title>
    <g id="Icons/Notification/do-not-disturb-alt" stroke="none" stroke-width="1" fill="none" fill-rule="evenodd">
        <rect id="Spacer" fill-opacity="0" fill="#D8D8D8" x="0" y="0" width="16" height="16"></rect>
        <path d="M8,1.33333329 C4.33333329,1.33333329 1.33333329,4.33333329 1.33333329,8 C1.33333329,11.6666667 4.33333329,14.6666667 8,14.6666667 C11.6666667,14.6666667 14.6666667,11.6666667 14.6666667,8 C14.6666667,4.33333329 11.6666667,1.33333329 8,1.33333329 Z M2.66666663,8 C2.66666663,5.06666665 5.06666665,2.66666663 8,2.66666663 C9.20000001,2.66666663 10.3333333,3.06666664 11.2666667,3.79999997 L3.79999997,11.2666667 C3.06666664,10.3333333 2.66666663,9.20000001 2.66666663,8 Z M8,13.3333334 C6.79999999,13.3333334 5.66666665,12.9333334 4.73333331,12.2 L12.2,4.73333331 C12.9333334,5.66666665 13.3333334,6.79999999 13.3333334,8 C13.3333334,10.9333334 10.9333334,13.3333334 8,13.3333334 Z" id="Icons/Notification/ic_do_not_disturb_alt_24px" fill="#233745" fill-rule="nonzero"></path>
    </g>
</svg>