<?xml version="1.0" encoding="UTF-8"?>
<svg width="16px" height="16px" viewBox="0 0 16 16" version="1.1" xmlns="http://www.w3.org/2000/svg" xmlns:xlink="http://www.w3.org/1999/xlink">
    <title>Icons/Notification/do-not-disturb-off</title>
    <defs>
        <path d="M11.3333334,7.33333329 L11.3333334,8.66666667 L10.36,8.66666667 L13.48,11.7866667 C14.2266667,10.7133334 14.6666667,9.40666668 14.6666667,8 C14.6666667,4.31999998 11.68,1.33333329 8,1.33333329 C6.59333332,1.33333329 5.28666665,1.77333329 4.21333331,2.51999997 L9.02666667,7.33333329 L11.3333334,7.33333329 Z M1.51333329,1.51333329 L0.666666621,2.35999996 L2.51999997,4.21333331 C1.77333329,5.28666665 1.33333329,6.59333332 1.33333329,8 C1.33333329,11.68 4.31999998,14.6666667 8,14.6666667 C9.40666668,14.6666667 10.7133334,14.2266667 11.7866667,13.48 L13.64,15.3333334 L14.4866667,14.4866667 L7.33333333,7.33333333 L1.51333329,1.51333329 Z M4.66666665,8.66666667 L4.66666665,7.33333333 L5.63999999,7.33333333 L6.97333333,8.66666667 L4.66666665,8.66666667 Z" id="path-1"></path>
    </defs>
    <g id="Icons/Notification/do-not-disturb-off" stroke="none" stroke-width="1" fill="none" fill-rule="evenodd">
        <mask id="mask-2" fill="white">
            <use xlink:href="#path-1"></use>
        </mask>
        <use id="Icons/Notification/ic_do_not_disturb_off_24px" fill="#233745" fill-rule="nonzero" xlink:href="#path-1"></use>
    </g>
</svg>