<?xml version="1.0" encoding="UTF-8"?>
<svg width="16px" height="16px" viewBox="0 0 16 16" version="1.1" xmlns="http://www.w3.org/2000/svg" xmlns:xlink="http://www.w3.org/1999/xlink">
    <title>Icons/Notification/event-available</title>
    <g id="Icons/Notification/event-available" stroke="none" stroke-width="1" fill="none" fill-rule="evenodd">
        <rect id="Spacer" fill-opacity="0" fill="#D8D8D8" x="0" y="0" width="16" height="16"></rect>
        <path d="M11.02,7.37333333 L10.3133333,6.66666666 L7.05999999,9.92000001 L5.64666665,8.50666667 L4.93999998,9.21333334 L7.05999999,11.3333334 L11.02,7.37333333 L11.02,7.37333333 Z M12.6666667,1.99999996 L12,1.99999996 L12,0.666666621 L10.6666667,0.666666621 L10.6666667,1.99999996 L5.33333332,1.99999996 L5.33333332,0.666666621 L3.99999996,0.666666621 L3.99999996,1.99999996 L3.3333333,1.99999996 C2.5933333,1.99999996 2.00666663,2.59999997 2.00666663,3.3333333 L1.99999996,12.6666666 C1.99999996,13.4 2.5933333,14 3.3333333,14 L12.6666667,14 C13.4,14 14,13.4 14,12.6666666 L14,3.3333333 C14,2.59999997 13.4,1.99999996 12.6666667,1.99999996 Z M12.6666667,12.6666667 L3.3333333,12.6666667 L3.3333333,5.33333332 L12.6666667,5.33333332 L12.6666667,12.6666667 Z" id="Icons/Notification/ic_event_available_24px" fill="#233745" fill-rule="nonzero"></path>
    </g>
</svg>