<?xml version="1.0" encoding="UTF-8"?>
<svg width="16px" height="16px" viewBox="0 0 16 16" version="1.1" xmlns="http://www.w3.org/2000/svg" xmlns:xlink="http://www.w3.org/1999/xlink">
    <title>Icons/Notification/event-note</title>
    <defs>
        <path d="M11.5555556,6.22222221 L4.44444442,6.22222221 L4.44444442,8 L11.5555556,8 L11.5555556,6.22222221 Z M8.88888889,8.88888889 L4.44444442,8.88888889 L4.44444442,10.6666667 L8.88888889,10.6666667 L8.88888889,8.88888889 Z M13.3333334,1.77777774 L12.4444445,1.77777774 L12.4444445,0.888888844 L10.6666667,0.888888844 L10.6666667,1.77777774 L5.33333332,1.77777774 L5.33333332,0.888888844 L3.55555553,0.888888844 L3.55555553,1.77777774 L2.66666663,1.77777774 C2.17777774,1.77777774 1.77777774,2.17777774 1.77777774,2.66666663 L1.77777774,13.3333334 C1.77777774,13.8222223 2.17777774,14.2222223 2.66666663,14.2222223 L13.3333334,14.2222223 C13.8222223,14.2222223 14.2222223,13.8222223 14.2222223,13.3333334 L14.2222223,2.66666663 C14.2222223,2.17777774 13.8222223,1.77777774 13.3333334,1.77777774 Z M12.4444445,12.4444445 L3.55555553,12.4444445 L3.55555553,5.33333332 L12.4444445,5.33333332 L12.4444445,12.4444445 Z" id="path-1"></path>
    </defs>
    <g id="Icons/Notification/event-note" stroke="none" stroke-width="1" fill="none" fill-rule="evenodd">
        <mask id="mask-2" fill="white">
            <use xlink:href="#path-1"></use>
        </mask>
        <use id="Icons/Notification/ic_event_note_18px" fill="#233745" fill-rule="nonzero" xlink:href="#path-1"></use>
    </g>
</svg>