<?xml version="1.0" encoding="UTF-8"?>
<svg width="16px" height="16px" viewBox="0 0 16 16" version="1.1" xmlns="http://www.w3.org/2000/svg" xmlns:xlink="http://www.w3.org/1999/xlink">
    <title>Icons/Notification/folder-special</title>
    <defs>
        <path d="M13.3333333,3.99999997 L8,3.99999997 L6.66666666,2.66666663 L2.66666663,2.66666663 C1.9333333,2.66666663 1.33333329,3.26666664 1.33333329,3.99999997 L1.33333329,12 C1.33333329,12.7333334 1.9333333,13.3333334 2.66666663,13.3333334 L13.3333333,13.3333334 C14.0666667,13.3333334 14.6666667,12.7333334 14.6666667,12 L14.6666667,5.33333332 C14.6666667,4.59999998 14.0666667,3.99999997 13.3333333,3.99999997 Z M11.96,11.3333333 L10,10.1866667 L8.04,11.3333333 L8.56,9.11333334 L6.83333333,7.62 L9.10666667,7.42666666 L10,5.33333332 L10.8933334,7.42666666 L13.1666667,7.62 L11.44,9.11333334 L11.96,11.3333333 Z" id="path-1"></path>
    </defs>
    <g id="Icons/Notification/folder-special" stroke="none" stroke-width="1" fill="none" fill-rule="evenodd">
        <mask id="mask-2" fill="white">
            <use xlink:href="#path-1"></use>
        </mask>
        <use id="Icons/Notification/ic_folder_special_24px" fill="#233745" fill-rule="nonzero" xlink:href="#path-1"></use>
    </g>
</svg>