<?xml version="1.0" encoding="UTF-8"?>
<svg width="16px" height="16px" viewBox="0 0 16 16" version="1.1" xmlns="http://www.w3.org/2000/svg" xmlns:xlink="http://www.w3.org/1999/xlink">
    <title>Icons/Notification/live-tv</title>
    <defs>
        <path d="M14,3.99999998 L8.94000001,3.99999998 L11.1333334,1.80666663 L10.6666666,1.33333329 L8,3.99999998 L5.33333332,1.33333329 L4.85999998,1.80666663 L7.05999999,3.99999998 L1.99999996,3.99999998 C1.26666662,3.99999998 0.666666621,4.59333331 0.666666621,5.33333329 L0.666666621,13.3333333 C0.666666621,14.0666667 1.26666662,14.6666667 1.99999996,14.6666667 L14,14.6666667 C14.7333334,14.6666667 15.3333334,14.0666667 15.3333334,13.3333333 L15.3333334,5.33333329 C15.3333334,4.59333331 14.7333334,3.99999998 14,3.99999998 Z M14,13.3333333 L1.99999996,13.3333333 L1.99999996,5.33333332 L14,5.33333332 L14,13.3333333 Z M5.99999999,6.66666666 L5.99999999,12 L10.6666667,9.33333334 L5.99999999,6.66666666 Z" id="path-1"></path>
    </defs>
    <g id="Icons/Notification/live-tv" stroke="none" stroke-width="1" fill="none" fill-rule="evenodd">
        <mask id="mask-2" fill="white">
            <use xlink:href="#path-1"></use>
        </mask>
        <use id="Icons/Notification/ic_live_tv_24px" fill="#233745" fill-rule="nonzero" xlink:href="#path-1"></use>
    </g>
</svg>