<?xml version="1.0" encoding="UTF-8"?>
<svg width="16px" height="16px" viewBox="0 0 16 16" version="1.1" xmlns="http://www.w3.org/2000/svg" xmlns:xlink="http://www.w3.org/1999/xlink">
    <title>Icons/Notification/more</title>
    <defs>
        <path d="M14.6666667,1.99999996 L4.66666665,1.99999996 C4.20666664,1.99999996 3.84666664,2.2333333 3.60666664,2.58666663 L-5.00000006e-08,7.99999996 L3.60666664,13.4066667 C3.84666664,13.76 4.25333331,14 4.71333331,14 L14.6666667,14 C15.4,14 15.9999999,13.4 15.9999999,12.6666667 L15.9999999,3.3333333 C15.9999999,2.59999997 15.4,1.99999996 14.6666667,1.99999996 Z M5.99999998,8.99999999 C5.44666665,8.99999999 4.99999998,8.55333334 4.99999998,7.99999999 C4.99999998,7.44666666 5.44666665,6.99999999 5.99999998,6.99999999 C6.55333332,6.99999999 6.99999998,7.44666666 6.99999998,7.99999999 C6.99999998,8.55333334 6.55333332,8.99999999 5.99999998,8.99999999 Z M9.33333334,8.99999999 C8.78,8.99999999 8.33333334,8.55333334 8.33333334,7.99999999 C8.33333334,7.44666666 8.78,6.99999999 9.33333334,6.99999999 C9.88666668,6.99999999 10.3333333,7.44666666 10.3333333,7.99999999 C10.3333333,8.55333334 9.88666668,8.99999999 9.33333334,8.99999999 Z M12.6666667,8.99999999 C12.1133334,8.99999999 11.6666667,8.55333334 11.6666667,7.99999999 C11.6666667,7.44666666 12.1133334,6.99999999 12.6666667,6.99999999 C13.22,6.99999999 13.6666667,7.44666666 13.6666667,7.99999999 C13.6666667,8.55333334 13.22,8.99999999 12.6666667,8.99999999 Z" id="path-1"></path>
    </defs>
    <g id="Icons/Notification/more" stroke="none" stroke-width="1" fill="none" fill-rule="evenodd">
        <mask id="mask-2" fill="white">
            <use xlink:href="#path-1"></use>
        </mask>
        <use id="Icons/Notification/ic_more_24px" fill="#233745" fill-rule="nonzero" xlink:href="#path-1"></use>
    </g>
</svg>