<?xml version="1.0" encoding="UTF-8"?>
<svg width="16px" height="16px" viewBox="0 0 16 16" version="1.1" xmlns="http://www.w3.org/2000/svg" xmlns:xlink="http://www.w3.org/1999/xlink">
    <title>Icons/Notification/network-check</title>
    <g id="Icons/Notification/network-check" stroke="none" stroke-width="1" fill="none" fill-rule="evenodd">
        <rect id="Spacer" fill-opacity="0" fill="#D8D8D8" x="0" y="0" width="16" height="16"></rect>
        <path d="M10.6,3.3333333 C10.4866667,3.3333333 10.3866667,3.3933333 10.3266667,3.48666664 L10.28,3.58666664 L6.82666666,11.3533334 C6.71999999,11.5466667 6.65333332,11.76 6.65333332,11.9933334 C6.65333332,12.7333334 7.25333333,13.3333333 7.99333333,13.3333333 C8.63333334,13.3333333 9.17333334,12.88 9.30000001,12.2733334 L9.30666667,12.2533334 L10.9333334,3.66666664 C10.9333334,3.47999997 10.7866667,3.3333333 10.6,3.3333333 L10.6,3.3333333 Z M0.666666621,5.99999999 L1.99999996,7.33333333 C3.91999997,5.41333332 6.52666666,4.61333331 9.02000001,4.91999998 L9.81333334,3.1333333 C6.59333332,2.55999997 3.15999997,3.51333331 0.666666621,5.99999999 Z M14,7.33333333 L15.3333334,5.99999999 C14.24,4.90666665 12.9666667,4.11999997 11.6066667,3.61999997 L11.2533334,5.49999998 C12.2533334,5.91333332 13.1866667,6.51999999 14,7.33333333 Z M11.3333334,10 L12.6666667,8.66666667 C12.1333334,8.13333333 11.5333334,7.72 10.8933334,7.40666666 L10.5266667,9.35333334 C10.8066667,9.53333334 11.08,9.74666668 11.3333334,10 Z M3.3333333,8.66666667 L4.66666665,10 C5.41999998,9.24666667 6.37333332,8.80666667 7.35333333,8.66666667 L8.20666667,6.74666666 C6.45333332,6.69333333 4.67333331,7.32666666 3.3333333,8.66666667 Z" id="Icons/Notification/ic_network_check_24px" fill="#233745" fill-rule="nonzero"></path>
    </g>
</svg>