<svg xmlns="http://www.w3.org/2000/svg" xmlns:xlink="http://www.w3.org/1999/xlink" width="16" height="16" viewBox="0 0 16 16">
  <defs>
    <path id="network-locked-a" d="M13,6.66666662 C13.1133334,6.66666662 13.22,6.68666666 13.3333334,6.69999999 L13.3333334,0.666666621 L0.666666621,13.3333334 L9.33333334,13.3333334 L9.33333334,11.3333334 C9.33333334,10.74 9.59333334,10.2133333 10,9.84666668 L10,9.66666662 C10,8.01333333 11.3466667,6.66666662 13,6.66666662 Z M14.6666667,10.6666667 L14.6666667,9.66666668 C14.6666667,8.74666667 13.92,8 13,8 C12.08,8 11.3333334,8.74666667 11.3333334,9.66666668 L11.3333334,10.6666667 C10.9666667,10.6666667 10.6666667,10.9666667 10.6666667,11.3333334 L10.6666667,14 C10.6666667,14.3666667 10.9666667,14.6666667 11.3333334,14.6666667 L14.6666667,14.6666667 C15.0333334,14.6666667 15.3333334,14.3666667 15.3333334,14 L15.3333334,11.3333334 C15.3333334,10.9666667 15.0333334,10.6666667 14.6666667,10.6666667 Z M14,10.6666667 L12,10.6666667 L12,9.66666667 C12,9.11333334 12.4466667,8.66666667 13,8.66666667 C13.5533334,8.66666667 14,9.11333334 14,9.66666667 L14,10.6666667 Z"/>
  </defs>
  <g fill="none" fill-rule="evenodd">
    <mask id="network-locked-b" fill="#fff">
      <use xlink:href="#network-locked-a"/>
    </mask>
    <g fill="CurrentColor" mask="url(#network-locked-b)">
      <rect width="16" height="16"/>
    </g>
  </g>
</svg>
