<?xml version="1.0" encoding="UTF-8"?>
<svg width="16px" height="16px" viewBox="0 0 16 16" version="1.1" xmlns="http://www.w3.org/2000/svg" xmlns:xlink="http://www.w3.org/1999/xlink">
    <title>Icons/Notification/no-encryption</title>
    <g id="Icons/Notification/no-encryption" stroke="none" stroke-width="1" fill="none" fill-rule="evenodd">
        <rect id="Spacer" fill-opacity="0" fill="#D8D8D8" x="0" y="0" width="16" height="16"></rect>
        <path d="M14,14.52 L2.8133333,3.3333333 L1.99999996,4.14666664 L3.35999997,5.50666665 C2.94666664,5.73333332 2.66666663,6.16666666 2.66666663,6.66666666 L2.66666663,13.3333333 C2.66666663,14.0666667 3.26666664,14.6666667 3.99999996,14.6666667 L12,14.6666667 C12.1533334,14.6666667 12.3,14.6333334 12.44,14.5866667 L13.1866667,15.3333333 L14,14.52 Z M5.93333332,3.99999997 C5.93333332,2.85999997 6.85999999,1.9333333 8,1.9333333 C9.14000001,1.9333333 10.0666667,2.85999997 10.0666667,3.99999997 L10.0666667,5.33333332 L6.43999999,5.33333332 L13.3333334,12.2266667 L13.3333334,6.66666662 C13.3333334,5.93333332 12.7333334,5.33333332 12,5.33333332 L11.3333334,5.33333332 L11.3333334,3.99999997 C11.3333334,2.15999996 9.84000001,0.666666621 8,0.666666621 C6.29333332,0.666666621 4.90666665,1.9533333 4.70666665,3.59999997 L5.93333332,4.82666665 L5.93333332,3.99999997 Z" id="Icons/Notification/ic_no_encryption_24px" fill="#233745" fill-rule="nonzero"></path>
    </g>
</svg>