<svg xmlns="http://www.w3.org/2000/svg" xmlns:xlink="http://www.w3.org/1999/xlink" width="16" height="16" viewBox="0 0 16 16">
  <defs>
    <path id="phone-missed-a" d="M4.15999998,3.83999997 L7.68,7.36 L12.16,2.87999997 L11.52,2.23999996 L7.68,6.07999999 L4.79999998,3.19999997 L7.03999999,3.19999997 L7.03999999,2.23999996 L3.19999997,2.23999996 L3.19999997,6.07999999 L4.15999998,6.07999999 L4.15999998,3.83999997 Z M15.1744,10.9888 C13.2224,9.13920001 10.5856,8 7.68,8 C4.77439998,8 2.13759996,9.13920001 0.185599951,10.9888 C0.0703999504,11.104 -5.00000006e-08,11.264 -5.00000006e-08,11.4432 C-5.00000006e-08,11.6224 0.0703999504,11.7824 0.185599951,11.8976 L1.77279996,13.4848 C1.88799996,13.6 2.04799996,13.6704 2.22719996,13.6704 C2.39999996,13.6704 2.55999997,13.6 2.67519997,13.4912 C3.18079997,13.0176 3.75679997,12.6208 4.37759998,12.3072 C4.58879998,12.2048 4.73599998,11.9872 4.73599998,11.7312 L4.73599998,9.74720001 C5.66399999,9.44000001 6.65599999,9.28000001 7.68,9.28000001 C8.704,9.28000001 9.69600001,9.44000001 10.624,9.74080001 L10.624,11.7248 C10.624,11.9744 10.7712,12.1984 10.9824,12.3008 C11.6096,12.6144 12.1792,13.0176 12.6912,13.4848 C12.8064,13.6 12.9664,13.664 13.1392,13.664 C13.3184,13.664 13.4784,13.5936 13.5936,13.4784 L15.1808,11.8912 C15.296,11.776 15.3664,11.616 15.3664,11.4368 C15.3664,11.2576 15.2896,11.104 15.1744,10.9888 L15.1744,10.9888 Z"/>
  </defs>
  <g fill="none" fill-rule="evenodd">
    <mask id="phone-missed-b" fill="#fff">
      <use xlink:href="#phone-missed-a"/>
    </mask>
    <g fill="CurrentColor" mask="url(#phone-missed-b)">
      <rect width="16" height="16"/>
    </g>
  </g>
</svg>
