<?xml version="1.0" encoding="UTF-8"?>
<svg width="16px" height="16px" viewBox="0 0 16 16" version="1.1" xmlns="http://www.w3.org/2000/svg" xmlns:xlink="http://www.w3.org/1999/xlink">
    <title>Icons/Notification/phone-locked</title>
    <defs>
        <path d="M13.3333334,10.3333333 C12.5,10.3333333 11.7,10.2 10.9533334,9.95333335 C10.72,9.88000001 10.46,9.93333335 10.2733333,10.1133333 L8.80666667,11.58 C6.91999999,10.62 5.37333332,9.08000001 4.41333331,7.18666666 L5.87999999,5.71333332 C6.06666665,5.53999998 6.11999999,5.27999998 6.04666665,5.04666665 C5.79999999,4.29999998 5.66666665,3.49999996 5.66666665,2.66666663 C5.66666665,2.29999996 5.36666665,1.99999996 4.99999996,1.99999996 L2.66666663,1.99999996 C2.29999996,1.99999996 1.99999996,2.29999996 1.99999996,2.66666663 C1.99999996,8.92666667 7.07333333,14 13.3333334,14 C13.7,14 14,13.7 14,13.3333334 L14,11 C14,10.6333333 13.7,10.3333333 13.3333334,10.3333333 Z M13.3333333,2.66666662 L13.3333333,2.3333333 C13.3333333,1.41333329 12.5866667,0.666666621 11.6666667,0.666666621 C10.7466667,0.666666621 10,1.41333329 10,2.3333333 L10,2.66666662 C9.63333334,2.66666662 9.33333334,2.96666664 9.33333334,3.3333333 L9.33333334,5.99999999 C9.33333334,6.36666666 9.63333334,6.66666662 10,6.66666662 L13.3333333,6.66666662 C13.7,6.66666662 14,6.36666666 14,5.99999999 L14,3.3333333 C14,2.96666664 13.7,2.66666662 13.3333333,2.66666662 Z M12.8,2.66666663 L10.5333333,2.66666663 L10.5333333,2.3333333 C10.5333333,1.70666663 11.04,1.19999996 11.6666667,1.19999996 C12.2933334,1.19999996 12.8,1.70666663 12.8,2.3333333 L12.8,2.66666663 Z" id="path-1"></path>
    </defs>
    <g id="Icons/Notification/phone-locked" stroke="none" stroke-width="1" fill="none" fill-rule="evenodd">
        <mask id="mask-2" fill="white">
            <use xlink:href="#path-1"></use>
        </mask>
        <use id="Icons/Notification/ic_phone_locked_24px" fill="#233745" fill-rule="nonzero" xlink:href="#path-1"></use>
    </g>
</svg>