<?xml version="1.0" encoding="UTF-8"?>
<svg width="16px" height="16px" viewBox="0 0 16 16" version="1.1" xmlns="http://www.w3.org/2000/svg" xmlns:xlink="http://www.w3.org/1999/xlink">
    <title>Icons/Notification/phone-in-talk</title>
    <defs>
        <path d="M13.3333334,10.3333333 C12.5,10.3333333 11.7,10.2 10.9533334,9.95333335 C10.72,9.88000001 10.46,9.93333335 10.2733333,10.1133333 L8.80666667,11.58 C6.91999999,10.62 5.37333332,9.08000001 4.41333331,7.18666666 L5.87999999,5.71333332 C6.06666665,5.53999998 6.11999999,5.27999998 6.04666665,5.04666665 C5.79999999,4.29999998 5.66666665,3.49999996 5.66666665,2.66666663 C5.66666665,2.29999996 5.36666665,1.99999996 4.99999996,1.99999996 L2.66666663,1.99999996 C2.29999996,1.99999996 1.99999996,2.29999996 1.99999996,2.66666663 C1.99999996,8.92666667 7.07333333,14 13.3333334,14 C13.7,14 14,13.7 14,13.3333334 L14,11 C14,10.6333333 13.7,10.3333333 13.3333334,10.3333333 Z M12.6666667,7.99999996 L14,7.99999996 C14,4.68666665 11.3133334,1.99999996 8,1.99999996 L8,3.3333333 C10.58,3.3333333 12.6666667,5.41999998 12.6666667,7.99999996 Z M10,8 L11.3333334,8 C11.3333334,6.15999999 9.84000001,4.66666665 8,4.66666665 L8,5.99999999 C9.10666667,5.99999999 10,6.89333333 10,8 Z" id="path-1"></path>
    </defs>
    <g id="Icons/Notification/phone-in-talk" stroke="none" stroke-width="1" fill="none" fill-rule="evenodd">
        <mask id="mask-2" fill="white">
            <use xlink:href="#path-1"></use>
        </mask>
        <use id="Icons/Notification/ic_phone_in_talk_24px" fill="#233745" fill-rule="nonzero" xlink:href="#path-1"></use>
    </g>
</svg>