<?xml version="1.0" encoding="UTF-8"?>
<svg width="16px" height="16px" viewBox="0 0 16 16" version="1.1" xmlns="http://www.w3.org/2000/svg" xmlns:xlink="http://www.w3.org/1999/xlink">
    <title>Icons/Notification/sms</title>
    <g id="Icons/Notification/sms" stroke="none" stroke-width="1" fill="none" fill-rule="evenodd">
        <rect id="Spacer" fill-opacity="0" fill="#D8D8D8" x="0" y="0" width="16" height="16"></rect>
        <path d="M13.3333333,1.33333329 L2.66666663,1.33333329 C1.9333333,1.33333329 1.33999996,1.9333333 1.33999996,2.66666663 L1.33333329,14.6666667 L3.99999998,12 L13.3333333,12 C14.0666667,12 14.6666667,11.4 14.6666667,10.6666667 L14.6666667,2.66666663 C14.6666667,1.9333333 14.0666667,1.33333329 13.3333333,1.33333329 Z M5.99999999,7.33333333 L4.66666665,7.33333333 L4.66666665,5.99999999 L5.99999999,5.99999999 L5.99999999,7.33333333 Z M8.66666667,7.33333333 L7.33333333,7.33333333 L7.33333333,5.99999999 L8.66666667,5.99999999 L8.66666667,7.33333333 Z M11.3333334,7.33333333 L10,7.33333333 L10,5.99999999 L11.3333334,5.99999999 L11.3333334,7.33333333 Z" id="Icons/Notification/ic_sms_24px" fill="#233745" fill-rule="nonzero"></path>
    </g>
</svg>