<svg xmlns="http://www.w3.org/2000/svg" xmlns:xlink="http://www.w3.org/1999/xlink" width="16" height="16" viewBox="0 0 16 16">
  <defs>
    <path id="sync-disabled-a" d="M6.66666666,4.23333331 L6.66666666,2.83999997 C6.13333332,2.97999997 5.63333332,3.19999997 5.17999998,3.47999997 L6.15333332,4.45333331 C6.31999999,4.37333331 6.48666666,4.29333331 6.66666666,4.23333331 Z M1.90666663,3.60666664 L3.47999997,5.17999998 C2.96666664,5.99333332 2.66666663,6.95999999 2.66666663,8 C2.66666663,9.47333334 3.2733333,10.8 4.23999998,11.76 L2.66666663,13.3333334 L6.66666666,13.3333334 L6.66666666,9.33333334 L5.17333332,10.8266667 C4.45333331,10.1 3.99999997,9.10666667 3.99999997,8 C3.99999997,7.33333333 4.16666664,6.70666666 4.45333331,6.15333332 L9.84000001,11.54 C9.67333334,11.6266667 9.50666668,11.7066667 9.32666667,11.7666667 L9.32666667,13.16 C9.86000001,13.02 10.36,12.8 10.8133334,12.52 L12.3866667,14.0933334 L13.2333334,13.2466667 L2.75999997,2.75999997 L1.90666663,3.60666664 Z M13.3333333,2.66666663 L9.33333334,2.66666663 L9.33333334,6.66666663 L10.8266667,5.17333332 C11.5466667,5.89999999 12,6.89333333 12,8 C12,8.66666663 11.8333333,9.29333334 11.5466667,9.84666668 L12.52,10.82 C13.0333334,10.0066667 13.3333333,9.04000001 13.3333333,8 C13.3333333,6.52666666 12.7266667,5.19999998 11.76,4.23999998 L13.3333333,2.66666663 Z"/>
  </defs>
  <g fill="none" fill-rule="evenodd">
    <mask id="sync-disabled-b" fill="#fff">
      <use xlink:href="#sync-disabled-a"/>
    </mask>
    <g fill="CurrentColor" mask="url(#sync-disabled-b)">
      <rect width="16" height="16"/>
    </g>
  </g>
</svg>
