<?xml version="1.0" encoding="UTF-8"?>
<svg width="16px" height="16px" viewBox="0 0 16 16" version="1.1" xmlns="http://www.w3.org/2000/svg" xmlns:xlink="http://www.w3.org/1999/xlink">
    <title>Icons/Notification/sync-problem</title>
    <g id="Icons/Notification/sync-problem" stroke="none" stroke-width="1" fill="none" fill-rule="evenodd">
        <rect id="Spacer" fill-opacity="0" fill="#D8D8D8" x="0" y="0" width="16" height="16"></rect>
        <path d="M1.99999996,8 C1.99999996,9.47333334 2.60666663,10.8 3.57333331,11.76 L1.99999996,13.3333334 L5.99999996,13.3333334 L5.99999996,9.33333334 L4.50666664,10.8266667 C3.78666664,10.1 3.3333333,9.10666667 3.3333333,8 C3.3333333,6.25999999 4.44666664,4.77999998 5.99999996,4.23333331 L5.99999996,2.83999997 C3.69999997,3.4333333 1.99999996,5.51333332 1.99999996,8 Z M7.33333333,11.3333334 L8.66666667,11.3333334 L8.66666667,10 L7.33333333,10 L7.33333333,11.3333334 Z M14,2.66666663 L10,2.66666663 L10,6.66666663 L11.4933334,5.17333332 C12.2133334,5.89999999 12.6666667,6.89333333 12.6666667,8 C12.6666667,9.74000001 11.5533334,11.22 10,11.7666667 L10,13.16 C12.3,12.5666667 14,10.4866667 14,8 C14,6.52666666 13.3933334,5.19999998 12.4266667,4.23999998 L14,2.66666663 Z M7.33333333,8.66666665 L8.66666667,8.66666665 L8.66666667,4.66666665 L7.33333333,4.66666665 L7.33333333,8.66666665 Z" id="Icons/Notification/ic_sync_problem_24px" fill="#233745" fill-rule="nonzero"></path>
    </g>
</svg>