<?xml version="1.0" encoding="UTF-8"?>
<svg width="16px" height="16px" viewBox="0 0 16 16" version="1.1" xmlns="http://www.w3.org/2000/svg" xmlns:xlink="http://www.w3.org/1999/xlink">
    <title>Icons/Notification/tap-and-play</title>
    <g id="Icons/Notification/tap-and-play" stroke="none" stroke-width="1" fill="none" fill-rule="evenodd">
        <rect id="Spacer" fill-opacity="0" fill="#D8D8D8" x="0" y="0" width="16" height="16"></rect>
        <path d="M1.33333329,10.6666667 L1.33333329,12 C3.1733333,12 4.66666665,13.4933334 4.66666665,15.3333334 L5.99999999,15.3333334 C5.99999999,12.7533334 3.91333331,10.6666667 1.33333329,10.6666667 Z M1.33333329,13.3333334 L1.33333329,15.3333334 L3.33333329,15.3333334 C3.33333329,14.2266667 2.43999997,13.3333334 1.33333329,13.3333334 Z M1.33333329,8 L1.33333329,9.33333334 C4.64666665,9.33333334 7.33333329,12.02 7.33333329,15.3333334 L8.66666667,15.3333334 C8.66666667,11.28 5.38666665,8 1.33333329,8 Z M11.3333333,0.673333288 L4.66666665,0.666666621 C3.93333331,0.666666621 3.3333333,1.26666662 3.3333333,1.99999996 L3.3333333,6.91333333 C3.79333331,7.01999999 4.23999998,7.15999999 4.66666665,7.34 L4.66666665,3.3333333 L11.3333333,3.3333333 L11.3333333,12 L9.31333334,12 C9.66000001,12.8333334 9.87333335,13.7266667 9.94666668,14.6666666 L11.3333333,14.6666666 C12.0666667,14.6666666 12.6666667,14.0666667 12.6666667,13.3333334 L12.6666667,1.99999996 C12.6666667,1.26666662 12.0666667,0.673333288 11.3333333,0.673333288 Z" id="Icons/Notification/ic_tap_and_play_24px" fill="#233745" fill-rule="nonzero"></path>
    </g>
</svg>