<?xml version="1.0" encoding="UTF-8"?>
<svg width="16px" height="16px" viewBox="0 0 16 16" version="1.1" xmlns="http://www.w3.org/2000/svg" xmlns:xlink="http://www.w3.org/1999/xlink">
    <title>Icons/Notification/time-to-leave</title>
    <g id="Icons/Notification/time-to-leave" stroke="none" stroke-width="1" fill="none" fill-rule="evenodd">
        <rect id="Spacer" fill-opacity="0" fill="#D8D8D8" x="0" y="0" width="16" height="16"></rect>
        <path d="M12.6133334,3.33999997 C12.48,2.94666664 12.1066667,2.66666663 11.6666667,2.66666663 L4.33333331,2.66666663 C3.89333331,2.66666663 3.52666664,2.94666664 3.38666664,3.33999997 L1.99999996,7.33333333 L1.99999996,12.6666666 C1.99999996,13.0333334 2.29999996,13.3333334 2.66666663,13.3333334 L3.3333333,13.3333334 C3.69999997,13.3333334 3.99999996,13.0333334 3.99999996,12.6666666 L3.99999996,12 L12,12 L12,12.6666666 C12,13.0333334 12.3,13.3333334 12.6666667,13.3333334 L13.3333334,13.3333334 C13.7,13.3333334 14,13.0333334 14,12.6666666 L14,7.33333333 L12.6133334,3.33999997 Z M4.3333333,10 C3.77999997,10 3.3333333,9.55333334 3.3333333,9 C3.3333333,8.44666667 3.77999997,8 4.3333333,8 C4.88666665,8 5.3333333,8.44666667 5.3333333,9 C5.3333333,9.55333334 4.88666665,10 4.3333333,10 Z M11.6666667,10 C11.1133334,10 10.6666667,9.55333334 10.6666667,9 C10.6666667,8.44666667 11.1133334,8 11.6666667,8 C12.22,8 12.6666667,8.44666667 12.6666667,9 C12.6666667,9.55333334 12.22,10 11.6666667,10 Z M3.3333333,6.66666664 L4.3333333,3.66666664 L11.6666667,3.66666664 L12.6666667,6.66666664 L3.3333333,6.66666664 Z" id="Icons/Notification/ic_time_to_leave_24px" fill="#233745" fill-rule="nonzero"></path>
    </g>
</svg>