<?xml version="1.0" encoding="UTF-8"?>
<svg width="16px" height="16px" viewBox="0 0 16 16" version="1.1" xmlns="http://www.w3.org/2000/svg" xmlns:xlink="http://www.w3.org/1999/xlink">
    <title>Icons/Notification/vibration</title>
    <g id="Icons/Notification/vibration" stroke="none" stroke-width="1" fill="none" fill-rule="evenodd">
        <rect id="Spacer" fill-opacity="0" fill="#D8D8D8" x="0" y="0" width="16" height="16"></rect>
        <path d="M-5.00000006e-08,9.77777779 L0.888888844,9.77777779 L0.888888844,6.22222221 L-5.00000006e-08,6.22222221 L-5.00000006e-08,9.77777779 Z M1.77777774,11.5555556 L2.66666663,11.5555556 L2.66666663,4.44444442 L1.77777774,4.44444442 L1.77777774,11.5555556 Z M15.1111112,6.22222221 L15.1111112,9.77777779 L16.0000001,9.77777779 L16.0000001,6.22222221 L15.1111112,6.22222221 Z M13.3333334,11.5555556 L14.2222223,11.5555556 L14.2222223,4.44444442 L13.3333334,4.44444442 L13.3333334,11.5555556 Z M11.1111111,1.77777774 L4.88888887,1.77777774 C4.15111109,1.77777774 3.55555553,2.3733333 3.55555553,3.11111108 L3.55555553,12.8888889 C3.55555553,13.6266667 4.15111109,14.2222223 4.88888887,14.2222223 L11.1111111,14.2222223 C11.8488889,14.2222223 12.4444445,13.6266667 12.4444445,12.8888889 L12.4444445,3.11111108 C12.4444445,2.3733333 11.8488889,1.77777774 11.1111111,1.77777774 Z M11.1111111,12.8888889 L4.88888887,12.8888889 L4.88888887,3.11111108 L11.1111111,3.11111108 L11.1111111,12.8888889 Z" id="Icons/Notification/ic_vibration_18px" fill="#233745" fill-rule="nonzero"></path>
    </g>
</svg>