<?xml version="1.0" encoding="UTF-8"?>
<svg width="16px" height="16px" viewBox="0 0 16 16" version="1.1" xmlns="http://www.w3.org/2000/svg" xmlns:xlink="http://www.w3.org/1999/xlink">
    <title>Icons/Notification/vpn-lock</title>
    <g id="Icons/Notification/vpn-lock" stroke="none" stroke-width="1" fill="none" fill-rule="evenodd">
        <rect id="Spacer" fill-opacity="0" fill="#D8D8D8" x="0" y="0" width="16" height="16"></rect>
        <path d="M14.6666667,2.66666662 L14.6666667,2.3333333 C14.6666667,1.41333329 13.92,0.666666621 13,0.666666621 C12.08,0.666666621 11.3333334,1.41333329 11.3333334,2.3333333 L11.3333334,2.66666662 C10.9666667,2.66666662 10.6666667,2.96666664 10.6666667,3.3333333 L10.6666667,5.99999999 C10.6666667,6.36666666 10.9666667,6.66666662 11.3333334,6.66666662 L14.6666667,6.66666662 C15.0333334,6.66666662 15.3333334,6.36666666 15.3333334,5.99999999 L15.3333334,3.3333333 C15.3333334,2.96666664 15.0333334,2.66666662 14.6666667,2.66666662 Z M14.1333334,2.66666663 L11.8666667,2.66666663 L11.8666667,2.3333333 C11.8666667,1.70666663 12.3733334,1.19999996 13,1.19999996 C13.6266667,1.19999996 14.1333334,1.70666663 14.1333334,2.3333333 L14.1333334,2.66666663 Z M12.6133334,7.99999996 C12.64,8.22 12.6666666,8.44 12.6666666,8.66666667 C12.6666666,10.0533333 12.1333334,11.3133334 11.2666667,12.26 C11.0933334,11.72 10.6,11.3333334 10,11.3333334 L9.33333334,11.3333334 L9.33333334,9.33333334 C9.33333334,8.96666667 9.03333334,8.66666667 8.66666662,8.66666667 L4.66666662,8.66666667 L4.66666662,7.33333333 L5.99999999,7.33333333 C6.36666666,7.33333333 6.66666662,7.03333333 6.66666662,6.66666666 L6.66666662,5.33333332 L8,5.33333332 C8.73333334,5.33333332 9.33333334,4.73333331 9.33333334,3.99999996 L9.33333334,2.30666663 C8.7,2.10666663 8.03333333,1.99999996 7.33333333,1.99999996 C3.65333331,1.99999996 0.666666621,4.98666665 0.666666621,8.66666667 C0.666666621,12.3466667 3.65333331,15.3333334 7.33333333,15.3333334 C11.0133334,15.3333334 14,12.3466667 14,8.66666667 C14,8.44 13.9866667,8.22 13.9666667,7.99999996 L12.6133334,7.99999996 Z M6.66666666,13.9533334 C4.03333331,13.6266667 1.99999996,11.3866667 1.99999996,8.66666667 C1.99999996,8.25333333 2.0533333,7.86 2.13999996,7.47333333 L5.33333332,10.6666667 L5.33333332,11.3333334 C5.33333332,12.0666667 5.93333332,12.6666667 6.66666666,12.6666667 L6.66666666,13.9533334 Z" id="Icons/Notification/ic_vpn_lock_24px" fill="#233745" fill-rule="nonzero"></path>
    </g>
</svg>