<?xml version="1.0" encoding="UTF-8"?>
<svg width="16px" height="16px" viewBox="0 0 16 16" version="1.1" xmlns="http://www.w3.org/2000/svg" xmlns:xlink="http://www.w3.org/1999/xlink">
    <title>Icons/Notification/wc</title>
    <g id="Icons/Notification/wc" stroke="none" stroke-width="1" fill="none" fill-rule="evenodd">
        <rect id="Spacer" fill-opacity="0" fill="#D8D8D8" x="0" y="0" width="16" height="16"></rect>
        <path d="M3.66666663,14.6666666 L3.66666663,9.66666665 L2.66666663,9.66666665 L2.66666663,5.99999999 C2.66666663,5.26666665 3.26666664,4.66666665 3.99999997,4.66666665 L5.99999999,4.66666665 C6.73333333,4.66666665 7.33333333,5.26666665 7.33333333,5.99999999 L7.33333333,9.66666665 L6.33333332,9.66666665 L6.33333332,14.6666666 L3.66666663,14.6666666 Z M12,14.6666666 L12,10.6666666 L14,10.6666666 L12.3066667,5.57999998 C12.12,5.03333331 11.6133334,4.66666665 11.04,4.66666665 L10.96,4.66666665 C10.3866667,4.66666665 9.87333335,5.03333331 9.69333334,5.57999998 L8,10.6666666 L10,10.6666666 L10,14.6666666 L12,14.6666666 Z M4.99999998,3.99999998 C5.73999999,3.99999998 6.33333332,3.40666664 6.33333332,2.66666663 C6.33333332,1.92666663 5.73999999,1.33333329 4.99999998,1.33333329 C4.25999998,1.33333329 3.66666664,1.92666663 3.66666664,2.66666663 C3.66666664,3.40666664 4.25999998,3.99999998 4.99999998,3.99999998 Z M11,3.99999998 C11.74,3.99999998 12.3333334,3.40666664 12.3333334,2.66666663 C12.3333334,1.92666663 11.74,1.33333329 11,1.33333329 C10.26,1.33333329 9.66666668,1.92666663 9.66666668,2.66666663 C9.66666668,3.40666664 10.26,3.99999998 11,3.99999998 Z" id="Icons/Notification/ic_wc_24px" fill="#233745" fill-rule="nonzero"></path>
    </g>
</svg>