<svg xmlns="http://www.w3.org/2000/svg" xmlns:xlink="http://www.w3.org/1999/xlink" width="16" height="16" viewBox="0 0 16 16">
  <defs>
    <path id="apps-a" d="M1.77777774,8.88888889 L4.44444442,8.88888889 L4.44444442,6.22222221 L1.77777774,6.22222221 L1.77777774,8.88888889 Z M1.77777774,4.44444442 L4.44444442,4.44444442 L4.44444442,1.77777774 L1.77777774,1.77777774 L1.77777774,4.44444442 Z M1.77777774,13.3333334 L4.44444442,13.3333334 L4.44444442,10.6666667 L1.77777774,10.6666667 L1.77777774,13.3333334 Z M6.22222221,13.3333334 L8.88888889,13.3333334 L8.88888889,10.6666667 L6.22222221,10.6666667 L6.22222221,13.3333334 Z M10.6666667,8.88888889 L13.3333334,8.88888889 L13.3333334,6.22222221 L10.6666667,6.22222221 L10.6666667,8.88888889 Z M6.22222221,8.88888889 L8.88888889,8.88888889 L8.88888889,6.22222221 L6.22222221,6.22222221 L6.22222221,8.88888889 Z M10.6666667,13.3333334 L13.3333334,13.3333334 L13.3333334,10.6666667 L10.6666667,10.6666667 L10.6666667,13.3333334 Z M10.6666667,1.77777774 L10.6666667,4.44444442 L13.3333334,4.44444442 L13.3333334,1.77777774 L10.6666667,1.77777774 Z M6.22222221,4.44444442 L8.88888889,4.44444442 L8.88888889,1.77777774 L6.22222221,1.77777774 L6.22222221,4.44444442 Z"/>
  </defs>
  <g fill="none" fill-rule="evenodd">
    <mask id="apps-b" fill="#fff">
      <use xlink:href="#apps-a"/>
    </mask>
    <g fill="CurrentColor" mask="url(#apps-b)">
      <rect width="16" height="16"/>
    </g>
  </g>
</svg>
