<?xml version="1.0" encoding="UTF-8"?>
<svg width="16px" height="16px" viewBox="0 0 16 16" version="1.1" xmlns="http://www.w3.org/2000/svg" xmlns:xlink="http://www.w3.org/1999/xlink">
    <title>Icons/Navigation/fullscreen-exit</title>
    <g id="Icons/Navigation/fullscreen-exit" stroke="none" stroke-width="1" fill="none" fill-rule="evenodd">
        <rect id="Spacer" fill-opacity="0" fill="#D8D8D8" x="0" y="0" width="16" height="16"></rect>
        <path d="M2.66666663,11.1111111 L4.88888887,11.1111111 L4.88888887,13.3333334 L6.22222221,13.3333334 L6.22222221,9.77777779 L2.66666663,9.77777779 L2.66666663,11.1111111 Z M4.88888887,4.88888887 L2.66666663,4.88888887 L2.66666663,6.22222221 L6.22222221,6.22222221 L6.22222221,2.66666663 L4.88888887,2.66666663 L4.88888887,4.88888887 Z M9.77777779,13.3333334 L11.1111111,13.3333334 L11.1111111,11.1111111 L13.3333334,11.1111111 L13.3333334,9.77777779 L9.77777779,9.77777779 L9.77777779,13.3333334 Z M11.1111111,4.88888887 L11.1111111,2.66666663 L9.77777779,2.66666663 L9.77777779,6.22222221 L13.3333334,6.22222221 L13.3333334,4.88888887 L11.1111111,4.88888887 Z" id="Icons/Navigation/ic_fullscreen_exit_18px" fill="#233745" fill-rule="nonzero"></path>
    </g>
</svg>