<?xml version="1.0" encoding="UTF-8"?>
<svg width="16px" height="16px" viewBox="0 0 16 16" version="1.1" xmlns="http://www.w3.org/2000/svg" xmlns:xlink="http://www.w3.org/1999/xlink">
    <title>Icons/Navigation/more-horiz</title>
    <defs>
        <path d="M3.55555553,6.66666666 C2.81777775,6.66666666 2.22222219,7.26222222 2.22222219,8 C2.22222219,8.73777778 2.81777775,9.33333334 3.55555553,9.33333334 C4.29333331,9.33333334 4.88888887,8.73777778 4.88888887,8 C4.88888887,7.26222222 4.29333331,6.66666666 3.55555553,6.66666666 Z M12.4444445,6.66666666 C11.7066667,6.66666666 11.1111111,7.26222222 11.1111111,8 C11.1111111,8.73777778 11.7066667,9.33333334 12.4444445,9.33333334 C13.1822223,9.33333334 13.7777778,8.73777778 13.7777778,8 C13.7777778,7.26222222 13.1822223,6.66666666 12.4444445,6.66666666 Z M8,6.66666666 C7.26222222,6.66666666 6.66666666,7.26222222 6.66666666,8 C6.66666666,8.73777778 7.26222222,9.33333334 8,9.33333334 C8.73777778,9.33333334 9.33333334,8.73777778 9.33333334,8 C9.33333334,7.26222222 8.73777778,6.66666666 8,6.66666666 Z" id="path-1"></path>
    </defs>
    <g id="Icons/Navigation/more-horiz" stroke="none" stroke-width="1" fill="none" fill-rule="evenodd">
        <mask id="mask-2" fill="white">
            <use xlink:href="#path-1"></use>
        </mask>
        <use id="Icons/Navigation/ic_more_horiz_18px" fill="#233745" fill-rule="nonzero" xlink:href="#path-1"></use>
    </g>
</svg>