<?xml version="1.0" encoding="UTF-8"?>
<svg width="16px" height="16px" viewBox="0 0 16 16" version="1.1" xmlns="http://www.w3.org/2000/svg" xmlns:xlink="http://www.w3.org/1999/xlink">
    <title>Icons/Navigation/refresh</title>
    <g id="Icons/Navigation/refresh" stroke="none" stroke-width="1" fill="none" fill-rule="evenodd">
        <rect id="Spacer" fill-opacity="0" fill="#D8D8D8" x="0" y="0" width="16" height="16"></rect>
        <path d="M8,12 C5.78666665,12 3.99999997,10.2133333 3.99999997,8 C3.99999997,5.78666665 5.78666665,3.99999998 8,3.99999998 C9.10222223,3.99999998 10.0977778,4.4622222 10.8177778,5.1822222 L8.88888889,7.11111111 L13.3333334,7.11111111 L13.3333334,2.66666663 L11.7688889,4.23111109 C10.8,3.27111108 9.47555556,2.66666663 8,2.66666663 C5.05777776,2.66666663 2.67555552,5.05777776 2.67555552,8 C2.67555552,10.9422222 5.05777776,13.3333334 8,13.3333334 C10.64,13.3333334 12.8266667,11.4133334 13.2444445,8.88888889 L11.8933334,8.88888889 C11.4844445,10.6666666 9.90222223,12 8,12 Z" id="Icons/Navigation/ic_refresh_18px" fill="#233745" fill-rule="nonzero"></path>
    </g>
</svg>