<svg viewBox="0 0 727 127" xmlns="http://www.w3.org/2000/svg"><g fill="none" fill-rule="evenodd"><path stroke="#B8C7D2" fill="#FFF" d="M1.5.5h725v96H1.5z"/><rect stroke="#B8C7D2" fill="#FFF" x="181.5" y="40.5" width="17" height="17" rx="3"/><rect stroke="#3A8FDD" stroke-width="2" fill="#FFF" x="299" y="40" width="18" height="18" rx="3"/><g transform="translate(456 41)"><rect stroke="#1B76CD" fill="#2A77C7" x="-.5" y="-.5" width="17" height="17" rx="3"/><path d="M11.822 4c1.05-.027 1.574 1.304.827 2.08l-5.351 5.66a.83.83 0 0 1-1.207 0L3.376 8.855c-1.128-1.137.538-2.899 1.614-1.706l1.508 1.595c.105.11.288.11.407 0l4.13-4.37A1.1 1.1 0 0 1 11.823 4z" fill="#FFF"/></g><text font-family="Lato-Medium, Lato" font-size="14" font-weight="400" fill="#3E5667"><tspan x="208" y="54">Default</tspan></text><text font-family="Lato-Medium, Lato" font-size="14" font-weight="400" fill="#3E5667"><tspan x="326" y="54">Hover/Active</tspan></text><text transform="translate(482 40)" fill="#3E5667" font-family="Lato-Medium, Lato" font-size="14" font-weight="400"><tspan x="0" y="14">Checked</tspan></text><text font-family="Lato-Semibold, Lato" font-size="15" font-weight="500" fill="#3E5667"><tspan x=".5" y="126">The Checkbox States.</tspan></text></g></svg>