<svg xmlns="http://www.w3.org/2000/svg" xmlns:xlink="http://www.w3.org/1999/xlink" viewBox="0 0 726 509"><defs><path id="c" d="M.23333332.23333331V6.7666667L5.3666667 3.5z"/><path d="M.31111108 9.95555558H10.8888889L5.6.62222219.31111108 9.95555558zm5.91111115-1.24444445H4.97777777V7.46666668h1.24444446v1.24444445zm0-1.86666668H4.97777777v-2.4888889h1.24444446v2.4888889z" id="d"/><path d="M9.33333336.9333333H1.86666664c-.51333333 0-.92866667.42000001-.92866667.93333334L.9333333 10.2666667l1.86666668-1.86666668h6.53333338c.51333333 0 .93333334-.42000001.93333334-.93333334V1.86666664c0-.51333333-.42000001-.93333334-.93333334-.93333334zM2.79999998 4.2h5.60000004v.93333334H2.79999998v-.93333334zm3.73333336 2.33333335H2.79999998V5.6h3.73333336v.93333334zm1.86666668-2.80000002H2.79999998v-.93333334h5.60000004v.93333334z" id="f"/><path d="M7.93333335.4713333L3.26666665.46666663c-.51333333 0-.92866667.42-.92866667.93333334v8.40000006c0 .51333337.41533334.93333337.92866667.93333337h4.6666667c.51333333 0 .93333334-.42.93333334-.93333337V1.39999997c0-.51333333-.42000001-.92866667-.93333334-.92866667zm0 8.39533339h-4.6666667V2.33333331h4.6666667v6.53333338z" id="h"/><path d="M9.33333336 1.86666664H1.86666664c-.51333333 0-.92866667.42000001-.92866667.93333334L.9333333 8.40000002c0 .51333333.42000001.93333334.93333334.93333334h7.46666672c.51333333 0 .93333334-.42000001.93333334-.93333334V2.79999998c0-.51333333-.42000001-.93333334-.93333334-.93333334zm0 1.86666668L5.6 6.06666667 1.86666664 3.73333332v-.93333334L5.6 5.13333333l3.73333336-2.33333335v.93333334z" id="j"/><filter x="-1.6%" y="-.8%" width="103.2%" height="102.2%" filterUnits="objectBoundingBox" id="a"><feMorphology radius=".7" operator="dilate" in="SourceAlpha" result="shadowSpreadOuter1"/><feOffset dy="1" in="shadowSpreadOuter1" result="shadowOffsetOuter1"/><feGaussianBlur stdDeviation="1" in="shadowOffsetOuter1" result="shadowBlurOuter1"/><feComposite in="shadowBlurOuter1" in2="SourceAlpha" operator="out" result="shadowBlurOuter1"/><feColorMatrix values="0 0 0 0 0 0 0 0 0 0 0 0 0 0 0 0 0 0 0.138958698 0" in="shadowBlurOuter1"/></filter><rect id="b" x="0" y="0" width="259" height="384.3" rx="2.1"/></defs><g fill="none" fill-rule="evenodd"><path stroke="#B8C7D2" fill="#FFF" d="M.5.5h725v474H.5z"/><g transform="translate(233 40)"><use fill="#000" filter="url(#a)" xlink:href="#b"/><rect stroke="#E2E9EE" stroke-width=".7" fill="#F8FAFC" x="-.35" y="-.35" width="259.7" height="385" rx="2.1"/></g><path d="M232.65 239.85h259.7V432c0 1.353098-1.096902 2.45-2.45 2.45H235.1c-1.35309764 0-2.45-1.096902-2.45-2.45V239.85z" stroke="#E2E9EE" stroke-width=".7" fill="#FFF"/><path stroke="#E2E9EE" stroke-width=".7" stroke-dasharray="2.8" d="M249.8 337.5h225.4"/><g transform="translate(249.1 393.5)"><rect stroke="#B8C7D2" stroke-width=".7" fill="#FFF" x=".35" y=".35" width="62.3" height="23.1" rx="2.1"/><use fill="#60B255" fill-rule="nonzero" xlink:href="#c" transform="translate(9.1 8.4)"/><path d="M20.9237 15.4v-2.842h.637c.1306667 0 .2286667.0179667.294.0539.0653333.0359333.1257667.0947333.1813.1764l1.6464 2.3765c.0914667.1568.2384667.2352.441.2352h1.0241l-1.9061-2.6901c-.1012667-.1535333-.2221333-.2727667-.3626-.3577.2580667-.0718667.4883667-.1715.6909-.2989.2025333-.1274.3732167-.2776667.51205-.4508s.245-.3658667.3185-.5782c.0735-.2123333.11025-.441.11025-.686 0-.3005333-.05145-.5733-.15435-.8183-.1029-.245-.26215-.45488333-.47775-.62965-.2156-.17476667-.4908167-.30951667-.82565-.40425s-.7341833-.1421-1.19805-.1421h-2.0776V15.4h1.1466zm.9016-3.675h-.9016V9.2407h.931c.5161333 0 .9016.10126667 1.1564.3038.2548.20253333.3822.4965333.3822.882 0 .1927333-.0326667.3683167-.098.52675-.0653333.1584333-.1633333.2948167-.294.40915-.1306667.1143333-.294.20335-.49.26705s-.4246667.09555-.686.09555zm5.8016 3.7485c.1764 0 .3577-.0138833.5439-.04165.1862-.0277667.3675-.0735.5439-.1372.1764-.0637.343-.1461833.4998-.24745.1568-.1012667.2972667-.2254.4214-.3724l-.2989-.3871c-.0457333-.0653333-.1110667-.098-.196-.098-.0653333 0-.1372.0236833-.2156.07105-.0784.0473667-.1731333.0996333-.2842.1568-.1110667.0571667-.2417333.1094333-.392.1568s-.3283.07105-.5341.07105c-.2156 0-.4107833-.0334833-.58555-.10045-.1747667-.0669667-.3250333-.16905-.4508-.30625-.1257667-.1372-.2262167-.3095167-.30135-.51695-.0751333-.2074333-.1192333-.45325-.1323-.73745h3.2095c.0947333 0 .1600667-.0277667.196-.0833s.0539-.1649667.0539-.3283c0-.3560667-.0530833-.67375-.15925-.95305s-.2539833-.5153167-.44345-.70805-.4148667-.3389167-.6762-.43855c-.2613333-.0996333-.5455333-.14945-.8526-.14945-.3691333 0-.6998833.0645167-.99225.19355-.2923667.1290333-.5406333.3046167-.7448.52675-.2041667.2221333-.3609667.4834667-.4704.784-.1094333.3005333-.16415.6239333-.16415.9702 0 .4344667.06125.8183.18375 1.1515.1225.3332.2923667.6125.5096.8379.2172333.2254.4736667.3960833.7693.51205.2956333.1159667.6165833.17395.96285.17395zm1.1319-3.136h-2.4843c.0588-.3952667.1976333-.7023333.4165-.9212.2188667-.2188667.5194-.3283.9016-.3283.1894667 0 .3568833.03185.50225.09555.1453667.0637.26705.1519.36505.2646.098.1127.1723167.245.22295.3969.0506333.1519.07595.31605.07595.49245zm3.2683 3.1409c.3136 0 .5920833-.0408333.83545-.1225.2433667-.0816667.4467167-.196.61005-.343.1633333-.147.2874667-.3201333.3724-.5194.0849333-.1992667.1274-.4165.1274-.6517 0-.2025333-.0359333-.37485-.1078-.51695s-.1666-.2629667-.2842-.3626c-.1176-.0996333-.2515333-.18375-.4018-.25235-.1502667-.0686-.3038-.1290333-.4606-.1813s-.3103333-.1012667-.4606-.147c-.1502667-.0457333-.2842-.0971833-.4018-.15435-.1176-.0571667-.2123333-.12495-.2842-.20335s-.1078-.1764-.1078-.294c0-.0882.0196-.1706833.0588-.24745s.09555-.1437333.16905-.2009c.0735-.0571667.1633333-.1012667.2695-.1323.1061667-.0310333.2245833-.04655.35525-.04655.1600667 0 .2997167.01715.41895.05145.1192333.0343.22295.0726833.31115.11515.0882.0424667.1649667.08085.2303.11515.0653333.0343.1257667.05145.1813.05145.049 0 .0898333-.0098.1225-.0294.0326667-.0196.0620667-.0522667.0882-.098l.2352-.3822c-.1862-.1862-.4165-.3332-.6909-.441s-.5798333-.1617-.9163-.1617c-.2972667 0-.5594167.0400167-.78645.12005s-.4181333.18865-.5733.32585c-.1551667.1372-.2727667.2956333-.3528.4753-.0800333.1796667-.12005.3691333-.12005.5684 0 .2188667.0359333.40425.1078.55615.0718667.1519.1674167.2809333.28665.3871.1192333.1061667.2548.19355.4067.26215.1519.0686.30625.1290333.46305.1813s.31115.1012667.46305.147c.1519.0457333.2874667.098.4067.1568.1192333.0588.2147833.1290333.28665.2107.0718667.0816667.1078.1862.1078.3136 0 .0947333-.0179667.18375-.0539.26705-.0359333.0833-.0914667.1576167-.1666.22295-.0751333.0653333-.1698667.1167833-.2842.15435-.1143333.0375667-.2499.05635-.4067.05635-.1894667 0-.3479-.02205-.4753-.06615s-.2360167-.0922833-.32585-.14455c-.0898333-.0522667-.1682333-.10045-.2352-.14455-.0669667-.0441-.13475-.06615-.20335-.06615-.0653333 0-.12005.0138833-.16415.04165-.0441.0277667-.08085.06615-.11025.11515l-.245.4018c.098.0882.2098833.1698667.33565.245.1257667.0751333.2613333.13965.4067.19355.1453667.0539.2989.0963667.4606.1274.1617.0310333.3291167.04655.50225.04655zm4.5668 0c.1698667 0 .3291167-.0179667.47775-.0539.1486333-.0359333.2882833-.0865667.41895-.1519.1306667-.0653333.2539833-.1437333.36995-.2352.1159667-.0914667.2262167-.1927333.33075-.3038l.0784.4655c.0392.1339333.1290333.2009.2695.2009h.637v-4.998h-1.0535v3.6456c-.1764.1862-.36505.3323833-.56595.43855-.2009.1061667-.4173167.15925-.64925.15925-.3168667 0-.5528833-.0931-.70805-.2793-.1551667-.1862-.23275-.4475333-.23275-.784V10.402h-1.0535v3.1801c0 .2809333.0359333.5381833.1078.77175.0718667.2335667.17885.43365.32095.60025.1421.1666.3176833.2956333.52675.3871.2090667.0914667.4508.1372.7252.1372zm4.9196-.0784v-3.6848c.1404667-.1731333.294-.3095167.4606-.40915.1666-.0996333.3479-.14945.5439-.14945.2842 0 .4998.08575.6468.25725.147.1715.2205.4401833.2205.80605V15.4h1.0535v-3.1801c0-.1764.0253167-.33075.07595-.46305.0506333-.1323.12005-.24255.20825-.33075.0882-.0882.1911-.1551667.3087-.2009.1176-.0457333.2433667-.0686.3773-.0686.2972667 0 .52185.0890167.67375.26705.1519.1780333.22785.44345.22785.79625V15.4h1.0535v-3.1801c0-.3005333-.0375667-.5684-.1127-.8036-.0751333-.2352-.1853833-.43365-.33075-.59535-.1453667-.1617-.3234-.2850167-.5341-.36995-.2107-.0849333-.4499833-.1274-.71785-.1274-.1633333 0-.3242167.0187833-.48265.05635-.1584333.0375667-.3078833.09555-.44835.17395s-.2678667.1796667-.3822.3038c-.1143333.1241333-.2090667.2727667-.2842.4459-.049-.1502667-.1110667-.2858333-.1862-.4067s-.16415-.2237667-.26705-.3087c-.1029-.0849333-.2213167-.1502667-.35525-.196-.1339333-.0457333-.2809333-.0686-.441-.0686-.1502667 0-.2899167.0179667-.41895.0539-.1290333.0359333-.2499.08575-.3626.14945-.1127.0637-.21805.1388333-.31605.2254s-.1927333.1821167-.2842.28665l-.0686-.4361c-.0392-.1339333-.1306667-.2009-.2744-.2009h-.637V15.4h1.0535zm9.2316.0735c.1764 0 .3577-.0138833.5439-.04165.1862-.0277667.3675-.0735.5439-.1372.1764-.0637.343-.1461833.4998-.24745.1568-.1012667.2972667-.2254.4214-.3724l-.2989-.3871c-.0457333-.0653333-.1110667-.098-.196-.098-.0653333 0-.1372.0236833-.2156.07105-.0784.0473667-.1731333.0996333-.2842.1568-.1110667.0571667-.2417333.1094333-.392.1568s-.3283.07105-.5341.07105c-.2156 0-.4107833-.0334833-.58555-.10045-.1747667-.0669667-.3250333-.16905-.4508-.30625-.1257667-.1372-.2262167-.3095167-.30135-.51695-.0751333-.2074333-.1192333-.45325-.1323-.73745h3.2095c.0947333 0 .1600667-.0277667.196-.0833s.0539-.1649667.0539-.3283c0-.3560667-.0530833-.67375-.15925-.95305s-.2539833-.5153167-.44345-.70805-.4148667-.3389167-.6762-.43855c-.2613333-.0996333-.5455333-.14945-.8526-.14945-.3691333 0-.6998833.0645167-.99225.19355-.2923667.1290333-.5406333.3046167-.7448.52675-.2041667.2221333-.3609667.4834667-.4704.784-.1094333.3005333-.16415.6239333-.16415.9702 0 .4344667.06125.8183.18375 1.1515.1225.3332.2923667.6125.5096.8379.2172333.2254.4736667.3960833.7693.51205.2956333.1159667.6165833.17395.96285.17395zm1.1319-3.136h-2.4843c.0588-.3952667.1976333-.7023333.4165-.9212.2188667-.2188667.5194-.3283.9016-.3283.1894667 0 .3568833.03185.50225.09555.1453667.0637.26705.1519.36505.2646.098.1127.1723167.245.22295.3969.0506333.1519.07595.31605.07595.49245z" fill="#479442" fill-rule="nonzero"/></g><g transform="translate(373 393.5)"><rect stroke="#B8C7D2" stroke-width=".7" fill="#FFF" x=".35" y=".35" width="100.8" height="23.1" rx="2.1"/><path d="M10.5266 15.4v-4.8363c0-.0816667-.00245-.1698667-.00735-.2646-.0049-.0947333-.01225-.1894667-.02205-.2842l2.303 4.1993c.0849333.1731333.2205.2597.4067.2597h.1617c.1829333 0 .3185-.0865667.4067-.2597l2.2687-4.1895c-.0098.0947333-.01715.18865-.02205.28175-.0049.0931-.00735.17885-.00735.25725V15.4h1.0094V8.344h-.8575c-.1012667 0-.1796667.00898333-.2352.02695-.0555333.01796667-.1061667.07268333-.1519.16415l-2.2295 4.0915c-.049.0947333-.09555.19355-.13965.29645-.0441.1029-.08575.2066167-.12495.31115-.0359333-.1045333-.07595-.2066167-.12005-.30625-.0441-.0996333-.09065-.1968167-.13965-.29155l-2.2638-4.1013c-.0457333-.09146667-.0963667-.14618333-.1519-.16415-.0555333-.01796667-.1339333-.02695-.2352-.02695h-.8575V15.4h1.0094zm8.9082.0784c.1829333 0 .35035-.0155167.50225-.04655.1519-.0310333.294-.0775833.4263-.13965.1323-.0620667.2605167-.1380167.38465-.22785s.2499-.1919167.3773-.30625l.1029.4067c.0359333.0947333.0800333.1576167.1323.18865.0522667.0310333.1290333.04655.2303.04655h.4704v-3.1752c0-.2842-.0400167-.5430833-.12005-.77665-.0800333-.2335667-.196-.4352833-.3479-.60515-.1519-.1698667-.3397333-.30135-.5635-.39445-.2237667-.0931-.4793833-.13965-.76685-.13965-.7807333 0-1.4536667.2629667-2.0188.7889l.1911.343c.0326667.0555333.0743167.1020833.12495.13965.0506333.0375667.1118833.05635.18375.05635.0882 0 .1715-.0253167.2499-.07595.0784-.0506333.1682333-.10535.2695-.16415.1012667-.0588.2205-.1135167.3577-.16415.1372-.0506333.3070667-.07595.5096-.07595.2972667 0 .5226667.0882.6762.2646.1535333.1764.2303.4442667.2303.8036v.3332c-.5684.0130667-1.04615.0669667-1.43325.1617s-.6990667.2147833-.9359.36015c-.2368333.1453667-.4067.3095167-.5096.49245-.1029.1829333-.15435.3707667-.15435.5635 0 .2254.03675.4214.11025.588.0735.1666.17395.30625.30135.41895.1274.1127.2784833.1968167.45325.25235.1747667.0555333.3634167.0833.56595.0833zm.3185-.735c-.1078 0-.2066167-.01225-.29645-.03675-.0898333-.0245-.1682333-.0637-.2352-.1176-.0669667-.0539-.1192333-.1225-.1568-.2058-.0375667-.0833-.05635-.18375-.05635-.30135 0-.1208667.0351167-.2319333.10535-.3332.0702333-.1012667.1853833-.18865.34545-.26215.1600667-.0735.3691333-.1339333.6272-.1813.2580667-.0473667.5749333-.0775833.9506-.09065v.9261c-.1862.196-.3781167.34545-.57575.44835-.1976333.1029-.43365.15435-.70805.15435zm4.5913.6566v-3.6407c.1764-.1862.36505-.3332.56595-.441.2009-.1078.41895-.1617.65415-.1617.3168667 0 .5528833.0931.70805.2793.1551667.1862.23275.4475333.23275.784V15.4h1.0486v-3.1801c0-.2809333-.0359333-.5381833-.1078-.77175-.0718667-.2335667-.17885-.43365-.32095-.60025-.1421-.1666-.3168667-.2956333-.5243-.3871-.2074333-.0914667-.44835-.1372-.72275-.1372-.1731333 0-.3332.0179667-.4802.0539-.147.0359333-.2858333.0865667-.4165.1519-.1306667.0653333-.2539833.1429167-.36995.23275-.1159667.0898333-.22785.1902833-.33565.30135l-.0735-.4606c-.0392-.1339333-.1306667-.2009-.2744-.2009h-.637V15.4h1.0535zm5.5125.0784c.1829333 0 .35035-.0155167.50225-.04655.1519-.0310333.294-.0775833.4263-.13965.1323-.0620667.2605167-.1380167.38465-.22785s.2499-.1919167.3773-.30625l.1029.4067c.0359333.0947333.0800333.1576167.1323.18865.0522667.0310333.1290333.04655.2303.04655h.4704v-3.1752c0-.2842-.0400167-.5430833-.12005-.77665-.0800333-.2335667-.196-.4352833-.3479-.60515-.1519-.1698667-.3397333-.30135-.5635-.39445-.2237667-.0931-.4793833-.13965-.76685-.13965-.7807333 0-1.4536667.2629667-2.0188.7889l.1911.343c.0326667.0555333.0743167.1020833.12495.13965.0506333.0375667.1118833.05635.18375.05635.0882 0 .1715-.0253167.2499-.07595.0784-.0506333.1682333-.10535.2695-.16415.1012667-.0588.2205-.1135167.3577-.16415.1372-.0506333.3070667-.07595.5096-.07595.2972667 0 .5226667.0882.6762.2646.1535333.1764.2303.4442667.2303.8036v.3332c-.5684.0130667-1.04615.0669667-1.43325.1617s-.6990667.2147833-.9359.36015c-.2368333.1453667-.4067.3095167-.5096.49245-.1029.1829333-.15435.3707667-.15435.5635 0 .2254.03675.4214.11025.588.0735.1666.17395.30625.30135.41895.1274.1127.2784833.1968167.45325.25235.1747667.0555333.3634167.0833.56595.0833zm.3185-.735c-.1078 0-.2066167-.01225-.29645-.03675-.0898333-.0245-.1682333-.0637-.2352-.1176-.0669667-.0539-.1192333-.1225-.1568-.2058-.0375667-.0833-.05635-.18375-.05635-.30135 0-.1208667.0351167-.2319333.10535-.3332.0702333-.1012667.1853833-.18865.34545-.26215.1600667-.0735.3691333-.1339333.6272-.1813.2580667-.0473667.5749333-.0775833.9506-.09065v.9261c-.1862.196-.3781167.34545-.57575.44835-.1976333.1029-.43365.15435-.70805.15435zm5.3753 2.4353c.3756667 0 .7105-.0481833 1.0045-.14455.294-.0963667.5430833-.2245833.74725-.38465.2041667-.1600667.36015-.343.46795-.5488.1078-.2058.1617-.4165.1617-.6321 0-.2352-.0473667-.4263-.1421-.5733-.0947333-.147-.2196833-.2637833-.37485-.35035-.1551667-.0865667-.3323833-.1486333-.53165-.1862-.1992667-.0375667-.4018-.0645167-.6076-.08085-.2058-.0163333-.4083333-.0277667-.6076-.0343-.1992667-.0065333-.3764833-.0212333-.53165-.0441-.1551667-.0228667-.2801167-.0604333-.37485-.1127-.0947333-.0522667-.1421-.1323-.1421-.2401 0-.0653333.0228667-.1290333.0686-.1911.0457333-.0620667.1159667-.1208667.2107-.1764.0947333.0196.1919167.0351167.29155.04655.0996333.0114333.2017167.01715.30625.01715.2744 0 .5292-.0375667.7644-.1127.2352-.0751333.4377333-.1829333.6076-.3234.1698667-.1404667.3029833-.3103333.39935-.5096.0963667-.1992667.14455-.4214.14455-.6664 0-.2319333-.0424667-.4426333-.1274-.6321l.4998-.0833c.1568-.0294.2352-.1094333.2352-.2401v-.392H36.624c-.3201333-.1796667-.6958-.2695-1.127-.2695-.2809333 0-.5398167.0375667-.77665.1127-.2368333.0751333-.4418167.1829333-.61495.3234-.1731333.1404667-.3078833.3103333-.40425.5096-.0963667.1992667-.14455.4230333-.14455.6713 0 .3038.0718667.5692167.2156.79625s.3397333.40915.588.54635c-.2156.1110667-.3773.2466333-.4851.4067-.1078.1600667-.1617.3136-.1617.4606 0 .1862.04165.3364667.12495.4508.0833.1143333.19355.2041667.33075.2695-.2548.0947333-.4565167.2254-.60515.392-.1486333.1666-.22295.3675-.22295.6027 0 .1731333.0449167.3397333.13475.4998s.2270333.30135.4116.42385c.1845667.1225.4148667.2196833.6909.29155.2760333.0718667.60025.1078.97265.1078zm-.0539-4.3218c-.1600667 0-.30135-.02205-.42385-.06615s-.2245833-.1061667-.30625-.1862c-.0816667-.0800333-.1437333-.1755833-.1862-.28665-.0424667-.1110667-.0637-.2319333-.0637-.3626 0-.2744.0824833-.4916333.24745-.6517.1649667-.1600667.40915-.2401.73255-.2401.3266667 0 .5716667.0800333.735.2401.1633333.1600667.245.3773.245.6517 0 .2678667-.0816667.4851-.245.6517-.1633333.1666-.4083333.2499-.735.2499zm.0735 3.5574c-.2319333 0-.4303833-.0179667-.59535-.0539-.1649667-.0359333-.3005333-.0849333-.4067-.147-.1061667-.0620667-.1845667-.1355667-.2352-.2205-.0506333-.0849333-.07595-.1764-.07595-.2744 0-.1502667.0498167-.2825667.14945-.3969.0996333-.1143333.22785-.2123333.38465-.294.1568.0228667.3193167.0383833.48755.04655.1682333.0081667.3332.0163333.4949.0245.1617.0081667.3144167.0212333.45815.0392s.2695.0457333.3773.0833.19355.0898333.25725.1568c.0637.0669667.09555.1559833.09555.26705 0 .2254-.1159667.4099667-.3479.5537-.2319333.1437333-.5798333.2156-1.0437.2156zm5.3459-.9408c.1764 0 .3577-.0138833.5439-.04165.1862-.0277667.3675-.0735.5439-.1372.1764-.0637.343-.1461833.4998-.24745.1568-.1012667.2972667-.2254.4214-.3724l-.2989-.3871c-.0457333-.0653333-.1110667-.098-.196-.098-.0653333 0-.1372.0236833-.2156.07105-.0784.0473667-.1731333.0996333-.2842.1568-.1110667.0571667-.2417333.1094333-.392.1568s-.3283.07105-.5341.07105c-.2156 0-.4107833-.0334833-.58555-.10045-.1747667-.0669667-.3250333-.16905-.4508-.30625-.1257667-.1372-.2262167-.3095167-.30135-.51695-.0751333-.2074333-.1192333-.45325-.1323-.73745h3.2095c.0947333 0 .1600667-.0277667.196-.0833s.0539-.1649667.0539-.3283c0-.3560667-.0530833-.67375-.15925-.95305s-.2539833-.5153167-.44345-.70805-.4148667-.3389167-.6762-.43855c-.2613333-.0996333-.5455333-.14945-.8526-.14945-.3691333 0-.6998833.0645167-.99225.19355-.2923667.1290333-.5406333.3046167-.7448.52675-.2041667.2221333-.3609667.4834667-.4704.784-.1094333.3005333-.16415.6239333-.16415.9702 0 .4344667.06125.8183.18375 1.1515.1225.3332.2923667.6125.5096.8379.2172333.2254.4736667.3960833.7693.51205.2956333.1159667.6165833.17395.96285.17395zm1.1319-3.136H39.564c.0588-.3952667.1976333-.7023333.4165-.9212.2188667-.2188667.5194-.3283.9016-.3283.1894667 0 .3568833.03185.50225.09555.1453667.0637.26705.1519.36505.2646.098.1127.1723167.245.22295.3969.0506333.1519.07595.31605.07595.49245zm6.2671 3.1409c.3822 0 .72275-.0588 1.02165-.1764.2989-.1176.5504333-.2784833.7546-.48265.2041667-.2041667.36015-.44345.46795-.71785.1078-.2744.1617-.5684.1617-.882 0-.2907333-.0473667-.5373667-.1421-.7399-.0947333-.2025333-.2196833-.3740333-.37485-.5145-.1551667-.1404667-.3323833-.2564333-.53165-.3479-.1992667-.0914667-.4026167-.1731333-.61005-.245s-.4107833-.13965-.61005-.20335c-.1992667-.0637-.3764833-.1380167-.53165-.22295-.1551667-.0849333-.2801167-.1870167-.37485-.30625-.0947333-.1192333-.1421-.2686833-.1421-.44835 0-.1404667.0253167-.27031667.07595-.38955.0506333-.11923333.1265833-.22295.22785-.31115.1012667-.0882.2262167-.1568.37485-.2058.1486333-.049.32095-.0735.51695-.0735.2123333 0 .3952667.02695.5488.08085.1535333.0539.28665.1127.39935.1764.1127.0637.2074333.12168333.2842.17395.0767667.05226667.1461833.0784.20825.0784.0588 0 .1078-.01388333.147-.04165.0392-.02776667.0767667-.07105.1127-.12985l.2793-.5488c-.245-.2352-.53655-.4165-.87465-.5439-.3381-.1274-.7096833-.1911-1.11475-.1911-.3593333 0-.6794667.05553333-.9604.1666-.2809333.11106667-.51695.25888333-.70805.44345-.1911.18456667-.3364667.39608333-.4361.63455-.0996333.23846667-.14945.4851-.14945.7399 0 .3201333.0473667.5871833.1421.80115.0947333.2139667.2196833.3936333.37485.539.1551667.1453667.3323833.2629667.53165.3528.1992667.0898333.4018.1682333.6076.2352.2058.0669667.4083333.12985.6076.18865.1992667.0588.3764833.1306667.53165.2156.1551667.0849333.2801167.1902833.37485.31605.0947333.1257667.1421.2882833.1421.48755 0 .3560667-.1135167.6353667-.34055.8379-.2270333.2025333-.5479833.3038-.96285.3038-.2548 0-.4736667-.0351167-.6566-.10535-.1829333-.0702333-.3389167-.147-.46795-.2303-.1290333-.0833-.2392833-.1600667-.33075-.2303-.0914667-.0702333-.1747667-.10535-.2499-.10535-.0555333 0-.1061667.0130667-.1519.0392-.0457333.0261333-.0833.0620667-.1127.1078l-.3332.5488c.1339333.1404667.2858333.2678667.4557.3822.1698667.1143333.3519833.2115167.54635.29155.1943667.0800333.3985333.1421.6125.1862.2139667.0441.43365.06615.65905.06615zm4.9833 0c.1698667 0 .3291167-.0179667.47775-.0539.1486333-.0359333.2882833-.0865667.41895-.1519.1306667-.0653333.2539833-.1437333.36995-.2352.1159667-.0914667.2262167-.1927333.33075-.3038l.0784.4655c.0392.1339333.1290333.2009.2695.2009h.637v-4.998h-1.0535v3.6456c-.1764.1862-.36505.3323833-.56595.43855-.2009.1061667-.4173167.15925-.64925.15925-.3168667 0-.5528833-.0931-.70805-.2793-.1551667-.1862-.23275-.4475333-.23275-.784V10.402H51.618v3.1801c0 .2809333.0359333.5381833.1078.77175.0718667.2335667.17885.43365.32095.60025.1421.1666.3176833.2956333.52675.3871.2090667.0914667.4508.1372.7252.1372zm6.2328-.0049c.3266667 0 .6223-.0645167.8869-.19355.2646-.1290333.49-.3119667.6762-.5488.1862-.2368333.3291167-.5210333.42875-.8526.0996333-.3315667.14945-.6998833.14945-1.10495 0-.3789333-.0441-.7194833-.1323-1.02165-.0882-.3021667-.2139667-.5594167-.3773-.77175-.1633333-.2123333-.3617833-.37485-.59535-.48755-.2335667-.1127-.4957167-.16905-.78645-.16905-.3266667 0-.6174.0669667-.8722.2009-.2548.1339333-.4851.3136-.6909.539V8.148h-1.0535V15.4h.686c.0751333 0 .1339333-.0163333.1764-.049.0424667-.0326667.0718667-.0865667.0882-.1617l.0441-.3871c.0849333.1045333.17395.1976333.26705.2793.0931.0816667.1951833.1519.30625.2107.1110667.0588.2319333.1037167.3626.13475.1306667.0310333.2760333.04655.4361.04655zm-.2597-.8134c-.2058 0-.3960833-.0383833-.57085-.11515-.1747667-.0767667-.33565-.2098833-.48265-.39935v-2.3177c.1666-.2156.34545-.3813833.53655-.49735.1911-.1159667.4156833-.17395.67375-.17395.3724 0 .65905.1323.85995.3969.2009.2646.30135.6843667.30135 1.2593 0 .6304667-.1159667 1.0959667-.3479 1.3965-.2319333.3005333-.5553333.4508-.9702.4508zm4.7628.8183c.3136 0 .5920833-.0408333.83545-.1225.2433667-.0816667.4467167-.196.61005-.343.1633333-.147.2874667-.3201333.3724-.5194.0849333-.1992667.1274-.4165.1274-.6517 0-.2025333-.0359333-.37485-.1078-.51695s-.1666-.2629667-.2842-.3626c-.1176-.0996333-.2515333-.18375-.4018-.25235-.1502667-.0686-.3038-.1290333-.4606-.1813s-.3103333-.1012667-.4606-.147c-.1502667-.0457333-.2842-.0971833-.4018-.15435-.1176-.0571667-.2123333-.12495-.2842-.20335s-.1078-.1764-.1078-.294c0-.0882.0196-.1706833.0588-.24745s.09555-.1437333.16905-.2009c.0735-.0571667.1633333-.1012667.2695-.1323.1061667-.0310333.2245833-.04655.35525-.04655.1600667 0 .2997167.01715.41895.05145.1192333.0343.22295.0726833.31115.11515.0882.0424667.1649667.08085.2303.11515.0653333.0343.1257667.05145.1813.05145.049 0 .0898333-.0098.1225-.0294.0326667-.0196.0620667-.0522667.0882-.098l.2352-.3822c-.1862-.1862-.4165-.3332-.6909-.441s-.5798333-.1617-.9163-.1617c-.2972667 0-.5594167.0400167-.78645.12005s-.4181333.18865-.5733.32585c-.1551667.1372-.2727667.2956333-.3528.4753-.0800333.1796667-.12005.3691333-.12005.5684 0 .2188667.0359333.40425.1078.55615.0718667.1519.1674167.2809333.28665.3871.1192333.1061667.2548.19355.4067.26215.1519.0686.30625.1290333.46305.1813s.31115.1012667.46305.147c.1519.0457333.2874667.098.4067.1568.1192333.0588.2147833.1290333.28665.2107.0718667.0816667.1078.1862.1078.3136 0 .0947333-.0179667.18375-.0539.26705-.0359333.0833-.0914667.1576167-.1666.22295-.0751333.0653333-.1698667.1167833-.2842.15435-.1143333.0375667-.2499.05635-.4067.05635-.1894667 0-.3479-.02205-.4753-.06615s-.2360167-.0922833-.32585-.14455c-.0898333-.0522667-.1682333-.10045-.2352-.14455-.0669667-.0441-.13475-.06615-.20335-.06615-.0653333 0-.12005.0138833-.16415.04165-.0441.0277667-.08085.06615-.11025.11515l-.245.4018c.098.0882.2098833.1698667.33565.245.1257667.0751333.2613333.13965.4067.19355.1453667.0539.2989.0963667.4606.1274.1617.0310333.3291167.04655.50225.04655zm4.8853-.0049c.1796667 0 .3577-.0138833.5341-.04165s.3462667-.0735.5096-.1372c.1633333-.0637.3185-.1461833.4655-.24745.147-.1012667.2809333-.2254.4018-.3724l-.2989-.3871c-.0457333-.0653333-.1110667-.098-.196-.098-.0686 0-.1331167.0245-.19355.0735-.0604333.049-.1331167.1029-.21805.1617-.0849333.0588-.1911.1127-.3185.1617-.1274.049-.2923667.0735-.4949.0735-.2058 0-.3911833-.0392-.55615-.1176-.1649667-.0784-.3054333-.1927333-.4214-.343-.1159667-.1502667-.2049833-.3348333-.26705-.5537-.0620667-.2188667-.0931-.4687667-.0931-.7497 0-.2711333.0285833-.5153167.08575-.73255.0571667-.2172333.1437333-.4018.2597-.5537.1159667-.1519.2597-.2686833.4312-.35035.1715-.0816667.3715833-.1225.60025-.1225.1764 0 .3234.0196.441.0588.1176.0392.21805.0824833.30135.12985.0833.0473667.1551667.09065.2156.12985.0604333.0392.1184167.0588.17395.0588.0555333 0 .098-.0114333.1274-.0343.0294-.0228667.0604333-.0555333.0931-.098l.2793-.3822c-.2156-.2156-.4614167-.3822-.73745-.4998-.2760333-.1176-.59535-.1764-.95795-.1764-.3887333 0-.7317333.0645167-1.029.19355-.2972667.1290333-.54635.3078833-.74725.53655-.2009.2286667-.3536167.5006167-.45815.81585-.1045333.3152333-.1568.6574167-.1568 1.02655 0 .4083333.0579833.77175.17395 1.09025.1159667.3185.2744.588.4753.8085.2009.2205.4361.3887333.7056.5047.2695.1159667.5594167.17395.86975.17395zm3.8073-.0735v-3.1066c.0588-.1502667.1225-.2842.1911-.4018.0686-.1176.1478167-.2172333.23765-.2989.0898333-.0816667.1911-.1437333.3038-.1862.1127-.0424667.24255-.0637.38955-.0637.1012667 0 .1976333.0089833.2891.02695.0914667.0179667.1617.02695.2107.02695.0457333 0 .0824833-.0106167.11025-.03185.0277667-.0212333.0481833-.0596167.06125-.11515l.0735-.7938c-.0751333-.049-.1600667-.08575-.2548-.11025-.0947333-.0245-.196-.03675-.3038-.03675-.3103333 0-.5765667.09065-.7987.27195-.2221333.1813-.4116.4303833-.5684.74725l-.0637-.6517c-.0163333-.1012667-.0457333-.1723167-.0882-.21315-.0424667-.0408333-.1192333-.06125-.2303-.06125h-.6125V15.4h1.0535zm3.1213-5.8065c.098 0 .1902833-.01878333.27685-.05635.0865667-.03756667.1625167-.0882.22785-.1519.0653333-.0637.1167833-.13801667.15435-.22295.0375667-.08493333.05635-.17476667.05635-.2695 0-.098-.0187833-.18946667-.05635-.2744-.0375667-.08493333-.0890167-.15925-.15435-.22295-.0653333-.0637-.1412833-.11433333-.22785-.1519-.0865667-.03756667-.17885-.05635-.27685-.05635-.0947333 0-.18375.01878333-.26705.05635-.0833.03756667-.1559833.0882-.21805.1519s-.1118833.13801667-.14945.22295c-.0375667.08493333-.05635.1764-.05635.2744 0 .09473333.0187833.18456667.05635.2695.0375667.08493333.0873833.15925.14945.22295s.13475.11433333.21805.1519c.0833.03756667.1723167.05635.26705.05635zm.539 5.8065v-4.998H75.334V15.4h1.0535zm3.6946.0735c.3266667 0 .6223-.0645167.8869-.19355.2646-.1290333.49-.3119667.6762-.5488.1862-.2368333.3291167-.5210333.42875-.8526.0996333-.3315667.14945-.6998833.14945-1.10495 0-.3789333-.0441-.7194833-.1323-1.02165-.0882-.3021667-.2139667-.5594167-.3773-.77175-.1633333-.2123333-.3617833-.37485-.59535-.48755-.2335667-.1127-.4957167-.16905-.78645-.16905-.3266667 0-.6174.0669667-.8722.2009-.2548.1339333-.4851.3136-.6909.539V8.148h-1.0535V15.4h.686c.0751333 0 .1339333-.0163333.1764-.049.0424667-.0326667.0718667-.0865667.0882-.1617l.0441-.3871c.0849333.1045333.17395.1976333.26705.2793.0931.0816667.1951833.1519.30625.2107.1110667.0588.2319333.1037167.3626.13475.1306667.0310333.2760333.04655.4361.04655zm-.2597-.8134c-.2058 0-.3960833-.0383833-.57085-.11515-.1747667-.0767667-.33565-.2098833-.48265-.39935v-2.3177c.1666-.2156.34545-.3813833.53655-.49735.1911-.1159667.4156833-.17395.67375-.17395.3724 0 .65905.1323.85995.3969.2009.2646.30135.6843667.30135 1.2593 0 .6304667-.1159667 1.0959667-.3479 1.3965-.2319333.3005333-.5553333.4508-.9702.4508zm5.5664.8134c.1764 0 .3577-.0138833.5439-.04165.1862-.0277667.3675-.0735.5439-.1372.1764-.0637.343-.1461833.4998-.24745.1568-.1012667.2972667-.2254.4214-.3724l-.2989-.3871c-.0457333-.0653333-.1110667-.098-.196-.098-.0653333 0-.1372.0236833-.2156.07105-.0784.0473667-.1731333.0996333-.2842.1568-.1110667.0571667-.2417333.1094333-.392.1568s-.3283.07105-.5341.07105c-.2156 0-.4107833-.0334833-.58555-.10045-.1747667-.0669667-.3250333-.16905-.4508-.30625-.1257667-.1372-.2262167-.3095167-.30135-.51695-.0751333-.2074333-.1192333-.45325-.1323-.73745h3.2095c.0947333 0 .1600667-.0277667.196-.0833s.0539-.1649667.0539-.3283c0-.3560667-.0530833-.67375-.15925-.95305s-.2539833-.5153167-.44345-.70805-.4148667-.3389167-.6762-.43855c-.2613333-.0996333-.5455333-.14945-.8526-.14945-.3691333 0-.6998833.0645167-.99225.19355-.2923667.1290333-.5406333.3046167-.7448.52675-.2041667.2221333-.3609667.4834667-.4704.784-.1094333.3005333-.16415.6239333-.16415.9702 0 .4344667.06125.8183.18375 1.1515.1225.3332.2923667.6125.5096.8379.2172333.2254.4736667.3960833.7693.51205.2956333.1159667.6165833.17395.96285.17395zm1.1319-3.136h-2.4843c.0588-.3952667.1976333-.7023333.4165-.9212.2188667-.2188667.5194-.3283.9016-.3283.1894667 0 .3568833.03185.50225.09555.1453667.0637.26705.1519.36505.2646.098.1127.1723167.245.22295.3969.0506333.1519.07595.31605.07595.49245zM89.4999 15.4v-3.1066c.0588-.1502667.1225-.2842.1911-.4018.0686-.1176.1478167-.2172333.23765-.2989.0898333-.0816667.1911-.1437333.3038-.1862.1127-.0424667.24255-.0637.38955-.0637.1012667 0 .1976333.0089833.2891.02695.0914667.0179667.1617.02695.2107.02695.0457333 0 .0824833-.0106167.11025-.03185.0277667-.0212333.0481833-.0596167.06125-.11515l.0735-.7938c-.0751333-.049-.1600667-.08575-.2548-.11025-.0947333-.0245-.196-.03675-.3038-.03675-.3103333 0-.5765667.09065-.7987.27195-.2221333.1813-.4116.4303833-.5684.74725l-.0637-.6517c-.0163333-.1012667-.0457333-.1723167-.0882-.21315-.0424667-.0408333-.1192333-.06125-.2303-.06125h-.6125V15.4h1.0535z" fill="#233745" fill-rule="nonzero"/></g><path fill="#E2E9EE" d="M249.8 282.2h225.4v1H249.8z"/><text font-family="Lato-Bold, Lato" font-size="8.4" font-weight="bold" fill="#3E5667" transform="translate(393.3 257)"><tspan x="16.8" y="8">PAYMENTS DUE</tspan></text><g transform="translate(393.3 257)"><mask id="e" fill="#fff"><use xlink:href="#d"/></mask><g mask="url(#e)" fill="#F44949"><path d="M0 0h11.2v11.2H0z"/></g></g><text font-family="Lato-Bold, Lato" font-size="8.4" font-weight="bold" fill="#748999" transform="translate(249.8 257)"><tspan x="0" y="8">SUBSCRIPTION</tspan></text><g font-family="Lato-Semibold, Lato" font-weight="500"><text font-size="11.2" fill="#F44949" transform="translate(249.8 313)"><tspan x="205.312" y="11">£12</tspan></text><text font-size="9.8" fill="#233745" transform="translate(249.8 313)"><tspan x="0" y="10.7">Outstanding Payments</tspan></text></g><g font-family="Lato-Semibold, Lato" font-weight="500"><text font-size="11.2" transform="translate(249.8 294.1)"><tspan x="177.1" y="11" fill="#233745">£4 </tspan> <tspan x="192.8808" y="11" font-family="Lato-Bold, Lato" font-weight="bold" fill="#748999">/week</tspan></text><text font-size="9.8" fill="#233745" transform="translate(249.8 294.1)"><tspan x="0" y="10.7">Subscription Amount</tspan></text></g><text font-family="Lato-Medium, Lato" font-size="9.8" font-weight="400" transform="translate(233 240.2)"><tspan x="16.8" y="119.9" fill="#3E5667">Charli’s subscription is paid by </tspan> <tspan x="149.149" y="119.9" font-family="Lato-Semibold, Lato" font-weight="500" fill="#1C2D39">Direct Debit</tspan> <tspan x="202.7648" y="119.9" fill="#3E5667"> </tspan> <tspan x="16.8" y="134.6" fill="#3E5667">every </tspan> <tspan x="43.4119" y="134.6" font-family="Lato-Semibold, Lato" font-weight="500" fill="#1C2D39">Week.</tspan></text><g><text font-family="Lato-Semibold, Lato" font-size="9.8" font-weight="500" fill="#3E5667" transform="translate(249.8 210.1)"><tspan x="16.8" y="10">@charli</tspan></text><g transform="translate(249.8 212.2)"><mask id="g" fill="#fff"><use xlink:href="#f"/></mask><g mask="url(#g)" fill="#748999"><path d="M0 0h11.2v11.2H0z"/></g></g><text font-family="Lato-Semibold, Lato" font-size="9.8" font-weight="500" fill="#3E5667" transform="translate(249.8 192.6)"><tspan x="16.8" y="10">0778 0548 372</tspan></text><g transform="translate(249.8 193.3)"><mask id="i" fill="#fff"><use xlink:href="#h"/></mask><g mask="url(#i)" fill="#748999"><path d="M0 0h11.2v11.2H0z"/></g></g><g transform="translate(249.8 175.8)"><mask id="k" fill="#fff"><use xlink:href="#j"/></mask><g mask="url(#k)" fill="#748999"><path d="M0 0h11.2v11.2H0z"/></g></g><text font-family="Lato-Semibold, Lato" font-size="9.8" font-weight="500" fill="#3E5667" transform="translate(249.8 175.1)"><tspan x="16.8" y="10">charli.roberts@mod.gov.uk</tspan></text><text font-family="Lato-Bold, Lato" font-size="8.4" font-weight="bold" fill="#748999" transform="translate(249.8 136.6)"><tspan x="0" y="8">PERSONAL</tspan></text><path fill="#E2E9EE" d="M249.8 160.4h225.4v1H249.8z"/></g><g><path fill="#FFF" d="M233 82.7h129.5v39.9H233z"/><text font-family="Lato-Bold, Lato" font-size="9.8" font-weight="bold" fill="#3E5667" transform="translate(233 82.7)"><tspan x="25.2462" y="24">Subscriber Details</tspan></text><path fill="#2A77C7" d="M233 119.8h129.5v2.8H233z"/><g><path fill="#FFF" d="M362.5 82.7H492v39.9H362.5z"/><text font-family="Lato-Bold, Lato" font-size="9.8" font-weight="bold" fill="#748999" transform="translate(362.5 82.7)"><tspan x="27.92405" y="24">Payment History</tspan></text><path fill="#E2E9EE" d="M362.5 121.9H492v1H362.5z"/></g></g><g><path d="M235.1 39.65h254.8c1.353098 0 2.45 1.09690236 2.45 2.45v40.25h-259.7V42.1c0-1.35309764 1.09690236-2.45 2.45-2.45z" stroke="#E2E9EE" stroke-width=".7" fill="#FFF"/><g transform="translate(439.5 53.3)"><rect fill="#FEEAEC" width="38.5037037" height="16.1" rx="8.05"/><text font-family="Lato-Semibold, Lato" font-size="8.4" font-weight="500" fill="#F44949"><tspan x="5.78875185" y="10.8">Paused</tspan></text></g><g transform="translate(247 50.5)"><circle fill="#3A8FDD" cx="10.5" cy="10.5" r="10.5"/><text font-family="Lato-Bold, Lato" font-size="8.4" font-weight="bold" fill="#FFF"><tspan x="5.0211" y="13.6">CR</tspan></text></g><text font-family="Lato-Semibold, Lato" font-size="11.2" font-weight="500" fill="#233745" transform="translate(233 40)"><tspan x="40.6" y="25">Charli Roberts</tspan></text></g><text font-family="Lato-Semibold, Lato" font-size="15" font-weight="500" fill="#3E5667"><tspan x="0" y="506">The Card Component.</tspan></text></g></svg>