<svg xmlns="http://www.w3.org/2000/svg" xmlns:xlink="http://www.w3.org/1999/xlink" width="16" height="16" viewBox="0 0 16 16">
  <defs>
    <path id="business-a" d="M8,4.66666665 L8,1.99999996 L1.33333329,1.99999996 L1.33333329,14 L14.6666667,14 L14.6666667,4.66666665 L8,4.66666665 Z M3.99999997,12.6666667 L2.66666663,12.6666667 L2.66666663,11.3333334 L3.99999997,11.3333334 L3.99999997,12.6666667 Z M3.99999997,10 L2.66666663,10 L2.66666663,8.66666667 L3.99999997,8.66666667 L3.99999997,10 Z M3.99999997,7.33333333 L2.66666663,7.33333333 L2.66666663,5.99999999 L3.99999997,5.99999999 L3.99999997,7.33333333 Z M3.99999997,4.66666665 L2.66666663,4.66666665 L2.66666663,3.3333333 L3.99999997,3.3333333 L3.99999997,4.66666665 Z M6.66666666,12.6666667 L5.33333332,12.6666667 L5.33333332,11.3333334 L6.66666666,11.3333334 L6.66666666,12.6666667 Z M6.66666666,10 L5.33333332,10 L5.33333332,8.66666667 L6.66666666,8.66666667 L6.66666666,10 Z M6.66666666,7.33333333 L5.33333332,7.33333333 L5.33333332,5.99999999 L6.66666666,5.99999999 L6.66666666,7.33333333 Z M6.66666666,4.66666665 L5.33333332,4.66666665 L5.33333332,3.3333333 L6.66666666,3.3333333 L6.66666666,4.66666665 Z M13.3333334,12.6666667 L8,12.6666667 L8,11.3333334 L9.33333334,11.3333334 L9.33333334,9.99999999 L8,9.99999999 L8,8.66666667 L9.33333334,8.66666667 L9.33333334,7.33333333 L8,7.33333333 L8,5.99999999 L13.3333334,5.99999999 L13.3333334,12.6666667 Z M12,7.33333333 L10.6666667,7.33333333 L10.6666667,8.66666667 L12,8.66666667 L12,7.33333333 Z M12,10 L10.6666667,10 L10.6666667,11.3333334 L12,11.3333334 L12,10 Z"/>
  </defs>
  <g fill="none" fill-rule="evenodd">
    <mask id="business-b" fill="#fff">
      <use xlink:href="#business-a"/>
    </mask>
    <g fill="CurrentColor" mask="url(#business-b)">
      <rect width="16" height="16"/>
    </g>
  </g>
</svg>
