<svg xmlns="http://www.w3.org/2000/svg" xmlns:xlink="http://www.w3.org/1999/xlink" width="16" height="16" viewBox="0 0 16 16">
  <defs>
    <path id="phonelink-setup-a" d="M7.86666667,8.33333334 L7.86666667,7.66666665 L8.6,7.13333333 C8.66666667,7.06666666 8.66666667,6.99999999 8.66666667,6.93333333 L8,5.79999999 C7.93333333,5.73333332 7.86666667,5.66666665 7.8,5.73333332 L6.93333333,5.99999999 C6.73333333,5.86666665 6.53333332,5.73333332 6.33333332,5.66666665 L6.19999999,4.79999998 C6.19999999,4.73333331 6.13333332,4.66666665 5.99999999,4.66666665 L4.66666665,4.66666665 C4.59999998,4.66666665 4.53333331,4.73333331 4.46666664,4.79999998 L4.33333331,5.66666665 C4.13333331,5.73333332 3.93333331,5.86666665 3.73333331,5.99999999 L2.86666663,5.66666665 C2.79999997,5.66666665 2.7333333,5.66666665 2.66666663,5.73333332 L1.99999996,6.86666666 C1.9333333,6.93333333 1.99999996,6.99999999 2.06666663,7.06666666 L2.79999997,7.6 L2.79999997,8.26666667 L2.06666663,8.80000001 C1.99999996,8.93333334 1.99999996,9.00000001 1.99999996,9.06666667 L2.66666663,10.2 C2.7333333,10.2666667 2.79999997,10.3333333 2.86666663,10.2666667 L3.79999997,10 C3.99999997,10.1333333 4.19999998,10.2666667 4.39999998,10.3333333 L4.53333331,11.2 C4.46666664,11.2666667 4.59999998,11.3333334 4.66666665,11.3333334 L5.99999999,11.3333334 C6.06666665,11.3333334 6.13333332,11.2666667 6.19999999,11.2 L6.33333332,10.3333333 C6.53333332,10.2666667 6.73333333,10.1333333 6.93333333,10 L7.8,10.3333333 C7.86666667,10.3333333 7.93333333,10.3333333 8,10.2666667 L8.66666667,9.13333334 C8.73333334,9.06666667 8.66666667,9.00000001 8.6,8.93333334 L7.86666667,8.33333334 L7.86666667,8.33333334 Z M5.33333332,9.33333334 C4.59999998,9.33333334 3.99999997,8.73333334 3.99999997,8 C3.99999997,7.26666666 4.59999998,6.66666666 5.33333332,6.66666666 C6.06666665,6.66666666 6.66666666,7.26666666 6.66666666,8 C6.66666666,8.73333334 6.06666665,9.33333334 5.33333332,9.33333334 Z M12.6666666,0.666666621 L5.99999999,0.666666621 C5.26666665,0.666666621 4.66666665,1.26666662 4.66666665,1.99999996 L4.66666665,3.99999997 L5.99999999,3.99999997 L5.99999999,2.66666662 L12.6666666,2.66666662 L12.6666666,13.3333334 L5.99999999,13.3333334 L5.99999999,12 L4.66666665,12 L4.66666665,14 C4.66666665,14.7333334 5.26666665,15.3333334 5.99999999,15.3333334 L12.6666666,15.3333334 C13.4,15.3333334 14,14.7333334 14,14 L14,1.99999996 C14,1.26666662 13.4,0.666666621 12.6666666,0.666666621 Z"/>
  </defs>
  <g fill="none" fill-rule="evenodd">
    <mask id="phonelink-setup-b" fill="#fff">
      <use xlink:href="#phonelink-setup-a"/>
    </mask>
    <g fill="CurrentColor" mask="url(#phonelink-setup-b)">
      <rect width="16" height="16"/>
    </g>
  </g>
</svg>
