<svg xmlns="http://www.w3.org/2000/svg" xmlns:xlink="http://www.w3.org/1999/xlink" width="16" height="16" viewBox="0 0 16 16">
  <defs>
    <path id="phonelink-ring-a" d="M13.4,5.13333332 L12.7333334,5.79999999 C13.9333334,6.99999999 13.9333334,8.86666667 12.7333334,10.1333333 L13.4,10.8 C15.0666667,9.26666667 15.0666667,6.73333333 13.4,5.13333332 Z M12,6.53333332 L11.3333334,7.19999999 C11.6666667,7.66666666 11.6666667,8.26666667 11.3333334,8.73333334 L12,9.40000001 C12.8,8.6 12.8,7.4 12,6.53333332 Z M9.33333329,0.666666621 L2.66666663,0.666666621 C1.9333333,0.666666621 1.33333329,1.26666662 1.33333329,1.99999996 L1.33333329,14 C1.33333329,14.7333334 1.9333333,15.3333334 2.66666663,15.3333334 L9.33333329,15.3333334 C10.0666667,15.3333334 10.6666667,14.7333334 10.6666667,14 L10.6666667,1.99999996 C10.6666667,1.26666662 10.0666667,0.666666621 9.33333329,0.666666621 Z M9.33333334,13.3333334 L2.66666663,13.3333334 L2.66666663,2.66666663 L9.33333334,2.66666663 L9.33333334,13.3333334 Z"/>
  </defs>
  <g fill="none" fill-rule="evenodd">
    <mask id="phonelink-ring-b" fill="#fff">
      <use xlink:href="#phonelink-ring-a"/>
    </mask>
    <g fill="CurrentColor" mask="url(#phonelink-ring-b)">
      <rect width="16" height="16"/>
    </g>
  </g>
</svg>
