<svg xmlns="http://www.w3.org/2000/svg" xmlns:xlink="http://www.w3.org/1999/xlink" width="16" height="16" viewBox="0 0 16 16">
  <defs>
    <path id="speaker-phone-a" d="M4.66666665,4.71333331 L5.61999999,5.66666665 C6.22666666,5.05999998 7.07333333,4.67999998 8,4.67999998 C8.92666667,4.67999998 9.77333334,5.05999998 10.38,5.66666665 L11.3333334,4.71333331 C10.48,3.85999997 9.30000001,3.3333333 8,3.3333333 C6.69999999,3.3333333 5.51999998,3.85999997 4.66666665,4.71333331 Z M8,0.666666621 C5.98666665,0.666666621 4.15999998,1.48666663 2.8333333,2.80666663 L3.77333331,3.74666664 C4.85333331,2.66666662 6.35333332,1.99999996 8,1.99999996 C9.64666668,1.99999996 11.1466667,2.66666662 12.2266667,3.74666664 L13.1666667,2.80666663 C11.84,1.48666663 10.0133333,0.666666621 8,0.666666621 Z M9.90666668,6.67333333 L6.09333332,6.66666666 C5.67333332,6.66666666 5.33333332,7.00666666 5.33333332,7.42666666 L5.33333332,13.9 C5.33333332,14.32 5.67333332,14.66 6.09333332,14.66 L9.90000001,14.66 C10.32,14.66 10.66,14.32 10.66,13.9 L10.66,7.42666666 C10.6666667,7.00666666 10.3266667,6.67333333 9.90666668,6.67333333 L9.90666668,6.67333333 Z M9.99999999,13.3333334 L5.99999999,13.3333334 L5.99999999,8 L9.99999999,8 L9.99999999,13.3333334 Z"/>
  </defs>
  <g fill="none" fill-rule="evenodd">
    <mask id="speaker-phone-b" fill="#fff">
      <use xlink:href="#speaker-phone-a"/>
    </mask>
    <g fill="CurrentColor" mask="url(#speaker-phone-b)">
      <rect width="16" height="16"/>
    </g>
  </g>
</svg>
