<?xml version="1.0" encoding="UTF-8"?>
<svg width="16px" height="16px" viewBox="0 0 16 16" version="1.1" xmlns="http://www.w3.org/2000/svg" xmlns:xlink="http://www.w3.org/1999/xlink">
    <title>Icons/Alert/error-outline</title>
    <g id="Icons/Alert/error-outline" stroke="none" stroke-width="1" fill="none" fill-rule="evenodd">
        <rect id="Spacer" fill-opacity="0" fill="#D8D8D8" x="0" y="0" width="16" height="16"></rect>
        <path d="M7.33333333,10 L8.66666667,10 L8.66666667,11.3333334 L7.33333333,11.3333334 L7.33333333,10 Z M7.33333333,4.66666665 L8.66666667,4.66666665 L8.66666667,8.66666665 L7.33333333,8.66666665 L7.33333333,4.66666665 Z M7.99333333,1.33333329 C4.31333331,1.33333329 1.33333329,4.31999998 1.33333329,8 C1.33333329,11.68 4.31333331,14.6666667 7.99333333,14.6666667 C11.68,14.6666667 14.6666667,11.68 14.6666667,8 C14.6666667,4.31999998 11.68,1.33333329 7.99333333,1.33333329 Z M8,13.3333334 C5.05333331,13.3333334 2.66666663,10.9466667 2.66666663,8 C2.66666663,5.05333331 5.05333331,2.66666663 8,2.66666663 C10.9466667,2.66666663 13.3333334,5.05333331 13.3333334,8 C13.3333334,10.9466667 10.9466667,13.3333334 8,13.3333334 Z" id="Icons/Alert/ic_error_outline_24px" fill="#233745" fill-rule="nonzero"></path>
    </g>
</svg>