<svg viewBox="0 0 726 328" xmlns="http://www.w3.org/2000/svg" xmlns:xlink="http://www.w3.org/1999/xlink"><defs><rect id="b" x="1" width="645" height="118" rx="3"/><filter x="-.9%" y="-4.2%" width="101.9%" height="110.2%" filterUnits="objectBoundingBox" id="a"><feMorphology radius="1" operator="dilate" in="SourceAlpha" result="shadowSpreadOuter1"/><feOffset dy="1" in="shadowSpreadOuter1" result="shadowOffsetOuter1"/><feGaussianBlur stdDeviation="1.5" in="shadowOffsetOuter1" result="shadowBlurOuter1"/><feComposite in="shadowBlurOuter1" in2="SourceAlpha" operator="out" result="shadowBlurOuter1"/><feColorMatrix values="0 0 0 0 0 0 0 0 0 0 0 0 0 0 0 0 0 0 0.0440340909 0" in="shadowBlurOuter1"/></filter></defs><g fill="none" fill-rule="evenodd"><path stroke="#B8C7D2" fill="#FFF" d="M.5.5h725v292H.5z"/><g transform="translate(40 96)"><use fill="#000" filter="url(#a)" xlink:href="#b"/><rect stroke="#E2E9EE" fill="#FFF" x=".5" y="-.5" width="646" height="119" rx="3"/></g><path fill="#E2E9EE" d="M40 153h648v1H40z"/><text font-family="Lato-Bold, Lato" font-size="14" font-weight="bold" fill="#3E5667" transform="translate(40 96)"><tspan x="34" y="34">Active Tab</tspan></text><text font-family="Lato-Semibold, Lato" font-size="14" font-weight="500" fill="#748999" transform="translate(40 96)"><tspan x="132" y="34">Inactive Tab</tspan></text><path fill="#2A77C7" d="M61 149h95v4H61z"/><text font-family="Lato-Semibold, Lato" font-size="14" font-weight="500" fill="#748999" transform="translate(40 96)"><tspan x="238" y="34">Inactive Tab</tspan></text><text font-family="Lato-Medium, Lato" font-size="15" font-weight="400" fill="#3E5667"><tspan x="0" y="322">Anatomy of the Tabset component.</tspan></text><path fill="#B8C7D2" d="M79 56h1v45h-1z"/><g transform="translate(70 39)"><rect fill="#3E5667" width="19.2" height="18.4" rx="9.2"/><text font-family="Lato-Heavy, Lato" font-size="9.6" font-weight="600" fill="#FFF"><tspan x="6.816" y="12.2">1</tspan></text></g><path d="M106.05 48.987l-1.597-4.177a9.312 9.312 0 0 1-.346-1.08c-.055.215-.11.415-.168.6-.058.185-.114.35-.169.495l-1.59 4.162h3.87zM109.208 53h-1.23a.545.545 0 0 1-.54-.375l-.953-2.498h-4.747l-.953 2.498a.608.608 0 0 1-.195.259.528.528 0 0 1-.345.116h-1.23l4.29-10.77h1.612l4.29 10.77zm6.382-6.195a.81.81 0 0 1-.131.131.298.298 0 0 1-.184.049.436.436 0 0 1-.251-.094 2.95 2.95 0 0 0-.81-.405 2.216 2.216 0 0 0-.694-.093c-.36 0-.677.064-.952.194-.276.13-.504.315-.687.555-.182.24-.321.533-.416.878a4.38 4.38 0 0 0-.143 1.162c0 .446.05.842.15 1.19.1.347.243.64.428.877s.41.417.675.54c.265.122.56.183.885.183.315 0 .575-.038.78-.116a2.55 2.55 0 0 0 .51-.251c.135-.09.247-.174.337-.251a.423.423 0 0 1 .278-.117c.12 0 .212.045.278.135l.42.54a2.829 2.829 0 0 1-.59.548c-.217.15-.448.272-.693.367a3.918 3.918 0 0 1-.769.21 4.897 4.897 0 0 1-.813.068c-.476 0-.92-.087-1.332-.263a3.016 3.016 0 0 1-1.072-.765 3.661 3.661 0 0 1-.716-1.233c-.176-.488-.263-1.041-.263-1.662 0-.565.079-1.087.236-1.567.158-.48.39-.894.698-1.241.307-.348.686-.62 1.136-.818.45-.197.965-.296 1.545-.296.545 0 1.025.087 1.44.262.415.176.785.423 1.11.743l-.39.54zM124.65 53h-1.47v-6.435h-3.825v4.462c0 .3.074.524.221.672a.767.767 0 0 0 .567.221c.135 0 .25-.017.348-.053a1.39 1.39 0 0 0 .252-.116c.07-.042.13-.081.18-.116a.244.244 0 0 1 .135-.053c.05 0 .088.012.116.034a.42.42 0 0 1 .086.109l.435.705c-.24.22-.525.39-.855.51-.33.12-.672.18-1.027.18-.616 0-1.09-.172-1.422-.518-.332-.345-.498-.837-.498-1.477v-4.56h-.885a.305.305 0 0 1-.214-.079c-.058-.052-.086-.131-.086-.236v-.593l1.245-.172.322-2.273a.353.353 0 0 1 .116-.198.336.336 0 0 1 .222-.072h.742V45.5h5.295V53zm.33-10.02a.933.933 0 0 1-.082.386c-.056.123-.13.23-.222.323a1.008 1.008 0 0 1-.716.296.944.944 0 0 1-.382-.079 1.032 1.032 0 0 1-.537-.54 1.016 1.016 0 0 1 .536-1.328.997.997 0 0 1 .772 0 1.008 1.008 0 0 1 .549.544.976.976 0 0 1 .082.398zm8.408 2.4l-3.09 7.62h-1.32l-3.09-7.62h1.207a.47.47 0 0 1 .285.083.393.393 0 0 1 .15.21l1.823 4.68c.065.195.12.388.168.58.048.193.091.384.132.575.04-.19.084-.38.135-.57.05-.19.11-.385.18-.585l1.845-4.68a.435.435 0 0 1 .427-.293h1.148zm6.217 2.962a2.5 2.5 0 0 0-.124-.802 1.822 1.822 0 0 0-.363-.637c-.16-.18-.355-.32-.585-.42-.23-.1-.495-.15-.795-.15-.616 0-1.1.177-1.452.532-.352.355-.576.847-.671 1.477h3.99zm1.208 3.57a2.88 2.88 0 0 1-.623.544 3.612 3.612 0 0 1-.75.372 4.548 4.548 0 0 1-.821.21 5.31 5.31 0 0 1-.837.067 3.921 3.921 0 0 1-1.458-.266 3.242 3.242 0 0 1-1.163-.78 3.558 3.558 0 0 1-.765-1.275c-.182-.508-.273-1.091-.273-1.751 0-.53.082-1.024.247-1.482.165-.457.401-.856.709-1.196.307-.34.683-.607 1.129-.802a3.7 3.7 0 0 1 1.5-.293c.465 0 .893.076 1.286.229.392.152.731.373 1.016.664.285.29.509.647.671 1.072.163.425.244.91.244 1.455 0 .225-.025.376-.075.454-.05.077-.142.116-.277.116h-4.995c.015.455.08.851.195 1.189a2.4 2.4 0 0 0 .476.843c.202.226.443.393.724.503.28.11.592.165.937.165.325 0 .606-.037.844-.113.237-.075.442-.156.615-.243.172-.088.317-.169.435-.244a.6.6 0 0 1 .311-.112c.12 0 .212.044.278.135l.42.54zm13.117-8.347h-3.42V53h-1.59v-9.435h-3.435V42.23h8.445v1.335zm5.347 6.053c-.595.02-1.1.066-1.514.138-.416.073-.753.169-1.013.289-.26.12-.447.261-.563.424a.92.92 0 0 0-.172.543c0 .19.031.354.094.492.062.137.147.25.255.337.107.088.233.151.378.192.146.04.303.06.473.06a2.463 2.463 0 0 0 1.62-.562c.15-.121.297-.258.443-.413v-1.5zm-4.29-3.173a4.36 4.36 0 0 1 1.384-.908c.498-.2 1.044-.3 1.639-.3.435 0 .82.072 1.155.214.335.143.617.341.848.597.23.255.403.56.52.914.118.356.177.748.177 1.178V53h-.652a.622.622 0 0 1-.33-.071c-.076-.048-.135-.136-.18-.267l-.158-.667c-.195.18-.387.339-.577.476-.19.138-.39.255-.597.353a3.045 3.045 0 0 1-.663.221c-.236.05-.495.075-.78.075a2.8 2.8 0 0 1-.844-.124 1.79 1.79 0 0 1-1.148-1.016 2.195 2.195 0 0 1-.168-.893c0-.3.08-.588.243-.866.163-.277.428-.526.795-.746.368-.22.848-.4 1.44-.54.593-.14 1.321-.22 2.187-.24v-.555c0-.575-.123-1.005-.368-1.29-.245-.285-.605-.427-1.08-.427-.32 0-.589.04-.806.12a3.11 3.11 0 0 0-.563.266c-.157.097-.295.186-.412.266a.638.638 0 0 1-.364.12.416.416 0 0 1-.259-.082.687.687 0 0 1-.176-.195l-.262-.473zm9.15 4.68c.24.315.5.535.78.66s.585.188.916.188c.68 0 1.203-.243 1.57-.728.368-.485.552-1.217.552-2.197 0-.906-.162-1.57-.488-1.992-.325-.422-.784-.633-1.38-.633-.42 0-.783.094-1.09.284a3.21 3.21 0 0 0-.86.81v3.608zm0-4.695c.316-.35.673-.632 1.073-.848.4-.215.855-.322 1.365-.322.445 0 .846.086 1.204.259.357.172.661.42.911.742.25.323.442.714.578 1.174.135.46.202.98.202 1.56 0 .615-.076 1.175-.229 1.68-.152.505-.37.937-.652 1.297-.283.36-.626.64-1.031.837-.406.197-.86.296-1.365.296a2.99 2.99 0 0 1-.676-.071 2.314 2.314 0 0 1-1.043-.536 3.507 3.507 0 0 1-.412-.443l-.067.637c-.04.206-.165.308-.375.308h-.945V41.93h1.462v4.5z" fill="#233745" fill-rule="nonzero"/><circle fill="#3E5667" cx="79" cy="101" r="3"/><path fill="#B8C7D2" d="M459 57h1v35h-1z"/><g><g transform="translate(450 45)"><rect fill="#3E5667" width="19.2" height="18.4" rx="9.2"/><text font-family="Lato-Heavy, Lato" font-size="9.6" font-weight="600" fill="#FFF"><tspan x="6.816" y="12.2">3</tspan></text></g><path d="M488.35 56.69c.09 0 .167.035.233.105l.63.69a4.5 4.5 0 0 1-1.61 1.208c-.632.285-1.393.427-2.283.427-.78 0-1.486-.135-2.119-.405a4.667 4.667 0 0 1-1.62-1.133 5.095 5.095 0 0 1-1.038-1.74 6.486 6.486 0 0 1-.368-2.227c0-.81.129-1.552.386-2.228a5.114 5.114 0 0 1 1.084-1.74 4.887 4.887 0 0 1 1.669-1.132c.647-.27 1.363-.405 2.149-.405.765 0 1.444.125 2.04.375a5.14 5.14 0 0 1 1.552.998l-.525.742a.451.451 0 0 1-.131.135.366.366 0 0 1-.206.052c-.096 0-.207-.047-.334-.142a4.903 4.903 0 0 0-.503-.319 3.961 3.961 0 0 0-.768-.318c-.306-.096-.685-.143-1.14-.143-.536 0-1.025.094-1.47.281a3.254 3.254 0 0 0-1.152.81 3.676 3.676 0 0 0-.75 1.298c-.177.512-.266 1.091-.266 1.736 0 .655.092 1.237.278 1.748.185.51.44.942.765 1.297s.707.625 1.147.81c.44.185.915.278 1.425.278.31 0 .589-.02.836-.057.248-.037.475-.093.683-.168.207-.076.403-.172.589-.29.185-.117.367-.258.547-.423a.603.603 0 0 1 .128-.086.314.314 0 0 1 .142-.034zm5.422-5.43c.56 0 1.067.091 1.52.274.452.182.837.445 1.154.787.318.343.561.755.732 1.238.17.482.255 1.023.255 1.623 0 .6-.085 1.143-.255 1.628-.17.485-.414.897-.732 1.237-.317.34-.702.602-1.155.784a4.028 4.028 0 0 1-1.518.274 4.05 4.05 0 0 1-1.527-.274 3.225 3.225 0 0 1-1.158-.784 3.48 3.48 0 0 1-.74-1.237 4.832 4.832 0 0 1-.258-1.628c0-.6.086-1.14.259-1.623.172-.483.418-.895.739-1.238.32-.342.706-.605 1.158-.787a4.05 4.05 0 0 1 1.527-.274zm0 6.705c.72 0 1.258-.242 1.613-.728.355-.485.533-1.167.533-2.047 0-.88-.178-1.564-.533-2.051-.355-.488-.892-.732-1.612-.732-.73 0-1.274.244-1.632.732-.357.487-.536 1.171-.536 2.051 0 .88.179 1.562.536 2.048.358.485.901.727 1.631.727zm6.66-5.528c.166-.175.338-.334.518-.48.18-.145.371-.268.574-.37a3.073 3.073 0 0 1 1.398-.327c.42 0 .79.07 1.107.21.317.14.583.336.798.589.216.252.378.556.488.911.11.355.165.747.165 1.177V59h-1.47v-4.853c0-.545-.125-.968-.375-1.27-.25-.303-.632-.455-1.148-.455-.375 0-.726.09-1.053.267a3.51 3.51 0 0 0-.911.723V59h-1.463v-7.62h.878c.205 0 .332.097.382.292l.113.766zm9.405 6.683c-.615 0-1.088-.172-1.42-.518-.333-.345-.5-.837-.5-1.477v-4.56h-.884a.305.305 0 0 1-.214-.079c-.058-.052-.086-.131-.086-.236v-.593l1.237-.172.33-2.272a.353.353 0 0 1 .116-.2.336.336 0 0 1 .221-.07h.743V51.5h2.16v1.065h-2.16v4.462c0 .3.074.524.221.672a.767.767 0 0 0 .566.221c.136 0 .252-.017.35-.053a1.39 1.39 0 0 0 .25-.116c.07-.042.13-.081.18-.116a.244.244 0 0 1 .136-.053c.05 0 .088.012.116.034a.42.42 0 0 1 .086.109l.435.705c-.24.22-.525.39-.855.51-.33.12-.672.18-1.028.18zm7.14-3.502c-.595.02-1.1.066-1.515.138-.415.073-.752.169-1.012.289-.26.12-.447.261-.563.424a.92.92 0 0 0-.172.543c0 .19.031.354.094.492.062.137.147.25.255.337.107.088.233.151.378.192.146.04.303.06.473.06a2.463 2.463 0 0 0 1.62-.562c.15-.121.297-.258.442-.413v-1.5zm-4.29-3.173a4.36 4.36 0 0 1 1.384-.908c.498-.2 1.044-.3 1.639-.3.435 0 .82.072 1.155.214.335.143.617.341.847.597.23.255.404.56.522.914.117.356.176.748.176 1.178V59h-.653a.622.622 0 0 1-.33-.071c-.075-.048-.134-.136-.18-.267l-.157-.667c-.195.18-.387.339-.578.476-.19.138-.388.255-.596.353a3.045 3.045 0 0 1-.664.221c-.235.05-.494.075-.78.075a2.8 2.8 0 0 1-.843-.124 1.79 1.79 0 0 1-1.147-1.016 2.195 2.195 0 0 1-.17-.893c0-.3.082-.588.244-.866.163-.277.428-.526.795-.746.368-.22.848-.4 1.44-.54.593-.14 1.321-.22 2.186-.24v-.555c0-.575-.122-1.005-.367-1.29-.245-.285-.605-.427-1.08-.427-.32 0-.589.04-.806.12a3.11 3.11 0 0 0-.563.266c-.157.097-.295.186-.412.266a.638.638 0 0 1-.364.12.416.416 0 0 1-.259-.082.687.687 0 0 1-.176-.195l-.263-.473zm9.218-1.065V59h-1.463v-7.62h1.463zm.278-2.355a.933.933 0 0 1-.083.386c-.055.123-.129.23-.221.323a1.008 1.008 0 0 1-.716.296.944.944 0 0 1-.383-.079 1.032 1.032 0 0 1-.536-.54.97.97 0 0 1-.079-.386.989.989 0 0 1 .296-.716c.093-.093.199-.165.319-.218a.997.997 0 0 1 .772 0c.126.053.234.125.327.218.092.092.166.2.221.322a.95.95 0 0 1 .083.394zm3.217 3.413c.165-.176.337-.335.517-.48a3.073 3.073 0 0 1 1.973-.698c.42 0 .789.07 1.106.21.318.14.584.336.799.589.215.252.377.556.488.911.11.355.165.747.165 1.178V59h-1.47v-4.852c0-.546-.125-.97-.375-1.272-.25-.302-.633-.453-1.148-.453-.375 0-.726.088-1.054.266a3.51 3.51 0 0 0-.911.724V59h-1.462v-7.62h.877c.205 0 .332.097.382.293l.113.765zm12.067 1.905a2.5 2.5 0 0 0-.123-.803 1.822 1.822 0 0 0-.364-.637c-.16-.18-.355-.32-.585-.42-.23-.1-.495-.15-.795-.15-.615 0-1.099.177-1.451.532-.353.355-.576.847-.671 1.477h3.99zm1.208 3.57a2.88 2.88 0 0 1-.623.543 3.612 3.612 0 0 1-.75.372 4.548 4.548 0 0 1-.82.21 5.31 5.31 0 0 1-.837.067 3.921 3.921 0 0 1-1.459-.266 3.242 3.242 0 0 1-1.162-.78 3.558 3.558 0 0 1-.765-1.275c-.183-.508-.274-1.091-.274-1.751 0-.53.082-1.024.247-1.482.166-.457.402-.856.71-1.196.307-.34.683-.607 1.128-.802a3.7 3.7 0 0 1 1.5-.293c.465 0 .894.076 1.286.229.393.152.731.373 1.016.664.286.29.51.647.672 1.072.162.425.243.91.243 1.455 0 .225-.024.376-.075.454-.05.077-.142.116-.277.116h-4.995c.015.455.08.851.195 1.189a2.4 2.4 0 0 0 .476.844c.203.225.444.392.724.502.28.11.592.165.937.165.326 0 .607-.037.844-.112.238-.076.443-.157.615-.244.173-.088.318-.169.435-.244a.6.6 0 0 1 .311-.112c.12 0 .213.044.278.135l.42.54zm3.068-5.07c.245-.5.54-.893.884-1.178.346-.285.76-.427 1.245-.427.166 0 .322.018.47.056.147.037.275.093.385.169l-.097 1.102c-.035.135-.117.203-.248.203a1.8 1.8 0 0 1-.315-.042 2.334 2.334 0 0 0-.45-.041c-.235 0-.442.034-.622.101-.18.068-.341.168-.484.3a2.043 2.043 0 0 0-.379.488 4.88 4.88 0 0 0-.307.656V59h-1.463v-7.62h.84c.16 0 .27.029.327.086.057.058.098.159.123.304l.09 1.073z" fill="#233745" fill-rule="nonzero"/></g><circle fill="#3E5667" cx="459" cy="96" r="3"/><path fill="#B8C7D2" d="M310 137h1v105h-1z"/><g><g transform="translate(301 238)"><rect fill="#3E5667" width="19.2" height="18.4" rx="9.2"/><text font-family="Lato-Heavy, Lato" font-size="9.6" font-weight="600" fill="#FFF"><tspan x="6.816" y="12.2">2</tspan></text></g><path d="M208.933 252h-1.605v-10.77h1.605V252zm3.727-6.563c.165-.175.337-.334.518-.48a3.073 3.073 0 0 1 1.972-.698c.42.001.789.071 1.106.211.318.14.584.336.799.589.215.252.377.556.488.911.11.355.165.747.165 1.178V252h-1.47v-4.852c0-.546-.125-.97-.375-1.272-.25-.302-.633-.454-1.148-.454-.375 0-.726.09-1.054.267a3.51 3.51 0 0 0-.911.724V252h-1.463v-7.62h.878c.205 0 .332.097.383.293l.112.764zm11.115 3.18c-.595.02-1.1.067-1.515.14-.415.072-.752.168-1.012.288-.26.12-.448.261-.563.424a.92.92 0 0 0-.172.544c0 .19.03.353.093.49.063.138.148.25.255.338.108.088.234.151.379.191.145.04.302.06.473.06a2.463 2.463 0 0 0 1.62-.563c.15-.119.297-.256.442-.411v-1.5zm-4.29-3.172a4.36 4.36 0 0 1 1.384-.908c.497-.2 1.043-.3 1.639-.3.435 0 .82.072 1.154.214.336.143.618.341.848.596.23.256.404.56.521.915.118.356.176.748.176 1.178V252h-.652a.622.622 0 0 1-.33-.071c-.075-.048-.135-.136-.18-.266l-.157-.668c-.196.18-.388.339-.578.476-.19.138-.389.255-.596.353a3.045 3.045 0 0 1-.664.221c-.235.05-.495.075-.78.075a2.8 2.8 0 0 1-.844-.124 1.79 1.79 0 0 1-1.148-1.016 2.195 2.195 0 0 1-.168-.893c0-.3.081-.588.244-.866.162-.277.427-.526.795-.746.367-.22.847-.4 1.44-.54.592-.14 1.321-.22 2.186-.24v-.555c0-.575-.122-1.005-.367-1.29-.246-.285-.605-.428-1.08-.428-.32 0-.59.04-.807.12a3.11 3.11 0 0 0-.562.267c-.158.097-.295.186-.413.266a.638.638 0 0 1-.364.12.416.416 0 0 1-.258-.082.687.687 0 0 1-.177-.196l-.262-.472zm13.027.36a.81.81 0 0 1-.13.131.298.298 0 0 1-.184.049.436.436 0 0 1-.252-.094 2.95 2.95 0 0 0-.81-.405 2.216 2.216 0 0 0-.693-.093c-.36 0-.678.064-.953.195-.275.13-.504.314-.686.555-.183.24-.321.532-.416.877a4.38 4.38 0 0 0-.143 1.163c0 .445.05.84.15 1.188.1.348.242.64.428.878.185.237.41.417.675.54.265.122.56.184.885.184.315 0 .574-.04.78-.117a2.55 2.55 0 0 0 .51-.251c.135-.09.247-.174.337-.251a.423.423 0 0 1 .278-.116c.12 0 .212.044.277.135l.42.54a2.829 2.829 0 0 1-.589.547c-.217.15-.448.272-.693.367a3.918 3.918 0 0 1-.77.21 4.897 4.897 0 0 1-.813.068c-.475 0-.919-.087-1.331-.262a3.016 3.016 0 0 1-1.073-.765 3.661 3.661 0 0 1-.716-1.234c-.175-.488-.262-1.041-.262-1.661 0-.566.078-1.088.236-1.568.157-.48.39-.894.697-1.241.308-.348.686-.62 1.137-.818.45-.197.964-.296 1.545-.296.545 0 1.024.087 1.44.263.415.175.784.422 1.11.742l-.39.54zm9.06 6.195h-1.47v-6.435h-3.824v4.463c0 .3.073.523.22.67a.767.767 0 0 0 .567.222c.135 0 .251-.017.349-.052a1.39 1.39 0 0 0 .251-.117c.07-.042.13-.081.18-.116a.244.244 0 0 1 .135-.053c.05 0 .089.012.116.034a.42.42 0 0 1 .087.109l.435.705c-.24.22-.525.39-.855.51-.33.12-.673.18-1.028.18-.615 0-1.089-.172-1.421-.518-.333-.345-.499-.837-.499-1.477v-4.56h-.885a.305.305 0 0 1-.214-.079c-.057-.052-.086-.131-.086-.236v-.593l1.245-.172.323-2.273a.353.353 0 0 1 .116-.198.336.336 0 0 1 .221-.072h.743v2.558h5.295v7.5zm.33-10.02a.933.933 0 0 1-.082.386c-.055.123-.129.23-.221.323a1.008 1.008 0 0 1-.716.296.944.944 0 0 1-.383-.079 1.032 1.032 0 0 1-.536-.54 1.016 1.016 0 0 1 .536-1.327.997.997 0 0 1 .772 0 1.008 1.008 0 0 1 .548.543.976.976 0 0 1 .083.398zm8.408 2.4l-3.09 7.62h-1.32l-3.09-7.62h1.208a.47.47 0 0 1 .285.083.393.393 0 0 1 .15.21l1.822 4.68c.065.195.121.388.169.58.047.193.091.384.131.575.04-.19.085-.38.135-.57.05-.19.11-.385.18-.585l1.845-4.68a.435.435 0 0 1 .428-.293h1.147zm6.218 2.962a2.5 2.5 0 0 0-.124-.802 1.822 1.822 0 0 0-.364-.637c-.16-.18-.355-.32-.585-.42-.23-.1-.495-.15-.795-.15-.615 0-1.099.177-1.451.532-.353.355-.576.847-.671 1.477h3.99zm1.207 3.57a2.88 2.88 0 0 1-.623.544 3.612 3.612 0 0 1-.75.371 4.548 4.548 0 0 1-.82.21 5.31 5.31 0 0 1-.837.068 3.921 3.921 0 0 1-1.459-.266 3.242 3.242 0 0 1-1.162-.78 3.558 3.558 0 0 1-.765-1.275c-.183-.508-.274-1.091-.274-1.752 0-.53.082-1.023.248-1.48.165-.458.4-.857.708-1.197.308-.34.684-.607 1.129-.803a3.7 3.7 0 0 1 1.5-.292c.465 0 .894.076 1.286.229.393.152.731.373 1.017.663.285.29.508.648.67 1.073.163.425.244.91.244 1.455 0 .225-.024.376-.075.454-.05.077-.142.116-.277.116H252.5c.015.455.08.851.195 1.189a2.4 2.4 0 0 0 .476.843c.203.226.444.393.724.503.28.11.592.165.937.165.326 0 .607-.037.844-.113.238-.075.443-.156.615-.243.173-.088.318-.169.435-.244a.6.6 0 0 1 .311-.113c.12 0 .213.045.278.135l.42.54zm13.118-8.347h-3.42V252h-1.59v-9.435h-3.435v-1.335h8.445v1.335zm5.347 6.053c-.595.02-1.1.066-1.515.138-.415.073-.752.169-1.012.289-.26.12-.448.261-.563.424a.92.92 0 0 0-.172.544c0 .19.03.353.093.49.063.138.148.25.255.338.108.088.234.151.379.191.145.04.302.06.473.06a2.463 2.463 0 0 0 1.62-.563c.15-.119.297-.256.442-.411v-1.5zm-4.29-3.173a4.36 4.36 0 0 1 1.384-.908c.497-.2 1.043-.3 1.639-.3.435 0 .82.072 1.155.214.335.143.617.341.847.596.23.256.404.56.521.915.118.356.177.748.177 1.178V252h-.653a.622.622 0 0 1-.33-.071c-.075-.048-.135-.136-.18-.266l-.157-.668c-.196.18-.388.339-.578.476-.19.138-.389.255-.596.353a3.045 3.045 0 0 1-.664.221c-.235.05-.495.075-.78.075a2.8 2.8 0 0 1-.844-.124 1.79 1.79 0 0 1-1.147-1.016 2.195 2.195 0 0 1-.169-.893c0-.3.081-.588.244-.866.162-.277.427-.526.795-.746.367-.22.847-.4 1.44-.54.592-.14 1.321-.22 2.186-.24v-.555c0-.575-.122-1.005-.367-1.29-.246-.285-.605-.428-1.08-.428-.32 0-.59.04-.807.12a3.11 3.11 0 0 0-.562.267c-.158.097-.295.186-.413.266a.638.638 0 0 1-.363.12.416.416 0 0 1-.26-.082.687.687 0 0 1-.175-.196l-.263-.472zm9.15 4.68c.24.315.5.535.78.66s.585.188.915.188c.68 0 1.204-.243 1.571-.728.368-.485.551-1.217.551-2.197 0-.906-.162-1.57-.487-1.992-.325-.422-.785-.634-1.38-.634-.42 0-.784.095-1.091.286a3.21 3.21 0 0 0-.859.81v3.607zm0-4.695c.315-.35.672-.632 1.073-.848.4-.215.854-.322 1.365-.322.445 0 .846.086 1.203.259.358.172.661.42.912.742.25.323.442.714.577 1.174.135.46.203.98.203 1.56 0 .615-.077 1.175-.23 1.68-.152.505-.37.937-.652 1.298-.282.36-.626.638-1.031.836-.405.197-.86.296-1.365.296a2.99 2.99 0 0 1-.675-.071 2.314 2.314 0 0 1-1.042-.536 3.507 3.507 0 0 1-.413-.443l-.067.638c-.04.205-.165.307-.375.307h-.945v-11.07h1.462v4.5z" fill="#233745" fill-rule="nonzero"/></g><circle fill="#3E5667" cx="311" cy="137" r="3"/></g></svg>