<svg xmlns="http://www.w3.org/2000/svg" xmlns:xlink="http://www.w3.org/1999/xlink" width="726" height="328">
  <defs>
    <path id="b" d="M3 0h84a3 3 0 0 1 3 3v47H0V3a3 3 0 0 1 3-3z"/>
    <filter id="a" width="113.3%" height="124%" x="-6.7%" filterUnits="objectBoundingBox">
      <feMorphology in="SourceAlpha" operator="dilate" radius="1" result="shadowSpreadOuter1"/>
      <feOffset dy="1" in="shadowSpreadOuter1" result="shadowOffsetOuter1"/>
      <feGaussianBlur in="shadowOffsetOuter1" result="shadowBlurOuter1" stdDeviation="1.5"/>
      <feComposite in="shadowBlurOuter1" in2="SourceAlpha" operator="out" result="shadowBlurOuter1"/>
      <feColorMatrix in="shadowBlurOuter1" values="0 0 0 0 0 0 0 0 0 0 0 0 0 0 0 0 0 0 0.0440340909 0"/>
    </filter>
    <path id="d" d="M0 51h643a3 3 0 0 1 3 3v58a3 3 0 0 1-3 3H3a3 3 0 0 1-3-3V51z"/>
    <filter id="c" width="101.9%" height="118.8%" x="-.9%" y="-7.8%" filterUnits="objectBoundingBox">
      <feMorphology in="SourceAlpha" operator="dilate" radius="1" result="shadowSpreadOuter1"/>
      <feOffset dy="1" in="shadowSpreadOuter1" result="shadowOffsetOuter1"/>
      <feGaussianBlur in="shadowOffsetOuter1" result="shadowBlurOuter1" stdDeviation="1.5"/>
      <feComposite in="shadowBlurOuter1" in2="SourceAlpha" operator="out" result="shadowBlurOuter1"/>
      <feColorMatrix in="shadowBlurOuter1" values="0 0 0 0 0 0 0 0 0 0 0 0 0 0 0 0 0 0 0.0440340909 0"/>
    </filter>
  </defs>
  <g fill="none" fill-rule="evenodd">
    <path fill="#FFF" stroke="#B8C7D2" d="M.5.5h725v292H.5z"/>
    <g transform="translate(39 82)">
      <g transform="translate(38)">
        <use fill="#000" filter="url(#a)" xlink:href="#b"/>
        <path fill="#FFF" stroke="#E2E9EE" d="M3-.5h84A3.5 3.5 0 0 1 90.5 3v47.5h-91V3A3.5 3.5 0 0 1 3-.5z"/>
      </g>
      <path fill="#3E5667" fill-rule="nonzero" d="M71.27 17.94c0 .88-.1 1.65-.29 2.3a4.71 4.71 0 0 1-.78 1.61c-.33.43-.73.74-1.18.95-.46.2-.95.31-1.48.31a3.16 3.16 0 0 1-2.64-1.26 4.7 4.7 0 0 1-.77-1.61 8.4 8.4 0 0 1-.28-2.3c0-.89.1-1.66.28-2.3a4.7 4.7 0 0 1 .78-1.61 3.16 3.16 0 0 1 2.63-1.26 3.17 3.17 0 0 1 2.66 1.26c.33.42.6.96.78 1.6.2.65.29 1.42.29 2.3zm-1.79 0c0-.73-.05-1.34-.16-1.82-.1-.48-.25-.86-.43-1.15a1.57 1.57 0 0 0-.62-.6 1.64 1.64 0 0 0-1.44 0c-.23.12-.44.32-.62.6-.17.29-.31.67-.42 1.15-.1.48-.16 1.09-.16 1.82s.06 1.34.16 1.82.25.86.42 1.15c.18.28.39.48.62.6a1.6 1.6 0 0 0 1.44 0c.24-.12.44-.32.62-.6.18-.29.32-.67.43-1.15.1-.48.16-1.09.16-1.82zm4.45-2.02c0 .56.14 1 .44 1.29.29.3.7.44 1.24.44.28 0 .53-.04.75-.13a1.53 1.53 0 0 0 .9-.91c.07-.21.1-.44.1-.68 0-.28-.04-.52-.12-.74a1.52 1.52 0 0 0-.9-.9 1.98 1.98 0 0 0-1.41.02 1.57 1.57 0 0 0-.88.9c-.08.22-.12.45-.12.7zm2.3 3.15a9.85 9.85 0 0 0 .42-.56 2.8 2.8 0 0 1-.77.34 3.31 3.31 0 0 1-1.91-.07 2.58 2.58 0 0 1-1.53-1.46 3.1 3.1 0 0 1-.24-1.27 3.23 3.23 0 0 1 2.05-3.03c.42-.17.9-.25 1.4-.25.53 0 .99.08 1.4.24a2.99 2.99 0 0 1 1.73 1.74c.16.41.24.86.24 1.36a4.72 4.72 0 0 1-.67 2.45c-.14.25-.3.5-.47.74l-2.31 3.3c-.08.11-.2.2-.36.28-.16.08-.34.12-.54.12h-1.59l3.14-3.93zm5.57 3.95a.92.92 0 0 1-.39.48c-.17.11-.35.16-.53.16h-.74l4.1-10.45c.07-.2.18-.35.34-.45.15-.11.33-.16.53-.16h.75L81.8 23.02zm12.23-5.08c0 .88-.1 1.65-.28 2.3a4.71 4.71 0 0 1-.79 1.61c-.33.43-.72.74-1.18.95-.45.2-.94.31-1.47.31s-1.02-.1-1.47-.3c-.45-.22-.84-.53-1.17-.96a4.7 4.7 0 0 1-.78-1.61 8.4 8.4 0 0 1-.28-2.3c0-.89.1-1.66.28-2.3a4.7 4.7 0 0 1 .78-1.61 3.16 3.16 0 0 1 2.64-1.26 3.17 3.17 0 0 1 2.66 1.26c.33.42.59.96.78 1.6.19.65.28 1.42.28 2.3zm-1.78 0c0-.73-.06-1.34-.16-1.82-.11-.48-.25-.86-.43-1.15a1.57 1.57 0 0 0-.62-.6 1.64 1.64 0 0 0-1.45 0c-.23.12-.43.32-.61.6-.18.29-.32.67-.43 1.15-.1.48-.15 1.09-.15 1.82s.05 1.34.15 1.82c.11.48.25.86.43 1.15.18.28.38.48.61.6a1.6 1.6 0 0 0 1.45 0c.23-.12.44-.32.62-.6.18-.29.32-.67.43-1.15.1-.48.16-1.09.16-1.82zm9 3.45c.19 0 .33.05.44.16.11.1.17.24.17.41V23H94.9v-.57a1.03 1.03 0 0 1 .31-.72l3.08-3.08c.25-.26.48-.5.68-.75.2-.24.38-.47.51-.7.14-.24.24-.47.31-.71.08-.24.11-.5.11-.76 0-.25-.03-.46-.1-.64a1.23 1.23 0 0 0-.76-.75c-.18-.07-.38-.1-.6-.1-.21 0-.4.03-.58.09a1.55 1.55 0 0 0-1.02 1.07c-.08.22-.18.36-.3.43-.13.07-.31.09-.55.05l-.91-.16c.07-.49.2-.91.4-1.28a3.06 3.06 0 0 1 1.8-1.47 4.13 4.13 0 0 1 2.53.02 2.65 2.65 0 0 1 1.64 1.5 3.15 3.15 0 0 1 .07 2.22 4.3 4.3 0 0 1-.45.9c-.18.3-.4.58-.64.85l-.78.82-2.28 2.33a5.18 5.18 0 0 1 1.27-.2h2.6z"/>
      <path fill="#748999" fill-rule="nonzero" d="M74.97 37.62c.16 0 .28.04.38.14.1.09.14.2.14.35V39h-5.95v-.5a.88.88 0 0 1 .26-.6l2.63-2.64c.22-.23.42-.44.6-.65.17-.2.31-.4.43-.6.12-.2.2-.4.27-.61.06-.2.09-.42.09-.65 0-.21-.03-.4-.09-.55a1.05 1.05 0 0 0-.65-.64 1.56 1.56 0 0 0-.52-.08c-.18 0-.34.02-.49.07a1.33 1.33 0 0 0-.87.92c-.07.19-.16.3-.27.37-.1.06-.26.07-.46.04l-.78-.14c.06-.41.17-.78.34-1.1a2.63 2.63 0 0 1 1.54-1.25 3.54 3.54 0 0 1 2.17.02 2.27 2.27 0 0 1 1.4 1.28 2.7 2.7 0 0 1 .06 1.9c-.1.27-.22.53-.37.78-.16.25-.35.49-.56.72-.21.23-.43.47-.67.7l-1.95 2a4.44 4.44 0 0 1 1.09-.17h2.23zm7.73-2.96a7.1 7.1 0 0 1-.24 1.97 4.04 4.04 0 0 1-.67 1.39c-.3.36-.63.63-1.02.8a3 3 0 0 1-1.26.28c-.45 0-.87-.1-1.26-.27a2.7 2.7 0 0 1-1-.81c-.29-.37-.51-.83-.67-1.39a7.2 7.2 0 0 1-.24-1.97c0-.76.08-1.42.24-1.97.16-.56.38-1.02.67-1.38a2.7 2.7 0 0 1 2.26-1.08 3 3 0 0 1 1.26.27c.4.17.73.44 1.02.8.28.37.5.83.67 1.39.16.55.24 1.21.24 1.97zm-1.53 0c0-.63-.05-1.15-.14-1.56-.09-.41-.21-.74-.37-.98a1.35 1.35 0 0 0-.53-.51 1.4 1.4 0 0 0-1.24 0c-.2.1-.37.26-.52.5-.15.25-.27.58-.37 1a7.5 7.5 0 0 0-.13 1.55c0 .63.04 1.15.13 1.56.1.41.22.74.37.99.15.24.32.41.52.5a1.37 1.37 0 0 0 1.24 0c.2-.09.38-.26.53-.5.16-.25.28-.58.37-.99.1-.41.14-.93.14-1.56zm8.04 3.23V39h-4.8v-1.11h1.76v-5.06c0-.2 0-.4.02-.62l-1.25 1.05a.52.52 0 0 1-.21.1.5.5 0 0 1-.37-.06.35.35 0 0 1-.1-.1l-.47-.64 2.64-2.25h1.22v7.58h1.56zm2.73-4.96c0 .48.12.85.38 1.1.25.26.6.39 1.06.39.24 0 .45-.04.64-.12a1.31 1.31 0 0 0 .77-.78c.06-.18.1-.37.1-.58 0-.24-.04-.45-.11-.63a1.3 1.3 0 0 0-.78-.77 1.7 1.7 0 0 0-1.2.01 1.35 1.35 0 0 0-.76.78c-.07.18-.1.38-.1.6zm1.97 2.7a8.44 8.44 0 0 0 .36-.48c-.2.13-.42.22-.66.29a2.84 2.84 0 0 1-1.63-.06 2.2 2.2 0 0 1-1.32-1.25c-.13-.3-.2-.67-.2-1.09a2.77 2.77 0 0 1 1.76-2.59c.36-.15.76-.22 1.2-.22.45 0 .84.07 1.2.2a2.56 2.56 0 0 1 1.48 1.5c.14.35.2.74.2 1.16a4.04 4.04 0 0 1-.57 2.1c-.12.22-.25.43-.4.64l-1.99 2.83a.78.78 0 0 1-.3.24c-.14.07-.3.1-.46.1H91.2l2.7-3.37z"/>
      <rect width="26" height="44" x="-.5" y="-.5" fill="#FFF" stroke="#E2E9EE" rx="3"/>
      <path fill="#748999" d="M13.81 26L10 22l3.81-4L15 19.25 12.38 22 15 24.75z"/>
      <path fill="#748999" d="M13.81 26L10 22l3.81-4L15 19.25 12.38 22 15 24.75z"/>
      <g transform="translate(621)">
        <rect width="26" height="44" x="-.5" y="-.5" fill="#FFF" stroke="#E2E9EE" rx="3"/>
        <path fill="#748999" d="M11.19 18L15 22l-3.81 4L10 24.75 12.62 22 10 19.25z"/>
      </g>
      <use fill="#000" filter="url(#c)" xlink:href="#d"/>
      <path fill="#FFF" stroke="#E2E9EE" d="M-.5 50.5H643a3.5 3.5 0 0 1 3.5 3.5v58a3.5 3.5 0 0 1-3.5 3.5H3A3.5 3.5 0 0 1-.5 112V50.5z"/>
      <path fill="#F8FAFC" stroke="#E2E9EE" d="M137-.5h84a3.5 3.5 0 0 1 3.5 3.5v47.5h-91V3A3.5 3.5 0 0 1 137-.5z"/>
      <path fill="#3E5667" fill-rule="nonzero" d="M166.74 21.7V23h-5.6v-1.3h2.05v-5.9l.02-.72-1.45 1.22a.6.6 0 0 1-.25.12.6.6 0 0 1-.42-.07.4.4 0 0 1-.13-.11l-.55-.75 3.1-2.63h1.41v8.84h1.82zm8.65-3.76c0 .88-.1 1.65-.29 2.3a4.71 4.71 0 0 1-.78 1.61c-.33.43-.73.74-1.18.95-.46.2-.95.31-1.48.31a3.16 3.16 0 0 1-2.64-1.26 4.7 4.7 0 0 1-.77-1.61 8.4 8.4 0 0 1-.28-2.3c0-.89.1-1.66.28-2.3a4.7 4.7 0 0 1 .77-1.61 3.16 3.16 0 0 1 2.64-1.26 3.17 3.17 0 0 1 2.66 1.26c.33.42.6.96.78 1.6.2.65.29 1.42.29 2.3zm-1.79 0c0-.73-.05-1.34-.16-1.82-.1-.48-.25-.86-.43-1.15a1.57 1.57 0 0 0-.62-.6 1.64 1.64 0 0 0-1.44 0c-.23.12-.44.32-.62.6-.17.29-.31.67-.42 1.15-.1.48-.16 1.09-.16 1.82s.06 1.34.16 1.82.25.86.42 1.15c.18.28.39.48.62.6a1.6 1.6 0 0 0 1.44 0c.24-.12.44-.32.62-.6.18-.29.32-.67.43-1.15.1-.48.16-1.09.16-1.82zm4.2 5.08a.92.92 0 0 1-.39.48c-.17.11-.35.16-.53.16h-.74l4.1-10.45c.07-.2.18-.35.33-.45.16-.11.34-.16.54-.16h.75l-4.06 10.42zm12.23-5.08c0 .88-.1 1.65-.28 2.3a4.71 4.71 0 0 1-.79 1.61c-.33.43-.72.74-1.18.95-.45.2-.94.31-1.47.31s-1.02-.1-1.47-.3c-.45-.22-.84-.53-1.17-.96a4.7 4.7 0 0 1-.78-1.61 8.4 8.4 0 0 1-.28-2.3c0-.89.1-1.66.28-2.3a4.7 4.7 0 0 1 .78-1.61 3.16 3.16 0 0 1 2.64-1.26 3.17 3.17 0 0 1 2.66 1.26c.33.42.59.96.78 1.6.19.65.28 1.42.28 2.3zm-1.78 0c0-.73-.06-1.34-.16-1.82-.11-.48-.25-.86-.43-1.15a1.57 1.57 0 0 0-.62-.6 1.64 1.64 0 0 0-1.45 0c-.23.12-.43.32-.61.6-.18.29-.32.67-.43 1.15-.1.48-.15 1.09-.15 1.82s.05 1.34.15 1.82c.11.48.25.86.43 1.15.18.28.38.48.61.6a1.6 1.6 0 0 0 1.45 0c.23-.12.44-.32.62-.6.18-.29.32-.67.43-1.15.1-.48.16-1.09.16-1.82zm9 3.45c.19 0 .33.05.44.16.11.1.17.24.17.41V23h-6.95v-.57a1.03 1.03 0 0 1 .31-.72l3.08-3.08c.25-.26.48-.5.68-.75.2-.24.38-.47.51-.7.14-.24.24-.47.31-.71.08-.24.11-.5.11-.76 0-.25-.03-.46-.1-.64a1.23 1.23 0 0 0-.76-.75c-.18-.07-.38-.1-.6-.1-.21 0-.4.03-.58.09a1.55 1.55 0 0 0-1.02 1.07c-.08.22-.18.36-.3.43-.13.07-.31.09-.55.05l-.91-.16c.07-.49.2-.91.4-1.28a3.06 3.06 0 0 1 1.8-1.47 4.13 4.13 0 0 1 2.53.02 2.65 2.65 0 0 1 1.64 1.5 3.15 3.15 0 0 1 .07 2.22 4.3 4.3 0 0 1-.45.9c-.18.3-.4.58-.64.85l-.78.82-2.28 2.33a5.18 5.18 0 0 1 1.27-.2h2.6z"/>
      <path fill="#748999" fill-rule="nonzero" d="M170.97 37.62c.16 0 .28.04.38.14.1.09.14.2.14.35V39h-5.95v-.5a.88.88 0 0 1 .26-.6l2.63-2.64c.22-.23.42-.44.6-.65.17-.2.31-.4.43-.6.12-.2.2-.4.27-.61.06-.2.09-.42.09-.65 0-.21-.03-.4-.09-.55a1.05 1.05 0 0 0-.65-.64 1.56 1.56 0 0 0-.52-.08c-.18 0-.34.02-.49.07a1.33 1.33 0 0 0-.87.92c-.07.19-.16.3-.27.37-.1.06-.26.07-.46.04l-.78-.14c.06-.41.17-.78.34-1.1a2.63 2.63 0 0 1 1.54-1.25 3.54 3.54 0 0 1 2.17.02 2.27 2.27 0 0 1 1.4 1.28 2.7 2.7 0 0 1 .06 1.9c-.1.27-.22.53-.37.78-.16.25-.35.49-.56.72-.21.23-.43.47-.67.7l-1.95 2a4.44 4.44 0 0 1 1.09-.17h2.23zm7.73-2.96a7.1 7.1 0 0 1-.24 1.97 4.04 4.04 0 0 1-.67 1.39c-.3.36-.63.63-1.02.8a3 3 0 0 1-1.26.28c-.45 0-.87-.1-1.26-.27a2.7 2.7 0 0 1-1-.81c-.29-.37-.51-.83-.67-1.39a7.2 7.2 0 0 1-.24-1.97c0-.76.08-1.42.24-1.97.16-.56.38-1.02.67-1.38a2.7 2.7 0 0 1 2.26-1.08 3 3 0 0 1 1.26.27c.4.17.73.44 1.02.8.28.37.5.83.67 1.39.16.55.24 1.21.24 1.97zm-1.53 0c0-.63-.05-1.15-.14-1.56-.09-.41-.21-.74-.37-.98a1.35 1.35 0 0 0-.53-.51 1.4 1.4 0 0 0-1.24 0c-.2.1-.37.26-.52.5-.15.25-.27.58-.37 1a7.5 7.5 0 0 0-.13 1.55c0 .63.04 1.15.14 1.56.09.41.2.74.36.99.15.24.32.41.52.5a1.37 1.37 0 0 0 1.24 0c.2-.09.38-.26.53-.5.16-.25.28-.58.37-.99.1-.41.14-.93.14-1.56zm8.04 3.23V39h-4.8v-1.11h1.76v-5.06c0-.2 0-.4.02-.62l-1.25 1.05a.52.52 0 0 1-.21.1.5.5 0 0 1-.37-.06.35.35 0 0 1-.1-.1l-.47-.64 2.64-2.25h1.22v7.58h1.56zm2.73-4.96c0 .48.12.85.38 1.1.25.26.6.39 1.06.39.24 0 .45-.04.64-.12a1.31 1.31 0 0 0 .76-.78c.07-.18.1-.37.1-.58 0-.24-.03-.45-.1-.63a1.3 1.3 0 0 0-.78-.77 1.7 1.7 0 0 0-1.2.01 1.35 1.35 0 0 0-.76.78c-.07.18-.1.38-.1.6zm1.97 2.7a8.44 8.44 0 0 0 .36-.48c-.2.13-.42.22-.66.29a2.84 2.84 0 0 1-1.63-.06 2.2 2.2 0 0 1-1.31-1.25c-.14-.3-.21-.67-.21-1.09a2.77 2.77 0 0 1 1.76-2.59c.36-.15.76-.22 1.2-.22.45 0 .84.07 1.2.2a2.56 2.56 0 0 1 1.48 1.5c.14.35.2.74.2 1.16a4.04 4.04 0 0 1-.57 2.1c-.12.22-.25.43-.4.64l-1.99 2.83a.78.78 0 0 1-.3.24c-.14.07-.3.1-.46.1h-1.37l2.7-3.37z"/>
      <g>
        <path fill="#F8FAFC" stroke="#E2E9EE" d="M233-.5h84a3.5 3.5 0 0 1 3.5 3.5v47.5h-91V3A3.5 3.5 0 0 1 233-.5z"/>
        <path fill="#3E5667" fill-rule="nonzero" d="M262.74 21.7V23h-5.6v-1.3h2.05v-5.9l.02-.72-1.45 1.22a.6.6 0 0 1-.25.12.6.6 0 0 1-.42-.07.4.4 0 0 1-.13-.11l-.54-.75 3.08-2.63h1.42v8.84h1.82zm8.12 0V23h-5.6v-1.3h2.05v-5.9l.02-.72-1.45 1.22a.6.6 0 0 1-.25.12.6.6 0 0 1-.42-.07.4.4 0 0 1-.13-.11l-.54-.75 3.08-2.63h1.42v8.84h1.82zm2.94 1.32a.92.92 0 0 1-.39.48c-.17.11-.35.16-.53.16h-.74l4.1-10.45c.07-.2.18-.35.33-.45.16-.11.34-.16.54-.16h.75l-4.06 10.42zm12.23-5.08c0 .88-.1 1.65-.28 2.3a4.71 4.71 0 0 1-.79 1.61c-.33.43-.72.74-1.18.95-.45.2-.94.31-1.47.31s-1.02-.1-1.47-.3c-.45-.22-.84-.53-1.17-.96a4.7 4.7 0 0 1-.78-1.61 8.4 8.4 0 0 1-.28-2.3c0-.89.1-1.66.28-2.3a4.7 4.7 0 0 1 .78-1.61 3.16 3.16 0 0 1 2.64-1.26 3.17 3.17 0 0 1 2.66 1.26c.33.42.59.96.78 1.6.19.65.28 1.42.28 2.3zm-1.78 0c0-.73-.06-1.34-.16-1.82-.11-.48-.25-.86-.43-1.15a1.57 1.57 0 0 0-.62-.6 1.64 1.64 0 0 0-1.45 0c-.23.12-.43.32-.61.6-.18.29-.32.67-.43 1.15-.1.48-.15 1.09-.15 1.82s.05 1.34.15 1.82c.11.48.25.86.43 1.15.18.28.38.48.61.6a1.6 1.6 0 0 0 1.45 0c.23-.12.44-.32.62-.6.18-.29.32-.67.43-1.15.1-.48.16-1.09.16-1.82zm9 3.45c.19 0 .33.05.44.16.11.1.17.24.17.41V23h-6.95v-.57a1.03 1.03 0 0 1 .31-.72l3.07-3.08c.26-.26.5-.5.7-.75.2-.24.37-.47.5-.7.14-.24.24-.47.31-.71.08-.24.11-.5.11-.76 0-.25-.03-.46-.1-.64a1.23 1.23 0 0 0-.76-.75c-.18-.07-.38-.1-.6-.1-.21 0-.4.03-.58.09a1.55 1.55 0 0 0-1.02 1.07c-.08.22-.18.36-.3.43-.13.07-.31.09-.55.05l-.91-.16c.07-.49.2-.91.4-1.28a3.06 3.06 0 0 1 1.8-1.47 4.13 4.13 0 0 1 2.53.02 2.65 2.65 0 0 1 1.64 1.5 3.15 3.15 0 0 1 .07 2.22 4.3 4.3 0 0 1-.45.9c-.18.3-.4.58-.64.85l-.78.82-2.28 2.33a5.18 5.18 0 0 1 1.27-.2h2.6z"/>
        <path fill="#748999" fill-rule="nonzero" d="M266.97 37.62c.16 0 .28.04.38.14.1.09.14.2.14.35V39h-5.95v-.5a.88.88 0 0 1 .26-.6l2.63-2.64c.22-.23.42-.44.6-.65.17-.2.31-.4.43-.6.12-.2.2-.4.27-.61.06-.2.09-.42.09-.65 0-.21-.03-.4-.09-.55a1.05 1.05 0 0 0-.65-.64 1.56 1.56 0 0 0-.52-.08c-.18 0-.34.02-.49.07a1.33 1.33 0 0 0-.87.92c-.07.19-.16.3-.27.37-.1.06-.26.07-.46.04l-.78-.14c.06-.41.17-.78.34-1.1a2.63 2.63 0 0 1 1.54-1.25 3.54 3.54 0 0 1 2.17.02 2.27 2.27 0 0 1 1.4 1.28 2.7 2.7 0 0 1 .06 1.9c-.1.27-.22.53-.37.78-.16.25-.35.49-.56.72-.21.23-.43.47-.67.7l-1.95 2a4.44 4.44 0 0 1 1.09-.17h2.23zm7.73-2.96a7.1 7.1 0 0 1-.24 1.97 4.04 4.04 0 0 1-.67 1.39c-.3.36-.63.63-1.02.8a3 3 0 0 1-1.26.28c-.45 0-.87-.1-1.26-.27a2.7 2.7 0 0 1-1-.81c-.29-.37-.51-.83-.67-1.39a7.2 7.2 0 0 1-.24-1.97c0-.76.08-1.42.24-1.97.16-.56.38-1.02.67-1.38a2.7 2.7 0 0 1 2.26-1.08 3 3 0 0 1 1.26.27c.4.17.73.44 1.01.8.3.37.51.83.68 1.39.16.55.24 1.21.24 1.97zm-1.53 0c0-.63-.05-1.15-.14-1.56-.09-.41-.21-.74-.37-.98a1.35 1.35 0 0 0-.53-.51 1.4 1.4 0 0 0-1.24 0c-.2.1-.37.26-.52.5-.15.25-.27.58-.37 1a7.5 7.5 0 0 0-.13 1.55c0 .63.04 1.15.13 1.56.1.41.22.74.37.99.15.24.32.41.52.5a1.37 1.37 0 0 0 1.24 0c.2-.09.38-.26.53-.5.16-.25.28-.58.37-.99.1-.41.14-.93.14-1.56zm8.04 3.23V39h-4.8v-1.11h1.76v-5.06c0-.2 0-.4.02-.62l-1.25 1.05a.52.52 0 0 1-.22.1.5.5 0 0 1-.36-.06.35.35 0 0 1-.1-.1l-.47-.64 2.64-2.25h1.22v7.58h1.56zm2.73-4.96c0 .48.12.85.38 1.1.25.26.6.39 1.06.39.24 0 .45-.04.64-.12a1.31 1.31 0 0 0 .76-.78c.07-.18.1-.37.1-.58 0-.24-.03-.45-.1-.63a1.3 1.3 0 0 0-.78-.77 1.7 1.7 0 0 0-1.2.01 1.35 1.35 0 0 0-.76.78c-.07.18-.1.38-.1.6zm1.97 2.7a8.44 8.44 0 0 0 .36-.48c-.2.13-.42.22-.66.29a2.84 2.84 0 0 1-1.63-.06 2.2 2.2 0 0 1-1.32-1.25c-.13-.3-.2-.67-.2-1.09a2.77 2.77 0 0 1 1.76-2.59c.36-.15.76-.22 1.2-.22.45 0 .84.07 1.2.2a2.56 2.56 0 0 1 1.48 1.5c.14.35.2.74.2 1.16a4.04 4.04 0 0 1-.57 2.1c-.12.22-.25.43-.4.64l-1.99 2.83a.78.78 0 0 1-.3.24c-.14.07-.3.1-.46.1h-1.37l2.7-3.37z"/>
      </g>
      <g>
        <path fill="#F8FAFC" stroke="#E2E9EE" d="M329-.5h84a3.5 3.5 0 0 1 3.5 3.5v47.5h-91V3A3.5 3.5 0 0 1 329-.5z"/>
        <path fill="#3E5667" fill-rule="nonzero" d="M358.74 21.7V23h-5.6v-1.3h2.05v-5.9l.02-.72-1.45 1.22a.6.6 0 0 1-.25.12.6.6 0 0 1-.42-.07.4.4 0 0 1-.13-.11l-.54-.75 3.08-2.63h1.42v8.84h1.82zm7.74-.31c.2 0 .34.05.45.16.1.1.16.24.16.41V23h-6.94v-.57a1.03 1.03 0 0 1 .3-.72l3.08-3.08c.26-.26.49-.5.7-.75.2-.24.36-.47.5-.7.13-.24.24-.47.31-.71s.1-.5.1-.76c0-.25-.03-.46-.1-.64a1.23 1.23 0 0 0-.76-.75c-.18-.07-.38-.1-.6-.1-.2 0-.4.03-.57.09a1.55 1.55 0 0 0-1.02 1.07c-.08.22-.18.36-.3.43-.14.07-.32.09-.55.05l-.91-.16c.07-.49.2-.91.4-1.28a3.06 3.06 0 0 1 1.79-1.47 4.13 4.13 0 0 1 2.54.02 2.65 2.65 0 0 1 1.64 1.5 3.15 3.15 0 0 1 .07 2.22 4.3 4.3 0 0 1-.45.9c-.18.3-.4.58-.65.85l-.77.82-2.29 2.33a5.18 5.18 0 0 1 1.28-.2h2.6zm3.32 1.63a.92.92 0 0 1-.39.48c-.17.11-.35.16-.53.16h-.74l4.1-10.45c.07-.2.18-.35.33-.45.16-.11.34-.16.54-.16h.75l-4.06 10.42zm12.23-5.08c0 .88-.1 1.65-.28 2.3a4.71 4.71 0 0 1-.79 1.61c-.33.43-.72.74-1.18.95-.45.2-.94.31-1.47.31s-1.02-.1-1.47-.3c-.45-.22-.84-.53-1.17-.96a4.7 4.7 0 0 1-.78-1.61 8.4 8.4 0 0 1-.28-2.3c0-.89.1-1.66.28-2.3a4.7 4.7 0 0 1 .78-1.61 3.16 3.16 0 0 1 2.64-1.26 3.17 3.17 0 0 1 2.66 1.26c.33.42.59.96.78 1.6.19.65.28 1.42.28 2.3zm-1.78 0c0-.73-.06-1.34-.16-1.82-.11-.48-.25-.86-.43-1.15a1.57 1.57 0 0 0-.62-.6 1.64 1.64 0 0 0-1.45 0c-.23.12-.43.32-.61.6-.18.29-.32.67-.43 1.15-.1.48-.15 1.09-.15 1.82s.05 1.34.15 1.82c.11.48.25.86.43 1.15.18.28.38.48.61.6a1.6 1.6 0 0 0 1.45 0c.23-.12.44-.32.62-.6.18-.29.32-.67.43-1.15.1-.48.16-1.09.16-1.82zm9 3.45c.19 0 .33.05.44.16.11.1.17.24.17.41V23h-6.95v-.57a1.03 1.03 0 0 1 .31-.72l3.07-3.08c.26-.26.5-.5.7-.75.2-.24.37-.47.5-.7.14-.24.24-.47.31-.71.08-.24.11-.5.11-.76 0-.25-.03-.46-.1-.64a1.23 1.23 0 0 0-.76-.75c-.18-.07-.38-.1-.6-.1-.21 0-.4.03-.58.09a1.55 1.55 0 0 0-1.02 1.07c-.08.22-.18.36-.3.43-.13.07-.31.09-.55.05l-.91-.16c.07-.49.2-.91.4-1.28a3.06 3.06 0 0 1 1.8-1.47 4.13 4.13 0 0 1 2.53.02 2.65 2.65 0 0 1 1.64 1.5 3.15 3.15 0 0 1 .07 2.22 4.3 4.3 0 0 1-.45.9c-.18.3-.4.58-.64.85l-.78.82-2.28 2.33a5.18 5.18 0 0 1 1.27-.2h2.6z"/>
        <path fill="#748999" fill-rule="nonzero" d="M362.97 37.62c.16 0 .28.04.38.14.1.09.14.2.14.35V39h-5.95v-.5a.88.88 0 0 1 .26-.6l2.63-2.64c.22-.23.42-.44.6-.65.17-.2.31-.4.43-.6.12-.2.2-.4.27-.61.06-.2.09-.42.09-.65 0-.21-.03-.4-.09-.55a1.05 1.05 0 0 0-.65-.64 1.56 1.56 0 0 0-.52-.08c-.18 0-.34.02-.49.07a1.33 1.33 0 0 0-.87.92c-.07.19-.16.3-.27.37-.1.06-.26.07-.46.04l-.78-.14c.06-.41.17-.78.34-1.1a2.63 2.63 0 0 1 1.54-1.25 3.54 3.54 0 0 1 2.17.02 2.27 2.27 0 0 1 1.4 1.28 2.7 2.7 0 0 1 .06 1.9c-.1.27-.22.53-.37.78-.16.25-.35.49-.56.72-.21.23-.43.47-.67.7l-1.95 2a4.44 4.44 0 0 1 1.09-.17h2.23zm7.73-2.96a7.1 7.1 0 0 1-.24 1.97 4.04 4.04 0 0 1-.67 1.39c-.3.36-.63.63-1.02.8a3 3 0 0 1-1.26.28c-.45 0-.87-.1-1.26-.27a2.7 2.7 0 0 1-1-.81c-.29-.37-.51-.83-.67-1.39a7.2 7.2 0 0 1-.24-1.97c0-.76.08-1.42.24-1.97.16-.56.38-1.02.67-1.38a2.7 2.7 0 0 1 2.26-1.08 3 3 0 0 1 1.26.27c.4.17.73.44 1.01.8.3.37.51.83.68 1.39.16.55.24 1.21.24 1.97zm-1.53 0c0-.63-.05-1.15-.14-1.56-.09-.41-.21-.74-.37-.98a1.35 1.35 0 0 0-.53-.51 1.4 1.4 0 0 0-1.24 0c-.2.1-.37.26-.52.5-.15.25-.27.58-.37 1a7.5 7.5 0 0 0-.13 1.55c0 .63.04 1.15.13 1.56.1.41.22.74.37.99.15.24.32.41.52.5a1.37 1.37 0 0 0 1.24 0c.2-.09.38-.26.53-.5.16-.25.28-.58.37-.99.1-.41.14-.93.14-1.56zm8.04 3.23V39h-4.8v-1.11h1.76v-5.06c0-.2 0-.4.02-.62l-1.25 1.05a.52.52 0 0 1-.22.1.5.5 0 0 1-.36-.06.35.35 0 0 1-.1-.1l-.47-.64 2.64-2.25h1.22v7.58h1.56zm2.73-4.96c0 .48.12.85.38 1.1.25.26.6.39 1.06.39.24 0 .45-.04.64-.12a1.31 1.31 0 0 0 .76-.78c.07-.18.1-.37.1-.58 0-.24-.03-.45-.1-.63a1.3 1.3 0 0 0-.78-.77 1.7 1.7 0 0 0-1.2.01 1.35 1.35 0 0 0-.76.78c-.07.18-.1.38-.1.6zm1.97 2.7a8.44 8.44 0 0 0 .36-.48c-.2.13-.42.22-.66.29a2.84 2.84 0 0 1-1.63-.06 2.2 2.2 0 0 1-1.32-1.25c-.13-.3-.2-.67-.2-1.09a2.77 2.77 0 0 1 1.76-2.59c.36-.15.76-.22 1.2-.22.45 0 .84.07 1.2.2a2.56 2.56 0 0 1 1.48 1.5c.14.35.2.74.2 1.16a4.04 4.04 0 0 1-.57 2.1c-.12.22-.25.43-.4.64l-1.99 2.83a.78.78 0 0 1-.3.24c-.14.07-.3.1-.46.1h-1.37l2.7-3.37z"/>
      </g>
      <g>
        <path fill="#F8FAFC" stroke="#E2E9EE" d="M425-.5h84a3.5 3.5 0 0 1 3.5 3.5v47.5h-91V3A3.5 3.5 0 0 1 425-.5z"/>
        <path fill="#3E5667" fill-rule="nonzero" d="M454.74 21.7V23h-5.6v-1.3h2.05v-5.9l.02-.72-1.45 1.22a.6.6 0 0 1-.25.12.6.6 0 0 1-.42-.07.4.4 0 0 1-.13-.11l-.54-.75 3.08-2.63h1.42v8.84h1.82zm7.74-.31c.2 0 .34.05.45.16.1.1.16.24.16.41V23h-6.94v-.57a1.03 1.03 0 0 1 .3-.72l3.08-3.08c.26-.26.49-.5.7-.75.2-.24.36-.47.5-.7.13-.24.24-.47.31-.71s.1-.5.1-.76c0-.25-.03-.46-.1-.64a1.23 1.23 0 0 0-.76-.75c-.18-.07-.38-.1-.6-.1-.2 0-.4.03-.57.09a1.55 1.55 0 0 0-1.02 1.07c-.08.22-.18.36-.3.43-.14.07-.32.09-.55.05l-.91-.16c.07-.49.2-.91.4-1.28a3.06 3.06 0 0 1 1.79-1.47 4.13 4.13 0 0 1 2.54.02 2.65 2.65 0 0 1 1.64 1.5 3.15 3.15 0 0 1 .07 2.22 4.3 4.3 0 0 1-.45.9c-.18.3-.4.58-.65.85l-.77.82-2.29 2.33a5.18 5.18 0 0 1 1.28-.2h2.6zm3.32 1.63a.92.92 0 0 1-.39.48c-.17.11-.35.16-.53.16h-.74l4.1-10.45c.07-.2.18-.35.33-.45.16-.11.34-.16.54-.16h.75l-4.06 10.42zm12.23-5.08c0 .88-.1 1.65-.28 2.3a4.71 4.71 0 0 1-.79 1.61c-.33.43-.72.74-1.18.95-.45.2-.94.31-1.47.31s-1.02-.1-1.47-.3c-.45-.22-.84-.53-1.17-.96a4.7 4.7 0 0 1-.78-1.61 8.4 8.4 0 0 1-.28-2.3c0-.89.1-1.66.28-2.3a4.7 4.7 0 0 1 .78-1.61 3.16 3.16 0 0 1 2.64-1.26 3.17 3.17 0 0 1 2.66 1.26c.33.42.59.96.78 1.6.19.65.28 1.42.28 2.3zm-1.78 0c0-.73-.06-1.34-.16-1.82-.11-.48-.25-.86-.43-1.15a1.57 1.57 0 0 0-.62-.6 1.64 1.64 0 0 0-1.45 0c-.23.12-.43.32-.61.6-.18.29-.32.67-.43 1.15-.1.48-.15 1.09-.15 1.82s.05 1.34.15 1.82c.11.48.25.86.43 1.15.18.28.38.48.61.6a1.6 1.6 0 0 0 1.45 0c.23-.12.44-.32.62-.6.18-.29.32-.67.43-1.15.1-.48.16-1.09.16-1.82zm9 3.45c.19 0 .33.05.44.16.11.1.17.24.17.41V23h-6.95v-.57a1.03 1.03 0 0 1 .31-.72l3.07-3.08c.26-.26.5-.5.7-.75.2-.24.37-.47.5-.7.14-.24.24-.47.31-.71.08-.24.11-.5.11-.76 0-.25-.03-.46-.1-.64a1.23 1.23 0 0 0-.76-.75c-.18-.07-.38-.1-.6-.1-.21 0-.4.03-.58.09a1.55 1.55 0 0 0-1.02 1.07c-.08.22-.18.36-.3.43-.13.07-.31.09-.55.05l-.91-.16c.07-.49.2-.91.4-1.28a3.06 3.06 0 0 1 1.8-1.47 4.13 4.13 0 0 1 2.53.02 2.65 2.65 0 0 1 1.64 1.5 3.15 3.15 0 0 1 .07 2.22 4.3 4.3 0 0 1-.45.9c-.18.3-.4.58-.64.85l-.78.82-2.28 2.33a5.18 5.18 0 0 1 1.27-.2h2.6z"/>
        <path fill="#748999" fill-rule="nonzero" d="M458.97 37.62c.16 0 .28.04.38.14.1.09.14.2.14.35V39h-5.95v-.5a.88.88 0 0 1 .26-.6l2.63-2.64c.22-.23.42-.44.6-.65.17-.2.31-.4.43-.6.12-.2.2-.4.27-.61.06-.2.09-.42.09-.65 0-.21-.03-.4-.09-.55a1.05 1.05 0 0 0-.65-.64 1.56 1.56 0 0 0-.52-.08c-.18 0-.34.02-.49.07a1.33 1.33 0 0 0-.87.92c-.07.19-.16.3-.27.37-.1.06-.26.07-.46.04l-.78-.14c.06-.41.17-.78.34-1.1a2.63 2.63 0 0 1 1.54-1.25 3.54 3.54 0 0 1 2.17.02 2.27 2.27 0 0 1 1.4 1.28 2.7 2.7 0 0 1 .06 1.9c-.1.27-.22.53-.37.78-.16.25-.35.49-.56.72-.21.23-.43.47-.67.7l-1.95 2a4.44 4.44 0 0 1 1.09-.17h2.23zm7.73-2.96a7.1 7.1 0 0 1-.24 1.97 4.04 4.04 0 0 1-.67 1.39c-.3.36-.63.63-1.02.8a3 3 0 0 1-1.26.28c-.45 0-.87-.1-1.26-.27a2.7 2.7 0 0 1-1-.81c-.29-.37-.51-.83-.67-1.39a7.2 7.2 0 0 1-.24-1.97c0-.76.08-1.42.24-1.97.16-.56.38-1.02.67-1.38a2.7 2.7 0 0 1 2.26-1.08 3 3 0 0 1 1.26.27c.4.17.73.44 1.01.8.3.37.51.83.68 1.39.16.55.24 1.21.24 1.97zm-1.53 0c0-.63-.05-1.15-.14-1.56-.09-.41-.21-.74-.37-.98a1.35 1.35 0 0 0-.53-.51 1.4 1.4 0 0 0-1.24 0c-.2.1-.37.26-.52.5-.15.25-.27.58-.37 1a7.5 7.5 0 0 0-.13 1.55c0 .63.04 1.15.13 1.56.1.41.22.74.37.99.15.24.32.41.52.5a1.37 1.37 0 0 0 1.24 0c.2-.09.38-.26.53-.5.16-.25.28-.58.37-.99.1-.41.14-.93.14-1.56zm8.04 3.23V39h-4.8v-1.11h1.76v-5.06c0-.2 0-.4.02-.62l-1.25 1.05a.52.52 0 0 1-.22.1.5.5 0 0 1-.36-.06.35.35 0 0 1-.1-.1l-.47-.64 2.64-2.25h1.22v7.58h1.56zm2.73-4.96c0 .48.12.85.38 1.1.25.26.6.39 1.06.39.24 0 .45-.04.64-.12a1.31 1.31 0 0 0 .76-.78c.07-.18.1-.37.1-.58 0-.24-.03-.45-.1-.63a1.3 1.3 0 0 0-.78-.77 1.7 1.7 0 0 0-1.2.01 1.35 1.35 0 0 0-.76.78c-.07.18-.1.38-.1.6zm1.97 2.7a8.44 8.44 0 0 0 .36-.48c-.2.13-.42.22-.66.29a2.84 2.84 0 0 1-1.63-.06 2.2 2.2 0 0 1-1.32-1.25c-.13-.3-.2-.67-.2-1.09a2.77 2.77 0 0 1 1.76-2.59c.36-.15.76-.22 1.2-.22.45 0 .84.07 1.2.2a2.56 2.56 0 0 1 1.48 1.5c.14.35.2.74.2 1.16a4.04 4.04 0 0 1-.57 2.1c-.12.22-.25.43-.4.64l-1.99 2.83a.78.78 0 0 1-.3.24c-.14.07-.3.1-.46.1h-1.37l2.7-3.37z"/>
      </g>
      <g>
        <path fill="#F8FAFC" stroke="#E2E9EE" d="M521-.5h84a3.5 3.5 0 0 1 3.5 3.5v47.5h-91V3A3.5 3.5 0 0 1 521-.5z"/>
        <path fill="#3E5667" fill-rule="nonzero" d="M550.74 21.7V23h-5.6v-1.3h2.05v-5.9l.03-.72-1.46 1.22a.6.6 0 0 1-.25.12.6.6 0 0 1-.42-.07.4.4 0 0 1-.13-.11l-.55-.75 3.1-2.63h1.41v8.84h1.82zm7.75-.31c.18 0 .33.05.44.16.1.1.16.24.16.41V23h-6.94v-.57a1.03 1.03 0 0 1 .3-.72l3.08-3.08c.26-.26.49-.5.69-.75.2-.24.37-.47.5-.7a2.62 2.62 0 0 0 .42-1.47c0-.25-.03-.46-.1-.64a1.23 1.23 0 0 0-.76-.75c-.18-.07-.38-.1-.6-.1-.2 0-.4.03-.57.09a1.55 1.55 0 0 0-1.02 1.07c-.08.22-.18.36-.3.43-.14.07-.32.09-.56.05l-.9-.16c.07-.49.2-.91.4-1.28a3.06 3.06 0 0 1 1.79-1.47 4.13 4.13 0 0 1 2.54.02 2.65 2.65 0 0 1 1.64 1.5 3.15 3.15 0 0 1 .07 2.22 4.3 4.3 0 0 1-.45.9c-.18.3-.4.58-.65.85l-.77.82-2.29 2.33a5.18 5.18 0 0 1 1.28-.2h2.6zm3.3 1.63a.92.92 0 0 1-.38.48c-.17.11-.35.16-.53.16h-.74l4.1-10.45c.07-.2.18-.35.34-.45.15-.11.33-.16.53-.16h.75l-4.06 10.42zm12.24-5.08c0 .88-.1 1.65-.28 2.3a4.71 4.71 0 0 1-.79 1.61c-.33.43-.72.74-1.18.95-.45.2-.94.31-1.47.31s-1.02-.1-1.47-.3c-.45-.22-.84-.53-1.17-.96a4.7 4.7 0 0 1-.78-1.61 8.4 8.4 0 0 1-.28-2.3c0-.89.1-1.66.28-2.3a4.7 4.7 0 0 1 .78-1.61 3.16 3.16 0 0 1 2.64-1.26 3.17 3.17 0 0 1 2.66 1.26c.33.42.59.96.78 1.6.19.65.28 1.42.28 2.3zm-1.78 0c0-.73-.06-1.34-.16-1.82-.11-.48-.25-.86-.43-1.15a1.57 1.57 0 0 0-.62-.6 1.64 1.64 0 0 0-1.45 0c-.23.12-.43.32-.61.6-.18.29-.32.67-.43 1.15-.1.48-.15 1.09-.15 1.82s.05 1.34.15 1.82c.11.48.25.86.43 1.15.18.28.38.48.61.6a1.6 1.6 0 0 0 1.45 0c.23-.12.44-.32.62-.6.18-.29.32-.67.43-1.15.1-.48.16-1.09.16-1.82zm9 3.45c.19 0 .33.05.44.16.11.1.17.24.17.41V23h-6.95v-.57a1.03 1.03 0 0 1 .31-.72l3.07-3.08c.26-.26.5-.5.7-.75.2-.24.37-.47.5-.7.14-.24.24-.47.31-.71.08-.24.11-.5.11-.76 0-.25-.03-.46-.1-.64a1.23 1.23 0 0 0-.76-.75c-.18-.07-.38-.1-.6-.1-.21 0-.4.03-.58.09a1.55 1.55 0 0 0-1.02 1.07c-.08.22-.18.36-.3.43-.13.07-.31.09-.55.05l-.91-.16c.07-.49.2-.91.4-1.28a3.06 3.06 0 0 1 1.8-1.47 4.13 4.13 0 0 1 2.53.02 2.65 2.65 0 0 1 1.64 1.5 3.15 3.15 0 0 1 .07 2.22 4.3 4.3 0 0 1-.45.9c-.18.3-.4.58-.64.85l-.78.82-2.28 2.33a5.18 5.18 0 0 1 1.27-.2h2.6z"/>
        <path fill="#748999" fill-rule="nonzero" d="M554.97 37.62c.16 0 .28.04.38.14.1.09.14.2.14.35V39h-5.95v-.5a.88.88 0 0 1 .26-.6l2.63-2.64c.22-.23.42-.44.6-.65.17-.2.31-.4.43-.6.12-.2.2-.4.27-.61.06-.2.09-.42.09-.65 0-.21-.03-.4-.09-.55a1.05 1.05 0 0 0-.65-.64 1.56 1.56 0 0 0-.52-.08c-.18 0-.34.02-.49.07a1.33 1.33 0 0 0-.87.92c-.07.19-.16.3-.27.37-.1.06-.26.07-.46.04l-.78-.14c.06-.41.17-.78.34-1.1a2.63 2.63 0 0 1 1.54-1.25 3.54 3.54 0 0 1 2.17.02 2.27 2.27 0 0 1 1.4 1.28 2.7 2.7 0 0 1 .06 1.9c-.1.27-.22.53-.37.78-.16.25-.35.49-.56.72-.21.23-.43.47-.67.7l-1.95 2a4.44 4.44 0 0 1 1.09-.17h2.23zm7.73-2.96a7.1 7.1 0 0 1-.24 1.97 4.04 4.04 0 0 1-.68 1.39c-.28.36-.62.63-1 .8a3 3 0 0 1-1.27.28c-.45 0-.87-.1-1.26-.27a2.7 2.7 0 0 1-1-.81c-.29-.37-.51-.83-.67-1.39a7.2 7.2 0 0 1-.24-1.97c0-.76.08-1.42.24-1.97.16-.56.38-1.02.67-1.38a2.7 2.7 0 0 1 2.26-1.08 3 3 0 0 1 1.26.27c.4.17.73.44 1.02.8.28.37.5.83.67 1.39.16.55.24 1.21.24 1.97zm-1.53 0c0-.63-.05-1.15-.14-1.56-.09-.41-.21-.74-.37-.98a1.35 1.35 0 0 0-.53-.51 1.4 1.4 0 0 0-1.24 0c-.2.1-.37.26-.52.5-.15.25-.27.58-.36 1a7.5 7.5 0 0 0-.14 1.55c0 .63.04 1.15.14 1.56.09.41.2.74.36.99.15.24.32.41.52.5a1.37 1.37 0 0 0 1.24 0c.2-.09.38-.26.53-.5.16-.25.28-.58.37-.99.1-.41.14-.93.14-1.56zm8.04 3.23V39h-4.8v-1.11h1.76v-5.06c0-.2 0-.4.02-.62l-1.25 1.05a.52.52 0 0 1-.21.1.5.5 0 0 1-.37-.06.35.35 0 0 1-.1-.1l-.47-.64 2.64-2.25h1.22v7.58h1.56zm2.73-4.96c0 .48.12.85.38 1.1.25.26.6.39 1.06.39.24 0 .45-.04.64-.12a1.31 1.31 0 0 0 .77-.78c.06-.18.1-.37.1-.58 0-.24-.04-.45-.11-.63a1.3 1.3 0 0 0-.78-.77 1.7 1.7 0 0 0-1.2.01 1.35 1.35 0 0 0-.76.78c-.07.18-.1.38-.1.6zm1.97 2.7a8.44 8.44 0 0 0 .36-.48c-.2.13-.42.22-.66.29a2.84 2.84 0 0 1-1.63-.06 2.2 2.2 0 0 1-1.31-1.25c-.14-.3-.21-.67-.21-1.09a2.77 2.77 0 0 1 1.76-2.59c.36-.15.76-.22 1.2-.22.45 0 .84.07 1.2.2a2.56 2.56 0 0 1 1.48 1.5c.14.35.2.74.2 1.16a4.04 4.04 0 0 1-.57 2.1c-.12.22-.25.43-.4.64l-1.99 2.83a.78.78 0 0 1-.3.24c-.14.07-.3.1-.46.1h-1.37l2.7-3.37z"/>
      </g>
      <path fill="#FFF" d="M38 49h90v3H38z"/>
    </g>
    <text fill="#3E5667" font-family="Lato-Medium, Lato" font-size="15" font-weight="400">
      <tspan x="0" y="322">Anatomy of the Tab Set component.</tspan>
    </text>
    <path fill="#B8C7D2" d="M88 56h1v45h-1z"/>
    <g transform="translate(79 39)">
      <rect width="19.2" height="18.4" fill="#3E5667" rx="9.2"/>
      <text fill="#FFF" font-family="Lato-Heavy, Lato" font-size="9.6" font-weight="600">
        <tspan x="6.82" y="12.2">1</tspan>
      </text>
    </g>
    <path fill="#233745" fill-rule="nonzero" d="M115.05 48.99l-1.6-4.18a9.31 9.31 0 0 1-.34-1.08 12.29 12.29 0 0 1-.34 1.1l-1.59 4.16h3.87zm3.16 4.01h-1.23a.55.55 0 0 1-.54-.38l-.95-2.5h-4.75l-.95 2.5a.6.6 0 0 1-.2.26.53.53 0 0 1-.34.12h-1.23l4.29-10.77h1.6l4.3 10.77zm6.38-6.2a.81.81 0 0 1-.13.14.3.3 0 0 1-.18.05.44.44 0 0 1-.26-.1 3.3 3.3 0 0 0-.8-.4c-.2-.07-.42-.1-.7-.1-.36 0-.68.07-.95.2-.28.13-.5.31-.69.55-.18.24-.32.53-.41.88-.1.35-.15.73-.15 1.16 0 .45.05.84.15 1.2.1.34.24.63.43.87s.41.42.68.54c.26.12.55.18.88.18a2.23 2.23 0 0 0 1.29-.37c.14-.09.25-.17.34-.25a.42.42 0 0 1 .28-.11c.12 0 .2.04.27.13l.42.54c-.17.22-.37.4-.59.55a3.35 3.35 0 0 1-1.46.58 4.9 4.9 0 0 1-.81.06c-.48 0-.92-.08-1.33-.26a3.02 3.02 0 0 1-1.08-.76c-.3-.34-.54-.75-.71-1.24a4.9 4.9 0 0 1-.26-1.66 5 5 0 0 1 .23-1.57 3.22 3.22 0 0 1 1.83-2.06c.46-.2.97-.29 1.55-.29a3.52 3.52 0 0 1 2.55 1l-.39.54zm9.06 6.2h-1.47v-6.43h-3.83v4.46c0 .3.08.52.23.67.14.15.33.22.56.22.14 0 .25-.02.35-.05l.25-.12.18-.12c.05-.03.1-.05.14-.05.05 0 .09.01.11.04.03.02.06.05.09.1l.44.71c-.25.22-.53.39-.86.51-.33.12-.67.18-1.03.18-.61 0-1.09-.17-1.42-.52-.33-.34-.5-.83-.5-1.48v-4.56h-.88a.3.3 0 0 1-.22-.07c-.05-.06-.08-.13-.08-.24v-.6l1.24-.17.33-2.27a.35.35 0 0 1 .11-.2.34.34 0 0 1 .22-.07h.75v2.56h5.29V53zm.33-10.02c0 .14-.03.26-.08.39a1 1 0 0 1-1.64.32 1.02 1.02 0 0 1-.22-1.1 1 1 0 0 1 .92-.63 1 1 0 0 1 .72.3 1.06 1.06 0 0 1 .3.72zm8.4 2.4L139.3 53h-1.32l-3.1-7.62h1.22c.11 0 .2.03.28.08a.4.4 0 0 1 .15.21l1.82 4.68a7.58 7.58 0 0 1 .3 1.16 11.76 11.76 0 0 1 .32-1.16l1.84-4.68a.44.44 0 0 1 .43-.29h1.15zm6.23 2.96c0-.29-.05-.55-.13-.8s-.2-.46-.36-.64a1.65 1.65 0 0 0-.59-.42c-.23-.1-.5-.15-.8-.15-.6 0-1.1.18-1.44.54-.36.35-.58.84-.67 1.47h3.99zm1.2 3.57c-.18.21-.38.4-.62.55a4.55 4.55 0 0 1-2.4.65c-.53 0-1.02-.1-1.47-.27a3.24 3.24 0 0 1-1.92-2.06 5.16 5.16 0 0 1-.03-3.23 3.27 3.27 0 0 1 1.84-2c.44-.2.94-.29 1.5-.29.46 0 .9.08 1.28.23a2.86 2.86 0 0 1 1.7 1.73c.15.43.24.91.24 1.46 0 .23-.03.38-.08.45-.05.08-.14.12-.28.12h-5c.02.46.09.85.2 1.19.12.34.28.62.48.84.2.23.44.4.72.5.28.12.6.17.94.17.33 0 .6-.04.84-.11a4.1 4.1 0 0 0 1.05-.49.6.6 0 0 1 .32-.11c.12 0 .2.04.27.13l.42.54zm13.12-8.34h-3.42V53h-1.59v-9.43h-3.44v-1.34h8.45v1.34zm5.35 6.05c-.6.02-1.1.06-1.52.14-.41.07-.75.16-1.01.29-.26.12-.45.26-.56.42a.92.92 0 0 0-.17.54c0 .2.03.36.09.5a.91.91 0 0 0 .63.52c.15.04.3.06.47.06a2.65 2.65 0 0 0 1.15-.26c.17-.08.32-.18.47-.3.16-.12.3-.26.45-.41v-1.5zm-4.3-3.17a4.35 4.35 0 0 1 3.02-1.2c.45-.01.83.06 1.17.2a2.38 2.38 0 0 1 1.36 1.51c.12.36.18.75.18 1.18V53h-.65a.62.62 0 0 1-.33-.07c-.08-.05-.14-.14-.18-.27l-.16-.66c-.2.18-.39.33-.58.47a3.7 3.7 0 0 1-1.26.58c-.23.05-.5.07-.78.07-.3 0-.58-.04-.84-.12a1.79 1.79 0 0 1-1.15-1.02 2.2 2.2 0 0 1-.17-.9c0-.3.08-.58.25-.86.16-.28.42-.52.8-.74.36-.23.84-.4 1.43-.54.6-.15 1.32-.22 2.19-.24v-.56c0-.58-.12-1-.37-1.29-.25-.29-.6-.43-1.08-.43a2.35 2.35 0 0 0-1.37.39c-.16.1-.3.18-.41.27a.64.64 0 0 1-.36.12.42.42 0 0 1-.26-.09.69.69 0 0 1-.18-.2l-.26-.46zm9.16 4.67c.24.32.5.54.78.67.28.12.58.18.91.18.68 0 1.2-.24 1.57-.73.37-.48.55-1.21.55-2.2 0-.9-.16-1.56-.48-1.98a1.64 1.64 0 0 0-1.38-.64c-.42 0-.79.1-1.1.29-.3.19-.59.46-.85.8v3.62zm0-4.69c.31-.35.67-.63 1.07-.85.4-.21.85-.32 1.37-.32a2.53 2.53 0 0 1 2.11 1c.25.32.44.71.58 1.17.13.47.2.98.2 1.56a5.8 5.8 0 0 1-.23 1.68c-.15.51-.37.94-.65 1.3a2.93 2.93 0 0 1-2.4 1.13 3 3 0 0 1-.67-.07 2.38 2.38 0 0 1-1.05-.53 3.5 3.5 0 0 1-.4-.45l-.08.64c-.04.2-.16.31-.37.31h-.95V41.93h1.47v4.5z"/>
    <circle cx="88.5" cy="101" r="3" fill="#3E5667"/>
    <path fill="#B8C7D2" d="M479 44h1v35h-1z"/>
    <g transform="translate(470 30)">
      <rect width="19.2" height="18.4" fill="#3E5667" rx="9.2"/>
      <text fill="#FFF" font-family="Lato-Heavy, Lato" font-size="9.6" font-weight="600">
        <tspan x="6.82" y="12.2">3</tspan>
      </text>
    </g>
    <path fill="#233745" fill-rule="nonzero" d="M508.35 41.69a.3.3 0 0 1 .23.1l.63.7a4.5 4.5 0 0 1-1.6 1.2c-.64.29-1.4.43-2.29.43-.78 0-1.49-.13-2.12-.4a4.67 4.67 0 0 1-2.66-2.88 6.49 6.49 0 0 1-.36-2.23c0-.8.12-1.55.38-2.22a4.89 4.89 0 0 1 2.75-2.87c.65-.28 1.37-.41 2.15-.41a5.23 5.23 0 0 1 3.6 1.37l-.53.75a.45.45 0 0 1-.13.13.37.37 0 0 1-.2.05c-.1 0-.21-.04-.34-.14a4.9 4.9 0 0 0-1.27-.64c-.3-.1-.69-.14-1.14-.14-.54 0-1.03.1-1.47.28-.45.19-.83.46-1.15.81-.33.35-.58.79-.75 1.3-.18.51-.27 1.09-.27 1.74 0 .65.1 1.23.28 1.74.18.51.44.94.76 1.3.33.36.71.62 1.15.81.44.19.91.28 1.42.28.32 0 .6-.02.84-.06a3.59 3.59 0 0 0 1.27-.46c.19-.11.37-.25.55-.42a.6.6 0 0 1 .13-.09c.04-.02.09-.03.14-.03zm5.42-5.43c.56 0 1.07.1 1.52.27.45.19.84.45 1.16.8.31.33.56.75.73 1.23.17.48.25 1.02.25 1.62 0 .6-.08 1.14-.25 1.63a3.19 3.19 0 0 1-1.89 2.02c-.45.18-.96.27-1.52.27s-1.07-.09-1.52-.27a3.22 3.22 0 0 1-1.9-2.02 4.83 4.83 0 0 1-.26-1.63c0-.6.09-1.14.26-1.62.17-.48.42-.9.74-1.24.32-.34.7-.6 1.16-.79.45-.18.96-.27 1.52-.27zm0 6.7c.72 0 1.26-.24 1.62-.72.35-.49.53-1.17.53-2.05 0-.88-.18-1.56-.53-2.05-.36-.49-.9-.73-1.62-.73-.73 0-1.27.24-1.63.73a3.42 3.42 0 0 0-.53 2.05c0 .88.17 1.56.53 2.05.36.48.9.72 1.63.72zm6.66-5.52c.17-.18.34-.34.52-.48a3.26 3.26 0 0 1 1.23-.61 3.1 3.1 0 0 1 1.85.12c.32.14.58.34.8.59.21.25.37.55.49.91.1.36.16.75.16 1.18V44h-1.47v-4.85c0-.55-.12-.97-.37-1.27-.26-.3-.64-.46-1.15-.46-.38 0-.73.1-1.06.27-.32.18-.63.42-.9.72V44h-1.47v-7.62h.88c.2 0 .33.1.38.3l.11.76zm9.4 6.68c-.6 0-1.08-.17-1.41-.52-.34-.34-.5-.83-.5-1.48v-4.55h-.89a.3.3 0 0 1-.21-.08c-.06-.06-.09-.13-.09-.24v-.6l1.24-.16.33-2.28a.35.35 0 0 1 .12-.2.34.34 0 0 1 .22-.07h.74v2.56h2.16v1.07h-2.16v4.46c0 .3.07.52.22.67.15.15.34.22.57.22.13 0 .25-.02.35-.05l.25-.12.18-.12c.05-.03.1-.05.13-.05.05 0 .1.01.12.04l.09.1.43.71c-.24.22-.52.39-.85.51-.34.12-.68.18-1.03.18zm7.15-3.5c-.6.02-1.1.06-1.52.14-.41.07-.75.16-1.01.29-.26.12-.45.26-.56.42a.92.92 0 0 0-.18.54c0 .2.04.36.1.5a.91.91 0 0 0 .63.52c.15.04.3.06.47.06a2.65 2.65 0 0 0 1.15-.26c.17-.08.32-.18.47-.3.16-.12.3-.26.45-.41v-1.5zm-4.3-3.17a4.35 4.35 0 0 1 3.02-1.2c.45-.01.83.06 1.16.2a2.38 2.38 0 0 1 1.37 1.51c.12.36.18.75.18 1.18V44h-.65a.62.62 0 0 1-.33-.07c-.08-.05-.14-.14-.18-.27l-.16-.66c-.2.18-.39.33-.58.47a3.7 3.7 0 0 1-1.26.58c-.23.05-.5.07-.78.07-.3 0-.58-.04-.84-.12a1.79 1.79 0 0 1-1.15-1.02 2.2 2.2 0 0 1-.17-.9c0-.3.08-.58.25-.86.16-.28.42-.52.8-.74.36-.23.84-.4 1.43-.54.6-.15 1.32-.22 2.19-.24v-.56c0-.58-.12-1-.37-1.29-.25-.29-.6-.43-1.08-.43a2.35 2.35 0 0 0-1.37.39c-.16.1-.3.18-.41.27a.64.64 0 0 1-.37.12.42.42 0 0 1-.25-.09.69.69 0 0 1-.18-.2l-.26-.46zm9.23-1.07V44h-1.47v-7.62h1.46zm.27-2.35c0 .13-.02.26-.08.38s-.13.23-.22.32a1 1 0 0 1-1.42 0 1.02 1.02 0 0 1-.3-.7.99.99 0 0 1 .3-.72c.1-.1.2-.17.32-.22a1 1 0 0 1 1.1.22c.1.1.16.2.22.32s.08.25.08.4zm3.22 3.4c.17-.17.34-.33.52-.47a3.26 3.26 0 0 1 1.22-.61 3.1 3.1 0 0 1 1.86.12c.31.14.58.34.8.59.21.25.37.55.48.91.11.36.17.75.17 1.18V44h-1.47v-4.85c0-.55-.13-.97-.38-1.27-.25-.3-.63-.46-1.14-.46-.38 0-.73.1-1.06.27-.33.18-.63.42-.91.72V44h-1.46v-7.62h.88c.2 0 .33.1.38.3l.11.76zm12.07 1.91c0-.29-.04-.55-.13-.8a1.65 1.65 0 0 0-.95-1.06c-.23-.1-.49-.15-.79-.15-.62 0-1.1.18-1.45.54-.35.35-.58.84-.67 1.47h3.99zm1.2 3.57c-.18.21-.38.4-.62.55a4.55 4.55 0 0 1-2.4.65c-.53 0-1.02-.1-1.46-.27a3.24 3.24 0 0 1-1.93-2.06 5.16 5.16 0 0 1-.03-3.23 3.27 3.27 0 0 1 1.84-2c.45-.2.94-.29 1.5-.29.47 0 .9.08 1.29.23a2.86 2.86 0 0 1 1.68 1.74c.17.42.25.9.25 1.45 0 .23-.03.38-.08.45-.05.08-.14.12-.28.12h-4.99c.02.46.08.85.2 1.19.11.34.27.62.47.84.2.23.44.4.72.5.29.12.6.17.94.17.33 0 .6-.04.85-.11a4.1 4.1 0 0 0 1.05-.49.6.6 0 0 1 .3-.11c.13 0 .22.04.28.13l.42.54zm3.07-5.07c.25-.5.54-.89.89-1.17a1.9 1.9 0 0 1 1.24-.43c.17 0 .32.02.47.05.15.04.28.1.39.17l-.1 1.1c-.04.14-.12.2-.25.2a1.8 1.8 0 0 1-.31-.03 2.33 2.33 0 0 0-.45-.04c-.24 0-.44.03-.63.1-.18.06-.34.16-.48.3-.14.13-.27.3-.38.48-.1.2-.21.41-.3.66V44h-1.47v-7.62h.84c.16 0 .27.03.33.09.06.05.1.15.12.3l.1 1.07z"/>
    <circle cx="479.5" cy="81" r="3" fill="#3E5667"/>
    <path fill="#B8C7D2" d="M409 126h1v105h-1z"/>
    <g transform="translate(400 227)">
      <rect width="19.2" height="18.4" fill="#3E5667" rx="9.2"/>
      <text fill="#FFF" font-family="Lato-Heavy, Lato" font-size="9.6" font-weight="600">
        <tspan x="6.82" y="12.2">2</tspan>
      </text>
    </g>
    <path fill="#233745" fill-rule="nonzero" d="M307.93 241h-1.6v-10.77h1.6V241zm3.73-6.56c.17-.18.34-.34.52-.48a3.26 3.26 0 0 1 1.22-.61 3.1 3.1 0 0 1 1.86.12c.31.14.58.34.8.59.21.25.37.55.48.91.11.36.17.75.17 1.18V241h-1.47v-4.85c0-.55-.13-.97-.38-1.27-.25-.3-.63-.46-1.15-.46-.37 0-.72.1-1.05.27-.33.18-.63.42-.91.72V241h-1.46v-7.62h.88c.2 0 .33.1.38.3l.11.76zm11.11 3.18c-.59.02-1.1.06-1.51.14-.42.07-.75.16-1.01.29-.26.12-.45.26-.56.42a.92.92 0 0 0-.18.54c0 .2.03.36.1.5a.91.91 0 0 0 .63.52c.15.04.3.06.47.06a2.65 2.65 0 0 0 1.15-.26c.17-.08.32-.18.47-.3.15-.12.3-.26.45-.41v-1.5zm-4.28-3.17c.42-.41.88-.71 1.38-.91.5-.2 1.04-.3 1.64-.3.43 0 .82.07 1.15.21a2.38 2.38 0 0 1 1.37 1.51c.12.36.18.75.18 1.18V241h-.65a.62.62 0 0 1-.33-.07c-.08-.05-.14-.14-.18-.27l-.16-.67c-.2.19-.39.34-.58.48a3.7 3.7 0 0 1-1.26.57c-.24.06-.5.08-.78.08-.3 0-.58-.04-.84-.12a1.79 1.79 0 0 1-1.15-1.02 2.2 2.2 0 0 1-.17-.9c0-.3.08-.58.24-.86.17-.28.43-.52.8-.75.37-.22.85-.4 1.44-.54.6-.14 1.32-.21 2.19-.24v-.55c0-.58-.13-1-.37-1.29-.25-.29-.6-.43-1.08-.43a2.35 2.35 0 0 0-1.37.39l-.41.26a.64.64 0 0 1-.37.12.42.42 0 0 1-.26-.08.69.69 0 0 1-.17-.2l-.26-.47zm13.02.36a.81.81 0 0 1-.13.13.3.3 0 0 1-.18.05.44.44 0 0 1-.25-.1 3.3 3.3 0 0 0-.81-.4c-.2-.07-.42-.1-.7-.1-.36 0-.67.07-.95.2-.28.13-.5.31-.69.55-.18.24-.32.53-.41.88-.1.35-.14.73-.14 1.16 0 .45.04.84.15 1.2.1.34.24.63.42.87.19.24.41.42.68.54.26.12.56.18.88.18a2.23 2.23 0 0 0 1.3-.36l.33-.26a.42.42 0 0 1 .28-.11c.12 0 .21.04.27.13l.42.54c-.17.22-.37.4-.58.55a3.35 3.35 0 0 1-1.47.58 4.9 4.9 0 0 1-.81.07c-.48 0-.92-.1-1.33-.27a3.02 3.02 0 0 1-1.07-.76c-.3-.34-.54-.75-.72-1.24a4.9 4.9 0 0 1-.26-1.66 5 5 0 0 1 .23-1.56 3.22 3.22 0 0 1 1.83-2.06c.46-.2.97-.3 1.55-.3a3.52 3.52 0 0 1 2.55 1l-.39.55zm9.06 6.19h-1.47v-6.44h-3.82v4.47c0 .3.07.52.22.67.15.15.33.22.56.22.14 0 .26-.02.35-.05l.25-.12c.08-.04.13-.08.18-.12.06-.03.1-.05.14-.05.05 0 .09.01.12.04l.08.1.44.71c-.24.22-.53.39-.86.51-.33.12-.67.18-1.03.18-.61 0-1.08-.17-1.42-.52-.33-.34-.5-.83-.5-1.48v-4.56h-.88a.3.3 0 0 1-.21-.07c-.06-.06-.09-.13-.09-.24v-.6l1.25-.17.32-2.27a.35.35 0 0 1 .11-.2.34.34 0 0 1 .22-.07h.75v2.56h5.3v7.5zm.33-10.02c0 .14-.02.26-.08.39a1 1 0 0 1-1.64.32 1.02 1.02 0 0 1-.22-1.1 1 1 0 0 1 .92-.63 1 1 0 0 1 .72.3 1.06 1.06 0 0 1 .3.72zm8.41 2.4l-3.09 7.62h-1.32l-3.09-7.62h1.2c.12 0 .22.03.3.08a.4.4 0 0 1 .14.21l1.82 4.68a7.58 7.58 0 0 1 .3 1.16 11.76 11.76 0 0 1 .32-1.16l1.84-4.68a.44.44 0 0 1 .43-.29h1.15zm6.22 2.96c0-.29-.04-.55-.13-.8a1.65 1.65 0 0 0-.95-1.06c-.23-.1-.49-.15-.79-.15-.62 0-1.1.18-1.45.53-.35.36-.58.85-.67 1.48h3.99zm1.2 3.57c-.18.21-.38.4-.62.55a4.55 4.55 0 0 1-2.4.65c-.53 0-1.02-.1-1.46-.27a3.24 3.24 0 0 1-1.93-2.06 5.16 5.16 0 0 1-.03-3.23 3.27 3.27 0 0 1 1.84-2c.45-.2.94-.29 1.5-.29.47 0 .9.08 1.29.23a2.86 2.86 0 0 1 1.68 1.73c.17.43.25.91.25 1.46 0 .23-.03.38-.08.45-.05.08-.14.12-.28.12h-4.99c.02.46.08.85.2 1.19.11.34.27.62.47.84.2.23.44.4.72.5.29.12.6.17.94.17.33 0 .6-.04.85-.11a4.1 4.1 0 0 0 1.05-.49.6.6 0 0 1 .3-.11c.13 0 .22.04.28.13l.42.54zm13.12-8.35h-3.42V241h-1.59v-9.43h-3.43v-1.34h8.44v1.33zm5.35 6.06c-.6.02-1.1.06-1.52.14-.41.07-.75.16-1 .29-.27.12-.45.26-.57.42a.92.92 0 0 0-.17.54c0 .2.03.36.1.5a.91.91 0 0 0 .62.52 2.65 2.65 0 0 0 1.62-.2c.17-.08.33-.18.48-.3.15-.12.3-.26.44-.41v-1.5zm-4.29-3.17c.43-.41.89-.71 1.38-.91.5-.2 1.05-.3 1.64-.3.44 0 .82.07 1.16.21a2.38 2.38 0 0 1 1.37 1.51c.11.36.17.75.17 1.18V241h-.65a.62.62 0 0 1-.33-.07c-.08-.05-.13-.14-.18-.27l-.16-.67c-.2.19-.38.34-.58.48a3.7 3.7 0 0 1-1.25.57c-.24.06-.5.08-.78.08-.3 0-.59-.04-.85-.12a1.79 1.79 0 0 1-1.15-1.02 2.2 2.2 0 0 1-.16-.9c0-.3.08-.58.24-.86.16-.28.43-.52.8-.75.36-.22.84-.4 1.43-.54.6-.14 1.32-.21 2.19-.24v-.55c0-.58-.12-1-.37-1.29-.24-.29-.6-.43-1.08-.43a2.35 2.35 0 0 0-1.37.39c-.15.1-.3.18-.4.26a.64.64 0 0 1-.37.12.42.42 0 0 1-.26-.08.69.69 0 0 1-.18-.2l-.26-.47zm9.15 4.68c.24.31.5.53.78.66.28.12.58.18.91.18.69 0 1.2-.24 1.58-.73.36-.48.55-1.21.55-2.2 0-.9-.16-1.56-.49-1.98a1.64 1.64 0 0 0-1.38-.64c-.42 0-.78.1-1.1.29-.3.19-.58.46-.85.8v3.62zm0-4.7c.32-.35.67-.63 1.07-.85.4-.21.86-.32 1.37-.32a2.53 2.53 0 0 1 2.12 1c.24.32.43.71.57 1.17.14.47.2.98.2 1.57a5.8 5.8 0 0 1-.23 1.68c-.15.5-.37.93-.65 1.3a2.93 2.93 0 0 1-2.4 1.13 3 3 0 0 1-.67-.08 2.38 2.38 0 0 1-1.04-.53 3.5 3.5 0 0 1-.41-.44l-.07.63c-.04.2-.17.31-.38.31h-.94v-11.07h1.46v4.5z"/>
    <circle cx="409.5" cy="126" r="3" fill="#3E5667"/>
    <path fill="#B8C7D2" d="M672 126h1v105h-1z"/>
    <g>
      <g transform="translate(663 227)">
        <rect width="19.2" height="18.4" fill="#3E5667" rx="9.2"/>
        <text fill="#FFF" font-family="Lato-Heavy, Lato" font-size="9.6" font-weight="600">
          <tspan x="6.82" y="12.2">4</tspan>
        </text>
      </g>
      <path fill="#233745" fill-rule="nonzero" d="M562.9 231.99a.61.61 0 0 1-.16.18.35.35 0 0 1-.2.06.55.55 0 0 1-.32-.12 3.34 3.34 0 0 0-1.05-.56 2.66 2.66 0 0 0-.86-.12c-.31 0-.59.04-.83.12-.23.09-.43.2-.6.34-.15.14-.27.31-.36.5-.08.2-.12.4-.12.63 0 .29.07.53.22.72.15.19.34.35.58.49.24.13.51.25.82.35l.94.31c.32.1.63.23.93.37.31.14.58.32.82.53.24.21.44.47.58.78.15.3.22.68.22 1.13 0 .48-.08.92-.24 1.34a3.14 3.14 0 0 1-1.85 1.81 4.93 4.93 0 0 1-4.28-.56 4.02 4.02 0 0 1-.68-.58l.45-.77c.05-.06.1-.1.17-.15a.39.39 0 0 1 .21-.06c.1 0 .23.06.36.17l.51.36c.2.14.45.26.73.37.28.1.63.16 1.03.16.33 0 .63-.04.89-.13s.48-.21.65-.37c.18-.17.32-.36.41-.6.1-.22.14-.48.14-.76 0-.31-.07-.57-.21-.77-.15-.2-.34-.37-.58-.5a4.23 4.23 0 0 0-.82-.35l-.93-.3a9.4 9.4 0 0 1-.94-.35c-.3-.14-.58-.31-.82-.53a2.4 2.4 0 0 1-.58-.82 2.99 2.99 0 0 1-.21-1.2 2.88 2.88 0 0 1 .88-2.08c.28-.28.64-.5 1.06-.67a4.67 4.67 0 0 1 3.1.04c.51.2.95.47 1.33.83l-.39.76zm7.63 2.82a.81.81 0 0 1-.13.13.3.3 0 0 1-.19.05.44.44 0 0 1-.25-.1 3.3 3.3 0 0 0-.8-.4c-.2-.07-.43-.1-.7-.1-.36 0-.68.07-.96.2-.27.13-.5.31-.68.55-.18.24-.32.53-.42.88-.1.35-.14.73-.14 1.16 0 .45.05.84.15 1.2.1.34.24.63.43.87.18.24.4.42.67.54.27.12.56.18.89.18a2.23 2.23 0 0 0 1.29-.36l.33-.26a.42.42 0 0 1 .28-.11c.12 0 .21.04.28.13l.42.54c-.18.22-.37.4-.59.55a3.35 3.35 0 0 1-1.46.58 4.9 4.9 0 0 1-.82.07c-.47 0-.91-.1-1.33-.27a3.02 3.02 0 0 1-1.07-.76c-.3-.34-.54-.75-.72-1.24a4.9 4.9 0 0 1-.26-1.66 5 5 0 0 1 .24-1.56 3.22 3.22 0 0 1 1.83-2.06c.45-.2.97-.3 1.55-.3.54 0 1.02.09 1.44.26.41.18.78.42 1.1.75l-.38.54zm3.22.03c.24-.5.53-.89.88-1.18a1.9 1.9 0 0 1 1.25-.42c.16 0 .32.02.46.05.15.04.28.1.39.17l-.1 1.1c-.03.14-.11.2-.24.2a1.8 1.8 0 0 1-.32-.03 2.33 2.33 0 0 0-.45-.05c-.24 0-.44.04-.62.1-.18.07-.34.17-.49.3-.14.14-.26.3-.38.5-.1.19-.2.4-.3.65V241h-1.47v-7.62h.84c.16 0 .27.03.33.09.06.05.1.15.13.3l.09 1.07zm7.36-1.58c.56 0 1.07.1 1.52.27.45.19.84.45 1.15.8.32.33.56.75.73 1.23.18.48.26 1.02.26 1.62 0 .6-.08 1.14-.25 1.63-.18.49-.42.9-.74 1.24-.31.34-.7.6-1.15.78-.45.18-.96.27-1.52.27-.57 0-1.07-.09-1.53-.27a3.22 3.22 0 0 1-1.9-2.02 4.83 4.83 0 0 1-.25-1.63c0-.6.08-1.14.26-1.62a3.2 3.2 0 0 1 1.9-2.03c.45-.18.95-.27 1.52-.27zm0 6.7c.72 0 1.26-.24 1.61-.72.36-.49.53-1.17.53-2.05 0-.88-.17-1.56-.53-2.05-.35-.49-.89-.73-1.61-.73-.73 0-1.27.24-1.63.73a3.42 3.42 0 0 0-.54 2.05c0 .88.18 1.56.54 2.05.36.48.9.73 1.63.73zm6.79-10.03V241h-1.47v-11.07h1.47zm3.58 0V241h-1.47v-11.07h1.47zm10.02 9.8c.4 0 .75-.04 1.04-.14.29-.1.52-.22.7-.39.19-.17.32-.36.4-.59.1-.23.14-.47.14-.75 0-.53-.19-.95-.56-1.26-.37-.3-.94-.46-1.72-.46h-2.25v3.6h2.25zm-2.25-8.25v3.53h1.84c.79 0 1.37-.16 1.75-.48.38-.32.58-.74.58-1.28 0-.62-.19-1.07-.55-1.35-.37-.28-.93-.42-1.7-.42h-1.92zm1.92-1.25c.67 0 1.25.06 1.73.2.48.13.88.31 1.19.56.31.24.54.54.69.89a3 3 0 0 1 .1 1.93c-.08.24-.2.46-.37.67-.17.2-.37.4-.62.56-.25.16-.55.3-.89.41 1.57.31 2.35 1.13 2.35 2.45a2.75 2.75 0 0 1-1 2.23c-.32.28-.72.5-1.2.64-.47.16-1.01.23-1.62.23h-3.87v-10.77h3.5zm12.27 3.15V241h-.88c-.2 0-.33-.1-.4-.3l-.1-.76c-.16.18-.33.34-.51.48a3.2 3.2 0 0 1-1.98.7c-.42 0-.79-.07-1.1-.21a2.2 2.2 0 0 1-.8-.59 2.55 2.55 0 0 1-.49-.91 3.97 3.97 0 0 1-.16-1.18v-4.85h1.47v4.85c0 .55.12.97.37 1.27.25.3.63.46 1.15.46.37 0 .72-.1 1.05-.27.32-.18.63-.42.91-.73v-5.58h1.46zm4.43 7.74c-.62 0-1.1-.17-1.42-.52-.34-.34-.5-.83-.5-1.47v-4.56h-.89a.3.3 0 0 1-.21-.08c-.06-.06-.09-.13-.09-.24v-.6l1.24-.17.33-2.27a.35.35 0 0 1 .12-.2.34.34 0 0 1 .22-.07h.74v2.56h3.48l.34-2.29a.32.32 0 0 1 .1-.2.34.34 0 0 1 .23-.07h.75v2.56h2.16v1.07h-2.16v4.46c0 .3.07.52.22.67.14.15.33.22.57.22.13 0 .25-.02.34-.05l.25-.12.19-.11c.05-.04.09-.06.13-.06.05 0 .08.01.11.04l.1.1.43.71c-.24.22-.53.39-.86.51-.33.12-.68.18-1.03.18-.62 0-1.1-.17-1.42-.52-.34-.34-.5-.83-.5-1.47v-4.56h-3.43v4.46c0 .3.07.52.22.67.15.15.34.22.57.22.13 0 .25-.02.35-.05l.25-.12.18-.12c.05-.03.1-.05.13-.05.05 0 .1.01.12.04.03.02.05.05.08.1l.44.71c-.24.22-.52.39-.85.51-.34.12-.68.18-1.03.18zm11.18-7.86c.56 0 1.07.1 1.52.27.45.19.84.45 1.15.8.32.33.56.75.73 1.23.18.48.26 1.02.26 1.62 0 .6-.08 1.14-.25 1.63-.18.49-.42.9-.74 1.24-.31.34-.7.6-1.15.78-.45.18-.96.28-1.52.28-.57 0-1.07-.1-1.53-.28a3.22 3.22 0 0 1-1.9-2.02 4.83 4.83 0 0 1-.25-1.63c0-.6.08-1.14.26-1.62.17-.48.41-.9.74-1.24.32-.34.7-.6 1.15-.79.46-.18.96-.27 1.53-.27zm0 6.7c.72 0 1.26-.24 1.61-.72.36-.49.54-1.17.54-2.05 0-.88-.18-1.56-.54-2.05-.35-.49-.89-.73-1.61-.73-.73 0-1.27.24-1.63.73a3.42 3.42 0 0 0-.54 2.05c0 .88.18 1.56.54 2.05.36.48.9.73 1.63.73zm6.66-5.52c.17-.18.34-.34.52-.48a3.26 3.26 0 0 1 1.22-.61 3.1 3.1 0 0 1 1.86.12c.31.14.58.34.8.59.21.25.37.55.48.91.11.36.17.75.17 1.18V241h-1.47v-4.85c0-.55-.13-.97-.38-1.27-.25-.3-.63-.46-1.14-.46-.38 0-.73.1-1.06.27-.33.18-.63.42-.91.72V241h-1.46v-7.62h.88c.2 0 .33.1.38.3l.11.76zm11.51.25a.4.4 0 0 1-.12.14.33.33 0 0 1-.18.04.55.55 0 0 1-.26-.08 5.6 5.6 0 0 0-.84-.36 2.33 2.33 0 0 0-1.23 0c-.18.05-.32.12-.44.21-.12.1-.21.2-.28.33a.89.89 0 0 0-.1.41c0 .2.06.35.17.47.11.13.26.24.44.33.19.09.4.17.63.24l.7.23c.25.08.49.17.72.27.23.1.44.23.62.39.19.15.33.33.45.55.1.21.16.47.16.78 0 .36-.06.69-.19 1-.12.3-.31.55-.56.78-.25.22-.55.39-.92.51-.36.13-.78.19-1.25.19a3.94 3.94 0 0 1-2.57-.93l.34-.56a.45.45 0 0 1 .15-.16.45.45 0 0 1 .24-.06c.1 0 .2.03.3.1a2.73 2.73 0 0 0 .87.45c.2.08.44.11.75.11.25 0 .46-.03.65-.1.18-.06.34-.14.46-.25a1.03 1.03 0 0 0 .36-.81c0-.2-.05-.37-.17-.5a1.45 1.45 0 0 0-.44-.34c-.18-.1-.39-.18-.62-.25a28.9 28.9 0 0 1-.72-.22 7.38 7.38 0 0 1-.72-.28c-.24-.1-.45-.24-.63-.4a1.85 1.85 0 0 1-.44-.58 1.9 1.9 0 0 1-.17-.85 2.03 2.03 0 0 1 .71-1.56c.24-.2.52-.36.87-.49.34-.12.73-.18 1.17-.18.5 0 .96.08 1.37.24.4.16.75.38 1.04.66l-.32.53z"/>
    </g>
    <circle cx="672.5" cy="126" r="3" fill="#3E5667"/>
    <path fill="#B8C7D2" d="M52 126h1v45h-1z"/>
    <path fill="#B8C7D2" d="M52 170h621v1H52z"/>
    <circle cx="52.5" cy="126" r="3" fill="#3E5667"/>
  </g>
</svg>