<svg xmlns="http://www.w3.org/2000/svg" width="726" height="193">
  <g fill="none" fill-rule="evenodd">
    <path fill="#FFF" stroke="#B8C7D2" d="M.5.5h725v157H.5z"/>
    <path fill="#F8FAFC" stroke="#E2E9EE" d="M181 43.5h84a3.5 3.5 0 0 1 3.5 3.5v47.5h-91V47a3.5 3.5 0 0 1 3.5-3.5z"/>
    <path fill="#3E5667" fill-rule="nonzero" d="M210.74 65.7V67h-5.6v-1.3h2.05v-5.9l.03-.72-1.46 1.22a.6.6 0 0 1-.25.12.6.6 0 0 1-.42-.07.4.4 0 0 1-.13-.11l-.55-.75 3.1-2.63h1.41v8.84h1.82zm8.65-3.76c0 .88-.1 1.65-.29 2.3a4.71 4.71 0 0 1-.78 1.61c-.33.43-.73.74-1.18.95-.46.2-.95.31-1.48.31a3.16 3.16 0 0 1-2.64-1.26 4.7 4.7 0 0 1-.77-1.61 8.4 8.4 0 0 1-.28-2.3c0-.89.1-1.66.28-2.3a4.7 4.7 0 0 1 .78-1.61 3.16 3.16 0 0 1 2.63-1.26 3.17 3.17 0 0 1 2.66 1.26c.33.42.6.96.78 1.6.2.65.29 1.42.29 2.3zm-1.79 0c0-.73-.05-1.34-.16-1.82-.1-.48-.25-.86-.43-1.15a1.57 1.57 0 0 0-.62-.6 1.64 1.64 0 0 0-1.44 0c-.23.12-.44.32-.62.6-.17.29-.31.67-.42 1.15-.1.48-.16 1.09-.16 1.82s.06 1.34.16 1.82.25.86.42 1.15c.18.28.39.48.62.6a1.6 1.6 0 0 0 1.44 0c.24-.12.44-.32.62-.6.18-.29.32-.67.43-1.15.1-.48.16-1.09.16-1.82zm4.2 5.08a.92.92 0 0 1-.39.48c-.17.11-.35.17-.53.17h-.74l4.1-10.46c.07-.2.18-.35.33-.45.16-.11.34-.16.54-.16h.75l-4.06 10.42zm12.23-5.08c0 .88-.1 1.65-.28 2.3a4.71 4.71 0 0 1-.79 1.61c-.33.43-.72.74-1.18.95-.45.2-.94.31-1.47.31s-1.02-.1-1.47-.3c-.45-.22-.84-.53-1.17-.96a4.7 4.7 0 0 1-.78-1.61 8.4 8.4 0 0 1-.28-2.3c0-.89.1-1.66.28-2.3a4.7 4.7 0 0 1 .78-1.61 3.16 3.16 0 0 1 2.64-1.26 3.17 3.17 0 0 1 2.66 1.26c.33.42.59.96.78 1.6.19.65.28 1.42.28 2.3zm-1.78 0c0-.73-.06-1.34-.16-1.82-.11-.48-.25-.86-.43-1.15a1.57 1.57 0 0 0-.62-.6 1.64 1.64 0 0 0-1.45 0c-.23.12-.43.32-.61.6-.18.29-.32.67-.43 1.15-.1.48-.15 1.09-.15 1.82s.05 1.34.15 1.82c.11.48.25.86.43 1.15.18.28.38.48.61.6a1.6 1.6 0 0 0 1.45 0c.23-.12.44-.32.62-.6.18-.29.32-.67.43-1.15.1-.48.16-1.09.16-1.82zm9 3.45c.19 0 .33.05.44.16.11.1.17.24.17.41V67h-6.95v-.57a1.03 1.03 0 0 1 .31-.72l3.07-3.08c.26-.26.5-.5.7-.75.2-.24.37-.47.5-.7.14-.24.24-.47.31-.71.08-.24.11-.5.11-.76 0-.25-.03-.46-.1-.64a1.23 1.23 0 0 0-.76-.75c-.18-.07-.38-.1-.6-.1-.21 0-.4.03-.58.09a1.55 1.55 0 0 0-1.02 1.07c-.08.22-.18.36-.3.43-.13.07-.31.09-.55.05l-.91-.16c.07-.49.2-.91.4-1.28a3.06 3.06 0 0 1 1.8-1.47 4.13 4.13 0 0 1 2.53.02 2.65 2.65 0 0 1 1.64 1.5 3.15 3.15 0 0 1 .07 2.22 4.3 4.3 0 0 1-.45.9c-.18.3-.4.58-.64.85l-.78.82-2.28 2.33a5.18 5.18 0 0 1 1.27-.2h2.6z"/>
    <path fill="#748999" fill-rule="nonzero" d="M214.97 81.62c.16 0 .28.04.38.13.1.1.14.21.14.36V83h-5.95v-.5a.88.88 0 0 1 .26-.6l2.63-2.64c.22-.23.42-.44.6-.65.17-.2.31-.4.43-.6.12-.2.2-.4.27-.61.06-.2.09-.42.09-.65 0-.21-.03-.4-.09-.55a1.05 1.05 0 0 0-.65-.64 1.56 1.56 0 0 0-.52-.08c-.18 0-.34.02-.49.07a1.33 1.33 0 0 0-.87.92c-.07.19-.16.3-.27.37-.1.06-.26.07-.46.04l-.78-.14c.06-.41.17-.78.34-1.1a2.63 2.63 0 0 1 1.54-1.25 3.54 3.54 0 0 1 2.17.02 2.27 2.27 0 0 1 1.4 1.28 2.7 2.7 0 0 1 .06 1.9c-.1.27-.22.53-.38.78-.15.25-.34.49-.55.72-.21.23-.43.47-.67.7l-1.95 2a4.44 4.44 0 0 1 1.09-.17h2.23zm7.73-2.96a7.1 7.1 0 0 1-.24 1.97 4.04 4.04 0 0 1-.68 1.39c-.28.36-.62.63-1 .8a3 3 0 0 1-1.27.28c-.45 0-.87-.1-1.26-.27a2.7 2.7 0 0 1-1-.81c-.29-.37-.51-.83-.67-1.39a7.2 7.2 0 0 1-.24-1.97c0-.76.08-1.42.24-1.97.16-.56.38-1.02.67-1.38a2.7 2.7 0 0 1 2.26-1.08 3 3 0 0 1 1.26.27c.4.17.73.44 1.01.8.3.37.51.83.68 1.39.16.55.24 1.21.24 1.97zm-1.53 0c0-.63-.05-1.15-.14-1.56-.09-.41-.21-.74-.37-.98a1.35 1.35 0 0 0-.53-.52 1.4 1.4 0 0 0-1.24 0c-.2.1-.37.27-.52.52-.15.24-.28.57-.37.98a7.5 7.5 0 0 0-.13 1.56c0 .63.04 1.15.13 1.56.1.41.22.74.37.99.15.24.32.41.52.5a1.37 1.37 0 0 0 1.24 0c.2-.09.38-.26.53-.5.16-.25.28-.58.37-.99.1-.41.14-.93.14-1.56zm8.04 3.23V83h-4.8v-1.11h1.76v-5.06c0-.2 0-.4.02-.62l-1.25 1.05a.52.52 0 0 1-.22.1.5.5 0 0 1-.36-.06.35.35 0 0 1-.1-.1l-.47-.64 2.64-2.25h1.22v7.58h1.56zm2.73-4.96c0 .48.12.85.38 1.1.25.26.6.39 1.06.39.24 0 .45-.04.64-.12a1.31 1.31 0 0 0 .77-.78c.06-.18.1-.37.1-.58 0-.24-.04-.45-.11-.63a1.3 1.3 0 0 0-.78-.77 1.7 1.7 0 0 0-1.2.01 1.35 1.35 0 0 0-.76.78c-.07.18-.1.38-.1.6zm1.97 2.7a8.44 8.44 0 0 0 .36-.48c-.2.13-.42.22-.66.29a2.84 2.84 0 0 1-1.63-.06 2.2 2.2 0 0 1-1.31-1.25c-.14-.3-.21-.67-.21-1.09a2.77 2.77 0 0 1 1.76-2.59c.36-.15.76-.22 1.2-.22.45 0 .84.07 1.2.2a2.56 2.56 0 0 1 1.48 1.5c.14.35.2.74.2 1.16a4.04 4.04 0 0 1-.57 2.1c-.12.22-.25.43-.4.64l-1.99 2.83a.78.78 0 0 1-.3.24c-.14.07-.3.1-.46.1h-1.37l2.7-3.37z"/>
    <path fill="#FFF" stroke="#E2E9EE" d="M321 43.5h84a3.5 3.5 0 0 1 3.5 3.5v47.5h-91V47a3.5 3.5 0 0 1 3.5-3.5z"/>
    <path fill="#3A8FDD" fill-rule="nonzero" d="M350.74 65.7V67h-5.6v-1.3h2.05v-5.9l.02-.72-1.45 1.22a.6.6 0 0 1-.25.12.6.6 0 0 1-.42-.07.4.4 0 0 1-.13-.11l-.54-.75 3.08-2.63h1.42v8.84h1.82zm8.12 0V67h-5.6v-1.3h2.05v-5.9l.02-.72-1.45 1.22a.6.6 0 0 1-.25.12.6.6 0 0 1-.42-.07.4.4 0 0 1-.13-.11l-.54-.75 3.08-2.63h1.42v8.84h1.82zm2.94 1.32a.92.92 0 0 1-.39.48c-.17.11-.35.17-.53.17h-.74l4.1-10.46c.07-.2.18-.35.33-.45.16-.11.34-.16.54-.16h.75l-4.06 10.42zm12.23-5.08c0 .88-.1 1.65-.28 2.3a4.71 4.71 0 0 1-.79 1.61c-.33.43-.72.74-1.18.95-.45.2-.94.31-1.47.31s-1.02-.1-1.47-.3c-.45-.22-.84-.53-1.17-.96a4.7 4.7 0 0 1-.78-1.61 8.4 8.4 0 0 1-.28-2.3c0-.89.1-1.66.28-2.3a4.7 4.7 0 0 1 .78-1.61 3.16 3.16 0 0 1 2.64-1.26 3.17 3.17 0 0 1 2.66 1.26c.33.42.59.96.78 1.6.19.65.28 1.42.28 2.3zm-1.78 0c0-.73-.06-1.34-.16-1.82-.11-.48-.25-.86-.43-1.15a1.57 1.57 0 0 0-.62-.6 1.64 1.64 0 0 0-1.45 0c-.23.12-.43.32-.61.6-.18.29-.32.67-.43 1.15-.1.48-.15 1.09-.15 1.82s.05 1.34.15 1.82c.11.48.25.86.43 1.15.18.28.38.48.61.6a1.6 1.6 0 0 0 1.45 0c.23-.12.44-.32.62-.6.18-.29.32-.67.43-1.15.1-.48.16-1.09.16-1.82zm9 3.45c.19 0 .33.05.44.16.11.1.17.24.17.41V67h-6.95v-.57a1.03 1.03 0 0 1 .31-.72l3.07-3.08c.26-.26.5-.5.7-.75.2-.24.37-.47.5-.7.14-.24.24-.47.31-.71.08-.24.11-.5.11-.76 0-.25-.03-.46-.1-.64a1.23 1.23 0 0 0-.76-.75c-.18-.07-.38-.1-.6-.1-.21 0-.4.03-.58.09a1.55 1.55 0 0 0-1.02 1.07c-.08.22-.18.36-.3.43-.13.07-.31.09-.55.05l-.91-.16c.07-.49.2-.91.4-1.28a3.06 3.06 0 0 1 1.8-1.47 4.13 4.13 0 0 1 2.53.02 2.65 2.65 0 0 1 1.64 1.5 3.15 3.15 0 0 1 .07 2.22 4.3 4.3 0 0 1-.45.9c-.18.3-.4.58-.64.85l-.78.82-2.28 2.33a5.18 5.18 0 0 1 1.27-.2h2.6z"/>
    <path fill="#748999" fill-rule="nonzero" d="M354.97 81.62c.16 0 .28.04.38.13.1.1.14.21.14.36V83h-5.95v-.5a.88.88 0 0 1 .26-.6l2.63-2.64c.22-.23.42-.44.6-.65.17-.2.31-.4.43-.6.12-.2.2-.4.27-.61.06-.2.09-.42.09-.65 0-.21-.03-.4-.09-.55a1.05 1.05 0 0 0-.65-.64 1.56 1.56 0 0 0-.52-.08c-.18 0-.34.02-.49.07a1.33 1.33 0 0 0-.87.92c-.07.19-.16.3-.27.37-.1.06-.26.07-.46.04l-.78-.14c.06-.41.17-.78.34-1.1a2.63 2.63 0 0 1 1.54-1.25 3.54 3.54 0 0 1 2.17.02 2.27 2.27 0 0 1 1.4 1.28 2.7 2.7 0 0 1 .06 1.9c-.1.27-.22.53-.38.78-.15.25-.34.49-.55.72-.21.23-.43.47-.67.7l-1.95 2a4.44 4.44 0 0 1 1.09-.17h2.23zm7.73-2.96a7.1 7.1 0 0 1-.24 1.97 4.04 4.04 0 0 1-.67 1.39c-.3.36-.63.63-1.02.8a3 3 0 0 1-1.26.28c-.45 0-.87-.1-1.26-.27a2.7 2.7 0 0 1-1-.81c-.29-.37-.51-.83-.67-1.39a7.2 7.2 0 0 1-.24-1.97c0-.76.08-1.42.24-1.97.16-.56.38-1.02.67-1.38a2.7 2.7 0 0 1 2.26-1.08 3 3 0 0 1 1.26.27c.4.17.73.44 1.02.8.28.37.5.83.67 1.39.16.55.24 1.21.24 1.97zm-1.53 0c0-.63-.05-1.15-.14-1.56-.09-.41-.21-.74-.37-.98a1.35 1.35 0 0 0-.53-.52 1.4 1.4 0 0 0-1.24 0c-.2.1-.37.27-.52.52-.15.24-.27.57-.37.98a7.5 7.5 0 0 0-.13 1.56c0 .63.05 1.15.13 1.56.1.41.22.74.37.99.15.24.32.41.52.5a1.37 1.37 0 0 0 1.24 0c.2-.09.38-.26.53-.5.16-.25.28-.58.37-.99.1-.41.14-.93.14-1.56zm8.04 3.23V83h-4.8v-1.11h1.76v-5.06c0-.2 0-.4.02-.62l-1.25 1.05a.52.52 0 0 1-.21.1.5.5 0 0 1-.37-.06.35.35 0 0 1-.1-.1l-.47-.64 2.64-2.25h1.22v7.58h1.56zm2.73-4.96c0 .48.12.85.38 1.1.25.26.6.39 1.06.39.24 0 .45-.04.64-.12a1.31 1.31 0 0 0 .76-.78c.07-.18.1-.37.1-.58 0-.24-.03-.45-.1-.63a1.3 1.3 0 0 0-.78-.77 1.7 1.7 0 0 0-1.2.01 1.35 1.35 0 0 0-.76.78c-.07.18-.1.38-.1.6zm1.97 2.7a8.44 8.44 0 0 0 .36-.48c-.2.13-.42.22-.66.29a2.84 2.84 0 0 1-1.63-.06 2.2 2.2 0 0 1-1.31-1.25c-.14-.3-.21-.67-.21-1.09a2.77 2.77 0 0 1 1.76-2.59c.36-.15.76-.22 1.2-.22.45 0 .84.07 1.2.2a2.56 2.56 0 0 1 1.48 1.5c.14.35.2.74.2 1.16a4.04 4.04 0 0 1-.57 2.1c-.12.22-.25.43-.4.64l-1.99 2.83a.78.78 0 0 1-.3.24c-.14.07-.3.1-.46.1h-1.37l2.7-3.37z"/>
    <path fill="#FFF" stroke="#E2E9EE" d="M461 43.5h84a3.5 3.5 0 0 1 3.5 3.5v47.5h-91V47a3.5 3.5 0 0 1 3.5-3.5z"/>
    <path fill="#3E5667" fill-rule="nonzero" d="M490.74 65.7V67h-5.6v-1.3h2.05v-5.9l.02-.72-1.45 1.22a.6.6 0 0 1-.25.12.6.6 0 0 1-.42-.07.4.4 0 0 1-.13-.11l-.54-.75 3.08-2.63h1.42v8.84h1.82zm7.75-.31c.18 0 .33.05.44.16.1.1.16.24.16.41V67h-6.94v-.57a1.03 1.03 0 0 1 .3-.72l3.08-3.08c.26-.26.49-.5.7-.75.2-.24.36-.47.5-.7.13-.24.24-.47.3-.71.08-.24.12-.5.12-.76 0-.25-.04-.46-.1-.64a1.23 1.23 0 0 0-.76-.75c-.19-.07-.39-.1-.61-.1-.2 0-.4.03-.57.09a1.55 1.55 0 0 0-1.02 1.07c-.08.22-.18.36-.3.43-.14.07-.32.09-.56.05l-.9-.16c.06-.49.2-.91.4-1.28a3.06 3.06 0 0 1 1.79-1.47 4.13 4.13 0 0 1 2.54.02 2.65 2.65 0 0 1 1.64 1.5 3.15 3.15 0 0 1 .07 2.22 4.3 4.3 0 0 1-.45.9c-.18.3-.4.58-.65.85l-.77.82-2.29 2.33a5.18 5.18 0 0 1 1.28-.2h2.6zm3.3 1.63a.92.92 0 0 1-.38.48c-.17.11-.35.17-.53.17h-.74l4.1-10.46c.07-.2.18-.35.33-.45.16-.11.34-.16.54-.16h.75l-4.06 10.42zm12.24-5.08c0 .88-.1 1.65-.28 2.3a4.71 4.71 0 0 1-.79 1.61c-.33.43-.72.74-1.18.95-.45.2-.94.31-1.47.31s-1.02-.1-1.47-.3c-.45-.22-.84-.53-1.17-.96a4.7 4.7 0 0 1-.78-1.61 8.4 8.4 0 0 1-.28-2.3c0-.89.1-1.66.28-2.3a4.7 4.7 0 0 1 .78-1.61 3.16 3.16 0 0 1 2.64-1.26 3.17 3.17 0 0 1 2.66 1.26c.33.42.59.96.78 1.6.19.65.28 1.42.28 2.3zm-1.78 0c0-.73-.06-1.34-.16-1.82-.11-.48-.25-.86-.43-1.15a1.57 1.57 0 0 0-.62-.6 1.64 1.64 0 0 0-1.45 0c-.23.12-.43.32-.61.6-.18.29-.32.67-.43 1.15-.1.48-.15 1.09-.15 1.82s.05 1.34.15 1.82c.11.48.25.86.43 1.15.18.28.38.48.61.6a1.6 1.6 0 0 0 1.45 0c.23-.12.44-.32.62-.6.18-.29.32-.67.43-1.15.1-.48.16-1.09.16-1.82zm9 3.45c.19 0 .33.05.44.16.11.1.17.24.17.41V67h-6.95v-.57a1.03 1.03 0 0 1 .31-.72l3.07-3.08c.26-.26.5-.5.7-.75.2-.24.37-.47.5-.7.14-.24.24-.47.31-.71.08-.24.11-.5.11-.76 0-.25-.03-.46-.1-.64a1.23 1.23 0 0 0-.76-.75c-.18-.07-.38-.1-.6-.1-.21 0-.4.03-.58.09a1.55 1.55 0 0 0-1.02 1.07c-.08.22-.18.36-.3.43-.13.07-.31.09-.55.05l-.91-.16c.07-.49.2-.91.4-1.28a3.06 3.06 0 0 1 1.8-1.47 4.13 4.13 0 0 1 2.53.02 2.65 2.65 0 0 1 1.64 1.5 3.15 3.15 0 0 1 .07 2.22 4.3 4.3 0 0 1-.45.9c-.18.3-.4.58-.64.85l-.78.82-2.28 2.33a5.18 5.18 0 0 1 1.27-.2h2.6z"/>
    <path fill="#748999" fill-rule="nonzero" d="M494.97 81.62c.16 0 .28.04.38.13.1.1.14.21.14.36V83h-5.95v-.5a.88.88 0 0 1 .26-.6l2.63-2.64c.22-.23.42-.44.6-.65.17-.2.31-.4.43-.6.12-.2.2-.4.27-.61.06-.2.09-.42.09-.65 0-.21-.03-.4-.09-.55a1.05 1.05 0 0 0-.65-.64 1.56 1.56 0 0 0-.52-.08c-.18 0-.34.02-.49.07a1.33 1.33 0 0 0-.87.92c-.07.19-.16.3-.27.37-.1.06-.26.07-.46.04l-.78-.14c.06-.41.17-.78.34-1.1a2.63 2.63 0 0 1 1.54-1.25 3.54 3.54 0 0 1 2.17.02 2.27 2.27 0 0 1 1.4 1.28 2.7 2.7 0 0 1 .06 1.9c-.1.27-.22.53-.38.78-.15.25-.34.49-.55.72-.21.23-.43.47-.67.7l-1.95 2a4.44 4.44 0 0 1 1.09-.17h2.23zm7.73-2.96a7.1 7.1 0 0 1-.24 1.97 4.04 4.04 0 0 1-.67 1.39c-.3.36-.63.63-1.02.8a3 3 0 0 1-1.26.28c-.45 0-.87-.1-1.26-.27a2.7 2.7 0 0 1-1-.81c-.29-.37-.51-.83-.67-1.39a7.2 7.2 0 0 1-.24-1.97c0-.76.08-1.42.24-1.97.16-.56.38-1.02.67-1.38a2.7 2.7 0 0 1 2.26-1.08 3 3 0 0 1 1.26.27c.4.17.73.44 1.02.8.28.37.5.83.67 1.39.16.55.24 1.21.24 1.97zm-1.53 0c0-.63-.05-1.15-.14-1.56-.09-.41-.21-.74-.37-.98a1.35 1.35 0 0 0-.53-.52 1.4 1.4 0 0 0-1.24 0c-.2.1-.37.27-.52.52-.15.24-.27.57-.37.98a7.5 7.5 0 0 0-.13 1.56c0 .63.05 1.15.13 1.56.1.41.22.74.37.99.15.24.32.41.52.5a1.37 1.37 0 0 0 1.24 0c.2-.09.38-.26.53-.5.16-.25.28-.58.37-.99.1-.41.14-.93.14-1.56zm8.04 3.23V83h-4.8v-1.11h1.76v-5.06c0-.2 0-.4.02-.62l-1.25 1.05a.52.52 0 0 1-.21.1.5.5 0 0 1-.37-.06.35.35 0 0 1-.1-.1l-.47-.64 2.64-2.25h1.22v7.58h1.56zm2.73-4.96c0 .48.12.85.38 1.1.25.26.6.39 1.06.39.24 0 .45-.04.64-.12a1.31 1.31 0 0 0 .76-.78c.07-.18.1-.37.1-.58 0-.24-.03-.45-.1-.63a1.3 1.3 0 0 0-.78-.77 1.7 1.7 0 0 0-1.2.01 1.35 1.35 0 0 0-.76.78c-.07.18-.1.38-.1.6zm1.97 2.7a8.44 8.44 0 0 0 .36-.48c-.2.13-.42.22-.66.29a2.84 2.84 0 0 1-1.63-.06 2.2 2.2 0 0 1-1.31-1.25c-.14-.3-.21-.67-.21-1.09a2.77 2.77 0 0 1 1.76-2.59c.36-.15.76-.22 1.2-.22.45 0 .84.07 1.2.2a2.56 2.56 0 0 1 1.48 1.5c.14.35.2.74.2 1.16a4.04 4.04 0 0 1-.57 2.1c-.12.22-.25.43-.4.64l-1.99 2.83a.78.78 0 0 1-.3.24c-.14.07-.3.1-.46.1h-1.37l2.7-3.37z"/>
    <text fill="#3E5667" font-family="Lato-Medium, Lato" font-size="15" font-weight="400">
      <tspan x="0" y="187">The Tab Set component States</tspan>
    </text>
    <path fill="#233745" fill-rule="nonzero" d="M352.51 106.2V117h-1.75v-4.8h-5.42v4.8h-1.76v-10.8h1.76v4.72h5.42v-4.72h1.75zm5.59 3.03c.56 0 1.07.1 1.53.28a3.29 3.29 0 0 1 1.92 2.02c.17.49.26 1.03.26 1.64 0 .6-.09 1.15-.26 1.63a3.26 3.26 0 0 1-1.92 2.03c-.46.19-.97.28-1.53.28-.58 0-1.09-.09-1.55-.28a3.3 3.3 0 0 1-1.92-2.03 4.8 4.8 0 0 1-.26-1.63c0-.6.08-1.15.26-1.64a3.33 3.33 0 0 1 1.92-2.03c.46-.18.97-.27 1.55-.27zm0 6.62c.69 0 1.2-.23 1.54-.7.33-.45.5-1.11.5-1.98 0-.86-.17-1.52-.5-1.99-.34-.46-.85-.7-1.54-.7-.7 0-1.22.24-1.56.7a3.34 3.34 0 0 0-.52 2c0 .86.17 1.52.52 1.98.34.46.85.7 1.56.7zm11.99-6.5L367 117h-1.45l-3.08-7.65h1.33a.5.5 0 0 1 .31.1c.08.06.14.13.16.22l1.7 4.45a10.9 10.9 0 0 1 .33 1.24 7.19 7.19 0 0 1 .33-1.24l1.73-4.45a.46.46 0 0 1 .17-.23.47.47 0 0 1 .29-.09h1.26zm6.12 2.96c0-.27-.04-.52-.12-.75-.08-.23-.19-.44-.34-.6-.15-.18-.34-.32-.56-.41a1.9 1.9 0 0 0-.77-.15c-.58 0-1.04.17-1.38.5-.33.34-.55.8-.64 1.41h3.8zm-3.85 1c.02.43.09.8.2 1.12.12.32.27.58.46.8.2.2.43.36.7.46a2.73 2.73 0 0 0 1.71.05 3.84 3.84 0 0 0 1.03-.48c.12-.08.23-.11.33-.11.13 0 .23.05.3.15l.46.59c-.19.23-.4.41-.65.57a3.76 3.76 0 0 1-1.6.59c-.28.04-.55.06-.82.06a4 4 0 0 1-1.48-.26 3.28 3.28 0 0 1-1.18-.79c-.33-.34-.59-.77-.78-1.28a5.1 5.1 0 0 1-.03-3.25 3.38 3.38 0 0 1 1.86-2c.45-.2.96-.3 1.52-.3.47 0 .9.08 1.3.23a2.86 2.86 0 0 1 1.72 1.75c.16.43.24.92.24 1.46 0 .25-.02.42-.08.5-.05.09-.15.13-.3.13h-4.91zm8.32-2.54c.24-.49.53-.87.87-1.15.34-.27.74-.41 1.22-.41.17 0 .32.02.47.05.14.04.27.1.38.17l-.1 1.22c-.03.08-.06.14-.1.17a.27.27 0 0 1-.17.05c-.07 0-.18-.01-.32-.04a2.3 2.3 0 0 0-.44-.04c-.23 0-.43.03-.6.1-.17.06-.33.16-.47.28-.13.13-.25.28-.36.46-.1.18-.2.38-.3.62V117h-1.6v-7.65h.93c.17 0 .29.03.36.1.06.06.1.16.13.32l.1 1zM209.88 111.6c0 .8-.13 1.53-.39 2.2a4.95 4.95 0 0 1-2.8 2.8c-.66.27-1.4.4-2.2.4h-4.09v-10.8h4.08c.81 0 1.55.13 2.21.4a4.93 4.93 0 0 1 2.8 2.8c.26.67.4 1.4.4 2.2zm-1.8 0a5.2 5.2 0 0 0-.24-1.67 3.14 3.14 0 0 0-1.86-2.04 3.92 3.92 0 0 0-1.5-.27h-2.32v7.96h2.32c.56 0 1.06-.09 1.5-.27.45-.18.82-.44 1.14-.78.31-.34.55-.76.72-1.25.17-.5.25-1.05.25-1.68zm8.45.71c0-.27-.04-.52-.12-.75-.08-.23-.2-.44-.34-.6-.15-.18-.34-.32-.56-.41a1.9 1.9 0 0 0-.77-.15c-.58 0-1.04.17-1.38.5-.33.34-.55.8-.64 1.41h3.8zm-3.85 1c.02.43.09.8.2 1.12.12.32.27.58.46.8.2.2.42.36.7.46a2.73 2.73 0 0 0 1.71.05 3.84 3.84 0 0 0 1.03-.48c.12-.08.23-.11.33-.11.13 0 .23.05.3.15l.46.59c-.2.23-.4.41-.65.57a3.76 3.76 0 0 1-1.6.59c-.28.04-.56.06-.83.06a4 4 0 0 1-1.47-.26 3.28 3.28 0 0 1-1.18-.79c-.33-.34-.59-.77-.78-1.28a5.1 5.1 0 0 1-.03-3.25 3.38 3.38 0 0 1 1.86-2c.45-.2.96-.3 1.52-.3.47 0 .9.08 1.3.23a2.86 2.86 0 0 1 1.72 1.75c.16.43.24.92.24 1.46 0 .25-.02.42-.08.5-.05.09-.15.13-.3.13h-4.91zm7.31 3.69v-6.37l-.75-.1a.67.67 0 0 1-.3-.14.34.34 0 0 1-.12-.28v-.66H220v-.64c0-.44.06-.82.2-1.17.12-.35.3-.64.54-.88.24-.24.53-.42.87-.55a3.25 3.25 0 0 1 2.1-.04l-.03.81c0 .14-.07.21-.2.24-.12.03-.27.04-.46.04-.22 0-.42.02-.6.08a1.08 1.08 0 0 0-.76.76c-.06.2-.1.46-.1.76v.6h2.1v1.16h-2.05V117H220zm8.89-3.34c-.58.02-1.06.06-1.46.13-.4.08-.71.17-.96.28-.24.11-.42.25-.53.4a.88.88 0 0 0-.16.51c0 .18.03.34.09.46.06.13.14.24.24.32.1.08.22.14.36.18a2.32 2.32 0 0 0 1.54-.18c.3-.16.6-.39.88-.69v-1.41zm-4.28-3.24c.87-.81 1.9-1.21 3.1-1.21.43 0 .82.07 1.17.21.34.14.63.34.86.6.23.27.41.57.53.93.13.36.19.75.19 1.19V117h-.72a.7.7 0 0 1-.36-.07c-.08-.05-.14-.14-.2-.29l-.16-.62c-.2.17-.38.33-.57.47-.2.13-.39.25-.6.34-.2.1-.41.17-.65.22-.23.05-.48.07-.76.07-.31 0-.6-.04-.87-.13a1.83 1.83 0 0 1-1.16-1.03 2.22 2.22 0 0 1-.16-.9c0-.29.07-.58.23-.86s.42-.53.78-.75c.37-.22.84-.4 1.44-.55.59-.15 1.32-.23 2.19-.25v-.51c0-.55-.12-.96-.35-1.23-.24-.27-.58-.4-1.04-.4-.3 0-.57.03-.78.11-.2.08-.4.16-.55.25l-.4.25a.7.7 0 0 1-.4.12.46.46 0 0 1-.27-.09.71.71 0 0 1-.2-.21l-.29-.52zm14.18-1.07V117h-.98c-.21 0-.35-.1-.4-.3l-.13-.72a4.65 4.65 0 0 1-1.07.83 3.01 3.01 0 0 1-1.37.31c-.42 0-.8-.07-1.11-.21a2.2 2.2 0 0 1-.81-.6 2.55 2.55 0 0 1-.5-.91 4 4 0 0 1-.16-1.18v-4.87h1.62v4.87c0 .51.11.91.35 1.2.24.28.6.42 1.09.42.35 0 .68-.08.99-.24.3-.16.6-.38.87-.67v-5.58h1.6zm3.6-3.45V117h-1.6v-11.1h1.6zm4.45 11.22c-.63 0-1.12-.18-1.46-.54a2.1 2.1 0 0 1-.52-1.5v-4.46h-.84a.34.34 0 0 1-.23-.09c-.06-.06-.1-.14-.1-.26v-.65l1.24-.18.35-2.21a.43.43 0 0 1 .13-.2.35.35 0 0 1 .24-.09h.83v2.52h2.12v1.16h-2.12v4.34c0 .28.06.48.2.63a.7.7 0 0 0 .54.22c.12 0 .23-.02.32-.05a1.46 1.46 0 0 0 .4-.21c.05-.03.1-.05.14-.05.1 0 .16.05.22.15l.48.79c-.25.22-.55.39-.89.5a3.2 3.2 0 0 1-1.05.18zM488.62 112.95l-1.49-3.95c-.12-.3-.24-.69-.36-1.16a7.68 7.68 0 0 1-.36 1.17l-1.49 3.94h3.7zm3.32 4.05h-1.36a.57.57 0 0 1-.37-.12.76.76 0 0 1-.22-.28l-.9-2.39h-4.65l-.9 2.39c-.04.1-.1.19-.2.27a.56.56 0 0 1-.38.13h-1.36l4.28-10.8h1.78l4.28 10.8zm6.37-6.15a.83.83 0 0 1-.14.15.31.31 0 0 1-.2.05.5.5 0 0 1-.27-.09 6.7 6.7 0 0 0-.32-.2 2.16 2.16 0 0 0-1.14-.29c-.35 0-.66.07-.92.2-.26.12-.48.3-.66.53-.18.23-.31.51-.4.85-.08.33-.13.7-.13 1.12 0 .43.05.81.14 1.14.1.34.23.62.41.85.18.23.4.4.65.53.25.12.53.18.85.18a2.14 2.14 0 0 0 1.58-.61c.09-.08.19-.11.3-.11.12 0 .22.05.3.15l.45.59a3 3 0 0 1-1.33.95 5.25 5.25 0 0 1-1.6.27 3.1 3.1 0 0 1-2.41-1.04c-.3-.33-.54-.75-.72-1.23a4.86 4.86 0 0 1-.27-1.67c0-.57.08-1.1.24-1.57.16-.49.4-.9.7-1.25.31-.35.7-.63 1.15-.82.45-.2.98-.3 1.57-.3a3.55 3.55 0 0 1 2.6 1.03l-.43.59zm9.22 6.15h-1.62v-6.38h-3.72v4.34c0 .28.06.48.2.63a.7.7 0 0 0 .54.22c.12 0 .23-.02.32-.05a1.46 1.46 0 0 0 .4-.21c.05-.03.1-.05.14-.05.1 0 .16.05.22.15l.48.79c-.25.22-.55.39-.89.5a3.2 3.2 0 0 1-1.05.18c-.63 0-1.12-.18-1.46-.54a2.1 2.1 0 0 1-.52-1.5v-4.46h-.84a.34.34 0 0 1-.23-.09c-.06-.06-.1-.14-.1-.26v-.65l1.24-.18.35-2.21a.43.43 0 0 1 .13-.2.35.35 0 0 1 .24-.09h.83v2.52h5.34V117zm.33-10c0 .15-.03.28-.09.41a1.1 1.1 0 0 1-.58.57 1.03 1.03 0 0 1-1.17-.23c-.1-.1-.17-.21-.23-.34a1.05 1.05 0 0 1 0-.83 1.1 1.1 0 0 1 .57-.58 1.03 1.03 0 0 1 .82 0 1.07 1.07 0 0 1 .67 1zm8.43 2.35l-3.07 7.65h-1.46l-3.07-7.65h1.33a.5.5 0 0 1 .3.1c.09.06.14.13.17.22l1.7 4.45a10.9 10.9 0 0 1 .32 1.24 7.19 7.19 0 0 1 .34-1.24l1.73-4.45a.46.46 0 0 1 .16-.23.47.47 0 0 1 .3-.09h1.25zm6.12 2.96c0-.27-.03-.52-.11-.75-.08-.23-.2-.44-.34-.6-.15-.18-.34-.32-.56-.41a1.9 1.9 0 0 0-.77-.15c-.59 0-1.05.17-1.38.5-.34.34-.55.8-.64 1.41h3.8zm-3.84 1c.02.43.08.8.2 1.12.11.32.27.58.46.8.2.2.42.36.69.46a2.73 2.73 0 0 0 1.71.05 3.84 3.84 0 0 0 1.04-.48c.12-.08.23-.11.33-.11.13 0 .23.05.3.15l.46.59c-.2.23-.4.41-.65.57a3.76 3.76 0 0 1-1.6.59c-.28.04-.56.06-.83.06a4 4 0 0 1-1.47-.26 3.28 3.28 0 0 1-1.18-.79c-.33-.34-.6-.77-.78-1.28a5.1 5.1 0 0 1-.03-3.25 3.38 3.38 0 0 1 1.86-2c.45-.2.95-.3 1.52-.3.47 0 .9.08 1.3.23a2.86 2.86 0 0 1 1.72 1.75c.16.43.24.92.24 1.46 0 .25-.03.42-.08.5-.06.09-.16.13-.3.13h-4.91z"/>
  </g>
</svg>