<svg xmlns="http://www.w3.org/2000/svg" xmlns:xlink="http://www.w3.org/1999/xlink" viewBox="0 0 726 250">
  <defs>
    <path id="b" d="M3 0h84a3 3 0 0 1 3 3v47H0V3a3 3 0 0 1 3-3z"/>
    <filter id="a" width="113.3%" height="124%" x="-6.7%" filterUnits="objectBoundingBox">
      <feMorphology in="SourceAlpha" operator="dilate" radius="1" result="shadowSpreadOuter1"/>
      <feOffset dy="1" in="shadowSpreadOuter1" result="shadowOffsetOuter1"/>
      <feGaussianBlur in="shadowOffsetOuter1" result="shadowBlurOuter1" stdDeviation="1.5"/>
      <feComposite in="shadowBlurOuter1" in2="SourceAlpha" operator="out" result="shadowBlurOuter1"/>
      <feColorMatrix in="shadowBlurOuter1" values="0 0 0 0 0 0 0 0 0 0 0 0 0 0 0 0 0 0 0.0440340909 0"/>
    </filter>
    <path id="d" d="M0 51h643a3 3 0 0 1 3 3v58a3 3 0 0 1-3 3H3a3 3 0 0 1-3-3V51z"/>
    <filter id="c" width="101.9%" height="118.8%" x="-.9%" y="-7.8%" filterUnits="objectBoundingBox">
      <feMorphology in="SourceAlpha" operator="dilate" radius="1" result="shadowSpreadOuter1"/>
      <feOffset dy="1" in="shadowSpreadOuter1" result="shadowOffsetOuter1"/>
      <feGaussianBlur in="shadowOffsetOuter1" result="shadowBlurOuter1" stdDeviation="1.5"/>
      <feComposite in="shadowBlurOuter1" in2="SourceAlpha" operator="out" result="shadowBlurOuter1"/>
      <feColorMatrix in="shadowBlurOuter1" values="0 0 0 0 0 0 0 0 0 0 0 0 0 0 0 0 0 0 0.0440340909 0"/>
    </filter>
  </defs>
  <g fill="none" fill-rule="evenodd">
    <path fill="#FFF" stroke="#B8C7D2" d="M.5.5h725v214H.5z"/>
    <g transform="translate(40 50)">
      <g transform="translate(38)">
        <use fill="#000" filter="url(#a)" xlink:href="#b"/>
        <path fill="#FFF" stroke="#E2E9EE" d="M3-.5h84A3.5 3.5 0 0 1 90.5 3v47.5h-91V3A3.5 3.5 0 0 1 3-.5z"/>
      </g>
      <path fill="#3E5667" fill-rule="nonzero" d="M71.27 17.94c0 .88-.1 1.65-.29 2.3a4.71 4.71 0 0 1-.78 1.61c-.33.43-.73.74-1.18.95-.46.2-.95.31-1.48.31a3.16 3.16 0 0 1-2.64-1.26 4.7 4.7 0 0 1-.77-1.61 8.4 8.4 0 0 1-.28-2.3c0-.89.1-1.66.28-2.3a4.7 4.7 0 0 1 .78-1.61 3.16 3.16 0 0 1 2.63-1.26 3.17 3.17 0 0 1 2.66 1.26c.33.42.6.96.78 1.6.2.65.29 1.42.29 2.3zm-1.79 0c0-.73-.05-1.34-.16-1.82-.1-.48-.25-.86-.43-1.15a1.57 1.57 0 0 0-.62-.6 1.64 1.64 0 0 0-1.44 0c-.23.12-.44.32-.62.6-.17.29-.31.67-.42 1.15-.1.48-.16 1.09-.16 1.82s.06 1.34.16 1.82.25.86.42 1.15c.18.28.39.48.62.6a1.6 1.6 0 0 0 1.44 0c.24-.12.44-.32.62-.6.18-.29.32-.67.43-1.15.1-.48.16-1.09.16-1.82zm4.45-2.02c0 .56.14 1 .44 1.29.29.3.7.44 1.24.44.28 0 .53-.04.75-.13a1.53 1.53 0 0 0 .9-.91c.07-.21.1-.44.1-.68 0-.28-.04-.52-.12-.74a1.52 1.52 0 0 0-.9-.9 1.98 1.98 0 0 0-1.41.02 1.57 1.57 0 0 0-.88.9c-.08.22-.12.45-.12.7zm2.3 3.15a9.85 9.85 0 0 0 .42-.56 2.8 2.8 0 0 1-.77.34 3.31 3.31 0 0 1-1.91-.07 2.58 2.58 0 0 1-1.53-1.46 3.1 3.1 0 0 1-.24-1.27 3.23 3.23 0 0 1 2.05-3.03c.42-.17.9-.25 1.4-.25.53 0 .99.08 1.4.24a2.99 2.99 0 0 1 1.73 1.74c.16.41.24.86.24 1.36a4.72 4.72 0 0 1-.67 2.45c-.14.25-.3.5-.47.74l-2.31 3.3c-.08.11-.2.2-.36.28-.16.08-.34.12-.54.12h-1.59l3.14-3.93zm5.57 3.95a.92.92 0 0 1-.39.48c-.17.11-.35.16-.53.16h-.74l4.1-10.45c.07-.2.18-.35.34-.45.15-.11.33-.16.53-.16h.75L81.8 23.02zm12.23-5.08c0 .88-.1 1.65-.28 2.3a4.71 4.71 0 0 1-.79 1.61c-.33.43-.72.74-1.18.95-.45.2-.94.31-1.47.31s-1.02-.1-1.47-.3c-.45-.22-.84-.53-1.17-.96a4.7 4.7 0 0 1-.78-1.61 8.4 8.4 0 0 1-.28-2.3c0-.89.1-1.66.28-2.3a4.7 4.7 0 0 1 .78-1.61 3.16 3.16 0 0 1 2.64-1.26 3.17 3.17 0 0 1 2.66 1.26c.33.42.59.96.78 1.6.19.65.28 1.42.28 2.3zm-1.78 0c0-.73-.06-1.34-.16-1.82-.11-.48-.25-.86-.43-1.15a1.57 1.57 0 0 0-.62-.6 1.64 1.64 0 0 0-1.45 0c-.23.12-.43.32-.61.6-.18.29-.32.67-.43 1.15-.1.48-.15 1.09-.15 1.82s.05 1.34.15 1.82c.11.48.25.86.43 1.15.18.28.38.48.61.6a1.6 1.6 0 0 0 1.45 0c.23-.12.44-.32.62-.6.18-.29.32-.67.43-1.15.1-.48.16-1.09.16-1.82zm9 3.45c.19 0 .33.05.44.16.11.1.17.24.17.41V23H94.9v-.57a1.03 1.03 0 0 1 .31-.72l3.08-3.08c.25-.26.48-.5.68-.75.2-.24.38-.47.51-.7.14-.24.24-.47.31-.71.08-.24.11-.5.11-.76 0-.25-.03-.46-.1-.64a1.23 1.23 0 0 0-.76-.75c-.18-.07-.38-.1-.6-.1-.21 0-.4.03-.58.09a1.55 1.55 0 0 0-1.02 1.07c-.08.22-.18.36-.3.43-.13.07-.31.09-.55.05l-.91-.16c.07-.49.2-.91.4-1.28a3.06 3.06 0 0 1 1.8-1.47 4.13 4.13 0 0 1 2.53.02 2.65 2.65 0 0 1 1.64 1.5 3.15 3.15 0 0 1 .07 2.22 4.3 4.3 0 0 1-.45.9c-.18.3-.4.58-.64.85l-.78.82-2.28 2.33a5.18 5.18 0 0 1 1.27-.2h2.6z"/>
      <path fill="#748999" fill-rule="nonzero" d="M74.97 37.62c.16 0 .28.04.38.14.1.09.14.2.14.35V39h-5.95v-.5a.88.88 0 0 1 .26-.6l2.63-2.64c.22-.23.42-.44.6-.65.17-.2.31-.4.43-.6.12-.2.2-.4.27-.61.06-.2.09-.42.09-.65 0-.21-.03-.4-.09-.55a1.05 1.05 0 0 0-.65-.64 1.56 1.56 0 0 0-.52-.08c-.18 0-.34.02-.49.07a1.33 1.33 0 0 0-.87.92c-.07.19-.16.3-.27.37-.1.06-.26.07-.46.04l-.78-.14c.06-.41.17-.78.34-1.1a2.63 2.63 0 0 1 1.54-1.25 3.54 3.54 0 0 1 2.17.02 2.27 2.27 0 0 1 1.4 1.28 2.7 2.7 0 0 1 .06 1.9c-.1.27-.22.53-.37.78-.16.25-.35.49-.56.72-.21.23-.43.47-.67.7l-1.95 2a4.44 4.44 0 0 1 1.09-.17h2.23zm7.73-2.96a7.1 7.1 0 0 1-.24 1.97 4.04 4.04 0 0 1-.67 1.39c-.3.36-.63.63-1.02.8a3 3 0 0 1-1.26.28c-.45 0-.87-.1-1.26-.27a2.7 2.7 0 0 1-1-.81c-.29-.37-.51-.83-.67-1.39a7.2 7.2 0 0 1-.24-1.97c0-.76.08-1.42.24-1.97.16-.56.38-1.02.67-1.38a2.7 2.7 0 0 1 2.26-1.08 3 3 0 0 1 1.26.27c.4.17.73.44 1.02.8.28.37.5.83.67 1.39.16.55.24 1.21.24 1.97zm-1.53 0c0-.63-.05-1.15-.14-1.56-.09-.41-.21-.74-.37-.98a1.35 1.35 0 0 0-.53-.51 1.4 1.4 0 0 0-1.24 0c-.2.1-.37.26-.52.5-.15.25-.27.58-.37 1a7.5 7.5 0 0 0-.13 1.55c0 .63.04 1.15.13 1.56.1.41.22.74.37.99.15.24.32.41.52.5a1.37 1.37 0 0 0 1.24 0c.2-.09.38-.26.53-.5.16-.25.28-.58.37-.99.1-.41.14-.93.14-1.56zm8.04 3.23V39h-4.8v-1.11h1.76v-5.06c0-.2 0-.4.02-.62l-1.25 1.05a.52.52 0 0 1-.21.1.5.5 0 0 1-.37-.06.35.35 0 0 1-.1-.1l-.47-.64 2.64-2.25h1.22v7.58h1.56zm2.73-4.96c0 .48.12.85.38 1.1.25.26.6.39 1.06.39.24 0 .45-.04.64-.12a1.31 1.31 0 0 0 .77-.78c.06-.18.1-.37.1-.58 0-.24-.04-.45-.11-.63a1.3 1.3 0 0 0-.78-.77 1.7 1.7 0 0 0-1.2.01 1.35 1.35 0 0 0-.76.78c-.07.18-.1.38-.1.6zm1.97 2.7a8.44 8.44 0 0 0 .36-.48c-.2.13-.42.22-.66.29a2.84 2.84 0 0 1-1.63-.06 2.2 2.2 0 0 1-1.32-1.25c-.13-.3-.2-.67-.2-1.09a2.77 2.77 0 0 1 1.76-2.59c.36-.15.76-.22 1.2-.22.45 0 .84.07 1.2.2a2.56 2.56 0 0 1 1.48 1.5c.14.35.2.74.2 1.16a4.04 4.04 0 0 1-.57 2.1c-.12.22-.25.43-.4.64l-1.99 2.83a.78.78 0 0 1-.3.24c-.14.07-.3.1-.46.1H91.2l2.7-3.37z"/>
      <rect width="26" height="44" x="-.5" y="-.5" fill="#FFF" stroke="#E2E9EE" rx="3"/>
      <path fill="#748999" d="M13.81 26L10 22l3.81-4L15 19.25 12.38 22 15 24.75z"/>
      <path fill="#748999" d="M13.81 26L10 22l3.81-4L15 19.25 12.38 22 15 24.75z"/>
      <g transform="translate(621)">
        <rect width="26" height="44" x="-.5" y="-.5" fill="#FFF" stroke="#E2E9EE" rx="3"/>
        <path fill="#748999" d="M11.19 18L15 22l-3.81 4L10 24.75 12.62 22 10 19.25z"/>
      </g>
      <use fill="#000" filter="url(#c)" xlink:href="#d"/>
      <path fill="#FFF" stroke="#E2E9EE" d="M-.5 50.5H643a3.5 3.5 0 0 1 3.5 3.5v58a3.5 3.5 0 0 1-3.5 3.5H3A3.5 3.5 0 0 1-.5 112V50.5z"/>
      <path fill="#F8FAFC" stroke="#E2E9EE" d="M137-.5h84a3.5 3.5 0 0 1 3.5 3.5v47.5h-91V3A3.5 3.5 0 0 1 137-.5z"/>
      <path fill="#3E5667" fill-rule="nonzero" d="M166.74 21.7V23h-5.6v-1.3h2.05v-5.9l.02-.72-1.45 1.22a.6.6 0 0 1-.25.12.6.6 0 0 1-.42-.07.4.4 0 0 1-.13-.11l-.55-.75 3.1-2.63h1.41v8.84h1.82zm8.65-3.76c0 .88-.1 1.65-.29 2.3a4.71 4.71 0 0 1-.78 1.61c-.33.43-.73.74-1.18.95-.46.2-.95.31-1.48.31a3.16 3.16 0 0 1-2.64-1.26 4.7 4.7 0 0 1-.77-1.61 8.4 8.4 0 0 1-.28-2.3c0-.89.1-1.66.28-2.3a4.7 4.7 0 0 1 .77-1.61 3.16 3.16 0 0 1 2.64-1.26 3.17 3.17 0 0 1 2.66 1.26c.33.42.6.96.78 1.6.2.65.29 1.42.29 2.3zm-1.79 0c0-.73-.05-1.34-.16-1.82-.1-.48-.25-.86-.43-1.15a1.57 1.57 0 0 0-.62-.6 1.64 1.64 0 0 0-1.44 0c-.23.12-.44.32-.62.6-.17.29-.31.67-.42 1.15-.1.48-.16 1.09-.16 1.82s.06 1.34.16 1.82.25.86.42 1.15c.18.28.39.48.62.6a1.6 1.6 0 0 0 1.44 0c.24-.12.44-.32.62-.6.18-.29.32-.67.43-1.15.1-.48.16-1.09.16-1.82zm4.2 5.08a.92.92 0 0 1-.39.48c-.17.11-.35.16-.53.16h-.74l4.1-10.45c.07-.2.18-.35.33-.45.16-.11.34-.16.54-.16h.75l-4.06 10.42zm12.23-5.08c0 .88-.1 1.65-.28 2.3a4.71 4.71 0 0 1-.79 1.61c-.33.43-.72.74-1.18.95-.45.2-.94.31-1.47.31s-1.02-.1-1.47-.3c-.45-.22-.84-.53-1.17-.96a4.7 4.7 0 0 1-.78-1.61 8.4 8.4 0 0 1-.28-2.3c0-.89.1-1.66.28-2.3a4.7 4.7 0 0 1 .78-1.61 3.16 3.16 0 0 1 2.64-1.26 3.17 3.17 0 0 1 2.66 1.26c.33.42.59.96.78 1.6.19.65.28 1.42.28 2.3zm-1.78 0c0-.73-.06-1.34-.16-1.82-.11-.48-.25-.86-.43-1.15a1.57 1.57 0 0 0-.62-.6 1.64 1.64 0 0 0-1.45 0c-.23.12-.43.32-.61.6-.18.29-.32.67-.43 1.15-.1.48-.15 1.09-.15 1.82s.05 1.34.15 1.82c.11.48.25.86.43 1.15.18.28.38.48.61.6a1.6 1.6 0 0 0 1.45 0c.23-.12.44-.32.62-.6.18-.29.32-.67.43-1.15.1-.48.16-1.09.16-1.82zm9 3.45c.19 0 .33.05.44.16.11.1.17.24.17.41V23h-6.95v-.57a1.03 1.03 0 0 1 .31-.72l3.08-3.08c.25-.26.48-.5.68-.75.2-.24.38-.47.51-.7.14-.24.24-.47.31-.71.08-.24.11-.5.11-.76 0-.25-.03-.46-.1-.64a1.23 1.23 0 0 0-.76-.75c-.18-.07-.38-.1-.6-.1-.21 0-.4.03-.58.09a1.55 1.55 0 0 0-1.02 1.07c-.08.22-.18.36-.3.43-.13.07-.31.09-.55.05l-.91-.16c.07-.49.2-.91.4-1.28a3.06 3.06 0 0 1 1.8-1.47 4.13 4.13 0 0 1 2.53.02 2.65 2.65 0 0 1 1.64 1.5 3.15 3.15 0 0 1 .07 2.22 4.3 4.3 0 0 1-.45.9c-.18.3-.4.58-.64.85l-.78.82-2.28 2.33a5.18 5.18 0 0 1 1.27-.2h2.6z"/>
      <path fill="#748999" fill-rule="nonzero" d="M170.97 37.62c.16 0 .28.04.38.14.1.09.14.2.14.35V39h-5.95v-.5a.88.88 0 0 1 .26-.6l2.63-2.64c.22-.23.42-.44.6-.65.17-.2.31-.4.43-.6.12-.2.2-.4.27-.61.06-.2.09-.42.09-.65 0-.21-.03-.4-.09-.55a1.05 1.05 0 0 0-.65-.64 1.56 1.56 0 0 0-.52-.08c-.18 0-.34.02-.49.07a1.33 1.33 0 0 0-.87.92c-.07.19-.16.3-.27.37-.1.06-.26.07-.46.04l-.78-.14c.06-.41.17-.78.34-1.1a2.63 2.63 0 0 1 1.54-1.25 3.54 3.54 0 0 1 2.17.02 2.27 2.27 0 0 1 1.4 1.28 2.7 2.7 0 0 1 .06 1.9c-.1.27-.22.53-.37.78-.16.25-.35.49-.56.72-.21.23-.43.47-.67.7l-1.95 2a4.44 4.44 0 0 1 1.09-.17h2.23zm7.73-2.96a7.1 7.1 0 0 1-.24 1.97 4.04 4.04 0 0 1-.67 1.39c-.3.36-.63.63-1.02.8a3 3 0 0 1-1.26.28c-.45 0-.87-.1-1.26-.27a2.7 2.7 0 0 1-1-.81c-.29-.37-.51-.83-.67-1.39a7.2 7.2 0 0 1-.24-1.97c0-.76.08-1.42.24-1.97.16-.56.38-1.02.67-1.38a2.7 2.7 0 0 1 2.26-1.08 3 3 0 0 1 1.26.27c.4.17.73.44 1.02.8.28.37.5.83.67 1.39.16.55.24 1.21.24 1.97zm-1.53 0c0-.63-.05-1.15-.14-1.56-.09-.41-.21-.74-.37-.98a1.35 1.35 0 0 0-.53-.51 1.4 1.4 0 0 0-1.24 0c-.2.1-.37.26-.52.5-.15.25-.27.58-.37 1a7.5 7.5 0 0 0-.13 1.55c0 .63.04 1.15.14 1.56.09.41.2.74.36.99.15.24.32.41.52.5a1.37 1.37 0 0 0 1.24 0c.2-.09.38-.26.53-.5.16-.25.28-.58.37-.99.1-.41.14-.93.14-1.56zm8.04 3.23V39h-4.8v-1.11h1.76v-5.06c0-.2 0-.4.02-.62l-1.25 1.05a.52.52 0 0 1-.21.1.5.5 0 0 1-.37-.06.35.35 0 0 1-.1-.1l-.47-.64 2.64-2.25h1.22v7.58h1.56zm2.73-4.96c0 .48.12.85.38 1.1.25.26.6.39 1.06.39.24 0 .45-.04.64-.12a1.31 1.31 0 0 0 .76-.78c.07-.18.1-.37.1-.58 0-.24-.03-.45-.1-.63a1.3 1.3 0 0 0-.78-.77 1.7 1.7 0 0 0-1.2.01 1.35 1.35 0 0 0-.76.78c-.07.18-.1.38-.1.6zm1.97 2.7a8.44 8.44 0 0 0 .36-.48c-.2.13-.42.22-.66.29a2.84 2.84 0 0 1-1.63-.06 2.2 2.2 0 0 1-1.31-1.25c-.14-.3-.21-.67-.21-1.09a2.77 2.77 0 0 1 1.76-2.59c.36-.15.76-.22 1.2-.22.45 0 .84.07 1.2.2a2.56 2.56 0 0 1 1.48 1.5c.14.35.2.74.2 1.16a4.04 4.04 0 0 1-.57 2.1c-.12.22-.25.43-.4.64l-1.99 2.83a.78.78 0 0 1-.3.24c-.14.07-.3.1-.46.1h-1.37l2.7-3.37z"/>
      <g>
        <path fill="#F8FAFC" stroke="#E2E9EE" d="M233-.5h84a3.5 3.5 0 0 1 3.5 3.5v47.5h-91V3A3.5 3.5 0 0 1 233-.5z"/>
        <path fill="#3E5667" fill-rule="nonzero" d="M262.74 21.7V23h-5.6v-1.3h2.05v-5.9l.02-.72-1.45 1.22a.6.6 0 0 1-.25.12.6.6 0 0 1-.42-.07.4.4 0 0 1-.13-.11l-.54-.75 3.08-2.63h1.42v8.84h1.82zm8.12 0V23h-5.6v-1.3h2.05v-5.9l.02-.72-1.45 1.22a.6.6 0 0 1-.25.12.6.6 0 0 1-.42-.07.4.4 0 0 1-.13-.11l-.54-.75 3.08-2.63h1.42v8.84h1.82zm2.94 1.32a.92.92 0 0 1-.39.48c-.17.11-.35.16-.53.16h-.74l4.1-10.45c.07-.2.18-.35.33-.45.16-.11.34-.16.54-.16h.75l-4.06 10.42zm12.23-5.08c0 .88-.1 1.65-.28 2.3a4.71 4.71 0 0 1-.79 1.61c-.33.43-.72.74-1.18.95-.45.2-.94.31-1.47.31s-1.02-.1-1.47-.3c-.45-.22-.84-.53-1.17-.96a4.7 4.7 0 0 1-.78-1.61 8.4 8.4 0 0 1-.28-2.3c0-.89.1-1.66.28-2.3a4.7 4.7 0 0 1 .78-1.61 3.16 3.16 0 0 1 2.64-1.26 3.17 3.17 0 0 1 2.66 1.26c.33.42.59.96.78 1.6.19.65.28 1.42.28 2.3zm-1.78 0c0-.73-.06-1.34-.16-1.82-.11-.48-.25-.86-.43-1.15a1.57 1.57 0 0 0-.62-.6 1.64 1.64 0 0 0-1.45 0c-.23.12-.43.32-.61.6-.18.29-.32.67-.43 1.15-.1.48-.15 1.09-.15 1.82s.05 1.34.15 1.82c.11.48.25.86.43 1.15.18.28.38.48.61.6a1.6 1.6 0 0 0 1.45 0c.23-.12.44-.32.62-.6.18-.29.32-.67.43-1.15.1-.48.16-1.09.16-1.82zm9 3.45c.19 0 .33.05.44.16.11.1.17.24.17.41V23h-6.95v-.57a1.03 1.03 0 0 1 .31-.72l3.07-3.08c.26-.26.5-.5.7-.75.2-.24.37-.47.5-.7.14-.24.24-.47.31-.71.08-.24.11-.5.11-.76 0-.25-.03-.46-.1-.64a1.23 1.23 0 0 0-.76-.75c-.18-.07-.38-.1-.6-.1-.21 0-.4.03-.58.09a1.55 1.55 0 0 0-1.02 1.07c-.08.22-.18.36-.3.43-.13.07-.31.09-.55.05l-.91-.16c.07-.49.2-.91.4-1.28a3.06 3.06 0 0 1 1.8-1.47 4.13 4.13 0 0 1 2.53.02 2.65 2.65 0 0 1 1.64 1.5 3.15 3.15 0 0 1 .07 2.22 4.3 4.3 0 0 1-.45.9c-.18.3-.4.58-.64.85l-.78.82-2.28 2.33a5.18 5.18 0 0 1 1.27-.2h2.6z"/>
        <path fill="#748999" fill-rule="nonzero" d="M266.97 37.62c.16 0 .28.04.38.14.1.09.14.2.14.35V39h-5.95v-.5a.88.88 0 0 1 .26-.6l2.63-2.64c.22-.23.42-.44.6-.65.17-.2.31-.4.43-.6.12-.2.2-.4.27-.61.06-.2.09-.42.09-.65 0-.21-.03-.4-.09-.55a1.05 1.05 0 0 0-.65-.64 1.56 1.56 0 0 0-.52-.08c-.18 0-.34.02-.49.07a1.33 1.33 0 0 0-.87.92c-.07.19-.16.3-.27.37-.1.06-.26.07-.46.04l-.78-.14c.06-.41.17-.78.34-1.1a2.63 2.63 0 0 1 1.54-1.25 3.54 3.54 0 0 1 2.17.02 2.27 2.27 0 0 1 1.4 1.28 2.7 2.7 0 0 1 .06 1.9c-.1.27-.22.53-.37.78-.16.25-.35.49-.56.72-.21.23-.43.47-.67.7l-1.95 2a4.44 4.44 0 0 1 1.09-.17h2.23zm7.73-2.96a7.1 7.1 0 0 1-.24 1.97 4.04 4.04 0 0 1-.67 1.39c-.3.36-.63.63-1.02.8a3 3 0 0 1-1.26.28c-.45 0-.87-.1-1.26-.27a2.7 2.7 0 0 1-1-.81c-.29-.37-.51-.83-.67-1.39a7.2 7.2 0 0 1-.24-1.97c0-.76.08-1.42.24-1.97.16-.56.38-1.02.67-1.38a2.7 2.7 0 0 1 2.26-1.08 3 3 0 0 1 1.26.27c.4.17.73.44 1.01.8.3.37.51.83.68 1.39.16.55.24 1.21.24 1.97zm-1.53 0c0-.63-.05-1.15-.14-1.56-.09-.41-.21-.74-.37-.98a1.35 1.35 0 0 0-.53-.51 1.4 1.4 0 0 0-1.24 0c-.2.1-.37.26-.52.5-.15.25-.27.58-.37 1a7.5 7.5 0 0 0-.13 1.55c0 .63.04 1.15.13 1.56.1.41.22.74.37.99.15.24.32.41.52.5a1.37 1.37 0 0 0 1.24 0c.2-.09.38-.26.53-.5.16-.25.28-.58.37-.99.1-.41.14-.93.14-1.56zm8.04 3.23V39h-4.8v-1.11h1.76v-5.06c0-.2 0-.4.02-.62l-1.25 1.05a.52.52 0 0 1-.22.1.5.5 0 0 1-.36-.06.35.35 0 0 1-.1-.1l-.47-.64 2.64-2.25h1.22v7.58h1.56zm2.73-4.96c0 .48.12.85.38 1.1.25.26.6.39 1.06.39.24 0 .45-.04.64-.12a1.31 1.31 0 0 0 .76-.78c.07-.18.1-.37.1-.58 0-.24-.03-.45-.1-.63a1.3 1.3 0 0 0-.78-.77 1.7 1.7 0 0 0-1.2.01 1.35 1.35 0 0 0-.76.78c-.07.18-.1.38-.1.6zm1.97 2.7a8.44 8.44 0 0 0 .36-.48c-.2.13-.42.22-.66.29a2.84 2.84 0 0 1-1.63-.06 2.2 2.2 0 0 1-1.32-1.25c-.13-.3-.2-.67-.2-1.09a2.77 2.77 0 0 1 1.76-2.59c.36-.15.76-.22 1.2-.22.45 0 .84.07 1.2.2a2.56 2.56 0 0 1 1.48 1.5c.14.35.2.74.2 1.16a4.04 4.04 0 0 1-.57 2.1c-.12.22-.25.43-.4.64l-1.99 2.83a.78.78 0 0 1-.3.24c-.14.07-.3.1-.46.1h-1.37l2.7-3.37z"/>
      </g>
      <g>
        <path fill="#F8FAFC" stroke="#E2E9EE" d="M329-.5h84a3.5 3.5 0 0 1 3.5 3.5v47.5h-91V3A3.5 3.5 0 0 1 329-.5z"/>
        <path fill="#3E5667" fill-rule="nonzero" d="M358.74 21.7V23h-5.6v-1.3h2.05v-5.9l.02-.72-1.45 1.22a.6.6 0 0 1-.25.12.6.6 0 0 1-.42-.07.4.4 0 0 1-.13-.11l-.54-.75 3.08-2.63h1.42v8.84h1.82zm7.74-.31c.2 0 .34.05.45.16.1.1.16.24.16.41V23h-6.94v-.57a1.03 1.03 0 0 1 .3-.72l3.08-3.08c.26-.26.49-.5.7-.75.2-.24.36-.47.5-.7.13-.24.24-.47.31-.71s.1-.5.1-.76c0-.25-.03-.46-.1-.64a1.23 1.23 0 0 0-.76-.75c-.18-.07-.38-.1-.6-.1-.2 0-.4.03-.57.09a1.55 1.55 0 0 0-1.02 1.07c-.08.22-.18.36-.3.43-.14.07-.32.09-.55.05l-.91-.16c.07-.49.2-.91.4-1.28a3.06 3.06 0 0 1 1.79-1.47 4.13 4.13 0 0 1 2.54.02 2.65 2.65 0 0 1 1.64 1.5 3.15 3.15 0 0 1 .07 2.22 4.3 4.3 0 0 1-.45.9c-.18.3-.4.58-.65.85l-.77.82-2.29 2.33a5.18 5.18 0 0 1 1.28-.2h2.6zm3.32 1.63a.92.92 0 0 1-.39.48c-.17.11-.35.16-.53.16h-.74l4.1-10.45c.07-.2.18-.35.33-.45.16-.11.34-.16.54-.16h.75l-4.06 10.42zm12.23-5.08c0 .88-.1 1.65-.28 2.3a4.71 4.71 0 0 1-.79 1.61c-.33.43-.72.74-1.18.95-.45.2-.94.31-1.47.31s-1.02-.1-1.47-.3c-.45-.22-.84-.53-1.17-.96a4.7 4.7 0 0 1-.78-1.61 8.4 8.4 0 0 1-.28-2.3c0-.89.1-1.66.28-2.3a4.7 4.7 0 0 1 .78-1.61 3.16 3.16 0 0 1 2.64-1.26 3.17 3.17 0 0 1 2.66 1.26c.33.42.59.96.78 1.6.19.65.28 1.42.28 2.3zm-1.78 0c0-.73-.06-1.34-.16-1.82-.11-.48-.25-.86-.43-1.15a1.57 1.57 0 0 0-.62-.6 1.64 1.64 0 0 0-1.45 0c-.23.12-.43.32-.61.6-.18.29-.32.67-.43 1.15-.1.48-.15 1.09-.15 1.82s.05 1.34.15 1.82c.11.48.25.86.43 1.15.18.28.38.48.61.6a1.6 1.6 0 0 0 1.45 0c.23-.12.44-.32.62-.6.18-.29.32-.67.43-1.15.1-.48.16-1.09.16-1.82zm9 3.45c.19 0 .33.05.44.16.11.1.17.24.17.41V23h-6.95v-.57a1.03 1.03 0 0 1 .31-.72l3.07-3.08c.26-.26.5-.5.7-.75.2-.24.37-.47.5-.7.14-.24.24-.47.31-.71.08-.24.11-.5.11-.76 0-.25-.03-.46-.1-.64a1.23 1.23 0 0 0-.76-.75c-.18-.07-.38-.1-.6-.1-.21 0-.4.03-.58.09a1.55 1.55 0 0 0-1.02 1.07c-.08.22-.18.36-.3.43-.13.07-.31.09-.55.05l-.91-.16c.07-.49.2-.91.4-1.28a3.06 3.06 0 0 1 1.8-1.47 4.13 4.13 0 0 1 2.53.02 2.65 2.65 0 0 1 1.64 1.5 3.15 3.15 0 0 1 .07 2.22 4.3 4.3 0 0 1-.45.9c-.18.3-.4.58-.64.85l-.78.82-2.28 2.33a5.18 5.18 0 0 1 1.27-.2h2.6z"/>
        <path fill="#748999" fill-rule="nonzero" d="M362.97 37.62c.16 0 .28.04.38.14.1.09.14.2.14.35V39h-5.95v-.5a.88.88 0 0 1 .26-.6l2.63-2.64c.22-.23.42-.44.6-.65.17-.2.31-.4.43-.6.12-.2.2-.4.27-.61.06-.2.09-.42.09-.65 0-.21-.03-.4-.09-.55a1.05 1.05 0 0 0-.65-.64 1.56 1.56 0 0 0-.52-.08c-.18 0-.34.02-.49.07a1.33 1.33 0 0 0-.87.92c-.07.19-.16.3-.27.37-.1.06-.26.07-.46.04l-.78-.14c.06-.41.17-.78.34-1.1a2.63 2.63 0 0 1 1.54-1.25 3.54 3.54 0 0 1 2.17.02 2.27 2.27 0 0 1 1.4 1.28 2.7 2.7 0 0 1 .06 1.9c-.1.27-.22.53-.37.78-.16.25-.35.49-.56.72-.21.23-.43.47-.67.7l-1.95 2a4.44 4.44 0 0 1 1.09-.17h2.23zm7.73-2.96a7.1 7.1 0 0 1-.24 1.97 4.04 4.04 0 0 1-.67 1.39c-.3.36-.63.63-1.02.8a3 3 0 0 1-1.26.28c-.45 0-.87-.1-1.26-.27a2.7 2.7 0 0 1-1-.81c-.29-.37-.51-.83-.67-1.39a7.2 7.2 0 0 1-.24-1.97c0-.76.08-1.42.24-1.97.16-.56.38-1.02.67-1.38a2.7 2.7 0 0 1 2.26-1.08 3 3 0 0 1 1.26.27c.4.17.73.44 1.01.8.3.37.51.83.68 1.39.16.55.24 1.21.24 1.97zm-1.53 0c0-.63-.05-1.15-.14-1.56-.09-.41-.21-.74-.37-.98a1.35 1.35 0 0 0-.53-.51 1.4 1.4 0 0 0-1.24 0c-.2.1-.37.26-.52.5-.15.25-.27.58-.37 1a7.5 7.5 0 0 0-.13 1.55c0 .63.04 1.15.13 1.56.1.41.22.74.37.99.15.24.32.41.52.5a1.37 1.37 0 0 0 1.24 0c.2-.09.38-.26.53-.5.16-.25.28-.58.37-.99.1-.41.14-.93.14-1.56zm8.04 3.23V39h-4.8v-1.11h1.76v-5.06c0-.2 0-.4.02-.62l-1.25 1.05a.52.52 0 0 1-.22.1.5.5 0 0 1-.36-.06.35.35 0 0 1-.1-.1l-.47-.64 2.64-2.25h1.22v7.58h1.56zm2.73-4.96c0 .48.12.85.38 1.1.25.26.6.39 1.06.39.24 0 .45-.04.64-.12a1.31 1.31 0 0 0 .76-.78c.07-.18.1-.37.1-.58 0-.24-.03-.45-.1-.63a1.3 1.3 0 0 0-.78-.77 1.7 1.7 0 0 0-1.2.01 1.35 1.35 0 0 0-.76.78c-.07.18-.1.38-.1.6zm1.97 2.7a8.44 8.44 0 0 0 .36-.48c-.2.13-.42.22-.66.29a2.84 2.84 0 0 1-1.63-.06 2.2 2.2 0 0 1-1.32-1.25c-.13-.3-.2-.67-.2-1.09a2.77 2.77 0 0 1 1.76-2.59c.36-.15.76-.22 1.2-.22.45 0 .84.07 1.2.2a2.56 2.56 0 0 1 1.48 1.5c.14.35.2.74.2 1.16a4.04 4.04 0 0 1-.57 2.1c-.12.22-.25.43-.4.64l-1.99 2.83a.78.78 0 0 1-.3.24c-.14.07-.3.1-.46.1h-1.37l2.7-3.37z"/>
      </g>
      <g>
        <path fill="#F8FAFC" stroke="#E2E9EE" d="M425-.5h84a3.5 3.5 0 0 1 3.5 3.5v47.5h-91V3A3.5 3.5 0 0 1 425-.5z"/>
        <path fill="#3E5667" fill-rule="nonzero" d="M454.74 21.7V23h-5.6v-1.3h2.05v-5.9l.02-.72-1.45 1.22a.6.6 0 0 1-.25.12.6.6 0 0 1-.42-.07.4.4 0 0 1-.13-.11l-.54-.75 3.08-2.63h1.42v8.84h1.82zm7.74-.31c.2 0 .34.05.45.16.1.1.16.24.16.41V23h-6.94v-.57a1.03 1.03 0 0 1 .3-.72l3.08-3.08c.26-.26.49-.5.7-.75.2-.24.36-.47.5-.7.13-.24.24-.47.31-.71s.1-.5.1-.76c0-.25-.03-.46-.1-.64a1.23 1.23 0 0 0-.76-.75c-.18-.07-.38-.1-.6-.1-.2 0-.4.03-.57.09a1.55 1.55 0 0 0-1.02 1.07c-.08.22-.18.36-.3.43-.14.07-.32.09-.55.05l-.91-.16c.07-.49.2-.91.4-1.28a3.06 3.06 0 0 1 1.79-1.47 4.13 4.13 0 0 1 2.54.02 2.65 2.65 0 0 1 1.64 1.5 3.15 3.15 0 0 1 .07 2.22 4.3 4.3 0 0 1-.45.9c-.18.3-.4.58-.65.85l-.77.82-2.29 2.33a5.18 5.18 0 0 1 1.28-.2h2.6zm3.32 1.63a.92.92 0 0 1-.39.48c-.17.11-.35.16-.53.16h-.74l4.1-10.45c.07-.2.18-.35.33-.45.16-.11.34-.16.54-.16h.75l-4.06 10.42zm12.23-5.08c0 .88-.1 1.65-.28 2.3a4.71 4.71 0 0 1-.79 1.61c-.33.43-.72.74-1.18.95-.45.2-.94.31-1.47.31s-1.02-.1-1.47-.3c-.45-.22-.84-.53-1.17-.96a4.7 4.7 0 0 1-.78-1.61 8.4 8.4 0 0 1-.28-2.3c0-.89.1-1.66.28-2.3a4.7 4.7 0 0 1 .78-1.61 3.16 3.16 0 0 1 2.64-1.26 3.17 3.17 0 0 1 2.66 1.26c.33.42.59.96.78 1.6.19.65.28 1.42.28 2.3zm-1.78 0c0-.73-.06-1.34-.16-1.82-.11-.48-.25-.86-.43-1.15a1.57 1.57 0 0 0-.62-.6 1.64 1.64 0 0 0-1.45 0c-.23.12-.43.32-.61.6-.18.29-.32.67-.43 1.15-.1.48-.15 1.09-.15 1.82s.05 1.34.15 1.82c.11.48.25.86.43 1.15.18.28.38.48.61.6a1.6 1.6 0 0 0 1.45 0c.23-.12.44-.32.62-.6.18-.29.32-.67.43-1.15.1-.48.16-1.09.16-1.82zm9 3.45c.19 0 .33.05.44.16.11.1.17.24.17.41V23h-6.95v-.57a1.03 1.03 0 0 1 .31-.72l3.07-3.08c.26-.26.5-.5.7-.75.2-.24.37-.47.5-.7.14-.24.24-.47.31-.71.08-.24.11-.5.11-.76 0-.25-.03-.46-.1-.64a1.23 1.23 0 0 0-.76-.75c-.18-.07-.38-.1-.6-.1-.21 0-.4.03-.58.09a1.55 1.55 0 0 0-1.02 1.07c-.08.22-.18.36-.3.43-.13.07-.31.09-.55.05l-.91-.16c.07-.49.2-.91.4-1.28a3.06 3.06 0 0 1 1.8-1.47 4.13 4.13 0 0 1 2.53.02 2.65 2.65 0 0 1 1.64 1.5 3.15 3.15 0 0 1 .07 2.22 4.3 4.3 0 0 1-.45.9c-.18.3-.4.58-.64.85l-.78.82-2.28 2.33a5.18 5.18 0 0 1 1.27-.2h2.6z"/>
        <path fill="#748999" fill-rule="nonzero" d="M458.97 37.62c.16 0 .28.04.38.14.1.09.14.2.14.35V39h-5.95v-.5a.88.88 0 0 1 .26-.6l2.63-2.64c.22-.23.42-.44.6-.65.17-.2.31-.4.43-.6.12-.2.2-.4.27-.61.06-.2.09-.42.09-.65 0-.21-.03-.4-.09-.55a1.05 1.05 0 0 0-.65-.64 1.56 1.56 0 0 0-.52-.08c-.18 0-.34.02-.49.07a1.33 1.33 0 0 0-.87.92c-.07.19-.16.3-.27.37-.1.06-.26.07-.46.04l-.78-.14c.06-.41.17-.78.34-1.1a2.63 2.63 0 0 1 1.54-1.25 3.54 3.54 0 0 1 2.17.02 2.27 2.27 0 0 1 1.4 1.28 2.7 2.7 0 0 1 .06 1.9c-.1.27-.22.53-.37.78-.16.25-.35.49-.56.72-.21.23-.43.47-.67.7l-1.95 2a4.44 4.44 0 0 1 1.09-.17h2.23zm7.73-2.96a7.1 7.1 0 0 1-.24 1.97 4.04 4.04 0 0 1-.67 1.39c-.3.36-.63.63-1.02.8a3 3 0 0 1-1.26.28c-.45 0-.87-.1-1.26-.27a2.7 2.7 0 0 1-1-.81c-.29-.37-.51-.83-.67-1.39a7.2 7.2 0 0 1-.24-1.97c0-.76.08-1.42.24-1.97.16-.56.38-1.02.67-1.38a2.7 2.7 0 0 1 2.26-1.08 3 3 0 0 1 1.26.27c.4.17.73.44 1.01.8.3.37.51.83.68 1.39.16.55.24 1.21.24 1.97zm-1.53 0c0-.63-.05-1.15-.14-1.56-.09-.41-.21-.74-.37-.98a1.35 1.35 0 0 0-.53-.51 1.4 1.4 0 0 0-1.24 0c-.2.1-.37.26-.52.5-.15.25-.27.58-.37 1a7.5 7.5 0 0 0-.13 1.55c0 .63.04 1.15.13 1.56.1.41.22.74.37.99.15.24.32.41.52.5a1.37 1.37 0 0 0 1.24 0c.2-.09.38-.26.53-.5.16-.25.28-.58.37-.99.1-.41.14-.93.14-1.56zm8.04 3.23V39h-4.8v-1.11h1.76v-5.06c0-.2 0-.4.02-.62l-1.25 1.05a.52.52 0 0 1-.22.1.5.5 0 0 1-.36-.06.35.35 0 0 1-.1-.1l-.47-.64 2.64-2.25h1.22v7.58h1.56zm2.73-4.96c0 .48.12.85.38 1.1.25.26.6.39 1.06.39.24 0 .45-.04.64-.12a1.31 1.31 0 0 0 .76-.78c.07-.18.1-.37.1-.58 0-.24-.03-.45-.1-.63a1.3 1.3 0 0 0-.78-.77 1.7 1.7 0 0 0-1.2.01 1.35 1.35 0 0 0-.76.78c-.07.18-.1.38-.1.6zm1.97 2.7a8.44 8.44 0 0 0 .36-.48c-.2.13-.42.22-.66.29a2.84 2.84 0 0 1-1.63-.06 2.2 2.2 0 0 1-1.32-1.25c-.13-.3-.2-.67-.2-1.09a2.77 2.77 0 0 1 1.76-2.59c.36-.15.76-.22 1.2-.22.45 0 .84.07 1.2.2a2.56 2.56 0 0 1 1.48 1.5c.14.35.2.74.2 1.16a4.04 4.04 0 0 1-.57 2.1c-.12.22-.25.43-.4.64l-1.99 2.83a.78.78 0 0 1-.3.24c-.14.07-.3.1-.46.1h-1.37l2.7-3.37z"/>
      </g>
      <g>
        <path fill="#F8FAFC" stroke="#E2E9EE" d="M521-.5h84a3.5 3.5 0 0 1 3.5 3.5v47.5h-91V3A3.5 3.5 0 0 1 521-.5z"/>
        <path fill="#3E5667" fill-rule="nonzero" d="M550.74 21.7V23h-5.6v-1.3h2.05v-5.9l.03-.72-1.46 1.22a.6.6 0 0 1-.25.12.6.6 0 0 1-.42-.07.4.4 0 0 1-.13-.11l-.55-.75 3.1-2.63h1.41v8.84h1.82zm7.75-.31c.18 0 .33.05.44.16.1.1.16.24.16.41V23h-6.94v-.57a1.03 1.03 0 0 1 .3-.72l3.08-3.08c.26-.26.49-.5.69-.75.2-.24.37-.47.5-.7a2.62 2.62 0 0 0 .42-1.47c0-.25-.03-.46-.1-.64a1.23 1.23 0 0 0-.76-.75c-.18-.07-.38-.1-.6-.1-.2 0-.4.03-.57.09a1.55 1.55 0 0 0-1.02 1.07c-.08.22-.18.36-.3.43-.14.07-.32.09-.56.05l-.9-.16c.07-.49.2-.91.4-1.28a3.06 3.06 0 0 1 1.79-1.47 4.13 4.13 0 0 1 2.54.02 2.65 2.65 0 0 1 1.64 1.5 3.15 3.15 0 0 1 .07 2.22 4.3 4.3 0 0 1-.45.9c-.18.3-.4.58-.65.85l-.77.82-2.29 2.33a5.18 5.18 0 0 1 1.28-.2h2.6zm3.3 1.63a.92.92 0 0 1-.38.48c-.17.11-.35.16-.53.16h-.74l4.1-10.45c.07-.2.18-.35.34-.45.15-.11.33-.16.53-.16h.75l-4.06 10.42zm12.24-5.08c0 .88-.1 1.65-.28 2.3a4.71 4.71 0 0 1-.79 1.61c-.33.43-.72.74-1.18.95-.45.2-.94.31-1.47.31s-1.02-.1-1.47-.3c-.45-.22-.84-.53-1.17-.96a4.7 4.7 0 0 1-.78-1.61 8.4 8.4 0 0 1-.28-2.3c0-.89.1-1.66.28-2.3a4.7 4.7 0 0 1 .78-1.61 3.16 3.16 0 0 1 2.64-1.26 3.17 3.17 0 0 1 2.66 1.26c.33.42.59.96.78 1.6.19.65.28 1.42.28 2.3zm-1.78 0c0-.73-.06-1.34-.16-1.82-.11-.48-.25-.86-.43-1.15a1.57 1.57 0 0 0-.62-.6 1.64 1.64 0 0 0-1.45 0c-.23.12-.43.32-.61.6-.18.29-.32.67-.43 1.15-.1.48-.15 1.09-.15 1.82s.05 1.34.15 1.82c.11.48.25.86.43 1.15.18.28.38.48.61.6a1.6 1.6 0 0 0 1.45 0c.23-.12.44-.32.62-.6.18-.29.32-.67.43-1.15.1-.48.16-1.09.16-1.82zm9 3.45c.19 0 .33.05.44.16.11.1.17.24.17.41V23h-6.95v-.57a1.03 1.03 0 0 1 .31-.72l3.07-3.08c.26-.26.5-.5.7-.75.2-.24.37-.47.5-.7.14-.24.24-.47.31-.71.08-.24.11-.5.11-.76 0-.25-.03-.46-.1-.64a1.23 1.23 0 0 0-.76-.75c-.18-.07-.38-.1-.6-.1-.21 0-.4.03-.58.09a1.55 1.55 0 0 0-1.02 1.07c-.08.22-.18.36-.3.43-.13.07-.31.09-.55.05l-.91-.16c.07-.49.2-.91.4-1.28a3.06 3.06 0 0 1 1.8-1.47 4.13 4.13 0 0 1 2.53.02 2.65 2.65 0 0 1 1.64 1.5 3.15 3.15 0 0 1 .07 2.22 4.3 4.3 0 0 1-.45.9c-.18.3-.4.58-.64.85l-.78.82-2.28 2.33a5.18 5.18 0 0 1 1.27-.2h2.6z"/>
        <path fill="#748999" fill-rule="nonzero" d="M554.97 37.62c.16 0 .28.04.38.14.1.09.14.2.14.35V39h-5.95v-.5a.88.88 0 0 1 .26-.6l2.63-2.64c.22-.23.42-.44.6-.65.17-.2.31-.4.43-.6.12-.2.2-.4.27-.61.06-.2.09-.42.09-.65 0-.21-.03-.4-.09-.55a1.05 1.05 0 0 0-.65-.64 1.56 1.56 0 0 0-.52-.08c-.18 0-.34.02-.49.07a1.33 1.33 0 0 0-.87.92c-.07.19-.16.3-.27.37-.1.06-.26.07-.46.04l-.78-.14c.06-.41.17-.78.34-1.1a2.63 2.63 0 0 1 1.54-1.25 3.54 3.54 0 0 1 2.17.02 2.27 2.27 0 0 1 1.4 1.28 2.7 2.7 0 0 1 .06 1.9c-.1.27-.22.53-.37.78-.16.25-.35.49-.56.72-.21.23-.43.47-.67.7l-1.95 2a4.44 4.44 0 0 1 1.09-.17h2.23zm7.73-2.96a7.1 7.1 0 0 1-.24 1.97 4.04 4.04 0 0 1-.68 1.39c-.28.36-.62.63-1 .8a3 3 0 0 1-1.27.28c-.45 0-.87-.1-1.26-.27a2.7 2.7 0 0 1-1-.81c-.29-.37-.51-.83-.67-1.39a7.2 7.2 0 0 1-.24-1.97c0-.76.08-1.42.24-1.97.16-.56.38-1.02.67-1.38a2.7 2.7 0 0 1 2.26-1.08 3 3 0 0 1 1.26.27c.4.17.73.44 1.02.8.28.37.5.83.67 1.39.16.55.24 1.21.24 1.97zm-1.53 0c0-.63-.05-1.15-.14-1.56-.09-.41-.21-.74-.37-.98a1.35 1.35 0 0 0-.53-.51 1.4 1.4 0 0 0-1.24 0c-.2.1-.37.26-.52.5-.15.25-.27.58-.36 1a7.5 7.5 0 0 0-.14 1.55c0 .63.04 1.15.14 1.56.09.41.2.74.36.99.15.24.32.41.52.5a1.37 1.37 0 0 0 1.24 0c.2-.09.38-.26.53-.5.16-.25.28-.58.37-.99.1-.41.14-.93.14-1.56zm8.04 3.23V39h-4.8v-1.11h1.76v-5.06c0-.2 0-.4.02-.62l-1.25 1.05a.52.52 0 0 1-.21.1.5.5 0 0 1-.37-.06.35.35 0 0 1-.1-.1l-.47-.64 2.64-2.25h1.22v7.58h1.56zm2.73-4.96c0 .48.12.85.38 1.1.25.26.6.39 1.06.39.24 0 .45-.04.64-.12a1.31 1.31 0 0 0 .77-.78c.06-.18.1-.37.1-.58 0-.24-.04-.45-.11-.63a1.3 1.3 0 0 0-.78-.77 1.7 1.7 0 0 0-1.2.01 1.35 1.35 0 0 0-.76.78c-.07.18-.1.38-.1.6zm1.97 2.7a8.44 8.44 0 0 0 .36-.48c-.2.13-.42.22-.66.29a2.84 2.84 0 0 1-1.63-.06 2.2 2.2 0 0 1-1.31-1.25c-.14-.3-.21-.67-.21-1.09a2.77 2.77 0 0 1 1.76-2.59c.36-.15.76-.22 1.2-.22.45 0 .84.07 1.2.2a2.56 2.56 0 0 1 1.48 1.5c.14.35.2.74.2 1.16a4.04 4.04 0 0 1-.57 2.1c-.12.22-.25.43-.4.64l-1.99 2.83a.78.78 0 0 1-.3.24c-.14.07-.3.1-.46.1h-1.37l2.7-3.37z"/>
      </g>
      <path fill="#FFF" d="M38 49h90v3H38z"/>
    </g>
    <text fill="#3E5667" font-family="Lato-Medium, Lato" font-size="15" font-weight="400">
      <tspan x="0" y="244">The Scrollable Tab Set Component.</tspan>
    </text>
  </g>
</svg>