<svg width="726" height="193" xmlns="http://www.w3.org/2000/svg"><g fill="none" fill-rule="evenodd"><path stroke="#B8C7D2" fill="#FFF" d="M.5.5h725v157H.5z"/><path fill="#E2E9EE" d="M158 97h115v1H158z"/><path d="M202.045 68.96a5.56 5.56 0 0 1-.364 2.048 4.621 4.621 0 0 1-1.025 1.592 4.6 4.6 0 0 1-1.59 1.033c-.618.245-1.305.367-2.061.367h-3.808V63.92h3.808c.756 0 1.443.122 2.062.367a4.6 4.6 0 0 1 1.589 1.033c.44.443.782.974 1.025 1.592.243.619.364 1.301.364 2.048zm-1.673 0c0-.579-.078-1.099-.234-1.561a3.232 3.232 0 0 0-.672-1.169 2.929 2.929 0 0 0-1.061-.732 3.66 3.66 0 0 0-1.4-.255h-2.163v7.434h2.163c.518 0 .985-.084 1.4-.252a2.873 2.873 0 0 0 1.06-.731c.292-.32.516-.71.673-1.17.156-.46.234-.98.234-1.564zm7.875.665c0-.252-.036-.486-.108-.704a1.647 1.647 0 0 0-.319-.567 1.452 1.452 0 0 0-.521-.377 1.773 1.773 0 0 0-.718-.137c-.546 0-.975.156-1.288.469-.313.313-.511.751-.595 1.316h3.549zm-3.591.924c.019.406.082.757.189 1.053.107.297.25.543.43.739.18.196.395.342.644.438.25.095.529.143.837.143.294 0 .548-.034.763-.101.215-.068.401-.143.56-.224.159-.082.294-.157.406-.224a.606.606 0 0 1 .308-.102c.121 0 .215.047.28.14l.427.553c-.177.21-.378.387-.602.532a3.508 3.508 0 0 1-.714.354 4.034 4.034 0 0 1-.777.195c-.266.04-.525.06-.777.06-.495 0-.953-.083-1.376-.249a3.059 3.059 0 0 1-1.098-.731 3.377 3.377 0 0 1-.728-1.197c-.176-.476-.263-1.024-.263-1.645 0-.495.078-.957.235-1.386a3.155 3.155 0 0 1 1.736-1.873c.417-.184.89-.276 1.417-.276.439 0 .845.071 1.218.213.373.143.695.352.966.627.27.275.482.612.634 1.012.151.399.227.852.227 1.361 0 .233-.026.39-.077.469-.051.08-.145.119-.28.119h-4.585zM211.481 74v-5.943l-.7-.098a.623.623 0 0 1-.283-.126.32.32 0 0 1-.109-.259v-.616h1.092v-.602c0-.406.06-.77.178-1.092a2.26 2.26 0 0 1 .511-.819c.222-.224.492-.395.809-.515a3.033 3.033 0 0 1 1.071-.178 2.695 2.695 0 0 1 .896.14l-.028.756c-.01.126-.071.2-.186.224a2.206 2.206 0 0 1-.43.035c-.21 0-.399.024-.567.073a1.007 1.007 0 0 0-.43.249c-.12.117-.21.27-.274.462-.063.191-.094.43-.094.714v.553h1.953v1.085h-1.904V74h-1.505zm8.295-3.122a9.52 9.52 0 0 0-1.358.13 3.855 3.855 0 0 0-.896.258c-.229.106-.393.23-.493.375a.817.817 0 0 0-.151.476c0 .168.027.311.08.43a.784.784 0 0 0 .225.294.911.911 0 0 0 .336.168c.128.036.269.053.423.053.392 0 .73-.073 1.011-.22.283-.148.557-.361.823-.641v-1.323zm-3.99-3.024c.807-.751 1.769-1.127 2.884-1.127.41 0 .776.066 1.096.2.32.133.587.32.805.563.217.243.382.53.497.865.114.333.171.703.171 1.109V74h-.672a.655.655 0 0 1-.329-.066c-.075-.045-.138-.135-.189-.27l-.147-.581c-.182.163-.362.31-.539.437a3.4 3.4 0 0 1-.55.326 2.701 2.701 0 0 1-.608.2 3.591 3.591 0 0 1-.718.066c-.29 0-.559-.04-.808-.119-.25-.08-.466-.2-.648-.36a1.705 1.705 0 0 1-.43-.599 2.068 2.068 0 0 1-.158-.84c0-.275.073-.544.22-.805.148-.261.39-.496.729-.704.338-.207.783-.379 1.337-.514.553-.135 1.235-.212 2.047-.231v-.476c0-.513-.11-.896-.329-1.148-.22-.252-.541-.378-.966-.378-.29 0-.532.036-.728.108-.196.073-.366.151-.511.235a9.607 9.607 0 0 0-.385.234.647.647 0 0 1-.357.109.428.428 0 0 1-.262-.08.666.666 0 0 1-.179-.2l-.273-.49zm13.23-.994V74h-.91c-.2 0-.329-.096-.385-.287l-.112-.665c-.15.159-.307.303-.473.434-.165.13-.341.243-.528.336a2.81 2.81 0 0 1-1.281.294c-.392 0-.737-.065-1.036-.196a2.057 2.057 0 0 1-.752-.553 2.382 2.382 0 0 1-.459-.857 3.736 3.736 0 0 1-.154-1.103V66.86h1.505v4.543c0 .48.11.854.332 1.12.222.266.56.399 1.012.399.331 0 .64-.076.927-.228.288-.151.557-.36.809-.626V66.86h1.505zm3.367-3.22V74h-1.505V63.64h1.505zm4.151 10.472c-.593 0-1.049-.167-1.368-.5-.32-.334-.48-.804-.48-1.411v-4.158h-.784a.317.317 0 0 1-.217-.08c-.06-.054-.091-.135-.091-.242v-.609l1.155-.168.329-2.065a.398.398 0 0 1 .119-.193.328.328 0 0 1 .224-.073h.77v2.345h1.981v1.085h-1.981v4.053c0 .257.063.453.189.588a.656.656 0 0 0 .504.203.888.888 0 0 0 .301-.046c.084-.03.156-.062.217-.098.06-.035.113-.067.157-.098a.23.23 0 0 1 .13-.045c.084 0 .152.047.203.14l.448.735a2.442 2.442 0 0 1-.826.472 2.98 2.98 0 0 1-.98.165zM355.541 63.92V74h-1.638v-4.487h-5.061V74h-1.645V63.92h1.645v4.41h5.061v-4.41h1.638zm5.208 2.828c.527 0 1.004.086 1.431.259a3.07 3.07 0 0 1 1.093.735c.3.317.533.702.696 1.155.163.453.245.961.245 1.526 0 .565-.082 1.073-.245 1.526a3.299 3.299 0 0 1-.696 1.159c-.302.32-.665.565-1.093.738a3.787 3.787 0 0 1-1.431.259 3.807 3.807 0 0 1-1.439-.259 3.081 3.081 0 0 1-1.095-.739 3.272 3.272 0 0 1-.7-1.158 4.474 4.474 0 0 1-.245-1.526c0-.565.082-1.073.245-1.526.163-.453.397-.838.7-1.155a3.104 3.104 0 0 1 1.096-.735 3.807 3.807 0 0 1 1.438-.259zm0 6.181c.644 0 1.123-.216 1.439-.648.315-.431.472-1.048.472-1.851 0-.803-.157-1.422-.473-1.859-.315-.436-.794-.654-1.438-.654-.653 0-1.139.218-1.456.654-.317.437-.476 1.056-.476 1.859 0 .803.159 1.42.476 1.851.317.432.803.648 1.456.648zm11.193-6.069l-2.87 7.14h-1.358l-2.87-7.14h1.239c.117 0 .213.03.29.087a.4.4 0 0 1 .151.207l1.582 4.158c.065.196.124.39.175.581.051.191.096.385.133.581.037-.196.083-.388.137-.577.053-.19.113-.384.178-.585l1.61-4.158a.427.427 0 0 1 .154-.21.442.442 0 0 1 .273-.084h1.176zm5.712 2.765c0-.252-.036-.486-.108-.704a1.647 1.647 0 0 0-.319-.567 1.452 1.452 0 0 0-.522-.377 1.773 1.773 0 0 0-.717-.137c-.546 0-.975.156-1.288.469-.313.313-.511.751-.595 1.316h3.549zm-3.591.924c.019.406.082.757.189 1.053.107.297.25.543.43.739.18.196.395.342.644.438.25.095.529.143.837.143.294 0 .548-.034.763-.101.215-.068.401-.143.56-.224.159-.082.294-.157.406-.224a.606.606 0 0 1 .308-.102c.121 0 .215.047.28.14l.427.553c-.177.21-.378.387-.602.532a3.508 3.508 0 0 1-.714.354 4.034 4.034 0 0 1-.777.195c-.266.04-.525.06-.777.06-.495 0-.953-.083-1.375-.249a3.059 3.059 0 0 1-1.1-.731 3.377 3.377 0 0 1-.727-1.197c-.176-.476-.263-1.024-.263-1.645 0-.495.078-.957.235-1.386a3.155 3.155 0 0 1 1.736-1.873c.417-.184.89-.276 1.417-.276.439 0 .845.071 1.218.213.373.143.695.352.966.627.27.275.482.612.633 1.012.152.399.228.852.228 1.361 0 .233-.026.39-.077.469-.051.08-.145.119-.28.119h-4.585zm7.763-2.366c.224-.453.495-.808.812-1.067a1.747 1.747 0 0 1 1.141-.389c.154 0 .299.017.434.053.135.035.257.087.364.157l-.105 1.134c-.019.08-.048.134-.088.165a.253.253 0 0 1-.157.045c-.07 0-.17-.013-.301-.038a2.14 2.14 0 0 0-.413-.039c-.21 0-.395.03-.557.091-.16.06-.305.15-.434.266a1.79 1.79 0 0 0-.339.427c-.098.168-.189.36-.273.574V74h-1.505v-7.14h.875c.159 0 .268.03.329.088.06.058.103.16.126.304l.091.931z" fill="#748999" fill-rule="nonzero"/><path fill="#2A77C7" d="M312 93h107v4H312zM459 93h109v4H459z"/><path d="M499.475 70.178l-1.232-3.367a7.369 7.369 0 0 1-.189-.532 17.33 17.33 0 0 1-.196-.665c-.06.238-.124.46-.189.668a8.267 8.267 0 0 1-.189.543l-1.225 3.353h3.22zM502.8 74h-1.456a.622.622 0 0 1-.399-.123.763.763 0 0 1-.231-.304l-.756-2.065h-4.193l-.756 2.065a.671.671 0 0 1-.217.294.606.606 0 0 1-.399.133h-1.47l3.983-10.122h1.918L502.8 74zm5.922-5.663a.862.862 0 0 1-.15.154.348.348 0 0 1-.214.056.475.475 0 0 1-.259-.08 8.332 8.332 0 0 0-.301-.183 1.914 1.914 0 0 0-1.015-.263c-.303.001-.57.056-.798.165-.229.11-.419.268-.57.473a2.13 2.13 0 0 0-.34.745 4.003 4.003 0 0 0-.112.991c0 .383.04.723.123 1.022.081.299.199.55.353.752.154.204.34.357.56.462.22.106.467.158.742.158.275 0 .498-.034.668-.102a2.11 2.11 0 0 0 .431-.224c.117-.081.218-.156.305-.224a.459.459 0 0 1 .29-.101c.14 0 .245.054.315.161l.497.63a3.126 3.126 0 0 1-.623.563 3.368 3.368 0 0 1-1.439.557 5.223 5.223 0 0 1-.759.056c-.443 0-.861-.083-1.253-.249a2.96 2.96 0 0 1-1.029-.724 3.46 3.46 0 0 1-.697-1.166c-.17-.46-.255-.983-.255-1.571 0-.527.076-1.016.228-1.467.151-.45.374-.84.668-1.169a3.065 3.065 0 0 1 1.092-.773c.434-.187.933-.28 1.498-.28.537 0 1.007.086 1.41.259.404.173.767.42 1.089.742l-.455.63zM517.57 74h-1.729v-5.887h-3.332v3.892c0 .224.055.399.164.525.11.126.26.189.452.189a.814.814 0 0 0 .27-.038c.072-.026.135-.053.188-.081.054-.028.102-.055.144-.08a.24.24 0 0 1 .126-.039c.051 0 .093.013.126.039a.584.584 0 0 1 .105.115l.518.84c-.252.21-.541.369-.868.476a3.23 3.23 0 0 1-1.015.161c-.625 0-1.105-.176-1.439-.528-.333-.353-.5-.84-.5-1.46v-4.011h-.735a.337.337 0 0 1-.238-.091c-.065-.06-.098-.152-.098-.273v-.686l1.155-.196.364-1.953a.384.384 0 0 1 .133-.217.396.396 0 0 1 .252-.077h.896v2.261h5.061V74zm.301-9.303c0 .15-.03.29-.091.424a1.143 1.143 0 0 1-1.036.669c-.15-.001-.29-.03-.42-.088a1.122 1.122 0 0 1-.578-.581 1.043 1.043 0 0 1-.087-.424c0-.154.03-.297.087-.43.059-.134.137-.25.235-.35.098-.1.212-.18.343-.238.13-.059.27-.088.42-.088.154 0 .3.03.437.088.138.058.257.137.357.238.1.1.181.216.242.35.06.133.091.276.091.43zm7.938 2.121L522.96 74h-1.568l-2.849-7.182h1.428c.13 0 .24.03.325.091.087.06.144.138.172.231l1.386 3.836a10.32 10.32 0 0 1 .343 1.302c.047-.215.098-.43.154-.644.056-.215.124-.434.203-.658l1.414-3.836a.473.473 0 0 1 .175-.231.5.5 0 0 1 .301-.091h1.365zm5.544 2.765a2.08 2.08 0 0 0-.094-.633 1.506 1.506 0 0 0-.284-.522 1.318 1.318 0 0 0-.48-.354 1.646 1.646 0 0 0-.675-.129c-.5 0-.892.142-1.18.427-.287.285-.47.688-.549 1.211h3.262zm-3.297 1.043c.028.369.093.687.196.956.103.268.238.49.406.665.168.175.367.305.598.391.232.087.487.13.767.13s.521-.033.724-.098c.204-.065.38-.138.532-.217.152-.08.285-.152.4-.217a.67.67 0 0 1 .332-.098c.145 0 .252.054.322.161l.497.63a2.882 2.882 0 0 1-.644.563 3.612 3.612 0 0 1-.746.365 4.075 4.075 0 0 1-.79.192 5.664 5.664 0 0 1-.781.056c-.5 0-.964-.083-1.393-.248a3.118 3.118 0 0 1-1.12-.735 3.448 3.448 0 0 1-.749-1.204c-.182-.479-.273-1.033-.273-1.663 0-.49.08-.95.238-1.382.159-.432.386-.808.682-1.127.297-.32.658-.573 1.085-.76.428-.187.91-.28 1.446-.28.453 0 .87.072 1.253.217.383.145.712.356.987.634.275.277.491.618.647 1.022.157.403.235.864.235 1.382 0 .261-.028.437-.084.529-.056.09-.163.136-.322.136h-4.445z" fill="#3E5667" fill-rule="nonzero"/><text font-family="Lato-Medium, Lato" font-size="15" font-weight="400" fill="#3E5667"><tspan x="0" y="187">The Tab Set component States</tspan></text></g></svg>