<?xml version="1.0" encoding="UTF-8"?>
<svg width="16px" height="16px" viewBox="0 0 16 16" version="1.1" xmlns="http://www.w3.org/2000/svg" xmlns:xlink="http://www.w3.org/1999/xlink">
    <title>Icons/Content/archive</title>
    <defs>
        <path d="M13.6933334,3.48666664 L12.7666667,2.36666663 C12.5866667,2.13999996 12.3133334,1.99999996 12,1.99999996 L3.99999996,1.99999996 C3.68666664,1.99999996 3.4133333,2.13999996 3.22666664,2.36666663 L2.30666663,3.48666664 C2.1133333,3.71333331 1.99999996,4.01333331 1.99999996,4.33333331 L1.99999996,12.6666667 C1.99999996,13.4 2.59999997,14 3.3333333,14 L12.6666667,14 C13.4,14 14,13.4 14,12.6666667 L14,4.33333331 C14,4.01333331 13.8866667,3.71333331 13.6933334,3.48666664 Z M8,11.6666667 L4.33333331,8 L6.66666666,8 L6.66666666,6.66666666 L9.33333331,6.66666666 L9.33333331,8 L11.6666667,8 L8,11.6666667 Z M3.4133333,3.3333333 L3.95333331,2.66666663 L11.9533334,2.66666663 L12.58,3.3333333 L3.4133333,3.3333333 Z" id="path-1"></path>
    </defs>
    <g id="Icons/Content/archive" stroke="none" stroke-width="1" fill="none" fill-rule="evenodd">
        <mask id="mask-2" fill="white">
            <use xlink:href="#path-1"></use>
        </mask>
        <use id="Icons/Content/ic_archive_24px" fill="#233745" fill-rule="nonzero" xlink:href="#path-1"></use>
    </g>
</svg>