<?xml version="1.0" encoding="UTF-8"?>
<svg width="16px" height="16px" viewBox="0 0 16 16" version="1.1" xmlns="http://www.w3.org/2000/svg" xmlns:xlink="http://www.w3.org/1999/xlink">
    <title>Icons/Content/backspace</title>
    <defs>
        <path d="M14.6666667,1.99999996 L4.66666665,1.99999996 C4.20666664,1.99999996 3.84666664,2.2333333 3.60666664,2.58666663 L-5.00000006e-08,7.99999996 L3.60666664,13.4066667 C3.84666664,13.76 4.20666664,14 4.66666665,14 L14.6666667,14 C15.4,14 15.9999999,13.4 15.9999999,12.6666667 L15.9999999,3.3333333 C15.9999999,2.59999997 15.4,1.99999996 14.6666667,1.99999996 Z M12.6666667,10.3933333 L11.7266667,11.3333334 L9.33333334,8.94000001 L6.93999999,11.3333334 L5.99999999,10.3933333 L8.39333334,8 L5.99999999,5.60666665 L6.93999999,4.66666665 L9.33333334,7.05999999 L11.7266667,4.66666665 L12.6666667,5.60666665 L10.2733333,8 L12.6666667,10.3933333 Z" id="path-1"></path>
    </defs>
    <g id="Icons/Content/backspace" stroke="none" stroke-width="1" fill="none" fill-rule="evenodd">
        <mask id="mask-2" fill="white">
            <use xlink:href="#path-1"></use>
        </mask>
        <use id="Icons/Content/ic_backspace_24px" fill="#233745" fill-rule="nonzero" xlink:href="#path-1"></use>
    </g>
</svg>