<?xml version="1.0" encoding="UTF-8"?>
<svg width="16px" height="16px" viewBox="0 0 16 16" version="1.1" xmlns="http://www.w3.org/2000/svg" xmlns:xlink="http://www.w3.org/1999/xlink">
    <title>Icons/Content/content-paste</title>
    <g id="Icons/Content/content-paste" stroke="none" stroke-width="1" fill="none" fill-rule="evenodd">
        <rect id="Spacer" fill-opacity="0" fill="#D8D8D8" x="0" y="0" width="16" height="16"></rect>
        <path d="M12.6666667,1.33333329 L9.88000001,1.33333329 C9.60000001,0.559999953 8.86666667,-5.00000006e-08 7.99999996,-5.00000006e-08 C7.13333333,-5.00000006e-08 6.39999999,0.559999953 6.11999999,1.33333329 L3.3333333,1.33333329 C2.59999997,1.33333329 1.99999996,1.9333333 1.99999996,2.66666663 L1.99999996,13.3333334 C1.99999996,14.0666667 2.59999997,14.6666667 3.3333333,14.6666667 L12.6666667,14.6666667 C13.4,14.6666667 14,14.0666667 14,13.3333334 L14,2.66666663 C14,1.9333333 13.4,1.33333329 12.6666667,1.33333329 Z M8,1.33333329 C8.36666667,1.33333329 8.66666667,1.63333329 8.66666667,1.99999996 C8.66666667,2.36666663 8.36666667,2.66666663 8,2.66666663 C7.63333333,2.66666663 7.33333333,2.36666663 7.33333333,1.99999996 C7.33333333,1.63333329 7.63333333,1.33333329 8,1.33333329 Z M12.6666667,13.3333334 L3.3333333,13.3333334 L3.3333333,2.66666663 L4.66666665,2.66666663 L4.66666665,4.66666663 L11.3333333,4.66666663 L11.3333333,2.66666663 L12.6666667,2.66666663 L12.6666667,13.3333334 Z" id="Icons/Content/ic_content_paste_24px" fill="#233745" fill-rule="nonzero"></path>
    </g>
</svg>