<?xml version="1.0" encoding="UTF-8"?>
<svg width="16px" height="16px" viewBox="0 0 16 16" version="1.1" xmlns="http://www.w3.org/2000/svg" xmlns:xlink="http://www.w3.org/1999/xlink">
    <title>Icons/Content/content-cut</title>
    <g id="Icons/Content/content-cut" stroke="none" stroke-width="1" fill="none" fill-rule="evenodd">
        <rect id="Spacer" fill-opacity="0" fill="#D8D8D8" x="0" y="0" width="16" height="16"></rect>
        <path d="M6.42666666,5.09333332 C6.57999999,4.75999998 6.66666666,4.39333331 6.66666666,3.99999998 C6.66666666,2.52666663 5.47333332,1.33333329 3.99999998,1.33333329 C2.52666663,1.33333329 1.33333329,2.52666663 1.33333329,3.99999998 C1.33333329,5.47333332 2.52666663,6.66666666 3.99999998,6.66666666 C4.39333331,6.66666666 4.75999998,6.57999999 5.09333332,6.42666666 L6.66666666,8 L5.09333332,9.57333334 C4.75999998,9.42000001 4.39333331,9.33333329 3.99999998,9.33333329 C2.52666663,9.33333329 1.33333329,10.5266667 1.33333329,12 C1.33333329,13.4733334 2.52666663,14.6666667 3.99999998,14.6666667 C5.47333332,14.6666667 6.66666666,13.4733334 6.66666666,12 C6.66666666,11.6066667 6.57999999,11.24 6.42666666,10.9066667 L8,9.33333329 L12.6666667,14 L14.6666667,14 L14.6666667,13.3333333 L6.42666666,5.09333332 Z M3.99999997,5.33333332 C3.26666664,5.33333332 2.66666663,4.73999998 2.66666663,3.99999997 C2.66666663,3.25999997 3.26666664,2.66666663 3.99999997,2.66666663 C4.73333331,2.66666663 5.33333332,3.25999997 5.33333332,3.99999997 C5.33333332,4.73999998 4.73333331,5.33333332 3.99999997,5.33333332 Z M3.99999997,13.3333334 C3.26666664,13.3333334 2.66666663,12.74 2.66666663,12 C2.66666663,11.26 3.26666664,10.6666667 3.99999997,10.6666667 C4.73333331,10.6666667 5.33333332,11.26 5.33333332,12 C5.33333332,12.74 4.73333331,13.3333334 3.99999997,13.3333334 Z M8,8.33333334 C7.81333333,8.33333334 7.66666666,8.18666667 7.66666666,8 C7.66666666,7.81333333 7.81333333,7.66666666 8,7.66666666 C8.18666667,7.66666666 8.33333334,7.81333333 8.33333334,8 C8.33333334,8.18666667 8.18666667,8.33333334 8,8.33333334 Z M12.6666667,1.99999996 L8.66666667,5.99999996 L10,7.33333333 L14.6666667,2.66666663 L14.6666667,1.99999996 L12.6666667,1.99999996 Z" id="Icons/Content/ic_content_cut_24px" fill="#233745" fill-rule="nonzero"></path>
    </g>
</svg>