<?xml version="1.0" encoding="UTF-8"?>
<svg width="16px" height="16px" viewBox="0 0 16 16" version="1.1" xmlns="http://www.w3.org/2000/svg" xmlns:xlink="http://www.w3.org/1999/xlink">
    <title>Icons/Content/content-copy</title>
    <defs>
        <path d="M10.6666667,0.666666621 L2.66666663,0.666666621 C1.9333333,0.666666621 1.33333329,1.26666662 1.33333329,1.99999996 L1.33333329,11.3333334 L2.66666663,11.3333334 L2.66666663,1.99999996 L10.6666667,1.99999996 L10.6666667,0.666666621 Z M12.6666667,3.3333333 L5.33333332,3.3333333 C4.59999998,3.3333333 3.99999998,3.93333331 3.99999998,4.66666665 L3.99999998,14 C3.99999998,14.7333334 4.59999998,15.3333333 5.33333332,15.3333333 L12.6666667,15.3333333 C13.4,15.3333333 14,14.7333334 14,14 L14,4.66666665 C14,3.93333331 13.4,3.3333333 12.6666667,3.3333333 Z M12.6666667,14 L5.33333332,14 L5.33333332,4.66666665 L12.6666667,4.66666665 L12.6666667,14 Z" id="path-1"></path>
    </defs>
    <g id="Icons/Content/content-copy" stroke="none" stroke-width="1" fill="none" fill-rule="evenodd">
        <mask id="mask-2" fill="white">
            <use xlink:href="#path-1"></use>
        </mask>
        <use id="Icons/Content/ic_content_copy_24px" fill="#233745" fill-rule="nonzero" xlink:href="#path-1"></use>
    </g>
</svg>