<?xml version="1.0" encoding="UTF-8"?>
<svg width="16px" height="16px" viewBox="0 0 16 16" version="1.1" xmlns="http://www.w3.org/2000/svg" xmlns:xlink="http://www.w3.org/1999/xlink">
    <title>Icons/Content/font-download</title>
    <defs>
        <path d="M6.61999999,9.00000001 L9.38000001,9.00000001 L8,5.31999998 L6.61999999,9.00000001 Z M13.3333333,1.33333329 L2.66666663,1.33333329 C1.9333333,1.33333329 1.33333329,1.9333333 1.33333329,2.66666663 L1.33333329,13.3333333 C1.33333329,14.0666667 1.9333333,14.6666667 2.66666663,14.6666667 L13.3333333,14.6666667 C14.0666667,14.6666667 14.6666667,14.0666667 14.6666667,13.3333333 L14.6666667,2.66666663 C14.6666667,1.9333333 14.0666667,1.33333329 13.3333333,1.33333329 Z M10.6333333,12.3333334 L9.87333335,10.3333333 L6.11333332,10.3333333 L5.36666665,12.3333334 L3.97333331,12.3333334 L7.38,3.66666664 L8.62,3.66666664 L12.0266667,12.3333334 L10.6333333,12.3333334 Z" id="path-1"></path>
    </defs>
    <g id="Icons/Content/font-download" stroke="none" stroke-width="1" fill="none" fill-rule="evenodd">
        <mask id="mask-2" fill="white">
            <use xlink:href="#path-1"></use>
        </mask>
        <use id="Icons/Content/ic_font_download_24px" fill="#233745" fill-rule="nonzero" xlink:href="#path-1"></use>
    </g>
</svg>