<?xml version="1.0" encoding="UTF-8"?>
<svg width="16px" height="16px" viewBox="0 0 16 16" version="1.1" xmlns="http://www.w3.org/2000/svg" xmlns:xlink="http://www.w3.org/1999/xlink">
    <title>Icons/Content/gesture</title>
    <defs>
        <path d="M3.05999997,4.59333331 C3.52666664,4.11999998 3.99333331,3.69333331 4.19999998,3.77999997 C4.53333331,3.91333331 4.19999998,4.46666664 3.99999997,4.79333331 C3.83333331,5.07333332 2.0933333,7.38666666 2.0933333,8.99999996 C2.0933333,9.85333334 2.4133333,10.56 2.98666664,10.9866667 C3.48666664,11.36 4.14666664,11.4733334 4.74666665,11.2933334 C5.45999998,11.0866667 6.04666665,10.36 6.78666666,9.44666668 C7.59333333,8.45333334 8.67333334,7.15333333 9.50666668,7.15333333 C10.5933333,7.15333333 10.6066667,7.82666667 10.68,8.34666667 C8.16,8.77333334 7.09333333,10.7933334 7.09333333,11.9266667 C7.09333333,13.06 8.05333333,13.9866667 9.23333334,13.9866667 C10.32,13.9866667 12.0933334,13.1 12.36,9.92000001 L14,9.92000001 L14,8.25333333 L12.3533334,8.25333333 C12.2533334,7.15333333 11.6266667,5.45333332 9.66666668,5.45333332 C8.16666667,5.45333332 6.87999999,6.72666666 6.37333332,7.34666666 C5.98666665,7.83333333 4.99999998,8.99999996 4.84666665,9.16000001 C4.67999998,9.36000001 4.3933333,9.72000001 4.10666664,9.72000001 C3.80666664,9.72000001 3.62666664,9.16666667 3.86666664,8.44 C4.09999998,7.71333333 4.79999998,6.53333332 5.09999998,6.09333332 C5.61999999,5.33333332 5.96666665,4.81333331 5.96666665,3.90666664 C5.96666665,2.45999997 4.87333331,1.99999996 4.29333331,1.99999996 C3.4133333,1.99999996 2.64666663,2.66666663 2.47999997,2.8333333 C2.23999996,3.0733333 2.03999996,3.2733333 1.8933333,3.4533333 L3.05999997,4.59333331 Z M9.25333334,12.3666667 C9.04666667,12.3666667 8.76,12.1933334 8.76,11.8866667 C8.76,11.4866667 9.24666667,10.42 10.6733334,10.0466667 C10.4733333,11.84 9.72000001,12.3666667 9.25333334,12.3666667 Z" id="path-1"></path>
    </defs>
    <g id="Icons/Content/gesture" stroke="none" stroke-width="1" fill="none" fill-rule="evenodd">
        <mask id="mask-2" fill="white">
            <use xlink:href="#path-1"></use>
        </mask>
        <use id="Icons/Content/ic_gesture_24px" fill="#233745" fill-rule="nonzero" xlink:href="#path-1"></use>
    </g>
</svg>