<svg xmlns="http://www.w3.org/2000/svg" xmlns:xlink="http://www.w3.org/1999/xlink" width="16" height="16" viewBox="0 0 16 16">
  <defs>
    <path id="inbox-a" d="M12.6666667,1.99999996 L3.32666664,1.99999996 C2.58666663,1.99999996 2.00666663,2.5933333 2.00666663,3.3333333 L1.99999996,12.6666667 C1.99999996,13.4 2.58666663,14 3.32666664,14 L12.6666667,14 C13.4,14 14,13.4 14,12.6666667 L14,3.3333333 C14,2.5933333 13.4,1.99999996 12.6666667,1.99999996 Z M12.6666667,10 L10,10 C10,11.1066667 9.10000001,12 8,12 C6.89999999,12 5.99999999,11.1066667 5.99999999,10 L3.32666664,10 L3.32666664,3.3333333 L12.6666667,3.3333333 L12.6666667,10 Z"/>
  </defs>
  <g fill="none" fill-rule="evenodd">
    <mask id="inbox-b" fill="#fff">
      <use xlink:href="#inbox-a"/>
    </mask>
    <g fill="CurrentColor" mask="url(#inbox-b)">
      <rect width="16" height="16"/>
    </g>
  </g>
</svg>
