<svg xmlns="http://www.w3.org/2000/svg" xmlns:xlink="http://www.w3.org/1999/xlink" width="16" height="16" viewBox="0 0 16 16">
  <defs>
    <path id="link-a" d="M2.59999997,8 C2.59999997,6.85999999 3.52666664,5.93333332 4.66666665,5.93333332 L7.33333329,5.93333332 L7.33333329,4.66666665 L4.66666665,4.66666665 C2.82666663,4.66666665 1.33333329,6.15999999 1.33333329,8 C1.33333329,9.84000001 2.82666663,11.3333334 4.66666665,11.3333334 L7.33333329,11.3333334 L7.33333329,10.0666667 L4.66666665,10.0666667 C3.52666664,10.0666667 2.59999997,9.14000001 2.59999997,8 Z M5.33333332,8.66666667 L10.6666667,8.66666667 L10.6666667,7.33333333 L5.33333332,7.33333333 L5.33333332,8.66666667 Z M11.3333334,4.66666665 L8.66666667,4.66666665 L8.66666667,5.93333332 L11.3333334,5.93333332 C12.4733334,5.93333332 13.4,6.85999999 13.4,8 C13.4,9.14000001 12.4733334,10.0666667 11.3333334,10.0666667 L8.66666667,10.0666667 L8.66666667,11.3333334 L11.3333334,11.3333334 C13.1733334,11.3333334 14.6666667,9.84000001 14.6666667,8 C14.6666667,6.15999999 13.1733334,4.66666665 11.3333334,4.66666665 Z"/>
  </defs>
  <g fill="none" fill-rule="evenodd">
    <mask id="link-b" fill="#fff">
      <use xlink:href="#link-a"/>
    </mask>
    <g fill="CurrentColor" mask="url(#link-b)">
      <rect width="16" height="16"/>
    </g>
  </g>
</svg>
