<?xml version="1.0" encoding="UTF-8"?>
<svg width="16px" height="16px" viewBox="0 0 16 16" version="1.1" xmlns="http://www.w3.org/2000/svg" xmlns:xlink="http://www.w3.org/1999/xlink">
    <title>Icons/Content/low-priority</title>
    <g id="Icons/Content/low-priority" stroke="none" stroke-width="1" fill="none" fill-rule="evenodd">
        <rect id="Spacer" fill-opacity="0" fill="#D8D8D8" x="0" y="0" width="16" height="16"></rect>
        <path d="M9.33333334,3.3333333 L14.6666667,3.3333333 L14.6666667,4.66666665 L9.33333334,4.66666665 L9.33333334,3.3333333 Z M9.33333334,6.99999999 L14.6666667,6.99999999 L14.6666667,8.33333334 L9.33333334,8.33333334 L9.33333334,6.99999999 Z M9.33333334,10.6666667 L14.6666667,10.6666667 L14.6666667,12 L9.33333334,12 L9.33333334,10.6666667 Z M1.33333329,7.66666666 C1.33333329,10.0533333 3.27999997,12 5.66666665,12 L5.99999999,12 L5.99999999,13.3333333 L8,11.3333333 L5.99999999,9.3333333 L5.99999999,10.6666667 L5.66666665,10.6666667 C4.01333331,10.6666667 2.66666663,9.32000001 2.66666663,7.66666666 C2.66666663,6.01333332 4.01333331,4.66666665 5.66666665,4.66666665 L8,4.66666665 L8,3.3333333 L5.66666665,3.3333333 C3.27999997,3.3333333 1.33333329,5.27999998 1.33333329,7.66666666 Z" id="Icons/Content/ic_low_priority_24px" fill="#233745" fill-rule="nonzero"></path>
    </g>
</svg>