<svg xmlns="http://www.w3.org/2000/svg" xmlns:xlink="http://www.w3.org/1999/xlink" width="16" height="16" viewBox="0 0 16 16">
  <defs>
    <path id="next-week-a" d="M13.3333333,4.66666665 L10.6666667,4.66666665 L10.6666667,3.3333333 C10.6666667,2.96666664 10.52,2.6333333 10.2733333,2.3933333 C10.0333333,2.14666663 9.70000001,1.99999996 9.33333329,1.99999996 L6.66666666,1.99999996 C5.93333332,1.99999996 5.33333329,2.59999997 5.33333329,3.3333333 L5.33333329,4.66666665 L2.66666663,4.66666665 C1.9333333,4.66666665 1.33333329,5.26666665 1.33333329,5.99999996 L1.33333329,13.3333334 C1.33333329,14.0666667 1.9333333,14.6666667 2.66666663,14.6666667 L13.3333333,14.6666667 C14.0666667,14.6666667 14.6666667,14.0666667 14.6666667,13.3333334 L14.6666667,5.99999996 C14.6666667,5.26666665 14.0666667,4.66666665 13.3333333,4.66666665 Z M6.66666666,3.3333333 L9.33333334,3.3333333 L9.33333334,4.66666665 L6.66666666,4.66666665 L6.66666666,3.3333333 Z M7.33333333,12.3333334 L6.66666666,11.6666667 L8.66666666,9.66666668 L6.66666666,7.66666666 L7.33333333,6.99999999 L10,9.66666668 L7.33333333,12.3333334 Z"/>
  </defs>
  <g fill="none" fill-rule="evenodd">
    <mask id="next-week-b" fill="#fff">
      <use xlink:href="#next-week-a"/>
    </mask>
    <g fill="CurrentColor" mask="url(#next-week-b)">
      <rect width="16" height="16"/>
    </g>
  </g>
</svg>
