<svg xmlns="http://www.w3.org/2000/svg" xmlns:xlink="http://www.w3.org/1999/xlink" width="16" height="16" viewBox="0 0 16 16">
  <defs>
    <path id="save-a" d="M11.3333334,1.99999996 L3.3333333,1.99999996 C2.5933333,1.99999996 1.99999996,2.59999997 1.99999996,3.3333333 L1.99999996,12.6666667 C1.99999996,13.4 2.5933333,14 3.3333333,14 L12.6666667,14 C13.4,14 14,13.4 14,12.6666667 L14,4.66666665 L11.3333334,1.99999996 Z M7.99999999,12.6666667 C6.89333333,12.6666667 5.99999999,11.7733334 5.99999999,10.6666667 C5.99999999,9.56000001 6.89333333,8.66666667 7.99999999,8.66666667 C9.10666667,8.66666667 9.99999999,9.56000001 9.99999999,10.6666667 C9.99999999,11.7733334 9.10666667,12.6666667 7.99999999,12.6666667 Z M10,5.99999999 L3.3333333,5.99999999 L3.3333333,3.3333333 L10,3.3333333 L10,5.99999999 Z"/>
  </defs>
  <g fill="none" fill-rule="evenodd">
    <mask id="save-b" fill="#fff">
      <use xlink:href="#save-a"/>
    </mask>
    <g fill="CurrentColor" mask="url(#save-b)">
      <rect width="16" height="16"/>
    </g>
  </g>
</svg>
