<?xml version="1.0" encoding="UTF-8"?>
<svg width="16px" height="16px" viewBox="0 0 16 16" version="1.1" xmlns="http://www.w3.org/2000/svg" xmlns:xlink="http://www.w3.org/1999/xlink">
    <title>Icons/Content/select-all</title>
    <g id="Icons/Content/select-all" stroke="none" stroke-width="1" fill="none" fill-rule="evenodd">
        <rect id="Spacer" fill-opacity="0" fill="#D8D8D8" x="0" y="0" width="16" height="16"></rect>
        <path d="M1.99999996,3.3333333 L3.3333333,3.3333333 L3.3333333,1.99999996 C2.59999997,1.99999996 1.99999996,2.59999997 1.99999996,3.3333333 Z M1.99999996,8.66666667 L3.3333333,8.66666667 L3.3333333,7.33333333 L1.99999996,7.33333333 L1.99999996,8.66666667 Z M4.66666665,14 L5.99999999,14 L5.99999999,12.6666667 L4.66666665,12.6666667 L4.66666665,14 Z M1.99999996,5.99999999 L3.3333333,5.99999999 L3.3333333,4.66666665 L1.99999996,4.66666665 L1.99999996,5.99999999 Z M8.66666667,1.99999996 L7.33333333,1.99999996 L7.33333333,3.3333333 L8.66666667,3.3333333 L8.66666667,1.99999996 Z M12.6666667,1.99999996 L12.6666667,3.3333333 L14,3.3333333 C14,2.59999997 13.4,1.99999996 12.6666667,1.99999996 Z M3.3333333,14 L3.3333333,12.6666667 L1.99999996,12.6666667 C1.99999996,13.4 2.59999997,14 3.3333333,14 Z M1.99999996,11.3333334 L3.3333333,11.3333334 L3.3333333,10 L1.99999996,10 L1.99999996,11.3333334 Z M5.99999999,1.99999996 L4.66666665,1.99999996 L4.66666665,3.3333333 L5.99999999,3.3333333 L5.99999999,1.99999996 Z M7.33333333,14 L8.66666667,14 L8.66666667,12.6666667 L7.33333333,12.6666667 L7.33333333,14 Z M12.6666667,8.66666667 L14,8.66666667 L14,7.33333333 L12.6666667,7.33333333 L12.6666667,8.66666667 Z M12.6666667,14 C13.4,14 14,13.4 14,12.6666667 L12.6666667,12.6666667 L12.6666667,14 Z M12.6666667,5.99999999 L14,5.99999999 L14,4.66666665 L12.6666667,4.66666665 L12.6666667,5.99999999 Z M12.6666667,11.3333334 L14,11.3333334 L14,10 L12.6666667,10 L12.6666667,11.3333334 Z M10,14 L11.3333334,14 L11.3333334,12.6666667 L10,12.6666667 L10,14 Z M10,3.3333333 L11.3333334,3.3333333 L11.3333334,1.99999996 L10,1.99999996 L10,3.3333333 Z M4.66666665,11.3333334 L11.3333334,11.3333334 L11.3333334,4.66666665 L4.66666665,4.66666665 L4.66666665,11.3333334 Z M5.99999999,5.99999999 L9.99999999,5.99999999 L9.99999999,9.99999999 L5.99999999,9.99999999 L5.99999999,5.99999999 Z" id="Icons/Content/ic_select_all_24px" fill="#233745" fill-rule="nonzero"></path>
    </g>
</svg>