<?xml version="1.0" encoding="UTF-8"?>
<svg width="153px" height="36px" viewBox="0 0 153 36" version="1.1" xmlns="http://www.w3.org/2000/svg" xmlns:xlink="http://www.w3.org/1999/xlink">
  <g stroke="none" stroke-width="1" fill="none" fill-rule="evenodd">
    <g transform="translate(-544.000000, -2353.000000)" fill="#E7F6FF" fill-rule="nonzero">
      <g transform="translate(494.000000, 2324.000000)">
        <g transform="translate(36.000000, 29.000000)">
          <path d="M24.4420973,22.8461538 L30.7416069,22.8461538 L30.7416069,29.9265734 C30.7416069,30.3610632 30.3890586,30.7132867 29.9541682,30.7132867 L25.229536,30.7132867 C24.7946456,30.7132867 24.4420973,30.3610632 24.4420973,29.9265734 L24.4420973,22.8461538 Z M30.7416069,6.32517483 L30.7416069,13.4055944 L24.4420973,13.4055944 L24.4420973,11.8321678 L6.33100717,11.8321678 C5.89611678,11.8321678 5.54356846,11.4799443 5.54356846,11.0454545 L5.54356846,6.32517483 C5.54356846,5.89068507 5.89611678,5.53846154 6.33100717,5.53846154 L29.9541682,5.53846154 C30.3890586,5.53846154 30.7416069,5.89068507 30.7416069,6.32517483 Z" transform="translate(18.142588, 18.125874) rotate(45.000000) translate(-18.142588, -18.125874) "></path>
          <path d="M19.6942851,5.53846154 L24.4189173,5.53846154 C24.8538077,5.53846154 25.206356,5.89068507 25.206356,6.32517483 L25.206356,13.4055944 L18.9068464,13.4055944 L18.9068464,6.32517483 C18.9068464,5.89068507 19.2593947,5.53846154 19.6942851,5.53846154 Z M25.206356,24.4195804 L43.3174461,24.4195804 C43.7523365,24.4195804 44.1048849,24.771804 44.1048849,25.2062937 L44.1048849,29.9265734 C44.1048849,30.3610632 43.7523365,30.7132867 43.3174461,30.7132867 L19.6942851,30.7132867 C19.2593947,30.7132867 18.9068464,30.3610632 18.9068464,29.9265734 L18.9068464,22.8461538 L25.206356,22.8461538 L25.206356,24.4195804 Z" transform="translate(31.505866, 18.125874) rotate(45.000000) translate(-31.505866, -18.125874) "></path>
          <path d="M66.6573718,7.04729024 L66.6573718,29.5529988 L63.8888302,29.5529988 C63.4798391,29.5529988 63.1363966,29.4886385 62.8584923,29.3599162 C62.5805881,29.2311938 62.3053097,29.0072202 62.0326489,28.6879887 L51.2258986,15.2648859 C51.2678464,15.6664998 51.2966851,16.0552355 51.3124155,16.4311049 C51.3281459,16.8069742 51.336011,17.1596683 51.336011,17.4891976 L51.336011,29.5529988 L46.6483668,29.5529988 L46.6483668,7.04729024 L49.448369,7.04729024 C49.679082,7.04729024 49.8730877,7.05758787 50.030392,7.07818345 C50.1876963,7.09877904 50.329268,7.13739517 50.4551114,7.19403302 C50.5809549,7.25067087 50.701553,7.33047754 50.8169095,7.43345545 C50.932266,7.53643335 51.0633509,7.67545144 51.2101682,7.85051388 L62.1113007,21.3662963 C62.0588659,20.9337891 62.0221622,20.5141604 62.0011882,20.1073977 C61.9802143,19.700635 61.9697275,19.317048 61.9697275,18.9566254 L61.9697275,7.04729024 L66.6573718,7.04729024 Z M75.4157571,11.0634084 L75.4157571,16.3152553 L82.6202573,16.3152553 L82.6202573,20.1769074 L75.4157571,20.1769074 L75.4157571,25.5368806 L84.8225063,25.5368806 L84.8225063,29.5529988 L70.0674381,29.5529988 L70.0674381,7.04729024 L84.8225063,7.04729024 L84.8225063,11.0634084 L75.4157571,11.0634084 Z M101.905666,25.3824145 L101.905666,29.5529988 L88.0944191,29.5529988 L88.0944191,7.04729024 L93.4112773,7.04729024 L93.4112773,25.3824145 L101.905666,25.3824145 Z M117.616182,11.6194863 C117.458878,11.8666333 117.293711,12.0519908 117.120676,12.1755642 C116.947642,12.2991377 116.724797,12.3609235 116.452136,12.3609235 C116.210936,12.3609235 115.951388,12.2862657 115.673484,12.1369477 C115.39558,11.9876298 115.080976,11.8202932 114.729663,11.634933 C114.37835,11.4495727 113.97723,11.2822361 113.526291,11.1329182 C113.075352,10.9836002 112.561499,10.9089424 111.984717,10.9089424 C110.988457,10.9089424 110.246516,11.1174695 109.758872,11.53453 C109.271229,11.9515905 109.027411,12.5153861 109.027411,13.2259336 C109.027411,13.6790364 109.174226,14.0549001 109.467861,14.353536 C109.761496,14.652172 110.146885,14.9096129 110.624042,15.1258665 C111.101198,15.3421201 111.646511,15.5403496 112.259998,15.7205609 C112.873485,15.9007722 113.500071,16.1015761 114.139775,16.3229786 C114.779479,16.5443811 115.406065,16.8043964 116.019552,17.1030323 C116.633038,17.4016683 117.178352,17.7826808 117.655508,18.2460814 C118.132664,18.7094819 118.518054,19.2732775 118.811689,19.937485 C119.105323,20.6016925 119.252139,21.4023337 119.252139,22.3394326 C119.252139,23.3795095 119.06862,24.3526361 118.701576,25.2588416 C118.334533,26.1650472 117.802328,26.9553907 117.104946,27.629896 C116.407564,28.3044013 115.547646,28.8347295 114.525168,29.2208967 C113.502691,29.6070638 112.341278,29.8001445 111.040896,29.8001445 C110.327783,29.8001445 109.601573,29.7280611 108.862243,29.583892 C108.122912,29.4397229 107.407189,29.2363446 106.71505,28.9737509 C106.022911,28.7111573 105.37273,28.3996538 104.764486,28.0392311 C104.156243,27.6788085 103.62666,27.2772007 103.175721,26.8343957 L104.748756,24.3938315 C104.874599,24.2187691 105.039766,24.0720278 105.244262,23.9536032 C105.448758,23.8351786 105.671602,23.7759672 105.912802,23.7759672 C106.22741,23.7759672 106.544636,23.8737947 106.864488,24.0694528 C107.18434,24.2651108 107.546135,24.4813611 107.949882,24.7182103 C108.35363,24.9550595 108.817671,25.1713099 109.342018,25.3669679 C109.866366,25.5626259 110.485087,25.6604534 111.198199,25.6604534 C112.162999,25.6604534 112.912805,25.4519263 113.44764,25.0348658 C113.982474,24.6178053 114.249887,23.9561822 114.249887,23.0499766 C114.249887,22.5247893 114.103072,22.0974374 113.809438,21.7679081 C113.515803,21.4383788 113.130413,21.1654915 112.653257,20.9492379 C112.176101,20.7329843 111.633409,20.542478 111.025166,20.3777133 C110.416922,20.2129487 109.792958,20.0301657 109.153254,19.8293587 C108.51355,19.6285518 107.889586,19.3814086 107.281342,19.0879215 C106.673099,18.7944345 106.130407,18.4082732 105.653251,17.9294259 C105.176095,17.4505786 104.790705,16.8533158 104.49707,16.1376193 C104.203436,15.4219229 104.056621,14.5389006 104.056621,13.488526 C104.056621,12.6441071 104.229653,11.8202963 104.575722,11.0170686 C104.921792,10.213841 105.430401,9.49815525 106.101566,8.86999004 C106.772731,8.24182482 107.595944,7.73981506 108.571231,7.36394571 C109.546518,6.98807636 110.663361,6.8001445 111.921796,6.8001445 C112.624421,6.8001445 113.308685,6.85420709 113.974606,6.96233389 C114.640528,7.07046069 115.272357,7.23007405 115.870113,7.44117875 C116.46787,7.65228346 117.026292,7.90457554 117.545396,8.19806257 C118.0645,8.4915496 118.52854,8.82364836 118.937532,9.19436881 L117.616182,11.6194863 Z M144.534914,18.2924212 C144.534914,19.9194721 144.249149,21.4332246 143.67761,22.8337241 C143.106071,24.2342236 142.30121,25.451919 141.263002,26.486847 C140.224793,27.5217749 138.974243,28.3327138 137.511313,28.9196878 C136.048383,29.5066619 134.425552,29.8001445 132.64277,29.8001445 C130.859988,29.8001445 129.234535,29.5066619 127.766361,28.9196878 C126.298188,28.3327138 125.042394,27.5217749 123.998943,26.486847 C122.955491,25.451919 122.148008,24.2342236 121.576469,22.8337241 C121.00493,21.4332246 120.719165,19.9194721 120.719165,18.2924212 C120.719165,16.6653703 121.00493,15.1516178 121.576469,13.7511183 C122.148008,12.3506188 122.955491,11.1354978 123.998943,10.1057187 C125.042394,9.07593967 126.298188,8.26757524 127.766361,7.68060118 C129.234535,7.09362713 130.859988,6.8001445 132.64277,6.8001445 C134.425552,6.8001445 136.048383,7.09620154 137.511313,7.68832449 C138.974243,8.28044744 140.224793,9.09138628 141.263002,10.1211653 C142.30121,11.1509444 143.106071,12.3660654 143.67761,13.7665649 C144.249149,15.1670644 144.534914,16.6756681 144.534914,18.2924212 Z M139.092213,18.2924212 C139.092213,17.1802598 138.945398,16.1788147 138.651764,15.2880559 C138.358129,14.397297 137.936035,13.6429951 137.38547,13.0251277 C136.834905,12.4072603 136.161129,11.933569 135.36412,11.6040397 C134.567112,11.2745104 133.660004,11.1097483 132.64277,11.1097483 C131.615049,11.1097483 130.700076,11.2745104 129.897824,11.6040397 C129.095572,11.933569 128.419174,12.4072603 127.868609,13.0251277 C127.318044,13.6429951 126.89595,14.397297 126.602316,15.2880559 C126.308681,16.1788147 126.161866,17.1802598 126.161866,18.2924212 C126.161866,19.4148804 126.308681,20.4214743 126.602316,21.3122332 C126.89595,22.202992 127.318044,22.9572939 127.868609,23.5751613 C128.419174,24.1930287 129.095572,24.6641456 129.897824,24.988526 C130.700076,25.3129064 131.615049,25.4750941 132.64277,25.4750941 C133.660004,25.4750941 134.567112,25.3129064 135.36412,24.988526 C136.161129,24.6641456 136.834905,24.1930287 137.38547,23.5751613 C137.936035,22.9572939 138.358129,22.202992 138.651764,21.3122332 C138.945398,20.4214743 139.092213,19.4148804 139.092213,18.2924212 Z M166.648367,7.04729024 L166.648367,29.5529988 L163.879825,29.5529988 C163.470834,29.5529988 163.127391,29.4886385 162.849487,29.3599162 C162.571583,29.2311938 162.296305,29.0072202 162.023644,28.6879887 L151.216894,15.2648859 C151.258841,15.6664998 151.28768,16.0552355 151.30341,16.4311049 C151.319141,16.8069742 151.327006,17.1596683 151.327006,17.4891976 L151.327006,29.5529988 L146.639362,29.5529988 L146.639362,7.04729024 L149.439364,7.04729024 C149.670077,7.04729024 149.864083,7.05758787 150.021387,7.07818345 C150.178691,7.09877904 150.320263,7.13739517 150.446106,7.19403302 C150.57195,7.25067087 150.692548,7.33047754 150.807904,7.43345545 C150.923261,7.53643335 151.054346,7.67545144 151.201163,7.85051388 L162.102296,21.3662963 C162.049861,20.9337891 162.013157,20.5141604 161.992183,20.1073977 C161.971209,19.700635 161.960722,19.317048 161.960722,18.9566254 L161.960722,7.04729024 L166.648367,7.04729024 Z"></path>
        </g>
      </g>
    </g>
  </g>
</svg>
