<svg viewBox="0 0 726 480" viewBox="0 0 726 480" version="1.1" xmlns="http://www.w3.org/2000/svg" xmlns:xlink="http://www.w3.org/1999/xlink">
    <defs>
        <path d="M5.11575959,285.380436 C5.03901699,285.365261 4.96643717,285.332192 4.9041705,285.283354 L0.515338079,281.841012 C0.0807766895,281.500168 0.00480398646,280.871578 0.345648297,280.437016 C0.395194925,280.373846 0.452168323,280.316873 0.515338079,280.267326 L4.9041705,276.824985 C4.96831165,276.774677 5.04090692,276.742529 5.11575959,276.727795 L5.11575959,3 C5.11575959,1.34314575 6.45890534,3.04359188e-16 8.11575959,0 L330.554168,0 C332.211022,-3.12075852e-14 333.554168,1.34314575 333.554168,3 L333.554168,298 C333.554168,299.656854 332.211022,301 330.554168,301 L8.11575959,301 C6.45890534,301 5.11575959,299.656854 5.11575959,298 L5.11575959,285.380436 Z" id="path-1"></path>
        <filter x="-3.3%" y="-3.0%" width="106.6%" height="107.3%" filterUnits="objectBoundingBox" id="filter-2">
            <feMorphology radius="1" operator="dilate" in="SourceAlpha" result="shadowSpreadOuter1"></feMorphology>
            <feOffset dx="0" dy="2" in="shadowSpreadOuter1" result="shadowOffsetOuter1"></feOffset>
            <feGaussianBlur stdDeviation="3" in="shadowOffsetOuter1" result="shadowBlurOuter1"></feGaussianBlur>
            <feComposite in="shadowBlurOuter1" in2="SourceAlpha" operator="out" result="shadowBlurOuter1"></feComposite>
            <feColorMatrix values="0 0 0 0 0   0 0 0 0 0   0 0 0 0 0  0 0 0 0.0790264423 0" type="matrix" in="shadowBlurOuter1"></feColorMatrix>
        </filter>
    </defs>
    <g id="Docs-Images" stroke="none" stroke-width="1" fill="none" fill-rule="evenodd">
        <g id="Notification" transform="translate(-199.000000, -678.000000)">
            <g id="Group-3" transform="translate(199.000000, 678.000000)">
                <g id="Group-33">
                    <rect id="Rectangle" stroke="#B8C7D2" fill="#FFFFFF" x="0.5" y="0.5" width="725" height="449"></rect>
                    <g id="Notifications/Badge/Light" transform="translate(97.000000, 314.000000)">
                        <g>
                            <rect id="BG" fill="#FFFFFF" x="0" y="0" width="60" height="60"></rect>
                            <g id="Badge" transform="translate(22.000000, 19.000000)">
                                <path d="M5.33269,19.6707112 L10.6663317,19.6707112 C10.6663317,21.143463 9.47226264,22.337532 7.99951084,22.337532 C6.52675903,22.337532 5.33269,21.143463 5.33269,19.6707112 Z M8.10628367,1.00296539 C7.55808532,0.973016992 7.02028756,1.1709451 6.62183119,1.54986367 C6.22337483,1.9274855 5.99809514,2.45354925 5.99939521,3.00308101 L5.99939521,4.00313883 C4.8274608,4.41722943 3.8143689,5.18550718 3.09689409,6.19986582 C2.38071935,7.21555787 1.99656381,8.42786128 1.99916396,9.67006642 L1.99916396,11.3368294 C1.99916396,12.3967907 1.57857298,13.4137828 0.828529623,14.1638262 L0.552473665,14.4398822 C-0.0100588547,15.0037148 -0.158500769,15.8592309 0.17875206,16.5806392 C0.510801256,17.2590785 1.20484471,17.6835697 1.9587883,17.6705356 L14.1131576,17.6705356 C15.1548845,17.6705356 16,16.8254201 16,15.7836932 L16,15.700355 C16,15.2510957 15.8385307,14.8149038 15.5468405,14.4737175 L14.9634734,13.8070122 C14.3384373,13.0791035 13.9972842,12.1493497 13.9998844,11.1896609 L13.9998844,9.67003976 C14.0024879,8.42776794 13.6183623,7.21546453 12.9021543,6.19983915 C12.1846794,5.18544717 11.1715875,4.41716943 9.99965313,4.00311216 L9.99965313,3.11632756 C10.0230911,2.02383107 9.19490661,1.09927762 8.10631034,1.00293872 L8.10628367,1.00296539 Z" id="Bell" fill="#233745"></path>
                                <circle id="Notification" stroke="#FFFFFF" stroke-width="2" fill="#85C6F2" cx="16" cy="4" r="5"></circle>
                            </g>
                        </g>
                    </g>
                    <rect id="Rectangle" fill="#3E5667" x="63" y="265" width="19.2" height="18.4" rx="9.2"></rect>
                    <text id="2" font-family="Lato-Heavy, Lato" font-size="9.6" font-weight="600" fill="#FFFFFF">
                        <tspan x="69.816" y="277.2">2</tspan>
                    </text>
                    <text id="Trigger" font-family="Lato-Semibold, Lato" font-size="14" font-weight="500" fill="#233745">
                        <tspan x="88" y="279">Trigger</tspan>
                    </text>
                    <rect id="Rectangle" fill="#B8C7D2" x="127" y="284" width="1" height="34"></rect>
                    <g id="Notifications/Sheet" transform="translate(156.000000, 61.000000)">
                        <g>
                            <g id="Notification-BG">
                                <use fill="black" fill-opacity="1" filter="url(#filter-2)" xlink:href="#path-1"></use>
                                <path stroke="#12202B" stroke-width="1" d="M4.61575959,285.692183 C4.60897823,285.687136 4.60225572,285.682 4.59559389,285.676775 L0.20676147,282.234434 C-0.445080614,281.723167 -0.559039668,280.780282 -0.0477732027,280.12844 C0.02654674,280.033685 0.112006837,279.948225 0.20676147,279.873905 L4.59559389,276.431564 C4.60226025,276.426335 4.60898272,276.421198 4.61575959,276.416152 L4.61575959,3 C4.61575959,1.06700338 6.18276296,-0.5 8.11575959,-0.5 L330.554168,-0.5 C332.487165,-0.5 334.054168,1.06700338 334.054168,3 L334.054168,298 C334.054168,299.932997 332.487165,301.5 330.554168,301.5 L8.11575959,301.5 C6.18276296,301.5 4.61575959,299.932997 4.61575959,298 L4.61575959,285.692183 Z" fill="#12202B" fill-rule="evenodd"></path>
                            </g>
                            <g id="Notification-Link" transform="translate(175.554168, 272.000000)" fill="#B8C7D2">
                                <polygon id="Fill-1" transform="translate(139.656250, 10.047619) rotate(180.000000) translate(-139.656250, -10.047619) " points="141.047619 14.0952381 137 10.047619 141.047619 6 142.3125 7.26488095 139.529762 10.047619 142.3125 12.8303571"></polygon>
                                <text id="View-all-notificatio" font-family="Lato-Medium, Lato" font-size="14" font-weight="400">
                                    <tspan x="0" y="14">View all notifications</tspan>
                                </text>
                            </g>
                            <g id="Notification-Item" transform="translate(20.554168, 16.000000)">
                                <text id="Thomas-Stephens-adde" font-family="Lato-Bold, Lato" font-size="14" font-weight="bold" line-spacing="17">
                                    <tspan x="42" y="14" fill="#F8FAFC">Thomas Stephens</tspan>
                                    <tspan x="152.46" y="14" fill="#748999"> </tspan>
                                    <tspan x="155.862" y="14" font-family="Lato-Medium, Lato" font-weight="400" fill="#B8C7D2">added a new </tspan>
                                    <tspan x="42" y="31" font-family="Lato-Medium, Lato" font-weight="400" fill="#B8C7D2">comment to your</tspan>
                                    <tspan x="148.407" y="31" font-family="Lato-Medium, Lato" font-weight="400" fill="#748999"> </tspan>
                                    <tspan x="151.942" y="31" fill="#F8FAFC">review</tspan>
                                    <tspan x="194.299" y="31" font-family="Lato-Medium, Lato" font-weight="400" fill="#748999">    Just now</tspan>
                                </text>
                                <text id="Description" font-family="Lato-Medium, Lato" font-size="14" font-weight="400" line-spacing="16" fill="#748999">
                                    <tspan x="42" y="54">Praesent commodo cursus magna, vel…</tspan>
                                </text>
                                <g id="Notification" transform="translate(0.000000, 1.000000)">
                                    <g id="Avatar/Dark" transform="translate(0.000000, 1.000000)">
                                        <g>
                                            <circle id="BG" fill="#3E5667" cx="15" cy="15" r="15"></circle>
                                            <text id="Label" font-family="Lato-Bold, Lato" font-size="12" font-weight="bold" fill="#FFFFFF">
                                                <tspan x="8.109" y="20">TS</tspan>
                                            </text>
                                        </g>
                                    </g>
                                    <circle id="Notification-Badge" stroke="#12202B" stroke-width="2" fill="#85C6F2" cx="27.5" cy="4.5" r="4.5"></circle>
                                </g>
                                <circle id="Divider" fill="#3E5667" cx="202" cy="27" r="2"></circle>
                                <rect id="Divider" fill="#1C2D39" x="1" y="70" width="296" height="1"></rect>
                            </g>
                            <g id="Notification-Item" transform="translate(20.554168, 103.000000)">
                                <text id="Thomas-Stephens-adde" font-family="Lato-Bold, Lato" font-size="14" font-weight="bold" line-spacing="17">
                                    <tspan x="42" y="14" fill="#F8FAFC">Thomas Stephens</tspan>
                                    <tspan x="152.46" y="14" fill="#748999"> </tspan>
                                    <tspan x="155.862" y="14" font-family="Lato-Medium, Lato" font-weight="400" fill="#B8C7D2">added a new </tspan>
                                    <tspan x="42" y="31" font-family="Lato-Medium, Lato" font-weight="400" fill="#B8C7D2">comment to your</tspan>
                                    <tspan x="148.407" y="31" font-family="Lato-Medium, Lato" font-weight="400" fill="#748999"> </tspan>
                                    <tspan x="151.942" y="31" fill="#F8FAFC">review</tspan>
                                    <tspan x="194.299" y="31" font-family="Lato-Medium, Lato" font-weight="400" fill="#748999">    Just now</tspan>
                                </text>
                                <text id="Description" font-family="Lato-Medium, Lato" font-size="14" font-weight="400" line-spacing="16" fill="#748999">
                                    <tspan x="42" y="54">Praesent commodo cursus magna, vel…</tspan>
                                </text>
                                <g id="Notification" transform="translate(0.000000, 1.000000)">
                                    <g id="Avatar/Dark" transform="translate(0.000000, 1.000000)">
                                        <g>
                                            <circle id="BG" fill="#3E5667" cx="15" cy="15" r="15"></circle>
                                            <text id="Label" font-family="Lato-Bold, Lato" font-size="12" font-weight="bold" fill="#FFFFFF">
                                                <tspan x="8.109" y="20">TS</tspan>
                                            </text>
                                        </g>
                                    </g>
                                    <circle id="Notification-Badge" stroke="#12202B" stroke-width="2" fill="#85C6F2" cx="27.5" cy="4.5" r="4.5"></circle>
                                </g>
                                <circle id="Divider" fill="#3E5667" cx="202" cy="27" r="2"></circle>
                                <rect id="Divider" fill="#1C2D39" x="1" y="70" width="296" height="1"></rect>
                            </g>
                            <g id="Notification-Item" transform="translate(20.554168, 190.000000)">
                                <text id="Thomas-Stephens-adde" font-family="Lato-Bold, Lato" font-size="14" font-weight="bold" line-spacing="17">
                                    <tspan x="42" y="14" fill="#F8FAFC">Thomas Stephens</tspan>
                                    <tspan x="152.46" y="14" fill="#748999"> </tspan>
                                    <tspan x="155.862" y="14" font-family="Lato-Medium, Lato" font-weight="400" fill="#B8C7D2">added a new </tspan>
                                    <tspan x="42" y="31" font-family="Lato-Medium, Lato" font-weight="400" fill="#B8C7D2">comment to your</tspan>
                                    <tspan x="148.407" y="31" font-family="Lato-Medium, Lato" font-weight="400" fill="#748999"> </tspan>
                                    <tspan x="151.942" y="31" fill="#F8FAFC">review</tspan>
                                    <tspan x="194.299" y="31" font-family="Lato-Medium, Lato" font-weight="400" fill="#748999">    Just now</tspan>
                                </text>
                                <text id="Description" font-family="Lato-Medium, Lato" font-size="14" font-weight="400" line-spacing="16" fill="#748999">
                                    <tspan x="42" y="54">Praesent commodo cursus magna, vel…</tspan>
                                </text>
                                <g id="Notification" transform="translate(0.000000, 1.000000)">
                                    <g id="Avatar/Dark" transform="translate(0.000000, 1.000000)">
                                        <g>
                                            <circle id="BG" fill="#3E5667" cx="15" cy="15" r="15"></circle>
                                            <text id="Label" font-family="Lato-Bold, Lato" font-size="12" font-weight="bold" fill="#FFFFFF">
                                                <tspan x="8.109" y="20">TS</tspan>
                                            </text>
                                        </g>
                                    </g>
                                    <circle id="Notification-Badge" stroke="#12202B" stroke-width="2" fill="#85C6F2" cx="27.5" cy="4.5" r="4.5"></circle>
                                </g>
                                <circle id="Divider" fill="#3E5667" cx="202" cy="27" r="2"></circle>
                                <rect id="Divider" fill="#1C2D39" x="1" y="70" width="296" height="1"></rect>
                            </g>
                        </g>
                    </g>
                    <rect id="Rectangle" fill="#B8C7D2" x="491" y="269.5" width="31" height="1"></rect>
                    <rect id="Rectangle" fill="#B8C7D2" x="521" y="100.5" width="1" height="170"></rect>
                    <rect id="Rectangle" fill="#B8C7D2" x="522" y="166.5" width="21" height="1"></rect>
                    <rect id="Rectangle" fill="#B8C7D2" x="490" y="341.5" width="21" height="1"></rect>
                    <circle id="Oval" fill="#3E5667" cx="491" cy="270" r="3"></circle>
                    <rect id="Rectangle" fill="#B8C7D2" x="491" y="99.5" width="31" height="1"></rect>
                    <circle id="Oval" fill="#3E5667" cx="491" cy="100" r="3"></circle>
                    <rect id="Rectangle" fill="#B8C7D2" x="491" y="192.5" width="31" height="1"></rect>
                    <circle id="Oval" fill="#3E5667" cx="491" cy="193" r="3"></circle>
                    <circle id="Oval" fill="#3E5667" cx="490" cy="342" r="3"></circle>
                    <g id="Group-2" transform="translate(508.000000, 157.000000)">
                        <g id="Group-11">
                            <rect id="Rectangle" fill="#3E5667" x="32" y="-2.27373675e-13" width="19.2" height="18.4" rx="9.2"></rect>
                            <text id="3" font-family="Lato-Heavy, Lato" font-size="9.6" font-weight="600" fill="#FFFFFF">
                                <tspan x="38.816" y="12.2">3</tspan>
                            </text>
                            <rect id="Rectangle" fill="#3E5667" x="0" y="175" width="19.2" height="18.4" rx="9.2"></rect>
                            <text id="4" font-family="Lato-Heavy, Lato" font-size="9.6" font-weight="600" fill="#FFFFFF">
                                <tspan x="6.816" y="187.2">4</tspan>
                            </text>
                        </g>
                    </g>
                    <g id="Group-30" transform="translate(50.000000, 59.000000)">
                        <path d="M8.586,11.753 C8.67466711,11.753 8.75166634,11.7879997 8.817,11.858 L9.468,12.565 C9.05733128,13.0596691 8.55333632,13.4411653 7.956,13.7095 C7.35866368,13.9778347 6.64467082,14.112 5.814,14.112 C5.07666298,14.112 4.41050298,13.9848346 3.8155,13.7305 C3.22049703,13.4761654 2.7130021,13.1215023 2.293,12.6665 C1.8729979,12.2114977 1.54983447,11.6690032 1.3235,11.039 C1.09716554,10.4089969 0.984,9.71600378 0.984,8.96 C0.984,8.20399622 1.10416547,7.5098365 1.3445,6.8775 C1.58483454,6.24516351 1.92316449,5.70150228 2.3595,5.2465 C2.79583552,4.79149773 3.31849696,4.43800126 3.9275,4.186 C4.53650305,3.93399874 5.20732967,3.808 5.94,3.808 C6.66800364,3.808 7.31083055,3.92583216 7.8685,4.1615 C8.42616946,4.39716785 8.91033128,4.71099804 9.321,5.103 L8.782,5.866 C8.74466648,5.91733359 8.70033359,5.96166648 8.649,5.999 C8.59766641,6.03633352 8.52766711,6.055 8.439,6.055 C8.3456662,6.055 8.2395006,6.01183377 8.1205,5.9255 C8.00149941,5.83916624 7.84983426,5.74350053 7.6655,5.6385 C7.48116575,5.53349948 7.25016806,5.43783377 6.9725,5.3515 C6.69483195,5.26516624 6.34833541,5.222 5.933,5.222 C5.45233093,5.222 5.01133534,5.30599916 4.61,5.474 C4.20866466,5.64200084 3.86333478,5.88699839 3.574,6.209 C3.28466522,6.53100161 3.05950081,6.92299769 2.8985,7.385 C2.7374992,7.84700231 2.657,8.37199706 2.657,8.96 C2.657,9.55266963 2.74099916,10.0811643 2.909,10.5455 C3.07700084,11.0098357 3.30799853,11.4018317 3.602,11.7215 C3.89600147,12.0411683 4.24133135,12.2849992 4.638,12.453 C5.03466865,12.6210008 5.46166438,12.705 5.919,12.705 C6.1990014,12.705 6.44983223,12.6898335 6.6715,12.6595 C6.89316778,12.6291665 7.0973324,12.580167 7.284,12.5125 C7.4706676,12.444833 7.64683251,12.3596672 7.8125,12.257 C7.9781675,12.1543328 8.14266585,12.0283341 8.306,11.879 C8.3993338,11.7949996 8.4926662,11.753 8.586,11.753 Z M13.696,6.748 C14.223336,6.748 14.7004979,6.83433247 15.1275,7.007 C15.5545021,7.17966753 15.9184985,7.42466508 16.2195,7.742 C16.5205015,8.05933492 16.7526659,8.44433107 16.916,8.897 C17.0793342,9.34966893 17.161,9.85833051 17.161,10.423 C17.161,10.9876695 17.0793342,11.4963311 16.916,11.949 C16.7526659,12.4016689 16.5205015,12.7878317 16.2195,13.1075 C15.9184985,13.4271683 15.5545021,13.6733325 15.1275,13.846 C14.7004979,14.0186675 14.223336,14.105 13.696,14.105 C13.1639973,14.105 12.6845021,14.0186675 12.2575,13.846 C11.8304979,13.6733325 11.4653349,13.4271683 11.162,13.1075 C10.8586652,12.7878317 10.6253342,12.4016689 10.462,11.949 C10.2986659,11.4963311 10.217,10.9876695 10.217,10.423 C10.217,9.85833051 10.2986659,9.34966893 10.462,8.897 C10.6253342,8.44433107 10.8586652,8.05933492 11.162,7.742 C11.4653349,7.42466508 11.8304979,7.17966753 12.2575,7.007 C12.6845021,6.83433247 13.1639973,6.748 13.696,6.748 Z M13.696,12.929 C14.3400032,12.929 14.8194984,12.7131688 15.1345,12.2815 C15.4495016,11.8498312 15.607,11.2326707 15.607,10.43 C15.607,9.62732932 15.4495016,9.00783552 15.1345,8.5715 C14.8194984,8.13516449 14.3400032,7.917 13.696,7.917 C13.0426634,7.917 12.5573349,8.13516449 12.24,8.5715 C11.9226651,9.00783552 11.764,9.62732932 11.764,10.43 C11.764,11.2326707 11.9226651,11.8498312 12.24,12.2815 C12.5573349,12.7131688 13.0426634,12.929 13.696,12.929 Z M20.01,7.805 C20.1640008,7.64633254 20.3238325,7.50283398 20.4895,7.3745 C20.6551675,7.24616603 20.8313324,7.1353338 21.018,7.042 C21.2046676,6.9486662 21.402999,6.87633359 21.613,6.825 C21.8230011,6.77366641 22.0516654,6.748 22.299,6.748 C22.691002,6.748 23.0351652,6.81333268 23.3315,6.944 C23.6278348,7.07466732 23.877499,7.25899881 24.0805,7.497 C24.283501,7.73500119 24.4363328,8.02083167 24.539,8.3545 C24.6416672,8.68816834 24.693,9.05566466 24.693,9.457 L24.693,14 L23.195,14 L23.195,9.457 C23.195,8.97633093 23.0841678,8.60300133 22.8625,8.337 C22.6408322,8.07099867 22.3036689,7.938 21.851,7.938 C21.5149983,7.938 21.2035014,8.01499923 20.9165,8.169 C20.6294986,8.32300077 20.3600013,8.53299867 20.108,8.799 L20.108,14 L18.603,14 L18.603,6.86 L19.513,6.86 C19.7183344,6.86 19.8489997,6.95566571 19.905,7.147 L20.01,7.805 Z M28.746,14.112 C28.1533304,14.112 27.6971683,13.9451683 27.3775,13.6115 C27.0578317,13.2778317 26.898,12.8076697 26.898,12.201 L26.898,8.043 L26.114,8.043 C26.0299996,8.043 25.957667,8.01616694 25.897,7.9625 C25.836333,7.90883307 25.806,7.82833387 25.806,7.721 L25.806,7.112 L26.961,6.944 L27.29,4.879 C27.3133335,4.79966627 27.3529997,4.73550025 27.409,4.6865 C27.4650003,4.63749976 27.5396662,4.613 27.633,4.613 L28.403,4.613 L28.403,6.958 L30.384,6.958 L30.384,8.043 L28.403,8.043 L28.403,12.096 C28.403,12.352668 28.4659994,12.548666 28.592,12.684 C28.7180006,12.819334 28.885999,12.887 29.096,12.887 C29.2126673,12.887 29.3129996,12.8718335 29.397,12.8415 C29.4810004,12.8111665 29.553333,12.7785002 29.614,12.7435 C29.674667,12.7084998 29.7271664,12.6758335 29.7715,12.6455 C29.8158336,12.6151665 29.8589998,12.6 29.901,12.6 C29.9850004,12.6 30.0526664,12.6466662 30.104,12.74 L30.552,13.475 C30.3186655,13.6803344 30.0433349,13.8378328 29.726,13.9475 C29.4086651,14.0571672 29.0820017,14.112 28.746,14.112 Z M35.389,10.878 C34.8523307,10.8966668 34.3996685,10.939833 34.031,11.0075 C33.6623315,11.075167 33.3636678,11.1614995 33.135,11.2665 C32.9063322,11.3715005 32.7418338,11.4963326 32.6415,11.641 C32.5411662,11.7856674 32.491,11.9443325 32.491,12.117 C32.491,12.2850008 32.5178331,12.4284994 32.5715,12.5475 C32.6251669,12.6665006 32.6998329,12.7644996 32.7955,12.8415 C32.8911671,12.9185004 33.003166,12.9744998 33.1315,13.0095 C33.259834,13.0445002 33.4009992,13.062 33.555,13.062 C33.947002,13.062 34.2841653,12.9885007 34.5665,12.8415 C34.8488347,12.6944993 35.1229987,12.4810014 35.389,12.201 L35.389,10.878 Z M31.399,7.854 C32.2063374,7.10266291 33.1676611,6.727 34.283,6.727 C34.6936687,6.727 35.0588317,6.79349934 35.3785,6.9265 C35.6981683,7.05950067 35.9664989,7.24733212 36.1835,7.49 C36.4005011,7.73266788 36.5661661,8.02083167 36.6805,8.3545 C36.7948339,8.68816834 36.852,9.05799797 36.852,9.464 L36.852,14 L36.18,14 C36.0353326,14 35.925667,13.9778336 35.851,13.9335 C35.776333,13.8891664 35.7133336,13.799334 35.662,13.664 L35.515,13.083 C35.3329991,13.2463342 35.1533342,13.392166 34.976,13.5205 C34.7986658,13.648834 34.6155009,13.7573329 34.4265,13.846 C34.2374991,13.9346671 34.0345011,14.0011664 33.8175,14.0455 C33.6004989,14.0898336 33.3613346,14.112 33.1,14.112 C32.8106652,14.112 32.5411679,14.0723337 32.2915,13.993 C32.0418321,13.9136663 31.8260009,13.7935008 31.644,13.6325 C31.4619991,13.4714992 31.3185005,13.2720012 31.2135,13.034 C31.1084995,12.7959988 31.056,12.5160016 31.056,12.194 C31.056,11.9186653 31.1294993,11.6503346 31.2765,11.389 C31.4235007,11.1276654 31.666165,10.8931677 32.0045,10.6855 C32.342835,10.4778323 32.7884972,10.306334 33.3415,10.171 C33.8945028,10.035666 34.5769959,9.95866676 35.389,9.94 L35.389,9.464 C35.389,8.9506641 35.2793344,8.56800126 35.06,8.316 C34.8406656,8.06399874 34.5186688,7.938 34.094,7.938 C33.8046652,7.938 33.562001,7.97416631 33.366,8.0465 C33.169999,8.1188337 32.9996674,8.19699958 32.855,8.281 C32.7103326,8.36500042 32.5820006,8.44316631 32.47,8.5155 C32.3579994,8.5878337 32.2390006,8.624 32.113,8.624 C32.0103328,8.624 31.9228337,8.59716694 31.8505,8.5435 C31.7781663,8.48983307 31.7186669,8.42333373 31.672,8.344 L31.399,7.854 Z M40.177,6.86 L40.177,14 L38.672,14 L38.672,6.86 L40.177,6.86 Z M40.429,4.704 C40.429,4.83933401 40.4021669,4.96766606 40.3485,5.089 C40.2948331,5.21033394 40.2213338,5.31649955 40.128,5.4075 C40.0346662,5.49850046 39.9261673,5.57083307 39.8025,5.6245 C39.6788327,5.67816694 39.5470007,5.705 39.407,5.705 C39.271666,5.705 39.1445006,5.67816694 39.0255,5.6245 C38.9064994,5.57083307 38.8026671,5.49850046 38.714,5.4075 C38.6253329,5.31649955 38.5541669,5.21033394 38.5005,5.089 C38.4468331,4.96766606 38.42,4.83933401 38.42,4.704 C38.42,4.5639993 38.4468331,4.43333394 38.5005,4.312 C38.5541669,4.19066606 38.6253329,4.08450046 38.714,3.9935 C38.8026671,3.90249955 38.9064994,3.83016694 39.0255,3.7765 C39.1445006,3.72283307 39.271666,3.696 39.407,3.696 C39.5470007,3.696 39.6788327,3.72283307 39.8025,3.7765 C39.9261673,3.83016694 40.0346662,3.90249955 40.128,3.9935 C40.2213338,4.08450046 40.2948331,4.19066606 40.3485,4.312 C40.4021669,4.43333394 40.429,4.5639993 40.429,4.704 Z M43.481,7.805 C43.6350008,7.64633254 43.7948325,7.50283398 43.9605,7.3745 C44.1261675,7.24616603 44.3023324,7.1353338 44.489,7.042 C44.6756676,6.9486662 44.873999,6.87633359 45.084,6.825 C45.2940011,6.77366641 45.5226654,6.748 45.77,6.748 C46.162002,6.748 46.5061652,6.81333268 46.8025,6.944 C47.0988348,7.07466732 47.348499,7.25899881 47.5515,7.497 C47.754501,7.73500119 47.9073328,8.02083167 48.01,8.3545 C48.1126672,8.68816834 48.164,9.05566466 48.164,9.457 L48.164,14 L46.666,14 L46.666,9.457 C46.666,8.97633093 46.5551678,8.60300133 46.3335,8.337 C46.1118322,8.07099867 45.7746689,7.938 45.322,7.938 C44.9859983,7.938 44.6745014,8.01499923 44.3875,8.169 C44.1004986,8.32300077 43.8310013,8.53299867 43.579,8.799 L43.579,14 L42.074,14 L42.074,6.86 L42.984,6.86 C43.1893344,6.86 43.3199997,6.95566571 43.376,7.147 L43.481,7.805 Z M54.611,9.625 C54.611,9.37299874 54.5748337,9.13850109 54.5025,8.9215 C54.4301663,8.70449892 54.3240007,8.51550081 54.184,8.3545 C54.0439993,8.1934992 53.8701677,8.06750046 53.6625,7.9765 C53.4548323,7.88549955 53.215668,7.84 52.945,7.84 C52.3989973,7.84 51.9696682,7.99633177 51.657,8.309 C51.3443318,8.62166823 51.1460004,9.06033051 51.062,9.625 L54.611,9.625 Z M51.02,10.549 C51.0386668,10.955002 51.1016661,11.3061652 51.209,11.6025 C51.3163339,11.8988348 51.4598324,12.144999 51.6395,12.341 C51.8191676,12.537001 52.0338321,12.6828329 52.2835,12.7785 C52.5331679,12.8741671 52.8119985,12.922 53.12,12.922 C53.4140015,12.922 53.6683323,12.888167 53.883,12.8205 C54.0976677,12.752833 54.2843325,12.6781671 54.443,12.5965 C54.6016675,12.5148329 54.7369994,12.440167 54.849,12.3725 C54.9610006,12.304833 55.0636662,12.271 55.157,12.271 C55.2783339,12.271 55.3716663,12.3176662 55.437,12.411 L55.864,12.964 C55.6866658,13.1740011 55.4860011,13.3513326 55.262,13.496 C55.0379989,13.6406674 54.8000013,13.7584995 54.548,13.8495 C54.2959987,13.9405005 54.0370013,14.0058331 53.771,14.0455 C53.5049987,14.0851669 53.2460013,14.105 52.994,14.105 C52.4993309,14.105 52.0408354,14.0221675 51.6185,13.8565 C51.1961646,13.6908325 50.8298349,13.4470016 50.5195,13.125 C50.2091651,12.8029984 49.9665009,12.4040024 49.7915,11.928 C49.6164991,11.4519976 49.529,10.9036698 49.529,10.283 C49.529,9.78833086 49.6071659,9.32633548 49.7635,8.897 C49.9198341,8.46766452 50.1438319,8.09433492 50.4355,7.777 C50.7271681,7.45966508 51.0818312,7.20883426 51.4995,7.0245 C51.9171688,6.84016575 52.389664,6.748 52.917,6.748 C53.3556689,6.748 53.7616648,6.81916596 54.135,6.9615 C54.5083352,7.10383405 54.830332,7.31266529 55.101,7.588 C55.371668,7.86333471 55.5828326,8.20049801 55.7345,8.5995 C55.8861674,8.998502 55.962,9.45233079 55.962,9.961 C55.962,10.1943345 55.9363336,10.3506663 55.885,10.43 C55.8336664,10.5093337 55.740334,10.549 55.605,10.549 L51.02,10.549 Z M58.783,8.183 C59.0070011,7.73033107 59.2776651,7.3745013 59.595,7.1155 C59.9123349,6.85649871 60.2926645,6.727 60.736,6.727 C60.8900008,6.727 61.034666,6.74449983 61.17,6.7795 C61.305334,6.81450018 61.4266661,6.86699965 61.534,6.937 L61.429,8.071 C61.4103332,8.15033373 61.3811669,8.20516652 61.3415,8.2355 C61.3018331,8.26583349 61.2493337,8.281 61.184,8.281 C61.1139997,8.281 61.0136673,8.2681668 60.883,8.2425 C60.7523327,8.21683321 60.6146674,8.204 60.47,8.204 C60.259999,8.204 60.0745008,8.23433303 59.9135,8.295 C59.7524992,8.35566697 59.607834,8.44433275 59.4795,8.561 C59.351166,8.67766725 59.2380005,8.81999916 59.14,8.988 C59.0419995,9.15600084 58.9510004,9.34733226 58.867,9.562 L58.867,14 L57.362,14 L57.362,6.86 L58.237,6.86 C58.3956675,6.86 58.505333,6.88916638 58.566,6.9475 C58.626667,7.00583363 58.6686666,7.10733261 58.692,7.252 L58.783,8.183 Z" id="Container" fill="#233745" fill-rule="nonzero"></path>
                        <rect id="Rectangle" fill="#B8C7D2" x="79" y="9" width="31" height="1"></rect>
                        <g id="Group-11" transform="translate(70.000000, 0.000000)">
                            <rect id="Rectangle" fill="#3E5667" x="0" y="-2.27373675e-13" width="19.2" height="18.4" rx="9.2"></rect>
                            <text id="1" font-family="Lato-Heavy, Lato" font-size="9.6" font-weight="600" fill="#FFFFFF">
                                <tspan x="6.816" y="12.2">1</tspan>
                            </text>
                        </g>
                    </g>
                    <circle id="Oval" fill="#3E5667" cx="161" cy="68.5" r="3"></circle>
                </g>
                <text id="Notifications" font-family="Lato-Semibold, Lato" font-size="14" font-weight="500" fill="#233745">
                    <tspan x="565" y="171">Notifications</tspan>
                </text>
                <text id="All-Notifications-Li" font-family="Lato-Semibold, Lato" font-size="14" font-weight="500" fill="#233745">
                    <tspan x="533" y="346">All Notifications Link</tspan>
                </text>
                <circle id="Oval" fill="#3E5667" cx="127.5" cy="319" r="3"></circle>
                <text id="The-Notification-ana" font-family="Lato-Semibold, Lato" font-size="15" font-weight="500" fill="#3E5667">
                    <tspan x="0" y="477">The Notification anatomy.</tspan>
                </text>
            </g>
        </g>
    </g>
</svg>