<svg viewBox="0 0 726 518" viewBox="0 0 726 518" version="1.1" xmlns="http://www.w3.org/2000/svg" xmlns:xlink="http://www.w3.org/1999/xlink">
    <defs>
        <path d="M5.11575959,285.380436 C5.03901699,285.365261 4.96643717,285.332192 4.9041705,285.283354 L0.515338079,281.841012 C0.0807766895,281.500168 0.00480398646,280.871578 0.345648297,280.437016 C0.395194925,280.373846 0.452168323,280.316873 0.515338079,280.267326 L4.9041705,276.824985 C4.96831165,276.774677 5.04090692,276.742529 5.11575959,276.727795 L5.11575959,3 C5.11575959,1.34314575 6.45890534,3.04359188e-16 8.11575959,0 L330.554168,0 C332.211022,-3.12075852e-14 333.554168,1.34314575 333.554168,3 L333.554168,298 C333.554168,299.656854 332.211022,301 330.554168,301 L8.11575959,301 C6.45890534,301 5.11575959,299.656854 5.11575959,298 L5.11575959,285.380436 Z" id="path-1"></path>
        <filter x="-3.3%" y="-3.0%" width="106.6%" height="107.3%" filterUnits="objectBoundingBox" id="filter-2">
            <feMorphology radius="1" operator="dilate" in="SourceAlpha" result="shadowSpreadOuter1"></feMorphology>
            <feOffset dx="0" dy="2" in="shadowSpreadOuter1" result="shadowOffsetOuter1"></feOffset>
            <feGaussianBlur stdDeviation="3" in="shadowOffsetOuter1" result="shadowBlurOuter1"></feGaussianBlur>
            <feComposite in="shadowBlurOuter1" in2="SourceAlpha" operator="out" result="shadowBlurOuter1"></feComposite>
            <feColorMatrix values="0 0 0 0 0   0 0 0 0 0   0 0 0 0 0  0 0 0 0.0790264423 0" type="matrix" in="shadowBlurOuter1"></feColorMatrix>
        </filter>
    </defs>
    <g id="Docs-Images" stroke="none" stroke-width="1" fill="none" fill-rule="evenodd">
        <g id="Notification" transform="translate(-201.000000, -1208.000000)">
            <g id="Group" transform="translate(201.000000, 1208.000000)">
                <g id="Group-33">
                    <rect id="Rectangle" stroke="#B8C7D2" fill="#FFFFFF" x="0.5" y="0.5" width="725" height="484"></rect>
                    <g id="Notifications/Badge/Light" transform="translate(260.000000, 329.000000)">
                        <g>
                            <rect id="BG" fill="#FFFFFF" x="0" y="0" width="60" height="60"></rect>
                            <g id="Badge" transform="translate(22.000000, 19.000000)">
                                <path d="M5.33269,19.6707112 L10.6663317,19.6707112 C10.6663317,21.143463 9.47226264,22.337532 7.99951084,22.337532 C6.52675903,22.337532 5.33269,21.143463 5.33269,19.6707112 Z M8.10628367,1.00296539 C7.55808532,0.973016992 7.02028756,1.1709451 6.62183119,1.54986367 C6.22337483,1.9274855 5.99809514,2.45354925 5.99939521,3.00308101 L5.99939521,4.00313883 C4.8274608,4.41722943 3.8143689,5.18550718 3.09689409,6.19986582 C2.38071935,7.21555787 1.99656381,8.42786128 1.99916396,9.67006642 L1.99916396,11.3368294 C1.99916396,12.3967907 1.57857298,13.4137828 0.828529623,14.1638262 L0.552473665,14.4398822 C-0.0100588547,15.0037148 -0.158500769,15.8592309 0.17875206,16.5806392 C0.510801256,17.2590785 1.20484471,17.6835697 1.9587883,17.6705356 L14.1131576,17.6705356 C15.1548845,17.6705356 16,16.8254201 16,15.7836932 L16,15.700355 C16,15.2510957 15.8385307,14.8149038 15.5468405,14.4737175 L14.9634734,13.8070122 C14.3384373,13.0791035 13.9972842,12.1493497 13.9998844,11.1896609 L13.9998844,9.67003976 C14.0024879,8.42776794 13.6183623,7.21546453 12.9021543,6.19983915 C12.1846794,5.18544717 11.1715875,4.41716943 9.99965313,4.00311216 L9.99965313,3.11632756 C10.0230911,2.02383107 9.19490661,1.09927762 8.10631034,1.00293872 L8.10628367,1.00296539 Z" id="Bell" fill="#233745"></path>
                                <circle id="Notification" stroke="#FFFFFF" stroke-width="2" fill="#85C6F2" cx="16" cy="4" r="5"></circle>
                            </g>
                        </g>
                    </g>
                    <g id="Notifications/Badge/Light" transform="translate(95.000000, 329.000000)">
                        <g>
                            <rect id="BG" fill="#FFFFFF" x="0" y="0" width="60" height="60"></rect>
                            <g id="Badge" transform="translate(22.000000, 19.000000)">
                                <path d="M5.33269,19.6707112 L10.6663317,19.6707112 C10.6663317,21.143463 9.47226264,22.337532 7.99951084,22.337532 C6.52675903,22.337532 5.33269,21.143463 5.33269,19.6707112 Z M8.10628367,1.00296539 C7.55808532,0.973016992 7.02028756,1.1709451 6.62183119,1.54986367 C6.22337483,1.9274855 5.99809514,2.45354925 5.99939521,3.00308101 L5.99939521,4.00313883 C4.8274608,4.41722943 3.8143689,5.18550718 3.09689409,6.19986582 C2.38071935,7.21555787 1.99656381,8.42786128 1.99916396,9.67006642 L1.99916396,11.3368294 C1.99916396,12.3967907 1.57857298,13.4137828 0.828529623,14.1638262 L0.552473665,14.4398822 C-0.0100588547,15.0037148 -0.158500769,15.8592309 0.17875206,16.5806392 C0.510801256,17.2590785 1.20484471,17.6835697 1.9587883,17.6705356 L14.1131576,17.6705356 C15.1548845,17.6705356 16,16.8254201 16,15.7836932 L16,15.700355 C16,15.2510957 15.8385307,14.8149038 15.5468405,14.4737175 L14.9634734,13.8070122 C14.3384373,13.0791035 13.9972842,12.1493497 13.9998844,11.1896609 L13.9998844,9.67003976 C14.0024879,8.42776794 13.6183623,7.21546453 12.9021543,6.19983915 C12.1846794,5.18544717 11.1715875,4.41716943 9.99965313,4.00311216 L9.99965313,3.11632756 C10.0230911,2.02383107 9.19490661,1.09927762 8.10631034,1.00293872 L8.10628367,1.00296539 Z" id="Bell" fill="#233745"></path>
                                <circle id="Notification" stroke="#FFFFFF" stroke-width="2" fill="#85C6F2" cx="16" cy="4" r="5"></circle>
                            </g>
                        </g>
                    </g>
                    <g id="Notifications/Sheet" transform="translate(319.000000, 76.000000)">
                        <g>
                            <g id="Notification-BG">
                                <use fill="black" fill-opacity="1" filter="url(#filter-2)" xlink:href="#path-1"></use>
                                <path stroke="#12202B" stroke-width="1" d="M4.61575959,285.692183 C4.60897823,285.687136 4.60225572,285.682 4.59559389,285.676775 L0.20676147,282.234434 C-0.445080614,281.723167 -0.559039668,280.780282 -0.0477732027,280.12844 C0.02654674,280.033685 0.112006837,279.948225 0.20676147,279.873905 L4.59559389,276.431564 C4.60226025,276.426335 4.60898272,276.421198 4.61575959,276.416152 L4.61575959,3 C4.61575959,1.06700338 6.18276296,-0.5 8.11575959,-0.5 L330.554168,-0.5 C332.487165,-0.5 334.054168,1.06700338 334.054168,3 L334.054168,298 C334.054168,299.932997 332.487165,301.5 330.554168,301.5 L8.11575959,301.5 C6.18276296,301.5 4.61575959,299.932997 4.61575959,298 L4.61575959,285.692183 Z" fill="#12202B" fill-rule="evenodd"></path>
                            </g>
                            <g id="Notification-Link" transform="translate(175.554168, 272.000000)" fill="#B8C7D2">
                                <polygon id="Fill-1" transform="translate(139.656250, 10.047619) rotate(180.000000) translate(-139.656250, -10.047619) " points="141.047619 14.0952381 137 10.047619 141.047619 6 142.3125 7.26488095 139.529762 10.047619 142.3125 12.8303571"></polygon>
                                <text id="View-all-notificatio" font-family="Lato-Medium, Lato" font-size="14" font-weight="400">
                                    <tspan x="0" y="14">View all notifications</tspan>
                                </text>
                            </g>
                            <g id="Notification-Item" transform="translate(20.554168, 16.000000)">
                                <text id="Thomas-Stephens-adde" font-family="Lato-Bold, Lato" font-size="14" font-weight="bold" line-spacing="17">
                                    <tspan x="42" y="14" fill="#F8FAFC">Thomas Stephens</tspan>
                                    <tspan x="152.46" y="14" fill="#748999"> </tspan>
                                    <tspan x="155.862" y="14" font-family="Lato-Medium, Lato" font-weight="400" fill="#B8C7D2">added a new </tspan>
                                    <tspan x="42" y="31" font-family="Lato-Medium, Lato" font-weight="400" fill="#B8C7D2">comment to your</tspan>
                                    <tspan x="148.407" y="31" font-family="Lato-Medium, Lato" font-weight="400" fill="#748999"> </tspan>
                                    <tspan x="151.942" y="31" fill="#F8FAFC">review</tspan>
                                    <tspan x="194.299" y="31" font-family="Lato-Medium, Lato" font-weight="400" fill="#748999">    Just now</tspan>
                                </text>
                                <text id="Description" font-family="Lato-Medium, Lato" font-size="14" font-weight="400" line-spacing="16" fill="#748999">
                                    <tspan x="42" y="54">Praesent commodo cursus magna, vel…</tspan>
                                </text>
                                <g id="Notification" transform="translate(0.000000, 1.000000)">
                                    <g id="Avatar/Dark" transform="translate(0.000000, 1.000000)">
                                        <g>
                                            <circle id="BG" fill="#3E5667" cx="15" cy="15" r="15"></circle>
                                            <text id="Label" font-family="Lato-Bold, Lato" font-size="12" font-weight="bold" fill="#FFFFFF">
                                                <tspan x="8.109" y="20">TS</tspan>
                                            </text>
                                        </g>
                                    </g>
                                    <circle id="Notification-Badge" stroke="#12202B" stroke-width="2" fill="#85C6F2" cx="27.5" cy="4.5" r="4.5"></circle>
                                </g>
                                <circle id="Divider" fill="#3E5667" cx="202" cy="27" r="2"></circle>
                                <rect id="Divider" fill="#1C2D39" x="1" y="70" width="296" height="1"></rect>
                            </g>
                            <g id="Notification-Item" transform="translate(20.554168, 103.000000)">
                                <text id="Thomas-Stephens-adde" font-family="Lato-Bold, Lato" font-size="14" font-weight="bold" line-spacing="17">
                                    <tspan x="42" y="14" fill="#F8FAFC">Thomas Stephens</tspan>
                                    <tspan x="152.46" y="14" fill="#748999"> </tspan>
                                    <tspan x="155.862" y="14" font-family="Lato-Medium, Lato" font-weight="400" fill="#B8C7D2">added a new </tspan>
                                    <tspan x="42" y="31" font-family="Lato-Medium, Lato" font-weight="400" fill="#B8C7D2">comment to your</tspan>
                                    <tspan x="148.407" y="31" font-family="Lato-Medium, Lato" font-weight="400" fill="#748999"> </tspan>
                                    <tspan x="151.942" y="31" fill="#F8FAFC">review</tspan>
                                    <tspan x="194.299" y="31" font-family="Lato-Medium, Lato" font-weight="400" fill="#748999">    Just now</tspan>
                                </text>
                                <text id="Description" font-family="Lato-Medium, Lato" font-size="14" font-weight="400" line-spacing="16" fill="#748999">
                                    <tspan x="42" y="54">Praesent commodo cursus magna, vel…</tspan>
                                </text>
                                <g id="Notification" transform="translate(0.000000, 1.000000)">
                                    <g id="Avatar/Dark" transform="translate(0.000000, 1.000000)">
                                        <g>
                                            <circle id="BG" fill="#3E5667" cx="15" cy="15" r="15"></circle>
                                            <text id="Label" font-family="Lato-Bold, Lato" font-size="12" font-weight="bold" fill="#FFFFFF">
                                                <tspan x="8.109" y="20">TS</tspan>
                                            </text>
                                        </g>
                                    </g>
                                    <circle id="Notification-Badge" stroke="#12202B" stroke-width="2" fill="#85C6F2" cx="27.5" cy="4.5" r="4.5"></circle>
                                </g>
                                <circle id="Divider" fill="#3E5667" cx="202" cy="27" r="2"></circle>
                                <rect id="Divider" fill="#1C2D39" x="1" y="70" width="296" height="1"></rect>
                            </g>
                            <g id="Notification-Item" transform="translate(20.554168, 190.000000)">
                                <text id="Thomas-Stephens-adde" font-family="Lato-Bold, Lato" font-size="14" font-weight="bold" line-spacing="17">
                                    <tspan x="42" y="14" fill="#F8FAFC">Thomas Stephens</tspan>
                                    <tspan x="152.46" y="14" fill="#748999"> </tspan>
                                    <tspan x="155.862" y="14" font-family="Lato-Medium, Lato" font-weight="400" fill="#B8C7D2">added a new </tspan>
                                    <tspan x="42" y="31" font-family="Lato-Medium, Lato" font-weight="400" fill="#B8C7D2">comment to your</tspan>
                                    <tspan x="148.407" y="31" font-family="Lato-Medium, Lato" font-weight="400" fill="#748999"> </tspan>
                                    <tspan x="151.942" y="31" fill="#F8FAFC">review</tspan>
                                    <tspan x="194.299" y="31" font-family="Lato-Medium, Lato" font-weight="400" fill="#748999">    Just now</tspan>
                                </text>
                                <text id="Description" font-family="Lato-Medium, Lato" font-size="14" font-weight="400" line-spacing="16" fill="#748999">
                                    <tspan x="42" y="54">Praesent commodo cursus magna, vel…</tspan>
                                </text>
                                <g id="Notification" transform="translate(0.000000, 1.000000)">
                                    <g id="Avatar/Dark" transform="translate(0.000000, 1.000000)">
                                        <g>
                                            <circle id="BG" fill="#3E5667" cx="15" cy="15" r="15"></circle>
                                            <text id="Label" font-family="Lato-Bold, Lato" font-size="12" font-weight="bold" fill="#FFFFFF">
                                                <tspan x="8.109" y="20">TS</tspan>
                                            </text>
                                        </g>
                                    </g>
                                    <circle id="Notification-Badge" stroke="#12202B" stroke-width="2" fill="#85C6F2" cx="27.5" cy="4.5" r="4.5"></circle>
                                </g>
                                <circle id="Divider" fill="#3E5667" cx="202" cy="27" r="2"></circle>
                                <rect id="Divider" fill="#1C2D39" x="1" y="70" width="296" height="1"></rect>
                            </g>
                        </g>
                    </g>
                    <path d="M112.3975,402.685 C112.3975,403.490004 112.268751,404.222497 112.01125,404.8825 C111.753749,405.542503 111.390002,406.108748 110.92,406.58125 C110.449998,407.053752 109.887503,407.419999 109.2325,407.68 C108.577497,407.940001 107.850004,408.07 107.05,408.07 L103,408.07 L103,397.3 L107.05,397.3 C107.850004,397.3 108.577497,397.429999 109.2325,397.69 C109.887503,397.950001 110.449998,398.316248 110.92,398.78875 C111.390002,399.261252 111.753749,399.828747 112.01125,400.49125 C112.268751,401.153753 112.3975,401.884996 112.3975,402.685 Z M110.7625,402.685 C110.7625,402.044997 110.675001,401.471253 110.5,400.96375 C110.324999,400.456247 110.076252,400.026252 109.75375,399.67375 C109.431248,399.321248 109.041252,399.052501 108.58375,398.8675 C108.126248,398.682499 107.615003,398.59 107.05,398.59 L104.605,398.59 L104.605,406.78 L107.05,406.78 C107.615003,406.78 108.126248,406.687501 108.58375,406.5025 C109.041252,406.317499 109.431248,406.048752 109.75375,405.69625 C110.076252,405.343748 110.324999,404.915003 110.5,404.41 C110.675001,403.904997 110.7625,403.330003 110.7625,402.685 Z M119.155,403.4125 C119.155,403.122499 119.11375,402.855001 119.03125,402.61 C118.94875,402.364999 118.827501,402.152501 118.6675,401.9725 C118.507499,401.792499 118.312501,401.6525 118.0825,401.5525 C117.852499,401.452499 117.587501,401.4025 117.2875,401.4025 C116.672497,401.4025 116.188752,401.579998 115.83625,401.935 C115.483748,402.290002 115.26,402.782497 115.165,403.4125 L119.155,403.4125 Z M120.3625,406.9825 C120.182499,407.192501 119.975001,407.373749 119.74,407.52625 C119.504999,407.678751 119.255001,407.8025 118.99,407.8975 C118.724999,407.9925 118.451251,408.0625 118.16875,408.1075 C117.886249,408.1525 117.607501,408.175 117.3325,408.175 C116.807497,408.175 116.321252,408.086251 115.87375,407.90875 C115.426248,407.731249 115.038752,407.471252 114.71125,407.12875 C114.383748,406.786248 114.128751,406.361253 113.94625,405.85375 C113.763749,405.346247 113.6725,404.762503 113.6725,404.1025 C113.6725,403.572497 113.754999,403.078752 113.92,402.62125 C114.085001,402.163748 114.321248,401.765002 114.62875,401.425 C114.936252,401.084998 115.312498,400.817501 115.7575,400.6225 C116.202502,400.427499 116.702497,400.33 117.2575,400.33 C117.722502,400.33 118.151248,400.406249 118.54375,400.55875 C118.936252,400.711251 119.274999,400.932499 119.56,401.2225 C119.845001,401.512501 120.068749,401.869998 120.23125,402.295 C120.393751,402.720002 120.475,403.204997 120.475,403.75 C120.475,403.975001 120.45,404.12625 120.4,404.20375 C120.35,404.28125 120.257501,404.32 120.1225,404.32 L115.1275,404.32 C115.1425,404.775002 115.207499,405.171248 115.3225,405.50875 C115.437501,405.846252 115.596249,406.127499 115.79875,406.3525 C116.001251,406.577501 116.242499,406.744999 116.5225,406.855 C116.802501,406.965001 117.114998,407.02 117.46,407.02 C117.785002,407.02 118.066249,406.9825 118.30375,406.9075 C118.541251,406.8325 118.746249,406.75125 118.91875,406.66375 C119.091251,406.57625 119.236249,406.495 119.35375,406.42 C119.471251,406.345 119.575,406.3075 119.665,406.3075 C119.785001,406.3075 119.8775,406.3525 119.9425,406.4425 L120.3625,406.9825 Z M122.5525,408.07 L122.5525,401.65 L121.7575,401.5525 C121.642499,401.5275 121.54875,401.48625 121.47625,401.42875 C121.40375,401.37125 121.3675,401.287501 121.3675,401.1775 L121.3675,400.57 L122.5525,400.57 L122.5525,399.88 C122.5525,399.444998 122.614999,399.057502 122.74,398.7175 C122.865001,398.377498 123.043749,398.088751 123.27625,397.85125 C123.508751,397.613749 123.788748,397.433751 124.11625,397.31125 C124.443752,397.188749 124.812498,397.1275 125.2225,397.1275 C125.567502,397.1275 125.884999,397.1775 126.175,397.2775 L126.145,398.0125 C126.14,398.0775 126.12,398.12625 126.085,398.15875 C126.05,398.19125 126.00375,398.215 125.94625,398.23 C125.88875,398.245 125.81875,398.25375 125.73625,398.25625 C125.65375,398.25875 125.565,398.26 125.47,398.26 C125.244999,398.26 125.040001,398.2875 124.855,398.3425 C124.669999,398.3975 124.512501,398.489999 124.3825,398.62 C124.252499,398.750001 124.1525,398.921249 124.0825,399.13375 C124.0125,399.346251 123.9775,399.609998 123.9775,399.925 L123.9775,400.57 L126.115,400.57 L126.115,401.635 L124.0225,401.635 L124.0225,408.07 L122.5525,408.07 Z M131.4325,404.6875 C130.837497,404.7075 130.332502,404.75375 129.9175,404.82625 C129.502498,404.89875 129.165001,404.994999 128.905,405.115 C128.644999,405.235001 128.457501,405.376249 128.3425,405.53875 C128.227499,405.701251 128.17,405.882499 128.17,406.0825 C128.17,406.272501 128.20125,406.436249 128.26375,406.57375 C128.32625,406.711251 128.411249,406.82375 128.51875,406.91125 C128.626251,406.99875 128.752499,407.0625 128.8975,407.1025 C129.042501,407.1425 129.199999,407.1625 129.37,407.1625 C129.595001,407.1625 129.801249,407.14 129.98875,407.095 C130.176251,407.05 130.352499,406.98625 130.5175,406.90375 C130.682501,406.82125 130.839999,406.720001 130.99,406.6 C131.140001,406.479999 131.287499,406.342501 131.4325,406.1875 L131.4325,404.6875 Z M127.1425,401.515 C127.567502,401.109998 128.028748,400.8075 128.52625,400.6075 C129.023752,400.407499 129.569997,400.3075 130.165,400.3075 C130.600002,400.3075 130.984998,400.378749 131.32,400.52125 C131.655002,400.663751 131.937499,400.862499 132.1675,401.1175 C132.397501,401.372501 132.571249,401.677498 132.68875,402.0325 C132.806251,402.387502 132.865,402.779998 132.865,403.21 L132.865,408.07 L132.2125,408.07 C132.067499,408.07 131.9575,408.04625 131.8825,407.99875 C131.8075,407.95125 131.7475,407.862501 131.7025,407.7325 L131.545,407.065 C131.349999,407.245001 131.157501,407.403749 130.9675,407.54125 C130.777499,407.678751 130.578751,407.79625 130.37125,407.89375 C130.163749,407.99125 129.942501,408.065 129.7075,408.115 C129.472499,408.165 129.212501,408.19 128.9275,408.19 C128.627498,408.19 128.346251,408.14875 128.08375,408.06625 C127.821249,407.98375 127.592501,407.857501 127.3975,407.6875 C127.202499,407.517499 127.048751,407.305001 126.93625,407.05 C126.823749,406.794999 126.7675,406.497502 126.7675,406.1575 C126.7675,405.857499 126.848749,405.568751 127.01125,405.29125 C127.173751,405.013749 127.438748,404.765001 127.80625,404.545 C128.173752,404.324999 128.653747,404.145001 129.24625,404.005 C129.838753,403.864999 130.567496,403.785 131.4325,403.765 L131.4325,403.21 C131.4325,402.634997 131.310001,402.205001 131.065,401.92 C130.819999,401.634999 130.460002,401.4925 129.985,401.4925 C129.664998,401.4925 129.396251,401.5325 129.17875,401.6125 C128.961249,401.6925 128.773751,401.78125 128.61625,401.87875 C128.458749,401.97625 128.321251,402.065 128.20375,402.145 C128.086249,402.225 127.965001,402.265 127.84,402.265 C127.739999,402.265 127.65375,402.2375 127.58125,402.1825 C127.50875,402.1275 127.45,402.0625 127.405,401.9875 L127.1425,401.515 Z M141.1675,400.45 L141.1675,408.07 L140.29,408.07 C140.089999,408.07 139.96,407.972501 139.9,407.7775 L139.795,407.0125 C139.629999,407.187501 139.457501,407.347499 139.2775,407.4925 C139.097499,407.637501 138.905001,407.761249 138.7,407.86375 C138.494999,407.966251 138.277501,408.04625 138.0475,408.10375 C137.817499,408.16125 137.570001,408.19 137.305,408.19 C136.884998,408.19 136.516252,408.120001 136.19875,407.98 C135.881248,407.839999 135.615001,407.643751 135.4,407.39125 C135.184999,407.138749 135.022501,406.835002 134.9125,406.48 C134.802499,406.124998 134.7475,405.732502 134.7475,405.3025 L134.7475,400.45 L136.2175,400.45 L136.2175,405.3025 C136.2175,405.847503 136.342499,406.271248 136.5925,406.57375 C136.842501,406.876252 137.224997,407.0275 137.74,407.0275 C138.115002,407.0275 138.464998,406.938751 138.79,406.76125 C139.115002,406.583749 139.419999,406.340002 139.705,406.03 L139.705,400.45 L141.1675,400.45 Z M144.715,397 L144.715,408.07 L143.245,408.07 L143.245,397 L144.715,397 Z M149.185,408.19 C148.569997,408.19 148.096252,408.017502 147.76375,407.6725 C147.431248,407.327498 147.265,406.835003 147.265,406.195 L147.265,401.635 L146.38,401.635 C146.295,401.635 146.22375,401.60875 146.16625,401.55625 C146.10875,401.50375 146.08,401.425001 146.08,401.32 L146.08,400.7275 L147.3175,400.555 L147.6475,398.2825 C147.6675,398.1975 147.70625,398.13125 147.76375,398.08375 C147.82125,398.03625 147.895,398.0125 147.985,398.0125 L148.7275,398.0125 L148.7275,400.57 L150.8875,400.57 L150.8875,401.635 L148.7275,401.635 L148.7275,406.0975 C148.7275,406.397501 148.801249,406.621249 148.94875,406.76875 C149.096251,406.916251 149.284999,406.99 149.515,406.99 C149.650001,406.99 149.76625,406.9725 149.86375,406.9375 C149.96125,406.9025 150.045,406.86375 150.115,406.82125 C150.185,406.77875 150.245,406.74 150.295,406.705 C150.345,406.67 150.39,406.6525 150.43,406.6525 C150.48,406.6525 150.51875,406.66375 150.54625,406.68625 C150.57375,406.70875 150.6025,406.745 150.6325,406.795 L151.0675,407.5 C150.827499,407.720001 150.542502,407.889999 150.2125,408.01 C149.882498,408.130001 149.540002,408.19 149.185,408.19 Z" id="Default" fill="#3E5667" fill-rule="nonzero"></path>
                    <path d="M437.035,404.0275 L435.4375,399.85 C435.322499,399.564999 435.207501,399.205002 435.0925,398.77 C435.0375,398.985001 434.98125,399.184999 434.92375,399.37 C434.86625,399.555001 434.81,399.719999 434.755,399.865 L433.165,404.0275 L437.035,404.0275 Z M440.1925,408.04 L438.9625,408.04 C438.822499,408.04 438.7075,408.005 438.6175,407.935 C438.5275,407.865 438.4625,407.775001 438.4225,407.665 L437.47,405.1675 L432.7225,405.1675 L431.77,407.665 C431.735,407.76 431.67,407.84625 431.575,407.92375 C431.48,408.00125 431.365001,408.04 431.23,408.04 L430,408.04 L434.29,397.27 L435.9025,397.27 L440.1925,408.04 Z M446.575,401.845 C446.53,401.9 446.48625,401.94375 446.44375,401.97625 C446.40125,402.00875 446.34,402.025 446.26,402.025 C446.18,402.025 446.09625,401.99375 446.00875,401.93125 C445.92125,401.86875 445.811251,401.80125 445.67875,401.72875 C445.546249,401.65625 445.386251,401.58875 445.19875,401.52625 C445.011249,401.46375 444.780001,401.4325 444.505,401.4325 C444.144998,401.4325 443.827501,401.497499 443.5525,401.6275 C443.277499,401.757501 443.048751,401.942499 442.86625,402.1825 C442.683749,402.422501 442.545,402.714998 442.45,403.06 C442.355,403.405002 442.3075,403.792498 442.3075,404.2225 C442.3075,404.667502 442.357499,405.063748 442.4575,405.41125 C442.5575,405.758752 442.699999,406.051249 442.885,406.28875 C443.070001,406.526251 443.294999,406.706249 443.56,406.82875 C443.825001,406.951251 444.119998,407.0125 444.445,407.0125 C444.760002,407.0125 445.019999,406.97375 445.225,406.89625 C445.430001,406.81875 445.599999,406.735 445.735,406.645 C445.870001,406.555 445.9825,406.47125 446.0725,406.39375 C446.1625,406.31625 446.255,406.2775 446.35,406.2775 C446.470001,406.2775 446.5625,406.3225 446.6275,406.4125 L447.0475,406.9525 C446.872499,407.167501 446.676251,407.349999 446.45875,407.5 C446.241249,407.650001 446.010001,407.7725 445.765,407.8675 C445.519999,407.9625 445.263751,408.0325 444.99625,408.0775 C444.728749,408.1225 444.457501,408.145 444.1825,408.145 C443.707498,408.145 443.263752,408.057501 442.85125,407.8825 C442.438748,407.707499 442.081252,407.452502 441.77875,407.1175 C441.476248,406.782498 441.237501,406.371252 441.0625,405.88375 C440.887499,405.396248 440.8,404.842503 440.8,404.2225 C440.8,403.657497 440.878749,403.135002 441.03625,402.655 C441.193751,402.174998 441.426248,401.761252 441.73375,401.41375 C442.041252,401.066248 442.419998,400.793751 442.87,400.59625 C443.320002,400.398749 443.834997,400.3 444.415,400.3 C444.960003,400.3 445.439998,400.387499 445.855,400.5625 C446.270002,400.737501 446.639998,400.984998 446.965,401.305 L446.575,401.845 Z M455.635,408.04 L454.165,408.04 L454.165,401.605 L450.34,401.605 L450.34,406.0675 C450.34,406.367502 450.413749,406.591249 450.56125,406.73875 C450.708751,406.886251 450.897499,406.96 451.1275,406.96 C451.262501,406.96 451.37875,406.9425 451.47625,406.9075 C451.57375,406.8725 451.6575,406.83375 451.7275,406.79125 C451.7975,406.74875 451.8575,406.71 451.9075,406.675 C451.9575,406.64 452.0025,406.6225 452.0425,406.6225 C452.0925,406.6225 452.13125,406.63375 452.15875,406.65625 C452.18625,406.67875 452.215,406.715 452.245,406.765 L452.68,407.47 C452.439999,407.690001 452.155002,407.859999 451.825,407.98 C451.494998,408.100001 451.152502,408.16 450.7975,408.16 C450.182497,408.16 449.708752,407.987502 449.37625,407.6425 C449.043748,407.297498 448.8775,406.805003 448.8775,406.165 L448.8775,401.605 L447.9925,401.605 C447.9075,401.605 447.83625,401.57875 447.77875,401.52625 C447.72125,401.47375 447.6925,401.395001 447.6925,401.29 L447.6925,400.6975 L448.9375,400.525 L449.26,398.2525 C449.28,398.1675 449.31875,398.10125 449.37625,398.05375 C449.43375,398.00625 449.5075,397.9825 449.5975,397.9825 L450.34,397.9825 L450.34,400.54 L455.635,400.54 L455.635,408.04 Z M455.965,398.02 C455.965,398.155001 455.9375,398.283749 455.8825,398.40625 C455.8275,398.528751 455.75375,398.63625 455.66125,398.72875 C455.56875,398.82125 455.460001,398.89375 455.335,398.94625 C455.209999,398.99875 455.080001,399.025 454.945,399.025 C454.809999,399.025 454.682501,398.99875 454.5625,398.94625 C454.442499,398.89375 454.33625,398.82125 454.24375,398.72875 C454.15125,398.63625 454.07875,398.528751 454.02625,398.40625 C453.97375,398.283749 453.9475,398.155001 453.9475,398.02 C453.9475,397.879999 453.97375,397.747501 454.02625,397.6225 C454.07875,397.497499 454.15125,397.38875 454.24375,397.29625 C454.33625,397.20375 454.442499,397.13125 454.5625,397.07875 C454.682501,397.02625 454.809999,397 454.945,397 C455.080001,397 455.209999,397.02625 455.335,397.07875 C455.460001,397.13125 455.56875,397.20375 455.66125,397.29625 C455.75375,397.38875 455.8275,397.497499 455.8825,397.6225 C455.9375,397.747501 455.965,397.879999 455.965,398.02 Z M464.3725,400.42 L461.2825,408.04 L459.9625,408.04 L456.8725,400.42 L458.08,400.42 C458.195001,400.42 458.29,400.4475 458.365,400.5025 C458.44,400.5575 458.49,400.6275 458.515,400.7125 L460.3375,405.3925 C460.4025,405.587501 460.45875,405.781249 460.50625,405.97375 C460.55375,406.166251 460.5975,406.357499 460.6375,406.5475 C460.6775,406.357499 460.7225,406.167501 460.7725,405.9775 C460.8225,405.787499 460.8825,405.592501 460.9525,405.3925 L462.7975,400.7125 C462.8275,400.6275 462.88,400.5575 462.955,400.5025 C463.03,400.4475 463.119999,400.42 463.225,400.42 L464.3725,400.42 Z M470.59,403.3825 C470.59,403.092499 470.54875,402.825001 470.46625,402.58 C470.38375,402.334999 470.262501,402.122501 470.1025,401.9425 C469.942499,401.762499 469.747501,401.622501 469.5175,401.5225 C469.287499,401.4225 469.022501,401.3725 468.7225,401.3725 C468.107497,401.3725 467.623752,401.549998 467.27125,401.905 C466.918748,402.260002 466.695,402.752497 466.6,403.3825 L470.59,403.3825 Z M471.7975,406.9525 C471.617499,407.162501 471.410001,407.343749 471.175,407.49625 C470.939999,407.648751 470.690001,407.7725 470.425,407.8675 C470.159999,407.9625 469.886251,408.0325 469.60375,408.0775 C469.321249,408.1225 469.042501,408.145 468.7675,408.145 C468.242497,408.145 467.756252,408.056251 467.30875,407.87875 C466.861248,407.701249 466.473752,407.441252 466.14625,407.09875 C465.818748,406.756248 465.563751,406.331253 465.38125,405.82375 C465.198749,405.316247 465.1075,404.732503 465.1075,404.0725 C465.1075,403.542497 465.189999,403.048752 465.355,402.59125 C465.520001,402.133748 465.756248,401.735002 466.06375,401.395 C466.371252,401.054998 466.747498,400.787501 467.1925,400.5925 C467.637502,400.397499 468.137497,400.3 468.6925,400.3 C469.157502,400.3 469.586248,400.376249 469.97875,400.52875 C470.371252,400.681251 470.709999,400.902499 470.995,401.1925 C471.280001,401.482501 471.503749,401.839998 471.66625,402.265 C471.828751,402.690002 471.91,403.174997 471.91,403.72 C471.91,403.945001 471.885,404.09625 471.835,404.17375 C471.785,404.25125 471.692501,404.29 471.5575,404.29 L466.5625,404.29 C466.5775,404.745002 466.642499,405.141248 466.7575,405.47875 C466.872501,405.816252 467.031249,406.097499 467.23375,406.3225 C467.436251,406.547501 467.677499,406.714999 467.9575,406.825 C468.237501,406.935001 468.549998,406.99 468.895,406.99 C469.220002,406.99 469.501249,406.9525 469.73875,406.8775 C469.976251,406.8025 470.181249,406.72125 470.35375,406.63375 C470.526251,406.54625 470.671249,406.465 470.78875,406.39 C470.906251,406.315 471.01,406.2775 471.1,406.2775 C471.220001,406.2775 471.3125,406.3225 471.3775,406.4125 L471.7975,406.9525 Z" id="Actve" fill="#3E5667" fill-rule="nonzero"></path>
                </g>
                <text id="The-Notification-sta" font-family="Lato-Semibold, Lato" font-size="15" font-weight="500" fill="#3E5667">
                    <tspan x="0" y="517">The Notification states.</tspan>
                </text>
            </g>
        </g>
    </g>
</svg>