<svg xmlns="http://www.w3.org/2000/svg" xmlns:xlink="http://www.w3.org/1999/xlink" width="16" height="16" viewBox="0 0 16 16">
  <defs>
    <path id="album-a" d="M8,1.33333329 C4.31999998,1.33333329 1.33333329,4.31999998 1.33333329,8 C1.33333329,11.68 4.31999998,14.6666667 8,14.6666667 C11.68,14.6666667 14.6666667,11.68 14.6666667,8 C14.6666667,4.31999998 11.68,1.33333329 8,1.33333329 Z M7.99999998,11 C6.33999999,11 4.99999998,9.66000001 4.99999998,7.99999998 C4.99999998,6.33999999 6.33999999,4.99999998 7.99999998,4.99999998 C9.66000001,4.99999998 11,6.33999999 11,7.99999998 C11,9.66000001 9.66000001,11 7.99999998,11 Z M8,7.33333333 C7.63333333,7.33333333 7.33333333,7.63333333 7.33333333,8 C7.33333333,8.36666667 7.63333333,8.66666667 8,8.66666667 C8.36666667,8.66666667 8.66666667,8.36666667 8.66666667,8 C8.66666667,7.63333333 8.36666667,7.33333333 8,7.33333333 Z"/>
  </defs>
  <g fill="none" fill-rule="evenodd">
    <mask id="album-b" fill="#fff">
      <use xlink:href="#album-a"/>
    </mask>
    <g fill="CurrentColor" mask="url(#album-b)">
      <rect width="16" height="16"/>
    </g>
  </g>
</svg>
