<svg xmlns="http://www.w3.org/2000/svg" xmlns:xlink="http://www.w3.org/1999/xlink" width="16" height="16" viewBox="0 0 16 16">
  <defs>
    <path id="high-quality-a" d="M12.6666667,2.66666663 L3.3333333,2.66666663 C2.5933333,2.66666663 1.99999996,3.26666664 1.99999996,3.99999997 L1.99999996,12 C1.99999996,12.7333334 2.5933333,13.3333334 3.3333333,13.3333334 L12.6666667,13.3333334 C13.4,13.3333334 14,12.7333334 14,12 L14,3.99999997 C14,3.26666664 13.4,2.66666663 12.6666667,2.66666663 Z M7.33333333,9.99999999 L6.33333332,9.99999999 L6.33333332,8.66666667 L4.99999997,8.66666667 L4.99999997,9.99999999 L3.99999997,9.99999999 L3.99999997,5.99999999 L4.99999997,5.99999999 L4.99999997,7.66666666 L6.33333332,7.66666666 L6.33333332,5.99999999 L7.33333333,5.99999999 L7.33333333,9.99999999 Z M12,9.33333334 C12,9.70000001 11.7,9.99999999 11.3333334,9.99999999 L10.8333334,9.99999999 L10.8333334,11 L9.83333334,11 L9.83333334,9.99999999 L9.33333334,9.99999999 C8.96666667,9.99999999 8.66666667,9.70000001 8.66666667,9.33333334 L8.66666667,6.66666666 C8.66666667,6.29999999 8.96666667,5.99999999 9.33333334,5.99999999 L11.3333334,5.99999999 C11.7,5.99999999 12,6.29999999 12,6.66666666 L12,9.33333334 Z M9.66666668,8.99999999 L11,8.99999999 L11,6.99999999 L9.66666668,6.99999999 L9.66666668,8.99999999 Z"/>
  </defs>
  <g fill="none" fill-rule="evenodd">
    <mask id="high-quality-b" fill="#fff">
      <use xlink:href="#high-quality-a"/>
    </mask>
    <g fill="CurrentColor" mask="url(#high-quality-b)">
      <rect width="16" height="16"/>
    </g>
  </g>
</svg>
