<svg xmlns="http://www.w3.org/2000/svg" xmlns:xlink="http://www.w3.org/1999/xlink" width="16" height="16" viewBox="0 0 16 16">
  <defs>
    <path id="library-add-a" d="M2.66666663,3.99999997 L1.33333329,3.99999997 L1.33333329,13.3333334 C1.33333329,14.0666667 1.9333333,14.6666667 2.66666663,14.6666667 L12,14.6666667 L12,13.3333334 L2.66666663,13.3333334 L2.66666663,3.99999997 Z M13.3333334,1.33333329 L5.33333332,1.33333329 C4.59999998,1.33333329 3.99999997,1.9333333 3.99999997,2.66666663 L3.99999997,10.6666667 C3.99999997,11.4 4.59999998,12 5.33333332,12 L13.3333334,12 C14.0666667,12 14.6666667,11.4 14.6666667,10.6666667 L14.6666667,2.66666663 C14.6666667,1.9333333 14.0666667,1.33333329 13.3333334,1.33333329 Z M12.6666667,7.3333333 L9.99999999,7.3333333 L9.99999999,10 L8.66666667,10 L8.66666667,7.3333333 L5.99999999,7.3333333 L5.99999999,5.99999999 L8.66666667,5.99999999 L8.66666667,3.3333333 L9.99999999,3.3333333 L9.99999999,5.99999999 L12.6666667,5.99999999 L12.6666667,7.3333333 Z"/>
  </defs>
  <g fill="none" fill-rule="evenodd">
    <mask id="library-add-b" fill="#fff">
      <use xlink:href="#library-add-a"/>
    </mask>
    <g fill="CurrentColor" mask="url(#library-add-b)">
      <rect width="16" height="16"/>
    </g>
  </g>
</svg>
