<svg xmlns="http://www.w3.org/2000/svg" xmlns:xlink="http://www.w3.org/1999/xlink" width="16" height="16" viewBox="0 0 16 16">
  <defs>
    <path id="library-music-a" d="M13.3333334,1.33333329 L5.33333332,1.33333329 C4.59999998,1.33333329 3.99999997,1.9333333 3.99999997,2.66666663 L3.99999997,10.6666667 C3.99999997,11.4 4.59999998,12 5.33333332,12 L13.3333334,12 C14.0666667,12 14.6666667,11.4 14.6666667,10.6666667 L14.6666667,2.66666663 C14.6666667,1.9333333 14.0666667,1.33333329 13.3333334,1.33333329 Z M12,4.66666665 L10,4.66666665 L10,8.3333333 C10,9.25333334 9.25333334,10 8.33333334,10 C7.41333333,10 6.66666666,9.25333334 6.66666666,8.3333333 C6.66666666,7.41333333 7.41333333,6.66666666 8.33333334,6.66666666 C8.71333334,6.66666666 9.05333334,6.79333333 9.33333334,7.00666666 L9.33333334,3.3333333 L12,3.3333333 L12,4.66666665 Z M2.66666663,3.99999997 L1.33333329,3.99999997 L1.33333329,13.3333334 C1.33333329,14.0666667 1.9333333,14.6666667 2.66666663,14.6666667 L12,14.6666667 L12,13.3333334 L2.66666663,13.3333334 L2.66666663,3.99999997 Z"/>
  </defs>
  <g fill="none" fill-rule="evenodd">
    <mask id="library-music-b" fill="#fff">
      <use xlink:href="#library-music-a"/>
    </mask>
    <g fill="CurrentColor" mask="url(#library-music-b)">
      <rect width="16" height="16"/>
    </g>
  </g>
</svg>
