<svg xmlns="http://www.w3.org/2000/svg" xmlns:xlink="http://www.w3.org/1999/xlink" width="16" height="16" viewBox="0 0 16 16">
  <defs>
    <path id="playlist-add-a" d="M9.33333329,6.66666666 L1.33333329,6.66666666 L1.33333329,8 L9.33333329,8 L9.33333329,6.66666666 Z M9.33333329,3.99999997 L1.33333329,3.99999997 L1.33333329,5.33333332 L9.33333329,5.33333332 L9.33333329,3.99999997 Z M12,9.33333334 L12,6.66666666 L10.6666667,6.66666666 L10.6666667,9.33333334 L8,9.33333334 L8,10.6666667 L10.6666667,10.6666667 L10.6666667,13.3333334 L12,13.3333334 L12,10.6666667 L14.6666667,10.6666667 L14.6666667,9.33333334 L12,9.33333334 Z M1.33333329,10.6666667 L6.66666666,10.6666667 L6.66666666,9.33333334 L1.33333329,9.33333334 L1.33333329,10.6666667 Z"/>
  </defs>
  <g fill="none" fill-rule="evenodd">
    <mask id="playlist-add-b" fill="#fff">
      <use xlink:href="#playlist-add-a"/>
    </mask>
    <g fill="CurrentColor" mask="url(#playlist-add-b)">
      <rect width="16" height="16"/>
    </g>
  </g>
</svg>
