<svg xmlns="http://www.w3.org/2000/svg" xmlns:xlink="http://www.w3.org/1999/xlink" width="16" height="16" viewBox="0 0 16 16">
  <defs>
    <path id="remove-from-queue-a" d="M14,1.99999996 L1.99999996,1.99999996 C1.25999996,1.99999996 0.666666621,2.5933333 0.666666621,3.3333333 L0.666666621,11.3333334 C0.666666621,12.0666667 1.25999996,12.6666667 1.99999996,12.6666667 L5.33333332,12.6666667 L5.33333332,14 L10.6666666,14 L10.6666666,12.6666667 L14,12.6666667 C14.7333334,12.6666667 15.3266667,12.0666667 15.3266667,11.3333334 L15.3333334,3.3333333 C15.3333334,2.5933333 14.7333334,1.99999996 14,1.99999996 Z M14,11.3333333 L1.99999996,11.3333333 L1.99999996,3.3333333 L14,3.3333333 L14,11.3333333 Z M10.6666667,6.66666666 L10.6666667,8 L5.33333332,8 L5.33333332,6.66666666 L10.6666667,6.66666666 Z"/>
  </defs>
  <g fill="none" fill-rule="evenodd">
    <mask id="remove-from-queue-b" fill="#fff">
      <use xlink:href="#remove-from-queue-a"/>
    </mask>
    <g fill="CurrentColor" mask="url(#remove-from-queue-b)">
      <rect width="16" height="16"/>
    </g>
  </g>
</svg>
