<svg xmlns="http://www.w3.org/2000/svg" xmlns:xlink="http://www.w3.org/1999/xlink" width="16" height="16" viewBox="0 0 16 16">
  <defs>
    <path id="repeat-one-a" d="M4.66666665,4.66666665 L11.3333333,4.66666665 L11.3333333,6.66666666 L14,3.99999997 L11.3333333,1.33333329 L11.3333333,3.33333329 L3.3333333,3.33333329 L3.3333333,7.33333329 L4.66666665,7.33333329 L4.66666665,4.66666665 Z M11.3333334,11.3333334 L4.66666665,11.3333334 L4.66666665,9.33333334 L1.99999996,12 L4.66666665,14.6666667 L4.66666665,12.6666667 L12.6666667,12.6666667 L12.6666667,8.66666667 L11.3333334,8.66666667 L11.3333334,11.3333334 Z M8.66666666,9.99999999 L8.66666666,5.99999999 L8,5.99999999 L6.66666666,6.66666666 L6.66666666,7.33333333 L7.66666666,7.33333333 L7.66666666,9.99999999 L8.66666666,9.99999999 Z"/>
  </defs>
  <g fill="none" fill-rule="evenodd">
    <mask id="repeat-one-b" fill="#fff">
      <use xlink:href="#repeat-one-a"/>
    </mask>
    <g fill="CurrentColor" mask="url(#repeat-one-b)">
      <rect width="16" height="16"/>
    </g>
  </g>
</svg>
