<svg xmlns="http://www.w3.org/2000/svg" xmlns:xlink="http://www.w3.org/1999/xlink" width="16" height="16" viewBox="0 0 16 16">
  <defs>
    <path id="slow-motion-video-a" d="M8.7,6.52666666 L6.66666666,4.99999998 L6.66666666,11 L8.7,9.47333334 L10.6666667,7.99999998 L8.7,6.52666666 Z M8.7,6.52666666 L6.66666666,4.99999998 L6.66666666,11 L8.7,9.47333334 L10.6666667,7.99999998 L8.7,6.52666666 Z M8.7,6.52666666 L6.66666666,4.99999998 L6.66666666,11 L8.7,9.47333334 L10.6666667,7.99999998 L8.7,6.52666666 Z M7.33333333,2.7133333 L7.33333333,1.36666663 C5.99333332,1.49999996 4.77333331,2.0333333 3.78666664,2.83999997 L4.73333331,3.79333331 C5.47333332,3.21999997 6.35999999,2.8333333 7.33333333,2.7133333 Z M3.79333331,4.73333331 L2.83999997,3.78666664 C2.0333333,4.77333331 1.49999996,5.99333332 1.36666663,7.33333333 L2.7133333,7.33333333 C2.8333333,6.35999999 3.21999997,5.47333332 3.79333331,4.73333331 Z M2.7133333,8.66666667 L1.36666663,8.66666667 C1.49999996,10.0066667 2.0333333,11.2266667 2.83999997,12.2133334 L3.79333331,11.26 C3.21999997,10.5266667 2.8333333,9.64000001 2.7133333,8.66666667 L2.7133333,8.66666667 Z M3.78666664,13.16 C4.77333331,13.9666667 5.99999999,14.5 7.33333333,14.6333334 L7.33333333,13.2866667 C6.35999999,13.1666667 5.47333332,12.78 4.73333331,12.2066667 L3.78666664,13.16 L3.78666664,13.16 Z M14.6666667,8 C14.6666667,11.44 12.0533334,14.28 8.7,14.6333334 L8.7,13.2866667 C11.3133334,12.94 13.3333334,10.7 13.3333334,8 C13.3333334,5.29999998 11.3133334,3.05999997 8.7,2.7133333 L8.7,1.36666663 C12.0533334,1.71999996 14.6666667,4.55999998 14.6666667,8 Z"/>
  </defs>
  <g fill="none" fill-rule="evenodd">
    <mask id="slow-motion-video-b" fill="#fff">
      <use xlink:href="#slow-motion-video-a"/>
    </mask>
    <g fill="CurrentColor" mask="url(#slow-motion-video-b)">
      <rect width="16" height="16"/>
    </g>
  </g>
</svg>
