<svg xmlns="http://www.w3.org/2000/svg" xmlns:xlink="http://www.w3.org/1999/xlink" width="16" height="16" viewBox="0 0 16 16">
  <defs>
    <path id="subscriptions-a" d="M13.3333334,5.33333332 L2.66666663,5.33333332 L2.66666663,3.99999997 L13.3333334,3.99999997 L13.3333334,5.33333332 Z M12,1.33333329 L3.99999997,1.33333329 L3.99999997,2.66666663 L12,2.66666663 L12,1.33333329 Z M14.6666667,8 L14.6666667,13.3333334 C14.6666667,14.0666667 14.0666667,14.6666667 13.3333333,14.6666667 L2.66666663,14.6666667 C1.9333333,14.6666667 1.33333329,14.0666667 1.33333329,13.3333334 L1.33333329,8 C1.33333329,7.26666666 1.9333333,6.66666666 2.66666663,6.66666666 L13.3333333,6.66666666 C14.0666667,6.66666666 14.6666667,7.26666666 14.6666667,8 Z M10.6666667,10.6666667 L6.66666666,8.48666667 L6.66666666,12.84 L10.6666667,10.6666667 Z"/>
  </defs>
  <g fill="none" fill-rule="evenodd">
    <mask id="subscriptions-b" fill="#fff">
      <use xlink:href="#subscriptions-a"/>
    </mask>
    <g fill="CurrentColor" mask="url(#subscriptions-b)">
      <rect width="16" height="16"/>
    </g>
  </g>
</svg>
