<?xml version="1.0" encoding="UTF-8"?>
<svg width="16px" height="16px" viewBox="0 0 16 16" version="1.1" xmlns="http://www.w3.org/2000/svg" xmlns:xlink="http://www.w3.org/1999/xlink">
    <title>Icons/Communication/call-end</title>
    <g id="Icons/Communication/call-end" stroke="none" stroke-width="1" fill="none" fill-rule="evenodd">
        <rect id="Spacer" fill-opacity="0" fill="#D8D8D8" x="0" y="0" width="16" height="16"></rect>
        <path d="M7.99999995,5.99999999 C6.93333333,5.99999999 5.89999999,6.16666665 4.93333331,6.47999999 L4.93333331,8.54666667 C4.93333331,8.80666667 4.77999998,9.04000001 4.55999998,9.14666667 C3.90666664,9.47333334 3.3133333,9.89333335 2.78666663,10.38 C2.66666663,10.5 2.49999995,10.5666667 2.31999996,10.5666667 C2.1333333,10.5666667 1.96666663,10.4933333 1.84666663,10.3733333 L0.193333285,8.72 C0.0733332838,8.60666667 -5.00000006e-08,8.44 -5.00000006e-08,8.25333333 C-5.00000006e-08,8.06666667 0.0733332838,7.9 0.193333285,7.78 C2.22666663,5.85333332 4.97333331,4.66666665 7.99999995,4.66666665 C11.0266667,4.66666665 13.7733334,5.85333332 15.8066667,7.78 C15.9266667,7.9 15.9999999,8.06666667 15.9999999,8.25333333 C15.9999999,8.44 15.9266667,8.60666667 15.8066667,8.72666667 L14.1533334,10.38 C14.0333334,10.5 13.8666667,10.5733333 13.68,10.5733333 C13.4999999,10.5733333 13.3333334,10.5 13.2133334,10.3866667 C12.6866667,9.89333335 12.0866667,9.48000001 11.4333334,9.15333334 C11.2133334,9.04666667 11.06,8.82000001 11.06,8.55333334 L11.06,6.48666666 C10.1,6.16666665 9.06666667,5.99999999 7.99999995,5.99999999 Z" id="Icons/Communication/ic_call_end_24px" fill="#233745" fill-rule="nonzero"></path>
    </g>
</svg>