<?xml version="1.0" encoding="UTF-8"?>
<svg width="16px" height="16px" viewBox="0 0 16 16" version="1.1" xmlns="http://www.w3.org/2000/svg" xmlns:xlink="http://www.w3.org/1999/xlink">
    <title>Icons/Communication/comment</title>
    <g id="Icons/Communication/comment" stroke="none" stroke-width="1" fill="none" fill-rule="evenodd">
        <rect id="Spacer" fill-opacity="0" fill="#D8D8D8" x="0" y="0" width="16" height="16"></rect>
        <path d="M14.66,2.66666663 C14.66,1.9333333 14.0666667,1.33333329 13.3333333,1.33333329 L2.66666663,1.33333329 C1.9333333,1.33333329 1.33333329,1.9333333 1.33333329,2.66666663 L1.33333329,10.6666667 C1.33333329,11.4 1.9333333,12 2.66666663,12 L12,12 L14.6666667,14.6666667 L14.66,2.66666663 Z M12,9.33333334 L3.99999998,9.33333334 L3.99999998,8 L12,8 L12,9.33333334 Z M12,7.33333333 L3.99999998,7.33333333 L3.99999998,5.99999999 L12,5.99999999 L12,7.33333333 Z M12,5.33333332 L3.99999998,5.33333332 L3.99999998,3.99999998 L12,3.99999998 L12,5.33333332 Z" id="Icons/Communication/ic_comment_24px" fill="#233745" fill-rule="nonzero"></path>
    </g>
</svg>