<svg xmlns="http://www.w3.org/2000/svg" xmlns:xlink="http://www.w3.org/1999/xlink" width="16" height="16" viewBox="0 0 16 16">
  <defs>
    <path id="comment-a" d="M14.66,2.66666663 C14.66,1.9333333 14.0666667,1.33333329 13.3333333,1.33333329 L2.66666663,1.33333329 C1.9333333,1.33333329 1.33333329,1.9333333 1.33333329,2.66666663 L1.33333329,10.6666667 C1.33333329,11.4 1.9333333,12 2.66666663,12 L12,12 L14.6666667,14.6666667 L14.66,2.66666663 Z M12,9.33333334 L3.99999997,9.33333334 L3.99999997,8 L12,8 L12,9.33333334 Z M12,7.33333333 L3.99999997,7.33333333 L3.99999997,5.99999999 L12,5.99999999 L12,7.33333333 Z M12,5.33333332 L3.99999997,5.33333332 L3.99999997,3.99999997 L12,3.99999997 L12,5.33333332 Z"/>
  </defs>
  <g fill="none" fill-rule="evenodd">
    <mask id="comment-b" fill="#fff">
      <use xlink:href="#comment-a"/>
    </mask>
    <g fill="CurrentColor" mask="url(#comment-b)">
      <rect width="16" height="16"/>
    </g>
  </g>
</svg>
