<svg xmlns="http://www.w3.org/2000/svg" xmlns:xlink="http://www.w3.org/1999/xlink" width="16" height="16" viewBox="0 0 16 16">
  <defs>
    <path id="contact-phone-a" d="M14.6666667,1.99999996 L1.33333329,1.99999996 C0.599999954,1.99999996 -5.00000006e-08,2.59999997 -5.00000006e-08,3.3333333 L-5.00000006e-08,12.6666667 C-5.00000006e-08,13.4 0.599999954,14 1.33333329,14 L14.6666667,14 C15.4,14 15.9933334,13.4 15.9933334,12.6666667 L15.9999999,3.3333333 C15.9999999,2.59999997 15.4,1.99999996 14.6666667,1.99999996 Z M5.3333333,3.99999997 C6.43999999,3.99999997 7.3333333,4.89333331 7.3333333,5.99999997 C7.3333333,7.10666666 6.43999999,7.99999997 5.3333333,7.99999997 C4.22666664,7.99999997 3.3333333,7.10666666 3.3333333,5.99999997 C3.3333333,4.89333331 4.22666664,3.99999997 5.3333333,3.99999997 Z M9.33333329,12 L1.33333329,12 L1.33333329,11.3333334 C1.33333329,10 3.99999998,9.26666667 5.33333329,9.26666667 C6.66666666,9.26666667 9.33333329,10 9.33333329,11.3333334 L9.33333329,12 Z M11.9,9.33333334 L12.9933334,9.33333334 L14,10.6666667 L12.6733334,11.9933334 C11.8,11.34 11.1533334,10.4066667 10.8533334,9.33333334 C10.7333334,8.90666667 10.6666667,8.46 10.6666667,8 C10.6666667,7.54 10.7333334,7.09333333 10.8533334,6.66666666 C11.1533334,5.58666665 11.8,4.65999998 12.6733334,4.00666664 L14,5.33333332 L12.9933334,6.66666666 L11.9,6.66666666 C11.7533334,7.08666666 11.6666667,7.53333333 11.6666667,8 C11.6666667,8.46666667 11.7533334,8.91333334 11.9,9.33333334 L11.9,9.33333334 Z"/>
  </defs>
  <g fill="none" fill-rule="evenodd">
    <mask id="contact-phone-b" fill="#fff">
      <use xlink:href="#contact-phone-a"/>
    </mask>
    <g fill="CurrentColor" mask="url(#contact-phone-b)">
      <rect width="16" height="16"/>
    </g>
  </g>
</svg>
