<?xml version="1.0" encoding="UTF-8"?>
<svg width="16px" height="16px" viewBox="0 0 16 16" version="1.1" xmlns="http://www.w3.org/2000/svg" xmlns:xlink="http://www.w3.org/1999/xlink">
    <title>Icons/Communication/contacts</title>
    <g id="Icons/Communication/contacts" stroke="none" stroke-width="1" fill="none" fill-rule="evenodd">
        <rect id="Spacer" fill-opacity="0" fill="#D8D8D8" x="0" y="0" width="16" height="16"></rect>
        <path d="M13.3333334,-5.00000006e-08 L2.66666663,-5.00000006e-08 L2.66666663,1.33333329 L13.3333334,1.33333329 L13.3333334,-5.00000006e-08 Z M2.66666663,16 L13.3333334,16 L13.3333334,14.6666667 L2.66666663,14.6666667 L2.66666663,16 Z M13.3333333,2.66666663 L2.66666663,2.66666663 C1.9333333,2.66666663 1.33333329,3.26666664 1.33333329,3.99999997 L1.33333329,12 C1.33333329,12.7333334 1.9333333,13.3333334 2.66666663,13.3333334 L13.3333333,13.3333334 C14.0666667,13.3333334 14.6666667,12.7333334 14.6666667,12 L14.6666667,3.99999997 C14.6666667,3.26666664 14.0666667,2.66666663 13.3333333,2.66666663 Z M7.99999999,4.49999998 C8.82666667,4.49999998 9.49999999,5.17333332 9.49999999,5.99999998 C9.49999999,6.82666666 8.82666667,7.49999998 7.99999999,7.49999998 C7.17333333,7.49999998 6.49999999,6.82666666 6.49999999,5.99999998 C6.49999999,5.17333332 7.17333333,4.49999998 7.99999999,4.49999998 Z M11.3333334,11.3333334 L4.66666665,11.3333334 L4.66666665,10.3333333 C4.66666665,9.22000001 6.88666666,8.66666667 8,8.66666667 C9.11333334,8.66666667 11.3333334,9.22000001 11.3333334,10.3333333 L11.3333334,11.3333334 Z" id="Icons/Communication/ic_contacts_24px" fill="#233745" fill-rule="nonzero"></path>
    </g>
</svg>