<?xml version="1.0" encoding="UTF-8"?>
<svg width="16px" height="16px" viewBox="0 0 16 16" version="1.1" xmlns="http://www.w3.org/2000/svg" xmlns:xlink="http://www.w3.org/1999/xlink">
    <title>Icons/Communication/contact-mail</title>
    <g id="Icons/Communication/contact-mail" stroke="none" stroke-width="1" fill="none" fill-rule="evenodd">
        <rect id="Spacer" fill-opacity="0" fill="#D8D8D8" x="0" y="0" width="16" height="16"></rect>
        <path d="M14,5.33333332 L14,4.66666665 L12,5.99999999 L10,4.66666665 L10,5.33333332 L12,6.66666665 L14,5.33333332 Z M14.6666667,1.99999996 L1.33333329,1.99999996 C0.599999954,1.99999996 -5.00000006e-08,2.59999997 -5.00000006e-08,3.3333333 L-5.00000006e-08,12.6666667 C-5.00000006e-08,13.4 0.599999954,14 1.33333329,14 L14.6666667,14 C15.4,14 15.9933334,13.4 15.9933334,12.6666667 L15.9999999,3.3333333 C15.9999999,2.59999997 15.4,1.99999996 14.6666667,1.99999996 Z M5.3333333,3.99999997 C6.43999999,3.99999997 7.3333333,4.89333331 7.3333333,5.99999997 C7.3333333,7.10666666 6.43999999,7.99999997 5.3333333,7.99999997 C4.22666664,7.99999997 3.3333333,7.10666666 3.3333333,5.99999997 C3.3333333,4.89333331 4.22666664,3.99999997 5.3333333,3.99999997 Z M9.33333329,12 L1.33333329,12 L1.33333329,11.3333334 C1.33333329,10 3.99999998,9.26666667 5.33333329,9.26666667 C6.66666666,9.26666667 9.33333329,10 9.33333329,11.3333334 L9.33333329,12 Z M14.6666667,7.99999997 L9.33333334,7.99999997 L9.33333334,3.99999997 L14.6666667,3.99999997 L14.6666667,7.99999997 Z" id="Icons/Communication/ic_contact_mail_24px" fill="#233745" fill-rule="nonzero"></path>
    </g>
</svg>