<?xml version="1.0" encoding="UTF-8"?>
<svg width="16px" height="16px" viewBox="0 0 16 16" version="1.1" xmlns="http://www.w3.org/2000/svg" xmlns:xlink="http://www.w3.org/1999/xlink">
    <title>Icons/Communication/dialpad</title>
    <defs>
        <path d="M8,12.6666667 C7.26666666,12.6666667 6.66666666,13.2666667 6.66666666,14 C6.66666666,14.7333334 7.26666666,15.3333334 8,15.3333334 C8.73333334,15.3333334 9.33333334,14.7333334 9.33333334,14 C9.33333334,13.2666667 8.73333334,12.6666667 8,12.6666667 Z M3.99999998,0.666666621 C3.26666664,0.666666621 2.66666663,1.26666662 2.66666663,1.99999996 C2.66666663,2.7333333 3.26666664,3.3333333 3.99999998,3.3333333 C4.73333331,3.3333333 5.33333332,2.7333333 5.33333332,1.99999996 C5.33333332,1.26666662 4.73333331,0.666666621 3.99999998,0.666666621 Z M3.99999998,4.66666665 C3.26666664,4.66666665 2.66666663,5.26666665 2.66666663,5.99999999 C2.66666663,6.73333333 3.26666664,7.33333333 3.99999998,7.33333333 C4.73333331,7.33333333 5.33333332,6.73333333 5.33333332,5.99999999 C5.33333332,5.26666665 4.73333331,4.66666665 3.99999998,4.66666665 Z M3.99999998,8.66666667 C3.26666664,8.66666667 2.66666663,9.26666667 2.66666663,10 C2.66666663,10.7333334 3.26666664,11.3333334 3.99999998,11.3333334 C4.73333331,11.3333334 5.33333332,10.7333334 5.33333332,10 C5.33333332,9.26666667 4.73333331,8.66666667 3.99999998,8.66666667 Z M12,3.3333333 C12.7333334,3.3333333 13.3333334,2.7333333 13.3333334,1.99999996 C13.3333334,1.26666662 12.7333334,0.666666621 12,0.666666621 C11.2666667,0.666666621 10.6666667,1.26666662 10.6666667,1.99999996 C10.6666667,2.7333333 11.2666667,3.3333333 12,3.3333333 Z M8,8.66666667 C7.26666666,8.66666667 6.66666666,9.26666667 6.66666666,10 C6.66666666,10.7333334 7.26666666,11.3333334 8,11.3333334 C8.73333334,11.3333334 9.33333334,10.7333334 9.33333334,10 C9.33333334,9.26666667 8.73333334,8.66666667 8,8.66666667 Z M12,8.66666667 C11.2666667,8.66666667 10.6666667,9.26666667 10.6666667,10 C10.6666667,10.7333334 11.2666667,11.3333334 12,11.3333334 C12.7333334,11.3333334 13.3333334,10.7333334 13.3333334,10 C13.3333334,9.26666667 12.7333334,8.66666667 12,8.66666667 Z M12,4.66666665 C11.2666667,4.66666665 10.6666667,5.26666665 10.6666667,5.99999999 C10.6666667,6.73333333 11.2666667,7.33333333 12,7.33333333 C12.7333334,7.33333333 13.3333334,6.73333333 13.3333334,5.99999999 C13.3333334,5.26666665 12.7333334,4.66666665 12,4.66666665 Z M8,4.66666665 C7.26666666,4.66666665 6.66666666,5.26666665 6.66666666,5.99999999 C6.66666666,6.73333333 7.26666666,7.33333333 8,7.33333333 C8.73333334,7.33333333 9.33333334,6.73333333 9.33333334,5.99999999 C9.33333334,5.26666665 8.73333334,4.66666665 8,4.66666665 Z M8,0.666666621 C7.26666666,0.666666621 6.66666666,1.26666662 6.66666666,1.99999996 C6.66666666,2.7333333 7.26666666,3.3333333 8,3.3333333 C8.73333334,3.3333333 9.33333334,2.7333333 9.33333334,1.99999996 C9.33333334,1.26666662 8.73333334,0.666666621 8,0.666666621 Z" id="path-1"></path>
    </defs>
    <g id="Icons/Communication/dialpad" stroke="none" stroke-width="1" fill="none" fill-rule="evenodd">
        <mask id="mask-2" fill="white">
            <use xlink:href="#path-1"></use>
        </mask>
        <use id="Icons/Communication/ic_dialpad_24px" fill="#233745" fill-rule="nonzero" xlink:href="#path-1"></use>
    </g>
</svg>