<?xml version="1.0" encoding="UTF-8"?>
<svg width="16px" height="16px" viewBox="0 0 16 16" version="1.1" xmlns="http://www.w3.org/2000/svg" xmlns:xlink="http://www.w3.org/1999/xlink">
    <title>Icons/Communication/import-contacts</title>
    <defs>
        <path d="M14,3.3333333 C13.26,3.09999997 12.4466667,2.99999997 11.6666666,2.99999997 C10.3666667,2.99999997 8.96666667,3.26666664 8,3.99999997 C7.03333333,3.26666664 5.63333332,2.99999997 4.33333331,2.99999997 C3.0333333,2.99999997 1.63333329,3.26666664 0.666666621,3.99999997 L0.666666621,13.7666667 C0.666666621,13.9333334 0.833333289,14.1 0.999999956,14.1 C1.06666662,14.1 1.09999996,14.0666667 1.16666662,14.0666667 C2.06666663,13.6333334 3.36666664,13.3333334 4.33333331,13.3333334 C5.63333332,13.3333334 7.03333333,13.6 8,14.3333334 C8.90000001,13.7666667 10.5333333,13.3333334 11.6666666,13.3333334 C12.7666667,13.3333334 13.9,13.5333334 14.8333334,14.0333334 C14.9,14.0666667 14.9333334,14.0666667 15,14.0666667 C15.1666666,14.0666667 15.3333334,13.9 15.3333334,13.7333334 L15.3333334,3.99999997 C14.9333334,3.69999997 14.5,3.49999997 14,3.3333333 Z M14,12.3333333 C13.2666667,12.1 12.4666667,12 11.6666667,12 C10.5333333,12 8.90000001,12.4333334 8,13 L8,5.33333331 C8.90000001,4.76666665 10.5333333,4.33333331 11.6666667,4.33333331 C12.4666667,4.33333331 13.2666667,4.43333331 14,4.66666665 L14,12.3333333 Z" id="path-1"></path>
    </defs>
    <g id="Icons/Communication/import-contacts" stroke="none" stroke-width="1" fill="none" fill-rule="evenodd">
        <mask id="mask-2" fill="white">
            <use xlink:href="#path-1"></use>
        </mask>
        <use id="Icons/Communication/ic_import_contacts_24px" fill="#233745" fill-rule="nonzero" xlink:href="#path-1"></use>
    </g>
</svg>