<?xml version="1.0" encoding="UTF-8"?>
<svg width="16px" height="16px" viewBox="0 0 16 16" version="1.1" xmlns="http://www.w3.org/2000/svg" xmlns:xlink="http://www.w3.org/1999/xlink">
    <title>Icons/Communication/invert-colors-off</title>
    <g id="Icons/Communication/invert-colors-off" stroke="none" stroke-width="1" fill="none" fill-rule="evenodd">
        <rect id="Spacer" fill-opacity="0" fill="#D8D8D8" x="0" y="0" width="16" height="16"></rect>
        <path d="M13.7666667,13.9133334 L12.2,12.3466667 L7.99999996,8.15333333 L5.62666665,5.77333332 L4.67999998,4.83333331 L2.84666663,2.99999997 L1.99999996,3.84666664 L3.85333331,5.69999999 C2.1533333,7.79333333 2.27999996,10.8733334 4.22666664,12.8266667 C5.26666665,13.8666667 6.63333332,14.3866667 7.99999996,14.3866667 C9.19333334,14.3866667 10.38,13.9933334 11.3533334,13.2 L13.1533334,15 L14,14.1533334 L13.7666667,13.9133334 Z M7.99999997,13.06 C6.93333333,13.06 5.92666665,12.6466667 5.17333332,11.8866667 C4.41333331,11.1266667 3.99999997,10.1266667 3.99999997,9.06000001 C3.99999997,8.18 4.28666664,7.34666666 4.80666665,6.65999999 L7.99999997,9.84666668 L7.99999997,13.06 Z M8,3.39999997 L8,6.45333332 L12.8333334,11.2933334 C13.7466667,9.32000001 13.3933334,6.91333333 11.7666667,5.28666665 L8,1.51333329 L5.53333332,3.97999997 L6.47333332,4.91999998 L8,3.39999997 Z" id="Icons/Communication/ic_invert_colors_off_24px" fill="#233745" fill-rule="nonzero"></path>
    </g>
</svg>