<?xml version="1.0" encoding="UTF-8"?>
<svg width="16px" height="16px" viewBox="0 0 16 16" version="1.1" xmlns="http://www.w3.org/2000/svg" xmlns:xlink="http://www.w3.org/1999/xlink">
    <title>Icons/Communication/live-help</title>
    <g id="Icons/Communication/live-help" stroke="none" stroke-width="1" fill="none" fill-rule="evenodd">
        <rect id="Spacer" fill-opacity="0" fill="#D8D8D8" x="0" y="1" width="16" height="16"></rect>
        <path d="M12.6666667,1.33333329 L3.3333333,1.33333329 C2.5933333,1.33333329 1.99999996,1.9333333 1.99999996,2.66666663 L1.99999996,12 C1.99999996,12.7333334 2.5933333,13.3333333 3.3333333,13.3333333 L5.99999996,13.3333333 L7.99999996,15.3333333 L9.99999996,13.3333333 L12.6666667,13.3333333 C13.4,13.3333333 14,12.7333334 14,12 L14,2.66666663 C14,1.9333333 13.4,1.33333329 12.6666667,1.33333329 Z M8.66666667,12 L7.33333333,12 L7.33333333,10.6666667 L8.66666667,10.6666667 L8.66666667,12 Z M10.0466667,6.83333333 L9.44666668,7.44666666 C8.96666667,7.93333333 8.66666667,8.33333334 8.66666667,9.33333334 L7.33333332,9.33333334 L7.33333332,9.00000001 C7.33333332,8.26666667 7.63333333,7.6 8.11333333,7.11333333 L8.94000001,6.27333332 C9.18666667,6.03333332 9.33333332,5.69999999 9.33333332,5.33333332 C9.33333332,4.59999998 8.73333334,3.99999998 8,3.99999998 C7.26666666,3.99999998 6.66666666,4.59999998 6.66666666,5.33333332 L5.33333332,5.33333332 C5.33333332,3.85999997 6.52666666,2.66666663 8,2.66666663 C9.47333334,2.66666663 10.6666667,3.85999997 10.6666667,5.33333332 C10.6666667,5.91999999 10.4266667,6.45333332 10.0466667,6.83333333 Z" id="Icons/Communication/ic_live_help_24px" fill="#233745" fill-rule="nonzero"></path>
    </g>
</svg>