<?xml version="1.0" encoding="UTF-8"?>
<svg width="16px" height="16px" viewBox="0 0 16 16" version="1.1" xmlns="http://www.w3.org/2000/svg" xmlns:xlink="http://www.w3.org/1999/xlink">
    <title>Icons/Communication/message</title>
    <defs>
        <path d="M13.3333333,1.33333329 L2.66666663,1.33333329 C1.9333333,1.33333329 1.33999996,1.9333333 1.33999996,2.66666663 L1.33333329,14.6666667 L3.99999998,12 L13.3333333,12 C14.0666667,12 14.6666667,11.4 14.6666667,10.6666667 L14.6666667,2.66666663 C14.6666667,1.9333333 14.0666667,1.33333329 13.3333333,1.33333329 Z M12,9.33333334 L3.99999998,9.33333334 L3.99999998,8 L12,8 L12,9.33333334 Z M12,7.33333333 L3.99999998,7.33333333 L3.99999998,5.99999999 L12,5.99999999 L12,7.33333333 Z M12,5.33333332 L3.99999998,5.33333332 L3.99999998,3.99999998 L12,3.99999998 L12,5.33333332 Z" id="path-1"></path>
    </defs>
    <g id="Icons/Communication/message" stroke="none" stroke-width="1" fill="none" fill-rule="evenodd">
        <mask id="mask-2" fill="white">
            <use xlink:href="#path-1"></use>
        </mask>
        <use id="Icons/Communication/ic_message_24px" fill="#233745" fill-rule="nonzero" xlink:href="#path-1"></use>
    </g>
</svg>