<?xml version="1.0" encoding="UTF-8"?>
<svg width="16px" height="16px" viewBox="0 0 16 16" version="1.1" xmlns="http://www.w3.org/2000/svg" xmlns:xlink="http://www.w3.org/1999/xlink">
    <title>Icons/Communication/phonelink-erase</title>
    <g id="Icons/Communication/phonelink-erase" stroke="none" stroke-width="1" fill="none" fill-rule="evenodd">
        <rect id="Spacer" fill-opacity="0" fill="#D8D8D8" x="0" y="0" width="16" height="16"></rect>
        <path d="M8.66666667,5.46666665 L7.99999996,4.79999998 L5.33333332,7.46666666 L2.66666663,4.79999998 L1.99999996,5.46666665 L4.66666665,8.13333333 L1.99999996,10.8 L2.66666663,11.4666667 L5.33333332,8.79999998 L7.99999996,11.4666667 L8.66666667,10.8 L5.99999996,8.13333333 L8.66666667,5.46666665 Z M12.6666666,0.666666621 L5.99999999,0.666666621 C5.26666665,0.666666621 4.66666665,1.26666662 4.66666665,1.99999996 L4.66666665,3.99999997 L5.99999999,3.99999997 L5.99999999,2.66666662 L12.6666666,2.66666662 L12.6666666,13.3333334 L5.99999999,13.3333334 L5.99999999,12 L4.66666665,12 L4.66666665,14 C4.66666665,14.7333334 5.26666665,15.3333334 5.99999999,15.3333334 L12.6666666,15.3333334 C13.4,15.3333334 14,14.7333334 14,14 L14,1.99999996 C14,1.26666662 13.4,0.666666621 12.6666666,0.666666621 Z" id="Icons/Communication/ic_phonelink_erase_24px" fill="#233745" fill-rule="nonzero"></path>
    </g>
</svg>