<?xml version="1.0" encoding="UTF-8"?>
<svg width="16px" height="16px" viewBox="0 0 16 16" version="1.1" xmlns="http://www.w3.org/2000/svg" xmlns:xlink="http://www.w3.org/1999/xlink">
    <title>Icons/Communication/phonelink-lock</title>
    <defs>
        <path d="M12.6666666,0.666666621 L5.99999999,0.666666621 C5.26666665,0.666666621 4.66666665,1.26666662 4.66666665,1.99999996 L4.66666665,3.99999997 L5.99999999,3.99999997 L5.99999999,2.66666662 L12.6666666,2.66666662 L12.6666666,13.3333334 L5.99999999,13.3333334 L5.99999999,12 L4.66666665,12 L4.66666665,14 C4.66666665,14.7333334 5.26666665,15.3333334 5.99999999,15.3333334 L12.6666666,15.3333334 C13.4,15.3333334 14,14.7333334 14,14 L14,1.99999996 C14,1.26666662 13.4,0.666666621 12.6666666,0.666666621 Z M7.2,7.33333333 L7.2,6.33333332 C7.2,5.39999998 6.26666666,4.66666665 5.33333332,4.66666665 C4.39999998,4.66666665 3.46666664,5.39999998 3.46666664,6.33333332 L3.46666664,7.33333333 C3.06666664,7.33333333 2.66666663,7.73333333 2.66666663,8.13333333 L2.66666663,10.4666667 C2.66666663,10.9333334 3.06666664,11.3333334 3.46666664,11.3333334 L7.13333333,11.3333334 C7.6,11.3333334 8,10.9333334 8,10.5333333 L8,8.2 C8,7.73333333 7.6,7.33333333 7.2,7.33333333 Z M6.33333331,7.33333333 L4.33333331,7.33333333 L4.33333331,6.33333332 C4.33333331,5.79999999 4.79999998,5.46666665 5.33333331,5.46666665 C5.86666665,5.46666665 6.33333331,5.79999999 6.33333331,6.33333332 L6.33333331,7.33333333 Z" id="path-1"></path>
    </defs>
    <g id="Icons/Communication/phonelink-lock" stroke="none" stroke-width="1" fill="none" fill-rule="evenodd">
        <mask id="mask-2" fill="white">
            <use xlink:href="#path-1"></use>
        </mask>
        <use id="Icons/Communication/ic_phonelink_lock_24px" fill="#233745" fill-rule="nonzero" xlink:href="#path-1"></use>
    </g>
</svg>