<?xml version="1.0" encoding="UTF-8"?>
<svg width="16px" height="16px" viewBox="0 0 16 16" version="1.1" xmlns="http://www.w3.org/2000/svg" xmlns:xlink="http://www.w3.org/1999/xlink">
    <title>Icons/Communication/portable-wifi-off</title>
    <defs>
        <path d="M11.7066667,9.49333334 C11.8933334,9.03333334 12,8.52666667 12,7.99999997 C12,5.79333332 10.2066667,3.99999998 8,3.99999998 C7.47333333,3.99999998 6.96666666,4.10666664 6.50666666,4.29333331 L7.58666666,5.37333332 C7.72,5.35333332 7.86,5.33333332 8,5.33333332 C9.47333334,5.33333332 10.6666667,6.52666666 10.6666667,7.99999997 C10.6666667,8.14 10.6533333,8.28 10.6333333,8.42 L11.7066667,9.49333334 Z M8,2.66666663 C10.9466667,2.66666663 13.3333334,5.05333331 13.3333334,8 C13.3333334,8.90000001 13.1,9.74666668 12.7,10.4933333 L13.68,11.4733334 C14.3066667,10.46 14.6666667,9.27333334 14.6666667,8 C14.6666667,4.31999998 11.68,1.33333329 8,1.33333329 C6.72666666,1.33333329 5.53999998,1.69999996 4.52666664,2.3133333 L5.49999998,3.28666664 C6.24666666,2.8933333 7.09999999,2.66666663 8,2.66666663 Z M2.17999996,1.66666663 L1.33333329,2.5133333 L2.7333333,3.91333331 C1.85999996,5.04666665 1.33333329,6.45999999 1.33333329,8 C1.33333329,10.4666667 2.6733333,12.6133334 4.65999998,13.7666667 L5.32666665,12.6133334 C3.73999997,11.6866667 2.66666663,9.97333335 2.66666663,8 C2.66666663,6.82666666 3.04666664,5.74666665 3.68666664,4.87333331 L4.63999998,5.83333332 C4.23999998,6.45333332 3.99999998,7.2 3.99999998,8 C3.99999998,9.48000001 4.80666665,10.7666667 5.99999999,11.46 L6.66666666,10.3 C5.87333332,9.83333334 5.33333329,8.98666667 5.33333329,8 C5.33333329,7.56666666 5.44666665,7.16666663 5.62666665,6.80666666 L6.67999999,7.86 L6.66666666,8 C6.66666666,8.73333334 7.26666666,9.33333334 8,9.33333334 L8.14,9.32000001 L8.14666667,9.32666667 L13.1533334,14.3333334 L14,13.4866667 L2.84666663,2.3333333 L2.17999996,1.66666663 Z" id="path-1"></path>
    </defs>
    <g id="Icons/Communication/portable-wifi-off" stroke="none" stroke-width="1" fill="none" fill-rule="evenodd">
        <mask id="mask-2" fill="white">
            <use xlink:href="#path-1"></use>
        </mask>
        <use id="Icons/Communication/ic_portable_wifi_off_24px" fill="#233745" fill-rule="nonzero" xlink:href="#path-1"></use>
    </g>
</svg>