<svg xmlns="http://www.w3.org/2000/svg" xmlns:xlink="http://www.w3.org/1999/xlink" width="16" height="16" viewBox="0 0 16 16">
  <defs>
    <path id="present-to-all-a" d="M14,1.99999996 L1.99999996,1.99999996 C1.25999996,1.99999996 0.666666621,2.5933333 0.666666621,3.3333333 L0.666666621,12.6666667 C0.666666621,13.4066667 1.25999996,14 1.99999996,14 L14,14 C14.74,14 15.3333334,13.4066667 15.3333334,12.6666667 L15.3333334,3.3333333 C15.3333334,2.5933333 14.74,1.99999996 14,1.99999996 Z M14,12.68 L1.99999996,12.68 L1.99999996,3.31999997 L14,3.31999997 L14,12.68 Z M6.66666666,8 L5.33333332,8 L8,5.33333332 L10.6666667,8 L9.33333332,8 L9.33333332,10.6666667 L6.66666666,10.6666667 L6.66666666,8 Z"/>
  </defs>
  <g fill="none" fill-rule="evenodd">
    <mask id="present-to-all-b" fill="#fff">
      <use xlink:href="#present-to-all-a"/>
    </mask>
    <g fill="CurrentColor" mask="url(#present-to-all-b)">
      <rect width="16" height="16"/>
    </g>
  </g>
</svg>
