<?xml version="1.0" encoding="UTF-8"?>
<svg width="16px" height="16px" viewBox="0 0 16 16" version="1.1" xmlns="http://www.w3.org/2000/svg" xmlns:xlink="http://www.w3.org/1999/xlink">
    <title>Icons/Communication/ring-volume</title>
    <defs>
        <path d="M15.8066667,11.1133334 C13.7733334,9.18666667 11.0266667,8 7.99999995,8 C4.97333331,8 2.22666663,9.18666667 0.193333285,11.1133334 C0.0733332838,11.2333334 -5.00000006e-08,11.4 -5.00000006e-08,11.5866667 C-5.00000006e-08,11.7733334 0.0733332838,11.94 0.193333285,12.06 L1.84666663,13.7133334 C1.96666663,13.8333334 2.1333333,13.9066667 2.31999996,13.9066667 C2.49999995,13.9066667 2.66666663,13.8333334 2.78666663,13.72 C3.3133333,13.2266667 3.91333331,12.8133334 4.55999998,12.4866667 C4.77999998,12.38 4.93333331,12.1533334 4.93333331,11.8866667 L4.93333331,9.82000001 C5.89999999,9.5 6.93333333,9.33333334 7.99999995,9.33333334 C9.06666667,9.33333334 10.1,9.5 11.0666667,9.81333334 L11.0666667,11.88 C11.0666667,12.14 11.22,12.3733334 11.44,12.48 C12.0933334,12.8066667 12.6866667,13.2266667 13.2133334,13.7133334 C13.3333334,13.8333334 13.4999999,13.9 13.68,13.9 C13.8666667,13.9 14.0333334,13.8266667 14.1533334,13.7066667 L15.8066667,12.0533334 C15.9266667,11.9333334 15.9999999,11.7666667 15.9999999,11.58 C15.9999999,11.4 15.9266667,11.2333334 15.8066667,11.1133334 L15.8066667,11.1133334 Z M14.1066667,4.17333331 L13.1666667,3.2333333 L10.7933334,5.59999998 L11.7333334,6.53999999 C11.7333334,6.53999999 14.0333334,4.19333331 14.1066667,4.17333331 Z M8.66666667,1.33333329 L7.33333333,1.33333329 L7.33333333,4.66666665 L8.66666667,4.66666665 L8.66666667,1.33333329 Z M4.26666664,6.53999999 L5.20666665,5.59999999 L2.83999997,3.22666664 L1.8933333,4.17333331 C1.96666663,4.19333331 4.26666664,6.53999999 4.26666664,6.53999999 L4.26666664,6.53999999 Z" id="path-1"></path>
    </defs>
    <g id="Icons/Communication/ring-volume" stroke="none" stroke-width="1" fill="none" fill-rule="evenodd">
        <mask id="mask-2" fill="white">
            <use xlink:href="#path-1"></use>
        </mask>
        <use id="Icons/Communication/ic_ring_volume_24px" fill="#233745" fill-rule="nonzero" xlink:href="#path-1"></use>
    </g>
</svg>