<?xml version="1.0" encoding="UTF-8"?>
<svg width="16px" height="16px" viewBox="0 0 16 16" version="1.1" xmlns="http://www.w3.org/2000/svg" xmlns:xlink="http://www.w3.org/1999/xlink">
    <title>Icons/Communication/rss-feed</title>
    <defs>
        <path d="M4.11999998,10.4266667 C4.92265382,10.4266667 5.57333332,11.0773462 5.57333332,11.88 C5.57333332,12.6826539 4.92265382,13.3333334 4.11999998,13.3333334 C3.31734613,13.3333334 2.66666663,12.6826539 2.66666663,11.88 C2.66666663,11.0773462 3.31734613,10.4266667 4.11999998,10.4266667 Z M2.66666663,2.95999997 C8.39333334,2.95999997 13.04,7.60666666 13.04,13.3333334 L13.04,13.3333334 L11.1533334,13.3333334 C11.1533334,8.64666667 7.35333333,4.84666665 2.66666663,4.84666665 L2.66666663,4.84666665 Z M2.66666663,6.73333333 C6.31333332,6.73333333 9.26666667,9.68666668 9.26666667,13.3333334 L9.26666667,13.3333334 L7.38,13.3333334 C7.38,10.7333333 5.26666665,8.62 2.66666663,8.62 L2.66666663,8.62 Z" id="path-1"></path>
    </defs>
    <g id="Icons/Communication/rss-feed" stroke="none" stroke-width="1" fill="none" fill-rule="evenodd">
        <mask id="mask-2" fill="white">
            <use xlink:href="#path-1"></use>
        </mask>
        <use id="Combined-Shape" fill="#233745" fill-rule="nonzero" xlink:href="#path-1"></use>
    </g>
</svg>