<?xml version="1.0" encoding="UTF-8"?>
<svg width="16px" height="16px" viewBox="0 0 16 16" version="1.1" xmlns="http://www.w3.org/2000/svg" xmlns:xlink="http://www.w3.org/1999/xlink">
    <title>Icons/Communication/screen-share</title>
    <defs>
        <path d="M13.3333334,12 C14.0666667,12 14.66,11.4 14.66,10.6666666 L14.6666667,3.99999997 C14.6666667,3.25999997 14.0666667,2.66666663 13.3333334,2.66666663 L2.66666663,2.66666663 C1.92666663,2.66666663 1.33333329,3.25999997 1.33333329,3.99999997 L1.33333329,10.6666666 C1.33333329,11.4 1.92666663,12 2.66666663,12 L-5.00000006e-08,12 L-5.00000006e-08,13.3333334 L15.9999999,13.3333334 L15.9999999,12 L13.3333334,12 Z M8.66666665,9.64666668 L8.66666665,8.18666667 C6.81333333,8.18666667 5.59333332,8.75333334 4.66666665,10 C5.03999998,8.22 6.07333332,6.44666666 8.66666665,6.08666665 L8.66666665,4.66666665 L11.3333334,7.15333333 L8.66666665,9.64666668 Z" id="path-1"></path>
    </defs>
    <g id="Icons/Communication/screen-share" stroke="none" stroke-width="1" fill="none" fill-rule="evenodd">
        <mask id="mask-2" fill="white">
            <use xlink:href="#path-1"></use>
        </mask>
        <use id="Icons/Communication/ic_screen_share_24px" fill="#233745" fill-rule="nonzero" xlink:href="#path-1"></use>
    </g>
</svg>