<?xml version="1.0" encoding="UTF-8"?>
<svg width="16px" height="16px" viewBox="0 0 16 16" version="1.1" xmlns="http://www.w3.org/2000/svg" xmlns:xlink="http://www.w3.org/1999/xlink">
    <title>Icons/Communication/stop-screen-share</title>
    <defs>
        <path d="M14.1466667,12.0133334 L15.48,13.3466667 L16,13.3466667 L16,12.0133334 L14.1466667,12.0133334 Z M14.66,10.68 L14.6666667,4.01333331 C14.6666667,3.2733333 14.0666667,2.67999997 13.3333334,2.67999997 L4.81333331,2.67999997 L8.3,6.16666666 C8.42,6.13999999 8.54,6.11999999 8.66666667,6.09999999 L8.66666667,4.67999997 L11.3333334,7.16666666 L10.28,8.14666667 L13.9733334,11.84 C14.38,11.62 14.66,11.18 14.66,10.68 L14.66,10.68 Z M1.59333329,1.15333329 L0.739999955,1.99999996 L1.76666663,3.02666664 C1.49999995,3.26666664 1.33333329,3.61999997 1.33333329,4.01333331 L1.33333329,10.68 C1.33333329,11.4133334 1.92666663,12.0133334 2.66666663,12.0133334 L-5.00000006e-08,12.0133334 L-5.00000006e-08,13.3466667 L12.0866667,13.3466667 L13.8933334,15.1533333 L14.74,14.3066667 L1.59333329,1.15333329 Z M4.66666665,10.0133333 C4.87333331,9.02666667 5.27999998,8.04666667 6.04666665,7.30666666 L7.10666666,8.36666667 C6.07999999,8.62 5.30666665,9.15333334 4.66666665,10.0133333 L4.66666665,10.0133333 Z" id="path-1"></path>
    </defs>
    <g id="Icons/Communication/stop-screen-share" stroke="none" stroke-width="1" fill="none" fill-rule="evenodd">
        <mask id="mask-2" fill="white">
            <use xlink:href="#path-1"></use>
        </mask>
        <use id="Icons/Communication/ic_stop_screen_share_24px" fill="#233745" fill-rule="nonzero" xlink:href="#path-1"></use>
    </g>
</svg>