<?xml version="1.0" encoding="UTF-8"?>
<svg width="16px" height="16px" viewBox="0 0 16 16" version="1.1" xmlns="http://www.w3.org/2000/svg" xmlns:xlink="http://www.w3.org/1999/xlink">
    <title>Icons/Communication/swap-calls</title>
    <defs>
        <path d="M12,2.66666663 L9.33333329,5.33333332 L11.3333333,5.33333332 L11.3333333,10 C11.3333333,10.7333334 10.7333334,11.3333334 10,11.3333334 C9.26666667,11.3333334 8.66666667,10.7333334 8.66666667,10 L8.66666667,5.33333332 C8.66666667,3.85999997 7.47333333,2.66666663 5.99999999,2.66666663 C4.52666664,2.66666663 3.33333329,3.85999997 3.33333329,5.33333332 L3.33333329,10 L1.33333329,10 L3.99999998,12.6666666 L6.66666666,10 L4.66666665,10 L4.66666665,5.33333332 C4.66666665,4.59999998 5.26666665,3.99999997 5.99999999,3.99999997 C6.73333333,3.99999997 7.33333329,4.59999998 7.33333329,5.33333332 L7.33333329,10 C7.33333329,11.4733334 8.52666667,12.6666666 10,12.6666666 C11.4733334,12.6666666 12.6666667,11.4733334 12.6666667,10 L12.6666667,5.33333332 L14.6666667,5.33333332 L12,2.66666663 Z" id="path-1"></path>
    </defs>
    <g id="Icons/Communication/swap-calls" stroke="none" stroke-width="1" fill="none" fill-rule="evenodd">
        <mask id="mask-2" fill="white">
            <use xlink:href="#path-1"></use>
        </mask>
        <use id="Icons/Communication/ic_swap_calls_24px" fill="#233745" fill-rule="nonzero" xlink:href="#path-1"></use>
    </g>
</svg>