<?xml version="1.0" encoding="UTF-8"?>
<svg width="16px" height="16px" viewBox="0 0 16 16" version="1.1" xmlns="http://www.w3.org/2000/svg" xmlns:xlink="http://www.w3.org/1999/xlink">
    <title>Icons/Communication/voicemail</title>
    <defs>
        <path d="M12.3333334,3.99999998 C10.3066667,3.99999998 8.66666667,5.63999999 8.66666667,7.66666666 C8.66666667,8.55333334 8.98000001,9.36666668 9.50666668,9.99999997 L6.49333332,9.99999997 C7.01999999,9.36666668 7.33333333,8.55333334 7.33333333,7.66666666 C7.33333333,5.63999999 5.69333332,3.99999998 3.66666664,3.99999998 C1.63999996,3.99999998 -5.00000006e-08,5.63999999 -5.00000006e-08,7.66666666 C-5.00000006e-08,9.69333334 1.63999996,11.3333334 3.66666664,11.3333334 L12.3333334,11.3333334 C14.36,11.3333334 15.9999999,9.69333334 15.9999999,7.66666666 C15.9999999,5.63999999 14.36,3.99999998 12.3333334,3.99999998 Z M3.66666664,10 C2.37999996,10 1.33333329,8.95333334 1.33333329,7.66666666 C1.33333329,6.37999999 2.37999996,5.33333332 3.66666664,5.33333332 C4.95333331,5.33333332 5.99999999,6.37999999 5.99999999,7.66666666 C5.99999999,8.95333334 4.95333331,10 3.66666664,10 Z M12.3333334,10 C11.0466667,10 10,8.95333334 10,7.66666666 C10,6.37999999 11.0466667,5.33333332 12.3333334,5.33333332 C13.62,5.33333332 14.6666667,6.37999999 14.6666667,7.66666666 C14.6666667,8.95333334 13.62,10 12.3333334,10 Z" id="path-1"></path>
    </defs>
    <g id="Icons/Communication/voicemail" stroke="none" stroke-width="1" fill="none" fill-rule="evenodd">
        <mask id="mask-2" fill="white">
            <use xlink:href="#path-1"></use>
        </mask>
        <use id="Icons/Communication/ic_voicemail_24px" fill="#233745" fill-rule="nonzero" xlink:href="#path-1"></use>
    </g>
</svg>