<?xml version="1.0" encoding="UTF-8"?>
<svg width="16px" height="16px" viewBox="0 0 16 16" version="1.1" xmlns="http://www.w3.org/2000/svg" xmlns:xlink="http://www.w3.org/1999/xlink">
    <title>Icons/File/attachment</title>
    <g id="Icons/File/attachment" stroke="none" stroke-width="1" fill="none" fill-rule="evenodd">
        <rect id="Spacer" fill-opacity="0" fill="#D8D8D8" x="0" y="0" width="16" height="16"></rect>
        <path d="M13.3333334,4.44444442 L3.55555553,4.44444442 C1.59999996,4.44444442 -5.00000006e-08,6.04444443 -5.00000006e-08,8 C-5.00000006e-08,9.95555557 1.59999996,11.5555556 3.55555553,11.5555556 L12.4444445,11.5555556 L12.4444445,10.6666667 L3.55555553,10.6666667 C2.04444441,10.6666667 0.888888844,9.51111112 0.888888844,8 C0.888888844,6.48888888 2.04444441,5.33333332 3.55555553,5.33333332 L13.3333334,5.33333332 C14.3111112,5.33333332 15.1111112,6.13333332 15.1111112,7.11111111 C15.1111112,8.08888889 14.3111112,8.88888889 13.3333334,8.88888889 L5.33333332,8.88888889 C4.79999998,8.88888889 4.44444442,8.53333334 4.44444442,8 C4.44444442,7.46666666 4.79999998,7.11111111 5.33333332,7.11111111 L12.4444445,7.11111111 L12.4444445,6.22222221 L5.33333332,6.22222221 C4.35555553,6.22222221 3.55555553,7.02222222 3.55555553,8 C3.55555553,8.97777778 4.35555553,9.77777779 5.33333332,9.77777779 L13.3333334,9.77777779 C14.8444445,9.77777779 15.9999999,8.62222223 15.9999999,7.11111111 C15.9999999,5.59999999 14.8444445,4.44444442 13.3333334,4.44444442 Z" id="Icons/File/ic_attachment_18px" fill="#233745" fill-rule="nonzero"></path>
    </g>
</svg>