<svg xmlns="http://www.w3.org/2000/svg" xmlns:xlink="http://www.w3.org/1999/xlink" width="16" height="16" viewBox="0 0 16 16">
  <defs>
    <path id="cloud-queue-a" d="M12.9,6.69333333 C12.4466667,4.39333331 10.4266667,2.66666663 7.99999995,2.66666663 C6.07333332,2.66666663 4.39999998,3.75999997 3.56666664,5.35999998 C1.55999996,5.57333332 -5.00000006e-08,7.27333333 -5.00000006e-08,9.33333334 C-5.00000006e-08,11.54 1.79333329,13.3333334 3.99999995,13.3333334 L12.6666667,13.3333334 C14.5066667,13.3333334 15.9999999,11.84 15.9999999,10 C15.9999999,8.24 14.6333334,6.81333333 12.9,6.69333333 Z M12.6666667,12 L3.99999997,12 C2.52666663,12 1.33333329,10.8066667 1.33333329,9.33333334 C1.33333329,7.86 2.52666663,6.66666666 3.99999997,6.66666666 L4.47333331,6.66666666 C4.91333331,5.12666665 6.31999999,3.99999997 8,3.99999997 C10.0266667,3.99999997 11.6666667,5.63999999 11.6666667,7.66666666 L11.6666667,7.99999997 L12.6666667,7.99999997 C13.7733334,7.99999997 14.6666667,8.89333334 14.6666667,9.99999997 C14.6666667,11.1066667 13.7733334,12 12.6666667,12 Z"/>
  </defs>
  <g fill="none" fill-rule="evenodd">
    <mask id="cloud-queue-b" fill="#fff">
      <use xlink:href="#cloud-queue-a"/>
    </mask>
    <g fill="CurrentColor" mask="url(#cloud-queue-b)">
      <rect width="16" height="16"/>
    </g>
  </g>
</svg>
