<?xml version="1.0" encoding="UTF-8"?>
<svg width="16px" height="16px" viewBox="0 0 16 16" version="1.1" xmlns="http://www.w3.org/2000/svg" xmlns:xlink="http://www.w3.org/1999/xlink">
    <title>Icons/File/cloud-queue</title>
    <defs>
        <path d="M12.9,6.69333333 C12.4466667,4.39333331 10.4266667,2.66666663 7.99999995,2.66666663 C6.07333332,2.66666663 4.39999998,3.75999997 3.56666664,5.35999998 C1.55999996,5.57333332 -5.00000006e-08,7.27333333 -5.00000006e-08,9.33333334 C-5.00000006e-08,11.54 1.79333329,13.3333334 3.99999995,13.3333334 L12.6666667,13.3333334 C14.5066667,13.3333334 15.9999999,11.84 15.9999999,10 C15.9999999,8.24 14.6333334,6.81333333 12.9,6.69333333 Z M12.6666667,12 L3.99999998,12 C2.52666663,12 1.33333329,10.8066667 1.33333329,9.33333334 C1.33333329,7.86 2.52666663,6.66666666 3.99999998,6.66666666 L4.47333331,6.66666666 C4.91333331,5.12666665 6.31999999,3.99999998 8,3.99999998 C10.0266667,3.99999998 11.6666667,5.63999999 11.6666667,7.66666666 L11.6666667,7.99999997 L12.6666667,7.99999997 C13.7733334,7.99999997 14.6666667,8.89333334 14.6666667,9.99999997 C14.6666667,11.1066667 13.7733334,12 12.6666667,12 Z" id="path-1"></path>
    </defs>
    <g id="Icons/File/cloud-queue" stroke="none" stroke-width="1" fill="none" fill-rule="evenodd">
        <mask id="mask-2" fill="white">
            <use xlink:href="#path-1"></use>
        </mask>
        <use id="Icons/File/ic_cloud_queue_24px" fill="#233745" fill-rule="nonzero" xlink:href="#path-1"></use>
    </g>
</svg>