<svg xmlns="http://www.w3.org/2000/svg" xmlns:xlink="http://www.w3.org/1999/xlink" width="16" height="16" viewBox="0 0 16 16">
  <defs>
    <path id="folder-shared-a" d="M14.2222223,3.55555553 L8.88888884,3.55555553 L7.11111111,1.77777774 L1.77777774,1.77777774 C1.28888885,1.77777774 0.888888844,2.17777774 0.888888844,2.66666663 L0.888888844,13.3333334 C0.888888844,13.8222223 1.28888885,14.2222223 1.77777774,14.2222223 L14.2222223,14.2222223 C14.7111112,14.2222223 15.1111112,13.8222223 15.1111112,13.3333334 L15.1111112,4.44444442 C15.1111112,3.95555553 14.7111112,3.55555553 14.2222223,3.55555553 Z M10.2222222,5.99999999 C11.0844445,5.99999999 11.7777778,6.69333333 11.7777778,7.55555555 C11.7777778,8.41777778 11.0844445,9.11111112 10.2222222,9.11111112 C9.36000001,9.11111112 8.66666667,8.41777778 8.66666667,7.55555555 C8.66666667,6.69333333 9.36000001,5.99999999 10.2222222,5.99999999 Z M13.3333334,12.4444445 L7.11111111,12.4444445 L7.11111111,11.3333334 C7.11111111,10.2933333 9.18222223,9.77777779 10.2222222,9.77777779 C11.2622222,9.77777779 13.3333334,10.2933333 13.3333334,11.3333334 L13.3333334,12.4444445 Z"/>
  </defs>
  <g fill="none" fill-rule="evenodd">
    <mask id="folder-shared-b" fill="#fff">
      <use xlink:href="#folder-shared-a"/>
    </mask>
    <g fill="CurrentColor" mask="url(#folder-shared-b)">
      <rect width="16" height="16"/>
    </g>
  </g>
</svg>
