
<svg viewBox="0 0 726 225" version="1.1" xmlns="http://www.w3.org/2000/svg" xmlns:xlink="http://www.w3.org/1999/xlink">
    <g id="Docs-Images" stroke="none" stroke-width="1" fill="none" fill-rule="evenodd">
        <g id="Textareas" transform="translate(-200.000000, -416.000000)">
            <g id="Group-3" transform="translate(200.000000, 416.000000)">
                <rect id="Rectangle" stroke="#B8C7D2" fill="#FFFFFF" x="0.5" y="0.5" width="725" height="192"></rect>
                <g id="Forms/Textarea/Filled" transform="translate(234.000000, 50.000000)">
                    <g>
                        <rect id="Rectangle" stroke="#B8C7D2" fill="#FFFFFF" x="-0.5" y="-0.5" width="261" height="81" rx="3"></rect>
                        <text id="Textarea-user-input" font-family="Lato-Medium, Lato" font-size="14" font-weight="400" line-spacing="18" fill="#253B53">
                            <tspan x="14" y="41">Textarea user input</tspan>
                        </text>
                        <text id="First-Name-(optional" font-family="Lato-Medium, Lato" font-size="12" font-weight="400" fill="#748999">
                            <tspan x="14" y="20">First Name (optional)</tspan>
                        </text>
                    </g>
                    <g id="Resize" transform="translate(255.889087, 75.889087) rotate(45.000000) translate(-255.889087, -75.889087) translate(253.889087, 72.389087)" fill="#748999">
                        <rect id="Line" x="0.828427125" y="0.414213562" width="1" height="6" rx="0.5"></rect>
                        <rect id="Line" x="2.82842712" y="1.41421356" width="1" height="4" rx="0.5"></rect>
                    </g>
                </g>
                <path d="M124.0255,75.628 L124.0255,77 L118.2015,77 L118.2015,66.92 L119.8395,66.92 L119.8395,75.628 L124.0255,75.628 Z M128.9675,73.878 C128.430831,73.8966668 127.978169,73.939833 127.6095,74.0075 C127.240831,74.075167 126.942168,74.1614995 126.7135,74.2665 C126.484832,74.3715005 126.320334,74.4963326 126.22,74.641 C126.119666,74.7856674 126.0695,74.9443325 126.0695,75.117 C126.0695,75.2850008 126.096333,75.4284994 126.15,75.5475 C126.203667,75.6665006 126.278333,75.7644996 126.374,75.8415 C126.469667,75.9185004 126.581666,75.9744998 126.71,76.0095 C126.838334,76.0445002 126.979499,76.062 127.1335,76.062 C127.525502,76.062 127.862665,75.9885007 128.145,75.8415 C128.427335,75.6944993 128.701499,75.4810014 128.9675,75.201 L128.9675,73.878 Z M124.9775,70.854 C125.784837,70.1026629 126.746161,69.727 127.8615,69.727 C128.272169,69.727 128.637332,69.7934993 128.957,69.9265 C129.276668,70.0595007 129.544999,70.2473321 129.762,70.49 C129.979001,70.7326679 130.144666,71.0208317 130.259,71.3545 C130.373334,71.6881683 130.4305,72.057998 130.4305,72.464 L130.4305,77 L129.7585,77 C129.613833,77 129.504167,76.9778336 129.4295,76.9335 C129.354833,76.8891664 129.291834,76.799334 129.2405,76.664 L129.0935,76.083 C128.911499,76.2463341 128.731834,76.392166 128.5545,76.5205 C128.377166,76.648834 128.194001,76.7573329 128.005,76.846 C127.815999,76.9346671 127.613001,77.0011664 127.396,77.0455 C127.178999,77.0898336 126.939835,77.112 126.6785,77.112 C126.389165,77.112 126.119668,77.0723337 125.87,76.993 C125.620332,76.9136663 125.404501,76.7935008 125.2225,76.6325 C125.040499,76.4714992 124.897001,76.2720012 124.792,76.034 C124.686999,75.7959988 124.6345,75.5160016 124.6345,75.194 C124.6345,74.9186653 124.707999,74.6503346 124.855,74.389 C125.002001,74.1276654 125.244665,73.8931677 125.583,73.6855 C125.921335,73.4778323 126.366997,73.306334 126.92,73.171 C127.473003,73.035666 128.155496,72.9586668 128.9675,72.94 L128.9675,72.464 C128.9675,71.9506641 128.857834,71.5680013 128.6385,71.316 C128.419166,71.0639987 128.097169,70.938 127.6725,70.938 C127.383165,70.938 127.140501,70.9741663 126.9445,71.0465 C126.748499,71.1188337 126.578167,71.1969996 126.4335,71.281 C126.288833,71.3650004 126.160501,71.4431663 126.0485,71.5155 C125.936499,71.5878337 125.817501,71.624 125.6915,71.624 C125.588833,71.624 125.501334,71.5971669 125.429,71.5435 C125.356666,71.4898331 125.297167,71.4233337 125.2505,71.344 L124.9775,70.854 Z M133.6925,75.208 C133.902501,75.478668 134.132332,75.6688328 134.382,75.7785 C134.631668,75.8881672 134.903499,75.943 135.1975,75.943 C135.79017,75.943 136.252165,75.7283355 136.5835,75.299 C136.914835,74.8696645 137.0805,74.2046712 137.0805,73.304 C137.0805,72.4826626 136.937001,71.8830019 136.65,71.505 C136.362999,71.1269981 135.953503,70.938 135.4215,70.938 C135.052831,70.938 134.732001,71.0208325 134.459,71.1865 C134.185999,71.3521675 133.930501,71.5889985 133.6925,71.897 L133.6925,75.208 Z M133.6925,70.805 C133.986501,70.4829984 134.315498,70.2263343 134.6795,70.035 C135.043502,69.8436657 135.458831,69.748 135.9255,69.748 C136.340835,69.748 136.715332,69.8284992 137.049,69.9895 C137.382668,70.1505008 137.666166,70.3826651 137.8995,70.686 C138.132835,70.9893348 138.312499,71.3568312 138.4385,71.7885 C138.564501,72.2201688 138.6275,72.706664 138.6275,73.248 C138.6275,73.8266696 138.556334,74.352831 138.414,74.8265 C138.271666,75.300169 138.067501,75.706165 137.8015,76.0445 C137.535499,76.382835 137.213502,76.6441657 136.8355,76.8285 C136.457498,77.0128343 136.035169,77.105 135.5685,77.105 C135.339832,77.105 135.132168,77.0828336 134.9455,77.0385 C134.758832,76.9941664 134.586167,76.9300004 134.4275,76.846 C134.268833,76.7619996 134.123001,76.6616672 133.99,76.545 C133.856999,76.4283327 133.729834,76.2953341 133.6085,76.146 L133.5455,76.699 C133.522167,76.8063339 133.480167,76.8833331 133.4195,76.93 C133.358833,76.9766669 133.274834,77 133.1675,77 L132.1875,77 L132.1875,66.64 L133.6925,66.64 L133.6925,70.805 Z M144.7665,72.625 C144.7665,72.3729987 144.730334,72.1385011 144.658,71.9215 C144.585666,71.7044989 144.479501,71.5155008 144.3395,71.3545 C144.199499,71.1934992 144.025668,71.0675005 143.818,70.9765 C143.610332,70.8854995 143.371168,70.84 143.1005,70.84 C142.554497,70.84 142.125168,70.9963318 141.8125,71.309 C141.499832,71.6216682 141.3015,72.0603305 141.2175,72.625 L144.7665,72.625 Z M141.1755,73.549 C141.194167,73.955002 141.257166,74.3061652 141.3645,74.6025 C141.471834,74.8988348 141.615332,75.144999 141.795,75.341 C141.974668,75.537001 142.189332,75.6828329 142.439,75.7785 C142.688668,75.8741671 142.967498,75.922 143.2755,75.922 C143.569501,75.922 143.823832,75.888167 144.0385,75.8205 C144.253168,75.752833 144.439833,75.6781671 144.5985,75.5965 C144.757167,75.5148329 144.892499,75.440167 145.0045,75.3725 C145.116501,75.304833 145.219166,75.271 145.3125,75.271 C145.433834,75.271 145.527166,75.3176662 145.5925,75.411 L146.0195,75.964 C145.842166,76.174001 145.641501,76.3513326 145.4175,76.496 C145.193499,76.6406674 144.955501,76.7584995 144.7035,76.8495 C144.451499,76.9405005 144.192501,77.0058331 143.9265,77.0455 C143.660499,77.0851669 143.401501,77.105 143.1495,77.105 C142.654831,77.105 142.196335,77.0221675 141.774,76.8565 C141.351665,76.6908325 140.985335,76.4470016 140.675,76.125 C140.364665,75.8029984 140.122001,75.4040024 139.947,74.928 C139.771999,74.4519976 139.6845,73.9036698 139.6845,73.283 C139.6845,72.7883309 139.762666,72.3263355 139.919,71.897 C140.075334,71.4676645 140.299332,71.0943349 140.591,70.777 C140.882668,70.4596651 141.237331,70.2088343 141.655,70.0245 C142.072669,69.8401657 142.545164,69.748 143.0725,69.748 C143.511169,69.748 143.917165,69.819166 144.2905,69.9615 C144.663835,70.103834 144.985832,70.3126653 145.2565,70.588 C145.527168,70.8633347 145.738333,71.200498 145.89,71.5995 C146.041667,71.998502 146.1175,72.4523308 146.1175,72.961 C146.1175,73.1943345 146.091834,73.3506663 146.0405,73.43 C145.989166,73.5093337 145.895834,73.549 145.7605,73.549 L141.1755,73.549 Z M149.0505,66.64 L149.0505,77 L147.5455,77 L147.5455,66.64 L149.0505,66.64 Z" id="Label" fill="#233745" fill-rule="nonzero"></path>
                <rect id="Rectangle" fill="#B8C7D2" x="168.5" y="72" width="71" height="1"></rect>
                <rect id="Rectangle" fill="#3E5667" x="159.5" y="63" width="19.2" height="18.4" rx="9.2"></rect>
                <path d="M171.3176,74.2256 L171.3176,75.2 L167.4104,75.2 L167.4104,74.2256 L168.7928,74.2256 L168.7928,70.4144 C168.7928,70.3311996 168.7944,70.2464004 168.7976,70.16 C168.8008,70.0735996 168.8056,69.9856004 168.812,69.896 L167.9,70.6544 C167.836,70.7024002 167.7736,70.7327999 167.7128,70.7456 C167.652,70.7584001 167.5944,70.7592001 167.54,70.748 C167.4856,70.7367999 167.4376,70.7176001 167.396,70.6904 C167.3544,70.6631999 167.3224,70.6352001 167.3,70.6064 L166.8824,70.0448 L169.0232,68.2304 L170.1128,68.2304 L170.1128,74.2256 L171.3176,74.2256 Z" id="1" fill="#FFFFFF" fill-rule="nonzero"></path>
                <path d="M171.0145,157.677 C171.401835,157.677 171.748332,157.611667 172.054,157.481 C172.359668,157.350333 172.618666,157.168335 172.831,156.935 C173.043334,156.701666 173.205499,156.420502 173.3175,156.0915 C173.429501,155.762498 173.4855,155.397335 173.4855,154.996 L173.4855,148.92 L175.1165,148.92 L175.1165,154.996 C175.1165,155.58867 175.022001,156.136997 174.833,156.641 C174.643999,157.145003 174.372168,157.580165 174.0175,157.9465 C173.662832,158.312835 173.232336,158.599832 172.726,158.8075 C172.219664,159.015168 171.64917,159.119 171.0145,159.119 C170.37983,159.119 169.809336,159.015168 169.303,158.8075 C168.796664,158.599832 168.366168,158.312835 168.0115,157.9465 C167.656832,157.580165 167.385001,157.145003 167.196,156.641 C167.006999,156.136997 166.9125,155.58867 166.9125,154.996 L166.9125,148.92 L168.5505,148.92 L168.5505,154.989 C168.5505,155.390335 168.606499,155.755498 168.7185,156.0845 C168.830501,156.413502 168.991499,156.695832 169.2015,156.9315 C169.411501,157.167168 169.669332,157.350333 169.975,157.481 C170.280668,157.611667 170.627165,157.677 171.0145,157.677 Z M181.3745,153.155 C181.337166,153.220334 181.295167,153.267 181.2485,153.295 C181.201833,153.323 181.1435,153.337 181.0735,153.337 C180.994166,153.337 180.907834,153.3125 180.8145,153.2635 C180.721166,153.2145 180.611501,153.159667 180.4855,153.099 C180.359499,153.038333 180.211334,152.9835 180.041,152.9345 C179.870666,152.8855 179.671168,152.861 179.4425,152.861 C179.255832,152.861 179.086667,152.883166 178.935,152.9275 C178.783333,152.971834 178.655001,153.034833 178.55,153.1165 C178.444999,153.198167 178.3645,153.293833 178.3085,153.4035 C178.2525,153.513167 178.2245,153.630999 178.2245,153.757 C178.2245,153.925001 178.275833,154.064999 178.3785,154.177 C178.481167,154.289001 178.616499,154.385833 178.7845,154.4675 C178.952501,154.549167 179.143832,154.622666 179.3585,154.688 C179.573168,154.753334 179.792499,154.823333 180.0165,154.898 C180.240501,154.972667 180.459832,155.059 180.6745,155.157 C180.889168,155.255 181.080499,155.375166 181.2485,155.5175 C181.416501,155.659834 181.551833,155.832499 181.6545,156.0355 C181.757167,156.238501 181.8085,156.484665 181.8085,156.774 C181.8085,157.110002 181.747834,157.420332 181.6265,157.705 C181.505166,157.989668 181.327835,158.236999 181.0945,158.447 C180.861166,158.657001 180.570668,158.820333 180.223,158.937 C179.875332,159.053667 179.477502,159.112 179.0295,159.112 C178.782165,159.112 178.543001,159.089834 178.312,159.0455 C178.080999,159.001166 177.861668,158.9405 177.654,158.8635 C177.446332,158.7865 177.252668,158.694334 177.073,158.587 C176.893332,158.479666 176.733501,158.363001 176.5935,158.237 L176.9435,157.663 C176.9855,157.593 177.038,157.538167 177.101,157.4985 C177.164,157.458833 177.242166,157.439 177.3355,157.439 C177.4335,157.439 177.530333,157.4705 177.626,157.5335 C177.721667,157.5965 177.833666,157.665333 177.962,157.74 C178.090334,157.814667 178.245499,157.8835 178.4275,157.9465 C178.609501,158.0095 178.835832,158.041 179.1065,158.041 C179.330501,158.041 179.524166,158.014167 179.6875,157.9605 C179.850834,157.906833 179.986166,157.833334 180.0935,157.74 C180.200834,157.646666 180.280166,157.540501 180.3315,157.4215 C180.382834,157.302499 180.4085,157.175334 180.4085,157.04 C180.4085,156.857999 180.357167,156.708667 180.2545,156.592 C180.151833,156.475333 180.015334,156.375 179.845,156.291 C179.674666,156.207 179.481001,156.132334 179.264,156.067 C179.046999,156.001666 178.826501,155.931667 178.6025,155.857 C178.378499,155.782333 178.158001,155.696 177.941,155.598 C177.723999,155.5 177.530334,155.375167 177.36,155.2235 C177.189666,155.071833 177.053167,154.887501 176.9505,154.6705 C176.847833,154.453499 176.7965,154.188668 176.7965,153.876 C176.7965,153.591332 176.853666,153.320668 176.968,153.064 C177.082334,152.807332 177.250332,152.581001 177.472,152.385 C177.693668,152.188999 177.966665,152.033834 178.291,151.9195 C178.615335,151.805166 178.989831,151.748 179.4145,151.748 C179.895169,151.748 180.331498,151.824999 180.7235,151.979 C181.115502,152.133001 181.444499,152.342999 181.7105,152.609 L181.3745,153.155 Z M187.9055,154.625 C187.9055,154.372999 187.869334,154.138501 187.797,153.9215 C187.724666,153.704499 187.618501,153.515501 187.4785,153.3545 C187.338499,153.193499 187.164668,153.0675 186.957,152.9765 C186.749332,152.8855 186.510168,152.84 186.2395,152.84 C185.693497,152.84 185.264168,152.996332 184.9515,153.309 C184.638832,153.621668 184.4405,154.060331 184.3565,154.625 L187.9055,154.625 Z M184.3145,155.549 C184.333167,155.955002 184.396166,156.306165 184.5035,156.6025 C184.610834,156.898835 184.754332,157.144999 184.934,157.341 C185.113668,157.537001 185.328332,157.682833 185.578,157.7785 C185.827668,157.874167 186.106498,157.922 186.4145,157.922 C186.708501,157.922 186.962832,157.888167 187.1775,157.8205 C187.392168,157.752833 187.578833,157.678167 187.7375,157.5965 C187.896167,157.514833 188.031499,157.440167 188.1435,157.3725 C188.255501,157.304833 188.358166,157.271 188.4515,157.271 C188.572834,157.271 188.666166,157.317666 188.7315,157.411 L189.1585,157.964 C188.981166,158.174001 188.780501,158.351333 188.5565,158.496 C188.332499,158.640667 188.094501,158.7585 187.8425,158.8495 C187.590499,158.9405 187.331501,159.005833 187.0655,159.0455 C186.799499,159.085167 186.540501,159.105 186.2885,159.105 C185.793831,159.105 185.335335,159.022167 184.913,158.8565 C184.490665,158.690833 184.124335,158.447002 183.814,158.125 C183.503665,157.802998 183.261001,157.404002 183.086,156.928 C182.910999,156.451998 182.8235,155.90367 182.8235,155.283 C182.8235,154.788331 182.901666,154.326335 183.058,153.897 C183.214334,153.467665 183.438332,153.094335 183.73,152.777 C184.021668,152.459665 184.376331,152.208834 184.794,152.0245 C185.211669,151.840166 185.684164,151.748 186.2115,151.748 C186.650169,151.748 187.056165,151.819166 187.4295,151.9615 C187.802835,152.103834 188.124832,152.312665 188.3955,152.588 C188.666168,152.863335 188.877333,153.200498 189.029,153.5995 C189.180667,153.998502 189.2565,154.452331 189.2565,154.961 C189.2565,155.194335 189.230834,155.350666 189.1795,155.43 C189.128166,155.509334 189.034834,155.549 188.8995,155.549 L184.3145,155.549 Z M192.0775,153.183 C192.301501,152.730331 192.572165,152.374501 192.8895,152.1155 C193.206835,151.856499 193.587164,151.727 194.0305,151.727 C194.184501,151.727 194.329166,151.7445 194.4645,151.7795 C194.599834,151.8145 194.721166,151.867 194.8285,151.937 L194.7235,153.071 C194.704833,153.150334 194.675667,153.205167 194.636,153.2355 C194.596333,153.265833 194.543834,153.281 194.4785,153.281 C194.4085,153.281 194.308167,153.268167 194.1775,153.2425 C194.046833,153.216833 193.909167,153.204 193.7645,153.204 C193.554499,153.204 193.369001,153.234333 193.208,153.295 C193.046999,153.355667 192.902334,153.444333 192.774,153.561 C192.645666,153.677667 192.5325,153.819999 192.4345,153.988 C192.3365,154.156001 192.2455,154.347332 192.1615,154.562 L192.1615,159 L190.6565,159 L190.6565,151.86 L191.5315,151.86 C191.690167,151.86 191.799833,151.889166 191.8605,151.9475 C191.921167,152.005834 191.963167,152.107333 191.9865,152.252 L192.0775,153.183 Z M201.2335,159 L199.5885,159 L199.5885,148.92 L201.2335,148.92 L201.2335,159 Z M204.7545,152.805 C204.908501,152.646333 205.068333,152.502834 205.234,152.3745 C205.399667,152.246166 205.575832,152.135334 205.7625,152.042 C205.949168,151.948666 206.147499,151.876334 206.3575,151.825 C206.567501,151.773666 206.796165,151.748 207.0435,151.748 C207.435502,151.748 207.779665,151.813333 208.076,151.944 C208.372335,152.074667 208.621999,152.258999 208.825,152.497 C209.028001,152.735001 209.180833,153.020832 209.2835,153.3545 C209.386167,153.688168 209.4375,154.055665 209.4375,154.457 L209.4375,159 L207.9395,159 L207.9395,154.457 C207.9395,153.976331 207.828668,153.603001 207.607,153.337 C207.385332,153.070999 207.048169,152.938 206.5955,152.938 C206.259498,152.938 205.948001,153.014999 205.661,153.169 C205.373999,153.323001 205.104501,153.532999 204.8525,153.799 L204.8525,159 L203.3475,159 L203.3475,151.86 L204.2575,151.86 C204.462834,151.86 204.5935,151.955666 204.6495,152.147 L204.7545,152.805 Z M212.7065,157.208 C212.916501,157.478668 213.146332,157.668833 213.396,157.7785 C213.645668,157.888167 213.922165,157.943 214.2255,157.943 C214.813503,157.943 215.271998,157.728335 215.601,157.299 C215.930002,156.869665 216.0945,156.230338 216.0945,155.381 C216.0945,154.942331 216.057167,154.567835 215.9825,154.2575 C215.907833,153.947165 215.800501,153.694001 215.6605,153.498 C215.520499,153.301999 215.350168,153.159667 215.1495,153.071 C214.948832,152.982333 214.722501,152.938 214.4705,152.938 C214.087831,152.938 213.757668,153.020833 213.48,153.1865 C213.202332,153.352167 212.944501,153.588998 212.7065,153.897 L212.7065,157.208 Z M212.6295,152.896 C212.928168,152.545998 213.267665,152.263668 213.648,152.049 C214.028335,151.834332 214.470497,151.727 214.9745,151.727 C215.375835,151.727 215.739832,151.807499 216.0665,151.9685 C216.393168,152.129501 216.673166,152.363998 216.9065,152.672 C217.139835,152.980002 217.320666,153.361498 217.449,153.8165 C217.577334,154.271502 217.6415,154.792997 217.6415,155.381 C217.6415,155.908336 217.570334,156.399498 217.428,156.8545 C217.285666,157.309502 217.081501,157.703832 216.8155,158.0375 C216.549499,158.371168 216.227502,158.632499 215.8495,158.8215 C215.471498,159.010501 215.044502,159.105 214.5685,159.105 C214.148498,159.105 213.792668,159.037334 213.501,158.902 C213.209332,158.766666 212.944501,158.580001 212.7065,158.342 L212.7065,161.373 L211.2015,161.373 L211.2015,151.86 L212.1115,151.86 C212.316834,151.86 212.4475,151.955666 212.5035,152.147 L212.6295,152.896 Z M225.1245,151.86 L225.1245,159 L224.2145,159 C224.013832,159 223.8855,158.904334 223.8295,158.713 L223.7175,158.048 C223.568166,158.206667 223.410667,158.351333 223.245,158.482 C223.079333,158.612667 222.903168,158.724666 222.7165,158.818 C222.529832,158.911334 222.330334,158.983666 222.118,159.035 C221.905666,159.086334 221.678168,159.112 221.4355,159.112 C221.043498,159.112 220.698168,159.046667 220.3995,158.916 C220.100832,158.785333 219.850001,158.601001 219.647,158.363 C219.443999,158.124999 219.291167,157.839168 219.1885,157.5055 C219.085833,157.171832 219.0345,156.804335 219.0345,156.403 L219.0345,151.86 L220.5395,151.86 L220.5395,156.403 C220.5395,156.883669 220.650332,157.256999 220.872,157.523 C221.093668,157.789001 221.430831,157.922 221.8835,157.922 C222.214835,157.922 222.523999,157.846167 222.811,157.6945 C223.098001,157.542833 223.367499,157.334001 223.6195,157.068 L223.6195,151.86 L225.1245,151.86 Z M229.2475,159.112 C228.65483,159.112 228.198668,158.945168 227.879,158.6115 C227.559332,158.277832 227.3995,157.80767 227.3995,157.201 L227.3995,153.043 L226.6155,153.043 C226.5315,153.043 226.459167,153.016167 226.3985,152.9625 C226.337833,152.908833 226.3075,152.828334 226.3075,152.721 L226.3075,152.112 L227.4625,151.944 L227.7915,149.879 C227.814833,149.799666 227.8545,149.7355 227.9105,149.6865 C227.9665,149.6375 228.041166,149.613 228.1345,149.613 L228.9045,149.613 L228.9045,151.958 L230.8855,151.958 L230.8855,153.043 L228.9045,153.043 L228.9045,157.096 C228.9045,157.352668 228.967499,157.548666 229.0935,157.684 C229.219501,157.819334 229.387499,157.887 229.5975,157.887 C229.714167,157.887 229.8145,157.871833 229.8985,157.8415 C229.9825,157.811167 230.054833,157.7785 230.1155,157.7435 C230.176167,157.7085 230.228666,157.675833 230.273,157.6455 C230.317334,157.615167 230.3605,157.6 230.4025,157.6 C230.4865,157.6 230.554166,157.646666 230.6055,157.74 L231.0535,158.475 C230.820166,158.680334 230.544835,158.837833 230.2275,158.9475 C229.910165,159.057167 229.583502,159.112 229.2475,159.112 Z" id="UserInput" fill="#233745" fill-rule="nonzero"></path>
                <rect id="Rectangle" fill="#B8C7D2" x="250.5" y="100" width="1" height="43"></rect>
                <rect id="Rectangle" fill="#3E5667" x="241.5" y="145" width="19.2" height="18.4" rx="9.2"></rect>
                <path d="M253.0152,155.9856 C253.159201,155.9856 253.272,156.0256 253.3536,156.1056 C253.4352,156.1856 253.476,156.291199 253.476,156.4224 L253.476,157.2 L248.6472,157.2 L248.6472,156.768 C248.6472,156.6848 248.6648,156.5944 248.7,156.4968 C248.7352,156.3992 248.7944,156.3104 248.8776,156.2304 L250.9416,154.1616 C251.117601,153.985599 251.272799,153.816801 251.4072,153.6552 C251.541601,153.493599 251.6536,153.335201 251.7432,153.18 C251.8328,153.024799 251.9,152.867201 251.9448,152.7072 C251.9896,152.547199 252.012,152.379201 252.012,152.2032 C252.012,151.892798 251.932001,151.656801 251.772,151.4952 C251.611999,151.333599 251.386401,151.2528 251.0952,151.2528 C250.967199,151.2528 250.849601,151.2712 250.7424,151.308 C250.635199,151.3448 250.5392,151.3952 250.4544,151.4592 C250.3696,151.5232 250.2968,151.5984 250.236,151.6848 C250.1752,151.7712 250.1304,151.865599 250.1016,151.968 C250.044,152.128001 249.9664,152.2344 249.8688,152.2872 C249.7712,152.34 249.632801,152.352 249.4536,152.3232 L248.7528,152.1984 C248.804,151.859198 248.899999,151.561601 249.0408,151.3056 C249.181601,151.049599 249.357599,150.836801 249.5688,150.6672 C249.780001,150.497599 250.021599,150.3704 250.2936,150.2856 C250.565601,150.2008 250.858398,150.1584 251.172,150.1584 C251.501602,150.1584 251.801599,150.2072 252.072,150.3048 C252.342401,150.4024 252.573599,150.538399 252.7656,150.7128 C252.957601,150.887201 253.106399,151.097599 253.212,151.344 C253.317601,151.590401 253.3704,151.862399 253.3704,152.16 C253.3704,152.416001 253.3336,152.652799 253.26,152.8704 C253.1864,153.088001 253.086401,153.295199 252.96,153.492 C252.833599,153.688801 252.687201,153.879999 252.5208,154.0656 C252.354399,154.251201 252.178401,154.438399 251.9928,154.6272 L250.5144,156.1392 C250.677601,156.0912 250.839199,156.0536 250.9992,156.0264 C251.159201,155.9992 251.309599,155.9856 251.4504,155.9856 L253.0152,155.9856 Z" id="2" fill="#FFFFFF" fill-rule="nonzero"></path>
                <path d="M565.086,46.753 C565.174667,46.753 565.251666,46.7879996 565.317,46.858 L565.968,47.565 C565.557331,48.0596691 565.053336,48.4411653 564.456,48.7095 C563.858664,48.9778347 563.144671,49.112 562.314,49.112 C561.576663,49.112 560.910503,48.9848346 560.3155,48.7305 C559.720497,48.4761654 559.213002,48.1215023 558.793,47.6665 C558.372998,47.2114977 558.049834,46.6690031 557.8235,46.039 C557.597166,45.4089968 557.484,44.7160038 557.484,43.96 C557.484,43.2039962 557.604165,42.5098365 557.8445,41.8775 C558.084835,41.2451635 558.423164,40.7015023 558.8595,40.2465 C559.295836,39.7914977 559.818497,39.4380013 560.4275,39.186 C561.036503,38.9339987 561.70733,38.808 562.44,38.808 C563.168004,38.808 563.810831,38.9258322 564.3685,39.1615 C564.926169,39.3971678 565.410331,39.710998 565.821,40.103 L565.282,40.866 C565.244666,40.9173336 565.200334,40.9616665 565.149,40.999 C565.097666,41.0363335 565.027667,41.055 564.939,41.055 C564.845666,41.055 564.739501,41.0118338 564.6205,40.9255 C564.501499,40.8391662 564.349834,40.7435005 564.1655,40.6385 C563.981166,40.5334995 563.750168,40.4378338 563.4725,40.3515 C563.194832,40.2651662 562.848335,40.222 562.433,40.222 C561.952331,40.222 561.511335,40.3059992 561.11,40.474 C560.708665,40.6420008 560.363335,40.8869984 560.074,41.209 C559.784665,41.5310016 559.559501,41.9229977 559.3985,42.385 C559.237499,42.8470023 559.157,43.3719971 559.157,43.96 C559.157,44.5526696 559.240999,45.0811643 559.409,45.5455 C559.577001,46.0098357 559.807999,46.4018317 560.102,46.7215 C560.396001,47.0411683 560.741331,47.2849992 561.138,47.453 C561.534669,47.6210008 561.961664,47.705 562.419,47.705 C562.699001,47.705 562.949832,47.6898335 563.1715,47.6595 C563.393168,47.6291665 563.597332,47.580167 563.784,47.5125 C563.970668,47.444833 564.146833,47.3596672 564.3125,47.257 C564.478167,47.1543328 564.642666,47.0283341 564.806,46.879 C564.899334,46.7949996 564.992666,46.753 565.086,46.753 Z M570.196,41.748 C570.723336,41.748 571.200498,41.8343325 571.6275,42.007 C572.054502,42.1796675 572.418498,42.4246651 572.7195,42.742 C573.020502,43.0593349 573.252666,43.4443311 573.416,43.897 C573.579334,44.3496689 573.661,44.8583305 573.661,45.423 C573.661,45.9876695 573.579334,46.4963311 573.416,46.949 C573.252666,47.4016689 573.020502,47.7878317 572.7195,48.1075 C572.418498,48.4271683 572.054502,48.6733325 571.6275,48.846 C571.200498,49.0186675 570.723336,49.105 570.196,49.105 C569.663997,49.105 569.184502,49.0186675 568.7575,48.846 C568.330498,48.6733325 567.965335,48.4271683 567.662,48.1075 C567.358665,47.7878317 567.125334,47.4016689 566.962,46.949 C566.798666,46.4963311 566.717,45.9876695 566.717,45.423 C566.717,44.8583305 566.798666,44.3496689 566.962,43.897 C567.125334,43.4443311 567.358665,43.0593349 567.662,42.742 C567.965335,42.4246651 568.330498,42.1796675 568.7575,42.007 C569.184502,41.8343325 569.663997,41.748 570.196,41.748 Z M570.196,47.929 C570.840003,47.929 571.319498,47.7131688 571.6345,47.2815 C571.949502,46.8498312 572.107,46.2326707 572.107,45.43 C572.107,44.6273293 571.949502,44.0078355 571.6345,43.5715 C571.319498,43.1351645 570.840003,42.917 570.196,42.917 C569.542663,42.917 569.057335,43.1351645 568.74,43.5715 C568.422665,44.0078355 568.264,44.6273293 568.264,45.43 C568.264,46.2326707 568.422665,46.8498312 568.74,47.2815 C569.057335,47.7131688 569.542663,47.929 570.196,47.929 Z M576.51,42.805 C576.664001,42.6463325 576.823833,42.502834 576.9895,42.3745 C577.155167,42.246166 577.331332,42.1353338 577.518,42.042 C577.704668,41.9486662 577.902999,41.8763336 578.113,41.825 C578.323001,41.7736664 578.551665,41.748 578.799,41.748 C579.191002,41.748 579.535165,41.8133327 579.8315,41.944 C580.127835,42.0746673 580.377499,42.2589988 580.5805,42.497 C580.783501,42.7350012 580.936333,43.0208317 581.039,43.3545 C581.141667,43.6881683 581.193,44.0556647 581.193,44.457 L581.193,49 L579.695,49 L579.695,44.457 C579.695,43.9763309 579.584168,43.6030013 579.3625,43.337 C579.140832,43.0709987 578.803669,42.938 578.351,42.938 C578.014998,42.938 577.703501,43.0149992 577.4165,43.169 C577.129499,43.3230008 576.860001,43.5329987 576.608,43.799 L576.608,49 L575.103,49 L575.103,41.86 L576.013,41.86 C576.218334,41.86 576.349,41.9556657 576.405,42.147 L576.51,42.805 Z M585.246,49.112 C584.65333,49.112 584.197168,48.9451683 583.8775,48.6115 C583.557832,48.2778317 583.398,47.8076697 583.398,47.201 L583.398,43.043 L582.614,43.043 C582.53,43.043 582.457667,43.0161669 582.397,42.9625 C582.336333,42.9088331 582.306,42.8283339 582.306,42.721 L582.306,42.112 L583.461,41.944 L583.79,39.879 C583.813333,39.7996663 583.853,39.7355002 583.909,39.6865 C583.965,39.6374998 584.039666,39.613 584.133,39.613 L584.903,39.613 L584.903,41.958 L586.884,41.958 L586.884,43.043 L584.903,43.043 L584.903,47.096 C584.903,47.3526679 584.965999,47.548666 585.092,47.684 C585.218001,47.819334 585.385999,47.887 585.596,47.887 C585.712667,47.887 585.813,47.8718335 585.897,47.8415 C585.981,47.8111665 586.053333,47.7785002 586.114,47.7435 C586.174667,47.7084998 586.227166,47.6758335 586.2715,47.6455 C586.315834,47.6151665 586.359,47.6 586.401,47.6 C586.485,47.6 586.552666,47.6466662 586.604,47.74 L587.052,48.475 C586.818665,48.6803344 586.543335,48.8378328 586.226,48.9475 C585.908665,49.0571672 585.582002,49.112 585.246,49.112 Z M591.889,45.878 C591.352331,45.8966668 590.899669,45.939833 590.531,46.0075 C590.162331,46.075167 589.863668,46.1614995 589.635,46.2665 C589.406332,46.3715005 589.241834,46.4963326 589.1415,46.641 C589.041166,46.7856674 588.991,46.9443325 588.991,47.117 C588.991,47.2850008 589.017833,47.4284994 589.0715,47.5475 C589.125167,47.6665006 589.199833,47.7644996 589.2955,47.8415 C589.391167,47.9185004 589.503166,47.9744998 589.6315,48.0095 C589.759834,48.0445002 589.900999,48.062 590.055,48.062 C590.447002,48.062 590.784165,47.9885007 591.0665,47.8415 C591.348835,47.6944993 591.622999,47.4810014 591.889,47.201 L591.889,45.878 Z M587.899,42.854 C588.706337,42.1026629 589.667661,41.727 590.783,41.727 C591.193669,41.727 591.558832,41.7934993 591.8785,41.9265 C592.198168,42.0595007 592.466499,42.2473321 592.6835,42.49 C592.900501,42.7326679 593.066166,43.0208317 593.1805,43.3545 C593.294834,43.6881683 593.352,44.057998 593.352,44.464 L593.352,49 L592.68,49 C592.535333,49 592.425667,48.9778336 592.351,48.9335 C592.276333,48.8891664 592.213334,48.799334 592.162,48.664 L592.015,48.083 C591.832999,48.2463341 591.653334,48.392166 591.476,48.5205 C591.298666,48.648834 591.115501,48.7573329 590.9265,48.846 C590.737499,48.9346671 590.534501,49.0011664 590.3175,49.0455 C590.100499,49.0898336 589.861335,49.112 589.6,49.112 C589.310665,49.112 589.041168,49.0723337 588.7915,48.993 C588.541832,48.9136663 588.326001,48.7935008 588.144,48.6325 C587.961999,48.4714992 587.818501,48.2720012 587.7135,48.034 C587.608499,47.7959988 587.556,47.5160016 587.556,47.194 C587.556,46.9186653 587.629499,46.6503346 587.7765,46.389 C587.923501,46.1276654 588.166165,45.8931677 588.5045,45.6855 C588.842835,45.4778323 589.288497,45.306334 589.8415,45.171 C590.394503,45.035666 591.076996,44.9586668 591.889,44.94 L591.889,44.464 C591.889,43.9506641 591.779334,43.5680013 591.56,43.316 C591.340666,43.0639987 591.018669,42.938 590.594,42.938 C590.304665,42.938 590.062001,42.9741663 589.866,43.0465 C589.669999,43.1188337 589.499667,43.1969996 589.355,43.281 C589.210333,43.3650004 589.082001,43.4431663 588.97,43.5155 C588.857999,43.5878337 588.739001,43.624 588.613,43.624 C588.510333,43.624 588.422834,43.5971669 588.3505,43.5435 C588.278166,43.4898331 588.218667,43.4233337 588.172,43.344 L587.899,42.854 Z M596.677,41.86 L596.677,49 L595.172,49 L595.172,41.86 L596.677,41.86 Z M596.929,39.704 C596.929,39.839334 596.902167,39.9676661 596.8485,40.089 C596.794833,40.2103339 596.721334,40.3164995 596.628,40.4075 C596.534666,40.4985005 596.426167,40.5708331 596.3025,40.6245 C596.178833,40.6781669 596.047001,40.705 595.907,40.705 C595.771666,40.705 595.644501,40.6781669 595.5255,40.6245 C595.406499,40.5708331 595.302667,40.4985005 595.214,40.4075 C595.125333,40.3164995 595.054167,40.2103339 595.0005,40.089 C594.946833,39.9676661 594.92,39.839334 594.92,39.704 C594.92,39.5639993 594.946833,39.4333339 595.0005,39.312 C595.054167,39.1906661 595.125333,39.0845005 595.214,38.9935 C595.302667,38.9024995 595.406499,38.8301669 595.5255,38.7765 C595.644501,38.7228331 595.771666,38.696 595.907,38.696 C596.047001,38.696 596.178833,38.7228331 596.3025,38.7765 C596.426167,38.8301669 596.534666,38.9024995 596.628,38.9935 C596.721334,39.0845005 596.794833,39.1906661 596.8485,39.312 C596.902167,39.4333339 596.929,39.5639993 596.929,39.704 Z M599.981,42.805 C600.135001,42.6463325 600.294833,42.502834 600.4605,42.3745 C600.626167,42.246166 600.802332,42.1353338 600.989,42.042 C601.175668,41.9486662 601.373999,41.8763336 601.584,41.825 C601.794001,41.7736664 602.022665,41.748 602.27,41.748 C602.662002,41.748 603.006165,41.8133327 603.3025,41.944 C603.598835,42.0746673 603.848499,42.2589988 604.0515,42.497 C604.254501,42.7350012 604.407333,43.0208317 604.51,43.3545 C604.612667,43.6881683 604.664,44.0556647 604.664,44.457 L604.664,49 L603.166,49 L603.166,44.457 C603.166,43.9763309 603.055168,43.6030013 602.8335,43.337 C602.611832,43.0709987 602.274669,42.938 601.822,42.938 C601.485998,42.938 601.174501,43.0149992 600.8875,43.169 C600.600499,43.3230008 600.331001,43.5329987 600.079,43.799 L600.079,49 L598.574,49 L598.574,41.86 L599.484,41.86 C599.689334,41.86 599.82,41.9556657 599.876,42.147 L599.981,42.805 Z M611.111,44.625 C611.111,44.3729987 611.074834,44.1385011 611.0025,43.9215 C610.930166,43.7044989 610.824001,43.5155008 610.684,43.3545 C610.543999,43.1934992 610.370168,43.0675005 610.1625,42.9765 C609.954832,42.8854995 609.715668,42.84 609.445,42.84 C608.898997,42.84 608.469668,42.9963318 608.157,43.309 C607.844332,43.6216682 607.646,44.0603305 607.562,44.625 L611.111,44.625 Z M607.52,45.549 C607.538667,45.955002 607.601666,46.3061652 607.709,46.6025 C607.816334,46.8988348 607.959832,47.144999 608.1395,47.341 C608.319168,47.537001 608.533832,47.6828329 608.7835,47.7785 C609.033168,47.8741671 609.311998,47.922 609.62,47.922 C609.914001,47.922 610.168332,47.888167 610.383,47.8205 C610.597668,47.752833 610.784333,47.6781671 610.943,47.5965 C611.101667,47.5148329 611.236999,47.440167 611.349,47.3725 C611.461001,47.304833 611.563666,47.271 611.657,47.271 C611.778334,47.271 611.871666,47.3176662 611.937,47.411 L612.364,47.964 C612.186666,48.174001 611.986001,48.3513326 611.762,48.496 C611.537999,48.6406674 611.300001,48.7584995 611.048,48.8495 C610.795999,48.9405005 610.537001,49.0058331 610.271,49.0455 C610.004999,49.0851669 609.746001,49.105 609.494,49.105 C608.999331,49.105 608.540835,49.0221675 608.1185,48.8565 C607.696165,48.6908325 607.329835,48.4470016 607.0195,48.125 C606.709165,47.8029984 606.466501,47.4040024 606.2915,46.928 C606.116499,46.4519976 606.029,45.9036698 606.029,45.283 C606.029,44.7883309 606.107166,44.3263355 606.2635,43.897 C606.419834,43.4676645 606.643832,43.0943349 606.9355,42.777 C607.227168,42.4596651 607.581831,42.2088343 607.9995,42.0245 C608.417169,41.8401657 608.889664,41.748 609.417,41.748 C609.855669,41.748 610.261665,41.819166 610.635,41.9615 C611.008335,42.103834 611.330332,42.3126653 611.601,42.588 C611.871668,42.8633347 612.082833,43.200498 612.2345,43.5995 C612.386167,43.998502 612.462,44.4523308 612.462,44.961 C612.462,45.1943345 612.436334,45.3506663 612.385,45.43 C612.333666,45.5093337 612.240334,45.549 612.105,45.549 L607.52,45.549 Z M615.283,43.183 C615.507001,42.7303311 615.777665,42.3745013 616.095,42.1155 C616.412335,41.8564987 616.792664,41.727 617.236,41.727 C617.390001,41.727 617.534666,41.7444998 617.67,41.7795 C617.805334,41.8145002 617.926666,41.8669996 618.034,41.937 L617.929,43.071 C617.910333,43.1503337 617.881167,43.2051665 617.8415,43.2355 C617.801833,43.2658335 617.749334,43.281 617.684,43.281 C617.614,43.281 617.513667,43.2681668 617.383,43.2425 C617.252333,43.2168332 617.114667,43.204 616.97,43.204 C616.759999,43.204 616.574501,43.234333 616.4135,43.295 C616.252499,43.355667 616.107834,43.4443327 615.9795,43.561 C615.851166,43.6776672 615.738,43.8199992 615.64,43.988 C615.542,44.1560008 615.451,44.3473323 615.367,44.562 L615.367,49 L613.862,49 L613.862,41.86 L614.737,41.86 C614.895667,41.86 615.005333,41.8891664 615.066,41.9475 C615.126667,42.0058336 615.168667,42.1073326 615.192,42.252 L615.283,43.183 Z" id="Container" fill="#233745" fill-rule="nonzero"></path>
                <rect id="Rectangle" fill="#B8C7D2" x="539.5" y="44" width="1" height="40"></rect>
                <rect id="Rectangle" fill="#B8C7D2" x="494.5" y="83" width="46" height="1"></rect>
                <rect id="Rectangle" fill="#3E5667" x="530.5" y="35" width="19.2" height="18.4" rx="9.2"></rect>
                <path d="M537.7912,42.1984 C537.8424,41.8591983 537.938399,41.5616013 538.0792,41.3056 C538.220001,41.0495987 538.395999,40.8368008 538.6072,40.6672 C538.818401,40.4975992 539.059199,40.3704004 539.3296,40.2856 C539.600001,40.2007996 539.891998,40.1584 540.2056,40.1584 C540.538402,40.1584 540.836799,40.2055995 541.1008,40.3 C541.364801,40.3944005 541.587999,40.5231992 541.7704,40.6864 C541.952801,40.8496008 542.0928,41.0399989 542.1904,41.2576 C542.288,41.4752011 542.3368,41.7087988 542.3368,41.9584 C542.3368,42.1792011 542.3136,42.3735992 542.2672,42.5416 C542.2208,42.7096008 542.152,42.8559994 542.0608,42.9808 C541.9696,43.1056006 541.857601,43.2111996 541.7248,43.2976 C541.591999,43.3840004 541.439201,43.4559997 541.2664,43.5136 C542.066404,43.7760013 542.4664,44.308796 542.4664,45.112 C542.4664,45.4672018 542.400801,45.7799986 542.2696,46.0504 C542.138399,46.3208014 541.962401,46.5471991 541.7416,46.7296 C541.520799,46.9120009 541.264001,47.0487995 540.9712,47.14 C540.678399,47.2312005 540.372002,47.2768 540.052,47.2768 C539.712798,47.2768 539.413601,47.2384004 539.1544,47.1616 C538.895199,47.0847996 538.667201,46.9696008 538.4704,46.816 C538.273599,46.6623992 538.104801,46.4696012 537.964,46.2376 C537.823199,46.0055988 537.700001,45.7344016 537.5944,45.424 L538.18,45.184 C538.333601,45.1199997 538.476799,45.1023999 538.6096,45.1312 C538.742401,45.1600001 538.8376,45.2303994 538.8952,45.3424 C538.9592,45.4640006 539.0272,45.5759995 539.0992,45.6784 C539.1712,45.7808005 539.252,45.8695996 539.3416,45.9448 C539.4312,46.0200004 539.532799,46.0783998 539.6464,46.12 C539.760001,46.1616002 539.890399,46.1824 540.0376,46.1824 C540.223201,46.1824 540.384799,46.1520003 540.5224,46.0912 C540.660001,46.0303997 540.7752,45.9512005 540.868,45.8536 C540.9608,45.7559995 541.0304,45.6456006 541.0768,45.5224 C541.1232,45.3991994 541.1464,45.2768006 541.1464,45.1552 C541.1464,44.9951992 541.132,44.8504006 541.1032,44.7208 C541.0744,44.5911994 541.008001,44.4808005 540.904,44.3896 C540.799999,44.2983995 540.646401,44.2280002 540.4432,44.1784 C540.239999,44.1287998 539.964002,44.104 539.6152,44.104 L539.6152,43.1728 C539.906401,43.1728 540.144799,43.1488002 540.3304,43.1008 C540.516001,43.0527998 540.661599,42.9856004 540.7672,42.8992 C540.872801,42.8127996 540.9456,42.7088006 540.9856,42.5872 C541.0256,42.4655994 541.0456,42.3328007 541.0456,42.1888 C541.0456,41.8847985 540.966401,41.6528008 540.808,41.4928 C540.649599,41.3327992 540.424801,41.2528 540.1336,41.2528 C540.005599,41.2528 539.888001,41.2711998 539.7808,41.308 C539.673599,41.3448002 539.5776,41.3951997 539.4928,41.4592 C539.408,41.5232003 539.3352,41.5983996 539.2744,41.6848 C539.2136,41.7712004 539.1688,41.8655995 539.14,41.968 C539.0792,42.1280008 539.0008,42.2343997 538.9048,42.2872 C538.8088,42.3400003 538.669601,42.3520001 538.4872,42.3232 L537.7912,42.1984 Z" id="3" fill="#FFFFFF" fill-rule="nonzero"></path>
                <circle id="Oval" fill="#3E5667" cx="240.5" cy="72.5" r="3"></circle>
                <circle id="Oval" fill="#3E5667" cx="251" cy="102" r="3"></circle>
                <circle id="Oval" fill="#3E5667" cx="494.5" cy="83.5" r="3"></circle>
                <path d="M8.715,212.6625 L5.3475,212.6625 L5.3475,222 L3.6,222 L3.6,212.6625 L0.225,212.6625 L0.225,211.2 L8.715,211.2 L8.715,212.6625 Z M11.4,215.2575 C11.7150016,214.947498 12.0599981,214.698751 12.435,214.51125 C12.8100019,214.323749 13.2474975,214.23 13.7475,214.23 C14.1675021,214.23 14.5362484,214.299999 14.85375,214.44 C15.1712516,214.580001 15.4387489,214.777499 15.65625,215.0325 C15.8737511,215.287501 16.0374994,215.593748 16.1475,215.95125 C16.2575005,216.308752 16.3125,216.702498 16.3125,217.1325 L16.3125,222 L14.7075,222 L14.7075,217.1325 C14.7075,216.617497 14.5887512,216.217501 14.35125,215.9325 C14.1137488,215.647499 13.7525024,215.505 13.2675,215.505 C12.9074982,215.505 12.5737515,215.587499 12.26625,215.7525 C11.9587485,215.917501 11.6700013,216.142499 11.4,216.4275 L11.4,222 L9.7875,222 L9.7875,210.9 L11.4,210.9 L11.4,215.2575 Z M23.22,217.3125 C23.22,217.042499 23.1812504,216.791251 23.10375,216.55875 C23.0262496,216.326249 22.9125007,216.123751 22.7625,215.95125 C22.6124992,215.778749 22.4262511,215.64375 22.20375,215.54625 C21.9812489,215.44875 21.7250014,215.4 21.435,215.4 C20.8499971,215.4 20.3900017,215.567498 20.055,215.9025 C19.7199983,216.237502 19.5075004,216.707497 19.4175,217.3125 L23.22,217.3125 Z M19.3725,218.3025 C19.3925001,218.737502 19.4599994,219.113748 19.575,219.43125 C19.6900006,219.748752 19.843749,220.012499 20.03625,220.2225 C20.228751,220.432501 20.4587487,220.588749 20.72625,220.69125 C20.9937513,220.793751 21.2924983,220.845 21.6225,220.845 C21.9375016,220.845 22.2099988,220.80875 22.44,220.73625 C22.6700011,220.66375 22.8699991,220.58375 23.04,220.49625 C23.2100008,220.40875 23.3549994,220.32875 23.475,220.25625 C23.5950006,220.18375 23.7049995,220.1475 23.805,220.1475 C23.9350006,220.1475 24.0349996,220.1975 24.105,220.2975 L24.5625,220.89 C24.372499,221.115001 24.1575012,221.304999 23.9175,221.46 C23.6774988,221.615001 23.4225013,221.74125 23.1525,221.83875 C22.8824986,221.93625 22.6050014,222.00625 22.32,222.04875 C22.0349986,222.09125 21.7575013,222.1125 21.4875,222.1125 C20.9574973,222.1125 20.4662523,222.023751 20.01375,221.84625 C19.5612477,221.668749 19.1687517,221.407502 18.83625,221.0625 C18.5037483,220.717498 18.2437509,220.290003 18.05625,219.78 C17.8687491,219.269997 17.775,218.682503 17.775,218.0175 C17.775,217.487497 17.8587492,216.992502 18.02625,216.5325 C18.1937508,216.072498 18.4337484,215.672502 18.74625,215.3325 C19.0587516,214.992498 19.4387478,214.723751 19.88625,214.52625 C20.3337522,214.328749 20.8399972,214.23 21.405,214.23 C21.8750023,214.23 22.309998,214.306249 22.71,214.45875 C23.110002,214.611251 23.4549985,214.834999 23.745,215.13 C24.0350014,215.425001 24.2612492,215.786248 24.42375,216.21375 C24.5862508,216.641252 24.6675,217.127497 24.6675,217.6725 C24.6675,217.922501 24.6400003,218.09 24.585,218.175 C24.5299997,218.26 24.4300007,218.3025 24.285,218.3025 L19.3725,218.3025 Z M37.185,212.6625 L33.8175,212.6625 L33.8175,222 L32.07,222 L32.07,212.6625 L28.695,212.6625 L28.695,211.2 L37.185,211.2 L37.185,212.6625 Z M41.5875,217.3125 C41.5875,217.042499 41.5487504,216.791251 41.47125,216.55875 C41.3937496,216.326249 41.2800007,216.123751 41.13,215.95125 C40.9799992,215.778749 40.7937511,215.64375 40.57125,215.54625 C40.3487489,215.44875 40.0925014,215.4 39.8025,215.4 C39.2174971,215.4 38.7575017,215.567498 38.4225,215.9025 C38.0874983,216.237502 37.8750004,216.707497 37.785,217.3125 L41.5875,217.3125 Z M37.74,218.3025 C37.7600001,218.737502 37.8274994,219.113748 37.9425,219.43125 C38.0575006,219.748752 38.211249,220.012499 38.40375,220.2225 C38.596251,220.432501 38.8262487,220.588749 39.09375,220.69125 C39.3612513,220.793751 39.6599983,220.845 39.99,220.845 C40.3050016,220.845 40.5774988,220.80875 40.8075,220.73625 C41.0375011,220.66375 41.2374991,220.58375 41.4075,220.49625 C41.5775008,220.40875 41.7224994,220.32875 41.8425,220.25625 C41.9625006,220.18375 42.0724995,220.1475 42.1725,220.1475 C42.3025006,220.1475 42.4024996,220.1975 42.4725,220.2975 L42.93,220.89 C42.739999,221.115001 42.5250012,221.304999 42.285,221.46 C42.0449988,221.615001 41.7900013,221.74125 41.52,221.83875 C41.2499986,221.93625 40.9725014,222.00625 40.6875,222.04875 C40.4024986,222.09125 40.1250013,222.1125 39.855,222.1125 C39.3249973,222.1125 38.8337523,222.023751 38.38125,221.84625 C37.9287477,221.668749 37.5362517,221.407502 37.20375,221.0625 C36.8712483,220.717498 36.6112509,220.290003 36.42375,219.78 C36.2362491,219.269997 36.1425,218.682503 36.1425,218.0175 C36.1425,217.487497 36.2262492,216.992502 36.39375,216.5325 C36.5612508,216.072498 36.8012484,215.672502 37.11375,215.3325 C37.4262516,214.992498 37.8062478,214.723751 38.25375,214.52625 C38.7012522,214.328749 39.2074972,214.23 39.7725,214.23 C40.2425023,214.23 40.677498,214.306249 41.0775,214.45875 C41.477502,214.611251 41.8224985,214.834999 42.1125,215.13 C42.4025014,215.425001 42.6287492,215.786248 42.79125,216.21375 C42.9537508,216.641252 43.035,217.127497 43.035,217.6725 C43.035,217.922501 43.0075003,218.09 42.9525,218.175 C42.8974997,218.26 42.7975007,218.3025 42.6525,218.3025 L37.74,218.3025 Z M51,222 L49.455,222 C49.3299994,222 49.2312504,221.9675 49.15875,221.9025 C49.0862496,221.8375 49.0275002,221.765 48.9825,221.685 L47.22,218.8575 C47.1749998,219.027501 47.1150004,219.174999 47.04,219.3 L45.4425,221.685 C45.3874997,221.765 45.3262503,221.8375 45.25875,221.9025 C45.1912497,221.9675 45.1025005,222 44.9925,222 L43.5525,222 L46.2,218.055 L43.6575,214.35 L45.2025,214.35 C45.3275006,214.35 45.4187497,214.36875 45.47625,214.40625 C45.5337503,214.44375 45.5849998,214.5 45.63,214.575 L47.3625,217.275 C47.4075002,217.109999 47.4774995,216.952501 47.5725,216.8025 L49.035,214.605 C49.1350005,214.434999 49.2624992,214.35 49.4175,214.35 L50.895,214.35 L48.3525,217.9875 L51,222 Z M54.54,222.12 C53.9049968,222.12 53.4162517,221.941252 53.07375,221.58375 C52.7312483,221.226248 52.56,220.722503 52.56,220.0725 L52.56,215.6175 L51.72,215.6175 C51.6299995,215.6175 51.5525003,215.58875 51.4875,215.53125 C51.4224997,215.47375 51.39,215.387501 51.39,215.2725 L51.39,214.62 L52.6275,214.44 L52.98,212.2275 C53.0050001,212.1425 53.0474997,212.07375 53.1075,212.02125 C53.1675003,211.96875 53.2474995,211.9425 53.3475,211.9425 L54.1725,211.9425 L54.1725,214.455 L56.295,214.455 L56.295,215.6175 L54.1725,215.6175 L54.1725,219.96 C54.1725,220.235001 54.2399993,220.444999 54.375,220.59 C54.5100007,220.735001 54.6899989,220.8075 54.915,220.8075 C55.0400006,220.8075 55.1474995,220.79125 55.2375,220.75875 C55.3275004,220.72625 55.4049997,220.69125 55.47,220.65375 C55.5350003,220.61625 55.5912498,220.58125 55.63875,220.54875 C55.6862502,220.51625 55.7324998,220.5 55.7775,220.5 C55.8675004,220.5 55.9399997,220.55 55.995,220.65 L56.475,221.4375 C56.2249987,221.657501 55.9300017,221.826249 55.59,221.94375 C55.2499983,222.061251 54.9000018,222.12 54.54,222.12 Z M61.6575,218.655 C61.0824971,218.675 60.597502,218.72125 60.2025,218.79375 C59.807498,218.86625 59.4875012,218.958749 59.2425,219.07125 C58.9974988,219.183751 58.8212505,219.317499 58.71375,219.4725 C58.6062495,219.627501 58.5525,219.797499 58.5525,219.9825 C58.5525,220.162501 58.5812497,220.316249 58.63875,220.44375 C58.6962503,220.571251 58.7762495,220.67625 58.87875,220.75875 C58.9812505,220.84125 59.1012493,220.90125 59.23875,220.93875 C59.3762507,220.97625 59.5274992,220.995 59.6925,220.995 C60.1125021,220.995 60.4737485,220.916251 60.77625,220.75875 C61.0787515,220.601249 61.3724986,220.372502 61.6575,220.0725 L61.6575,218.655 Z M57.3825,215.415 C58.2475043,214.609996 59.277494,214.2075 60.4725,214.2075 C60.9125022,214.2075 61.3037483,214.278749 61.64625,214.42125 C61.9887517,214.563751 62.2762488,214.764999 62.50875,215.025 C62.7412512,215.285001 62.9187494,215.593748 63.04125,215.95125 C63.1637506,216.308752 63.225,216.704998 63.225,217.14 L63.225,222 L62.505,222 C62.3499992,222 62.2325004,221.97625 62.1525,221.92875 C62.0724996,221.88125 62.0050003,221.785001 61.95,221.64 L61.7925,221.0175 C61.597499,221.192501 61.4050009,221.348749 61.215,221.48625 C61.024999,221.623751 60.828751,221.74 60.62625,221.835 C60.423749,221.93 60.2062512,222.00125 59.97375,222.04875 C59.7412488,222.09625 59.4850014,222.12 59.205,222.12 C58.8949984,222.12 58.6062513,222.0775 58.33875,221.9925 C58.0712487,221.9075 57.840001,221.778751 57.645,221.60625 C57.449999,221.433749 57.2962506,221.220001 57.18375,220.965 C57.0712494,220.709999 57.015,220.410002 57.015,220.065 C57.015,219.769999 57.0937492,219.482501 57.25125,219.2025 C57.4087508,218.922499 57.6687482,218.671251 58.03125,218.44875 C58.3937518,218.226249 58.871247,218.042501 59.46375,217.8975 C60.056253,217.752499 60.7874956,217.67 61.6575,217.65 L61.6575,217.14 C61.6575,216.589997 61.5400012,216.180001 61.305,215.91 C61.0699988,215.639999 60.7250023,215.505 60.27,215.505 C59.9599984,215.505 59.700001,215.54375 59.49,215.62125 C59.2799989,215.69875 59.0975008,215.7825 58.9425,215.8725 C58.7874992,215.9625 58.6500006,216.04625 58.53,216.12375 C58.4099994,216.20125 58.2825007,216.24 58.1475,216.24 C58.0374994,216.24 57.9437504,216.21125 57.86625,216.15375 C57.7887496,216.09625 57.7250002,216.025 57.675,215.94 L57.3825,215.415 Z M66.63,215.7675 C66.8700012,215.282498 67.1599983,214.901251 67.5,214.62375 C67.8400017,214.346249 68.2474976,214.2075 68.7225,214.2075 C68.8875008,214.2075 69.0424993,214.22625 69.1875,214.26375 C69.3325007,214.30125 69.4624994,214.3575 69.5775,214.4325 L69.465,215.6475 C69.4449999,215.7325 69.4137502,215.79125 69.37125,215.82375 C69.3287498,215.85625 69.2725003,215.8725 69.2025,215.8725 C69.1274996,215.8725 69.0200007,215.85875 68.88,215.83125 C68.7399993,215.80375 68.5925008,215.79 68.4375,215.79 C68.2124989,215.79 68.0137509,215.8225 67.84125,215.8875 C67.6687491,215.9525 67.5137507,216.047499 67.37625,216.1725 C67.2387493,216.297501 67.1175005,216.449999 67.0125,216.63 C66.9074995,216.810001 66.8100004,217.014999 66.72,217.245 L66.72,222 L65.1075,222 L65.1075,214.35 L66.045,214.35 C66.2150008,214.35 66.3324997,214.38125 66.3975,214.44375 C66.4625003,214.50625 66.5074999,214.614999 66.5325,214.77 L66.63,215.7675 Z M75.3975,217.3125 C75.3975,217.042499 75.3587504,216.791251 75.28125,216.55875 C75.2037496,216.326249 75.0900007,216.123751 74.94,215.95125 C74.7899992,215.778749 74.6037511,215.64375 74.38125,215.54625 C74.1587489,215.44875 73.9025014,215.4 73.6125,215.4 C73.0274971,215.4 72.5675017,215.567498 72.2325,215.9025 C71.8974983,216.237502 71.6850004,216.707497 71.595,217.3125 L75.3975,217.3125 Z M71.55,218.3025 C71.5700001,218.737502 71.6374994,219.113748 71.7525,219.43125 C71.8675006,219.748752 72.021249,220.012499 72.21375,220.2225 C72.406251,220.432501 72.6362487,220.588749 72.90375,220.69125 C73.1712513,220.793751 73.4699983,220.845 73.8,220.845 C74.1150016,220.845 74.3874988,220.80875 74.6175,220.73625 C74.8475011,220.66375 75.0474991,220.58375 75.2175,220.49625 C75.3875008,220.40875 75.5324994,220.32875 75.6525,220.25625 C75.7725006,220.18375 75.8824995,220.1475 75.9825,220.1475 C76.1125006,220.1475 76.2124996,220.1975 76.2825,220.2975 L76.74,220.89 C76.549999,221.115001 76.3350012,221.304999 76.095,221.46 C75.8549988,221.615001 75.6000013,221.74125 75.33,221.83875 C75.0599986,221.93625 74.7825014,222.00625 74.4975,222.04875 C74.2124986,222.09125 73.9350013,222.1125 73.665,222.1125 C73.1349973,222.1125 72.6437523,222.023751 72.19125,221.84625 C71.7387477,221.668749 71.3462517,221.407502 71.01375,221.0625 C70.6812483,220.717498 70.4212509,220.290003 70.23375,219.78 C70.0462491,219.269997 69.9525,218.682503 69.9525,218.0175 C69.9525,217.487497 70.0362492,216.992502 70.20375,216.5325 C70.3712508,216.072498 70.6112484,215.672502 70.92375,215.3325 C71.2362516,214.992498 71.6162478,214.723751 72.06375,214.52625 C72.5112522,214.328749 73.0174972,214.23 73.5825,214.23 C74.0525023,214.23 74.487498,214.306249 74.8875,214.45875 C75.287502,214.611251 75.6324985,214.834999 75.9225,215.13 C76.2125014,215.425001 76.4387492,215.786248 76.60125,216.21375 C76.7637508,216.641252 76.845,217.127497 76.845,217.6725 C76.845,217.922501 76.8175003,218.09 76.7625,218.175 C76.7074997,218.26 76.6075007,218.3025 76.4625,218.3025 L71.55,218.3025 Z M82.4325,218.655 C81.8574971,218.675 81.372502,218.72125 80.9775,218.79375 C80.582498,218.86625 80.2625012,218.958749 80.0175,219.07125 C79.7724988,219.183751 79.5962505,219.317499 79.48875,219.4725 C79.3812495,219.627501 79.3275,219.797499 79.3275,219.9825 C79.3275,220.162501 79.3562497,220.316249 79.41375,220.44375 C79.4712503,220.571251 79.5512495,220.67625 79.65375,220.75875 C79.7562505,220.84125 79.8762493,220.90125 80.01375,220.93875 C80.1512507,220.97625 80.3024992,220.995 80.4675,220.995 C80.8875021,220.995 81.2487485,220.916251 81.55125,220.75875 C81.8537515,220.601249 82.1474986,220.372502 82.4325,220.0725 L82.4325,218.655 Z M78.1575,215.415 C79.0225043,214.609996 80.052494,214.2075 81.2475,214.2075 C81.6875022,214.2075 82.0787483,214.278749 82.42125,214.42125 C82.7637517,214.563751 83.0512488,214.764999 83.28375,215.025 C83.5162512,215.285001 83.6937494,215.593748 83.81625,215.95125 C83.9387506,216.308752 84,216.704998 84,217.14 L84,222 L83.28,222 C83.1249992,222 83.0075004,221.97625 82.9275,221.92875 C82.8474996,221.88125 82.7800003,221.785001 82.725,221.64 L82.5675,221.0175 C82.372499,221.192501 82.1800009,221.348749 81.99,221.48625 C81.799999,221.623751 81.603751,221.74 81.40125,221.835 C81.198749,221.93 80.9812512,222.00125 80.74875,222.04875 C80.5162488,222.09625 80.2600014,222.12 79.98,222.12 C79.6699984,222.12 79.3812513,222.0775 79.11375,221.9925 C78.8462487,221.9075 78.615001,221.778751 78.42,221.60625 C78.224999,221.433749 78.0712506,221.220001 77.95875,220.965 C77.8462494,220.709999 77.79,220.410002 77.79,220.065 C77.79,219.769999 77.8687492,219.482501 78.02625,219.2025 C78.1837508,218.922499 78.4437482,218.671251 78.80625,218.44875 C79.1687518,218.226249 79.646247,218.042501 80.23875,217.8975 C80.831253,217.752499 81.5624956,217.67 82.4325,217.65 L82.4325,217.14 C82.4325,216.589997 82.3150012,216.180001 82.08,215.91 C81.8449988,215.639999 81.5000023,215.505 81.045,215.505 C80.7349984,215.505 80.475001,215.54375 80.265,215.62125 C80.0549989,215.69875 79.8725008,215.7825 79.7175,215.8725 C79.5624992,215.9625 79.4250006,216.04625 79.305,216.12375 C79.1849994,216.20125 79.0575007,216.24 78.9225,216.24 C78.8124994,216.24 78.7187504,216.21125 78.64125,216.15375 C78.5637496,216.09625 78.5000002,216.025 78.45,215.94 L78.1575,215.415 Z M93.705,218.655 C93.1299971,218.675 92.645002,218.72125 92.25,218.79375 C91.854998,218.86625 91.5350012,218.958749 91.29,219.07125 C91.0449988,219.183751 90.8687505,219.317499 90.76125,219.4725 C90.6537495,219.627501 90.6,219.797499 90.6,219.9825 C90.6,220.162501 90.6287497,220.316249 90.68625,220.44375 C90.7437503,220.571251 90.8237495,220.67625 90.92625,220.75875 C91.0287505,220.84125 91.1487493,220.90125 91.28625,220.93875 C91.4237507,220.97625 91.5749992,220.995 91.74,220.995 C92.1600021,220.995 92.5212485,220.916251 92.82375,220.75875 C93.1262515,220.601249 93.4199986,220.372502 93.705,220.0725 L93.705,218.655 Z M89.43,215.415 C90.2950043,214.609996 91.324994,214.2075 92.52,214.2075 C92.9600022,214.2075 93.3512483,214.278749 93.69375,214.42125 C94.0362517,214.563751 94.3237488,214.764999 94.55625,215.025 C94.7887512,215.285001 94.9662494,215.593748 95.08875,215.95125 C95.2112506,216.308752 95.2725,216.704998 95.2725,217.14 L95.2725,222 L94.5525,222 C94.3974992,222 94.2800004,221.97625 94.2,221.92875 C94.1199996,221.88125 94.0525003,221.785001 93.9975,221.64 L93.84,221.0175 C93.644999,221.192501 93.4525009,221.348749 93.2625,221.48625 C93.072499,221.623751 92.876251,221.74 92.67375,221.835 C92.471249,221.93 92.2537512,222.00125 92.02125,222.04875 C91.7887488,222.09625 91.5325014,222.12 91.2525,222.12 C90.9424984,222.12 90.6537513,222.0775 90.38625,221.9925 C90.1187487,221.9075 89.887501,221.778751 89.6925,221.60625 C89.497499,221.433749 89.3437506,221.220001 89.23125,220.965 C89.1187494,220.709999 89.0625,220.410002 89.0625,220.065 C89.0625,219.769999 89.1412492,219.482501 89.29875,219.2025 C89.4562508,218.922499 89.7162482,218.671251 90.07875,218.44875 C90.4412518,218.226249 90.918747,218.042501 91.51125,217.8975 C92.103753,217.752499 92.8349956,217.67 93.705,217.65 L93.705,217.14 C93.705,216.589997 93.5875012,216.180001 93.3525,215.91 C93.1174988,215.639999 92.7725023,215.505 92.3175,215.505 C92.0074984,215.505 91.747501,215.54375 91.5375,215.62125 C91.3274989,215.69875 91.1450008,215.7825 90.99,215.8725 C90.8349992,215.9625 90.6975006,216.04625 90.5775,216.12375 C90.4574994,216.20125 90.3300007,216.24 90.195,216.24 C90.0849994,216.24 89.9912504,216.21125 89.91375,216.15375 C89.8362496,216.09625 89.7725002,216.025 89.7225,215.94 L89.43,215.415 Z M98.6625,215.3625 C98.8275008,215.192499 98.9987491,215.038751 99.17625,214.90125 C99.3537509,214.763749 99.542499,214.645001 99.7425,214.545 C99.942501,214.445 100.155,214.3675 100.38,214.3125 C100.605001,214.2575 100.849999,214.23 101.115,214.23 C101.535002,214.23 101.903748,214.299999 102.22125,214.44 C102.538752,214.580001 102.806249,214.777499 103.02375,215.0325 C103.241251,215.287501 103.404999,215.593748 103.515,215.95125 C103.625001,216.308752 103.68,216.702498 103.68,217.1325 L103.68,222 L102.075,222 L102.075,217.1325 C102.075,216.617497 101.956251,216.217501 101.71875,215.9325 C101.481249,215.647499 101.120002,215.505 100.635,215.505 C100.274998,215.505 99.9412515,215.587499 99.63375,215.7525 C99.3262485,215.917501 99.0375013,216.142499 98.7675,216.4275 L98.7675,222 L97.155,222 L97.155,214.35 L98.13,214.35 C98.3500011,214.35 98.4899997,214.452499 98.55,214.6575 L98.6625,215.3625 Z M109.6575,218.655 C109.082497,218.675 108.597502,218.72125 108.2025,218.79375 C107.807498,218.86625 107.487501,218.958749 107.2425,219.07125 C106.997499,219.183751 106.821251,219.317499 106.71375,219.4725 C106.606249,219.627501 106.5525,219.797499 106.5525,219.9825 C106.5525,220.162501 106.58125,220.316249 106.63875,220.44375 C106.69625,220.571251 106.776249,220.67625 106.87875,220.75875 C106.981251,220.84125 107.101249,220.90125 107.23875,220.93875 C107.376251,220.97625 107.527499,220.995 107.6925,220.995 C108.112502,220.995 108.473748,220.916251 108.77625,220.75875 C109.078752,220.601249 109.372499,220.372502 109.6575,220.0725 L109.6575,218.655 Z M105.3825,215.415 C106.247504,214.609996 107.277494,214.2075 108.4725,214.2075 C108.912502,214.2075 109.303748,214.278749 109.64625,214.42125 C109.988752,214.563751 110.276249,214.764999 110.50875,215.025 C110.741251,215.285001 110.918749,215.593748 111.04125,215.95125 C111.163751,216.308752 111.225,216.704998 111.225,217.14 L111.225,222 L110.505,222 C110.349999,222 110.2325,221.97625 110.1525,221.92875 C110.0725,221.88125 110.005,221.785001 109.95,221.64 L109.7925,221.0175 C109.597499,221.192501 109.405001,221.348749 109.215,221.48625 C109.024999,221.623751 108.828751,221.74 108.62625,221.835 C108.423749,221.93 108.206251,222.00125 107.97375,222.04875 C107.741249,222.09625 107.485001,222.12 107.205,222.12 C106.894998,222.12 106.606251,222.0775 106.33875,221.9925 C106.071249,221.9075 105.840001,221.778751 105.645,221.60625 C105.449999,221.433749 105.296251,221.220001 105.18375,220.965 C105.071249,220.709999 105.015,220.410002 105.015,220.065 C105.015,219.769999 105.093749,219.482501 105.25125,219.2025 C105.408751,218.922499 105.668748,218.671251 106.03125,218.44875 C106.393752,218.226249 106.871247,218.042501 107.46375,217.8975 C108.056253,217.752499 108.787496,217.67 109.6575,217.65 L109.6575,217.14 C109.6575,216.589997 109.540001,216.180001 109.305,215.91 C109.069999,215.639999 108.725002,215.505 108.27,215.505 C107.959998,215.505 107.700001,215.54375 107.49,215.62125 C107.279999,215.69875 107.097501,215.7825 106.9425,215.8725 C106.787499,215.9625 106.650001,216.04625 106.53,216.12375 C106.409999,216.20125 106.282501,216.24 106.1475,216.24 C106.037499,216.24 105.94375,216.21125 105.86625,216.15375 C105.78875,216.09625 105.725,216.025 105.675,215.94 L105.3825,215.415 Z M115.455,222.12 C114.819997,222.12 114.331252,221.941252 113.98875,221.58375 C113.646248,221.226248 113.475,220.722503 113.475,220.0725 L113.475,215.6175 L112.635,215.6175 C112.545,215.6175 112.4675,215.58875 112.4025,215.53125 C112.3375,215.47375 112.305,215.387501 112.305,215.2725 L112.305,214.62 L113.5425,214.44 L113.895,212.2275 C113.92,212.1425 113.9625,212.07375 114.0225,212.02125 C114.0825,211.96875 114.162499,211.9425 114.2625,211.9425 L115.0875,211.9425 L115.0875,214.455 L117.21,214.455 L117.21,215.6175 L115.0875,215.6175 L115.0875,219.96 C115.0875,220.235001 115.154999,220.444999 115.29,220.59 C115.425001,220.735001 115.604999,220.8075 115.83,220.8075 C115.955001,220.8075 116.0625,220.79125 116.1525,220.75875 C116.2425,220.72625 116.32,220.69125 116.385,220.65375 C116.45,220.61625 116.50625,220.58125 116.55375,220.54875 C116.60125,220.51625 116.6475,220.5 116.6925,220.5 C116.7825,220.5 116.855,220.55 116.91,220.65 L117.39,221.4375 C117.139999,221.657501 116.845002,221.826249 116.505,221.94375 C116.164998,222.061251 115.815002,222.12 115.455,222.12 Z M121.74,214.23 C122.305003,214.23 122.816248,214.322499 123.27375,214.5075 C123.731252,214.692501 124.121248,214.954998 124.44375,215.295 C124.766252,215.635002 125.014999,216.047498 125.19,216.5325 C125.365001,217.017502 125.4525,217.562497 125.4525,218.1675 C125.4525,218.772503 125.365001,219.317498 125.19,219.8025 C125.014999,220.287502 124.766252,220.701248 124.44375,221.04375 C124.121248,221.386252 123.731252,221.649999 123.27375,221.835 C122.816248,222.020001 122.305003,222.1125 121.74,222.1125 C121.169997,222.1125 120.656252,222.020001 120.19875,221.835 C119.741248,221.649999 119.350002,221.386252 119.025,221.04375 C118.699998,220.701248 118.450001,220.287502 118.275,219.8025 C118.099999,219.317498 118.0125,218.772503 118.0125,218.1675 C118.0125,217.562497 118.099999,217.017502 118.275,216.5325 C118.450001,216.047498 118.699998,215.635002 119.025,215.295 C119.350002,214.954998 119.741248,214.692501 120.19875,214.5075 C120.656252,214.322499 121.169997,214.23 121.74,214.23 Z M121.74,220.8525 C122.430003,220.8525 122.943748,220.621252 123.28125,220.15875 C123.618752,219.696248 123.7875,219.035004 123.7875,218.175 C123.7875,217.314996 123.618752,216.651252 123.28125,216.18375 C122.943748,215.716248 122.430003,215.4825 121.74,215.4825 C121.039996,215.4825 120.520002,215.716248 120.18,216.18375 C119.839998,216.651252 119.67,217.314996 119.67,218.175 C119.67,219.035004 119.839998,219.696248 120.18,220.15875 C120.520002,220.621252 121.039996,220.8525 121.74,220.8525 Z M126.9975,222 L126.9975,214.35 L127.9725,214.35 C128.192501,214.35 128.3325,214.452499 128.3925,214.6575 L128.4975,215.325 C128.637501,215.164999 128.782499,215.018751 128.9325,214.88625 C129.082501,214.753749 129.243749,214.63875 129.41625,214.54125 C129.588751,214.44375 129.773749,214.3675 129.97125,214.3125 C130.168751,214.2575 130.382499,214.23 130.6125,214.23 C130.857501,214.23 131.082499,214.265 131.2875,214.335 C131.492501,214.405 131.673749,214.504999 131.83125,214.635 C131.988751,214.765001 132.124999,214.922499 132.24,215.1075 C132.355001,215.292501 132.45,215.499999 132.525,215.73 C132.640001,215.464999 132.784999,215.237501 132.96,215.0475 C133.135001,214.857499 133.329999,214.702501 133.545,214.5825 C133.760001,214.462499 133.988749,214.37375 134.23125,214.31625 C134.473751,214.25875 134.719999,214.23 134.97,214.23 C135.380002,214.23 135.746248,214.294999 136.06875,214.425 C136.391252,214.555001 136.663749,214.743749 136.88625,214.99125 C137.108751,215.238751 137.277499,215.542498 137.3925,215.9025 C137.507501,216.262502 137.565,216.672498 137.565,217.1325 L137.565,222 L135.9525,222 L135.9525,217.1325 C135.9525,216.592497 135.836251,216.186251 135.60375,215.91375 C135.371249,215.641249 135.027502,215.505 134.5725,215.505 C134.367499,215.505 134.175001,215.54 133.995,215.61 C133.814999,215.68 133.657501,215.782499 133.5225,215.9175 C133.387499,216.052501 133.28125,216.221249 133.20375,216.42375 C133.12625,216.626251 133.0875,216.862499 133.0875,217.1325 L133.0875,222 L131.475,222 L131.475,217.1325 C131.475,216.572497 131.362501,216.161251 131.1375,215.89875 C130.912499,215.636249 130.582502,215.505 130.1475,215.505 C129.847498,215.505 129.570001,215.581249 129.315,215.73375 C129.059999,215.886251 128.825001,216.094999 128.61,216.36 L128.61,222 L126.9975,222 Z M146.0475,214.35 L141.8325,224.175 C141.7775,224.290001 141.71125,224.38 141.63375,224.445 C141.55625,224.51 141.437501,224.5425 141.2775,224.5425 L140.085,224.5425 L141.495,221.4825 L138.375,214.35 L139.7775,214.35 C139.912501,214.35 140.01625,214.38125 140.08875,214.44375 C140.16125,214.50625 140.215,214.58 140.25,214.665 L142.0725,219.0075 C142.1175,219.132501 142.15875,219.256249 142.19625,219.37875 C142.23375,219.501251 142.27,219.627499 142.305,219.7575 C142.345,219.627499 142.385,219.500001 142.425,219.375 C142.465,219.249999 142.51,219.125001 142.56,219 L144.3075,214.665 C144.3425,214.575 144.40125,214.5 144.48375,214.44 C144.56625,214.38 144.657499,214.35 144.7575,214.35 L146.0475,214.35 Z M146.3025,221.07 C146.3025,220.924999 146.32875,220.788751 146.38125,220.66125 C146.43375,220.533749 146.50625,220.4225 146.59875,220.3275 C146.69125,220.2325 146.801249,220.1575 146.92875,220.1025 C147.056251,220.0475 147.192499,220.02 147.3375,220.02 C147.482501,220.02 147.618749,220.0475 147.74625,220.1025 C147.873751,220.1575 147.985,220.2325 148.08,220.3275 C148.175,220.4225 148.25,220.533749 148.305,220.66125 C148.36,220.788751 148.3875,220.924999 148.3875,221.07 C148.3875,221.220001 148.36,221.357499 148.305,221.4825 C148.25,221.607501 148.175,221.7175 148.08,221.8125 C147.985,221.9075 147.873751,221.98125 147.74625,222.03375 C147.618749,222.08625 147.482501,222.1125 147.3375,222.1125 C147.192499,222.1125 147.056251,222.08625 146.92875,222.03375 C146.801249,221.98125 146.69125,221.9075 146.59875,221.8125 C146.50625,221.7175 146.43375,221.607501 146.38125,221.4825 C146.32875,221.357499 146.3025,221.220001 146.3025,221.07 Z" id="TheTextareaanatomy." fill="#3E5667" fill-rule="nonzero"></path>
            </g>
        </g>
    </g>
</svg>