<svg xmlns="http://www.w3.org/2000/svg" viewBox="0 0 726 225">
  <g fill="none" fill-rule="evenodd">
    <path fill="#FFF" stroke="#B8C7D2" d="M.5.5h725v192H.5z"/>
    <g transform="translate(483 56)">
      <rect width="161" height="81" x="-.5" y="-.5" fill="#FFF" stroke="#B8C7D2" rx="3"/>
      <text fill="#253B53" font-family="Lato-Medium, Lato" font-size="14" font-weight="400">
        <tspan x="14" y="41">Textarea user input</tspan>
      </text>
      <text fill="#748999" font-family="Lato-Medium, Lato" font-size="12" font-weight="400">
        <tspan x="14" y="20">First Name (optional)</tspan>
      </text>
    </g>
    <g fill="#748999" transform="rotate(45 165.47 836.49)">
      <rect width="1" height="6" x=".83" y=".41" rx=".5"/>
      <rect width="1" height="4" x="2.83" y="1.41" rx=".5"/>
    </g>
    <g transform="translate(283 56)">
      <rect width="162" height="82" x="-1" y="-1" fill="#FFF" stroke="#3A8FDD" stroke-width="2" rx="3"/>
      <text fill="#748999" font-family="Lato-Medium, Lato" font-size="12" font-weight="400">
        <tspan x="14" y="20">Label</tspan>
      </text>
      <path fill="#253B53" d="M15 27h1v11h-1z"/>
    </g>
    <g fill="#748999" transform="rotate(45 65.47 595.07)">
      <rect width="1" height="6" x=".83" y=".41" rx=".5"/>
      <rect width="1" height="4" x="2.83" y="1.41" rx=".5"/>
    </g>
    <g>
      <g transform="translate(83 56)">
        <rect width="161" height="81" x="-.5" y="-.5" fill="#FFF" stroke="#B8C7D2" rx="3"/>
        <text fill="#748999" font-family="Lato-Medium, Lato" font-size="15" font-weight="400">
          <tspan x="14" y="28">Label</tspan>
        </text>
      </g>
      <g fill="#748999" transform="rotate(45 -35.01 354.3)">
        <rect width="1" height="6" x=".83" y=".41" rx=".5"/>
        <rect width="1" height="4" x="2.83" y="1.41" rx=".5"/>
      </g>
    </g>
    <path fill="#3E5667" fill-rule="nonzero" d="M8.71 212.66H5.36V222H3.6v-9.34H.22v-1.46h8.5v1.46zm2.69 2.6c.32-.31.66-.56 1.04-.75a2.9 2.9 0 0 1 1.3-.28c.43 0 .8.07 1.11.21.32.14.59.34.8.6.22.25.39.55.5.91a4 4 0 0 1 .16 1.18V222h-1.6v-4.87c0-.51-.12-.91-.36-1.2-.24-.28-.6-.43-1.08-.43-.36 0-.7.09-1 .25-.31.17-.6.4-.87.68V222H9.79v-11.1h1.61v4.36zm11.82 2.05c0-.27-.04-.52-.12-.75-.07-.23-.19-.44-.34-.6-.15-.18-.33-.32-.56-.41a1.9 1.9 0 0 0-.77-.15c-.58 0-1.04.17-1.38.5-.33.34-.54.8-.63 1.41h3.8zm-3.85 1c.02.43.09.8.2 1.12.12.32.27.58.47.8.19.2.42.36.69.46a2.73 2.73 0 0 0 1.71.05 3.84 3.84 0 0 0 1.04-.48c.12-.08.22-.11.32-.11.14 0 .23.05.3.15l.46.59c-.19.23-.4.41-.64.57a3.76 3.76 0 0 1-1.6.59c-.29.04-.56.06-.83.06a4 4 0 0 1-1.48-.26 3.28 3.28 0 0 1-1.17-.79c-.34-.34-.6-.77-.78-1.28a5.1 5.1 0 0 1-.03-3.25 3.38 3.38 0 0 1 1.86-2c.44-.2.95-.3 1.52-.3.47 0 .9.08 1.3.23a2.86 2.86 0 0 1 1.71 1.75c.17.43.25.92.25 1.46 0 .25-.03.42-.09.5-.05.09-.15.13-.3.13h-4.9zm17.82-5.65h-3.37V222h-1.75v-9.34h-3.38v-1.46h8.5v1.46zm4.4 4.65c0-.27-.04-.52-.12-.75-.08-.23-.19-.44-.34-.6-.15-.18-.34-.32-.56-.41a1.9 1.9 0 0 0-.77-.15c-.58 0-1.04.17-1.38.5-.33.34-.54.8-.64 1.41h3.8zm-3.85 1c.02.43.09.8.2 1.12.12.32.27.58.46.8.2.2.43.36.7.46a2.73 2.73 0 0 0 1.71.05 3.84 3.84 0 0 0 1.03-.48c.12-.08.23-.11.33-.11.13 0 .23.05.3.15l.46.59c-.19.23-.4.41-.65.57a3.76 3.76 0 0 1-1.6.59c-.28.04-.55.06-.83.06a4 4 0 0 1-1.47-.26 3.28 3.28 0 0 1-1.18-.79c-.33-.34-.59-.77-.78-1.28a5.1 5.1 0 0 1-.03-3.25 3.38 3.38 0 0 1 1.86-2c.45-.2.96-.3 1.52-.3.47 0 .9.08 1.3.23a2.86 2.86 0 0 1 1.72 1.75c.16.43.24.92.24 1.46 0 .25-.02.42-.08.5-.05.09-.15.13-.3.13h-4.91zM51 222h-1.55a.43.43 0 0 1-.3-.1.85.85 0 0 1-.17-.22l-1.76-2.82c-.05.17-.1.31-.18.44l-1.6 2.38a1.4 1.4 0 0 1-.18.22.37.37 0 0 1-.27.1h-1.44l2.65-3.94-2.54-3.71h1.54c.13 0 .22.02.28.06.05.03.1.09.15.16l1.73 2.7c.05-.16.12-.32.21-.47l1.46-2.2c.1-.17.23-.25.39-.25h1.48l-2.55 3.64L51 222zm3.54.12c-.64 0-1.12-.18-1.47-.54a2.1 2.1 0 0 1-.51-1.5v-4.46h-.84a.34.34 0 0 1-.23-.09c-.07-.06-.1-.14-.1-.26v-.65l1.24-.18.35-2.21a.43.43 0 0 1 .13-.2.35.35 0 0 1 .24-.09h.82v2.52h2.13v1.16h-2.13v4.34c0 .28.07.48.2.63a.7.7 0 0 0 .55.22c.12 0 .23-.02.32-.05a1.46 1.46 0 0 0 .4-.21c.05-.03.1-.05.14-.05.09 0 .16.05.21.15l.48.79c-.25.22-.54.39-.88.5a3.2 3.2 0 0 1-1.05.18zm7.12-3.47c-.58.03-1.06.07-1.46.14-.4.08-.71.17-.96.28-.24.11-.42.25-.53.4a.88.88 0 0 0-.16.51c0 .18.03.34.09.46.06.13.14.24.24.32.1.08.22.14.36.18a2.32 2.32 0 0 0 1.54-.18c.3-.16.6-.39.88-.69v-1.41zm-4.28-3.24c.87-.8 1.9-1.2 3.1-1.2.43 0 .82.07 1.17.21.34.14.63.34.86.6.23.27.4.57.53.93.12.36.19.75.19 1.19V222h-.72a.7.7 0 0 1-.36-.07c-.08-.05-.14-.14-.2-.29l-.16-.62c-.2.17-.38.33-.57.47-.2.13-.4.25-.6.34-.2.1-.41.17-.65.22-.23.05-.48.07-.77.07-.3 0-.6-.04-.86-.13a1.83 1.83 0 0 1-1.15-1.03 2.22 2.22 0 0 1-.17-.9c0-.29.07-.58.23-.86s.42-.53.78-.75c.36-.22.84-.4 1.43-.55.6-.15 1.33-.23 2.2-.25v-.51c0-.55-.12-.96-.35-1.23-.24-.27-.58-.4-1.04-.4-.31 0-.57.03-.78.11-.21.08-.4.16-.55.25l-.41.25a.7.7 0 0 1-.38.12.46.46 0 0 1-.28-.09.71.71 0 0 1-.2-.21l-.29-.53zm9.25.36c.24-.49.53-.87.87-1.15.34-.27.75-.41 1.22-.41.17 0 .32.02.47.05.14.04.27.1.39.17l-.11 1.22c-.03.08-.06.14-.1.17a.27.27 0 0 1-.17.05c-.07 0-.18-.01-.32-.04a2.3 2.3 0 0 0-.44-.04c-.23 0-.43.03-.6.1-.17.06-.33.16-.46.28-.14.13-.26.28-.37.46-.1.18-.2.38-.29.62V222h-1.61v-7.65h.94c.17 0 .28.03.35.1.06.06.1.16.13.32l.1 1zm8.77 1.54c0-.27-.04-.52-.12-.75-.08-.23-.19-.44-.34-.6-.15-.18-.34-.32-.56-.41a1.9 1.9 0 0 0-.77-.15c-.58 0-1.04.17-1.38.5-.33.34-.54.8-.64 1.41h3.8zm-3.85 1c.02.43.09.8.2 1.12.12.32.27.58.46.8.2.2.43.36.7.46a2.73 2.73 0 0 0 1.71.05 3.84 3.84 0 0 0 1.03-.48c.12-.08.23-.11.33-.11.13 0 .23.05.3.15l.46.59c-.19.23-.4.41-.64.57a3.76 3.76 0 0 1-1.6.59c-.29.04-.56.06-.83.06a4 4 0 0 1-1.48-.26 3.28 3.28 0 0 1-1.18-.79c-.33-.34-.59-.77-.78-1.28a5.1 5.1 0 0 1-.03-3.25 3.38 3.38 0 0 1 1.86-2c.45-.2.96-.3 1.52-.3.47 0 .9.08 1.3.23a2.86 2.86 0 0 1 1.72 1.75c.16.43.25.92.25 1.46 0 .25-.03.42-.09.5-.05.09-.15.13-.3.13h-4.91zm10.88.34c-.57.03-1.06.07-1.45.14-.4.08-.72.17-.96.28-.25.11-.42.25-.53.4a.88.88 0 0 0-.16.51c0 .18.03.34.08.46.06.13.14.24.24.32.1.08.23.14.36.18a2.32 2.32 0 0 0 1.54-.18c.3-.16.6-.39.88-.69v-1.41zm-4.27-3.24c.86-.8 1.9-1.2 3.09-1.2.44 0 .83.07 1.17.21.34.14.63.34.86.6.24.27.41.57.54.93.12.36.18.75.18 1.19V222h-.72a.7.7 0 0 1-.35-.07c-.08-.05-.15-.14-.2-.29l-.16-.62c-.2.17-.39.33-.58.47-.19.13-.39.25-.59.34-.2.1-.42.17-.65.22-.23.05-.49.07-.77.07-.31 0-.6-.04-.87-.13a1.83 1.83 0 0 1-1.16-1.03 2.22 2.22 0 0 1-.16-.9c0-.29.08-.58.24-.86.15-.28.41-.53.78-.75.36-.22.84-.4 1.43-.55.6-.15 1.32-.23 2.2-.25v-.51c0-.55-.12-.96-.36-1.23s-.58-.4-1.03-.4c-.32 0-.57.03-.78.11-.22.08-.4.16-.55.25l-.41.25a.7.7 0 0 1-.39.12.46.46 0 0 1-.28-.09.71.71 0 0 1-.19-.21l-.3-.53zm16.87.44a.83.83 0 0 1-.15.15.31.31 0 0 1-.2.05.5.5 0 0 1-.26-.09 6.7 6.7 0 0 0-.33-.2 2.16 2.16 0 0 0-1.14-.29c-.35 0-.65.07-.91.2-.27.12-.49.3-.66.53-.18.23-.31.51-.4.85-.09.33-.13.7-.13 1.12 0 .43.04.81.14 1.15.1.33.23.61.4.84.19.23.4.4.65.53.26.12.54.18.85.18a2.14 2.14 0 0 0 1.58-.61c.1-.07.2-.11.3-.11.13 0 .23.05.3.15l.46.59a3 3 0 0 1-1.33.95 5.25 5.25 0 0 1-1.6.27 3.1 3.1 0 0 1-2.41-1.04c-.3-.33-.55-.75-.73-1.23a4.86 4.86 0 0 1-.26-1.67c0-.57.08-1.1.24-1.57.16-.49.4-.9.7-1.25.3-.35.69-.63 1.14-.82.46-.2.98-.3 1.58-.3a3.55 3.55 0 0 1 2.6 1.03l-.43.59zm4.96-1.62c.57 0 1.08.1 1.53.28a3.29 3.29 0 0 1 1.92 2.02c.18.49.26 1.03.26 1.64 0 .6-.08 1.15-.26 1.63a3.26 3.26 0 0 1-1.92 2.03c-.45.19-.96.28-1.53.28-.57 0-1.08-.09-1.54-.28a3.3 3.3 0 0 1-1.92-2.03 4.8 4.8 0 0 1-.27-1.63c0-.6.09-1.15.27-1.64a3.33 3.33 0 0 1 1.92-2.03c.46-.18.97-.27 1.54-.27zm0 6.62c.69 0 1.2-.23 1.54-.7.34-.45.5-1.11.5-1.97 0-.87-.16-1.53-.5-2-.34-.46-.85-.7-1.54-.7-.7 0-1.22.24-1.56.7a3.34 3.34 0 0 0-.51 2c0 .86.17 1.52.51 1.98.34.46.86.7 1.56.7zm5.26 1.15v-7.65h.97c.22 0 .36.1.42.3l.1.67.44-.43a2.84 2.84 0 0 1 1.04-.58 2.38 2.38 0 0 1 1.32.03 1.72 1.72 0 0 1 .95.77c.12.18.21.39.29.62a2.42 2.42 0 0 1 1.7-1.41 3.2 3.2 0 0 1 1.84.1c.32.14.6.32.82.57.22.25.39.55.5.91.12.36.17.77.17 1.23V222h-1.6v-4.87c0-.54-.12-.94-.36-1.22-.23-.27-.57-.4-1.03-.4-.2 0-.4.03-.57.1a1.36 1.36 0 0 0-.8.81c-.07.2-.11.44-.11.71V222h-1.62v-4.87c0-.56-.1-.97-.33-1.23s-.56-.4-1-.4c-.3 0-.57.08-.83.23a2.7 2.7 0 0 0-.7.63V222h-1.61zm14.07-1.92c.22.29.47.5.74.61.26.12.56.18.88.18.64 0 1.13-.23 1.48-.7.35-.45.53-1.14.53-2.05 0-.47-.04-.87-.12-1.2-.08-.33-.2-.6-.35-.81a1.33 1.33 0 0 0-.55-.46 2.03 2.03 0 0 0-1.79.12c-.3.18-.57.43-.82.76v3.55zm-.08-4.62c.32-.38.68-.68 1.09-.9.4-.24.88-.35 1.42-.35a2.52 2.52 0 0 1 2.07 1.01c.25.33.44.74.58 1.23a6.19 6.19 0 0 1-.02 3.25c-.16.49-.37.91-.66 1.27a3.03 3.03 0 0 1-2.4 1.14 2.7 2.7 0 0 1-1.15-.22c-.31-.14-.6-.34-.85-.6v3.25h-1.61v-10.19h.97c.22 0 .36.1.42.3l.14.81zm10.24-1.23c.57 0 1.08.1 1.53.28a3.29 3.29 0 0 1 1.92 2.02c.18.49.26 1.03.26 1.64 0 .6-.08 1.15-.26 1.63a3.26 3.26 0 0 1-1.92 2.03c-.45.19-.96.28-1.53.28-.57 0-1.08-.09-1.54-.28a3.3 3.3 0 0 1-1.92-2.03 4.8 4.8 0 0 1-.27-1.63c0-.6.09-1.15.27-1.64a3.33 3.33 0 0 1 1.92-2.03c.46-.18.97-.27 1.54-.27zm0 6.62c.69 0 1.2-.23 1.54-.7.34-.45.5-1.11.5-1.97 0-.87-.16-1.53-.5-2-.34-.46-.85-.7-1.54-.7-.7 0-1.22.24-1.56.7a3.34 3.34 0 0 0-.51 2c0 .86.17 1.52.51 1.98.34.46.86.7 1.56.7zm6.77-5.49a4.89 4.89 0 0 1 1.07-.82 3.03 3.03 0 0 1 2.48-.1c.32.14.59.34.8.6.22.25.39.55.5.91a4 4 0 0 1 .16 1.18V222h-1.6v-4.87c0-.51-.12-.91-.36-1.2-.24-.28-.6-.43-1.08-.43-.36 0-.7.09-1 .25-.31.17-.6.4-.87.68V222h-1.61v-7.65h.97c.22 0 .36.1.42.3l.12.71zm11.92 1.95c0-.27-.04-.52-.12-.75-.07-.23-.19-.44-.34-.6-.15-.18-.33-.32-.56-.41a1.9 1.9 0 0 0-.77-.15c-.58 0-1.04.17-1.38.5-.33.34-.54.8-.63 1.41h3.8zm-3.85 1c.02.43.09.8.2 1.12.12.32.27.58.47.8.19.2.42.36.69.46a2.73 2.73 0 0 0 1.71.05 3.84 3.84 0 0 0 1.03-.48c.13-.08.23-.11.34-.11.13 0 .23.05.3.15l.45.59c-.19.23-.4.41-.64.57a3.76 3.76 0 0 1-1.6.59c-.29.04-.56.06-.83.06a4 4 0 0 1-1.48-.26 3.28 3.28 0 0 1-1.17-.79c-.34-.34-.6-.77-.78-1.28a5.1 5.1 0 0 1-.03-3.25 3.38 3.38 0 0 1 1.86-2c.44-.2.95-.3 1.52-.3.47 0 .9.08 1.3.23a2.86 2.86 0 0 1 1.71 1.75c.17.43.25.92.25 1.46 0 .25-.03.42-.09.5-.05.09-.15.13-.3.13h-4.9zm8.3-2.95a4.89 4.89 0 0 1 1.09-.82 3.03 3.03 0 0 1 2.47-.1c.32.14.59.34.8.6.22.25.39.55.5.91a4 4 0 0 1 .16 1.18V222h-1.6v-4.87c0-.51-.12-.91-.36-1.2-.24-.28-.6-.43-1.08-.43-.36 0-.7.09-1 .25-.31.17-.6.4-.87.68V222h-1.61v-7.65h.97c.22 0 .36.1.42.3l.12.71zm9.26 6.76c-.64 0-1.12-.18-1.47-.54a2.1 2.1 0 0 1-.51-1.5v-4.46h-.84a.34.34 0 0 1-.23-.09c-.07-.06-.1-.14-.1-.26v-.65l1.24-.18.35-2.21a.43.43 0 0 1 .13-.2.35.35 0 0 1 .24-.09h.82v2.52h2.13v1.16h-2.13v4.34c0 .28.07.48.2.63a.7.7 0 0 0 .54.22c.13 0 .24-.02.33-.05a1.46 1.46 0 0 0 .4-.21c.05-.03.1-.05.14-.05.09 0 .16.05.22.15l.47.79c-.25.22-.54.39-.88.5a3.2 3.2 0 0 1-1.05.18zm2.78-1.05a1.06 1.06 0 0 1 .3-.74 1.02 1.02 0 0 1 .74-.31 1.02 1.02 0 0 1 .74.3 1.06 1.06 0 0 1 .22 1.16 1.07 1.07 0 0 1-.55.55c-.13.06-.27.08-.41.08-.15 0-.28-.02-.41-.08a.97.97 0 0 1-.33-.22 1.05 1.05 0 0 1-.3-.74z"/>
  </g>
</svg>