<svg viewBox="0 0 726 243" version="1.1" xmlns="http://www.w3.org/2000/svg" xmlns:xlink="http://www.w3.org/1999/xlink">
    <g id="Docs-Images" stroke="none" stroke-width="1" fill="none" fill-rule="evenodd">
        <g id="Textareas" transform="translate(-200.000000, -743.000000)">
            <g id="Group-4" transform="translate(200.000000, 743.000000)">
                <rect id="Rectangle" stroke="#B8C7D2" fill="#FFFFFF" x="0.5" y="0.5" width="725" height="212"></rect>
                <path d="M93.045,57.96 C93.045,58.7066704 92.9236679,59.3891636 92.681,60.0075 C92.4383321,60.6258364 92.0965022,61.1566644 91.6555,61.6 C91.2144978,62.0433356 90.6848364,62.3874988 90.0665,62.6325 C89.4481636,62.8775012 88.7610038,63 88.005,63 L84.197,63 L84.197,52.92 L88.005,52.92 C88.7610038,52.92 89.4481636,53.0424988 90.0665,53.2875 C90.6848364,53.5325012 91.2144978,53.8766645 91.6555,54.32 C92.0965022,54.7633355 92.4383321,55.2941636 92.681,55.9125 C92.9236679,56.5308364 93.045,57.2133296 93.045,57.96 Z M91.372,57.96 C91.372,57.3813304 91.2938341,56.8610023 91.1375,56.399 C90.9811659,55.9369977 90.7571681,55.5473349 90.4655,55.23 C90.1738319,54.9126651 89.8203354,54.6688342 89.405,54.4985 C88.9896646,54.3281658 88.5230026,54.243 88.005,54.243 L85.842,54.243 L85.842,61.677 L88.005,61.677 C88.5230026,61.677 88.9896646,61.5930008 89.405,61.425 C89.8203354,61.2569992 90.1738319,61.0131683 90.4655,60.6935 C90.7571681,60.3738317 90.9811659,59.984169 91.1375,59.5245 C91.2938341,59.064831 91.372,58.5433363 91.372,57.96 Z M99.156,58.625 C99.156,58.3729987 99.1198337,58.1385011 99.0475,57.9215 C98.9751663,57.7044989 98.8690007,57.5155008 98.729,57.3545 C98.5889993,57.1934992 98.4151677,57.0675005 98.2075,56.9765 C97.9998323,56.8854995 97.760668,56.84 97.49,56.84 C96.9439973,56.84 96.5146682,56.9963318 96.202,57.309 C95.8893318,57.6216682 95.6910004,58.0603305 95.607,58.625 L99.156,58.625 Z M95.565,59.549 C95.5836668,59.955002 95.6466661,60.3061652 95.754,60.6025 C95.8613339,60.8988348 96.0048324,61.144999 96.1845,61.341 C96.3641676,61.537001 96.5788321,61.6828329 96.8285,61.7785 C97.0781679,61.8741671 97.3569985,61.922 97.665,61.922 C97.9590015,61.922 98.2133323,61.888167 98.428,61.8205 C98.6426677,61.752833 98.8293325,61.6781671 98.988,61.5965 C99.1466675,61.5148329 99.2819994,61.440167 99.394,61.3725 C99.5060006,61.304833 99.6086662,61.271 99.702,61.271 C99.8233339,61.271 99.9166663,61.3176662 99.982,61.411 L100.409,61.964 C100.231666,62.1740011 100.031001,62.3513326 99.807,62.496 C99.5829989,62.6406674 99.3450013,62.7584995 99.093,62.8495 C98.8409987,62.9405005 98.5820013,63.0058331 98.316,63.0455 C98.0499987,63.0851669 97.7910013,63.105 97.539,63.105 C97.0443309,63.105 96.5858354,63.0221675 96.1635,62.8565 C95.7411646,62.6908325 95.3748349,62.4470016 95.0645,62.125 C94.7541651,61.8029984 94.5115009,61.4040024 94.3365,60.928 C94.1614991,60.4519976 94.074,59.9036698 94.074,59.283 C94.074,58.7883309 94.1521659,58.3263355 94.3085,57.897 C94.4648341,57.4676645 94.6888319,57.0943349 94.9805,56.777 C95.2721681,56.4596651 95.6268312,56.2088343 96.0445,56.0245 C96.4621688,55.8401657 96.934664,55.748 97.462,55.748 C97.9006689,55.748 98.3066648,55.819166 98.68,55.9615 C99.0533352,56.103834 99.375332,56.3126653 99.646,56.588 C99.916668,56.8633347 100.127833,57.200498 100.2795,57.5995 C100.431167,57.998502 100.507,58.4523308 100.507,58.961 C100.507,59.1943345 100.481334,59.3506663 100.43,59.43 C100.378666,59.5093337 100.285334,59.549 100.15,59.549 L95.565,59.549 Z M102.299,63 L102.299,57.057 L101.599,56.959 C101.482333,56.9356665 101.387834,56.893667 101.3155,56.833 C101.243166,56.772333 101.207,56.6860006 101.207,56.574 L101.207,55.958 L102.299,55.958 L102.299,55.356 C102.299,54.949998 102.358499,54.5860016 102.4775,54.264 C102.596501,53.9419984 102.766832,53.6690011 102.9885,53.445 C103.210168,53.2209989 103.479665,53.0495006 103.797,52.9305 C104.114335,52.8114994 104.471331,52.752 104.868,52.752 C105.031334,52.752 105.186499,52.7636666 105.3335,52.787 C105.480501,52.8103335 105.623999,52.8453331 105.764,52.892 L105.736,53.648 C105.726667,53.7740006 105.664834,53.8486665 105.5505,53.872 C105.436166,53.8953334 105.292668,53.907 105.12,53.907 C104.909999,53.907 104.721001,53.9314998 104.553,53.9805 C104.384999,54.0295002 104.241501,54.1123327 104.1225,54.229 C104.003499,54.3456673 103.9125,54.4996657 103.8495,54.691 C103.7865,54.8823343 103.755,55.1203319 103.755,55.405 L103.755,55.958 L105.708,55.958 L105.708,57.043 L103.804,57.043 L103.804,63 L102.299,63 Z M110.566,59.878 C110.029331,59.8966668 109.576669,59.939833 109.208,60.0075 C108.839331,60.075167 108.540668,60.1614995 108.312,60.2665 C108.083332,60.3715005 107.918834,60.4963326 107.8185,60.641 C107.718166,60.7856674 107.668,60.9443325 107.668,61.117 C107.668,61.2850008 107.694833,61.4284994 107.7485,61.5475 C107.802167,61.6665006 107.876833,61.7644996 107.9725,61.8415 C108.068167,61.9185004 108.180166,61.9744998 108.3085,62.0095 C108.436834,62.0445002 108.577999,62.062 108.732,62.062 C109.124002,62.062 109.461165,61.9885007 109.7435,61.8415 C110.025835,61.6944993 110.299999,61.4810014 110.566,61.201 L110.566,59.878 Z M106.576,56.854 C107.383337,56.1026629 108.344661,55.727 109.46,55.727 C109.870669,55.727 110.235832,55.7934993 110.5555,55.9265 C110.875168,56.0595007 111.143499,56.2473321 111.3605,56.49 C111.577501,56.7326679 111.743166,57.0208317 111.8575,57.3545 C111.971834,57.6881683 112.029,58.057998 112.029,58.464 L112.029,63 L111.357,63 C111.212333,63 111.102667,62.9778336 111.028,62.9335 C110.953333,62.8891664 110.890334,62.799334 110.839,62.664 L110.692,62.083 C110.509999,62.2463342 110.330334,62.392166 110.153,62.5205 C109.975666,62.648834 109.792501,62.7573329 109.6035,62.846 C109.414499,62.9346671 109.211501,63.0011664 108.9945,63.0455 C108.777499,63.0898336 108.538335,63.112 108.277,63.112 C107.987665,63.112 107.718168,63.0723337 107.4685,62.993 C107.218832,62.9136663 107.003001,62.7935008 106.821,62.6325 C106.638999,62.4714992 106.495501,62.2720012 106.3905,62.034 C106.285499,61.7959988 106.233,61.5160016 106.233,61.194 C106.233,60.9186653 106.306499,60.6503346 106.4535,60.389 C106.600501,60.1276654 106.843165,59.8931677 107.1815,59.6855 C107.519835,59.4778323 107.965497,59.306334 108.5185,59.171 C109.071503,59.035666 109.753996,58.9586668 110.566,58.94 L110.566,58.464 C110.566,57.9506641 110.456334,57.5680013 110.237,57.316 C110.017666,57.0639987 109.695669,56.938 109.271,56.938 C108.981665,56.938 108.739001,56.9741663 108.543,57.0465 C108.346999,57.1188337 108.176667,57.1969996 108.032,57.281 C107.887333,57.3650004 107.759001,57.4431663 107.647,57.5155 C107.534999,57.5878337 107.416001,57.624 107.29,57.624 C107.187333,57.624 107.099834,57.5971669 107.0275,57.5435 C106.955166,57.4898331 106.895667,57.4233337 106.849,57.344 L106.576,56.854 Z M119.806,55.86 L119.806,63 L118.896,63 C118.695332,63 118.567,62.9043343 118.511,62.713 L118.399,62.048 C118.249666,62.2066675 118.092167,62.3513327 117.9265,62.482 C117.760833,62.6126673 117.584668,62.7246662 117.398,62.818 C117.211332,62.9113338 117.011834,62.9836664 116.7995,63.035 C116.587166,63.0863336 116.359668,63.112 116.117,63.112 C115.724998,63.112 115.379668,63.0466673 115.081,62.916 C114.782332,62.7853327 114.531501,62.6010012 114.3285,62.363 C114.125499,62.1249988 113.972667,61.8391683 113.87,61.5055 C113.767333,61.1718317 113.716,60.8043353 113.716,60.403 L113.716,55.86 L115.221,55.86 L115.221,60.403 C115.221,60.8836691 115.331832,61.2569987 115.5535,61.523 C115.775168,61.7890013 116.112331,61.922 116.565,61.922 C116.896335,61.922 117.205499,61.8461674 117.4925,61.6945 C117.779501,61.5428326 118.048999,61.3340013 118.301,61.068 L118.301,55.86 L119.806,55.86 Z M123.173,52.64 L123.173,63 L121.668,63 L121.668,52.64 L123.173,52.64 Z M127.324,63.112 C126.73133,63.112 126.275168,62.9451683 125.9555,62.6115 C125.635832,62.2778317 125.476,61.8076697 125.476,61.201 L125.476,57.043 L124.692,57.043 C124.608,57.043 124.535667,57.0161669 124.475,56.9625 C124.414333,56.9088331 124.384,56.8283339 124.384,56.721 L124.384,56.112 L125.539,55.944 L125.868,53.879 C125.891333,53.7996663 125.931,53.7355002 125.987,53.6865 C126.043,53.6374998 126.117666,53.613 126.211,53.613 L126.981,53.613 L126.981,55.958 L128.962,55.958 L128.962,57.043 L126.981,57.043 L126.981,61.096 C126.981,61.3526679 127.043999,61.548666 127.17,61.684 C127.296001,61.819334 127.463999,61.887 127.674,61.887 C127.790667,61.887 127.891,61.8718335 127.975,61.8415 C128.059,61.8111665 128.131333,61.7785002 128.192,61.7435 C128.252667,61.7084998 128.305166,61.6758335 128.3495,61.6455 C128.393834,61.6151665 128.437,61.6 128.479,61.6 C128.563,61.6 128.630666,61.6466662 128.682,61.74 L129.13,62.475 C128.896666,62.6803344 128.621335,62.8378328 128.304,62.9475 C127.986665,63.0571672 127.660002,63.112 127.324,63.112 Z" id="Default" fill="#3E5667" fill-rule="nonzero"></path>
                <path d="M289.531,59.22 L288.145,55.538 C288.032999,55.2533319 287.918667,54.8916689 287.802,54.453 C287.750666,54.6723344 287.694667,54.8741657 287.634,55.0585 C287.573333,55.2428343 287.517334,55.4049993 287.466,55.545 L286.08,59.22 L289.531,59.22 Z M292.632,63 L291.365,63 C291.220333,63 291.103667,62.9638337 291.015,62.8915 C290.926333,62.8191663 290.858667,62.7293339 290.812,62.622 L289.972,60.396 L285.632,60.396 L284.792,62.622 C284.754666,62.7153338 284.689334,62.8016663 284.596,62.881 C284.502666,62.9603337 284.386001,63 284.246,63 L282.979,63 L286.976,52.92 L288.635,52.92 L292.632,63 Z M298.386,57.26 C298.339333,57.320667 298.295,57.3673332 298.253,57.4 C298.211,57.4326668 298.150334,57.449 298.071,57.449 C297.991666,57.449 297.908834,57.4210003 297.8225,57.365 C297.736166,57.3089997 297.633501,57.247167 297.5145,57.1795 C297.395499,57.111833 297.252001,57.0500003 297.084,56.994 C296.915999,56.9379997 296.706001,56.91 296.454,56.91 C296.127332,56.91 295.841501,56.9683328 295.5965,57.085 C295.351499,57.2016673 295.146167,57.3684989 294.9805,57.5855 C294.814833,57.8025011 294.691167,58.0661651 294.6095,58.3765 C294.527833,58.6868349 294.487,59.0356647 294.487,59.423 C294.487,59.8243353 294.531333,60.1813318 294.62,60.494 C294.708667,60.8066682 294.835833,61.0703323 295.0015,61.285 C295.167167,61.4996677 295.367832,61.6629994 295.6035,61.775 C295.839168,61.8870006 296.103999,61.943 296.398,61.943 C296.687335,61.943 296.922999,61.9080004 297.105,61.838 C297.287001,61.7679997 297.438666,61.6910004 297.56,61.607 C297.681334,61.5229996 297.785166,61.4460004 297.8715,61.376 C297.957834,61.3059997 298.05,61.271 298.148,61.271 C298.269334,61.271 298.362666,61.3176662 298.428,61.411 L298.855,61.964 C298.682332,62.1740011 298.491001,62.3513326 298.281,62.496 C298.070999,62.6406674 297.849335,62.7584995 297.616,62.8495 C297.382666,62.9405005 297.140001,63.0058331 296.888,63.0455 C296.635999,63.0851669 296.381668,63.105 296.125,63.105 C295.681664,63.105 295.267502,63.0221675 294.8825,62.8565 C294.497498,62.6908325 294.161501,62.4505016 293.8745,62.1355 C293.587499,61.8204984 293.361167,61.4355023 293.1955,60.9805 C293.029833,60.5254977 292.947,60.0063363 292.947,59.423 C292.947,58.895664 293.021666,58.4068356 293.171,57.9565 C293.320334,57.5061644 293.538499,57.1176683 293.8255,56.791 C294.112501,56.4643317 294.468331,56.2088343 294.893,56.0245 C295.317669,55.8401657 295.807664,55.748 296.363,55.748 C296.881003,55.748 297.337165,55.8319992 297.7315,56 C298.125835,56.1680008 298.476998,56.4059985 298.785,56.714 L298.386,57.26 Z M306.989,63 L305.484,63 L305.484,57.043 L302.005,57.043 L302.005,61.096 C302.005,61.352668 302.067999,61.548666 302.194,61.684 C302.320001,61.819334 302.487999,61.887 302.698,61.887 C302.814667,61.887 302.915,61.8718335 302.999,61.8415 C303.083,61.8111665 303.155333,61.7785002 303.216,61.7435 C303.276667,61.7084998 303.329166,61.6758335 303.3735,61.6455 C303.417834,61.6151665 303.461,61.6 303.503,61.6 C303.587,61.6 303.654666,61.6466662 303.706,61.74 L304.154,62.475 C303.920666,62.6803344 303.645335,62.8378328 303.328,62.9475 C303.010665,63.0571672 302.684002,63.112 302.348,63.112 C301.75533,63.112 301.299168,62.9451683 300.9795,62.6115 C300.659832,62.2778317 300.5,61.8076697 300.5,61.201 L300.5,57.043 L299.716,57.043 C299.632,57.043 299.559667,57.0161669 299.499,56.9625 C299.438333,56.9088331 299.408,56.8283339 299.408,56.721 L299.408,56.112 L300.563,55.944 L300.892,53.879 C300.915333,53.7996663 300.955,53.7355002 301.011,53.6865 C301.067,53.6374998 301.141666,53.613 301.235,53.613 L302.005,53.613 L302.005,55.958 L306.989,55.958 L306.989,63 Z M307.297,53.669 C307.297,53.804334 307.270167,53.9314994 307.2165,54.0505 C307.162833,54.1695006 307.089334,54.2744995 306.996,54.3655 C306.902666,54.4565005 306.794167,54.5288331 306.6705,54.5825 C306.546833,54.6361669 306.417334,54.663 306.282,54.663 C306.146666,54.663 306.019501,54.6361669 305.9005,54.5825 C305.781499,54.5288331 305.6765,54.4565005 305.5855,54.3655 C305.4945,54.2744995 305.422167,54.1695006 305.3685,54.0505 C305.314833,53.9314994 305.288,53.804334 305.288,53.669 C305.288,53.5289993 305.314833,53.3971673 305.3685,53.2735 C305.422167,53.1498327 305.4945,53.0425005 305.5855,52.9515 C305.6765,52.8604995 305.781499,52.7881669 305.9005,52.7345 C306.019501,52.6808331 306.146666,52.654 306.282,52.654 C306.417334,52.654 306.546833,52.6808331 306.6705,52.7345 C306.794167,52.7881669 306.902666,52.8604995 306.996,52.9515 C307.089334,53.0425005 307.162833,53.1498327 307.2165,53.2735 C307.270167,53.3971673 307.297,53.5289993 307.297,53.669 Z M315.172,55.86 L312.302,63 L310.944,63 L308.074,55.86 L309.313,55.86 C309.429667,55.86 309.5265,55.8891664 309.6035,55.9475 C309.6805,56.0058336 309.730667,56.0746663 309.754,56.154 L311.336,60.312 C311.401334,60.508001 311.459666,60.7016657 311.511,60.893 C311.562334,61.0843343 311.606666,61.277999 311.644,61.474 C311.681334,61.277999 311.726833,61.0855009 311.7805,60.8965 C311.834167,60.7074991 311.893666,60.5126677 311.959,60.312 L313.569,56.154 C313.597,56.0699996 313.648333,56.0000003 313.723,55.944 C313.797667,55.8879997 313.888666,55.86 313.996,55.86 L315.172,55.86 Z M320.674,58.625 C320.674,58.3729987 320.637834,58.1385011 320.5655,57.9215 C320.493166,57.7044989 320.387001,57.5155008 320.247,57.3545 C320.106999,57.1934992 319.933168,57.0675005 319.7255,56.9765 C319.517832,56.8854995 319.278668,56.84 319.008,56.84 C318.461997,56.84 318.032668,56.9963318 317.72,57.309 C317.407332,57.6216682 317.209,58.0603305 317.125,58.625 L320.674,58.625 Z M317.083,59.549 C317.101667,59.955002 317.164666,60.3061652 317.272,60.6025 C317.379334,60.8988348 317.522832,61.144999 317.7025,61.341 C317.882168,61.537001 318.096832,61.6828329 318.3465,61.7785 C318.596168,61.8741671 318.874998,61.922 319.183,61.922 C319.477001,61.922 319.731332,61.888167 319.946,61.8205 C320.160668,61.752833 320.347333,61.6781671 320.506,61.5965 C320.664667,61.5148329 320.799999,61.440167 320.912,61.3725 C321.024001,61.304833 321.126666,61.271 321.22,61.271 C321.341334,61.271 321.434666,61.3176662 321.5,61.411 L321.927,61.964 C321.749666,62.1740011 321.549001,62.3513326 321.325,62.496 C321.100999,62.6406674 320.863001,62.7584995 320.611,62.8495 C320.358999,62.9405005 320.100001,63.0058331 319.834,63.0455 C319.567999,63.0851669 319.309001,63.105 319.057,63.105 C318.562331,63.105 318.103835,63.0221675 317.6815,62.8565 C317.259165,62.6908325 316.892835,62.4470016 316.5825,62.125 C316.272165,61.8029984 316.029501,61.4040024 315.8545,60.928 C315.679499,60.4519976 315.592,59.9036698 315.592,59.283 C315.592,58.7883309 315.670166,58.3263355 315.8265,57.897 C315.982834,57.4676645 316.206832,57.0943349 316.4985,56.777 C316.790168,56.4596651 317.144831,56.2088343 317.5625,56.0245 C317.980169,55.8401657 318.452664,55.748 318.98,55.748 C319.418669,55.748 319.824665,55.819166 320.198,55.9615 C320.571335,56.103834 320.893332,56.3126653 321.164,56.588 C321.434668,56.8633347 321.645833,57.200498 321.7975,57.5995 C321.949167,57.998502 322.025,58.4523308 322.025,58.961 C322.025,59.1943345 321.999334,59.3506663 321.948,59.43 C321.896666,59.5093337 321.803334,59.549 321.668,59.549 L317.083,59.549 Z" id="Actve" fill="#3E5667" fill-rule="nonzero"></path>
                <path d="M485.842,54.243 L485.842,57.47 L489.783,57.47 L489.783,58.793 L485.842,58.793 L485.842,63 L484.197,63 L484.197,52.92 L490.483,52.92 L490.483,54.243 L485.842,54.243 Z M493.381,55.86 L493.381,63 L491.876,63 L491.876,55.86 L493.381,55.86 Z M493.633,53.704 C493.633,53.839334 493.606167,53.9676661 493.5525,54.089 C493.498833,54.2103339 493.425334,54.3164995 493.332,54.4075 C493.238666,54.4985005 493.130167,54.5708331 493.0065,54.6245 C492.882833,54.6781669 492.751001,54.705 492.611,54.705 C492.475666,54.705 492.348501,54.6781669 492.2295,54.6245 C492.110499,54.5708331 492.006667,54.4985005 491.918,54.4075 C491.829333,54.3164995 491.758167,54.2103339 491.7045,54.089 C491.650833,53.9676661 491.624,53.839334 491.624,53.704 C491.624,53.5639993 491.650833,53.4333339 491.7045,53.312 C491.758167,53.1906661 491.829333,53.0845005 491.918,52.9935 C492.006667,52.9024995 492.110499,52.8301669 492.2295,52.7765 C492.348501,52.7228331 492.475666,52.696 492.611,52.696 C492.751001,52.696 492.882833,52.7228331 493.0065,52.7765 C493.130167,52.8301669 493.238666,52.9024995 493.332,52.9935 C493.425334,53.0845005 493.498833,53.1906661 493.5525,53.312 C493.606167,53.4333339 493.633,53.5639993 493.633,53.704 Z M496.811,52.64 L496.811,63 L495.306,63 L495.306,52.64 L496.811,52.64 Z M500.206,52.64 L500.206,63 L498.701,63 L498.701,52.64 L500.206,52.64 Z M506.751,58.625 C506.751,58.3729987 506.714834,58.1385011 506.6425,57.9215 C506.570166,57.7044989 506.464001,57.5155008 506.324,57.3545 C506.183999,57.1934992 506.010168,57.0675005 505.8025,56.9765 C505.594832,56.8854995 505.355668,56.84 505.085,56.84 C504.538997,56.84 504.109668,56.9963318 503.797,57.309 C503.484332,57.6216682 503.286,58.0603305 503.202,58.625 L506.751,58.625 Z M503.16,59.549 C503.178667,59.955002 503.241666,60.3061652 503.349,60.6025 C503.456334,60.8988348 503.599832,61.144999 503.7795,61.341 C503.959168,61.537001 504.173832,61.6828329 504.4235,61.7785 C504.673168,61.8741671 504.951998,61.922 505.26,61.922 C505.554001,61.922 505.808332,61.888167 506.023,61.8205 C506.237668,61.752833 506.424333,61.6781671 506.583,61.5965 C506.741667,61.5148329 506.876999,61.440167 506.989,61.3725 C507.101001,61.304833 507.203666,61.271 507.297,61.271 C507.418334,61.271 507.511666,61.3176662 507.577,61.411 L508.004,61.964 C507.826666,62.174001 507.626001,62.3513326 507.402,62.496 C507.177999,62.6406674 506.940001,62.7584995 506.688,62.8495 C506.435999,62.9405005 506.177001,63.0058331 505.911,63.0455 C505.644999,63.0851669 505.386001,63.105 505.134,63.105 C504.639331,63.105 504.180835,63.0221675 503.7585,62.8565 C503.336165,62.6908325 502.969835,62.4470016 502.6595,62.125 C502.349165,61.8029984 502.106501,61.4040024 501.9315,60.928 C501.756499,60.4519976 501.669,59.9036698 501.669,59.283 C501.669,58.7883309 501.747166,58.3263355 501.9035,57.897 C502.059834,57.4676645 502.283832,57.0943349 502.5755,56.777 C502.867168,56.4596651 503.221831,56.2088343 503.6395,56.0245 C504.057169,55.8401657 504.529664,55.748 505.057,55.748 C505.495669,55.748 505.901665,55.819166 506.275,55.9615 C506.648335,56.103834 506.970332,56.3126653 507.241,56.588 C507.511668,56.8633347 507.722833,57.200498 507.8745,57.5995 C508.026167,57.998502 508.102,58.4523308 508.102,58.961 C508.102,59.1943345 508.076334,59.3506663 508.025,59.43 C507.973666,59.5093337 507.880334,59.549 507.745,59.549 L503.16,59.549 Z M514.059,57.617 C513.848999,57.346332 513.618001,57.1573339 513.366,57.05 C513.113999,56.9426661 512.841001,56.889 512.547,56.889 C511.958997,56.889 511.499335,57.1048312 511.168,57.5365 C510.836665,57.9681688 510.671,58.6063291 510.671,59.451 C510.671,59.8896689 510.708333,60.2641651 510.783,60.5745 C510.857667,60.8848349 510.964999,61.137999 511.105,61.334 C511.245001,61.530001 511.415332,61.6723329 511.616,61.761 C511.816668,61.8496671 512.042999,61.894 512.295,61.894 C512.677669,61.894 513.007832,61.8111675 513.2855,61.6455 C513.563168,61.4798325 513.820999,61.2453348 514.059,60.942 L514.059,57.617 Z M515.564,52.64 L515.564,63 L514.654,63 C514.453332,63 514.325,62.9043343 514.269,62.713 L514.136,61.936 C513.837332,62.2860017 513.497835,62.5683323 513.1175,62.783 C512.737165,62.9976677 512.295003,63.105 511.791,63.105 C511.389665,63.105 511.025668,63.0245008 510.699,62.8635 C510.372332,62.7024992 510.092334,62.4680015 509.859,62.16 C509.625665,61.8519985 509.444834,61.4705023 509.3165,61.0155 C509.188166,60.5604977 509.124,60.0390029 509.124,59.451 C509.124,58.9189973 509.195166,58.4266689 509.3375,57.974 C509.479834,57.5213311 509.683999,57.1281683 509.95,56.7945 C510.216001,56.4608317 510.539165,56.1995009 510.9195,56.0105 C511.299835,55.8214991 511.725664,55.727 512.197,55.727 C512.617002,55.727 512.973999,55.7934993 513.268,55.9265 C513.562001,56.0595007 513.825665,56.2449988 514.059,56.483 L514.059,52.64 L515.564,52.64 Z" id="Filled" fill="#3E5667" fill-rule="nonzero"></path>
                <g id="Forms/Textarea/Filled" transform="translate(483.000000, 76.000000)">
                    <g>
                        <rect id="Rectangle" stroke="#B8C7D2" fill="#FFFFFF" x="-0.5" y="-0.5" width="161" height="81" rx="3"></rect>
                        <text id="Textarea-user-input" font-family="Lato-Medium, Lato" font-size="14" font-weight="400" line-spacing="18" fill="#253B53">
                            <tspan x="14" y="41">Textarea user input</tspan>
                        </text>
                        <text id="First-Name-(optional" font-family="Lato-Medium, Lato" font-size="12" font-weight="400" fill="#748999">
                            <tspan x="14" y="20">First Name (optional)</tspan>
                        </text>
                    </g>
                    <g id="Resize" transform="translate(155.889087, 75.889087) rotate(45.000000) translate(-155.889087, -75.889087) translate(153.889087, 72.389087)" fill="#748999">
                        <rect id="Line" x="0.828427125" y="0.414213562" width="1" height="6" rx="0.5"></rect>
                        <rect id="Line" x="2.82842712" y="1.41421356" width="1" height="4" rx="0.5"></rect>
                    </g>
                </g>
                <g id="Forms/Textarea/Active" transform="translate(283.000000, 76.000000)">
                    <g>
                        <rect id="BG" stroke="#3A8FDD" stroke-width="2" fill="#FFFFFF" x="-1" y="-1" width="162" height="82" rx="3"></rect>
                        <text id="Label" font-family="Lato-Medium, Lato" font-size="12" font-weight="400" fill="#748999">
                            <tspan x="14" y="20">Label</tspan>
                        </text>
                        <rect id="Rectangle" fill="#253B53" x="15" y="27" width="1" height="11"></rect>
                    </g>
                    <g id="Resize" transform="translate(155.889087, 75.889087) rotate(45.000000) translate(-155.889087, -75.889087) translate(153.889087, 72.389087)" fill="#748999">
                        <rect id="Line" x="0.828427125" y="0.414213562" width="1" height="6" rx="0.5"></rect>
                        <rect id="Line" x="2.82842712" y="1.41421356" width="1" height="4" rx="0.5"></rect>
                    </g>
                </g>
                <g id="Forms/Textarea/Default" transform="translate(83.000000, 76.000000)">
                    <g>
                        <rect id="BG" stroke="#B8C7D2" fill="#FFFFFF" x="-0.5" y="-0.5" width="161" height="81" rx="3"></rect>
                        <text id="Label" font-family="Lato-Medium, Lato" font-size="15" font-weight="400" fill="#748999">
                            <tspan x="14" y="28">Label</tspan>
                        </text>
                    </g>
                    <g id="Resize" transform="translate(156.207107, 76.414214) rotate(45.000000) translate(-156.207107, -76.414214) translate(154.207107, 72.914214)" fill="#748999">
                        <rect id="Line" x="0.828427125" y="0.414213562" width="1" height="6" rx="0.5"></rect>
                        <rect id="Line" x="2.82842712" y="1.41421356" width="1" height="4" rx="0.5"></rect>
                    </g>
                </g>
                <path d="M8.715,232.6625 L5.3475,232.6625 L5.3475,242 L3.6,242 L3.6,232.6625 L0.225,232.6625 L0.225,231.2 L8.715,231.2 L8.715,232.6625 Z M11.4,235.2575 C11.7150016,234.947498 12.0599981,234.698751 12.435,234.51125 C12.8100019,234.323749 13.2474975,234.23 13.7475,234.23 C14.1675021,234.23 14.5362484,234.299999 14.85375,234.44 C15.1712516,234.580001 15.4387489,234.777499 15.65625,235.0325 C15.8737511,235.287501 16.0374994,235.593748 16.1475,235.95125 C16.2575005,236.308752 16.3125,236.702498 16.3125,237.1325 L16.3125,242 L14.7075,242 L14.7075,237.1325 C14.7075,236.617497 14.5887512,236.217501 14.35125,235.9325 C14.1137488,235.647499 13.7525024,235.505 13.2675,235.505 C12.9074982,235.505 12.5737515,235.587499 12.26625,235.7525 C11.9587485,235.917501 11.6700013,236.142499 11.4,236.4275 L11.4,242 L9.7875,242 L9.7875,230.9 L11.4,230.9 L11.4,235.2575 Z M23.22,237.3125 C23.22,237.042499 23.1812504,236.791251 23.10375,236.55875 C23.0262496,236.326249 22.9125007,236.123751 22.7625,235.95125 C22.6124992,235.778749 22.4262511,235.64375 22.20375,235.54625 C21.9812489,235.44875 21.7250014,235.4 21.435,235.4 C20.8499971,235.4 20.3900017,235.567498 20.055,235.9025 C19.7199983,236.237502 19.5075004,236.707497 19.4175,237.3125 L23.22,237.3125 Z M19.3725,238.3025 C19.3925001,238.737502 19.4599994,239.113748 19.575,239.43125 C19.6900006,239.748752 19.843749,240.012499 20.03625,240.2225 C20.228751,240.432501 20.4587487,240.588749 20.72625,240.69125 C20.9937513,240.793751 21.2924983,240.845 21.6225,240.845 C21.9375016,240.845 22.2099988,240.80875 22.44,240.73625 C22.6700011,240.66375 22.8699991,240.58375 23.04,240.49625 C23.2100008,240.40875 23.3549994,240.32875 23.475,240.25625 C23.5950006,240.18375 23.7049995,240.1475 23.805,240.1475 C23.9350006,240.1475 24.0349996,240.1975 24.105,240.2975 L24.5625,240.89 C24.372499,241.115001 24.1575012,241.304999 23.9175,241.46 C23.6774988,241.615001 23.4225013,241.74125 23.1525,241.83875 C22.8824986,241.93625 22.6050014,242.00625 22.32,242.04875 C22.0349986,242.09125 21.7575013,242.1125 21.4875,242.1125 C20.9574973,242.1125 20.4662523,242.023751 20.01375,241.84625 C19.5612477,241.668749 19.1687517,241.407502 18.83625,241.0625 C18.5037483,240.717498 18.2437509,240.290003 18.05625,239.78 C17.8687491,239.269997 17.775,238.682503 17.775,238.0175 C17.775,237.487497 17.8587492,236.992502 18.02625,236.5325 C18.1937508,236.072498 18.4337484,235.672502 18.74625,235.3325 C19.0587516,234.992498 19.4387478,234.723751 19.88625,234.52625 C20.3337522,234.328749 20.8399972,234.23 21.405,234.23 C21.8750023,234.23 22.309998,234.306249 22.71,234.45875 C23.110002,234.611251 23.4549985,234.834999 23.745,235.13 C24.0350014,235.425001 24.2612492,235.786248 24.42375,236.21375 C24.5862508,236.641252 24.6675,237.127497 24.6675,237.6725 C24.6675,237.922501 24.6400003,238.09 24.585,238.175 C24.5299997,238.26 24.4300007,238.3025 24.285,238.3025 L19.3725,238.3025 Z M37.185,232.6625 L33.8175,232.6625 L33.8175,242 L32.07,242 L32.07,232.6625 L28.695,232.6625 L28.695,231.2 L37.185,231.2 L37.185,232.6625 Z M41.5875,237.3125 C41.5875,237.042499 41.5487504,236.791251 41.47125,236.55875 C41.3937496,236.326249 41.2800007,236.123751 41.13,235.95125 C40.9799992,235.778749 40.7937511,235.64375 40.57125,235.54625 C40.3487489,235.44875 40.0925014,235.4 39.8025,235.4 C39.2174971,235.4 38.7575017,235.567498 38.4225,235.9025 C38.0874983,236.237502 37.8750004,236.707497 37.785,237.3125 L41.5875,237.3125 Z M37.74,238.3025 C37.7600001,238.737502 37.8274994,239.113748 37.9425,239.43125 C38.0575006,239.748752 38.211249,240.012499 38.40375,240.2225 C38.596251,240.432501 38.8262487,240.588749 39.09375,240.69125 C39.3612513,240.793751 39.6599983,240.845 39.99,240.845 C40.3050016,240.845 40.5774988,240.80875 40.8075,240.73625 C41.0375011,240.66375 41.2374991,240.58375 41.4075,240.49625 C41.5775008,240.40875 41.7224994,240.32875 41.8425,240.25625 C41.9625006,240.18375 42.0724995,240.1475 42.1725,240.1475 C42.3025006,240.1475 42.4024996,240.1975 42.4725,240.2975 L42.93,240.89 C42.739999,241.115001 42.5250012,241.304999 42.285,241.46 C42.0449988,241.615001 41.7900013,241.74125 41.52,241.83875 C41.2499986,241.93625 40.9725014,242.00625 40.6875,242.04875 C40.4024986,242.09125 40.1250013,242.1125 39.855,242.1125 C39.3249973,242.1125 38.8337523,242.023751 38.38125,241.84625 C37.9287477,241.668749 37.5362517,241.407502 37.20375,241.0625 C36.8712483,240.717498 36.6112509,240.290003 36.42375,239.78 C36.2362491,239.269997 36.1425,238.682503 36.1425,238.0175 C36.1425,237.487497 36.2262492,236.992502 36.39375,236.5325 C36.5612508,236.072498 36.8012484,235.672502 37.11375,235.3325 C37.4262516,234.992498 37.8062478,234.723751 38.25375,234.52625 C38.7012522,234.328749 39.2074972,234.23 39.7725,234.23 C40.2425023,234.23 40.677498,234.306249 41.0775,234.45875 C41.477502,234.611251 41.8224985,234.834999 42.1125,235.13 C42.4025014,235.425001 42.6287492,235.786248 42.79125,236.21375 C42.9537508,236.641252 43.035,237.127497 43.035,237.6725 C43.035,237.922501 43.0075003,238.09 42.9525,238.175 C42.8974997,238.26 42.7975007,238.3025 42.6525,238.3025 L37.74,238.3025 Z M51,242 L49.455,242 C49.3299994,242 49.2312504,241.9675 49.15875,241.9025 C49.0862496,241.8375 49.0275002,241.765 48.9825,241.685 L47.22,238.8575 C47.1749998,239.027501 47.1150004,239.174999 47.04,239.3 L45.4425,241.685 C45.3874997,241.765 45.3262503,241.8375 45.25875,241.9025 C45.1912497,241.9675 45.1025005,242 44.9925,242 L43.5525,242 L46.2,238.055 L43.6575,234.35 L45.2025,234.35 C45.3275006,234.35 45.4187497,234.36875 45.47625,234.40625 C45.5337503,234.44375 45.5849998,234.5 45.63,234.575 L47.3625,237.275 C47.4075002,237.109999 47.4774995,236.952501 47.5725,236.8025 L49.035,234.605 C49.1350005,234.434999 49.2624992,234.35 49.4175,234.35 L50.895,234.35 L48.3525,237.9875 L51,242 Z M54.54,242.12 C53.9049968,242.12 53.4162517,241.941252 53.07375,241.58375 C52.7312483,241.226248 52.56,240.722503 52.56,240.0725 L52.56,235.6175 L51.72,235.6175 C51.6299995,235.6175 51.5525003,235.58875 51.4875,235.53125 C51.4224997,235.47375 51.39,235.387501 51.39,235.2725 L51.39,234.62 L52.6275,234.44 L52.98,232.2275 C53.0050001,232.1425 53.0474997,232.07375 53.1075,232.02125 C53.1675003,231.96875 53.2474995,231.9425 53.3475,231.9425 L54.1725,231.9425 L54.1725,234.455 L56.295,234.455 L56.295,235.6175 L54.1725,235.6175 L54.1725,239.96 C54.1725,240.235001 54.2399993,240.444999 54.375,240.59 C54.5100007,240.735001 54.6899989,240.8075 54.915,240.8075 C55.0400006,240.8075 55.1474995,240.79125 55.2375,240.75875 C55.3275004,240.72625 55.4049997,240.69125 55.47,240.65375 C55.5350003,240.61625 55.5912498,240.58125 55.63875,240.54875 C55.6862502,240.51625 55.7324998,240.5 55.7775,240.5 C55.8675004,240.5 55.9399997,240.55 55.995,240.65 L56.475,241.4375 C56.2249987,241.657501 55.9300017,241.826249 55.59,241.94375 C55.2499983,242.061251 54.9000018,242.12 54.54,242.12 Z M61.6575,238.655 C61.0824971,238.675 60.597502,238.72125 60.2025,238.79375 C59.807498,238.86625 59.4875012,238.958749 59.2425,239.07125 C58.9974988,239.183751 58.8212505,239.317499 58.71375,239.4725 C58.6062495,239.627501 58.5525,239.797499 58.5525,239.9825 C58.5525,240.162501 58.5812497,240.316249 58.63875,240.44375 C58.6962503,240.571251 58.7762495,240.67625 58.87875,240.75875 C58.9812505,240.84125 59.1012493,240.90125 59.23875,240.93875 C59.3762507,240.97625 59.5274992,240.995 59.6925,240.995 C60.1125021,240.995 60.4737485,240.916251 60.77625,240.75875 C61.0787515,240.601249 61.3724986,240.372501 61.6575,240.0725 L61.6575,238.655 Z M57.3825,235.415 C58.2475043,234.609996 59.277494,234.2075 60.4725,234.2075 C60.9125022,234.2075 61.3037483,234.278749 61.64625,234.42125 C61.9887517,234.563751 62.2762488,234.764999 62.50875,235.025 C62.7412512,235.285001 62.9187494,235.593748 63.04125,235.95125 C63.1637506,236.308752 63.225,236.704998 63.225,237.14 L63.225,242 L62.505,242 C62.3499992,242 62.2325004,241.97625 62.1525,241.92875 C62.0724996,241.88125 62.0050003,241.785001 61.95,241.64 L61.7925,241.0175 C61.597499,241.192501 61.4050009,241.348749 61.215,241.48625 C61.024999,241.623751 60.828751,241.74 60.62625,241.835 C60.423749,241.93 60.2062512,242.00125 59.97375,242.04875 C59.7412488,242.09625 59.4850014,242.12 59.205,242.12 C58.8949984,242.12 58.6062513,242.0775 58.33875,241.9925 C58.0712487,241.9075 57.840001,241.778751 57.645,241.60625 C57.449999,241.433749 57.2962506,241.220001 57.18375,240.965 C57.0712494,240.709999 57.015,240.410002 57.015,240.065 C57.015,239.769999 57.0937492,239.482501 57.25125,239.2025 C57.4087508,238.922499 57.6687482,238.671251 58.03125,238.44875 C58.3937518,238.226249 58.871247,238.042501 59.46375,237.8975 C60.056253,237.752499 60.7874956,237.67 61.6575,237.65 L61.6575,237.14 C61.6575,236.589997 61.5400012,236.180001 61.305,235.91 C61.0699988,235.639999 60.7250023,235.505 60.27,235.505 C59.9599984,235.505 59.700001,235.54375 59.49,235.62125 C59.2799989,235.69875 59.0975008,235.7825 58.9425,235.8725 C58.7874992,235.9625 58.6500006,236.04625 58.53,236.12375 C58.4099994,236.20125 58.2825007,236.24 58.1475,236.24 C58.0374994,236.24 57.9437504,236.21125 57.86625,236.15375 C57.7887496,236.09625 57.7250002,236.025 57.675,235.94 L57.3825,235.415 Z M66.63,235.7675 C66.8700012,235.282498 67.1599983,234.901251 67.5,234.62375 C67.8400017,234.346249 68.2474976,234.2075 68.7225,234.2075 C68.8875008,234.2075 69.0424993,234.22625 69.1875,234.26375 C69.3325007,234.30125 69.4624994,234.3575 69.5775,234.4325 L69.465,235.6475 C69.4449999,235.7325 69.4137502,235.79125 69.37125,235.82375 C69.3287498,235.85625 69.2725003,235.8725 69.2025,235.8725 C69.1274996,235.8725 69.0200007,235.85875 68.88,235.83125 C68.7399993,235.80375 68.5925008,235.79 68.4375,235.79 C68.2124989,235.79 68.0137509,235.8225 67.84125,235.8875 C67.6687491,235.9525 67.5137507,236.047499 67.37625,236.1725 C67.2387493,236.297501 67.1175005,236.449999 67.0125,236.63 C66.9074995,236.810001 66.8100004,237.014999 66.72,237.245 L66.72,242 L65.1075,242 L65.1075,234.35 L66.045,234.35 C66.2150008,234.35 66.3324997,234.38125 66.3975,234.44375 C66.4625003,234.50625 66.5074999,234.614999 66.5325,234.77 L66.63,235.7675 Z M75.3975,237.3125 C75.3975,237.042499 75.3587504,236.791251 75.28125,236.55875 C75.2037496,236.326249 75.0900007,236.123751 74.94,235.95125 C74.7899992,235.778749 74.6037511,235.64375 74.38125,235.54625 C74.1587489,235.44875 73.9025014,235.4 73.6125,235.4 C73.0274971,235.4 72.5675017,235.567498 72.2325,235.9025 C71.8974983,236.237502 71.6850004,236.707497 71.595,237.3125 L75.3975,237.3125 Z M71.55,238.3025 C71.5700001,238.737502 71.6374994,239.113748 71.7525,239.43125 C71.8675006,239.748752 72.021249,240.012499 72.21375,240.2225 C72.406251,240.432501 72.6362487,240.588749 72.90375,240.69125 C73.1712513,240.793751 73.4699983,240.845 73.8,240.845 C74.1150016,240.845 74.3874988,240.80875 74.6175,240.73625 C74.8475011,240.66375 75.0474991,240.58375 75.2175,240.49625 C75.3875008,240.40875 75.5324994,240.32875 75.6525,240.25625 C75.7725006,240.18375 75.8824995,240.1475 75.9825,240.1475 C76.1125006,240.1475 76.2124996,240.1975 76.2825,240.2975 L76.74,240.89 C76.549999,241.115001 76.3350012,241.304999 76.095,241.46 C75.8549988,241.615001 75.6000013,241.74125 75.33,241.83875 C75.0599986,241.93625 74.7825014,242.00625 74.4975,242.04875 C74.2124986,242.09125 73.9350013,242.1125 73.665,242.1125 C73.1349973,242.1125 72.6437523,242.023751 72.19125,241.84625 C71.7387477,241.668749 71.3462517,241.407502 71.01375,241.0625 C70.6812483,240.717498 70.4212509,240.290003 70.23375,239.78 C70.0462491,239.269997 69.9525,238.682503 69.9525,238.0175 C69.9525,237.487497 70.0362492,236.992502 70.20375,236.5325 C70.3712508,236.072498 70.6112484,235.672502 70.92375,235.3325 C71.2362516,234.992498 71.6162478,234.723751 72.06375,234.52625 C72.5112522,234.328749 73.0174972,234.23 73.5825,234.23 C74.0525023,234.23 74.487498,234.306249 74.8875,234.45875 C75.287502,234.611251 75.6324985,234.834999 75.9225,235.13 C76.2125014,235.425001 76.4387492,235.786248 76.60125,236.21375 C76.7637508,236.641252 76.845,237.127497 76.845,237.6725 C76.845,237.922501 76.8175003,238.09 76.7625,238.175 C76.7074997,238.26 76.6075007,238.3025 76.4625,238.3025 L71.55,238.3025 Z M82.4325,238.655 C81.8574971,238.675 81.372502,238.72125 80.9775,238.79375 C80.582498,238.86625 80.2625012,238.958749 80.0175,239.07125 C79.7724988,239.183751 79.5962505,239.317499 79.48875,239.4725 C79.3812495,239.627501 79.3275,239.797499 79.3275,239.9825 C79.3275,240.162501 79.3562497,240.316249 79.41375,240.44375 C79.4712503,240.571251 79.5512495,240.67625 79.65375,240.75875 C79.7562505,240.84125 79.8762493,240.90125 80.01375,240.93875 C80.1512507,240.97625 80.3024992,240.995 80.4675,240.995 C80.8875021,240.995 81.2487485,240.916251 81.55125,240.75875 C81.8537515,240.601249 82.1474986,240.372501 82.4325,240.0725 L82.4325,238.655 Z M78.1575,235.415 C79.0225043,234.609996 80.052494,234.2075 81.2475,234.2075 C81.6875022,234.2075 82.0787483,234.278749 82.42125,234.42125 C82.7637517,234.563751 83.0512488,234.764999 83.28375,235.025 C83.5162512,235.285001 83.6937494,235.593748 83.81625,235.95125 C83.9387506,236.308752 84,236.704998 84,237.14 L84,242 L83.28,242 C83.1249992,242 83.0075004,241.97625 82.9275,241.92875 C82.8474996,241.88125 82.7800003,241.785001 82.725,241.64 L82.5675,241.0175 C82.372499,241.192501 82.1800009,241.348749 81.99,241.48625 C81.799999,241.623751 81.603751,241.74 81.40125,241.835 C81.198749,241.93 80.9812512,242.00125 80.74875,242.04875 C80.5162488,242.09625 80.2600014,242.12 79.98,242.12 C79.6699984,242.12 79.3812513,242.0775 79.11375,241.9925 C78.8462487,241.9075 78.615001,241.778751 78.42,241.60625 C78.224999,241.433749 78.0712506,241.220001 77.95875,240.965 C77.8462494,240.709999 77.79,240.410002 77.79,240.065 C77.79,239.769999 77.8687492,239.482501 78.02625,239.2025 C78.1837508,238.922499 78.4437482,238.671251 78.80625,238.44875 C79.1687518,238.226249 79.646247,238.042501 80.23875,237.8975 C80.831253,237.752499 81.5624956,237.67 82.4325,237.65 L82.4325,237.14 C82.4325,236.589997 82.3150012,236.180001 82.08,235.91 C81.8449988,235.639999 81.5000023,235.505 81.045,235.505 C80.7349984,235.505 80.475001,235.54375 80.265,235.62125 C80.0549989,235.69875 79.8725008,235.7825 79.7175,235.8725 C79.5624992,235.9625 79.4250006,236.04625 79.305,236.12375 C79.1849994,236.20125 79.0575007,236.24 78.9225,236.24 C78.8124994,236.24 78.7187504,236.21125 78.64125,236.15375 C78.5637496,236.09625 78.5000002,236.025 78.45,235.94 L78.1575,235.415 Z M94.185,235.7375 C94.1449998,235.8075 94.1000002,235.8575 94.05,235.8875 C93.9999997,235.9175 93.9375004,235.9325 93.8625,235.9325 C93.7774996,235.9325 93.6850005,235.90625 93.585,235.85375 C93.4849995,235.80125 93.3675007,235.7425 93.2325,235.6775 C93.0974993,235.6125 92.9387509,235.55375 92.75625,235.50125 C92.5737491,235.44875 92.3600012,235.4225 92.115,235.4225 C91.914999,235.4225 91.7337508,235.44625 91.57125,235.49375 C91.4087492,235.54125 91.2712506,235.60875 91.15875,235.69625 C91.0462494,235.78375 90.9600003,235.886249 90.9,236.00375 C90.8399997,236.121251 90.81,236.247499 90.81,236.3825 C90.81,236.562501 90.8649994,236.712499 90.975,236.8325 C91.0850005,236.952501 91.2299991,237.05625 91.41,237.14375 C91.5900009,237.23125 91.7949988,237.31 92.025,237.38 C92.2550011,237.45 92.4899988,237.525 92.73,237.605 C92.9700012,237.685 93.2049988,237.777499 93.435,237.8825 C93.6650011,237.987501 93.8699991,238.116249 94.05,238.26875 C94.2300009,238.421251 94.3749994,238.606249 94.485,238.82375 C94.5950005,239.041251 94.65,239.304998 94.65,239.615 C94.65,239.975002 94.5850006,240.307498 94.455,240.6125 C94.3249993,240.917502 94.1350012,241.182499 93.885,241.4075 C93.6349987,241.632501 93.3237519,241.807499 92.95125,241.9325 C92.5787481,242.057501 92.1525024,242.12 91.6725,242.12 C91.4074987,242.12 91.1512512,242.09625 90.90375,242.04875 C90.6562488,242.00125 90.4212511,241.93625 90.19875,241.85375 C89.9762489,241.77125 89.768751,241.672501 89.57625,241.5575 C89.383749,241.442499 89.2125007,241.317501 89.0625,241.1825 L89.4375,240.5675 C89.4825002,240.4925 89.5387497,240.43375 89.60625,240.39125 C89.6737503,240.34875 89.7574995,240.3275 89.8575,240.3275 C89.9625005,240.3275 90.0662495,240.36125 90.16875,240.42875 C90.2712505,240.49625 90.3912493,240.57 90.52875,240.65 C90.6662507,240.73 90.832499,240.80375 91.0275,240.87125 C91.222501,240.93875 91.4649985,240.9725 91.755,240.9725 C91.9950012,240.9725 92.2024991,240.94375 92.3775,240.88625 C92.5525009,240.82875 92.6974994,240.750001 92.8125,240.65 C92.9275006,240.55 93.0124997,240.436251 93.0675,240.30875 C93.1225003,240.181249 93.15,240.045001 93.15,239.9 C93.15,239.704999 93.0950005,239.545001 92.985,239.42 C92.8749994,239.294999 92.7287509,239.1875 92.54625,239.0975 C92.3637491,239.0075 92.1562512,238.9275 91.92375,238.8575 C91.6912488,238.7875 91.4550012,238.7125 91.215,238.6325 C90.9749988,238.5525 90.7387512,238.460001 90.50625,238.355 C90.2737488,238.249999 90.0662509,238.116251 89.88375,237.95375 C89.7012491,237.791249 89.5550005,237.593751 89.445,237.36125 C89.3349994,237.128749 89.28,236.845002 89.28,236.51 C89.28,236.204998 89.3412494,235.915001 89.46375,235.64 C89.5862506,235.364999 89.7662488,235.122501 90.00375,234.9125 C90.2412512,234.702499 90.5337483,234.536251 90.88125,234.41375 C91.2287517,234.291249 91.6299977,234.23 92.085,234.23 C92.6000026,234.23 93.0674979,234.312499 93.4875,234.4775 C93.9075021,234.642501 94.2599986,234.867499 94.545,235.1525 L94.185,235.7375 Z M98.6175,242.12 C97.9824968,242.12 97.4937517,241.941252 97.15125,241.58375 C96.8087483,241.226248 96.6375,240.722503 96.6375,240.0725 L96.6375,235.6175 L95.7975,235.6175 C95.7074995,235.6175 95.6300003,235.58875 95.565,235.53125 C95.4999997,235.47375 95.4675,235.387501 95.4675,235.2725 L95.4675,234.62 L96.705,234.44 L97.0575,232.2275 C97.0825001,232.1425 97.1249997,232.07375 97.185,232.02125 C97.2450003,231.96875 97.3249995,231.9425 97.425,231.9425 L98.25,231.9425 L98.25,234.455 L100.3725,234.455 L100.3725,235.6175 L98.25,235.6175 L98.25,239.96 C98.25,240.235001 98.3174993,240.444999 98.4525,240.59 C98.5875007,240.735001 98.7674989,240.8075 98.9925,240.8075 C99.1175006,240.8075 99.2249995,240.79125 99.315,240.75875 C99.4050004,240.72625 99.4824997,240.69125 99.5475,240.65375 C99.6125003,240.61625 99.6687498,240.58125 99.71625,240.54875 C99.7637502,240.51625 99.8099998,240.5 99.855,240.5 C99.9450004,240.5 100.0175,240.55 100.0725,240.65 L100.5525,241.4375 C100.302499,241.657501 100.007502,241.826249 99.6675,241.94375 C99.3274983,242.061251 98.9775018,242.12 98.6175,242.12 Z M105.735,238.655 C105.159997,238.675 104.675002,238.72125 104.28,238.79375 C103.884998,238.86625 103.565001,238.958749 103.32,239.07125 C103.074999,239.183751 102.898751,239.317499 102.79125,239.4725 C102.683749,239.627501 102.63,239.797499 102.63,239.9825 C102.63,240.162501 102.65875,240.316249 102.71625,240.44375 C102.77375,240.571251 102.853749,240.67625 102.95625,240.75875 C103.058751,240.84125 103.178749,240.90125 103.31625,240.93875 C103.453751,240.97625 103.604999,240.995 103.77,240.995 C104.190002,240.995 104.551248,240.916251 104.85375,240.75875 C105.156252,240.601249 105.449999,240.372501 105.735,240.0725 L105.735,238.655 Z M101.46,235.415 C102.325004,234.609996 103.354994,234.2075 104.55,234.2075 C104.990002,234.2075 105.381248,234.278749 105.72375,234.42125 C106.066252,234.563751 106.353749,234.764999 106.58625,235.025 C106.818751,235.285001 106.996249,235.593748 107.11875,235.95125 C107.241251,236.308752 107.3025,236.704998 107.3025,237.14 L107.3025,242 L106.5825,242 C106.427499,242 106.31,241.97625 106.23,241.92875 C106.15,241.88125 106.0825,241.785001 106.0275,241.64 L105.87,241.0175 C105.674999,241.192501 105.482501,241.348749 105.2925,241.48625 C105.102499,241.623751 104.906251,241.74 104.70375,241.835 C104.501249,241.93 104.283751,242.00125 104.05125,242.04875 C103.818749,242.09625 103.562501,242.12 103.2825,242.12 C102.972498,242.12 102.683751,242.0775 102.41625,241.9925 C102.148749,241.9075 101.917501,241.778751 101.7225,241.60625 C101.527499,241.433749 101.373751,241.220001 101.26125,240.965 C101.148749,240.709999 101.0925,240.410002 101.0925,240.065 C101.0925,239.769999 101.171249,239.482501 101.32875,239.2025 C101.486251,238.922499 101.746248,238.671251 102.10875,238.44875 C102.471252,238.226249 102.948747,238.042501 103.54125,237.8975 C104.133753,237.752499 104.864996,237.67 105.735,237.65 L105.735,237.14 C105.735,236.589997 105.617501,236.180001 105.3825,235.91 C105.147499,235.639999 104.802502,235.505 104.3475,235.505 C104.037498,235.505 103.777501,235.54375 103.5675,235.62125 C103.357499,235.69875 103.175001,235.7825 103.02,235.8725 C102.864999,235.9625 102.727501,236.04625 102.6075,236.12375 C102.487499,236.20125 102.360001,236.24 102.225,236.24 C102.114999,236.24 102.02125,236.21125 101.94375,236.15375 C101.86625,236.09625 101.8025,236.025 101.7525,235.94 L101.46,235.415 Z M111.5325,242.12 C110.897497,242.12 110.408752,241.941252 110.06625,241.58375 C109.723748,241.226248 109.5525,240.722503 109.5525,240.0725 L109.5525,235.6175 L108.7125,235.6175 C108.6225,235.6175 108.545,235.58875 108.48,235.53125 C108.415,235.47375 108.3825,235.387501 108.3825,235.2725 L108.3825,234.62 L109.62,234.44 L109.9725,232.2275 C109.9975,232.1425 110.04,232.07375 110.1,232.02125 C110.16,231.96875 110.239999,231.9425 110.34,231.9425 L111.165,231.9425 L111.165,234.455 L113.2875,234.455 L113.2875,235.6175 L111.165,235.6175 L111.165,239.96 C111.165,240.235001 111.232499,240.444999 111.3675,240.59 C111.502501,240.735001 111.682499,240.8075 111.9075,240.8075 C112.032501,240.8075 112.14,240.79125 112.23,240.75875 C112.32,240.72625 112.3975,240.69125 112.4625,240.65375 C112.5275,240.61625 112.58375,240.58125 112.63125,240.54875 C112.67875,240.51625 112.725,240.5 112.77,240.5 C112.86,240.5 112.9325,240.55 112.9875,240.65 L113.4675,241.4375 C113.217499,241.657501 112.922502,241.826249 112.5825,241.94375 C112.242498,242.061251 111.892502,242.12 111.5325,242.12 Z M119.5275,237.3125 C119.5275,237.042499 119.48875,236.791251 119.41125,236.55875 C119.33375,236.326249 119.220001,236.123751 119.07,235.95125 C118.919999,235.778749 118.733751,235.64375 118.51125,235.54625 C118.288749,235.44875 118.032501,235.4 117.7425,235.4 C117.157497,235.4 116.697502,235.567498 116.3625,235.9025 C116.027498,236.237502 115.815,236.707497 115.725,237.3125 L119.5275,237.3125 Z M115.68,238.3025 C115.7,238.737502 115.767499,239.113748 115.8825,239.43125 C115.997501,239.748752 116.151249,240.012499 116.34375,240.2225 C116.536251,240.432501 116.766249,240.588749 117.03375,240.69125 C117.301251,240.793751 117.599998,240.845 117.93,240.845 C118.245002,240.845 118.517499,240.80875 118.7475,240.73625 C118.977501,240.66375 119.177499,240.58375 119.3475,240.49625 C119.517501,240.40875 119.662499,240.32875 119.7825,240.25625 C119.902501,240.18375 120.012499,240.1475 120.1125,240.1475 C120.242501,240.1475 120.3425,240.1975 120.4125,240.2975 L120.87,240.89 C120.679999,241.115001 120.465001,241.304999 120.225,241.46 C119.984999,241.615001 119.730001,241.74125 119.46,241.83875 C119.189999,241.93625 118.912501,242.00625 118.6275,242.04875 C118.342499,242.09125 118.065001,242.1125 117.795,242.1125 C117.264997,242.1125 116.773752,242.023751 116.32125,241.84625 C115.868748,241.668749 115.476252,241.407502 115.14375,241.0625 C114.811248,240.717498 114.551251,240.290003 114.36375,239.78 C114.176249,239.269997 114.0825,238.682503 114.0825,238.0175 C114.0825,237.487497 114.166249,236.992502 114.33375,236.5325 C114.501251,236.072498 114.741248,235.672502 115.05375,235.3325 C115.366252,234.992498 115.746248,234.723751 116.19375,234.52625 C116.641252,234.328749 117.147497,234.23 117.7125,234.23 C118.182502,234.23 118.617498,234.306249 119.0175,234.45875 C119.417502,234.611251 119.762499,234.834999 120.0525,235.13 C120.342501,235.425001 120.568749,235.786248 120.73125,236.21375 C120.893751,236.641252 120.975,237.127497 120.975,237.6725 C120.975,237.922501 120.9475,238.09 120.8925,238.175 C120.8375,238.26 120.737501,238.3025 120.5925,238.3025 L115.68,238.3025 Z M127.0425,235.7375 C127.0025,235.8075 126.9575,235.8575 126.9075,235.8875 C126.8575,235.9175 126.795,235.9325 126.72,235.9325 C126.635,235.9325 126.5425,235.90625 126.4425,235.85375 C126.342499,235.80125 126.225001,235.7425 126.09,235.6775 C125.954999,235.6125 125.796251,235.55375 125.61375,235.50125 C125.431249,235.44875 125.217501,235.4225 124.9725,235.4225 C124.772499,235.4225 124.591251,235.44625 124.42875,235.49375 C124.266249,235.54125 124.128751,235.60875 124.01625,235.69625 C123.903749,235.78375 123.8175,235.886249 123.7575,236.00375 C123.6975,236.121251 123.6675,236.247499 123.6675,236.3825 C123.6675,236.562501 123.722499,236.712499 123.8325,236.8325 C123.942501,236.952501 124.087499,237.05625 124.2675,237.14375 C124.447501,237.23125 124.652499,237.31 124.8825,237.38 C125.112501,237.45 125.347499,237.525 125.5875,237.605 C125.827501,237.685 126.062499,237.777499 126.2925,237.8825 C126.522501,237.987501 126.727499,238.116249 126.9075,238.26875 C127.087501,238.421251 127.232499,238.606249 127.3425,238.82375 C127.452501,239.041251 127.5075,239.304998 127.5075,239.615 C127.5075,239.975002 127.442501,240.307498 127.3125,240.6125 C127.182499,240.917502 126.992501,241.182499 126.7425,241.4075 C126.492499,241.632501 126.181252,241.807499 125.80875,241.9325 C125.436248,242.057501 125.010002,242.12 124.53,242.12 C124.264999,242.12 124.008751,242.09625 123.76125,242.04875 C123.513749,242.00125 123.278751,241.93625 123.05625,241.85375 C122.833749,241.77125 122.626251,241.672501 122.43375,241.5575 C122.241249,241.442499 122.070001,241.317501 121.92,241.1825 L122.295,240.5675 C122.34,240.4925 122.39625,240.43375 122.46375,240.39125 C122.53125,240.34875 122.614999,240.3275 122.715,240.3275 C122.820001,240.3275 122.923749,240.36125 123.02625,240.42875 C123.128751,240.49625 123.248749,240.57 123.38625,240.65 C123.523751,240.73 123.689999,240.80375 123.885,240.87125 C124.080001,240.93875 124.322499,240.9725 124.6125,240.9725 C124.852501,240.9725 125.059999,240.94375 125.235,240.88625 C125.410001,240.82875 125.554999,240.750001 125.67,240.65 C125.785001,240.55 125.87,240.436251 125.925,240.30875 C125.98,240.181249 126.0075,240.045001 126.0075,239.9 C126.0075,239.704999 125.952501,239.545001 125.8425,239.42 C125.732499,239.294999 125.586251,239.1875 125.40375,239.0975 C125.221249,239.0075 125.013751,238.9275 124.78125,238.8575 C124.548749,238.7875 124.312501,238.7125 124.0725,238.6325 C123.832499,238.5525 123.596251,238.460001 123.36375,238.355 C123.131249,238.249999 122.923751,238.116251 122.74125,237.95375 C122.558749,237.791249 122.412501,237.593751 122.3025,237.36125 C122.192499,237.128749 122.1375,236.845002 122.1375,236.51 C122.1375,236.204998 122.198749,235.915001 122.32125,235.64 C122.443751,235.364999 122.623749,235.122501 122.86125,234.9125 C123.098751,234.702499 123.391248,234.536251 123.73875,234.41375 C124.086252,234.291249 124.487498,234.23 124.9425,234.23 C125.457503,234.23 125.924998,234.312499 126.345,234.4775 C126.765002,234.642501 127.117499,234.867499 127.4025,235.1525 L127.0425,235.7375 Z M128.775,241.07 C128.775,240.924999 128.80125,240.788751 128.85375,240.66125 C128.90625,240.533749 128.97875,240.4225 129.07125,240.3275 C129.16375,240.2325 129.273749,240.1575 129.40125,240.1025 C129.528751,240.0475 129.664999,240.02 129.81,240.02 C129.955001,240.02 130.091249,240.0475 130.21875,240.1025 C130.346251,240.1575 130.4575,240.2325 130.5525,240.3275 C130.6475,240.4225 130.7225,240.533749 130.7775,240.66125 C130.8325,240.788751 130.86,240.924999 130.86,241.07 C130.86,241.220001 130.8325,241.357499 130.7775,241.4825 C130.7225,241.607501 130.6475,241.7175 130.5525,241.8125 C130.4575,241.9075 130.346251,241.98125 130.21875,242.03375 C130.091249,242.08625 129.955001,242.1125 129.81,242.1125 C129.664999,242.1125 129.528751,242.08625 129.40125,242.03375 C129.273749,241.98125 129.16375,241.9075 129.07125,241.8125 C128.97875,241.7175 128.90625,241.607501 128.85375,241.4825 C128.80125,241.357499 128.775,241.220001 128.775,241.07 Z" id="TheTextareastates." fill="#3E5667" fill-rule="nonzero"></path>
            </g>
        </g>
    </g>
</svg>