<svg xmlns="http://www.w3.org/2000/svg" viewBox="0 0 726 243">
  <g fill="none" fill-rule="evenodd">
    <path fill="#FFF" stroke="#B8C7D2" d="M.5.5h725v212H.5z"/>
    <path fill="#3E5667" fill-rule="nonzero" d="M113.05 57.96c0 .75-.13 1.43-.37 2.05a4.62 4.62 0 0 1-2.61 2.62c-.62.25-1.3.37-2.06.37h-3.81V52.92h3.8c.76 0 1.45.12 2.07.37a4.6 4.6 0 0 1 2.61 2.62c.24.62.36 1.3.36 2.05zm-1.68 0c0-.58-.08-1.1-.23-1.56a2.93 2.93 0 0 0-1.73-1.9 3.66 3.66 0 0 0-1.4-.26h-2.17v7.44H108c.52 0 .99-.09 1.4-.26.42-.16.77-.4 1.07-.73.29-.32.51-.7.67-1.17.15-.46.23-.98.23-1.56zm7.79.66c0-.25-.04-.48-.11-.7-.07-.22-.18-.4-.32-.57a1.45 1.45 0 0 0-.52-.37c-.21-.1-.45-.14-.72-.14-.55 0-.98.16-1.29.47-.31.31-.5.75-.6 1.31h3.56zm-3.6.93c.02.4.09.76.2 1.05.1.3.24.54.42.74.18.2.4.34.65.44.25.1.53.14.84.14.29 0 .54-.03.76-.1a3.58 3.58 0 0 0 .96-.45.6.6 0 0 1 .31-.1c.12 0 .22.05.28.14l.43.55a2.7 2.7 0 0 1-.6.54 3.5 3.5 0 0 1-1.5.55c-.26.04-.52.05-.77.05-.5 0-.95-.08-1.38-.24-.42-.17-.79-.41-1.1-.73a3.38 3.38 0 0 1-.72-1.2 4.75 4.75 0 0 1-.03-3.03 3.16 3.16 0 0 1 1.74-1.87c.41-.19.88-.28 1.41-.28.44 0 .85.07 1.22.21a2.67 2.67 0 0 1 1.6 1.64c.15.4.23.85.23 1.36 0 .23-.03.4-.08.47-.05.08-.14.12-.28.12h-4.59zM122.3 63v-5.94l-.7-.1a.62.62 0 0 1-.28-.13.32.32 0 0 1-.11-.26v-.61h1.09v-.6c0-.41.06-.77.18-1.1.12-.32.29-.6.5-.81.23-.23.5-.4.82-.52a3.03 3.03 0 0 1 1.96-.04l-.02.76c-.01.12-.08.2-.19.22a2.2 2.2 0 0 1-.43.04c-.21 0-.4.02-.57.07a1 1 0 0 0-.7.71c-.06.2-.1.43-.1.72v.55h1.96v1.08h-1.9V63h-1.51zm8.27-3.12c-.54.02-1 .06-1.36.13-.37.07-.67.15-.9.26-.23.1-.4.23-.5.37-.1.15-.14.3-.14.48 0 .17.02.3.08.43.05.12.13.21.22.3.1.07.21.12.34.16a2.16 2.16 0 0 0 1.44-.17c.28-.15.55-.36.82-.64v-1.32zm-4-3.03a4.09 4.09 0 0 1 2.89-1.12c.41 0 .78.06 1.1.2.32.13.58.32.8.56.22.24.38.53.5.86.11.34.17.7.17 1.11V63h-.67a.65.65 0 0 1-.33-.07c-.08-.04-.14-.13-.2-.27l-.14-.58c-.18.17-.36.31-.54.44a2.7 2.7 0 0 1-1.16.52 3.6 3.6 0 0 1-.71.07c-.3 0-.56-.04-.81-.12a1.7 1.7 0 0 1-1.08-.96c-.1-.23-.16-.51-.16-.84 0-.27.08-.54.22-.8.15-.26.4-.5.73-.7.34-.21.79-.38 1.34-.52a9.71 9.71 0 0 1 2.05-.23v-.48c0-.5-.11-.9-.33-1.14-.22-.26-.54-.38-.97-.38-.29 0-.53.03-.73.1-.2.08-.36.16-.5.24a9.6 9.6 0 0 0-.4.24.65.65 0 0 1-.35.1.43.43 0 0 1-.26-.08.67.67 0 0 1-.18-.2l-.27-.49zm13.24-.99V63h-.91c-.2 0-.33-.1-.39-.29l-.11-.66a4.34 4.34 0 0 1-1 .77 2.81 2.81 0 0 1-1.28.3c-.4 0-.74-.07-1.04-.2-.3-.13-.55-.32-.75-.56-.2-.24-.36-.52-.46-.85-.1-.34-.15-.7-.15-1.1v-4.55h1.5v4.54c0 .48.11.86.33 1.12.23.27.56.4 1.01.4.34 0 .65-.07.93-.23.29-.15.56-.36.81-.62v-5.21h1.5zm3.36-3.22V63h-1.5V52.64h1.5zm4.15 10.47c-.59 0-1.04-.16-1.36-.5-.32-.33-.48-.8-.48-1.4v-4.17h-.79a.32.32 0 0 1-.22-.08c-.06-.05-.09-.13-.09-.24v-.6l1.16-.18.33-2.06a.4.4 0 0 1 .12-.2.33.33 0 0 1 .22-.07h.77v2.35h1.98v1.08h-1.98v4.06c0 .25.06.45.19.58.13.14.3.2.5.2.12 0 .22 0 .3-.04a1.36 1.36 0 0 0 .38-.2.23.23 0 0 1 .13-.04c.08 0 .15.05.2.14l.45.73c-.23.21-.5.37-.83.48-.31.1-.64.16-.98.16zM387.12 57.75c.38 0 .7-.05.98-.14.28-.09.52-.21.7-.38.19-.16.33-.36.42-.58.1-.23.14-.48.14-.75 0-.56-.18-.98-.54-1.27-.37-.28-.92-.43-1.65-.43h-1.34v3.55h1.3zm4.75 5.25h-1.46c-.3 0-.5-.11-.63-.34l-2.36-3.4a.78.78 0 0 0-.25-.24.9.9 0 0 0-.43-.08h-.9V63h-1.64V52.92h2.97c.66 0 1.23.07 1.7.2.48.14.88.33 1.19.58.3.25.53.55.68.9a3 3 0 0 1 .22 1.17 2.75 2.75 0 0 1-1.34 2.45c-.3.18-.62.32-1 .43.2.12.38.29.53.5l2.72 3.85zm5.16-4.38c0-.25-.04-.48-.11-.7-.07-.22-.18-.4-.32-.57a1.45 1.45 0 0 0-.52-.37c-.2-.1-.45-.14-.72-.14-.54 0-.97.16-1.29.47-.3.31-.5.75-.6 1.31h3.56zm-3.6.93c.03.4.09.76.2 1.05.1.3.25.54.43.74.18.2.4.34.64.44.25.1.53.14.84.14.3 0 .55-.03.76-.1a3.58 3.58 0 0 0 .97-.45.6.6 0 0 1 .3-.1c.13 0 .22.05.28.14l.43.55a2.7 2.7 0 0 1-.6.54 3.5 3.5 0 0 1-1.5.55c-.26.04-.52.05-.77.05-.5 0-.95-.08-1.37-.24-.43-.17-.8-.41-1.1-.73a3.38 3.38 0 0 1-.73-1.2 4.75 4.75 0 0 1-.03-3.03 3.16 3.16 0 0 1 1.74-1.87c.41-.19.89-.28 1.41-.28.44 0 .85.07 1.22.21a2.67 2.67 0 0 1 1.6 1.64c.15.4.23.85.23 1.36 0 .23-.03.4-.08.47-.05.08-.14.12-.28.12h-4.58zm10.61-2.4a.37.37 0 0 1-.12.15.34.34 0 0 1-.18.04.56.56 0 0 1-.26-.08l-.33-.16a2.18 2.18 0 0 0-1.55-.17c-.15.04-.28.1-.38.19a.85.85 0 0 0-.24.28.77.77 0 0 0-.09.36c0 .17.05.3.16.42.1.1.23.2.4.29.17.08.36.15.58.22l.65.2c.23.08.45.17.66.27.22.1.4.22.58.36a1.62 1.62 0 0 1 .56 1.26c0 .33-.06.64-.19.92-.12.29-.3.54-.53.75-.23.2-.52.37-.87.49a3.75 3.75 0 0 1-1.91.1 4.13 4.13 0 0 1-1.24-.45c-.18-.11-.34-.23-.48-.35l.35-.58c.04-.07.1-.12.16-.16a.43.43 0 0 1 .23-.06c.1 0 .2.03.3.1l.33.2c.13.07.28.14.47.2.18.07.4.1.67.1.23 0 .42-.03.59-.08.16-.05.3-.13.4-.22a.89.89 0 0 0 .32-.7.65.65 0 0 0-.16-.45 1.3 1.3 0 0 0-.4-.3 3.78 3.78 0 0 0-.59-.22l-.66-.21a6.93 6.93 0 0 1-.66-.26c-.22-.1-.41-.22-.58-.38a1.71 1.71 0 0 1-.57-1.34 1.97 1.97 0 0 1 .68-1.5c.22-.2.5-.35.82-.46.32-.11.7-.17 1.12-.17.48 0 .92.07 1.31.23.4.15.72.36.99.63l-.34.55zm3.42-1.29V63h-1.5v-7.14h1.5zm.25-2.16a1.01 1.01 0 0 1-.63.92.98.98 0 0 1-1.3-.53.96.96 0 0 1 0-.78c.06-.12.13-.23.22-.32a.92.92 0 0 1 .7-.3c.13 0 .26.03.38.09a1.07 1.07 0 0 1 .55.53c.05.12.08.25.08.4zm6.68 2.79c0 .1-.02.21-.05.31a.7.7 0 0 1-.15.26l-3.62 4.77h3.7V63h-5.45v-.63a1 1 0 0 1 .2-.53l3.65-4.81h-3.64v-1.17h5.36v.63zm5.16 3.39c-.53.02-.99.06-1.35.13-.37.07-.67.15-.9.26-.23.1-.4.23-.5.37-.1.15-.14.3-.14.48 0 .17.02.3.08.43.05.12.12.21.22.3.1.07.2.12.34.16a2.16 2.16 0 0 0 1.44-.17c.27-.15.55-.36.81-.64v-1.32zm-3.99-3.03a4.09 4.09 0 0 1 2.89-1.12c.4 0 .77.06 1.1.2.31.13.58.32.8.56.22.24.38.53.5.86.11.34.17.7.17 1.11V63h-.67a.65.65 0 0 1-.33-.07c-.08-.04-.14-.13-.2-.27l-.14-.58c-.18.17-.36.31-.54.44a2.7 2.7 0 0 1-1.16.52 3.6 3.6 0 0 1-.71.07c-.3 0-.56-.04-.81-.12a1.7 1.7 0 0 1-1.08-.96c-.1-.23-.16-.51-.16-.84 0-.27.07-.54.22-.8s.4-.5.73-.7c.34-.21.78-.38 1.34-.52a9.71 9.71 0 0 1 2.04-.23v-.48c0-.5-.1-.9-.32-1.14-.22-.26-.55-.38-.97-.38-.29 0-.53.03-.73.1-.2.08-.37.16-.51.24a9.6 9.6 0 0 0-.38.24.65.65 0 0 1-.36.1.43.43 0 0 1-.26-.08.67.67 0 0 1-.18-.2l-.28-.49zm8.72 4.36c.2.27.44.46.69.57a2 2 0 0 0 .81.16c.6 0 1.06-.21 1.39-.64.33-.43.5-1.1.5-2 0-.82-.15-1.42-.43-1.8-.3-.37-.7-.56-1.23-.56-.37 0-.7.08-.96.25-.28.16-.53.4-.77.7v3.32zm0-4.4c.3-.33.62-.58.99-.78.36-.19.78-.28 1.24-.28a2.35 2.35 0 0 1 1.97.94c.24.3.42.67.55 1.1.12.43.18.92.18 1.46 0 .58-.07 1.1-.2 1.58-.15.47-.36.88-.62 1.21a2.75 2.75 0 0 1-2.24 1.06 2.7 2.7 0 0 1-.62-.06 2.18 2.18 0 0 1-.95-.5 3.28 3.28 0 0 1-.38-.4l-.07.56a.38.38 0 0 1-.12.23.4.4 0 0 1-.26.07h-.98V52.64h1.5v4.16zm7.92-4.17V63h-1.5V52.64h1.5zm6.55 5.98c0-.25-.04-.48-.11-.7-.07-.22-.18-.4-.32-.57a1.45 1.45 0 0 0-.52-.37c-.2-.1-.45-.14-.72-.14-.54 0-.97.16-1.29.47-.3.31-.5.75-.6 1.31h3.56zm-3.6.93c.03.4.09.76.2 1.05.1.3.25.54.43.74.18.2.4.34.64.44.25.1.53.14.84.14.3 0 .55-.03.76-.1a3.58 3.58 0 0 0 .97-.45.6.6 0 0 1 .3-.1c.13 0 .22.05.28.14l.43.55a2.7 2.7 0 0 1-.6.54 3.5 3.5 0 0 1-1.5.55c-.26.04-.52.05-.77.05-.5 0-.95-.08-1.37-.24-.43-.17-.8-.41-1.1-.73a3.38 3.38 0 0 1-.73-1.2 4.75 4.75 0 0 1-.03-3.03 3.16 3.16 0 0 1 1.74-1.87c.41-.19.89-.28 1.41-.28.44 0 .85.07 1.22.21a2.67 2.67 0 0 1 1.6 1.64c.15.4.23.85.23 1.36 0 .23-.03.4-.08.47-.05.08-.14.12-.28.12h-4.58z"/>
    <g transform="translate(383 76)">
      <rect width="241" height="81" x="-.5" y="-.5" fill="#FFF" stroke="#B8C7D2" rx="3"/>
      <path fill="#748999" fill-rule="nonzero" d="M20 18.93V20h-4.94v-8.62h1.28v7.55h3.65zm4.28-1.64c-.48.02-.88.06-1.21.12-.34.05-.6.13-.81.23-.21.1-.36.2-.45.34a.74.74 0 0 0-.14.43c0 .15.02.28.07.4a.73.73 0 0 0 .51.42 2.12 2.12 0 0 0 1.3-.16 3.37 3.37 0 0 0 .73-.57v-1.2zm-3.43-2.53c.34-.33.7-.57 1.1-.73.4-.16.84-.24 1.31-.24.35 0 .66.06.93.17a1.9 1.9 0 0 1 1.1 1.21c.09.28.13.6.13.94V20h-.52a.5.5 0 0 1-.26-.06c-.06-.04-.11-.1-.15-.21l-.12-.53a5.05 5.05 0 0 1-.94.66 2.44 2.44 0 0 1-1.16.24c-.24 0-.46-.04-.67-.1a1.43 1.43 0 0 1-.92-.81c-.09-.21-.13-.45-.13-.72 0-.24.06-.47.2-.7.12-.22.33-.41.63-.59s.67-.32 1.15-.43a8.61 8.61 0 0 1 1.75-.2v-.44c0-.46-.1-.8-.3-1.03-.2-.23-.48-.34-.86-.34a1.88 1.88 0 0 0-1.1.3l-.32.22c-.1.06-.2.1-.3.1a.33.33 0 0 1-.2-.07.55.55 0 0 1-.14-.16l-.21-.37zm7.32 3.74c.19.25.4.43.62.53.22.1.47.15.73.15.55 0 .96-.2 1.26-.58.3-.4.44-.98.44-1.76 0-.73-.13-1.26-.39-1.6-.26-.33-.63-.5-1.1-.5-.34 0-.63.07-.88.23-.24.15-.47.36-.68.64v2.89zm0-3.76c.25-.28.53-.5.85-.67.32-.18.69-.26 1.1-.26a2.03 2.03 0 0 1 1.7.8c.19.26.34.57.45.94.1.37.16.78.16 1.25 0 .49-.06.94-.18 1.34-.12.4-.3.75-.52 1.04a2.34 2.34 0 0 1-1.92.9 1.9 1.9 0 0 1-1.37-.49 2.8 2.8 0 0 1-.33-.35l-.06.51c-.03.17-.13.25-.3.25H27v-8.86h1.17v3.6zm9.6 1.53a2 2 0 0 0-.1-.64 1.32 1.32 0 0 0-.76-.85c-.17-.07-.39-.11-.63-.11-.49 0-.87.14-1.16.42-.28.29-.46.68-.53 1.18h3.19zm.97 2.86a2.3 2.3 0 0 1-.5.44c-.18.12-.38.22-.6.3a3.64 3.64 0 0 1-1.32.21c-.42 0-.8-.07-1.17-.2a2.6 2.6 0 0 1-1.54-1.65 4.13 4.13 0 0 1-.02-2.59 2.61 2.61 0 0 1 1.47-1.6c.36-.15.76-.23 1.2-.23.37 0 .71.06 1.03.18a2.29 2.29 0 0 1 1.35 1.39c.13.34.2.73.2 1.16 0 .18-.03.3-.07.37-.04.06-.11.09-.22.09h-4c.02.36.07.68.16.95.1.27.22.5.38.68.17.18.36.31.58.4.23.09.48.13.75.13.26 0 .49-.03.68-.09a3.27 3.27 0 0 0 .84-.39c.1-.06.17-.09.25-.09.1 0 .17.04.22.1l.33.44zm2.55-7.99V20h-1.17v-8.86h1.17z"/>
      <path fill="#253B53" d="M15 27h1v11h-1z"/>
    </g>
    <g fill="#748999" transform="rotate(45 131.32 822.35)">
      <rect width="1" height="6" x=".83" y=".41" rx=".5"/>
      <rect width="1" height="4" x="2.83" y="1.41" rx=".5"/>
    </g>
    <g transform="translate(103 76)">
      <rect width="241" height="81" x="-.5" y="-.5" fill="#FFF" stroke="#B8C7D2" rx="3"/>
      <path fill="#748999" fill-rule="nonzero" d="M21.5 26.66V28h-6.17V17.23h1.6v9.43h4.56zm5.35-2.04c-.6.02-1.1.06-1.52.14-.41.07-.75.16-1.01.29-.26.12-.45.26-.56.42a.92.92 0 0 0-.18.54c0 .2.04.36.1.5a.91.91 0 0 0 .63.52 2.65 2.65 0 0 0 1.62-.2c.17-.08.32-.18.48-.3.15-.12.3-.26.44-.41v-1.5zm-4.3-3.18a4.35 4.35 0 0 1 3.02-1.2c.45 0 .83.07 1.16.21a2.38 2.38 0 0 1 1.37 1.51c.12.36.18.75.18 1.18V28h-.65a.62.62 0 0 1-.33-.07c-.08-.05-.14-.14-.18-.27l-.16-.66c-.2.18-.39.33-.58.47a3.7 3.7 0 0 1-1.26.58c-.23.05-.5.07-.78.07-.3 0-.58-.04-.84-.12a1.79 1.79 0 0 1-1.15-1.02 2.2 2.2 0 0 1-.17-.9c0-.3.08-.58.25-.86.16-.28.42-.52.8-.74.36-.23.84-.4 1.43-.55.6-.14 1.32-.21 2.19-.23v-.56c0-.58-.12-1-.37-1.29-.25-.29-.6-.43-1.08-.43a2.35 2.35 0 0 0-1.37.39c-.16.1-.3.18-.41.27a.64.64 0 0 1-.37.12.42.42 0 0 1-.25-.09.69.69 0 0 1-.18-.2l-.26-.46zm9.16 4.68c.24.32.5.54.78.66.28.13.58.2.91.2.68 0 1.2-.25 1.57-.73.37-.49.55-1.22.55-2.2 0-.9-.16-1.57-.48-2a1.64 1.64 0 0 0-1.38-.63c-.42 0-.79.1-1.1.29-.3.19-.59.46-.85.8v3.61zm0-4.69c.31-.35.67-.63 1.07-.85.4-.21.85-.32 1.37-.32a2.53 2.53 0 0 1 2.11 1c.25.32.44.71.58 1.18.13.46.2.97.2 1.55a5.8 5.8 0 0 1-.23 1.69c-.15.5-.37.93-.65 1.3a2.93 2.93 0 0 1-2.4 1.13 3 3 0 0 1-.67-.08 2.38 2.38 0 0 1-1.05-.53 3.5 3.5 0 0 1-.4-.45l-.07.64c-.05.2-.17.31-.38.31h-.95V16.93h1.47v4.5zm12.01 1.91c0-.29-.04-.55-.12-.8-.08-.25-.2-.46-.37-.64a1.65 1.65 0 0 0-.58-.42c-.23-.1-.5-.15-.8-.15-.61 0-1.1.18-1.45.54-.35.35-.57.84-.67 1.47h4zm1.21 3.57c-.18.21-.39.4-.62.55a4.55 4.55 0 0 1-2.4.65c-.54 0-1.02-.1-1.47-.27a3.24 3.24 0 0 1-1.93-2.06 5.16 5.16 0 0 1-.02-3.23 3.27 3.27 0 0 1 1.84-2c.44-.2.94-.29 1.5-.29.46 0 .89.08 1.28.23a2.86 2.86 0 0 1 1.69 1.74c.16.42.24.9.24 1.45 0 .23-.02.38-.07.45-.05.08-.14.12-.28.12h-5c.02.46.08.85.2 1.19.12.34.27.62.48.84.2.23.44.4.72.5.28.12.6.17.94.17.32 0 .6-.04.84-.11a4.1 4.1 0 0 0 1.05-.49.6.6 0 0 1 .31-.11c.12 0 .21.04.28.13l.42.54zm3.19-9.98V28h-1.47V16.93h1.47z"/>
    </g>
    <path fill="#3E5667" fill-rule="nonzero" d="M8.71 232.66H5.36V242H3.6v-9.34H.22v-1.46h8.5v1.46zm2.69 2.6c.32-.31.66-.56 1.04-.75a2.9 2.9 0 0 1 1.3-.28c.43 0 .8.07 1.11.21.32.14.59.34.8.6.22.25.39.55.5.91a4 4 0 0 1 .16 1.18V242h-1.6v-4.87c0-.51-.12-.91-.36-1.2-.24-.28-.6-.43-1.08-.43-.36 0-.7.09-1 .25-.31.17-.6.4-.87.68V242H9.79v-11.1h1.61v4.36zm11.82 2.05c0-.27-.04-.52-.12-.75-.07-.23-.19-.44-.34-.6-.15-.18-.33-.32-.56-.41a1.9 1.9 0 0 0-.77-.15c-.58 0-1.04.17-1.38.5-.33.34-.54.8-.63 1.41h3.8zm-3.85 1c.02.43.09.8.2 1.12.12.32.27.58.47.8.19.2.42.36.69.46a2.73 2.73 0 0 0 1.71.05 3.84 3.84 0 0 0 1.04-.48c.12-.08.22-.11.32-.11.14 0 .23.05.3.15l.46.59c-.19.23-.4.41-.64.57a3.76 3.76 0 0 1-1.6.59c-.29.04-.56.06-.83.06a4 4 0 0 1-1.48-.26 3.28 3.28 0 0 1-1.17-.79c-.34-.34-.6-.77-.78-1.28a5.1 5.1 0 0 1-.03-3.25 3.38 3.38 0 0 1 1.86-2c.44-.2.95-.3 1.52-.3.47 0 .9.08 1.3.23a2.86 2.86 0 0 1 1.71 1.75c.17.43.25.92.25 1.46 0 .25-.03.42-.09.5-.05.09-.15.13-.3.13h-4.9zm17.82-5.65h-3.37V242h-1.75v-9.34h-3.38v-1.46h8.5v1.46zm4.4 4.65c0-.27-.04-.52-.12-.75-.08-.23-.19-.44-.34-.6-.15-.18-.34-.32-.56-.41a1.9 1.9 0 0 0-.77-.15c-.58 0-1.04.17-1.38.5-.33.34-.54.8-.64 1.41h3.8zm-3.85 1c.02.43.09.8.2 1.12.12.32.27.58.46.8.2.2.43.36.7.46a2.73 2.73 0 0 0 1.71.05 3.84 3.84 0 0 0 1.03-.48c.12-.08.23-.11.33-.11.13 0 .23.05.3.15l.46.59c-.19.23-.4.41-.65.57a3.76 3.76 0 0 1-1.6.59c-.28.04-.55.06-.83.06a4 4 0 0 1-1.47-.26 3.28 3.28 0 0 1-1.18-.79c-.33-.34-.59-.77-.78-1.28a5.1 5.1 0 0 1-.03-3.25 3.38 3.38 0 0 1 1.86-2c.45-.2.96-.3 1.52-.3.47 0 .9.08 1.3.23a2.86 2.86 0 0 1 1.72 1.75c.16.43.24.92.24 1.46 0 .25-.02.42-.08.5-.05.09-.15.13-.3.13h-4.91zM51 242h-1.55a.43.43 0 0 1-.3-.1.85.85 0 0 1-.17-.22l-1.76-2.82c-.05.17-.1.31-.18.44l-1.6 2.38a1.4 1.4 0 0 1-.18.22.37.37 0 0 1-.27.1h-1.44l2.65-3.94-2.54-3.71h1.54c.13 0 .22.02.28.06.05.03.1.09.15.16l1.73 2.7c.05-.16.12-.32.21-.47l1.46-2.2c.1-.17.23-.25.39-.25h1.48l-2.55 3.64L51 242zm3.54.12c-.64 0-1.12-.18-1.47-.54a2.1 2.1 0 0 1-.51-1.5v-4.46h-.84a.34.34 0 0 1-.23-.09c-.07-.06-.1-.14-.1-.26v-.65l1.24-.18.35-2.21a.43.43 0 0 1 .13-.2.35.35 0 0 1 .24-.09h.82v2.52h2.13v1.16h-2.13v4.34c0 .28.07.48.2.63a.7.7 0 0 0 .55.22c.12 0 .23-.02.32-.05a1.46 1.46 0 0 0 .4-.21c.05-.03.1-.05.14-.05.09 0 .16.05.21.15l.48.79c-.25.22-.54.39-.88.5a3.2 3.2 0 0 1-1.05.18zm7.12-3.47c-.58.03-1.06.07-1.46.14-.4.08-.71.17-.96.28-.24.11-.42.25-.53.4a.88.88 0 0 0-.16.51c0 .18.03.34.09.46.06.13.14.24.24.32.1.08.22.14.36.18a2.32 2.32 0 0 0 1.54-.18c.3-.16.6-.39.88-.69v-1.41zm-4.28-3.24c.87-.8 1.9-1.2 3.1-1.2.43 0 .82.07 1.17.21.34.14.63.34.86.6.23.27.4.57.53.93.12.36.19.75.19 1.19V242h-.72a.7.7 0 0 1-.36-.07c-.08-.05-.14-.14-.2-.29l-.16-.62c-.2.17-.38.33-.57.47-.2.13-.4.25-.6.34-.2.1-.41.17-.65.22-.23.05-.48.07-.77.07-.3 0-.6-.04-.86-.13a1.83 1.83 0 0 1-1.15-1.03 2.22 2.22 0 0 1-.17-.9c0-.29.07-.58.23-.86s.42-.53.78-.75c.36-.22.84-.4 1.43-.55.6-.15 1.33-.23 2.2-.25v-.51c0-.55-.12-.96-.35-1.23-.24-.27-.58-.4-1.04-.4-.31 0-.57.03-.78.11-.21.08-.4.16-.55.25l-.41.25a.7.7 0 0 1-.38.12.46.46 0 0 1-.28-.09.71.71 0 0 1-.2-.21l-.29-.53zm9.25.36c.24-.49.53-.87.87-1.15.34-.27.75-.41 1.22-.41.17 0 .32.02.47.05.14.04.27.1.39.17l-.11 1.22c-.03.08-.06.14-.1.17a.27.27 0 0 1-.17.05c-.07 0-.18-.01-.32-.04a2.3 2.3 0 0 0-.44-.04c-.23 0-.43.03-.6.1-.17.06-.33.16-.46.28-.14.13-.26.28-.37.46-.1.18-.2.38-.29.62V242h-1.61v-7.65h.94c.17 0 .28.03.35.1.06.06.1.16.13.32l.1 1zm8.77 1.54c0-.27-.04-.52-.12-.75-.08-.23-.19-.44-.34-.6-.15-.18-.34-.32-.56-.41a1.9 1.9 0 0 0-.77-.15c-.58 0-1.04.17-1.38.5-.33.34-.54.8-.64 1.41h3.8zm-3.85 1c.02.43.09.8.2 1.12.12.32.27.58.46.8.2.2.43.36.7.46a2.73 2.73 0 0 0 1.71.05 3.84 3.84 0 0 0 1.03-.48c.12-.08.23-.11.33-.11.13 0 .23.05.3.15l.46.59c-.19.23-.4.41-.64.57a3.76 3.76 0 0 1-1.6.59c-.29.04-.56.06-.83.06a4 4 0 0 1-1.48-.26 3.28 3.28 0 0 1-1.18-.79c-.33-.34-.59-.77-.78-1.28a5.1 5.1 0 0 1-.03-3.25 3.38 3.38 0 0 1 1.86-2c.45-.2.96-.3 1.52-.3.47 0 .9.08 1.3.23a2.86 2.86 0 0 1 1.72 1.75c.16.43.25.92.25 1.46 0 .25-.03.42-.09.5-.05.09-.15.13-.3.13h-4.91zm10.88.34c-.57.03-1.06.07-1.45.14-.4.08-.72.17-.96.28-.25.11-.42.25-.53.4a.88.88 0 0 0-.16.51c0 .18.03.34.08.46.06.13.14.24.24.32.1.08.23.14.36.18a2.32 2.32 0 0 0 1.54-.18c.3-.16.6-.39.88-.69v-1.41zm-4.27-3.24c.86-.8 1.9-1.2 3.09-1.2.44 0 .83.07 1.17.21.34.14.63.34.86.6.24.27.41.57.54.93.12.36.18.75.18 1.19V242h-.72a.7.7 0 0 1-.35-.07c-.08-.05-.15-.14-.2-.29l-.16-.62c-.2.17-.39.33-.58.47-.19.13-.39.25-.59.34-.2.1-.42.17-.65.22-.23.05-.49.07-.77.07-.31 0-.6-.04-.87-.13a1.83 1.83 0 0 1-1.16-1.03 2.22 2.22 0 0 1-.16-.9c0-.29.08-.58.24-.86.15-.28.41-.53.78-.75.36-.22.84-.4 1.43-.55.6-.15 1.32-.23 2.2-.25v-.51c0-.55-.12-.96-.36-1.23s-.58-.4-1.03-.4c-.32 0-.57.03-.78.11-.22.08-.4.16-.55.25l-.41.25a.7.7 0 0 1-.39.12.46.46 0 0 1-.28-.09.71.71 0 0 1-.19-.21l-.3-.53zm17.83-1.06L92.92 242h-1.46l-3.07-7.65h1.33a.5.5 0 0 1 .3.1c.09.06.14.13.17.22l1.7 4.45a10.9 10.9 0 0 1 .32 1.25 7.19 7.19 0 0 1 .34-1.25l1.73-4.46a.46.46 0 0 1 .16-.22.47.47 0 0 1 .3-.09h1.25zm5.02 4.3c-.58.03-1.06.07-1.45.14-.4.08-.72.17-.97.28-.24.11-.42.25-.52.4a.88.88 0 0 0-.16.51c0 .18.02.34.08.46.06.13.14.24.24.32.1.08.22.14.36.18a2.32 2.32 0 0 0 1.54-.18c.3-.16.6-.39.88-.69v-1.41zm-4.28-3.24c.87-.8 1.9-1.2 3.1-1.2.44 0 .83.07 1.17.21.34.14.63.34.86.6.23.27.41.57.53.93.13.36.19.75.19 1.19V242h-.72a.7.7 0 0 1-.36-.07c-.08-.05-.14-.14-.2-.29l-.16-.62c-.19.17-.38.33-.57.47-.2.13-.39.25-.6.34-.2.1-.41.17-.64.22-.24.05-.5.07-.77.07-.31 0-.6-.04-.87-.13a1.83 1.83 0 0 1-1.16-1.03 2.22 2.22 0 0 1-.16-.9c0-.29.08-.58.23-.86.16-.28.42-.53.78-.75.37-.22.84-.4 1.44-.55.59-.15 1.32-.23 2.19-.25v-.51c0-.55-.12-.96-.35-1.23-.24-.27-.58-.4-1.04-.4-.3 0-.57.03-.78.11-.2.08-.39.16-.55.25l-.4.25a.7.7 0 0 1-.39.12.46.46 0 0 1-.28-.09.71.71 0 0 1-.2-.21l-.28-.53zm9.25.36c.24-.49.53-.87.87-1.15.34-.27.75-.41 1.23-.41.16 0 .31.02.46.05.15.04.27.1.39.17l-.11 1.22c-.02.08-.05.14-.1.17a.27.27 0 0 1-.16.05c-.08 0-.19-.01-.33-.04a2.3 2.3 0 0 0-.44-.04c-.23 0-.42.03-.6.1-.17.06-.32.16-.46.28-.14.13-.26.28-.37.46-.1.18-.2.38-.29.62V242h-1.61v-7.65h.94c.17 0 .28.03.35.1.06.06.11.16.14.32l.1 1zm5.7-1.42V242h-1.62v-7.65h1.61zm.26-2.31a1.08 1.08 0 0 1-.67.99 1.05 1.05 0 0 1-1.4-.58 1.03 1.03 0 0 1 0-.83c.07-.13.14-.24.24-.34.1-.1.2-.18.33-.23a1.05 1.05 0 0 1 .83 0 1.15 1.15 0 0 1 .59.57c.06.13.08.27.08.42zm5.86 6.62c-.58.02-1.06.06-1.46.13-.4.08-.71.17-.96.28-.25.11-.42.25-.53.4a.88.88 0 0 0-.16.51c0 .18.03.34.09.46.05.13.13.24.24.32.1.08.22.14.36.18a2.32 2.32 0 0 0 1.54-.18c.3-.16.59-.39.88-.69v-1.41zm-4.28-3.25c.87-.8 1.9-1.2 3.09-1.2.44 0 .83.07 1.17.21.35.14.63.34.87.6.23.27.4.57.53.93.12.36.18.75.18 1.19V242h-.72a.7.7 0 0 1-.35-.07c-.08-.05-.15-.14-.2-.29l-.16-.62c-.2.17-.39.33-.58.47-.19.13-.38.25-.59.34-.2.1-.42.17-.65.22-.23.05-.49.07-.77.07-.3 0-.6-.04-.86-.13a1.83 1.83 0 0 1-1.15-1.03 2.22 2.22 0 0 1-.18-.9c0-.29.08-.58.24-.86.16-.28.42-.53.78-.75.36-.22.84-.4 1.43-.55.6-.15 1.32-.23 2.2-.25v-.51c0-.55-.12-.96-.36-1.23-.23-.27-.58-.4-1.03-.4-.31 0-.57.03-.78.11-.21.08-.4.16-.55.25l-.41.25a.7.7 0 0 1-.39.12.46.46 0 0 1-.28-.09.71.71 0 0 1-.19-.21l-.29-.53zm15.05 6.59h-1.62v-6.38h-3.73v4.34c0 .28.07.48.2.63a.7.7 0 0 0 .55.22c.12 0 .23-.02.32-.05a1.46 1.46 0 0 0 .4-.21c.05-.03.1-.05.14-.05.09 0 .16.05.22.15l.48.79c-.25.22-.55.39-.89.5a3.2 3.2 0 0 1-1.05.18c-.63 0-1.12-.18-1.46-.54a2.1 2.1 0 0 1-.52-1.5v-4.46h-.84a.34.34 0 0 1-.23-.09c-.07-.06-.1-.14-.1-.26v-.65l1.24-.18.35-2.21a.43.43 0 0 1 .13-.2.35.35 0 0 1 .24-.09h.82v2.52h5.34V242zm.33-10c0 .15-.03.28-.1.41a1.1 1.1 0 0 1-.58.57 1.03 1.03 0 0 1-1.16-.23c-.1-.1-.17-.21-.23-.34a1.05 1.05 0 0 1 0-.83 1.1 1.1 0 0 1 .57-.58 1.03 1.03 0 0 1 .82 0 1.07 1.07 0 0 1 .67 1zm5 2.23c.57 0 1.08.1 1.54.28a3.29 3.29 0 0 1 1.91 2.02c.18.49.27 1.03.27 1.64 0 .6-.09 1.15-.27 1.63a3.26 3.26 0 0 1-1.92 2.03c-.45.19-.96.28-1.53.28-.57 0-1.08-.09-1.54-.28a3.3 3.3 0 0 1-1.92-2.03 4.8 4.8 0 0 1-.26-1.63c0-.6.08-1.15.26-1.64a3.33 3.33 0 0 1 1.92-2.03c.46-.18.97-.27 1.55-.27zm0 6.62c.7 0 1.2-.23 1.55-.7.33-.45.5-1.11.5-1.97 0-.87-.17-1.53-.5-2-.34-.46-.85-.7-1.54-.7-.7 0-1.22.24-1.56.7a3.34 3.34 0 0 0-.51 2c0 .86.16 1.52.5 1.98.35.46.86.7 1.56.7zm6.77-5.49a4.89 4.89 0 0 1 1.08-.82 3.03 3.03 0 0 1 2.48-.1c.32.14.58.34.8.6.22.25.38.55.5.91a4 4 0 0 1 .16 1.18V242h-1.6v-4.87c0-.51-.13-.91-.36-1.2-.24-.28-.6-.43-1.09-.43-.36 0-.7.09-1 .25-.3.17-.6.4-.86.68V242h-1.62v-7.65h.98c.22 0 .36.1.42.3l.11.71zm11.48.38a.4.4 0 0 1-.14.15.36.36 0 0 1-.19.04.6.6 0 0 1-.28-.08l-.35-.17a2.33 2.33 0 0 0-1.66-.18c-.16.04-.3.1-.41.2a.92.92 0 0 0-.26.3.82.82 0 0 0-.09.38c0 .18.05.33.16.45.12.12.26.23.44.31.18.1.38.17.62.24l.7.22.7.28c.24.1.44.24.62.39.18.15.32.34.44.55.1.22.16.48.16.8 0 .36-.06.69-.2 1-.13.3-.31.56-.56.79-.26.22-.57.4-.94.52a4.01 4.01 0 0 1-2.05.12 4.42 4.42 0 0 1-1.32-.5c-.2-.1-.37-.23-.52-.37l.38-.61c.04-.08.1-.14.17-.18a.46.46 0 0 1 .25-.06c.1 0 .2.03.3.1l.37.22a2.25 2.25 0 0 0 1.23.32 2 2 0 0 0 .62-.08c.17-.06.32-.14.43-.24a.95.95 0 0 0 .34-.75.7.7 0 0 0-.17-.48 1.4 1.4 0 0 0-.43-.32 4.05 4.05 0 0 0-.63-.24l-.7-.23a7.43 7.43 0 0 1-.71-.28c-.24-.1-.44-.23-.63-.4a1.83 1.83 0 0 1-.6-1.44 2.11 2.11 0 0 1 .72-1.6c.24-.2.53-.37.88-.5.35-.12.75-.18 1.2-.18.52 0 .99.08 1.4.25.43.16.78.39 1.06.67l-.35.59zm1.73 5.33a1.06 1.06 0 0 1 .3-.74 1.02 1.02 0 0 1 .73-.31 1.02 1.02 0 0 1 .75.3 1.06 1.06 0 0 1 .22 1.16 1.07 1.07 0 0 1-.56.55 1.06 1.06 0 0 1-.82 0 .97.97 0 0 1-.33-.22 1.05 1.05 0 0 1-.3-.74z"/>
  </g>
</svg>