<?xml version="1.0" encoding="UTF-8"?>
<svg width="16px" height="16px" viewBox="0 0 16 16" version="1.1" xmlns="http://www.w3.org/2000/svg" xmlns:xlink="http://www.w3.org/1999/xlink">
    <title>Icons/Maps/directions</title>
    <defs>
        <path d="M14.4733334,7.52666666 L8.47333334,1.52666663 C8.21333333,1.26666662 7.79333333,1.26666662 7.53333333,1.52666663 L1.53333329,7.52666666 C1.27333329,7.78666667 1.27333329,8.20666667 1.53333329,8.46666667 L7.53333333,14.4666667 C7.79333333,14.7266667 8.21333333,14.7266667 8.47333334,14.4666667 L14.4733334,8.46666667 C14.7333334,8.21333333 14.7333334,7.79333333 14.4733334,7.52666666 Z M9.33333332,9.66666668 L9.33333332,7.99999998 L6.66666666,7.99999998 L6.66666666,9.99999998 L5.33333332,9.99999998 L5.33333332,7.33333333 C5.33333332,6.96666666 5.63333332,6.66666666 5.99999999,6.66666666 L9.33333332,6.66666666 L9.33333332,4.99999998 L11.6666667,7.33333333 L9.33333332,9.66666668 Z" id="path-1"></path>
    </defs>
    <g id="Icons/Maps/directions" stroke="none" stroke-width="1" fill="none" fill-rule="evenodd">
        <mask id="mask-2" fill="white">
            <use xlink:href="#path-1"></use>
        </mask>
        <use id="Icons/Maps/ic_directions_24px" fill="#233745" fill-rule="nonzero" xlink:href="#path-1"></use>
    </g>
</svg>