<svg xmlns="http://www.w3.org/2000/svg" xmlns:xlink="http://www.w3.org/1999/xlink" width="16" height="16" viewBox="0 0 16 16">
  <defs>
    <path id="directions-run-a" d="M8.99333334,3.65333331 C9.72666668,3.65333331 10.3266667,3.0533333 10.3266667,2.31999996 C10.3266667,1.58666663 9.72666668,0.986666623 8.99333334,0.986666623 C8.26,0.986666623 7.66,1.58666663 7.66,2.31999996 C7.66,3.0533333 8.26,3.65333331 8.99333334,3.65333331 Z M6.59333332,12.92 L7.26,9.98666664 L8.66,11.32 L8.66,15.32 L9.99333335,15.32 L9.99333335,10.32 L8.59333334,8.98666664 L8.99333334,6.98666664 C9.86000001,7.98666664 11.1933334,8.65333334 12.66,8.65333334 L12.66,7.32 C11.3933334,7.32 10.3266667,6.65333332 9.79333334,5.71999999 L9.12666667,4.65333331 C8.86000001,4.25333331 8.46,3.98666664 7.99333333,3.98666664 C7.79333333,3.98666664 7.66,4.05333331 7.46,4.05333331 L3.99333331,5.51999998 L3.99333331,8.65333334 L5.32666665,8.65333334 L5.32666665,6.38666666 L6.52666666,5.91999999 L5.45999998,11.32 L2.1933333,10.6533333 L1.92666663,11.9866666 L6.59333332,12.92 Z"/>
  </defs>
  <g fill="none" fill-rule="evenodd">
    <mask id="directions-run-b" fill="#fff">
      <use xlink:href="#directions-run-a"/>
    </mask>
    <g fill="CurrentColor" mask="url(#directions-run-b)">
      <rect width="16" height="16"/>
    </g>
  </g>
</svg>
