<svg xmlns="http://www.w3.org/2000/svg" xmlns:xlink="http://www.w3.org/1999/xlink" width="16" height="16" viewBox="0 0 16 16">
  <defs>
    <path id="directions-car-a" d="M12.6133334,4.00666664 C12.48,3.61333331 12.1066667,3.3333333 11.6666667,3.3333333 L4.33333331,3.3333333 C3.89333331,3.3333333 3.52666664,3.61333331 3.38666664,4.00666664 L1.99999996,8 L1.99999996,13.3333333 C1.99999996,13.7 2.29999996,14 2.66666663,14 L3.3333333,14 C3.69999997,14 3.99999996,13.7 3.99999996,13.3333333 L3.99999996,12.6666667 L12,12.6666667 L12,13.3333333 C12,13.7 12.3,14 12.6666667,14 L13.3333334,14 C13.7,14 14,13.7 14,13.3333333 L14,8 L12.6133334,4.00666664 Z M4.3333333,10.6666667 C3.77999997,10.6666667 3.3333333,10.22 3.3333333,9.66666667 C3.3333333,9.11333334 3.77999997,8.66666667 4.3333333,8.66666667 C4.88666665,8.66666667 5.3333333,9.11333334 5.3333333,9.66666667 C5.3333333,10.22 4.88666665,10.6666667 4.3333333,10.6666667 Z M11.6666667,10.6666667 C11.1133334,10.6666667 10.6666667,10.22 10.6666667,9.66666667 C10.6666667,9.11333334 11.1133334,8.66666667 11.6666667,8.66666667 C12.22,8.66666667 12.6666667,9.11333334 12.6666667,9.66666667 C12.6666667,10.22 12.22,10.6666667 11.6666667,10.6666667 Z M3.3333333,7.33333331 L4.3333333,4.33333331 L11.6666667,4.33333331 L12.6666667,7.33333331 L3.3333333,7.33333331 Z"/>
  </defs>
  <g fill="none" fill-rule="evenodd">
    <mask id="directions-car-b" fill="#fff">
      <use xlink:href="#directions-car-a"/>
    </mask>
    <g fill="CurrentColor" mask="url(#directions-car-b)">
      <rect width="16" height="16"/>
    </g>
  </g>
</svg>
