<svg xmlns="http://www.w3.org/2000/svg" xmlns:xlink="http://www.w3.org/1999/xlink" width="16" height="16" viewBox="0 0 16 16">
  <defs>
    <path id="directions-subway-a" d="M8,1.33333329 C5.05333331,1.33333329 2.66666663,1.66666663 2.66666663,3.99999998 L2.66666663,10.3333333 C2.66666663,11.62 3.71333331,12.6666667 4.99999998,12.6666667 L3.99999997,13.6666667 L3.99999997,14 L12,14 L12,13.6666667 L11,12.6666667 C12.2866667,12.6666667 13.3333334,11.62 13.3333334,10.3333333 L13.3333334,3.99999998 C13.3333334,1.66666663 10.9466667,1.33333329 8,1.33333329 Z M4.99999997,11.3333333 C4.44666664,11.3333333 3.99999997,10.8866667 3.99999997,10.3333333 C3.99999997,9.78000001 4.44666664,9.33333334 4.99999997,9.33333334 C5.55333332,9.33333334 5.99999997,9.78000001 5.99999997,10.3333333 C5.99999997,10.8866667 5.55333332,11.3333333 4.99999997,11.3333333 Z M7.33333333,7.33333333 L3.99999997,7.33333333 L3.99999997,3.99999997 L7.33333333,3.99999997 L7.33333333,7.33333333 Z M11,11.3333333 C10.4466667,11.3333333 10,10.8866667 10,10.3333333 C10,9.78000001 10.4466667,9.33333334 11,9.33333334 C11.5533334,9.33333334 12,9.78000001 12,10.3333333 C12,10.8866667 11.5533334,11.3333333 11,11.3333333 Z M12,7.33333333 L8.66666667,7.33333333 L8.66666667,3.99999997 L12,3.99999997 L12,7.33333333 Z"/>
  </defs>
  <g fill="none" fill-rule="evenodd">
    <mask id="directions-subway-b" fill="#fff">
      <use xlink:href="#directions-subway-a"/>
    </mask>
    <g fill="CurrentColor" mask="url(#directions-subway-b)">
      <rect width="16" height="16"/>
    </g>
  </g>
</svg>
