<?xml version="1.0" encoding="UTF-8"?>
<svg width="16px" height="16px" viewBox="0 0 16 16" version="1.1" xmlns="http://www.w3.org/2000/svg" xmlns:xlink="http://www.w3.org/1999/xlink">
    <title>Icons/Maps/directions-walk</title>
    <defs>
        <path d="M9.00000001,3.66666664 C9.73333334,3.66666664 10.3333333,3.06666664 10.3333333,2.3333333 C10.3333333,1.59999996 9.73333334,0.999999956 9.00000001,0.999999956 C8.26666667,0.999999956 7.66666666,1.59999996 7.66666666,2.3333333 C7.66666666,3.06666664 8.26666667,3.66666664 9.00000001,3.66666664 Z M6.53333332,5.93333332 L4.66666665,15.3333334 L6.06666665,15.3333334 L7.26666666,9.99999998 L8.66666667,11.3333334 L8.66666667,15.3333334 L9.99999998,15.3333334 L9.99999998,10.3333333 L8.6,8.99999998 L8.99999998,6.99999998 C9.86666668,7.99999998 11.2,8.66666667 12.6666667,8.66666667 L12.6666667,7.33333333 C11.4,7.33333333 10.3333333,6.66666666 9.80000001,5.73333332 L9.13333334,4.66666665 C8.86666667,4.26666664 8.46666667,3.99999998 7.99999998,3.99999998 C7.8,3.99999998 7.66666666,4.06666664 7.46666666,4.06666664 L3.99999998,5.53333332 L3.99999998,8.66666667 L5.33333332,8.66666667 L5.33333332,6.39999999 L6.53333332,5.93333332 L6.53333332,5.93333332 Z" id="path-1"></path>
    </defs>
    <g id="Icons/Maps/directions-walk" stroke="none" stroke-width="1" fill="none" fill-rule="evenodd">
        <mask id="mask-2" fill="white">
            <use xlink:href="#path-1"></use>
        </mask>
        <use id="Icons/Maps/ic_directions_walk_24px" fill="#233745" fill-rule="nonzero" xlink:href="#path-1"></use>
    </g>
</svg>