<?xml version="1.0" encoding="UTF-8"?>
<svg width="16px" height="16px" viewBox="0 0 16 16" version="1.1" xmlns="http://www.w3.org/2000/svg" xmlns:xlink="http://www.w3.org/1999/xlink">
    <title>Icons/Maps/edit-location</title>
    <g id="Icons/Maps/edit-location" stroke="none" stroke-width="1" fill="none" fill-rule="evenodd">
        <rect id="Spacer" fill-opacity="0" fill="#D8D8D8" x="0" y="0" width="16" height="16"></rect>
        <path d="M8,1.33333329 C5.42666665,1.33333329 3.3333333,3.42666664 3.3333333,5.99999999 C3.3333333,9.50000001 8,14.6666667 8,14.6666667 C8,14.6666667 12.6666667,9.50000001 12.6666667,5.99999999 C12.6666667,3.42666664 10.5733333,1.33333329 8,1.33333329 Z M6.95999999,8 L5.99999999,8 L5.99999999,7.03999999 L8.23333333,4.81333331 L9.18666667,5.76666665 L6.95999999,8 Z M9.92666668,5.03333331 L9.46000001,5.49999998 L8.5,4.53999998 L8.96666667,4.07333331 C9.06666667,3.97333331 9.22666667,3.97333331 9.32666667,4.07333331 L9.92666668,4.67333331 C10.0266667,4.77333331 10.0266667,4.93333331 9.92666668,5.03333331 L9.92666668,5.03333331 Z" id="Icons/Maps/ic_edit_location_24px" fill="#233745" fill-rule="nonzero"></path>
    </g>
</svg>