<?xml version="1.0" encoding="UTF-8"?>
<svg width="16px" height="16px" viewBox="0 0 16 16" version="1.1" xmlns="http://www.w3.org/2000/svg" xmlns:xlink="http://www.w3.org/1999/xlink">
    <title>Icons/Maps/ev-station</title>
    <g id="Icons/Maps/ev-station" stroke="none" stroke-width="1" fill="none" fill-rule="evenodd">
        <rect id="Spacer" fill-opacity="0" fill="#D8D8D8" x="0" y="0" width="16" height="16"></rect>
        <path d="M13.18,4.81999998 L13.1866667,4.81333331 L10.7066667,2.3333333 L10,3.03999997 L11.4066667,4.44666664 C10.78,4.68666665 10.3333333,5.28666665 10.3333333,5.99999996 C10.3333333,6.91999999 11.08,7.66666666 12,7.66666666 C12.24,7.66666666 12.46,7.61333333 12.6666666,7.52666666 L12.6666666,12.3333334 C12.6666666,12.7 12.3666667,13 12,13 C11.6333334,13 11.3333334,12.7 11.3333334,12.3333334 L11.3333334,9.33333334 C11.3333334,8.6 10.7333334,7.99999996 10,7.99999996 L9.33333334,7.99999996 L9.33333334,3.3333333 C9.33333334,2.59999997 8.73333334,1.99999996 8,1.99999996 L3.99999998,1.99999996 C3.26666664,1.99999996 2.66666663,2.59999997 2.66666663,3.3333333 L2.66666663,14 L9.33333334,14 L9.33333334,8.99999996 L10.3333333,8.99999996 L10.3333333,12.3333334 C10.3333333,13.2533334 11.08,14 12,14 C12.92,14 13.6666666,13.2533334 13.6666666,12.3333334 L13.6666666,5.99999996 C13.6666666,5.53999998 13.48,5.11999998 13.18,4.81999998 Z M12,6.66666666 C11.6333334,6.66666666 11.3333334,6.36666666 11.3333334,5.99999999 C11.3333334,5.63333332 11.6333334,5.33333332 12,5.33333332 C12.3666667,5.33333332 12.6666667,5.63333332 12.6666667,5.99999999 C12.6666667,6.36666666 12.3666667,6.66666666 12,6.66666666 Z M5.33333332,12 L5.33333332,8.99999997 L3.99999998,8.99999997 L6.66666666,3.99999997 L6.66666666,7.33333333 L7.99999998,7.33333333 L5.33333332,12 Z" id="Icons/Maps/ic_ev_station_24px" fill="#233745" fill-rule="nonzero"></path>
    </g>
</svg>