<?xml version="1.0" encoding="UTF-8"?>
<svg width="16px" height="16px" viewBox="0 0 16 16" version="1.1" xmlns="http://www.w3.org/2000/svg" xmlns:xlink="http://www.w3.org/1999/xlink">
    <title>Icons/Maps/hotel</title>
    <defs>
        <path d="M4.66666663,8.66666665 C5.77333332,8.66666665 6.66666663,7.77333333 6.66666663,6.66666665 C6.66666663,5.55999998 5.77333332,4.66666665 4.66666663,4.66666665 C3.55999997,4.66666665 2.66666663,5.55999998 2.66666663,6.66666665 C2.66666663,7.77333333 3.55999997,8.66666665 4.66666663,8.66666665 Z M12.6666666,4.66666665 L7.33333333,4.66666665 L7.33333333,9.3333333 L1.99999996,9.3333333 L1.99999996,3.3333333 L0.666666621,3.3333333 L0.666666621,13.3333333 L1.99999996,13.3333333 L1.99999996,11.3333333 L14,11.3333333 L14,13.3333333 L15.3333334,13.3333333 L15.3333334,7.3333333 C15.3333334,5.85999999 14.14,4.66666665 12.6666666,4.66666665 Z" id="path-1"></path>
    </defs>
    <g id="Icons/Maps/hotel" stroke="none" stroke-width="1" fill="none" fill-rule="evenodd">
        <mask id="mask-2" fill="white">
            <use xlink:href="#path-1"></use>
        </mask>
        <use id="Icons/Maps/ic_hotel_24px" fill="#233745" fill-rule="nonzero" xlink:href="#path-1"></use>
    </g>
</svg>