<?xml version="1.0" encoding="UTF-8"?>
<svg width="16px" height="16px" viewBox="0 0 16 16" version="1.1" xmlns="http://www.w3.org/2000/svg" xmlns:xlink="http://www.w3.org/1999/xlink">
    <title>Icons/Maps/local-mall</title>
    <defs>
        <path d="M12.6666667,3.99999997 L11.3333334,3.99999997 C11.3333334,2.15999996 9.84000001,0.666666621 7.99999996,0.666666621 C6.15999999,0.666666621 4.66666665,2.15999996 4.66666665,3.99999997 L3.3333333,3.99999997 C2.59999997,3.99999997 2.00666663,4.59999998 2.00666663,5.33333332 L1.99999996,13.3333334 C1.99999996,14.0666667 2.59999997,14.6666666 3.3333333,14.6666666 L12.6666667,14.6666666 C13.4,14.6666666 14,14.0666667 14,13.3333334 L14,5.33333332 C14,4.59999998 13.4,3.99999997 12.6666667,3.99999997 Z M7.99999999,1.99999996 C9.10666667,1.99999996 9.99999999,2.8933333 9.99999999,3.99999996 L5.99999999,3.99999996 C5.99999999,2.8933333 6.89333333,1.99999996 7.99999999,1.99999996 Z M8,8.66666667 C6.15999999,8.66666667 4.66666665,7.17333333 4.66666665,5.33333332 L5.99999999,5.33333332 C5.99999999,6.43999999 6.89333333,7.33333332 8,7.33333332 C9.10666667,7.33333332 10,6.43999999 10,5.33333332 L11.3333334,5.33333332 C11.3333334,7.17333333 9.84000001,8.66666667 8,8.66666667 Z" id="path-1"></path>
    </defs>
    <g id="Icons/Maps/local-mall" stroke="none" stroke-width="1" fill="none" fill-rule="evenodd">
        <mask id="mask-2" fill="white">
            <use xlink:href="#path-1"></use>
        </mask>
        <use id="Icons/Maps/ic_local_mall_24px" fill="#233745" fill-rule="nonzero" xlink:href="#path-1"></use>
    </g>
</svg>