<?xml version="1.0" encoding="UTF-8"?>
<svg width="16px" height="16px" viewBox="0 0 16 16" version="1.1" xmlns="http://www.w3.org/2000/svg" xmlns:xlink="http://www.w3.org/1999/xlink">
    <title>Icons/Maps/local-car-wash</title>
    <g id="Icons/Maps/local-car-wash" stroke="none" stroke-width="1" fill="none" fill-rule="evenodd">
        <rect id="Spacer" fill-opacity="0" fill="#D8D8D8" x="0" y="0" width="16" height="16"></rect>
        <path d="M11.3333333,3.3333333 C11.8866667,3.3333333 12.3333333,2.88666663 12.3333333,2.3333333 C12.3333333,1.66666663 11.3333333,0.533333287 11.3333333,0.533333287 C11.3333333,0.533333287 10.3333333,1.66666663 10.3333333,2.3333333 C10.3333333,2.88666663 10.78,3.3333333 11.3333333,3.3333333 Z M7.99999999,3.3333333 C8.55333334,3.3333333 8.99999999,2.88666663 8.99999999,2.3333333 C8.99999999,1.66666663 7.99999999,0.533333287 7.99999999,0.533333287 C7.99999999,0.533333287 6.99999999,1.66666663 6.99999999,2.3333333 C6.99999999,2.88666663 7.44666666,3.3333333 7.99999999,3.3333333 Z M4.66666664,3.3333333 C5.21999998,3.3333333 5.66666664,2.88666663 5.66666664,2.3333333 C5.66666664,1.66666663 4.66666664,0.533333287 4.66666664,0.533333287 C4.66666664,0.533333287 3.66666664,1.66666663 3.66666664,2.3333333 C3.66666664,2.88666663 4.11333331,3.3333333 4.66666664,3.3333333 Z M12.6133334,5.33999998 C12.48,4.94666665 12.1066667,4.66666665 11.6666667,4.66666665 L4.33333331,4.66666665 C3.89333331,4.66666665 3.52666664,4.94666665 3.38666664,5.33999998 L1.99999996,9.33333334 L1.99999996,14.6666666 C1.99999996,15.0333334 2.29999996,15.3333334 2.66666663,15.3333334 L3.3333333,15.3333334 C3.69999997,15.3333334 3.99999996,15.0333334 3.99999996,14.6666666 L3.99999996,14 L12,14 L12,14.6666666 C12,15.0333334 12.3,15.3333334 12.6666667,15.3333334 L13.3333334,15.3333334 C13.7,15.3333334 14,15.0333334 14,14.6666666 L14,9.33333334 L12.6133334,5.33999998 Z M4.3333333,12 C3.77999997,12 3.3333333,11.5533334 3.3333333,11 C3.3333333,10.4466667 3.77999997,10 4.3333333,10 C4.88666665,10 5.3333333,10.4466667 5.3333333,11 C5.3333333,11.5533334 4.88666665,12 4.3333333,12 Z M11.6666667,12 C11.1133334,12 10.6666667,11.5533334 10.6666667,11 C10.6666667,10.4466667 11.1133334,10 11.6666667,10 C12.22,10 12.6666667,10.4466667 12.6666667,11 C12.6666667,11.5533334 12.22,12 11.6666667,12 Z M3.3333333,8.66666665 L4.3333333,5.66666665 L11.6666667,5.66666665 L12.6666667,8.66666665 L3.3333333,8.66666665 Z" id="Icons/Maps/ic_local_car_wash_24px" fill="#233745" fill-rule="nonzero"></path>
    </g>
</svg>