<?xml version="1.0" encoding="UTF-8"?>
<svg width="16px" height="16px" viewBox="0 0 16 16" version="1.1" xmlns="http://www.w3.org/2000/svg" xmlns:xlink="http://www.w3.org/1999/xlink">
    <title>Icons/Maps/local-convenience-store</title>
    <defs>
        <path d="M12.6666667,4.66666663 L12.6666667,2.66666663 L3.33333329,2.66666663 L3.33333329,4.66666663 L1.33333329,4.66666663 L1.33333329,13.3333334 L6.66666666,13.3333334 L6.66666666,10.6666666 L9.33333329,10.6666666 L9.33333329,13.3333334 L14.6666667,13.3333334 L14.6666667,4.66666663 L12.6666667,4.66666663 Z M7.33333332,6.66666665 L5.99999999,6.66666665 L5.99999999,7.33333333 L7.33333332,7.33333333 L7.33333332,8 L5.33333332,8 L5.33333332,5.99999999 L6.66666666,5.99999999 L6.66666666,5.33333332 L5.33333332,5.33333332 L5.33333332,4.66666665 L7.33333332,4.66666665 L7.33333332,6.66666665 Z M10.6666667,8 L10,8 L10,6.66666665 L8.66666667,6.66666665 L8.66666667,4.66666665 L9.33333334,4.66666665 L9.33333334,5.99999999 L10,5.99999999 L10,4.66666665 L10.6666667,4.66666665 L10.6666667,8 Z" id="path-1"></path>
    </defs>
    <g id="Icons/Maps/local-convenience-store" stroke="none" stroke-width="1" fill="none" fill-rule="evenodd">
        <mask id="mask-2" fill="white">
            <use xlink:href="#path-1"></use>
        </mask>
        <use id="Icons/Maps/ic_local_convenience_store_24px" fill="#233745" fill-rule="nonzero" xlink:href="#path-1"></use>
    </g>
</svg>