<svg xmlns="http://www.w3.org/2000/svg" xmlns:xlink="http://www.w3.org/1999/xlink" width="16" height="16" viewBox="0 0 16 16">
  <defs>
    <path id="local-hospital-a" d="M12.6666667,1.99999996 L3.3333333,1.99999996 C2.59999997,1.99999996 2.00666663,2.59999997 2.00666663,3.3333333 L1.99999996,12.6666667 C1.99999996,13.4 2.59999997,14 3.3333333,14 L12.6666667,14 C13.4,14 14,13.4 14,12.6666667 L14,3.3333333 C14,2.59999997 13.4,1.99999996 12.6666667,1.99999996 Z M12,9.33333334 L9.33333334,9.33333334 L9.33333334,12 L6.66666666,12 L6.66666666,9.33333334 L3.99999997,9.33333334 L3.99999997,6.66666666 L6.66666666,6.66666666 L6.66666666,3.99999997 L9.33333334,3.99999997 L9.33333334,6.66666666 L12,6.66666666 L12,9.33333334 Z"/>
  </defs>
  <g fill="none" fill-rule="evenodd">
    <mask id="local-hospital-b" fill="#fff">
      <use xlink:href="#local-hospital-a"/>
    </mask>
    <g fill="CurrentColor" mask="url(#local-hospital-b)">
      <rect width="16" height="16"/>
    </g>
  </g>
</svg>
