<?xml version="1.0" encoding="UTF-8"?>
<svg width="16px" height="16px" viewBox="0 0 16 16" version="1.1" xmlns="http://www.w3.org/2000/svg" xmlns:xlink="http://www.w3.org/1999/xlink">
    <title>Icons/Maps/local-play</title>
    <g id="Icons/Maps/local-play" stroke="none" stroke-width="1" fill="none" fill-rule="evenodd">
        <rect id="Spacer" fill-opacity="0" fill="#D8D8D8" x="0" y="0" width="16" height="16"></rect>
        <path d="M13.3333333,8 C13.3333333,7.26666666 13.9333334,6.66666663 14.6666667,6.66666663 L14.6666667,3.99999997 C14.6666667,3.26666664 14.0666667,2.66666663 13.3333333,2.66666663 L2.66666663,2.66666663 C1.9333333,2.66666663 1.33999996,3.26666664 1.33999996,3.99999997 L1.33999996,6.66666663 C2.0733333,6.66666663 2.66666663,7.26666666 2.66666663,8 C2.66666663,8.73333334 2.0733333,9.33333334 1.33333329,9.33333334 L1.33333329,12 C1.33333329,12.7333334 1.9333333,13.3333334 2.66666663,13.3333334 L13.3333333,13.3333334 C14.0666667,13.3333334 14.6666667,12.7333334 14.6666667,12 L14.6666667,9.33333334 C13.9333334,9.33333334 13.3333333,8.73333334 13.3333333,8 Z M10.3866667,11.2 L8,9.66666668 L5.61333332,11.2 L6.33333332,8.45333334 L4.13999998,6.65999999 L6.96666666,6.49333332 L8,3.86666664 L9.02666667,6.49999999 L11.8533334,6.66666666 L9.66000001,8.46 L10.3866667,11.2 Z" id="Icons/Maps/ic_local_play_24px" fill="#233745" fill-rule="nonzero"></path>
    </g>
</svg>