<?xml version="1.0" encoding="UTF-8"?>
<svg width="16px" height="16px" viewBox="0 0 16 16" version="1.1" xmlns="http://www.w3.org/2000/svg" xmlns:xlink="http://www.w3.org/1999/xlink">
    <title>Icons/Maps/local-pharmacy</title>
    <g id="Icons/Maps/local-pharmacy" stroke="none" stroke-width="1" fill="none" fill-rule="evenodd">
        <rect id="Spacer" fill-opacity="0" fill="#D8D8D8" x="0" y="0" width="16" height="16"></rect>
        <path d="M14,3.3333333 L12.24,3.3333333 L13,1.23999996 L11.4333334,0.666666621 L10.46,3.3333333 L1.99999996,3.3333333 L1.99999996,4.66666662 L3.3333333,8.66666662 L1.99999996,12.6666666 L1.99999996,14 L14,14 L14,12.6666666 L12.6666667,8.66666662 L14,4.66666662 L14,3.3333333 Z M10.6666667,9.33333334 L8.66666667,9.33333334 L8.66666667,11.3333334 L7.33333332,11.3333334 L7.33333332,9.33333334 L5.33333332,9.33333334 L5.33333332,7.99999999 L7.33333332,7.99999999 L7.33333332,5.99999999 L8.66666667,5.99999999 L8.66666667,7.99999999 L10.6666667,7.99999999 L10.6666667,9.33333334 Z" id="Icons/Maps/ic_local_pharmacy_24px" fill="#233745" fill-rule="nonzero"></path>
    </g>
</svg>