<?xml version="1.0" encoding="UTF-8"?>
<svg width="16px" height="16px" viewBox="0 0 16 16" version="1.1" xmlns="http://www.w3.org/2000/svg" xmlns:xlink="http://www.w3.org/1999/xlink">
    <title>Icons/Maps/local-pizza</title>
    <g id="Icons/Maps/local-pizza" stroke="none" stroke-width="1" fill="none" fill-rule="evenodd">
        <rect id="Spacer" fill-opacity="0" fill="#D8D8D8" x="0" y="0" width="16" height="16"></rect>
        <path d="M8,1.33333329 C5.61999999,1.33333329 3.48666664,2.35999996 2.00666663,3.99999998 L8,14.6666667 L13.9933334,3.99999998 C12.52,2.36666663 10.38,1.33333329 8,1.33333329 Z M4.66666665,4.66666665 C4.66666665,3.93333331 5.26666665,3.3333333 5.99999999,3.3333333 C6.73333333,3.3333333 7.33333333,3.93333331 7.33333333,4.66666665 C7.33333333,5.39999998 6.73333333,5.99999999 5.99999999,5.99999999 C5.26666665,5.99999999 4.66666665,5.39999998 4.66666665,4.66666665 Z M8,10 C7.26666666,10 6.66666666,9.40000001 6.66666666,8.66666667 C6.66666666,7.93333333 7.26666666,7.33333333 8,7.33333333 C8.73333334,7.33333333 9.33333334,7.93333333 9.33333334,8.66666667 C9.33333334,9.40000001 8.73333334,10 8,10 Z" id="Icons/Maps/ic_local_pizza_24px" fill="#233745" fill-rule="nonzero"></path>
    </g>
</svg>