<?xml version="1.0" encoding="UTF-8"?>
<svg width="16px" height="16px" viewBox="0 0 16 16" version="1.1" xmlns="http://www.w3.org/2000/svg" xmlns:xlink="http://www.w3.org/1999/xlink">
    <title>Icons/Maps/local-library</title>
    <g id="Icons/Maps/local-library" stroke="none" stroke-width="1" fill="none" fill-rule="evenodd">
        <rect id="Spacer" fill-opacity="0" fill="#D8D8D8" x="0" y="0" width="16" height="16"></rect>
        <path d="M7.99999996,7.7 C6.42666666,6.23333332 4.31999998,5.33333332 1.99999996,5.33333332 L1.99999996,12.6666667 C4.31999998,12.6666667 6.42666666,13.5666667 7.99999996,15.0333334 C9.57333334,13.5733334 11.68,12.6666667 14,12.6666667 L14,5.33333332 C11.68,5.33333332 9.57333334,6.23333332 7.99999996,7.7 Z M7.99999999,5.33333329 C9.10666667,5.33333329 9.99999999,4.43999998 9.99999999,3.33333329 C9.99999999,2.22666663 9.10666667,1.33333329 7.99999999,1.33333329 C6.89333333,1.33333329 5.99999999,2.22666663 5.99999999,3.33333329 C5.99999999,4.43999998 6.89333333,5.33333329 7.99999999,5.33333329 Z" id="Icons/Maps/ic_local_library_24px" fill="#233745" fill-rule="nonzero"></path>
    </g>
</svg>