<?xml version="1.0" encoding="UTF-8"?>
<svg width="16px" height="16px" viewBox="0 0 16 16" version="1.1" xmlns="http://www.w3.org/2000/svg" xmlns:xlink="http://www.w3.org/1999/xlink">
    <title>Icons/Maps/local-florist</title>
    <defs>
        <path d="M8,14.6666667 C11.3133334,14.6666667 14,11.98 14,8.66666667 C10.6866667,8.66666667 8,11.3533334 8,14.6666667 Z M3.73333331,6.83333333 C3.73333331,7.75333333 4.47999998,8.5 5.39999998,8.5 C5.75333332,8.5 6.07333332,8.39333334 6.34666666,8.20666667 L6.33333332,8.33333334 C6.33333332,9.25333334 7.07999999,10 8,10 C8.92000001,10 9.66666668,9.25333334 9.66666668,8.33333334 L9.65333334,8.20666667 C9.92000001,8.39333334 10.2466667,8.5 10.6,8.5 C11.52,8.5 12.2666667,7.75333333 12.2666667,6.83333333 C12.2666667,6.16666662 11.8733334,5.59999999 11.3133334,5.33333332 C11.8733334,5.06666665 12.2666667,4.49999998 12.2666667,3.83333331 C12.2666667,2.9133333 11.52,2.16666662 10.6,2.16666662 C10.2466667,2.16666662 9.92666668,2.2733333 9.65333334,2.45999997 L9.66666668,2.3333333 C9.66666668,1.41333329 8.92000001,0.666666621 8,0.666666621 C7.07999999,0.666666621 6.33333332,1.41333329 6.33333332,2.3333333 L6.34666666,2.45999997 C6.07999999,2.2733333 5.75333332,2.16666662 5.39999998,2.16666662 C4.47999998,2.16666662 3.73333331,2.9133333 3.73333331,3.83333331 C3.73333331,4.49999998 4.12666664,5.06666665 4.68666665,5.33333332 C4.12666664,5.59999999 3.73333331,6.16666662 3.73333331,6.83333333 Z M8,3.66666664 C8.92000001,3.66666664 9.66666668,4.41333331 9.66666668,5.33333332 C9.66666668,6.25333332 8.92000001,6.99999999 8,6.99999999 C7.07999999,6.99999999 6.33333332,6.25333332 6.33333332,5.33333332 C6.33333332,4.41333331 7.07999999,3.66666664 8,3.66666664 Z M1.99999996,8.66666667 C1.99999996,11.98 4.68666665,14.6666667 7.99999996,14.6666667 C7.99999996,11.3533334 5.31333332,8.66666667 1.99999996,8.66666667 Z" id="path-1"></path>
    </defs>
    <g id="Icons/Maps/local-florist" stroke="none" stroke-width="1" fill="none" fill-rule="evenodd">
        <mask id="mask-2" fill="white">
            <use xlink:href="#path-1"></use>
        </mask>
        <use id="Icons/Maps/ic_local_florist_24px" fill="#233745" fill-rule="nonzero" xlink:href="#path-1"></use>
    </g>
</svg>