<?xml version="1.0" encoding="UTF-8"?>
<svg width="16px" height="16px" viewBox="0 0 16 16" version="1.1" xmlns="http://www.w3.org/2000/svg" xmlns:xlink="http://www.w3.org/1999/xlink">
    <title>Icons/Maps/local-cafe</title>
    <defs>
        <path d="M13.3333334,1.99999996 L2.66666663,1.99999996 L2.66666663,8.66666667 C2.66666663,10.14 3.85999997,11.3333334 5.33333332,11.3333334 L9.33333334,11.3333334 C10.8066667,11.3333334 12,10.14 12,8.66666667 L12,6.66666666 L13.3333334,6.66666666 C14.0733334,6.66666666 14.6666666,6.07333332 14.6666666,5.33333332 L14.6666666,3.3333333 C14.6666666,2.5933333 14.0733334,1.99999996 13.3333334,1.99999996 Z M13.3333334,5.3333333 L12,5.3333333 L12,3.3333333 L13.3333334,3.3333333 L13.3333334,5.3333333 Z M1.33333329,14 L13.3333333,14 L13.3333333,12.6666667 L1.33333329,12.6666667 L1.33333329,14 Z" id="path-1"></path>
    </defs>
    <g id="Icons/Maps/local-cafe" stroke="none" stroke-width="1" fill="none" fill-rule="evenodd">
        <mask id="mask-2" fill="white">
            <use xlink:href="#path-1"></use>
        </mask>
        <use id="Icons/Maps/ic_local_cafe_24px" fill="#233745" fill-rule="nonzero" xlink:href="#path-1"></use>
    </g>
</svg>