<?xml version="1.0" encoding="UTF-8"?>
<svg width="16px" height="16px" viewBox="0 0 16 16" version="1.1" xmlns="http://www.w3.org/2000/svg" xmlns:xlink="http://www.w3.org/1999/xlink">
    <title>Icons/Maps/local-drink</title>
    <defs>
        <path d="M1.99999996,1.33333329 L3.33999997,13.4866667 C3.41999997,14.1533334 3.97999997,14.6666667 4.66666665,14.6666667 L11.3333334,14.6666667 C12.02,14.6666667 12.58,14.1533334 12.66,13.4866667 L14,1.33333329 L1.99999996,1.33333329 Z M7.99999999,12.6666667 C6.89333333,12.6666667 5.99999999,11.7733334 5.99999999,10.6666667 C5.99999999,9.33333334 7.99999999,7.06666666 7.99999999,7.06666666 C7.99999999,7.06666666 9.99999999,9.33333334 9.99999999,10.6666667 C9.99999999,11.7733334 9.10666667,12.6666667 7.99999999,12.6666667 Z M12.22,5.33333332 L3.77999997,5.33333332 L3.48666664,2.66666663 L12.5066667,2.66666663 L12.22,5.33333332 Z" id="path-1"></path>
    </defs>
    <g id="Icons/Maps/local-drink" stroke="none" stroke-width="1" fill="none" fill-rule="evenodd">
        <mask id="mask-2" fill="white">
            <use xlink:href="#path-1"></use>
        </mask>
        <use id="Icons/Maps/ic_local_drink_24px" fill="#233745" fill-rule="nonzero" xlink:href="#path-1"></use>
    </g>
</svg>