<?xml version="1.0" encoding="UTF-8"?>
<svg width="16px" height="16px" viewBox="0 0 16 16" version="1.1" xmlns="http://www.w3.org/2000/svg" xmlns:xlink="http://www.w3.org/1999/xlink">
    <title>Icons/Maps/local-movies</title>
    <defs>
        <path d="M12,1.99999996 L12,3.3333333 L10.6666666,3.3333333 L10.6666666,1.99999996 L5.33333332,1.99999996 L5.33333332,3.3333333 L3.99999997,3.3333333 L3.99999997,1.99999996 L2.66666663,1.99999996 L2.66666663,14 L3.99999997,14 L3.99999997,12.6666667 L5.33333332,12.6666667 L5.33333332,14 L10.6666666,14 L10.6666666,12.6666667 L12,12.6666667 L12,14 L13.3333334,14 L13.3333334,1.99999996 L12,1.99999996 Z M5.33333332,11.3333334 L3.99999998,11.3333334 L3.99999998,10 L5.33333332,10 L5.33333332,11.3333334 Z M5.33333332,8.66666667 L3.99999998,8.66666667 L3.99999998,7.33333333 L5.33333332,7.33333333 L5.33333332,8.66666667 Z M5.33333332,5.99999999 L3.99999998,5.99999999 L3.99999998,4.66666665 L5.33333332,4.66666665 L5.33333332,5.99999999 Z M12,11.3333334 L10.6666667,11.3333334 L10.6666667,10 L12,10 L12,11.3333334 Z M12,8.66666667 L10.6666667,8.66666667 L10.6666667,7.33333333 L12,7.33333333 L12,8.66666667 Z M12,5.99999999 L10.6666667,5.99999999 L10.6666667,4.66666665 L12,4.66666665 L12,5.99999999 Z" id="path-1"></path>
    </defs>
    <g id="Icons/Maps/local-movies" stroke="none" stroke-width="1" fill="none" fill-rule="evenodd">
        <mask id="mask-2" fill="white">
            <use xlink:href="#path-1"></use>
        </mask>
        <use id="Icons/Maps/ic_local_movies_24px" fill="#233745" fill-rule="nonzero" xlink:href="#path-1"></use>
    </g>
</svg>