<?xml version="1.0" encoding="UTF-8"?>
<svg width="16px" height="16px" viewBox="0 0 16 16" version="1.1" xmlns="http://www.w3.org/2000/svg" xmlns:xlink="http://www.w3.org/1999/xlink">
    <title>Icons/Maps/map</title>
    <g id="Icons/Maps/map" stroke="none" stroke-width="1" fill="none" fill-rule="evenodd">
        <rect id="Spacer" fill-opacity="0" fill="#D8D8D8" x="0" y="0" width="16" height="16"></rect>
        <path d="M13.6666667,1.99999996 L13.56,2.01999996 L9.99999996,3.39999997 L5.99999996,1.99999996 L2.23999996,3.26666664 C2.09999996,3.3133333 1.99999996,3.4333333 1.99999996,3.58666664 L1.99999996,13.6666667 C1.99999996,13.8533334 2.14666663,14 2.3333333,14 L2.43999997,13.98 L5.99999996,12.6 L9.99999996,14 L13.76,12.7333334 C13.9,12.6866667 14,12.5666667 14,12.4133334 L14,2.3333333 C14,2.14666663 13.8533334,1.99999996 13.6666667,1.99999996 Z M9.99999999,12.6666667 L5.99999999,11.26 L5.99999999,3.3333333 L9.99999999,4.73999998 L9.99999999,12.6666667 Z" id="Icons/Maps/ic_map_24px" fill="#233745" fill-rule="nonzero"></path>
    </g>
</svg>