<?xml version="1.0" encoding="UTF-8"?>
<svg width="16px" height="16px" viewBox="0 0 16 16" version="1.1" xmlns="http://www.w3.org/2000/svg" xmlns:xlink="http://www.w3.org/1999/xlink">
    <title>Icons/Maps/person-pin-circle</title>
    <g id="Icons/Maps/person-pin-circle" stroke="none" stroke-width="1" fill="none" fill-rule="evenodd">
        <rect id="Spacer" fill-opacity="0" fill="#D8D8D8" x="0" y="0" width="16" height="16"></rect>
        <path d="M8,1.33333329 C5.42666665,1.33333329 3.3333333,3.42666664 3.3333333,5.99999999 C3.3333333,9.50000001 8,14.6666667 8,14.6666667 C8,14.6666667 12.6666667,9.50000001 12.6666667,5.99999999 C12.6666667,3.42666664 10.5733333,1.33333329 8,1.33333329 Z M8,2.66666663 C8.73333334,2.66666663 9.33333334,3.26666664 9.33333334,3.99999997 C9.33333334,4.73999998 8.73333334,5.33333332 8,5.33333332 C7.26666666,5.33333332 6.66666666,4.73999998 6.66666666,3.99999997 C6.66666666,3.26666664 7.26666666,2.66666663 8,2.66666663 Z M8,9.33333334 C6.88666666,9.33333334 5.90666665,8.76666667 5.33333332,7.9 C5.34666665,7.01999999 7.11333333,6.53333332 8,6.53333332 C8.88666667,6.53333332 10.6533333,7.01999999 10.6666667,7.9 C10.0933333,8.76666667 9.11333334,9.33333334 8,9.33333334 L8,9.33333334 Z" id="Icons/Maps/ic_person_pin_circle_24px" fill="#233745" fill-rule="nonzero"></path>
    </g>
</svg>