<?xml version="1.0" encoding="UTF-8"?>
<svg width="16px" height="16px" viewBox="0 0 16 16" version="1.1" xmlns="http://www.w3.org/2000/svg" xmlns:xlink="http://www.w3.org/1999/xlink">
    <title>Icons/Maps/person-pin</title>
    <g id="Icons/Maps/person-pin" stroke="none" stroke-width="1" fill="none" fill-rule="evenodd">
        <rect id="Spacer" fill-opacity="0" fill="#D8D8D8" x="0" y="0" width="16" height="16"></rect>
        <path d="M12.6666667,1.33333329 L3.3333333,1.33333329 C2.5933333,1.33333329 1.99999996,1.9333333 1.99999996,2.66666663 L1.99999996,12 C1.99999996,12.7333334 2.5933333,13.3333333 3.3333333,13.3333333 L5.99999996,13.3333333 L7.99999996,15.3333333 L9.99999996,13.3333333 L12.6666667,13.3333333 C13.4,13.3333333 14,12.7333334 14,12 L14,2.66666663 C14,1.9333333 13.4,1.33333329 12.6666667,1.33333329 Z M8,3.53333331 C8.99333334,3.53333331 9.80000001,4.33999998 9.80000001,5.33333332 C9.80000001,6.32666666 8.99333334,7.13333333 8,7.13333333 C7.00666666,7.13333333 6.19999999,6.32666666 6.19999999,5.33333332 C6.19999999,4.33999998 7.00666666,3.53333331 8,3.53333331 Z M12,10.6666667 L3.99999997,10.6666667 L3.99999997,10.0666667 C3.99999997,8.73333334 6.66666666,8 7.99999997,8 C9.33333334,8 12,8.73333334 12,10.0666667 L12,10.6666667 Z" id="Icons/Maps/ic_person_pin_24px" fill="#233745" fill-rule="nonzero"></path>
    </g>
</svg>