<?xml version="1.0" encoding="UTF-8"?>
<svg width="16px" height="16px" viewBox="0 0 16 16" version="1.1" xmlns="http://www.w3.org/2000/svg" xmlns:xlink="http://www.w3.org/1999/xlink">
    <title>Icons/Maps/pin-drop</title>
    <defs>
        <path d="M12,5.33333329 C12,3.12666664 10.2066667,1.33333329 7.99999997,1.33333329 C5.79333332,1.33333329 3.99999997,3.12666664 3.99999997,5.33333329 C3.99999997,8.33333329 7.99999997,12.6666667 7.99999997,12.6666667 C7.99999997,12.6666667 12,8.33333329 12,5.33333329 Z M6.66666666,5.33333332 C6.66666666,4.59999998 7.26666666,3.99999998 8,3.99999998 C8.73333334,3.99999998 9.33333334,4.59999998 9.33333334,5.33333332 C9.33333334,6.06666665 8.74,6.66666666 8,6.66666666 C7.26666666,6.66666666 6.66666666,6.06666665 6.66666666,5.33333332 Z M3.3333333,13.3333334 L3.3333333,14.6666667 L12.6666667,14.6666667 L12.6666667,13.3333334 L3.3333333,13.3333334 Z" id="path-1"></path>
    </defs>
    <g id="Icons/Maps/pin-drop" stroke="none" stroke-width="1" fill="none" fill-rule="evenodd">
        <mask id="mask-2" fill="white">
            <use xlink:href="#path-1"></use>
        </mask>
        <use id="Icons/Maps/ic_pin_drop_24px" fill="#233745" fill-rule="nonzero" xlink:href="#path-1"></use>
    </g>
</svg>