<?xml version="1.0" encoding="UTF-8"?>
<svg width="16px" height="16px" viewBox="0 0 16 16" version="1.1" xmlns="http://www.w3.org/2000/svg" xmlns:xlink="http://www.w3.org/1999/xlink">
    <title>Icons/Maps/rate-review</title>
    <g id="Icons/Maps/rate-review" stroke="none" stroke-width="1" fill="none" fill-rule="evenodd">
        <rect id="Spacer" fill-opacity="0" fill="#D8D8D8" x="0" y="0" width="16" height="16"></rect>
        <path d="M13.3333333,1.33333329 L2.66666663,1.33333329 C1.9333333,1.33333329 1.33999996,1.9333333 1.33999996,2.66666663 L1.33333329,14.6666667 L3.99999998,12 L13.3333333,12 C14.0666667,12 14.6666667,11.4 14.6666667,10.6666667 L14.6666667,2.66666663 C14.6666667,1.9333333 14.0666667,1.33333329 13.3333333,1.33333329 Z M3.99999998,9.33333334 L3.99999998,7.68666666 L8.58666667,3.09999997 C8.72,2.96666664 8.92666667,2.96666664 9.06000001,3.09999997 L10.24,4.27999998 C10.3733333,4.41333331 10.3733333,4.61999998 10.24,4.75333331 L5.64666665,9.33333334 L3.99999998,9.33333334 Z M12,9.33333334 L6.99999999,9.33333334 L8.33333334,8 L12,8 L12,9.33333334 Z" id="Icons/Maps/ic_rate_review_24px" fill="#233745" fill-rule="nonzero"></path>
    </g>
</svg>