<?xml version="1.0" encoding="UTF-8"?>
<svg width="16px" height="16px" viewBox="0 0 16 16" version="1.1" xmlns="http://www.w3.org/2000/svg" xmlns:xlink="http://www.w3.org/1999/xlink">
    <title>Icons/Maps/restaurant</title>
    <defs>
        <path d="M7.33333333,5.99999999 L5.99999996,5.99999999 L5.99999996,1.33333329 L4.66666665,1.33333329 L4.66666665,5.99999999 L3.3333333,5.99999999 L3.3333333,1.33333329 L1.99999996,1.33333329 L1.99999996,5.99999999 C1.99999996,7.41333333 3.10666664,8.56 4.49999996,8.64666667 L4.49999996,14.6666667 L6.16666666,14.6666667 L6.16666666,8.64666667 C7.56,8.56 8.66666667,7.41333333 8.66666667,5.99999999 L8.66666667,1.33333329 L7.33333333,1.33333329 L7.33333333,5.99999999 Z M10.6666667,3.99999998 L10.6666667,9.33333329 L12.3333334,9.33333329 L12.3333334,14.6666667 L14,14.6666667 L14,1.33333329 C12.16,1.33333329 10.6666667,2.82666663 10.6666667,3.99999998 Z" id="path-1"></path>
    </defs>
    <g id="Icons/Maps/restaurant" stroke="none" stroke-width="1" fill="none" fill-rule="evenodd">
        <mask id="mask-2" fill="white">
            <use xlink:href="#path-1"></use>
        </mask>
        <use id="Icons/Maps/ic_restaurant_24px" fill="#233745" fill-rule="nonzero" xlink:href="#path-1"></use>
    </g>
</svg>