<?xml version="1.0" encoding="UTF-8"?>
<svg width="16px" height="16px" viewBox="0 0 16 16" version="1.1" xmlns="http://www.w3.org/2000/svg" xmlns:xlink="http://www.w3.org/1999/xlink">
    <title>Icons/Maps/satellite</title>
    <g id="Icons/Maps/satellite" stroke="none" stroke-width="1" fill="none" fill-rule="evenodd">
        <rect id="Spacer" fill-opacity="0" fill="#D8D8D8" x="0" y="0" width="16" height="16"></rect>
        <path d="M12.6666667,1.99999996 L3.3333333,1.99999996 C2.59999997,1.99999996 1.99999996,2.59999997 1.99999996,3.3333333 L1.99999996,12.6666667 C1.99999996,13.4 2.59999997,14 3.3333333,14 L12.6666667,14 C13.4,14 14,13.4 14,12.6666667 L14,3.3333333 C14,2.59999997 13.4,1.99999996 12.6666667,1.99999996 Z M3.3333333,3.32666664 L5.3333333,3.32666664 C5.3333333,4.43333331 4.43999998,5.33333332 3.3333333,5.33333332 L3.3333333,3.32666664 Z M3.3333333,8 L3.3333333,6.66666666 C5.17333332,6.66666666 6.66666666,5.16666665 6.66666666,3.32666664 L8,3.32666664 C8,5.90666665 5.91333332,8 3.3333333,8 Z M3.3333333,12 L5.66666665,9 L7.3333333,11.0066667 L9.66666668,8 L12.6666667,12 L3.3333333,12 Z" id="Icons/Maps/ic_satellite_24px" fill="#233745" fill-rule="nonzero"></path>
    </g>
</svg>