<?xml version="1.0" encoding="UTF-8"?>
<svg width="16px" height="16px" viewBox="0 0 16 16" version="1.1" xmlns="http://www.w3.org/2000/svg" xmlns:xlink="http://www.w3.org/1999/xlink">
    <title>Icons/Maps/streetview</title>
    <defs>
        <path d="M12,8.33333334 C12.7,8.33333334 13.3733334,8.46 14,8.68 L14,8.68 L14,12.6666667 C14,13.4 13.4,14 12.6666667,14 L12.6666667,14 L8,14 L8,10.3333333 C8,10.02 8.14666667,9.73333334 8.37333334,9.55333334 C9.38000001,8.80000001 10.6466667,8.33333334 12,8.33333334 Z M8.16,1.99999996 C7.84666667,2.59999997 7.66666666,3.27999997 7.66666666,3.99999996 C7.66666666,5.19999998 8.15333333,6.27999999 8.94000001,7.05999999 L8.94000001,7.05999999 L2.3933333,13.6066667 C2.1533333,13.3666667 1.99999996,13.0333334 1.99999996,12.6666667 L1.99999996,12.6666667 L1.99999996,3.3333333 C1.99999996,2.59999997 2.59999997,1.99999996 3.3333333,1.99999996 L3.3333333,1.99999996 Z M12,0.666666621 C13.8409492,0.666666621 15.3333334,2.1590508 15.3333334,3.99999998 C15.3333334,5.84094915 13.8409492,7.33333333 12,7.33333333 C10.1590508,7.33333333 8.66666667,5.84094915 8.66666667,3.99999998 C8.66666667,2.1590508 10.1590508,0.666666621 12,0.666666621 Z" id="path-1"></path>
    </defs>
    <g id="Icons/Maps/streetview" stroke="none" stroke-width="1" fill="none" fill-rule="evenodd">
        <mask id="mask-2" fill="white">
            <use xlink:href="#path-1"></use>
        </mask>
        <use id="Combined-Shape" fill="#233745" fill-rule="nonzero" xlink:href="#path-1"></use>
    </g>
</svg>