<?xml version="1.0" encoding="UTF-8"?>
<svg width="16px" height="16px" viewBox="0 0 16 16" version="1.1" xmlns="http://www.w3.org/2000/svg" xmlns:xlink="http://www.w3.org/1999/xlink">
    <title>Icons/Maps/subway</title>
    <defs>
        <path d="M8,1.33333329 C9.24000001,1.33333329 10.6666667,1.39333329 11.8666667,1.86666663 C13.6466667,2.55999997 14.6666667,4.03333331 14.6666667,5.90666665 L14.6666667,5.90666665 L14.6666667,14.6666667 L1.33333329,14.6666667 L1.33333329,5.90666665 C1.33333329,4.03333331 2.3533333,2.55999997 4.13333331,1.86666663 C5.33333329,1.39333329 6.75999999,1.33333329 8,1.33333329 Z M7.99999997,3.99999997 C5.99999997,3.99999997 3.99999998,4.24666664 3.99999998,5.99999997 L3.99999998,5.99999997 L3.99999998,10.5866667 C3.99999998,11.5466667 4.78666665,12.3333334 5.74666665,12.3333334 L5.74666665,12.3333334 L4.99999997,13.08 L4.99999997,13.3333334 L6.11333332,13.3333334 L7.11333333,12.3333334 L8.99999997,12.3333334 L9.99999997,13.3333334 L11,13.3333334 L11,13.08 L10.2466667,12.3333334 C11.2133334,12.3333334 12,11.5533334 12,10.5866667 L12,10.5866667 L12,5.99999997 C12,4.25333331 10.2133333,3.99999997 7.99999997,3.99999997 Z M10.3333333,10 C10.7015232,10 11,10.2984768 11,10.6666667 C11,11.0348565 10.7015232,11.3333334 10.3333333,11.3333334 C9.96514351,11.3333334 9.66666668,11.0348565 9.66666668,10.6666667 C9.66666668,10.2984768 9.96514351,10 10.3333333,10 Z M5.66666665,10 C6.03485649,10 6.33333332,10.2984768 6.33333332,10.6666667 C6.33333332,11.0348565 6.03485649,11.3333334 5.66666665,11.3333334 C5.29847682,11.3333334 4.99999998,11.0348565 4.99999998,10.6666667 C4.99999998,10.2984768 5.29847682,10 5.66666665,10 Z M11.34,5.99999999 L11.34,9.33333334 L4.67333331,9.33333334 L4.67333331,5.99999999 L11.34,5.99999999 Z" id="path-1"></path>
    </defs>
    <g id="Icons/Maps/subway" stroke="none" stroke-width="1" fill="none" fill-rule="evenodd">
        <mask id="mask-2" fill="white">
            <use xlink:href="#path-1"></use>
        </mask>
        <use id="Combined-Shape" fill="#233745" fill-rule="nonzero" xlink:href="#path-1"></use>
    </g>
</svg>