<?xml version="1.0" encoding="UTF-8"?>
<svg width="16px" height="16px" viewBox="0 0 16 16" version="1.1" xmlns="http://www.w3.org/2000/svg" xmlns:xlink="http://www.w3.org/1999/xlink">
    <title>Icons/Maps/traffic</title>
    <defs>
        <path d="M13.3333334,6.66666666 L11.3333334,6.66666666 L11.3333334,5.90666665 C12.48,5.60666665 13.3333334,4.57333331 13.3333334,3.3333333 L11.3333334,3.3333333 L11.3333334,2.66666663 C11.3333334,2.29999996 11.0333334,1.99999996 10.6666666,1.99999996 L5.33333332,1.99999996 C4.96666665,1.99999996 4.66666663,2.29999996 4.66666663,2.66666663 L4.66666663,3.3333333 L2.66666663,3.3333333 C2.66666663,4.57333331 3.51999997,5.60666665 4.66666663,5.90666665 L4.66666663,6.66666666 L2.66666663,6.66666666 C2.66666663,7.90666667 3.51999997,8.94000001 4.66666663,9.24000001 L4.66666663,9.99999996 L2.66666663,9.99999996 C2.66666663,11.24 3.51999997,12.2733334 4.66666663,12.5733334 L4.66666663,13.3333334 C4.66666663,13.7 4.96666665,14 5.33333332,14 L10.6666666,14 C11.0333334,14 11.3333334,13.7 11.3333334,13.3333334 L11.3333334,12.5733334 C12.48,12.2733334 13.3333334,11.24 13.3333334,9.99999996 L11.3333334,9.99999996 L11.3333334,9.24000001 C12.48,8.94000001 13.3333334,7.90666667 13.3333334,6.66666666 Z M8,12.6666667 C7.26,12.6666667 6.66666666,12.0666667 6.66666666,11.3333334 C6.66666666,10.6 7.26,10 8,10 C8.73333334,10 9.33333334,10.6 9.33333334,11.3333334 C9.33333334,12.0666667 8.74,12.6666667 8,12.6666667 Z M8,9.33333334 C7.26,9.33333334 6.66666666,8.73333334 6.66666666,8 C6.66666666,7.26666666 7.26,6.66666666 8,6.66666666 C8.73333334,6.66666666 9.33333334,7.26666666 9.33333334,8 C9.33333334,8.73333334 8.74,9.33333334 8,9.33333334 Z M8,5.99999999 C7.26,5.99999999 6.66666666,5.39999998 6.66666666,4.66666665 C6.66666666,3.92666664 7.26,3.3333333 8,3.3333333 C8.73333334,3.3333333 9.33333334,3.92666664 9.33333334,4.66666665 C9.33333334,5.39999998 8.74,5.99999999 8,5.99999999 Z" id="path-1"></path>
    </defs>
    <g id="Icons/Maps/traffic" stroke="none" stroke-width="1" fill="none" fill-rule="evenodd">
        <mask id="mask-2" fill="white">
            <use xlink:href="#path-1"></use>
        </mask>
        <use id="Icons/Maps/ic_traffic_24px" fill="#233745" fill-rule="nonzero" xlink:href="#path-1"></use>
    </g>
</svg>