<?xml version="1.0" encoding="UTF-8"?>
<svg width="16px" height="16px" viewBox="0 0 16 16" version="1.1" xmlns="http://www.w3.org/2000/svg" xmlns:xlink="http://www.w3.org/1999/xlink">
    <title>Icons/Maps/tram</title>
    <g id="Icons/Maps/tram" stroke="none" stroke-width="1" fill="none" fill-rule="evenodd">
        <rect id="Spacer" fill-opacity="0" fill="#D8D8D8" x="0" y="0" width="16" height="16"></rect>
        <path d="M12.6666667,11.2933334 L12.6666667,5.66666665 C12.6666667,3.80666664 10.9266667,3.39999997 8.66,3.33999997 L9.16666667,2.33333329 L11.3333333,2.33333329 L11.3333333,1.33333329 L4.66666665,1.33333329 L4.66666665,2.33333329 L7.8333333,2.33333329 L7.32666666,3.34666664 C5.23999998,3.40666664 3.3333333,3.81999997 3.3333333,5.66666665 L3.3333333,11.2933334 C3.3333333,12.26 4.12666664,13.0666667 5.05999998,13.2733334 L3.99999997,14.3333333 L3.99999997,14.6666667 L5.48666665,14.6666667 L6.81999999,13.3333333 L9.3333333,13.3333333 L10.6666667,14.6666667 L12,14.6666667 L12,14.3333333 L11,13.3333333 L10.9466667,13.3333333 C12.0733334,13.3333333 12.6666667,12.42 12.6666667,11.2933334 Z M7.99999999,12.3333333 C7.44666666,12.3333333 6.99999999,11.8866667 6.99999999,11.3333333 C6.99999999,10.78 7.44666666,10.3333333 7.99999999,10.3333333 C8.55333334,10.3333333 8.99999999,10.78 8.99999999,11.3333333 C8.99999999,11.8866667 8.55333334,12.3333333 7.99999999,12.3333333 Z M11.3333334,9.33333334 L4.66666665,9.33333334 L4.66666665,5.99999999 L11.3333334,5.99999999 L11.3333334,9.33333334 Z" id="Icons/Maps/ic_tram_24px" fill="#233745" fill-rule="nonzero"></path>
    </g>
</svg>