<?xml version="1.0" encoding="UTF-8"?>
<svg width="16px" height="16px" viewBox="0 0 16 16" version="1.1" xmlns="http://www.w3.org/2000/svg" xmlns:xlink="http://www.w3.org/1999/xlink">
    <title>Icons/Maps/zoom-out-map</title>
    <defs>
        <path d="M10,1.99999996 L11.5333334,3.53333331 L9.60666668,5.44666665 L10.5533333,6.39333332 L12.4666667,4.46666664 L14,5.99999996 L14,1.99999996 L10,1.99999996 Z M1.99999996,5.99999996 L3.53333331,4.46666664 L5.44666665,6.39333332 L6.39333332,5.44666665 L4.46666664,3.53333331 L5.99999996,1.99999996 L1.99999996,1.99999996 L1.99999996,5.99999996 Z M5.99999996,14 L4.46666664,12.4666667 L6.39333332,10.5533333 L5.44666665,9.60666668 L3.53333331,11.5333334 L1.99999996,10 L1.99999996,14 L5.99999996,14 Z M14,10 L12.4666667,11.5333334 L10.5533333,9.60666668 L9.60666668,10.5533333 L11.5333334,12.4666667 L10,14 L14,14 L14,10 Z" id="path-1"></path>
    </defs>
    <g id="Icons/Maps/zoom-out-map" stroke="none" stroke-width="1" fill="none" fill-rule="evenodd">
        <mask id="mask-2" fill="white">
            <use xlink:href="#path-1"></use>
        </mask>
        <use id="Icons/Maps/ic_zoom_out_map_24px" fill="#233745" fill-rule="nonzero" xlink:href="#path-1"></use>
    </g>
</svg>