<?xml version="1.0" encoding="UTF-8"?>
<svg version="1.1" viewBox="0 0 12 13" xmlns="http://www.w3.org/2000/svg">
<g fill="none" fill-rule="evenodd">
<g transform="translate(-1357 -1040)" fill="#3A8FDD" fill-rule="nonzero">
<g transform="translate(736 963)">
<g transform="translate(621 77)">
<path d="m9.1408 6.006c-0.064324-0.14741-0.20568-0.24129-0.36133-0.24129h-1.5882v-5.3529c0-0.22729-0.17788-0.41176-0.39706-0.41176h-1.5882c-0.21918 0-0.39706 0.18447-0.39706 0.41176v5.3529h-1.5882c-0.15565 0-0.297 0.094706-0.36133 0.24129-0.065118 0.14741-0.039706 0.31953 0.062736 0.44141l2.7794 3.2941c0.075442 0.089765 0.18424 0.14082 0.29859 0.14082 0.11435 0 0.22315-0.051882 0.29859-0.14082l2.7794-3.2941c0.10324-0.12106 0.12706-0.294 0.062736-0.44141z"/>
<path d="m10.4 8.4706v2.5412h-8.8v-2.5412h-1.6v3.3882c0 0.46842 0.3584 0.84706 0.8 0.84706h10.4c0.4424 0 0.8-0.37864 0.8-0.84706v-3.3882h-1.6z"/>
</g>
</g>
</g>
</g>
</svg>
