<svg xmlns="http://www.w3.org/2000/svg" xmlns:xlink="http://www.w3.org/1999/xlink" viewBox="0 0 726 225"><defs><path d="M8 1.33333329C4.31999998 1.33333329 1.33333329 4.31999998 1.33333329 8c0 3.68 2.98666669 6.6666667 6.66666671 6.6666667 3.68 0 6.6666667-2.9866667 6.6666667-6.6666667C14.6666667 4.31999998 11.68 1.33333329 8 1.33333329zm.66666667 10.00000001H7.33333333V7.33333333h1.33333334v3.99999997zm0-5.33333331H7.33333333V4.66666665h1.33333334v1.33333334z" id="a"/><path d="M3 63.5620249c-1.65685425 0-3-1.3431458-3-3V3c0-1.65685425 1.34314575-3 3-3h166c1.656854 0 3 1.34314575 3 3v57.5620249c0 1.6568542-1.343146 3-3 3H89.9324792c.2761424 0 .5.2238576.5.5 0 .1169682-.0410081.2302347-.1158894.3200922l-3.5483685 4.2580422c-.3535641.4242769-.9841288.481601-1.4084057.1280369a.99999313.99999313 0 01-.1280369-.1280369l-3.5483685-4.2580422c-.1767821-.2121385-.14812-.5274208.0640184-.7042029.0898575-.0748812.203124-.1158893.3200922-.1158893H3z" id="d"/><filter x="-6.4%" y="-13%" width="112.8%" height="131.9%" filterUnits="objectBoundingBox" id="c"><feMorphology radius="1" operator="dilate" in="SourceAlpha" result="shadowSpreadOuter1"/><feOffset dy="2" in="shadowSpreadOuter1" result="shadowOffsetOuter1"/><feGaussianBlur stdDeviation="3" in="shadowOffsetOuter1" result="shadowBlurOuter1"/><feComposite in="shadowBlurOuter1" in2="SourceAlpha" operator="out" result="shadowBlurOuter1"/><feColorMatrix values="0 0 0 0 0 0 0 0 0 0 0 0 0 0 0 0 0 0 0.0790264423 0" in="shadowBlurOuter1"/></filter></defs><g fill="none" fill-rule="evenodd"><g><path stroke="#B8C7D2" fill="#FFF" d="M.5.5h725v192H.5z"/><g transform="translate(355 121)"><mask id="b" fill="#fff"><use xlink:href="#a"/></mask><g mask="url(#b)" fill="#3E5667"><path d="M0 0h16v16H0z"/></g></g><g transform="translate(277 46)"><use fill="#000" filter="url(#c)" xlink:href="#d"/><path stroke="#12202B" d="M90.9324792 64.0620249c0 .2339365-.0820162.4604694-.2317787.6401844l-3.5483686 4.2580422c-.5303461.6364154-1.4761932.7224015-2.1126085.1920553a1.49999535 1.49999535 0 01-.1920553-.1920553l-3.5483686-4.2580422c-.1559122-.1870947-.2319243-.4143036-.2318036-.6401844H3c-1.93299662 0-3.5-1.5670034-3.5-3.5V3C-.5 1.06700338 1.06700338-.5 3-.5h166c1.932997 0 3.5 1.56700338 3.5 3.5v57.5620249c0 1.9329966-1.567003 3.5-3.5 3.5H90.9324792z" fill="#12202B"/></g><text font-family="Lato-Semibold, Lato" font-size="16" font-weight="500" fill="#FFF" transform="translate(277 46)"><tspan x="16" y="26">Tooltip Title</tspan></text><text font-family="Lato-Medium, Lato" font-size="14" font-weight="400" fill="#E2E9EE" transform="translate(277 46)"><tspan x="16" y="47">Tooltip Message...</tspan></text><text font-family="Lato-Semibold, Lato" font-size="15" font-weight="500" fill="#3E5667"><tspan x="247" y="137">Trigger</tspan></text><text font-family="Lato-Semibold, Lato" font-size="15" font-weight="500" fill="#3E5667"><tspan x="136" y="69">Tooltip Item</tspan></text><path fill="#B8C7D2" d="M310 130.5h40v1h-40z"/><g transform="translate(301 122)"><rect fill="#3E5667" width="19.2" height="18.4" rx="9.2"/><text font-family="Lato-Heavy, Lato" font-size="9.6" font-weight="600" fill="#FFF"><tspan x="6.816" y="12.2">1</tspan></text></g><circle fill="#3E5667" cx="350.5" cy="131" r="3"/><path fill="#B8C7D2" d="M236 63.5h40v1h-40z"/><g transform="translate(226 55)"><rect fill="#3E5667" width="19.2" height="18.4" rx="9.2"/><text font-family="Lato-Heavy, Lato" font-size="9.6" font-weight="600" fill="#FFF"><tspan x="6.816" y="12.2">2</tspan></text></g><circle fill="#3E5667" cx="276.5" cy="64" r="3"/><text font-family="Lato-Semibold, Lato" font-size="15" font-weight="500" fill="#3E5667"><tspan x="486" y="72">Tooltip Title</tspan></text><path fill="#B8C7D2" d="M405 66.5h70v1h-70z"/><g transform="translate(465 58)"><rect fill="#3E5667" width="19.2" height="18.4" rx="9.2"/><text font-family="Lato-Heavy, Lato" font-size="9.6" font-weight="600" fill="#FFF"><tspan x="6.816" y="12.2">3</tspan></text></g><circle fill="#3E5667" cx="405.5" cy="67" r="3"/><text font-family="Lato-Semibold, Lato" font-size="15" font-weight="500" fill="#3E5667"><tspan x="501" y="93">Tooltip Message</tspan></text><path fill="#B8C7D2" d="M420 87.5h70v1h-70z"/><g><g transform="translate(480 79)"><rect fill="#3E5667" width="19.2" height="18.4" rx="9.2"/><text font-family="Lato-Heavy, Lato" font-size="9.6" font-weight="600" fill="#FFF"><tspan x="6.816" y="12.2">4</tspan></text></g></g><circle fill="#3E5667" cx="420.5" cy="88" r="3"/></g><text font-family="Lato-Semibold, Lato" font-size="15" font-weight="500" fill="#3E5667"><tspan x="0" y="222">The Tooltip Anatomy.</tspan></text></g></svg>