<svg viewBox="0 0 726 225" xmlns="http://www.w3.org/2000/svg" xmlns:xlink="http://www.w3.org/1999/xlink"><defs><path d="M8 1.333A6.67 6.67 0 0 0 1.333 8 6.67 6.67 0 0 0 8 14.667 6.67 6.67 0 0 0 14.667 8 6.67 6.67 0 0 0 8 1.333zm.667 10H7.333v-4h1.334v4zm0-5.333H7.333V4.667h1.334V6z" id="a"/><path d="M89.932 63.562a.5.5 0 0 1 .385.82l-3.549 4.258a1 1 0 0 1-1.536 0l-3.549-4.258a.5.5 0 0 1 .385-.82H3a3 3 0 0 1-3-3V3a3 3 0 0 1 3-3h166a3 3 0 0 1 3 3v57.562a3 3 0 0 1-3 3H89.932z" id="d"/><filter x="-6.4%" y="-13%" width="112.8%" height="131.9%" filterUnits="objectBoundingBox" id="c"><feMorphology radius="1" operator="dilate" in="SourceAlpha" result="shadowSpreadOuter1"/><feOffset dy="2" in="shadowSpreadOuter1" result="shadowOffsetOuter1"/><feGaussianBlur stdDeviation="3" in="shadowOffsetOuter1" result="shadowBlurOuter1"/><feComposite in="shadowBlurOuter1" in2="SourceAlpha" operator="out" result="shadowBlurOuter1"/><feColorMatrix values="0 0 0 0 0 0 0 0 0 0 0 0 0 0 0 0 0 0 0.0790264423 0" in="shadowBlurOuter1"/></filter></defs><g fill="none" fill-rule="evenodd"><g><path stroke="#B8C7D2" fill="#FFF" d="M.5.5h725v192H.5z"/><g transform="translate(355 121)"><mask id="b" fill="#fff"><use xlink:href="#a"/></mask><g mask="url(#b)" fill="#3E5667"><path d="M0 0h16v16H0z"/></g></g><g transform="translate(277 46)"><use fill="#000" filter="url(#c)" xlink:href="#d"/><path stroke="#12202B" d="M90.932 64.062a1 1 0 0 1-.231.64l-3.549 4.258a1.5 1.5 0 0 1-2.304 0l-3.549-4.258a.996.996 0 0 1-.232-.64H3a3.5 3.5 0 0 1-3.5-3.5V3A3.5 3.5 0 0 1 3-.5h166a3.5 3.5 0 0 1 3.5 3.5v57.562a3.5 3.5 0 0 1-3.5 3.5H90.932z" fill="#12202B"/></g><text font-family="Lato-Semibold, Lato" font-size="16" font-weight="500" fill="#FFF" transform="translate(277 46)"><tspan x="16" y="26">Tooltip Title</tspan></text><text font-family="Lato-Medium, Lato" font-size="14" font-weight="400" fill="#E2E9EE" transform="translate(277 46)"><tspan x="16" y="47">Tooltip Message...</tspan></text><text font-family="Lato-Semibold, Lato" font-size="15" font-weight="500" fill="#3E5667"><tspan x="187" y="137">Information Icon</tspan></text><text font-family="Lato-Semibold, Lato" font-size="15" font-weight="500" fill="#3E5667"><tspan x="136" y="69">Tooltip Item</tspan></text><path fill="#B8C7D2" d="M310 130.5h40v1h-40z"/><g transform="translate(301 122)"><rect fill="#3E5667" width="19.2" height="18.4" rx="9.2"/><text font-family="Lato-Heavy, Lato" font-size="9.6" font-weight="600" fill="#FFF"><tspan x="6.816" y="12.2">1</tspan></text></g><circle fill="#3E5667" cx="350.5" cy="131" r="3"/><path fill="#B8C7D2" d="M236 63.5h40v1h-40z"/><g transform="translate(226 55)"><rect fill="#3E5667" width="19.2" height="18.4" rx="9.2"/><text font-family="Lato-Heavy, Lato" font-size="9.6" font-weight="600" fill="#FFF"><tspan x="6.816" y="12.2">2</tspan></text></g><circle fill="#3E5667" cx="276.5" cy="64" r="3"/><text font-family="Lato-Semibold, Lato" font-size="15" font-weight="500" fill="#3E5667"><tspan x="486" y="72">Tooltip Title</tspan></text><path fill="#B8C7D2" d="M405 66.5h70v1h-70z"/><g transform="translate(465 58)"><rect fill="#3E5667" width="19.2" height="18.4" rx="9.2"/><text font-family="Lato-Heavy, Lato" font-size="9.6" font-weight="600" fill="#FFF"><tspan x="6.816" y="12.2">3</tspan></text></g><circle fill="#3E5667" cx="405.5" cy="67" r="3"/><text font-family="Lato-Semibold, Lato" font-size="15" font-weight="500" fill="#3E5667"><tspan x="501" y="93">Tooltip Message</tspan></text><path fill="#B8C7D2" d="M420 87.5h70v1h-70z"/><g><g transform="translate(480 79)"><rect fill="#3E5667" width="19.2" height="18.4" rx="9.2"/><text font-family="Lato-Heavy, Lato" font-size="9.6" font-weight="600" fill="#FFF"><tspan x="6.816" y="12.2">4</tspan></text></g></g><circle fill="#3E5667" cx="420.5" cy="88" r="3"/></g><text font-family="Lato-Semibold, Lato" font-size="15" font-weight="500" fill="#3E5667"><tspan x="0" y="222">The Tooltip Anatomy.</tspan></text></g></svg>