<svg xmlns="http://www.w3.org/2000/svg" xmlns:xlink="http://www.w3.org/1999/xlink" viewBox="0 0 727 243">
  <defs>
    <path id="a" d="M8 1.33a6.67 6.67 0 1 0 0 13.34A6.67 6.67 0 0 0 8 1.33zm.67 10H7.33v-4h1.34v4zm0-5.33H7.33V4.67h1.34V6z"/>
    <path id="c" d="M8 1.33a6.67 6.67 0 1 0 0 13.34A6.67 6.67 0 0 0 8 1.33zm.67 10H7.33v-4h1.34v4zm0-5.33H7.33V4.67h1.34V6z"/>
    <path id="f" d="M89.93 63.56a.5.5 0 0 1 .39.82l-3.55 4.26a1 1 0 0 1-1.54 0l-3.55-4.26a.5.5 0 0 1 .39-.82H3a3 3 0 0 1-3-3V3a3 3 0 0 1 3-3h166a3 3 0 0 1 3 3v57.56a3 3 0 0 1-3 3H89.93z"/>
    <filter id="e" width="112.8%" height="131.9%" x="-6.4%" y="-13%" filterUnits="objectBoundingBox">
      <feMorphology in="SourceAlpha" operator="dilate" radius="1" result="shadowSpreadOuter1"/>
      <feOffset dy="2" in="shadowSpreadOuter1" result="shadowOffsetOuter1"/>
      <feGaussianBlur in="shadowOffsetOuter1" result="shadowBlurOuter1" stdDeviation="3"/>
      <feComposite in="shadowBlurOuter1" in2="SourceAlpha" operator="out" result="shadowBlurOuter1"/>
      <feColorMatrix in="shadowBlurOuter1" values="0 0 0 0 0 0 0 0 0 0 0 0 0 0 0 0 0 0 0.0790264423 0"/>
    </filter>
  </defs>
  <g fill="none" fill-rule="evenodd">
    <path fill="#FFF" stroke="#B8C7D2" d="M1.5.5h725v210H1.5z"/>
    <text fill="#3E5667" font-family="Lato-Semibold, Lato" font-size="15" font-weight="500">
      <tspan x=".5" y="240">The Tooltip States.</tspan>
    </text>
    <text fill="#3E5667" font-family="Lato-Semibold, Lato" font-size="15" font-weight="500">
      <tspan x="218" y="164">Default</tspan>
    </text>
    <text fill="#3E5667" font-family="Lato-Semibold, Lato" font-size="15" font-weight="500">
      <tspan x="376" y="164">Hovered/Pressed</tspan>
    </text>
    <g transform="translate(236 117)">
      <mask id="b" fill="#fff">
        <use xlink:href="#a"/>
      </mask>
      <g fill="#3E5667" mask="url(#b)">
        <path d="M0 0h16v16H0z"/>
      </g>
    </g>
    <g transform="translate(426 117)">
      <mask id="b" fill="#fff">
        <use xlink:href="#a"/>
      </mask>
      <g fill="#3E5667" mask="url(#b)">
        <path d="M0 0h16v16H0z"/>
      </g>
    </g>
    <g>
      <g transform="translate(348 42)">
        <use fill="#000" filter="url(#e)" xlink:href="#f"/>
        <path fill="#12202B" stroke="#12202B" d="M90.93 64.06a1 1 0 0 1-.23.64l-3.55 4.26a1.5 1.5 0 0 1-2.3 0L81.3 64.7a1 1 0 0 1-.23-.64H3a3.5 3.5 0 0 1-3.5-3.5V3A3.5 3.5 0 0 1 3-.5h166a3.5 3.5 0 0 1 3.5 3.5v57.56a3.5 3.5 0 0 1-3.5 3.5H90.93z"/>
      </g>
      <text fill="#FFF" font-family="Lato-Semibold, Lato" font-size="16" font-weight="500" transform="translate(348 42)">
        <tspan x="16" y="26">Tooltip Title</tspan>
      </text>
      <text fill="#E2E9EE" font-family="Lato-Medium, Lato" font-size="14" font-weight="400" transform="translate(348 42)">
        <tspan x="16" y="47">Tooltip Message...</tspan>
      </text>
    </g>
  </g>
</svg>