<svg viewBox="0 0 727 243" xmlns="http://www.w3.org/2000/svg" xmlns:xlink="http://www.w3.org/1999/xlink"><defs><path d="M76.513 38.466l-3.256 4.151a1 1 0 0 1-1.574 0l-3.256-4.151H3a3 3 0 0 1-3-3V3a3 3 0 0 1 3-3h139a3 3 0 0 1 3 3v32.466a3 3 0 0 1-3 3H76.513z" id="b"/><filter x="-7.6%" y="-20.9%" width="115.2%" height="151.2%" filterUnits="objectBoundingBox" id="a"><feMorphology radius="1" operator="dilate" in="SourceAlpha" result="shadowSpreadOuter1"/><feOffset dy="2" in="shadowSpreadOuter1" result="shadowOffsetOuter1"/><feGaussianBlur stdDeviation="3" in="shadowOffsetOuter1" result="shadowBlurOuter1"/><feComposite in="shadowBlurOuter1" in2="SourceAlpha" operator="out" result="shadowBlurOuter1"/><feColorMatrix values="0 0 0 0 0 0 0 0 0 0 0 0 0 0 0 0 0 0 0.0790264423 0" in="shadowBlurOuter1"/></filter><path d="M89.932 63.562a.5.5 0 0 1 .385.82l-3.549 4.258a1 1 0 0 1-1.536 0l-3.549-4.258a.5.5 0 0 1 .385-.82H3a3 3 0 0 1-3-3V3a3 3 0 0 1 3-3h166a3 3 0 0 1 3 3v57.562a3 3 0 0 1-3 3H89.932z" id="d"/><filter x="-6.4%" y="-13%" width="112.8%" height="131.9%" filterUnits="objectBoundingBox" id="c"><feMorphology radius="1" operator="dilate" in="SourceAlpha" result="shadowSpreadOuter1"/><feOffset dy="2" in="shadowSpreadOuter1" result="shadowOffsetOuter1"/><feGaussianBlur stdDeviation="3" in="shadowOffsetOuter1" result="shadowBlurOuter1"/><feComposite in="shadowBlurOuter1" in2="SourceAlpha" operator="out" result="shadowBlurOuter1"/><feColorMatrix values="0 0 0 0 0 0 0 0 0 0 0 0 0 0 0 0 0 0 0.0790264423 0" in="shadowBlurOuter1"/></filter></defs><g fill="none" fill-rule="evenodd"><path stroke="#B8C7D2" fill="#FFF" d="M1 .5h725v210H1z"/><g transform="translate(193 79)"><use fill="#000" filter="url(#a)" xlink:href="#b"/><path stroke="#12202B" d="M76.756 38.966l-3.106 3.96a1.5 1.5 0 0 1-2.36 0l-3.106-3.96H3a3.5 3.5 0 0 1-3.5-3.5V3A3.5 3.5 0 0 1 3-.5h139a3.5 3.5 0 0 1 3.5 3.5v32.466a3.5 3.5 0 0 1-3.5 3.5H76.756z" fill="#12202B"/></g><text font-family="Lato-Medium, Lato" font-size="14" font-weight="400" fill="#E2E9EE" transform="translate(193 79)"><tspan x="16" y="24">Tooltip Message...</tspan></text><g transform="translate(368 66)"><use fill="#000" filter="url(#c)" xlink:href="#d"/><path stroke="#12202B" d="M90.932 64.062a1 1 0 0 1-.231.64l-3.549 4.258a1.5 1.5 0 0 1-2.304 0l-3.549-4.258a.996.996 0 0 1-.232-.64H3a3.5 3.5 0 0 1-3.5-3.5V3A3.5 3.5 0 0 1 3-.5h166a3.5 3.5 0 0 1 3.5 3.5v57.562a3.5 3.5 0 0 1-3.5 3.5H90.932z" fill="#12202B"/></g><text font-family="Lato-Semibold, Lato" font-size="16" font-weight="500" fill="#FFF" transform="translate(368 66)"><tspan x="16" y="26">Tooltip Title</tspan></text><text font-family="Lato-Medium, Lato" font-size="14" font-weight="400" fill="#E2E9EE" transform="translate(368 66)"><tspan x="16" y="47">Tooltip Message...</tspan></text><text font-family="Lato-Semibold, Lato" font-size="15" font-weight="500" fill="#3E5667" transform="translate(-201 -1002)"><tspan x="201" y="1242">The Tooltip Variations.</tspan></text></g></svg>