<svg xmlns="http://www.w3.org/2000/svg" xmlns:xlink="http://www.w3.org/1999/xlink" width="16" height="16" viewBox="0 0 16 16">
  <defs>
    <path id="airplay-a" d="M3.99999997,14.6666667 L12,14.6666667 L7.99999997,10.6666667 L3.99999997,14.6666667 Z M14,1.99999996 L1.99999996,1.99999996 C1.26666662,1.99999996 0.666666621,2.59999997 0.666666621,3.3333333 L0.666666621,11.3333334 C0.666666621,12.0666667 1.26666662,12.6666667 1.99999996,12.6666667 L4.66666662,12.6666667 L4.66666662,11.3333334 L1.99999996,11.3333334 L1.99999996,3.3333333 L14,3.3333333 L14,11.3333334 L11.3333334,11.3333334 L11.3333334,12.6666667 L14,12.6666667 C14.7333334,12.6666667 15.3333334,12.0666667 15.3333334,11.3333334 L15.3333334,3.3333333 C15.3333334,2.59999997 14.7333334,1.99999996 14,1.99999996 Z"/>
  </defs>
  <g fill="none" fill-rule="evenodd">
    <mask id="airplay-b" fill="#fff">
      <use xlink:href="#airplay-a"/>
    </mask>
    <g fill="CurrentColor" mask="url(#airplay-b)">
      <rect width="16" height="16"/>
    </g>
  </g>
</svg>
