<?xml version="1.0" encoding="UTF-8"?>
<svg width="16px" height="16px" viewBox="0 0 16 16" version="1.1" xmlns="http://www.w3.org/2000/svg" xmlns:xlink="http://www.w3.org/1999/xlink">
    <title>Icons/AV/av-timer</title>
    <g id="Icons/AV/av-timer" stroke="none" stroke-width="1" fill="none" fill-rule="evenodd">
        <rect id="Spacer" fill-opacity="0" fill="#D8D8D8" x="0" y="0" width="16" height="16"></rect>
        <path d="M7.33333333,11.3333334 C7.33333333,11.7 7.63333333,12 8,12 C8.36666667,12 8.66666667,11.7 8.66666667,11.3333334 C8.66666667,10.9666667 8.36666667,10.6666667 8,10.6666667 C7.63333333,10.6666667 7.33333333,10.9666667 7.33333333,11.3333334 Z M7.33333333,1.99999996 L7.33333333,4.66666665 L8.66666667,4.66666665 L8.66666667,3.38666664 C10.9266667,3.71333331 12.6666667,5.64666665 12.6666667,7.99999996 C12.6666667,10.58 10.58,12.6666667 7.99999996,12.6666667 C5.41999998,12.6666667 3.3333333,10.58 3.3333333,7.99999996 C3.3333333,6.87999999 3.72666664,5.85333332 4.38666664,5.05333331 L7.99999996,8.66666667 L8.94000001,7.72666666 L4.40666664,3.1933333 L4.40666664,3.20666664 C2.94666664,4.29999998 1.99999996,6.03333332 1.99999996,7.99999996 C1.99999996,11.3133334 4.67999998,14 7.99999996,14 C11.3133334,14 14,11.3133334 14,7.99999996 C14,4.68666665 11.3133334,1.99999996 7.99999996,1.99999996 L7.33333333,1.99999996 Z M12,8 C12,7.63333333 11.7,7.33333333 11.3333334,7.33333333 C10.9666667,7.33333333 10.6666667,7.63333333 10.6666667,8 C10.6666667,8.36666667 10.9666667,8.66666667 11.3333334,8.66666667 C11.7,8.66666667 12,8.36666667 12,8 Z M3.99999997,8 C3.99999997,8.36666667 4.29999998,8.66666667 4.66666665,8.66666667 C5.03333331,8.66666667 5.33333332,8.36666667 5.33333332,8 C5.33333332,7.63333333 5.03333331,7.33333333 4.66666665,7.33333333 C4.29999998,7.33333333 3.99999997,7.63333333 3.99999997,8 Z" id="Icons/AV/ic_av_timer_24px" fill="#233745" fill-rule="nonzero"></path>
    </g>
</svg>