<svg xmlns="http://www.w3.org/2000/svg" xmlns:xlink="http://www.w3.org/1999/xlink" width="16" height="16" viewBox="0 0 16 16">
  <defs>
    <path id="closed-caption-a" d="M12.6666667,2.66666663 L3.3333333,2.66666663 C2.5933333,2.66666663 1.99999996,3.26666664 1.99999996,3.99999997 L1.99999996,12 C1.99999996,12.7333334 2.5933333,13.3333334 3.3333333,13.3333334 L12.6666667,13.3333334 C13.4,13.3333334 14,12.7333334 14,12 L14,3.99999997 C14,3.26666664 13.4,2.66666663 12.6666667,2.66666663 Z M7.33333333,7.33333333 L6.33333332,7.33333333 L6.33333332,6.99999999 L4.99999997,6.99999999 L4.99999997,8.99999999 L6.33333332,8.99999999 L6.33333332,8.66666667 L7.33333333,8.66666667 L7.33333333,9.33333334 C7.33333333,9.70000001 7.03333333,9.99999999 6.66666666,9.99999999 L4.66666665,9.99999999 C4.29999998,9.99999999 3.99999997,9.70000001 3.99999997,9.33333334 L3.99999997,6.66666666 C3.99999997,6.29999999 4.29999998,5.99999999 4.66666665,5.99999999 L6.66666666,5.99999999 C7.03333333,5.99999999 7.33333333,6.29999999 7.33333333,6.66666666 L7.33333333,7.33333333 Z M12,7.33333333 L11,7.33333333 L11,6.99999999 L9.66666667,6.99999999 L9.66666667,8.99999999 L11,8.99999999 L11,8.66666667 L12,8.66666667 L12,9.33333334 C12,9.70000001 11.7,9.99999999 11.3333334,9.99999999 L9.33333334,9.99999999 C8.96666667,9.99999999 8.66666667,9.70000001 8.66666667,9.33333334 L8.66666667,6.66666666 C8.66666667,6.29999999 8.96666667,5.99999999 9.33333334,5.99999999 L11.3333334,5.99999999 C11.7,5.99999999 12,6.29999999 12,6.66666666 L12,7.33333333 Z"/>
  </defs>
  <g fill="none" fill-rule="evenodd">
    <mask id="closed-caption-b" fill="#fff">
      <use xlink:href="#closed-caption-a"/>
    </mask>
    <g fill="CurrentColor" mask="url(#closed-caption-b)">
      <rect width="16" height="16"/>
    </g>
  </g>
</svg>
