<?xml version="1.0" encoding="UTF-8"?>
<svg width="16px" height="16px" viewBox="0 0 16 16" version="1.1" xmlns="http://www.w3.org/2000/svg" xmlns:xlink="http://www.w3.org/1999/xlink">
    <title>Icons/AV/fiber-pin</title>
    <defs>
        <path d="M3.66666664,6.99999999 L4.99999998,6.99999999 L4.99999998,7.66666666 L3.66666664,7.66666666 L3.66666664,6.99999999 Z M13.3333333,2.66666663 L2.66666663,2.66666663 C1.92666663,2.66666663 1.33999996,3.25999997 1.33999996,3.99999997 L1.33333329,12 C1.33333329,12.74 1.92666663,13.3333334 2.66666663,13.3333334 L13.3333333,13.3333334 C14.0733334,13.3333334 14.6666667,12.74 14.6666667,12 L14.6666667,3.99999997 C14.6666667,3.25999997 14.0733334,2.66666663 13.3333333,2.66666663 Z M5.99999999,7.66666666 C5.99999999,8.23333333 5.56666665,8.66666667 4.99999998,8.66666667 L3.66666663,8.66666667 L3.66666663,9.99999999 L2.66666663,9.99999999 L2.66666663,5.99999999 L4.99999998,5.99999999 C5.56666665,5.99999999 5.99999999,6.43333332 5.99999999,6.99999999 L5.99999999,7.66666666 Z M8.33333333,9.99999999 L7.33333333,9.99999999 L7.33333333,5.99999999 L8.33333333,5.99999999 L8.33333333,9.99999999 Z M13.3333334,9.99999999 L12.5333334,9.99999999 L10.8333334,7.66666666 L10.8333334,9.99999999 L10,9.99999999 L10,5.99999999 L10.8333334,5.99999999 L12.5,8.33333334 L12.5,5.99999999 L13.3333334,5.99999999 L13.3333334,9.99999999 Z" id="path-1"></path>
    </defs>
    <g id="Icons/AV/fiber-pin" stroke="none" stroke-width="1" fill="none" fill-rule="evenodd">
        <mask id="mask-2" fill="white">
            <use xlink:href="#path-1"></use>
        </mask>
        <use id="Icons/AV/ic_fiber_pin_24px" fill="#233745" fill-rule="nonzero" xlink:href="#path-1"></use>
    </g>
</svg>