<?xml version="1.0" encoding="UTF-8"?>
<svg width="16px" height="16px" viewBox="0 0 16 16" version="1.1" xmlns="http://www.w3.org/2000/svg" xmlns:xlink="http://www.w3.org/1999/xlink">
    <title>Icons/AV/fiber-new</title>
    <defs>
        <path d="M13.3333333,2.66666663 L2.66666663,2.66666663 C1.92666663,2.66666663 1.33999996,3.25999997 1.33999996,3.99999997 L1.33333329,12 C1.33333329,12.74 1.92666663,13.3333334 2.66666663,13.3333334 L13.3333333,13.3333334 C14.0733334,13.3333334 14.6666667,12.74 14.6666667,12 L14.6666667,3.99999997 C14.6666667,3.25999997 14.0733334,2.66666663 13.3333333,2.66666663 Z M5.66666665,9.99999999 L4.86666665,9.99999999 L3.16666664,7.66666666 L3.16666664,9.99999999 L2.3333333,9.99999999 L2.3333333,5.99999999 L3.16666664,5.99999999 L4.8333333,8.33333334 L4.8333333,5.99999999 L5.66666665,5.99999999 L5.66666665,9.99999999 Z M9.00000001,6.83999999 L7.33333332,6.83999999 L7.33333332,7.58666666 L9.00000001,7.58666666 L9.00000001,8.42666667 L7.33333332,8.42666667 L7.33333332,9.16666667 L9.00000001,9.16666667 L9.00000001,9.99999999 L6.33333332,9.99999999 L6.33333332,5.99999999 L9.00000001,5.99999999 L9.00000001,6.83999999 Z M13.6666667,9.33333334 C13.6666667,9.70000001 13.3666667,9.99999999 13,9.99999999 L10.3333333,9.99999999 C9.96666668,9.99999999 9.66666668,9.70000001 9.66666668,9.33333334 L9.66666668,5.99999999 L10.5,5.99999999 L10.5,9.00666667 L11.2533334,9.00666667 L11.2533334,6.65999999 L12.0866667,6.65999999 L12.0866667,8.99999999 L12.8333334,8.99999999 L12.8333334,5.99999999 L13.6666667,5.99999999 L13.6666667,9.33333334 Z" id="path-1"></path>
    </defs>
    <g id="Icons/AV/fiber-new" stroke="none" stroke-width="1" fill="none" fill-rule="evenodd">
        <mask id="mask-2" fill="white">
            <use xlink:href="#path-1"></use>
        </mask>
        <use id="Icons/AV/ic_fiber_new_24px" fill="#233745" fill-rule="nonzero" xlink:href="#path-1"></use>
    </g>
</svg>