<?xml version="1.0" encoding="UTF-8"?>
<svg width="16px" height="16px" viewBox="0 0 16 16" version="1.1" xmlns="http://www.w3.org/2000/svg" xmlns:xlink="http://www.w3.org/1999/xlink">
    <title>Icons/AV/fiber-dvr</title>
    <g id="Icons/AV/fiber-dvr" stroke="none" stroke-width="1" fill="none" fill-rule="evenodd">
        <rect id="Spacer" fill-opacity="0" fill="#D8D8D8" x="0" y="0" width="16" height="16"></rect>
        <path d="M11.6666667,6.99999999 L13,6.99999999 L13,7.66666666 L11.6666667,7.66666666 L11.6666667,6.99999999 Z M2.99999997,6.99999999 L4.33333331,6.99999999 L4.33333331,8.99999999 L2.99999997,8.99999999 L2.99999997,6.99999999 Z M14,1.99999996 L1.99999996,1.99999996 C1.25999996,1.99999996 0.666666621,2.5933333 0.666666621,3.3333333 L0.666666621,12.6666667 C0.666666621,13.4 1.25999996,14 1.99999996,14 L14,14 C14.74,14 15.3333334,13.4 15.3333334,12.6666667 L15.3333334,3.3333333 C15.3333334,2.5933333 14.74,1.99999996 14,1.99999996 Z M5.33333332,8.99999999 C5.33333332,9.56666668 4.89999998,9.99999999 4.33333331,9.99999999 L1.99999996,9.99999999 L1.99999996,5.99999999 L4.33333331,5.99999999 C4.89999998,5.99999999 5.33333332,6.43333332 5.33333332,6.99999999 L5.33333332,8.99999999 Z M8.41333334,9.99999999 L7.41333333,9.99999999 L6.24666666,5.99999999 L7.24666666,5.99999999 L7.91333333,8.28666667 L8.58,5.99999999 L9.58000001,5.99999999 L8.41333334,9.99999999 L8.41333334,9.99999999 Z M14,7.66666666 C14,8.06666667 13.7333334,8.43333334 13.4,8.6 L14,9.99999999 L13,9.99999999 L12.4333334,8.66666667 L11.6666667,8.66666667 L11.6666667,9.99999999 L10.6666667,9.99999999 L10.6666667,5.99999999 L13,5.99999999 C13.5666667,5.99999999 14,6.43333332 14,6.99999999 L14,7.66666666 Z" id="Icons/AV/ic_fiber_dvr_24px" fill="#233745" fill-rule="nonzero"></path>
    </g>
</svg>