<svg xmlns="http://www.w3.org/2000/svg" xmlns:xlink="http://www.w3.org/1999/xlink" width="16" height="16" viewBox="0 0 16 16">
  <defs>
    <path id="forward-10-a" d="M2.66666663,8.66666662 C2.66666663,11.6 5.06666665,14 8,14 C10.9333334,14 13.3333334,11.6 13.3333334,8.66666662 L12,8.66666662 C12,10.8666667 10.2,12.6666666 8,12.6666666 C5.79999999,12.6666666 3.99999997,10.8666667 3.99999997,8.66666662 C3.99999997,6.46666666 5.79999999,4.66666662 8,4.66666662 L8,7.33333333 L11.3333334,3.99999997 L8,0.666666621 L8,3.3333333 C5.06666665,3.3333333 2.66666663,5.73333332 2.66666663,8.66666662 Z M7.2,10.6666667 L6.66666666,10.6666667 L6.66666666,8.46666667 L5.99999999,8.66666667 L5.99999999,8.2 L7.2,7.8 L7.26666666,7.8 L7.26666666,10.6666667 L7.2,10.6666667 Z M10.0666667,9.46666668 C10.0666667,9.66666668 10.0666667,9.86666668 10,10 L9.80000001,10.4 C9.80000001,10.4 9.60000001,10.6 9.46666668,10.6 C9.33333334,10.6 9.20000001,10.6666667 9.06666667,10.6666667 C8.93333334,10.6666667 8.80000001,10.6666667 8.66666667,10.6 C8.53333334,10.5333333 8.46666667,10.4666667 8.33333334,10.4 C8.2,10.3333333 8.2,10.2 8.13333333,10 C8.06666667,9.8 8.06666667,9.66666668 8.06666667,9.46666668 L8.06666667,9.00000001 C8.06666667,8.8 8.06666667,8.6 8.13333333,8.46666667 L8.33333334,8.06666667 C8.33333334,8.06666667 8.53333334,7.86666667 8.66666667,7.86666667 C8.80000001,7.86666667 8.93333334,7.8 9.06666667,7.8 C9.20000001,7.8 9.33333334,7.8 9.46666668,7.86666667 C9.60000001,7.93333333 9.66666668,8 9.80000001,8.06666667 C9.93333335,8.13333333 9.93333335,8.26666667 10,8.46666667 C10.0666667,8.66666667 10.0666667,8.8 10.0666667,9.00000001 L10.0666667,9.46666668 Z M9.53333334,8.93333334 L9.53333334,8.6 C9.53333334,8.6 9.46666668,8.46666667 9.46666668,8.4 C9.46666668,8.33333334 9.40000001,8.33333334 9.33333334,8.26666667 C9.26666667,8.2 9.20000001,8.2 9.13333334,8.2 C9.06666667,8.2 9.00000001,8.2 8.93333334,8.26666667 L8.80000001,8.4 C8.80000001,8.4 8.73333334,8.53333334 8.73333334,8.6 L8.73333334,9.93333335 C8.73333334,9.93333335 8.80000001,10.0666667 8.80000001,10.1333333 C8.80000001,10.2 8.86666667,10.2 8.93333334,10.2666667 C9.00000001,10.3333333 9.06666667,10.3333333 9.13333334,10.3333333 C9.20000001,10.3333333 9.26666667,10.3333333 9.33333334,10.2666667 L9.46666668,10.1333333 C9.46666668,10.1333333 9.53333334,10 9.53333334,9.93333335 L9.53333334,8.93333334 Z"/>
  </defs>
  <g fill="none" fill-rule="evenodd">
    <mask id="forward-10-b" fill="#fff">
      <use xlink:href="#forward-10-a"/>
    </mask>
    <g fill="CurrentColor" mask="url(#forward-10-b)">
      <rect width="16" height="16"/>
    </g>
  </g>
</svg>
