<?xml version="1.0" encoding="UTF-8"?>
<svg width="16px" height="16px" viewBox="0 0 16 16" version="1.1" xmlns="http://www.w3.org/2000/svg" xmlns:xlink="http://www.w3.org/1999/xlink">
    <title>Icons/AV/hearing</title>
    <defs>
        <path d="M11.3333334,13.3333333 C11.14,13.3333333 10.96,13.2933334 10.8266667,13.2333334 C10.3533333,12.9866667 10.02,12.6466667 9.68666668,11.6466667 C9.34666668,10.6066667 8.70666667,10.12 8.09333333,9.64666668 C7.56666666,9.24000001 7.01999999,8.82000001 6.54666666,7.96 C6.19333332,7.32 5.99999999,6.61999999 5.99999999,5.99999999 C5.99999999,4.13333331 7.46666666,2.66666663 9.33333334,2.66666663 C11.2,2.66666663 12.6666666,4.13333331 12.6666666,5.99999999 L14,5.99999999 C14,3.37999997 11.9533334,1.33333329 9.33333334,1.33333329 C6.71333333,1.33333329 4.66666665,3.37999997 4.66666665,5.99999999 C4.66666665,6.83999999 4.91999998,7.76666667 5.37999998,8.6 C5.98666665,9.70000001 6.69999999,10.2533333 7.28,10.7 C7.82,11.1133334 8.20666667,11.4133334 8.42,12.0666667 C8.82000001,13.28 9.33333334,13.96 10.24,14.4333334 C10.58,14.5866667 10.9533334,14.6666667 11.3333334,14.6666667 C12.8066667,14.6666667 14,13.4733334 14,12 L12.6666666,12 C12.6666666,12.7333334 12.0666667,13.3333333 11.3333334,13.3333333 L11.3333334,13.3333333 Z M5.09333332,1.75999996 L4.14666664,0.813333288 C2.81999997,2.13999996 1.99999996,3.97333331 1.99999996,5.99999999 C1.99999996,8.02666667 2.81999997,9.86000001 4.14666664,11.1866667 L5.08666665,10.2466667 C4.00666664,9.16000001 3.3333333,7.66 3.3333333,5.99999999 C3.3333333,4.33999998 4.00666664,2.83999997 5.09333332,1.75999996 L5.09333332,1.75999996 Z M7.66666666,5.99999999 C7.66666666,6.91999999 8.41333334,7.66666666 9.33333334,7.66666666 C10.2533333,7.66666666 11,6.91999999 11,5.99999999 C11,5.07999998 10.2533333,4.33333331 9.33333334,4.33333331 C8.41333334,4.33333331 7.66666666,5.07999998 7.66666666,5.99999999 Z" id="path-1"></path>
    </defs>
    <g id="Icons/AV/hearing" stroke="none" stroke-width="1" fill="none" fill-rule="evenodd">
        <mask id="mask-2" fill="white">
            <use xlink:href="#path-1"></use>
        </mask>
        <use id="Icons/AV/ic_hearing_24px" fill="#233745" fill-rule="nonzero" xlink:href="#path-1"></use>
    </g>
</svg>