<?xml version="1.0" encoding="UTF-8"?>
<svg width="16px" height="16px" viewBox="0 0 16 16" version="1.1" xmlns="http://www.w3.org/2000/svg" xmlns:xlink="http://www.w3.org/1999/xlink">
    <title>Icons/AV/library-music</title>
    <defs>
        <path d="M13.3333334,1.33333329 L5.33333332,1.33333329 C4.59999998,1.33333329 3.99999998,1.9333333 3.99999998,2.66666663 L3.99999998,10.6666667 C3.99999998,11.4 4.59999998,12 5.33333332,12 L13.3333334,12 C14.0666667,12 14.6666667,11.4 14.6666667,10.6666667 L14.6666667,2.66666663 C14.6666667,1.9333333 14.0666667,1.33333329 13.3333334,1.33333329 Z M12,4.66666665 L10,4.66666665 L10,8.3333333 C10,9.25333334 9.25333334,10 8.33333334,10 C7.41333333,10 6.66666666,9.25333334 6.66666666,8.3333333 C6.66666666,7.41333333 7.41333333,6.66666666 8.33333334,6.66666666 C8.71333334,6.66666666 9.05333334,6.79333333 9.33333334,7.00666666 L9.33333334,3.3333333 L12,3.3333333 L12,4.66666665 Z M2.66666663,3.99999998 L1.33333329,3.99999998 L1.33333329,13.3333334 C1.33333329,14.0666667 1.9333333,14.6666667 2.66666663,14.6666667 L12,14.6666667 L12,13.3333334 L2.66666663,13.3333334 L2.66666663,3.99999998 Z" id="path-1"></path>
    </defs>
    <g id="Icons/AV/library-music" stroke="none" stroke-width="1" fill="none" fill-rule="evenodd">
        <mask id="mask-2" fill="white">
            <use xlink:href="#path-1"></use>
        </mask>
        <use id="Icons/AV/ic_library_music_24px" fill="#233745" fill-rule="nonzero" xlink:href="#path-1"></use>
    </g>
</svg>