<?xml version="1.0" encoding="UTF-8"?>
<svg width="16px" height="16px" viewBox="0 0 16 16" version="1.1" xmlns="http://www.w3.org/2000/svg" xmlns:xlink="http://www.w3.org/1999/xlink">
    <title>Icons/AV/loop</title>
    <g id="Icons/AV/loop" stroke="none" stroke-width="1" fill="none" fill-rule="evenodd">
        <rect id="Spacer" fill-opacity="0" fill="#D8D8D8" x="0" y="0" width="16" height="16"></rect>
        <path d="M8,2.66666662 L8,0.666666621 L5.33333332,3.3333333 L8,5.99999999 L8,3.99999997 C10.2066667,3.99999997 12,5.79333332 12,8 C12,8.67333334 11.8333333,9.31333334 11.5333334,9.86666668 L12.5066667,10.84 C13.0266667,10.02 13.3333333,9.04666667 13.3333333,8 C13.3333333,5.05333331 10.9466667,2.66666662 8,2.66666662 Z M8,12 C5.79333332,12 3.99999997,10.2066667 3.99999997,8 C3.99999997,7.32666666 4.16666663,6.68666666 4.46666664,6.13333332 L3.49333331,5.15999998 C2.9733333,5.97999999 2.66666663,6.95333333 2.66666663,8 C2.66666663,10.9466667 5.05333331,13.3333334 8,13.3333334 L8,15.3333334 L10.6666666,12.6666667 L8,10 L8,12 Z" id="Icons/AV/ic_loop_24px" fill="#233745" fill-rule="nonzero"></path>
    </g>
</svg>