<?xml version="1.0" encoding="UTF-8"?>
<svg width="16px" height="16px" viewBox="0 0 16 16" version="1.1" xmlns="http://www.w3.org/2000/svg" xmlns:xlink="http://www.w3.org/1999/xlink">
    <title>Icons/AV/mnone</title>
    <g id="Icons/AV/mnone" stroke="none" stroke-width="1" fill="none" fill-rule="evenodd">
        <rect id="Spacer" fill-opacity="0" fill="#D8D8D8" x="0" y="0" width="16" height="16"></rect>
        <path d="M7.99999999,9.33333329 C9.10666667,9.33333329 9.99333335,8.44 9.99333335,7.33333329 L9.99999999,3.33333329 C9.99999999,2.22666663 9.10666667,1.33333329 7.99999999,1.33333329 C6.89333333,1.33333329 5.99999999,2.22666663 5.99999999,3.33333329 L5.99999999,7.33333329 C5.99999999,8.44 6.89333333,9.33333329 7.99999999,9.33333329 Z M7.2,3.26666664 C7.2,2.82666663 7.56,2.46666663 8,2.46666663 C8.44,2.46666663 8.8,2.82666663 8.8,3.26666664 L8.79333334,7.4 C8.79333334,7.84 8.44,8.2 8,8.2 C7.56,8.2 7.2,7.84 7.2,7.4 L7.2,3.26666664 Z M11.5333334,7.33333333 C11.5333334,9.33333333 9.84000001,10.7333334 8,10.7333334 C6.15999999,10.7333334 4.46666664,9.33333333 4.46666664,7.33333333 L3.3333333,7.33333333 C3.3333333,9.60666668 5.14666665,11.4866667 7.3333333,11.8133334 L7.3333333,14 L8.66666667,14 L8.66666667,11.8133334 C10.8533334,11.4933334 12.6666667,9.61333334 12.6666667,7.33333333 L11.5333334,7.33333333 Z" id="Icons/AV/ic_mic_none_24px" fill="#233745" fill-rule="nonzero"></path>
    </g>
</svg>