<?xml version="1.0" encoding="UTF-8"?>
<svg width="16px" height="16px" viewBox="0 0 16 16" version="1.1" xmlns="http://www.w3.org/2000/svg" xmlns:xlink="http://www.w3.org/1999/xlink">
    <title>Icons/AV/moff</title>
    <defs>
        <path d="M12.6666667,7.33333333 L11.5333334,7.33333333 C11.5333334,7.82666667 11.4266667,8.28666667 11.2466667,8.7 L12.0666667,9.52000001 C12.44,8.86666667 12.6666667,8.12666667 12.6666667,7.33333333 L12.6666667,7.33333333 Z M9.98666668,7.44666666 C9.98666668,7.40666666 9.99999999,7.37333333 9.99999999,7.33333329 L9.99999999,3.33333329 C9.99999999,2.22666663 9.10666667,1.33333329 7.99999999,1.33333329 C6.89333333,1.33333329 5.99999999,2.22666663 5.99999999,3.33333329 L5.99999999,3.4533333 L9.98666668,7.44666666 Z M2.84666663,1.99999996 L1.99999996,2.84666663 L6.00666665,6.85333333 L6.00666665,7.33333333 C6.00666665,8.44 6.89333333,9.33333334 7.99999996,9.33333334 C8.14666667,9.33333334 8.29333334,9.31333334 8.43333334,9.28000001 L9.54000001,10.3866667 C9.06666667,10.6066667 8.54,10.7333334 7.99999996,10.7333334 C6.15999999,10.7333334 4.46666664,9.33333334 4.46666664,7.33333333 L3.3333333,7.33333333 C3.3333333,9.60666668 5.14666665,11.4866667 7.33333333,11.8133334 L7.33333333,14 L8.66666667,14 L8.66666667,11.8133334 C9.27333334,11.7266667 9.84666668,11.5133334 10.36,11.2133334 L13.1533334,14 L14,13.1533334 L2.84666663,1.99999996 Z" id="path-1"></path>
    </defs>
    <g id="Icons/AV/moff" stroke="none" stroke-width="1" fill="none" fill-rule="evenodd">
        <mask id="mask-2" fill="white">
            <use xlink:href="#path-1"></use>
        </mask>
        <use id="Icons/AV/ic_mic_off_24px" fill="#233745" fill-rule="nonzero" xlink:href="#path-1"></use>
    </g>
</svg>