<?xml version="1.0" encoding="UTF-8"?>
<svg width="16px" height="16px" viewBox="0 0 16 16" version="1.1" xmlns="http://www.w3.org/2000/svg" xmlns:xlink="http://www.w3.org/1999/xlink">
    <title>Icons/AV/musvideo</title>
    <defs>
        <path d="M14,1.99999996 L1.99999996,1.99999996 C1.26666662,1.99999996 0.666666621,2.59999997 0.666666621,3.3333333 L0.666666621,12.6666667 C0.666666621,13.4 1.26666662,14 1.99999996,14 L14,14 C14.7333334,14 15.3333334,13.4 15.3333334,12.6666667 L15.3333334,3.3333333 C15.3333334,2.59999997 14.7333334,1.99999996 14,1.99999996 Z M14,12.6666667 L1.99999996,12.6666667 L1.99999996,3.3333333 L14,3.3333333 L14,12.6666667 Z M5.33333332,9.99999997 C5.33333332,8.89333334 6.22666666,7.99999997 7.33333332,7.99999997 C7.56666666,7.99999997 7.79333333,8.04666667 8,8.12 L8,3.99999997 L11.3333333,3.99999997 L11.3333333,5.33333332 L9.33333332,5.33333332 L9.33333332,10.02 C9.32000001,11.1133334 8.43333334,12 7.33333332,12 C6.22666666,12 5.33333332,11.1066667 5.33333332,9.99999997 Z" id="path-1"></path>
    </defs>
    <g id="Icons/AV/musvideo" stroke="none" stroke-width="1" fill="none" fill-rule="evenodd">
        <mask id="mask-2" fill="white">
            <use xlink:href="#path-1"></use>
        </mask>
        <use id="Icons/AV/ic_music_video_24px" fill="#233745" fill-rule="nonzero" xlink:href="#path-1"></use>
    </g>
</svg>