<svg xmlns="http://www.w3.org/2000/svg" xmlns:xlink="http://www.w3.org/1999/xlink" width="16" height="16" viewBox="0 0 16 16">
  <defs>
    <path id="new-releases-a" d="M15.3333334,8 L13.7066667,6.14666666 L13.9333334,3.69333331 L11.5266667,3.14666664 L10.2666667,1.02666662 L8,1.99999996 L5.73333332,1.02666662 L4.47333331,3.14666664 L2.06666663,3.68666664 L2.2933333,6.13999999 L0.666666621,8 L2.2933333,9.85333334 L2.06666663,12.3133334 L4.47333331,12.86 L5.73333332,14.98 L8,14 L10.2666667,14.9733334 L11.5266667,12.8533334 L13.9333334,12.3066667 L13.7066667,9.85333334 L15.3333334,8 Z M8.66666667,11.3333334 L7.33333333,11.3333334 L7.33333333,10 L8.66666667,10 L8.66666667,11.3333334 Z M8.66666667,8.66666665 L7.33333333,8.66666665 L7.33333333,4.66666665 L8.66666667,4.66666665 L8.66666667,8.66666665 Z"/>
  </defs>
  <g fill="none" fill-rule="evenodd">
    <mask id="new-releases-b" fill="#fff">
      <use xlink:href="#new-releases-a"/>
    </mask>
    <g fill="CurrentColor" mask="url(#new-releases-b)">
      <rect width="16" height="16"/>
    </g>
  </g>
</svg>
