<?xml version="1.0" encoding="UTF-8"?>
<svg width="16px" height="16px" viewBox="0 0 16 16" version="1.1" xmlns="http://www.w3.org/2000/svg" xmlns:xlink="http://www.w3.org/1999/xlink">
    <title>Icons/AV/play-circle-outline</title>
    <defs>
        <path d="M6.66666666,11 L10.6666667,7.99999998 L6.66666666,4.99999998 L6.66666666,11 Z M8,1.33333329 C4.31999998,1.33333329 1.33333329,4.31999998 1.33333329,8 C1.33333329,11.68 4.31999998,14.6666667 8,14.6666667 C11.68,14.6666667 14.6666667,11.68 14.6666667,8 C14.6666667,4.31999998 11.68,1.33333329 8,1.33333329 Z M8,13.3333334 C5.05999998,13.3333334 2.66666663,10.94 2.66666663,8 C2.66666663,5.05999998 5.05999998,2.66666663 8,2.66666663 C10.94,2.66666663 13.3333334,5.05999998 13.3333334,8 C13.3333334,10.94 10.94,13.3333334 8,13.3333334 Z" id="path-1"></path>
    </defs>
    <g id="Icons/AV/play-circle-outline" stroke="none" stroke-width="1" fill="none" fill-rule="evenodd">
        <mask id="mask-2" fill="white">
            <use xlink:href="#path-1"></use>
        </mask>
        <use id="Icons/AV/ic_play_circle_outline_24px" fill="#233745" fill-rule="nonzero" xlink:href="#path-1"></use>
    </g>
</svg>