<?xml version="1.0" encoding="UTF-8"?>
<svg width="16px" height="16px" viewBox="0 0 16 16" version="1.1" xmlns="http://www.w3.org/2000/svg" xmlns:xlink="http://www.w3.org/1999/xlink">
    <title>Icons/AV/queue-play-next</title>
    <g id="Icons/AV/queue-play-next" stroke="none" stroke-width="1" fill="none" fill-rule="evenodd">
        <rect id="Spacer" fill-opacity="0" fill="#D8D8D8" x="0" y="0" width="16" height="16"></rect>
        <path d="M14,1.99999996 L1.99999996,1.99999996 C1.25999996,1.99999996 0.666666621,2.5933333 0.666666621,3.3333333 L0.666666621,11.3333334 C0.666666621,12.0666667 1.25999996,12.6666667 1.99999996,12.6666667 L5.33333332,12.6666667 L5.33333332,14 L10.6666666,14 L10.6666666,12.6666667 L12,12.6666667 L12,11.3333334 L1.99999996,11.3333334 L1.99999996,3.3333333 L14,3.3333333 L14,8.66666667 L15.3333334,8.66666667 L15.3333334,3.3333333 C15.3333334,2.5933333 14.7333334,1.99999996 14,1.99999996 Z M8.66666667,6.66666665 L8.66666667,4.66666665 L7.33333332,4.66666665 L7.33333332,6.66666665 L5.33333332,6.66666665 L5.33333332,8 L7.33333332,8 L7.33333332,10 L8.66666667,10 L8.66666667,8 L10.6666667,8 L10.6666667,6.66666665 L8.66666667,6.66666665 Z M16,12 L13,15 L12,14 L14,12 L12,10 L13,9.00000001 L16,12 Z" id="Icons/AV/ic_queue_play_next_24px" fill="#233745" fill-rule="nonzero"></path>
    </g>
</svg>