<svg xmlns="http://www.w3.org/2000/svg" xmlns:xlink="http://www.w3.org/1999/xlink" width="16" height="16" viewBox="0 0 16 16">
  <defs>
    <path id="queue-music-a" d="M9.99999996,3.99999997 L1.99999996,3.99999997 L1.99999996,5.33333332 L9.99999996,5.33333332 L9.99999996,3.99999997 Z M9.99999996,6.66666666 L1.99999996,6.66666666 L1.99999996,8 L9.99999996,8 L9.99999996,6.66666666 Z M1.99999996,10.6666667 L7.33333333,10.6666667 L7.33333333,9.33333334 L1.99999996,9.33333334 L1.99999996,10.6666667 Z M11.3333334,3.99999997 L11.3333334,9.45333334 C11.1266667,9.38000001 10.9,9.33333334 10.6666667,9.33333334 C9.56000001,9.33333334 8.66666667,10.2266667 8.66666667,11.3333334 C8.66666667,12.44 9.56000001,13.3333334 10.6666667,13.3333334 C11.7733334,13.3333334 12.6666667,12.44 12.6666667,11.3333334 L12.6666667,5.33333332 L14.6666667,5.33333332 L14.6666667,3.99999997 L11.3333334,3.99999997 Z"/>
  </defs>
  <g fill="none" fill-rule="evenodd">
    <mask id="queue-music-b" fill="#fff">
      <use xlink:href="#queue-music-a"/>
    </mask>
    <g fill="CurrentColor" mask="url(#queue-music-b)">
      <rect width="16" height="16"/>
    </g>
  </g>
</svg>
