<?xml version="1.0" encoding="UTF-8"?>
<svg width="16px" height="16px" viewBox="0 0 16 16" version="1.1" xmlns="http://www.w3.org/2000/svg" xmlns:xlink="http://www.w3.org/1999/xlink">
    <title>Icons/AV/radio</title>
    <defs>
        <path d="M2.15999996,4.09999998 C1.67333329,4.28666664 1.33333329,4.77999998 1.33333329,5.33333332 L1.33333329,13.3333334 C1.33333329,14.0666667 1.92666663,14.6666666 2.66666663,14.6666666 L13.3333333,14.6666666 C14.0733334,14.6666666 14.6666667,14.0666667 14.6666667,13.3333334 L14.6666667,5.33333332 C14.6666667,4.59333331 14.0733334,3.99999997 13.3333333,3.99999997 L5.53333332,3.99999997 L11.04,1.77333329 L10.5866667,0.666666621 L2.15999996,4.09999998 Z M4.66666663,13.3333333 C3.55999997,13.3333333 2.66666663,12.44 2.66666663,11.3333333 C2.66666663,10.2266667 3.55999997,9.33333334 4.66666663,9.33333334 C5.77333332,9.33333334 6.66666663,10.2266667 6.66666663,11.3333333 C6.66666663,12.44 5.77333332,13.3333333 4.66666663,13.3333333 Z M13.3333334,8 L12,8 L12,6.66666666 L10.6666666,6.66666666 L10.6666666,8 L2.66666663,8 L2.66666663,5.33333332 L13.3333334,5.33333332 L13.3333334,8 Z" id="path-1"></path>
    </defs>
    <g id="Icons/AV/radio" stroke="none" stroke-width="1" fill="none" fill-rule="evenodd">
        <mask id="mask-2" fill="white">
            <use xlink:href="#path-1"></use>
        </mask>
        <use id="Icons/AV/ic_radio_24px" fill="#233745" fill-rule="nonzero" xlink:href="#path-1"></use>
    </g>
</svg>