<?xml version="1.0" encoding="UTF-8"?>
<svg width="16px" height="16px" viewBox="0 0 16 16" version="1.1" xmlns="http://www.w3.org/2000/svg" xmlns:xlink="http://www.w3.org/1999/xlink">
    <title>Icons/AV/recent-actors</title>
    <defs>
        <path d="M14,3.3333333 L14,12.6666667 L15.3333334,12.6666667 L15.3333334,3.3333333 L14,3.3333333 Z M11.3333334,12.6666667 L12.6666667,12.6666667 L12.6666667,3.3333333 L11.3333334,3.3333333 L11.3333334,12.6666667 Z M9.33333334,3.3333333 L1.33333329,3.3333333 C0.966666623,3.3333333 0.666666621,3.63333331 0.666666621,3.99999997 L0.666666621,12 C0.666666621,12.3666667 0.966666623,12.6666667 1.33333329,12.6666667 L9.33333334,12.6666667 C9.70000001,12.6666667 10,12.3666667 10,12 L10,3.99999997 C10,3.63333331 9.70000001,3.3333333 9.33333334,3.3333333 Z M5.33333331,5.16666665 C6.15999999,5.16666665 6.83333331,5.83999999 6.83333331,6.66666665 C6.83333331,7.49333333 6.15999999,8.16666665 5.33333331,8.16666665 C4.50666664,8.16666665 3.83333331,7.49333333 3.83333331,6.66666665 C3.83333331,5.83999999 4.50666664,5.16666665 5.33333331,5.16666665 Z M8.3333333,11.3333333 L2.3333333,11.3333333 L2.3333333,10.8333333 C2.3333333,9.83333334 4.3333333,9.33333334 5.3333333,9.33333334 C6.3333333,9.33333334 8.3333333,9.83333334 8.3333333,10.8333333 L8.3333333,11.3333333 Z" id="path-1"></path>
    </defs>
    <g id="Icons/AV/recent-actors" stroke="none" stroke-width="1" fill="none" fill-rule="evenodd">
        <mask id="mask-2" fill="white">
            <use xlink:href="#path-1"></use>
        </mask>
        <use id="Icons/AV/ic_recent_actors_24px" fill="#233745" fill-rule="nonzero" xlink:href="#path-1"></use>
    </g>
</svg>