<?xml version="1.0" encoding="UTF-8"?>
<svg width="16px" height="16px" viewBox="0 0 16 16" version="1.1" xmlns="http://www.w3.org/2000/svg" xmlns:xlink="http://www.w3.org/1999/xlink">
    <title>Icons/AV/repeat-one</title>
    <g id="Icons/AV/repeat-one" stroke="none" stroke-width="1" fill="none" fill-rule="evenodd">
        <rect id="Spacer" fill-opacity="0" fill="#D8D8D8" x="0" y="0" width="16" height="16"></rect>
        <path d="M4.66666665,4.66666665 L11.3333333,4.66666665 L11.3333333,6.66666666 L14,3.99999998 L11.3333333,1.33333329 L11.3333333,3.33333329 L3.3333333,3.33333329 L3.3333333,7.33333329 L4.66666665,7.33333329 L4.66666665,4.66666665 Z M11.3333334,11.3333334 L4.66666665,11.3333334 L4.66666665,9.33333334 L1.99999996,12 L4.66666665,14.6666667 L4.66666665,12.6666667 L12.6666667,12.6666667 L12.6666667,8.66666667 L11.3333334,8.66666667 L11.3333334,11.3333334 Z M8.66666666,9.99999999 L8.66666666,5.99999999 L8,5.99999999 L6.66666666,6.66666666 L6.66666666,7.33333333 L7.66666666,7.33333333 L7.66666666,9.99999999 L8.66666666,9.99999999 Z" id="Icons/AV/ic_repeat_one_24px" fill="#233745" fill-rule="nonzero"></path>
    </g>
</svg>