<?xml version="1.0" encoding="UTF-8"?>
<svg width="16px" height="16px" viewBox="0 0 16 16" version="1.1" xmlns="http://www.w3.org/2000/svg" xmlns:xlink="http://www.w3.org/1999/xlink">
    <title>Icons/AV/replay-30</title>
    <g id="Icons/AV/replay-30" stroke="none" stroke-width="1" fill="none" fill-rule="evenodd">
        <rect id="Spacer" fill-opacity="0" fill="#D8D8D8" x="0" y="0" width="16" height="16"></rect>
        <path d="M8,3.3333333 L8,0.666666621 L4.66666663,3.99999998 L8,7.33333333 L8,4.66666662 C10.2,4.66666662 12,6.46666666 12,8.66666662 C12,10.8666667 10.2,12.6666666 8,12.6666666 C5.79999999,12.6666666 3.99999997,10.8666667 3.99999997,8.66666662 L2.66666663,8.66666662 C2.66666663,11.6 5.06666665,14 8,14 C10.9333334,14 13.3333334,11.6 13.3333334,8.66666662 C13.3333334,5.73333332 10.9333334,3.3333333 8,3.3333333 Z M6.39999999,9.00000001 L6.66666666,9.00000001 C6.79999999,9.00000001 6.93333333,8.93333334 6.99999999,8.86666667 C7.06666666,8.8 7.13333333,8.73333334 7.13333333,8.6 L7.13333333,8.46666667 C7.13333333,8.46666667 7.06666666,8.4 7.06666666,8.33333334 C7.06666666,8.26666667 6.99999999,8.26666667 6.93333333,8.26666667 L6.59999999,8.26666667 C6.59999999,8.26666667 6.53333332,8.33333334 6.46666666,8.33333334 C6.39999999,8.33333334 6.39999999,8.4 6.39999999,8.46666667 L6.39999999,8.6 L5.73333332,8.6 C5.73333332,8.46666667 5.73333332,8.4 5.79999999,8.26666667 C5.86666665,8.13333333 5.93333332,8.06666667 5.99999999,8 C6.06666665,7.93333333 6.19999999,7.86666667 6.26666666,7.86666667 C6.33333332,7.86666667 6.53333332,7.8 6.59999999,7.8 C6.73333332,7.8 6.86666666,7.8 6.99999999,7.86666667 C7.13333333,7.93333333 7.2,7.93333333 7.33333333,8 C7.46666666,8.06666667 7.46666666,8.13333333 7.53333333,8.26666667 C7.6,8.4 7.6,8.46666667 7.6,8.6 L7.6,8.8 C7.6,8.8 7.53333333,8.93333334 7.53333333,9.00000001 C7.53333333,9.06666667 7.46666666,9.13333334 7.4,9.13333334 C7.33333333,9.13333334 7.26666666,9.20000001 7.2,9.26666667 C7.33333333,9.33333334 7.46666666,9.40000001 7.53333333,9.53333334 C7.6,9.66666668 7.66666666,9.8 7.66666666,9.93333335 C7.66666666,10.0666667 7.66666666,10.2 7.6,10.2666667 C7.53333333,10.3333333 7.46666666,10.4666667 7.4,10.5333333 C7.33333333,10.6 7.2,10.6666667 7.06666666,10.6666667 C6.93333333,10.6666667 6.79999999,10.7333334 6.66666666,10.7333334 C6.53333332,10.7333334 6.39999999,10.7333334 6.33333332,10.6666667 C6.26666666,10.6 6.13333332,10.6 5.99999999,10.5333333 C5.86666665,10.4666667 5.86666665,10.4 5.79999999,10.2666667 C5.73333332,10.1333333 5.73333332,10 5.73333332,9.86666668 L6.26666666,9.86666668 L6.26666666,10 C6.26666666,10 6.33333332,10.0666667 6.33333332,10.1333333 C6.33333332,10.2 6.39999999,10.2 6.46666666,10.2 L6.79999999,10.2 C6.79999999,10.2 6.86666666,10.1333333 6.93333333,10.1333333 C6.99999999,10.1333333 6.99999999,10.0666667 6.99999999,10 L6.99999999,9.66666668 C6.99999999,9.66666668 6.93333333,9.60000001 6.93333333,9.53333334 C6.93333333,9.46666668 6.86666666,9.46666668 6.79999999,9.46666668 L6.39999999,9.46666668 L6.39999999,9.00000001 L6.39999999,9.00000001 Z M10.2,9.46666668 C10.2,9.66666668 10.2,9.86666668 10.1333333,10 L9.93333335,10.4 C9.93333335,10.4 9.73333334,10.6 9.60000001,10.6 C9.46666668,10.6 9.33333334,10.6666667 9.2,10.6666667 C9.06666667,10.6666667 8.93333334,10.6666667 8.80000001,10.6 C8.66666667,10.5333333 8.6,10.4666667 8.46666667,10.4 C8.33333334,10.3333333 8.33333334,10.2 8.26666667,10 C8.2,9.8 8.2,9.66666668 8.2,9.46666668 L8.2,9.00000001 C8.2,8.8 8.2,8.6 8.26666667,8.46666667 L8.46666667,8.06666667 C8.46666667,8.06666667 8.66666667,7.86666667 8.80000001,7.86666667 C8.93333334,7.86666667 9.06666667,7.8 9.2,7.8 C9.33333334,7.8 9.46666668,7.8 9.60000001,7.86666667 C9.73333334,7.93333333 9.80000001,8 9.93333335,8.06666667 C10.0666667,8.13333333 10.0666667,8.26666667 10.1333333,8.46666667 C10.2,8.66666667 10.2,8.8 10.2,9.00000001 L10.2,9.46666668 Z M9.66666668,8.93333334 L9.66666668,8.6 C9.66666668,8.53333334 9.60000001,8.46666667 9.60000001,8.4 C9.60000001,8.33333334 9.53333334,8.33333334 9.46666668,8.26666667 C9.40000001,8.2 9.33333334,8.2 9.26666667,8.2 C9.20000001,8.2 9.13333334,8.2 9.06666667,8.26666667 L8.93333334,8.4 C8.93333334,8.4 8.86666667,8.53333334 8.86666667,8.6 L8.86666667,9.93333335 C8.86666667,9.93333335 8.93333334,10.0666667 8.93333334,10.1333333 C8.93333334,10.2 9.00000001,10.2 9.06666667,10.2666667 C9.13333334,10.3333333 9.20000001,10.3333333 9.26666667,10.3333333 C9.33333334,10.3333333 9.40000001,10.3333333 9.46666668,10.2666667 L9.60000001,10.1333333 C9.60000001,10.1333333 9.66666668,10 9.66666668,9.93333335 L9.66666668,8.93333334 Z" id="Icons/AV/ic_replay_30_24px" fill="#233745" fill-rule="nonzero"></path>
    </g>
</svg>