<?xml version="1.0" encoding="UTF-8"?>
<svg width="16px" height="16px" viewBox="0 0 16 16" version="1.1" xmlns="http://www.w3.org/2000/svg" xmlns:xlink="http://www.w3.org/1999/xlink">
    <title>Icons/AV/replay-5</title>
    <defs>
        <path d="M8,3.3333333 L8,0.666666621 L4.66666663,3.99999998 L8,7.33333333 L8,4.66666662 C10.2,4.66666662 12,6.46666666 12,8.66666662 C12,10.8666667 10.2,12.6666666 8,12.6666666 C5.79999999,12.6666666 3.99999997,10.8666667 3.99999997,8.66666662 L2.66666663,8.66666662 C2.66666663,11.6 5.06666665,14 8,14 C10.9333334,14 13.3333334,11.6 13.3333334,8.66666662 C13.3333334,5.73333332 10.9333334,3.3333333 8,3.3333333 Z M7.13333333,9.26666667 L7.26666666,7.8 L8.86666667,7.8 L8.86666667,8.26666667 L7.73333333,8.26666667 L7.66666666,8.86666667 C7.66666666,8.86666667 7.73333333,8.86666667 7.73333333,8.8 C7.73333333,8.73333334 7.8,8.8 7.8,8.73333334 C7.8,8.66666667 7.86666667,8.73333334 7.93333333,8.73333334 L8.06666666,8.73333334 C8.2,8.73333334 8.33333334,8.73333334 8.4,8.8 C8.46666667,8.86666667 8.6,8.93333334 8.66666667,9.00000001 C8.73333334,9.06666667 8.8,9.20000001 8.86666667,9.33333334 C8.93333334,9.46666668 8.93333334,9.60000001 8.93333334,9.73333334 C8.93333334,9.86666668 8.93333334,10 8.86666667,10.0666667 C8.8,10.1333333 8.8,10.2666667 8.66666667,10.4 C8.53333334,10.5333333 8.46666667,10.5333333 8.4,10.6 C8.33333334,10.6666667 8.13333333,10.6666667 8,10.6666667 C7.86666667,10.6666667 7.73333333,10.6666667 7.66666666,10.6 C7.6,10.5333333 7.46666666,10.5333333 7.33333333,10.4666667 C7.19999999,10.4 7.19999999,10.3333333 7.13333333,10.2 C7.06666666,10.0666667 7.06666666,10 7.06666666,9.86666668 L7.6,9.86666668 C7.6,10 7.66666666,10.0666667 7.73333333,10.1333333 C7.8,10.2 7.86666667,10.2 8,10.2 C8.06666666,10.2 8.13333333,10.2 8.2,10.1333333 L8.33333334,10 C8.33333334,10 8.4,9.86666668 8.4,9.8 L8.4,9.40000001 L8.33333334,9.26666667 L8.2,9.13333334 C8.2,9.13333334 8.06666666,9.06666667 8,9.06666667 L7.86666667,9.06666667 C7.86666667,9.06666667 7.8,9.06666667 7.73333333,9.13333334 C7.66666666,9.20000001 7.66666666,9.13333334 7.66666666,9.20000001 C7.66666666,9.26666667 7.6,9.26666667 7.6,9.26666667 L7.13333333,9.26666667 L7.13333333,9.26666667 Z" id="path-1"></path>
    </defs>
    <g id="Icons/AV/replay-5" stroke="none" stroke-width="1" fill="none" fill-rule="evenodd">
        <mask id="mask-2" fill="white">
            <use xlink:href="#path-1"></use>
        </mask>
        <use id="Icons/AV/ic_replay_5_24px" fill="#233745" fill-rule="nonzero" xlink:href="#path-1"></use>
    </g>
</svg>