<?xml version="1.0" encoding="UTF-8"?>
<svg width="16px" height="16px" viewBox="0 0 16 16" version="1.1" xmlns="http://www.w3.org/2000/svg" xmlns:xlink="http://www.w3.org/1999/xlink">
    <title>Icons/AV/replay-10</title>
    <defs>
        <path d="M8,3.3333333 L8,0.666666621 L4.66666663,3.99999998 L8,7.33333333 L8,4.66666662 C10.2,4.66666662 12,6.46666666 12,8.66666662 C12,10.8666667 10.2,12.6666666 8,12.6666666 C5.79999999,12.6666666 3.99999997,10.8666667 3.99999997,8.66666662 L2.66666663,8.66666662 C2.66666663,11.6 5.06666665,14 8,14 C10.9333334,14 13.3333334,11.6 13.3333334,8.66666662 C13.3333334,5.73333332 10.9333334,3.3333333 8,3.3333333 Z M7.26666666,10.6666667 L6.66666666,10.6666667 L6.66666666,8.46666667 L5.99999999,8.66666667 L5.99999999,8.2 L7.2,7.8 L7.26666666,7.8 L7.26666666,10.6666667 Z M10.1333333,9.46666668 C10.1333333,9.66666668 10.1333333,9.86666668 10.0666667,10 L9.86666668,10.4 C9.86666668,10.4 9.66666668,10.6 9.53333334,10.6 C9.40000001,10.6 9.26666667,10.6666667 9.13333333,10.6666667 C9.00000001,10.6666667 8.86666667,10.6666667 8.73333334,10.6 C8.6,10.5333333 8.53333334,10.4666667 8.4,10.4 C8.26666667,10.3333333 8.26666667,10.2 8.2,10 C8.13333333,9.8 8.13333333,9.66666668 8.13333333,9.46666668 L8.13333333,9.00000001 C8.13333333,8.8 8.13333333,8.6 8.2,8.46666667 L8.4,8.06666667 C8.4,8.06666667 8.6,7.86666667 8.73333334,7.86666667 C8.86666667,7.86666667 9.00000001,7.8 9.13333333,7.8 C9.26666667,7.8 9.40000001,7.8 9.53333334,7.86666667 C9.66666668,7.93333333 9.73333334,8 9.86666668,8.06666667 C10,8.13333333 10,8.26666667 10.0666667,8.46666667 C10.1333333,8.66666667 10.1333333,8.8 10.1333333,9.00000001 L10.1333333,9.46666668 Z M9.53333334,8.93333334 L9.53333334,8.6 C9.53333334,8.6 9.46666668,8.46666667 9.46666668,8.4 C9.46666668,8.33333334 9.40000001,8.33333334 9.33333334,8.26666667 C9.26666667,8.2 9.20000001,8.2 9.13333334,8.2 C9.06666667,8.2 9.00000001,8.2 8.93333334,8.26666667 L8.8,8.4 C8.8,8.4 8.73333334,8.53333334 8.73333334,8.6 L8.73333334,9.93333335 C8.73333334,9.93333335 8.8,10.0666667 8.8,10.1333333 C8.8,10.2 8.86666667,10.2 8.93333334,10.2666667 C9.00000001,10.3333333 9.06666667,10.3333333 9.13333334,10.3333333 C9.20000001,10.3333333 9.26666667,10.3333333 9.33333334,10.2666667 L9.46666668,10.1333333 C9.46666668,10.1333333 9.53333334,10 9.53333334,9.93333335 L9.53333334,8.93333334 Z" id="path-1"></path>
    </defs>
    <g id="Icons/AV/replay-10" stroke="none" stroke-width="1" fill="none" fill-rule="evenodd">
        <mask id="mask-2" fill="white">
            <use xlink:href="#path-1"></use>
        </mask>
        <use id="Icons/AV/ic_replay_10_24px" fill="#233745" fill-rule="nonzero" xlink:href="#path-1"></use>
    </g>
</svg>