<svg xmlns="http://www.w3.org/2000/svg" xmlns:xlink="http://www.w3.org/1999/xlink" width="16" height="16" viewBox="0 0 16 16">
  <defs>
    <path id="sort-by-alpha-a" d="M9.96000001,3.10666664 L6.81333333,3.10666664 L8.38666667,1.53333329 L9.96000001,3.10666664 Z M6.83333333,12.9133334 L9.94000001,12.9133334 L8.38666667,14.4666667 L6.83333333,12.9133334 Z M4.06666662,4.17999998 L1.06666662,11.82 L2.2933333,11.82 L2.90666663,10.1866667 L6.31333332,10.1866667 L6.92666666,11.82 L8.15333333,11.82 L5.15999998,4.17999998 L4.06666662,4.17999998 Z M3.3133333,9.09333334 L4.60666665,5.63999999 L5.89999999,9.09333334 L3.3133333,9.09333334 Z M10.4866667,10.76 L14.5666667,10.76 L14.5666667,11.82 L8.88000001,11.82 L8.88000001,10.96 L12.8266667,5.25333332 L8.90666667,5.25333332 L8.90666667,4.18666664 L14.44,4.18666664 L14.44,5.02666665 L10.4866667,10.76 L10.4866667,10.76 Z"/>
  </defs>
  <g fill="none" fill-rule="evenodd">
    <mask id="sort-by-alpha-b" fill="#fff">
      <use xlink:href="#sort-by-alpha-a"/>
    </mask>
    <g fill="CurrentColor" mask="url(#sort-by-alpha-b)">
      <rect width="16" height="16"/>
    </g>
  </g>
</svg>
