<?xml version="1.0" encoding="UTF-8"?>
<svg width="16px" height="16px" viewBox="0 0 16 16" version="1.1" xmlns="http://www.w3.org/2000/svg" xmlns:xlink="http://www.w3.org/1999/xlink">
    <title>Icons/AV/speed</title>
    <g id="Icons/AV/speed" stroke="none" stroke-width="1" fill="none" fill-rule="evenodd">
        <rect id="Spacer" fill-opacity="0" fill="#D8D8D8" x="0" y="0" width="16" height="16"></rect>
        <path d="M13.4456425,5.62323989 L12.6448494,6.89812756 C13.4293011,8.55420185 13.3754922,10.5165929 12.5016181,12.1217214 L3.47804671,12.1217214 C2.32991555,10.0134644 2.62346632,7.35778593 4.20037411,5.58701079 C5.77728191,3.81623565 8.26451401,3.34925775 10.3205961,4.43793893 L11.5250411,3.59031091 C9.001441,1.87743857 5.69903984,2.21002554 3.52589426,4.39591022 C1.35274867,6.58179489 0.870688772,10.0558537 2.35823843,12.8108498 C2.58942975,13.2347252 3.01565566,13.4970241 3.47804671,13.4999892 L12.4951076,13.4999892 C12.9621519,13.5019409 13.3944165,13.2389836 13.6279369,12.8108498 C14.8510304,10.5681984 14.7831281,7.78908338 13.452153,5.61634861 L13.4456425,5.62323989 Z M7.07185003,10.3368786 C7.31608315,10.5956836 7.64749757,10.741103 7.99308765,10.741103 C8.33867774,10.741103 8.67009215,10.5956836 8.91432528,10.3368786 L12.5992758,4.48617792 L7.07185003,8.38664506 C6.82734504,8.64516231 6.68996069,8.9959597 6.68996069,9.36176184 C6.68996069,9.72756398 6.82734504,10.0783614 7.07185003,10.3368786 L7.07185003,10.3368786 Z" id="Shape" fill="#233745" fill-rule="nonzero"></path>
    </g>
</svg>