<?xml version="1.0" encoding="UTF-8"?>
<svg width="16px" height="16px" viewBox="0 0 16 16" version="1.1" xmlns="http://www.w3.org/2000/svg" xmlns:xlink="http://www.w3.org/1999/xlink">
    <title>Icons/AV/surround-sound</title>
    <defs>
        <path d="M13.3333333,2.66666663 L2.66666663,2.66666663 C1.9333333,2.66666663 1.33333329,3.26666664 1.33333329,3.99999997 L1.33333329,12 C1.33333329,12.7333334 1.9333333,13.3333334 2.66666663,13.3333334 L13.3333333,13.3333334 C14.0666667,13.3333334 14.6666667,12.7333334 14.6666667,12 L14.6666667,3.99999997 C14.6666667,3.26666664 14.0666667,2.66666663 13.3333333,2.66666663 Z M5.17333332,10.8266667 L4.23333331,11.7666667 C3.18666664,10.7333334 2.66666663,9.36666668 2.66666663,8 C2.66666663,6.63333332 3.18666664,5.26666665 4.22666664,4.22666664 L5.16666663,5.16666665 C4.39333331,5.95333332 3.99999998,6.97333333 3.99999998,8 C3.99999998,9.02666667 4.39333331,10.0466667 5.17333332,10.8266667 L5.17333332,10.8266667 Z M8,10.6666667 C6.52666666,10.6666667 5.33333332,9.47333334 5.33333332,8 C5.33333332,6.52666666 6.52666666,5.33333332 8,5.33333332 C9.47333334,5.33333332 10.6666667,6.52666666 10.6666667,8 C10.6666667,9.47333334 9.47333334,10.6666667 8,10.6666667 Z M11.7733334,11.7733334 L10.8333334,10.8333334 C11.6066667,10.0466667 12,9.02666667 12,8 C12,6.97333333 11.6066667,5.95333332 10.8266667,5.17333332 L11.7666667,4.23333331 C12.8133334,5.26666665 13.3333334,6.63333332 13.3333334,8 C13.3333334,9.36666668 12.8133334,10.7333333 11.7733334,11.7733334 Z M8,6.66666666 C7.26666666,6.66666666 6.66666666,7.26666666 6.66666666,8 C6.66666666,8.73333334 7.26666666,9.33333334 8,9.33333334 C8.73333334,9.33333334 9.33333334,8.73333334 9.33333334,8 C9.33333334,7.26666666 8.73333334,6.66666666 8,6.66666666 Z" id="path-1"></path>
    </defs>
    <g id="Icons/AV/surround-sound" stroke="none" stroke-width="1" fill="none" fill-rule="evenodd">
        <mask id="mask-2" fill="white">
            <use xlink:href="#path-1"></use>
        </mask>
        <use id="Icons/AV/ic_surround_sound_24px" fill="#233745" fill-rule="nonzero" xlink:href="#path-1"></use>
    </g>
</svg>