<?xml version="1.0" encoding="UTF-8"?>
<svg width="16px" height="16px" viewBox="0 0 16 16" version="1.1" xmlns="http://www.w3.org/2000/svg" xmlns:xlink="http://www.w3.org/1999/xlink">
    <title>Icons/AV/video-library</title>
    <g id="Icons/AV/video-library" stroke="none" stroke-width="1" fill="none" fill-rule="evenodd">
        <rect id="Spacer" fill-opacity="0" fill="#D8D8D8" x="0" y="0" width="16" height="16"></rect>
        <path d="M2.66666663,3.99999998 L1.33333329,3.99999998 L1.33333329,13.3333334 C1.33333329,14.0666667 1.9333333,14.6666667 2.66666663,14.6666667 L12,14.6666667 L12,13.3333334 L2.66666663,13.3333334 L2.66666663,3.99999998 Z M13.3333334,1.33333329 L5.33333332,1.33333329 C4.59999998,1.33333329 3.99999998,1.9333333 3.99999998,2.66666663 L3.99999998,10.6666667 C3.99999998,11.4 4.59999998,12 5.33333332,12 L13.3333334,12 C14.0666667,12 14.6666667,11.4 14.6666667,10.6666667 L14.6666667,2.66666663 C14.6666667,1.9333333 14.0666667,1.33333329 13.3333334,1.33333329 Z M8,9.66666664 L8,3.66666664 L12,6.66666664 L8,9.66666664 Z" id="Icons/AV/ic_video_library_24px" fill="#233745" fill-rule="nonzero"></path>
    </g>
</svg>