<svg xmlns="http://www.w3.org/2000/svg" xmlns:xlink="http://www.w3.org/1999/xlink" width="16" height="16" viewBox="0 0 16 16">
  <defs>
    <path id="video-call-a" d="M11.3333334,6.99999997 L11.3333334,4.66666665 C11.3333334,4.29999998 11.0333334,3.99999997 10.6666667,3.99999997 L2.66666663,3.99999997 C2.29999996,3.99999997 1.99999996,4.29999998 1.99999996,4.66666665 L1.99999996,11.3333334 C1.99999996,11.7 2.29999996,12 2.66666663,12 L10.6666667,12 C11.0333334,12 11.3333334,11.7 11.3333334,11.3333334 L11.3333334,8.99999997 L14,11.6666667 L14,4.33333331 L11.3333334,6.99999997 Z M9.33333334,8.66666667 L7.33333333,8.66666667 L7.33333333,10.6666667 L5.99999997,10.6666667 L5.99999997,8.66666667 L3.99999997,8.66666667 L3.99999997,7.33333332 L5.99999997,7.33333332 L5.99999997,5.33333332 L7.33333333,5.33333332 L7.33333333,7.33333332 L9.33333334,7.33333332 L9.33333334,8.66666667 Z"/>
  </defs>
  <g fill="none" fill-rule="evenodd">
    <mask id="video-call-b" fill="#fff">
      <use xlink:href="#video-call-a"/>
    </mask>
    <g fill="CurrentColor" mask="url(#video-call-b)">
      <rect width="16" height="16"/>
    </g>
  </g>
</svg>
