<?xml version="1.0" encoding="UTF-8"?>
<svg width="16px" height="16px" viewBox="0 0 16 16" version="1.1" xmlns="http://www.w3.org/2000/svg" xmlns:xlink="http://www.w3.org/1999/xlink">
    <title>Icons/AV/volume-off</title>
    <g id="Icons/AV/volume-off" stroke="none" stroke-width="1" fill="none" fill-rule="evenodd">
        <rect id="Spacer" fill-opacity="0" fill="#D8D8D8" x="0" y="0" width="16" height="16"></rect>
        <path d="M11,8 C11,6.81999999 10.32,5.80666665 9.33333334,5.31333332 L9.33333334,6.78666666 L10.9666667,8.42 C10.9866667,8.28666667 11,8.14666667 11,8 L11,8 Z M12.6666667,8 C12.6666667,8.62666667 12.5333334,9.21333334 12.3066667,9.76000001 L13.3133334,10.7666667 C13.7533334,9.94000001 14,9.00000001 14,8 C14,5.14666665 12.0066667,2.75999997 9.33333334,2.1533333 L9.33333334,3.52666664 C11.26,4.09999998 12.6666667,5.88666665 12.6666667,8 Z M2.84666663,1.99999996 L1.99999996,2.84666663 L5.15333332,5.99999996 L1.99999996,5.99999996 L1.99999996,9.99999996 L4.66666665,9.99999996 L7.99999996,13.3333334 L7.99999996,8.84666667 L10.8333334,11.68 C10.3866667,12.0266667 9.88666668,12.3 9.33333334,12.4666667 L9.33333334,13.84 C10.2533333,13.6333334 11.0866667,13.2066667 11.7933334,12.6333334 L13.1533334,14 L14,13.1533334 L7.99999996,7.15333333 L2.84666663,1.99999996 Z M8,2.66666663 L6.60666666,4.05999998 L8,5.45333332 L8,2.66666663 Z" id="Icons/AV/ic_volume_off_24px" fill="#233745" fill-rule="nonzero"></path>
    </g>
</svg>