<?xml version="1.0" encoding="UTF-8"?>
<svg width="16px" height="16px" viewBox="0 0 16 16" version="1.1" xmlns="http://www.w3.org/2000/svg" xmlns:xlink="http://www.w3.org/1999/xlink">
    <title>Icons/AV/volume-up</title>
    <defs>
        <path d="M11.3688889,8 C11.3688889,6.84444444 10.7288889,5.84888888 9.77777779,5.33333332 L9.77777779,10.6666667 C10.72,10.1511111 11.3688889,9.15555556 11.3688889,8 Z M1.77777774,6.22222221 L1.77777774,9.77777779 L4.44444442,9.77777779 L8,13.3333334 L8,2.66666663 L4.44444442,6.22222221 L1.77777774,6.22222221 Z M9.77777779,1.77777774 L9.77777779,3.11111108 C11.84,3.76888886 13.3333334,5.71555554 13.3333334,8 C13.3333334,10.2844445 11.84,12.2311111 9.77777779,12.8888889 L9.77777779,14.2222223 C12.5777778,13.5288889 14.6666667,11.0222222 14.6666667,8 C14.6666667,4.97777776 12.5777778,2.47111108 9.77777779,1.77777774 Z" id="path-1"></path>
    </defs>
    <g id="Icons/AV/volume-up" stroke="none" stroke-width="1" fill="none" fill-rule="evenodd">
        <mask id="mask-2" fill="white">
            <use xlink:href="#path-1"></use>
        </mask>
        <use id="Icons/AV/ic_volume_up_18px" fill="#233745" fill-rule="nonzero" xlink:href="#path-1"></use>
    </g>
</svg>