<?xml version="1.0" encoding="UTF-8"?>
<svg width="16px" height="16px" viewBox="0 0 16 16" version="1.1" xmlns="http://www.w3.org/2000/svg" xmlns:xlink="http://www.w3.org/1999/xlink">
    <title>Icons/AV/web</title>
    <defs>
        <path d="M13.3333333,2.66666663 L2.66666663,2.66666663 C1.9333333,2.66666663 1.33999996,3.26666664 1.33999996,3.99999997 L1.33333329,12 C1.33333329,12.7333334 1.9333333,13.3333334 2.66666663,13.3333334 L13.3333333,13.3333334 C14.0666667,13.3333334 14.6666667,12.7333334 14.6666667,12 L14.6666667,3.99999997 C14.6666667,3.26666664 14.0666667,2.66666663 13.3333333,2.66666663 Z M10,12 L2.66666663,12 L2.66666663,9.33333334 L10,9.33333334 L10,12 Z M10,8.66666667 L2.66666663,8.66666667 L2.66666663,5.99999999 L10,5.99999999 L10,8.66666667 Z M13.3333334,12 L10.6666667,12 L10.6666667,5.99999999 L13.3333334,5.99999999 L13.3333334,12 Z" id="path-1"></path>
    </defs>
    <g id="Icons/AV/web" stroke="none" stroke-width="1" fill="none" fill-rule="evenodd">
        <mask id="mask-2" fill="white">
            <use xlink:href="#path-1"></use>
        </mask>
        <use id="Icons/AV/ic_web_24px" fill="#233745" fill-rule="nonzero" xlink:href="#path-1"></use>
    </g>
</svg>