<svg viewBox="0 0 727 258" xmlns="http://www.w3.org/2000/svg"><g fill="none" fill-rule="evenodd"><path stroke="#B8C7D2" fill="#FFF" d="M1.5.5h725v222H1.5z"/><text font-family="Lato-Medium, Lato" font-size="15" font-weight="400" fill="#3E5667"><tspan x="0" y="252">Anatomy of the Phase Banner component.</tspan></text><path fill="#DEF3FF" d="M41 89h646v44H41z"/><g transform="translate(55 101)"><rect fill="#3A8FDD" width="49" height="22" rx="3"/><path d="M14.372 12.194L13.43 9.53a9.224 9.224 0 0 1-.354-1.104 9.202 9.202 0 0 1-.354 1.116l-.936 2.652h2.586zm3.024 3.306h-1.398a.615.615 0 0 1-.381-.111.672.672 0 0 1-.219-.285l-.588-1.662h-3.468l-.588 1.662c-.04.1-.11.191-.21.273a.576.576 0 0 1-.378.123h-1.41l3.402-8.706H14l3.396 8.706zm2.244-8.946V15.5h-1.656V6.554h1.656zm3.036 7.314c.156.18.325.306.507.378.182.072.377.108.585.108.2 0 .382-.038.546-.114.164-.076.305-.195.423-.357.118-.162.209-.369.273-.621.064-.252.096-.552.096-.9 0-.344-.027-.636-.081-.876a1.75 1.75 0 0 0-.228-.582.878.878 0 0 0-.357-.321 1.084 1.084 0 0 0-.468-.099c-.292 0-.537.057-.735.171a2.024 2.024 0 0 0-.561.501v2.712zm-.096-3.744a3.68 3.68 0 0 1 .396-.375 2.407 2.407 0 0 1 1.566-.555c.332 0 .637.071.915.213.278.142.517.348.717.618.2.27.356.601.468.993a4.9 4.9 0 0 1 .168 1.344c0 .464-.063.893-.189 1.287a3.133 3.133 0 0 1-.537 1.023 2.483 2.483 0 0 1-.837.675 2.413 2.413 0 0 1-1.089.243c-.336 0-.621-.05-.855-.15a2.145 2.145 0 0 1-.627-.408v2.466H21.02V9.314h1.02c.208 0 .346.096.414.288l.126.522zm6.948-.204c.116-.104.237-.199.363-.285a2.335 2.335 0 0 1 .858-.366c.162-.034.337-.051.525-.051.336 0 .634.058.894.174.26.116.479.278.657.486.178.208.312.456.402.744.09.288.135.604.135.948v3.93h-1.65v-3.93c0-.344-.08-.611-.24-.801-.16-.19-.396-.285-.708-.285-.232 0-.45.05-.654.15-.204.1-.398.24-.582.42V15.5h-1.656V6.554h1.656V9.92zm8.382 2.994c-.404.02-.74.055-1.008.105a2.43 2.43 0 0 0-.639.195.838.838 0 0 0-.336.273.601.601 0 0 0-.099.333c0 .24.067.41.201.51.134.1.321.15.561.15.276 0 .515-.049.717-.147.202-.098.403-.251.603-.459v-.96zm-3.372-2.742a3.7 3.7 0 0 1 1.206-.735c.44-.162.916-.243 1.428-.243.368 0 .697.06.987.18.29.12.536.287.738.501.202.214.357.469.465.765.108.296.162.62.162.972V15.5h-.756a.772.772 0 0 1-.357-.066c-.082-.044-.149-.136-.201-.276l-.132-.396a5.922 5.922 0 0 1-.453.36 2.65 2.65 0 0 1-.453.261c-.156.07-.323.123-.501.159a3.022 3.022 0 0 1-.597.054c-.272 0-.52-.036-.744-.108a1.617 1.617 0 0 1-.579-.321 1.416 1.416 0 0 1-.375-.531 1.897 1.897 0 0 1-.132-.732c0-.228.058-.456.174-.684.116-.228.315-.435.597-.621s.658-.34 1.128-.462c.47-.122 1.059-.191 1.767-.207v-.318c0-.388-.082-.673-.246-.855-.164-.182-.4-.273-.708-.273-.228 0-.418.027-.57.081a2.8 2.8 0 0 0-.399.174l-.321.174a.721.721 0 0 1-.348.081.474.474 0 0 1-.291-.087.799.799 0 0 1-.195-.207l-.294-.528z" fill="#FFF" fill-rule="nonzero"/></g><g fill="#253B5B" fill-rule="nonzero"><path d="M125.531 112.22l-1.386-3.682a10.194 10.194 0 0 1-.343-1.085c-.051.22-.107.421-.168.605-.06.185-.117.347-.168.487l-1.386 3.675h3.451zm3.101 3.78h-1.267a.536.536 0 0 1-.35-.108.705.705 0 0 1-.203-.27l-.84-2.226h-4.34l-.84 2.226a.67.67 0 0 1-.196.259.522.522 0 0 1-.35.119h-1.267l3.997-10.08h1.659l3.997 10.08zm2.317-5.817c.224-.453.495-.808.812-1.068a1.747 1.747 0 0 1 1.141-.388c.154 0 .299.017.434.053.135.035.257.087.364.157l-.105 1.134c-.019.08-.048.134-.087.165a.253.253 0 0 1-.158.045c-.07 0-.17-.013-.301-.038a2.14 2.14 0 0 0-.413-.039c-.21 0-.395.03-.556.091-.162.06-.306.15-.434.266a1.79 1.79 0 0 0-.34.427c-.098.168-.189.36-.273.574V116h-1.505v-7.14h.875c.159 0 .268.03.329.088.06.058.103.16.126.304l.091.931zm8.428 1.442c0-.252-.036-.486-.108-.704a1.647 1.647 0 0 0-.319-.567 1.452 1.452 0 0 0-.521-.377 1.773 1.773 0 0 0-.718-.137c-.546 0-.975.156-1.288.469-.313.313-.511.751-.595 1.316h3.549zm-3.591.924c.019.406.082.757.189 1.054.107.296.25.542.43.738.18.196.395.342.644.438.25.095.529.143.837.143.294 0 .548-.034.763-.101.215-.068.401-.143.56-.224.159-.082.294-.157.406-.224a.606.606 0 0 1 .308-.102c.121 0 .215.047.28.14l.427.553c-.177.21-.378.387-.602.532a3.508 3.508 0 0 1-.714.354 4.034 4.034 0 0 1-.777.195c-.266.04-.525.06-.777.06-.495 0-.953-.083-1.375-.249a3.059 3.059 0 0 1-1.1-.731 3.377 3.377 0 0 1-.727-1.197c-.176-.476-.263-1.024-.263-1.645 0-.495.078-.957.235-1.386a3.155 3.155 0 0 1 1.736-1.873c.417-.184.89-.276 1.417-.276.439 0 .845.071 1.218.213.373.143.695.352.966.627.27.275.482.612.633 1.012.152.399.228.852.228 1.361 0 .233-.026.39-.077.469-.051.08-.145.119-.28.119h-4.585zm16.163-3.689l-3.934 9.17a.738.738 0 0 1-.185.252c-.073.06-.184.091-.333.091h-1.113l1.316-2.856-2.912-6.657h1.309c.126 0 .223.03.29.088a.543.543 0 0 1 .151.206l1.701 4.053a7.534 7.534 0 0 1 .217.7l.112-.357c.037-.117.08-.233.126-.35l1.631-4.046a.464.464 0 0 1 .42-.294h1.204zm4.06-.112c.527 0 1.004.086 1.432.259.427.173.79.418 1.092.735.3.317.533.702.696 1.155.163.453.245.961.245 1.526 0 .565-.082 1.073-.245 1.526a3.299 3.299 0 0 1-.696 1.159c-.302.32-.665.565-1.092.738a3.787 3.787 0 0 1-1.432.259 3.807 3.807 0 0 1-1.438-.259 3.081 3.081 0 0 1-1.096-.738 3.272 3.272 0 0 1-.7-1.159 4.474 4.474 0 0 1-.245-1.526c0-.565.082-1.073.245-1.526.163-.453.397-.838.7-1.155a3.104 3.104 0 0 1 1.096-.735 3.807 3.807 0 0 1 1.438-.259zm0 6.181c.644 0 1.123-.216 1.439-.647.315-.432.472-1.05.472-1.852 0-.803-.157-1.422-.472-1.858-.316-.437-.795-.655-1.439-.655-.653 0-1.139.218-1.456.655-.317.436-.476 1.055-.476 1.858 0 .803.159 1.42.476 1.852.317.431.803.647 1.456.647zm10.927-6.069V116h-.91c-.2 0-.329-.096-.385-.287l-.112-.665c-.15.159-.307.303-.472.434-.166.13-.342.243-.529.336a2.81 2.81 0 0 1-1.281.294c-.392 0-.737-.065-1.036-.196a2.057 2.057 0 0 1-.752-.553 2.382 2.382 0 0 1-.459-.857 3.736 3.736 0 0 1-.154-1.103v-4.543h1.505v4.543c0 .48.11.854.333 1.12.221.266.558.399 1.011.399.331 0 .64-.076.928-.227.287-.152.556-.361.808-.627v-5.208h1.505zm9.135 4.018a9.52 9.52 0 0 0-1.358.13 3.855 3.855 0 0 0-.896.259c-.229.105-.393.23-.494.374a.817.817 0 0 0-.15.476c0 .168.027.311.08.43a.784.784 0 0 0 .225.295.911.911 0 0 0 .335.167c.129.036.27.053.424.053.392 0 .73-.073 1.011-.22.283-.148.557-.361.823-.641v-1.323zm-3.99-3.024c.807-.751 1.769-1.127 2.884-1.127.41 0 .776.066 1.095.2.32.133.588.32.805.563.218.243.383.53.497.865.115.333.172.703.172 1.109V116h-.672a.655.655 0 0 1-.329-.066c-.075-.045-.138-.135-.189-.27l-.147-.581c-.182.163-.362.31-.539.438a3.4 3.4 0 0 1-.55.325 2.701 2.701 0 0 1-.608.2 3.591 3.591 0 0 1-.718.066c-.29 0-.559-.04-.808-.119-.25-.08-.466-.2-.648-.36a1.705 1.705 0 0 1-.43-.599 2.068 2.068 0 0 1-.158-.84c0-.275.073-.544.22-.805.148-.261.39-.496.729-.703.338-.208.783-.38 1.337-.515.553-.135 1.235-.212 2.047-.231v-.476c0-.513-.11-.896-.329-1.148-.22-.252-.541-.378-.966-.378-.29 0-.532.036-.728.109-.196.072-.366.15-.511.234a9.607 9.607 0 0 0-.385.235.647.647 0 0 1-.357.108.428.428 0 0 1-.262-.08.666.666 0 0 1-.179-.2l-.273-.49zm19.32-3.934V116h-.833a.714.714 0 0 1-.322-.066.753.753 0 0 1-.252-.221l-5.537-7.112a7.995 7.995 0 0 1 .042.77V116h-1.442v-10.08h.854c.07 0 .13.003.178.01.05.008.095.02.137.039a.397.397 0 0 1 .119.084c.037.037.077.084.119.14l5.544 7.119a9.206 9.206 0 0 1-.042-.819v-6.573h1.435zm5.936 6.958a9.52 9.52 0 0 0-1.358.13 3.855 3.855 0 0 0-.896.259c-.229.105-.393.23-.494.374a.817.817 0 0 0-.15.476c0 .168.027.311.08.43a.784.784 0 0 0 .224.295.911.911 0 0 0 .336.167c.129.036.27.053.424.053.392 0 .73-.073 1.011-.22.283-.148.557-.361.823-.641v-1.323zm-3.99-3.024c.807-.751 1.769-1.127 2.884-1.127.41 0 .776.066 1.096.2.32.133.587.32.805.563.217.243.382.53.497.865.114.333.171.703.171 1.109V116h-.672a.655.655 0 0 1-.329-.066c-.075-.045-.138-.135-.189-.27l-.147-.581c-.182.163-.362.31-.539.438a3.4 3.4 0 0 1-.55.325 2.701 2.701 0 0 1-.608.2 3.591 3.591 0 0 1-.718.066c-.29 0-.559-.04-.808-.119-.25-.08-.466-.2-.648-.36a1.705 1.705 0 0 1-.43-.599 2.068 2.068 0 0 1-.158-.84c0-.275.073-.544.22-.805.148-.261.39-.496.729-.703.338-.208.783-.38 1.337-.515.553-.135 1.235-.212 2.047-.231v-.476c0-.513-.11-.896-.329-1.148-.22-.252-.541-.378-.966-.378-.29 0-.532.036-.728.109-.196.072-.366.15-.511.234a9.607 9.607 0 0 0-.385.235.647.647 0 0 1-.357.108.428.428 0 0 1-.262-.08.666.666 0 0 1-.179-.2l-.273-.49zm13.496-.994l-2.87 7.14h-1.358l-2.87-7.14h1.239c.117 0 .213.03.29.088a.4.4 0 0 1 .151.206l1.582 4.158c.065.196.124.39.175.581.051.191.096.385.133.581.037-.196.083-.388.136-.577.054-.19.114-.384.179-.585l1.61-4.158a.427.427 0 0 1 .154-.21.442.442 0 0 1 .273-.084h1.176zm7.364 0l-3.934 9.17a.738.738 0 0 1-.185.252c-.073.06-.184.091-.333.091h-1.113l1.316-2.856-2.912-6.657h1.309c.126 0 .223.03.29.088a.543.543 0 0 1 .151.206l1.701 4.053a7.534 7.534 0 0 1 .217.7l.112-.357c.037-.117.08-.233.126-.35l1.631-4.046a.464.464 0 0 1 .42-.294h1.204zm7.875 2.198c.364 0 .685-.047.963-.14.277-.093.508-.225.693-.395.184-.17.323-.377.416-.62.093-.243.14-.513.14-.812 0-.294-.046-.558-.137-.791a1.538 1.538 0 0 0-.409-.595 1.829 1.829 0 0 0-.69-.374 3.3 3.3 0 0 0-.976-.13h-1.498v3.857h1.498zm0-5.138c.658 0 1.228.077 1.712.231.483.154.881.37 1.196.648.316.277.55.61.704 1 .154.39.231.82.231 1.292 0 .48-.082.92-.245 1.32a2.763 2.763 0 0 1-.728 1.028 3.416 3.416 0 0 1-1.2.673c-.479.16-1.035.241-1.67.241h-1.498V116h-1.638v-10.08h3.136zm6.552 4.263c.224-.453.495-.808.812-1.068a1.747 1.747 0 0 1 1.141-.388c.154 0 .299.017.434.053.135.035.257.087.364.157l-.105 1.134c-.019.08-.048.134-.087.165a.253.253 0 0 1-.158.045c-.07 0-.17-.013-.301-.038a2.14 2.14 0 0 0-.413-.039c-.21 0-.395.03-.556.091-.162.06-.306.15-.434.266a1.79 1.79 0 0 0-.34.427c-.098.168-.189.36-.273.574V116h-1.505v-7.14h.875c.159 0 .268.03.329.088.06.058.103.16.126.304l.091.931zm6.832-1.435c.527 0 1.004.086 1.431.259a3.07 3.07 0 0 1 1.093.735c.3.317.533.702.696 1.155.163.453.245.961.245 1.526 0 .565-.082 1.073-.245 1.526a3.299 3.299 0 0 1-.696 1.159c-.302.32-.665.565-1.092.738a3.787 3.787 0 0 1-1.432.259 3.807 3.807 0 0 1-1.438-.259 3.081 3.081 0 0 1-1.096-.739 3.272 3.272 0 0 1-.7-1.158 4.474 4.474 0 0 1-.245-1.526c0-.565.082-1.073.245-1.526.163-.453.397-.838.7-1.155a3.104 3.104 0 0 1 1.096-.735 3.807 3.807 0 0 1 1.438-.259zm0 6.181c.644 0 1.123-.216 1.439-.647.315-.432.472-1.05.472-1.852 0-.803-.157-1.422-.472-1.859-.316-.436-.795-.654-1.439-.654-.653 0-1.139.218-1.456.654-.317.437-.476 1.056-.476 1.859 0 .803.159 1.42.476 1.852.317.431.803.647 1.456.647zm9.464-4.312c-.21-.27-.441-.46-.693-.567a2.068 2.068 0 0 0-.819-.161c-.588 0-1.048.216-1.379.648-.331.431-.497 1.07-.497 1.914 0 .439.037.813.112 1.124.075.31.182.563.322.759.14.196.31.338.511.427.2.089.427.133.679.133.383 0 .713-.083.99-.249.278-.165.536-.4.774-.703v-3.325zm1.505-4.977V116h-.91c-.2 0-.329-.096-.385-.287l-.133-.777c-.299.35-.638.632-1.019.847-.38.215-.822.322-1.326.322-.401 0-.765-.08-1.092-.242a2.35 2.35 0 0 1-.84-.703 3.408 3.408 0 0 1-.543-1.145 5.776 5.776 0 0 1-.192-1.564c0-.532.071-1.024.213-1.477.143-.453.347-.846.613-1.18.266-.333.59-.594.97-.784.38-.189.806-.283 1.277-.283.42 0 .777.066 1.071.2.294.133.558.318.791.556v-3.843h1.505zm7.854 3.22V116h-.91c-.2 0-.329-.096-.385-.287l-.112-.665c-.15.159-.307.303-.473.434-.165.13-.341.243-.528.336a2.81 2.81 0 0 1-1.281.294c-.392 0-.737-.065-1.036-.196a2.057 2.057 0 0 1-.752-.553 2.382 2.382 0 0 1-.459-.858 3.736 3.736 0 0 1-.154-1.102v-4.543h1.505v4.543c0 .48.11.854.332 1.12.222.266.56.399 1.012.399.331 0 .64-.076.927-.227.288-.152.557-.361.809-.627v-5.208h1.505zm6.881 1.4a.778.778 0 0 1-.133.14.292.292 0 0 1-.182.049.459.459 0 0 1-.249-.084 6.252 6.252 0 0 0-.308-.185 2.018 2.018 0 0 0-1.06-.27c-.327 0-.612.058-.858.175-.245.117-.45.283-.616.5-.165.218-.289.481-.37.792-.082.31-.123.659-.123 1.046 0 .401.044.758.133 1.071.089.313.216.576.381.791.166.215.367.378.602.49.236.112.501.168.795.168.29 0 .525-.035.707-.105a2.17 2.17 0 0 0 .455-.231c.121-.084.225-.161.311-.231a.432.432 0 0 1 .277-.105c.121 0 .215.047.28.14l.427.553c-.173.21-.364.387-.574.532-.21.145-.432.262-.665.353a3.492 3.492 0 0 1-.728.196 4.9 4.9 0 0 1-.763.06 3.11 3.11 0 0 1-1.243-.249 2.902 2.902 0 0 1-1.008-.72 3.438 3.438 0 0 1-.679-1.156c-.165-.455-.248-.974-.248-1.557 0-.527.075-1.016.224-1.467.15-.45.367-.838.654-1.165a2.974 2.974 0 0 1 1.068-.767c.425-.184.915-.276 1.47-.276.518 0 .974.084 1.368.252.395.168.746.406 1.054.714l-.399.546zm3.962 5.852c-.593 0-1.049-.167-1.369-.5-.32-.334-.479-.804-.479-1.411v-4.158h-.784a.317.317 0 0 1-.217-.08c-.06-.054-.091-.135-.091-.242v-.609l1.155-.168.329-2.065a.398.398 0 0 1 .119-.193.328.328 0 0 1 .224-.073h.77v2.345h1.981v1.085h-1.981v4.053c0 .257.063.453.189.588a.656.656 0 0 0 .504.203.888.888 0 0 0 .301-.046c.084-.03.156-.062.217-.097.06-.036.113-.068.158-.099a.23.23 0 0 1 .129-.045c.084 0 .152.047.203.14l.448.735a2.442 2.442 0 0 1-.826.472 2.98 2.98 0 0 1-.98.165zm16.065-5.152c0 .747-.121 1.435-.364 2.065a4.772 4.772 0 0 1-1.026 1.627c-.44.456-.97.811-1.589 1.068-.618.257-1.305.385-2.061.385-.751 0-1.436-.128-2.055-.385a4.721 4.721 0 0 1-1.592-1.068 4.745 4.745 0 0 1-1.029-1.627 5.698 5.698 0 0 1-.364-2.065c0-.747.121-1.435.364-2.065a4.782 4.782 0 0 1 1.029-1.631 4.696 4.696 0 0 1 1.593-1.071c.618-.257 1.303-.385 2.054-.385.756 0 1.443.128 2.061.385a4.659 4.659 0 0 1 1.59 1.071 4.81 4.81 0 0 1 1.025 1.631c.243.63.364 1.318.364 2.065zm-1.673 0c0-.579-.078-1.099-.235-1.561a3.303 3.303 0 0 0-.672-1.176 2.926 2.926 0 0 0-1.06-.742 3.616 3.616 0 0 0-1.4-.259c-.513 0-.978.086-1.393.259-.415.173-.77.42-1.064.742-.294.322-.52.714-.679 1.176a4.788 4.788 0 0 0-.238 1.561c0 .583.08 1.106.238 1.568.159.462.385.853.679 1.172.294.32.649.565 1.064.736.415.17.88.255 1.393.255a3.66 3.66 0 0 0 1.4-.255c.415-.17.769-.416 1.06-.736.292-.32.516-.71.672-1.172.157-.462.235-.985.235-1.568zm13.216-2.1l-2.289 7.14h-1.197c-.14 0-.238-.091-.294-.273l-1.421-4.445a7.553 7.553 0 0 1-.182-.749 8.946 8.946 0 0 1-.189.756l-1.442 4.438c-.051.182-.161.273-.329.273h-1.141l-2.289-7.14h1.19c.117 0 .213.03.29.088a.4.4 0 0 1 .151.206l1.19 4.158a12.178 12.178 0 0 1 .217 1.092c.047-.177.096-.356.147-.535l.161-.557 1.337-4.179a.377.377 0 0 1 .143-.206.428.428 0 0 1 .263-.081h.658c.107 0 .198.027.273.08a.372.372 0 0 1 .147.207l1.302 4.179c.056.191.108.378.157.56.05.182.095.364.137.546.033-.177.068-.357.105-.539.037-.182.082-.371.133-.567l1.211-4.158a.427.427 0 0 1 .154-.21.442.442 0 0 1 .273-.084h1.134zm2.499.945c.154-.159.314-.302.48-.43.165-.129.341-.24.528-.333.187-.093.385-.166.595-.217.21-.051.439-.077.686-.077.392 0 .736.065 1.032.196.297.13.546.315.75.553.203.238.355.524.458.858.103.333.154.7.154 1.102V116h-1.498v-4.543c0-.48-.11-.854-.332-1.12-.222-.266-.56-.399-1.012-.399-.336 0-.647.077-.934.231a3.205 3.205 0 0 0-.809.63V116h-1.505v-7.14h.91c.205 0 .336.096.392.287l.105.658zm11.13 1.82c0-.252-.036-.486-.109-.704a1.647 1.647 0 0 0-.318-.567 1.452 1.452 0 0 0-.522-.377 1.773 1.773 0 0 0-.717-.137c-.546 0-.975.156-1.288.469-.313.313-.511.751-.595 1.316h3.549zm-3.591.924c.019.406.082.757.189 1.054.107.296.25.542.43.738.18.196.395.342.644.438.25.095.529.143.837.143.294 0 .548-.034.763-.101.215-.068.401-.143.56-.224.159-.082.294-.157.406-.224a.606.606 0 0 1 .308-.102c.121 0 .215.047.28.14l.427.553c-.177.21-.378.387-.602.532a3.508 3.508 0 0 1-.714.354 4.034 4.034 0 0 1-.777.195c-.266.04-.525.06-.777.06-.495 0-.953-.083-1.376-.249a3.059 3.059 0 0 1-1.099-.731 3.377 3.377 0 0 1-.728-1.197c-.175-.476-.262-1.024-.262-1.645 0-.495.078-.957.234-1.386a3.155 3.155 0 0 1 1.736-1.873c.418-.184.89-.276 1.418-.276.439 0 .845.071 1.218.213.373.143.695.352.966.627.27.275.482.612.633 1.012.152.399.228.852.228 1.361 0 .233-.026.39-.077.469-.051.08-.145.119-.28.119h-4.585zm7.763-2.366c.224-.453.495-.808.812-1.068a1.747 1.747 0 0 1 1.141-.388c.154 0 .299.017.434.053.135.035.257.087.364.157l-.105 1.134c-.019.08-.048.134-.088.165a.253.253 0 0 1-.157.045c-.07 0-.17-.013-.301-.038a2.14 2.14 0 0 0-.413-.039c-.21 0-.395.03-.557.091-.16.06-.305.15-.434.266a1.79 1.79 0 0 0-.339.427c-.098.168-.189.36-.273.574V116h-1.505v-7.14h.875c.159 0 .268.03.329.088.06.058.103.16.126.304l.091.931zm10.318-1.435c.527 0 1.004.086 1.431.259a3.07 3.07 0 0 1 1.092.735c.302.317.534.702.697 1.155.163.453.245.961.245 1.526 0 .565-.082 1.073-.245 1.526a3.299 3.299 0 0 1-.697 1.159c-.3.32-.664.565-1.092.738a3.787 3.787 0 0 1-1.431.259 3.807 3.807 0 0 1-1.439-.259 3.081 3.081 0 0 1-1.095-.739 3.272 3.272 0 0 1-.7-1.158 4.474 4.474 0 0 1-.245-1.526c0-.565.082-1.073.245-1.526.163-.453.397-.838.7-1.155a3.104 3.104 0 0 1 1.095-.735 3.807 3.807 0 0 1 1.439-.259zm0 6.181c.644 0 1.123-.216 1.438-.647.316-.432.473-1.05.473-1.852 0-.803-.157-1.422-.473-1.859-.315-.436-.794-.654-1.438-.654-.653 0-1.139.218-1.456.654-.317.437-.476 1.056-.476 1.859 0 .803.159 1.42.476 1.852.317.431.803.647 1.456.647zm6.328-4.746c.224-.453.495-.808.812-1.068a1.747 1.747 0 0 1 1.141-.388c.154 0 .299.017.434.053.135.035.257.087.364.157l-.105 1.134c-.019.08-.048.134-.088.165a.253.253 0 0 1-.157.045c-.07 0-.17-.013-.301-.038a2.14 2.14 0 0 0-.413-.039c-.21 0-.395.03-.557.091-.16.06-.305.15-.434.266a1.79 1.79 0 0 0-.339.427c-.098.168-.189.36-.273.574V116h-1.505v-7.14h.875c.159 0 .268.03.329.088.06.058.103.16.126.304l.091.931zm12.782-2.541a.618.618 0 0 1-.161.186.354.354 0 0 1-.21.059.545.545 0 0 1-.298-.112 5.832 5.832 0 0 0-.406-.248 3.56 3.56 0 0 0-.57-.252 2.373 2.373 0 0 0-.784-.116c-.28 0-.526.035-.739.105-.212.07-.39.168-.535.294a1.212 1.212 0 0 0-.326.445c-.072.17-.108.355-.108.556 0 .257.068.47.203.64.135.17.314.317.535.438.222.121.475.227.76.319.285.09.575.187.871.29.297.103.587.22.872.35.285.13.538.296.76.497.221.2.4.446.535.735.135.29.203.642.203 1.057 0 .448-.077.868-.231 1.26a2.968 2.968 0 0 1-.669 1.026 3.113 3.113 0 0 1-1.078.689 3.963 3.963 0 0 1-1.459.252c-.322 0-.636-.031-.942-.094a4.88 4.88 0 0 1-.875-.266 4.38 4.38 0 0 1-.78-.417 3.918 3.918 0 0 1-.651-.546l.476-.784a.462.462 0 0 1 .161-.154.43.43 0 0 1 .217-.056c.107 0 .226.05.357.15.13.1.288.21.472.33.185.119.408.228.669.329.261.1.574.15.938.15.593 0 1.051-.145 1.375-.434.325-.29.487-.688.487-1.197 0-.285-.068-.517-.203-.696a1.649 1.649 0 0 0-.536-.452 3.847 3.847 0 0 0-.759-.308 32.877 32.877 0 0 1-.868-.27 8.541 8.541 0 0 1-.868-.335 2.763 2.763 0 0 1-.76-.504 2.334 2.334 0 0 1-.535-.77c-.135-.306-.203-.688-.203-1.145a2.716 2.716 0 0 1 .837-1.963c.273-.264.61-.475 1.011-.634a3.709 3.709 0 0 1 1.372-.238c.579 0 1.11.091 1.593.273.483.182.899.441 1.249.777l-.399.784zm4.375 8.47c-.593 0-1.049-.167-1.369-.5-.32-.334-.479-.804-.479-1.411v-4.158h-.784a.317.317 0 0 1-.217-.08c-.06-.054-.091-.135-.091-.242v-.609l1.155-.168.329-2.065a.398.398 0 0 1 .119-.193.328.328 0 0 1 .224-.073h.77v2.345h1.981v1.085h-1.981v4.053c0 .257.063.453.189.588a.656.656 0 0 0 .504.203.888.888 0 0 0 .301-.046c.084-.03.156-.062.217-.097.06-.036.113-.068.157-.099a.23.23 0 0 1 .13-.045c.084 0 .152.047.203.14l.448.735a2.442 2.442 0 0 1-.826.472 2.98 2.98 0 0 1-.98.165zm6.643-3.234a9.52 9.52 0 0 0-1.358.13 3.855 3.855 0 0 0-.896.259c-.229.105-.393.23-.494.374a.817.817 0 0 0-.15.476c0 .168.027.311.08.43a.784.784 0 0 0 .224.295.911.911 0 0 0 .336.167c.129.036.27.053.424.053.392 0 .73-.073 1.011-.22.283-.148.557-.361.823-.641v-1.323zm-3.99-3.024c.807-.751 1.769-1.127 2.884-1.127.41 0 .776.066 1.096.2.32.133.587.32.805.563.217.243.382.53.496.865.115.333.172.703.172 1.109V116h-.672a.655.655 0 0 1-.329-.066c-.075-.045-.138-.135-.189-.27l-.147-.581c-.182.163-.362.31-.539.438a3.4 3.4 0 0 1-.55.325 2.701 2.701 0 0 1-.609.2 3.591 3.591 0 0 1-.717.066c-.29 0-.559-.04-.808-.119-.25-.08-.466-.2-.648-.36a1.705 1.705 0 0 1-.43-.599 2.067 2.067 0 0 1-.158-.84c0-.275.073-.544.22-.805.148-.261.39-.496.728-.703.339-.208.784-.38 1.338-.515.553-.135 1.235-.212 2.047-.231v-.476c0-.513-.11-.896-.329-1.148-.22-.252-.541-.378-.966-.378-.29 0-.532.036-.728.109-.196.072-.366.15-.511.234a9.608 9.608 0 0 0-.385.235.647.647 0 0 1-.357.108.428.428 0 0 1-.262-.08.666.666 0 0 1-.179-.2l-.273-.49zm8.715-4.214v6.006h.322a.645.645 0 0 0 .252-.042.558.558 0 0 0 .203-.175l2.002-2.289a.746.746 0 0 1 .231-.21.658.658 0 0 1 .322-.07h1.365l-2.408 2.716c-.14.182-.294.327-.462.434.093.065.175.139.245.22.07.082.138.174.203.277l2.569 3.493h-1.344a.742.742 0 0 1-.312-.06.538.538 0 0 1-.227-.22l-2.065-2.8a.527.527 0 0 0-.21-.206.832.832 0 0 0-.315-.046h-.371V116h-1.505v-10.36h1.505zm10.486 5.985c0-.252-.036-.486-.108-.703a1.647 1.647 0 0 0-.319-.567 1.452 1.452 0 0 0-.522-.379 1.773 1.773 0 0 0-.717-.136c-.546 0-.975.156-1.288.469-.313.313-.511.751-.595 1.316h3.549zm-3.591.924c.019.406.082.757.189 1.054.107.296.25.542.43.738.18.196.395.342.644.438.25.095.529.143.837.143.294 0 .548-.034.763-.101.215-.068.401-.143.56-.224.159-.082.294-.157.406-.224a.606.606 0 0 1 .308-.102c.121 0 .215.047.28.14l.427.553c-.177.21-.378.387-.602.532a3.508 3.508 0 0 1-.714.354 4.034 4.034 0 0 1-.777.195c-.266.04-.525.06-.777.06-.495 0-.953-.083-1.375-.249a3.059 3.059 0 0 1-1.1-.731 3.377 3.377 0 0 1-.727-1.197c-.176-.476-.263-1.024-.263-1.645 0-.495.078-.957.235-1.386a3.155 3.155 0 0 1 1.736-1.873c.417-.184.89-.276 1.417-.276.439 0 .845.071 1.218.213.373.143.695.352.966.627.27.275.482.612.633 1.012.152.399.228.852.228 1.361 0 .233-.026.39-.077.469-.051.08-.145.119-.28.119h-4.585zm7.847-2.842a3.79 3.79 0 0 1 .966-.696c.35-.176.758-.263 1.225-.263.392 0 .736.065 1.032.196.297.13.546.315.75.553.203.238.355.524.458.857.103.334.154.702.154 1.103V116h-1.498v-4.543c0-.48-.11-.854-.332-1.12-.222-.266-.56-.399-1.012-.399-.336 0-.647.077-.934.231a3.205 3.205 0 0 0-.809.63V116h-1.505v-10.36h1.505v4.067zm9.436-.959c.527 0 1.004.086 1.431.259a3.07 3.07 0 0 1 1.092.735c.302.317.534.702.697 1.155.163.453.245.961.245 1.526 0 .565-.082 1.073-.245 1.526a3.299 3.299 0 0 1-.697 1.159c-.3.32-.664.565-1.092.738a3.787 3.787 0 0 1-1.431.259 3.807 3.807 0 0 1-1.438-.259 3.081 3.081 0 0 1-1.096-.739 3.272 3.272 0 0 1-.7-1.158 4.474 4.474 0 0 1-.245-1.526c0-.565.082-1.073.245-1.526.163-.453.397-.838.7-1.155a3.104 3.104 0 0 1 1.096-.735 3.807 3.807 0 0 1 1.438-.259zm0 6.181c.644 0 1.123-.216 1.438-.647.316-.432.473-1.05.473-1.852 0-.803-.157-1.422-.473-1.859-.315-.436-.794-.654-1.438-.654-.653 0-1.139.218-1.456.654-.317.437-.476 1.056-.476 1.859 0 .803.159 1.42.476 1.852.317.431.803.647 1.456.647zm6.44-9.289V116h-1.505v-10.36h1.505zm6.419 4.977c-.21-.27-.441-.46-.693-.567a2.068 2.068 0 0 0-.819-.161c-.588 0-1.048.216-1.379.648-.331.431-.497 1.07-.497 1.914 0 .439.037.813.112 1.124.075.31.182.563.322.759.14.196.31.338.511.427.2.089.427.133.679.133.383 0 .713-.083.99-.249.278-.165.536-.4.774-.703v-3.325zm1.505-4.977V116h-.91c-.2 0-.329-.096-.385-.287l-.133-.777c-.299.35-.638.632-1.019.847-.38.215-.822.322-1.326.322-.401 0-.765-.08-1.092-.242a2.35 2.35 0 0 1-.84-.703 3.408 3.408 0 0 1-.543-1.145 5.776 5.776 0 0 1-.192-1.564c0-.532.071-1.024.213-1.477.143-.453.347-.846.613-1.18.266-.333.59-.594.97-.784.38-.189.806-.283 1.277-.283.42 0 .777.066 1.071.2.294.133.558.318.791.556v-3.843h1.505zm6.517 5.985c0-.252-.036-.486-.109-.704a1.647 1.647 0 0 0-.318-.567 1.452 1.452 0 0 0-.522-.377 1.773 1.773 0 0 0-.717-.137c-.546 0-.975.156-1.288.469-.313.313-.511.751-.595 1.316h3.549zm-3.591.924c.019.406.082.757.189 1.054.107.296.25.542.43.738.18.196.395.342.644.438.25.095.529.143.837.143.294 0 .548-.034.763-.101.215-.068.401-.143.56-.224.159-.082.294-.157.406-.224a.606.606 0 0 1 .308-.102c.121 0 .215.047.28.14l.427.553c-.177.21-.378.387-.602.532a3.508 3.508 0 0 1-.714.354 4.034 4.034 0 0 1-.777.195c-.266.04-.525.06-.777.06-.495 0-.953-.083-1.375-.249a3.059 3.059 0 0 1-1.1-.731 3.377 3.377 0 0 1-.727-1.197c-.176-.476-.263-1.024-.263-1.645 0-.495.078-.957.234-1.386a3.155 3.155 0 0 1 1.736-1.873c.418-.184.89-.276 1.418-.276.439 0 .845.071 1.218.213.373.143.695.352.966.627.27.275.482.612.633 1.012.152.399.228.852.228 1.361 0 .233-.026.39-.077.469-.051.08-.145.119-.28.119h-4.585zm7.763-2.366c.224-.453.495-.808.812-1.068a1.747 1.747 0 0 1 1.141-.388c.154 0 .299.017.434.053.135.035.257.087.364.157l-.105 1.134c-.019.08-.048.134-.088.165a.253.253 0 0 1-.157.045c-.07 0-.17-.013-.301-.038a2.14 2.14 0 0 0-.413-.039c-.21 0-.395.03-.557.091-.16.06-.305.15-.433.266a1.79 1.79 0 0 0-.34.427c-.098.168-.189.36-.273.574V116h-1.505v-7.14h.875c.159 0 .268.03.329.088.06.058.103.16.126.304l.091.931zm3.36-3.36c.154-.14.322-.27.504-.392.182-.121.38-.229.591-.322.213-.093.444-.167.693-.22.25-.054.52-.081.809-.081.387 0 .743.055 1.067.165.325.11.605.265.84.469.236.203.42.447.55.735.13.287.196.607.196.962s-.051.661-.154.92a2.48 2.48 0 0 1-.392.676 3.172 3.172 0 0 1-.518.5c-.187.143-.363.276-.529.4a3.483 3.483 0 0 0-.426.37.752.752 0 0 0-.214.41l-.147 1.05h-1.022l-.105-1.155a.903.903 0 0 1 .105-.567c.093-.159.218-.308.374-.448.157-.14.33-.274.519-.402.189-.129.365-.272.528-.431.163-.159.301-.336.413-.532.112-.196.168-.432.168-.707 0-.182-.035-.346-.105-.493a1.071 1.071 0 0 0-.294-.375 1.383 1.383 0 0 0-.441-.238 1.717 1.717 0 0 0-.546-.084c-.275 0-.509.033-.7.098a2.874 2.874 0 0 0-.49.214 4.04 4.04 0 0 0-.336.21c-.089.063-.163.094-.224.094a.345.345 0 0 1-.322-.189l-.392-.637zm1.344 8.309a.992.992 0 0 1 .276-.693.95.95 0 0 1 .69-.287.99.99 0 0 1 .903.598.953.953 0 0 1 .077.382.945.945 0 0 1-.287.693.944.944 0 0 1-.312.207.992.992 0 0 1-.381.073.992.992 0 0 1-.382-.073.906.906 0 0 1-.308-.207.982.982 0 0 1-.276-.693zm10.808-7.889v3.227h3.941v1.323h-3.941V116h-1.645v-10.08h6.286v1.323h-4.641zm7.56 1.617V116h-1.505v-7.14h1.505zm.252-2.156a.941.941 0 0 1-.08.385 1.012 1.012 0 0 1-.221.319 1.074 1.074 0 0 1-.326.217.983.983 0 0 1-.776 0 1.01 1.01 0 0 1-.312-.217 1.075 1.075 0 0 1-.214-.319.941.941 0 0 1-.08-.385c0-.14.027-.27.08-.392.054-.121.125-.227.214-.318a1.01 1.01 0 0 1 .311-.217.983.983 0 0 1 .777 0c.124.053.233.125.326.217.093.09.167.197.22.318.054.121.081.252.081.392zm3.052 3.101c.154-.159.314-.302.48-.43.165-.129.341-.24.528-.333.187-.093.385-.166.595-.217.21-.051.439-.077.686-.077.392 0 .736.065 1.032.196.297.13.546.315.75.553.203.238.355.524.458.858.103.333.154.7.154 1.102V116h-1.498v-4.543c0-.48-.11-.854-.333-1.12-.221-.266-.558-.399-1.011-.399-.336 0-.647.077-.935.231a3.205 3.205 0 0 0-.808.63V116h-1.505v-7.14h.91c.205 0 .336.096.392.287l.105.658zm11.004.812c-.21-.27-.441-.46-.693-.567a2.068 2.068 0 0 0-.819-.161c-.588 0-1.048.216-1.379.648-.331.431-.497 1.07-.497 1.914 0 .439.037.813.112 1.124.075.31.182.563.322.759.14.196.31.338.511.427.2.089.427.133.679.133.383 0 .713-.083.99-.249.278-.165.536-.4.774-.703v-3.325zm1.505-4.977V116h-.91c-.2 0-.329-.096-.385-.287l-.133-.777c-.299.35-.638.632-1.019.847-.38.215-.822.322-1.326.322-.401 0-.765-.08-1.092-.242a2.35 2.35 0 0 1-.84-.703 3.408 3.408 0 0 1-.543-1.145 5.776 5.776 0 0 1-.192-1.564c0-.532.071-1.024.214-1.477.142-.453.346-.846.612-1.18.266-.333.59-.594.97-.784.38-.189.806-.283 1.277-.283.42 0 .777.066 1.071.2.294.133.558.318.791.556v-3.843h1.505zm8.407 3.108c.527 0 1.004.086 1.431.259a3.07 3.07 0 0 1 1.092.735c.302.317.534.702.697 1.155.163.453.245.961.245 1.526 0 .565-.082 1.073-.245 1.526a3.299 3.299 0 0 1-.697 1.159c-.3.32-.664.565-1.091.738a3.787 3.787 0 0 1-1.432.259 3.807 3.807 0 0 1-1.439-.259 3.081 3.081 0 0 1-1.095-.739 3.272 3.272 0 0 1-.7-1.158 4.474 4.474 0 0 1-.245-1.526c0-.565.082-1.073.245-1.526.163-.453.397-.838.7-1.155a3.104 3.104 0 0 1 1.095-.735 3.807 3.807 0 0 1 1.439-.259zm0 6.181c.644 0 1.123-.216 1.438-.647.316-.432.473-1.05.473-1.852 0-.803-.157-1.422-.473-1.859-.315-.436-.794-.654-1.438-.654-.653 0-1.139.218-1.456.654-.317.437-.476 1.056-.476 1.859 0 .803.159 1.42.476 1.852.317.431.803.647 1.456.647zm10.927-6.069V116h-.91c-.2 0-.329-.096-.385-.287l-.112-.665c-.15.159-.307.303-.473.434-.165.13-.341.243-.528.336a2.81 2.81 0 0 1-1.281.294c-.392 0-.737-.065-1.036-.196a2.057 2.057 0 0 1-.753-.553 2.382 2.382 0 0 1-.458-.858 3.736 3.736 0 0 1-.154-1.102v-4.543h1.505v4.543c0 .48.11.854.332 1.12.222.266.56.399 1.012.399.331 0 .64-.076.928-.227.287-.152.556-.361.808-.627v-5.208h1.505zm4.123 7.252c-.593 0-1.049-.167-1.369-.5-.32-.334-.479-.804-.479-1.411v-4.158h-.784a.317.317 0 0 1-.217-.08c-.06-.054-.091-.135-.091-.242v-.609l1.155-.168.329-2.065a.398.398 0 0 1 .119-.193.328.328 0 0 1 .224-.073h.77v2.345h1.981v1.085h-1.981v4.053c0 .257.063.453.189.588a.656.656 0 0 0 .504.203.888.888 0 0 0 .301-.046c.084-.03.156-.062.217-.097.06-.036.113-.068.157-.099a.23.23 0 0 1 .13-.045c.084 0 .152.047.203.14l.448.735a2.442 2.442 0 0 1-.826.472 2.98 2.98 0 0 1-.98.165zm7.819-6.405a3.79 3.79 0 0 1 .966-.697c.35-.175.758-.262 1.225-.262.392 0 .736.065 1.032.196.297.13.546.315.75.553.203.238.355.524.458.857.103.334.154.702.154 1.103V116h-1.498v-4.543c0-.48-.11-.854-.332-1.12-.222-.266-.56-.399-1.012-.399-.336 0-.647.077-.935.231a3.205 3.205 0 0 0-.808.63V116h-1.505v-10.36h1.505v4.067zm9.436-.959c.527 0 1.004.086 1.431.259a3.07 3.07 0 0 1 1.092.735c.302.317.534.702.697 1.155.163.453.245.961.245 1.526 0 .565-.082 1.073-.245 1.526a3.299 3.299 0 0 1-.697 1.158c-.3.32-.664.566-1.091.739a3.787 3.787 0 0 1-1.432.259 3.807 3.807 0 0 1-1.439-.259 3.081 3.081 0 0 1-1.095-.739 3.272 3.272 0 0 1-.7-1.158 4.474 4.474 0 0 1-.245-1.526c0-.565.082-1.073.245-1.526.163-.453.397-.838.7-1.155a3.104 3.104 0 0 1 1.096-.735 3.807 3.807 0 0 1 1.438-.259zm0 6.181c.644 0 1.123-.216 1.438-.648.316-.431.473-1.048.473-1.851 0-.803-.157-1.422-.473-1.859-.315-.436-.794-.654-1.438-.654-.653 0-1.139.218-1.456.654-.317.437-.476 1.056-.476 1.859 0 .803.159 1.42.476 1.851.317.432.803.648 1.456.648zm14.938-6.069l-2.289 7.14h-1.197c-.14 0-.238-.091-.294-.273l-1.421-4.445a7.553 7.553 0 0 1-.182-.749 8.946 8.946 0 0 1-.189.756l-1.442 4.438c-.051.182-.161.273-.329.273h-1.141l-2.289-7.14h1.19c.117 0 .214.03.29.087a.4.4 0 0 1 .151.207l1.19 4.158a12.178 12.178 0 0 1 .217 1.092c.047-.177.096-.356.147-.535l.161-.557 1.337-4.179a.377.377 0 0 1 .144-.206.428.428 0 0 1 .262-.081h.658c.107 0 .198.027.273.08a.372.372 0 0 1 .147.207l1.302 4.179c.056.191.108.378.158.56.048.182.094.364.136.546.033-.177.068-.357.105-.539.037-.182.082-.371.133-.567l1.211-4.158a.427.427 0 0 1 .154-.21.442.442 0 0 1 .273-.084h1.134zm10.129-1.218a.618.618 0 0 1-.161.185.354.354 0 0 1-.21.06.545.545 0 0 1-.298-.112 5.832 5.832 0 0 0-.406-.249 3.56 3.56 0 0 0-.57-.251 2.373 2.373 0 0 0-.784-.116c-.28 0-.526.035-.738.105-.213.07-.391.168-.536.294a1.212 1.212 0 0 0-.326.444c-.072.17-.108.356-.108.557 0 .257.068.47.203.64.135.17.314.317.535.438.222.121.475.227.76.319.285.09.575.187.871.29.297.103.587.22.872.35.285.13.538.296.76.497.221.2.4.446.535.735.135.29.203.642.203 1.057 0 .448-.077.868-.231 1.26a2.968 2.968 0 0 1-.669 1.026 3.113 3.113 0 0 1-1.078.689 3.963 3.963 0 0 1-1.459.252c-.322 0-.636-.031-.942-.095a4.88 4.88 0 0 1-.875-.265 4.38 4.38 0 0 1-.78-.417 3.918 3.918 0 0 1-.651-.546l.476-.784a.462.462 0 0 1 .161-.154.43.43 0 0 1 .217-.056c.107 0 .226.05.357.15.13.1.288.21.472.33.185.119.408.228.669.328.261.1.574.151.938.151.593 0 1.051-.145 1.375-.434.325-.29.487-.688.487-1.197 0-.285-.068-.517-.203-.697a1.649 1.649 0 0 0-.536-.451 3.847 3.847 0 0 0-.759-.308 32.877 32.877 0 0 1-.868-.27 8.541 8.541 0 0 1-.868-.335 2.763 2.763 0 0 1-.76-.504 2.334 2.334 0 0 1-.535-.77c-.135-.306-.203-.688-.203-1.145a2.716 2.716 0 0 1 .836-1.963c.274-.264.61-.475 1.012-.634a3.709 3.709 0 0 1 1.372-.238c.579 0 1.11.091 1.592.273.484.182.9.441 1.25.777l-.399.784zm4.375 8.47c-.593 0-1.049-.167-1.368-.5-.32-.334-.48-.804-.48-1.411v-4.158h-.784a.317.317 0 0 1-.217-.08c-.06-.054-.091-.135-.091-.242v-.609l1.155-.168.329-2.065a.398.398 0 0 1 .119-.193.328.328 0 0 1 .224-.073h.77v2.345h1.981v1.085h-1.981v4.053c0 .257.063.453.189.588a.656.656 0 0 0 .504.203.888.888 0 0 0 .301-.046c.084-.03.156-.062.217-.098.06-.035.113-.067.157-.098a.23.23 0 0 1 .13-.045c.084 0 .152.047.203.14l.448.735a2.442 2.442 0 0 1-.826.472 2.98 2.98 0 0 1-.98.165zm6.643-3.234a9.52 9.52 0 0 0-1.358.13 3.855 3.855 0 0 0-.896.258c-.229.106-.393.23-.493.375a.817.817 0 0 0-.151.476c0 .168.027.311.08.43a.784.784 0 0 0 .225.294.911.911 0 0 0 .336.168c.128.036.269.053.423.053.392 0 .73-.073 1.012-.22.282-.148.556-.361.822-.641v-1.323zm-3.99-3.024c.807-.751 1.769-1.127 2.884-1.127.41 0 .776.066 1.095.2.32.133.588.32.805.563.218.243.383.53.498.865.114.333.171.703.171 1.109V116h-.672a.655.655 0 0 1-.329-.066c-.075-.045-.138-.135-.189-.27l-.147-.581c-.182.163-.362.31-.539.437a3.4 3.4 0 0 1-.55.326 2.701 2.701 0 0 1-.609.2 3.591 3.591 0 0 1-.717.066c-.29 0-.559-.04-.809-.119-.25-.08-.465-.2-.647-.36a1.705 1.705 0 0 1-.43-.599 2.067 2.067 0 0 1-.158-.84c0-.275.073-.544.22-.805.148-.261.39-.496.728-.704.339-.207.784-.379 1.337-.514.554-.135 1.236-.212 2.048-.231v-.476c0-.513-.11-.896-.329-1.148-.22-.252-.541-.378-.966-.378-.29 0-.532.036-.728.108-.196.073-.366.151-.511.235a9.608 9.608 0 0 0-.385.234.647.647 0 0 1-.357.109.428.428 0 0 1-.263-.08.666.666 0 0 1-.178-.2l-.273-.49zm8.617-.049c.154-.159.314-.302.48-.43.165-.129.341-.24.528-.333.187-.093.385-.166.595-.217.21-.051.439-.077.686-.077.392 0 .736.065 1.032.196.297.13.546.315.75.553.203.238.355.524.458.857.103.334.154.702.154 1.103V116h-1.498v-4.543c0-.48-.11-.854-.333-1.12-.221-.266-.558-.399-1.011-.399-.336 0-.647.077-.935.231a3.205 3.205 0 0 0-.808.63V116h-1.505v-7.14h.91c.205 0 .336.096.392.287l.105.658zm11.004.812c-.21-.27-.441-.46-.693-.567a2.068 2.068 0 0 0-.819-.161c-.588 0-1.048.216-1.379.647-.331.432-.497 1.07-.497 1.915 0 .439.037.813.112 1.123.075.31.182.564.322.76.14.196.31.338.511.427.2.089.427.133.679.133.383 0 .713-.083.99-.249.278-.165.536-.4.774-.703v-3.325zm1.505-4.977V116h-.91c-.2 0-.329-.096-.385-.287l-.133-.777c-.299.35-.638.632-1.019.847-.38.215-.822.322-1.326.322-.401 0-.765-.08-1.092-.242a2.35 2.35 0 0 1-.84-.703 3.408 3.408 0 0 1-.543-1.145 5.776 5.776 0 0 1-.192-1.564c0-.532.071-1.024.214-1.477.142-.453.346-.846.612-1.18.266-.333.59-.594.97-.784.38-.189.806-.283 1.277-.283.42 0 .777.066 1.071.2.294.133.558.318.791.556v-3.843h1.505zm5.649 7.238a9.52 9.52 0 0 0-1.358.13 3.855 3.855 0 0 0-.896.258c-.229.106-.393.23-.494.375a.817.817 0 0 0-.15.476c0 .168.027.311.08.43a.784.784 0 0 0 .224.294.911.911 0 0 0 .336.168c.129.036.27.053.424.053.392 0 .73-.073 1.011-.22.283-.148.557-.361.823-.641v-1.323zm-3.99-3.024c.807-.751 1.769-1.127 2.884-1.127.41 0 .776.066 1.095.2.32.133.588.32.805.563.218.243.383.53.497.864.115.334.172.704.172 1.11V116h-.672a.655.655 0 0 1-.329-.067c-.075-.044-.138-.134-.189-.269l-.147-.581c-.182.163-.362.31-.539.437a3.4 3.4 0 0 1-.55.326 2.701 2.701 0 0 1-.609.2 3.591 3.591 0 0 1-.717.066c-.29 0-.559-.04-.809-.119-.25-.08-.465-.2-.647-.36a1.705 1.705 0 0 1-.43-.599 2.067 2.067 0 0 1-.158-.84c0-.275.073-.544.22-.805.148-.261.39-.496.728-.704.339-.207.784-.379 1.337-.514.554-.135 1.236-.212 2.048-.231v-.476c0-.513-.11-.896-.329-1.148-.22-.252-.541-.378-.966-.378-.29 0-.532.036-.728.108-.196.073-.366.151-.511.235a9.608 9.608 0 0 0-.385.234.647.647 0 0 1-.357.109.428.428 0 0 1-.263-.08.666.666 0 0 1-.178-.2l-.273-.49zm8.631.329c.224-.453.495-.808.812-1.068a1.747 1.747 0 0 1 1.141-.388c.154 0 .299.017.434.052.135.036.257.088.364.158l-.105 1.134c-.019.08-.048.134-.088.164a.253.253 0 0 1-.157.046c-.07 0-.17-.013-.301-.039a2.14 2.14 0 0 0-.413-.038c-.21 0-.395.03-.557.091-.16.06-.305.15-.434.266a1.79 1.79 0 0 0-.339.427c-.098.168-.189.36-.273.574V116h-1.505v-7.14h.875c.159 0 .268.03.329.087.06.059.103.16.126.305l.091.931zm8.302.434c-.21-.27-.441-.46-.693-.567a2.068 2.068 0 0 0-.819-.161c-.588 0-1.048.216-1.379.647-.331.432-.497 1.07-.497 1.915 0 .439.037.813.112 1.123.075.31.182.564.322.76.14.196.31.338.511.427.2.089.427.133.679.133.383 0 .713-.083.99-.249.278-.165.536-.4.774-.703v-3.325zm1.505-4.977V116h-.91c-.2 0-.329-.096-.385-.287l-.133-.777c-.299.35-.638.632-1.019.847-.38.215-.822.322-1.326.322-.401 0-.765-.08-1.092-.242a2.35 2.35 0 0 1-.84-.703 3.408 3.408 0 0 1-.543-1.145 5.776 5.776 0 0 1-.192-1.564c0-.532.071-1.024.213-1.477.143-.453.347-.846.613-1.18.266-.333.59-.594.97-.784.38-.189.806-.283 1.277-.283.42 0 .777.066 1.071.2.294.133.558.318.791.556v-3.843h1.505zm6.097 4.515a.374.374 0 0 1-.126.14.335.335 0 0 1-.175.042.563.563 0 0 1-.259-.074 10.752 10.752 0 0 0-.329-.164 2.839 2.839 0 0 0-.445-.165 2.176 2.176 0 0 0-.598-.073c-.187 0-.356.022-.508.066-.151.045-.28.108-.385.19a.855.855 0 0 0-.241.286.766.766 0 0 0-.084.354c0 .168.051.308.154.42.103.112.238.209.406.29.168.082.36.156.574.221.215.065.434.135.658.21.224.075.443.161.658.259.215.098.406.218.574.36.168.143.303.315.406.518.103.204.154.45.154.739 0 .336-.06.646-.182.931a2.09 2.09 0 0 1-.532.742c-.233.21-.524.373-.872.49a3.746 3.746 0 0 1-1.193.175 3.8 3.8 0 0 1-.718-.067 4.127 4.127 0 0 1-.658-.182 3.507 3.507 0 0 1-.58-.276 3.06 3.06 0 0 1-.48-.35l.35-.574a.485.485 0 0 1 .157-.165.432.432 0 0 1 .235-.059c.098 0 .195.031.29.094.096.064.208.132.336.207.129.075.284.143.466.206.182.064.408.095.679.095.224 0 .418-.027.581-.08.163-.054.299-.128.406-.221a.886.886 0 0 0 .315-.7.653.653 0 0 0-.154-.448 1.306 1.306 0 0 0-.41-.301 3.778 3.778 0 0 0-.58-.224 23.688 23.688 0 0 1-.662-.21 6.933 6.933 0 0 1-.661-.259 2.276 2.276 0 0 1-.582-.375 1.71 1.71 0 0 1-.409-.553 1.848 1.848 0 0 1-.154-.794 1.973 1.973 0 0 1 .676-1.491 2.45 2.45 0 0 1 .819-.466 3.374 3.374 0 0 1 1.123-.171c.48 0 .917.077 1.309.231.392.154.721.364.987.63l-.336.546zm6.755.028c.224-.453.495-.808.812-1.068a1.747 1.747 0 0 1 1.141-.388c.154 0 .299.017.434.052.135.036.257.088.364.158l-.105 1.134c-.019.08-.048.134-.088.164a.253.253 0 0 1-.157.046c-.07 0-.17-.013-.301-.039a2.14 2.14 0 0 0-.413-.038c-.21 0-.395.03-.557.091-.16.06-.305.15-.434.266a1.79 1.79 0 0 0-.339.427c-.098.168-.189.36-.273.574V116h-1.505v-7.14h.875c.159 0 .268.03.329.087.06.059.103.16.126.305l.091.931zm8.428 1.442c0-.252-.036-.486-.109-.704a1.647 1.647 0 0 0-.318-.567 1.452 1.452 0 0 0-.522-.378 1.773 1.773 0 0 0-.717-.136c-.546 0-.975.156-1.288.469-.313.313-.511.751-.595 1.316h3.549zm-3.591.924c.019.406.082.757.189 1.053.107.297.25.543.43.739.18.196.395.342.644.437.25.096.529.144.837.144.294 0 .548-.034.763-.102.215-.067.401-.142.56-.224.159-.081.294-.156.406-.224a.606.606 0 0 1 .308-.101c.121 0 .215.047.28.14l.427.553c-.177.21-.378.387-.602.532a3.508 3.508 0 0 1-.714.353 4.034 4.034 0 0 1-.777.196c-.266.04-.525.06-.777.06-.495 0-.953-.083-1.376-.249a3.059 3.059 0 0 1-1.099-.731 3.377 3.377 0 0 1-.728-1.197c-.175-.476-.262-1.024-.262-1.645 0-.495.078-.957.234-1.386a3.155 3.155 0 0 1 1.736-1.873c.418-.184.89-.276 1.418-.276.439 0 .845.071 1.218.213.373.143.695.352.966.627.27.275.482.612.633 1.011.152.4.228.853.228 1.362 0 .233-.026.39-.077.469-.051.08-.145.119-.28.119h-4.585zm7.875-6.909V116h-1.505v-10.36h1.505zm5.677 7.238a9.52 9.52 0 0 0-1.358.13 3.855 3.855 0 0 0-.896.258c-.229.106-.393.23-.493.375a.817.817 0 0 0-.151.476c0 .168.027.311.08.43a.784.784 0 0 0 .225.294.911.911 0 0 0 .336.168c.128.036.269.053.423.053.392 0 .73-.073 1.012-.22.282-.148.556-.361.822-.641v-1.323zm-3.99-3.024c.807-.751 1.769-1.127 2.884-1.127.41 0 .776.066 1.095.2.32.133.588.32.805.563.218.243.383.53.497.865.115.333.172.703.172 1.109V116h-.672a.655.655 0 0 1-.329-.066c-.075-.045-.138-.135-.189-.27l-.147-.581c-.182.163-.362.31-.539.437a3.4 3.4 0 0 1-.55.326 2.701 2.701 0 0 1-.609.2 3.591 3.591 0 0 1-.717.066c-.29 0-.559-.04-.809-.119-.25-.08-.465-.2-.647-.36a1.705 1.705 0 0 1-.43-.599 2.067 2.067 0 0 1-.158-.84c0-.275.073-.544.22-.805.148-.261.39-.496.728-.704.339-.207.784-.379 1.337-.514.554-.135 1.236-.212 2.048-.231v-.476c0-.513-.11-.896-.329-1.148-.22-.252-.541-.378-.966-.378-.29 0-.532.036-.728.108-.196.073-.366.151-.511.235a9.608 9.608 0 0 0-.385.234.647.647 0 0 1-.357.109.428.428 0 0 1-.263-.08.666.666 0 0 1-.178-.2l-.273-.49zm9.499 6.258c-.593 0-1.049-.167-1.369-.5-.32-.334-.479-.804-.479-1.411v-4.158h-.784a.317.317 0 0 1-.217-.08c-.06-.054-.091-.135-.091-.242v-.609l1.155-.168.329-2.065a.398.398 0 0 1 .119-.193.328.328 0 0 1 .224-.073h.77v2.345h1.981v1.085h-1.981v4.053c0 .257.063.453.189.588a.656.656 0 0 0 .504.203.888.888 0 0 0 .301-.046c.084-.03.156-.062.217-.098.06-.035.113-.067.157-.098a.23.23 0 0 1 .13-.045c.084 0 .152.047.203.14l.448.735a2.442 2.442 0 0 1-.826.472 2.98 2.98 0 0 1-.98.165zm7.511-4.487c0-.252-.036-.486-.109-.704a1.647 1.647 0 0 0-.318-.567 1.452 1.452 0 0 0-.522-.378 1.773 1.773 0 0 0-.717-.136c-.546 0-.975.156-1.288.469-.313.313-.511.751-.595 1.316h3.549zm-3.591.924c.019.406.082.757.189 1.053.107.297.25.543.43.739.18.196.395.342.644.437.25.096.529.144.837.144.294 0 .548-.034.763-.102.215-.067.401-.142.56-.224.159-.081.294-.156.406-.224a.606.606 0 0 1 .308-.101c.121 0 .215.047.28.14l.427.553c-.177.21-.378.387-.602.532a3.508 3.508 0 0 1-.714.353 4.034 4.034 0 0 1-.777.196c-.266.04-.525.06-.777.06-.495 0-.953-.083-1.376-.249a3.059 3.059 0 0 1-1.099-.731 3.377 3.377 0 0 1-.728-1.197c-.175-.476-.262-1.024-.262-1.645 0-.495.078-.957.234-1.386a3.155 3.155 0 0 1 1.736-1.873c.418-.184.89-.276 1.418-.276.439 0 .845.071 1.218.213.373.143.695.352.966.627.27.275.482.612.633 1.011.152.4.228.853.228 1.362 0 .233-.026.39-.077.469-.051.08-.145.119-.28.119h-4.585zm10.605-2.394a.374.374 0 0 1-.126.14.335.335 0 0 1-.175.042.563.563 0 0 1-.259-.074 10.752 10.752 0 0 0-.329-.164 2.839 2.839 0 0 0-.445-.165 2.176 2.176 0 0 0-.598-.073c-.187 0-.356.022-.508.066-.151.045-.28.108-.385.19a.855.855 0 0 0-.241.286.766.766 0 0 0-.084.354c0 .168.051.308.154.42.103.112.238.209.406.29.168.082.36.156.574.221.215.065.434.135.658.21.224.075.443.161.658.259.215.098.406.218.574.36.168.143.303.315.406.518.103.204.154.45.154.739 0 .336-.06.646-.182.931a2.09 2.09 0 0 1-.532.742c-.233.21-.524.373-.872.49a3.746 3.746 0 0 1-1.193.175 3.8 3.8 0 0 1-.718-.067 4.127 4.127 0 0 1-.658-.182 3.507 3.507 0 0 1-.58-.276 3.06 3.06 0 0 1-.48-.35l.35-.574a.485.485 0 0 1 .157-.165.432.432 0 0 1 .235-.059c.098 0 .195.031.29.094.096.064.208.132.336.207.129.075.284.143.466.206.182.064.408.095.679.095.224 0 .418-.027.581-.08.163-.054.299-.128.406-.221a.886.886 0 0 0 .315-.7.653.653 0 0 0-.154-.448 1.306 1.306 0 0 0-.41-.301 3.778 3.778 0 0 0-.58-.224 23.688 23.688 0 0 1-.662-.21 6.933 6.933 0 0 1-.662-.259 2.276 2.276 0 0 1-.58-.375 1.71 1.71 0 0 1-.41-.553 1.848 1.848 0 0 1-.154-.794 1.973 1.973 0 0 1 .676-1.491 2.45 2.45 0 0 1 .818-.466 3.374 3.374 0 0 1 1.124-.171c.48 0 .917.077 1.309.231.392.154.721.364.987.63l-.336.546zm7.623 5.957c-.593 0-1.049-.167-1.369-.5-.32-.334-.479-.804-.479-1.411v-4.158h-.784a.317.317 0 0 1-.217-.08c-.06-.054-.091-.135-.091-.242v-.609l1.155-.168.329-2.065a.398.398 0 0 1 .119-.193.328.328 0 0 1 .224-.073h.77v2.345h1.981v1.085h-1.981v4.053c0 .257.063.453.189.588a.656.656 0 0 0 .504.203.888.888 0 0 0 .301-.046c.084-.03.156-.062.217-.098.06-.035.113-.067.157-.098a.23.23 0 0 1 .13-.045c.084 0 .152.047.203.14l.448.735a2.442 2.442 0 0 1-.826.472 2.98 2.98 0 0 1-.98.165zm5.915-7.364c.527 0 1.004.086 1.431.259a3.07 3.07 0 0 1 1.092.735c.302.317.534.702.697 1.155.163.453.245.961.245 1.526 0 .565-.082 1.073-.245 1.526a3.299 3.299 0 0 1-.697 1.158c-.3.32-.664.566-1.092.739a3.787 3.787 0 0 1-1.431.259 3.807 3.807 0 0 1-1.439-.259 3.081 3.081 0 0 1-1.095-.739 3.272 3.272 0 0 1-.7-1.158 4.474 4.474 0 0 1-.245-1.526c0-.565.082-1.073.245-1.526.163-.453.397-.838.7-1.155a3.104 3.104 0 0 1 1.095-.735 3.807 3.807 0 0 1 1.439-.259zm0 6.181c.644 0 1.123-.216 1.438-.648.316-.431.473-1.048.473-1.851 0-.803-.157-1.422-.473-1.859-.315-.436-.794-.654-1.438-.654-.653 0-1.139.218-1.456.654-.317.437-.476 1.056-.476 1.859 0 .803.159 1.42.476 1.851.317.432.803.648 1.456.648zm14.728-6.069l-3.934 9.17a.738.738 0 0 1-.186.252c-.072.06-.183.091-.332.091h-1.113l1.316-2.856-2.912-6.657h1.309c.126 0 .223.03.29.087a.543.543 0 0 1 .151.207l1.701 4.053a7.534 7.534 0 0 1 .217.7l.112-.357c.037-.117.08-.233.126-.35l1.631-4.046a.464.464 0 0 1 .42-.294h1.204zm4.06-.112c.527 0 1.004.086 1.431.259a3.07 3.07 0 0 1 1.092.735c.302.317.534.702.697 1.155.163.453.245.961.245 1.526 0 .565-.082 1.073-.245 1.526a3.299 3.299 0 0 1-.697 1.158c-.3.32-.664.566-1.092.739a3.787 3.787 0 0 1-1.431.259 3.807 3.807 0 0 1-1.439-.259 3.081 3.081 0 0 1-1.095-.739 3.272 3.272 0 0 1-.7-1.158 4.474 4.474 0 0 1-.245-1.526c0-.565.082-1.073.245-1.526.163-.453.397-.838.7-1.155a3.104 3.104 0 0 1 1.095-.735 3.807 3.807 0 0 1 1.439-.259zm0 6.181c.644 0 1.123-.216 1.438-.648.316-.431.473-1.048.473-1.851 0-.803-.157-1.422-.473-1.859-.315-.436-.794-.654-1.438-.654-.653 0-1.139.218-1.456.654-.317.437-.476 1.056-.476 1.859 0 .803.159 1.42.476 1.851.317.432.803.648 1.456.648zm10.927-6.069V116h-.91c-.2 0-.329-.096-.385-.287l-.112-.665c-.15.159-.307.303-.473.434-.165.13-.341.243-.528.336a2.81 2.81 0 0 1-1.281.294c-.392 0-.737-.065-1.036-.196a2.057 2.057 0 0 1-.753-.553 2.382 2.382 0 0 1-.458-.858 3.736 3.736 0 0 1-.154-1.102v-4.543h1.505v4.543c0 .48.11.854.332 1.12.222.266.56.399 1.012.399.331 0 .64-.076.927-.228.288-.151.557-.36.809-.626v-5.208h1.505zm1.603 6.272a.992.992 0 0 1 .276-.693.95.95 0 0 1 .69-.287.99.99 0 0 1 .903.598.953.953 0 0 1 .077.382.945.945 0 0 1-.287.693.944.944 0 0 1-.312.206.992.992 0 0 1-.381.074.992.992 0 0 1-.382-.074.906.906 0 0 1-.308-.206.982.982 0 0 1-.276-.693zM655.948 119.234H417.613v-.672h238.335z"/></g></g></svg>