<svg xmlns="http://www.w3.org/2000/svg" xmlns:xlink="http://www.w3.org/1999/xlink" width="16" height="16" viewBox="0 0 16 16">
  <defs>
    <path id="cloud-circle-a" d="M8,0.888888844 C4.07111109,0.888888844 0.888888844,4.07111109 0.888888844,8 C0.888888844,11.9288889 4.07111109,15.1111112 8,15.1111112 C11.9288889,15.1111112 15.1111112,11.9288889 15.1111112,8 C15.1111112,4.07111109 11.9288889,0.888888844 8,0.888888844 Z M11.1111111,10.6666667 L5.33333332,10.6666667 C4.10666664,10.6666667 3.11111108,9.67111112 3.11111108,8.44444442 C3.11111108,7.21777777 4.10666664,6.22222221 5.33333332,6.22222221 L5.49333332,6.22222221 C5.86666665,5.19111109 6.84444444,4.44444442 8,4.44444442 C9.47555556,4.44444442 10.6666667,5.63555554 10.6666667,7.11111111 L11.1111111,7.11111111 C12.0888889,7.11111111 12.8888889,7.91111111 12.8888889,8.88888889 C12.8888889,9.86666668 12.0888889,10.6666667 11.1111111,10.6666667 Z"/>
  </defs>
  <g fill="none" fill-rule="evenodd">
    <mask id="cloud-circle-b" fill="#fff">
      <use xlink:href="#cloud-circle-a"/>
    </mask>
    <g fill="CurrentColor" mask="url(#cloud-circle-b)">
      <rect width="16" height="16"/>
    </g>
  </g>
</svg>
