<svg xmlns="http://www.w3.org/2000/svg" xmlns:xlink="http://www.w3.org/1999/xlink" width="16" height="16" viewBox="0 0 16 16">
  <defs>
    <path id="cloud-download-a" d="M12.9,6.69333333 C12.4466667,4.39333331 10.4266667,2.66666663 7.99999995,2.66666663 C6.07333332,2.66666663 4.39999998,3.75999997 3.56666664,5.35999998 C1.55999996,5.57333332 -5.00000006e-08,7.27333333 -5.00000006e-08,9.33333334 C-5.00000006e-08,11.54 1.79333329,13.3333334 3.99999995,13.3333334 L12.6666667,13.3333334 C14.5066667,13.3333334 15.9999999,11.84 15.9999999,10 C15.9999999,8.24 14.6333334,6.81333333 12.9,6.69333333 Z M11.3333334,8.66666667 L8,12 L4.66666665,8.66666667 L6.66666665,8.66666667 L6.66666665,5.99999999 L9.33333334,5.99999999 L9.33333334,8.66666667 L11.3333334,8.66666667 Z"/>
  </defs>
  <g fill="none" fill-rule="evenodd">
    <mask id="cloud-download-b" fill="#fff">
      <use xlink:href="#cloud-download-a"/>
    </mask>
    <g fill="CurrentColor" mask="url(#cloud-download-b)">
      <rect width="16" height="16"/>
    </g>
  </g>
</svg>
