<svg xmlns="http://www.w3.org/2000/svg" xmlns:xlink="http://www.w3.org/1999/xlink" width="16" height="16" viewBox="0 0 16 16">
  <defs>
    <path id="cloud-off-a" d="M12.9,6.69333333 C12.4466667,4.39333331 10.4266667,2.66666663 8,2.66666663 C7.01333333,2.66666663 6.09999999,2.9533333 5.32666665,3.44666664 L6.29999999,4.41999998 C6.80666666,4.15333331 7.38666666,3.99999997 8,3.99999997 C10.0266667,3.99999997 11.6666667,5.63999999 11.6666667,7.66666663 L11.6666667,8 L12.6666667,8 C13.7733334,8 14.6666667,8.89333334 14.6666667,10 C14.6666667,10.7533334 14.24,11.4066667 13.6266667,11.7466667 L14.5933334,12.7133334 C15.44,12.1066667 16.0000001,11.12 16.0000001,10 C16.0000001,8.24 14.6333334,6.81333333 12.9,6.69333333 Z M1.99999995,3.51333331 L3.83333331,5.33999998 C1.70666663,5.43333332 -5.00000006e-08,7.17999999 -5.00000006e-08,9.33333334 C-5.00000006e-08,11.54 1.79333329,13.3333334 3.99999995,13.3333334 L11.82,13.3333334 L13.1533334,14.6666666 L13.9999999,13.82 L2.84666663,2.66666663 L1.99999995,3.51333331 Z M5.15333332,6.66666666 L10.4866667,12 L3.99999997,12 C2.52666663,12 1.33333329,10.8066667 1.33333329,9.33333334 C1.33333329,7.86 2.52666663,6.66666666 3.99999997,6.66666666 L5.15333332,6.66666666 Z"/>
  </defs>
  <g fill="none" fill-rule="evenodd">
    <mask id="cloud-off-b" fill="#fff">
      <use xlink:href="#cloud-off-a"/>
    </mask>
    <g fill="CurrentColor" mask="url(#cloud-off-b)">
      <rect width="16" height="16"/>
    </g>
  </g>
</svg>
