<svg xmlns="http://www.w3.org/2000/svg" xmlns:xlink="http://www.w3.org/1999/xlink" width="16" height="16" viewBox="0 0 16 16">
  <defs>
    <path id="create-new-folder-a" d="M13.3333333,3.99999997 L8,3.99999997 L6.66666666,2.66666663 L2.66666663,2.66666663 C1.92666663,2.66666663 1.33999996,3.25999997 1.33999996,3.99999997 L1.33333329,12 C1.33333329,12.74 1.92666663,13.3333334 2.66666663,13.3333334 L13.3333333,13.3333334 C14.0733334,13.3333334 14.6666667,12.74 14.6666667,12 L14.6666667,5.33333332 C14.6666667,4.59333331 14.0733334,3.99999997 13.3333333,3.99999997 Z M12.6666667,9.33333334 L10.6666667,9.33333334 L10.6666667,11.3333334 L9.33333333,11.3333334 L9.33333333,9.33333334 L7.33333333,9.33333334 L7.33333333,7.99999999 L9.33333333,7.99999999 L9.33333333,5.99999999 L10.6666667,5.99999999 L10.6666667,7.99999999 L12.6666667,7.99999999 L12.6666667,9.33333334 Z"/>
  </defs>
  <g fill="none" fill-rule="evenodd">
    <mask id="create-new-folder-b" fill="#fff">
      <use xlink:href="#create-new-folder-a"/>
    </mask>
    <g fill="CurrentColor" mask="url(#create-new-folder-b)">
      <rect width="16" height="16"/>
    </g>
  </g>
</svg>
