<svg viewBox="0 0 726 485" xmlns="http://www.w3.org/2000/svg" xmlns:xlink="http://www.w3.org/1999/xlink"><defs><path id="b" d="M0 0h60v370H0z"/><filter x="-22.5%" y="-2.8%" width="145%" height="107.3%" filterUnits="objectBoundingBox" id="a"><feOffset dy="3" in="SourceAlpha" result="shadowOffsetOuter1"/><feGaussianBlur stdDeviation="4" in="shadowOffsetOuter1" result="shadowBlurOuter1"/><feColorMatrix values="0 0 0 0 0 0 0 0 0 0 0 0 0 0 0 0 0 0 0.169088724 0" in="shadowBlurOuter1"/></filter></defs><g fill="none" fill-rule="evenodd"><path stroke="#B8C7D2" fill="#FFF" d="M.5.5h725v449H.5z"/><path fill="#B8C7D2" d="M394 119.5h31v1h-31z"/><path fill="#B8C7D2" d="M424 69.5h1v150h-1z"/><path fill="#B8C7D2" d="M424 142.5h71v1h-71z"/><circle fill="#3E5667" cx="394" cy="120" r="3"/><path fill="#B8C7D2" d="M394 68.5h31v1h-31z"/><circle fill="#3E5667" cx="394" cy="69" r="3"/><path fill="#B8C7D2" d="M394 218.5h31v1h-31z"/><circle fill="#3E5667" cx="394" cy="219" r="3"/><path fill="#B8C7D2" d="M394 169.5h31v1h-31z"/><circle fill="#3E5667" cx="394" cy="170" r="3"/><path fill="#B8C7D2" d="M301 320.5h31v1h-31z"/><path fill="#B8C7D2" d="M301 320.5h1v62h-1z"/><path fill="#B8C7D2" d="M231 350.5h71v1h-71z"/><circle fill="#3E5667" cx="333" cy="321" r="3"/><path fill="#B8C7D2" d="M301 381.5h31v1h-31z"/><circle fill="#3E5667" cx="333" cy="382" r="3"/><path d="M536.532 144.22l-1.386-3.682a10.194 10.194 0 0 1-.343-1.085c-.051.22-.107.421-.168.606-.06.184-.117.346-.168.486l-1.386 3.675h3.451zm3.101 3.78h-1.267a.536.536 0 0 1-.35-.108.705.705 0 0 1-.203-.27l-.84-2.226h-4.34l-.84 2.226a.67.67 0 0 1-.196.259.522.522 0 0 1-.35.119h-1.267l3.997-10.08h1.659l3.997 10.08zm2.401-1.792c.21.27.44.46.69.57.25.11.526.165.829.165.588 0 1.046-.215 1.375-.644.33-.43.494-1.069.494-1.918 0-.439-.037-.813-.112-1.123a2.173 2.173 0 0 0-.322-.76 1.241 1.241 0 0 0-.511-.427 1.663 1.663 0 0 0-.679-.133c-.383 0-.713.083-.99.249a2.811 2.811 0 0 0-.774.71v3.311zm-.077-4.312c.299-.35.638-.632 1.018-.847.38-.215.823-.322 1.327-.322.401 0 .765.08 1.092.241.327.162.607.396.84.704.233.308.414.69.542 1.144.129.456.193.977.193 1.565 0 .527-.071 1.018-.214 1.473a3.6 3.6 0 0 1-.612 1.183 2.855 2.855 0 0 1-.966.784 2.825 2.825 0 0 1-1.281.284c-.42 0-.776-.068-1.067-.203a2.764 2.764 0 0 1-.795-.56v3.031h-1.505v-9.513h.91c.205 0 .336.096.392.287l.126.749zm7.98 4.312c.21.27.44.46.69.57.25.11.526.165.829.165.588 0 1.046-.215 1.375-.644.33-.43.494-1.069.494-1.918 0-.439-.037-.813-.112-1.123a2.173 2.173 0 0 0-.322-.76 1.241 1.241 0 0 0-.511-.427 1.663 1.663 0 0 0-.679-.133c-.383 0-.713.083-.99.249a2.811 2.811 0 0 0-.774.71v3.311zm-.077-4.312c.299-.35.638-.632 1.019-.847.38-.215.822-.322 1.326-.322.401 0 .765.08 1.092.241.327.162.607.396.84.704.233.308.414.69.543 1.144.128.456.192.977.192 1.565 0 .527-.071 1.018-.213 1.473a3.6 3.6 0 0 1-.613 1.183 2.855 2.855 0 0 1-.966.784 2.825 2.825 0 0 1-1.281.284c-.42 0-.776-.068-1.067-.203a2.764 2.764 0 0 1-.795-.56v3.031h-1.505v-9.513h.91c.205 0 .336.096.392.287l.126.749zm18.585-3.976V148h-.833a.714.714 0 0 1-.322-.066.753.753 0 0 1-.252-.221l-5.537-7.112a7.995 7.995 0 0 1 .042.77V148h-1.442v-10.08h.854c.07 0 .13.003.178.01.05.008.095.02.137.039a.397.397 0 0 1 .119.084c.037.037.077.084.119.14l5.544 7.119a9.206 9.206 0 0 1-.042-.819v-6.573h1.435zm5.936 6.958a9.52 9.52 0 0 0-1.358.13 3.855 3.855 0 0 0-.896.258c-.229.106-.393.23-.493.375a.817.817 0 0 0-.151.476c0 .168.027.311.08.43a.784.784 0 0 0 .225.295.911.911 0 0 0 .336.168c.128.035.269.052.423.052.392 0 .73-.073 1.012-.22.282-.148.556-.361.822-.641v-1.323zm-3.99-3.024c.807-.751 1.769-1.127 2.884-1.127.41 0 .776.066 1.096.2.32.133.587.32.805.563.217.243.382.53.497.864.114.334.171.704.171 1.11V148h-.672a.655.655 0 0 1-.329-.067c-.075-.044-.138-.134-.189-.269l-.147-.581c-.182.163-.362.31-.539.438a3.4 3.4 0 0 1-.55.325 2.701 2.701 0 0 1-.608.2 3.591 3.591 0 0 1-.718.066c-.29 0-.559-.04-.808-.119-.25-.08-.466-.2-.648-.36a1.705 1.705 0 0 1-.43-.599 2.068 2.068 0 0 1-.158-.84c0-.275.073-.544.22-.805.148-.261.39-.496.728-.704.339-.207.784-.379 1.337-.514.554-.135 1.236-.212 2.048-.231v-.476c0-.513-.11-.896-.329-1.148-.22-.252-.541-.378-.966-.378-.29 0-.532.036-.728.109-.196.072-.366.15-.511.234a9.607 9.607 0 0 0-.385.234.647.647 0 0 1-.357.109.428.428 0 0 1-.262-.08.666.666 0 0 1-.179-.2l-.273-.49zm13.496-.994l-2.87 7.14h-1.358l-2.87-7.14h1.239c.117 0 .213.03.29.087a.4.4 0 0 1 .151.207l1.582 4.158c.065.196.124.39.175.581.051.191.096.385.133.581.037-.196.083-.388.137-.578.053-.189.113-.383.178-.584l1.61-4.158a.427.427 0 0 1 .154-.21.442.442 0 0 1 .273-.084h1.176z" fill="#233745" fill-rule="nonzero"/><g transform="translate(502 134)"><rect fill="#3E5667" width="19.2" height="18.4" rx="9.2"/><text font-family="Lato-Heavy, Lato" font-size="9.6" font-weight="600" fill="#FFF"><tspan x="6.816" y="12.2">2</tspan></text></g><path d="M134.143 355h-1.645v-10.08h1.645V355zm3.521-6.195c.155-.159.314-.302.48-.43.166-.129.342-.24.528-.333.187-.093.385-.166.595-.217.21-.051.44-.077.686-.077.393 0 .737.065 1.033.196.296.13.546.315.749.553.203.238.356.524.458.858.103.333.154.7.154 1.102V355h-1.498v-4.543c0-.48-.11-.854-.332-1.12-.222-.266-.559-.399-1.012-.399-.336 0-.647.077-.934.231a3.205 3.205 0 0 0-.809.63V355h-1.505v-7.14h.91c.206 0 .336.096.392.287l.105.658zm11.004.812c-.21-.27-.44-.46-.693-.567a2.068 2.068 0 0 0-.819-.161c-.588 0-1.047.216-1.379.647-.33.432-.497 1.07-.497 1.915 0 .439.038.813.112 1.123.075.31.182.564.322.76.14.196.31.338.511.427.201.089.427.133.68.133.382 0 .712-.083.99-.249.278-.165.535-.4.773-.703v-3.325zm1.505-4.977V355h-.91c-.2 0-.328-.096-.385-.287l-.133-.777c-.298.35-.638.632-1.018.847-.38.215-.822.322-1.327.322-.4 0-.765-.08-1.092-.241a2.35 2.35 0 0 1-.84-.704 3.408 3.408 0 0 1-.542-1.144 5.776 5.776 0 0 1-.193-1.565c0-.532.072-1.024.214-1.477.142-.453.346-.846.613-1.18.266-.333.589-.594.969-.783.38-.19.806-.284 1.278-.284.42 0 .776.066 1.07.2.295.133.558.318.792.556v-3.843h1.505zm3.402 3.22V355h-1.505v-7.14h1.505zm.252-2.156a.941.941 0 0 1-.08.385 1.012 1.012 0 0 1-.22.319 1.074 1.074 0 0 1-.326.217.983.983 0 0 1-.777 0 1.01 1.01 0 0 1-.311-.217 1.075 1.075 0 0 1-.214-.319.941.941 0 0 1-.08-.385c0-.14.026-.27.08-.392.054-.121.125-.227.213-.318a1.01 1.01 0 0 1 .312-.217.983.983 0 0 1 .777 0c.124.053.232.125.325.217.094.09.167.197.221.318.054.121.08.252.08.392zm6.692 3.556a.778.778 0 0 1-.133.14.292.292 0 0 1-.182.049.459.459 0 0 1-.248-.084 6.252 6.252 0 0 0-.308-.185 2.018 2.018 0 0 0-1.06-.27c-.327 0-.613.058-.858.175-.245.117-.45.283-.616.5-.166.218-.29.481-.371.792-.082.31-.122.659-.122 1.046 0 .401.044.758.133 1.071.088.313.215.576.381.791.166.215.366.378.602.49.236.112.5.168.795.168.289 0 .524-.035.707-.105a2.17 2.17 0 0 0 .455-.231c.12-.084.225-.161.311-.231a.432.432 0 0 1 .277-.105c.12 0 .214.047.28.14l.427.553c-.173.21-.364.387-.574.532-.21.145-.432.262-.665.354a3.492 3.492 0 0 1-.728.195 4.9 4.9 0 0 1-.763.06 3.11 3.11 0 0 1-1.243-.248 2.902 2.902 0 0 1-1.008-.721 3.438 3.438 0 0 1-.679-1.155c-.166-.456-.248-.975-.248-1.558 0-.527.074-1.016.224-1.466.149-.45.367-.84.654-1.166a2.974 2.974 0 0 1 1.067-.767c.425-.184.915-.276 1.47-.276.519 0 .975.084 1.369.252.394.168.745.406 1.054.714l-.4.546zm5.488 2.618a9.52 9.52 0 0 0-1.358.13 3.855 3.855 0 0 0-.896.259c-.228.105-.393.23-.493.374a.817.817 0 0 0-.15.476c0 .168.026.311.08.43a.784.784 0 0 0 .224.295.911.911 0 0 0 .336.168c.128.035.27.052.423.052.393 0 .73-.073 1.012-.22.282-.148.556-.361.822-.641v-1.323zm-3.99-3.024c.808-.751 1.77-1.127 2.884-1.127.411 0 .776.066 1.096.2.32.133.588.32.805.563.217.243.383.53.497.864.114.334.172.704.172 1.11V355h-.672a.655.655 0 0 1-.33-.066c-.074-.045-.137-.135-.188-.27l-.147-.581c-.183.163-.362.31-.54.438a3.4 3.4 0 0 1-.549.325 2.701 2.701 0 0 1-.609.2 3.591 3.591 0 0 1-.717.066c-.29 0-.56-.04-.809-.119-.25-.08-.465-.2-.647-.36a1.705 1.705 0 0 1-.431-.599 2.068 2.068 0 0 1-.157-.84c0-.275.073-.544.22-.805.147-.261.39-.496.728-.703.338-.208.784-.38 1.337-.515.553-.135 1.235-.212 2.048-.231v-.476c0-.513-.11-.896-.33-1.148-.219-.252-.54-.378-.965-.378-.29 0-.532.036-.728.109-.197.072-.367.15-.511.234a9.607 9.607 0 0 0-.385.235.647.647 0 0 1-.357.108.428.428 0 0 1-.263-.08.666.666 0 0 1-.178-.2l-.273-.49zm9.5 6.258c-.593 0-1.05-.167-1.369-.5-.32-.334-.48-.804-.48-1.411v-4.158h-.784a.317.317 0 0 1-.217-.08c-.06-.054-.09-.135-.09-.242v-.609l1.154-.168.33-2.065a.398.398 0 0 1 .118-.192.328.328 0 0 1 .224-.074h.77v2.345h1.981v1.085h-1.98v4.053c0 .257.062.453.188.588a.656.656 0 0 0 .504.203.888.888 0 0 0 .301-.045c.085-.03.157-.063.217-.098.061-.036.114-.068.158-.098a.23.23 0 0 1 .13-.046c.084 0 .151.047.202.14l.448.735a2.442 2.442 0 0 1-.826.473 2.98 2.98 0 0 1-.98.164zm5.914-7.364c.528 0 1.005.086 1.432.259.427.173.791.418 1.092.735.301.317.533.702.696 1.155.164.453.245.961.245 1.526 0 .565-.081 1.073-.244 1.526a3.299 3.299 0 0 1-.697 1.159c-.301.32-.665.565-1.092.738a3.787 3.787 0 0 1-1.431.259 3.807 3.807 0 0 1-1.439-.259 3.081 3.081 0 0 1-1.096-.738 3.272 3.272 0 0 1-.7-1.159 4.474 4.474 0 0 1-.245-1.526c0-.565.082-1.073.245-1.526.164-.453.397-.838.7-1.155a3.104 3.104 0 0 1 1.096-.735 3.807 3.807 0 0 1 1.438-.259zm0 6.181c.645 0 1.124-.216 1.439-.647.315-.432.472-1.05.472-1.852 0-.803-.157-1.422-.472-1.858-.315-.437-.794-.655-1.439-.655-.653 0-1.138.218-1.456.655-.317.436-.476 1.055-.476 1.858 0 .803.16 1.42.476 1.852.318.431.803.647 1.456.647zm6.328-4.746c.225-.453.495-.808.812-1.067a1.747 1.747 0 0 1 1.141-.389c.155 0 .3.017.434.053.136.035.257.087.364.157l-.105 1.134c-.018.08-.047.134-.087.165a.253.253 0 0 1-.158.045c-.07 0-.17-.013-.3-.038a2.14 2.14 0 0 0-.414-.039c-.21 0-.395.03-.556.091-.161.06-.306.15-.434.266a1.79 1.79 0 0 0-.34.427c-.098.168-.188.36-.273.574V355h-1.505v-7.14h.875c.16 0 .269.03.33.088.06.058.102.16.125.304l.091.931zm8.008-.028a.374.374 0 0 1-.126.14.335.335 0 0 1-.175.042.563.563 0 0 1-.259-.073 10.753 10.753 0 0 0-.329-.165 2.839 2.839 0 0 0-.444-.165 2.176 2.176 0 0 0-.599-.073c-.186 0-.355.022-.507.067-.152.044-.28.107-.385.189a.855.855 0 0 0-.242.287.766.766 0 0 0-.084.353c0 .168.052.308.154.42.103.112.238.209.406.29.169.082.36.156.574.221.215.065.434.135.658.21.225.075.444.161.658.259.215.098.406.218.574.36.169.143.304.315.407.519.102.203.154.449.154.738 0 .336-.061.646-.182.931a2.09 2.09 0 0 1-.533.742c-.233.21-.523.373-.871.49a3.746 3.746 0 0 1-1.194.175 3.8 3.8 0 0 1-.717-.066 4.127 4.127 0 0 1-.658-.182 3.507 3.507 0 0 1-.581-.277 3.06 3.06 0 0 1-.48-.35l.35-.574a.485.485 0 0 1 .158-.165.432.432 0 0 1 .234-.059c.099 0 .195.031.291.095.096.063.208.131.336.206.128.075.283.143.465.207.183.063.409.094.68.094.224 0 .417-.027.58-.08.164-.054.3-.128.406-.221a.886.886 0 0 0 .315-.7.653.653 0 0 0-.154-.448 1.306 1.306 0 0 0-.409-.301 3.778 3.778 0 0 0-.581-.224 23.688 23.688 0 0 1-.662-.21 6.933 6.933 0 0 1-.661-.259 2.276 2.276 0 0 1-.581-.374 1.71 1.71 0 0 1-.41-.553 1.848 1.848 0 0 1-.154-.795 1.973 1.973 0 0 1 .676-1.491 2.45 2.45 0 0 1 .819-.465 3.374 3.374 0 0 1 1.123-.172c.481 0 .917.077 1.31.231.392.154.72.364.987.63l-.337.546z" fill="#233745" fill-rule="nonzero"/><g transform="translate(201 341)"><rect fill="#3E5667" width="19.2" height="18.4" rx="9.2"/><text font-family="Lato-Heavy, Lato" font-size="9.6" font-weight="600" fill="#FFF"><tspan x="6.816" y="12.2">2</tspan></text></g><path d="M191.586 60.753c.089 0 .166.035.231.105l.651.707c-.41.495-.915.876-1.512 1.145-.597.268-1.311.402-2.142.402-.737 0-1.403-.127-1.998-.381a4.393 4.393 0 0 1-1.523-1.064 4.72 4.72 0 0 1-.97-1.628 6.11 6.11 0 0 1-.339-2.079c0-.756.12-1.45.36-2.082a4.777 4.777 0 0 1 1.016-1.631 4.558 4.558 0 0 1 1.567-1.061 5.214 5.214 0 0 1 2.013-.378c.728 0 1.37.118 1.928.354.558.235 1.042.549 1.453.941l-.539.763a.6.6 0 0 1-.133.133.35.35 0 0 1-.21.056c-.093 0-.2-.043-.319-.13a5.02 5.02 0 0 0-.455-.286 3.53 3.53 0 0 0-.693-.288c-.277-.086-.624-.129-1.039-.129-.48 0-.922.084-1.323.252a2.86 2.86 0 0 0-1.036.735c-.29.322-.514.714-.676 1.176a4.771 4.771 0 0 0-.241 1.575c0 .593.084 1.121.252 1.586.168.464.399.856.693 1.176.294.32.64.563 1.036.731a3.25 3.25 0 0 0 1.281.252c.28 0 .53-.015.752-.045a2.833 2.833 0 0 0 1.141-.402c.166-.104.33-.23.494-.379a.422.422 0 0 1 .28-.126zm5.11-5.005c.527 0 1.004.086 1.432.259.427.173.79.418 1.092.735.3.317.533.702.696 1.155.163.453.245.961.245 1.526 0 .565-.082 1.073-.245 1.526a3.299 3.299 0 0 1-.696 1.159c-.302.32-.665.565-1.092.738a3.787 3.787 0 0 1-1.432.259 3.807 3.807 0 0 1-1.438-.259 3.081 3.081 0 0 1-1.096-.738 3.272 3.272 0 0 1-.7-1.159 4.474 4.474 0 0 1-.245-1.526c0-.565.082-1.073.245-1.526.163-.453.397-.838.7-1.155a3.104 3.104 0 0 1 1.096-.735 3.807 3.807 0 0 1 1.438-.259zm0 6.181c.644 0 1.123-.216 1.439-.648.315-.431.472-1.048.472-1.851 0-.803-.157-1.422-.472-1.859-.316-.436-.795-.654-1.439-.654-.653 0-1.139.218-1.456.654-.317.437-.476 1.056-.476 1.859 0 .803.159 1.42.476 1.851.317.432.803.648 1.456.648zm6.314-5.124c.154-.159.314-.302.48-.43.165-.129.341-.24.528-.333.187-.093.385-.166.595-.217.21-.051.439-.077.686-.077.392 0 .736.065 1.033.196.296.13.545.315.749.553.203.238.355.524.458.857.103.334.154.702.154 1.103V63h-1.498v-4.543c0-.48-.11-.854-.332-1.12-.222-.266-.56-.399-1.012-.399-.336 0-.647.077-.934.231a3.205 3.205 0 0 0-.809.63V63h-1.505v-7.14h.91c.205 0 .336.096.392.287l.105.658zm8.736 6.307c-.593 0-1.049-.167-1.368-.5-.32-.334-.48-.804-.48-1.411v-4.158h-.784a.317.317 0 0 1-.217-.08c-.06-.054-.091-.135-.091-.242v-.609l1.155-.168.329-2.065a.398.398 0 0 1 .119-.193.328.328 0 0 1 .224-.073h.77v2.345h1.981v1.085h-1.981v4.053c0 .257.063.453.189.588a.656.656 0 0 0 .504.203.888.888 0 0 0 .301-.046c.084-.03.156-.062.217-.098.06-.035.113-.067.157-.098a.23.23 0 0 1 .13-.045c.084 0 .152.047.203.14l.448.735a2.442 2.442 0 0 1-.826.472 2.98 2.98 0 0 1-.98.165zm6.643-3.234a9.52 9.52 0 0 0-1.358.13 3.855 3.855 0 0 0-.896.258c-.229.106-.393.23-.493.375a.817.817 0 0 0-.151.476c0 .168.027.311.08.43a.784.784 0 0 0 .225.294.911.911 0 0 0 .336.168c.128.036.269.053.423.053.392 0 .73-.073 1.011-.22.283-.148.557-.361.823-.641v-1.323zm-3.99-3.024c.807-.751 1.769-1.127 2.884-1.127.41 0 .776.066 1.096.2.32.133.587.32.805.563.217.243.382.53.497.864.114.334.171.704.171 1.11V63h-.672a.655.655 0 0 1-.329-.067c-.075-.044-.138-.134-.189-.269l-.147-.581c-.182.163-.362.31-.539.437a3.4 3.4 0 0 1-.55.326 2.701 2.701 0 0 1-.608.2 3.591 3.591 0 0 1-.718.066c-.29 0-.559-.04-.808-.119-.25-.08-.466-.2-.648-.36a1.705 1.705 0 0 1-.43-.599 2.068 2.068 0 0 1-.158-.84c0-.275.073-.544.22-.805.148-.261.39-.496.729-.704.338-.207.783-.379 1.337-.514.553-.135 1.235-.212 2.047-.231v-.476c0-.513-.11-.896-.329-1.148-.22-.252-.541-.378-.966-.378-.29 0-.532.036-.728.108-.196.073-.366.151-.511.235a9.607 9.607 0 0 0-.385.234.647.647 0 0 1-.357.109.428.428 0 0 1-.262-.08.666.666 0 0 1-.179-.2l-.273-.49zm8.778-.994V63h-1.505v-7.14h1.505zm.252-2.156a.941.941 0 0 1-.08.385 1.012 1.012 0 0 1-.221.318 1.074 1.074 0 0 1-.325.217.983.983 0 0 1-.778 0 1.01 1.01 0 0 1-.311-.217 1.075 1.075 0 0 1-.213-.318.941.941 0 0 1-.081-.385c0-.14.027-.27.08-.392.054-.121.125-.227.214-.319a1.01 1.01 0 0 1 .312-.217.983.983 0 0 1 .777 0c.123.054.232.126.325.218.093.09.167.197.22.318.054.121.081.252.081.392zm3.052 3.101c.154-.159.314-.302.48-.43.165-.129.341-.24.528-.333.187-.093.385-.166.595-.217.21-.051.439-.077.686-.077.392 0 .736.065 1.032.196.297.13.546.315.75.553.203.238.355.524.458.857.103.334.154.702.154 1.103V63h-1.498v-4.543c0-.48-.11-.854-.332-1.12-.222-.266-.56-.399-1.012-.399-.336 0-.647.077-.934.231a3.205 3.205 0 0 0-.809.63V63h-1.505v-7.14h.91c.205 0 .336.096.392.287l.105.658zm11.13 1.82c0-.252-.036-.486-.108-.704a1.647 1.647 0 0 0-.319-.567 1.452 1.452 0 0 0-.521-.378 1.773 1.773 0 0 0-.718-.136c-.546 0-.975.156-1.288.469-.313.313-.511.751-.595 1.316h3.549zm-3.591.924c.019.406.082.757.189 1.053.107.297.25.543.43.739.18.196.395.342.644.437.25.096.529.144.837.144.294 0 .548-.034.763-.102.215-.067.401-.142.56-.224.159-.081.294-.156.406-.223a.606.606 0 0 1 .308-.102c.121 0 .215.047.28.14l.427.553c-.177.21-.378.387-.602.532a3.508 3.508 0 0 1-.714.353 4.034 4.034 0 0 1-.777.196c-.266.04-.525.06-.777.06-.495 0-.953-.083-1.376-.249a3.059 3.059 0 0 1-1.099-.731 3.377 3.377 0 0 1-.728-1.197c-.175-.476-.262-1.024-.262-1.645 0-.495.078-.957.234-1.386a3.155 3.155 0 0 1 1.736-1.872c.418-.185.89-.277 1.418-.277.439 0 .845.071 1.218.213.373.143.695.352.966.627.27.275.482.612.633 1.011.152.4.228.853.228 1.362 0 .233-.026.39-.077.469-.051.08-.145.119-.28.119h-4.585zm7.763-2.366c.224-.453.495-.808.812-1.068a1.747 1.747 0 0 1 1.141-.388c.154 0 .299.017.434.052.135.036.257.088.364.158l-.105 1.134c-.019.08-.048.134-.088.164a.253.253 0 0 1-.157.046c-.07 0-.17-.013-.301-.039a2.14 2.14 0 0 0-.413-.038c-.21 0-.395.03-.557.091-.16.06-.305.15-.434.266a1.79 1.79 0 0 0-.339.427c-.098.168-.189.36-.273.574V63h-1.505v-7.14h.875c.159 0 .268.03.329.087.06.059.103.16.126.305l.091.931z" fill="#233745" fill-rule="nonzero"/><path fill="#B8C7D2" d="M262 58h71v1h-71z"/><g transform="translate(253 49)"><rect fill="#3E5667" width="19.2" height="18.4" rx="9.2"/><text font-family="Lato-Heavy, Lato" font-size="9.6" font-weight="600" fill="#FFF"><tspan x="6.816" y="12.2">1</tspan></text></g><circle fill="#3E5667" cx="334" cy="58.5" r="3"/><g transform="translate(333 40)"><use fill="#000" filter="url(#a)" xlink:href="#b"/><use fill="#1C2D39" xlink:href="#b"/><path fill="#12202B" opacity=".3" d="M0 310h60v60H0z"/><path d="M32.081 130.805l-2.271-2.251-.524-.518c.334-.848.39-1.775.165-2.654a4.485 4.485 0 0 0-1.205-2.08c-1.384-1.372-3.46-1.644-5.12-.89l2.974 2.948-2.076 2.058-3.045-2.948c-.825 1.645-.48 3.702.903 5.075 1.313 1.303 3.182 1.646 4.773 1.031l.563.556-4.112 4.092c-.298.221-.298.739.074 1.034l1.712 1.7a.725.725 0 0 0 1.044 0l3.757-4.372 4.433 4.391a.67.67 0 0 0 .97 0l1.59-1.579c.348-.276.348-.758.07-.964l-4.675-4.629z" fill="#9EB3C8"/><path d="M38.298 128.557l-1.28-1.326a.204.204 0 0 0-.298 0l-.137.144-.687-.614s.045-.39-.182-.728a9.378 9.378 0 0 0-.861-1.046c-.264-.272-1.266-1.318-2.588-2-1.325-.688-2.26-.987-3.375-.987v1.155s1.066.646 1.675 1.155c.605.51.623 2.314.623 2.314l-1.058 1.109 2.098 2.182 1.15-1.412c.48-.136.884-.148 1.122-.012l.509.518-.357.37a.223.223 0 0 0 0 .306l1.281 1.327a.204.204 0 0 0 .297 0l2.068-2.147a.231.231 0 0 0 0-.308zM32.081 180.805l-2.271-2.251-.524-.518c.334-.848.39-1.775.165-2.654a4.485 4.485 0 0 0-1.205-2.08c-1.384-1.372-3.46-1.644-5.12-.89l2.974 2.948-2.076 2.058-3.045-2.948c-.825 1.645-.48 3.702.903 5.075 1.313 1.303 3.182 1.646 4.773 1.031l.563.556-4.112 4.092c-.298.221-.298.739.074 1.034l1.712 1.7a.725.725 0 0 0 1.044 0l3.757-4.372 4.433 4.391a.67.67 0 0 0 .97 0l1.59-1.579c.348-.276.348-.758.07-.964l-4.675-4.629z" fill="#9EB3C8"/><path d="M38.298 178.557l-1.28-1.326a.204.204 0 0 0-.298 0l-.137.144-.687-.614s.045-.39-.182-.728a9.378 9.378 0 0 0-.861-1.046c-.264-.272-1.266-1.318-2.588-2-1.325-.688-2.26-.987-3.375-.987v1.155s1.066.646 1.675 1.155c.605.51.623 2.314.623 2.314l-1.058 1.109 2.098 2.182 1.15-1.412c.48-.136.884-.148 1.122-.012l.509.518-.357.37a.223.223 0 0 0 0 .306l1.281 1.327a.204.204 0 0 0 .297 0l2.068-2.147a.231.231 0 0 0 0-.308z" fill="#9EB3C8"/><path d="M38.583 27.968a.775.775 0 0 0-.07-1.151l-7.957-6.597c-.362-.299-.94-.293-1.294.015l-7.985 6.934a.77.77 0 0 0-.038 1.149l.2.198c.332.327.869.366 1.198.086l.597-.506v7.412c0 .455.389.823.868.823h3.113c.48 0 .868-.368.868-.823v-5.185h3.97v5.185a.797.797 0 0 0 .816.823h3.299c.48 0 .868-.368.868-.823V28.2l.369.306c.203.169.629.033.952-.303l.226-.236z" fill="#B8C7D2" fill-rule="nonzero"/><path d="M27.082 288.792h5.082a2.541 2.541 0 0 1-5.082 0zm2.643-17.79a1.904 1.904 0 0 0-2.008 1.907v.953a5.718 5.718 0 0 0-3.812 5.4v1.588c0 1.01-.4 1.98-1.115 2.694l-.264.263a1.805 1.805 0 0 0-.356 2.04 1.853 1.853 0 0 0 1.697 1.039h11.582c.992 0 1.798-.806 1.798-1.798v-.08c0-.428-.154-.843-.432-1.169l-.556-.635a3.813 3.813 0 0 1-.918-2.494v-1.448a5.718 5.718 0 0 0-3.812-5.4v-.845a1.98 1.98 0 0 0-1.804-2.014z" fill="#FFF"/><circle fill="#85C6F2" cx="41.5" cy="269.5" r="4.5"/><circle fill="#FFF" cx="30" cy="340" r="15"/><text font-family="Lato-Bold, Lato" font-size="12" font-weight="bold" fill="#233745"><tspan x="23.609" y="344.5">TS</tspan></text><path fill="#12202B" d="M0 55h60v48H0z"/><path d="M34.323 76.236a1.765 1.765 0 0 0 1.615-.338l2.247 1.563v8.542c0 .945-.736 1.716-1.637 1.716h-13.91c-.902 0-1.638-.771-1.638-1.716v-2.298l2.35-2.306c.27.156.576.249.906.249.499 0 .947-.205 1.277-.539l2.21 1.346c-.02.117-.032.238-.032.358 0 1.065.825 1.929 1.841 1.929 1.017 0 1.841-.864 1.841-1.929 0-.462-.153-.884-.414-1.217l3.344-5.36zM24.26 77.79c-1.016 0-1.841.863-1.841 1.928 0 .237.042.462.115.671L21 81.93v-9.214c0-.945.736-1.716 1.638-1.716h13.906c.901 0 1.637.771 1.637 1.716v3.218l-1.583-1.109c.03-.144.05-.297.05-.454 0-1.065-.825-1.929-1.842-1.929-1.016 0-1.84.864-1.84 1.93 0 .417.126.803.341 1.116l-3.352 5.44a1.774 1.774 0 0 0-1.565.39l-2.305-1.35c.008-.08.016-.164.016-.249 0-1.065-.825-1.928-1.841-1.928z" fill="#FFF"/><path fill="#85C6F2" d="M0 55h4v48H0z"/></g><path d="M8.67 472.565H5.25V482H3.66v-9.435H.225v-1.335H8.67v1.335zm2.715 2.783c.32-.326.674-.588 1.061-.788.388-.2.834-.3 1.339-.3.42 0 .789.07 1.106.21.318.14.584.336.799.589.215.252.377.556.487.911.11.355.166.747.166 1.177V482h-1.47v-4.853c0-.545-.125-.968-.375-1.27-.25-.303-.633-.454-1.148-.454-.375 0-.726.088-1.054.266a3.51 3.51 0 0 0-.911.724V482H9.922v-11.07h1.463v4.418zm11.978 1.994a2.5 2.5 0 0 0-.124-.802 1.822 1.822 0 0 0-.364-.638c-.16-.18-.355-.32-.585-.42-.23-.1-.495-.15-.795-.15-.615 0-1.099.178-1.451.533-.353.355-.576.847-.672 1.477h3.99zm1.207 3.57a2.88 2.88 0 0 1-.622.544 3.612 3.612 0 0 1-.75.371 4.548 4.548 0 0 1-.822.21 5.31 5.31 0 0 1-.836.068 3.921 3.921 0 0 1-1.459-.266 3.242 3.242 0 0 1-1.162-.78 3.558 3.558 0 0 1-.765-1.275c-.183-.508-.274-1.091-.274-1.751 0-.53.082-1.024.248-1.482.165-.457.4-.856.708-1.196.308-.34.684-.607 1.129-.803a3.7 3.7 0 0 1 1.5-.292c.465 0 .894.076 1.286.229.393.152.731.373 1.016.663.286.29.51.648.672 1.073.162.425.244.91.244 1.455 0 .225-.025.376-.075.454-.05.077-.143.116-.278.116h-4.995c.015.455.08.851.195 1.189a2.4 2.4 0 0 0 .476.844c.203.225.444.392.724.502.28.11.592.165.938.165.325 0 .606-.037.843-.113.238-.075.443-.156.615-.243.173-.088.318-.169.435-.244a.6.6 0 0 1 .311-.113c.12 0 .213.046.278.135l.42.54zm11.347-7.927a.61.61 0 0 1-.157.188.348.348 0 0 1-.21.06.55.55 0 0 1-.307-.124 6.089 6.089 0 0 0-.432-.278 3.339 3.339 0 0 0-.618-.277 2.664 2.664 0 0 0-.863-.124c-.315 0-.591.041-.829.124a1.745 1.745 0 0 0-.596.337 1.41 1.41 0 0 0-.364.503 1.573 1.573 0 0 0-.123.626c0 .29.073.53.22.72.148.19.342.352.582.488.24.135.512.252.818.352.305.1.617.204.937.311.32.108.632.231.938.371.305.14.577.317.817.53.24.212.434.472.581.78.148.307.221.683.221 1.128 0 .475-.08.92-.243 1.335a3.139 3.139 0 0 1-.709 1.087c-.31.31-.691.554-1.144.732-.452.177-.966.266-1.541.266a4.93 4.93 0 0 1-1.928-.386 4.636 4.636 0 0 1-.813-.443 4.02 4.02 0 0 1-.679-.581l.457-.765a.614.614 0 0 1 .162-.15.388.388 0 0 1 .213-.06c.106 0 .227.055.364.165.138.11.308.231.51.364.203.132.445.253.728.363.282.11.626.166 1.031.166.33 0 .625-.044.885-.132.26-.087.479-.212.656-.375.178-.162.314-.358.409-.589.095-.23.142-.484.142-.764 0-.316-.072-.573-.217-.773a1.773 1.773 0 0 0-.578-.502 4.23 4.23 0 0 0-.817-.346c-.305-.095-.617-.193-.938-.296a9.396 9.396 0 0 1-.937-.356 3.04 3.04 0 0 1-.818-.529 2.392 2.392 0 0 1-.577-.817c-.145-.328-.217-.731-.217-1.212a2.878 2.878 0 0 1 .88-2.073c.288-.278.642-.5 1.062-.668.42-.167.9-.251 1.44-.251a4.67 4.67 0 0 1 1.669.289 3.87 3.87 0 0 1 1.323.829l-.39.757zm3.818 1.395V482h-1.462v-7.62h1.462zm.278-2.355a.933.933 0 0 1-.083.386c-.055.123-.129.23-.221.323a1.008 1.008 0 0 1-.717.296.944.944 0 0 1-.382-.079 1.032 1.032 0 0 1-.536-.54.97.97 0 0 1-.079-.386.989.989 0 0 1 .296-.716c.093-.093.199-.165.319-.218a.997.997 0 0 1 .773 0c.125.053.233.125.326.218.092.092.166.2.221.322a.95.95 0 0 1 .083.394zm6.757 4.2c-.24-.315-.499-.535-.776-.66a2.249 2.249 0 0 0-.934-.188c-.67 0-1.189.242-1.556.724-.368.483-.551 1.186-.551 2.111 0 .486.04.9.123 1.242.083.342.203.622.36.84.158.217.351.377.581.48.23.102.49.154.78.154.426 0 .793-.095 1.103-.286.31-.19.6-.457.87-.802v-3.615zm1.47-5.295V482h-.885c-.205 0-.332-.097-.383-.293l-.127-.877a4.04 4.04 0 0 1-1.106.926c-.413.233-.889.349-1.429.349-.435 0-.829-.085-1.181-.255a2.487 2.487 0 0 1-.904-.746c-.25-.328-.442-.734-.578-1.219-.135-.485-.202-1.042-.202-1.673 0-.565.075-1.09.225-1.575.15-.485.367-.904.652-1.26.286-.355.63-.633 1.035-.836a3.027 3.027 0 0 1 1.373-.303c.46 0 .851.074 1.174.224.322.15.611.363.866.638v-4.17h1.47zm7.095 6.412a2.5 2.5 0 0 0-.124-.802 1.822 1.822 0 0 0-.364-.638c-.16-.18-.354-.32-.584-.42-.23-.1-.495-.15-.795-.15-.616 0-1.1.178-1.452.533-.352.355-.576.847-.671 1.477h3.99zm1.207 3.57a2.88 2.88 0 0 1-.622.544 3.612 3.612 0 0 1-.75.371 4.548 4.548 0 0 1-.821.21 5.31 5.31 0 0 1-.836.068 3.921 3.921 0 0 1-1.46-.266 3.242 3.242 0 0 1-1.162-.78 3.558 3.558 0 0 1-.765-1.275c-.182-.508-.273-1.091-.273-1.751 0-.53.082-1.024.247-1.482.165-.457.401-.856.709-1.196.307-.34.683-.607 1.129-.803a3.7 3.7 0 0 1 1.5-.292c.465 0 .893.076 1.286.229.392.152.731.373 1.016.663.285.29.509.648.671 1.073.163.425.244.91.244 1.455 0 .225-.025.376-.075.454-.05.077-.142.116-.277.116h-4.995c.015.455.08.851.194 1.189a2.4 2.4 0 0 0 .477.844c.202.225.443.392.724.502.28.11.592.165.937.165.325 0 .606-.037.844-.113.237-.075.442-.156.615-.243.172-.088.317-.169.435-.244a.6.6 0 0 1 .311-.113c.12 0 .212.046.278.135l.42.54zm3.15-.787c.24.315.5.535.78.66s.585.188.916.188c.68 0 1.203-.243 1.57-.728.368-.485.552-1.217.552-2.197 0-.906-.162-1.57-.487-1.992-.326-.422-.785-.633-1.38-.633-.42 0-.784.094-1.092.284a3.21 3.21 0 0 0-.858.81v3.608zm0-4.695c.316-.35.673-.632 1.073-.848.4-.215.855-.322 1.365-.322.445 0 .846.086 1.204.259.357.172.661.42.911.742.25.323.442.714.578 1.174.135.46.202.98.202 1.56 0 .615-.076 1.175-.229 1.68-.152.505-.37.937-.652 1.298-.283.36-.626.638-1.032.836-.405.197-.86.296-1.364.296a2.99 2.99 0 0 1-.675-.071 2.314 2.314 0 0 1-1.042-.536 3.507 3.507 0 0 1-.413-.443l-.068.637c-.04.206-.165.308-.375.308h-.945v-11.07h1.463v4.5zm11.063 3.188c-.595.02-1.1.066-1.515.138-.415.073-.752.169-1.012.289-.26.12-.448.261-.563.424a.92.92 0 0 0-.172.543c0 .19.03.354.093.492.063.137.148.25.255.337.108.088.234.151.379.192.145.04.302.06.472.06a2.463 2.463 0 0 0 1.62-.563c.15-.12.298-.257.443-.412v-1.5zm-4.29-3.173a4.36 4.36 0 0 1 1.384-.907c.497-.2 1.043-.3 1.638-.3.436 0 .82.07 1.156.213.335.143.617.341.847.596.23.256.404.56.521.915.118.356.177.748.177 1.178V482h-.653a.622.622 0 0 1-.33-.071c-.075-.048-.135-.136-.18-.266l-.157-.668c-.196.18-.388.339-.578.476-.19.138-.389.255-.596.353a3.045 3.045 0 0 1-.664.221c-.235.05-.495.075-.78.075a2.8 2.8 0 0 1-.844-.124 1.79 1.79 0 0 1-1.147-1.016 2.195 2.195 0 0 1-.169-.893c0-.3.081-.588.244-.866.162-.277.427-.526.795-.746.367-.22.847-.4 1.44-.54.592-.14 1.321-.22 2.186-.24v-.555c0-.575-.122-1.005-.367-1.29-.246-.285-.605-.428-1.08-.428-.32 0-.59.04-.807.12a3.11 3.11 0 0 0-.562.267c-.158.097-.295.186-.413.266a.638.638 0 0 1-.364.12.416.416 0 0 1-.258-.082.687.687 0 0 1-.176-.195l-.263-.473zm9.067.397c.246-.5.54-.892.886-1.177.345-.285.76-.428 1.244-.428.166 0 .322.02.47.057.147.037.275.094.385.168l-.097 1.103c-.035.135-.117.202-.248.202a1.8 1.8 0 0 1-.314-.04 2.334 2.334 0 0 0-.45-.042c-.236 0-.443.034-.623.101-.18.068-.341.168-.484.3a2.043 2.043 0 0 0-.379.488 4.88 4.88 0 0 0-.307.656V482h-1.462v-7.62h.84c.16 0 .268.029.326.086.057.058.098.159.123.304l.09 1.072zm13.928 2.146l-1.597-4.178a9.312 9.312 0 0 1-.346-1.08c-.055.215-.11.415-.168.6-.058.185-.114.35-.169.495l-1.59 4.163h3.87zM92.618 482h-1.23a.545.545 0 0 1-.54-.375l-.953-2.498h-4.748l-.952 2.498a.608.608 0 0 1-.195.259.528.528 0 0 1-.345.116h-1.23l4.29-10.77h1.612l4.29 10.77zm2.415-6.563c.165-.175.337-.334.517-.48.18-.145.371-.268.574-.37a3.073 3.073 0 0 1 1.398-.327c.42 0 .79.07 1.107.21.317.14.583.336.798.589.216.252.378.556.488.911.11.355.165.747.165 1.177V482h-1.47v-4.853c0-.545-.125-.968-.375-1.27-.25-.303-.632-.454-1.147-.454-.376 0-.727.088-1.054.266a3.51 3.51 0 0 0-.912.724V482H93.66v-7.62h.877c.206 0 .333.097.383.293l.112.764zm11.114 3.18c-.595.02-1.1.067-1.515.14-.415.072-.752.168-1.012.288-.26.12-.447.261-.563.424a.92.92 0 0 0-.172.543c0 .19.031.354.094.492.062.137.147.25.255.337.107.088.233.151.379.192.145.04.302.06.472.06a2.463 2.463 0 0 0 1.62-.563c.15-.12.297-.257.442-.412v-1.5zm-4.29-3.172a4.36 4.36 0 0 1 1.384-.907c.498-.2 1.044-.3 1.639-.3.435 0 .82.07 1.155.213.335.143.617.341.847.596.23.256.404.56.522.915.117.356.176.748.176 1.178V482h-.653a.622.622 0 0 1-.33-.071c-.075-.048-.134-.136-.18-.266l-.157-.668c-.195.18-.387.339-.578.476-.19.138-.388.255-.596.353a3.045 3.045 0 0 1-.663.221c-.236.05-.495.075-.78.075a2.8 2.8 0 0 1-.844-.124 1.79 1.79 0 0 1-1.147-1.016 2.195 2.195 0 0 1-.17-.893c0-.3.082-.588.244-.866.163-.277.428-.526.795-.746.368-.22.848-.4 1.44-.54.593-.14 1.321-.22 2.186-.24v-.555c0-.575-.122-1.005-.367-1.29-.245-.285-.605-.428-1.08-.428-.32 0-.589.04-.806.12a3.11 3.11 0 0 0-.563.267c-.157.097-.295.186-.412.266a.638.638 0 0 1-.364.12.416.416 0 0 1-.259-.082.687.687 0 0 1-.176-.195l-.263-.473zm10.073 6.675c-.615 0-1.089-.172-1.421-.517-.333-.346-.499-.838-.499-1.478v-4.56h-.885a.305.305 0 0 1-.214-.079c-.057-.052-.086-.131-.086-.236v-.592l1.237-.173.33-2.273a.353.353 0 0 1 .117-.198.336.336 0 0 1 .221-.072h.742v2.558h2.16v1.065h-2.16v4.462c0 .3.074.524.222.672a.767.767 0 0 0 .566.221c.135 0 .251-.018.349-.053a1.39 1.39 0 0 0 .251-.116c.07-.042.13-.081.18-.116a.244.244 0 0 1 .135-.053c.05 0 .089.012.116.034a.42.42 0 0 1 .087.109l.434.705c-.24.22-.524.39-.855.51-.33.12-.672.18-1.027.18zm6.292-7.86c.56 0 1.067.091 1.52.274.452.182.837.445 1.154.787.318.343.561.755.731 1.238.17.482.255 1.023.255 1.623 0 .6-.084 1.143-.255 1.628-.17.485-.413.897-.73 1.238-.318.34-.703.6-1.156.783a4.028 4.028 0 0 1-1.519.274 4.05 4.05 0 0 1-1.526-.274 3.225 3.225 0 0 1-1.159-.784 3.48 3.48 0 0 1-.738-1.237 4.832 4.832 0 0 1-.259-1.627c0-.6.086-1.142.259-1.624.172-.483.418-.895.738-1.238.32-.342.707-.605 1.16-.787a4.05 4.05 0 0 1 1.525-.274zm0 6.705c.72 0 1.258-.242 1.613-.727.355-.486.533-1.168.533-2.048 0-.88-.178-1.564-.533-2.051-.355-.488-.892-.731-1.612-.731-.73 0-1.274.243-1.632.73-.357.488-.536 1.172-.536 2.052 0 .88.179 1.562.536 2.048.358.485.901.727 1.632.727zM123.51 482v-7.62h.877c.206 0 .333.097.383.293l.105.727c.28-.335.591-.609.934-.821.342-.213.743-.319 1.204-.319.505 0 .914.139 1.23.416.315.278.544.654.69 1.129a2.374 2.374 0 0 1 1.012-1.178c.215-.125.444-.217.686-.277.243-.06.489-.09.739-.09.405 0 .766.064 1.084.191.317.128.586.314.806.559.22.245.387.547.502.908.116.36.173.77.173 1.23V482h-1.47v-4.853c0-.57-.124-1-.371-1.29-.248-.29-.609-.435-1.084-.435-.21 0-.41.037-.6.11-.19.072-.356.18-.499.326a1.551 1.551 0 0 0-.337.54 2.087 2.087 0 0 0-.124.75V482h-1.47v-4.853c0-.59-.117-1.024-.353-1.305-.235-.28-.58-.42-1.034-.42-.316 0-.608.083-.878.248-.27.165-.517.39-.743.675V482h-1.462zm19.057-7.62l-4.23 9.832a.617.617 0 0 1-.18.255c-.075.06-.184.09-.33.09h-1.087l1.395-3.037-3.127-7.14h1.274c.126 0 .223.03.293.09.07.06.12.127.15.202l1.935 4.575c.04.116.079.232.116.35.038.117.069.233.094.348a8.428 8.428 0 0 1 .24-.705l1.867-4.567a.485.485 0 0 1 .166-.21.42.42 0 0 1 .255-.083h1.17zm.878 6.743a.984.984 0 0 1 1.365-.912 1.018 1.018 0 0 1 .529.529c.052.12.078.247.078.382 0 .14-.026.27-.078.39-.053.12-.124.226-.214.315a.966.966 0 0 1-.697.286c-.14 0-.27-.026-.39-.075a.925.925 0 0 1-.312-.21.997.997 0 0 1-.281-.705z" fill="#3E5667" fill-rule="nonzero"/></g></svg>