<svg viewBox="0 0 726 485" xmlns="http://www.w3.org/2000/svg" xmlns:xlink="http://www.w3.org/1999/xlink"><defs><path id="b" d="M0 0h60v370H0z"/><filter x="-22.5%" y="-2.8%" width="145%" height="107.3%" filterUnits="objectBoundingBox" id="a"><feOffset dy="3" in="SourceAlpha" result="shadowOffsetOuter1"/><feGaussianBlur stdDeviation="4" in="shadowOffsetOuter1" result="shadowBlurOuter1"/><feColorMatrix values="0 0 0 0 0 0 0 0 0 0 0 0 0 0 0 0 0 0 0.169088724 0" in="shadowBlurOuter1"/></filter></defs><g fill="none" fill-rule="evenodd"><path stroke="#B8C7D2" fill="#FFF" d="M.5.5h725v449H.5z"/><g transform="translate(333 40)"><use fill="#000" filter="url(#a)" xlink:href="#b"/><use fill="#1C2D39" xlink:href="#b"/><path fill="#12202B" opacity=".3" d="M0 310h60v60H0z"/><path d="M31.081 130.805l-2.271-2.251-.524-.518c.334-.848.39-1.775.165-2.654a4.485 4.485 0 0 0-1.205-2.08c-1.384-1.372-3.46-1.644-5.12-.89l2.974 2.948-2.076 2.058-3.045-2.948c-.825 1.645-.48 3.702.903 5.075 1.313 1.303 3.182 1.646 4.773 1.031l.563.556-4.112 4.092c-.298.221-.298.739.074 1.034l1.712 1.7a.725.725 0 0 0 1.044 0l3.757-4.372 4.433 4.391a.67.67 0 0 0 .97 0l1.59-1.579c.348-.276.348-.758.07-.964l-4.675-4.629z" fill="#9EB3C8"/><path d="M37.298 128.557l-1.28-1.326a.204.204 0 0 0-.298 0l-.137.144-.687-.614s.045-.39-.182-.728a9.378 9.378 0 0 0-.861-1.046c-.264-.272-1.266-1.318-2.588-2-1.325-.688-2.26-.987-3.375-.987v1.155s1.066.646 1.675 1.155c.605.51.623 2.314.623 2.314l-1.058 1.109 2.098 2.182 1.15-1.412c.48-.136.884-.148 1.122-.012l.509.518-.357.37a.223.223 0 0 0 0 .306l1.281 1.327a.204.204 0 0 0 .297 0l2.068-2.147a.231.231 0 0 0 0-.308zM31.081 180.805l-2.271-2.251-.524-.518c.334-.848.39-1.775.165-2.654a4.485 4.485 0 0 0-1.205-2.08c-1.384-1.372-3.46-1.644-5.12-.89l2.974 2.948-2.076 2.058-3.045-2.948c-.825 1.645-.48 3.702.903 5.075 1.313 1.303 3.182 1.646 4.773 1.031l.563.556-4.112 4.092c-.298.221-.298.739.074 1.034l1.712 1.7a.725.725 0 0 0 1.044 0l3.757-4.372 4.433 4.391a.67.67 0 0 0 .97 0l1.59-1.579c.348-.276.348-.758.07-.964l-4.675-4.629z" fill="#9EB3C8"/><path d="M37.298 178.557l-1.28-1.326a.204.204 0 0 0-.298 0l-.137.144-.687-.614s.045-.39-.182-.728a9.378 9.378 0 0 0-.861-1.046c-.264-.272-1.266-1.318-2.588-2-1.325-.688-2.26-.987-3.375-.987v1.155s1.066.646 1.675 1.155c.605.51.623 2.314.623 2.314l-1.058 1.109 2.098 2.182 1.15-1.412c.48-.136.884-.148 1.122-.012l.509.518-.357.37a.223.223 0 0 0 0 .306l1.281 1.327a.204.204 0 0 0 .297 0l2.068-2.147a.231.231 0 0 0 0-.308z" fill="#9EB3C8"/><path d="M37.583 29.968a.775.775 0 0 0-.07-1.151l-7.957-6.597c-.362-.299-.94-.293-1.294.015l-7.985 6.934a.77.77 0 0 0-.038 1.149l.2.198c.332.327.869.366 1.198.086l.597-.506v7.412c0 .455.389.823.868.823h3.113c.48 0 .868-.368.868-.823v-5.185h3.97v5.185a.797.797 0 0 0 .816.823h3.299c.48 0 .868-.368.868-.823V30.2l.369.306c.203.169.629.033.952-.303l.226-.236z" fill="#B8C7D2" fill-rule="nonzero"/><path d="M27.082 288.792h5.082a2.541 2.541 0 0 1-5.082 0zm2.643-17.79a1.904 1.904 0 0 0-2.008 1.907v.953a5.718 5.718 0 0 0-3.812 5.4v1.588c0 1.01-.4 1.98-1.115 2.694l-.264.263a1.805 1.805 0 0 0-.356 2.04 1.853 1.853 0 0 0 1.697 1.039h11.582c.992 0 1.798-.806 1.798-1.798v-.08c0-.428-.154-.843-.432-1.169l-.556-.635a3.813 3.813 0 0 1-.918-2.494v-1.448a5.718 5.718 0 0 0-3.812-5.4v-.845a1.98 1.98 0 0 0-1.804-2.014z" fill="#FFF"/><circle fill="#85C6F2" cx="41.5" cy="269.5" r="4.5"/><circle fill="#FFF" cx="30" cy="340" r="15"/><path d="M30.635 337.15h-2.616v7.35h-1.614v-7.35h-2.616v-1.326h6.846v1.326zm5.76.252a.557.557 0 0 1-.153.183.34.34 0 0 1-.201.057.518.518 0 0 1-.273-.093 7.6 7.6 0 0 0-.351-.207 2.89 2.89 0 0 0-.477-.207 2.005 2.005 0 0 0-.645-.093c-.224 0-.42.027-.588.081a1.235 1.235 0 0 0-.423.225.9.9 0 0 0-.255.345 1.132 1.132 0 0 0-.084.441c0 .204.057.374.171.51.114.136.265.252.453.348.188.096.402.182.642.258.24.076.486.157.738.243s.498.186.738.3c.24.114.454.258.642.432s.339.387.453.639c.114.252.171.558.171.918 0 .392-.067.759-.201 1.101a2.54 2.54 0 0 1-.588.894 2.77 2.77 0 0 1-.945.6 3.48 3.48 0 0 1-1.278.219 4.295 4.295 0 0 1-2.28-.672 3.341 3.341 0 0 1-.576-.468l.474-.774a.506.506 0 0 1 .156-.141.393.393 0 0 1 .204-.057c.1 0 .208.041.324.123.116.082.254.173.414.273.16.1.347.191.561.273.214.082.471.123.771.123.46 0 .816-.109 1.068-.327.252-.218.378-.531.378-.939 0-.228-.057-.414-.171-.558a1.38 1.38 0 0 0-.453-.363 3.382 3.382 0 0 0-.642-.249c-.24-.068-.484-.142-.732-.222a6.312 6.312 0 0 1-.732-.288 2.371 2.371 0 0 1-.642-.438 1.993 1.993 0 0 1-.453-.675c-.114-.27-.171-.603-.171-.999a2.386 2.386 0 0 1 .738-1.722 2.69 2.69 0 0 1 .888-.558c.352-.14.756-.21 1.212-.21.512 0 .984.08 1.416.24.432.16.8.384 1.104.672l-.402.762z" fill="#233745" fill-rule="nonzero"/><path fill="#12202B" d="M0 55h60v48H0z"/><path d="M33.323 76.236a1.765 1.765 0 0 0 1.615-.338l2.247 1.563v8.542c0 .945-.736 1.716-1.637 1.716h-13.91c-.902 0-1.638-.771-1.638-1.716v-2.298l2.35-2.306c.27.156.576.249.906.249.499 0 .947-.205 1.277-.539l2.21 1.346c-.02.117-.032.238-.032.358 0 1.065.825 1.929 1.841 1.929 1.017 0 1.841-.864 1.841-1.929 0-.462-.153-.884-.414-1.217l3.344-5.36zM23.26 77.79c-1.016 0-1.841.863-1.841 1.928 0 .237.042.462.115.671L20 81.93v-9.214c0-.945.736-1.716 1.638-1.716h13.906c.901 0 1.637.771 1.637 1.716v3.218l-1.583-1.109c.03-.144.05-.297.05-.454 0-1.065-.825-1.929-1.842-1.929-1.016 0-1.84.864-1.84 1.93 0 .417.126.803.341 1.116l-3.352 5.44a1.774 1.774 0 0 0-1.565.39l-2.305-1.35c.008-.08.016-.164.016-.249 0-1.065-.825-1.928-1.841-1.928z" fill="#FFF"/><path fill="#85C6F2" d="M0 55h4v48H0z"/></g><path d="M8.67 472.565H5.25V482H3.66v-9.435H.225v-1.335H8.67v1.335zm2.715 2.783c.32-.326.674-.588 1.061-.788.388-.2.834-.3 1.339-.3.42 0 .789.07 1.106.21.318.14.584.336.799.589.215.252.377.556.487.911.11.355.166.747.166 1.177V482h-1.47v-4.853c0-.545-.125-.968-.375-1.27-.25-.303-.633-.454-1.148-.454-.375 0-.726.088-1.054.266a3.51 3.51 0 0 0-.911.724V482H9.922v-11.07h1.463v4.418zm11.978 1.994a2.5 2.5 0 0 0-.124-.802 1.822 1.822 0 0 0-.364-.638c-.16-.18-.355-.32-.585-.42-.23-.1-.495-.15-.795-.15-.615 0-1.099.178-1.451.533-.353.355-.576.847-.672 1.477h3.99zm1.207 3.57a2.88 2.88 0 0 1-.622.544 3.612 3.612 0 0 1-.75.371 4.548 4.548 0 0 1-.822.21 5.31 5.31 0 0 1-.836.068 3.921 3.921 0 0 1-1.459-.266 3.242 3.242 0 0 1-1.162-.78 3.558 3.558 0 0 1-.765-1.275c-.183-.508-.274-1.091-.274-1.751 0-.53.082-1.024.248-1.482.165-.457.4-.856.708-1.196.308-.34.684-.607 1.129-.803a3.7 3.7 0 0 1 1.5-.292c.465 0 .894.076 1.286.229.393.152.731.373 1.016.663.286.29.51.648.672 1.073.162.425.244.91.244 1.455 0 .225-.025.376-.075.454-.05.077-.143.116-.278.116h-4.995c.015.455.08.851.195 1.189a2.4 2.4 0 0 0 .476.844c.203.225.444.392.724.502.28.11.592.165.938.165.325 0 .606-.037.843-.113.238-.075.443-.156.615-.243.173-.088.318-.169.435-.244a.6.6 0 0 1 .311-.113c.12 0 .213.046.278.135l.42.54zm11.347-7.927a.61.61 0 0 1-.157.188.348.348 0 0 1-.21.06.55.55 0 0 1-.307-.124 6.089 6.089 0 0 0-.432-.278 3.339 3.339 0 0 0-.618-.277 2.664 2.664 0 0 0-.863-.124c-.315 0-.591.041-.829.124a1.745 1.745 0 0 0-.596.337 1.41 1.41 0 0 0-.364.503 1.573 1.573 0 0 0-.123.626c0 .29.073.53.22.72.148.19.342.352.582.488.24.135.512.252.818.352.305.1.617.204.937.311.32.108.632.231.938.371.305.14.577.317.817.53.24.212.434.472.581.78.148.307.221.683.221 1.128 0 .475-.08.92-.243 1.335a3.139 3.139 0 0 1-.709 1.087c-.31.31-.691.554-1.144.732-.452.177-.966.266-1.541.266a4.93 4.93 0 0 1-1.928-.386 4.636 4.636 0 0 1-.813-.443 4.02 4.02 0 0 1-.679-.581l.457-.765a.614.614 0 0 1 .162-.15.388.388 0 0 1 .213-.06c.106 0 .227.055.364.165.138.11.308.231.51.364.203.132.445.253.728.363.282.11.626.166 1.031.166.33 0 .625-.044.885-.132.26-.087.479-.212.656-.375.178-.162.314-.358.409-.589.095-.23.142-.484.142-.764 0-.316-.072-.573-.217-.773a1.773 1.773 0 0 0-.578-.502 4.23 4.23 0 0 0-.817-.346c-.305-.095-.617-.193-.938-.296a9.396 9.396 0 0 1-.937-.356 3.04 3.04 0 0 1-.818-.529 2.392 2.392 0 0 1-.577-.817c-.145-.328-.217-.731-.217-1.212a2.878 2.878 0 0 1 .88-2.073c.288-.278.642-.5 1.062-.668.42-.167.9-.251 1.44-.251a4.67 4.67 0 0 1 1.669.289 3.87 3.87 0 0 1 1.323.829l-.39.757zm3.818 1.395V482h-1.462v-7.62h1.462zm.278-2.355a.933.933 0 0 1-.083.386c-.055.123-.129.23-.221.323a1.008 1.008 0 0 1-.717.296.944.944 0 0 1-.382-.079 1.032 1.032 0 0 1-.536-.54.97.97 0 0 1-.079-.386.989.989 0 0 1 .296-.716c.093-.093.199-.165.319-.218a.997.997 0 0 1 .773 0c.125.053.233.125.326.218.092.092.166.2.221.322a.95.95 0 0 1 .083.394zm6.757 4.2c-.24-.315-.499-.535-.776-.66a2.249 2.249 0 0 0-.934-.188c-.67 0-1.189.242-1.556.724-.368.483-.551 1.186-.551 2.111 0 .486.04.9.123 1.242.083.342.203.622.36.84.158.217.351.377.581.48.23.102.49.154.78.154.426 0 .793-.095 1.103-.286.31-.19.6-.457.87-.802v-3.615zm1.47-5.295V482h-.885c-.205 0-.332-.097-.383-.293l-.127-.877a4.04 4.04 0 0 1-1.106.926c-.413.233-.889.349-1.429.349-.435 0-.829-.085-1.181-.255a2.487 2.487 0 0 1-.904-.746c-.25-.328-.442-.734-.578-1.219-.135-.485-.202-1.042-.202-1.673 0-.565.075-1.09.225-1.575.15-.485.367-.904.652-1.26.286-.355.63-.633 1.035-.836a3.027 3.027 0 0 1 1.373-.303c.46 0 .851.074 1.174.224.322.15.611.363.866.638v-4.17h1.47zm7.095 6.412a2.5 2.5 0 0 0-.124-.802 1.822 1.822 0 0 0-.364-.638c-.16-.18-.354-.32-.584-.42-.23-.1-.495-.15-.795-.15-.616 0-1.1.178-1.452.533-.352.355-.576.847-.671 1.477h3.99zm1.207 3.57a2.88 2.88 0 0 1-.622.544 3.612 3.612 0 0 1-.75.371 4.548 4.548 0 0 1-.821.21 5.31 5.31 0 0 1-.836.068 3.921 3.921 0 0 1-1.46-.266 3.242 3.242 0 0 1-1.162-.78 3.558 3.558 0 0 1-.765-1.275c-.182-.508-.273-1.091-.273-1.751 0-.53.082-1.024.247-1.482.165-.457.401-.856.709-1.196.307-.34.683-.607 1.129-.803a3.7 3.7 0 0 1 1.5-.292c.465 0 .893.076 1.286.229.392.152.731.373 1.016.663.285.29.509.648.671 1.073.163.425.244.91.244 1.455 0 .225-.025.376-.075.454-.05.077-.142.116-.277.116h-4.995c.015.455.08.851.194 1.189a2.4 2.4 0 0 0 .477.844c.202.225.443.392.724.502.28.11.592.165.937.165.325 0 .606-.037.844-.113.237-.075.442-.156.615-.243.172-.088.317-.169.435-.244a.6.6 0 0 1 .311-.113c.12 0 .212.046.278.135l.42.54zm3.15-.787c.24.315.5.535.78.66s.585.188.916.188c.68 0 1.203-.243 1.57-.728.368-.485.552-1.217.552-2.197 0-.906-.162-1.57-.487-1.992-.326-.422-.785-.633-1.38-.633-.42 0-.784.094-1.092.284a3.21 3.21 0 0 0-.858.81v3.608zm0-4.695c.316-.35.673-.632 1.073-.848.4-.215.855-.322 1.365-.322.445 0 .846.086 1.204.259.357.172.661.42.911.742.25.323.442.714.578 1.174.135.46.202.98.202 1.56 0 .615-.076 1.175-.229 1.68-.152.505-.37.937-.652 1.298-.283.36-.626.638-1.032.836-.405.197-.86.296-1.364.296a2.99 2.99 0 0 1-.675-.071 2.314 2.314 0 0 1-1.042-.536 3.507 3.507 0 0 1-.413-.443l-.068.637c-.04.206-.165.308-.375.308h-.945v-11.07h1.463v4.5zm11.063 3.188c-.595.02-1.1.066-1.515.138-.415.073-.752.169-1.012.289-.26.12-.448.261-.563.424a.92.92 0 0 0-.172.543c0 .19.03.354.093.492.063.137.148.25.255.337.108.088.234.151.379.192.145.04.302.06.472.06a2.463 2.463 0 0 0 1.62-.563c.15-.12.298-.257.443-.412v-1.5zm-4.29-3.173a4.36 4.36 0 0 1 1.384-.907c.497-.2 1.043-.3 1.638-.3.436 0 .82.07 1.156.213.335.143.617.341.847.596.23.256.404.56.521.915.118.356.177.748.177 1.178V482h-.653a.622.622 0 0 1-.33-.071c-.075-.048-.135-.136-.18-.266l-.157-.668c-.196.18-.388.339-.578.476-.19.138-.389.255-.596.353a3.045 3.045 0 0 1-.664.221c-.235.05-.495.075-.78.075a2.8 2.8 0 0 1-.844-.124 1.79 1.79 0 0 1-1.147-1.016 2.195 2.195 0 0 1-.169-.893c0-.3.081-.588.244-.866.162-.277.427-.526.795-.746.367-.22.847-.4 1.44-.54.592-.14 1.321-.22 2.186-.24v-.555c0-.575-.122-1.005-.367-1.29-.246-.285-.605-.428-1.08-.428-.32 0-.59.04-.807.12a3.11 3.11 0 0 0-.562.267c-.158.097-.295.186-.413.266a.638.638 0 0 1-.364.12.416.416 0 0 1-.258-.082.687.687 0 0 1-.176-.195l-.263-.473zm9.067.397c.246-.5.54-.892.886-1.177.345-.285.76-.428 1.244-.428.166 0 .322.02.47.057.147.037.275.094.385.168l-.097 1.103c-.035.135-.117.202-.248.202a1.8 1.8 0 0 1-.314-.04 2.334 2.334 0 0 0-.45-.042c-.236 0-.443.034-.623.101-.18.068-.341.168-.484.3a2.043 2.043 0 0 0-.379.488 4.88 4.88 0 0 0-.307.656V482h-1.462v-7.62h.84c.16 0 .268.029.326.086.057.058.098.159.123.304l.09 1.072zm13.246-.037a.81.81 0 0 1-.132.131.298.298 0 0 1-.183.049.436.436 0 0 1-.252-.094 2.95 2.95 0 0 0-.81-.405 2.216 2.216 0 0 0-.694-.094c-.36 0-.677.065-.952.195-.275.13-.504.315-.686.555-.183.24-.321.533-.416.878a4.38 4.38 0 0 0-.143 1.163c0 .445.05.84.15 1.188.1.348.242.64.428.878.185.237.41.417.675.54.265.122.56.184.884.184.316 0 .575-.04.78-.117a2.55 2.55 0 0 0 .51-.251c.136-.09.248-.174.338-.251a.423.423 0 0 1 .277-.116c.12 0 .213.045.278.135l.42.54a2.829 2.829 0 0 1-.589.547c-.217.15-.448.273-.694.368a3.918 3.918 0 0 1-.768.21 4.897 4.897 0 0 1-.814.067c-.475 0-.919-.087-1.331-.263a3.016 3.016 0 0 1-1.073-.764 3.661 3.661 0 0 1-.716-1.234c-.175-.488-.263-1.041-.263-1.661 0-.566.08-1.088.237-1.568.157-.48.39-.894.697-1.241.308-.348.686-.62 1.136-.818.45-.197.965-.296 1.546-.296.545 0 1.024.087 1.44.262.415.176.784.423 1.11.743l-.39.54zm5.084-1.545c.56 0 1.067.091 1.52.274.452.182.837.445 1.154.787.318.343.561.755.731 1.238.17.482.255 1.023.255 1.623 0 .6-.084 1.143-.255 1.628-.17.485-.413.897-.73 1.238-.318.34-.703.6-1.156.783a4.028 4.028 0 0 1-1.519.274 4.05 4.05 0 0 1-1.526-.274 3.225 3.225 0 0 1-1.159-.784 3.48 3.48 0 0 1-.738-1.237 4.832 4.832 0 0 1-.259-1.627c0-.6.086-1.142.259-1.624.172-.483.418-.895.739-1.238.32-.342.706-.605 1.158-.787a4.05 4.05 0 0 1 1.526-.274zm0 6.705c.72 0 1.258-.242 1.613-.727.355-.486.532-1.168.532-2.048 0-.88-.177-1.564-.532-2.051-.355-.488-.892-.731-1.612-.731-.73 0-1.274.243-1.632.73-.357.488-.536 1.172-.536 2.052 0 .88.179 1.562.536 2.048.358.485.901.727 1.632.727zM99.15 482v-7.62h.877c.206 0 .333.097.383.293l.105.727c.28-.335.591-.609.934-.821.342-.213.743-.319 1.204-.319.505 0 .914.139 1.23.416.315.278.544.654.69 1.129a2.374 2.374 0 0 1 1.012-1.178c.215-.125.444-.217.686-.277.243-.06.489-.09.739-.09.405 0 .766.064 1.084.191.317.128.586.314.806.559.22.245.387.547.502.908.116.36.173.77.173 1.23V482h-1.47v-4.853c0-.57-.124-1-.371-1.29-.248-.29-.609-.435-1.084-.435-.21 0-.41.037-.6.11-.19.072-.356.18-.499.326a1.551 1.551 0 0 0-.337.54 2.087 2.087 0 0 0-.124.75V482h-1.47v-4.853c0-.59-.117-1.024-.353-1.305-.235-.28-.58-.42-1.034-.42-.316 0-.608.083-.878.248-.27.165-.517.39-.743.675V482H99.15zm13.86-1.875c.24.315.499.535.776.66.278.125.589.188.934.188.67 0 1.189-.242 1.556-.724.368-.483.552-1.186.552-2.112 0-.485-.042-.898-.124-1.24a2.367 2.367 0 0 0-.36-.84 1.43 1.43 0 0 0-.581-.48 1.897 1.897 0 0 0-.78-.154c-.426 0-.794.094-1.107.284-.312.19-.601.46-.866.81v3.608zm-.075-4.605c.16-.19.331-.364.514-.521.182-.158.378-.293.588-.405a2.982 2.982 0 0 1 1.433-.356c.435 0 .829.084 1.181.255.353.17.654.42.904.75s.444.737.581 1.222c.138.485.207 1.042.207 1.673 0 .565-.077 1.088-.23 1.57-.152.483-.37.902-.652 1.257a3.03 3.03 0 0 1-1.035.836 3.05 3.05 0 0 1-1.376.304c-.455 0-.845-.075-1.17-.225a2.808 2.808 0 0 1-.87-.63v3.308h-1.463V474.38h.878c.205 0 .332.097.383.293l.127.847zm10.297-1.26c.56 0 1.067.091 1.52.274.452.182.837.445 1.154.787.318.343.561.755.731 1.238.17.482.255 1.023.255 1.623 0 .6-.084 1.143-.254 1.628-.17.485-.414.897-.732 1.238-.317.34-.702.6-1.155.783a4.028 4.028 0 0 1-1.519.274 4.05 4.05 0 0 1-1.526-.274 3.225 3.225 0 0 1-1.159-.784 3.48 3.48 0 0 1-.738-1.237 4.832 4.832 0 0 1-.259-1.627c0-.6.086-1.142.259-1.624.172-.483.418-.895.739-1.238.32-.342.706-.605 1.158-.787a4.05 4.05 0 0 1 1.526-.274zm0 6.705c.72 0 1.258-.242 1.613-.727.355-.486.532-1.168.532-2.048 0-.88-.177-1.564-.532-2.051-.355-.488-.892-.731-1.612-.731-.73 0-1.274.243-1.632.73-.357.488-.536 1.172-.536 2.052 0 .88.179 1.562.536 2.048.358.485.901.727 1.632.727zm6.66-5.527c.166-.176.338-.335.518-.48a3.073 3.073 0 0 1 1.972-.697c.42-.001.79.069 1.107.209.317.14.583.336.798.589.216.252.378.556.488.911.11.355.165.747.165 1.177V482h-1.47v-4.853c0-.545-.125-.968-.375-1.27-.25-.303-.632-.454-1.148-.454-.375 0-.726.088-1.053.266a3.51 3.51 0 0 0-.912.724V482h-1.462v-7.62h.877c.206 0 .333.097.383.293l.113.764zm12.068 1.904a2.5 2.5 0 0 0-.124-.802 1.822 1.822 0 0 0-.364-.638c-.16-.18-.354-.32-.585-.42-.23-.1-.494-.15-.794-.15-.616 0-1.1.178-1.452.533-.352.355-.576.847-.671 1.477h3.99zm1.207 3.57a2.88 2.88 0 0 1-.622.544 3.612 3.612 0 0 1-.75.371 4.548 4.548 0 0 1-.821.21 5.31 5.31 0 0 1-.837.068 3.921 3.921 0 0 1-1.458-.266 3.242 3.242 0 0 1-1.163-.78 3.558 3.558 0 0 1-.765-1.275c-.182-.508-.274-1.091-.274-1.751 0-.53.083-1.024.248-1.482.165-.457.401-.856.709-1.196.307-.34.683-.607 1.129-.803a3.7 3.7 0 0 1 1.5-.292c.465 0 .893.076 1.286.229.392.152.731.373 1.016.663.285.29.509.648.671 1.073.163.425.244.91.244 1.455 0 .225-.025.376-.075.454-.05.077-.142.116-.278.116h-4.994c.014.455.08.851.195 1.189a2.4 2.4 0 0 0 .476.844c.202.225.443.392.723.502.28.11.593.165.938.165.325 0 .606-.037.844-.113.237-.075.442-.156.615-.243.172-.088.317-.169.435-.244a.6.6 0 0 1 .311-.113c.12 0 .213.046.278.135l.42.54zm3.06-5.474c.166-.176.338-.335.518-.48a3.073 3.073 0 0 1 1.972-.697c.42-.001.79.069 1.107.209.317.14.583.336.798.589.216.252.378.556.488.911.11.355.165.747.165 1.177V482h-1.47v-4.853c0-.545-.125-.968-.375-1.27-.25-.303-.632-.454-1.148-.454-.375 0-.726.088-1.053.266a3.51 3.51 0 0 0-.912.724V482h-1.462v-7.62h.877c.206 0 .333.097.383.293l.112.764zm9.405 6.682c-.615 0-1.088-.172-1.42-.517-.333-.346-.5-.838-.5-1.478v-4.56h-.885a.305.305 0 0 1-.213-.079c-.058-.052-.087-.131-.087-.236v-.592l1.238-.173.33-2.273a.353.353 0 0 1 .116-.198.336.336 0 0 1 .221-.072h.743v2.558h2.16v1.065h-2.16v4.462c0 .3.074.524.221.672a.767.767 0 0 0 .567.221c.135 0 .25-.018.348-.053a1.39 1.39 0 0 0 .251-.116c.07-.042.13-.081.18-.116a.244.244 0 0 1 .136-.053c.05 0 .088.012.116.034a.42.42 0 0 1 .086.109l.435.705c-.24.22-.525.39-.855.51-.33.12-.672.18-1.028.18zm2.805-.998a.984.984 0 0 1 1.365-.91 1.018 1.018 0 0 1 .53.528c.052.12.078.247.078.382 0 .14-.026.27-.079.39-.052.12-.123.226-.213.315a.966.966 0 0 1-.698.286c-.14 0-.27-.026-.39-.075a.925.925 0 0 1-.311-.21.997.997 0 0 1-.281-.705z" fill="#3E5667" fill-rule="nonzero"/></g></svg>