<svg viewBox="0 0 726 518" xmlns="http://www.w3.org/2000/svg" xmlns:xlink="http://www.w3.org/1999/xlink"><defs><path id="b" d="M0 0h60v370H0z"/><filter x="-22.5%" y="-2.8%" width="145%" height="107.3%" filterUnits="objectBoundingBox" id="a"><feOffset dy="3" in="SourceAlpha" result="shadowOffsetOuter1"/><feGaussianBlur stdDeviation="4" in="shadowOffsetOuter1" result="shadowBlurOuter1"/><feColorMatrix values="0 0 0 0 0 0 0 0 0 0 0 0 0 0 0 0 0 0 0.169088724 0" in="shadowBlurOuter1"/></filter><path id="d" d="M0 0h190v370H0z"/><filter x="-7.1%" y="-2.8%" width="114.2%" height="107.3%" filterUnits="objectBoundingBox" id="c"><feOffset dy="3" in="SourceAlpha" result="shadowOffsetOuter1"/><feGaussianBlur stdDeviation="4" in="shadowOffsetOuter1" result="shadowBlurOuter1"/><feColorMatrix values="0 0 0 0 0 0 0 0 0 0 0 0 0 0 0 0 0 0 0.169088724 0" in="shadowBlurOuter1"/></filter></defs><g fill="none" fill-rule="evenodd"><path stroke="#B8C7D2" fill="#FFF" d="M.5.5h725v484H.5z"/><path d="M231.96 442.615c0 .805-.129 1.537-.386 2.197a4.902 4.902 0 0 1-1.092 1.7 4.895 4.895 0 0 1-1.687 1.098c-.655.26-1.382.39-2.182.39h-4.05v-10.77h4.05c.8 0 1.527.13 2.182.39s1.217.626 1.688 1.099c.47.472.833 1.04 1.09 1.702.258.663.387 1.394.387 2.194zm-1.635 0c0-.64-.087-1.214-.262-1.721a3.641 3.641 0 0 0-.747-1.29 3.177 3.177 0 0 0-1.17-.806 4.058 4.058 0 0 0-1.533-.278h-2.446v8.19h2.446c.565 0 1.076-.092 1.533-.277a3.177 3.177 0 0 0 1.17-.807c.323-.352.571-.781.746-1.286.176-.505.263-1.08.263-1.725zm8.393.727a2.5 2.5 0 0 0-.124-.802 1.822 1.822 0 0 0-.364-.638c-.16-.18-.355-.32-.585-.42-.23-.1-.495-.15-.795-.15-.615 0-1.099.178-1.451.533-.353.355-.577.847-.672 1.477h3.99zm1.207 3.57a2.88 2.88 0 0 1-.623.544 3.612 3.612 0 0 1-.75.371 4.548 4.548 0 0 1-.82.21 5.31 5.31 0 0 1-.837.068 3.921 3.921 0 0 1-1.459-.266 3.242 3.242 0 0 1-1.162-.78 3.558 3.558 0 0 1-.765-1.275c-.183-.508-.274-1.091-.274-1.751 0-.53.082-1.024.247-1.482.166-.457.402-.856.71-1.196.307-.34.683-.607 1.128-.803a3.7 3.7 0 0 1 1.5-.292c.465 0 .894.076 1.286.229.393.152.731.373 1.017.663.285.29.508.648.67 1.073.163.425.244.91.244 1.455 0 .225-.025.376-.075.454-.05.077-.142.116-.277.116h-4.995c.015.455.08.851.195 1.189a2.4 2.4 0 0 0 .476.844c.203.225.444.392.724.502.28.11.592.165.938.165.325 0 .606-.037.843-.113.238-.075.443-.156.615-.243.173-.088.318-.169.435-.244a.6.6 0 0 1 .311-.113c.12 0 .213.046.278.135l.42.54zm2.19 1.088v-6.42l-.795-.097a.678.678 0 0 1-.281-.124c-.073-.058-.109-.141-.109-.251v-.608h1.185v-.69c0-.435.062-.822.188-1.163a2.272 2.272 0 0 1 1.376-1.406 3.14 3.14 0 0 1 1.106-.183c.345 0 .662.05.953.15l-.03.734c-.006.065-.025.114-.06.147a.318.318 0 0 1-.14.071.96.96 0 0 1-.21.026 8.822 8.822 0 0 1-.266.004c-.225 0-.43.027-.615.082a1.099 1.099 0 0 0-.472.278c-.13.13-.23.301-.3.514-.07.212-.105.476-.105.791v.645h2.138v1.065h-2.093V448h-1.47zm8.88-3.382c-.595.02-1.1.066-1.515.138-.415.073-.752.169-1.012.289-.26.12-.448.261-.563.424a.92.92 0 0 0-.173.543c0 .19.032.354.094.492.063.137.148.25.255.337.108.088.234.151.379.192.145.04.302.06.472.06a2.463 2.463 0 0 0 1.62-.563c.15-.12.298-.257.443-.412v-1.5zm-4.29-3.173a4.36 4.36 0 0 1 1.384-.907c.497-.2 1.043-.3 1.638-.3.436 0 .82.07 1.155.213.336.143.618.341.848.596.23.256.404.56.521.915.118.356.177.748.177 1.178V448h-.653a.622.622 0 0 1-.33-.071c-.075-.048-.135-.136-.18-.266l-.157-.668c-.196.18-.388.339-.578.476-.19.138-.389.255-.596.353a3.045 3.045 0 0 1-.664.221c-.235.05-.495.075-.78.075a2.8 2.8 0 0 1-.844-.124 1.79 1.79 0 0 1-1.148-1.016 2.195 2.195 0 0 1-.168-.893c0-.3.081-.588.244-.866.162-.277.427-.526.795-.746.367-.22.847-.4 1.44-.54.592-.14 1.321-.22 2.186-.24v-.555c0-.575-.122-1.005-.368-1.29-.245-.285-.604-.428-1.08-.428-.32 0-.588.04-.806.12a3.11 3.11 0 0 0-.562.267c-.158.097-.295.186-.413.266a.638.638 0 0 1-.363.12.416.416 0 0 1-.26-.082.687.687 0 0 1-.175-.195l-.263-.473zm14.025-1.065V448h-.877c-.2 0-.33-.097-.39-.293l-.106-.764a5.164 5.164 0 0 1-.517.48 3.198 3.198 0 0 1-1.23.61c-.23.058-.477.087-.743.087-.42 0-.788-.07-1.106-.21a2.196 2.196 0 0 1-.798-.589 2.55 2.55 0 0 1-.488-.911 3.966 3.966 0 0 1-.165-1.178v-4.852h1.47v4.853c0 .545.125.968.375 1.27.25.303.632.454 1.148.454.375 0 .724-.088 1.05-.266a3.58 3.58 0 0 0 .914-.731v-5.58h1.463zm3.547-3.45V448h-1.47v-11.07h1.47zm4.47 11.19c-.615 0-1.088-.172-1.42-.517-.333-.346-.5-.838-.5-1.478v-4.56h-.885a.305.305 0 0 1-.213-.079c-.058-.052-.087-.131-.087-.236v-.592l1.238-.173.33-2.273a.353.353 0 0 1 .116-.198.336.336 0 0 1 .221-.072h.743v2.558h2.16v1.065h-2.16v4.462c0 .3.074.524.221.672a.767.767 0 0 0 .566.221c.136 0 .252-.018.35-.053a1.39 1.39 0 0 0 .25-.116c.07-.042.13-.081.18-.116a.244.244 0 0 1 .135-.053c.05 0 .09.012.117.034a.42.42 0 0 1 .086.109l.435.705c-.24.22-.525.39-.855.51-.33.12-.672.18-1.027.18zM416.814 443.988l-1.598-4.178a9.312 9.312 0 0 1-.345-1.08c-.055.215-.111.415-.168.6-.058.185-.114.35-.17.495l-1.59 4.163h3.87zM419.97 448h-1.23a.545.545 0 0 1-.54-.375l-.952-2.498H412.5l-.952 2.498a.608.608 0 0 1-.195.259.528.528 0 0 1-.345.116h-1.23l4.29-10.77h1.612l4.29 10.77zm6.383-6.195a.81.81 0 0 1-.131.131.298.298 0 0 1-.184.049.436.436 0 0 1-.251-.094 2.95 2.95 0 0 0-.81-.405 2.216 2.216 0 0 0-.694-.094c-.36 0-.678.065-.953.195-.275.13-.503.315-.686.555-.183.24-.321.533-.416.878a4.38 4.38 0 0 0-.143 1.163c0 .445.05.84.15 1.188.1.348.243.64.428.878.185.237.41.417.675.54.265.122.56.184.885.184.315 0 .575-.04.78-.117a2.55 2.55 0 0 0 .51-.251c.135-.09.247-.174.337-.251a.423.423 0 0 1 .278-.116c.12 0 .212.045.277.135l.42.54a2.829 2.829 0 0 1-.589.547c-.217.15-.448.273-.693.368a3.918 3.918 0 0 1-.769.21 4.897 4.897 0 0 1-.814.067c-.475 0-.918-.087-1.331-.263a3.016 3.016 0 0 1-1.072-.764 3.661 3.661 0 0 1-.717-1.234c-.175-.488-.262-1.041-.262-1.661 0-.566.078-1.088.236-1.568.158-.48.39-.894.697-1.241.308-.348.687-.62 1.137-.818.45-.197.965-.296 1.545-.296.545 0 1.025.087 1.44.262.415.176.785.423 1.11.743l-.39.54zm9.06 6.195h-1.47v-6.435h-3.825v4.462c0 .3.073.524.221.672a.767.767 0 0 0 .566.221c.135 0 .252-.018.349-.053a1.39 1.39 0 0 0 .251-.116c.07-.042.13-.081.18-.116a.244.244 0 0 1 .135-.053c.05 0 .089.012.116.034a.42.42 0 0 1 .087.109l.435.705c-.24.22-.525.39-.855.51-.33.12-.673.18-1.028.18-.615 0-1.088-.172-1.421-.517-.333-.346-.499-.838-.499-1.478v-4.56h-.885a.305.305 0 0 1-.214-.079c-.057-.052-.086-.131-.086-.236v-.592l1.245-.173.323-2.273a.353.353 0 0 1 .116-.198.336.336 0 0 1 .221-.072h.743v2.558h5.295v7.5zm.33-10.02a.933.933 0 0 1-.083.386c-.055.123-.128.23-.221.323a1.008 1.008 0 0 1-.716.296.944.944 0 0 1-.383-.079 1.032 1.032 0 0 1-.536-.54 1.016 1.016 0 0 1 .536-1.327.997.997 0 0 1 .772 0 1.008 1.008 0 0 1 .548.543.976.976 0 0 1 .083.398zm8.407 2.4l-3.09 7.62h-1.32l-3.09-7.62h1.208a.47.47 0 0 1 .285.082.393.393 0 0 1 .15.21l1.822 4.68c.065.196.122.39.169.582.047.192.091.383.131.573.04-.19.085-.38.135-.57.05-.19.11-.384.18-.584l1.845-4.68a.435.435 0 0 1 .428-.293h1.147zm6.218 2.962a2.5 2.5 0 0 0-.124-.802 1.822 1.822 0 0 0-.364-.638c-.16-.18-.355-.32-.585-.42-.23-.1-.495-.15-.795-.15-.615 0-1.098.178-1.451.533-.353.355-.576.847-.671 1.477h3.99zm1.207 3.57a2.88 2.88 0 0 1-.622.544 3.612 3.612 0 0 1-.75.371 4.548 4.548 0 0 1-.822.21 5.31 5.31 0 0 1-.836.068 3.921 3.921 0 0 1-1.459-.266 3.242 3.242 0 0 1-1.162-.78 3.558 3.558 0 0 1-.765-1.275c-.183-.508-.274-1.091-.274-1.751 0-.53.083-1.024.248-1.482.165-.457.401-.856.708-1.196.308-.34.684-.607 1.13-.803a3.7 3.7 0 0 1 1.5-.292c.464 0 .893.076 1.286.229.392.152.73.373 1.016.663.285.29.508.648.671 1.073.163.425.244.91.244 1.455 0 .225-.025.376-.075.454-.05.077-.143.116-.278.116h-4.995c.015.455.08.851.195 1.189a2.4 2.4 0 0 0 .476.844c.203.225.444.392.724.502.28.11.593.165.938.165.325 0 .606-.037.844-.113.237-.075.442-.156.615-.243.172-.088.317-.169.435-.244a.6.6 0 0 1 .31-.113c.12 0 .213.046.278.135l.42.54z" fill="#3E5667" fill-rule="nonzero"/><g transform="translate(216 45)"><use fill="#000" filter="url(#a)" xlink:href="#b"/><use fill="#1C2D39" xlink:href="#b"/><path fill="#12202B" opacity=".3" d="M0 310h60v60H0z"/><path d="M31.081 130.805l-2.271-2.251-.524-.518c.334-.848.39-1.775.165-2.654a4.485 4.485 0 0 0-1.205-2.08c-1.384-1.372-3.46-1.644-5.12-.89l2.974 2.948-2.076 2.058-3.045-2.948c-.825 1.645-.48 3.702.903 5.075 1.313 1.303 3.182 1.646 4.773 1.031l.563.556-4.112 4.092c-.298.221-.298.739.074 1.034l1.712 1.7a.725.725 0 0 0 1.044 0l3.757-4.372 4.433 4.391a.67.67 0 0 0 .97 0l1.59-1.579c.348-.276.348-.758.07-.964l-4.675-4.629z" fill="#9EB3C8"/><path d="M37.298 128.557l-1.28-1.326a.204.204 0 0 0-.298 0l-.137.144-.687-.614s.045-.39-.182-.728a9.378 9.378 0 0 0-.861-1.046c-.264-.272-1.266-1.318-2.588-2-1.325-.688-2.26-.987-3.375-.987v1.155s1.066.646 1.675 1.155c.605.51.623 2.314.623 2.314l-1.058 1.109 2.098 2.182 1.15-1.412c.48-.136.884-.148 1.122-.012l.509.518-.357.37a.223.223 0 0 0 0 .306l1.281 1.327a.204.204 0 0 0 .297 0l2.068-2.147a.231.231 0 0 0 0-.308zM31.081 180.805l-2.271-2.251-.524-.518c.334-.848.39-1.775.165-2.654a4.485 4.485 0 0 0-1.205-2.08c-1.384-1.372-3.46-1.644-5.12-.89l2.974 2.948-2.076 2.058-3.045-2.948c-.825 1.645-.48 3.702.903 5.075 1.313 1.303 3.182 1.646 4.773 1.031l.563.556-4.112 4.092c-.298.221-.298.739.074 1.034l1.712 1.7a.725.725 0 0 0 1.044 0l3.757-4.372 4.433 4.391a.67.67 0 0 0 .97 0l1.59-1.579c.348-.276.348-.758.07-.964l-4.675-4.629z" fill="#9EB3C8"/><path d="M37.298 178.557l-1.28-1.326a.204.204 0 0 0-.298 0l-.137.144-.687-.614s.045-.39-.182-.728a9.378 9.378 0 0 0-.861-1.046c-.264-.272-1.266-1.318-2.588-2-1.325-.688-2.26-.987-3.375-.987v1.155s1.066.646 1.675 1.155c.605.51.623 2.314.623 2.314l-1.058 1.109 2.098 2.182 1.15-1.412c.48-.136.884-.148 1.122-.012l.509.518-.357.37a.223.223 0 0 0 0 .306l1.281 1.327a.204.204 0 0 0 .297 0l2.068-2.147a.231.231 0 0 0 0-.308z" fill="#9EB3C8"/><path d="M37.583 29.968a.775.775 0 0 0-.07-1.151l-7.957-6.597c-.362-.299-.94-.293-1.294.015l-7.985 6.934a.77.77 0 0 0-.038 1.149l.2.198c.332.327.869.366 1.198.086l.597-.506v7.412c0 .455.389.823.868.823h3.113c.48 0 .868-.368.868-.823v-5.185h3.97v5.185a.797.797 0 0 0 .816.823h3.299c.48 0 .868-.368.868-.823V30.2l.369.306c.203.169.629.033.952-.303l.226-.236z" fill="#B8C7D2" fill-rule="nonzero"/><path d="M27.082 288.792h5.082a2.541 2.541 0 0 1-5.082 0zm2.643-17.79a1.904 1.904 0 0 0-2.008 1.907v.953a5.718 5.718 0 0 0-3.812 5.4v1.588c0 1.01-.4 1.98-1.115 2.694l-.264.263a1.805 1.805 0 0 0-.356 2.04 1.853 1.853 0 0 0 1.697 1.039h11.582c.992 0 1.798-.806 1.798-1.798v-.08c0-.428-.154-.843-.432-1.169l-.556-.635a3.813 3.813 0 0 1-.918-2.494v-1.448a5.718 5.718 0 0 0-3.812-5.4v-.845a1.98 1.98 0 0 0-1.804-2.014z" fill="#FFF"/><circle fill="#85C6F2" cx="41.5" cy="269.5" r="4.5"/><circle fill="#FFF" cx="30" cy="340" r="15"/><path d="M30.635 337.15h-2.616v7.35h-1.614v-7.35h-2.616v-1.326h6.846v1.326zm5.76.252a.557.557 0 0 1-.153.183.34.34 0 0 1-.201.057.518.518 0 0 1-.273-.093 7.6 7.6 0 0 0-.351-.207 2.89 2.89 0 0 0-.477-.207 2.005 2.005 0 0 0-.645-.093c-.224 0-.42.027-.588.081a1.235 1.235 0 0 0-.423.225.9.9 0 0 0-.255.345 1.132 1.132 0 0 0-.084.441c0 .204.057.374.171.51.114.136.265.252.453.348.188.096.402.182.642.258.24.076.486.157.738.243s.498.186.738.3c.24.114.454.258.642.432s.339.387.453.639c.114.252.171.558.171.918 0 .392-.067.759-.201 1.101a2.54 2.54 0 0 1-.588.894 2.77 2.77 0 0 1-.945.6 3.48 3.48 0 0 1-1.278.219 4.295 4.295 0 0 1-2.28-.672 3.341 3.341 0 0 1-.576-.468l.474-.774a.506.506 0 0 1 .156-.141.393.393 0 0 1 .204-.057c.1 0 .208.041.324.123.116.082.254.173.414.273.16.1.347.191.561.273.214.082.471.123.771.123.46 0 .816-.109 1.068-.327.252-.218.378-.531.378-.939 0-.228-.057-.414-.171-.558a1.38 1.38 0 0 0-.453-.363 3.382 3.382 0 0 0-.642-.249c-.24-.068-.484-.142-.732-.222a6.312 6.312 0 0 1-.732-.288 2.371 2.371 0 0 1-.642-.438 1.993 1.993 0 0 1-.453-.675c-.114-.27-.171-.603-.171-.999a2.386 2.386 0 0 1 .738-1.722 2.69 2.69 0 0 1 .888-.558c.352-.14.756-.21 1.212-.21.512 0 .984.08 1.416.24.432.16.8.384 1.104.672l-.402.762z" fill="#233745" fill-rule="nonzero"/><path fill="#12202B" d="M0 55h60v48H0z"/><path d="M33.323 76.236a1.765 1.765 0 0 0 1.615-.338l2.247 1.563v8.542c0 .945-.736 1.716-1.637 1.716h-13.91c-.902 0-1.638-.771-1.638-1.716v-2.298l2.35-2.306c.27.156.576.249.906.249.499 0 .947-.205 1.277-.539l2.21 1.346c-.02.117-.032.238-.032.358 0 1.065.825 1.929 1.841 1.929 1.017 0 1.841-.864 1.841-1.929 0-.462-.153-.884-.414-1.217l3.344-5.36zM23.26 77.79c-1.016 0-1.841.863-1.841 1.928 0 .237.042.462.115.671L20 81.93v-9.214c0-.945.736-1.716 1.638-1.716h13.906c.901 0 1.637.771 1.637 1.716v3.218l-1.583-1.109c.03-.144.05-.297.05-.454 0-1.065-.825-1.929-1.842-1.929-1.016 0-1.84.864-1.84 1.93 0 .417.126.803.341 1.116l-3.352 5.44a1.774 1.774 0 0 0-1.565.39l-2.305-1.35c.008-.08.016-.164.016-.249 0-1.065-.825-1.928-1.841-1.928z" fill="#FFF"/><path fill="#85C6F2" d="M0 55h4v48H0z"/></g><g transform="translate(336 45)"><use fill="#000" filter="url(#c)" xlink:href="#d"/><use fill="#1C2D39" xlink:href="#d"/><path d="M31.081 130.805l-2.271-2.251-.524-.518c.334-.848.39-1.775.165-2.654a4.485 4.485 0 0 0-1.205-2.08c-1.384-1.372-3.46-1.644-5.12-.89l2.974 2.948-2.076 2.058-3.045-2.948c-.825 1.645-.48 3.702.903 5.075 1.313 1.303 3.182 1.646 4.773 1.031l.563.556-4.112 4.092c-.298.221-.298.739.074 1.034l1.712 1.7a.725.725 0 0 0 1.044 0l3.757-4.372 4.433 4.391a.67.67 0 0 0 .97 0l1.59-1.579c.348-.276.348-.758.07-.964l-4.675-4.629z" fill="#9EB3C8"/><path d="M37.298 128.557l-1.28-1.326a.204.204 0 0 0-.298 0l-.137.144-.687-.614s.045-.39-.182-.728a9.378 9.378 0 0 0-.861-1.046c-.264-.272-1.266-1.318-2.588-2-1.325-.688-2.26-.987-3.375-.987v1.155s1.066.646 1.675 1.155c.605.51.623 2.314.623 2.314l-1.058 1.109 2.098 2.182 1.15-1.412c.48-.136.884-.148 1.122-.012l.509.518-.357.37a.223.223 0 0 0 0 .306l1.281 1.327a.204.204 0 0 0 .297 0l2.068-2.147a.231.231 0 0 0 0-.308zM31.081 180.805l-2.271-2.251-.524-.518c.334-.848.39-1.775.165-2.654a4.485 4.485 0 0 0-1.205-2.08c-1.384-1.372-3.46-1.644-5.12-.89l2.974 2.948-2.076 2.058-3.045-2.948c-.825 1.645-.48 3.702.903 5.075 1.313 1.303 3.182 1.646 4.773 1.031l.563.556-4.112 4.092c-.298.221-.298.739.074 1.034l1.712 1.7a.725.725 0 0 0 1.044 0l3.757-4.372 4.433 4.391a.67.67 0 0 0 .97 0l1.59-1.579c.348-.276.348-.758.07-.964l-4.675-4.629z" fill="#9EB3C8"/><path d="M37.298 178.557l-1.28-1.326a.204.204 0 0 0-.298 0l-.137.144-.687-.614s.045-.39-.182-.728a9.378 9.378 0 0 0-.861-1.046c-.264-.272-1.266-1.318-2.588-2-1.325-.688-2.26-.987-3.375-.987v1.155s1.066.646 1.675 1.155c.605.51.623 2.314.623 2.314l-1.058 1.109 2.098 2.182 1.15-1.412c.48-.136.884-.148 1.122-.012l.509.518-.357.37a.223.223 0 0 0 0 .306l1.281 1.327a.204.204 0 0 0 .297 0l2.068-2.147a.231.231 0 0 0 0-.308z" fill="#9EB3C8"/><path d="M37.583 29.968a.775.775 0 0 0-.07-1.151l-7.957-6.597c-.362-.299-.94-.293-1.294.015l-7.985 6.934a.77.77 0 0 0-.038 1.149l.2.198c.332.327.869.366 1.198.086l.597-.506v7.412c0 .455.389.823.868.823h3.113c.48 0 .868-.368.868-.823v-5.185h3.97v5.185a.797.797 0 0 0 .816.823h3.299c.48 0 .868-.368.868-.823V30.2l.369.306c.203.169.629.033.952-.303l.226-.236z" fill="#B8C7D2" fill-rule="nonzero"/><path d="M27.082 288.792h5.082a2.541 2.541 0 0 1-5.082 0zm2.643-17.79a1.904 1.904 0 0 0-2.008 1.907v.953a5.718 5.718 0 0 0-3.812 5.4v1.588c0 1.01-.4 1.98-1.115 2.694l-.264.263a1.805 1.805 0 0 0-.356 2.04 1.853 1.853 0 0 0 1.697 1.039h11.582c.992 0 1.798-.806 1.798-1.798v-.08c0-.428-.154-.843-.432-1.169l-.556-.635a3.813 3.813 0 0 1-.918-2.494v-1.448a5.718 5.718 0 0 0-3.812-5.4v-.845a1.98 1.98 0 0 0-1.804-2.014z" fill="#FFF"/><circle fill="#85C6F2" cx="41.5" cy="269.5" r="4.5"/><circle fill="#FFF" cx="30" cy="340" r="15"/><path d="M30.635 337.15h-2.616v7.35h-1.614v-7.35h-2.616v-1.326h6.846v1.326zm5.76.252a.557.557 0 0 1-.153.183.34.34 0 0 1-.201.057.518.518 0 0 1-.273-.093 7.6 7.6 0 0 0-.351-.207 2.89 2.89 0 0 0-.477-.207 2.005 2.005 0 0 0-.645-.093c-.224 0-.42.027-.588.081a1.235 1.235 0 0 0-.423.225.9.9 0 0 0-.255.345 1.132 1.132 0 0 0-.084.441c0 .204.057.374.171.51.114.136.265.252.453.348.188.096.402.182.642.258.24.076.486.157.738.243s.498.186.738.3c.24.114.454.258.642.432s.339.387.453.639c.114.252.171.558.171.918 0 .392-.067.759-.201 1.101a2.54 2.54 0 0 1-.588.894 2.77 2.77 0 0 1-.945.6 3.48 3.48 0 0 1-1.278.219 4.295 4.295 0 0 1-2.28-.672 3.341 3.341 0 0 1-.576-.468l.474-.774a.506.506 0 0 1 .156-.141.393.393 0 0 1 .204-.057c.1 0 .208.041.324.123.116.082.254.173.414.273.16.1.347.191.561.273.214.082.471.123.771.123.46 0 .816-.109 1.068-.327.252-.218.378-.531.378-.939 0-.228-.057-.414-.171-.558a1.38 1.38 0 0 0-.453-.363 3.382 3.382 0 0 0-.642-.249c-.24-.068-.484-.142-.732-.222a6.312 6.312 0 0 1-.732-.288 2.371 2.371 0 0 1-.642-.438 1.993 1.993 0 0 1-.453-.675c-.114-.27-.171-.603-.171-.999a2.386 2.386 0 0 1 .738-1.722 2.69 2.69 0 0 1 .888-.558c.352-.14.756-.21 1.212-.21.512 0 .984.08 1.416.24.432.16.8.384 1.104.672l-.402.762z" fill="#233745" fill-rule="nonzero"/><path fill="#12202B" d="M0 55h190v48H0z"/><path d="M33.323 76.236a1.765 1.765 0 0 0 1.615-.338l2.247 1.563v8.542c0 .945-.736 1.716-1.637 1.716h-13.91c-.902 0-1.638-.771-1.638-1.716v-2.298l2.35-2.306c.27.156.576.249.906.249.499 0 .947-.205 1.277-.539l2.21 1.346c-.02.117-.032.238-.032.358 0 1.065.825 1.929 1.841 1.929 1.017 0 1.841-.864 1.841-1.929 0-.462-.153-.884-.414-1.217l3.344-5.36zM23.26 77.79c-1.016 0-1.841.863-1.841 1.928 0 .237.042.462.115.671L20 81.93v-9.214c0-.945.736-1.716 1.638-1.716h13.906c.901 0 1.637.771 1.637 1.716v3.218l-1.583-1.109c.03-.144.05-.297.05-.454 0-1.065-.825-1.929-1.842-1.929-1.016 0-1.84.864-1.84 1.93 0 .417.126.803.341 1.116l-3.352 5.44a1.774 1.774 0 0 0-1.565.39l-2.305-1.35c.008-.08.016-.164.016-.249 0-1.065-.825-1.928-1.841-1.928z" fill="#FFF"/><path fill="#85C6F2" d="M0 55h4v48H0z"/><path d="M63.904 25.48V37h-1.872v-5.128h-5.784V37h-1.88V25.48h1.88v5.04h5.784v-5.04h1.872zm5.952 3.232c.603 0 1.148.099 1.636.296.488.197.904.477 1.248.84s.61.803.796 1.32c.187.517.28 1.099.28 1.744s-.093 1.227-.28 1.744a3.77 3.77 0 0 1-.796 1.324c-.344.365-.76.647-1.248.844a4.329 4.329 0 0 1-1.636.296 4.351 4.351 0 0 1-1.644-.296 3.522 3.522 0 0 1-1.252-.844 3.74 3.74 0 0 1-.8-1.324 5.113 5.113 0 0 1-.28-1.744c0-.645.093-1.227.28-1.744.187-.517.453-.957.8-1.32a3.547 3.547 0 0 1 1.252-.84 4.351 4.351 0 0 1 1.644-.296zm0 7.064c.736 0 1.284-.247 1.644-.74.36-.493.54-1.199.54-2.116s-.18-1.625-.54-2.124c-.36-.499-.908-.748-1.644-.748-.747 0-1.301.25-1.664.748-.363.499-.544 1.207-.544 2.124s.181 1.623.544 2.116c.363.493.917.74 1.664.74zM75.464 37v-8.16h1.04c.235 0 .384.11.448.328l.112.712c.15-.17.304-.327.464-.468.16-.141.332-.264.516-.368a2.542 2.542 0 0 1 1.276-.332c.261 0 .501.037.72.112.219.075.412.181.58.32.168.139.313.307.436.504s.224.419.304.664a2.507 2.507 0 0 1 1.088-1.224c.23-.128.473-.223.732-.284.259-.061.521-.092.788-.092.437 0 .828.07 1.172.208.344.139.635.34.872.604.237.264.417.588.54.972.123.384.184.821.184 1.312V37h-1.72v-5.192c0-.576-.124-1.01-.372-1.3-.248-.29-.615-.436-1.1-.436-.219 0-.424.037-.616.112a1.446 1.446 0 0 0-.844.868 2.11 2.11 0 0 0-.124.756V37h-1.72v-5.192c0-.597-.12-1.036-.36-1.316s-.592-.42-1.056-.42c-.32 0-.616.081-.888.244a2.875 2.875 0 0 0-.752.668V37h-1.72zm18.64-5c0-.288-.041-.556-.124-.804a1.882 1.882 0 0 0-.364-.648 1.66 1.66 0 0 0-.596-.432 2.026 2.026 0 0 0-.82-.156c-.624 0-1.115.179-1.472.536-.357.357-.584.859-.68 1.504h4.056zM90 33.056c.021.464.093.865.216 1.204.123.339.287.62.492.844.205.224.45.39.736.5.285.11.604.164.956.164.336 0 .627-.039.872-.116.245-.077.459-.163.64-.256s.336-.179.464-.256a.693.693 0 0 1 .352-.116c.139 0 .245.053.32.16l.488.632c-.203.24-.432.443-.688.608-.256.165-.528.3-.816.404a4.61 4.61 0 0 1-.888.224c-.304.045-.6.068-.888.068-.565 0-1.09-.095-1.572-.284A3.496 3.496 0 0 1 89.428 36a3.86 3.86 0 0 1-.832-1.368c-.2-.544-.3-1.17-.3-1.88 0-.565.09-1.093.268-1.584.179-.49.435-.917.768-1.28s.739-.65 1.216-.86c.477-.21 1.017-.316 1.62-.316.501 0 .965.081 1.392.244.427.163.795.401 1.104.716.31.315.55.7.724 1.156.173.456.26.975.26 1.556 0 .267-.03.445-.088.536-.059.09-.165.136-.32.136H90z" fill="#B8C7D2" fill-rule="nonzero"/><path d="M64.48 79.24c0 .853-.139 1.633-.416 2.34a5.281 5.281 0 0 1-1.172 1.82c-.504.507-1.11.9-1.816 1.18-.707.28-1.492.42-2.356.42h-4.352V73.48h4.352c.864 0 1.65.14 2.356.42.707.28 1.312.673 1.816 1.18a5.281 5.281 0 0 1 1.172 1.82c.277.707.416 1.487.416 2.34zm-1.912 0c0-.661-.09-1.256-.268-1.784a3.693 3.693 0 0 0-.768-1.336 3.347 3.347 0 0 0-1.212-.836 4.182 4.182 0 0 0-1.6-.292h-2.472v8.496h2.472c.592 0 1.125-.096 1.6-.288.475-.192.879-.47 1.212-.836.333-.365.59-.81.768-1.336.179-.525.268-1.121.268-1.788zm8.008 2.192c-.613.021-1.13.07-1.552.148a4.406 4.406 0 0 0-1.024.296c-.261.12-.45.263-.564.428a.934.934 0 0 0-.172.544c0 .192.03.356.092.492a.897.897 0 0 0 .256.336c.11.088.237.152.384.192.147.04.308.06.484.06.448 0 .833-.084 1.156-.252.323-.168.636-.412.94-.732v-1.512zm-4.56-3.456c.923-.859 2.021-1.288 3.296-1.288.47 0 .887.076 1.252.228.365.152.672.367.92.644s.437.607.568.988c.13.381.196.804.196 1.268V85h-.768c-.165 0-.29-.025-.376-.076-.085-.05-.157-.153-.216-.308l-.168-.664a7.575 7.575 0 0 1-.616.5c-.203.147-.412.27-.628.372a3.087 3.087 0 0 1-.696.228c-.248.05-.521.076-.82.076-.33 0-.639-.045-.924-.136a2.028 2.028 0 0 1-.74-.412 1.95 1.95 0 0 1-.492-.684 2.363 2.363 0 0 1-.18-.96c0-.315.084-.621.252-.92.168-.299.445-.567.832-.804.387-.237.896-.433 1.528-.588.632-.155 1.412-.243 2.34-.264v-.544c0-.587-.125-1.024-.376-1.312-.25-.288-.619-.432-1.104-.432-.33 0-.608.041-.832.124a3.757 3.757 0 0 0-.584.268 10.98 10.98 0 0 0-.44.268.74.74 0 0 1-.408.124.49.49 0 0 1-.3-.092.761.761 0 0 1-.204-.228l-.312-.56zm13.112.344a.427.427 0 0 1-.144.16.383.383 0 0 1-.2.048.643.643 0 0 1-.296-.084 12.289 12.289 0 0 0-.376-.188 3.245 3.245 0 0 0-.508-.188 2.486 2.486 0 0 0-.684-.084c-.213 0-.407.025-.58.076-.173.05-.32.123-.44.216a.977.977 0 0 0-.276.328.876.876 0 0 0-.096.404c0 .192.059.352.176.48.117.128.272.239.464.332.192.093.41.177.656.252.245.075.496.155.752.24.256.085.507.184.752.296.245.112.464.25.656.412.192.163.347.36.464.592.117.232.176.513.176.844 0 .384-.07.739-.208 1.064a2.39 2.39 0 0 1-.608.848c-.267.24-.599.427-.996.56-.397.133-.852.2-1.364.2-.283 0-.556-.025-.82-.076a4.716 4.716 0 0 1-.752-.208 4.008 4.008 0 0 1-.664-.316 3.496 3.496 0 0 1-.548-.4l.4-.656a.554.554 0 0 1 .18-.188.494.494 0 0 1 .268-.068c.112 0 .223.036.332.108.11.072.237.15.384.236.147.085.324.164.532.236.208.072.467.108.776.108.256 0 .477-.03.664-.092a1.33 1.33 0 0 0 .464-.252 1.012 1.012 0 0 0 .36-.8.746.746 0 0 0-.176-.512 1.492 1.492 0 0 0-.468-.344 4.317 4.317 0 0 0-.664-.256c-.248-.075-.5-.155-.756-.24a7.923 7.923 0 0 1-.756-.296 2.6 2.6 0 0 1-.664-.428 1.954 1.954 0 0 1-.468-.632c-.117-.248-.176-.55-.176-.908a2.255 2.255 0 0 1 .772-1.704 2.8 2.8 0 0 1 .936-.532c.37-.13.799-.196 1.284-.196.55 0 1.048.088 1.496.264.448.176.824.416 1.128.72l-.384.624zm3.832-.512c.336-.33.704-.596 1.104-.796.4-.2.867-.3 1.4-.3.448 0 .841.075 1.18.224.339.15.624.36.856.632.232.272.407.599.524.98.117.381.176.801.176 1.26V85h-1.712v-5.192c0-.55-.127-.976-.38-1.28-.253-.304-.639-.456-1.156-.456-.384 0-.74.088-1.068.264a3.663 3.663 0 0 0-.924.72V85h-1.72V73.16h1.72v4.648zm8.976 5.144c.24.31.503.527.788.652.285.125.596.188.932.188.677 0 1.205-.245 1.584-.736.379-.49.568-1.25.568-2.28 0-.939-.164-1.624-.492-2.056-.328-.432-.796-.648-1.404-.648-.421 0-.788.095-1.1.284-.312.19-.604.46-.876.812v3.784zm0-5.032a4.117 4.117 0 0 1 1.128-.88c.416-.219.89-.328 1.424-.328.475 0 .903.092 1.284.276.381.184.705.45.972.796.267.347.472.767.616 1.26a5.95 5.95 0 0 1 .216 1.668c0 .661-.081 1.263-.244 1.804a4.165 4.165 0 0 1-.7 1.392 3.141 3.141 0 0 1-1.104.896 3.26 3.26 0 0 1-1.448.316c-.261 0-.499-.025-.712-.076a2.488 2.488 0 0 1-1.092-.564 3.749 3.749 0 0 1-.436-.456l-.072.632a.436.436 0 0 1-.144.264.462.462 0 0 1-.288.08h-1.12V73.16h1.72v4.76zm10.832-1.208c.603 0 1.148.099 1.636.296.488.197.904.477 1.248.84s.61.803.796 1.32c.187.517.28 1.099.28 1.744s-.093 1.227-.28 1.744a3.77 3.77 0 0 1-.796 1.324c-.344.365-.76.647-1.248.844a4.329 4.329 0 0 1-1.636.296 4.351 4.351 0 0 1-1.644-.296 3.522 3.522 0 0 1-1.252-.844 3.74 3.74 0 0 1-.8-1.324 5.113 5.113 0 0 1-.28-1.744c0-.645.093-1.227.28-1.744.187-.517.453-.957.8-1.32a3.547 3.547 0 0 1 1.252-.84 4.351 4.351 0 0 1 1.644-.296zm0 7.064c.736 0 1.284-.247 1.644-.74.36-.493.54-1.199.54-2.116s-.18-1.625-.54-2.124c-.36-.499-.908-.748-1.644-.748-.747 0-1.301.25-1.664.748-.363.499-.544 1.207-.544 2.124s.181 1.623.544 2.116c.363.493.917.74 1.664.74zm9.968-2.344c-.613.021-1.13.07-1.552.148a4.406 4.406 0 0 0-1.024.296c-.261.12-.45.263-.564.428a.934.934 0 0 0-.172.544c0 .192.03.356.092.492a.897.897 0 0 0 .256.336c.11.088.237.152.384.192.147.04.308.06.484.06.448 0 .833-.084 1.156-.252.323-.168.636-.412.94-.732v-1.512zm-4.56-3.456c.923-.859 2.021-1.288 3.296-1.288.47 0 .887.076 1.252.228.365.152.672.367.92.644s.437.607.568.988c.13.381.196.804.196 1.268V85h-.768c-.165 0-.29-.025-.376-.076-.085-.05-.157-.153-.216-.308l-.168-.664a7.575 7.575 0 0 1-.616.5c-.203.147-.412.27-.628.372a3.087 3.087 0 0 1-.696.228c-.248.05-.521.076-.82.076-.33 0-.639-.045-.924-.136a2.028 2.028 0 0 1-.74-.412 1.95 1.95 0 0 1-.492-.684 2.363 2.363 0 0 1-.18-.96c0-.315.084-.621.252-.92.168-.299.445-.567.832-.804.387-.237.896-.433 1.528-.588.632-.155 1.412-.243 2.34-.264v-.544c0-.587-.125-1.024-.376-1.312-.25-.288-.619-.432-1.104-.432-.33 0-.608.041-.832.124a3.757 3.757 0 0 0-.584.268 10.98 10.98 0 0 0-.44.268.74.74 0 0 1-.408.124.49.49 0 0 1-.3-.092.761.761 0 0 1-.204-.228l-.312-.56zm9.864.376c.256-.517.565-.924.928-1.22.363-.296.797-.444 1.304-.444.176 0 .341.02.496.06.155.04.293.1.416.18l-.12 1.296c-.021.09-.055.153-.1.188a.289.289 0 0 1-.18.052 1.93 1.93 0 0 1-.344-.044 2.445 2.445 0 0 0-.472-.044c-.24 0-.452.035-.636.104-.184.07-.35.17-.496.304a2.046 2.046 0 0 0-.388.488c-.112.192-.216.41-.312.656V85h-1.72v-8.16h1c.181 0 .307.033.376.1.07.067.117.183.144.348l.104 1.064zm9.488.496c-.24-.31-.504-.525-.792-.648a2.364 2.364 0 0 0-.936-.184c-.672 0-1.197.247-1.576.74s-.568 1.223-.568 2.188c0 .501.043.93.128 1.284.085.355.208.644.368.868.16.224.355.387.584.488a1.9 1.9 0 0 0 .776.152c.437 0 .815-.095 1.132-.284.317-.19.612-.457.884-.804v-3.8zm1.72-5.688V85h-1.04c-.23 0-.376-.11-.44-.328l-.152-.888c-.341.4-.73.723-1.164.968-.435.245-.94.368-1.516.368-.459 0-.875-.092-1.248-.276a2.686 2.686 0 0 1-.96-.804c-.267-.352-.473-.788-.62-1.308-.147-.52-.22-1.116-.22-1.788 0-.608.081-1.17.244-1.688a4.12 4.12 0 0 1 .7-1.348c.304-.381.673-.68 1.108-.896a3.236 3.236 0 0 1 1.46-.324c.48 0 .888.076 1.224.228.336.152.637.364.904.636V73.16h1.72z" fill="#FFF" fill-rule="nonzero"/><path d="M62.368 132.432c.101 0 .19.04.264.12l.744.808a4.736 4.736 0 0 1-1.728 1.308c-.683.307-1.499.46-2.448.46-.843 0-1.604-.145-2.284-.436a5.02 5.02 0 0 1-1.74-1.216c-.48-.52-.85-1.14-1.108-1.86-.259-.72-.388-1.512-.388-2.376 0-.864.137-1.657.412-2.38a5.459 5.459 0 0 1 1.16-1.864 5.21 5.21 0 0 1 1.792-1.212c.696-.288 1.463-.432 2.3-.432.832 0 1.567.135 2.204.404a5.45 5.45 0 0 1 1.66 1.076l-.616.872a.685.685 0 0 1-.152.152.4.4 0 0 1-.24.064c-.107 0-.228-.05-.364-.148a5.738 5.738 0 0 0-.52-.328c-.21-.12-.475-.23-.792-.328-.317-.099-.713-.148-1.188-.148-.55 0-1.053.096-1.512.288a3.269 3.269 0 0 0-1.184.84c-.33.368-.588.816-.772 1.344-.184.528-.276 1.128-.276 1.8 0 .677.096 1.281.288 1.812.192.53.456.979.792 1.344.336.365.73.644 1.184.836.453.192.941.288 1.464.288.32 0 .607-.017.86-.052a3.238 3.238 0 0 0 1.304-.46c.19-.117.377-.261.564-.432a.482.482 0 0 1 .32-.144zm5.84-5.72c.603 0 1.148.099 1.636.296.488.197.904.477 1.248.84s.61.803.796 1.32c.187.517.28 1.099.28 1.744s-.093 1.227-.28 1.744a3.77 3.77 0 0 1-.796 1.324c-.344.365-.76.647-1.248.844a4.329 4.329 0 0 1-1.636.296 4.351 4.351 0 0 1-1.644-.296 3.522 3.522 0 0 1-1.252-.844 3.74 3.74 0 0 1-.8-1.324 5.113 5.113 0 0 1-.28-1.744c0-.645.093-1.227.28-1.744.187-.517.453-.957.8-1.32a3.547 3.547 0 0 1 1.252-.84 4.351 4.351 0 0 1 1.644-.296zm0 7.064c.736 0 1.284-.247 1.644-.74.36-.493.54-1.199.54-2.116s-.18-1.625-.54-2.124c-.36-.499-.908-.748-1.644-.748-.747 0-1.301.25-1.664.748-.363.499-.544 1.207-.544 2.124s.181 1.623.544 2.116c.363.493.917.74 1.664.74zm7.216-5.856c.176-.181.359-.345.548-.492.19-.147.39-.273.604-.38.213-.107.44-.19.68-.248.24-.059.501-.088.784-.088.448 0 .841.075 1.18.224.339.15.624.36.856.632.232.272.407.599.524.98.117.381.176.801.176 1.26V135h-1.712v-5.192c0-.55-.127-.976-.38-1.28-.253-.304-.639-.456-1.156-.456-.384 0-.74.088-1.068.264a3.663 3.663 0 0 0-.924.72V135h-1.72v-8.16h1.04c.235 0 .384.11.448.328l.12.752zm7.928 7.08v-6.792l-.8-.112a.712.712 0 0 1-.324-.144.365.365 0 0 1-.124-.296v-.704h1.248v-.344c0-.501.08-.963.24-1.384.16-.421.403-.787.728-1.096.325-.31.732-.55 1.22-.724.488-.173 1.06-.26 1.716-.26.213 0 .433.013.66.04.227.027.42.067.58.12l-.056.896c-.01.112-.077.175-.2.188-.123.013-.285.02-.488.02-.496 0-.917.047-1.264.14-.347.093-.63.235-.848.424a1.63 1.63 0 0 0-.476.704c-.099.28-.148.607-.148.98v.296h5V135h-1.72v-6.808h-3.224V135h-1.72zm11.752-4.152c.533 0 .933-.136 1.2-.408.267-.272.4-.627.4-1.064 0-.448-.133-.803-.4-1.064s-.667-.392-1.2-.392c-.528 0-.927.13-1.196.392-.27.261-.404.616-.404 1.064 0 .213.035.41.104.592.07.181.17.337.304.468.133.13.3.232.5.304.2.072.43.108.692.108zm2.392 4.552a.606.606 0 0 0-.156-.436 1.04 1.04 0 0 0-.42-.256 3.02 3.02 0 0 0-.616-.136c-.235-.03-.484-.05-.748-.064l-.808-.04a8.307 8.307 0 0 1-.796-.076 2.118 2.118 0 0 0-.628.48.957.957 0 0 0-.244.648c0 .16.041.31.124.448.083.139.21.259.384.36.173.101.395.181.664.24.27.059.593.088.972.088.757 0 1.325-.117 1.704-.352s.568-.536.568-.904zm1.728-8.264v.64c0 .213-.128.344-.384.392l-.816.136c.139.31.208.653.208 1.032 0 .4-.079.763-.236 1.088a2.452 2.452 0 0 1-.652.832c-.277.23-.608.405-.992.528a4.08 4.08 0 0 1-1.248.184c-.17 0-.337-.01-.5-.028a5.37 5.37 0 0 1-.476-.076c-.155.09-.27.187-.344.288a.52.52 0 0 0-.112.312.42.42 0 0 0 .232.392c.155.085.359.147.612.184.253.037.543.061.868.072.325.01.656.03.992.056.336.027.667.07.992.132.325.061.615.163.868.304s.457.332.612.572c.155.24.232.552.232.936a2.2 2.2 0 0 1-.264 1.032c-.176.336-.43.635-.764.896-.333.261-.74.47-1.22.628-.48.157-1.027.236-1.64.236-.608 0-1.137-.059-1.588-.176-.45-.117-.827-.276-1.128-.476-.301-.2-.525-.43-.672-.692a1.645 1.645 0 0 1-.22-.816c0-.384.121-.712.364-.984s.572-.485.988-.64a1.397 1.397 0 0 1-.54-.44c-.136-.187-.204-.432-.204-.736 0-.24.088-.49.264-.752.176-.261.44-.483.792-.664a2.601 2.601 0 0 1-.96-.892c-.235-.37-.352-.804-.352-1.3 0-.405.079-.77.236-1.096.157-.325.377-.603.66-.832.283-.23.617-.405 1.004-.528s.81-.184 1.268-.184c.704 0 1.317.147 1.84.44h2.28zM60.392 175.448a.706.706 0 0 1-.184.212.405.405 0 0 1-.24.068.623.623 0 0 1-.34-.128 6.666 6.666 0 0 0-.464-.284 4.068 4.068 0 0 0-.652-.288 2.712 2.712 0 0 0-.896-.132c-.32 0-.601.04-.844.12-.243.08-.447.192-.612.336-.165.144-.29.313-.372.508a1.61 1.61 0 0 0-.124.636c0 .293.077.537.232.732.155.195.359.361.612.5s.543.26.868.364c.325.104.657.215.996.332.339.117.67.25.996.4.325.15.615.339.868.568.253.23.457.51.612.84.155.33.232.733.232 1.208 0 .512-.088.992-.264 1.44-.176.448-.43.839-.764 1.172a3.558 3.558 0 0 1-1.232.788c-.488.192-1.044.288-1.668.288-.368 0-.727-.036-1.076-.108a5.576 5.576 0 0 1-1-.304 5.006 5.006 0 0 1-.892-.476 4.478 4.478 0 0 1-.744-.624l.544-.896a.528.528 0 0 1 .184-.176.491.491 0 0 1 .248-.064c.123 0 .259.057.408.172.15.115.33.24.54.376.21.136.465.261.764.376.299.115.656.172 1.072.172.677 0 1.201-.165 1.572-.496.37-.33.556-.787.556-1.368 0-.325-.077-.59-.232-.796a1.884 1.884 0 0 0-.612-.516 4.396 4.396 0 0 0-.868-.352 37.572 37.572 0 0 1-.992-.308 9.762 9.762 0 0 1-.992-.384 3.157 3.157 0 0 1-.868-.576 2.668 2.668 0 0 1-.612-.88c-.155-.35-.232-.785-.232-1.308a3.104 3.104 0 0 1 .956-2.244 3.484 3.484 0 0 1 1.156-.724c.459-.181.981-.272 1.568-.272.661 0 1.268.104 1.82.312a4.145 4.145 0 0 1 1.428.888l-.456.896zm4.104 2.36c.336-.33.704-.596 1.104-.796.4-.2.867-.3 1.4-.3.448 0 .841.075 1.18.224.339.15.624.36.856.632.232.272.407.599.524.98.117.381.176.801.176 1.26V185h-1.712v-5.192c0-.55-.127-.976-.38-1.28-.253-.304-.639-.456-1.156-.456-.384 0-.74.088-1.068.264a3.663 3.663 0 0 0-.924.72V185h-1.72v-11.84h1.72v4.648zm9.048-.968V185h-1.72v-8.16h1.72zm.288-2.464c0 .155-.03.301-.092.44-.061.139-.145.26-.252.364-.107.104-.23.187-.372.248a1.123 1.123 0 0 1-.888 0 1.155 1.155 0 0 1-.356-.248 1.228 1.228 0 0 1-.244-.364 1.076 1.076 0 0 1-.092-.44c0-.16.03-.31.092-.448.061-.139.143-.26.244-.364.101-.104.22-.187.356-.248a1.123 1.123 0 0 1 .888 0c.141.061.265.144.372.248.107.104.19.225.252.364.061.139.092.288.092.448zm3.6 8.576c.24.31.503.527.788.652.285.125.601.188.948.188.672 0 1.196-.245 1.572-.736.376-.49.564-1.221.564-2.192 0-.501-.043-.93-.128-1.284-.085-.355-.208-.644-.368-.868a1.418 1.418 0 0 0-.584-.488 1.9 1.9 0 0 0-.776-.152c-.437 0-.815.095-1.132.284-.317.19-.612.46-.884.812v3.784zm-.088-4.928c.341-.4.73-.723 1.164-.968.435-.245.94-.368 1.516-.368.459 0 .875.092 1.248.276.373.184.693.452.96.804.267.352.473.788.62 1.308.147.52.22 1.116.22 1.788 0 .603-.081 1.164-.244 1.684-.163.52-.396.97-.7 1.352-.304.381-.672.68-1.104.896-.432.216-.92.324-1.464.324-.48 0-.887-.077-1.22-.232a3.159 3.159 0 0 1-.908-.64v3.464h-1.72V176.84h1.04c.235 0 .384.11.448.328l.144.856zm12.272.296a.427.427 0 0 1-.144.16.383.383 0 0 1-.2.048.643.643 0 0 1-.296-.084 12.29 12.29 0 0 0-.376-.188 3.245 3.245 0 0 0-.508-.188 2.486 2.486 0 0 0-.684-.084c-.213 0-.407.025-.58.076-.173.05-.32.123-.44.216a.977.977 0 0 0-.276.328.876.876 0 0 0-.096.404c0 .192.059.352.176.48.117.128.272.239.464.332.192.093.41.177.656.252.245.075.496.155.752.24.256.085.507.184.752.296.245.112.464.25.656.412.192.163.347.36.464.592.117.232.176.513.176.844 0 .384-.07.739-.208 1.064a2.39 2.39 0 0 1-.608.848c-.267.24-.599.427-.996.56-.397.133-.852.2-1.364.2-.283 0-.556-.025-.82-.076a4.716 4.716 0 0 1-.752-.208 4.008 4.008 0 0 1-.664-.316 3.496 3.496 0 0 1-.548-.4l.4-.656a.554.554 0 0 1 .18-.188.494.494 0 0 1 .268-.068c.112 0 .223.036.332.108.11.072.237.15.384.236.147.085.324.164.532.236.208.072.467.108.776.108.256 0 .477-.03.664-.092a1.33 1.33 0 0 0 .464-.252 1.012 1.012 0 0 0 .36-.8.746.746 0 0 0-.176-.512 1.492 1.492 0 0 0-.468-.344 4.317 4.317 0 0 0-.664-.256c-.248-.075-.5-.155-.756-.24a7.923 7.923 0 0 1-.756-.296 2.6 2.6 0 0 1-.664-.428 1.954 1.954 0 0 1-.468-.632c-.117-.248-.176-.55-.176-.908a2.255 2.255 0 0 1 .772-1.704 2.8 2.8 0 0 1 .936-.532c.37-.13.799-.196 1.284-.196.55 0 1.048.088 1.496.264.448.176.824.416 1.128.72l-.384.624z" fill="#B8C7D2" fill-rule="nonzero"/></g><path d="M8.67 507.565H5.25V517H3.66v-9.435H.225v-1.335H8.67v1.335zm2.715 2.783c.32-.326.674-.588 1.061-.788.388-.2.834-.3 1.339-.3.42 0 .789.07 1.106.21.318.14.584.336.799.589.215.252.377.556.487.911.11.355.166.747.166 1.178V517h-1.47v-4.852c0-.546-.125-.97-.375-1.272-.25-.302-.633-.453-1.148-.453-.375 0-.726.088-1.054.266a3.51 3.51 0 0 0-.911.724V517H9.922v-11.07h1.463v4.418zm11.978 1.994a2.5 2.5 0 0 0-.124-.802 1.822 1.822 0 0 0-.364-.638c-.16-.18-.355-.32-.585-.42-.23-.1-.495-.15-.795-.15-.615 0-1.099.178-1.451.533-.353.355-.576.847-.672 1.477h3.99zm1.207 3.57a2.88 2.88 0 0 1-.622.544 3.612 3.612 0 0 1-.75.371 4.548 4.548 0 0 1-.822.21 5.31 5.31 0 0 1-.836.068 3.921 3.921 0 0 1-1.459-.266 3.242 3.242 0 0 1-1.162-.78 3.558 3.558 0 0 1-.765-1.275c-.183-.508-.274-1.091-.274-1.751 0-.53.082-1.024.248-1.482.165-.457.4-.856.708-1.196.308-.34.684-.607 1.129-.803a3.7 3.7 0 0 1 1.5-.292c.465 0 .894.076 1.286.229.393.152.731.373 1.016.663.286.29.51.648.672 1.073.162.425.244.91.244 1.455 0 .225-.025.376-.075.454-.05.077-.143.116-.278.116h-4.995c.015.455.08.851.195 1.189a2.4 2.4 0 0 0 .476.844c.203.225.444.392.724.502.28.11.592.165.938.165.325 0 .606-.038.843-.113.238-.074.443-.156.615-.243.173-.088.318-.169.435-.244a.6.6 0 0 1 .311-.113c.12 0 .213.046.278.135l.42.54zm11.347-7.927a.61.61 0 0 1-.157.188.348.348 0 0 1-.21.06.55.55 0 0 1-.307-.124 6.089 6.089 0 0 0-.432-.278 3.339 3.339 0 0 0-.618-.277 2.664 2.664 0 0 0-.863-.124c-.315 0-.591.041-.829.124a1.745 1.745 0 0 0-.596.337 1.41 1.41 0 0 0-.364.503 1.573 1.573 0 0 0-.123.626c0 .29.073.53.22.72.148.19.342.352.582.488.24.135.512.252.818.352.305.1.617.204.937.311.32.108.632.231.938.371.305.14.577.317.817.53.24.212.434.472.581.78.148.307.221.683.221 1.128 0 .475-.08.92-.243 1.335a3.139 3.139 0 0 1-.709 1.087c-.31.31-.691.554-1.144.732-.452.177-.966.266-1.541.266a4.93 4.93 0 0 1-1.928-.386 4.636 4.636 0 0 1-.813-.443 4.02 4.02 0 0 1-.679-.581l.457-.765a.614.614 0 0 1 .162-.15.388.388 0 0 1 .213-.06c.106 0 .227.055.364.165.138.11.308.231.51.364.203.132.445.253.728.364.282.11.626.164 1.031.164.33 0 .625-.043.885-.13.26-.088.479-.213.656-.376.178-.162.314-.358.409-.588.095-.23.142-.485.142-.765 0-.316-.072-.573-.217-.773a1.773 1.773 0 0 0-.578-.502 4.23 4.23 0 0 0-.817-.346c-.305-.095-.617-.193-.938-.296a9.396 9.396 0 0 1-.937-.356 3.04 3.04 0 0 1-.818-.529 2.392 2.392 0 0 1-.577-.817c-.145-.328-.217-.731-.217-1.212a2.878 2.878 0 0 1 .88-2.073c.288-.278.642-.5 1.062-.668.42-.167.9-.251 1.44-.251a4.67 4.67 0 0 1 1.669.289 3.87 3.87 0 0 1 1.323.829l-.39.757zm3.818 1.395V517h-1.462v-7.62h1.462zm.278-2.355a.933.933 0 0 1-.083.386c-.055.123-.129.23-.221.323a1.008 1.008 0 0 1-.717.296.944.944 0 0 1-.382-.079 1.032 1.032 0 0 1-.536-.54.97.97 0 0 1-.079-.386.989.989 0 0 1 .296-.716c.093-.093.199-.165.319-.218a.997.997 0 0 1 .773 0c.125.053.233.125.326.218.092.092.166.2.221.322a.95.95 0 0 1 .083.394zm6.757 4.2c-.24-.315-.499-.535-.776-.66a2.249 2.249 0 0 0-.934-.188c-.67 0-1.189.242-1.556.724-.368.483-.551 1.186-.551 2.111 0 .486.04.9.123 1.242.083.342.203.622.36.84.158.217.351.377.581.48.23.102.49.154.78.154.426 0 .793-.095 1.103-.285.31-.19.6-.458.87-.803v-3.615zm1.47-5.295V517h-.885c-.205 0-.332-.097-.383-.293l-.127-.877a4.04 4.04 0 0 1-1.106.926c-.413.233-.889.349-1.429.349-.435 0-.829-.085-1.181-.255a2.487 2.487 0 0 1-.904-.746c-.25-.328-.442-.734-.578-1.219-.135-.485-.202-1.042-.202-1.673 0-.565.075-1.09.225-1.575.15-.485.367-.904.652-1.26.286-.355.63-.633 1.035-.836a3.027 3.027 0 0 1 1.373-.303c.46 0 .851.074 1.174.224.322.15.611.363.866.638v-4.17h1.47zm7.095 6.412a2.5 2.5 0 0 0-.124-.802 1.822 1.822 0 0 0-.364-.638c-.16-.18-.354-.32-.584-.42-.23-.1-.495-.15-.795-.15-.616 0-1.1.178-1.452.533-.352.355-.576.847-.671 1.477h3.99zm1.207 3.57a2.88 2.88 0 0 1-.622.544 3.612 3.612 0 0 1-.75.371 4.548 4.548 0 0 1-.821.21 5.31 5.31 0 0 1-.836.068 3.921 3.921 0 0 1-1.46-.266 3.242 3.242 0 0 1-1.162-.78 3.558 3.558 0 0 1-.765-1.275c-.182-.508-.273-1.091-.273-1.751 0-.53.082-1.024.247-1.482.165-.457.401-.856.709-1.196.307-.34.683-.607 1.129-.803a3.7 3.7 0 0 1 1.5-.292c.465 0 .893.076 1.286.229.392.152.731.373 1.016.663.285.29.509.648.671 1.073.163.425.244.91.244 1.455 0 .225-.025.376-.075.454-.05.077-.142.116-.277.116h-4.995c.015.455.08.851.194 1.189a2.4 2.4 0 0 0 .477.844c.202.225.443.392.724.502.28.11.592.165.937.165.325 0 .606-.038.844-.113.237-.074.442-.156.615-.243.172-.088.317-.169.435-.244a.6.6 0 0 1 .311-.113c.12 0 .212.046.278.135l.42.54zm3.15-.787c.24.315.5.535.78.66s.585.188.916.188c.68 0 1.203-.243 1.57-.728.368-.485.552-1.217.552-2.197 0-.906-.162-1.57-.487-1.992-.326-.422-.785-.633-1.38-.633-.42 0-.784.094-1.092.284a3.21 3.21 0 0 0-.858.81v3.608zm0-4.695c.316-.35.673-.632 1.073-.848.4-.215.855-.322 1.365-.322.445 0 .846.086 1.204.259.357.172.661.42.911.742.25.323.442.714.578 1.174.135.46.202.98.202 1.56 0 .615-.076 1.175-.229 1.68-.152.505-.37.937-.652 1.298-.283.36-.626.638-1.032.836-.405.197-.86.296-1.364.296a2.99 2.99 0 0 1-.675-.071 2.314 2.314 0 0 1-1.042-.536 3.507 3.507 0 0 1-.413-.443l-.068.638c-.04.205-.165.307-.375.307h-.945v-11.07h1.463v4.5zm11.063 3.187c-.595.02-1.1.067-1.515.14-.415.072-.752.168-1.012.288-.26.12-.448.261-.563.424a.92.92 0 0 0-.172.543c0 .19.03.354.093.492.063.137.148.25.255.337.108.088.234.151.379.192.145.04.302.06.472.06a2.463 2.463 0 0 0 1.62-.563c.15-.12.298-.257.443-.413v-1.5zm-4.29-3.172a4.36 4.36 0 0 1 1.384-.907c.497-.2 1.043-.3 1.638-.3.436 0 .82.07 1.156.213.335.143.617.341.847.596.23.256.404.56.521.915.118.356.177.748.177 1.178V517h-.653a.622.622 0 0 1-.33-.071c-.075-.048-.135-.136-.18-.266l-.157-.668c-.196.18-.388.339-.578.476-.19.138-.389.255-.596.353a3.045 3.045 0 0 1-.664.221c-.235.05-.495.075-.78.075a2.8 2.8 0 0 1-.844-.124 1.79 1.79 0 0 1-1.147-1.016 2.195 2.195 0 0 1-.169-.893c0-.3.081-.588.244-.866.162-.277.427-.526.795-.746.367-.22.847-.4 1.44-.54.592-.14 1.321-.22 2.186-.24v-.555c0-.575-.122-1.005-.367-1.29-.246-.285-.605-.428-1.08-.428-.32 0-.59.04-.807.12a3.11 3.11 0 0 0-.562.267c-.158.097-.295.186-.413.266a.638.638 0 0 1-.364.12.416.416 0 0 1-.258-.082.687.687 0 0 1-.176-.195l-.263-.473zm9.067.397c.246-.5.54-.892.886-1.177.345-.285.76-.428 1.244-.428.166 0 .322.02.47.057.147.037.275.094.385.168l-.097 1.103c-.035.135-.117.202-.248.202a1.8 1.8 0 0 1-.314-.04 2.334 2.334 0 0 0-.45-.042c-.236 0-.443.034-.623.101-.18.068-.341.168-.484.3a2.043 2.043 0 0 0-.379.488 4.88 4.88 0 0 0-.307.656V517h-1.462v-7.62h.84c.16 0 .268.029.326.086.057.058.098.159.123.304l.09 1.072zm13.778-2.857a.61.61 0 0 1-.157.188.348.348 0 0 1-.21.06.55.55 0 0 1-.308-.124 6.089 6.089 0 0 0-.431-.278 3.339 3.339 0 0 0-.619-.277 2.664 2.664 0 0 0-.862-.124c-.316 0-.592.041-.83.124a1.745 1.745 0 0 0-.596.337 1.41 1.41 0 0 0-.363.503 1.573 1.573 0 0 0-.124.626c0 .29.074.53.221.72.148.19.341.352.581.488.24.135.513.252.818.352.305.1.617.204.938.311.32.108.632.231.937.371.305.14.577.317.817.53.24.212.434.472.582.78.147.307.221.683.221 1.128 0 .475-.081.92-.244 1.335a3.139 3.139 0 0 1-.709 1.087c-.31.31-.69.554-1.143.732-.453.177-.966.266-1.541.266a4.93 4.93 0 0 1-1.928-.386 4.636 4.636 0 0 1-.814-.443 4.02 4.02 0 0 1-.678-.581l.457-.765a.614.614 0 0 1 .161-.15.388.388 0 0 1 .214-.06c.105 0 .226.055.364.165.137.11.307.231.51.364.202.132.445.253.727.364.283.11.626.164 1.031.164.33 0 .625-.043.886-.13.26-.088.478-.213.656-.376.177-.162.313-.358.409-.588.095-.23.142-.485.142-.765 0-.316-.072-.573-.218-.773a1.773 1.773 0 0 0-.577-.502 4.23 4.23 0 0 0-.817-.346c-.306-.095-.618-.193-.938-.296a9.396 9.396 0 0 1-.938-.356 3.04 3.04 0 0 1-.817-.529 2.392 2.392 0 0 1-.578-.817c-.145-.328-.217-.731-.217-1.212a2.878 2.878 0 0 1 .881-2.073c.288-.278.641-.5 1.061-.668.42-.167.9-.251 1.44-.251a4.67 4.67 0 0 1 1.67.289 3.87 3.87 0 0 1 1.323.829l-.39.757zm4.672 9.135c-.615 0-1.088-.172-1.42-.518-.333-.345-.5-.837-.5-1.477v-4.56h-.885a.305.305 0 0 1-.213-.079c-.058-.052-.087-.131-.087-.236v-.592l1.238-.173.33-2.273a.353.353 0 0 1 .116-.198.336.336 0 0 1 .221-.072h.743v2.558h2.16v1.065h-2.16v4.463c0 .3.074.523.221.67a.767.767 0 0 0 .567.222c.135 0 .25-.017.348-.053a1.39 1.39 0 0 0 .251-.116c.07-.042.13-.081.18-.116a.244.244 0 0 1 .136-.053c.05 0 .088.012.116.034a.42.42 0 0 1 .086.109l.435.705c-.24.22-.525.39-.855.51-.33.12-.672.18-1.028.18zm7.14-3.503c-.595.02-1.1.067-1.514.14-.416.072-.753.168-1.013.288-.26.12-.447.261-.563.424a.92.92 0 0 0-.172.543c0 .19.031.354.094.492.062.137.147.25.255.337.107.088.233.151.379.192.145.04.302.06.472.06a2.463 2.463 0 0 0 1.62-.563c.15-.12.297-.257.442-.413v-1.5zm-4.29-3.172a4.36 4.36 0 0 1 1.384-.907c.498-.2 1.044-.3 1.639-.3.435 0 .82.07 1.155.213.335.143.617.341.847.596.23.256.404.56.522.915.117.356.176.748.176 1.178V517h-.653a.622.622 0 0 1-.33-.071c-.075-.048-.135-.136-.18-.266l-.157-.668c-.195.18-.387.339-.578.476-.19.138-.388.255-.596.353a3.045 3.045 0 0 1-.664.221c-.235.05-.494.075-.78.075a2.8 2.8 0 0 1-.843-.124 1.79 1.79 0 0 1-1.148-1.016 2.195 2.195 0 0 1-.168-.893c0-.3.08-.588.243-.866.163-.277.428-.526.795-.746.368-.22.848-.4 1.44-.54.593-.14 1.321-.22 2.186-.24v-.555c0-.575-.122-1.005-.367-1.29-.245-.285-.605-.428-1.08-.428-.32 0-.589.04-.806.12a3.11 3.11 0 0 0-.563.267c-.157.097-.295.186-.412.266a.638.638 0 0 1-.364.12.416.416 0 0 1-.259-.082.687.687 0 0 1-.176-.195l-.263-.473zm10.073 6.675c-.615 0-1.089-.172-1.421-.518-.333-.345-.499-.837-.499-1.477v-4.56h-.885a.305.305 0 0 1-.214-.079c-.057-.052-.086-.131-.086-.236v-.592l1.237-.173.33-2.273a.353.353 0 0 1 .117-.198.336.336 0 0 1 .221-.072h.743v2.558h2.16v1.065h-2.16v4.463c0 .3.073.523.22.67a.767.767 0 0 0 .567.222c.135 0 .251-.017.349-.053a1.39 1.39 0 0 0 .251-.116c.07-.042.13-.081.18-.116a.244.244 0 0 1 .135-.053c.05 0 .089.012.116.034a.42.42 0 0 1 .087.109l.434.705c-.24.22-.524.39-.855.51-.33.12-.672.18-1.027.18zm8.093-4.778a2.5 2.5 0 0 0-.124-.802 1.822 1.822 0 0 0-.364-.638c-.16-.18-.355-.32-.585-.42-.23-.1-.495-.15-.795-.15-.615 0-1.099.178-1.451.533-.353.355-.576.847-.672 1.477h3.99zm1.207 3.57a2.88 2.88 0 0 1-.623.544 3.612 3.612 0 0 1-.75.371 4.548 4.548 0 0 1-.82.21 5.31 5.31 0 0 1-.837.068 3.921 3.921 0 0 1-1.459-.266 3.242 3.242 0 0 1-1.162-.78 3.558 3.558 0 0 1-.765-1.275c-.183-.508-.274-1.091-.274-1.751 0-.53.082-1.024.248-1.482.165-.457.4-.856.708-1.196.308-.34.684-.607 1.129-.803a3.7 3.7 0 0 1 1.5-.292c.465 0 .894.076 1.286.229.393.152.731.373 1.017.663.285.29.508.648.67 1.073.163.425.245.91.245 1.455 0 .225-.025.376-.075.454-.05.077-.143.116-.278.116h-4.995c.015.455.08.851.195 1.189a2.4 2.4 0 0 0 .476.844c.203.225.444.392.724.502.28.11.592.165.938.165.325 0 .606-.038.843-.113.238-.074.443-.156.615-.243.173-.088.318-.169.435-.244a.6.6 0 0 1 .311-.113c.12 0 .213.046.278.135l.42.54zm6.18-5.22a.41.41 0 0 1-.128.14.326.326 0 0 1-.172.04.552.552 0 0 1-.266-.082 5.593 5.593 0 0 0-.353-.18 3.417 3.417 0 0 0-.483-.18 2.332 2.332 0 0 0-.66-.082c-.21 0-.402.026-.574.078a1.36 1.36 0 0 0-.439.218.97.97 0 0 0-.278.33.887.887 0 0 0-.097.409c0 .19.056.347.169.472.112.125.26.232.442.322.183.09.39.172.623.244.232.073.47.149.712.229.243.08.48.171.713.274.232.102.44.23.622.382.183.153.33.336.443.551.112.216.168.478.168.788 0 .355-.063.684-.19.986a2.158 2.158 0 0 1-.563.784c-.248.22-.554.392-.919.518a3.858 3.858 0 0 1-1.252.187c-.526 0-1.01-.087-1.456-.263a3.645 3.645 0 0 1-1.117-.667l.345-.563c.04-.07.09-.123.15-.16a.449.449 0 0 1 .24-.057c.095 0 .192.035.293.105.1.07.22.146.36.229.14.082.31.157.51.225.2.067.45.101.75.101.25 0 .467-.031.652-.094a1.34 1.34 0 0 0 .461-.255c.123-.107.214-.231.274-.371.06-.14.09-.287.09-.442 0-.2-.056-.367-.169-.5a1.448 1.448 0 0 0-.442-.34 3.554 3.554 0 0 0-.626-.248c-.236-.07-.475-.145-.72-.225a7.376 7.376 0 0 1-.72-.278 2.473 2.473 0 0 1-.627-.397 1.847 1.847 0 0 1-.442-.585c-.113-.23-.169-.51-.169-.84 0-.295.061-.577.184-.848a2.1 2.1 0 0 1 .532-.712c.233-.205.52-.369.863-.491a3.474 3.474 0 0 1 1.174-.184c.505 0 .96.08 1.368.24.408.16.756.38 1.046.66l-.322.532zm1.785 5.43a.984.984 0 0 1 1.365-.91 1.018 1.018 0 0 1 .529.528c.052.12.079.247.079.382 0 .14-.027.27-.08.39a.966.966 0 0 1-.911.6c-.14 0-.27-.024-.39-.074a.925.925 0 0 1-.31-.21.997.997 0 0 1-.282-.706z" fill="#3E5667" fill-rule="nonzero"/></g></svg>