<?xml version="1.0" encoding="UTF-8"?>
<svg width="16px" height="16px" viewBox="0 0 16 16" version="1.1" xmlns="http://www.w3.org/2000/svg" xmlns:xlink="http://www.w3.org/1999/xlink">
    <title>Icons/Image/add-a-photo</title>
    <defs>
        <path d="M1.99999995,2.66666662 L1.99999995,0.666666621 L3.3333333,0.666666621 L3.3333333,2.66666662 L5.33333332,2.66666662 L5.33333332,3.99999997 L3.3333333,3.99999997 L3.3333333,5.99999999 L1.99999995,5.99999999 L1.99999995,3.99999997 L-5.00000006e-08,3.99999997 L-5.00000006e-08,2.66666662 L1.99999995,2.66666662 Z M3.99999996,6.66666663 L3.99999996,4.66666663 L5.99999996,4.66666663 L5.99999996,2.66666663 L10.6666667,2.66666663 L11.8866667,3.99999997 L14,3.99999997 C14.7333334,3.99999997 15.3333334,4.59999998 15.3333334,5.33333332 L15.3333334,13.3333334 C15.3333334,14.0666667 14.7333334,14.6666666 14,14.6666666 L3.3333333,14.6666666 C2.59999997,14.6666666 1.99999996,14.0666667 1.99999996,13.3333334 L1.99999996,6.66666663 L3.99999996,6.66666663 Z M8.66666667,12.6666667 C10.5066667,12.6666667 12,11.1733334 12,9.33333334 C12,7.49333333 10.5066667,5.99999999 8.66666667,5.99999999 C6.82666666,5.99999999 5.33333332,7.49333333 5.33333332,9.33333334 C5.33333332,11.1733334 6.82666666,12.6666667 8.66666667,12.6666667 Z M6.53333332,9.33333334 C6.53333332,10.5133333 7.48666666,11.4666667 8.66666667,11.4666667 C9.84666668,11.4666667 10.8,10.5133333 10.8,9.33333334 C10.8,8.15333333 9.84666668,7.19999999 8.66666667,7.19999999 C7.48666666,7.19999999 6.53333332,8.15333333 6.53333332,9.33333334 Z" id="path-1"></path>
    </defs>
    <g id="Icons/Image/add-a-photo" stroke="none" stroke-width="1" fill="none" fill-rule="evenodd">
        <mask id="mask-2" fill="white">
            <use xlink:href="#path-1"></use>
        </mask>
        <use id="Icons/Image/ic_add_a_photo_24px" fill="#233745" fill-rule="nonzero" xlink:href="#path-1"></use>
    </g>
</svg>