<?xml version="1.0" encoding="UTF-8"?>
<svg width="16px" height="16px" viewBox="0 0 16 16" version="1.1" xmlns="http://www.w3.org/2000/svg" xmlns:xlink="http://www.w3.org/1999/xlink">
    <title>Icons/Image/adjust</title>
    <g id="Icons/Image/adjust" stroke="none" stroke-width="1" fill="none" fill-rule="evenodd">
        <rect id="Spacer" fill-opacity="0" fill="#D8D8D8" x="0" y="0" width="16" height="16"></rect>
        <path d="M8,1.33333329 C4.32666664,1.33333329 1.33333329,4.32666664 1.33333329,8 C1.33333329,11.6733334 4.32666664,14.6666667 8,14.6666667 C11.6733334,14.6666667 14.6666667,11.6733334 14.6666667,8 C14.6666667,4.32666664 11.6733334,1.33333329 8,1.33333329 Z M8,13.3333334 C5.05999998,13.3333334 2.66666663,10.94 2.66666663,8 C2.66666663,5.05999998 5.05999998,2.66666663 8,2.66666663 C10.94,2.66666663 13.3333334,5.05999998 13.3333334,8 C13.3333334,10.94 10.94,13.3333334 8,13.3333334 Z M9.99999999,7.99999999 C9.99999999,9.10666667 9.10666667,9.99999999 7.99999999,9.99999999 C6.89333333,9.99999999 5.99999999,9.10666667 5.99999999,7.99999999 C5.99999999,6.89333333 6.89333333,5.99999999 7.99999999,5.99999999 C9.10666667,5.99999999 9.99999999,6.89333333 9.99999999,7.99999999 Z" id="Icons/Image/ic_adjust_24px" fill="#233745" fill-rule="nonzero"></path>
    </g>
</svg>