<?xml version="1.0" encoding="UTF-8"?>
<svg width="16px" height="16px" viewBox="0 0 16 16" version="1.1" xmlns="http://www.w3.org/2000/svg" xmlns:xlink="http://www.w3.org/1999/xlink">
    <title>Icons/Image/assistant</title>
    <defs>
        <path d="M12.6666667,1.33333329 L3.3333333,1.33333329 C2.59999997,1.33333329 1.99999996,1.9333333 1.99999996,2.66666663 L1.99999996,12 C1.99999996,12.7333334 2.59999997,13.3333333 3.3333333,13.3333333 L5.99999996,13.3333333 L7.99999996,15.3333333 L9.99999996,13.3333333 L12.6666667,13.3333333 C13.4,13.3333333 14,12.7333334 14,12 L14,2.66666663 C14,1.9333333 13.4,1.33333329 12.6666667,1.33333329 Z M9.25333334,8.58666667 L7.99999997,11.3333333 L6.74666666,8.58666667 L3.99999997,7.3333333 L6.74666666,6.07999999 L7.99999997,3.3333333 L9.25333334,6.07999999 L12,7.3333333 L9.25333334,8.58666667 Z" id="path-1"></path>
    </defs>
    <g id="Icons/Image/assistant" stroke="none" stroke-width="1" fill="none" fill-rule="evenodd">
        <mask id="mask-2" fill="white">
            <use xlink:href="#path-1"></use>
        </mask>
        <use id="Icons/Image/ic_assistant_24px" fill="#233745" fill-rule="nonzero" xlink:href="#path-1"></use>
    </g>
</svg>