<?xml version="1.0" encoding="UTF-8"?>
<svg width="16px" height="16px" viewBox="0 0 16 16" version="1.1" xmlns="http://www.w3.org/2000/svg" xmlns:xlink="http://www.w3.org/1999/xlink">
    <title>Icons/Image/blur-off</title>
    <g id="Icons/Image/blur-off" stroke="none" stroke-width="1" fill="none" fill-rule="evenodd">
        <rect id="Spacer" fill-opacity="0" fill="#D8D8D8" x="0" y="0" width="16" height="16"></rect>
        <path d="M9.33333334,4.66666665 C9.70000001,4.66666665 10,4.36666664 10,3.99999997 C10,3.63333331 9.70000001,3.3333333 9.33333334,3.3333333 C8.96666667,3.3333333 8.66666667,3.63333331 8.66666667,3.99999997 C8.66666667,4.36666664 8.96666667,4.66666665 9.33333334,4.66666665 Z M9.20000001,7.65333333 L9.33333334,7.66666665 C9.88666668,7.66666665 10.3333333,7.22 10.3333333,6.66666665 C10.3333333,6.11333332 9.88666668,5.66666665 9.33333334,5.66666665 C8.78,5.66666665 8.33333334,6.11333332 8.33333334,6.66666665 L8.34666667,6.79999999 C8.40666667,7.24666666 8.75333334,7.59333333 9.20000001,7.65333333 L9.20000001,7.65333333 Z M9.33333334,2.3333333 C9.52000001,2.3333333 9.66666668,2.18666663 9.66666668,1.99999996 C9.66666668,1.81333329 9.52000001,1.66666663 9.33333334,1.66666663 C9.14666667,1.66666663 9.00000001,1.81333329 9.00000001,1.99999996 C9.00000001,2.18666663 9.14666667,2.3333333 9.33333334,2.3333333 Z M6.66666666,2.3333333 C6.85333333,2.3333333 6.99999999,2.18666663 6.99999999,1.99999996 C6.99999999,1.81333329 6.85333333,1.66666663 6.66666666,1.66666663 C6.47999999,1.66666663 6.33333332,1.81333329 6.33333332,1.99999996 C6.33333332,2.18666663 6.47999999,2.3333333 6.66666666,2.3333333 Z M14,6.99999999 C14.1866667,6.99999999 14.3333334,6.85333333 14.3333334,6.66666666 C14.3333334,6.47999999 14.1866667,6.33333332 14,6.33333332 C13.8133334,6.33333332 13.6666667,6.47999999 13.6666667,6.66666666 C13.6666667,6.85333333 13.8133334,6.99999999 14,6.99999999 Z M6.66666666,4.66666665 C7.03333333,4.66666665 7.33333333,4.36666664 7.33333333,3.99999997 C7.33333333,3.63333331 7.03333333,3.3333333 6.66666666,3.3333333 C6.29999999,3.3333333 5.99999999,3.63333331 5.99999999,3.99999997 C5.99999999,4.36666664 6.29999999,4.66666665 6.66666666,4.66666665 Z M12,10 C12.3666667,10 12.6666667,9.70000001 12.6666667,9.33333334 C12.6666667,8.96666667 12.3666667,8.66666667 12,8.66666667 C11.6333334,8.66666667 11.3333334,8.96666667 11.3333334,9.33333334 C11.3333334,9.70000001 11.6333334,10 12,10 Z M12,7.33333333 C12.3666667,7.33333333 12.6666667,7.03333333 12.6666667,6.66666666 C12.6666667,6.29999999 12.3666667,5.99999999 12,5.99999999 C11.6333334,5.99999999 11.3333334,6.29999999 11.3333334,6.66666666 C11.3333334,7.03333333 11.6333334,7.33333333 12,7.33333333 Z M12,4.66666665 C12.3666667,4.66666665 12.6666667,4.36666664 12.6666667,3.99999997 C12.6666667,3.63333331 12.3666667,3.3333333 12,3.3333333 C11.6333334,3.3333333 11.3333334,3.63333331 11.3333334,3.99999997 C11.3333334,4.36666664 11.6333334,4.66666665 12,4.66666665 Z M9.33333334,13.6666667 C9.14666667,13.6666667 9.00000001,13.8133334 9.00000001,14 C9.00000001,14.1866667 9.14666667,14.3333334 9.33333334,14.3333334 C9.52000001,14.3333334 9.66666668,14.1866667 9.66666668,14 C9.66666668,13.8133334 9.52000001,13.6666667 9.33333334,13.6666667 Z M1.66666663,3.51333331 L4.18666664,6.03333332 L3.99999997,5.99999999 C3.63333331,5.99999999 3.3333333,6.29999999 3.3333333,6.66666663 C3.3333333,7.03333333 3.63333331,7.33333333 3.99999997,7.33333333 C4.36666664,7.33333333 4.66666663,7.03333333 4.66666663,6.66666663 C4.66666663,6.59999999 4.64666665,6.53999999 4.62666665,6.47999999 L6.49999999,8.35333334 C6.02666665,8.42666667 5.66666663,8.84000001 5.66666663,9.33333334 C5.66666663,9.88666668 6.11333332,10.3333333 6.66666663,10.3333333 C7.15999999,10.3333333 7.57333333,9.97333335 7.64666666,9.50000001 L9.52000001,11.3733334 C9.46000001,11.3533334 9.40000001,11.3333334 9.33333334,11.3333334 C8.96666667,11.3333334 8.66666663,11.6333334 8.66666663,12 C8.66666663,12.3666667 8.96666667,12.6666666 9.33333334,12.6666666 C9.70000001,12.6666666 10,12.3666667 10,12 C10,11.9333334 9.98000001,11.8733334 9.96000001,11.8133334 L12.48,14.3333334 L13.3333334,13.4866667 L2.5133333,2.66666663 L1.66666663,3.51333331 Z M6.66666666,11.3333334 C6.29999999,11.3333334 5.99999999,11.6333334 5.99999999,12 C5.99999999,12.3666667 6.29999999,12.6666667 6.66666666,12.6666667 C7.03333333,12.6666667 7.33333333,12.3666667 7.33333333,12 C7.33333333,11.6333334 7.03333333,11.3333334 6.66666666,11.3333334 Z M14,9.00000001 C13.8133334,9.00000001 13.6666667,9.14666667 13.6666667,9.33333334 C13.6666667,9.52000001 13.8133334,9.66666668 14,9.66666668 C14.1866667,9.66666668 14.3333334,9.52000001 14.3333334,9.33333334 C14.3333334,9.14666667 14.1866667,9.00000001 14,9.00000001 Z M3.99999997,8.66666667 C3.63333331,8.66666667 3.3333333,8.96666667 3.3333333,9.33333334 C3.3333333,9.70000001 3.63333331,10 3.99999997,10 C4.36666664,10 4.66666665,9.70000001 4.66666665,9.33333334 C4.66666665,8.96666667 4.36666664,8.66666667 3.99999997,8.66666667 Z M1.99999996,6.33333332 C1.81333329,6.33333332 1.66666663,6.47999999 1.66666663,6.66666666 C1.66666663,6.85333333 1.81333329,6.99999999 1.99999996,6.99999999 C2.18666663,6.99999999 2.3333333,6.85333333 2.3333333,6.66666666 C2.3333333,6.47999999 2.18666663,6.33333332 1.99999996,6.33333332 Z M6.66666666,13.6666667 C6.47999999,13.6666667 6.33333332,13.8133334 6.33333332,14 C6.33333332,14.1866667 6.47999999,14.3333334 6.66666666,14.3333334 C6.85333333,14.3333334 6.99999999,14.1866667 6.99999999,14 C6.99999999,13.8133334 6.85333333,13.6666667 6.66666666,13.6666667 Z M3.99999997,11.3333334 C3.63333331,11.3333334 3.3333333,11.6333334 3.3333333,12 C3.3333333,12.3666667 3.63333331,12.6666667 3.99999997,12.6666667 C4.36666664,12.6666667 4.66666665,12.3666667 4.66666665,12 C4.66666665,11.6333334 4.36666664,11.3333334 3.99999997,11.3333334 Z M1.99999996,9.00000001 C1.81333329,9.00000001 1.66666663,9.14666667 1.66666663,9.33333334 C1.66666663,9.52000001 1.81333329,9.66666668 1.99999996,9.66666668 C2.18666663,9.66666668 2.3333333,9.52000001 2.3333333,9.33333334 C2.3333333,9.14666667 2.18666663,9.00000001 1.99999996,9.00000001 Z" id="Icons/Image/ic_blur_off_24px" fill="#233745" fill-rule="nonzero"></path>
    </g>
</svg>