<?xml version="1.0" encoding="UTF-8"?>
<svg width="16px" height="16px" viewBox="0 0 16 16" version="1.1" xmlns="http://www.w3.org/2000/svg" xmlns:xlink="http://www.w3.org/1999/xlink">
    <title>Icons/Image/brightness-4</title>
    <g id="Icons/Image/brightness-4" stroke="none" stroke-width="1" fill="none" fill-rule="evenodd">
        <rect id="Spacer" fill-opacity="0" fill="#D8D8D8" x="0" y="0" width="16" height="16"></rect>
        <path d="M13.3333334,5.79333332 L13.3333334,2.66666663 L10.2066667,2.66666663 L8,0.459999953 L5.79333332,2.66666663 L2.66666663,2.66666663 L2.66666663,5.79333332 L0.459999953,8 L2.66666663,10.2066667 L2.66666663,13.3333334 L5.79333332,13.3333334 L8,15.54 L10.2066667,13.3333334 L13.3333334,13.3333334 L13.3333334,10.2066667 L15.54,8 L13.3333334,5.79333332 Z M8,12 C7.40666666,12 6.83999999,11.8666667 6.33333332,11.6333334 C7.70666666,11 8.66666667,9.61333334 8.66666667,7.99999997 C8.66666667,6.38666666 7.70666666,4.99999997 6.33333332,4.36666664 C6.83999999,4.13333331 7.40666666,3.99999997 8,3.99999997 C10.2066667,3.99999997 12,5.79333332 12,7.99999997 C12,10.2066667 10.2066667,12 8,12 Z" id="Icons/Image/ic_brightness_4_24px" fill="#233745" fill-rule="nonzero"></path>
    </g>
</svg>