<?xml version="1.0" encoding="UTF-8"?>
<svg width="16px" height="16px" viewBox="0 0 16 16" version="1.1" xmlns="http://www.w3.org/2000/svg" xmlns:xlink="http://www.w3.org/1999/xlink">
    <title>Icons/Image/brightness-5</title>
    <g id="Icons/Image/brightness-5" stroke="none" stroke-width="1" fill="none" fill-rule="evenodd">
        <rect id="Spacer" fill-opacity="0" fill="#D8D8D8" x="0" y="0" width="16" height="16"></rect>
        <path d="M13.3333334,10.2066667 L15.54,8 L13.3333334,5.79333332 L13.3333334,2.66666663 L10.2066667,2.66666663 L8,0.459999953 L5.79333332,2.66666663 L2.66666663,2.66666663 L2.66666663,5.79333332 L0.459999953,8 L2.66666663,10.2066667 L2.66666663,13.3333334 L5.79333332,13.3333334 L8,15.54 L10.2066667,13.3333334 L13.3333334,13.3333334 L13.3333334,10.2066667 Z M7.99999997,12 C5.79333332,12 3.99999997,10.2066667 3.99999997,7.99999997 C3.99999997,5.79333332 5.79333332,3.99999997 7.99999997,3.99999997 C10.2066667,3.99999997 12,5.79333332 12,7.99999997 C12,10.2066667 10.2066667,12 7.99999997,12 Z" id="Icons/Image/ic_brightness_5_24px" fill="#233745" fill-rule="nonzero"></path>
    </g>
</svg>