<?xml version="1.0" encoding="UTF-8"?>
<svg width="16px" height="16px" viewBox="0 0 16 16" version="1.1" xmlns="http://www.w3.org/2000/svg" xmlns:xlink="http://www.w3.org/1999/xlink">
    <title>Icons/Image/broken-image</title>
    <defs>
        <path d="M14,3.3333333 L14,7.72666666 L12,5.71999999 L9.33333334,8.39333334 L6.66666666,5.72666665 L3.99999996,8.39333334 L1.99999996,6.38666666 L1.99999996,3.3333333 C1.99999996,2.59999997 2.59999997,1.99999996 3.3333333,1.99999996 L12.6666667,1.99999996 C13.4,1.99999996 14,2.59999997 14,3.3333333 Z M12,7.61333333 L14,9.62000001 L14,12.6666667 C14,13.4 13.4,14 12.6666667,14 L3.3333333,14 C2.59999997,14 1.99999996,13.4 1.99999996,12.6666667 L1.99999996,8.28 L3.99999996,10.2733333 L6.66666666,7.60666666 L9.33333334,10.2733333 L12,7.61333333 Z" id="path-1"></path>
    </defs>
    <g id="Icons/Image/broken-image" stroke="none" stroke-width="1" fill="none" fill-rule="evenodd">
        <mask id="mask-2" fill="white">
            <use xlink:href="#path-1"></use>
        </mask>
        <use id="Icons/Image/ic_broken_image_24px" fill="#233745" fill-rule="nonzero" xlink:href="#path-1"></use>
    </g>
</svg>