<?xml version="1.0" encoding="UTF-8"?>
<svg width="16px" height="16px" viewBox="0 0 16 16" version="1.1" xmlns="http://www.w3.org/2000/svg" xmlns:xlink="http://www.w3.org/1999/xlink">
    <title>Icons/Image/burst-mode</title>
    <defs>
        <path d="M0.666666621,3.3333333 L1.99999996,3.3333333 L1.99999996,12.6666667 L0.666666621,12.6666667 L0.666666621,3.3333333 Z M3.3333333,3.3333333 L4.66666665,3.3333333 L4.66666665,12.6666667 L3.3333333,12.6666667 L3.3333333,3.3333333 Z M14.6666667,3.3333333 L6.66666666,3.3333333 C6.29999999,3.3333333 5.99999999,3.63333331 5.99999999,3.99999997 L5.99999999,12 C5.99999999,12.3666667 6.29999999,12.6666667 6.66666666,12.6666667 L14.6666667,12.6666667 C15.0333334,12.6666667 15.3333334,12.3666667 15.3333334,12 L15.3333334,3.99999997 C15.3333334,3.63333331 15.0333334,3.3333333 14.6666667,3.3333333 Z M7.33333333,11.3333334 L9.00000001,9.23333334 L10.1933333,10.6666667 L11.86,8.52 L14,11.3333334 L7.33333333,11.3333334 Z" id="path-1"></path>
    </defs>
    <g id="Icons/Image/burst-mode" stroke="none" stroke-width="1" fill="none" fill-rule="evenodd">
        <mask id="mask-2" fill="white">
            <use xlink:href="#path-1"></use>
        </mask>
        <use id="Icons/Image/ic_burst_mode_24px" fill="#233745" fill-rule="nonzero" xlink:href="#path-1"></use>
    </g>
</svg>