<svg xmlns="http://www.w3.org/2000/svg" xmlns:xlink="http://www.w3.org/1999/xlink" width="16" height="16" viewBox="0 0 16 16">
  <defs>
    <path id="camera-front-a" d="M6.66666666,13.3333334 L3.3333333,13.3333334 L3.3333333,14.6666667 L6.66666666,14.6666667 L6.66666666,16 L8.66666667,14 L6.66666666,12 L6.66666666,13.3333334 Z M9.33333334,13.3333334 L9.33333334,14.6666667 L12.6666667,14.6666667 L12.6666667,13.3333334 L9.33333334,13.3333334 Z M8,5.33333332 C8.73333334,5.33333332 9.33333334,4.73333331 9.33333334,3.99999997 C9.33333334,3.26666664 8.73333334,2.66666663 8,2.66666663 C7.26666666,2.66666663 6.67333333,3.26666664 6.67333333,3.99999997 C6.67333333,4.73333331 7.26666666,5.33333332 8,5.33333332 Z M11.3333333,-5.00000006e-08 L4.66666665,-5.00000006e-08 C3.93333331,-5.00000006e-08 3.3333333,0.599999954 3.3333333,1.33333329 L3.3333333,10.6666667 C3.3333333,11.4 3.93333331,11.9999999 4.66666665,11.9999999 L11.3333333,11.9999999 C12.0666667,11.9999999 12.6666667,11.4 12.6666667,10.6666667 L12.6666667,1.33333329 C12.6666667,0.599999954 12.0666667,-5.00000006e-08 11.3333333,-5.00000006e-08 Z M4.66666665,1.33333329 L11.3333334,1.33333329 L11.3333334,8.33333329 C11.3333334,7.22 9.11333334,6.66666666 8,6.66666666 C6.88666666,6.66666666 4.66666665,7.22 4.66666665,8.33333329 L4.66666665,1.33333329 Z"/>
  </defs>
  <g fill="none" fill-rule="evenodd">
    <mask id="camera-front-b" fill="#fff">
      <use xlink:href="#camera-front-a"/>
    </mask>
    <g fill="CurrentColor" mask="url(#camera-front-b)">
      <rect width="16" height="16"/>
    </g>
  </g>
</svg>
