<?xml version="1.0" encoding="UTF-8"?>
<svg width="16px" height="16px" viewBox="0 0 16 16" version="1.1" xmlns="http://www.w3.org/2000/svg" xmlns:xlink="http://www.w3.org/1999/xlink">
    <title>Icons/Image/camera-roll</title>
    <g id="Icons/Image/camera-roll" stroke="none" stroke-width="1" fill="none" fill-rule="evenodd">
        <rect id="Spacer" fill-opacity="0" fill="#D8D8D8" x="0" y="0" width="16" height="16"></rect>
        <path d="M9.33333329,3.3333333 C9.33333329,2.59999997 8.73333334,1.99999996 8,1.99999996 L7.33333329,1.99999996 L7.33333329,1.33333329 C7.33333329,0.966666623 7.03333333,0.666666621 6.66666666,0.666666621 L3.99999998,0.666666621 C3.63333331,0.666666621 3.33333329,0.966666623 3.33333329,1.33333329 L3.33333329,1.99999996 L2.66666663,1.99999996 C1.9333333,1.99999996 1.33333329,2.59999997 1.33333329,3.3333333 L1.33333329,13.3333334 C1.33333329,14.0666667 1.9333333,14.6666666 2.66666663,14.6666666 L8,14.6666666 C8.73333334,14.6666666 9.33333329,14.0666667 9.33333329,13.3333334 L14.6666667,13.3333334 L14.6666667,3.3333333 L9.33333329,3.3333333 Z M8,12 L6.66666666,12 L6.66666666,10.6666667 L8,10.6666667 L8,12 Z M8,5.99999999 L6.66666666,5.99999999 L6.66666666,4.66666665 L8,4.66666665 L8,5.99999999 Z M10.6666667,12 L9.33333334,12 L9.33333334,10.6666667 L10.6666667,10.6666667 L10.6666667,12 Z M10.6666667,5.99999999 L9.33333334,5.99999999 L9.33333334,4.66666665 L10.6666667,4.66666665 L10.6666667,5.99999999 Z M13.3333334,12 L12,12 L12,10.6666667 L13.3333334,10.6666667 L13.3333334,12 Z M13.3333334,5.99999999 L12,5.99999999 L12,4.66666665 L13.3333334,4.66666665 L13.3333334,5.99999999 Z" id="Icons/Image/ic_camera_roll_24px" fill="#233745" fill-rule="nonzero"></path>
    </g>
</svg>