<?xml version="1.0" encoding="UTF-8"?>
<svg width="16px" height="16px" viewBox="0 0 16 16" version="1.1" xmlns="http://www.w3.org/2000/svg" xmlns:xlink="http://www.w3.org/1999/xlink">
    <title>Icons/Image/camera</title>
    <g id="Icons/Image/camera" stroke="none" stroke-width="1" fill="none" fill-rule="evenodd">
        <rect id="Spacer" fill-opacity="0" fill="#D8D8D8" x="0" y="0" width="16" height="16"></rect>
        <path d="M6.26666666,6.99999999 L9.44666668,1.49333329 C8.98000001,1.39333329 8.5,1.33333329 8,1.33333329 C6.39999999,1.33333329 4.93333331,1.89999996 3.78666664,2.83333329 L6.22666666,7.06666666 L6.26666666,6.99999999 Z M14.36,5.99999999 C13.7466667,4.05333331 12.26,2.4933333 10.36,1.77333329 L7.92,5.99999999 L14.36,5.99999999 Z M14.5333334,6.66666666 L9.54000001,6.66666666 L9.73333334,6.99999999 L12.9066667,12.5 C14,11.3133334 14.6666667,9.74000001 14.6666667,8 C14.6666667,7.54 14.62,7.09999999 14.5333334,6.66666666 Z M5.69333332,7.99999997 L3.0933333,3.49999997 C2.00666663,4.68666665 1.33333329,6.25999999 1.33333329,7.99999997 C1.33333329,8.46 1.37999996,8.90000001 1.46666663,9.33333334 L6.45999999,9.33333334 L5.69333332,7.99999997 L5.69333332,7.99999997 Z M1.63999996,10 C2.2533333,11.9466667 3.73999997,13.5066667 5.63999996,14.2266667 L8.08,10 L1.63999996,10 Z M9.15333334,10 L6.55333332,14.5066667 C7.01999999,14.6066667 7.5,14.6666667 8,14.6666667 C9.60000001,14.6666667 11.0666667,14.1 12.2133334,13.1666667 L9.77333334,8.93333334 L9.15333334,10 L9.15333334,10 Z" id="Icons/Image/ic_camera_24px" fill="#233745" fill-rule="nonzero"></path>
    </g>
</svg>