<?xml version="1.0" encoding="UTF-8"?>
<svg width="16px" height="16px" viewBox="0 0 16 16" version="1.1" xmlns="http://www.w3.org/2000/svg" xmlns:xlink="http://www.w3.org/1999/xlink">
    <title>Icons/Image/camera-rear</title>
    <g id="Icons/Image/camera-rear" stroke="none" stroke-width="1" fill="none" fill-rule="evenodd">
        <rect id="Spacer" fill-opacity="0" fill="#D8D8D8" x="0" y="0" width="16" height="16"></rect>
        <path d="M6.66666666,13.3333334 L3.3333333,13.3333334 L3.3333333,14.6666667 L6.66666666,14.6666667 L6.66666666,16 L8.66666667,14 L6.66666666,12 L6.66666666,13.3333334 Z M9.33333334,13.3333334 L9.33333334,14.6666667 L12.6666667,14.6666667 L12.6666667,13.3333334 L9.33333334,13.3333334 Z M11.3333333,-5.00000006e-08 L4.66666665,-5.00000006e-08 C3.93333331,-5.00000006e-08 3.3333333,0.599999954 3.3333333,1.33333329 L3.3333333,10.6666667 C3.3333333,11.4 3.93333331,11.9999999 4.66666665,11.9999999 L11.3333333,11.9999999 C12.0666667,11.9999999 12.6666667,11.4 12.6666667,10.6666667 L12.6666667,1.33333329 C12.6666667,0.599999954 12.0666667,-5.00000006e-08 11.3333333,-5.00000006e-08 Z M8,3.99999997 C7.26,3.99999997 6.66666666,3.39999997 6.66666666,2.66666663 C6.66666666,1.9333333 7.26,1.33333329 7.99333333,1.33333329 C8.72666667,1.33333329 9.32666667,1.9333333 9.32666667,2.66666663 C9.33333334,3.39999997 8.73333334,3.99999997 8,3.99999997 Z" id="Icons/Image/ic_camera_rear_24px" fill="#233745" fill-rule="nonzero"></path>
    </g>
</svg>