<?xml version="1.0" encoding="UTF-8"?>
<svg width="16px" height="16px" viewBox="0 0 16 16" version="1.1" xmlns="http://www.w3.org/2000/svg" xmlns:xlink="http://www.w3.org/1999/xlink">
    <title>Icons/Image/control-point-duplicate</title>
    <g id="Icons/Image/control-point-duplicate" stroke="none" stroke-width="1" fill="none" fill-rule="evenodd">
        <rect id="Spacer" fill-opacity="0" fill="#D8D8D8" x="0" y="0" width="16" height="16"></rect>
        <path d="M10.6666667,5.33333332 L9.33333333,5.33333332 L9.33333333,7.33333332 L7.33333333,7.33333332 L7.33333333,8.66666667 L9.33333333,8.66666667 L9.33333333,10.6666667 L10.6666667,10.6666667 L10.6666667,8.66666667 L12.6666667,8.66666667 L12.6666667,7.33333332 L10.6666667,7.33333332 L10.6666667,5.33333332 Z M1.33333329,8 C1.33333329,6.13999999 2.42666663,4.53333331 4.00666664,3.78666664 L4.00666664,2.34666663 C1.67999996,3.1733333 -5.00000006e-08,5.39333332 -5.00000006e-08,8 C-5.00000006e-08,10.6066667 1.67999996,12.8266667 4.00666664,13.6533334 L4.00666664,12.2133334 C2.42666663,11.4666667 1.33333329,9.86000001 1.33333329,8 Z M9.99999997,1.99999996 C6.69333333,1.99999996 3.99999997,4.69333331 3.99999997,7.99999996 C3.99999997,11.3066667 6.69333333,14 9.99999997,14 C13.3066667,14 16,11.3066667 16,7.99999996 C16,4.69333331 13.3066667,1.99999996 9.99999997,1.99999996 Z M10,12.6666667 C7.42666666,12.6666667 5.33333332,10.5733333 5.33333332,8 C5.33333332,5.42666665 7.42666666,3.3333333 10,3.3333333 C12.5733334,3.3333333 14.6666667,5.42666665 14.6666667,8 C14.6666667,10.5733333 12.5733334,12.6666667 10,12.6666667 Z" id="Icons/Image/ic_control_point_duplicate_24px" fill="#233745" fill-rule="nonzero"></path>
    </g>
</svg>