<?xml version="1.0" encoding="UTF-8"?>
<svg width="16px" height="16px" viewBox="0 0 16 16" version="1.1" xmlns="http://www.w3.org/2000/svg" xmlns:xlink="http://www.w3.org/1999/xlink">
    <title>Icons/Image/crop-rotate</title>
    <g id="Icons/Image/crop-rotate" stroke="none" stroke-width="1" fill="none" fill-rule="evenodd">
        <rect id="Spacer" fill-opacity="0" fill="#D8D8D8" x="0" y="0" width="16" height="16"></rect>
        <path d="M4.97999998,14.3266667 C2.79999997,13.2866667 1.23999996,11.1733334 0.99999995,8.66666667 L-5.00000006e-08,8.66666667 C0.339999952,12.7733334 3.77333331,16.0000001 7.96666667,16.0000001 C8.12,16.0000001 8.26,15.9866667 8.40666667,15.98 L5.86666665,13.4333334 L4.97999998,14.3266667 Z M8.03333333,-5.00000006e-08 C7.88,-5.00000006e-08 7.74,0.0133332834 7.59333333,0.0266666168 L10.1333333,2.56666663 L11.02,1.67999996 C13.2,2.7133333 14.76,4.82666665 15,7.33333333 L16.0000001,7.33333333 C15.66,3.22666664 12.2266667,-5.00000006e-08 8.03333333,-5.00000006e-08 Z M10.6666667,9.33333334 L12,9.33333334 L12,5.33333332 C12,4.59333331 11.4,3.99999997 10.6666667,3.99999997 L6.66666666,3.99999997 L6.66666666,5.33333332 L10.6666667,5.33333332 L10.6666667,9.33333334 Z M5.33333332,10.6666666 L5.33333332,2.66666663 L3.99999997,2.66666663 L3.99999997,3.99999997 L2.66666663,3.99999997 L2.66666663,5.33333332 L3.99999997,5.33333332 L3.99999997,10.6666666 C3.99999997,11.4 4.59333331,12 5.33333332,12 L10.6666666,12 L10.6666666,13.3333334 L12,13.3333334 L12,12 L13.3333334,12 L13.3333334,10.6666666 L5.33333332,10.6666666 Z" id="Icons/Image/ic_crop_rotate_24px" fill="#233745" fill-rule="nonzero"></path>
    </g>
</svg>