<?xml version="1.0" encoding="UTF-8"?>
<svg width="16px" height="16px" viewBox="0 0 16 16" version="1.1" xmlns="http://www.w3.org/2000/svg" xmlns:xlink="http://www.w3.org/1999/xlink">
    <title>Icons/Image/crop</title>
    <g id="Icons/Image/crop" stroke="none" stroke-width="1" fill="none" fill-rule="evenodd">
        <rect id="Spacer" fill-opacity="0" fill="#D8D8D8" x="0" y="0" width="16" height="16"></rect>
        <path d="M11.3333334,10 L12.6666667,10 L12.6666667,4.66666665 C12.6666667,3.93333331 12.0666667,3.3333333 11.3333334,3.3333333 L5.99999999,3.3333333 L5.99999999,4.66666665 L11.3333334,4.66666665 L11.3333334,10 Z M4.66666662,11.3333334 L4.66666662,0.666666621 L3.3333333,0.666666621 L3.3333333,3.3333333 L0.666666621,3.3333333 L0.666666621,4.66666662 L3.3333333,4.66666662 L3.3333333,11.3333334 C3.3333333,12.0666667 3.93333331,12.6666666 4.66666662,12.6666666 L11.3333334,12.6666666 L11.3333334,15.3333334 L12.6666666,15.3333334 L12.6666666,12.6666666 L15.3333334,12.6666666 L15.3333334,11.3333334 L4.66666662,11.3333334 Z" id="Icons/Image/ic_crop_24px" fill="#233745" fill-rule="nonzero"></path>
    </g>
</svg>