<svg xmlns="http://www.w3.org/2000/svg" xmlns:xlink="http://www.w3.org/1999/xlink" width="16" height="16" viewBox="0 0 16 16">
  <defs>
    <path id="crop-original-a" d="M12.6666667,1.99999996 L3.3333333,1.99999996 C2.59999997,1.99999996 1.99999996,2.59999997 1.99999996,3.3333333 L1.99999996,12.6666667 C1.99999996,13.4 2.59999997,14 3.3333333,14 L12.6666667,14 C13.4,14 14,13.4 14,12.6666667 L14,3.3333333 C14,2.59999997 13.4,1.99999996 12.6666667,1.99999996 Z M12.6666667,12.6666667 L3.3333333,12.6666667 L3.3333333,3.3333333 L12.6666667,3.3333333 L12.6666667,12.6666667 Z M9.30666667,8.19333333 L7.47333333,10.5533333 L6.16666666,8.98000001 L4.33333331,11.3333334 L11.6666667,11.3333334 L9.30666667,8.19333333 Z"/>
  </defs>
  <g fill="none" fill-rule="evenodd">
    <mask id="crop-original-b" fill="#fff">
      <use xlink:href="#crop-original-a"/>
    </mask>
    <g fill="CurrentColor" mask="url(#crop-original-b)">
      <rect width="16" height="16"/>
    </g>
  </g>
</svg>
