<svg xmlns="http://www.w3.org/2000/svg" xmlns:xlink="http://www.w3.org/1999/xlink" width="16" height="16" viewBox="0 0 16 16">
  <defs>
    <path id="exposure-zero-a" d="M10.76,8.3333333 C10.76,9.00000001 10.6933334,9.56666668 10.56,10.0333333 C10.4266667,10.5 10.24,10.88 10.0066667,11.1666667 C9.76666668,11.46 9.48000001,11.6666667 9.14000001,11.8 C8.80000001,11.9333334 8.42666667,12 8.00666667,12 C7.59333333,12 7.22,11.9333334 6.87999999,11.8 C6.53999999,11.6666667 6.24666666,11.46 6.00666665,11.1666667 C5.76666665,10.8733334 5.57333332,10.4933333 5.43999998,10.0333333 C5.30666665,9.56666668 5.23999998,9.00000001 5.23999998,8.3333333 L5.23999998,6.97333333 C5.23999998,6.30666666 5.30666665,5.73999999 5.43999998,5.27333332 C5.57333332,4.80666665 5.75999999,4.43333331 5.99999999,4.14666664 C6.23999998,3.85999997 6.53333332,3.65333331 6.87333333,3.52666664 C7.20666666,3.39999997 7.58666666,3.3333333 8,3.3333333 C8.42,3.3333333 8.79333334,3.39999997 9.13333334,3.52666664 C9.47333334,3.65333331 9.76666668,3.85999997 10.0066667,4.14666664 C10.2466667,4.43333331 10.4333333,4.80666665 10.5666667,5.27333332 C10.7,5.73999999 10.7666667,6.29999999 10.7666667,6.97333333 L10.7666667,8.3333333 L10.76,8.3333333 Z M9.35333334,6.75999999 C9.35333334,6.33333332 9.32000001,5.97333332 9.26666667,5.67999999 C9.20666667,5.38666665 9.12000001,5.15333332 9.00000001,4.97333331 C8.88666667,4.79333331 8.74,4.66666665 8.57333334,4.58666665 C8.40666667,4.49999998 8.21333333,4.45999998 8,4.45999998 C7.78666667,4.45999998 7.59333333,4.49999998 7.42666666,4.57999998 C7.26,4.65999998 7.11333333,4.78666665 6.99999999,4.96666665 C6.88666666,5.14666665 6.79333333,5.37999998 6.73333333,5.67333332 C6.67333333,5.96666665 6.64666666,6.32666666 6.64666666,6.75333333 L6.64666666,8.53333334 C6.64666666,8.95999998 6.67999999,9.32000001 6.73999999,9.61333334 C6.79999999,9.91333335 6.89333333,10.1533333 7.00666666,10.34 C7.11999999,10.5266667 7.26666666,10.66 7.43333333,10.7466667 C7.6,10.8333334 7.79333333,10.8733334 8.01333333,10.8733334 C8.23333333,10.8733334 8.42666667,10.8333334 8.59333334,10.7466667 C8.76,10.66 8.90000001,10.5266667 9.01333334,10.34 C9.12666667,10.1533333 9.21333334,9.91333335 9.27333334,9.61333334 C9.33333334,9.31333334 9.36000001,8.95333334 9.36000001,8.53333334 L9.36000001,6.75999999 L9.35333334,6.75999999 Z"/>
  </defs>
  <g fill="none" fill-rule="evenodd">
    <mask id="exposure-zero-b" fill="#fff">
      <use xlink:href="#exposure-zero-a"/>
    </mask>
    <g fill="CurrentColor" mask="url(#exposure-zero-b)">
      <rect width="16" height="16"/>
    </g>
  </g>
</svg>
