<?xml version="1.0" encoding="UTF-8"?>
<svg width="16px" height="16px" viewBox="0 0 16 16" version="1.1" xmlns="http://www.w3.org/2000/svg" xmlns:xlink="http://www.w3.org/1999/xlink">
    <title>Icons/Image/exposure</title>
    <g id="Icons/Image/exposure" stroke="none" stroke-width="1" fill="none" fill-rule="evenodd">
        <rect id="Spacer" fill-opacity="0" fill="#D8D8D8" x="0" y="0" width="16" height="16"></rect>
        <path d="M10,11.3333334 L10,12.6666667 L11.3333334,12.6666667 L11.3333334,11.3333334 L12.6666667,11.3333334 L12.6666667,10 L11.3333334,10 L11.3333334,8.66666667 L10,8.66666667 L10,10 L8.66666667,10 L8.66666667,11.3333334 L10,11.3333334 Z M13.3333333,1.33333329 L2.66666663,1.33333329 C1.9333333,1.33333329 1.33333329,1.9333333 1.33333329,2.66666663 L1.33333329,13.3333333 C1.33333329,14.0666667 1.9333333,14.6666667 2.66666663,14.6666667 L13.3333333,14.6666667 C14.0666667,14.6666667 14.6666667,14.0666667 14.6666667,13.3333333 L14.6666667,2.66666663 C14.6666667,1.9333333 14.0666667,1.33333329 13.3333333,1.33333329 Z M3.3333333,3.3333333 L7.3333333,3.3333333 L7.3333333,4.66666665 L3.3333333,4.66666665 L3.3333333,3.3333333 Z M13.3333334,13.3333334 L2.66666663,13.3333334 L13.3333334,2.66666663 L13.3333334,13.3333334 Z" id="Icons/Image/ic_exposure_24px" fill="#233745" fill-rule="nonzero"></path>
    </g>
</svg>