<svg xmlns="http://www.w3.org/2000/svg" xmlns:xlink="http://www.w3.org/1999/xlink" width="16" height="16" viewBox="0 0 16 16">
  <defs>
    <path id="exposure-a" d="M10,11.3333334 L10,12.6666667 L11.3333334,12.6666667 L11.3333334,11.3333334 L12.6666667,11.3333334 L12.6666667,10 L11.3333334,10 L11.3333334,8.66666667 L10,8.66666667 L10,10 L8.66666667,10 L8.66666667,11.3333334 L10,11.3333334 Z M13.3333333,1.33333329 L2.66666663,1.33333329 C1.9333333,1.33333329 1.33333329,1.9333333 1.33333329,2.66666663 L1.33333329,13.3333333 C1.33333329,14.0666667 1.9333333,14.6666667 2.66666663,14.6666667 L13.3333333,14.6666667 C14.0666667,14.6666667 14.6666667,14.0666667 14.6666667,13.3333333 L14.6666667,2.66666663 C14.6666667,1.9333333 14.0666667,1.33333329 13.3333333,1.33333329 Z M3.3333333,3.3333333 L7.3333333,3.3333333 L7.3333333,4.66666665 L3.3333333,4.66666665 L3.3333333,3.3333333 Z M13.3333334,13.3333334 L2.66666663,13.3333334 L13.3333334,2.66666663 L13.3333334,13.3333334 Z"/>
  </defs>
  <g fill="none" fill-rule="evenodd">
    <mask id="exposure-b" fill="#fff">
      <use xlink:href="#exposure-a"/>
    </mask>
    <g fill="CurrentColor" mask="url(#exposure-b)">
      <rect width="16" height="16"/>
    </g>
  </g>
</svg>
