<?xml version="1.0" encoding="UTF-8"?>
<svg width="16px" height="16px" viewBox="0 0 16 16" version="1.1" xmlns="http://www.w3.org/2000/svg" xmlns:xlink="http://www.w3.org/1999/xlink">
    <title>Icons/Image/exposure-neg-2</title>
    <g id="Icons/Image/exposure-neg-2" stroke="none" stroke-width="1" fill="none" fill-rule="evenodd">
        <rect id="Spacer" fill-opacity="0" fill="#D8D8D8" x="0" y="0" width="16" height="16"></rect>
        <path d="M10.0333333,10.86 L11.94,8.81333334 C12.1933334,8.55333334 12.42,8.28666667 12.6333334,8.02666667 C12.8466667,7.76666667 13.0266667,7.50666666 13.18,7.24666666 C13.3333334,6.98666666 13.4533334,6.72666666 13.54,6.46666666 C13.6266667,6.20666666 13.6666667,5.93999999 13.6666667,5.67999999 C13.6666667,5.32666665 13.6066667,4.99999998 13.4866667,4.70666665 C13.3666667,4.41333331 13.1933334,4.16666664 12.9666667,3.96666664 C12.74,3.75999997 12.4533334,3.60666664 12.1266667,3.49333331 C11.7866667,3.38666664 11.4066667,3.3333333 10.98,3.3333333 C10.52,3.3333333 10.1066667,3.40666664 9.74666668,3.54666664 C9.38666668,3.68666664 9.08000001,3.88666664 8.84000001,4.13333331 C8.59333333,4.37999998 8.40666667,4.66666665 8.28,4.99999998 C8.16,5.31333332 8.1,5.64666665 8.09333333,5.99999999 L9.52000001,5.99999999 C9.52666668,5.79333332 9.55333334,5.59999999 9.60666668,5.41999998 C9.66666668,5.22666665 9.76000001,5.05999998 9.87333335,4.91999998 C9.99333335,4.77999998 10.1466667,4.67333331 10.3266667,4.59333331 C10.5066667,4.51333331 10.7266667,4.47333331 10.9666667,4.47333331 C11.1733334,4.47333331 11.3533334,4.50666664 11.5066667,4.57333331 C11.66,4.63999998 11.7933334,4.73999998 11.9,4.85999998 C12.0066667,4.97999998 12.0866667,5.12666665 12.1466667,5.29333332 C12.2,5.45999998 12.2333334,5.63999999 12.2333334,5.8333333 C12.2333334,5.97999999 12.2133334,6.11999999 12.18,6.26666666 C12.14,6.41333332 12.08,6.56666666 11.9866667,6.73333333 C11.8933334,6.89999999 11.7733334,7.08666666 11.6133334,7.28666666 C11.46,7.48666666 11.2666667,7.72 11.0266667,7.97333333 L8.24666667,11.0066667 L8.24666667,12 L14,12 L14,10.86 L10.0333333,10.86 Z M1.33333329,7.33333333 L1.33333329,8.66666667 L6.66666666,8.66666667 L6.66666666,7.33333333 L1.33333329,7.33333333 Z" id="Icons/Image/ic_exposure_neg_2_24px" fill="#233745" fill-rule="nonzero"></path>
    </g>
</svg>