<?xml version="1.0" encoding="UTF-8"?>
<svg width="16px" height="16px" viewBox="0 0 16 16" version="1.1" xmlns="http://www.w3.org/2000/svg" xmlns:xlink="http://www.w3.org/1999/xlink">
    <title>Icons/Image/filter-6</title>
    <g id="Icons/Image/filter-6" stroke="none" stroke-width="1" fill="none" fill-rule="evenodd">
        <rect id="Spacer" fill-opacity="0" fill="#D8D8D8" x="0" y="0" width="16" height="16"></rect>
        <path d="M1.99999996,3.3333333 L0.666666621,3.3333333 L0.666666621,14 C0.666666621,14.7333334 1.26666662,15.3333333 1.99999996,15.3333333 L12.6666666,15.3333333 L12.6666666,14 L1.99999996,14 L1.99999996,3.3333333 Z M14,0.666666621 L4.66666665,0.666666621 C3.93333331,0.666666621 3.3333333,1.26666662 3.3333333,1.99999996 L3.3333333,11.3333334 C3.3333333,12.0666667 3.93333331,12.6666666 4.66666665,12.6666666 L14,12.6666666 C14.7333334,12.6666666 15.3333333,12.0666667 15.3333333,11.3333334 L15.3333333,1.99999996 C15.3333333,1.26666662 14.7333334,0.666666621 14,0.666666621 Z M14,11.3333334 L4.66666665,11.3333334 L4.66666665,1.99999996 L14,1.99999996 L14,11.3333334 Z M8.66666667,10 L10,10 C10.7333334,10 11.3333333,9.40666668 11.3333333,8.66666667 L11.3333333,7.3333333 C11.3333333,6.59333332 10.7333334,5.99999999 10,5.99999999 L8.66666667,5.99999999 L8.66666667,4.66666665 L11.3333333,4.66666665 L11.3333333,3.3333333 L8.66666667,3.3333333 C7.93333333,3.3333333 7.33333333,3.92666664 7.33333333,4.66666665 L7.33333333,8.66666667 C7.33333333,9.40666668 7.93333333,10 8.66666667,10 Z M8.66666667,7.33333333 L10,7.33333333 L10,8.66666667 L8.66666667,8.66666667 L8.66666667,7.33333333 Z" id="Icons/Image/ic_filter_6_24px" fill="#233745" fill-rule="nonzero"></path>
    </g>
</svg>