<svg xmlns="http://www.w3.org/2000/svg" xmlns:xlink="http://www.w3.org/1999/xlink" width="16" height="16" viewBox="0 0 16 16">
  <defs>
    <path id="filter-drama-a" d="M12.9,6.69333333 C12.4466667,4.39333331 10.4266667,2.66666663 7.99999995,2.66666663 C6.07333332,2.66666663 4.40666664,3.75999997 3.57333331,5.35999998 C1.56666663,5.57333332 -5.00000006e-08,7.26666666 -5.00000006e-08,9.33333334 C-5.00000006e-08,11.54 1.79333329,13.3333334 3.99999995,13.3333334 L12.6666667,13.3333334 C14.5066667,13.3333334 15.9999999,11.84 15.9999999,10 C15.9999999,8.24 14.6333334,6.81333333 12.9,6.69333333 Z M12.6666667,12 L3.99999997,12 C2.52666663,12 1.33333329,10.8066667 1.33333329,9.33333334 C1.33333329,7.86 2.52666663,6.66666666 3.99999997,6.66666666 C5.47333332,6.66666666 6.66666666,7.86 6.66666666,9.33333334 L8,9.33333334 C8,7.49333333 6.75999999,5.94666665 5.06666665,5.47999998 C5.73999999,4.58666665 6.79999999,3.99999997 8,3.99999997 C10.02,3.99999997 11.6666667,5.64666665 11.6666667,7.66666666 L11.6666667,7.99999997 L12.6666667,7.99999997 C13.7666667,7.99999997 14.6666667,8.90000001 14.6666667,9.99999997 C14.6666667,11.1 13.7666667,12 12.6666667,12 Z"/>
  </defs>
  <g fill="none" fill-rule="evenodd">
    <mask id="filter-drama-b" fill="#fff">
      <use xlink:href="#filter-drama-a"/>
    </mask>
    <g fill="CurrentColor" mask="url(#filter-drama-b)">
      <rect width="16" height="16"/>
    </g>
  </g>
</svg>
