<?xml version="1.0" encoding="UTF-8"?>
<svg width="16px" height="16px" viewBox="0 0 16 16" version="1.1" xmlns="http://www.w3.org/2000/svg" xmlns:xlink="http://www.w3.org/1999/xlink">
    <title>Icons/Image/filter-9-plus</title>
    <defs>
        <path d="M1.99999996,3.3333333 L0.666666621,3.3333333 L0.666666621,14 C0.666666621,14.7333334 1.26666662,15.3333333 1.99999996,15.3333333 L12.6666666,15.3333333 L12.6666666,14 L1.99999996,14 L1.99999996,3.3333333 Z M9.33333334,7.99999997 L9.33333334,5.33333332 C9.33333334,4.59333331 8.73333334,3.99999997 7.99999999,3.99999997 L7.33333333,3.99999997 C6.59999999,3.99999997 5.99999999,4.59333331 5.99999999,5.33333332 L5.99999999,5.99999997 C5.99999999,6.73999999 6.59999999,7.33333333 7.33333333,7.33333333 L7.99999999,7.33333333 L7.99999999,7.99999997 L5.99999999,7.99999997 L5.99999999,9.33333334 L7.99999999,9.33333334 C8.73333334,9.33333334 9.33333334,8.74 9.33333334,7.99999997 Z M7.33333333,5.99999999 L7.33333333,5.33333332 L8,5.33333332 L8,5.99999999 L7.33333333,5.99999999 Z M14,0.666666621 L4.66666665,0.666666621 C3.93333331,0.666666621 3.3333333,1.26666662 3.3333333,1.99999996 L3.3333333,11.3333334 C3.3333333,12.0666667 3.93333331,12.6666666 4.66666665,12.6666666 L14,12.6666666 C14.7333334,12.6666666 15.3333333,12.0666667 15.3333333,11.3333334 L15.3333333,1.99999996 C15.3333333,1.26666662 14.7333334,0.666666621 14,0.666666621 Z M14,5.99999996 L12.6666666,5.99999996 L12.6666666,4.66666665 L11.3333334,4.66666665 L11.3333334,5.99999996 L10,5.99999996 L10,7.33333333 L11.3333334,7.33333333 L11.3333334,8.66666667 L12.6666666,8.66666667 L12.6666666,7.33333333 L14,7.33333333 L14,11.3333334 L4.66666665,11.3333334 L4.66666665,1.99999996 L14,1.99999996 L14,5.99999996 Z" id="path-1"></path>
    </defs>
    <g id="Icons/Image/filter-9-plus" stroke="none" stroke-width="1" fill="none" fill-rule="evenodd">
        <mask id="mask-2" fill="white">
            <use xlink:href="#path-1"></use>
        </mask>
        <use id="Icons/Image/ic_filter_9_plus_24px" fill="#233745" fill-rule="nonzero" xlink:href="#path-1"></use>
    </g>
</svg>