<?xml version="1.0" encoding="UTF-8"?>
<svg width="16px" height="16px" viewBox="0 0 16 16" version="1.1" xmlns="http://www.w3.org/2000/svg" xmlns:xlink="http://www.w3.org/1999/xlink">
    <title>Icons/Image/filter-center-focus</title>
    <defs>
        <path d="M3.3333333,10 L1.99999996,10 L1.99999996,12.6666667 C1.99999996,13.4 2.59999997,14 3.3333333,14 L5.99999996,14 L5.99999996,12.6666667 L3.3333333,12.6666667 L3.3333333,10 Z M3.3333333,3.3333333 L5.99999996,3.3333333 L5.99999996,1.99999996 L3.3333333,1.99999996 C2.59999997,1.99999996 1.99999996,2.59999997 1.99999996,3.3333333 L1.99999996,5.99999996 L3.3333333,5.99999996 L3.3333333,3.3333333 Z M12.6666667,1.99999996 L10,1.99999996 L10,3.3333333 L12.6666667,3.3333333 L12.6666667,5.99999996 L14,5.99999996 L14,3.3333333 C14,2.59999997 13.4,1.99999996 12.6666667,1.99999996 Z M12.6666667,12.6666667 L10,12.6666667 L10,14 L12.6666667,14 C13.4,14 14,13.4 14,12.6666667 L14,10 L12.6666667,10 L12.6666667,12.6666667 Z M7.99999999,5.99999999 C6.89333333,5.99999999 5.99999999,6.89333333 5.99999999,7.99999999 C5.99999999,9.10666667 6.89333333,9.99999999 7.99999999,9.99999999 C9.10666667,9.99999999 9.99999999,9.10666667 9.99999999,7.99999999 C9.99999999,6.89333333 9.10666667,5.99999999 7.99999999,5.99999999 Z" id="path-1"></path>
    </defs>
    <g id="Icons/Image/filter-center-focus" stroke="none" stroke-width="1" fill="none" fill-rule="evenodd">
        <mask id="mask-2" fill="white">
            <use xlink:href="#path-1"></use>
        </mask>
        <use id="Icons/Image/ic_filter_center_focus_24px" fill="#233745" fill-rule="nonzero" xlink:href="#path-1"></use>
    </g>
</svg>