<?xml version="1.0" encoding="UTF-8"?>
<svg width="16px" height="16px" viewBox="0 0 16 16" version="1.1" xmlns="http://www.w3.org/2000/svg" xmlns:xlink="http://www.w3.org/1999/xlink">
    <title>Icons/Image/filter-vintage</title>
    <defs>
        <path d="M12.4666667,8.26666667 C12.28,8.16 12.0866667,8.07333333 11.8933334,8 C12.0866667,7.92666667 12.28,7.84 12.4666667,7.73333333 C13.7466667,6.99333333 14.46,5.65333332 14.4666667,4.27333331 C13.2733334,3.58666664 11.7533334,3.53333331 10.4666667,4.27333331 C10.28,4.37999998 10.1066667,4.50666664 9.94666668,4.63333331 C9.98000001,4.42666664 10,4.21333331 10,3.99999998 C10,2.51999997 9.19333334,1.23333329 8,0.539999953 C6.80666666,1.23333329 5.99999999,2.51999997 5.99999999,3.99999998 C5.99999999,4.21333331 6.01999999,4.42666664 6.05333332,4.63333331 C5.89333332,4.49999998 5.71999999,4.37333331 5.53333329,4.26666664 C4.25333331,3.52666664 2.7333333,3.57999997 1.53333329,4.26666664 C1.53333329,5.64666665 2.24666663,6.98666666 3.53333329,7.72666666 C3.71999997,7.83333333 3.91333331,7.92 4.10666664,7.99333333 C3.91333331,8.06666667 3.71999997,8.15333333 3.53333329,8.26 C2.2533333,9.00000001 1.53999996,10.34 1.53333329,11.72 C2.72666663,12.4066667 4.24666664,12.46 5.53333329,11.72 C5.71999999,11.6133334 5.89333332,11.4866667 6.05333332,11.36 C6.01999999,11.5733334 5.99999999,11.7866667 5.99999999,12 C5.99999999,13.48 6.80666666,14.7666667 8,15.46 C9.19333334,14.7666667 10,13.48 10,12 C10,11.7866667 9.98000001,11.5733334 9.94666668,11.3666667 C10.1066667,11.5 10.28,11.62 10.4666667,11.7266667 C11.7466667,12.4666667 13.2666667,12.4133334 14.4666667,11.7266667 C14.46,10.3466667 13.7466667,9.00666667 12.4666667,8.26666667 Z M8,10.6666667 C6.52666666,10.6666667 5.33333332,9.47333334 5.33333332,8 C5.33333332,6.52666666 6.52666666,5.33333332 8,5.33333332 C9.47333334,5.33333332 10.6666667,6.52666666 10.6666667,8 C10.6666667,9.47333334 9.47333334,10.6666667 8,10.6666667 Z" id="path-1"></path>
    </defs>
    <g id="Icons/Image/filter-vintage" stroke="none" stroke-width="1" fill="none" fill-rule="evenodd">
        <mask id="mask-2" fill="white">
            <use xlink:href="#path-1"></use>
        </mask>
        <use id="Icons/Image/ic_filter_vintage_24px" fill="#233745" fill-rule="nonzero" xlink:href="#path-1"></use>
    </g>
</svg>