<?xml version="1.0" encoding="UTF-8"?>
<svg width="16px" height="16px" viewBox="0 0 16 16" version="1.1" xmlns="http://www.w3.org/2000/svg" xmlns:xlink="http://www.w3.org/1999/xlink">
    <title>Icons/Image/filter</title>
    <defs>
        <path d="M10.64,6.85999999 L8.80666667,9.22000001 L7.5,7.64666666 L5.66666665,10 L13,10 L10.64,6.85999999 Z M1.99999996,3.3333333 L0.666666621,3.3333333 L0.666666621,14 C0.666666621,14.7333334 1.26666662,15.3333333 1.99999996,15.3333333 L12.6666666,15.3333333 L12.6666666,14 L1.99999996,14 L1.99999996,3.3333333 Z M14,0.666666621 L4.66666665,0.666666621 C3.93333331,0.666666621 3.3333333,1.26666662 3.3333333,1.99999996 L3.3333333,11.3333334 C3.3333333,12.0666667 3.93333331,12.6666666 4.66666665,12.6666666 L14,12.6666666 C14.7333334,12.6666666 15.3333333,12.0666667 15.3333333,11.3333334 L15.3333333,1.99999996 C15.3333333,1.26666662 14.7333334,0.666666621 14,0.666666621 Z M14,11.3333334 L4.66666665,11.3333334 L4.66666665,1.99999996 L14,1.99999996 L14,11.3333334 Z" id="path-1"></path>
    </defs>
    <g id="Icons/Image/filter" stroke="none" stroke-width="1" fill="none" fill-rule="evenodd">
        <mask id="mask-2" fill="white">
            <use xlink:href="#path-1"></use>
        </mask>
        <use id="Icons/Image/ic_filter_24px" fill="#233745" fill-rule="nonzero" xlink:href="#path-1"></use>
    </g>
</svg>