<?xml version="1.0" encoding="UTF-8"?>
<svg width="16px" height="16px" viewBox="0 0 16 16" version="1.1" xmlns="http://www.w3.org/2000/svg" xmlns:xlink="http://www.w3.org/1999/xlink">
    <title>Icons/Image/filter-tilt-shift</title>
    <g id="Icons/Image/filter-tilt-shift" stroke="none" stroke-width="1" fill="none" fill-rule="evenodd">
        <rect id="Spacer" fill-opacity="0" fill="#D8D8D8" x="0" y="0" width="16" height="16"></rect>
        <path d="M7.33333333,2.7133333 L7.33333333,1.36666663 C5.99333332,1.49999996 4.77333331,2.0333333 3.78666664,2.83999997 L4.73333331,3.79333331 C5.47333332,3.21999997 6.35999999,2.8333333 7.33333333,2.7133333 Z M12.2133334,2.83999997 C11.2266667,2.0333333 10.0066667,1.49999996 8.66666667,1.36666663 L8.66666667,2.7133333 C9.64000001,2.8333333 10.5266667,3.21999997 11.2666667,3.79333331 L12.2133334,2.83999997 Z M13.2866667,7.33333333 L14.6333334,7.33333333 C14.5,5.99333332 13.9666667,4.77333331 13.16,3.78666664 L12.2066667,4.73333331 C12.78,5.47333332 13.1666667,6.35999999 13.2866667,7.33333333 Z M3.79333331,4.73333331 L2.83999997,3.78666664 C2.0333333,4.77333331 1.49999996,5.99333332 1.36666663,7.33333333 L2.7133333,7.33333333 C2.8333333,6.35999999 3.21999997,5.47333332 3.79333331,4.73333331 Z M2.7133333,8.66666667 L1.36666663,8.66666667 C1.49999996,10.0066667 2.0333333,11.2266667 2.83999997,12.2133334 L3.79333331,11.26 C3.21999997,10.5266667 2.8333333,9.64000001 2.7133333,8.66666667 L2.7133333,8.66666667 Z M9.99999999,7.99999999 C9.99999999,6.89333333 9.10666667,5.99999999 7.99999999,5.99999999 C6.89333333,5.99999999 5.99999999,6.89333333 5.99999999,7.99999999 C5.99999999,9.10666667 6.89333333,9.99999999 7.99999999,9.99999999 C9.10666667,9.99999999 9.99999999,9.10666667 9.99999999,7.99999999 Z M12.2066667,11.2666667 L13.16,12.22 C13.9666667,11.2333334 14.5,10.0066667 14.6333334,8.67333334 L13.2866667,8.67333334 C13.1666667,9.64000001 12.78,10.5266667 12.2066667,11.2666667 Z M8.66666667,13.2866667 L8.66666667,14.6333334 C10.0066667,14.5 11.2266667,13.9666667 12.2133334,13.16 L11.26,12.2066667 C10.5266667,12.78 9.64000001,13.1666667 8.66666667,13.2866667 Z M3.78666664,13.16 C4.77333331,13.9666667 5.99999999,14.5 7.33333333,14.6333334 L7.33333333,13.2866667 C6.35999999,13.1666667 5.47333332,12.78 4.73333331,12.2066667 L3.78666664,13.16 Z" id="Icons/Image/ic_filter_tilt_shift_24px" fill="#233745" fill-rule="nonzero"></path>
    </g>
</svg>