<?xml version="1.0" encoding="UTF-8"?>
<svg width="16px" height="16px" viewBox="0 0 16 16" version="1.1" xmlns="http://www.w3.org/2000/svg" xmlns:xlink="http://www.w3.org/1999/xlink">
    <title>Icons/Image/gradient</title>
    <g id="Icons/Image/gradient" stroke="none" stroke-width="1" fill="none" fill-rule="evenodd">
        <rect id="Spacer" fill-opacity="0" fill="#D8D8D8" x="0" y="0" width="16" height="16"></rect>
        <path d="M7.33333333,5.99999999 L8.66666667,5.99999999 L8.66666667,7.33333333 L7.33333333,7.33333333 L7.33333333,5.99999999 Z M5.99999999,7.33333333 L7.33333333,7.33333333 L7.33333333,8.66666667 L5.99999999,8.66666667 L5.99999999,7.33333333 Z M8.66666667,7.33333333 L10,7.33333333 L10,8.66666667 L8.66666667,8.66666667 L8.66666667,7.33333333 Z M10,5.99999999 L11.3333334,5.99999999 L11.3333334,7.33333333 L10,7.33333333 L10,5.99999999 Z M4.66666665,5.99999999 L5.99999999,5.99999999 L5.99999999,7.33333333 L4.66666665,7.33333333 L4.66666665,5.99999999 Z M12.6666667,1.99999996 L3.3333333,1.99999996 C2.59999997,1.99999996 1.99999996,2.59999997 1.99999996,3.3333333 L1.99999996,12.6666667 C1.99999996,13.4 2.59999997,14 3.3333333,14 L12.6666667,14 C13.4,14 14,13.4 14,12.6666667 L14,3.3333333 C14,2.59999997 13.4,1.99999996 12.6666667,1.99999996 Z M5.99999999,12 L4.66666665,12 L4.66666665,10.6666667 L5.99999999,10.6666667 L5.99999999,12 Z M8.66666667,12 L7.33333333,12 L7.33333333,10.6666667 L8.66666667,10.6666667 L8.66666667,12 Z M11.3333334,12 L10,12 L10,10.6666667 L11.3333334,10.6666667 L11.3333334,12 Z M12.6666667,7.3333333 L11.3333333,7.3333333 L11.3333333,8.66666667 L12.6666667,8.66666667 L12.6666667,10 L11.3333333,10 L11.3333333,8.66666667 L10,8.66666667 L10,10 L8.66666667,10 L8.66666667,8.66666667 L7.3333333,8.66666667 L7.3333333,10 L5.99999999,10 L5.99999999,8.66666667 L4.66666665,8.66666667 L4.66666665,10 L3.3333333,10 L3.3333333,8.66666667 L4.66666665,8.66666667 L4.66666665,7.3333333 L3.3333333,7.3333333 L3.3333333,3.3333333 L12.6666667,3.3333333 L12.6666667,7.3333333 Z" id="Icons/Image/ic_gradient_24px" fill="#233745" fill-rule="nonzero"></path>
    </g>
</svg>