<?xml version="1.0" encoding="UTF-8"?>
<svg width="16px" height="16px" viewBox="0 0 16 16" version="1.1" xmlns="http://www.w3.org/2000/svg" xmlns:xlink="http://www.w3.org/1999/xlink">
    <title>Icons/Image/grain</title>
    <g id="Icons/Image/grain" stroke="none" stroke-width="1" fill="none" fill-rule="evenodd">
        <rect id="Spacer" fill-opacity="0" fill="#D8D8D8" x="0" y="0" width="16" height="16"></rect>
        <path d="M6.66666666,8 C5.93333332,8 5.33333332,8.6 5.33333332,9.33333334 C5.33333332,10.0666667 5.93333332,10.6666667 6.66666666,10.6666667 C7.4,10.6666667 8,10.0666667 8,9.33333334 C8,8.6 7.4,8 6.66666666,8 Z M3.99999998,5.33333332 C3.26666664,5.33333332 2.66666663,5.93333332 2.66666663,6.66666666 C2.66666663,7.4 3.26666664,8 3.99999998,8 C4.73333331,8 5.33333332,7.4 5.33333332,6.66666666 C5.33333332,5.93333332 4.73333331,5.33333332 3.99999998,5.33333332 Z M3.99999998,10.6666667 C3.26666664,10.6666667 2.66666663,11.2666667 2.66666663,12 C2.66666663,12.7333334 3.26666664,13.3333334 3.99999998,13.3333334 C4.73333331,13.3333334 5.33333332,12.7333334 5.33333332,12 C5.33333332,11.2666667 4.73333331,10.6666667 3.99999998,10.6666667 Z M12,5.33333332 C12.7333334,5.33333332 13.3333334,4.73333331 13.3333334,3.99999998 C13.3333334,3.26666664 12.7333334,2.66666663 12,2.66666663 C11.2666667,2.66666663 10.6666667,3.26666664 10.6666667,3.99999998 C10.6666667,4.73333331 11.2666667,5.33333332 12,5.33333332 Z M9.33333334,10.6666667 C8.6,10.6666667 8,11.2666667 8,12 C8,12.7333334 8.6,13.3333334 9.33333334,13.3333334 C10.0666667,13.3333334 10.6666667,12.7333334 10.6666667,12 C10.6666667,11.2666667 10.0666667,10.6666667 9.33333334,10.6666667 Z M12,8 C11.2666667,8 10.6666667,8.6 10.6666667,9.33333334 C10.6666667,10.0666667 11.2666667,10.6666667 12,10.6666667 C12.7333334,10.6666667 13.3333334,10.0666667 13.3333334,9.33333334 C13.3333334,8.6 12.7333334,8 12,8 Z M9.33333334,5.33333332 C8.6,5.33333332 8,5.93333332 8,6.66666666 C8,7.4 8.6,8 9.33333334,8 C10.0666667,8 10.6666667,7.4 10.6666667,6.66666666 C10.6666667,5.93333332 10.0666667,5.33333332 9.33333334,5.33333332 Z M6.66666666,2.66666663 C5.93333332,2.66666663 5.33333332,3.26666664 5.33333332,3.99999998 C5.33333332,4.73333331 5.93333332,5.33333332 6.66666666,5.33333332 C7.4,5.33333332 8,4.73333331 8,3.99999998 C8,3.26666664 7.4,2.66666663 6.66666666,2.66666663 Z" id="Icons/Image/ic_grain_24px" fill="#233745" fill-rule="nonzero"></path>
    </g>
</svg>