<svg xmlns="http://www.w3.org/2000/svg" xmlns:xlink="http://www.w3.org/1999/xlink" width="16" height="16" viewBox="0 0 16 16">
  <defs>
    <path id="grid-off-a" d="M5.33333332,2.66666663 L5.33333332,3.63333331 L6.66666666,4.96666665 L6.66666666,2.66666663 L9.33333334,2.66666663 L9.33333334,5.33333329 L7.0333333,5.33333329 L8.36666667,6.66666666 L9.33333334,6.66666666 L9.33333334,7.63333333 L10.6666667,8.96666667 L10.6666667,6.66666666 L13.3333334,6.66666666 L13.3333334,9.33333329 L11.0333333,9.33333329 L12.3666667,10.6666667 L13.3333334,10.6666667 L13.3333334,11.6333334 L14.6666667,12.9666667 L14.6666667,2.66666663 C14.6666667,1.9333333 14.0666667,1.33333329 13.3333334,1.33333329 L3.0333333,1.33333329 L4.36666664,2.66666663 L5.33333332,2.66666663 Z M10.6666667,2.66666663 L13.3333334,2.66666663 L13.3333334,5.33333332 L10.6666667,5.33333332 L10.6666667,2.66666663 Z M0.846666622,0.846666622 L-5.00000006e-08,1.69999996 L1.33333329,3.0333333 L1.33333329,13.3333334 C1.33333329,14.0666667 1.9333333,14.6666667 2.66666663,14.6666667 L12.9733334,14.6666667 L14.3066667,16.0000001 L15.1533334,15.1533334 L0.846666622,0.846666622 Z M6.66666666,8.36666667 L7.63333333,9.33333334 L6.66666666,9.33333334 L6.66666666,8.36666667 Z M2.66666663,4.36666664 L3.63333331,5.33333332 L2.66666663,5.33333332 L2.66666663,4.36666664 L2.66666663,4.36666664 Z M5.33333332,13.3333334 L2.66666663,13.3333334 L2.66666663,10.6666667 L5.33333332,10.6666667 L5.33333332,13.3333334 Z M5.33333332,9.33333334 L2.66666663,9.33333334 L2.66666663,6.66666666 L4.96666665,6.66666666 L5.33333332,7.03333333 L5.33333332,9.33333334 Z M9.33333334,13.3333334 L6.66666666,13.3333334 L6.66666666,10.6666667 L8.96666667,10.6666667 L9.33333334,11.0266667 L9.33333334,13.3333334 Z M10.6666667,13.3333334 L10.6666667,12.36 L11.64,13.3333334 L10.6666667,13.3333334 Z"/>
  </defs>
  <g fill="none" fill-rule="evenodd">
    <mask id="grid-off-b" fill="#fff">
      <use xlink:href="#grid-off-a"/>
    </mask>
    <g fill="CurrentColor" mask="url(#grid-off-b)">
      <rect width="16" height="16"/>
    </g>
  </g>
</svg>
