<?xml version="1.0" encoding="UTF-8"?>
<svg width="16px" height="16px" viewBox="0 0 16 16" version="1.1" xmlns="http://www.w3.org/2000/svg" xmlns:xlink="http://www.w3.org/1999/xlink">
    <title>Icons/Image/grid-on</title>
    <defs>
        <path d="M13.3333333,1.33333329 L2.66666663,1.33333329 C1.9333333,1.33333329 1.33333329,1.9333333 1.33333329,2.66666663 L1.33333329,13.3333333 C1.33333329,14.0666667 1.9333333,14.6666667 2.66666663,14.6666667 L13.3333333,14.6666667 C14.0666667,14.6666667 14.6666667,14.0666667 14.6666667,13.3333333 L14.6666667,2.66666663 C14.6666667,1.9333333 14.0666667,1.33333329 13.3333333,1.33333329 Z M5.33333332,13.3333334 L2.66666663,13.3333334 L2.66666663,10.6666667 L5.33333332,10.6666667 L5.33333332,13.3333334 Z M5.33333332,9.33333334 L2.66666663,9.33333334 L2.66666663,6.66666666 L5.33333332,6.66666666 L5.33333332,9.33333334 Z M5.33333332,5.33333332 L2.66666663,5.33333332 L2.66666663,2.66666663 L5.33333332,2.66666663 L5.33333332,5.33333332 Z M9.33333334,13.3333334 L6.66666666,13.3333334 L6.66666666,10.6666667 L9.33333334,10.6666667 L9.33333334,13.3333334 Z M9.33333334,9.33333334 L6.66666666,9.33333334 L6.66666666,6.66666666 L9.33333334,6.66666666 L9.33333334,9.33333334 Z M9.33333334,5.33333332 L6.66666666,5.33333332 L6.66666666,2.66666663 L9.33333334,2.66666663 L9.33333334,5.33333332 Z M13.3333334,13.3333334 L10.6666667,13.3333334 L10.6666667,10.6666667 L13.3333334,10.6666667 L13.3333334,13.3333334 Z M13.3333334,9.33333334 L10.6666667,9.33333334 L10.6666667,6.66666666 L13.3333334,6.66666666 L13.3333334,9.33333334 Z M13.3333334,5.33333332 L10.6666667,5.33333332 L10.6666667,2.66666663 L13.3333334,2.66666663 L13.3333334,5.33333332 Z" id="path-1"></path>
    </defs>
    <g id="Icons/Image/grid-on" stroke="none" stroke-width="1" fill="none" fill-rule="evenodd">
        <mask id="mask-2" fill="white">
            <use xlink:href="#path-1"></use>
        </mask>
        <use id="Icons/Image/ic_grid_on_24px" fill="#233745" fill-rule="nonzero" xlink:href="#path-1"></use>
    </g>
</svg>