<?xml version="1.0" encoding="UTF-8"?>
<svg width="16px" height="16px" viewBox="0 0 16 16" version="1.1" xmlns="http://www.w3.org/2000/svg" xmlns:xlink="http://www.w3.org/1999/xlink">
    <title>Icons/Image/hdr-off</title>
    <g id="Icons/Image/hdr-off" stroke="none" stroke-width="1" fill="none" fill-rule="evenodd">
        <rect id="Spacer" fill-opacity="0" fill="#D8D8D8" x="0" y="0" width="16" height="16"></rect>
        <path d="M11.6666667,9.99999999 L11.6666667,8.66666667 L12.4,8.66666667 L13,9.99999999 L14,9.99999999 L13.4,8.6 C13.7333334,8.46666667 14,8.06666667 14,7.66666666 L14,6.99999999 C14,6.46666666 13.5333334,5.99999999 13,5.99999999 L10.6666667,5.99999999 L10.6666667,9.26666667 L11.4,9.99999999 L11.6666667,9.99999999 Z M11.6666667,6.99999999 L13,6.99999999 L13,7.66666666 L11.6666667,7.66666666 L11.6666667,6.99999999 Z M8.66666667,6.99999999 L8.66666667,7.26666666 L9.66666668,8.26666667 L9.66666668,6.99999999 C9.66666668,6.46666666 9.20000001,5.99999999 8.66666667,5.99999999 L7.4,5.99999999 L8.4,6.99999999 L8.66666667,6.99999999 Z M6.33333332,6.33333332 L1.66666663,1.66666663 L0.933333289,2.3333333 L4.59999998,5.99999999 L4.33333331,5.99999999 L4.33333331,7.33333333 L2.99999997,7.33333333 L2.99999997,5.99999999 L1.99999996,5.99999999 L1.99999996,10 L2.99999997,10 L2.99999997,8.33333334 L4.33333331,8.33333334 L4.33333331,10 L5.33333332,10 L5.33333332,6.73333333 L6.33333332,7.73333333 L6.33333332,10 L8.6,10 L13.6666667,15.0666667 L14.4,14.3333334 L6.33333332,6.33333332 Z" id="Icons/Image/ic_hdr_off_24px" fill="#233745" fill-rule="nonzero"></path>
    </g>
</svg>