<?xml version="1.0" encoding="UTF-8"?>
<svg width="16px" height="16px" viewBox="0 0 16 16" version="1.1" xmlns="http://www.w3.org/2000/svg" xmlns:xlink="http://www.w3.org/1999/xlink">
    <title>Icons/Image/hdr-on</title>
    <defs>
        <path d="M14,7.66666666 L14,6.99999999 C14,6.46666666 13.5333334,5.99999999 13,5.99999999 L10.6666667,5.99999999 L10.6666667,9.99999999 L11.6666667,9.99999999 L11.6666667,8.66666667 L12.4,8.66666667 L13,9.99999999 L14,9.99999999 L13.4,8.6 C13.7333334,8.4 14,8.06666667 14,7.66666666 Z M13,7.66666666 L11.6666667,7.66666666 L11.6666667,6.99999999 L13,6.99999999 L13,7.66666666 Z M4.33333331,7.33333333 L2.99999996,7.33333333 L2.99999996,5.99999999 L1.99999996,5.99999999 L1.99999996,9.99999999 L2.99999996,9.99999999 L2.99999996,8.33333334 L4.33333331,8.33333334 L4.33333331,9.99999999 L5.33333332,9.99999999 L5.33333332,5.99999999 L4.33333331,5.99999999 L4.33333331,7.33333333 Z M8.66666667,5.99999999 L6.33333332,5.99999999 L6.33333332,9.99999999 L8.66666667,9.99999999 C9.20000001,9.99999999 9.66666668,9.53333334 9.66666668,8.99999999 L9.66666668,6.99999999 C9.66666668,6.46666666 9.20000001,5.99999999 8.66666667,5.99999999 Z M8.66666667,8.99999999 L7.33333333,8.99999999 L7.33333333,6.99999999 L8.66666667,6.99999999 L8.66666667,8.99999999 Z" id="path-1"></path>
    </defs>
    <g id="Icons/Image/hdr-on" stroke="none" stroke-width="1" fill="none" fill-rule="evenodd">
        <mask id="mask-2" fill="white">
            <use xlink:href="#path-1"></use>
        </mask>
        <use id="Icons/Image/ic_hdr_on_24px" fill="#233745" fill-rule="nonzero" xlink:href="#path-1"></use>
    </g>
</svg>