<svg xmlns="http://www.w3.org/2000/svg" xmlns:xlink="http://www.w3.org/1999/xlink" width="16" height="16" viewBox="0 0 16 16">
  <defs>
    <path id="hdr-strong-a" d="M11.3333333,3.99999997 C9.12666667,3.99999997 7.33333333,5.79333332 7.33333333,7.99999997 C7.33333333,10.2066667 9.12666667,12 11.3333333,12 C13.54,12 15.3333333,10.2066667 15.3333333,7.99999997 C15.3333333,5.79333332 13.54,3.99999997 11.3333333,3.99999997 Z M3.3333333,5.33333332 C1.85999996,5.33333332 0.666666621,6.52666666 0.666666621,8 C0.666666621,9.47333334 1.85999996,10.6666667 3.3333333,10.6666667 C4.80666665,10.6666667 5.99999999,9.47333334 5.99999999,8 C5.99999999,6.52666666 4.80666665,5.33333332 3.3333333,5.33333332 Z M3.3333333,9.33333334 C2.59999997,9.33333334 1.99999996,8.73333334 1.99999996,8 C1.99999996,7.26666666 2.59999997,6.66666666 3.3333333,6.66666666 C4.06666664,6.66666666 4.66666665,7.26666666 4.66666665,8 C4.66666665,8.73333334 4.06666664,9.33333334 3.3333333,9.33333334 Z"/>
  </defs>
  <g fill="none" fill-rule="evenodd">
    <mask id="hdr-strong-b" fill="#fff">
      <use xlink:href="#hdr-strong-a"/>
    </mask>
    <g fill="CurrentColor" mask="url(#hdr-strong-b)">
      <rect width="16" height="16"/>
    </g>
  </g>
</svg>
