<?xml version="1.0" encoding="UTF-8"?>
<svg width="16px" height="16px" viewBox="0 0 16 16" version="1.1" xmlns="http://www.w3.org/2000/svg" xmlns:xlink="http://www.w3.org/1999/xlink">
    <title>Icons/Image/iso</title>
    <defs>
        <path d="M12.6666667,1.99999996 L3.3333333,1.99999996 C2.59999997,1.99999996 1.99999996,2.59999997 1.99999996,3.3333333 L1.99999996,12.6666667 C1.99999996,13.4 2.59999997,14 3.3333333,14 L12.6666667,14 C13.4,14 14,13.4 14,12.6666667 L14,3.3333333 C14,2.59999997 13.4,1.99999996 12.6666667,1.99999996 Z M3.66666664,4.99999998 L4.99999998,4.99999998 L4.99999998,3.66666664 L5.99999999,3.66666664 L5.99999999,4.99999998 L7.33333333,4.99999998 L7.33333333,5.99999999 L5.99999999,5.99999999 L5.99999999,7.33333333 L4.99999998,7.33333333 L4.99999998,5.99999999 L3.66666664,5.99999999 L3.66666664,4.99999998 Z M12.6666667,12.6666667 L3.3333333,12.6666667 L12.6666667,3.3333333 L12.6666667,12.6666667 Z M11.3333334,11.3333333 L11.3333334,10.3333333 L8,10.3333333 L8,11.3333333 L11.3333334,11.3333333 Z" id="path-1"></path>
    </defs>
    <g id="Icons/Image/iso" stroke="none" stroke-width="1" fill="none" fill-rule="evenodd">
        <mask id="mask-2" fill="white">
            <use xlink:href="#path-1"></use>
        </mask>
        <use id="Icons/Image/ic_iso_24px" fill="#233745" fill-rule="nonzero" xlink:href="#path-1"></use>
    </g>
</svg>