<?xml version="1.0" encoding="UTF-8"?>
<svg width="16px" height="16px" viewBox="0 0 16 16" version="1.1" xmlns="http://www.w3.org/2000/svg" xmlns:xlink="http://www.w3.org/1999/xlink">
    <title>Icons/Image/leak-add</title>
    <defs>
        <path d="M3.99999996,1.99999996 L1.99999996,1.99999996 L1.99999996,3.99999996 C3.10666664,3.99999996 3.99999996,3.10666664 3.99999996,1.99999996 Z M9.33333334,1.99999996 L7.99999996,1.99999996 C7.99999996,5.31333332 5.31333332,7.99999996 1.99999996,7.99999996 L1.99999996,9.33333334 C6.05333332,9.33333334 9.33333334,6.04666665 9.33333334,1.99999996 Z M6.66666666,1.99999996 L5.33333332,1.99999996 C5.33333332,3.83999997 3.83999997,5.33333332 1.99999996,5.33333332 L1.99999996,6.66666666 C4.57999998,6.66666666 6.66666666,4.57999998 6.66666666,1.99999996 Z M6.66666666,14 L8,14 C8,10.6866667 10.6866667,8 14,8 L14,6.66666666 C9.95333335,6.66666666 6.66666666,9.95333335 6.66666666,14 Z M12,14 L14,14 L14,12 C12.8933334,12 12,12.8933334 12,14 Z M9.33333334,14 L10.6666667,14 C10.6666667,12.16 12.16,10.6666667 14,10.6666667 L14,9.33333334 C11.42,9.33333334 9.33333334,11.42 9.33333334,14 Z" id="path-1"></path>
    </defs>
    <g id="Icons/Image/leak-add" stroke="none" stroke-width="1" fill="none" fill-rule="evenodd">
        <mask id="mask-2" fill="white">
            <use xlink:href="#path-1"></use>
        </mask>
        <use id="Icons/Image/ic_leak_add_24px" fill="#233745" fill-rule="nonzero" xlink:href="#path-1"></use>
    </g>
</svg>