<?xml version="1.0" encoding="UTF-8"?>
<svg width="16px" height="16px" viewBox="0 0 16 16" version="1.1" xmlns="http://www.w3.org/2000/svg" xmlns:xlink="http://www.w3.org/1999/xlink">
    <title>Icons/Image/leak-remove</title>
    <g id="Icons/Image/leak-remove" stroke="none" stroke-width="1" fill="none" fill-rule="evenodd">
        <rect id="Spacer" fill-opacity="0" fill="#D8D8D8" x="0" y="0" width="16" height="16"></rect>
        <path d="M6.66666666,1.99999996 L5.33333332,1.99999996 C5.33333332,2.24666663 5.30666665,2.47999997 5.25333332,2.70666663 L6.31333332,3.76666664 C6.53999999,3.22666664 6.66666666,2.62666663 6.66666666,1.99999996 Z M1.99999996,2.84666663 L3.89333331,4.73999998 C3.3533333,5.11333332 2.70666663,5.33333332 1.99999996,5.33333332 L1.99999996,6.66666666 C3.0733333,6.66666666 4.05999998,6.29999999 4.84666665,5.69333332 L5.79999999,6.64666666 C4.75999998,7.49333333 3.43999997,7.99999996 1.99999996,7.99999996 L1.99999996,9.33333334 C3.80666664,9.33333334 5.45999998,8.67333334 6.73999999,7.58666666 L8.40666667,9.25333334 C7.32666666,10.54 6.66666666,12.1933334 6.66666666,14 L7.99999996,14 C7.99999996,12.56 8.50666667,11.24 9.35333334,10.2066667 L10.3066667,11.16 C9.70000001,11.94 9.33333334,12.9266667 9.33333334,14 L10.6666667,14 C10.6666667,13.2933334 10.8866667,12.6466667 11.26,12.1066667 L13.1533334,14 L14,13.1533334 L2.84666663,1.99999996 L1.99999996,2.84666663 Z M9.33333334,1.99999996 L8,1.99999996 C8,2.99999996 7.75333333,3.93999997 7.32,4.77333331 L8.29333334,5.74666665 C8.94666667,4.65333331 9.33333334,3.3733333 9.33333334,1.99999996 Z M13.2933334,10.7466667 C13.52,10.6933334 13.7533334,10.6666667 14,10.6666667 L14,9.33333334 C13.3733334,9.33333334 12.7733334,9.46000001 12.2266667,9.68000001 L13.2933334,10.7466667 Z M10.2533333,7.70666666 L11.2266667,8.68 C12.06,8.24666667 13,8 14,8 L14,6.66666666 C12.6266667,6.66666666 11.3466667,7.05333333 10.2533333,7.70666666 L10.2533333,7.70666666 Z" id="Icons/Image/ic_leak_remove_24px" fill="#233745" fill-rule="nonzero"></path>
    </g>
</svg>