<?xml version="1.0" encoding="UTF-8"?>
<svg width="16px" height="16px" viewBox="0 0 16 16" version="1.1" xmlns="http://www.w3.org/2000/svg" xmlns:xlink="http://www.w3.org/1999/xlink">
    <title>Icons/Image/linked-camera</title>
    <defs>
        <path d="M10,2.66666663 L10,4.66666663 C10.74,4.66666663 11.3333333,5.25999998 11.3333333,5.99999999 L11.3333333,5.99999999 L14.6666667,5.99999999 L14.6666667,13.3333334 C14.6666667,14.0666667 14.0666667,14.6666666 13.3333333,14.6666666 L13.3333333,14.6666666 L2.66666663,14.6666666 C1.9333333,14.6666666 1.33333329,14.0666667 1.33333329,13.3333334 L1.33333329,13.3333334 L1.33333329,5.33333332 C1.33333329,4.59999998 1.9333333,3.99999998 2.66666663,3.99999998 L2.66666663,3.99999998 L4.77999998,3.99999998 L5.99999999,2.66666663 L10,2.66666663 Z M8,5.99999999 C6.15999999,5.99999999 4.66666665,7.49333333 4.66666665,9.33333334 C4.66666665,11.1733334 6.15999999,12.6666667 8,12.6666667 C9.84000001,12.6666667 11.3333334,11.1733334 11.3333334,9.33333334 C11.3333334,7.49333333 9.84000001,5.99999999 8,5.99999999 Z M8,7.19999999 C9.17820747,7.19999999 10.1333333,8.15512587 10.1333333,9.33333334 C10.1333333,10.5115408 9.17820747,11.4666667 8,11.4666667 C6.82179253,11.4666667 5.86666665,10.5115408 5.86666665,9.33333334 C5.86666665,8.15512587 6.82179253,7.19999999 8,7.19999999 Z M10.6666667,3.1133333 C11.8933334,3.1133333 12.8866667,4.10666664 12.8866667,5.33333332 L12.8866667,5.33333332 L12,5.33333332 C12,4.59333331 11.4066667,3.99999997 10.6666667,3.99999997 L10.6666667,3.99999997 Z M10.6666667,1.33333329 C12.8733334,1.33333329 14.6666667,3.12666664 14.6666667,5.33333329 L14.6666667,5.33333329 L13.78,5.33333329 C13.78,3.61333331 12.3866667,2.21999996 10.6666667,2.21999996 L10.6666667,2.21999996 Z" id="path-1"></path>
    </defs>
    <g id="Icons/Image/linked-camera" stroke="none" stroke-width="1" fill="none" fill-rule="evenodd">
        <mask id="mask-2" fill="white">
            <use xlink:href="#path-1"></use>
        </mask>
        <use id="Combined-Shape" fill="#233745" fill-rule="nonzero" xlink:href="#path-1"></use>
    </g>
</svg>