<?xml version="1.0" encoding="UTF-8"?>
<svg width="16px" height="16px" viewBox="0 0 16 16" version="1.1" xmlns="http://www.w3.org/2000/svg" xmlns:xlink="http://www.w3.org/1999/xlink">
    <title>Icons/Image/looks-3</title>
    <g id="Icons/Image/looks-3" stroke="none" stroke-width="1" fill="none" fill-rule="evenodd">
        <rect id="Spacer" fill-opacity="0" fill="#D8D8D8" x="0" y="0" width="16" height="16"></rect>
        <path d="M12.6733334,1.99999996 L3.33999997,1.99999996 C2.60666663,1.99999996 2.00666663,2.59999997 2.00666663,3.3333333 L2.00666663,12.6666667 C2.00666663,13.4 2.60666663,14 3.33999997,14 L12.6733334,14 C13.4066667,14 14.0066666,13.4 14.0066666,12.6666667 L14.0066666,3.3333333 C14.0066666,2.59999997 13.4066667,1.99999996 12.6733334,1.99999996 Z M10.0066667,6.99999999 C10.0066667,7.55333333 9.56000001,8 9.00666665,8 C9.56000001,8 10.0066667,8.44666667 10.0066667,9.00000001 L10.0066667,10 C10.0066667,10.74 9.40666668,11.3333334 8.67333334,11.3333334 L6.00666665,11.3333334 L6.00666665,10 L8.67333334,10 L8.67333334,8.66666665 L7.34,8.66666665 L7.34,7.33333333 L8.67333334,7.33333333 L8.67333334,5.99999999 L6.00666665,5.99999999 L6.00666665,4.66666665 L8.67333334,4.66666665 C9.40666668,4.66666665 10.0066667,5.25999998 10.0066667,5.99999999 L10.0066667,6.99999999 Z" id="Icons/Image/ic_looks_3_24px" fill="#233745" fill-rule="nonzero"></path>
    </g>
</svg>