<?xml version="1.0" encoding="UTF-8"?>
<svg width="16px" height="16px" viewBox="0 0 16 16" version="1.1" xmlns="http://www.w3.org/2000/svg" xmlns:xlink="http://www.w3.org/1999/xlink">
    <title>Icons/Image/looks</title>
    <g id="Icons/Image/looks" stroke="none" stroke-width="1" fill="none" fill-rule="evenodd">
        <rect id="Spacer" fill-opacity="0" fill="#D8D8D8" x="0" y="0" width="16" height="16"></rect>
        <path d="M8,6.66666666 C5.42666665,6.66666666 3.3333333,8.76 3.3333333,11.3333334 L4.66666665,11.3333334 C4.66666665,9.49333334 6.15999999,8 8,8 C9.84000001,8 11.3333333,9.49333334 11.3333333,11.3333334 L12.6666667,11.3333334 C12.6666667,8.76 10.5733333,6.66666666 8,6.66666666 Z M8,3.99999998 C3.95333331,3.99999998 0.666666621,7.28666666 0.666666621,11.3333334 L1.99999996,11.3333334 C1.99999996,8.02666667 4.69333331,5.33333332 8,5.33333332 C11.3066667,5.33333332 14,8.02666667 14,11.3333334 L15.3333334,11.3333334 C15.3333334,7.28666666 12.0466667,3.99999998 8,3.99999998 Z" id="Icons/Image/ic_looks_24px" fill="#233745" fill-rule="nonzero"></path>
    </g>
</svg>