<svg xmlns="http://www.w3.org/2000/svg" xmlns:xlink="http://www.w3.org/1999/xlink" width="16" height="16" viewBox="0 0 16 16">
  <defs>
    <path id="looks-a" d="M8,6.66666666 C5.42666665,6.66666666 3.3333333,8.76 3.3333333,11.3333334 L4.66666665,11.3333334 C4.66666665,9.49333334 6.15999999,8 8,8 C9.84000001,8 11.3333333,9.49333334 11.3333333,11.3333334 L12.6666667,11.3333334 C12.6666667,8.76 10.5733333,6.66666666 8,6.66666666 Z M8,3.99999997 C3.95333331,3.99999997 0.666666621,7.28666666 0.666666621,11.3333334 L1.99999996,11.3333334 C1.99999996,8.02666667 4.69333331,5.33333332 8,5.33333332 C11.3066667,5.33333332 14,8.02666667 14,11.3333334 L15.3333334,11.3333334 C15.3333334,7.28666666 12.0466667,3.99999997 8,3.99999997 Z"/>
  </defs>
  <g fill="none" fill-rule="evenodd">
    <mask id="looks-b" fill="#fff">
      <use xlink:href="#looks-a"/>
    </mask>
    <g fill="CurrentColor" mask="url(#looks-b)">
      <rect width="16" height="16"/>
    </g>
  </g>
</svg>
