<?xml version="1.0" encoding="UTF-8"?>
<svg width="16px" height="16px" viewBox="0 0 16 16" version="1.1" xmlns="http://www.w3.org/2000/svg" xmlns:xlink="http://www.w3.org/1999/xlink">
    <title>Icons/Image/monochrome-photos</title>
    <defs>
        <path d="M13.3333333,3.3333333 L11.2,3.3333333 L10,1.99999996 L5.99999999,1.99999996 L4.79999998,3.3333333 L2.66666663,3.3333333 C1.9333333,3.3333333 1.33333329,3.93333331 1.33333329,4.66666665 L1.33333329,12.6666667 C1.33333329,13.4 1.9333333,14 2.66666663,14 L13.3333333,14 C14.0666667,14 14.6666667,13.4 14.6666667,12.6666667 L14.6666667,4.66666665 C14.6666667,3.93333331 14.0666667,3.3333333 13.3333333,3.3333333 Z M13.3333334,12.6666666 L8,12.6666666 L8,12 C6.13333332,12 4.66666665,10.5333333 4.66666665,8.66666665 C4.66666665,6.79999999 6.13333332,5.33333332 8,5.33333332 L8,4.66666665 L13.3333334,4.66666665 L13.3333334,12.6666666 Z M11.3333334,8.66666667 C11.3333334,6.79999999 9.86666668,5.33333332 8,5.33333332 L8,6.53333332 C9.20000001,6.53333332 10.1333333,7.46666666 10.1333333,8.66666667 C10.1333333,9.86666668 9.20000001,10.8 8,10.8 L8,12 C9.86666668,12 11.3333334,10.5333333 11.3333334,8.66666667 Z M5.86666665,8.66666667 C5.86666665,9.86666668 6.79999999,10.8 8,10.8 L8,6.53333332 C6.79999999,6.53333332 5.86666665,7.46666666 5.86666665,8.66666667 Z" id="path-1"></path>
    </defs>
    <g id="Icons/Image/monochrome-photos" stroke="none" stroke-width="1" fill="none" fill-rule="evenodd">
        <mask id="mask-2" fill="white">
            <use xlink:href="#path-1"></use>
        </mask>
        <use id="Icons/Image/ic_monochrome_photos_24px" fill="#233745" fill-rule="nonzero" xlink:href="#path-1"></use>
    </g>
</svg>