<?xml version="1.0" encoding="UTF-8"?>
<svg width="16px" height="16px" viewBox="0 0 16 16" version="1.1" xmlns="http://www.w3.org/2000/svg" xmlns:xlink="http://www.w3.org/1999/xlink">
    <title>Icons/Image/movie-filter</title>
    <g id="Icons/Image/movie-filter" stroke="none" stroke-width="1" fill="none" fill-rule="evenodd">
        <rect id="Spacer" fill-opacity="0" fill="#D8D8D8" x="0" y="0" width="16" height="16"></rect>
        <path d="M12,2.66666663 L13.3333333,4.66666663 L11.3333333,4.66666663 L10,2.66666663 L8.66666667,2.66666663 L10,4.66666663 L8,4.66666663 L6.66666666,2.66666663 L5.33333329,2.66666663 L6.66666666,4.66666663 L4.66666665,4.66666663 L3.33333329,2.66666663 L2.66666663,2.66666663 C1.9333333,2.66666663 1.33999996,3.26666664 1.33999996,3.99999997 L1.33333329,12 C1.33333329,12.7333334 1.9333333,13.3333334 2.66666663,13.3333334 L13.3333333,13.3333334 C14.0666667,13.3333334 14.6666667,12.7333334 14.6666667,12 L14.6666667,2.66666663 L12,2.66666663 Z M7.49999997,10.1666667 L6.66666666,12 L5.83333332,10.1666667 L3.99999997,9.33333334 L5.83333332,8.5 L6.66666666,6.66666666 L7.49999997,8.5 L9.33333334,9.33333334 L7.49999997,10.1666667 Z M11.2933334,7.96 L10.6666667,9.33333332 L10.04,7.96 L8.66666667,7.33333332 L10.04,6.70666666 L10.6666667,5.33333332 L11.2933334,6.70666666 L12.6666667,7.33333332 L11.2933334,7.96 Z" id="Icons/Image/ic_movie_filter_24px" fill="#233745" fill-rule="nonzero"></path>
    </g>
</svg>