<?xml version="1.0" encoding="UTF-8"?>
<svg width="16px" height="16px" viewBox="0 0 16 16" version="1.1" xmlns="http://www.w3.org/2000/svg" xmlns:xlink="http://www.w3.org/1999/xlink">
    <title>Icons/Image/palette</title>
    <g id="Icons/Image/palette" stroke="none" stroke-width="1" fill="none" fill-rule="evenodd">
        <rect id="Spacer" fill-opacity="0" fill="#D8D8D8" x="0" y="0" width="16" height="16"></rect>
        <path d="M7.99999996,1.99999996 C4.68666665,1.99999996 1.99999996,4.68666665 1.99999996,7.99999996 C1.99999996,11.3133334 4.68666665,14 7.99999996,14 C8.55333334,14 8.99999996,13.5533334 8.99999996,13 C8.99999996,12.74 8.90000001,12.5066667 8.74,12.3266667 C8.58666667,12.1533334 8.48666667,11.92 8.48666667,11.6666667 C8.48666667,11.1133334 8.93333334,10.6666667 9.48666668,10.6666667 L10.6666667,10.6666667 C12.5066667,10.6666667 14,9.17333334 14,7.33333333 C14,4.38666664 11.3133334,1.99999996 7.99999996,1.99999996 Z M4.3333333,7.99999999 C3.77999997,7.99999999 3.3333333,7.55333333 3.3333333,6.99999999 C3.3333333,6.44666666 3.77999997,5.99999999 4.3333333,5.99999999 C4.88666665,5.99999999 5.3333333,6.44666666 5.3333333,6.99999999 C5.3333333,7.55333333 4.88666665,7.99999999 4.3333333,7.99999999 Z M6.33333332,5.3333333 C5.77999999,5.3333333 5.33333332,4.88666665 5.33333332,4.3333333 C5.33333332,3.77999997 5.77999999,3.3333333 6.33333332,3.3333333 C6.88666666,3.3333333 7.33333332,3.77999997 7.33333332,4.3333333 C7.33333332,4.88666665 6.88666666,5.3333333 6.33333332,5.3333333 Z M9.66666667,5.3333333 C9.11333334,5.3333333 8.66666667,4.88666665 8.66666667,4.3333333 C8.66666667,3.77999997 9.11333334,3.3333333 9.66666667,3.3333333 C10.22,3.3333333 10.6666667,3.77999997 10.6666667,4.3333333 C10.6666667,4.88666665 10.22,5.3333333 9.66666667,5.3333333 Z M11.6666667,7.99999999 C11.1133334,7.99999999 10.6666667,7.55333333 10.6666667,6.99999999 C10.6666667,6.44666666 11.1133334,5.99999999 11.6666667,5.99999999 C12.22,5.99999999 12.6666667,6.44666666 12.6666667,6.99999999 C12.6666667,7.55333333 12.22,7.99999999 11.6666667,7.99999999 Z" id="Icons/Image/ic_palette_24px" fill="#233745" fill-rule="nonzero"></path>
    </g>
</svg>