<svg xmlns="http://www.w3.org/2000/svg" xmlns:xlink="http://www.w3.org/1999/xlink" width="16" height="16" viewBox="0 0 16 16">
  <defs>
    <path id="panorama-horizontal-a" d="M13.3333334,4.35999998 L13.3333334,11.6333334 C11.6,11.12 9.81333334,10.86 8,10.86 C6.18666666,10.86 4.39999998,11.12 2.66666663,11.6333334 L2.66666663,4.35999998 C4.39999998,4.87333331 6.18666666,5.13333332 8,5.13333332 C9.81333334,5.13999998 11.6,4.87999998 13.3333334,4.35999998 L13.3333334,4.35999998 Z M14.2866667,2.66666663 C14.22,2.66666663 14.1533334,2.67999997 14.08,2.70666663 C12.12,3.43999997 10.06,3.79999997 8,3.79999997 C5.93999999,3.79999997 3.87999997,3.4333333 1.91999996,2.70666663 C1.84666663,2.67999997 1.77333329,2.66666663 1.71333329,2.66666663 C1.48666663,2.66666663 1.33333329,2.81999997 1.33333329,3.08666664 L1.33333329,12.92 C1.33333329,13.18 1.48666663,13.3333334 1.71333329,13.3333334 C1.77999996,13.3333334 1.84666663,13.32 1.91999996,13.2933334 C3.87999997,12.56 5.93999999,12.2 8,12.2 C10.06,12.2 12.12,12.5666667 14.08,13.2933334 C14.1533334,13.32 14.22,13.3333334 14.2866667,13.3333334 C14.5066667,13.3333334 14.6666667,13.18 14.6666667,12.9133334 L14.6666667,3.08666664 C14.6666667,2.81999997 14.5066667,2.66666663 14.2866667,2.66666663 Z"/>
  </defs>
  <g fill="none" fill-rule="evenodd">
    <mask id="panorama-horizontal-b" fill="#fff">
      <use xlink:href="#panorama-horizontal-a"/>
    </mask>
    <g fill="CurrentColor" mask="url(#panorama-horizontal-b)">
      <rect width="16" height="16"/>
    </g>
  </g>
</svg>
