<?xml version="1.0" encoding="UTF-8"?>
<svg width="16px" height="16px" viewBox="0 0 16 16" version="1.1" xmlns="http://www.w3.org/2000/svg" xmlns:xlink="http://www.w3.org/1999/xlink">
    <title>Icons/Image/panorama-vertical</title>
    <g id="Icons/Image/panorama-vertical" stroke="none" stroke-width="1" fill="none" fill-rule="evenodd">
        <rect id="Spacer" fill-opacity="0" fill="#D8D8D8" x="0" y="0" width="16" height="16"></rect>
        <path d="M13.2933334,14.08 C12.56,12.12 12.2,10.06 12.2,8 C12.2,5.93999999 12.5666667,3.87999997 13.2933334,1.91999996 C13.32,1.84666663 13.3333334,1.77333329 13.3333334,1.71333329 C13.3333334,1.48666663 13.18,1.33333329 12.9133334,1.33333329 L3.08666664,1.33333329 C2.81999997,1.33333329 2.66666663,1.48666663 2.66666663,1.71333329 C2.66666663,1.77999996 2.67999997,1.84666663 2.70666663,1.91999996 C3.43999997,3.87999997 3.80666664,5.93999999 3.80666664,8 C3.80666664,10.06 3.43999997,12.12 2.7133333,14.08 C2.67999997,14.1533334 2.66666663,14.2266667 2.66666663,14.2866667 C2.66666663,14.5066667 2.81999997,14.6666667 3.08666664,14.6666667 L12.92,14.6666667 C13.18,14.6666667 13.34,14.5066667 13.34,14.2866667 C13.3333334,14.22 13.32,14.1533334 13.2933334,14.08 L13.2933334,14.08 Z M4.35999998,13.3333334 C4.87333331,11.6 5.13333332,9.81333334 5.13333332,8 C5.13333332,6.18666666 4.87333331,4.39999998 4.35999998,2.66666663 L11.6333334,2.66666663 C11.12,4.39999998 10.86,6.18666666 10.86,8 C10.86,9.81333334 11.12,11.6 11.6333334,13.3333334 L4.35999998,13.3333334 Z" id="Icons/Image/ic_panorama_vertical_24px" fill="#233745" fill-rule="nonzero"></path>
    </g>
</svg>