<?xml version="1.0" encoding="UTF-8"?>
<svg width="16px" height="16px" viewBox="0 0 16 16" version="1.1" xmlns="http://www.w3.org/2000/svg" xmlns:xlink="http://www.w3.org/1999/xlink">
    <title>Icons/Image/panorama-wide-angle</title>
    <g id="Icons/Image/panorama-wide-angle" stroke="none" stroke-width="1" fill="none" fill-rule="evenodd">
        <rect id="Spacer" fill-opacity="0" fill="#D8D8D8" x="0" y="0" width="16" height="16"></rect>
        <path d="M8,3.99999998 C9.63333334,3.99999998 11.14,4.13333331 12.86,4.42666664 C13.1733334,5.61333332 13.3333334,6.81333333 13.3333334,7.99999997 C13.3333334,9.18666667 13.1733334,10.3866667 12.86,11.5733334 C11.14,11.8666667 9.63333334,12 8,12 C6.36666666,12 4.85999998,11.8666667 3.13999997,11.5733334 C2.82666663,10.3866667 2.66666663,9.18666667 2.66666663,7.99999997 C2.66666663,6.81333333 2.82666663,5.61333332 3.13999997,4.42666664 C4.85999998,4.13333331 6.36666666,3.99999998 8,3.99999998 L8,3.99999998 Z M8,2.66666663 C6.17999999,2.66666663 4.51999998,2.82666663 2.69999997,3.14666664 L2.07999996,3.2533333 L1.9133333,3.85333331 C1.52666663,5.23333332 1.33333329,6.61999999 1.33333329,8 C1.33333329,9.38000001 1.52666663,10.7666667 1.9133333,12.1466667 L2.07999996,12.74 L2.69999997,12.8466667 C4.51999998,13.1733334 6.17999999,13.3333334 8,13.3333334 C9.82000001,13.3333334 11.48,13.1733334 13.3,12.8533334 L13.92,12.7466667 L14.0866667,12.1533334 C14.4733334,10.7666667 14.6666667,9.38000001 14.6666667,8 C14.6666667,6.61999999 14.4733334,5.23333332 14.0866667,3.85333331 L13.92,3.25999997 L13.3,3.1533333 C11.48,2.82666663 9.82000001,2.66666663 8,2.66666663 Z" id="Icons/Image/ic_panorama_wide_angle_24px" fill="#233745" fill-rule="nonzero"></path>
    </g>
</svg>