<?xml version="1.0" encoding="UTF-8"?>
<svg width="16px" height="16px" viewBox="0 0 16 16" version="1.1" xmlns="http://www.w3.org/2000/svg" xmlns:xlink="http://www.w3.org/1999/xlink">
    <title>Icons/Image/photo-size-select-large</title>
    <g id="Icons/Image/photo-size-select-large" stroke="none" stroke-width="1" fill="none" fill-rule="evenodd">
        <rect id="Spacer" fill-opacity="0" fill="#D8D8D8" x="0" y="0" width="16" height="16"></rect>
        <path d="M14,10 L15.3333334,10 L15.3333334,11.3333334 L14,11.3333334 L14,10 Z M14,7.33333333 L15.3333334,7.33333333 L15.3333334,8.66666667 L14,8.66666667 L14,7.33333333 Z M15.3333334,12.6666667 L14,12.6666667 L14,14 C14.6666667,14 15.3333334,13.3333334 15.3333334,12.6666667 Z M8.66666667,1.99999996 L10,1.99999996 L10,3.3333333 L8.66666667,3.3333333 L8.66666667,1.99999996 Z M14,4.66666665 L15.3333334,4.66666665 L15.3333334,5.99999999 L14,5.99999999 L14,4.66666665 Z M14,1.99999996 L14,3.3333333 L15.3333334,3.3333333 C15.3333334,2.66666663 14.6666667,1.99999996 14,1.99999996 Z M0.666666621,4.66666665 L1.99999996,4.66666665 L1.99999996,5.99999999 L0.666666621,5.99999999 L0.666666621,4.66666665 Z M11.3333334,1.99999996 L12.6666667,1.99999996 L12.6666667,3.3333333 L11.3333334,3.3333333 L11.3333334,1.99999996 Z M11.3333334,12.6666667 L12.6666667,12.6666667 L12.6666667,14 L11.3333334,14 L11.3333334,12.6666667 Z M1.99999996,1.99999996 C1.33333329,1.99999996 0.666666621,2.66666663 0.666666621,3.3333333 L1.99999996,3.3333333 L1.99999996,1.99999996 Z M5.99999999,1.99999996 L7.33333333,1.99999996 L7.33333333,3.3333333 L5.99999999,3.3333333 L5.99999999,1.99999996 Z M3.3333333,1.99999996 L4.66666665,1.99999996 L4.66666665,3.3333333 L3.3333333,3.3333333 L3.3333333,1.99999996 Z M0.666666621,7.33333333 L0.666666621,12.6666667 C0.666666621,13.4 1.26666662,14 1.99999996,14 L10,14 L10,7.33333333 L0.666666621,7.33333333 Z M1.99999996,12.6666667 L3.66666664,10.5266667 L4.85999998,11.96 L6.52666666,9.81333334 L8.66666667,12.6666667 L1.99999996,12.6666667 Z" id="Icons/Image/ic_photo_size_select_large_24px" fill="#233745" fill-rule="nonzero"></path>
    </g>
</svg>