<?xml version="1.0" encoding="UTF-8"?>
<svg width="16px" height="16px" viewBox="0 0 16 16" version="1.1" xmlns="http://www.w3.org/2000/svg" xmlns:xlink="http://www.w3.org/1999/xlink">
    <title>Icons/Image/photo-album</title>
    <g id="Icons/Image/photo-album" stroke="none" stroke-width="1" fill="none" fill-rule="evenodd">
        <rect id="Spacer" fill-opacity="0" fill="#D8D8D8" x="0" y="0" width="16" height="16"></rect>
        <path d="M12,1.33333329 L3.99999997,1.33333329 C3.26666664,1.33333329 2.66666663,1.9333333 2.66666663,2.66666663 L2.66666663,13.3333333 C2.66666663,14.0666667 3.26666664,14.6666667 3.99999997,14.6666667 L12,14.6666667 C12.7333334,14.6666667 13.3333334,14.0666667 13.3333334,13.3333333 L13.3333334,2.66666663 C13.3333334,1.9333333 12.7333334,1.33333329 12,1.33333329 Z M3.99999998,2.66666663 L7.33333333,2.66666663 L7.33333333,8 L5.66666665,6.99999999 L3.99999998,8 L3.99999998,2.66666663 Z M3.99999998,12.6666667 L5.99999997,10.0933333 L7.42666666,11.8133334 L9.42666668,9.24000001 L12,12.6666667 L3.99999998,12.6666667 Z" id="Icons/Image/ic_photo_album_24px" fill="#233745" fill-rule="nonzero"></path>
    </g>
</svg>