<?xml version="1.0" encoding="UTF-8"?>
<svg width="16px" height="16px" viewBox="0 0 16 16" version="1.1" xmlns="http://www.w3.org/2000/svg" xmlns:xlink="http://www.w3.org/1999/xlink">
    <title>Icons/Image/photo-filter</title>
    <defs>
        <path d="M12.68,6.66666666 L12.68,12.6666667 L3.3333333,12.6666667 L3.3333333,3.3333333 L9.33333334,3.3333333 L9.33333334,1.99999996 L3.34666664,1.99999996 C2.6133333,1.99999996 2.0133333,2.59999997 2.0133333,3.3333333 L2.0133333,12.6666667 C2.0133333,13.4 2.6133333,14 3.34666664,14 L12.68,14 C13.4133334,14 14.0133333,13.4 14.0133333,12.6666667 L14.0133333,6.66666666 L12.68,6.66666666 Z M11.3333333,6.66666663 L11.96,5.29333332 L13.3333333,4.66666663 L11.96,4.03999998 L11.3333333,2.66666663 L10.7066667,4.03999998 L9.33333334,4.66666663 L10.7066667,5.29333332 L11.3333333,6.66666663 Z M8.83333332,7.16666666 L8,5.33333332 L7.16666666,7.16666666 L5.33333332,8 L7.16666666,8.83333332 L8,10.6666667 L8.83333332,8.83333332 L10.6666667,8 L8.83333332,7.16666666 Z" id="path-1"></path>
    </defs>
    <g id="Icons/Image/photo-filter" stroke="none" stroke-width="1" fill="none" fill-rule="evenodd">
        <mask id="mask-2" fill="white">
            <use xlink:href="#path-1"></use>
        </mask>
        <use id="Icons/Image/ic_photo_filter_24px" fill="#233745" fill-rule="nonzero" xlink:href="#path-1"></use>
    </g>
</svg>