<?xml version="1.0" encoding="UTF-8"?>
<svg width="16px" height="16px" viewBox="0 0 16 16" version="1.1" xmlns="http://www.w3.org/2000/svg" xmlns:xlink="http://www.w3.org/1999/xlink">
    <title>Icons/Image/photo-library</title>
    <defs>
        <path d="M14.6666667,10.6666667 L14.6666667,2.66666663 C14.6666667,1.9333333 14.0666667,1.33333329 13.3333334,1.33333329 L5.33333332,1.33333329 C4.59999998,1.33333329 3.99999998,1.9333333 3.99999998,2.66666663 L3.99999998,10.6666667 C3.99999998,11.4 4.59999998,12 5.33333332,12 L13.3333334,12 C14.0666667,12 14.6666667,11.4 14.6666667,10.6666667 Z M7.33333332,8 L8.68666667,9.80666668 L10.6666667,7.33333333 L13.3333333,10.6666667 L5.33333332,10.6666667 L7.33333332,8 Z M1.33333329,3.99999998 L1.33333329,13.3333334 C1.33333329,14.0666667 1.9333333,14.6666667 2.66666663,14.6666667 L12,14.6666667 L12,13.3333334 L2.66666663,13.3333334 L2.66666663,3.99999998 L1.33333329,3.99999998 Z" id="path-1"></path>
    </defs>
    <g id="Icons/Image/photo-library" stroke="none" stroke-width="1" fill="none" fill-rule="evenodd">
        <mask id="mask-2" fill="white">
            <use xlink:href="#path-1"></use>
        </mask>
        <use id="Icons/Image/ic_photo_library_24px" fill="#233745" fill-rule="nonzero" xlink:href="#path-1"></use>
    </g>
</svg>