<?xml version="1.0" encoding="UTF-8"?>
<svg width="16px" height="16px" viewBox="0 0 16 16" version="1.1" xmlns="http://www.w3.org/2000/svg" xmlns:xlink="http://www.w3.org/1999/xlink">
    <title>Icons/Image/picture-as-pdf</title>
    <defs>
        <path d="M13.3333334,1.33333329 L5.33333332,1.33333329 C4.59999998,1.33333329 3.99999998,1.9333333 3.99999998,2.66666663 L3.99999998,10.6666667 C3.99999998,11.4 4.59999998,12 5.33333332,12 L13.3333334,12 C14.0666667,12 14.6666667,11.4 14.6666667,10.6666667 L14.6666667,2.66666663 C14.6666667,1.9333333 14.0666667,1.33333329 13.3333334,1.33333329 Z M7.66666666,6.33333332 C7.66666666,6.88666666 7.22,7.33333333 6.66666666,7.33333333 L5.99999998,7.33333333 L5.99999998,8.66666665 L4.99999998,8.66666665 L4.99999998,4.66666665 L6.66666666,4.66666665 C7.22,4.66666665 7.66666666,5.11333332 7.66666666,5.66666665 L7.66666666,6.33333332 Z M11,7.66666665 C11,8.22 10.5533333,8.66666665 10,8.66666665 L8.33333334,8.66666665 L8.33333334,4.66666665 L10,4.66666665 C10.5533333,4.66666665 11,5.11333332 11,5.66666665 L11,7.66666665 Z M13.6666667,5.66666665 L12.6666667,5.66666665 L12.6666667,6.33333332 L13.6666667,6.33333332 L13.6666667,7.33333333 L12.6666667,7.33333333 L12.6666667,8.66666665 L11.6666667,8.66666665 L11.6666667,4.66666665 L13.6666667,4.66666665 L13.6666667,5.66666665 Z M5.99999999,6.33333332 L6.66666666,6.33333332 L6.66666666,5.66666665 L5.99999999,5.66666665 L5.99999999,6.33333332 Z M2.66666663,3.99999998 L1.33333329,3.99999998 L1.33333329,13.3333334 C1.33333329,14.0666667 1.9333333,14.6666667 2.66666663,14.6666667 L12,14.6666667 L12,13.3333334 L2.66666663,13.3333334 L2.66666663,3.99999998 Z M9.33333334,7.66666665 L10,7.66666665 L10,5.66666665 L9.33333334,5.66666665 L9.33333334,7.66666665 Z" id="path-1"></path>
    </defs>
    <g id="Icons/Image/picture-as-pdf" stroke="none" stroke-width="1" fill="none" fill-rule="evenodd">
        <mask id="mask-2" fill="white">
            <use xlink:href="#path-1"></use>
        </mask>
        <use id="Icons/Image/ic_picture_as_pdf_24px" fill="#233745" fill-rule="nonzero" xlink:href="#path-1"></use>
    </g>
</svg>