<?xml version="1.0" encoding="UTF-8"?>
<svg width="16px" height="16px" viewBox="0 0 16 16" version="1.1" xmlns="http://www.w3.org/2000/svg" xmlns:xlink="http://www.w3.org/1999/xlink">
    <title>Icons/Image/portrait</title>
    <defs>
        <path d="M7.99999999,8.16666665 C8.82666667,8.16666665 9.49999999,7.49333333 9.49999999,6.66666665 C9.49999999,5.83999999 8.82666667,5.16666665 7.99999999,5.16666665 C7.17333333,5.16666665 6.49999999,5.83999999 6.49999999,6.66666665 C6.49999999,7.49333333 7.17333333,8.16666665 7.99999999,8.16666665 Z M11,10.8333333 C11,9.83333334 8.99999998,9.33333334 7.99999998,9.33333334 C6.99999998,9.33333334 4.99999998,9.83333334 4.99999998,10.8333333 L4.99999998,11.3333333 L11,11.3333333 L11,10.8333333 Z M12.6666667,1.99999996 L3.3333333,1.99999996 C2.59999997,1.99999996 1.99999996,2.59999997 1.99999996,3.3333333 L1.99999996,12.6666667 C1.99999996,13.4 2.59999997,14 3.3333333,14 L12.6666667,14 C13.4,14 14,13.4 14,12.6666667 L14,3.3333333 C14,2.59999997 13.4,1.99999996 12.6666667,1.99999996 Z M12.6666667,12.6666667 L3.3333333,12.6666667 L3.3333333,3.3333333 L12.6666667,3.3333333 L12.6666667,12.6666667 Z" id="path-1"></path>
    </defs>
    <g id="Icons/Image/portrait" stroke="none" stroke-width="1" fill="none" fill-rule="evenodd">
        <mask id="mask-2" fill="white">
            <use xlink:href="#path-1"></use>
        </mask>
        <use id="Icons/Image/ic_portrait_24px" fill="#233745" fill-rule="nonzero" xlink:href="#path-1"></use>
    </g>
</svg>