<?xml version="1.0" encoding="UTF-8"?>
<svg width="16px" height="16px" viewBox="0 0 16 16" version="1.1" xmlns="http://www.w3.org/2000/svg" xmlns:xlink="http://www.w3.org/1999/xlink">
    <title>Icons/Image/rotate-90-degrees-ccw</title>
    <defs>
        <path d="M4.89333331,4.27333331 L0.573333287,8.6 L4.89999998,12.92 L9.22666667,8.6 L4.89333331,4.27333331 Z M2.45999997,8.6 L4.89999998,6.15999999 L7.33333333,8.6 L4.89333331,11.04 L2.45999997,8.6 L2.45999997,8.6 Z M12.9066667,4.42666664 C11.74,3.2533333 10.2,2.66666663 8.66666667,2.66666663 L8.66666667,0.50666662 L5.83999999,3.3333333 L8.66666667,6.15999999 L8.66666667,3.99999997 C9.86000001,3.99999997 11.0533334,4.45333331 11.9666667,5.36666665 C13.7866667,7.18666666 13.7866667,10.1466667 11.9666667,11.9666667 C11.0533334,12.88 9.86000001,13.3333334 8.66666667,13.3333334 C8.02,13.3333334 7.37333333,13.1933334 6.77333333,12.9266667 L5.77999999,13.92 C6.67999999,14.4133334 7.67333333,14.6666667 8.66666667,14.6666667 C10.2,14.6666667 11.74,14.08 12.9066667,12.9066667 C15.2533334,10.5666667 15.2533334,6.76666666 12.9066667,4.42666664 Z" id="path-1"></path>
    </defs>
    <g id="Icons/Image/rotate-90-degrees-ccw" stroke="none" stroke-width="1" fill="none" fill-rule="evenodd">
        <mask id="mask-2" fill="white">
            <use xlink:href="#path-1"></use>
        </mask>
        <use id="Icons/Image/ic_rotate_90_degrees_ccw_24px" fill="#233745" fill-rule="nonzero" xlink:href="#path-1"></use>
    </g>
</svg>