<?xml version="1.0" encoding="UTF-8"?>
<svg width="16px" height="16px" viewBox="0 0 16 16" version="1.1" xmlns="http://www.w3.org/2000/svg" xmlns:xlink="http://www.w3.org/1999/xlink">
    <title>Icons/Image/rotate-left</title>
    <defs>
        <path d="M4.73999998,5.68666665 L3.79999997,4.73999998 C3.19999997,5.51333332 2.82666663,6.40666666 2.7133333,7.33333333 L4.05999998,7.33333333 C4.15333331,6.75333333 4.38666664,6.18666666 4.73999998,5.68666665 L4.73999998,5.68666665 Z M4.05999998,8.66666667 L2.7133333,8.66666667 C2.82666663,9.59333334 3.1933333,10.4866667 3.79333331,11.26 L4.73333331,10.3133333 C4.38666664,9.81333334 4.15333331,9.25333334 4.05999998,8.66666667 L4.05999998,8.66666667 Z M4.73333331,12.2133334 C5.50666665,12.8133334 6.40666666,13.1733334 7.33333333,13.2866667 L7.33333333,11.9333334 C6.75333333,11.8333334 6.19333332,11.6066667 5.69333332,11.2466667 L4.73333331,12.2133334 Z M8.66666667,2.7133333 L8.66666667,0.666666621 L5.63333332,3.69999997 L8.66666667,6.66666662 L8.66666667,4.05999998 C10.56,4.37999998 12,6.01999999 12,8 C12,9.98000001 10.56,11.62 8.66666667,11.94 L8.66666667,13.2866667 C11.3,12.96 13.3333334,10.72 13.3333334,8 C13.3333334,5.27999998 11.3,3.03999997 8.66666667,2.7133333 Z" id="path-1"></path>
    </defs>
    <g id="Icons/Image/rotate-left" stroke="none" stroke-width="1" fill="none" fill-rule="evenodd">
        <mask id="mask-2" fill="white">
            <use xlink:href="#path-1"></use>
        </mask>
        <use id="Icons/Image/ic_rotate_left_24px" fill="#233745" fill-rule="nonzero" xlink:href="#path-1"></use>
    </g>
</svg>