<?xml version="1.0" encoding="UTF-8"?>
<svg width="16px" height="16px" viewBox="0 0 16 16" version="1.1" xmlns="http://www.w3.org/2000/svg" xmlns:xlink="http://www.w3.org/1999/xlink">
    <title>Icons/Image/rotate-right</title>
    <g id="Icons/Image/rotate-right" stroke="none" stroke-width="1" fill="none" fill-rule="evenodd">
        <rect id="Spacer" fill-opacity="0" fill="#D8D8D8" x="0" y="0" width="16" height="16"></rect>
        <path d="M10.3666667,3.69999997 L7.33333333,0.666666621 L7.33333333,2.7133333 C4.70666665,3.03999997 2.66666663,5.27999998 2.66666663,8 C2.66666663,10.72 4.69999998,12.96 7.33333333,13.2866667 L7.33333333,11.94 C5.43999998,11.62 3.99999998,9.98000001 3.99999998,8 C3.99999998,6.01999999 5.43999998,4.37999998 7.33333333,4.05999998 L7.33333333,6.66666662 L10.3666667,3.69999997 Z M13.2866667,7.33333333 C13.1733334,6.40666666 12.8066667,5.51333332 12.2066667,4.73999998 L11.26,5.68666665 C11.62,6.18666666 11.8466667,6.75333333 11.94,7.33333333 L13.2866667,7.33333333 Z M8.66666667,11.9333334 L8.66666667,13.28 C9.59333334,13.1666667 10.4933333,12.8066667 11.2666667,12.2066667 L10.3066667,11.2466667 C9.80666668,11.6066667 9.24666667,11.84 8.66666667,11.9333334 Z M11.26,10.32 L12.2066667,11.26 C12.8066667,10.4866667 13.1733334,9.59333334 13.2866667,8.66666667 L11.94,8.66666667 C11.8466667,9.24666667 11.62,9.81333334 11.26,10.32 L11.26,10.32 Z" id="Icons/Image/ic_rotate_right_24px" fill="#233745" fill-rule="nonzero"></path>
    </g>
</svg>