<?xml version="1.0" encoding="UTF-8"?>
<svg width="16px" height="16px" viewBox="0 0 16 16" version="1.1" xmlns="http://www.w3.org/2000/svg" xmlns:xlink="http://www.w3.org/1999/xlink">
    <title>Icons/Image/straighten</title>
    <defs>
        <path d="M14,3.99999998 L1.99999996,3.99999998 C1.26666662,3.99999998 0.666666621,4.59999998 0.666666621,5.33333332 L0.666666621,10.6666667 C0.666666621,11.4 1.26666662,12 1.99999996,12 L14,12 C14.7333334,12 15.3333334,11.4 15.3333334,10.6666667 L15.3333334,5.33333332 C15.3333334,4.59999998 14.7333334,3.99999998 14,3.99999998 Z M14,10.6666667 L1.99999996,10.6666667 L1.99999996,5.33333332 L3.3333333,5.33333332 L3.3333333,8 L4.66666665,8 L4.66666665,5.33333332 L5.99999996,5.33333332 L5.99999996,8 L7.33333333,8 L7.33333333,5.33333332 L8.66666667,5.33333332 L8.66666667,8 L9.99999996,8 L9.99999996,5.33333332 L11.3333334,5.33333332 L11.3333334,8 L12.6666667,8 L12.6666667,5.33333332 L14,5.33333332 L14,10.6666667 Z" id="path-1"></path>
    </defs>
    <g id="Icons/Image/straighten" stroke="none" stroke-width="1" fill="none" fill-rule="evenodd">
        <mask id="mask-2" fill="white">
            <use xlink:href="#path-1"></use>
        </mask>
        <use id="Icons/Image/ic_straighten_24px" fill="#233745" fill-rule="nonzero" xlink:href="#path-1"></use>
    </g>
</svg>