<?xml version="1.0" encoding="UTF-8"?>
<svg width="16px" height="16px" viewBox="0 0 16 16" version="1.1" xmlns="http://www.w3.org/2000/svg" xmlns:xlink="http://www.w3.org/1999/xlink">
    <title>Icons/Image/style</title>
    <g id="Icons/Image/style" stroke="none" stroke-width="1" fill="none" fill-rule="evenodd">
        <rect id="Spacer" fill-opacity="0" fill="#D8D8D8" x="0" y="0" width="16" height="16"></rect>
        <path d="M1.68666663,13.1 L2.57999997,13.4733334 L2.57999997,7.45333333 L0.959999956,11.36 C0.686666621,12.04 1.01333329,12.82 1.68666663,13.1 L1.68666663,13.1 Z M14.6866667,10.6333333 L11.38,2.6533333 C11.1733334,2.1533333 10.6866667,1.84666663 10.1733333,1.83333329 C10,1.83333329 9.82000001,1.85999996 9.64666668,1.9333333 L4.73333331,3.96666664 C4.23333331,4.17333331 3.92666664,4.65333331 3.91333331,5.16666665 C3.90666664,5.34666665 3.93999997,5.52666665 4.01333331,5.69999999 L7.32,13.68 C7.52666666,14.1866667 8.02,14.4933334 8.54,14.5 C8.71333334,14.5 8.88666667,14.4666667 9.05333334,14.4 L13.96,12.3666667 C14.64,12.0866667 14.9666667,11.3066667 14.6866667,10.6333333 L14.6866667,10.6333333 Z M5.25333332,5.83333332 C4.88666665,5.83333332 4.58666665,5.53333332 4.58666665,5.16666665 C4.58666665,4.79999998 4.88666665,4.49999998 5.25333332,4.49999998 C5.61999999,4.49999998 5.91999999,4.79999998 5.91999999,5.16666665 C5.91999999,5.53333332 5.61999999,5.83333332 5.25333332,5.83333332 Z M3.91999997,13.1666667 C3.91999997,13.9 4.51999998,14.5 5.25333332,14.5 L6.21999999,14.5 L3.91999997,8.94000001 L3.91999997,13.1666667 Z" id="Icons/Image/ic_style_24px" fill="#233745" fill-rule="nonzero"></path>
    </g>
</svg>