<?xml version="1.0" encoding="UTF-8"?>
<svg width="16px" height="16px" viewBox="0 0 16 16" version="1.1" xmlns="http://www.w3.org/2000/svg" xmlns:xlink="http://www.w3.org/1999/xlink">
    <title>Icons/Image/switch-camera</title>
    <g id="Icons/Image/switch-camera" stroke="none" stroke-width="1" fill="none" fill-rule="evenodd">
        <rect id="Spacer" fill-opacity="0" fill="#D8D8D8" x="0" y="0" width="16" height="16"></rect>
        <path d="M13.3333333,2.66666663 L11.22,2.66666663 L10,1.33333329 L5.99999999,1.33333329 L4.77999998,2.66666663 L2.66666663,2.66666663 C1.9333333,2.66666663 1.33333329,3.26666664 1.33333329,3.99999997 L1.33333329,12 C1.33333329,12.7333334 1.9333333,13.3333333 2.66666663,13.3333333 L13.3333333,13.3333333 C14.0666667,13.3333333 14.6666667,12.7333334 14.6666667,12 L14.6666667,3.99999997 C14.6666667,3.26666664 14.0666667,2.66666663 13.3333333,2.66666663 Z M10,10.3333333 L10,8.66666665 L5.99999999,8.66666665 L5.99999999,10.3333333 L3.66666664,8 L5.99999999,5.66666665 L5.99999999,7.33333333 L10,7.33333333 L10,5.66666665 L12.3333334,8 L10,10.3333333 Z" id="Icons/Image/ic_switch_camera_24px" fill="#233745" fill-rule="nonzero"></path>
    </g>
</svg>