<?xml version="1.0" encoding="UTF-8"?>
<svg width="16px" height="16px" viewBox="0 0 16 16" version="1.1" xmlns="http://www.w3.org/2000/svg" xmlns:xlink="http://www.w3.org/1999/xlink">
    <title>Icons/Image/timer</title>
    <g id="Icons/Image/timer" stroke="none" stroke-width="1" fill="none" fill-rule="evenodd">
        <rect id="Spacer" fill-opacity="0" fill="#D8D8D8" x="0" y="0" width="16" height="16"></rect>
        <path d="M9.99999999,0.666666621 L5.99999999,0.666666621 L5.99999999,1.99999996 L9.99999999,1.99999996 L9.99999999,0.666666621 Z M7.33333333,9.33333332 L8.66666667,9.33333332 L8.66666667,5.33333332 L7.33333333,5.33333332 L7.33333333,9.33333332 Z M12.6866667,4.92666665 L13.6333334,3.97999997 C13.3466667,3.63999997 13.0333334,3.31999997 12.6933334,3.03999997 L11.7466667,3.98666664 C10.7133334,3.15999997 9.41333334,2.66666663 7.99999996,2.66666663 C4.68666665,2.66666663 1.99999996,5.35333332 1.99999996,8.66666663 C1.99999996,11.98 4.67999998,14.6666666 7.99999996,14.6666666 C11.32,14.6666666 14,11.98 14,8.66666663 C14,7.25333333 13.5066667,5.95333332 12.6866667,4.92666665 Z M8,13.3333334 C5.41999998,13.3333334 3.3333333,11.2466667 3.3333333,8.66666667 C3.3333333,6.08666665 5.41999998,3.99999997 8,3.99999997 C10.58,3.99999997 12.6666667,6.08666665 12.6666667,8.66666667 C12.6666667,11.2466667 10.58,13.3333334 8,13.3333334 Z" id="Icons/Image/ic_timer_24px" fill="#233745" fill-rule="nonzero"></path>
    </g>
</svg>