<?xml version="1.0" encoding="UTF-8"?>
<svg width="16px" height="16px" viewBox="0 0 16 16" version="1.1" xmlns="http://www.w3.org/2000/svg" xmlns:xlink="http://www.w3.org/1999/xlink">
    <title>Icons/Image/timer-off</title>
    <g id="Icons/Image/timer-off" stroke="none" stroke-width="1" fill="none" fill-rule="evenodd">
        <rect id="Spacer" fill-opacity="0" fill="#D8D8D8" x="0" y="0" width="16" height="16"></rect>
        <path d="M12.6933334,3.0333333 L11.7466667,3.97999997 C10.7133334,3.15999997 9.41333334,2.66666663 8,2.66666663 C6.77999999,2.66666663 5.64666665,3.0333333 4.69999998,3.65333331 L5.67333332,4.62666665 C6.35333332,4.23333331 7.15333333,3.99999997 8,3.99999997 C10.58,3.99999997 12.6666667,6.08666665 12.6666667,8.66666663 C12.6666667,9.51333334 12.4333334,10.3133333 12.04,10.9933334 L13.0066667,11.96 C13.6333334,11.02 14,9.88666668 14,8.66666663 C14,7.25333333 13.5066667,5.95333332 12.6866667,4.92666665 L13.6333334,3.97999997 L12.6933334,3.0333333 L12.6933334,3.0333333 Z M9.99999999,0.666666621 L5.99999999,0.666666621 L5.99999999,1.99999996 L9.99999999,1.99999996 L9.99999999,0.666666621 Z M7.33333333,6.29333332 L8.66666667,7.62666666 L8.66666667,5.33333332 L7.33333333,5.33333332 L7.33333333,6.29333332 Z M2.0133333,2.66666663 L1.16666662,3.51333331 L2.99999997,5.35333332 C2.36666663,6.29999999 1.99999996,7.44 1.99999996,8.66666663 C1.99999996,11.98 4.67999998,14.6666666 8,14.6666666 C9.22666667,14.6666666 10.3666667,14.3 11.32,13.6666666 L12.9866667,15.3333334 L13.8333334,14.4866667 L8.69333334,9.34666668 L2.0133333,2.66666663 Z M8,13.3333334 C5.41999998,13.3333334 3.3333333,11.2466667 3.3333333,8.66666667 C3.3333333,7.81333333 3.56666664,7.01333333 3.96666664,6.31999999 L10.34,12.6933334 C9.65333334,13.1 8.85333334,13.3333334 8,13.3333334 L8,13.3333334 Z" id="Icons/Image/ic_timer_off_24px" fill="#233745" fill-rule="nonzero"></path>
    </g>
</svg>