<?xml version="1.0" encoding="UTF-8"?>
<svg width="16px" height="16px" viewBox="0 0 16 16" version="1.1" xmlns="http://www.w3.org/2000/svg" xmlns:xlink="http://www.w3.org/1999/xlink">
    <title>Icons/Image/timer-10</title>
    <defs>
        <path d="M-5.00000006e-08,5.26079998 L-5.00000006e-08,6.33599999 L1.91999996,5.69599999 L1.91999996,11.84 L3.19999997,11.84 L3.19999997,4.15999998 L3.03999997,4.15999998 L-5.00000006e-08,5.26079998 Z M15.2192,9.51680001 C15.1296,9.33760001 14.9952,9.17760001 14.816,9.04320001 C14.6368,8.90880001 14.4256,8.7936 14.1696,8.704 C13.9136,8.6144 13.6256,8.5312 13.3056,8.4608 C13.0816,8.416 12.896,8.3648 12.7488,8.3136 C12.6016,8.2624 12.4864,8.2112 12.3968,8.1536 C12.3072,8.096 12.2496,8.032 12.2176,7.9616 C12.1856,7.8912 12.1664,7.808 12.1664,7.712 C12.1664,7.6224 12.1856,7.5328 12.224,7.4496 C12.2624,7.3664 12.32,7.2896 12.3968,7.232 C12.4736,7.16799999 12.5696,7.11679999 12.6848,7.07839999 C12.8,7.03999999 12.9408,7.02079999 13.0944,7.02079999 C13.2544,7.02079999 13.3952,7.04639999 13.5168,7.09119999 C13.6384,7.13599999 13.7408,7.19999999 13.824,7.2768 C13.9072,7.3536 13.9648,7.4432 14.0096,7.5456 C14.048,7.648 14.0736,7.7504 14.0736,7.8592 L15.3216,7.8592 C15.3216,7.6096 15.2704,7.3792 15.168,7.16159999 C15.0656,6.94399999 14.9184,6.75839999 14.7264,6.59839999 C14.5344,6.43839999 14.304,6.31679999 14.0288,6.22079999 C13.7536,6.12479999 13.44,6.07999999 13.0944,6.07999999 C12.768,6.07999999 12.4672,6.12479999 12.2048,6.21439999 C11.9424,6.30399999 11.712,6.42559999 11.5264,6.57919999 C11.3408,6.73279999 11.2,6.91199999 11.0976,7.11679999 C10.9952,7.3216 10.9504,7.5328 10.9504,7.7632 C10.9504,7.9936 11.0016,8.2048 11.0976,8.3776 C11.1936,8.5568 11.328,8.7104 11.5072,8.84480001 C11.68,8.97920001 11.8912,9.08800001 12.1344,9.18400001 C12.3776,9.27360001 12.6528,9.35040001 12.9472,9.41440001 C13.1968,9.46560001 13.4016,9.52320001 13.5552,9.58080001 C13.7088,9.63840001 13.8304,9.70240001 13.92,9.76640001 C14.0032,9.83040001 14.0608,9.90720001 14.0928,9.98400001 C14.1248,10.0608 14.1376,10.144 14.1376,10.2336 C14.1376,10.4384 14.0544,10.5984 13.8816,10.7264 C13.7088,10.8544 13.4592,10.912 13.1328,10.912 C12.992,10.912 12.8576,10.8992 12.7232,10.8608 C12.5888,10.8288 12.4672,10.7776 12.3648,10.7072 C12.256,10.6368 12.1728,10.5408 12.1024,10.4256 C12.032,10.3104 11.9936,10.1632 11.9872,9.99680001 L10.7776,9.99680001 C10.7776,10.2272 10.8288,10.4512 10.9312,10.6688 C11.0336,10.8864 11.1808,11.0848 11.3792,11.264 C11.5776,11.4368 11.8208,11.5776 12.1152,11.6864 C12.4096,11.7952 12.7424,11.8464 13.1264,11.8464 C13.4656,11.8464 13.7728,11.808 14.048,11.7248 C14.3232,11.6416 14.56,11.5264 14.7584,11.3792 C14.9568,11.232 15.104,11.0528 15.2128,10.848 C15.3216,10.6432 15.3728,10.4192 15.3728,10.1696 C15.36,9.91360001 15.3152,9.69600001 15.2192,9.51680001 L15.2192,9.51680001 Z M8.84480001,4.83199998 C8.6272,4.57599998 8.3648,4.38399998 8.0576,4.26879998 C7.7568,4.15359998 7.4112,4.09599998 7.03999999,4.09599998 C6.66879999,4.09599998 6.32959999,4.15359998 6.02239999,4.26879998 C5.71519999,4.38399998 5.45279998,4.56959998 5.23519998,4.83199998 C5.01759998,5.09439998 4.85119998,5.42719998 4.72959998,5.84959999 C4.61439998,6.26559999 4.55039998,6.77759999 4.55039998,7.3792 L4.55039998,8.608 C4.55039998,9.20960001 4.60799998,9.72160001 4.72959998,10.1376 C4.85119998,10.56 5.01759998,10.8992 5.24159998,11.1616 C5.45919998,11.424 5.72159999,11.616 6.02879999,11.7312 C6.33599999,11.8464 6.67519999,11.9104 7.04639999,11.9104 C7.424,11.9104 7.7632,11.8528 8.064,11.7312 C8.3712,11.616 8.6272,11.424 8.84480001,11.1616 C9.06240001,10.8992 9.22880001,10.56 9.34400001,10.1376 C9.45920001,9.72160001 9.52320001,9.20960001 9.52320001,8.608 L9.52320001,7.3792 C9.52320001,6.77759999 9.46560001,6.26559999 9.34400001,5.84959999 C9.22880001,5.42719998 9.06240001,5.08799998 8.84480001,4.83199998 Z M8.256,8.7808 C8.256,9.16480001 8.2304,9.49120001 8.1792,9.76000001 C8.128,10.0288 8.0512,10.2464 7.9488,10.4128 C7.8464,10.5792 7.7184,10.7008 7.5712,10.7776 C7.424,10.8544 7.2448,10.8928 7.04639999,10.8928 C6.85439999,10.8928 6.67519999,10.8544 6.52159999,10.7776 C6.36799999,10.7008 6.23999999,10.5792 6.13759999,10.4128 C6.03519999,10.2464 5.95199999,10.0288 5.89439999,9.76000001 C5.83679999,9.49120001 5.81119999,9.16480001 5.81119999,8.7808 L5.81119999,7.18079999 C5.81119999,6.79679999 5.83679999,6.47039999 5.89439999,6.20799999 C5.95199999,5.94559999 6.02879999,5.73439999 6.13759999,5.56799998 C6.23999999,5.40799998 6.36799999,5.29279998 6.52159999,5.21599998 C6.67519999,5.14559998 6.84799999,5.10719998 7.03999999,5.10719998 C7.2384,5.10719998 7.4112,5.14559998 7.5584,5.21599998 C7.712,5.28639998 7.84,5.40159998 7.9424,5.56799998 C8.0448,5.72799999 8.128,5.93919999 8.1792,6.20159999 C8.2304,6.46399999 8.2624,6.79039999 8.2624,7.17439999 L8.2624,8.7808 L8.256,8.7808 Z" id="path-1"></path>
    </defs>
    <g id="Icons/Image/timer-10" stroke="none" stroke-width="1" fill="none" fill-rule="evenodd">
        <mask id="mask-2" fill="white">
            <use xlink:href="#path-1"></use>
        </mask>
        <use id="Icons/Image/ic_timer_10_24px" fill="#233745" fill-rule="nonzero" xlink:href="#path-1"></use>
    </g>
</svg>