<svg xmlns="http://www.w3.org/2000/svg" xmlns:xlink="http://www.w3.org/1999/xlink" width="16" height="16" viewBox="0 0 16 16">
  <defs>
    <path id="tonality-a" d="M8,1.33333329 C4.31999998,1.33333329 1.33333329,4.31999998 1.33333329,8 C1.33333329,11.68 4.31999998,14.6666667 8,14.6666667 C11.68,14.6666667 14.6666667,11.68 14.6666667,8 C14.6666667,4.31999998 11.68,1.33333329 8,1.33333329 Z M7.33333333,13.2866667 C4.70666665,12.96 2.66666663,10.72 2.66666663,8 C2.66666663,5.27999998 4.69999998,3.03999997 7.33333333,2.7133333 L7.33333333,13.2866667 Z M8.66666667,2.7133333 C9.35333334,2.79999997 10,3.0133333 10.58,3.3333333 L8.66666667,3.3333333 L8.66666667,2.7133333 Z M8.66666667,4.66666665 L12.16,4.66666665 C12.3266667,4.87333331 12.48,5.09999998 12.6133334,5.33333332 L8.66666667,5.33333332 L8.66666667,4.66666665 Z M8.66666667,6.66666666 L13.16,6.66666666 C13.2133334,6.88666666 13.26,7.10666666 13.2866667,7.33333333 L8.66666667,7.33333333 L8.66666667,6.66666666 Z M8.66666667,13.2866667 L8.66666667,12.6666667 L10.58,12.6666667 C10,12.9866667 9.35333334,13.2 8.66666667,13.2866667 Z M12.16,11.3333334 L8.66666667,11.3333334 L8.66666667,10.6666667 L12.6133334,10.6666667 C12.48,10.9 12.3266667,11.1266667 12.16,11.3333334 L12.16,11.3333334 Z M13.16,9.33333334 L8.66666667,9.33333334 L8.66666667,8.66666667 L13.2866667,8.66666667 C13.26,8.89333334 13.2133334,9.11333334 13.16,9.33333334 Z"/>
  </defs>
  <g fill="none" fill-rule="evenodd">
    <mask id="tonality-b" fill="#fff">
      <use xlink:href="#tonality-a"/>
    </mask>
    <g fill="CurrentColor" mask="url(#tonality-b)">
      <rect width="16" height="16"/>
    </g>
  </g>
</svg>
