<?xml version="1.0" encoding="UTF-8"?>
<svg width="16px" height="16px" viewBox="0 0 16 16" version="1.1" xmlns="http://www.w3.org/2000/svg" xmlns:xlink="http://www.w3.org/1999/xlink">
    <title>Icons/Image/transform</title>
    <defs>
        <path d="M14.6666667,12 L14.6666667,10.6666666 L5.33333329,10.6666666 L5.33333329,2.66666662 L6.66666666,2.66666662 L4.66666665,0.666666621 L2.66666663,2.66666662 L3.99999998,2.66666662 L3.99999998,3.99999997 L1.33333329,3.99999997 L1.33333329,5.33333332 L3.99999998,5.33333332 L3.99999998,10.6666666 C3.99999998,11.4 4.59999998,12 5.33333329,12 L10.6666667,12 L10.6666667,13.3333334 L9.33333329,13.3333334 L11.3333333,15.3333334 L13.3333333,13.3333334 L12,13.3333334 L12,12 L14.6666667,12 Z M6.66666666,5.33333332 L10.6666667,5.33333332 L10.6666667,9.33333334 L12,9.33333334 L12,5.33333332 C12,4.59999998 11.4,3.99999997 10.6666667,3.99999997 L6.66666666,3.99999997 L6.66666666,5.33333332 Z" id="path-1"></path>
    </defs>
    <g id="Icons/Image/transform" stroke="none" stroke-width="1" fill="none" fill-rule="evenodd">
        <mask id="mask-2" fill="white">
            <use xlink:href="#path-1"></use>
        </mask>
        <use id="Icons/Image/ic_transform_24px" fill="#233745" fill-rule="nonzero" xlink:href="#path-1"></use>
    </g>
</svg>