<svg xmlns="http://www.w3.org/2000/svg" xmlns:xlink="http://www.w3.org/1999/xlink" width="16" height="16" viewBox="0 0 16 16">
  <defs>
    <path id="tune-a" d="M1.99999996,11.3333334 L1.99999996,12.6666667 L5.99999996,12.6666667 L5.99999996,11.3333334 L1.99999996,11.3333334 Z M1.99999996,3.3333333 L1.99999996,4.66666665 L8.66666667,4.66666665 L8.66666667,3.3333333 L1.99999996,3.3333333 Z M8.66666667,14 L8.66666667,12.6666667 L14,12.6666667 L14,11.3333334 L8.66666667,11.3333334 L8.66666667,10 L7.33333333,10 L7.33333333,14 L8.66666667,14 Z M4.66666665,5.99999999 L4.66666665,7.33333333 L1.99999996,7.33333333 L1.99999996,8.66666667 L4.66666665,8.66666667 L4.66666665,9.99999999 L5.99999996,9.99999999 L5.99999996,5.99999999 L4.66666665,5.99999999 Z M14,8.66666667 L14,7.33333333 L7.33333333,7.33333333 L7.33333333,8.66666667 L14,8.66666667 Z M10,5.99999996 L11.3333334,5.99999996 L11.3333334,4.66666665 L14,4.66666665 L14,3.3333333 L11.3333334,3.3333333 L11.3333334,1.99999996 L10,1.99999996 L10,5.99999996 Z"/>
  </defs>
  <g fill="none" fill-rule="evenodd">
    <mask id="tune-b" fill="#fff">
      <use xlink:href="#tune-a"/>
    </mask>
    <g fill="CurrentColor" mask="url(#tune-b)">
      <rect width="16" height="16"/>
    </g>
  </g>
</svg>
