<?xml version="1.0" encoding="UTF-8"?>
<svg width="16px" height="16px" viewBox="0 0 16 16" version="1.1" xmlns="http://www.w3.org/2000/svg" xmlns:xlink="http://www.w3.org/1999/xlink">
    <title>Icons/Image/view-comfy</title>
    <g id="Icons/Image/view-comfy" stroke="none" stroke-width="1" fill="none" fill-rule="evenodd">
        <rect id="Spacer" fill-opacity="0" fill="#D8D8D8" x="0" y="0" width="16" height="16"></rect>
        <path d="M1.99999996,5.99999999 L4.66666665,5.99999999 L4.66666665,3.3333333 L1.99999996,3.3333333 L1.99999996,5.99999999 Z M1.99999996,9.33333334 L4.66666665,9.33333334 L4.66666665,6.66666666 L1.99999996,6.66666666 L1.99999996,9.33333334 Z M5.33333332,9.33333334 L8,9.33333334 L8,6.66666666 L5.33333332,6.66666666 L5.33333332,9.33333334 Z M8.66666667,9.33333334 L11.3333334,9.33333334 L11.3333334,6.66666666 L8.66666667,6.66666666 L8.66666667,9.33333334 Z M5.33333332,5.99999999 L8,5.99999999 L8,3.3333333 L5.33333332,3.3333333 L5.33333332,5.99999999 Z M8.66666667,3.3333333 L8.66666667,5.99999999 L11.3333334,5.99999999 L11.3333334,3.3333333 L8.66666667,3.3333333 Z M12,9.33333334 L14.6666667,9.33333334 L14.6666667,6.66666666 L12,6.66666666 L12,9.33333334 Z M1.99999996,12.6666667 L4.66666665,12.6666667 L4.66666665,10 L1.99999996,10 L1.99999996,12.6666667 Z M5.33333332,12.6666667 L8,12.6666667 L8,10 L5.33333332,10 L5.33333332,12.6666667 Z M8.66666667,12.6666667 L11.3333334,12.6666667 L11.3333334,10 L8.66666667,10 L8.66666667,12.6666667 Z M12,12.6666667 L14.6666667,12.6666667 L14.6666667,10 L12,10 L12,12.6666667 Z M12,3.3333333 L12,5.99999999 L14.6666667,5.99999999 L14.6666667,3.3333333 L12,3.3333333 Z" id="Icons/Image/ic_view_comfy_24px" fill="#233745" fill-rule="nonzero"></path>
    </g>
</svg>