<?xml version="1.0" encoding="UTF-8"?>
<svg width="16px" height="16px" viewBox="0 0 16 16" version="1.1" xmlns="http://www.w3.org/2000/svg" xmlns:xlink="http://www.w3.org/1999/xlink">
    <title>Icons/Image/wb-iridescent</title>
    <defs>
        <path d="M3.3333333,9.66666665 L12.6666667,9.66666665 L12.6666667,5.66666665 L3.3333333,5.66666665 L3.3333333,9.66666665 Z M7.33333333,0.366666619 L7.33333333,2.3333333 L8.66666667,2.3333333 L8.66666667,0.366666619 L7.33333333,0.366666619 Z M12.6933334,2.0333333 L11.5,3.22666664 L12.44,4.16666664 L13.64,2.9733333 L12.6933334,2.0333333 Z M8.66666667,14.9666667 L8.66666667,13 L7.33333333,13 L7.33333333,14.9666667 L8.66666667,14.9666667 Z M13.6333334,12.36 L12.4333334,11.1666667 L11.4933334,12.1066667 L12.6866667,13.3066667 L13.6333334,12.36 L13.6333334,12.36 Z M2.36666663,2.9733333 L3.55999997,4.16666664 L4.49999998,3.22666664 L3.30666664,2.0333333 L2.36666663,2.9733333 Z M3.30666664,13.3 L4.49999998,12.1 L3.55999997,11.16 L2.36666663,12.3533334 L3.30666664,13.3 L3.30666664,13.3 Z" id="path-1"></path>
    </defs>
    <g id="Icons/Image/wb-iridescent" stroke="none" stroke-width="1" fill="none" fill-rule="evenodd">
        <mask id="mask-2" fill="white">
            <use xlink:href="#path-1"></use>
        </mask>
        <use id="Icons/Image/ic_wb_iridescent_24px" fill="#233745" fill-rule="nonzero" xlink:href="#path-1"></use>
    </g>
</svg>