<?xml version="1.0" encoding="UTF-8"?>
<svg width="16px" height="16px" viewBox="0 0 16 16" version="1.1" xmlns="http://www.w3.org/2000/svg" xmlns:xlink="http://www.w3.org/1999/xlink">
    <title>Icons/Image/wb-incandescent</title>
    <defs>
        <path d="M2.36666663,12.36 L3.30666664,13.3 L4.49999998,12.1 L3.55999997,11.16 L2.36666663,12.36 Z M7.33333333,14.9666667 L8.66666667,14.9666667 L8.66666667,13 L7.33333333,13 L7.33333333,14.9666667 Z M2.66666662,6.99999999 L0.666666621,6.99999999 L0.666666621,8.33333334 L2.66666662,8.33333334 L2.66666662,6.99999999 Z M9.99999997,4.20666664 L9.99999997,0.999999956 L5.99999997,0.999999956 L5.99999997,4.20666664 C4.80666665,4.89999998 3.99999997,6.18666666 3.99999997,7.66666666 C3.99999997,9.87333335 5.79333332,11.6666667 7.99999997,11.6666667 C10.2066667,11.6666667 12,9.87333335 12,7.66666666 C12,6.18666666 11.1933334,4.89999998 9.99999997,4.20666664 Z M13.3333334,6.99999999 L13.3333334,8.33333334 L15.3333334,8.33333334 L15.3333334,6.99999999 L13.3333334,6.99999999 Z M11.4933334,12.1066667 L12.6866667,13.3066667 L13.6266667,12.3666667 L12.4266667,11.1733334 L11.4933334,12.1066667 Z" id="path-1"></path>
    </defs>
    <g id="Icons/Image/wb-incandescent" stroke="none" stroke-width="1" fill="none" fill-rule="evenodd">
        <mask id="mask-2" fill="white">
            <use xlink:href="#path-1"></use>
        </mask>
        <use id="Icons/Image/ic_wb_incandescent_24px" fill="#233745" fill-rule="nonzero" xlink:href="#path-1"></use>
    </g>
</svg>