<?xml version="1.0" encoding="UTF-8"?>
<svg width="16px" height="16px" viewBox="0 0 16 16" version="1.1" xmlns="http://www.w3.org/2000/svg" xmlns:xlink="http://www.w3.org/1999/xlink">
    <title>Icons/Image/wb-sunny</title>
    <g id="Icons/Image/wb-sunny" stroke="none" stroke-width="1" fill="none" fill-rule="evenodd">
        <rect id="Spacer" fill-opacity="0" fill="#D8D8D8" x="0" y="0" width="16" height="16"></rect>
        <path d="M4.50666664,3.22666664 L3.30666664,2.0333333 L2.36666663,2.9733333 L3.55999997,4.16666664 L4.50666664,3.22666664 Z M2.66666662,6.99999999 L0.666666621,6.99999999 L0.666666621,8.33333334 L2.66666662,8.33333334 L2.66666662,6.99999999 Z M8.66666667,0.366666619 L7.33333333,0.366666619 L7.33333333,2.3333333 L8.66666667,2.3333333 L8.66666667,0.366666619 L8.66666667,0.366666619 Z M13.6333334,2.9733333 L12.6933334,2.0333333 L11.5,3.22666664 L12.44,4.16666664 L13.6333334,2.9733333 Z M11.4933334,12.1066667 L12.6866667,13.3066667 L13.6266667,12.3666667 L12.4266667,11.1733334 L11.4933334,12.1066667 Z M13.3333334,6.99999999 L13.3333334,8.33333334 L15.3333334,8.33333334 L15.3333334,6.99999999 L13.3333334,6.99999999 Z M7.99999997,3.66666664 C5.79333332,3.66666664 3.99999997,5.45999998 3.99999997,7.66666664 C3.99999997,9.87333335 5.79333332,11.6666666 7.99999997,11.6666666 C10.2066667,11.6666666 12,9.87333335 12,7.66666664 C12,5.45999998 10.2066667,3.66666664 7.99999997,3.66666664 Z M7.33333333,14.9666667 L8.66666667,14.9666667 L8.66666667,13 L7.33333333,13 L7.33333333,14.9666667 Z M2.36666663,12.36 L3.30666664,13.3 L4.49999998,12.1 L3.55999997,11.16 L2.36666663,12.36 Z" id="Icons/Image/ic_wb_sunny_24px" fill="#233745" fill-rule="nonzero"></path>
    </g>
</svg>